# This file uses meters as units for non-parametric coordinates.

v -5.265535 -42.698444 -1.117875
v -90.997007 -42.698444 -1.117875
v -5.265535 55.102535 -1.117875
v -90.997007 55.102535 -1.117875
v -5.265535 -42.698444 -2.401048
v -90.997007 -42.698444 -2.401048
v -5.265535 55.102535 -2.401048
v -90.997007 55.102535 -2.401048
vt 0.523108 0.974629
vt 0.523108 0.992471
vt 0.506320 0.992471
vt 0.506320 0.974629
vt 0.523108 0.974629
vt 0.506320 0.974629
vt 0.506320 0.992471
vt 0.523108 0.992471
vn 0.000000 0.000000 1.000000
vn 0.000000 0.000000 1.000000
vn 0.000000 0.000000 1.000000
vn 0.000000 0.000000 1.000000
vn 0.000000 0.000000 -1.000000
vn 0.000000 0.000000 -1.000000
vn 0.000000 0.000000 -1.000000
vn 0.000000 0.000000 -1.000000
f 1/1/1 3/2/2 4/3/3 2/4/4
f 5/5/5 6/6/6 8/7/7 7/8/8
