# This file uses meters as units for non-parametric coordinates.

v 58.843998 -105.867448 -1.117875
v 11.146579 -105.867448 -1.117875
v 58.843998 105.867446 -1.117875
v 11.146579 105.867446 -1.117875
v 58.843998 -105.867448 -2.401048
v 11.146579 -105.867448 -2.401048
v 58.843998 105.867446 -2.401048
v 11.146579 105.867446 -2.401048
vt 0.554358 0.880879
vt 0.554358 0.898721
vt 0.537570 0.898721
vt 0.537570 0.880879
vt 0.554358 0.880879
vt 0.537570 0.880879
vt 0.537570 0.898721
vt 0.554358 0.898721
vn 0.000000 0.000000 1.000000
vn 0.000000 0.000000 1.000000
vn 0.000000 0.000000 1.000000
vn 0.000000 0.000000 1.000000
vn 0.000000 0.000000 -1.000000
vn 0.000000 0.000000 -1.000000
vn 0.000000 0.000000 -1.000000
vn 0.000000 0.000000 -1.000000
f 1/1/1 3/2/2 4/3/3 2/4/4
f 5/5/5 6/6/6 8/7/7 7/8/8
