# This file uses meters as units for non-parametric coordinates.

v 10.569590 -39.220056 2.346391
v 61.169281 -39.220056 2.346391
v 10.569590 90.670462 2.346391
v 61.169281 90.670462 2.346391
v 10.569590 90.670462 1.095278
v 61.169281 90.670462 1.095278
v 10.569590 -39.220056 1.095278
v 61.169281 -39.220056 1.095278
vt 0.524001 0.880038
vt 0.524001 0.898218
vt 0.505821 0.880038
vt 0.505821 0.898218
vt 0.524001 0.880038
vt 0.524001 0.898218
vt 0.505821 0.880038
vt 0.505821 0.898218
vn 0.000000 0.000000 1.000000
vn 0.000000 0.000000 1.000000
vn 0.000000 0.000000 1.000000
vn 0.000000 0.000000 1.000000
vn 0.000000 0.000000 -1.000000
vn 0.000000 0.000000 -1.000000
vn 0.000000 0.000000 -1.000000
vn 0.000000 0.000000 -1.000000
f 1/1/1 2/2/2 4/4/3 3/3/4
f 5/5/5 6/6/6 8/8/7 7/7/8
