# This file uses meters as units for non-parametric coordinates.

v 58.749374 21.940973 55.288773
v 58.749367 294.424316 55.288773
v 61.343002 21.940973 55.288773
v 61.343010 294.424316 55.288773
v 61.343002 21.940973 9.986496
v 61.343010 294.424316 9.986496
v 58.749374 21.940973 9.986496
v 58.749367 294.424316 9.986496
v -58.749367 21.940979 55.288773
v -58.749367 294.424316 55.288773
v -61.343010 21.940979 55.288773
v -61.343010 294.424316 55.288773
v -61.343010 21.940979 9.986496
v -61.343010 294.424316 9.986496
v -58.749367 21.940979 9.986496
v -58.749367 294.424316 9.986496
vt 0.588055 0.960584
vt 0.570546 0.942897
vt 0.570546 0.960584
vt 0.588055 0.942897
vt 0.588055 0.960584
vt 0.570546 0.942897
vt 0.570546 0.960584
vt 0.588055 0.942897
vt 0.588055 0.960584
vt 0.588055 0.942897
vt 0.570546 0.942897
vt 0.570546 0.942897
vt 0.570546 0.960584
vt 0.588055 0.960584
vt 0.588055 0.942897
vt 0.570546 0.942897
vt 0.570546 0.960584
vt 0.588055 0.960584
vt 0.588055 0.942897
vt 0.588055 0.960584
vt 0.588055 0.942897
vt 0.570546 0.942897
vn 1.000000 -0.000000 0.000000
vn 1.000000 -0.000000 0.000000
vn 1.000000 -0.000000 0.000000
vn 1.000000 -0.000000 0.000000
vn -1.000000 -0.000000 0.000000
vn -1.000000 -0.000000 0.000000
vn -1.000000 -0.000000 0.000000
vn -1.000000 -0.000000 0.000000
vn 0.000000 1.000000 0.000000
vn 0.000000 1.000000 0.000000
vn 0.000000 1.000000 0.000000
vn 0.000000 1.000000 0.000000
vn -1.000000 0.000000 0.000000
vn -1.000000 0.000000 0.000000
vn -1.000000 0.000000 0.000000
vn -1.000000 0.000000 0.000000
vn 1.000000 0.000000 0.000000
vn 1.000000 0.000000 0.000000
vn 1.000000 0.000000 0.000000
vn 1.000000 0.000000 0.000000
vn 0.000000 1.000000 0.000000
vn 0.000000 1.000000 0.000000
vn 0.000000 1.000000 0.000000
vn 0.000000 1.000000 0.000000
f 3/2/1 5/4/2 6/5/3 4/3/4
f 7/6/5 1/8/6 2/9/7 8/7/8
f 2/1/9 4/3/10 6/11/11 8/10/12
f 11/12/13 12/13/14 14/14/15 13/15/16
f 15/16/17 16/17/18 10/18/19 9/19/20
f 10/20/21 16/21/22 14/22/23 12/13/24
