# This file uses meters as units for non-parametric coordinates.

v 5.432674 92.540798 1.934540
v -5.136921 92.540798 1.934540
v 5.432659 -92.540798 1.934540
v -5.136921 -92.540798 1.934540
v 5.432659 -92.540798 -1.934540
v -5.136921 -92.540798 -1.934540
v 5.432674 92.540798 -1.934540
v -5.136921 92.540798 -1.934540
v 68.644718 -92.540798 1.725433
v 68.644718 -81.971218 1.725433
v 5.432659 -92.540798 1.725433
v 5.432667 -81.971218 1.725433
v 5.432659 -92.540798 -1.725433
v 5.432667 -81.971218 -1.725433
v 68.644718 -92.540798 -1.725433
v 68.644718 -81.971218 -1.725433
v 69.195270 81.971218 1.725418
v 69.195270 92.540798 1.725418
v 5.432667 81.971218 1.725418
v 5.432674 92.540798 1.725418
v 5.432667 81.971218 -1.725418
v 5.432674 92.540798 -1.725418
v 69.195270 81.971218 -1.725418
v 69.195270 92.540798 -1.725418
v 69.195270 92.540798 1.934540
v 79.764866 92.540798 1.934540
v 68.644718 -92.540798 1.934540
v 79.214321 -92.540798 1.934540
v 68.644718 -92.540798 -1.934540
v 79.214321 -92.540798 -1.934540
v 69.195270 92.540798 -1.934540
v 79.764866 92.540798 -1.934540
vt 0.737794 0.763371
vt 0.737794 0.859311
vt 0.641854 0.859311
vt 0.641854 0.763371
vt 0.737794 0.859311
vt 0.737794 0.763371
vt 0.641854 0.859311
vt 0.641854 0.763371
vt 0.737794 0.859311
vt 0.737794 0.763371
vt 0.737794 0.763371
vt 0.641854 0.763371
vt 0.737794 0.859311
vt 0.641854 0.859311
vt 0.737794 0.763371
vt 0.737794 0.859311
vt 0.641854 0.859311
vt 0.641854 0.763371
vt 0.737794 0.763371
vt 0.737794 0.859311
vt 0.641854 0.859311
vt 0.641854 0.763371
vt 0.737794 0.763371
vt 0.641854 0.763371
vt 0.737794 0.859311
vt 0.641854 0.859311
vt 0.737794 0.763371
vt 0.737794 0.859311
vt 0.641854 0.859311
vt 0.641854 0.763371
vt 0.737794 0.763371
vt 0.737794 0.859311
vt 0.641854 0.859311
vt 0.641854 0.763371
vt 0.737794 0.763371
vt 0.641854 0.763371
vt 0.737794 0.859311
vt 0.641854 0.859311
vt 0.737794 0.763371
vt 0.641854 0.763371
vt 0.641854 0.859311
vt 0.737794 0.859311
vt 0.737794 0.763371
vt 0.737794 0.859311
vt 0.641854 0.763371
vt 0.641854 0.859311
vt 0.737794 0.763371
vt 0.737794 0.859311
vt 0.641854 0.763371
vt 0.737794 0.763371
vt 0.737794 0.859311
vt 0.641854 0.859311
vn 0.000000 0.000000 1.000000
vn 0.000000 0.000000 1.000000
vn 0.000000 0.000000 1.000000
vn 0.000000 0.000000 1.000000
vn 0.000000 -1.000000 0.000000
vn 0.000000 -1.000000 0.000000
vn 0.000000 -1.000000 0.000000
vn 0.000000 -1.000000 0.000000
vn 0.000000 0.000000 -1.000000
vn 0.000000 0.000000 -1.000000
vn 0.000000 0.000000 -1.000000
vn 0.000000 0.000000 -1.000000
vn 0.000000 1.000000 0.000000
vn 0.000000 1.000000 0.000000
vn 0.000000 1.000000 0.000000
vn 0.000000 1.000000 0.000000
vn -1.000000 0.000000 0.000000
vn -1.000000 0.000000 0.000000
vn -1.000000 0.000000 0.000000
vn -1.000000 0.000000 0.000000
vn 1.000000 -0.000000 0.000000
vn 1.000000 -0.000000 0.000000
vn 1.000000 -0.000000 0.000000
vn 1.000000 -0.000000 0.000000
vn 0.000000 0.000000 1.000000
vn 0.000000 0.000000 1.000000
vn 0.000000 0.000000 1.000000
vn 0.000000 0.000000 1.000000
vn 0.000000 0.000000 -1.000000
vn 0.000000 0.000000 -1.000000
vn 0.000000 0.000000 -1.000000
vn 0.000000 0.000000 -1.000000
vn 0.000000 1.000000 0.000000
vn 0.000000 1.000000 0.000000
vn 0.000000 1.000000 0.000000
vn 0.000000 1.000000 0.000000
vn 0.000000 -1.000000 0.000000
vn 0.000000 -1.000000 0.000000
vn 0.000000 -1.000000 0.000000
vn 0.000000 -1.000000 0.000000
vn 0.000000 0.000000 1.000000
vn 0.000000 0.000000 1.000000
vn 0.000000 0.000000 1.000000
vn 0.000000 0.000000 1.000000
vn 0.000000 0.000000 -1.000000
vn 0.000000 0.000000 -1.000000
vn 0.000000 0.000000 -1.000000
vn 0.000000 0.000000 -1.000000
vn 0.000000 1.000000 0.000000
vn 0.000000 1.000000 0.000000
vn 0.000000 1.000000 0.000000
vn 0.000000 1.000000 0.000000
vn 0.000000 -1.000000 0.000000
vn 0.000000 -1.000000 0.000000
vn 0.000000 -1.000000 0.000000
vn 0.000000 -1.000000 0.000000
vn 0.000000 0.000000 1.000000
vn 0.000000 0.000000 1.000000
vn 0.000000 0.000000 1.000000
vn 0.000000 0.000000 1.000000
vn 0.000000 -1.000000 0.000000
vn 0.000000 -1.000000 0.000000
vn 0.000000 -1.000000 0.000000
vn 0.000000 -1.000000 0.000000
vn 0.000000 0.000000 -1.000000
vn 0.000000 0.000000 -1.000000
vn 0.000000 0.000000 -1.000000
vn 0.000000 0.000000 -1.000000
vn 0.000000 1.000000 0.000000
vn 0.000000 1.000000 0.000000
vn 0.000000 1.000000 0.000000
vn 0.000000 1.000000 0.000000
vn 0.999996 -0.002975 0.000000
vn 0.999996 -0.002975 0.000000
vn 0.999996 -0.002975 0.000000
vn 0.999996 -0.002975 0.000000
vn -0.999996 0.002975 0.000000
vn -0.999996 0.002975 0.000000
vn -0.999996 0.002975 0.000000
vn -0.999996 0.002975 0.000000
f 1/1/1 2/2/2 4/3/3 3/4/4
f 3/4/5 4/3/6 6/5/7 5/6/8
f 5/6/9 6/5/10 8/7/11 7/8/12
f 7/8/13 8/7/14 2/9/15 1/10/16
f 2/2/17 8/11/18 6/12/19 4/3/20
f 7/13/21 1/1/22 3/4/23 5/14/24
f 9/15/25 10/16/26 12/17/27 11/18/28
f 13/19/29 14/20/30 16/21/31 15/22/32
f 10/16/33 16/23/34 14/24/35 12/17/36
f 15/25/37 9/15/38 11/18/39 13/26/40
f 17/27/41 18/28/42 20/29/43 19/30/44
f 21/31/45 22/32/46 24/33/47 23/34/48
f 18/28/49 24/35/50 22/36/51 20/29/52
f 23/37/53 17/27/54 19/30/55 21/38/56
f 25/39/57 27/40/58 28/41/59 26/42/60
f 27/40/61 29/43/62 30/44/63 28/41/64
f 29/43/65 31/45/66 32/46/67 30/44/68
f 31/45/69 25/47/70 26/48/71 32/46/72
f 26/42/73 28/41/74 30/49/75 32/50/76
f 31/51/77 29/52/78 27/40/79 25/39/80
