# This file uses meters as units for non-parametric coordinates.

v -102.143585 -55.675144 -3.394867
v -90.997009 -42.698444 -3.394867
v -5.265541 -42.698444 -3.394867
v 5.881035 -55.675144 -3.394867
v -5.265541 6.172848 -3.394867
v 5.881035 6.172848 -3.394867
v 5.881035 68.079254 -3.394867
v -5.265541 55.102535 -3.394867
v -90.997009 55.102535 -3.394867
v -102.143585 68.079254 -3.394867
v -102.143585 6.172848 -3.394867
v -90.997009 6.172848 -3.394867
v -100.955498 -54.487057 0.000000
v -102.143585 -55.675144 -1.188087
v 4.692947 -54.487057 0.000000
v 5.881035 -55.675144 -1.188087
v -4.077457 -43.886524 0.000000
v -5.265541 -42.698444 -1.188087
v -92.185089 -43.886524 0.000000
v -90.997009 -42.698444 -1.188087
v 4.692947 6.172848 0.000000
v 5.881035 6.172848 -1.188087
v -5.265541 6.172848 -1.188087
v -4.077457 6.172848 0.000000
v 5.881035 68.079254 -1.188087
v 4.692947 66.891174 0.000000
v -100.955498 66.891174 0.000000
v -102.143585 68.079254 -1.188087
v -90.997009 55.102535 -1.188087
v -92.185089 56.290615 0.000000
v -4.077457 56.290615 0.000000
v -5.265541 55.102535 -1.188087
v -102.143585 6.172848 -1.188087
v -100.955498 6.172848 0.000000
v -92.185089 6.172848 0.000000
v -90.997009 6.172848 -1.188087
vt 0.318227 0.774037
vt 0.334047 0.762923
vt 0.333804 0.773810
vt 0.320643 0.762923
vt 0.336463 0.773845
vt 0.320643 0.762748
vt 0.336463 0.774037
vt 0.320910 0.762768
vt 0.317907 0.771630
vt 0.336783 0.774020
vt 0.333777 0.764713
vt 0.320913 0.762589
vt 0.333807 0.771630
vt 0.317907 0.774020
vt 0.320913 0.764713
vt 0.333777 0.762416
vt 0.336783 0.771436
vt 0.317907 0.773825
vt 0.320913 0.764540
vt 0.333777 0.762416
vt 0.336783 0.771630
vt 0.320883 0.774020
vt 0.320913 0.764540
vt 0.333777 0.762589
vt 0.320887 0.773810
vt 0.334047 0.762748
vt 0.320883 0.771630
vt 0.336783 0.773825
vt 0.320913 0.762416
vt 0.333777 0.764540
vt 0.333777 0.764540
vt 0.320913 0.762416
vt 0.333807 0.774020
vt 0.317907 0.771436
vt 0.333780 0.762768
vt 0.318227 0.773845
vn 0.000000 0.000000 -1.000000
vn 0.000000 0.000000 -1.000000
vn 0.000000 0.000000 -1.000000
vn 0.000000 0.000000 -1.000000
vn 0.000000 0.000000 -1.000000
vn 0.000000 0.000000 -1.000000
vn -0.000000 0.000000 -1.000000
vn -0.000000 0.000000 -1.000000
vn 0.000000 0.000000 -1.000000
vn 0.000000 0.000000 -1.000000
vn 0.000000 0.000000 -1.000000
vn 0.000000 0.000000 -1.000000
vn 0.000000 0.000000 -1.000000
vn 0.000000 0.000000 -1.000000
vn 0.000000 0.000000 -1.000000
vn 0.000000 0.000000 -1.000000
vn 0.000000 0.000000 -1.000000
vn 0.000000 0.000000 -1.000000
vn -0.000000 0.000000 -1.000000
vn -0.000000 0.000000 -1.000000
vn 0.000000 -0.707108 0.707105
vn 0.000000 -0.707108 0.707105
vn 0.000000 -0.707108 0.707105
vn 0.000000 -0.707108 0.707105
vn -0.707107 0.000000 0.707107
vn -0.707107 0.000000 0.707107
vn -0.707107 0.000000 0.707107
vn -0.707107 0.000000 0.707107
vn 0.707107 0.000000 0.707107
vn 0.707107 0.000000 0.707107
vn 0.707107 0.000000 0.707107
vn 0.707107 0.000000 0.707107
vn 0.000000 0.707108 0.707105
vn 0.000000 0.707108 0.707105
vn 0.000000 0.707108 0.707105
vn 0.000000 0.707108 0.707105
vn -0.707108 0.000000 0.707106
vn -0.707108 0.000000 0.707106
vn -0.707108 0.000000 0.707106
vn -0.707108 0.000000 0.707106
vn 0.707109 0.000000 0.707105
vn 0.707109 0.000000 0.707105
vn 0.707109 0.000000 0.707105
vn 0.707109 0.000000 0.707105
vn 0.707107 0.000000 0.707107
vn 0.707107 0.000000 0.707107
vn -0.707108 0.000000 0.707106
vn -0.707108 0.000000 0.707106
vn 0.000000 0.707110 0.707104
vn 0.000000 0.707110 0.707104
vn 0.000000 0.707110 0.707104
vn 0.000000 0.707110 0.707104
vn -0.707107 0.000000 0.707107
vn -0.707107 0.000000 0.707107
vn 0.707109 0.000000 0.707105
vn 0.707109 0.000000 0.707105
vn 0.000000 -0.707110 0.707104
vn 0.000000 -0.707110 0.707104
vn 0.000000 -0.707110 0.707104
vn 0.000000 -0.707110 0.707104
vn 0.000000 0.000000 1.000000
vn 0.000000 0.000000 1.000000
vn 0.000000 0.000000 1.000000
vn 0.000000 0.000000 1.000000
vn 0.000000 0.000000 1.000000
vn 0.000000 0.000000 1.000000
vn 0.000000 0.000000 1.000000
vn 0.000000 0.000000 1.000000
vn 0.000000 0.000000 1.000000
vn 0.000000 0.000000 1.000000
vn 0.000000 0.000000 1.000000
vn 0.000000 0.000000 1.000000
vn 0.000000 -1.000000 0.000000
vn 0.000000 -1.000000 0.000000
vn 0.000000 -1.000000 0.000000
vn 0.000000 -1.000000 0.000000
vn 0.000000 1.000000 0.000000
vn 0.000000 1.000000 0.000000
vn 0.000000 1.000000 0.000000
vn 0.000000 1.000000 0.000000
vn 1.000000 0.000000 0.000000
vn 1.000000 0.000000 0.000000
vn 1.000000 0.000000 0.000000
vn 1.000000 0.000000 0.000000
vn -1.000000 0.000000 0.000000
vn -1.000000 0.000000 0.000000
vn -1.000000 0.000000 0.000000
vn -1.000000 0.000000 0.000000
vn 0.000000 1.000000 0.000000
vn 0.000000 1.000000 0.000000
vn 0.000000 1.000000 0.000000
vn 0.000000 1.000000 0.000000
vn 0.000000 -1.000000 0.000000
vn 0.000000 -1.000000 0.000000
vn 0.000000 -1.000000 0.000000
vn 0.000000 -1.000000 0.000000
vn -1.000000 0.000000 0.000000
vn -1.000000 0.000000 0.000000
vn -1.000000 0.000000 0.000000
vn -1.000000 0.000000 0.000000
vn 1.000000 0.000000 0.000000
vn 1.000000 0.000000 0.000000
vn 1.000000 0.000000 0.000000
vn 1.000000 0.000000 0.000000
vn -1.000000 0.000000 0.000000
vn -1.000000 0.000000 0.000000
vn 1.000000 0.000000 0.000000
vn 1.000000 0.000000 0.000000
vn -1.000000 0.000000 0.000000
vn -1.000000 0.000000 0.000000
vn 1.000000 0.000000 0.000000
vn 1.000000 0.000000 0.000000
f 1/21/1 2/11/2 3/15/3 4/9/4
f 4/9/5 3/15/6 5/31/7 6/13/8
f 7/34/9 8/19/10 9/30/11 10/17/12
f 11/27/13 12/23/14 2/11/15 1/21/16
f 10/17/17 9/30/18 12/23/14 11/27/13
f 6/13/8 5/31/7 8/19/19 7/34/20
f 13/7/21 14/10/22 16/14/23 15/1/24
f 14/10/25 13/7/26 34/25/27 33/22/28
f 15/1/29 16/14/30 22/33/31 21/3/32
f 17/4/33 18/12/34 20/24/35 19/2/36
f 18/12/37 17/4/38 24/35/39 23/16/40
f 19/2/41 20/24/42 36/29/43 35/8/44
f 21/3/32 22/33/31 25/18/45 26/36/46
f 23/16/40 24/35/39 31/6/47 32/32/48
f 26/36/49 25/18/50 28/28/51 27/5/52
f 27/5/53 28/28/54 33/22/28 34/25/27
f 29/20/55 30/26/56 35/8/44 36/29/43
f 30/26/57 29/20/58 32/32/59 31/6/60
f 13/7/61 15/1/62 17/4/63 19/2/64
f 15/1/62 21/3/65 24/35/66 17/4/63
f 26/36/67 27/5/68 30/26/69 31/6/70
f 34/25/71 13/7/61 19/2/64 35/8/72
f 1/21/73 4/9/74 16/14/75 14/10/76
f 3/15/77 2/11/78 20/24/79 18/12/80
f 4/9/81 6/13/82 22/33/83 16/14/84
f 5/31/85 3/15/86 18/12/87 23/16/88
f 7/34/89 10/17/90 28/28/91 25/18/92
f 9/30/93 8/19/94 32/32/95 29/20/96
f 11/27/97 1/21/98 14/10/99 33/22/100
f 2/11/101 12/23/102 36/29/103 20/24/104
f 27/5/68 34/25/71 35/8/72 30/26/69
f 10/17/105 11/27/97 33/22/100 28/28/106
f 36/29/103 12/23/102 9/30/107 29/20/108
f 8/19/109 5/31/85 23/16/88 32/32/110
f 22/33/83 6/13/82 7/34/111 25/18/112
f 24/35/66 21/3/65 26/36/67 31/6/70
