# This file uses meters as units for non-parametric coordinates.

v -69.305382 123.590020 66.011337
v 69.305382 123.590020 66.011337
v -69.305382 127.237755 66.011337
v 69.305382 127.237755 66.011337
v -69.305382 127.237755 12.882156
v 69.305382 127.237755 12.882156
v -69.305382 123.590020 12.882156
v 69.305382 123.590020 12.882156
v -69.305382 187.104630 66.011337
v 69.305382 187.104630 66.011337
v -69.305382 190.752366 66.011337
v 69.305382 190.752366 66.011337
v -69.305382 190.752366 12.882156
v 69.305382 190.752366 12.882156
v -69.305382 187.104630 12.882156
v 69.305382 187.104630 12.882156
v -69.305382 250.961335 66.011337
v 69.305382 250.961335 66.011337
v -69.305382 254.609070 66.011337
v 69.305382 254.609070 66.011337
v -69.305382 254.609070 12.882156
v 69.305382 254.609070 12.882156
v -69.305382 250.961335 12.882156
v 69.305382 250.961335 12.882156
vt 0.585706 0.963316
vt 0.569761 0.963316
vt 0.585706 0.945212
vt 0.569761 0.945212
vt 0.585706 0.963316
vt 0.569761 0.963316
vt 0.585706 0.945212
vt 0.569761 0.945212
vt 0.585706 0.963316
vt 0.569761 0.963316
vt 0.585706 0.963316
vt 0.569761 0.963316
vt 0.569761 0.945212
vt 0.585706 0.945212
vt 0.569761 0.963316
vt 0.585706 0.963316
vt 0.585706 0.945212
vt 0.569761 0.945212
vt 0.569761 0.963316
vt 0.585706 0.963316
vt 0.585706 0.963316
vt 0.569761 0.963316
vt 0.569761 0.945212
vt 0.585706 0.945212
vt 0.569761 0.963316
vt 0.585706 0.963316
vt 0.585706 0.945212
vt 0.569761 0.945212
vt 0.569761 0.963316
vt 0.585706 0.963316
vn 0.000000 0.000000 1.000000
vn 0.000000 0.000000 1.000000
vn 0.000000 0.000000 1.000000
vn 0.000000 0.000000 1.000000
vn 0.000000 1.000000 0.000000
vn 0.000000 1.000000 0.000000
vn 0.000000 1.000000 0.000000
vn 0.000000 1.000000 0.000000
vn 0.000000 -1.000000 0.000000
vn 0.000000 -1.000000 0.000000
vn 0.000000 -1.000000 0.000000
vn 0.000000 -1.000000 0.000000
vn 0.000000 0.000000 1.000000
vn 0.000000 0.000000 1.000000
vn 0.000000 0.000000 1.000000
vn 0.000000 0.000000 1.000000
vn 0.000000 1.000000 0.000000
vn 0.000000 1.000000 0.000000
vn 0.000000 1.000000 0.000000
vn 0.000000 1.000000 0.000000
vn 0.000000 -1.000000 0.000000
vn 0.000000 -1.000000 0.000000
vn 0.000000 -1.000000 0.000000
vn 0.000000 -1.000000 0.000000
vn 0.000000 0.000000 1.000000
vn 0.000000 0.000000 1.000000
vn 0.000000 0.000000 1.000000
vn 0.000000 0.000000 1.000000
vn 0.000000 1.000000 0.000000
vn 0.000000 1.000000 0.000000
vn 0.000000 1.000000 0.000000
vn 0.000000 1.000000 0.000000
vn 0.000000 -1.000000 0.000000
vn 0.000000 -1.000000 0.000000
vn 0.000000 -1.000000 0.000000
vn 0.000000 -1.000000 0.000000
f 1/1/1 2/2/2 4/4/3 3/3/4
f 3/3/5 4/4/6 6/6/7 5/5/8
f 7/7/9 8/8/10 2/10/11 1/9/12
f 9/11/13 10/12/14 12/13/15 11/14/16
f 11/14/17 12/13/18 14/15/19 13/16/20
f 15/17/21 16/18/22 10/19/23 9/20/24
f 17/21/25 18/22/26 20/23/27 19/24/28
f 19/24/29 20/23/30 22/25/31 21/26/32
f 23/27/33 24/28/34 18/29/35 17/30/36
