# This file uses meters as units for non-parametric coordinates.

v -63.243698 33.278769 58.277680
v 69.761963 33.278769 58.277680
v -63.243698 0.000002 58.277680
v 69.761963 0.000002 58.277680
v -63.243698 0.000002 58.277680
v 69.761963 0.000002 58.277680
v -63.243698 29.299484 58.277680
v 69.761963 29.299484 58.277680
v -63.243698 29.299484 0.000000
v 69.761963 29.299484 0.000000
v -63.243698 -0.000001 0.000000
v 69.761963 -0.000001 0.000000
v -61.211998 29.299484 58.462594
v 67.730270 29.299484 58.462594
v 67.730270 29.299484 2.424431
v -61.211998 29.299484 2.424431
v -61.211998 4.334400 58.462594
v 67.730270 4.334400 58.462594
v 67.730270 4.334398 2.424431
v -61.211998 4.334398 2.424431
v -62.005775 1.237921 63.229852
v -63.243698 0.000002 61.991929
v 68.524040 1.237921 63.229852
v 69.761963 0.000002 61.991929
v -62.005775 32.040851 63.229852
v -63.243698 33.278769 61.991929
v 68.524040 32.040851 63.229852
v 69.761963 33.278769 61.991929
vt 0.739509 0.008430
vt 0.642804 0.053745
vt 0.648733 0.050611
vt 0.733581 0.050611
vt 0.733581 0.010852
vt 0.648733 0.010852
vt 0.642804 0.008074
vt 0.739509 0.008074
vt 0.739509 0.053389
vt 0.642804 0.053389
vt 0.739509 0.008074
vt 0.642804 0.008074
vt 0.739509 0.008074
vt 0.642804 0.008074
vt 0.642804 0.053389
vt 0.739509 0.053389
vt 0.739509 0.008074
vt 0.642804 0.008074
vt 0.642804 0.053389
vt 0.739509 0.053389
vt 0.733581 0.010852
vt 0.733581 0.050611
vt 0.648733 0.010852
vt 0.648733 0.050611
vt 0.734261 0.010988
vt 0.644050 0.010988
vt 0.644050 0.053260
vt 0.734261 0.053260
vt 0.734261 0.010988
vt 0.734261 0.053260
vt 0.644050 0.010988
vt 0.644050 0.053260
vt 0.666978 0.008430
vt 0.643872 0.010389
vt 0.642804 0.042417
vt 0.643872 0.051786
vt 0.715335 0.053745
vt 0.738440 0.010389
vt 0.738440 0.051786
vt 0.739509 0.042417
vt 0.642804 0.008430
vt 0.739509 0.053745
vt 0.739509 0.019757
vt 0.642804 0.019757
vt 0.715335 0.008430
vt 0.642804 0.008430
vt 0.642804 0.053745
vt 0.739509 0.008430
vt 0.666978 0.053745
vt 0.739509 0.053745
vn 0.000000 0.000000 -1.000000
vn 0.000000 0.000000 -1.000000
vn 0.000000 0.000000 -1.000000
vn 0.000000 0.000000 -1.000000
vn 0.000000 1.000000 -0.000000
vn 0.000000 1.000000 -0.000000
vn 0.000000 1.000000 -0.000000
vn 0.000000 1.000000 -0.000000
vn 0.000000 0.000000 -1.000000
vn 0.000000 0.000000 -1.000000
vn 0.000000 0.000000 -1.000000
vn 0.000000 0.000000 -1.000000
vn 0.000000 -1.000000 0.000000
vn 0.000000 -1.000000 0.000000
vn 0.000000 -1.000000 0.000000
vn 0.000000 -1.000000 0.000000
vn 1.000000 0.000000 0.000000
vn 1.000000 0.000000 0.000000
vn 1.000000 0.000000 0.000000
vn 1.000000 0.000000 0.000000
vn -1.000000 0.000000 0.000000
vn -1.000000 0.000000 0.000000
vn -1.000000 0.000000 0.000000
vn -1.000000 0.000000 0.000000
vn 0.000000 1.000000 0.000000
vn 0.000000 1.000000 0.000000
vn 0.000000 1.000000 0.000000
vn 0.000000 1.000000 0.000000
vn 0.000000 1.000000 0.000000
vn 0.000000 1.000000 0.000000
vn 0.000000 1.000000 0.000000
vn 0.000000 1.000000 0.000000
vn 0.000000 1.000000 0.000000
vn 0.000000 1.000000 0.000000
vn 0.000000 1.000000 0.000000
vn 0.000000 1.000000 0.000000
vn -1.000000 0.000000 0.000000
vn -1.000000 0.000000 0.000000
vn -1.000000 0.000000 0.000000
vn -1.000000 0.000000 0.000000
vn 0.000000 0.000000 1.000000
vn 0.000000 0.000000 1.000000
vn 0.000000 0.000000 1.000000
vn 0.000000 0.000000 1.000000
vn 1.000000 0.000000 0.000000
vn 1.000000 0.000000 0.000000
vn 1.000000 0.000000 0.000000
vn 1.000000 0.000000 0.000000
vn 0.000000 -0.707108 0.707105
vn 0.000000 -0.707108 0.707106
vn 0.000000 -0.707108 0.707106
vn 0.000000 -0.707108 0.707105
vn -0.707108 0.000000 0.707106
vn -0.707108 0.000000 0.707106
vn -0.707108 0.000000 0.707106
vn -0.707108 0.000000 0.707106
vn 0.707108 0.000000 0.707106
vn 0.707108 0.000000 0.707106
vn 0.707108 0.000000 0.707106
vn 0.707108 0.000000 0.707106
vn 0.000000 0.707109 0.707105
vn 0.000000 0.707109 0.707105
vn 0.000000 0.707109 0.707105
vn 0.000000 0.707109 0.707105
vn 0.000000 0.000000 1.000000
vn 0.000000 0.000000 1.000000
vn 0.000000 0.000000 1.000000
vn 0.000000 0.000000 1.000000
vn 0.000000 1.000000 0.000000
vn 0.000000 1.000000 0.000000
vn 0.000000 1.000000 0.000000
vn 0.000000 1.000000 0.000000
vn 0.000000 -1.000000 0.000000
vn 0.000000 -1.000000 0.000000
vn 0.000000 -1.000000 0.000000
vn 0.000000 -1.000000 0.000000
vn 1.000000 0.000000 0.000000
vn 1.000000 0.000000 0.000000
vn 1.000000 0.000000 0.000000
vn 1.000000 0.000000 0.000000
vn -1.000000 0.000000 0.000000
vn -1.000000 0.000000 0.000000
vn -1.000000 0.000000 0.000000
vn -1.000000 0.000000 0.000000
f 1/41/1 2/1/2 4/42/3 3/2/4
f 17/3/5 18/4/6 19/5/7 20/6/8
f 9/7/9 10/8/10 12/9/11 11/10/12
f 11/10/13 12/9/14 6/11/15 5/12/16
f 6/13/17 12/14/18 10/15/19 8/16/20
f 11/17/21 5/18/22 7/19/23 9/20/24
f 8/16/25 10/8/26 15/21/27 14/22/28
f 10/8/29 9/7/30 16/23/31 15/21/32
f 9/7/33 7/19/34 13/24/35 16/23/36
f 14/25/37 15/26/38 19/27/39 18/28/40
f 15/26/41 16/29/42 20/30/43 19/27/44
f 16/29/45 13/31/46 17/32/47 20/30/48
f 21/34/49 22/33/50 24/45/51 23/38/52
f 22/33/53 21/34/54 25/36/55 26/35/56
f 23/38/57 24/45/58 28/37/59 27/39/60
f 26/35/61 25/36/62 27/39/63 28/37/64
f 21/34/65 23/38/66 27/39/67 25/36/68
f 26/35/69 28/40/70 2/1/71 1/41/72
f 3/2/73 4/42/74 24/43/75 22/44/76
f 24/45/77 4/46/78 2/47/79 28/37/80
f 3/48/81 22/33/82 26/49/83 1/50/84
