# This file uses meters as units for non-parametric coordinates.

v -36.119831 40.241512 54.511677
v 36.119839 40.241512 54.511677
v -36.119831 0.000004 54.511677
v 36.119835 0.000004 54.511677
v -36.119831 0.000004 54.511677
v 36.119839 0.000004 54.511677
v -36.119831 36.262226 54.511677
v 36.119839 36.262226 54.511677
v -36.119831 36.262226 0.000000
v 36.119839 36.262226 0.000000
v -36.119831 0.000000 0.000000
v 36.119839 0.000000 0.000000
v -34.088135 36.262226 54.696598
v 34.088142 36.262226 54.696598
v 34.088142 36.262226 2.424431
v -34.088135 36.262226 2.424431
v -34.088135 4.334400 54.696598
v 34.088142 4.334400 54.696598
v 34.088142 4.334400 2.424431
v -34.088135 4.334400 2.424431
v -34.881908 1.237923 59.463856
v -36.119831 0.000004 58.225925
v 34.881916 1.237923 59.463856
v 36.119839 0.000004 58.225925
v -34.881908 39.003593 59.463856
v -36.119831 40.241512 58.225925
v 34.881916 39.003593 59.463856
v 36.119839 40.241512 58.225925
vt 0.862656 0.762541
vt 0.759050 0.865063
vt 0.765402 0.857972
vt 0.856305 0.857972
vt 0.856305 0.768020
vt 0.765402 0.768020
vt 0.759050 0.761734
vt 0.862656 0.761734
vt 0.862656 0.864257
vt 0.759050 0.864257
vt 0.862656 0.761734
vt 0.759050 0.761734
vt 0.862656 0.761734
vt 0.759050 0.761734
vt 0.759050 0.864257
vt 0.862656 0.864257
vt 0.862656 0.761734
vt 0.759050 0.761734
vt 0.759050 0.864257
vt 0.862656 0.864257
vt 0.856305 0.768020
vt 0.856305 0.857972
vt 0.765402 0.768020
vt 0.765402 0.857972
vt 0.857034 0.768328
vt 0.760385 0.768328
vt 0.760385 0.863967
vt 0.857034 0.863967
vt 0.857034 0.768328
vt 0.857034 0.863967
vt 0.760385 0.768328
vt 0.760385 0.863967
vt 0.784949 0.762541
vt 0.760194 0.766973
vt 0.759050 0.839434
vt 0.760194 0.860631
vt 0.836757 0.865063
vt 0.861512 0.766973
vt 0.861512 0.860631
vt 0.862656 0.839434
vt 0.759050 0.762541
vt 0.862656 0.865063
vt 0.862656 0.788168
vt 0.759050 0.788168
vt 0.836757 0.762541
vt 0.759050 0.762541
vt 0.759050 0.865063
vt 0.862656 0.762541
vt 0.784949 0.865063
vt 0.862656 0.865063
vn 0.000000 0.000000 -1.000000
vn 0.000000 0.000000 -1.000000
vn 0.000000 0.000000 -1.000000
vn 0.000000 0.000000 -1.000000
vn 0.000000 1.000000 0.000000
vn 0.000000 1.000000 0.000000
vn 0.000000 1.000000 0.000000
vn 0.000000 1.000000 0.000000
vn 0.000000 0.000000 -1.000000
vn 0.000000 0.000000 -1.000000
vn 0.000000 0.000000 -1.000000
vn 0.000000 0.000000 -1.000000
vn 0.000000 -1.000000 0.000000
vn 0.000000 -1.000000 0.000000
vn 0.000000 -1.000000 0.000000
vn 0.000000 -1.000000 0.000000
vn 1.000000 0.000000 0.000000
vn 1.000000 0.000000 0.000000
vn 1.000000 0.000000 0.000000
vn 1.000000 0.000000 0.000000
vn -1.000000 0.000000 0.000000
vn -1.000000 0.000000 0.000000
vn -1.000000 0.000000 0.000000
vn -1.000000 0.000000 0.000000
vn 0.000000 1.000000 0.000000
vn 0.000000 1.000000 0.000000
vn 0.000000 1.000000 0.000000
vn 0.000000 1.000000 0.000000
vn 0.000000 1.000000 -0.000001
vn 0.000000 1.000000 -0.000001
vn 0.000000 1.000000 -0.000001
vn 0.000000 1.000000 -0.000001
vn 0.000000 1.000000 0.000000
vn 0.000000 1.000000 0.000000
vn 0.000000 1.000000 0.000000
vn 0.000000 1.000000 0.000000
vn -1.000000 0.000000 0.000000
vn -1.000000 0.000000 0.000000
vn -1.000000 0.000000 0.000000
vn -1.000000 0.000000 0.000000
vn 0.000000 0.000000 1.000000
vn 0.000000 0.000000 1.000000
vn 0.000000 0.000000 1.000000
vn 0.000000 0.000000 1.000000
vn 1.000000 0.000000 0.000000
vn 1.000000 0.000000 0.000000
vn 1.000000 0.000000 0.000000
vn 1.000000 0.000000 0.000000
vn 0.000000 -0.707110 0.707104
vn 0.000000 -0.707110 0.707104
vn 0.000000 -0.707110 0.707104
vn 0.000000 -0.707110 0.707104
vn -0.707109 0.000000 0.707105
vn -0.707109 0.000000 0.707105
vn -0.707109 0.000000 0.707105
vn -0.707109 0.000000 0.707105
vn 0.707109 0.000000 0.707105
vn 0.707109 0.000000 0.707105
vn 0.707109 0.000000 0.707105
vn 0.707109 0.000000 0.707105
vn 0.000000 0.707111 0.707102
vn 0.000000 0.707112 0.707102
vn 0.000000 0.707112 0.707102
vn 0.000000 0.707111 0.707102
vn 0.000000 0.000000 1.000000
vn 0.000000 0.000000 1.000000
vn 0.000000 0.000000 1.000000
vn 0.000000 0.000000 1.000000
vn 0.000000 1.000000 0.000000
vn 0.000000 1.000000 0.000000
vn 0.000000 1.000000 0.000000
vn 0.000000 1.000000 0.000000
vn 0.000000 -1.000000 -0.000000
vn 0.000000 -1.000000 -0.000000
vn 0.000000 -1.000000 -0.000000
vn 0.000000 -1.000000 -0.000000
vn 1.000000 -0.000000 -0.000001
vn 1.000000 -0.000000 -0.000001
vn 1.000000 -0.000000 -0.000001
vn 1.000000 -0.000000 -0.000001
vn -1.000000 0.000000 0.000000
vn -1.000000 0.000000 0.000000
vn -1.000000 0.000000 0.000000
vn -1.000000 0.000000 0.000000
f 1/41/1 2/1/2 4/42/3 3/2/4
f 17/3/5 18/4/6 19/5/7 20/6/8
f 9/7/9 10/8/10 12/9/11 11/10/12
f 11/10/13 12/9/14 6/11/15 5/12/16
f 6/13/17 12/14/18 10/15/19 8/16/20
f 11/17/21 5/18/22 7/19/23 9/20/24
f 8/16/25 10/8/26 15/21/27 14/22/28
f 10/8/29 9/7/30 16/23/31 15/21/32
f 9/7/33 7/19/34 13/24/35 16/23/36
f 14/25/37 15/26/38 19/27/39 18/28/40
f 15/26/41 16/29/42 20/30/43 19/27/44
f 16/29/45 13/31/46 17/32/47 20/30/48
f 21/34/49 22/33/50 24/45/51 23/38/52
f 22/33/53 21/34/54 25/36/55 26/35/56
f 23/38/57 24/45/58 28/37/59 27/39/60
f 26/35/61 25/36/62 27/39/63 28/37/64
f 21/34/65 23/38/66 27/39/67 25/36/68
f 26/35/69 28/40/70 2/1/71 1/41/72
f 3/2/73 4/42/74 24/43/75 22/44/76
f 24/45/77 4/46/78 2/47/79 28/37/80
f 3/48/81 22/33/82 26/49/83 1/50/84
