# This file uses meters as units for non-parametric coordinates.

v -36.119831 40.241512 54.511677
v 36.119839 40.241512 54.511677
v -36.119831 0.000004 54.511677
v 36.119835 0.000004 54.511677
v -36.119831 0.000004 54.511677
v 36.119839 0.000004 54.511677
v -36.119831 36.262226 54.511677
v 36.119839 36.262226 54.511677
v -36.119831 36.262226 0.000000
v 36.119839 36.262226 0.000000
v -36.119831 0.000000 0.000000
v 36.119839 0.000000 0.000000
v -34.088135 36.262226 54.696598
v 34.088142 36.262226 54.696598
v 34.088142 36.262226 2.424431
v -34.088135 36.262226 2.424431
v -34.088135 4.334400 54.696598
v 34.088142 4.334400 54.696598
v 34.088142 4.334400 2.424431
v -34.088135 4.334400 2.424431
v -34.881908 1.237923 59.463856
v -36.119831 0.000004 58.225925
v 34.881916 1.237923 59.463856
v 36.119839 0.000004 58.225925
v -34.881908 39.003593 59.463856
v -36.119831 40.241512 58.225925
v 34.881916 39.003593 59.463856
v 36.119839 40.241512 58.225925
vt 0.612656 0.512112
vt 0.509050 0.614635
vt 0.515402 0.607544
vt 0.606305 0.607544
vt 0.606305 0.517591
vt 0.515402 0.517591
vt 0.509050 0.511306
vt 0.612656 0.511306
vt 0.612656 0.613829
vt 0.509050 0.613829
vt 0.612656 0.511306
vt 0.509050 0.511306
vt 0.612656 0.511306
vt 0.509050 0.511306
vt 0.509050 0.613829
vt 0.612656 0.613829
vt 0.612656 0.511306
vt 0.509050 0.511306
vt 0.509050 0.613829
vt 0.612656 0.613829
vt 0.606305 0.517591
vt 0.606305 0.607544
vt 0.515402 0.517591
vt 0.515402 0.607544
vt 0.607034 0.517899
vt 0.510385 0.517899
vt 0.510385 0.613539
vt 0.607034 0.613539
vt 0.607034 0.517899
vt 0.607034 0.613539
vt 0.510385 0.517899
vt 0.510385 0.613539
vt 0.534949 0.512112
vt 0.510194 0.516544
vt 0.509050 0.589006
vt 0.510194 0.610203
vt 0.586757 0.614634
vt 0.611512 0.516544
vt 0.611512 0.610203
vt 0.612656 0.589006
vt 0.509050 0.512112
vt 0.612656 0.614635
vt 0.612656 0.537740
vt 0.509050 0.537740
vt 0.586757 0.512112
vt 0.509050 0.512112
vt 0.509050 0.614635
vt 0.612656 0.512112
vt 0.534949 0.614634
vt 0.612656 0.614635
vn 0.000000 0.000000 -1.000000
vn 0.000000 0.000000 -1.000000
vn 0.000000 0.000000 -1.000000
vn 0.000000 0.000000 -1.000000
vn 0.000000 1.000000 0.000000
vn 0.000000 1.000000 0.000000
vn 0.000000 1.000000 0.000000
vn 0.000000 1.000000 0.000000
vn 0.000000 0.000000 -1.000000
vn 0.000000 0.000000 -1.000000
vn 0.000000 0.000000 -1.000000
vn 0.000000 0.000000 -1.000000
vn 0.000000 -1.000000 0.000000
vn 0.000000 -1.000000 0.000000
vn 0.000000 -1.000000 0.000000
vn 0.000000 -1.000000 0.000000
vn 1.000000 0.000000 0.000000
vn 1.000000 0.000000 0.000000
vn 1.000000 0.000000 0.000000
vn 1.000000 0.000000 0.000000
vn -1.000000 0.000000 0.000000
vn -1.000000 0.000000 0.000000
vn -1.000000 0.000000 0.000000
vn -1.000000 0.000000 0.000000
vn 0.000000 1.000000 0.000000
vn 0.000000 1.000000 0.000000
vn 0.000000 1.000000 0.000000
vn 0.000000 1.000000 0.000000
vn 0.000000 1.000000 -0.000001
vn 0.000000 1.000000 -0.000001
vn 0.000000 1.000000 -0.000001
vn 0.000000 1.000000 -0.000001
vn 0.000000 1.000000 0.000000
vn 0.000000 1.000000 0.000000
vn 0.000000 1.000000 0.000000
vn 0.000000 1.000000 0.000000
vn -1.000000 0.000000 0.000000
vn -1.000000 0.000000 0.000000
vn -1.000000 0.000000 0.000000
vn -1.000000 0.000000 0.000000
vn 0.000000 0.000000 1.000000
vn 0.000000 0.000000 1.000000
vn 0.000000 0.000000 1.000000
vn 0.000000 0.000000 1.000000
vn 1.000000 0.000000 0.000000
vn 1.000000 0.000000 0.000000
vn 1.000000 0.000000 0.000000
vn 1.000000 0.000000 0.000000
vn 0.000000 -0.707110 0.707104
vn 0.000000 -0.707110 0.707104
vn 0.000000 -0.707110 0.707104
vn 0.000000 -0.707110 0.707104
vn -0.707109 0.000000 0.707105
vn -0.707109 0.000000 0.707105
vn -0.707109 0.000000 0.707105
vn -0.707109 0.000000 0.707105
vn 0.707109 0.000000 0.707105
vn 0.707109 0.000000 0.707105
vn 0.707109 0.000000 0.707105
vn 0.707109 0.000000 0.707105
vn 0.000000 0.707111 0.707102
vn 0.000000 0.707112 0.707102
vn 0.000000 0.707112 0.707102
vn 0.000000 0.707111 0.707102
vn 0.000000 0.000000 1.000000
vn 0.000000 0.000000 1.000000
vn 0.000000 0.000000 1.000000
vn 0.000000 0.000000 1.000000
vn 0.000000 1.000000 0.000000
vn 0.000000 1.000000 0.000000
vn 0.000000 1.000000 0.000000
vn 0.000000 1.000000 0.000000
vn 0.000000 -1.000000 -0.000000
vn 0.000000 -1.000000 -0.000000
vn 0.000000 -1.000000 -0.000000
vn 0.000000 -1.000000 -0.000000
vn 1.000000 -0.000000 -0.000001
vn 1.000000 -0.000000 -0.000001
vn 1.000000 -0.000000 -0.000001
vn 1.000000 -0.000000 -0.000001
vn -1.000000 0.000000 0.000000
vn -1.000000 0.000000 0.000000
vn -1.000000 0.000000 0.000000
vn -1.000000 0.000000 0.000000
f 1/41/1 2/1/2 4/42/3 3/2/4
f 17/3/5 18/4/6 19/5/7 20/6/8
f 9/7/9 10/8/10 12/9/11 11/10/12
f 11/10/13 12/9/14 6/11/15 5/12/16
f 6/13/17 12/14/18 10/15/19 8/16/20
f 11/17/21 5/18/22 7/19/23 9/20/24
f 8/16/25 10/8/26 15/21/27 14/22/28
f 10/8/29 9/7/30 16/23/31 15/21/32
f 9/7/33 7/19/34 13/24/35 16/23/36
f 14/25/37 15/26/38 19/27/39 18/28/40
f 15/26/41 16/29/42 20/30/43 19/27/44
f 16/29/45 13/31/46 17/32/47 20/30/48
f 21/34/49 22/33/50 24/45/51 23/38/52
f 22/33/53 21/34/54 25/36/55 26/35/56
f 23/38/57 24/45/58 28/37/59 27/39/60
f 26/35/61 25/36/62 27/39/63 28/37/64
f 21/34/65 23/38/66 27/39/67 25/36/68
f 26/35/69 28/40/70 2/1/71 1/41/72
f 3/2/73 4/42/74 24/43/75 22/44/76
f 24/45/77 4/46/78 2/47/79 28/37/80
f 3/48/81 22/33/82 26/49/83 1/50/84
