# This file uses meters as units for non-parametric coordinates.

v -69.990578 131.687775 46.696716
v 69.990578 131.687775 46.696716
v -69.990578 134.458679 46.696716
v 69.990578 134.458679 46.696716
v -69.990578 134.458679 6.246525
v 69.990578 134.458679 6.246525
v -69.990578 131.687775 6.246525
v 69.990578 131.687775 6.246525
v -69.990578 70.273712 46.696716
v 69.990578 70.273712 46.696716
v -69.990578 73.044632 46.696716
v 69.990578 73.044632 46.696716
v -69.990578 73.044632 6.246525
v 69.990578 73.044632 6.246525
v -69.990578 70.273712 6.246525
v 69.990578 70.273712 6.246525
v -69.990578 188.645111 46.696716
v 69.990578 188.645111 46.696716
v -69.990578 191.416016 46.696716
v 69.990578 191.416016 46.696716
v -69.990578 191.416016 6.246525
v 69.990578 191.416016 6.246525
v -69.990578 188.645111 6.246525
v 69.990578 188.645111 6.246525
v -69.990578 244.468796 46.696716
v 69.990578 244.468796 46.696716
v -69.990578 247.239700 46.696716
v 69.990578 247.239700 46.696716
v -69.990578 247.239700 6.246525
v 69.990578 247.239700 6.246525
v -69.990578 244.468796 6.246525
v 69.990578 244.468796 6.246525
v -81.137154 0.000000 50.000000
v 81.137154 0.000000 50.000000
v -81.137154 320.908234 50.000000
v 81.137154 320.908234 50.000000
v -81.137154 320.908234 0.000000
v 81.137154 320.908234 0.000000
v -81.137154 0.000000 0.000000
v 81.137154 0.000000 0.000000
v -69.990578 12.976692 50.000000
v 69.990578 12.976692 50.000000
v 69.990578 307.931549 50.000000
v -69.990578 307.931549 50.000000
v -69.990578 12.976692 6.246525
v 69.990578 12.976692 6.246525
v 69.990578 307.931549 6.246525
v -69.990578 307.931549 6.246525
v -81.137154 160.454117 50.000000
v -81.137154 160.454117 0.000000
v 81.137154 160.454117 0.000000
v 81.137154 160.454117 50.000000
v 69.990578 160.454117 50.000000
v 69.990578 160.454117 6.246525
v -69.990578 160.454117 6.246525
v -69.990578 160.454117 50.000000
vt 0.337800 0.866662
vt 0.320631 0.866662
vt 0.337800 0.871107
vt 0.320631 0.871107
vt 0.337800 0.854210
vt 0.320631 0.854210
vt 0.337800 0.853655
vt 0.320631 0.853655
vt 0.337800 0.858100
vt 0.320631 0.858100
vt 0.320631 0.853655
vt 0.337800 0.853655
vt 0.320631 0.870551
vt 0.337800 0.870551
vt 0.337800 0.871107
vt 0.320631 0.871107
vt 0.320631 0.858100
vt 0.337800 0.858100
vt 0.337800 0.853655
vt 0.320631 0.853655
vt 0.337800 0.870551
vt 0.320631 0.870551
vt 0.320631 0.871107
vt 0.337800 0.871107
vt 0.320631 0.866662
vt 0.337800 0.866662
vt 0.337800 0.871107
vt 0.320631 0.871107
vt 0.337800 0.854210
vt 0.320631 0.854210
vt 0.320631 0.853655
vt 0.337800 0.853655
vt 0.321983 0.870705
vt 0.321983 0.854502
vt 0.338186 0.854502
vt 0.338186 0.870705
vt 0.338228 0.870622
vt 0.321666 0.870622
vt 0.321666 0.854061
vt 0.338228 0.854061
vt 0.338263 0.854380
vt 0.321905 0.854380
vt 0.321905 0.870738
vt 0.338263 0.870738
vt 0.338228 0.854061
vt 0.321666 0.854061
vt 0.321666 0.870622
vt 0.338228 0.870622
vt 0.338228 0.854061
vt 0.338228 0.870622
vt 0.338228 0.854061
vt 0.338228 0.870622
vt 0.321666 0.870622
vt 0.321666 0.854061
vt 0.323177 0.865342
vt 0.336717 0.865342
vt 0.338228 0.865342
vt 0.323177 0.865342
vt 0.336717 0.865342
vt 0.323177 0.865342
vt 0.321666 0.865342
vt 0.336717 0.865342
vt 0.338179 0.866995
vt 0.321618 0.866995
vt 0.321618 0.857744
vt 0.338179 0.857744
vt 0.338179 0.866995
vt 0.338179 0.857744
vt 0.321618 0.866995
vt 0.338179 0.866995
vt 0.338179 0.857744
vt 0.321618 0.857744
vt 0.321618 0.866995
vt 0.338179 0.866995
vt 0.338179 0.857744
vt 0.321618 0.857744
vt 0.338263 0.870738
vt 0.321905 0.870738
vt 0.338228 0.865342
vt 0.323177 0.865342
vt 0.321983 0.854502
vt 0.321983 0.870705
vt 0.321666 0.865342
vt 0.336717 0.865342
vn 0.000000 0.000000 1.000000
vn 0.000000 0.000000 1.000000
vn 0.000000 0.000000 1.000000
vn 0.000000 0.000000 1.000000
vn 0.000000 1.000000 0.000000
vn 0.000000 1.000000 0.000000
vn 0.000000 1.000000 0.000000
vn 0.000000 1.000000 0.000000
vn 0.000000 -1.000000 0.000000
vn 0.000000 -1.000000 0.000000
vn 0.000000 -1.000000 0.000000
vn 0.000000 -1.000000 0.000000
vn 0.000000 0.000000 1.000000
vn 0.000000 0.000000 1.000000
vn 0.000000 0.000000 1.000000
vn 0.000000 0.000000 1.000000
vn 0.000000 1.000000 0.000000
vn 0.000000 1.000000 0.000000
vn 0.000000 1.000000 0.000000
vn 0.000000 1.000000 0.000000
vn 0.000000 -1.000000 0.000000
vn 0.000000 -1.000000 0.000000
vn 0.000000 -1.000000 0.000000
vn 0.000000 -1.000000 0.000000
vn 0.000000 0.000000 1.000000
vn 0.000000 0.000000 1.000000
vn 0.000000 0.000000 1.000000
vn 0.000000 0.000000 1.000000
vn 0.000000 1.000000 0.000000
vn 0.000000 1.000000 0.000000
vn 0.000000 1.000000 0.000000
vn 0.000000 1.000000 0.000000
vn 0.000000 -1.000000 0.000000
vn 0.000000 -1.000000 0.000000
vn 0.000000 -1.000000 0.000000
vn 0.000000 -1.000000 0.000000
vn 0.000000 0.000000 1.000000
vn 0.000000 0.000000 1.000000
vn 0.000000 0.000000 1.000000
vn 0.000000 0.000000 1.000000
vn 0.000000 1.000000 0.000000
vn 0.000000 1.000000 0.000000
vn 0.000000 1.000000 0.000000
vn 0.000000 1.000000 0.000000
vn 0.000000 -1.000000 0.000000
vn 0.000000 -1.000000 0.000000
vn 0.000000 -1.000000 0.000000
vn 0.000000 -1.000000 0.000000
vn 0.000000 0.000000 1.000000
vn 0.000000 0.000000 1.000000
vn 0.000000 0.000000 1.000000
vn 0.000000 0.000000 1.000000
vn 0.000000 1.000000 0.000000
vn 0.000000 1.000000 0.000000
vn 0.000000 1.000000 0.000000
vn 0.000000 1.000000 0.000000
vn 0.000000 0.000000 -1.000000
vn 0.000000 0.000000 -1.000000
vn 0.000000 0.000000 -1.000000
vn 0.000000 0.000000 -1.000000
vn 0.000000 -1.000000 0.000000
vn 0.000000 -1.000000 0.000000
vn 0.000000 -1.000000 0.000000
vn 0.000000 -1.000000 0.000000
vn 1.000000 0.000000 0.000000
vn 1.000000 0.000000 0.000000
vn 1.000000 0.000000 0.000000
vn 1.000000 0.000000 0.000000
vn -1.000000 0.000000 0.000000
vn -1.000000 0.000000 0.000000
vn -1.000000 0.000000 0.000000
vn -1.000000 0.000000 0.000000
vn 0.000000 0.000000 1.000000
vn 0.000000 0.000000 1.000000
vn 0.000000 0.000000 1.000000
vn 0.000000 0.000000 1.000000
vn -0.000000 0.000000 1.000000
vn -0.000000 0.000000 1.000000
vn -0.000000 0.000000 1.000000
vn -0.000000 0.000000 1.000000
vn 0.000000 0.000000 1.000000
vn 0.000000 0.000000 1.000000
vn 0.000000 0.000000 1.000000
vn 0.000000 0.000000 1.000000
vn 0.000000 0.000000 1.000000
vn 0.000000 0.000000 1.000000
vn 0.000000 0.000000 1.000000
vn 0.000000 0.000000 1.000000
vn 0.000000 1.000000 0.000000
vn 0.000000 1.000000 0.000000
vn 0.000000 1.000000 0.000000
vn 0.000000 1.000000 0.000000
vn -1.000000 0.000000 0.000000
vn -1.000000 0.000000 0.000000
vn -1.000000 0.000000 0.000000
vn -1.000000 0.000000 0.000000
vn 0.000000 -1.000000 0.000000
vn 0.000000 -1.000000 0.000000
vn 0.000000 -1.000000 0.000000
vn 0.000000 -1.000000 0.000000
vn 1.000000 0.000000 0.000000
vn 1.000000 0.000000 0.000000
vn 1.000000 0.000000 0.000000
vn 1.000000 0.000000 0.000000
vn -1.000000 0.000000 0.000000
vn -1.000000 0.000000 0.000000
vn 0.000000 0.000000 -1.000000
vn 0.000000 0.000000 -1.000000
vn 1.000000 0.000000 0.000000
vn 1.000000 0.000000 0.000000
vn -0.000000 0.000000 1.000000
vn -0.000000 0.000000 1.000000
vn -1.000000 0.000000 0.000000
vn -1.000000 0.000000 0.000000
vn 0.000000 0.000000 1.000000
vn 0.000000 0.000000 1.000000
vn 1.000000 0.000000 0.000000
vn 1.000000 0.000000 0.000000
vn 0.000000 0.000000 1.000000
vn 0.000000 0.000000 1.000000
f 1/1/1 2/2/2 4/4/3 3/3/4
f 3/3/5 4/4/6 6/6/7 5/5/8
f 7/7/9 8/8/10 2/2/11 1/1/12
f 9/9/13 10/10/14 12/11/15 11/12/16
f 11/12/17 12/11/18 14/13/19 13/14/20
f 15/15/21 16/16/22 10/10/23 9/9/24
f 17/17/25 18/18/26 20/19/27 19/20/28
f 19/20/29 20/19/30 22/21/31 21/22/32
f 23/23/33 24/24/34 18/18/35 17/17/36
f 25/25/37 26/26/38 28/27/39 27/28/40
f 27/28/41 28/27/42 30/29/43 29/30/44
f 31/31/45 32/32/46 26/26/47 25/25/48
f 45/33/49 46/34/50 54/35/51 55/36/52
f 35/37/53 36/38/54 38/39/55 37/40/56
f 50/41/57 51/42/58 40/43/59 39/44/60
f 39/45/61 40/46/62 34/47/63 33/48/64
f 34/47/65 40/46/66 51/49/67 52/50/68
f 39/51/69 33/52/70 49/53/71 50/54/72
f 33/48/73 34/47/74 42/55/75 41/56/76
f 34/47/77 52/50/78 53/57/79 42/58/80
f 36/38/81 35/37/82 44/59/83 43/60/84
f 56/61/85 49/53/86 33/52/87 41/62/88
f 41/63/89 42/64/90 46/65/91 45/66/92
f 42/64/93 53/67/94 54/68/95 46/65/96
f 43/69/97 44/70/98 48/71/99 47/72/100
f 56/73/101 41/74/102 45/75/103 55/76/104
f 50/54/72 49/53/71 35/37/105 37/40/106
f 37/77/107 38/78/108 51/42/58 50/41/57
f 52/50/68 51/49/67 38/39/109 36/38/110
f 53/79/79 52/50/78 36/38/111 43/80/112
f 54/68/95 53/67/94 43/69/113 47/72/114
f 55/36/52 54/35/51 47/81/115 48/82/116
f 44/70/117 56/73/101 55/76/104 48/71/118
f 35/37/119 49/53/86 56/83/85 44/84/120
