# This file uses meters as units for non-parametric coordinates.

v -47.714684 12.976685 51.863518
v -47.714684 70.243240 51.863518
v -50.485596 70.243240 51.863518
v -50.485596 12.976685 51.863518
v -50.485596 70.243240 6.246525
v -50.485596 12.976685 6.246525
v -47.714684 12.976685 6.246525
v -47.714684 70.243240 6.246525
v -118.477936 12.976692 6.246525
v 118.477936 12.976692 6.246525
v 118.477936 136.724991 6.246525
v -118.477936 136.724991 6.246525
v 0.000000 12.976692 6.246525
v 0.000000 136.724991 6.246525
v -118.477936 70.243240 51.863518
v 118.477936 70.243240 51.863518
v -118.477936 73.014153 51.863518
v 118.477936 73.014153 51.863518
v -118.477936 73.014153 6.246525
v 118.477936 73.014153 6.246525
v -118.477936 70.243240 6.246525
v 118.477936 70.243240 6.246525
v -129.624512 0.000000 56.630779
v 129.624512 0.000000 56.630779
v -129.624512 149.701675 56.630779
v 129.624512 149.701675 56.630779
v -129.624512 149.701675 0.000000
v 129.624512 149.701675 0.000000
v -129.624512 0.000000 0.000000
v 129.624512 0.000000 0.000000
v -118.477936 12.976692 56.630779
v 118.477936 12.976692 56.630779
v 118.477936 136.724991 56.630779
v -118.477936 136.724991 56.630779
v -118.477936 12.976692 6.246525
v 118.477936 12.976692 6.246525
v 118.477936 136.724991 6.246525
v -118.477936 136.724991 6.246525
vt 0.864681 0.588659
vt 0.763069 0.588659
vt 0.763069 0.614965
vt 0.864681 0.614965
vt 0.763069 0.514964
vt 0.864681 0.514964
vt 0.864681 0.511679
vt 0.763069 0.511679
vt 0.864761 0.508810
vt 0.863976 0.613790
vt 0.760308 0.613790
vt 0.761093 0.508809
vt 0.863191 0.510655
vt 0.759523 0.510655
vt 0.864681 0.588659
vt 0.763069 0.588659
vt 0.763069 0.614965
vt 0.864681 0.614965
vt 0.763069 0.514964
vt 0.864681 0.514964
vt 0.864681 0.511679
vt 0.763069 0.511679
vt 0.867211 0.612099
vt 0.769194 0.612099
vt 0.769194 0.514082
vt 0.867211 0.514082
vt 0.758786 0.507111
vt 0.865523 0.508144
vt 0.865523 0.618762
vt 0.758786 0.617729
vt 0.766541 0.514082
vt 0.866486 0.514082
vt 0.866486 0.612099
vt 0.766540 0.612099
vt 0.766541 0.514082
vt 0.766540 0.612099
vt 0.778136 0.580849
vt 0.858268 0.580849
vt 0.778136 0.580849
vt 0.778136 0.580849
vt 0.858268 0.580849
vt 0.778136 0.580849
vt 0.858268 0.580849
vt 0.858268 0.580849
vt 0.764228 0.590632
vt 0.864849 0.590632
vt 0.864849 0.535877
vt 0.764228 0.535878
vt 0.768908 0.590632
vt 0.768908 0.535878
vt 0.866925 0.590632
vt 0.866925 0.535878
vt 0.764228 0.590632
vt 0.764228 0.535878
vn 0.000000 0.000000 1.000000
vn 0.000000 0.000000 1.000000
vn 0.000000 0.000000 1.000000
vn 0.000000 0.000000 1.000000
vn -1.000000 0.000000 0.000000
vn -1.000000 0.000000 0.000000
vn -1.000000 0.000000 0.000000
vn -1.000000 0.000000 0.000000
vn 1.000000 0.000000 0.000000
vn 1.000000 0.000000 0.000000
vn 1.000000 0.000000 0.000000
vn 1.000000 0.000000 0.000000
vn 0.000000 0.000000 1.000000
vn 0.000000 0.000000 1.000000
vn 0.000000 0.000000 1.000000
vn 0.000000 0.000000 1.000000
vn 0.000000 0.000000 1.000000
vn 0.000000 0.000000 1.000000
vn 0.000000 0.000000 1.000000
vn 0.000000 0.000000 1.000000
vn 0.000000 0.000000 1.000000
vn 0.000000 0.000000 1.000000
vn 0.000000 1.000000 0.000000
vn 0.000000 1.000000 0.000000
vn 0.000000 1.000000 0.000000
vn 0.000000 1.000000 0.000000
vn 0.000000 -1.000000 0.000000
vn 0.000000 -1.000000 0.000000
vn 0.000000 -1.000000 0.000000
vn 0.000000 -1.000000 0.000000
vn 0.000000 1.000000 0.000000
vn 0.000000 1.000000 0.000000
vn 0.000000 1.000000 0.000000
vn 0.000000 1.000000 0.000000
vn 0.000000 0.000000 -1.000000
vn 0.000000 0.000000 -1.000000
vn 0.000000 0.000000 -1.000000
vn 0.000000 0.000000 -1.000000
vn 0.000000 -1.000000 0.000000
vn 0.000000 -1.000000 0.000000
vn 0.000000 -1.000000 0.000000
vn 0.000000 -1.000000 0.000000
vn 1.000000 0.000000 0.000000
vn 1.000000 0.000000 0.000000
vn 1.000000 0.000000 0.000000
vn 1.000000 0.000000 0.000000
vn -1.000000 0.000000 0.000000
vn -1.000000 0.000000 0.000000
vn -1.000000 0.000000 0.000000
vn -1.000000 0.000000 0.000000
vn 0.000000 0.000000 1.000000
vn 0.000000 0.000000 1.000000
vn 0.000000 0.000000 1.000000
vn 0.000000 0.000000 1.000000
vn 0.000000 0.000000 1.000000
vn 0.000000 0.000000 1.000000
vn 0.000000 0.000000 1.000000
vn 0.000000 0.000000 1.000000
vn 0.000000 0.000000 1.000000
vn 0.000000 0.000000 1.000000
vn 0.000000 0.000000 1.000000
vn 0.000000 0.000000 1.000000
vn 0.000000 0.000000 1.000000
vn 0.000000 0.000000 1.000000
vn 0.000000 0.000000 1.000000
vn 0.000000 0.000000 1.000000
vn 0.000000 1.000000 0.000000
vn 0.000000 1.000000 0.000000
vn 0.000000 1.000000 0.000000
vn 0.000000 1.000000 0.000000
vn -1.000000 0.000000 0.000000
vn -1.000000 0.000000 0.000000
vn -1.000000 0.000000 0.000000
vn -1.000000 0.000000 0.000000
vn 0.000000 -1.000000 0.000000
vn 0.000000 -1.000000 0.000000
vn 0.000000 -1.000000 0.000000
vn 0.000000 -1.000000 0.000000
vn 1.000000 0.000000 0.000000
vn 1.000000 0.000000 0.000000
vn 1.000000 0.000000 0.000000
vn 1.000000 0.000000 0.000000
f 1/1/1 2/2/2 3/3/3 4/4/4
f 4/4/5 3/3/6 5/5/7 6/6/8
f 7/7/9 8/8/10 2/2/11 1/1/12
f 9/9/13 13/10/14 14/11/15 12/12/16
f 13/10/14 10/13/17 11/14/18 14/11/15
f 15/15/19 16/16/20 18/17/21 17/18/22
f 17/18/23 18/17/24 20/19/25 19/20/26
f 21/21/27 22/22/28 16/16/29 15/15/30
f 25/23/31 26/24/32 28/25/33 27/26/34
f 30/27/35 29/28/36 27/29/37 28/30/38
f 29/31/39 30/32/40 24/33/41 23/34/42
f 24/33/43 30/32/44 28/25/45 26/24/46
f 29/35/47 23/36/48 25/23/49 27/26/50
f 23/34/51 24/33/52 32/37/53 31/38/54
f 32/39/55 24/33/56 26/24/57 33/40/58
f 26/24/59 25/23/60 34/41/61 33/42/62
f 25/23/63 23/36/64 31/43/65 34/44/66
f 31/45/67 32/46/68 36/47/69 35/48/70
f 36/47/71 32/46/72 33/49/73 37/50/74
f 33/49/75 34/51/76 38/52/77 37/50/78
f 31/53/79 35/54/80 38/52/81 34/51/82
