# This file uses meters as units for non-parametric coordinates.

v 90.274887 0.000000 79.661880
v 75.348694 0.000000 73.723274
v 90.274887 320.670746 79.661880
v 90.274887 320.670746 64.582642
v 90.274887 0.000000 64.582642
v 75.348694 0.000000 70.521248
v 75.348694 303.931091 73.723274
v 75.348694 303.931091 70.521248
v -90.274887 0.000000 79.661880
v -75.348694 0.000000 73.723274
v -90.274887 320.670746 79.661880
v -90.274887 320.670746 64.582642
v -90.274887 0.000000 64.582642
v -75.348694 0.000000 70.521248
v -75.348694 303.931091 73.723274
v -75.348694 303.931091 70.521248
v -82.042145 311.437775 79.661880
v -82.042145 0.000000 79.661880
v -82.042145 0.000000 64.582642
v -82.042145 311.437744 64.582642
v 82.042145 311.437744 64.582642
v 82.042145 0.000000 64.582642
v 82.042145 0.000000 79.661880
v 82.042145 311.437775 79.661880
v -82.042145 156.148819 79.661880
v -75.348694 156.134506 73.723274
v -75.348694 156.134506 70.521248
v -82.042145 156.148819 64.582642
v -90.274887 156.166412 64.582642
v -90.274887 156.166412 79.661880
v 82.042145 156.148819 79.661880
v 75.348694 156.134506 73.723274
v 75.348694 156.134506 70.521248
v 82.042145 156.148819 64.582642
v 90.274887 156.166412 64.582642
v 90.274887 156.166412 79.661880
vt 0.887211 0.537821
vt 0.989158 0.537821
vt 0.989157 0.582117
vt 0.989157 0.537821
vt 0.989157 0.582117
vt 0.989157 0.537821
vt 0.989159 0.537821
vt 0.989157 0.582117
vt 0.989157 0.582117
vt 0.989157 0.537821
vt 0.989157 0.582117
vt 0.887212 0.582117
vt 0.887212 0.582117
vt 0.887212 0.537821
vt 0.887211 0.537821
vt 0.887212 0.582117
vt 0.887211 0.537821
vt 0.887211 0.537821
vt 0.887211 0.582117
vt 0.887211 0.582117
vt 0.887211 0.537821
vt 0.887211 0.582118
vt 0.989158 0.537821
vt 0.989157 0.582117
vt 0.887211 0.537821
vt 0.887212 0.582117
vt 0.887212 0.582117
vt 0.989157 0.537821
vt 0.989157 0.582117
vt 0.989157 0.537821
vt 0.989159 0.537821
vt 0.989157 0.582117
vt 0.989158 0.537821
vt 0.887211 0.537821
vt 0.887212 0.537821
vt 0.989158 0.537821
vt 0.887212 0.537821
vt 0.887212 0.537821
vt 0.989158 0.537821
vt 0.989158 0.582117
vt 0.989157 0.537821
vt 0.989157 0.582117
vt 0.989158 0.537821
vt 0.989157 0.537821
vt 0.989158 0.582117
vt 0.887212 0.537821
vt 0.887212 0.582117
vt 0.887211 0.537821
vt 0.887211 0.582117
vt 0.887211 0.537821
vt 0.887212 0.537821
vt 0.887212 0.582117
vn 0.000000 -1.000000 0.000000
vn 0.000000 -1.000000 0.000000
vn 0.000000 -1.000000 0.000000
vn 0.000000 -1.000000 0.000000
vn -1.000000 0.000000 0.000000
vn -1.000000 0.000000 0.000000
vn -1.000000 0.000000 0.000000
vn -1.000000 0.000000 0.000000
vn 1.000000 0.000000 0.000000
vn 1.000000 0.000000 0.000000
vn 1.000000 0.000000 0.000000
vn 1.000000 0.000000 0.000000
vn 0.663669 0.000000 0.748026
vn 0.663669 0.000000 0.748026
vn 0.663669 0.000000 0.748026
vn 0.663669 0.000000 0.748026
vn 0.000000 1.000000 0.000000
vn 0.000000 1.000000 0.000000
vn 0.000000 1.000000 0.000000
vn 0.000000 1.000000 0.000000
vn 0.663669 0.000000 -0.748026
vn 0.663669 0.000000 -0.748026
vn 0.663669 0.000000 -0.748026
vn 0.663669 0.000000 -0.748026
vn 0.000000 -1.000000 0.000000
vn 0.000000 -1.000000 0.000000
vn 0.000000 -1.000000 0.000000
vn 0.000000 -1.000000 0.000000
vn 1.000000 0.000000 0.000000
vn 1.000000 0.000000 0.000000
vn 1.000000 0.000000 0.000000
vn 1.000000 0.000000 0.000000
vn -1.000000 0.000000 0.000000
vn -1.000000 0.000000 0.000000
vn -1.000000 0.000000 0.000000
vn -1.000000 0.000000 0.000000
vn 0.000000 -1.000000 0.000000
vn 0.000000 -1.000000 0.000000
vn 0.000000 -1.000000 0.000000
vn 0.000000 -1.000000 0.000000
vn 0.000000 -0.620433 0.784259
vn 0.000000 -0.620433 0.784259
vn 0.000000 -0.620433 0.784259
vn 0.000000 -0.620433 0.784259
vn 0.000000 -0.620436 -0.784257
vn 0.000000 -0.620436 -0.784257
vn 0.000000 -0.620436 -0.784258
vn 0.000000 -0.620436 -0.784258
vn -0.663669 0.000000 0.748027
vn -0.663669 0.000000 0.748026
vn -0.663669 0.000000 0.748027
vn -0.663669 0.000000 0.748027
vn -0.663669 0.000000 -0.748026
vn -0.663669 0.000000 -0.748026
vn -0.663669 0.000000 -0.748027
vn -0.663669 0.000000 -0.748027
vn 0.000000 0.000000 1.000000
vn 0.000000 0.000000 1.000000
vn 0.000000 0.000000 1.000000
vn 0.000000 0.000000 1.000000
vn 0.000000 -1.000000 0.000000
vn 0.000000 -1.000000 0.000000
vn 0.000000 -1.000000 0.000000
vn 0.000000 -1.000000 0.000000
vn 0.000000 0.000000 -1.000000
vn -0.000000 0.000000 -1.000000
vn -0.000000 0.000000 -1.000000
vn 0.000000 0.000000 -1.000000
vn 0.000000 0.000000 -1.000000
vn 0.000000 0.000000 -1.000000
vn 0.000000 0.000000 -1.000000
vn 0.000000 0.000000 -1.000000
vn 0.000001 0.000000 -1.000000
vn 0.000000 0.000000 -1.000000
vn -0.000000 0.000000 -1.000000
vn 0.000001 0.000000 -1.000000
vn 0.000000 -1.000000 0.000000
vn 0.000000 -1.000000 0.000000
vn 0.000000 -1.000000 0.000000
vn 0.000000 -1.000000 0.000000
vn 0.000000 0.000000 1.000000
vn 0.000000 0.000000 1.000000
vn 0.000000 0.000000 1.000000
vn 0.000000 0.000000 1.000000
vn 0.000000 0.000000 1.000000
vn 0.000000 0.000000 1.000000
vn 0.000000 0.000000 1.000000
vn 0.000000 0.000000 1.000000
vn 0.663669 0.000000 0.748027
vn 0.663669 0.000000 0.748027
vn 1.000000 0.000000 0.000000
vn 1.000000 0.000000 0.000000
vn 0.663669 0.000000 -0.748027
vn 0.663669 0.000000 -0.748027
vn -0.000001 0.000000 -1.000000
vn -0.000001 0.000000 -1.000000
vn -1.000000 0.000000 0.000000
vn -1.000000 0.000000 0.000000
vn 0.000000 0.000000 1.000000
vn 0.000000 0.000000 1.000000
vn -0.663669 0.000000 0.748026
vn -0.663669 0.000000 0.748026
vn -1.000000 0.000000 0.000000
vn -1.000000 0.000000 0.000000
vn -0.663669 0.000000 -0.748026
vn -0.663669 0.000000 -0.748026
vn -0.000001 0.000000 -1.000000
vn -0.000001 0.000000 -1.000000
vn 1.000000 0.000000 0.000000
vn 1.000000 0.000000 0.000000
vn 0.000000 0.000000 1.000000
vn 0.000000 0.000000 1.000000
f 22/1/1 23/26/2 2/3/3 6/4/4
f 2/3/5 32/47/6 33/48/7 6/4/8
f 35/51/9 36/52/10 1/9/11 5/36/12
f 25/39/13 26/40/14 15/13/15 17/14/16
f 4/33/17 12/38/18 11/16/19 3/8/20
f 16/17/21 27/41/22 28/42/23 20/20/24
f 19/28/25 14/18/26 10/12/27 18/11/28
f 26/40/29 27/41/30 16/17/31 15/13/32
f 29/43/33 30/45/34 11/16/35 12/38/36
f 8/6/37 7/5/38 15/13/39 16/17/40
f 24/23/41 17/14/42 15/13/43 7/5/44
f 8/6/45 16/17/46 20/20/47 21/24/48
f 31/46/49 32/47/50 2/3/51 23/2/52
f 33/48/53 34/49/54 22/29/55 6/4/56
f 30/45/57 25/39/58 17/14/59 11/16/60
f 13/25/61 19/28/62 18/11/63 9/22/64
f 20/20/65 28/42/66 29/44/67 12/34/68
f 21/24/69 20/20/70 12/15/71 4/30/72
f 22/29/73 34/49/74 35/50/75 5/31/76
f 5/10/77 1/32/78 23/26/79 22/1/80
f 36/52/81 31/46/82 23/2/83 1/9/84
f 3/8/85 11/16/86 17/14/87 24/23/88
f 18/37/89 10/12/90 26/40/14 25/39/13
f 10/12/91 14/18/92 27/41/30 26/40/29
f 28/42/23 27/41/22 14/18/93 19/19/94
f 29/44/67 28/42/66 19/19/95 13/21/96
f 13/35/97 9/27/98 30/45/34 29/43/33
f 9/27/99 18/37/100 25/39/58 30/45/57
f 24/23/101 7/5/102 32/47/50 31/46/49
f 33/48/7 32/47/6 7/5/103 8/6/104
f 8/6/105 21/24/106 34/49/54 33/48/53
f 35/50/75 34/49/74 21/24/107 4/7/108
f 4/33/109 3/8/110 36/52/10 35/51/9
f 3/8/111 24/23/112 31/46/82 36/52/81
