# This file uses meters as units for non-parametric coordinates.

v -4.561707 41.196659 -3.588409
v 103.462921 41.196659 -3.588409
v -4.561707 -35.630688 -3.588409
v 103.462921 -35.630688 -3.588409
v -2.880081 -33.949070 2.085415
v -4.561707 -35.630688 0.403793
v 101.781296 -33.949070 2.085415
v 103.462921 -35.630688 0.403793
v -2.880081 39.515034 2.085415
v -4.561707 41.196659 0.403793
v 101.781296 39.515034 2.085415
v 103.462921 41.196659 0.403793
vt 0.350401 0.776989
vt 0.367023 0.760367
vt 0.363699 0.776989
vt 0.366773 0.776626
vt 0.367023 0.763691
vt 0.366773 0.760731
vt 0.353725 0.760367
vt 0.350652 0.776626
vt 0.350652 0.760731
vt 0.350401 0.763691
vt 0.367023 0.776989
vt 0.350401 0.760367
vt 0.350401 0.773665
vt 0.367023 0.773665
vt 0.353725 0.776989
vt 0.367023 0.776989
vt 0.367023 0.760367
vt 0.350401 0.776989
vt 0.363699 0.760367
vt 0.350401 0.760367
vn 0.000000 0.000000 -1.000000
vn 0.000000 0.000000 -1.000000
vn 0.000000 0.000000 -1.000000
vn 0.000000 0.000000 -1.000000
vn 0.000000 -0.707108 0.707105
vn 0.000000 -0.707108 0.707105
vn 0.000000 -0.707108 0.707105
vn 0.000000 -0.707108 0.707105
vn -0.707106 0.000000 0.707108
vn -0.707106 0.000000 0.707108
vn -0.707106 0.000000 0.707108
vn -0.707106 0.000000 0.707108
vn 0.707106 0.000000 0.707108
vn 0.707106 0.000000 0.707108
vn 0.707106 0.000000 0.707108
vn 0.707106 0.000000 0.707108
vn 0.000000 0.707105 0.707109
vn 0.000000 0.707105 0.707109
vn 0.000000 0.707105 0.707109
vn 0.000000 0.707105 0.707109
vn 0.000000 0.000000 1.000000
vn 0.000000 0.000000 1.000000
vn 0.000000 0.000000 1.000000
vn 0.000000 0.000000 1.000000
vn 0.000000 1.000000 0.000000
vn 0.000000 1.000000 0.000000
vn 0.000000 1.000000 0.000000
vn 0.000000 1.000000 0.000000
vn 0.000000 -1.000000 0.000000
vn 0.000000 -1.000000 0.000000
vn 0.000000 -1.000000 0.000000
vn 0.000000 -1.000000 0.000000
vn 1.000000 0.000000 0.000000
vn 1.000000 0.000000 0.000000
vn 1.000000 0.000000 0.000000
vn 1.000000 0.000000 0.000000
vn -1.000000 0.000000 0.000000
vn -1.000000 0.000000 0.000000
vn -1.000000 0.000000 0.000000
vn -1.000000 0.000000 0.000000
f 1/11/1 2/1/2 4/12/3 3/2/4
f 5/4/5 6/3/6 8/15/7 7/8/8
f 6/3/9 5/4/10 9/6/11 10/5/12
f 7/8/13 8/15/14 12/7/15 11/9/16
f 10/5/17 9/6/18 11/9/19 12/7/20
f 5/4/21 7/8/22 11/9/23 9/6/24
f 10/5/25 12/10/26 2/1/27 1/11/28
f 3/2/29 4/12/30 8/13/31 6/14/32
f 8/15/33 4/16/34 2/17/35 12/7/36
f 3/18/37 6/3/38 10/19/39 1/20/40
