# This file uses meters as units for non-parametric coordinates.

v -132.638977 164.521927 0.000001
v -128.634140 164.521927 0.000001
v -132.638977 15.746958 0.000001
v -128.634140 15.746958 0.000001
v -132.638977 148.290970 15.629554
v -128.634140 148.290970 15.629554
v -128.634140 148.290970 64.582642
v -132.638977 148.290970 64.582642
v -128.634140 164.521927 64.582642
v -132.638977 164.521927 64.582642
v -132.638977 30.678963 15.629554
v -128.634140 30.678963 15.629554
v -132.638977 15.746958 64.582642
v -128.634140 15.746958 64.582642
v -128.634140 30.678963 64.582642
v -132.638977 30.678963 64.582642
v -128.634140 18.751297 72.375450
v 128.634140 18.751297 72.375450
v -128.634140 26.148188 72.375450
v 128.634140 26.148188 72.375450
v -128.634140 26.148188 4.641479
v 128.634140 26.148188 4.641479
v -128.634140 18.751297 4.641479
v 128.634140 18.751297 4.641479
v -128.634140 148.714584 70.410461
v 128.634140 148.714584 70.410461
v -128.634140 162.244644 70.410461
v 128.634140 162.244644 70.410461
v -128.634140 162.244644 1.251967
v 128.634140 162.244644 1.251967
v -128.634140 148.714584 1.251967
v 128.634140 148.714584 1.251967
v 132.638977 164.521896 0.000001
v 128.634140 164.521896 0.000001
v 132.638977 15.746958 0.000001
v 128.634140 15.746958 0.000001
v 132.638977 148.290939 15.629555
v 128.634140 148.290939 15.629555
v 128.634140 148.290939 64.582642
v 132.638977 148.290939 64.582642
v 128.634140 164.521896 64.582642
v 132.638977 164.521896 64.582642
v 132.638977 30.678963 15.629555
v 128.634140 30.678963 15.629555
v 132.638977 15.746958 64.582642
v 128.634140 15.746958 64.582642
v 128.634140 30.678963 64.582642
v 132.638977 30.678963 64.582642
v -114.585342 0.000000 4.557848
v -120.389130 0.000000 2.153841
v -126.192917 0.000000 4.557848
v -128.596924 0.000000 10.361637
v -126.192917 0.000000 16.165426
v -120.389130 0.000000 18.569435
v -114.585342 0.000000 16.165426
v -112.181335 0.000000 10.361637
v -114.585342 24.293980 4.557848
v -120.389130 24.293980 2.153841
v -126.192917 24.293980 4.557848
v -128.596924 24.293980 10.361637
v -126.192917 24.293980 16.165426
v -120.389130 24.293980 18.569435
v -114.585342 24.293980 16.165426
v -112.181335 24.293980 10.361637
v -120.389130 0.000000 10.361637
v 114.585342 0.000000 4.557846
v 120.389130 0.000000 2.153839
v 126.192917 0.000000 4.557846
v 128.596924 0.000000 10.361637
v 126.192917 0.000000 16.165424
v 120.389130 0.000000 18.569435
v 114.585342 0.000000 16.165424
v 112.181335 0.000000 10.361637
v 114.585342 24.293980 4.557846
v 120.389130 24.293980 2.153839
v 126.192917 24.293980 4.557846
v 128.596924 24.293980 10.361637
v 126.192917 24.293980 16.165424
v 120.389130 24.293980 18.569435
v 114.585342 24.293980 16.165424
v 112.181335 24.293980 10.361637
v 120.389130 0.000000 10.361637
v -132.638977 91.456276 15.629554
v -132.638977 91.456276 0.000001
v -128.634140 91.456276 0.000001
v -128.634140 91.456276 15.629554
v 132.638977 91.456261 15.629555
v 128.634140 91.456261 15.629555
v 128.634140 91.456261 0.000001
v 132.638977 91.456261 0.000001
vt 0.488515 0.865039
vt 0.488515 0.865039
vt 0.488515 0.865039
vt 0.488515 0.865039
vt 0.487351 0.859866
vt 0.487351 0.859866
vt 0.487351 0.859866
vt 0.487351 0.859866
vt 0.483466 0.859866
vt 0.483466 0.859866
vt 0.483495 0.865039
vt 0.483495 0.865039
vt 0.483495 0.865039
vt 0.483495 0.865039
vt 0.483466 0.859866
vt 0.483466 0.859866
vt 0.488515 0.865039
vt 0.488515 0.865039
vt 0.488515 0.865039
vt 0.488515 0.865039
vt 0.476470 0.861636
vt 0.491402 0.861636
vt 0.491402 0.858262
vt 0.476470 0.858262
vt 0.491402 0.866186
vt 0.476470 0.866186
vt 0.491402 0.866186
vt 0.476470 0.866186
vt 0.476470 0.858492
vt 0.491402 0.858492
vt 0.491402 0.858492
vt 0.476470 0.858492
vt 0.491402 0.866186
vt 0.476470 0.866186
vt 0.491402 0.866186
vt 0.476470 0.866186
vt 0.486160 0.862455
vt 0.485177 0.864975
vt 0.482803 0.866019
vt 0.480430 0.864975
vt 0.487351 0.859866
vt 0.487351 0.859866
vt 0.487351 0.859866
vt 0.487351 0.859866
vt 0.483466 0.859866
vt 0.483466 0.859866
vt 0.483495 0.865039
vt 0.483495 0.865039
vt 0.483495 0.865039
vt 0.483495 0.865039
vt 0.483466 0.859866
vt 0.483466 0.859866
vt 0.479447 0.862455
vt 0.480430 0.859935
vt 0.485177 0.859935
vt 0.482803 0.862312
vt 0.482803 0.858891
vt 0.486498 0.865470
vt 0.481054 0.865470
vt 0.486498 0.861075
vt 0.481054 0.861075
vt 0.486498 0.865470
vt 0.481054 0.865470
vt 0.486498 0.861309
vt 0.481054 0.861309
vt 0.486498 0.865470
vt 0.481054 0.865470
vt 0.486498 0.861265
vt 0.481054 0.861265
vt 0.486498 0.865470
vt 0.481054 0.865470
vt 0.486498 0.861201
vt 0.486498 0.865470
vt 0.486498 0.861201
vt 0.481054 0.861201
vt 0.481054 0.865470
vt 0.486498 0.865470
vt 0.481054 0.865470
vt 0.486498 0.861265
vt 0.481054 0.861265
vt 0.486498 0.865470
vt 0.481054 0.865470
vt 0.486498 0.861309
vt 0.481054 0.861309
vt 0.486498 0.865470
vt 0.481054 0.865470
vt 0.486498 0.861075
vt 0.481054 0.861075
vt 0.486498 0.865470
vt 0.481054 0.865470
vt 0.482803 0.858891
vt 0.485177 0.859935
vt 0.482803 0.862312
vt 0.480430 0.859935
vt 0.479447 0.862455
vt 0.480430 0.864975
vt 0.482803 0.866019
vt 0.485177 0.864975
vt 0.486160 0.862455
vt 0.486498 0.865470
vt 0.481054 0.865470
vt 0.481054 0.861201
vt 0.477551 0.859866
vt 0.477551 0.865039
vt 0.477551 0.865039
vt 0.477551 0.859866
vt 0.477551 0.859866
vt 0.477551 0.859866
vt 0.477551 0.865039
vt 0.477551 0.865039
vn 0.000000 1.000000 0.000000
vn 0.000000 1.000000 0.000000
vn 0.000000 1.000000 0.000000
vn 0.000000 1.000000 0.000000
vn 0.000000 0.000000 -1.000000
vn 0.000000 0.000000 -1.000000
vn 0.000000 0.000000 -1.000000
vn 0.000000 0.000000 -1.000000
vn 1.000000 0.000000 0.000000
vn 1.000000 0.000000 0.000000
vn 1.000000 0.000000 0.000000
vn 1.000000 0.000000 0.000000
vn -1.000000 0.000000 0.000000
vn -1.000000 0.000000 0.000000
vn -1.000000 0.000001 0.000000
vn -1.000000 0.000001 0.000000
vn 0.000000 -1.000000 0.000000
vn 0.000000 -1.000000 0.000000
vn 0.000000 -1.000000 0.000000
vn 0.000000 -1.000000 0.000000
vn 1.000000 0.000000 0.000000
vn 1.000000 0.000000 0.000000
vn 1.000000 0.000000 0.000000
vn 1.000000 0.000000 0.000000
vn 0.000000 0.000000 1.000000
vn 0.000000 0.000000 1.000000
vn 0.000000 0.000000 1.000000
vn 0.000000 0.000000 1.000000
vn 0.000000 -1.000000 0.000000
vn 0.000000 -1.000000 0.000000
vn 0.000000 -1.000000 0.000000
vn 0.000000 -1.000000 0.000000
vn 1.000000 0.000000 0.000000
vn 1.000000 0.000000 0.000000
vn 0.000000 1.000000 0.000000
vn 0.000000 1.000000 0.000000
vn 0.000000 1.000000 0.000000
vn 0.000000 1.000000 0.000000
vn 0.000000 0.000000 1.000000
vn 0.000000 0.000000 1.000000
vn 0.000000 0.000000 1.000000
vn 0.000000 0.000000 1.000000
vn 0.000000 1.000000 0.000000
vn 0.000000 1.000000 0.000000
vn 0.000000 1.000000 0.000000
vn 0.000000 1.000000 0.000000
vn 0.000000 0.000000 -1.000000
vn 0.000000 0.000000 -1.000000
vn 0.000000 0.000000 -1.000000
vn 0.000000 0.000000 -1.000000
vn 0.000000 -1.000000 0.000000
vn 0.000000 -1.000000 0.000000
vn 0.000000 -1.000000 0.000000
vn 0.000000 -1.000000 0.000000
vn 0.000000 0.000000 1.000000
vn 0.000000 0.000000 1.000000
vn 0.000000 0.000000 1.000000
vn 0.000000 0.000000 1.000000
vn 0.000000 1.000000 0.000000
vn 0.000000 1.000000 0.000000
vn 0.000000 1.000000 0.000000
vn 0.000000 1.000000 0.000000
vn 0.000000 0.000000 -1.000000
vn 0.000000 0.000000 -1.000000
vn 0.000000 0.000000 -1.000000
vn 0.000000 0.000000 -1.000000
vn 0.000000 -1.000000 0.000000
vn 0.000000 -1.000000 0.000000
vn 0.000000 -1.000000 0.000000
vn 0.000000 -1.000000 0.000000
vn 0.000000 -1.000000 0.000000
vn 0.000000 -1.000000 0.000000
vn 0.000000 -1.000000 0.000000
vn 0.000000 -1.000000 0.000000
vn -1.000000 0.000000 0.000000
vn -1.000000 0.000000 0.000000
vn -1.000000 0.000000 0.000000
vn -1.000000 0.000000 0.000000
vn 0.000000 0.000000 -1.000000
vn 0.000000 0.000000 -1.000000
vn 0.000000 0.000000 -1.000000
vn 0.000000 0.000000 -1.000000
vn -1.000000 0.000000 0.000000
vn -1.000000 0.000000 0.000000
vn -1.000000 0.000000 0.000000
vn -1.000000 0.000000 0.000000
vn 0.000000 -1.000000 0.000000
vn 0.000000 -1.000000 0.000000
vn 0.000000 -1.000000 0.000000
vn 0.000000 -1.000000 0.000000
vn 0.000000 1.000000 0.000000
vn 0.000000 1.000000 0.000000
vn 0.000000 1.000000 0.000000
vn 0.000000 1.000000 0.000000
vn 1.000000 -0.000000 0.000000
vn 1.000000 -0.000000 0.000000
vn 1.000000 -0.000000 0.000000
vn 1.000000 -0.000000 0.000000
vn 1.000000 0.000000 0.000000
vn 1.000000 0.000000 0.000000
vn 1.000000 0.000000 0.000000
vn 1.000000 0.000000 0.000000
vn 0.000000 0.000000 -1.000000
vn 0.000000 0.000000 -1.000000
vn -1.000000 0.000000 0.000000
vn -1.000000 0.000000 0.000000
vn 0.000000 0.000000 1.000000
vn 0.000000 0.000000 1.000000
vn 0.000000 0.000000 1.000000
vn 0.000000 0.000000 1.000000
vn 0.000000 1.000000 0.000000
vn 0.000000 1.000000 0.000000
vn 0.000000 1.000000 0.000000
vn 0.000000 1.000000 0.000000
vn 1.000000 0.000000 0.000000
vn 1.000000 0.000000 0.000000
vn 0.707107 0.000000 -0.707107
vn 0.000000 0.000000 -1.000000
vn 0.000000 0.000000 -1.000000
vn 0.707107 0.000000 -0.707107
vn -0.707107 0.000000 -0.707107
vn -0.707107 0.000000 -0.707107
vn -1.000000 0.000000 0.000000
vn -1.000000 0.000000 0.000000
vn -0.707107 0.000000 0.707107
vn -0.707107 0.000000 0.707107
vn 0.000000 0.000000 1.000000
vn 0.000000 0.000000 1.000000
vn 0.707107 0.000000 0.707107
vn 0.707107 0.000000 0.707107
vn 1.000000 0.000000 0.000000
vn 1.000000 0.000000 0.000000
vn 0.000000 -1.000000 0.000000
vn 0.000000 -1.000000 0.000000
vn 0.000000 -1.000000 0.000000
vn 0.000000 -1.000000 0.000000
vn 0.000000 -1.000000 0.000000
vn 0.000000 -1.000000 0.000000
vn 0.000000 -1.000000 0.000000
vn 0.000000 -1.000000 0.000000
vn 0.000000 -1.000000 0.000000
vn -0.707107 0.000000 -0.707107
vn -0.707107 0.000000 -0.707107
vn 0.000000 0.000000 -1.000000
vn 0.000000 0.000000 -1.000000
vn 0.707107 0.000000 -0.707107
vn 0.707107 0.000000 -0.707107
vn 1.000000 0.000000 -0.000000
vn 1.000000 0.000000 -0.000000
vn 0.707107 0.000000 0.707107
vn 0.707107 0.000000 0.707107
vn 0.000000 0.000000 1.000000
vn 0.000000 0.000000 1.000000
vn -0.707107 0.000000 0.707107
vn -0.707107 0.000000 0.707107
vn -1.000000 0.000000 -0.000000
vn -1.000000 0.000000 -0.000000
vn 0.000000 -1.000000 0.000000
vn 0.000000 -1.000000 0.000000
vn 0.000000 -1.000000 0.000000
vn 0.000000 -1.000000 0.000000
vn 0.000000 -1.000000 0.000000
vn 0.000000 -1.000000 0.000000
vn 0.000000 -1.000000 0.000000
vn 0.000000 -1.000000 0.000000
vn 0.000000 -1.000000 0.000000
vn -1.000000 0.000000 0.000000
vn -1.000000 0.000000 0.000000
vn -1.000000 0.000000 0.000000
vn -1.000000 0.000000 0.000000
vn 0.000000 0.000000 -1.000000
vn 0.000000 0.000000 -1.000000
vn 0.000000 0.000000 1.000000
vn 0.000000 0.000000 1.000000
vn 0.000000 0.000000 1.000000
vn 0.000000 0.000000 1.000000
vn -1.000000 0.000000 0.000000
vn -1.000000 0.000000 0.000000
f 2/1/1 1/2/2 10/12/3 9/11/4
f 4/3/5 3/4/6 84/104/7 85/105/8
f 12/5/9 4/3/10 85/105/11 86/106/12
f 11/6/13 3/4/14 13/14/15 16/16/16
f 5/7/17 6/8/18 7/9/19 8/10/20
f 2/1/21 9/11/22 7/9/23 6/8/24
f 11/6/25 12/5/26 86/106/27 83/103/28
f 4/3/29 14/13/30 13/14/31 3/4/32
f 12/5/9 15/15/33 14/13/34 4/3/10
f 12/5/35 11/6/36 16/16/37 15/15/38
f 17/21/39 18/22/40 20/23/41 19/24/42
f 19/24/43 20/23/44 22/25/45 21/26/46
f 21/26/47 22/25/48 24/27/49 23/28/50
f 23/28/51 24/27/52 18/22/53 17/21/54
f 25/29/55 26/30/56 28/31/57 27/32/58
f 27/32/59 28/31/60 30/33/61 29/34/62
f 29/34/63 30/33/64 32/35/65 31/36/66
f 31/36/67 32/35/68 26/30/69 25/29/70
f 36/20/71 35/19/72 45/49/73 46/50/74
f 44/41/75 36/20/76 46/50/77 47/51/78
f 34/18/79 33/17/80 90/110/81 89/109/82
f 34/18/83 38/44/84 39/46/85 41/47/86
f 37/43/87 40/45/88 39/46/89 38/44/90
f 34/18/91 41/47/92 42/48/93 33/17/94
f 33/17/95 42/48/96 40/45/97 37/43/98
f 35/19/99 90/110/100 87/107/101 43/42/102
f 36/20/103 89/109/82 90/110/81 35/19/104
f 44/41/75 88/108/105 89/109/106 36/20/76
f 43/42/107 87/107/108 88/108/109 44/41/110
f 44/41/111 47/51/112 48/52/113 43/42/114
f 43/42/102 48/52/115 45/49/116 35/19/99
f 49/73/117 50/74/118 58/75/119 57/76/120
f 50/74/118 51/77/121 59/78/122 58/75/119
f 51/77/121 52/79/123 60/80/124 59/78/122
f 52/79/123 53/81/125 61/82/126 60/80/124
f 53/81/125 54/83/127 62/84/128 61/82/126
f 54/83/127 55/85/129 63/86/130 62/84/128
f 55/85/129 56/87/131 64/88/132 63/86/130
f 56/87/131 49/89/117 57/90/120 64/88/132
f 50/91/133 49/92/134 65/93/135
f 51/94/136 50/91/133 65/93/135
f 52/95/137 51/94/136 65/93/135
f 53/96/138 52/95/137 65/93/135
f 54/97/139 53/96/138 65/93/135
f 55/98/140 54/97/139 65/93/135
f 56/99/141 55/98/140 65/93/135
f 49/92/134 56/99/141 65/93/135
f 66/100/142 74/101/143 75/102/144 67/72/145
f 67/72/145 75/102/144 76/71/146 68/70/147
f 68/70/147 76/71/146 77/69/148 69/68/149
f 69/68/149 77/69/148 78/67/150 70/66/151
f 70/66/151 78/67/150 79/65/152 71/64/153
f 71/64/153 79/65/152 80/63/154 72/62/155
f 72/62/155 80/63/154 81/61/156 73/60/157
f 73/60/157 81/61/156 74/59/143 66/58/142
f 67/57/158 82/56/159 66/55/160
f 68/54/161 82/56/159 67/57/158
f 69/53/162 82/56/159 68/54/161
f 70/40/163 82/56/159 69/53/162
f 71/39/164 82/56/159 70/40/163
f 72/38/165 82/56/159 71/39/164
f 73/37/166 82/56/159 72/38/165
f 66/55/160 82/56/159 73/37/166
f 84/104/167 83/103/168 5/7/169 1/2/170
f 85/105/8 84/104/7 1/2/171 2/1/172
f 6/8/24 86/106/12 85/105/11 2/1/21
f 83/103/28 86/106/27 6/8/173 5/7/174
f 87/107/108 37/43/175 38/44/176 88/108/109
f 1/2/170 5/7/169 8/10/177 10/12/178
f 33/17/95 37/43/98 87/107/101 90/110/100
f 38/44/84 34/18/83 89/109/106 88/108/105
f 3/4/14 11/6/13 83/103/168 84/104/167
