# This file uses meters as units for non-parametric coordinates.

v -54.012310 32.594193 65.367889
v 54.012310 32.594193 65.367889
v -54.012310 0.000000 65.367889
v 54.012310 0.000000 65.367889
v -50.476040 0.000000 65.367889
v 50.783669 0.000000 65.367889
v -50.476040 29.299484 65.367889
v 50.783669 29.299484 65.367889
v -50.476040 29.299484 0.000000
v 50.783669 29.299484 0.000000
v -50.476040 -0.000002 0.000000
v 50.783669 -0.000002 0.000000
v -48.444347 29.299484 65.552811
v 48.751976 29.299484 65.552811
v 48.751976 29.299484 2.424431
v -48.444347 29.299484 2.424431
v -48.444347 4.334398 65.552811
v 48.751976 4.334398 65.552811
v 48.751976 4.334396 2.424431
v -48.444347 4.334396 2.424431
v -52.774391 1.237919 70.320068
v -54.012310 0.000000 69.082138
v 52.774391 1.237919 70.320068
v 54.012310 0.000000 69.082138
v -52.774391 31.356274 70.320068
v -54.012310 32.594193 69.082138
v 52.774391 31.356274 70.320068
v 54.012310 32.594193 69.082138
vt 0.367768 0.791042
vt 0.349826 0.808943
vt 0.350926 0.807705
vt 0.366668 0.807705
vt 0.366668 0.791999
vt 0.350926 0.791999
vt 0.349826 0.790901
vt 0.367768 0.790901
vt 0.367768 0.808802
vt 0.349826 0.808802
vt 0.367768 0.790901
vt 0.349826 0.790901
vt 0.367768 0.790901
vt 0.349826 0.790901
vt 0.349826 0.808802
vt 0.367768 0.808802
vt 0.367768 0.790901
vt 0.349826 0.790901
vt 0.349826 0.808802
vt 0.367768 0.808802
vt 0.366668 0.791999
vt 0.366668 0.807705
vt 0.350926 0.791999
vt 0.350926 0.807705
vt 0.366795 0.792053
vt 0.350057 0.792053
vt 0.350057 0.808751
vt 0.366795 0.808751
vt 0.366795 0.792053
vt 0.366795 0.808751
vt 0.350057 0.792053
vt 0.350057 0.808751
vt 0.354311 0.791042
vt 0.350024 0.791816
vt 0.349826 0.804468
vt 0.350024 0.808169
vt 0.363283 0.808943
vt 0.367570 0.791816
vt 0.367570 0.808169
vt 0.367768 0.804468
vt 0.349826 0.791042
vt 0.367768 0.808943
vt 0.367768 0.795517
vt 0.349826 0.795517
vt 0.363283 0.791042
vt 0.349826 0.791042
vt 0.349826 0.808943
vt 0.367768 0.791042
vt 0.354311 0.808943
vt 0.367768 0.808943
vn 0.000000 0.000000 -1.000000
vn 0.000000 0.000000 -1.000000
vn 0.000000 0.000000 -1.000000
vn 0.000000 0.000000 -1.000000
vn 0.000000 1.000000 -0.000000
vn 0.000000 1.000000 -0.000000
vn 0.000000 1.000000 -0.000000
vn 0.000000 1.000000 -0.000000
vn 0.000000 0.000000 -1.000000
vn 0.000000 0.000000 -1.000000
vn 0.000000 0.000000 -1.000000
vn 0.000000 0.000000 -1.000000
vn 0.000000 -1.000000 0.000000
vn 0.000000 -1.000000 0.000000
vn 0.000000 -1.000000 0.000000
vn 0.000000 -1.000000 0.000000
vn 1.000000 0.000000 0.000000
vn 1.000000 0.000000 0.000000
vn 1.000000 0.000000 0.000000
vn 1.000000 0.000000 0.000000
vn -1.000000 0.000000 0.000000
vn -1.000000 0.000000 0.000000
vn -1.000000 0.000000 0.000000
vn -1.000000 0.000000 0.000000
vn 0.000000 1.000000 0.000000
vn 0.000000 1.000000 0.000000
vn 0.000000 1.000000 0.000000
vn 0.000000 1.000000 0.000000
vn 0.000000 1.000000 0.000000
vn 0.000000 1.000000 0.000000
vn 0.000000 1.000000 0.000000
vn 0.000000 1.000000 0.000000
vn 0.000000 1.000000 0.000000
vn 0.000000 1.000000 0.000000
vn 0.000000 1.000000 0.000000
vn 0.000000 1.000000 0.000000
vn -1.000000 0.000000 0.000000
vn -1.000000 0.000000 0.000000
vn -1.000000 0.000000 0.000000
vn -1.000000 0.000000 0.000000
vn 0.000000 0.000000 1.000000
vn 0.000000 0.000000 1.000000
vn 0.000000 0.000000 1.000000
vn 0.000000 0.000000 1.000000
vn 1.000000 0.000000 0.000000
vn 1.000000 0.000000 0.000000
vn 1.000000 0.000000 0.000000
vn 1.000000 0.000000 0.000000
vn 0.000000 -0.707110 0.707104
vn 0.000000 -0.707110 0.707104
vn 0.000000 -0.707110 0.707104
vn 0.000000 -0.707110 0.707104
vn -0.707112 0.000000 0.707101
vn -0.707112 0.000000 0.707101
vn -0.707112 0.000000 0.707101
vn -0.707112 0.000000 0.707101
vn 0.707112 0.000000 0.707101
vn 0.707112 0.000000 0.707101
vn 0.707112 0.000000 0.707101
vn 0.707112 0.000000 0.707101
vn 0.000000 0.707110 0.707104
vn 0.000000 0.707110 0.707104
vn 0.000000 0.707110 0.707104
vn 0.000000 0.707110 0.707104
vn 0.000000 0.000000 1.000000
vn 0.000000 0.000000 1.000000
vn 0.000000 0.000000 1.000000
vn 0.000000 0.000000 1.000000
vn 0.000000 1.000000 0.000000
vn 0.000000 1.000000 0.000000
vn 0.000000 1.000000 0.000000
vn 0.000000 1.000000 0.000000
vn 0.000000 -1.000000 0.000000
vn 0.000000 -1.000000 0.000000
vn 0.000000 -1.000000 0.000000
vn 0.000000 -1.000000 0.000000
vn 1.000000 0.000000 0.000000
vn 1.000000 0.000000 0.000000
vn 1.000000 0.000000 0.000000
vn 1.000000 0.000000 0.000000
vn -1.000000 0.000000 0.000000
vn -1.000000 0.000000 0.000000
vn -1.000000 0.000000 0.000000
vn -1.000000 0.000000 0.000000
f 1/41/1 2/1/2 4/42/3 3/2/4
f 17/3/5 18/4/6 19/5/7 20/6/8
f 9/7/9 10/8/10 12/9/11 11/10/12
f 11/10/13 12/9/14 6/11/15 5/12/16
f 6/13/17 12/14/18 10/15/19 8/16/20
f 11/17/21 5/18/22 7/19/23 9/20/24
f 8/16/25 10/8/26 15/21/27 14/22/28
f 10/8/29 9/7/30 16/23/31 15/21/32
f 9/7/33 7/19/34 13/24/35 16/23/36
f 14/25/37 15/26/38 19/27/39 18/28/40
f 15/26/41 16/29/42 20/30/43 19/27/44
f 16/29/45 13/31/46 17/32/47 20/30/48
f 21/34/49 22/33/50 24/45/51 23/38/52
f 22/33/53 21/34/54 25/36/55 26/35/56
f 23/38/57 24/45/58 28/37/59 27/39/60
f 26/35/61 25/36/62 27/39/63 28/37/64
f 21/34/65 23/38/66 27/39/67 25/36/68
f 26/35/69 28/40/70 2/1/71 1/41/72
f 3/2/73 4/42/74 24/43/75 22/44/76
f 24/45/77 4/46/78 2/47/79 28/37/80
f 3/48/81 22/33/82 26/49/83 1/50/84
