# This file uses meters as units for non-parametric coordinates.

v -81.725868 -2.569836 56.336547
v -81.725868 51.068787 56.336547
v 81.725876 -2.569836 56.336547
v 81.725876 51.068787 56.336547
v -80.801048 0.000004 56.244079
v 80.801056 0.000004 56.244079
v -80.801048 42.150200 56.244079
v 80.801056 42.150200 56.244079
v -80.801048 42.150200 0.000000
v 80.801056 42.150200 0.000000
v -80.801048 0.000000 0.000000
v 80.801056 0.000000 0.000000
v -78.769348 42.150200 56.429000
v 78.769363 42.150200 56.429000
v 78.769363 42.150200 2.424431
v -78.769348 42.150200 2.424431
v -78.769348 4.334400 56.429000
v 78.769363 4.334400 56.429000
v 78.769363 4.334400 2.424431
v -78.769348 4.334400 2.424431
v 81.183022 -2.026985 58.508162
v 81.725876 -2.569836 57.965316
v 81.183022 50.525940 58.508162
v 81.725876 51.068787 57.965316
v -81.183014 -2.026985 58.508162
v -81.725868 -2.569836 57.965316
v -81.183014 50.525940 58.508162
v -81.725868 51.068787 57.965316
vt 0.433396 0.871064
vt 0.410493 0.854183
vt 0.411555 0.869839
vt 0.432322 0.869839
vt 0.432322 0.854839
vt 0.411555 0.854839
vt 0.410104 0.853791
vt 0.433773 0.853791
vt 0.433773 0.870888
vt 0.410104 0.870888
vt 0.433773 0.853791
vt 0.410104 0.853791
vt 0.433773 0.853791
vt 0.410104 0.853791
vt 0.410104 0.870888
vt 0.433773 0.870888
vt 0.433773 0.853791
vt 0.410104 0.853791
vt 0.410104 0.870888
vt 0.433773 0.870888
vt 0.432322 0.854839
vt 0.432322 0.869839
vt 0.411555 0.854839
vt 0.411555 0.869839
vt 0.432488 0.854890
vt 0.410410 0.854890
vt 0.410410 0.870839
vt 0.432488 0.870839
vt 0.432488 0.854890
vt 0.432488 0.870839
vt 0.410410 0.854890
vt 0.410410 0.870839
vt 0.433396 0.858403
vt 0.433295 0.854393
vt 0.416218 0.854182
vt 0.410593 0.854393
vt 0.410493 0.866844
vt 0.433295 0.870854
vt 0.410593 0.870854
vt 0.416218 0.871064
vt 0.433396 0.854182
vt 0.410493 0.871064
vt 0.427670 0.871064
vt 0.427670 0.854182
vt 0.433396 0.866848
vt 0.433396 0.854183
vt 0.410493 0.854183
vt 0.433396 0.871064
vt 0.410493 0.858402
vt 0.410493 0.871064
vn 0.000000 0.000000 -1.000000
vn 0.000000 0.000000 -1.000000
vn 0.000000 0.000000 -1.000000
vn 0.000000 0.000000 -1.000000
vn 0.000000 1.000000 0.000000
vn 0.000000 1.000000 0.000000
vn 0.000000 1.000000 0.000000
vn 0.000000 1.000000 0.000000
vn 0.000000 0.000000 -1.000000
vn 0.000000 0.000000 -1.000000
vn 0.000000 0.000000 -1.000000
vn 0.000000 0.000000 -1.000000
vn 0.000000 -1.000000 0.000000
vn 0.000000 -1.000000 0.000000
vn 0.000000 -1.000000 0.000000
vn 0.000000 -1.000000 0.000000
vn 1.000000 0.000000 0.000000
vn 1.000000 0.000000 0.000000
vn 1.000000 0.000000 0.000000
vn 1.000000 0.000000 0.000000
vn -1.000000 0.000000 0.000000
vn -1.000000 0.000000 0.000000
vn -1.000000 0.000000 0.000000
vn -1.000000 0.000000 0.000000
vn 0.000000 1.000000 0.000000
vn 0.000000 1.000000 0.000000
vn 0.000000 1.000000 0.000000
vn 0.000000 1.000000 0.000000
vn 0.000000 1.000000 0.000001
vn 0.000000 1.000000 0.000001
vn 0.000000 1.000000 0.000001
vn 0.000000 1.000000 0.000001
vn 0.000000 1.000000 0.000000
vn 0.000000 1.000000 0.000000
vn 0.000000 1.000000 0.000000
vn 0.000000 1.000000 0.000000
vn -1.000000 0.000000 0.000000
vn -1.000000 0.000000 0.000000
vn -1.000000 0.000000 0.000000
vn -1.000000 0.000000 0.000000
vn 0.000000 0.000000 1.000000
vn 0.000000 0.000000 1.000000
vn 0.000000 0.000000 1.000000
vn 0.000000 0.000000 1.000000
vn 1.000000 0.000000 0.000000
vn 1.000000 0.000000 0.000000
vn 1.000000 0.000000 0.000000
vn 1.000000 0.000000 0.000000
vn 0.707103 0.000000 0.707110
vn 0.707103 0.000000 0.707110
vn 0.707103 0.000000 0.707110
vn 0.707103 0.000000 0.707110
vn 0.000000 -0.707104 0.707109
vn 0.000000 -0.707104 0.707109
vn 0.000000 -0.707104 0.707109
vn 0.000000 -0.707104 0.707109
vn 0.000000 0.707103 0.707111
vn 0.000000 0.707103 0.707111
vn 0.000000 0.707103 0.707111
vn 0.000000 0.707103 0.707111
vn -0.707103 0.000000 0.707110
vn -0.707103 0.000000 0.707110
vn -0.707103 0.000000 0.707110
vn -0.707103 0.000000 0.707110
vn 0.000000 0.000000 1.000000
vn 0.000000 0.000000 1.000000
vn 0.000000 0.000000 1.000000
vn 0.000000 0.000000 1.000000
vn -1.000000 0.000000 0.000000
vn -1.000000 0.000000 0.000000
vn -1.000000 0.000000 0.000000
vn -1.000000 0.000000 0.000000
vn 1.000000 0.000000 0.000000
vn 1.000000 0.000000 0.000000
vn 1.000000 0.000000 0.000000
vn 1.000000 0.000000 0.000000
vn 0.000000 1.000000 0.000000
vn 0.000000 1.000000 0.000000
vn 0.000000 1.000000 0.000000
vn 0.000000 1.000000 0.000000
vn 0.000000 -1.000000 0.000000
vn 0.000000 -1.000000 0.000000
vn 0.000000 -1.000000 0.000000
vn 0.000000 -1.000000 0.000000
f 1/41/1 2/1/2 4/42/3 3/2/4
f 17/3/5 18/4/6 19/5/7 20/6/8
f 9/7/9 10/8/10 12/9/11 11/10/12
f 11/10/13 12/9/14 6/11/15 5/12/16
f 6/13/17 12/14/18 10/15/19 8/16/20
f 11/17/21 5/18/22 7/19/23 9/20/24
f 8/16/25 10/8/26 15/21/27 14/22/28
f 10/8/29 9/7/30 16/23/31 15/21/32
f 9/7/33 7/19/34 13/24/35 16/23/36
f 14/25/37 15/26/38 19/27/39 18/28/40
f 15/26/41 16/29/42 20/30/43 19/27/44
f 16/29/45 13/31/46 17/32/47 20/30/48
f 21/34/49 22/33/50 24/45/51 23/38/52
f 22/33/53 21/34/54 25/36/55 26/35/56
f 23/38/57 24/45/58 28/37/59 27/39/60
f 26/35/61 25/36/62 27/39/63 28/37/64
f 21/34/65 23/38/66 27/39/67 25/36/68
f 26/35/69 28/40/70 2/1/71 1/41/72
f 3/2/73 4/42/74 24/43/75 22/44/76
f 24/45/77 4/46/78 2/47/79 28/37/80
f 3/48/81 22/33/82 26/49/83 1/50/84
