# This file uses meters as units for non-parametric coordinates.

v -59.238968 0.000000 0.000000
v 59.238968 0.000000 0.000000
v 48.092392 12.976707 0.000000
v -48.092388 12.976707 0.000000
v 59.238968 66.305801 0.000000
v -59.238968 66.305801 0.000000
v -48.092388 53.329086 0.000000
v 48.092392 53.329086 0.000000
v -59.238968 0.000000 -4.767262
v -48.092388 12.976707 -4.767262
v 48.092392 12.976707 -4.767262
v 59.238968 0.000000 -4.767262
v 59.238968 66.305801 -4.767262
v 48.092392 53.329086 -4.767262
v -48.092388 53.329086 -4.767262
v -59.238968 66.305801 -4.767262
vt 0.984712 0.853815
vt 0.894485 0.853815
vt 0.908854 0.787564
vt 0.970342 0.787564
vt 0.894485 0.852886
vt 0.984712 0.852886
vt 0.970342 0.786735
vt 0.908854 0.786735
vt 0.984712 0.836245
vt 0.970342 0.803182
vt 0.908854 0.803182
vt 0.894485 0.836245
vt 0.894485 0.835316
vt 0.908854 0.802354
vt 0.970342 0.802354
vt 0.984712 0.835316
vn 0.000000 0.000000 1.000000
vn 0.000000 0.000000 1.000000
vn 0.000000 0.000000 1.000000
vn 0.000000 0.000000 1.000000
vn 0.000000 0.000000 1.000000
vn 0.000000 0.000000 1.000000
vn 0.000000 0.000000 1.000000
vn 0.000000 0.000000 1.000000
vn 0.000000 0.000000 1.000000
vn 0.000000 0.000000 1.000000
vn 0.000000 0.000000 1.000000
vn 0.000000 0.000000 1.000000
vn 0.000000 0.000000 1.000000
vn 0.000000 0.000000 1.000000
vn 0.000000 0.000000 1.000000
vn 0.000000 0.000000 1.000000
vn 0.000000 0.000000 -1.000000
vn 0.000000 0.000000 -1.000000
vn 0.000000 0.000000 -1.000000
vn 0.000000 0.000000 -1.000000
vn 0.000000 0.000000 -1.000000
vn 0.000000 0.000000 -1.000000
vn 0.000000 0.000000 -1.000000
vn 0.000000 0.000000 -1.000000
vn 0.000000 0.000000 -1.000000
vn 0.000000 0.000000 -1.000000
vn 0.000000 0.000000 -1.000000
vn 0.000000 0.000000 -1.000000
vn 0.000000 0.000000 -1.000000
vn 0.000000 0.000000 -1.000000
vn 0.000000 0.000000 -1.000000
vn 0.000000 0.000000 -1.000000
vn 0.000000 -1.000000 0.000000
vn 0.000000 -1.000000 0.000000
vn 0.000000 -1.000000 0.000000
vn 0.000000 -1.000000 0.000000
vn 0.000000 1.000000 0.000000
vn 0.000000 1.000000 0.000000
vn 0.000000 1.000000 0.000000
vn 0.000000 1.000000 0.000000
vn 1.000000 0.000000 0.000000
vn 1.000000 0.000000 0.000000
vn 1.000000 0.000000 0.000000
vn 1.000000 0.000000 0.000000
vn -1.000000 0.000000 0.000000
vn -1.000000 0.000000 0.000000
vn -1.000000 0.000000 0.000000
vn -1.000000 0.000000 0.000000
vn 0.000000 1.000000 0.000000
vn 0.000000 1.000000 0.000000
vn 0.000000 1.000000 0.000000
vn 0.000000 1.000000 0.000000
vn 0.000000 -1.000000 0.000000
vn 0.000000 -1.000000 0.000000
vn 0.000000 -1.000000 0.000000
vn 0.000000 -1.000000 0.000000
vn -1.000000 0.000000 0.000000
vn -1.000000 0.000000 0.000000
vn -1.000000 0.000000 0.000000
vn -1.000000 0.000000 0.000000
vn 1.000000 0.000000 0.000000
vn 1.000000 0.000000 0.000000
vn 1.000000 0.000000 0.000000
vn 1.000000 0.000000 0.000000
f 1/1/1 2/2/2 3/3/3 4/4/4
f 3/3/5 2/2/6 5/5/7 8/8/8
f 5/5/9 6/6/10 7/7/11 8/8/12
f 1/1/13 4/4/14 7/7/15 6/6/16
f 9/9/17 10/10/18 11/11/19 12/12/20
f 12/12/21 11/11/22 14/14/23 13/13/24
f 13/13/25 14/14/26 15/15/27 16/16/28
f 10/10/29 9/9/30 16/16/31 15/15/32
f 9/9/33 12/12/34 2/2/35 1/1/36
f 11/11/37 10/10/38 4/4/39 3/3/40
f 2/2/41 12/12/42 13/13/43 5/5/44
f 11/11/45 3/3/46 8/8/47 14/14/48
f 13/13/49 16/16/50 6/6/51 5/5/52
f 15/15/53 14/14/54 8/8/55 7/7/56
f 9/9/57 1/1/58 6/6/59 16/16/60
f 4/4/61 10/10/62 15/15/63 7/7/64
