# This file uses meters as units for non-parametric coordinates.

v 9.629410 124.018829 -1.265297
v 112.247108 124.018829 -1.265297
v 112.247108 -124.669357 -1.265297
v 9.629425 -124.669357 -1.265297
v 9.629410 124.018829 -0.638466
v 112.247108 124.018829 -0.638466
v 112.247108 -124.669357 -0.638466
v 9.629425 -124.669357 -0.638466
vt 0.554832 0.942365
vt 0.554832 0.963510
vt 0.537371 0.963510
vt 0.537371 0.942365
vt 0.554832 0.942365
vt 0.554832 0.963510
vt 0.537371 0.963510
vt 0.537371 0.942365
vn 0.000000 0.000000 -1.000000
vn 0.000000 0.000000 -1.000000
vn 0.000000 0.000000 -1.000000
vn 0.000000 0.000000 -1.000000
vn 0.000000 0.000000 1.000000
vn 0.000000 0.000000 1.000000
vn 0.000000 0.000000 1.000000
vn 0.000000 0.000000 1.000000
f 3/1/1 4/4/2 1/3/3 2/2/4
f 7/5/5 6/6/6 5/7/7 8/8/8
