# This file uses meters as units for non-parametric coordinates.

v -84.289558 234.293976 68.667046
v 84.289558 234.293976 68.667046
v -84.289558 236.148193 68.667046
v 84.289558 236.148193 68.667046
v -84.289558 236.148193 4.641479
v 84.289558 236.148193 4.641479
v -84.289558 234.293976 4.641479
v 84.289558 234.293976 4.641479
v -84.289558 164.293976 68.667046
v 84.289558 164.293976 68.667046
v -84.289558 166.148193 68.667046
v 84.289558 166.148193 68.667046
v -84.289558 166.148193 4.641479
v 84.289558 166.148193 4.641479
v -84.289558 164.293976 4.641479
v 84.289558 164.293976 4.641479
v -84.289558 94.293983 68.667046
v 84.289558 94.293983 68.667046
v -84.289558 96.148186 68.667046
v 84.289558 96.148186 68.667046
v -84.289558 96.148186 4.641479
v 84.289558 96.148186 4.641479
v -84.289558 94.293983 4.641479
v 84.289558 94.293983 4.641479
vt 0.569297 0.974452
vt 0.586509 0.974452
vt 0.586509 0.991664
vt 0.569297 0.991664
vt 0.586509 0.974452
vt 0.569297 0.974452
vt 0.586509 0.991664
vt 0.569297 0.991664
vt 0.586509 0.974452
vt 0.569297 0.974452
vt 0.569297 0.974452
vt 0.586509 0.974452
vt 0.586509 0.991664
vt 0.569297 0.991664
vt 0.586509 0.974452
vt 0.569297 0.974452
vt 0.586509 0.991664
vt 0.569297 0.991664
vt 0.586509 0.974452
vt 0.569297 0.974452
vt 0.569297 0.974452
vt 0.586509 0.974452
vt 0.586509 0.991664
vt 0.569297 0.991664
vt 0.586509 0.974452
vt 0.569297 0.974452
vt 0.586509 0.991664
vt 0.569297 0.991664
vt 0.586509 0.974452
vt 0.569297 0.974452
vn 0.000000 0.000000 1.000000
vn 0.000000 0.000000 1.000000
vn 0.000000 0.000000 1.000000
vn 0.000000 0.000000 1.000000
vn 0.000000 1.000000 0.000000
vn 0.000000 1.000000 0.000000
vn 0.000000 1.000000 0.000000
vn 0.000000 1.000000 0.000000
vn 0.000000 0.000000 -1.000000
vn 0.000000 0.000000 -1.000000
vn 0.000000 0.000000 -1.000000
vn 0.000000 0.000000 -1.000000
vn 0.000000 -1.000000 0.000000
vn 0.000000 -1.000000 0.000000
vn 0.000000 -1.000000 0.000000
vn 0.000000 -1.000000 0.000000
vn -1.000000 0.000000 0.000000
vn -1.000000 0.000000 0.000000
vn -1.000000 0.000000 0.000000
vn -1.000000 0.000000 0.000000
vn 1.000000 0.000000 0.000000
vn 1.000000 0.000000 0.000000
vn 1.000000 0.000000 0.000000
vn 1.000000 0.000000 0.000000
vn 0.000000 0.000000 1.000000
vn 0.000000 0.000000 1.000000
vn 0.000000 0.000000 1.000000
vn 0.000000 0.000000 1.000000
vn 0.000000 1.000000 0.000000
vn 0.000000 1.000000 0.000000
vn 0.000000 1.000000 0.000000
vn 0.000000 1.000000 0.000000
vn 0.000000 0.000000 -1.000000
vn 0.000000 0.000000 -1.000000
vn 0.000000 0.000000 -1.000000
vn 0.000000 0.000000 -1.000000
vn 0.000000 -1.000000 0.000000
vn 0.000000 -1.000000 0.000000
vn 0.000000 -1.000000 0.000000
vn 0.000000 -1.000000 0.000000
vn -1.000000 0.000000 0.000000
vn -1.000000 0.000000 0.000000
vn -1.000000 0.000000 0.000000
vn -1.000000 0.000000 0.000000
vn 1.000000 0.000000 0.000000
vn 1.000000 0.000000 0.000000
vn 1.000000 0.000000 0.000000
vn 1.000000 0.000000 0.000000
vn 0.000000 0.000000 1.000000
vn 0.000000 0.000000 1.000000
vn 0.000000 0.000000 1.000000
vn 0.000000 0.000000 1.000000
vn 0.000000 1.000000 0.000000
vn 0.000000 1.000000 0.000000
vn 0.000000 1.000000 0.000000
vn 0.000000 1.000000 0.000000
vn 0.000000 0.000000 -1.000000
vn 0.000000 0.000000 -1.000000
vn 0.000000 0.000000 -1.000000
vn 0.000000 0.000000 -1.000000
vn 0.000000 -1.000000 0.000000
vn 0.000000 -1.000000 0.000000
vn 0.000000 -1.000000 0.000000
vn 0.000000 -1.000000 0.000000
vn -1.000000 0.000000 0.000000
vn -1.000000 0.000000 0.000000
vn -1.000000 0.000000 0.000000
vn -1.000000 0.000000 0.000000
vn 1.000000 0.000000 0.000000
vn 1.000000 0.000000 0.000000
vn 1.000000 0.000000 0.000000
vn 1.000000 0.000000 0.000000
f 1/1/1 2/2/2 4/3/3 3/4/4
f 3/4/5 4/3/6 6/5/7 5/6/8
f 5/6/9 6/5/10 8/7/11 7/8/12
f 7/8/13 8/7/14 2/9/15 1/10/16
f 5/6/17 7/8/18 1/1/19 3/4/20
f 6/5/21 4/3/22 2/9/23 8/7/24
f 9/11/25 10/12/26 12/13/27 11/14/28
f 11/14/29 12/13/30 14/15/31 13/16/32
f 13/16/33 14/15/34 16/17/35 15/18/36
f 15/18/37 16/17/38 10/19/39 9/20/40
f 9/11/41 11/14/42 13/16/43 15/18/44
f 10/19/45 16/17/46 14/15/47 12/13/48
f 17/21/49 18/22/50 20/23/51 19/24/52
f 19/24/53 20/23/54 22/25/55 21/26/56
f 21/26/57 22/25/58 24/27/59 23/28/60
f 23/28/61 24/27/62 18/29/63 17/30/64
f 17/21/65 19/24/66 21/26/67 23/28/68
f 18/29/69 24/27/70 22/25/71 20/23/72
