# This file uses meters as units for non-parametric coordinates.

v -47.714684 12.976685 51.863518
v -47.714684 70.243240 51.863518
v -50.485596 70.243240 51.863518
v -50.485596 12.976685 51.863518
v -50.485596 70.243240 6.246525
v -50.485596 12.976685 6.246525
v -47.714684 12.976685 6.246525
v -47.714684 70.243240 6.246525
v -118.477936 12.976692 6.246525
v 118.477936 12.976692 6.246525
v 118.477936 136.724991 6.246525
v -118.477936 136.724991 6.246525
v 0.000000 12.976692 6.246525
v 0.000000 136.724991 6.246525
v -118.477936 70.243240 51.863518
v 118.477936 70.243240 51.863518
v -118.477936 73.014153 51.863518
v 118.477936 73.014153 51.863518
v -118.477936 73.014153 6.246525
v 118.477936 73.014153 6.246525
v -118.477936 70.243240 6.246525
v 118.477936 70.243240 6.246525
v -129.624512 0.000000 56.630779
v 129.624512 0.000000 56.630779
v -129.624512 149.701675 56.630779
v 129.624512 149.701675 56.630779
v -129.624512 149.701675 0.000000
v 129.624512 149.701675 0.000000
v -129.624512 0.000000 0.000000
v 129.624512 0.000000 0.000000
v -118.477936 12.976692 56.630779
v 118.477936 12.976692 56.630779
v 118.477936 136.724991 56.630779
v -118.477936 136.724991 56.630779
v -118.477936 12.976692 6.246525
v 118.477936 12.976692 6.246525
v 118.477936 136.724991 6.246525
v -118.477936 136.724991 6.246525
vt 0.614681 0.713403
vt 0.513069 0.713403
vt 0.513069 0.739709
vt 0.614681 0.739709
vt 0.513069 0.639708
vt 0.614681 0.639708
vt 0.614681 0.636423
vt 0.513069 0.636423
vt 0.614761 0.633554
vt 0.613976 0.738534
vt 0.510308 0.738534
vt 0.511093 0.633553
vt 0.613191 0.635399
vt 0.509523 0.635399
vt 0.614681 0.713403
vt 0.513069 0.713403
vt 0.513069 0.739709
vt 0.614681 0.739709
vt 0.513069 0.639708
vt 0.614681 0.639708
vt 0.614681 0.636423
vt 0.513069 0.636423
vt 0.617211 0.736843
vt 0.519194 0.736843
vt 0.519194 0.638826
vt 0.617211 0.638826
vt 0.508786 0.631855
vt 0.615523 0.632888
vt 0.615523 0.743506
vt 0.508786 0.742473
vt 0.516541 0.638826
vt 0.616486 0.638826
vt 0.616486 0.736843
vt 0.516540 0.736843
vt 0.516541 0.638826
vt 0.516540 0.736843
vt 0.528136 0.705593
vt 0.608268 0.705593
vt 0.528136 0.705593
vt 0.528136 0.705593
vt 0.608268 0.705593
vt 0.528136 0.705593
vt 0.608268 0.705593
vt 0.608268 0.705593
vt 0.514228 0.715376
vt 0.614849 0.715376
vt 0.614849 0.660621
vt 0.514228 0.660622
vt 0.518908 0.715376
vt 0.518908 0.660622
vt 0.616925 0.715376
vt 0.616925 0.660622
vt 0.514228 0.715376
vt 0.514228 0.660622
vn 0.000000 0.000000 1.000000
vn 0.000000 0.000000 1.000000
vn 0.000000 0.000000 1.000000
vn 0.000000 0.000000 1.000000
vn -1.000000 0.000000 0.000000
vn -1.000000 0.000000 0.000000
vn -1.000000 0.000000 0.000000
vn -1.000000 0.000000 0.000000
vn 1.000000 0.000000 0.000000
vn 1.000000 0.000000 0.000000
vn 1.000000 0.000000 0.000000
vn 1.000000 0.000000 0.000000
vn 0.000000 0.000000 1.000000
vn 0.000000 0.000000 1.000000
vn 0.000000 0.000000 1.000000
vn 0.000000 0.000000 1.000000
vn 0.000000 0.000000 1.000000
vn 0.000000 0.000000 1.000000
vn 0.000000 0.000000 1.000000
vn 0.000000 0.000000 1.000000
vn 0.000000 0.000000 1.000000
vn 0.000000 0.000000 1.000000
vn 0.000000 1.000000 0.000000
vn 0.000000 1.000000 0.000000
vn 0.000000 1.000000 0.000000
vn 0.000000 1.000000 0.000000
vn 0.000000 -1.000000 0.000000
vn 0.000000 -1.000000 0.000000
vn 0.000000 -1.000000 0.000000
vn 0.000000 -1.000000 0.000000
vn 0.000000 1.000000 0.000000
vn 0.000000 1.000000 0.000000
vn 0.000000 1.000000 0.000000
vn 0.000000 1.000000 0.000000
vn 0.000000 0.000000 -1.000000
vn 0.000000 0.000000 -1.000000
vn 0.000000 0.000000 -1.000000
vn 0.000000 0.000000 -1.000000
vn 0.000000 -1.000000 0.000000
vn 0.000000 -1.000000 0.000000
vn 0.000000 -1.000000 0.000000
vn 0.000000 -1.000000 0.000000
vn 1.000000 0.000000 0.000000
vn 1.000000 0.000000 0.000000
vn 1.000000 0.000000 0.000000
vn 1.000000 0.000000 0.000000
vn -1.000000 0.000000 0.000000
vn -1.000000 0.000000 0.000000
vn -1.000000 0.000000 0.000000
vn -1.000000 0.000000 0.000000
vn 0.000000 0.000000 1.000000
vn 0.000000 0.000000 1.000000
vn 0.000000 0.000000 1.000000
vn 0.000000 0.000000 1.000000
vn 0.000000 0.000000 1.000000
vn 0.000000 0.000000 1.000000
vn 0.000000 0.000000 1.000000
vn 0.000000 0.000000 1.000000
vn 0.000000 0.000000 1.000000
vn 0.000000 0.000000 1.000000
vn 0.000000 0.000000 1.000000
vn 0.000000 0.000000 1.000000
vn 0.000000 0.000000 1.000000
vn 0.000000 0.000000 1.000000
vn 0.000000 0.000000 1.000000
vn 0.000000 0.000000 1.000000
vn 0.000000 1.000000 0.000000
vn 0.000000 1.000000 0.000000
vn 0.000000 1.000000 0.000000
vn 0.000000 1.000000 0.000000
vn -1.000000 0.000000 0.000000
vn -1.000000 0.000000 0.000000
vn -1.000000 0.000000 0.000000
vn -1.000000 0.000000 0.000000
vn 0.000000 -1.000000 0.000000
vn 0.000000 -1.000000 0.000000
vn 0.000000 -1.000000 0.000000
vn 0.000000 -1.000000 0.000000
vn 1.000000 0.000000 0.000000
vn 1.000000 0.000000 0.000000
vn 1.000000 0.000000 0.000000
vn 1.000000 0.000000 0.000000
f 1/1/1 2/2/2 3/3/3 4/4/4
f 4/4/5 3/3/6 5/5/7 6/6/8
f 7/7/9 8/8/10 2/2/11 1/1/12
f 9/9/13 13/10/14 14/11/15 12/12/16
f 13/10/14 10/13/17 11/14/18 14/11/15
f 15/15/19 16/16/20 18/17/21 17/18/22
f 17/18/23 18/17/24 20/19/25 19/20/26
f 21/21/27 22/22/28 16/16/29 15/15/30
f 25/23/31 26/24/32 28/25/33 27/26/34
f 30/27/35 29/28/36 27/29/37 28/30/38
f 29/31/39 30/32/40 24/33/41 23/34/42
f 24/33/43 30/32/44 28/25/45 26/24/46
f 29/35/47 23/36/48 25/23/49 27/26/50
f 23/34/51 24/33/52 32/37/53 31/38/54
f 32/39/55 24/33/56 26/24/57 33/40/58
f 26/24/59 25/23/60 34/41/61 33/42/62
f 25/23/63 23/36/64 31/43/65 34/44/66
f 31/45/67 32/46/68 36/47/69 35/48/70
f 36/47/71 32/46/72 33/49/73 37/50/74
f 33/49/75 34/51/76 38/52/77 37/50/78
f 31/53/79 35/54/80 38/52/81 34/51/82
