# This file uses meters as units for non-parametric coordinates.

v -3.912018 -133.826859 1.103844
v 65.393288 -133.826859 1.103844
v 3.017998 111.656830 1.103844
v 65.393288 111.656830 1.103844
v 3.017998 111.656830 -1.103844
v 65.393288 111.656830 -1.103844
v -3.912018 -133.826859 -1.103844
v 65.393288 -133.826859 -1.103844
v 65.393288 104.726959 1.103844
v -3.912018 104.726959 1.103844
v -3.912018 104.726959 -1.103844
v 65.393288 104.726959 -1.103844
vt 0.557044 0.880823
vt 0.557044 0.900175
vt 0.537693 0.880823
vt 0.537693 0.900175
vt 0.557044 0.880823
vt 0.557044 0.900175
vt 0.537693 0.880823
vt 0.537693 0.900175
vt 0.557044 0.880823
vt 0.557044 0.900175
vt 0.557044 0.880823
vt 0.537693 0.880823
vt 0.557044 0.900175
vt 0.537693 0.900175
vt 0.538311 0.900175
vt 0.538311 0.880823
vt 0.538311 0.900175
vt 0.556426 0.880823
vt 0.556426 0.900175
vt 0.538311 0.880823
vn 0.000000 0.000000 1.000000
vn 0.000000 0.000000 1.000000
vn 0.000000 0.000000 1.000000
vn 0.000000 0.000000 1.000000
vn 0.000000 1.000000 0.000000
vn 0.000000 1.000000 0.000000
vn 0.000000 1.000000 0.000000
vn 0.000000 1.000000 0.000000
vn 0.000000 0.000000 -1.000000
vn 0.000000 0.000000 -1.000000
vn 0.000000 0.000000 -1.000000
vn 0.000000 0.000000 -1.000000
vn 0.000000 -1.000000 0.000000
vn 0.000000 -1.000000 0.000000
vn 0.000000 -1.000000 0.000000
vn 0.000000 -1.000000 0.000000
vn 1.000000 0.000000 0.000000
vn 1.000000 0.000000 0.000000
vn 1.000000 0.000000 0.000000
vn 1.000000 0.000000 0.000000
vn -1.000000 0.000000 0.000000
vn -1.000000 0.000000 0.000000
vn -0.999602 0.028219 0.000000
vn -0.999602 0.028219 0.000000
vn 0.000000 0.000000 1.000000
vn 0.000000 0.000000 1.000000
vn -0.707099 0.707114 0.000000
vn -0.707099 0.707114 0.000000
vn 0.000000 0.000000 -1.000000
vn 0.000000 0.000000 -1.000000
vn 1.000000 0.000000 0.000000
vn 1.000000 0.000000 0.000000
f 1/1/1 2/2/2 9/15/3 10/16/4
f 3/3/5 4/4/6 6/6/7 5/5/8
f 11/18/9 12/19/10 8/8/11 7/7/12
f 7/7/13 8/8/14 2/10/15 1/9/16
f 2/2/17 8/11/18 12/20/19 9/15/20
f 7/13/21 1/1/22 10/16/23 11/17/24
f 10/16/4 9/15/3 4/4/25 3/3/26
f 11/17/24 10/16/23 3/3/27 5/14/28
f 5/5/29 6/6/30 12/19/10 11/18/9
f 9/15/20 12/20/19 6/12/31 4/4/32
