# This file uses meters as units for non-parametric coordinates.

v -97.676285 0.000000 60.338402
v 97.676285 0.000000 60.338402
v -97.676285 10.310829 60.338402
v 97.676285 10.310829 60.338402
v -97.676285 10.310829 2.817682
v 97.676285 10.310829 2.817682
v -97.676285 0.000000 2.817682
v 97.676285 0.000000 2.817682
v -93.052094 131.680664 55.288765
v 93.052094 131.680664 55.288765
v -93.052094 140.739380 55.288765
v 93.052094 140.739380 55.288765
v -93.052094 140.739380 9.986496
v 93.052094 140.739380 9.986496
v -93.052094 131.680664 9.986496
v 93.052094 131.680664 9.986496
v -93.052094 19.709915 55.288765
v 93.052094 19.709915 55.288765
v -93.052094 19.709930 9.986496
v 93.052094 19.709930 9.986496
v 93.052124 130.248718 6.773052
v 93.052124 75.895454 6.773052
v -93.052094 130.248718 6.773052
v -93.052094 75.895432 6.773052
v -93.052094 130.248718 1.547306
v -93.052094 75.895454 1.547306
v 93.052124 130.248718 1.547306
v 93.052124 75.895454 1.547306
v 93.052124 21.940964 6.773052
v -93.052094 21.940964 6.773052
v -93.052094 21.940964 1.547306
v 93.052124 21.940964 1.547306
v -93.052078 130.248718 55.288773
v -93.052078 130.248718 9.986500
v -93.052078 141.878845 55.288773
v -93.052078 141.878845 9.986500
v -103.038589 141.878845 55.288773
v -103.038589 141.878845 9.986500
v -103.038589 130.248718 55.288773
v -103.038589 130.248718 9.986500
v 93.052078 130.248718 55.288773
v 93.052078 130.248718 9.986500
v 93.052078 141.878845 55.288773
v 93.052078 141.878845 9.986500
v 103.038589 141.878845 55.288773
v 103.038589 141.878845 9.986500
v 103.038589 130.248718 55.288773
v 103.038589 130.248718 9.986500
v -93.052094 130.248718 9.986500
v 93.052094 130.248718 9.986500
v -93.052094 141.878845 9.986500
v 93.052094 141.878845 9.986500
v -93.052094 141.878845 -0.000011
v 93.052094 141.878845 -0.000011
v -93.052094 130.248718 -0.000011
v 93.052094 130.248718 -0.000011
v -93.052094 130.248718 65.275269
v 93.052094 130.248718 65.275269
v -93.052094 141.878845 65.275269
v 93.052094 141.878845 65.275269
v -93.052094 141.878845 55.288757
v 93.052094 141.878845 55.288757
v -93.052094 130.248718 55.288757
v 93.052094 130.248718 55.288757
v -93.052094 141.878784 65.275269
v -93.052094 76.536003 65.275269
v -103.038589 141.878784 65.275269
v -103.038589 76.536003 65.275269
v -103.038589 141.878784 55.288773
v -103.038589 76.536003 55.288773
v -93.052094 141.878784 55.288773
v -93.052094 76.536003 55.288773
v -93.052094 10.310829 65.275269
v -103.038589 10.310829 65.275269
v -103.038589 10.310829 55.288773
v -93.052094 10.310829 55.288773
v -93.052094 141.878784 9.986500
v -93.052094 76.536003 9.986500
v -103.038589 141.878784 9.986500
v -103.038589 76.536003 9.986500
v -103.038589 141.878784 0.000000
v -103.038589 76.536003 0.000000
v -93.052094 141.878784 0.000000
v -93.052094 76.536003 0.000000
v -93.052094 10.310829 9.986500
v -103.038589 10.310829 9.986500
v -103.038589 10.310829 0.000000
v -93.052094 10.310829 0.000000
v 93.052094 141.878845 9.986500
v 93.052094 76.535957 9.986500
v 103.038589 141.878845 9.986500
v 103.038589 76.535957 9.986500
v 103.038589 141.878845 0.000000
v 103.038589 76.535957 0.000000
v 93.052094 141.878845 0.000000
v 93.052094 76.535957 0.000000
v 93.052094 10.310837 9.986500
v 103.038589 10.310837 9.986500
v 103.038589 10.310837 0.000000
v 93.052094 10.310837 0.000000
v 93.052094 141.878845 65.275269
v 93.052094 76.535957 65.275269
v 103.038589 141.878845 65.275269
v 103.038589 76.535957 65.275269
v 103.038589 141.878845 55.288765
v 103.038589 76.535957 55.288765
v 93.052094 141.878845 55.288765
v 93.052094 76.535957 55.288765
v 93.052094 10.310837 65.275269
v 103.038589 10.310837 65.275269
v 103.038589 10.310837 55.288765
v 93.052094 10.310837 55.288765
v -93.052094 10.310833 9.986500
v 93.052094 10.310833 9.986500
v -93.052094 21.940964 9.986500
v 93.052094 21.940964 9.986500
v -93.052094 21.940964 -0.000011
v 93.052094 21.940964 -0.000011
v -93.052094 10.310833 -0.000011
v 93.052094 10.310833 -0.000011
v -93.052078 10.310833 55.288773
v -93.052078 10.310833 9.986500
v -93.052078 21.940964 55.288773
v -93.052078 21.940964 9.986500
v -103.038589 21.940964 55.288773
v -103.038589 21.940964 9.986500
v -103.038589 10.310833 55.288773
v -103.038589 10.310833 9.986500
v -93.052094 10.310833 65.275269
v 93.052094 10.310833 65.275269
v -93.052094 21.940964 65.275269
v 93.052094 21.940964 65.275269
v -93.052094 21.940964 55.288757
v 93.052094 21.940964 55.288757
v -93.052094 10.310833 55.288757
v 93.052094 10.310833 55.288757
v 93.052078 10.310833 55.288773
v 93.052078 10.310833 9.986500
v 93.052078 21.940964 55.288773
v 93.052078 21.940964 9.986500
v 103.038589 21.940964 55.288773
v 103.038589 21.940964 9.986500
v 103.038589 10.310833 55.288773
v 103.038589 10.310833 9.986500
vt 0.991170 0.741194
vt 0.888556 0.741194
vt 0.991170 0.633801
vt 0.888556 0.633801
vt 0.991171 0.741194
vt 0.888556 0.741194
vt 0.991170 0.633801
vt 0.888556 0.633801
vt 0.991170 0.741194
vt 0.888556 0.741194
vt 0.991170 0.741194
vt 0.991170 0.633801
vt 0.888556 0.741194
vt 0.888556 0.633801
vt 0.888556 0.633801
vt 0.888556 0.741194
vt 0.991170 0.741194
vt 0.991170 0.633801
vt 0.888556 0.633801
vt 0.888556 0.741194
vt 0.991170 0.741194
vt 0.991170 0.633801
vt 0.888556 0.633801
vt 0.888556 0.741194
vt 0.991170 0.741194
vt 0.991170 0.633801
vt 0.991170 0.633801
vt 0.888556 0.633801
vt 0.888556 0.741194
vt 0.991170 0.741194
vt 0.991170 0.633801
vt 0.888556 0.633801
vt 0.888556 0.741194
vt 0.991170 0.741194
vt 0.991170 0.633801
vt 0.888556 0.633801
vt 0.991170 0.633801
vt 0.888556 0.633801
vt 0.991170 0.741194
vt 0.888556 0.741194
vt 0.888556 0.633801
vt 0.991170 0.633801
vt 0.888556 0.741194
vt 0.991171 0.741194
vt 0.888556 0.633801
vt 0.991170 0.633801
vt 0.888556 0.741194
vt 0.991170 0.741194
vt 0.991170 0.741194
vt 0.991170 0.633801
vt 0.888556 0.633801
vt 0.888556 0.741194
vt 0.991171 0.741194
vt 0.888556 0.741194
vt 0.991170 0.633801
vt 0.888556 0.633801
vt 0.991170 0.741194
vt 0.888556 0.741194
vt 0.991170 0.741194
vt 0.888556 0.741194
vt 0.888556 0.633801
vt 0.991170 0.633801
vt 0.888556 0.741194
vt 0.991171 0.741194
vt 0.888556 0.633801
vt 0.991170 0.633801
vt 0.888556 0.741194
vt 0.991170 0.741194
vt 0.991170 0.741194
vt 0.888556 0.741194
vt 0.888556 0.633801
vt 0.991170 0.633801
vt 0.888556 0.741194
vt 0.991171 0.741194
vt 0.888556 0.633801
vt 0.991170 0.633801
vt 0.888556 0.741194
vt 0.991170 0.741194
vt 0.991170 0.741194
vt 0.991170 0.633801
vt 0.888556 0.633801
vt 0.888556 0.741194
vt 0.991171 0.741194
vt 0.888556 0.741194
vt 0.991170 0.633801
vt 0.888556 0.633801
vt 0.991170 0.741194
vt 0.888556 0.741194
vt 0.888556 0.741194
vt 0.888556 0.633801
vt 0.991170 0.741194
vt 0.991170 0.633801
vt 0.991171 0.741194
vt 0.991170 0.633801
vt 0.991170 0.741194
vt 0.888556 0.741194
vt 0.888556 0.633801
vt 0.991170 0.741194
vt 0.991170 0.633801
vt 0.888556 0.633801
vt 0.888556 0.741194
vt 0.991171 0.741194
vt 0.888556 0.741194
vt 0.991170 0.633801
vt 0.888556 0.633801
vt 0.991170 0.741194
vt 0.888556 0.741194
vt 0.888556 0.741194
vt 0.888556 0.633801
vt 0.991170 0.741194
vt 0.991170 0.633801
vt 0.991171 0.741194
vt 0.991170 0.633801
vt 0.991170 0.741194
vt 0.888556 0.741194
vt 0.888556 0.633801
vt 0.991170 0.741194
vt 0.888556 0.741194
vt 0.888556 0.633801
vt 0.991170 0.633801
vt 0.888556 0.741194
vt 0.991171 0.741194
vt 0.888556 0.633801
vt 0.991170 0.633801
vt 0.888556 0.741194
vt 0.991170 0.741194
vt 0.888556 0.741194
vt 0.888556 0.633801
vt 0.991170 0.741194
vt 0.991170 0.633801
vt 0.991171 0.741194
vt 0.991170 0.633801
vt 0.991170 0.741194
vt 0.888556 0.741194
vt 0.888556 0.633801
vt 0.991170 0.741194
vt 0.888556 0.741194
vt 0.888556 0.633801
vt 0.991170 0.633801
vt 0.888556 0.741194
vt 0.991171 0.741194
vt 0.888556 0.633801
vt 0.991170 0.633801
vt 0.888556 0.741194
vt 0.991170 0.741194
vt 0.888556 0.741194
vt 0.888556 0.633801
vt 0.991170 0.741194
vt 0.991170 0.633801
vt 0.991171 0.741194
vt 0.991170 0.633801
vt 0.991170 0.741194
vt 0.888556 0.741194
vt 0.888556 0.633801
vt 0.991170 0.741194
vt 0.888556 0.741194
vt 0.888556 0.633801
vt 0.991170 0.633801
vt 0.888556 0.741194
vt 0.991171 0.741194
vt 0.888556 0.633801
vt 0.991170 0.633801
vt 0.888556 0.741194
vt 0.991170 0.741194
vt 0.991170 0.741194
vt 0.888556 0.741194
vt 0.888556 0.633801
vt 0.991170 0.633801
vt 0.888556 0.741194
vt 0.991171 0.741194
vt 0.888556 0.633801
vt 0.991170 0.633801
vt 0.888556 0.741194
vt 0.991170 0.741194
vt 0.991170 0.741194
vt 0.888556 0.741194
vt 0.888556 0.633801
vt 0.991170 0.633801
vt 0.888556 0.741194
vt 0.991171 0.741194
vt 0.888556 0.633801
vt 0.991170 0.633801
vt 0.888556 0.741194
vt 0.991170 0.741194
vt 0.991170 0.741194
vt 0.991170 0.633801
vt 0.888556 0.633801
vt 0.888556 0.741194
vt 0.991171 0.741194
vt 0.888556 0.741194
vt 0.991170 0.633801
vt 0.888556 0.633801
vt 0.991170 0.741194
vt 0.888556 0.741194
vn 0.000000 0.000000 1.000000
vn 0.000000 0.000000 1.000000
vn 0.000000 0.000000 1.000000
vn 0.000000 0.000000 1.000000
vn 0.000000 0.000000 -1.000000
vn 0.000000 0.000000 -1.000000
vn 0.000000 0.000000 -1.000000
vn 0.000000 0.000000 -1.000000
vn 0.000000 -1.000000 0.000000
vn 0.000000 -1.000000 0.000000
vn 0.000000 -1.000000 0.000000
vn 0.000000 -1.000000 0.000000
vn 1.000000 0.000000 0.000000
vn 1.000000 0.000000 0.000000
vn 1.000000 0.000000 0.000000
vn 1.000000 0.000000 0.000000
vn -1.000000 0.000000 0.000000
vn -1.000000 0.000000 0.000000
vn -1.000000 0.000000 0.000000
vn -1.000000 0.000000 0.000000
vn 0.000000 1.000000 0.000000
vn 0.000000 1.000000 0.000000
vn 0.000000 1.000000 0.000000
vn 0.000000 1.000000 0.000000
vn 0.000000 -1.000000 0.000000
vn 0.000000 -1.000000 0.000000
vn 0.000000 -1.000000 0.000000
vn 0.000000 -1.000000 0.000000
vn 0.000000 1.000000 0.000000
vn 0.000000 1.000000 0.000000
vn 0.000000 1.000000 0.000000
vn 0.000000 1.000000 0.000000
vn 0.000000 0.000000 1.000000
vn 0.000000 0.000000 1.000000
vn 0.000000 0.000000 1.000000
vn 0.000000 0.000000 1.000000
vn 0.000000 0.000000 -1.000000
vn 0.000000 0.000000 -1.000000
vn 0.000000 0.000000 -1.000000
vn 0.000000 0.000000 -1.000000
vn 0.000000 0.000000 1.000000
vn 0.000000 0.000000 1.000000
vn 0.000000 0.000000 1.000000
vn 0.000000 0.000000 1.000000
vn 0.000000 0.000000 -1.000000
vn 0.000000 0.000000 -1.000000
vn 0.000000 0.000000 -1.000000
vn 0.000000 0.000000 -1.000000
vn 1.000000 0.000000 0.000000
vn 1.000000 0.000000 0.000000
vn 1.000000 0.000000 0.000000
vn 1.000000 0.000000 0.000000
vn 0.000000 1.000000 0.000000
vn 0.000000 1.000000 0.000000
vn 0.000000 1.000000 0.000000
vn 0.000000 1.000000 0.000000
vn -1.000000 0.000000 0.000000
vn -1.000000 0.000000 0.000000
vn -1.000000 0.000000 0.000000
vn -1.000000 0.000000 0.000000
vn 0.000000 -1.000000 0.000000
vn 0.000000 -1.000000 0.000000
vn 0.000000 -1.000000 0.000000
vn 0.000000 -1.000000 0.000000
vn -1.000000 0.000000 0.000000
vn -1.000000 0.000000 0.000000
vn -1.000000 0.000000 0.000000
vn -1.000000 0.000000 0.000000
vn 0.000000 1.000000 0.000000
vn 0.000000 1.000000 0.000000
vn 0.000000 1.000000 0.000000
vn 0.000000 1.000000 0.000000
vn 1.000000 0.000000 0.000000
vn 1.000000 0.000000 0.000000
vn 1.000000 0.000000 0.000000
vn 1.000000 0.000000 0.000000
vn 0.000000 -1.000000 0.000000
vn 0.000000 -1.000000 0.000000
vn 0.000000 -1.000000 0.000000
vn 0.000000 -1.000000 0.000000
vn 0.000000 0.000000 1.000000
vn 0.000000 0.000000 1.000000
vn 0.000000 0.000000 1.000000
vn 0.000000 0.000000 1.000000
vn 0.000000 1.000000 0.000000
vn 0.000000 1.000000 0.000000
vn 0.000000 1.000000 0.000000
vn 0.000000 1.000000 0.000000
vn 0.000000 0.000000 -1.000000
vn 0.000000 0.000000 -1.000000
vn 0.000000 0.000000 -1.000000
vn 0.000000 0.000000 -1.000000
vn 0.000000 -1.000000 0.000000
vn 0.000000 -1.000000 0.000000
vn 0.000000 -1.000000 0.000000
vn 0.000000 -1.000000 0.000000
vn 0.000000 0.000000 1.000000
vn 0.000000 0.000000 1.000000
vn 0.000000 0.000000 1.000000
vn 0.000000 0.000000 1.000000
vn 0.000000 1.000000 0.000000
vn 0.000000 1.000000 0.000000
vn 0.000000 1.000000 0.000000
vn 0.000000 1.000000 0.000000
vn 0.000000 0.000000 -1.000000
vn 0.000000 0.000000 -1.000000
vn 0.000000 0.000000 -1.000000
vn 0.000000 0.000000 -1.000000
vn 0.000000 -1.000000 0.000000
vn 0.000000 -1.000000 0.000000
vn 0.000000 -1.000000 0.000000
vn 0.000000 -1.000000 0.000000
vn 0.000000 0.000000 1.000000
vn 0.000000 0.000000 1.000000
vn 0.000000 0.000000 1.000000
vn 0.000000 0.000000 1.000000
vn -1.000000 0.000000 0.000000
vn -1.000000 0.000000 0.000000
vn -1.000000 0.000000 0.000000
vn -1.000000 0.000000 0.000000
vn 0.000000 0.000000 -1.000000
vn 0.000000 0.000000 -1.000000
vn 0.000000 0.000000 -1.000000
vn 0.000000 0.000000 -1.000000
vn 1.000000 0.000000 0.000000
vn 1.000000 0.000000 0.000000
vn 1.000000 0.000000 0.000000
vn 1.000000 0.000000 0.000000
vn 0.000000 1.000000 0.000000
vn 0.000000 1.000000 0.000000
vn 0.000000 1.000000 0.000000
vn 0.000000 1.000000 0.000000
vn 0.000000 0.000000 1.000000
vn 0.000000 0.000000 1.000000
vn 0.000000 0.000000 1.000000
vn 0.000000 0.000000 1.000000
vn -1.000000 0.000000 0.000000
vn -1.000000 0.000000 0.000000
vn -1.000000 0.000000 0.000000
vn -1.000000 0.000000 0.000000
vn 0.000000 0.000000 -1.000000
vn 0.000000 0.000000 -1.000000
vn 0.000000 0.000000 -1.000000
vn 0.000000 0.000000 -1.000000
vn 1.000000 0.000000 0.000000
vn 1.000000 0.000000 0.000000
vn 1.000000 0.000000 0.000000
vn 1.000000 0.000000 0.000000
vn 0.000000 -1.000000 0.000000
vn 0.000000 -1.000000 0.000000
vn 0.000000 -1.000000 0.000000
vn 0.000000 -1.000000 0.000000
vn 0.000000 0.000000 1.000000
vn 0.000000 0.000000 1.000000
vn 0.000000 0.000000 1.000000
vn 0.000000 0.000000 1.000000
vn -1.000000 0.000000 0.000000
vn -1.000000 0.000000 0.000000
vn -1.000000 0.000000 0.000000
vn -1.000000 0.000000 0.000000
vn 0.000000 0.000000 -1.000000
vn 0.000000 0.000000 -1.000000
vn 0.000000 0.000000 -1.000000
vn 0.000000 0.000000 -1.000000
vn 1.000000 0.000000 0.000000
vn 1.000000 0.000000 0.000000
vn 1.000000 0.000000 0.000000
vn 1.000000 0.000000 0.000000
vn 0.000000 1.000000 0.000000
vn 0.000000 1.000000 0.000000
vn 0.000000 1.000000 0.000000
vn 0.000000 1.000000 0.000000
vn 0.000000 0.000000 1.000000
vn 0.000000 0.000000 1.000000
vn 0.000000 0.000000 1.000000
vn 0.000000 0.000000 1.000000
vn -1.000000 0.000000 0.000000
vn -1.000000 0.000000 0.000000
vn -1.000000 0.000000 0.000000
vn -1.000000 0.000000 0.000000
vn 0.000000 0.000000 -1.000000
vn 0.000000 0.000000 -1.000000
vn 0.000000 0.000000 -1.000000
vn 0.000000 0.000000 -1.000000
vn 1.000000 0.000000 0.000000
vn 1.000000 0.000000 0.000000
vn 1.000000 0.000000 0.000000
vn 1.000000 0.000000 0.000000
vn 0.000000 -1.000000 0.000000
vn 0.000000 -1.000000 0.000000
vn 0.000000 -1.000000 0.000000
vn 0.000000 -1.000000 0.000000
vn 0.000000 0.000000 1.000000
vn 0.000000 0.000000 1.000000
vn 0.000000 0.000000 1.000000
vn 0.000000 0.000000 1.000000
vn 1.000000 0.000000 0.000000
vn 1.000000 0.000000 0.000000
vn 1.000000 0.000000 0.000000
vn 1.000000 0.000000 0.000000
vn 0.000000 0.000000 -1.000000
vn 0.000000 0.000000 -1.000000
vn 0.000000 0.000000 -1.000000
vn 0.000000 0.000000 -1.000000
vn -1.000000 0.000000 0.000000
vn -1.000000 0.000000 0.000000
vn -1.000000 0.000000 0.000000
vn -1.000000 0.000000 0.000000
vn 0.000000 1.000000 0.000000
vn 0.000000 1.000000 0.000000
vn 0.000000 1.000000 0.000000
vn 0.000000 1.000000 0.000000
vn 0.000000 0.000000 1.000000
vn 0.000000 0.000000 1.000000
vn 0.000000 0.000000 1.000000
vn 0.000000 0.000000 1.000000
vn 1.000000 0.000000 0.000000
vn 1.000000 0.000000 0.000000
vn 1.000000 0.000000 0.000000
vn 1.000000 0.000000 0.000000
vn 0.000000 0.000000 -1.000000
vn 0.000000 0.000000 -1.000000
vn 0.000000 0.000000 -1.000000
vn 0.000000 0.000000 -1.000000
vn -1.000000 0.000000 0.000000
vn -1.000000 0.000000 0.000000
vn -1.000000 0.000000 0.000000
vn -1.000000 0.000000 0.000000
vn 0.000000 -1.000000 0.000000
vn 0.000000 -1.000000 0.000000
vn 0.000000 -1.000000 0.000000
vn 0.000000 -1.000000 0.000000
vn 0.000000 0.000000 1.000000
vn 0.000000 0.000000 1.000000
vn 0.000000 0.000000 1.000000
vn 0.000000 0.000000 1.000000
vn 1.000000 0.000000 0.000000
vn 1.000000 0.000000 0.000000
vn 1.000000 0.000000 0.000000
vn 1.000000 0.000000 0.000000
vn 0.000000 0.000000 -1.000000
vn 0.000000 0.000000 -1.000000
vn 0.000000 0.000000 -1.000000
vn 0.000000 0.000000 -1.000000
vn -1.000000 0.000000 0.000000
vn -1.000000 0.000000 0.000000
vn -1.000000 0.000000 0.000000
vn -1.000000 0.000000 0.000000
vn 0.000000 1.000000 0.000000
vn 0.000000 1.000000 0.000000
vn 0.000000 1.000000 0.000000
vn 0.000000 1.000000 0.000000
vn 0.000000 0.000000 1.000000
vn 0.000000 0.000000 1.000000
vn 0.000000 0.000000 1.000000
vn 0.000000 0.000000 1.000000
vn 1.000000 0.000000 0.000000
vn 1.000000 0.000000 0.000000
vn 1.000000 0.000000 0.000000
vn 1.000000 0.000000 0.000000
vn 0.000000 0.000000 -1.000000
vn 0.000000 0.000000 -1.000000
vn 0.000000 0.000000 -1.000000
vn 0.000000 0.000000 -1.000000
vn -1.000000 0.000000 0.000000
vn -1.000000 0.000000 0.000000
vn -1.000000 0.000000 0.000000
vn -1.000000 0.000000 0.000000
vn 0.000000 -1.000000 0.000000
vn 0.000000 -1.000000 0.000000
vn 0.000000 -1.000000 0.000000
vn 0.000000 -1.000000 0.000000
vn 0.000000 0.000000 1.000000
vn 0.000000 0.000000 1.000000
vn 0.000000 0.000000 1.000000
vn 0.000000 0.000000 1.000000
vn 0.000000 1.000000 0.000000
vn 0.000000 1.000000 0.000000
vn 0.000000 1.000000 0.000000
vn 0.000000 1.000000 0.000000
vn 0.000000 0.000000 -1.000000
vn 0.000000 0.000000 -1.000000
vn 0.000000 0.000000 -1.000000
vn 0.000000 0.000000 -1.000000
vn 0.000000 -1.000000 0.000000
vn 0.000000 -1.000000 0.000000
vn 0.000000 -1.000000 0.000000
vn 0.000000 -1.000000 0.000000
vn 1.000000 0.000000 0.000000
vn 1.000000 0.000000 0.000000
vn 1.000000 0.000000 0.000000
vn 1.000000 0.000000 0.000000
vn 0.000000 1.000000 0.000000
vn 0.000000 1.000000 0.000000
vn 0.000000 1.000000 0.000000
vn 0.000000 1.000000 0.000000
vn -1.000000 0.000000 0.000000
vn -1.000000 0.000000 0.000000
vn -1.000000 0.000000 0.000000
vn -1.000000 0.000000 0.000000
vn 0.000000 -1.000000 0.000000
vn 0.000000 -1.000000 0.000000
vn 0.000000 -1.000000 0.000000
vn 0.000000 -1.000000 0.000000
vn 0.000000 0.000000 1.000000
vn 0.000000 0.000000 1.000000
vn 0.000000 0.000000 1.000000
vn 0.000000 0.000000 1.000000
vn 0.000000 1.000000 0.000000
vn 0.000000 1.000000 0.000000
vn 0.000000 1.000000 0.000000
vn 0.000000 1.000000 0.000000
vn 0.000000 0.000000 -1.000000
vn 0.000000 0.000000 -1.000000
vn 0.000000 0.000000 -1.000000
vn 0.000000 0.000000 -1.000000
vn 0.000000 -1.000000 0.000000
vn 0.000000 -1.000000 0.000000
vn 0.000000 -1.000000 0.000000
vn 0.000000 -1.000000 0.000000
vn -1.000000 0.000000 0.000000
vn -1.000000 0.000000 0.000000
vn -1.000000 0.000000 0.000000
vn -1.000000 0.000000 0.000000
vn 0.000000 1.000000 0.000000
vn 0.000000 1.000000 0.000000
vn 0.000000 1.000000 0.000000
vn 0.000000 1.000000 0.000000
vn 1.000000 0.000000 0.000000
vn 1.000000 0.000000 0.000000
vn 1.000000 0.000000 0.000000
vn 1.000000 0.000000 0.000000
vn 0.000000 -1.000000 0.000000
vn 0.000000 -1.000000 0.000000
vn 0.000000 -1.000000 0.000000
vn 0.000000 -1.000000 0.000000
f 1/1/1 2/2/2 4/4/3 3/3/4
f 5/5/5 6/6/6 8/8/7 7/7/8
f 7/7/9 8/8/10 2/10/11 1/9/12
f 2/2/13 8/11/14 6/12/15 4/4/16
f 7/13/17 1/1/18 3/3/19 5/14/20
f 11/15/21 12/16/22 14/17/23 13/18/24
f 15/19/25 16/20/26 10/21/27 9/22/28
f 17/23/29 18/24/30 20/25/31 19/26/32
f 21/27/33 23/28/34 24/29/35 22/30/36
f 25/31/37 27/32/38 28/33/39 26/34/40
f 29/35/41 22/30/42 24/29/43 30/36/44
f 31/37/45 26/34/46 28/33/47 32/38/48
f 33/39/49 34/40/50 36/41/51 35/42/52
f 35/42/53 36/41/54 38/43/55 37/44/56
f 37/44/57 38/43/58 40/45/59 39/46/60
f 39/46/61 40/45/62 34/47/63 33/48/64
f 41/49/65 43/50/66 44/51/67 42/52/68
f 43/50/69 45/53/70 46/54/71 44/51/72
f 45/53/73 47/55/74 48/56/75 46/54/76
f 47/55/77 41/57/78 42/58/79 48/56/80
f 49/59/81 50/60/82 52/61/83 51/62/84
f 51/62/85 52/61/86 54/63/87 53/64/88
f 53/64/89 54/63/90 56/65/91 55/66/92
f 55/66/93 56/65/94 50/67/95 49/68/96
f 57/69/97 58/70/98 60/71/99 59/72/100
f 59/72/101 60/71/102 62/73/103 61/74/104
f 61/74/105 62/73/106 64/75/107 63/76/108
f 63/76/109 64/75/110 58/77/111 57/78/112
f 65/79/113 67/80/114 68/81/115 66/82/116
f 67/80/117 69/83/118 70/84/119 68/81/120
f 69/83/121 71/85/122 72/86/123 70/84/124
f 71/85/125 65/87/126 66/88/127 72/86/128
f 71/89/129 69/90/130 67/80/131 65/79/132
f 73/91/133 66/82/134 68/81/135 74/92/136
f 74/92/137 68/81/138 70/84/139 75/93/140
f 75/93/141 70/84/142 72/86/143 76/94/144
f 76/94/145 72/86/146 66/88/147 73/95/148
f 76/96/149 73/91/150 74/92/151 75/97/152
f 77/98/153 79/99/154 80/100/155 78/101/156
f 79/99/157 81/102/158 82/103/159 80/100/160
f 81/102/161 83/104/162 84/105/163 82/103/164
f 83/104/165 77/106/166 78/107/167 84/105/168
f 83/108/169 81/109/170 79/99/171 77/98/172
f 85/110/173 78/101/174 80/100/175 86/111/176
f 86/111/177 80/100/178 82/103/179 87/112/180
f 87/112/181 82/103/182 84/105/183 88/113/184
f 88/113/185 84/105/186 78/107/187 85/114/188
f 88/115/189 85/110/190 86/111/191 87/116/192
f 89/117/193 90/118/194 92/119/195 91/120/196
f 91/120/197 92/119/198 94/121/199 93/122/200
f 93/122/201 94/121/202 96/123/203 95/124/204
f 95/124/205 96/123/206 90/125/207 89/126/208
f 95/127/209 89/117/210 91/120/211 93/128/212
f 97/129/213 98/130/214 92/119/215 90/118/216
f 98/130/217 99/131/218 94/121/219 92/119/220
f 99/131/221 100/132/222 96/123/223 94/121/224
f 100/132/225 97/133/226 90/125/227 96/123/228
f 100/134/229 99/135/230 98/130/231 97/129/232
f 101/136/233 102/137/234 104/138/235 103/139/236
f 103/139/237 104/138/238 106/140/239 105/141/240
f 105/141/241 106/140/242 108/142/243 107/143/244
f 107/143/245 108/142/246 102/144/247 101/145/248
f 107/146/249 101/136/250 103/139/251 105/147/252
f 109/148/253 110/149/254 104/138/255 102/137/256
f 110/149/257 111/150/258 106/140/259 104/138/260
f 111/150/261 112/151/262 108/142/263 106/140/264
f 112/151/265 109/152/266 102/144/267 108/142/268
f 112/153/269 111/154/270 110/149/271 109/148/272
f 113/155/273 114/156/274 116/157/275 115/158/276
f 115/158/277 116/157/278 118/159/279 117/160/280
f 117/160/281 118/159/282 120/161/283 119/162/284
f 119/162/285 120/161/286 114/163/287 113/164/288
f 121/165/289 122/166/290 124/167/291 123/168/292
f 123/168/293 124/167/294 126/169/295 125/170/296
f 125/170/297 126/169/298 128/171/299 127/172/300
f 127/172/301 128/171/302 122/173/303 121/174/304
f 129/175/305 130/176/306 132/177/307 131/178/308
f 131/178/309 132/177/310 134/179/311 133/180/312
f 133/180/313 134/179/314 136/181/315 135/182/316
f 135/182/317 136/181/318 130/183/319 129/184/320
f 137/185/321 139/186/322 140/187/323 138/188/324
f 139/186/325 141/189/326 142/190/327 140/187/328
f 141/189/329 143/191/330 144/192/331 142/190/332
f 143/191/333 137/193/334 138/194/335 144/192/336
