# This file uses meters as units for non-parametric coordinates.

v 3.081924 3.081923 0.000000
v 0.000000 4.358497 0.000015
v -3.081924 3.081923 0.000000
v -4.358498 -0.000000 0.000004
v -3.081924 -3.081923 0.000000
v 0.000000 -4.358498 0.000015
v 3.081924 -3.081923 0.000000
v 4.358498 -0.000000 0.000004
v 2.127026 2.127022 7.318413
v 0.000000 3.008064 7.318413
v -2.127026 2.127022 7.318413
v -3.008064 0.000000 7.318413
v -2.127026 -2.127022 7.318413
v 0.000000 -3.008064 7.318413
v 2.127026 -2.127022 7.318413
v 3.008068 0.000000 7.318413
v 0.000000 0.000000 7.830680
v -3.081924 -3.081923 3.138950
v -4.358498 0.000000 3.138951
v -3.081924 3.081923 3.138950
v 0.000000 4.358498 3.138954
v 3.081924 3.081923 3.138950
v 4.358498 0.000000 3.138951
v 3.081924 -3.081923 3.138950
v 0.000000 -4.358498 3.138954
v -2.127026 -2.127026 4.245975
v -3.008064 0.000000 4.245976
v -2.127026 2.127026 4.245975
v 0.000000 3.008064 4.245975
v 2.127026 2.127026 4.245975
v 3.008068 0.000000 4.245976
v 2.127026 -2.127026 4.245975
v 0.000000 -3.008068 4.245975
v -3.008064 0.000000 5.331204
v -2.127026 2.127026 5.331203
v 0.000000 3.008064 5.331203
v 2.127026 2.127026 5.331203
v 3.008068 0.000000 5.331204
v 2.127026 -2.127026 5.331203
v 0.000000 -3.008068 5.331203
v -2.127026 -2.127026 5.331203
v -4.641792 0.000000 5.597806
v -3.282246 3.282246 5.597805
v 0.000000 4.641792 5.597809
v 3.282246 3.282246 5.597805
v 4.641792 0.000000 5.597806
v 3.282246 -3.282246 5.597805
v 0.000000 -4.641792 5.597809
v -3.282246 -3.282246 5.597805
vt 0.521565 0.078298
vt 0.540363 0.078298
vt 0.559160 0.078298
vt 0.577958 0.078298
vt 0.596756 0.078298
vt 0.577934 0.078298
vt 0.559113 0.078298
vt 0.540292 0.078298
vt 0.521471 0.078298
vt 0.521565 0.072929
vt 0.540363 0.072929
vt 0.559160 0.072929
vt 0.577958 0.072929
vt 0.596756 0.072929
vt 0.577934 0.072929
vt 0.559113 0.072929
vt 0.540292 0.072929
vt 0.521471 0.072929
vt 0.580083 0.080187
vt 0.555102 0.075120
vt 0.530121 0.080187
vt 0.519773 0.092420
vt 0.530121 0.104652
vt 0.555102 0.109719
vt 0.580083 0.104652
vt 0.590430 0.092420
vt 0.555102 0.091728
vt 0.596756 0.097024
vt 0.577958 0.097024
vt 0.559160 0.097024
vt 0.540363 0.097024
vt 0.521471 0.097024
vt 0.521565 0.097024
vt 0.540292 0.097024
vt 0.559113 0.097024
vt 0.577934 0.097024
vt 0.596756 0.114111
vt 0.577958 0.114111
vt 0.559160 0.114111
vt 0.540363 0.114111
vt 0.521471 0.114111
vt 0.521565 0.114111
vt 0.540292 0.114111
vt 0.559113 0.114111
vt 0.577934 0.114111
vt 0.577958 0.096849
vt 0.559160 0.096849
vt 0.540363 0.096849
vt 0.521471 0.096849
vt 0.521565 0.096849
vt 0.540292 0.096849
vt 0.559113 0.096849
vt 0.577934 0.096849
vt 0.596756 0.096849
vt 0.577958 0.086606
vt 0.559160 0.086606
vt 0.540363 0.086606
vt 0.521471 0.086606
vt 0.521565 0.086606
vt 0.540292 0.086606
vt 0.559113 0.086606
vt 0.577934 0.086606
vt 0.596756 0.086606
vn 0.707107 0.707106 -0.000000
vn -0.000000 1.000000 -0.000000
vn -0.000000 0.973063 0.230540
vn 0.688060 0.688059 0.230540
vn -0.707107 0.707106 -0.000000
vn -0.688060 0.688059 0.230540
vn -1.000000 0.000000 0.000000
vn -0.973063 -0.000000 0.230540
vn -0.707107 -0.707106 0.000000
vn -0.688060 -0.688059 0.230540
vn -0.000000 -1.000000 0.000000
vn 0.000000 -0.973063 0.230540
vn 0.707107 -0.707106 0.000000
vn 0.688060 -0.688059 0.230540
vn 1.000000 0.000000 0.000000
vn 0.973063 0.000000 0.230540
vn 0.432217 0.432217 0.791440
vn 0.000000 0.611247 0.791440
vn 0.000000 -0.000000 1.000000
vn -0.432217 0.432217 0.791440
vn -0.611247 0.000000 0.791440
vn -0.432217 -0.432217 0.791440
vn 0.000000 -0.611247 0.791440
vn 0.432217 -0.432217 0.791440
vn 0.611248 0.000000 0.791440
vn -0.448283 -0.448282 0.773360
vn -0.633967 -0.000000 0.773360
vn -0.448282 0.448282 0.773360
vn 0.000000 0.633966 0.773361
vn 0.448282 0.448282 0.773360
vn 0.633967 0.000000 0.773360
vn 0.448283 -0.448282 0.773360
vn 0.000000 -0.633967 0.773360
vn -1.000000 0.000000 0.000000
vn -0.707107 -0.707106 0.000000
vn -0.707107 -0.707106 0.000000
vn -1.000000 0.000000 0.000000
vn -0.707107 0.707107 0.000000
vn -0.707107 0.707107 0.000000
vn 0.000000 1.000000 0.000000
vn 0.000000 1.000000 0.000000
vn 0.707106 0.707107 0.000000
vn 0.707106 0.707107 0.000000
vn 1.000000 0.000000 0.000000
vn 1.000000 0.000000 0.000000
vn 0.707107 -0.707107 0.000000
vn 0.707107 -0.707107 0.000000
vn 0.000000 -1.000000 0.000000
vn 0.000000 -1.000000 0.000000
vn -0.113884 0.113884 -0.986945
vn -0.161056 0.000000 -0.986945
vn -0.161056 0.000000 -0.986945
vn -0.113884 0.113884 -0.986945
vn -0.000000 0.161057 -0.986945
vn -0.000000 0.161057 -0.986945
vn 0.113884 0.113884 -0.986945
vn 0.113884 0.113884 -0.986945
vn 0.161056 0.000000 -0.986945
vn 0.161056 0.000000 -0.986945
vn 0.113884 -0.113884 -0.986945
vn 0.113884 -0.113884 -0.986945
vn 0.000000 -0.161057 -0.986945
vn -0.000000 -0.161057 -0.986945
vn -0.113884 -0.113884 -0.986945
vn -0.113884 -0.113884 -0.986945
vn -0.512778 0.512778 0.688562
vn -0.725178 0.000000 0.688562
vn -0.000000 0.725177 0.688562
vn 0.512778 0.512778 0.688562
vn 0.725178 0.000000 0.688561
vn 0.512778 -0.512778 0.688562
vn -0.000000 -0.725177 0.688562
vn -0.512778 -0.512778 0.688562
vn 0.000007 -0.000004 -1.000000
vn -0.000002 0.000005 -1.000000
vn 0.000000 0.000000 -1.000000
vn -0.000001 0.000000 -1.000000
vn 0.000000 0.000000 -1.000000
vn -0.000001 -0.000000 -1.000000
vn -0.000002 -0.000005 -1.000000
vn 0.000007 0.000004 -1.000000
f 1/1/1 2/2/2 21/31/3 22/33/4
f 2/2/2 3/3/5 20/30/6 21/31/3
f 3/3/5 4/4/7 19/29/8 20/30/6
f 4/4/7 5/5/9 18/28/10 19/29/8
f 5/5/9 6/6/11 25/36/12 18/28/10
f 6/6/11 7/7/13 24/35/14 25/36/12
f 7/7/13 8/8/15 23/34/16 24/35/14
f 8/8/15 1/9/1 22/32/4 23/34/16
f 9/25/17 10/24/18 17/27/19
f 10/24/18 11/23/20 17/27/19
f 11/23/20 12/22/21 17/27/19
f 12/22/21 13/21/22 17/27/19
f 13/21/22 14/20/23 17/27/19
f 14/20/23 15/19/24 17/27/19
f 15/19/24 16/26/25 17/27/19
f 16/26/25 9/25/17 17/27/19
f 19/29/8 18/28/10 26/37/26 27/38/27
f 20/30/6 19/29/8 27/38/27 28/39/28
f 21/31/3 20/30/6 28/39/28 29/40/29
f 22/33/4 21/31/3 29/40/29 30/42/30
f 23/34/16 22/32/4 30/41/30 31/43/31
f 24/35/14 23/34/16 31/43/31 32/44/32
f 25/36/12 24/35/14 32/44/32 33/45/33
f 18/28/10 25/36/12 33/45/33 26/37/26
f 27/38/34 26/37/35 41/54/36 34/46/37
f 28/39/38 27/38/34 34/46/37 35/47/39
f 29/40/40 28/39/38 35/47/39 36/48/41
f 30/42/42 29/40/40 36/48/41 37/50/43
f 31/43/44 30/41/42 37/49/43 38/51/45
f 32/44/46 31/43/44 38/51/45 39/52/47
f 33/45/48 32/44/46 39/52/47 40/53/49
f 26/37/35 33/45/48 40/53/49 41/54/36
f 35/47/50 34/46/51 42/55/52 43/56/53
f 36/48/54 35/47/50 43/56/53 44/57/55
f 37/50/56 36/48/54 44/57/55 45/59/57
f 38/51/58 37/49/56 45/58/57 46/60/59
f 39/52/60 38/51/58 46/60/59 47/61/61
f 40/53/62 39/52/60 47/61/61 48/62/63
f 41/54/64 40/53/62 48/62/63 49/63/65
f 34/46/51 41/54/64 49/63/65 42/55/52
f 43/56/66 42/55/67 12/13/21 11/12/20
f 44/57/68 43/56/66 11/12/20 10/11/18
f 45/59/69 44/57/68 10/11/18 9/10/17
f 46/60/70 45/58/69 9/18/17 16/17/25
f 47/61/71 46/60/70 16/17/25 15/16/24
f 48/62/72 47/61/71 15/16/24 14/15/23
f 49/63/73 48/62/72 14/15/23 13/14/22
f 42/55/67 49/63/73 13/14/22 12/13/21
f 3/3/74 2/2/75 4/4/76
f 2/2/75 1/9/77 4/4/76
f 1/9/77 8/8/78 4/4/76
f 8/8/78 7/7/79 4/4/76
f 7/7/79 6/6/80 4/4/76
f 6/6/80 5/5/81 4/4/76
