# This file uses meters as units for non-parametric coordinates.

v 10.569590 -39.220056 2.346391
v 61.169281 -39.220056 2.346391
v 10.569590 90.670462 2.346391
v 61.169281 90.670462 2.346391
v 10.569590 90.670462 1.095278
v 61.169281 90.670462 1.095278
v 10.569590 -39.220056 1.095278
v 61.169281 -39.220056 1.095278
vt 0.586501 0.911288
vt 0.586501 0.929468
vt 0.568321 0.911288
vt 0.568321 0.929468
vt 0.586501 0.911288
vt 0.586501 0.929468
vt 0.568321 0.911288
vt 0.568321 0.929468
vn 0.000000 0.000000 1.000000
vn 0.000000 0.000000 1.000000
vn 0.000000 0.000000 1.000000
vn 0.000000 0.000000 1.000000
vn 0.000000 0.000000 -1.000000
vn 0.000000 0.000000 -1.000000
vn 0.000000 0.000000 -1.000000
vn 0.000000 0.000000 -1.000000
f 1/1/1 2/2/2 4/4/3 3/3/4
f 5/5/5 6/6/6 8/8/7 7/7/8
