# This file uses meters as units for non-parametric coordinates.

v 102.410439 -73.638336 -3.394867
v 91.263855 -60.661636 -3.394867
v 5.532394 -60.661636 -3.394867
v -5.614182 -73.638336 -3.394867
v 5.532394 -0.000008 -3.394867
v -5.614182 -0.000008 -3.394867
v -5.614182 71.071289 -3.394867
v 5.532394 58.094574 -3.394867
v 91.263855 58.094574 -3.394867
v 102.410439 71.071289 -3.394867
v 102.410439 -0.000008 -3.394867
v 91.263855 -0.000008 -3.394867
v 101.222359 -72.450249 0.000000
v 102.410439 -73.638336 -1.188087
v -4.426094 -72.450249 0.000000
v -5.614182 -73.638336 -1.188087
v 4.344303 -61.849716 0.000000
v 5.532394 -60.661636 -1.188087
v 92.451942 -61.849716 0.000000
v 91.263855 -60.661636 -1.188087
v -4.426094 -0.000008 0.000000
v -5.614182 -0.000008 -1.188087
v 5.532394 -0.000008 -1.188087
v 4.344303 -0.000008 0.000000
v -5.614182 71.071289 -1.188087
v -4.426094 69.883209 0.000000
v 101.222359 69.883209 0.000000
v 102.410439 71.071289 -1.188087
v 91.263855 58.094574 -1.188087
v 92.451942 59.282654 0.000000
v 4.344303 59.282654 0.000000
v 5.532394 58.094574 -1.188087
v 102.410439 -0.000008 -1.188087
v 101.222359 -0.000008 0.000000
v 92.451942 -0.000008 0.000000
v 91.263855 -0.000008 -1.188087
vt 0.349477 0.930287
vt 0.365297 0.919173
vt 0.365054 0.930060
vt 0.351893 0.919173
vt 0.367713 0.930095
vt 0.351893 0.918998
vt 0.367713 0.930287
vt 0.352160 0.919018
vt 0.349157 0.927880
vt 0.368033 0.930270
vt 0.365027 0.920963
vt 0.352163 0.918839
vt 0.365057 0.927880
vt 0.349157 0.930270
vt 0.352163 0.920963
vt 0.365027 0.918666
vt 0.368033 0.927686
vt 0.349157 0.930075
vt 0.352163 0.920790
vt 0.365027 0.918666
vt 0.368033 0.927880
vt 0.352133 0.930270
vt 0.352163 0.920790
vt 0.365027 0.918839
vt 0.352137 0.930060
vt 0.365297 0.918998
vt 0.352133 0.927880
vt 0.368033 0.930075
vt 0.352163 0.918666
vt 0.365027 0.920790
vt 0.365027 0.920790
vt 0.352163 0.918666
vt 0.365057 0.930270
vt 0.349157 0.927686
vt 0.365030 0.919018
vt 0.349477 0.930095
vn 0.000000 0.000000 -1.000000
vn 0.000000 0.000000 -1.000000
vn 0.000000 0.000000 -1.000000
vn 0.000000 0.000000 -1.000000
vn 0.000000 0.000000 -1.000000
vn 0.000000 0.000000 -1.000000
vn 0.000000 0.000000 -1.000000
vn 0.000000 0.000000 -1.000000
vn 0.000000 0.000000 -1.000000
vn 0.000000 0.000000 -1.000000
vn 0.000000 0.000000 -1.000000
vn 0.000000 0.000000 -1.000000
vn -0.000000 0.000000 -1.000000
vn 0.000000 0.000000 -1.000000
vn 0.000000 0.000000 -1.000000
vn -0.000000 0.000000 -1.000000
vn -0.000000 0.000000 -1.000000
vn -0.000000 0.000000 -1.000000
vn 0.000000 0.000000 -1.000000
vn 0.000000 0.000000 -1.000000
vn 0.000000 -0.707107 0.707106
vn 0.000000 -0.707107 0.707106
vn 0.000000 -0.707107 0.707106
vn 0.000000 -0.707107 0.707106
vn 0.707109 0.000000 0.707105
vn 0.707109 0.000000 0.707105
vn 0.707109 0.000000 0.707105
vn 0.707109 0.000000 0.707105
vn -0.707107 0.000000 0.707107
vn -0.707107 0.000000 0.707107
vn -0.707107 0.000000 0.707107
vn -0.707107 0.000000 0.707107
vn 0.000000 0.707110 0.707104
vn 0.000000 0.707110 0.707104
vn 0.000000 0.707110 0.707104
vn 0.000000 0.707110 0.707104
vn 0.707106 0.000000 0.707108
vn 0.707106 0.000000 0.707108
vn 0.707106 0.000000 0.707108
vn 0.707106 0.000000 0.707108
vn -0.707107 0.000000 0.707107
vn -0.707107 0.000000 0.707107
vn -0.707107 0.000000 0.707107
vn -0.707107 0.000000 0.707107
vn -0.707107 0.000000 0.707107
vn -0.707107 0.000000 0.707107
vn 0.707106 0.000000 0.707108
vn 0.707106 0.000000 0.707108
vn 0.000000 0.707107 0.707106
vn 0.000000 0.707107 0.707106
vn 0.000000 0.707107 0.707106
vn 0.000000 0.707107 0.707106
vn 0.707109 0.000000 0.707105
vn 0.707109 0.000000 0.707105
vn -0.707107 0.000000 0.707107
vn -0.707107 0.000000 0.707107
vn 0.000000 -0.707111 0.707103
vn 0.000000 -0.707111 0.707103
vn 0.000000 -0.707111 0.707103
vn 0.000000 -0.707111 0.707103
vn 0.000000 0.000000 1.000000
vn 0.000000 0.000000 1.000000
vn 0.000000 0.000000 1.000000
vn 0.000000 0.000000 1.000000
vn 0.000000 0.000000 1.000000
vn 0.000000 0.000000 1.000000
vn 0.000000 0.000000 1.000000
vn 0.000000 0.000000 1.000000
vn 0.000000 0.000000 1.000000
vn 0.000000 0.000000 1.000000
vn 0.000000 0.000000 1.000000
vn 0.000000 0.000000 1.000000
vn 0.000000 -1.000000 0.000000
vn 0.000000 -1.000000 0.000000
vn 0.000000 -1.000000 0.000000
vn 0.000000 -1.000000 0.000000
vn 0.000000 1.000000 0.000000
vn 0.000000 1.000000 0.000000
vn 0.000000 1.000000 0.000000
vn 0.000000 1.000000 0.000000
vn -1.000000 0.000000 0.000000
vn -1.000000 0.000000 0.000000
vn -1.000000 0.000000 0.000000
vn -1.000000 0.000000 0.000000
vn 1.000000 0.000000 0.000000
vn 1.000000 0.000000 0.000000
vn 1.000000 0.000000 0.000000
vn 1.000000 0.000000 0.000000
vn 0.000000 1.000000 0.000000
vn 0.000000 1.000000 0.000000
vn 0.000000 1.000000 0.000000
vn 0.000000 1.000000 0.000000
vn 0.000000 -1.000000 0.000000
vn 0.000000 -1.000000 0.000000
vn 0.000000 -1.000000 0.000000
vn 0.000000 -1.000000 0.000000
vn 1.000000 0.000000 0.000000
vn 1.000000 0.000000 0.000000
vn 1.000000 0.000000 0.000000
vn 1.000000 0.000000 0.000000
vn -1.000000 0.000000 0.000000
vn -1.000000 0.000000 0.000000
vn -1.000000 0.000000 0.000000
vn -1.000000 0.000000 0.000000
vn 1.000000 0.000000 0.000000
vn 1.000000 0.000000 0.000000
vn -1.000000 0.000000 0.000000
vn -1.000000 0.000000 0.000000
vn 1.000000 0.000000 0.000000
vn 1.000000 0.000000 0.000000
vn -1.000000 0.000000 0.000000
vn -1.000000 0.000000 0.000000
f 1/21/1 4/9/2 3/15/3 2/11/4
f 4/9/5 6/13/6 5/31/7 3/15/8
f 7/34/9 10/17/10 9/30/11 8/19/12
f 11/27/13 1/21/14 2/11/15 12/23/16
f 10/17/17 11/27/13 12/23/16 9/30/18
f 6/13/6 7/34/19 8/19/20 5/31/7
f 13/7/21 15/1/22 16/14/23 14/10/24
f 14/10/25 33/22/26 34/25/27 13/7/28
f 15/1/29 21/3/30 22/33/31 16/14/32
f 17/4/33 19/2/34 20/24/35 18/12/36
f 18/12/37 23/16/38 24/35/39 17/4/40
f 19/2/41 35/8/42 36/29/43 20/24/44
f 21/3/30 26/36/45 25/18/46 22/33/31
f 23/16/38 32/32/47 31/6/48 24/35/39
f 26/36/49 27/5/50 28/28/51 25/18/52
f 27/5/53 34/25/27 33/22/26 28/28/54
f 29/20/55 36/29/43 35/8/42 30/26/56
f 30/26/57 31/6/58 32/32/59 29/20/60
f 13/7/61 19/2/62 17/4/63 15/1/64
f 15/1/64 17/4/63 24/35/65 21/3/66
f 26/36/67 31/6/68 30/26/69 27/5/70
f 34/25/71 35/8/72 19/2/62 13/7/61
f 1/21/73 14/10/74 16/14/75 4/9/76
f 3/15/77 18/12/78 20/24/79 2/11/80
f 4/9/81 16/14/82 22/33/83 6/13/84
f 5/31/85 23/16/86 18/12/87 3/15/88
f 7/34/89 25/18/90 28/28/91 10/17/92
f 9/30/93 29/20/94 32/32/95 8/19/96
f 11/27/97 33/22/98 14/10/99 1/21/100
f 2/11/101 20/24/102 36/29/103 12/23/104
f 27/5/70 30/26/69 35/8/72 34/25/71
f 10/17/105 28/28/106 33/22/98 11/27/97
f 36/29/103 29/20/107 9/30/108 12/23/104
f 8/19/109 32/32/110 23/16/86 5/31/85
f 22/33/83 25/18/111 7/34/112 6/13/84
f 24/35/65 31/6/68 26/36/67 21/3/66
