# This file uses meters as units for non-parametric coordinates.

v 68.644722 81.971223 0.864433
v 5.432667 81.971223 0.864433
v 5.432667 -81.971221 0.864433
v 68.644707 -81.971221 0.864433
v 68.644722 81.971223 -0.683136
v 5.432667 81.971223 -0.683136
v 5.432667 -81.971221 -0.683136
v 68.644707 -81.971221 -0.683136
vt 0.522516 0.975910
vt 0.522516 0.992170
vt 0.506256 0.992170
vt 0.506256 0.975910
vt 0.522516 0.975910
vt 0.506256 0.975910
vt 0.506256 0.992170
vt 0.522516 0.992170
vn 0.000000 0.000000 1.000000
vn 0.000000 0.000000 1.000000
vn 0.000000 0.000000 1.000000
vn 0.000000 0.000000 1.000000
vn 0.000000 0.000000 -1.000000
vn 0.000000 0.000000 -1.000000
vn 0.000000 0.000000 -1.000000
vn 0.000000 0.000000 -1.000000
f 1/1/1 2/2/2 3/3/3 4/4/4
f 5/5/5 8/6/6 7/7/7 6/8/8
