# This file uses meters as units for non-parametric coordinates.

v -102.167435 0.000000 56.630779
v -56.833664 0.000000 56.630779
v -102.167435 4.109283 56.630779
v -56.833664 4.109283 56.630779
v -102.167435 4.109283 0.000000
v -56.833664 4.109283 0.000000
v -102.167435 0.000000 0.000000
v -56.833664 0.000000 0.000000
v 102.167435 0.000000 56.630779
v 56.833664 0.000000 56.630779
v 102.167435 4.109283 56.630779
v 56.833664 4.109283 56.630779
v 102.167435 4.109283 0.000000
v 56.833664 4.109283 0.000000
v 102.167435 0.000000 0.000000
v 56.833664 0.000000 0.000000
v -91.020866 17.085976 6.246525
v 91.020866 17.085976 6.246525
v 91.020866 245.476288 6.246525
v -91.020866 245.476288 6.246525
v 0.000000 17.085976 6.246525
v 0.000000 245.476288 6.246525
v -102.167435 4.109282 56.630779
v 102.167435 4.109282 56.630779
v -102.167435 258.452972 56.630779
v 102.167435 258.452972 56.630779
v -102.167435 258.452972 0.000000
v 102.167435 258.452972 0.000000
v -102.167435 4.109282 0.000000
v 102.167435 4.109282 0.000000
v -91.020866 17.085976 56.630779
v 91.020866 17.085976 56.630779
v 91.020866 245.476288 56.630779
v -91.020866 245.476288 56.630779
v -91.020866 17.085976 6.246525
v 91.020866 17.085976 6.246525
v 91.020866 245.476288 6.246525
v -91.020866 245.476288 6.246525
v -91.020866 65.588165 50.711960
v 91.020866 65.588165 50.711960
v -91.020866 68.359077 50.711960
v 91.020866 68.359077 50.711960
v -91.020866 68.359077 6.246525
v 91.020866 68.359077 6.246525
v -91.020866 65.588165 6.246525
v 91.020866 65.588165 6.246525
v -91.020866 127.283806 50.711960
v 91.020866 127.283806 50.711960
v -91.020866 130.054718 50.711960
v 91.020866 130.054718 50.711960
v -91.020866 130.054718 6.246525
v 91.020866 130.054718 6.246525
v -91.020866 127.283806 6.246525
v 91.020866 127.283806 6.246525
v -91.020866 186.639130 50.711960
v 91.020866 186.639130 50.711960
v -91.020866 189.410034 50.711960
v 91.020866 189.410034 50.711960
v -91.020866 189.410034 6.246525
v 91.020866 189.410034 6.246525
v -91.020866 186.639130 6.246525
v 91.020866 186.639130 6.246525
vt 0.416947 0.992313
vt 0.428515 0.992313
vt 0.417057 0.991052
vt 0.428405 0.991052
vt 0.416844 0.981023
vt 0.428618 0.981023
vt 0.416881 0.979459
vt 0.428581 0.979459
vt 0.428405 0.991052
vt 0.428515 0.992313
vt 0.416947 0.992313
vt 0.417057 0.991052
vt 0.416947 0.992313
vt 0.417057 0.991052
vt 0.428405 0.991052
vt 0.428515 0.992313
vt 0.416844 0.981023
vt 0.416881 0.979459
vt 0.428581 0.979459
vt 0.428618 0.981023
vt 0.417057 0.991052
vt 0.416947 0.992313
vt 0.428515 0.992313
vt 0.428405 0.991052
vt 0.429249 0.978367
vt 0.429142 0.992642
vt 0.415045 0.992642
vt 0.415152 0.978367
vt 0.429035 0.978618
vt 0.414938 0.978618
vt 0.429581 0.992412
vt 0.416254 0.992412
vt 0.416254 0.979084
vt 0.429582 0.979084
vt 0.414838 0.978136
vt 0.429352 0.978277
vt 0.429352 0.993318
vt 0.414838 0.993178
vt 0.415893 0.979084
vt 0.429483 0.979084
vt 0.429483 0.992412
vt 0.415893 0.992412
vt 0.415893 0.979084
vt 0.415893 0.992412
vt 0.417470 0.988163
vt 0.428366 0.988163
vt 0.417470 0.988163
vt 0.417470 0.988163
vt 0.428366 0.988163
vt 0.417470 0.988163
vt 0.428366 0.988163
vt 0.428366 0.988163
vt 0.415578 0.989493
vt 0.429260 0.989493
vt 0.429260 0.982048
vt 0.415578 0.982048
vt 0.416215 0.989493
vt 0.416215 0.982048
vt 0.429543 0.989493
vt 0.429543 0.982048
vt 0.415578 0.989493
vt 0.415578 0.982048
vt 0.429238 0.989225
vt 0.415421 0.989225
vt 0.415421 0.992802
vt 0.429238 0.992802
vt 0.415421 0.979204
vt 0.429238 0.979204
vt 0.429238 0.978758
vt 0.415421 0.978758
vt 0.429238 0.989225
vt 0.415421 0.989225
vt 0.415421 0.992802
vt 0.429238 0.992802
vt 0.415421 0.979204
vt 0.429238 0.979204
vt 0.429238 0.978758
vt 0.415421 0.978758
vt 0.429238 0.989225
vt 0.415421 0.989225
vt 0.415421 0.992802
vt 0.429238 0.992802
vt 0.415421 0.979204
vt 0.429238 0.979204
vt 0.429238 0.978758
vt 0.415421 0.978758
vn 0.000000 0.000000 1.000000
vn 0.000000 0.000000 1.000000
vn 0.000000 0.000000 1.000000
vn 0.000000 0.000000 1.000000
vn 0.000000 0.000000 -1.000000
vn 0.000000 0.000000 -1.000000
vn 0.000000 0.000000 -1.000000
vn 0.000000 0.000000 -1.000000
vn 0.000000 -1.000000 0.000000
vn 0.000000 -1.000000 0.000000
vn 0.000000 -1.000000 0.000000
vn 0.000000 -1.000000 0.000000
vn 1.000000 0.000000 0.000000
vn 1.000000 0.000000 0.000000
vn 1.000000 0.000000 0.000000
vn 1.000000 0.000000 0.000000
vn -1.000000 0.000000 0.000000
vn -1.000000 0.000000 0.000000
vn -1.000000 0.000000 0.000000
vn -1.000000 0.000000 0.000000
vn 0.000000 0.000000 1.000000
vn 0.000000 0.000000 1.000000
vn 0.000000 0.000000 1.000000
vn 0.000000 0.000000 1.000000
vn 0.000000 0.000000 -1.000000
vn 0.000000 0.000000 -1.000000
vn 0.000000 0.000000 -1.000000
vn 0.000000 0.000000 -1.000000
vn 0.000000 -1.000000 0.000000
vn 0.000000 -1.000000 0.000000
vn 0.000000 -1.000000 0.000000
vn 0.000000 -1.000000 0.000000
vn -1.000000 0.000000 0.000000
vn -1.000000 0.000000 0.000000
vn -1.000000 0.000000 0.000000
vn -1.000000 0.000000 0.000000
vn 1.000000 0.000000 0.000000
vn 1.000000 0.000000 0.000000
vn 1.000000 0.000000 0.000000
vn 1.000000 0.000000 0.000000
vn 0.000000 0.000000 1.000000
vn 0.000000 0.000000 1.000000
vn 0.000000 0.000000 1.000000
vn 0.000000 0.000000 1.000000
vn 0.000000 0.000000 1.000000
vn 0.000000 0.000000 1.000000
vn 0.000000 1.000000 0.000000
vn 0.000000 1.000000 0.000000
vn 0.000000 1.000000 0.000000
vn 0.000000 1.000000 0.000000
vn 0.000000 0.000000 -1.000000
vn 0.000000 0.000000 -1.000000
vn 0.000000 0.000000 -1.000000
vn 0.000000 0.000000 -1.000000
vn 0.000000 -1.000000 0.000000
vn 0.000000 -1.000000 0.000000
vn 0.000000 -1.000000 0.000000
vn 0.000000 -1.000000 0.000000
vn 1.000000 0.000000 0.000000
vn 1.000000 0.000000 0.000000
vn 1.000000 0.000000 0.000000
vn 1.000000 0.000000 0.000000
vn -1.000000 0.000000 0.000000
vn -1.000000 0.000000 0.000000
vn -1.000000 0.000000 0.000000
vn -1.000000 0.000000 0.000000
vn 0.000000 0.000000 1.000000
vn 0.000000 0.000000 1.000000
vn 0.000000 0.000000 1.000000
vn 0.000000 0.000000 1.000000
vn 0.000000 0.000000 1.000000
vn 0.000000 0.000000 1.000000
vn 0.000000 0.000000 1.000000
vn 0.000000 0.000000 1.000000
vn 0.000000 0.000000 1.000000
vn 0.000000 0.000000 1.000000
vn 0.000000 0.000000 1.000000
vn 0.000000 0.000000 1.000000
vn 0.000000 0.000000 1.000000
vn 0.000000 0.000000 1.000000
vn 0.000000 0.000000 1.000000
vn 0.000000 0.000000 1.000000
vn 0.000000 1.000000 0.000000
vn 0.000000 1.000000 0.000000
vn 0.000000 1.000000 0.000000
vn 0.000000 1.000000 0.000000
vn -1.000000 0.000000 0.000000
vn -1.000000 0.000000 0.000000
vn -1.000000 0.000000 0.000000
vn -1.000000 0.000000 0.000000
vn 0.000000 -1.000000 0.000000
vn 0.000000 -1.000000 0.000000
vn 0.000000 -1.000000 0.000000
vn 0.000000 -1.000000 0.000000
vn 1.000000 0.000000 0.000000
vn 1.000000 0.000000 0.000000
vn 1.000000 0.000000 0.000000
vn 1.000000 0.000000 0.000000
vn 0.000000 0.000000 1.000000
vn 0.000000 0.000000 1.000000
vn 0.000000 0.000000 1.000000
vn 0.000000 0.000000 1.000000
vn 0.000000 1.000000 0.000000
vn 0.000000 1.000000 0.000000
vn 0.000000 1.000000 0.000000
vn 0.000000 1.000000 0.000000
vn 0.000000 -1.000000 0.000000
vn 0.000000 -1.000000 0.000000
vn 0.000000 -1.000000 0.000000
vn 0.000000 -1.000000 0.000000
vn 0.000000 0.000000 1.000000
vn 0.000000 0.000000 1.000000
vn 0.000000 0.000000 1.000000
vn 0.000000 0.000000 1.000000
vn 0.000000 1.000000 0.000000
vn 0.000000 1.000000 0.000000
vn 0.000000 1.000000 0.000000
vn 0.000000 1.000000 0.000000
vn 0.000000 -1.000000 0.000000
vn 0.000000 -1.000000 0.000000
vn 0.000000 -1.000000 0.000000
vn 0.000000 -1.000000 0.000000
vn 0.000000 0.000000 1.000000
vn 0.000000 0.000000 1.000000
vn 0.000000 0.000000 1.000000
vn 0.000000 0.000000 1.000000
vn 0.000000 1.000000 0.000000
vn 0.000000 1.000000 0.000000
vn 0.000000 1.000000 0.000000
vn 0.000000 1.000000 0.000000
vn 0.000000 -1.000000 0.000000
vn 0.000000 -1.000000 0.000000
vn 0.000000 -1.000000 0.000000
vn 0.000000 -1.000000 0.000000
f 1/1/1 2/2/2 4/4/3 3/3/4
f 5/5/5 6/6/6 8/8/7 7/7/8
f 7/7/9 8/8/10 2/2/11 1/1/12
f 2/2/13 8/11/14 6/12/15 4/4/16
f 7/10/17 1/1/18 3/3/19 5/9/20
f 9/13/21 11/14/22 12/15/23 10/16/24
f 13/17/25 15/18/26 16/19/27 14/20/28
f 15/18/29 9/13/30 10/16/31 16/19/32
f 10/16/33 12/15/34 14/21/35 16/22/36
f 15/23/37 13/24/38 11/14/39 9/13/40
f 17/25/41 21/26/42 22/27/43 20/28/44
f 21/26/42 18/29/45 19/30/46 22/27/43
f 25/31/47 26/32/48 28/33/49 27/34/50
f 30/35/51 29/36/52 27/37/53 28/38/54
f 29/39/55 30/40/56 24/41/57 23/42/58
f 24/41/59 30/40/60 28/33/61 26/32/62
f 29/43/63 23/44/64 25/31/65 27/34/66
f 23/42/67 24/41/68 32/45/69 31/46/70
f 32/47/71 24/41/72 26/32/73 33/48/74
f 26/32/75 25/31/76 34/49/77 33/50/78
f 25/31/79 23/44/80 31/51/81 34/52/82
f 31/53/83 32/54/84 36/55/85 35/56/86
f 36/55/87 32/54/88 33/57/89 37/58/90
f 33/57/91 34/59/92 38/60/93 37/58/94
f 31/61/95 35/62/96 38/60/97 34/59/98
f 39/63/99 40/64/100 42/65/101 41/66/102
f 41/66/103 42/65/104 44/67/105 43/68/106
f 45/69/107 46/70/108 40/64/109 39/63/110
f 47/71/111 48/72/112 50/73/113 49/74/114
f 49/74/115 50/73/116 52/75/117 51/76/118
f 53/77/119 54/78/120 48/72/121 47/71/122
f 55/79/123 56/80/124 58/81/125 57/82/126
f 57/82/127 58/81/128 60/83/129 59/84/130
f 61/85/131 62/86/132 56/80/133 55/79/134
