# This file uses meters as units for non-parametric coordinates.

v -32.883087 101.079315 53.417133
v -32.883087 17.085976 53.417133
v -30.607239 17.085976 53.417133
v -30.607239 101.079315 53.417133
v -30.607239 17.085976 6.246525
v -30.607239 101.079315 6.246525
v -32.883087 101.079315 6.246525
v -32.883087 17.085976 6.246525
v 32.883080 101.079315 53.417133
v 32.883087 17.085976 53.417133
v 30.607239 17.085976 53.417133
v 30.607231 101.079315 53.417133
v 30.607239 17.085976 6.246525
v 30.607231 101.079315 6.246525
v 32.883080 101.079315 6.246525
v 32.883087 17.085976 6.246525
v -118.073387 0.000000 56.630779
v -72.739616 0.000000 56.630779
v -118.073387 4.109283 56.630779
v -72.739616 4.109283 56.630779
v -118.073387 4.109283 0.000000
v -72.739616 4.109283 0.000000
v -118.073387 0.000000 0.000000
v -72.739616 0.000000 0.000000
v 118.073387 0.000000 56.630779
v 72.739616 0.000000 56.630779
v 102.167435 4.109283 56.630779
v 72.739616 4.109283 56.630779
v 102.167435 4.109283 0.000000
v 72.739616 4.109283 0.000000
v 118.073387 0.000000 0.000000
v 72.739616 0.000000 0.000000
v -106.926826 17.085976 6.246525
v 106.926811 17.085976 6.246525
v 106.926811 149.387817 6.246525
v -106.926826 150.328018 6.246525
v 0.000000 17.085976 6.246525
v 0.000000 149.387817 6.246525
v -118.073387 4.109282 56.630779
v 118.073387 4.109282 56.630779
v -118.073387 162.364502 56.630779
v 118.073387 162.364502 56.630779
v -118.073387 162.364502 0.000000
v 118.073387 162.364502 0.000000
v -118.073387 4.109282 0.000000
v 118.073387 4.109282 0.000000
v -106.926826 17.085976 56.630779
v 106.926811 17.085976 56.630779
v 106.926811 149.387817 56.630779
v -106.926826 149.387817 56.630779
v -106.926826 17.085976 6.246525
v 106.926811 17.085976 6.246525
v 106.926811 149.387817 6.246525
v -106.926826 149.387817 6.246525
v -106.926826 101.079315 56.630779
v 106.926811 101.079315 56.630779
v -106.926826 113.999855 56.630779
v 106.926811 113.999855 56.630779
v -106.926826 113.999855 6.246525
v 106.926811 113.999855 6.246525
v -106.926826 101.079315 6.246525
v 106.926811 101.079315 6.246525
vt 0.719482 0.229837
vt 0.637750 0.229837
vt 0.637750 0.239563
vt 0.719482 0.239563
vt 0.637750 0.202591
vt 0.719482 0.202591
vt 0.719482 0.201376
vt 0.637750 0.201376
vt 0.719482 0.229837
vt 0.719482 0.239563
vt 0.637750 0.239563
vt 0.637750 0.229837
vt 0.719482 0.202591
vt 0.637750 0.202591
vt 0.719482 0.201376
vt 0.637750 0.201376
vt 0.646781 0.238235
vt 0.715207 0.238235
vt 0.714556 0.234805
vt 0.647433 0.234805
vt 0.646172 0.207534
vt 0.715816 0.207534
vt 0.715600 0.203283
vt 0.646388 0.203283
vt 0.646781 0.238235
vt 0.647433 0.234805
vt 0.715207 0.238235
vt 0.714556 0.234805
vt 0.646781 0.238235
vt 0.647433 0.234805
vt 0.714556 0.234805
vt 0.715207 0.238235
vt 0.646172 0.207534
vt 0.646388 0.203283
vt 0.715600 0.203283
vt 0.715816 0.207534
vt 0.647433 0.234805
vt 0.646781 0.238235
vt 0.715207 0.238235
vt 0.714556 0.234805
vt 0.719546 0.200315
vt 0.718915 0.239129
vt 0.635529 0.239129
vt 0.636161 0.200315
vt 0.718283 0.200997
vt 0.634898 0.200997
vt 0.721516 0.238504
vt 0.642677 0.238504
vt 0.642677 0.202264
vt 0.721516 0.202264
vt 0.634306 0.199687
vt 0.720159 0.200069
vt 0.720159 0.240967
vt 0.634306 0.240586
vt 0.640543 0.202264
vt 0.720933 0.202264
vt 0.720933 0.238504
vt 0.640542 0.238504
vt 0.640543 0.202264
vt 0.640542 0.238504
vt 0.649870 0.226950
vt 0.714324 0.226950
vt 0.649870 0.226950
vt 0.649870 0.226950
vt 0.714324 0.226950
vt 0.649870 0.226950
vt 0.714324 0.226950
vt 0.714324 0.226950
vt 0.638682 0.230567
vt 0.719616 0.230567
vt 0.719616 0.210323
vt 0.638682 0.210323
vt 0.642447 0.230567
vt 0.642447 0.210323
vt 0.721286 0.230567
vt 0.721286 0.210323
vt 0.638682 0.230567
vt 0.638682 0.210323
vt 0.719482 0.229837
vt 0.637750 0.229837
vt 0.637750 0.239563
vt 0.719482 0.239563
vt 0.637750 0.202591
vt 0.719482 0.202591
vt 0.719482 0.201376
vt 0.637750 0.201376
vn 0.000000 0.000000 1.000000
vn 0.000000 0.000000 1.000000
vn 0.000000 0.000000 1.000000
vn 0.000000 0.000000 1.000000
vn 1.000000 0.000000 0.000000
vn 1.000000 0.000000 0.000000
vn 1.000000 0.000000 0.000000
vn 1.000000 0.000000 0.000000
vn -1.000000 0.000000 0.000000
vn -1.000000 0.000000 0.000000
vn -1.000000 0.000000 0.000000
vn -1.000000 0.000000 0.000000
vn 0.000000 0.000000 1.000000
vn 0.000000 0.000000 1.000000
vn 0.000000 0.000000 1.000000
vn 0.000000 0.000000 1.000000
vn -1.000000 -0.000000 0.000000
vn -1.000000 -0.000000 0.000000
vn -1.000000 -0.000000 0.000000
vn -1.000000 -0.000000 0.000000
vn 1.000000 0.000000 0.000000
vn 1.000000 0.000000 0.000000
vn 1.000000 0.000000 0.000000
vn 1.000000 0.000000 0.000000
vn 0.000000 0.000000 1.000000
vn 0.000000 0.000000 1.000000
vn 0.000000 0.000000 1.000000
vn 0.000000 0.000000 1.000000
vn 0.000000 0.000000 -1.000000
vn 0.000000 0.000000 -1.000000
vn 0.000000 0.000000 -1.000000
vn 0.000000 0.000000 -1.000000
vn 0.000000 -1.000000 0.000000
vn 0.000000 -1.000000 0.000000
vn 0.000000 -1.000000 0.000000
vn 0.000000 -1.000000 0.000000
vn 1.000000 0.000000 0.000000
vn 1.000000 0.000000 0.000000
vn 1.000000 0.000000 0.000000
vn 1.000000 0.000000 0.000000
vn -1.000000 0.000000 0.000000
vn -1.000000 0.000000 0.000000
vn -1.000000 0.000000 0.000000
vn -1.000000 0.000000 0.000000
vn 0.000000 0.000000 1.000000
vn 0.000000 0.000000 1.000000
vn 0.000000 0.000000 1.000000
vn 0.000000 0.000000 1.000000
vn 0.000000 0.000000 -1.000000
vn 0.000000 0.000000 -1.000000
vn 0.000000 0.000000 -1.000000
vn 0.000000 0.000000 -1.000000
vn 0.000000 -1.000000 0.000000
vn 0.000000 -1.000000 0.000000
vn 0.000000 -1.000000 0.000000
vn 0.000000 -1.000000 0.000000
vn -1.000000 0.000000 0.000000
vn -1.000000 0.000000 0.000000
vn -1.000000 0.000000 0.000000
vn -1.000000 0.000000 0.000000
vn 0.250136 0.968211 0.000000
vn 0.250136 0.968211 0.000000
vn 0.250136 0.968211 0.000000
vn 0.250136 0.968211 0.000000
vn -0.000000 0.000000 1.000000
vn -0.000000 0.000000 1.000000
vn -0.000000 0.000000 1.000000
vn -0.000000 0.000000 1.000000
vn 0.000000 0.000000 1.000000
vn 0.000000 0.000000 1.000000
vn 0.000000 1.000000 0.000000
vn 0.000000 1.000000 0.000000
vn 0.000000 1.000000 0.000000
vn 0.000000 1.000000 0.000000
vn 0.000000 0.000000 -1.000000
vn 0.000000 0.000000 -1.000000
vn 0.000000 0.000000 -1.000000
vn 0.000000 0.000000 -1.000000
vn 0.000000 -1.000000 0.000000
vn 0.000000 -1.000000 0.000000
vn 0.000000 -1.000000 0.000000
vn 0.000000 -1.000000 0.000000
vn 1.000000 0.000000 0.000000
vn 1.000000 0.000000 0.000000
vn 1.000000 0.000000 0.000000
vn 1.000000 0.000000 0.000000
vn -1.000000 0.000000 0.000000
vn -1.000000 0.000000 0.000000
vn -1.000000 0.000000 0.000000
vn -1.000000 0.000000 0.000000
vn 0.000000 0.000000 1.000000
vn 0.000000 0.000000 1.000000
vn 0.000000 0.000000 1.000000
vn 0.000000 0.000000 1.000000
vn 0.000000 0.000000 1.000000
vn 0.000000 0.000000 1.000000
vn 0.000000 0.000000 1.000000
vn 0.000000 0.000000 1.000000
vn 0.000000 0.000000 1.000000
vn 0.000000 0.000000 1.000000
vn 0.000000 0.000000 1.000000
vn 0.000000 0.000000 1.000000
vn -0.000000 0.000000 1.000000
vn -0.000000 0.000000 1.000000
vn -0.000000 0.000000 1.000000
vn -0.000000 0.000000 1.000000
vn 0.000000 1.000000 0.000000
vn 0.000000 1.000000 0.000000
vn 0.000000 1.000000 0.000000
vn 0.000000 1.000000 0.000000
vn -1.000000 0.000000 0.000000
vn -1.000000 0.000000 0.000000
vn -1.000000 0.000000 0.000000
vn -1.000000 0.000000 0.000000
vn 0.000000 -1.000000 0.000000
vn 0.000000 -1.000000 0.000000
vn 0.000000 -1.000000 0.000000
vn 0.000000 -1.000000 0.000000
vn 1.000000 0.000000 0.000000
vn 1.000000 0.000000 0.000000
vn 1.000000 0.000000 0.000000
vn 1.000000 0.000000 0.000000
vn 0.000000 0.000000 1.000000
vn 0.000000 0.000000 1.000000
vn 0.000000 0.000000 1.000000
vn 0.000000 0.000000 1.000000
vn 0.000000 1.000000 0.000000
vn 0.000000 1.000000 0.000000
vn 0.000000 1.000000 0.000000
vn 0.000000 1.000000 0.000000
vn 0.000000 -1.000000 0.000000
vn 0.000000 -1.000000 0.000000
vn 0.000000 -1.000000 0.000000
vn 0.000000 -1.000000 0.000000
f 1/1/1 2/2/2 3/3/3 4/4/4
f 4/4/5 3/3/6 5/5/7 6/6/8
f 7/7/9 8/8/10 2/2/11 1/1/12
f 9/9/13 12/10/14 11/11/15 10/12/16
f 12/10/17 14/13/18 13/14/19 11/11/20
f 15/15/21 9/9/22 10/12/23 16/16/24
f 17/17/25 18/18/26 20/19/27 19/20/28
f 21/21/29 22/22/30 24/23/31 23/24/32
f 23/24/33 24/23/34 18/18/35 17/17/36
f 18/18/37 24/25/38 22/26/39 20/19/40
f 23/27/41 17/17/42 19/20/43 21/28/44
f 25/29/45 27/30/46 28/31/47 26/32/48
f 29/33/49 31/34/50 32/35/51 30/36/52
f 31/34/53 25/29/54 26/32/55 32/35/56
f 26/32/57 28/31/58 30/37/59 32/38/60
f 31/39/61 29/40/62 27/30/63 25/29/64
f 33/41/65 37/42/66 38/43/67 36/44/68
f 37/42/66 34/45/69 35/46/70 38/43/67
f 41/47/71 42/48/72 44/49/73 43/50/74
f 46/51/75 45/52/76 43/53/77 44/54/78
f 45/55/79 46/56/80 40/57/81 39/58/82
f 40/57/83 46/56/84 44/49/85 42/48/86
f 45/59/87 39/60/88 41/47/89 43/50/90
f 39/58/91 40/57/92 48/61/93 47/62/94
f 48/63/95 40/57/96 42/48/97 49/64/98
f 42/48/99 41/47/100 50/65/101 49/66/102
f 41/47/103 39/60/104 47/67/105 50/68/106
f 47/69/107 48/70/108 52/71/109 51/72/110
f 52/71/111 48/70/112 49/73/113 53/74/114
f 49/73/115 50/75/116 54/76/117 53/74/118
f 47/77/119 51/78/120 54/76/121 50/75/122
f 55/79/123 56/80/124 58/81/125 57/82/126
f 57/82/127 58/81/128 60/83/129 59/84/130
f 61/85/131 62/86/132 56/80/133 55/79/134
