# This file uses meters as units for non-parametric coordinates.

v -30.607239 27.963684 38.801304
v 30.607239 27.963684 38.801304
v -30.607239 0.000000 38.801304
v 30.607239 0.000000 38.801304
v -30.607239 0.000000 38.801304
v 30.607239 0.000000 38.801304
v -30.607239 24.668976 38.801304
v 30.607239 24.668976 38.801304
v -30.607239 24.668976 0.000000
v 30.607239 24.668976 0.000000
v -30.607239 0.000000 0.000000
v 30.607239 0.000000 0.000000
v -28.575546 24.668976 38.986214
v 28.575546 24.668976 38.986214
v 28.575546 24.668976 2.424431
v -28.575546 24.668976 2.424431
v -28.575546 4.334398 38.986214
v 28.575546 4.334398 38.986214
v 28.575546 4.334398 2.424431
v -28.575546 4.334398 2.424431
v -30.112072 0.495167 43.753475
v -30.607239 0.000000 43.258308
v 30.112072 0.495167 43.753475
v 30.607239 0.000000 43.258308
v -30.112072 27.468517 43.753475
v -30.607239 27.963684 43.258308
v 30.112072 27.468517 43.753475
v 30.607239 27.963684 43.258308
vt 0.401135 0.882942
vt 0.383795 0.900281
vt 0.384858 0.899082
vt 0.400072 0.899082
vt 0.400072 0.883868
vt 0.384858 0.883868
vt 0.383795 0.882805
vt 0.401135 0.882805
vt 0.401135 0.900145
vt 0.383795 0.900145
vt 0.401135 0.882805
vt 0.383795 0.882805
vt 0.401135 0.882805
vt 0.383795 0.882805
vt 0.383795 0.900145
vt 0.401135 0.900145
vt 0.401135 0.882805
vt 0.383795 0.882805
vt 0.383795 0.900145
vt 0.401135 0.900145
vt 0.400072 0.883868
vt 0.400072 0.899082
vt 0.384858 0.883868
vt 0.384858 0.899082
vt 0.400194 0.883920
vt 0.384018 0.883920
vt 0.384018 0.900096
vt 0.400194 0.900096
vt 0.400194 0.883920
vt 0.400194 0.900096
vt 0.384018 0.883920
vt 0.384018 0.900096
vt 0.385529 0.882942
vt 0.383935 0.883249
vt 0.383795 0.898548
vt 0.383935 0.899974
vt 0.399401 0.900281
vt 0.400994 0.883249
vt 0.400994 0.899974
vt 0.401135 0.898548
vt 0.383795 0.882942
vt 0.401135 0.900281
vt 0.401135 0.884675
vt 0.383795 0.884675
vt 0.399401 0.882942
vt 0.383795 0.882942
vt 0.383795 0.900281
vt 0.401135 0.882942
vt 0.385529 0.900281
vt 0.401135 0.900281
vn 0.000000 0.000000 -1.000000
vn 0.000000 0.000000 -1.000000
vn 0.000000 0.000000 -1.000000
vn 0.000000 0.000000 -1.000000
vn 0.000000 1.000000 0.000000
vn 0.000000 1.000000 0.000000
vn 0.000000 1.000000 0.000000
vn 0.000000 1.000000 0.000000
vn 0.000000 0.000000 -1.000000
vn 0.000000 0.000000 -1.000000
vn 0.000000 0.000000 -1.000000
vn 0.000000 0.000000 -1.000000
vn 0.000000 -1.000000 0.000000
vn 0.000000 -1.000000 0.000000
vn 0.000000 -1.000000 0.000000
vn 0.000000 -1.000000 0.000000
vn 1.000000 0.000000 0.000000
vn 1.000000 0.000000 0.000000
vn 1.000000 0.000000 0.000000
vn 1.000000 0.000000 0.000000
vn -1.000000 0.000000 0.000000
vn -1.000000 0.000000 0.000000
vn -1.000000 0.000000 0.000000
vn -1.000000 0.000000 0.000000
vn 0.000000 1.000000 0.000000
vn 0.000000 1.000000 0.000000
vn 0.000000 1.000000 0.000000
vn 0.000000 1.000000 0.000000
vn 0.000000 1.000000 0.000000
vn 0.000000 1.000000 0.000000
vn 0.000000 1.000000 0.000000
vn 0.000000 1.000000 0.000000
vn 0.000000 1.000000 0.000000
vn 0.000000 1.000000 0.000000
vn 0.000000 1.000000 0.000000
vn 0.000000 1.000000 0.000000
vn -1.000000 0.000000 0.000000
vn -1.000000 0.000000 0.000000
vn -1.000000 0.000000 0.000000
vn -1.000000 0.000000 0.000000
vn 0.000000 0.000000 1.000000
vn 0.000000 0.000000 1.000000
vn 0.000000 0.000000 1.000000
vn 0.000000 0.000000 1.000000
vn 1.000000 0.000000 0.000000
vn 1.000000 0.000000 0.000000
vn 1.000000 0.000000 0.000000
vn 1.000000 0.000000 0.000000
vn 0.000000 -0.707108 0.707106
vn 0.000000 -0.707108 0.707106
vn 0.000000 -0.707108 0.707106
vn 0.000000 -0.707108 0.707106
vn -0.707112 0.000000 0.707102
vn -0.707112 0.000000 0.707102
vn -0.707112 0.000000 0.707102
vn -0.707112 0.000000 0.707102
vn 0.707112 0.000000 0.707102
vn 0.707112 0.000000 0.707102
vn 0.707112 0.000000 0.707102
vn 0.707112 0.000000 0.707102
vn 0.000000 0.707106 0.707107
vn 0.000000 0.707106 0.707107
vn 0.000000 0.707106 0.707107
vn 0.000000 0.707106 0.707107
vn 0.000000 0.000000 1.000000
vn 0.000000 0.000000 1.000000
vn 0.000000 0.000000 1.000000
vn 0.000000 0.000000 1.000000
vn 0.000000 1.000000 0.000000
vn 0.000000 1.000000 0.000000
vn 0.000000 1.000000 0.000000
vn 0.000000 1.000000 0.000000
vn 0.000000 -1.000000 0.000000
vn 0.000000 -1.000000 0.000000
vn 0.000000 -1.000000 0.000000
vn 0.000000 -1.000000 0.000000
vn 1.000000 0.000000 0.000000
vn 1.000000 0.000000 0.000000
vn 1.000000 0.000000 0.000000
vn 1.000000 0.000000 0.000000
vn -1.000000 0.000000 0.000000
vn -1.000000 0.000000 0.000000
vn -1.000000 0.000000 0.000000
vn -1.000000 0.000000 0.000000
f 1/41/1 2/1/2 4/42/3 3/2/4
f 17/3/5 18/4/6 19/5/7 20/6/8
f 9/7/9 10/8/10 12/9/11 11/10/12
f 11/10/13 12/9/14 6/11/15 5/12/16
f 6/13/17 12/14/18 10/15/19 8/16/20
f 11/17/21 5/18/22 7/19/23 9/20/24
f 8/16/25 10/8/26 15/21/27 14/22/28
f 10/8/29 9/7/30 16/23/31 15/21/32
f 9/7/33 7/19/34 13/24/35 16/23/36
f 14/25/37 15/26/38 19/27/39 18/28/40
f 15/26/41 16/29/42 20/30/43 19/27/44
f 16/29/45 13/31/46 17/32/47 20/30/48
f 21/34/49 22/33/50 24/45/51 23/38/52
f 22/33/53 21/34/54 25/36/55 26/35/56
f 23/38/57 24/45/58 28/37/59 27/39/60
f 26/35/61 25/36/62 27/39/63 28/37/64
f 21/34/65 23/38/66 27/39/67 25/36/68
f 26/35/69 28/40/70 2/1/71 1/41/72
f 3/2/73 4/42/74 24/43/75 22/44/76
f 24/45/77 4/46/78 2/47/79 28/37/80
f 3/48/81 22/33/82 26/49/83 1/50/84
