# This file uses meters as units for non-parametric coordinates.

v -7.081749 -114.195156 1.606823
v 7.081757 -114.195156 1.606823
v -7.081749 114.195156 1.606823
v 7.081757 114.195156 1.606823
v -7.081749 114.195156 -1.606823
v 7.081757 114.195156 -1.606823
v -7.081749 -114.195156 -1.606823
v 7.081757 -114.195156 -1.606823
v 76.857361 -114.195156 0.701900
v 76.857361 -100.031651 0.701900
v 7.081757 -114.195156 0.701900
v 7.081757 -100.031651 0.701900
v 7.081757 -114.195156 -0.358349
v 7.081757 -100.031651 -0.358349
v 76.857361 -114.195156 -0.358349
v 76.857361 -100.031651 -0.358349
v 76.857361 -114.195156 1.606823
v 91.020866 -114.195156 1.606823
v 76.857361 114.195156 1.606823
v 91.020866 114.195156 1.606823
v 76.857361 114.195156 -1.150425
v 91.020866 114.195156 -1.150425
v 76.857361 -114.195156 -1.150425
v 91.020866 -114.195156 -1.150425
v 76.857361 100.031643 0.920151
v 76.857361 114.195156 0.920151
v 7.081757 100.031643 0.920151
v 7.081757 114.195156 0.920151
v 7.081757 100.031643 -0.576599
v 7.081757 114.195156 -0.576599
v 76.857361 100.031643 -0.576599
v 76.857361 114.195156 -0.576599
vt 0.427869 0.826252
vt 0.427869 0.835740
vt 0.415663 0.826178
vt 0.415665 0.835822
vt 0.415221 0.826178
vt 0.415220 0.835822
vt 0.427821 0.826178
vt 0.427821 0.835822
vt 0.427890 0.834045
vt 0.415630 0.834150
vt 0.427890 0.827950
vt 0.415632 0.827849
vt 0.427869 0.826252
vt 0.427869 0.835740
vt 0.415665 0.835822
vt 0.415663 0.826178
vt 0.415220 0.835822
vt 0.415221 0.826178
vt 0.427821 0.835822
vt 0.427821 0.826178
vt 0.427890 0.834045
vt 0.415630 0.834150
vt 0.427890 0.827950
vt 0.415632 0.827849
vt 0.427869 0.826252
vt 0.427869 0.835740
vt 0.415665 0.835822
vt 0.415663 0.826178
vt 0.415221 0.826178
vt 0.415220 0.835822
vt 0.427821 0.835822
vt 0.427821 0.826178
vt 0.427890 0.834045
vt 0.415630 0.834150
vt 0.427890 0.827950
vt 0.415632 0.827849
vt 0.427869 0.826252
vt 0.427869 0.835740
vt 0.415665 0.835822
vt 0.415663 0.826178
vt 0.415220 0.835822
vt 0.415221 0.826178
vt 0.427821 0.835822
vt 0.427821 0.826178
vt 0.427890 0.834045
vt 0.415630 0.834150
vt 0.427890 0.827950
vt 0.415632 0.827849
vn 0.000000 0.000000 1.000000
vn 0.000000 0.000000 1.000000
vn 0.000000 0.000000 1.000000
vn 0.000000 0.000000 1.000000
vn 0.000000 0.000000 -1.000000
vn 0.000000 0.000000 -1.000000
vn 0.000000 0.000000 -1.000000
vn 0.000000 0.000000 -1.000000
vn 1.000000 0.000000 0.000000
vn 1.000000 0.000000 0.000000
vn 1.000000 0.000000 0.000000
vn 1.000000 0.000000 0.000000
vn -1.000000 0.000000 0.000000
vn -1.000000 0.000000 0.000000
vn -1.000000 0.000000 0.000000
vn -1.000000 0.000000 0.000000
vn 0.000000 0.000000 1.000000
vn 0.000000 0.000000 1.000000
vn 0.000000 0.000000 1.000000
vn 0.000000 0.000000 1.000000
vn 0.000000 0.000000 -1.000000
vn 0.000000 0.000000 -1.000000
vn 0.000000 0.000000 -1.000000
vn 0.000000 0.000000 -1.000000
vn 0.000000 1.000000 0.000000
vn 0.000000 1.000000 0.000000
vn 0.000000 1.000000 0.000000
vn 0.000000 1.000000 0.000000
vn 0.000000 -1.000000 0.000000
vn 0.000000 -1.000000 0.000000
vn 0.000000 -1.000000 0.000000
vn 0.000000 -1.000000 0.000000
vn 0.000000 0.000000 1.000000
vn 0.000000 0.000000 1.000000
vn 0.000000 0.000000 1.000000
vn 0.000000 0.000000 1.000000
vn 0.000000 0.000000 -1.000000
vn 0.000000 0.000000 -1.000000
vn 0.000000 0.000000 -1.000000
vn 0.000000 0.000000 -1.000000
vn 1.000000 0.000000 0.000000
vn 1.000000 0.000000 0.000000
vn 1.000000 0.000000 0.000000
vn 1.000000 0.000000 0.000000
vn -1.000000 0.000000 0.000000
vn -1.000000 0.000000 0.000000
vn -1.000000 0.000000 0.000000
vn -1.000000 0.000000 0.000000
vn 0.000000 0.000000 1.000000
vn 0.000000 0.000000 1.000000
vn 0.000000 0.000000 1.000000
vn 0.000000 0.000000 1.000000
vn 0.000000 0.000000 -1.000000
vn 0.000000 0.000000 -1.000000
vn 0.000000 0.000000 -1.000000
vn 0.000000 0.000000 -1.000000
vn 0.000000 1.000000 0.000000
vn 0.000000 1.000000 0.000000
vn 0.000000 1.000000 0.000000
vn 0.000000 1.000000 0.000000
vn 0.000000 -1.000000 0.000000
vn 0.000000 -1.000000 0.000000
vn 0.000000 -1.000000 0.000000
vn 0.000000 -1.000000 0.000000
vn 0.000000 1.000000 0.000000
vn 0.000000 1.000000 0.000000
vn 0.000000 1.000000 0.000000
vn 0.000000 1.000000 0.000000
vn 0.000000 1.000000 0.000000
vn 0.000000 1.000000 0.000000
vn 0.000000 1.000000 0.000000
vn 0.000000 1.000000 0.000000
vn 0.000000 -1.000000 0.000000
vn 0.000000 -1.000000 0.000000
vn 0.000000 -1.000000 0.000000
vn 0.000000 -1.000000 0.000000
vn 0.000000 -1.000000 0.000000
vn 0.000000 -1.000000 0.000000
vn 0.000000 -1.000000 0.000000
vn 0.000000 -1.000000 0.000000
f 1/1/1 2/2/2 4/4/3 3/3/4
f 5/5/5 6/6/6 8/8/7 7/7/8
f 2/2/9 8/9/10 6/10/11 4/4/12
f 7/11/13 1/1/14 3/3/15 5/12/16
f 9/13/17 10/14/18 12/15/19 11/16/20
f 13/18/21 14/17/22 16/19/23 15/20/24
f 10/14/25 16/21/26 14/22/27 12/15/28
f 15/23/29 9/13/30 11/16/31 13/24/32
f 17/25/33 18/26/34 20/27/35 19/28/36
f 21/29/37 22/30/38 24/31/39 23/32/40
f 18/26/41 24/33/42 22/34/43 20/27/44
f 23/35/45 17/25/46 19/28/47 21/36/48
f 25/37/49 26/38/50 28/39/51 27/40/52
f 29/42/53 30/41/54 32/43/55 31/44/56
f 26/38/57 32/45/58 30/46/59 28/39/60
f 31/47/61 25/37/62 27/40/63 29/48/64
f 4/4/65 6/6/66 5/12/67 3/3/68
f 20/27/69 22/30/70 21/36/71 19/28/72
f 2/2/73 1/1/74 7/7/75 8/9/76
f 18/26/77 17/25/78 23/32/79 24/33/80
