# This file uses meters as units for non-parametric coordinates.

v 51.706831 110.273613 -1.070107
v 10.569588 110.273613 -1.070107
v 10.569588 -110.273621 -1.070107
v 51.706816 -110.273621 -1.070107
v 51.706831 110.273613 -2.617676
v 10.569588 110.273613 -2.617676
v 10.569588 -110.273621 -2.617676
v 51.706816 -110.273621 -2.617676
vt 0.522516 0.975910
vt 0.522516 0.992170
vt 0.506256 0.992170
vt 0.506256 0.975910
vt 0.522516 0.975910
vt 0.506256 0.975910
vt 0.506256 0.992170
vt 0.522516 0.992170
vn 0.000000 0.000000 1.000000
vn 0.000000 0.000000 1.000000
vn 0.000000 0.000000 1.000000
vn 0.000000 0.000000 1.000000
vn 0.000000 0.000000 -1.000000
vn 0.000000 0.000000 -1.000000
vn 0.000000 0.000000 -1.000000
vn 0.000000 0.000000 -1.000000
f 1/1/1 2/2/2 3/3/3 4/4/4
f 5/5/5 8/6/6 7/7/7 6/8/8
