# This file uses meters as units for non-parametric coordinates.

v -5.446415 -5.446415 3.879885
v 5.446415 -5.446415 3.879885
v -5.446415 5.446415 3.879885
v 5.446415 5.446415 3.879885
v -5.446415 5.446415 -0.000000
v 5.446415 5.446415 -0.000000
v -5.446415 -5.446415 -0.000000
v 5.446415 -5.446415 -0.000000
v -2.545875 -2.545875 3.879885
v 2.545875 -2.545875 3.879885
v 2.545875 2.545875 3.879885
v -2.545875 2.545875 3.879885
v -2.544347 2.544347 -0.000000
v 2.544347 2.544347 -0.000000
v 2.544347 -2.544347 -0.000000
v -2.544347 -2.544347 -0.000000
vt 0.613530 0.069259
vt 0.518739 0.069259
vt 0.518739 0.069259
vt 0.613530 0.069259
vt 0.518739 0.117855
vt 0.613530 0.117855
vt 0.613530 0.117855
vt 0.518739 0.117855
vt 0.613530 0.069259
vt 0.518739 0.069259
vt 0.613530 0.069259
vt 0.613530 0.117855
vt 0.613530 0.069259
vt 0.518739 0.069259
vt 0.518739 0.069259
vt 0.518739 0.117855
vt 0.613530 0.117855
vt 0.518739 0.117855
vt 0.518739 0.069259
vt 0.613530 0.069259
vn 0.000000 1.000000 0.000000
vn 0.000000 1.000000 0.000000
vn 0.000000 1.000000 0.000000
vn 0.000000 1.000000 0.000000
vn 0.000000 -1.000000 0.000000
vn 0.000000 -1.000000 0.000000
vn 0.000000 -1.000000 0.000000
vn 0.000000 -1.000000 0.000000
vn 1.000000 0.000000 0.000000
vn 1.000000 0.000000 0.000000
vn 1.000000 0.000000 0.000000
vn 1.000000 0.000000 0.000000
vn -1.000000 0.000000 0.000000
vn -1.000000 0.000000 0.000000
vn -1.000000 0.000000 0.000000
vn -1.000000 0.000000 0.000000
vn 0.000000 0.000000 1.000000
vn 0.000000 0.000000 1.000000
vn 0.000000 0.000000 1.000000
vn 0.000000 0.000000 1.000000
vn 0.000000 0.000000 1.000000
vn 0.000000 0.000000 1.000000
vn 0.000000 0.000000 1.000000
vn 0.000000 0.000000 1.000000
vn 0.000000 0.000000 1.000000
vn 0.000000 0.000000 1.000000
vn 0.000000 0.000000 1.000000
vn 0.000000 0.000000 1.000000
vn 0.000000 0.000000 1.000000
vn 0.000000 0.000000 1.000000
vn 0.000000 0.000000 1.000000
vn 0.000000 0.000000 1.000000
vn -1.000000 0.000000 0.000394
vn -1.000000 0.000000 0.000394
vn -1.000000 0.000000 0.000394
vn -1.000000 0.000000 0.000394
vn 0.000000 -1.000000 0.000394
vn 0.000000 -1.000000 0.000394
vn 0.000000 -1.000000 0.000394
vn 0.000000 -1.000000 0.000394
vn 1.000000 0.000000 0.000394
vn 1.000000 0.000000 0.000394
vn 1.000000 0.000000 0.000394
vn 1.000000 0.000000 0.000394
vn 0.000000 1.000000 0.000394
vn 0.000000 1.000000 0.000394
vn 0.000000 1.000000 0.000394
vn 0.000000 1.000000 0.000394
f 3/15/1 4/13/2 6/6/3 5/5/4
f 7/7/5 8/8/6 2/10/7 1/9/8
f 2/10/9 8/8/10 6/6/11 4/13/12
f 7/7/13 1/9/14 3/15/15 5/5/16
f 1/1/17 2/2/18 10/16/19 9/12/20
f 2/2/21 4/4/22 11/17/23 10/16/24
f 4/4/25 3/3/26 12/18/27 11/17/28
f 3/3/29 1/1/30 9/12/31 12/18/32
f 10/16/33 11/17/34 14/20/35 15/19/36
f 11/17/37 12/18/38 13/14/39 14/20/40
f 12/18/41 9/12/42 16/11/43 13/14/44
f 9/12/45 10/16/46 15/19/47 16/11/48
