# This file uses meters as units for non-parametric coordinates.

v -86.492752 85.071587 13.820340
v -86.492752 93.612526 13.820340
v 86.492752 85.071587 13.820340
v 86.492752 93.612526 13.820340
v 86.492752 86.779594 77.630737
v 86.492752 85.071587 75.922714
v -86.492752 85.071587 75.922714
v -86.492752 86.779594 77.630737
v 86.492752 93.612526 75.922714
v 86.492752 91.904518 77.630737
v -86.492752 91.904518 77.630737
v -86.492752 93.612526 75.922714
v -3.852876 154.752594 13.820340
v 3.852876 154.752594 13.820340
v -3.852876 91.904518 13.820340
v 3.852876 91.904518 13.820340
v -1.926630 91.904518 77.630737
v -3.852876 91.904518 75.704491
v -3.852876 154.752594 75.704491
v -1.926630 154.752594 77.630737
v 3.852876 91.904518 75.704491
v 1.926630 91.904518 77.630737
v 1.926630 154.752594 77.630737
v 3.852876 154.752594 75.704491
v -94.483643 162.361572 0.000010
v -94.483643 90.180511 0.000010
v 94.483887 162.361572 0.000010
v 94.483887 90.180511 0.000010
v -94.483643 16.322525 0.000010
v 94.483887 16.322525 0.000010
v 84.259949 152.519470 13.820340
v -84.259399 152.519470 13.820340
v -84.259399 90.180511 13.820340
v 84.259949 90.180511 13.820340
v 84.259949 26.164673 13.820340
v -84.259399 26.164673 13.820340
v 86.493164 154.752594 77.630737
v 84.259949 152.519470 75.397598
v -86.492737 154.752594 77.630737
v -84.259399 152.519470 75.397598
v -86.492737 90.180511 77.630737
v -84.259399 90.180511 75.397598
v 86.493164 90.180511 77.630737
v 84.259949 90.180511 75.397598
v 86.493164 23.931534 77.630737
v 84.259949 26.164673 75.397598
v -86.492737 23.931534 77.630737
v -84.259399 26.164673 75.397598
v 94.483887 162.361572 76.078278
v 92.931458 160.809113 77.630737
v 94.483887 90.180511 76.078278
v 92.931458 90.180511 77.630737
v -94.483643 162.361572 76.078278
v -92.931213 160.809113 77.630737
v -94.483643 90.180511 76.078278
v -92.931213 90.180511 77.630737
v 94.483887 16.322525 76.078278
v 92.931458 17.874985 77.630737
v -94.483643 16.322525 76.078278
v -92.931213 17.874985 77.630737
v -3.852876 86.779602 13.820340
v 3.852876 86.779602 13.820340
v -3.852876 23.931530 13.820340
v 3.852876 23.931530 13.820340
v -1.926630 23.931530 77.630737
v -3.852876 23.931530 75.704491
v -3.852876 86.779602 75.704491
v -1.926630 86.779602 77.630737
v 3.852876 23.931530 75.704491
v 1.926630 23.931530 77.630737
v 1.926630 86.779602 77.630737
v 3.852876 86.779602 75.704491
v -91.296646 0.000000 14.767534
v -82.167526 0.000000 14.767534
v -91.296646 16.322525 14.767534
v -82.167526 16.322525 14.767534
v -91.296646 16.322525 5.638419
v -82.167526 16.322525 5.638419
v -91.296646 0.000000 5.638419
v -82.167526 0.000000 5.638419
v -91.296646 0.000000 74.449554
v -82.167526 0.000000 74.449554
v -91.296646 16.322525 74.449554
v -82.167526 16.322525 74.449554
v -91.296646 16.322525 65.320435
v -82.167526 16.322525 65.320435
v -91.296646 0.000000 65.320435
v -82.167526 0.000000 65.320435
v 91.296646 0.000000 14.767536
v 82.167534 0.000000 14.767536
v 91.296646 16.322525 14.767536
v 82.167534 16.322525 14.767536
v 91.296646 16.322525 5.638416
v 82.167534 16.322525 5.638416
v 91.296646 0.000000 5.638416
v 82.167534 0.000000 5.638416
v 91.296646 0.000000 74.449554
v 82.167534 0.000000 74.449554
v 91.296646 16.322525 74.449554
v 82.167534 16.322525 74.449554
v 91.296646 16.322525 65.320435
v 82.167534 16.322525 65.320435
v 91.296646 0.000000 65.320435
v 82.167534 0.000000 65.320435
vt 0.618054 0.616787
vt 0.513865 0.513361
vt 0.513865 0.616787
vt 0.618054 0.531769
vt 0.513865 0.595536
vt 0.618054 0.613943
vt 0.618054 0.510516
vt 0.513865 0.510516
vt 0.618054 0.513361
vt 0.513865 0.531769
vt 0.618054 0.595536
vt 0.513865 0.613943
vt 0.513865 0.537082
vt 0.618054 0.537082
vt 0.618054 0.590223
vt 0.513865 0.590223
vt 0.513865 0.613579
vt 0.618054 0.613579
vt 0.618054 0.510516
vt 0.513865 0.510516
vt 0.618054 0.616787
vt 0.618054 0.513724
vt 0.513865 0.513724
vt 0.513865 0.616787
vt 0.618054 0.510516
vt 0.513865 0.510516
vt 0.513865 0.616787
vt 0.618054 0.616787
vt 0.618054 0.510516
vt 0.513865 0.510516
vt 0.513865 0.616787
vt 0.618054 0.616787
vt 0.618054 0.510516
vt 0.513865 0.510516
vt 0.618054 0.510516
vt 0.513865 0.510516
vt 0.609699 0.522217
vt 0.611876 0.516949
vt 0.514406 0.516949
vt 0.514406 0.522201
vt 0.613741 0.522539
vt 0.516176 0.522539
vt 0.514529 0.516949
vt 0.512134 0.522216
vt 0.611025 0.522201
vt 0.611025 0.516949
vt 0.513912 0.522217
vt 0.513912 0.516949
vt 0.611269 0.516949
vt 0.609035 0.522217
vt 0.613126 0.522539
vt 0.514276 0.516949
vt 0.512325 0.522539
vt 0.514529 0.612418
vt 0.611876 0.612418
vt 0.611025 0.612418
vt 0.514406 0.612418
vt 0.611269 0.612418
vt 0.513912 0.612418
vt 0.514276 0.612418
vt 0.615970 0.510516
vt 0.618054 0.511487
vt 0.618054 0.616787
vt 0.615970 0.616787
vt 0.617198 0.510516
vt 0.618054 0.512642
vt 0.513865 0.512641
vt 0.514721 0.510516
vt 0.618054 0.511487
vt 0.615970 0.510516
vt 0.513865 0.511487
vt 0.515949 0.510516
vt 0.515949 0.616787
vt 0.513865 0.616787
vt 0.515949 0.510516
vt 0.513865 0.511487
vt 0.618054 0.512642
vt 0.617198 0.510516
vt 0.514721 0.510516
vt 0.513865 0.512641
vt 0.618054 0.616787
vt 0.513865 0.616787
vt 0.618054 0.616787
vt 0.513865 0.616787
vt 0.618959 0.547091
vt 0.520464 0.547078
vt 0.505291 0.547327
vt 0.611025 0.547324
vt 0.514406 0.547324
vt 0.603397 0.547326
vt 0.602574 0.547327
vt 0.513958 0.547327
vt 0.506848 0.547091
vt 0.618335 0.547078
vt 0.513865 0.537082
vt 0.618054 0.537082
vt 0.618054 0.590223
vt 0.513865 0.590223
vt 0.513865 0.613579
vt 0.618054 0.613579
vt 0.618054 0.510516
vt 0.513865 0.510516
vt 0.618054 0.616787
vt 0.618054 0.513724
vt 0.513865 0.513724
vt 0.513865 0.616787
vt 0.616452 0.512700
vt 0.616452 0.614527
vt 0.512875 0.614526
vt 0.512875 0.512700
vt 0.616452 0.512700
vt 0.616452 0.614526
vt 0.512875 0.614526
vt 0.512875 0.512700
vt 0.616452 0.614527
vt 0.616452 0.512700
vt 0.616452 0.512700
vt 0.512875 0.512700
vt 0.616452 0.614526
vt 0.512875 0.614526
vt 0.616452 0.512700
vt 0.616452 0.614527
vt 0.512875 0.614526
vt 0.512875 0.512700
vt 0.616452 0.512700
vt 0.616452 0.614526
vt 0.512875 0.614526
vt 0.512875 0.512700
vt 0.616452 0.614527
vt 0.616452 0.512700
vt 0.616452 0.512700
vt 0.512875 0.512700
vt 0.616452 0.614526
vt 0.512875 0.614526
vt 0.616452 0.512700
vt 0.512875 0.512700
vt 0.512875 0.614526
vt 0.616452 0.614527
vt 0.616452 0.512700
vt 0.512875 0.512700
vt 0.512875 0.614526
vt 0.616452 0.614526
vt 0.616452 0.512700
vt 0.616452 0.614527
vt 0.512875 0.512700
vt 0.616452 0.512700
vt 0.616452 0.614526
vt 0.512875 0.614526
vt 0.616452 0.512700
vt 0.512875 0.512700
vt 0.512875 0.614526
vt 0.616452 0.614527
vt 0.616452 0.512700
vt 0.512875 0.512700
vt 0.512875 0.614526
vt 0.616452 0.614526
vt 0.616452 0.512700
vt 0.616452 0.614527
vt 0.512875 0.512700
vt 0.616452 0.512700
vt 0.616452 0.614526
vt 0.512875 0.614526
vn 0.000000 0.000000 1.000000
vn 0.000000 0.000000 1.000000
vn 0.000000 0.000000 1.000000
vn 0.000000 0.000000 1.000000
vn 0.000000 1.000000 0.000000
vn 0.000000 1.000000 0.000000
vn 0.000000 1.000000 0.000000
vn 0.000000 1.000000 0.000000
vn 0.000000 -1.000000 0.000000
vn 0.000000 -1.000000 0.000000
vn 0.000000 -1.000000 0.000000
vn 0.000000 -1.000000 0.000000
vn 0.000000 -0.707110 0.707104
vn 0.000000 -0.707110 0.707104
vn 0.000000 -0.707110 0.707104
vn 0.000000 -0.707110 0.707104
vn 0.000000 0.707110 0.707104
vn 0.000000 0.707110 0.707104
vn 0.000000 0.707110 0.707104
vn 0.000000 0.707110 0.707104
vn 0.000000 0.000000 1.000000
vn 0.000000 0.000000 1.000000
vn 0.000000 0.000000 1.000000
vn 0.000000 0.000000 1.000000
vn 1.000000 0.000000 0.000000
vn 1.000000 0.000000 0.000000
vn 1.000000 0.000000 0.000000
vn 1.000000 0.000000 0.000000
vn -1.000000 0.000000 0.000000
vn -1.000000 0.000000 0.000000
vn -1.000000 0.000000 0.000000
vn -1.000000 0.000000 0.000000
vn -0.707107 0.000000 0.707106
vn -0.707107 0.000000 0.707106
vn -0.707107 0.000000 0.707106
vn -0.707107 0.000000 0.707106
vn 0.707107 0.000000 0.707106
vn 0.707107 0.000000 0.707106
vn 0.707107 0.000000 0.707106
vn 0.707107 0.000000 0.707106
vn 0.000000 0.000000 1.000000
vn 0.000000 0.000000 1.000000
vn 0.000000 0.000000 1.000000
vn 0.000000 0.000000 1.000000
vn 0.000000 0.000000 -1.000000
vn 0.000000 0.000000 -1.000000
vn 0.000000 0.000000 -1.000000
vn 0.000000 0.000000 -1.000000
vn 0.000000 0.000000 1.000000
vn 0.000000 0.000000 1.000000
vn 0.000000 0.000000 1.000000
vn 0.000000 0.000000 1.000000
vn 0.000000 0.000000 -1.000000
vn 0.000000 0.000000 -1.000000
vn 0.000000 0.000000 -1.000000
vn 0.000000 0.000000 -1.000000
vn -0.707094 0.000000 0.707120
vn -0.707094 0.000000 0.707120
vn -0.707094 0.000000 0.707119
vn -0.707094 0.000000 0.707119
vn 0.000000 -0.707108 0.707105
vn 0.000000 -0.707108 0.707105
vn 0.000000 -0.707108 0.707105
vn 0.000000 -0.707108 0.707105
vn 0.707074 0.000000 0.707139
vn 0.707074 0.000000 0.707139
vn 0.707075 0.000000 0.707139
vn 0.707075 0.000000 0.707139
vn 0.707075 0.000000 0.707138
vn 0.707075 0.000000 0.707138
vn -0.707095 0.000000 0.707119
vn -0.707095 0.000000 0.707119
vn 0.000000 0.707107 0.707107
vn 0.000000 0.707107 0.707107
vn 0.000000 0.707107 0.707107
vn 0.000000 0.707107 0.707107
vn 0.000000 -1.000000 0.000000
vn 0.000000 -1.000000 0.000000
vn 0.000000 -1.000000 0.000000
vn 0.000000 -1.000000 0.000000
vn 1.000000 0.000000 0.000000
vn 1.000000 0.000000 0.000000
vn 1.000000 0.000000 0.000000
vn 1.000000 0.000000 0.000000
vn -1.000000 0.000000 0.000000
vn -1.000000 0.000000 0.000000
vn -1.000000 0.000000 0.000000
vn -1.000000 0.000000 0.000000
vn -1.000000 0.000000 0.000000
vn -1.000000 0.000000 0.000000
vn 1.000000 0.000000 0.000000
vn 1.000000 0.000000 0.000000
vn 0.000000 1.000000 0.000000
vn 0.000000 1.000000 0.000000
vn 0.000000 1.000000 0.000000
vn 0.000000 1.000000 0.000000
vn 0.707113 0.000000 0.707100
vn 0.707113 0.000000 0.707100
vn 0.707114 0.000000 0.707100
vn 0.707114 0.000000 0.707100
vn 0.000000 0.707108 0.707105
vn 0.000000 0.707108 0.707105
vn 0.000000 0.707108 0.707105
vn 0.000000 0.707108 0.707105
vn 0.707114 0.000000 0.707100
vn 0.707114 0.000000 0.707100
vn -0.707113 0.000000 0.707100
vn -0.707113 0.000000 0.707100
vn -0.707114 0.000000 0.707100
vn -0.707114 0.000000 0.707100
vn -0.707114 0.000000 0.707100
vn -0.707114 0.000000 0.707100
vn 0.000000 -0.707107 0.707107
vn 0.000000 -0.707107 0.707107
vn 0.000000 -0.707107 0.707107
vn 0.000000 -0.707107 0.707107
vn -1.000000 0.000000 0.000000
vn -1.000000 0.000000 0.000000
vn -1.000000 0.000000 0.000000
vn -1.000000 0.000000 0.000000
vn 1.000000 0.000000 0.000000
vn 1.000000 0.000000 0.000000
vn 1.000000 0.000000 0.000000
vn 1.000000 0.000000 0.000000
vn 0.000000 1.000000 0.000000
vn 0.000000 1.000000 0.000000
vn 0.000000 1.000000 0.000000
vn 0.000000 1.000000 0.000000
vn -1.000000 0.000000 0.000000
vn -1.000000 0.000000 0.000000
vn 1.000000 0.000000 0.000000
vn 1.000000 0.000000 0.000000
vn 0.000000 -1.000000 0.000000
vn 0.000000 -1.000000 0.000000
vn 0.000000 -1.000000 0.000000
vn 0.000000 -1.000000 0.000000
vn 0.000000 0.000000 1.000000
vn -0.000000 0.000000 1.000000
vn -0.000000 0.000000 1.000000
vn 0.000000 0.000000 1.000000
vn -0.000000 0.000000 1.000000
vn -0.000000 0.000000 1.000000
vn 0.000000 0.000000 1.000000
vn 0.000000 0.000000 1.000000
vn 0.000000 0.000000 1.000000
vn 0.000000 0.000000 1.000000
vn 0.000000 0.000000 1.000000
vn 0.000000 0.000000 1.000000
vn 0.000000 0.000000 1.000000
vn 0.000000 0.000000 1.000000
vn 0.000000 0.000000 1.000000
vn 0.000000 0.000000 1.000000
vn 1.000000 0.000000 0.000000
vn 1.000000 0.000000 0.000000
vn 1.000000 0.000000 0.000000
vn 1.000000 0.000000 0.000000
vn -1.000000 0.000000 0.000000
vn -1.000000 0.000000 0.000000
vn -1.000000 0.000000 0.000000
vn -1.000000 0.000000 0.000000
vn -0.707107 0.000000 0.707106
vn -0.707107 0.000000 0.707106
vn -0.707107 0.000000 0.707106
vn -0.707107 0.000000 0.707106
vn 0.707107 0.000000 0.707106
vn 0.707107 0.000000 0.707106
vn 0.707107 0.000000 0.707106
vn 0.707107 0.000000 0.707106
vn 0.000000 0.000000 1.000000
vn 0.000000 0.000000 1.000000
vn 0.000000 0.000000 1.000000
vn 0.000000 0.000000 1.000000
vn 0.000000 0.000000 -1.000000
vn 0.000000 0.000000 -1.000000
vn 0.000000 0.000000 -1.000000
vn 0.000000 0.000000 -1.000000
vn 0.000000 -1.000000 0.000000
vn 0.000000 -1.000000 0.000000
vn 0.000000 -1.000000 0.000000
vn 0.000000 -1.000000 0.000000
vn 1.000000 0.000000 0.000000
vn 1.000000 0.000000 0.000000
vn 1.000000 0.000000 0.000000
vn 1.000000 0.000000 0.000000
vn -1.000000 0.000000 0.000000
vn -1.000000 0.000000 0.000000
vn -1.000000 0.000000 0.000000
vn -1.000000 0.000000 0.000000
vn 0.000000 0.000000 1.000000
vn 0.000000 0.000000 1.000000
vn 0.000000 0.000000 1.000000
vn 0.000000 0.000000 1.000000
vn 0.000000 0.000000 -1.000000
vn 0.000000 0.000000 -1.000000
vn 0.000000 0.000000 -1.000000
vn 0.000000 0.000000 -1.000000
vn 0.000000 -1.000000 0.000000
vn 0.000000 -1.000000 0.000000
vn 0.000000 -1.000000 0.000000
vn 0.000000 -1.000000 0.000000
vn 1.000000 0.000000 0.000000
vn 1.000000 0.000000 0.000000
vn 1.000000 0.000000 0.000000
vn 1.000000 0.000000 0.000000
vn -1.000000 0.000000 0.000000
vn -1.000000 0.000000 0.000000
vn -1.000000 0.000000 0.000000
vn -1.000000 0.000000 0.000000
vn 0.000000 0.000000 1.000000
vn 0.000000 0.000000 1.000000
vn 0.000000 0.000000 1.000000
vn 0.000000 0.000000 1.000000
vn 0.000000 0.000000 -1.000000
vn 0.000000 0.000000 -1.000000
vn 0.000000 0.000000 -1.000000
vn 0.000000 0.000000 -1.000000
vn 0.000000 -1.000000 0.000000
vn 0.000000 -1.000000 0.000000
vn 0.000000 -1.000000 0.000000
vn 0.000000 -1.000000 0.000000
vn -1.000000 0.000000 0.000000
vn -1.000000 0.000000 0.000000
vn -1.000000 0.000000 0.000000
vn -1.000000 0.000000 0.000000
vn 1.000000 0.000000 0.000000
vn 1.000000 0.000000 0.000000
vn 1.000000 0.000000 0.000000
vn 1.000000 0.000000 0.000000
vn 0.000000 0.000000 1.000000
vn 0.000000 0.000000 1.000000
vn 0.000000 0.000000 1.000000
vn 0.000000 0.000000 1.000000
vn 0.000000 0.000000 -1.000000
vn 0.000000 0.000000 -1.000000
vn 0.000000 0.000000 -1.000000
vn 0.000000 0.000000 -1.000000
vn 0.000000 -1.000000 0.000000
vn 0.000000 -1.000000 0.000000
vn 0.000000 -1.000000 0.000000
vn 0.000000 -1.000000 0.000000
vn -1.000000 0.000000 0.000000
vn -1.000000 0.000000 0.000000
vn -1.000000 0.000000 0.000000
vn -1.000000 0.000000 0.000000
vn 1.000000 0.000000 0.000000
vn 1.000000 0.000000 0.000000
vn 1.000000 0.000000 0.000000
vn 1.000000 0.000000 0.000000
f 8/10/1 5/4/2 10/11/3 11/5/4
f 12/12/5 9/6/6 4/7/7 2/8/8
f 3/1/9 6/9/10 7/2/11 1/3/12
f 6/9/13 5/4/14 8/10/15 7/2/16
f 10/11/17 9/6/18 12/12/19 11/5/20
f 20/13/21 17/14/22 22/15/23 23/16/24
f 24/17/25 21/18/26 16/19/27 14/20/28
f 15/21/29 18/22/30 19/23/31 13/24/32
f 18/22/33 17/14/34 20/13/35 19/23/36
f 22/15/37 21/18/38 24/17/39 23/16/40
f 31/25/41 32/26/42 33/27/43 34/28/44
f 25/29/45 27/30/46 28/31/47 26/32/48
f 35/33/49 34/28/50 33/27/51 36/34/52
f 29/35/53 26/32/54 28/31/55 30/36/56
f 37/37/57 38/38/58 44/39/59 43/40/60
f 38/38/61 37/41/62 39/42/63 40/43/64
f 40/43/65 39/44/66 41/45/67 42/46/68
f 42/46/68 41/45/67 47/47/69 48/48/70
f 43/40/60 44/39/59 46/49/71 45/50/72
f 45/51/73 46/49/74 48/52/75 47/53/76
f 38/38/77 40/43/78 32/54/79 31/55/80
f 40/43/81 42/46/82 33/56/83 32/54/84
f 44/39/85 38/38/86 31/55/87 34/57/88
f 46/49/89 44/39/85 34/57/88 35/58/90
f 42/46/82 48/48/91 36/59/92 33/56/83
f 48/52/93 46/49/94 35/58/95 36/60/96
f 49/61/97 50/62/98 52/63/99 51/64/100
f 50/65/101 49/66/102 53/67/103 54/68/104
f 51/64/100 52/63/99 58/69/105 57/70/106
f 54/71/107 53/72/108 55/73/109 56/74/110
f 56/74/110 55/73/109 59/75/111 60/76/112
f 57/77/113 58/78/114 60/79/115 59/80/116
f 53/72/117 25/29/118 26/32/119 55/73/120
f 27/30/121 49/61/122 51/64/123 28/31/124
f 27/81/125 25/82/126 53/67/127 49/66/128
f 59/75/129 55/73/120 26/32/119 29/35/130
f 30/36/131 28/31/124 51/64/123 57/70/132
f 30/83/133 57/77/134 59/80/135 29/84/136
f 50/85/137 54/86/138 39/42/139 37/41/140
f 54/87/138 56/88/141 41/45/142 39/44/139
f 52/89/143 50/90/137 37/37/140 43/40/144
f 58/91/145 52/89/143 43/40/144 45/50/146
f 56/88/141 60/92/147 47/47/148 41/45/142
f 60/93/147 58/94/145 45/51/146 47/53/148
f 68/95/149 65/96/150 70/97/151 71/98/152
f 72/99/153 69/100/154 64/101/155 62/102/156
f 63/103/157 66/104/158 67/105/159 61/106/160
f 66/104/161 65/96/162 68/95/163 67/105/164
f 70/97/165 69/100/166 72/99/167 71/98/168
f 73/107/169 74/108/170 76/109/171 75/110/172
f 77/111/173 78/112/174 80/113/175 79/114/176
f 79/114/177 80/113/178 74/115/179 73/116/180
f 74/108/181 80/117/182 78/118/183 76/109/184
f 79/119/185 73/107/186 75/110/187 77/120/188
f 81/121/189 82/122/190 84/123/191 83/124/192
f 85/125/193 86/126/194 88/127/195 87/128/196
f 87/128/197 88/127/198 82/129/199 81/130/200
f 82/122/201 88/131/202 86/132/203 84/123/204
f 87/133/205 81/121/206 83/124/207 85/134/208
f 89/135/209 91/136/210 92/137/211 90/138/212
f 93/139/213 95/140/214 96/141/215 94/142/216
f 95/140/217 89/143/218 90/144/219 96/141/220
f 90/138/221 92/137/222 94/145/223 96/146/224
f 95/147/225 93/148/226 91/136/227 89/135/228
f 97/149/229 99/150/230 100/151/231 98/152/232
f 101/153/233 103/154/234 104/155/235 102/156/236
f 103/154/237 97/157/238 98/158/239 104/155/240
f 98/152/241 100/151/242 102/159/243 104/160/244
f 103/161/245 101/162/246 99/150/247 97/149/248
