# This file uses meters as units for non-parametric coordinates.

v 56.040932 74.872826 71.581085
v 56.040932 74.872826 7.681530
v -56.040928 74.872826 71.581085
v -56.040928 74.872826 7.681530
v -56.040928 82.356895 71.581085
v -56.040928 82.356895 7.681530
v 56.040932 82.356895 71.581085
v 56.040932 82.356895 7.681530
v 56.040928 9.775146 71.581085
v 56.040928 9.775146 7.681530
v 56.040928 152.006836 71.581085
v 56.040928 152.006836 7.681530
v 63.524998 152.006836 71.581085
v 63.524998 152.006836 7.681530
v 63.524998 9.775146 71.581085
v 63.524998 9.775146 7.681530
v -56.040936 9.775146 71.581085
v -56.040928 9.775146 7.681534
v -56.040936 152.006836 71.581085
v -56.040928 152.006836 7.681534
v -63.525005 152.006836 71.581085
v -63.524998 152.006836 7.681530
v -63.525005 9.775146 71.581085
v -63.524998 9.775146 7.681530
v 144.766754 0.000000 79.065140
v 0.000000 0.000000 79.065140
v 144.766754 161.781921 79.065140
v 0.000000 161.781921 79.065140
v 144.766754 161.781921 0.000000
v 0.000000 161.781921 0.000000
v 144.766754 0.000000 0.000000
v 0.000000 0.000000 0.000000
v -144.766754 0.000000 79.065140
v -144.766754 161.781921 79.065140
v -144.766754 161.781921 0.000000
v -144.766754 0.000000 0.000000
v 0.000000 152.006836 79.065140
v 0.000000 152.006836 0.000000
v 0.000000 9.775146 0.000000
v 0.000000 9.775146 79.065140
v 134.929916 9.775146 0.000000
v 134.929916 152.006836 0.000000
v 134.929916 152.006836 79.065140
v 134.929916 9.775146 79.065140
v -134.929916 9.775146 79.065140
v -134.929916 152.006836 79.065140
v -134.929916 152.006836 0.000000
v -134.929916 9.775146 0.000000
v 0.000000 9.775146 7.681532
v 0.000000 152.006836 7.681532
v 134.929916 9.775146 7.681532
v 134.929916 152.006836 7.681532
v -134.929916 9.775146 7.681532
v -134.929916 152.006836 7.681532
vt 0.737794 0.074593
vt 0.737794 0.113803
vt 0.641854 0.074593
vt 0.641854 0.113803
vt 0.737794 0.074593
vt 0.737794 0.113803
vt 0.641854 0.074593
vt 0.641854 0.113803
vt 0.737794 0.074593
vt 0.737794 0.113803
vt 0.737794 0.113803
vt 0.641854 0.113803
vt 0.737794 0.074593
vt 0.641854 0.074593
vt 0.641854 0.113803
vt 0.737794 0.113803
vt 0.737794 0.074593
vt 0.737794 0.113803
vt 0.641854 0.074593
vt 0.641854 0.113803
vt 0.737794 0.074593
vt 0.737794 0.113803
vt 0.737794 0.113803
vt 0.641854 0.113803
vt 0.737794 0.074593
vt 0.737794 0.113803
vt 0.641854 0.113803
vt 0.641854 0.074593
vt 0.737794 0.113803
vt 0.737794 0.074593
vt 0.641854 0.113803
vt 0.641854 0.074593
vt 0.737794 0.113803
vt 0.737794 0.074593
vt 0.737794 0.113803
vt 0.641854 0.113803
vt 0.641854 0.074593
vt 0.737794 0.074593
vt 0.737794 0.113803
vt 0.641854 0.113803
vt 0.641854 0.074593
vt 0.647651 0.077455
vt 0.731998 0.077455
vt 0.737794 0.074593
vt 0.737794 0.113803
vt 0.641854 0.113803
vt 0.737794 0.074593
vt 0.737794 0.113803
vt 0.641854 0.113803
vt 0.731998 0.077455
vt 0.737794 0.074593
vt 0.737794 0.113803
vt 0.731998 0.113803
vt 0.737794 0.074593
vt 0.641854 0.074593
vt 0.737794 0.074593
vt 0.641854 0.074593
vt 0.737794 0.113803
vt 0.641854 0.113803
vt 0.731998 0.077455
vt 0.731998 0.113803
vt 0.647651 0.077455
vt 0.647651 0.113803
vt 0.647651 0.113803
vt 0.647651 0.113803
vt 0.731998 0.113803
vt 0.731998 0.077455
vt 0.647651 0.077455
vt 0.731998 0.077455
vt 0.647651 0.077455
vt 0.647651 0.077455
vt 0.647651 0.077455
vt 0.731998 0.077455
vt 0.737798 0.073857
vt 0.638285 0.073857
vt 0.638285 0.114528
vt 0.737798 0.114528
vt 0.737798 0.073857
vt 0.737798 0.114528
vt 0.638285 0.073857
vt 0.638285 0.114528
vt 0.638285 0.073857
vt 0.638285 0.114528
vt 0.737798 0.073857
vt 0.737798 0.114528
vn 0.000000 -1.000000 0.000000
vn 0.000000 -1.000000 0.000000
vn 0.000000 -1.000000 0.000000
vn 0.000000 -1.000000 0.000000
vn -1.000000 0.000000 0.000000
vn -1.000000 0.000000 0.000000
vn -1.000000 0.000000 0.000000
vn -1.000000 0.000000 0.000000
vn 0.000000 1.000000 0.000000
vn 0.000000 1.000000 0.000000
vn 0.000000 1.000000 0.000000
vn 0.000000 1.000000 0.000000
vn 1.000000 0.000000 0.000000
vn 1.000000 0.000000 0.000000
vn 1.000000 0.000000 0.000000
vn 1.000000 0.000000 0.000000
vn 0.000000 0.000000 1.000000
vn 0.000000 0.000000 1.000000
vn 0.000000 0.000000 1.000000
vn 0.000000 0.000000 1.000000
vn -1.000000 0.000000 0.000000
vn -1.000000 0.000000 0.000000
vn -1.000000 0.000000 0.000000
vn -1.000000 0.000000 0.000000
vn 0.000000 1.000000 0.000000
vn 0.000000 1.000000 0.000000
vn 0.000000 1.000000 0.000000
vn 0.000000 1.000000 0.000000
vn 1.000000 0.000000 0.000000
vn 1.000000 0.000000 0.000000
vn 1.000000 0.000000 0.000000
vn 1.000000 0.000000 0.000000
vn 0.000000 -1.000000 0.000000
vn 0.000000 -1.000000 0.000000
vn 0.000000 -1.000000 0.000000
vn 0.000000 -1.000000 0.000000
vn 0.000000 0.000000 1.000000
vn 0.000000 0.000000 1.000000
vn 0.000000 0.000000 1.000000
vn 0.000000 0.000000 1.000000
vn 1.000000 0.000000 0.000000
vn 1.000000 0.000000 0.000000
vn 1.000000 0.000000 0.000000
vn 1.000000 0.000000 0.000000
vn 0.000000 1.000000 0.000000
vn 0.000000 1.000000 0.000000
vn 0.000000 1.000000 0.000000
vn 0.000000 1.000000 0.000000
vn -1.000000 0.000000 -0.000000
vn -1.000000 0.000000 -0.000000
vn -1.000000 0.000000 -0.000000
vn -1.000000 0.000000 -0.000000
vn 0.000000 -1.000000 0.000000
vn 0.000000 -1.000000 0.000000
vn 0.000000 -1.000000 0.000000
vn 0.000000 -1.000000 0.000000
vn 0.000000 0.000000 1.000000
vn 0.000000 0.000000 1.000000
vn 0.000000 0.000000 1.000000
vn 0.000000 0.000000 1.000000
vn 0.000000 1.000000 0.000000
vn 0.000000 1.000000 0.000000
vn 0.000000 1.000000 0.000000
vn 0.000000 1.000000 0.000000
vn 0.000000 0.000000 -1.000000
vn 0.000000 0.000000 -1.000000
vn 0.000000 0.000000 -1.000000
vn 0.000000 0.000000 -1.000000
vn 0.000000 -1.000000 0.000000
vn 0.000000 -1.000000 0.000000
vn 0.000000 -1.000000 0.000000
vn 0.000000 -1.000000 0.000000
vn 1.000000 0.000000 0.000000
vn 1.000000 0.000000 0.000000
vn 1.000000 0.000000 0.000000
vn 1.000000 0.000000 0.000000
vn 0.000000 0.000000 1.000000
vn 0.000000 0.000000 1.000000
vn 0.000000 0.000000 1.000000
vn 0.000000 0.000000 1.000000
vn 0.000000 1.000000 0.000000
vn 0.000000 1.000000 0.000000
vn 0.000000 1.000000 0.000000
vn 0.000000 1.000000 0.000000
vn 0.000000 -1.000000 0.000000
vn 0.000000 -1.000000 0.000000
vn 0.000000 -1.000000 0.000000
vn 0.000000 -1.000000 0.000000
vn -1.000000 0.000000 0.000000
vn -1.000000 0.000000 0.000000
vn -1.000000 0.000000 0.000000
vn -1.000000 0.000000 0.000000
vn 0.000000 0.000000 -1.000000
vn 0.000000 0.000000 -1.000000
vn 0.000000 0.000000 -1.000000
vn 0.000000 0.000000 -1.000000
vn 0.000000 0.000000 -1.000000
vn 0.000000 0.000000 -1.000000
vn -0.000000 0.000000 1.000000
vn -0.000000 0.000000 1.000000
vn 0.000000 0.000000 1.000000
vn 0.000000 0.000000 1.000000
vn 0.000000 0.000000 -1.000000
vn 0.000000 0.000000 1.000000
vn 0.000000 0.000000 1.000000
vn 0.000000 0.000000 1.000000
vn 0.000000 0.000000 1.000000
vn 0.000000 0.000000 1.000000
vn 0.000000 0.000000 1.000000
vn 0.000000 0.000000 1.000000
vn 0.000000 0.000000 1.000000
vn 0.000000 0.000000 -1.000000
vn 0.000000 0.000000 -1.000000
vn 0.000000 0.000000 1.000000
vn 0.000000 0.000000 1.000000
vn 0.000000 0.000000 1.000000
vn 0.000000 0.000000 1.000000
vn 0.000000 0.000000 1.000000
vn -0.000000 0.000000 1.000000
vn -0.000000 0.000000 1.000000
vn 0.000000 0.000000 1.000000
vn 0.000000 0.000000 -1.000000
vn 0.000000 0.000000 -1.000000
vn 0.000000 0.000000 -1.000000
vn 0.000000 1.000000 0.000000
vn 0.000000 1.000000 0.000000
vn 0.000000 1.000000 0.000000
vn 0.000000 1.000000 0.000000
vn -1.000000 0.000000 0.000000
vn -1.000000 0.000000 0.000000
vn -1.000000 0.000000 0.000000
vn -1.000000 0.000000 0.000000
vn 0.000000 -1.000000 0.000000
vn 0.000000 -1.000000 0.000000
vn 0.000000 -1.000000 0.000000
vn 0.000000 -1.000000 0.000000
vn 0.000000 1.000000 0.000000
vn 0.000000 1.000000 0.000000
vn 0.000000 1.000000 0.000000
vn 0.000000 1.000000 0.000000
vn 0.000000 -1.000000 0.000000
vn 0.000000 -1.000000 0.000000
vn 0.000000 -1.000000 0.000000
vn 0.000000 -1.000000 0.000000
vn 1.000000 0.000000 0.000000
vn 1.000000 0.000000 0.000000
vn 1.000000 0.000000 0.000000
vn 1.000000 0.000000 0.000000
f 1/1/1 3/3/2 4/4/3 2/2/4
f 3/3/5 5/5/6 6/6/7 4/4/8
f 5/5/9 7/7/10 8/8/11 6/6/12
f 7/7/13 1/9/14 2/10/15 8/8/16
f 7/11/17 5/12/18 3/3/19 1/1/20
f 9/13/21 11/14/22 12/15/23 10/16/24
f 11/14/25 13/17/26 14/18/27 12/15/28
f 13/17/29 15/19/30 16/20/31 14/18/32
f 15/19/33 9/21/34 10/22/35 16/20/36
f 15/23/37 13/24/38 11/14/39 9/13/40
f 17/25/41 18/26/42 20/27/43 19/28/44
f 19/28/45 20/27/46 22/29/47 21/30/48
f 21/30/49 22/29/50 24/31/51 23/32/52
f 23/32/53 24/31/54 18/33/55 17/34/56
f 23/35/57 17/25/58 19/28/59 21/36/60
f 27/37/61 29/38/62 30/39/63 28/40/64
f 29/38/65 31/41/66 41/42/67 42/43/68
f 31/41/69 25/44/70 26/45/71 32/46/72
f 25/47/73 31/48/74 29/49/75 27/37/76
f 45/50/77 33/51/78 26/52/79 40/53/80
f 35/54/81 34/55/82 28/40/83 30/39/84
f 33/56/85 36/57/86 32/46/87 26/45/88
f 36/58/89 33/51/90 34/55/91 35/59/92
f 47/60/93 35/54/94 30/39/95 38/61/96
f 29/38/65 42/43/68 38/61/97 30/39/98
f 43/62/99 27/37/100 28/40/101 37/63/102
f 41/42/67 39/64/103 38/61/97 42/43/68
f 50/65/104 49/66/105 51/67/106 52/68/107
f 53/69/108 49/66/109 50/65/110 54/70/111
f 38/61/96 39/64/112 48/71/113 47/60/93
f 34/55/114 46/72/115 37/63/116 28/40/117
f 34/55/114 33/51/78 45/50/77 46/72/115
f 26/52/118 25/47/119 44/73/120 40/53/121
f 25/47/119 27/37/100 43/62/99 44/73/120
f 41/42/67 31/41/66 32/46/122 39/64/103
f 36/57/123 48/71/113 39/64/112 32/46/124
f 36/57/123 35/54/94 47/60/93 48/71/113
f 40/74/125 44/75/126 51/76/127 49/77/128
f 44/75/129 43/78/130 52/79/131 51/76/132
f 43/78/133 37/80/134 50/81/135 52/79/136
f 45/82/137 40/74/138 49/77/139 53/83/140
f 37/80/141 46/84/142 54/85/143 50/81/144
f 46/84/145 45/82/146 53/83/147 54/85/148
