# This file uses meters as units for non-parametric coordinates.

v 129.165741 148.290970 64.582642
v 129.165741 148.290970 15.629547
v 131.019958 148.290970 64.582642
v 131.019958 148.290970 15.629547
v 131.019958 30.678965 64.582642
v 131.019958 30.678965 15.629555
v 129.165741 30.678963 64.582642
v 129.165741 30.678963 15.629555
v -129.165741 148.290970 64.582649
v -129.165741 148.290970 15.629555
v -131.019958 148.290970 64.582649
v -131.019958 148.290970 15.629555
v -131.019958 30.678965 64.582649
v -131.019958 30.678965 15.629555
v -129.165741 30.678965 64.582649
v -129.165741 30.678965 15.629555
v -128.634140 148.714584 4.641479
v 128.634140 148.714584 4.641479
v -128.634140 148.714584 2.787276
v 128.634140 148.714584 2.787276
v -128.634140 24.293983 2.787276
v 128.634140 24.293983 2.787276
v -128.634140 24.293983 4.641479
v 128.634140 24.293983 4.641479
vt 0.569297 0.929164
vt 0.569297 0.911952
vt 0.586509 0.911952
vt 0.586509 0.929164
vt 0.569297 0.929164
vt 0.569297 0.911952
vt 0.586509 0.911952
vt 0.586509 0.929164
vt 0.569297 0.929164
vt 0.586509 0.929164
vt 0.586509 0.911952
vt 0.569297 0.911952
vt 0.569297 0.929164
vt 0.586509 0.929164
vt 0.586509 0.911952
vt 0.569297 0.911952
vt 0.586509 0.929164
vt 0.569297 0.929164
vt 0.586509 0.911952
vt 0.569297 0.911952
vt 0.586509 0.929164
vt 0.569297 0.929164
vt 0.586509 0.911952
vt 0.569297 0.911952
vn 1.000000 0.000000 0.000000
vn 1.000000 0.000000 0.000000
vn 1.000000 0.000000 0.000000
vn 1.000000 0.000000 0.000000
vn -1.000000 0.000000 0.000000
vn -1.000000 0.000000 0.000000
vn -1.000000 0.000000 0.000000
vn -1.000000 0.000000 0.000000
vn -1.000000 0.000000 0.000000
vn -1.000000 0.000000 0.000000
vn -1.000000 0.000000 0.000000
vn -1.000000 0.000000 0.000000
vn 1.000000 0.000000 0.000000
vn 1.000000 0.000000 0.000000
vn 1.000000 0.000000 0.000000
vn 1.000000 0.000000 0.000000
vn 0.000000 0.000000 -1.000000
vn 0.000000 0.000000 -1.000000
vn 0.000000 0.000000 -1.000000
vn 0.000000 0.000000 -1.000000
vn 0.000000 -1.000000 0.000000
vn 0.000000 -1.000000 0.000000
vn 0.000000 -1.000000 0.000000
vn 0.000000 -1.000000 0.000000
vn 0.000000 0.000000 1.000000
vn 0.000000 0.000000 1.000000
vn 0.000000 0.000000 1.000000
vn 0.000000 0.000000 1.000000
f 3/1/1 5/2/2 6/3/3 4/4/4
f 7/5/5 1/6/6 2/7/7 8/8/8
f 11/9/9 12/10/10 14/11/11 13/12/12
f 15/13/13 16/14/14 10/15/15 9/16/16
f 19/18/17 20/17/18 22/19/19 21/20/20
f 21/20/21 22/19/22 24/21/23 23/22/24
f 23/22/25 24/21/26 18/23/27 17/24/28
