# This file uses meters as units for non-parametric coordinates.

v 2.904911 -4.108165 -2.904911
v 0.000000 -4.108165 -4.108165
v 0.000000 -4.108165 4.108165
v 2.904911 -4.108165 2.904911
v 4.108165 -4.108165 0.000000
v 2.904911 4.108165 -2.904911
v 0.000000 4.108165 -4.108165
v 0.000000 4.108165 4.108165
v 2.904911 4.108165 2.904911
v 4.108165 4.108165 0.000000
v 0.000000 -4.108165 0.000000
v 0.000000 4.108165 0.000000
vt 0.686026 0.014092
vt 0.715115 0.013104
vt 0.715115 0.047440
vt 0.686026 0.048428
vt 0.714238 0.012607
vt 0.684694 0.013740
vt 0.684694 0.048076
vt 0.714238 0.046943
vt 0.643496 0.014355
vt 0.643496 0.048691
vt 0.652814 0.012855
vt 0.652814 0.047191
vn 0.707107 0.000000 -0.707107
vn 0.382683 0.000000 -0.923880
vn 0.382683 0.000000 -0.923880
vn 0.707107 0.000000 -0.707107
vn 0.382683 0.000000 0.923880
vn 0.707107 0.000000 0.707107
vn 0.707107 0.000000 0.707107
vn 0.382683 0.000000 0.923880
vn 1.000000 0.000000 0.000000
vn 1.000000 0.000000 0.000000
vn 0.000000 -1.000000 0.000000
vn 0.000000 -1.000000 0.000000
vn 0.000000 -1.000000 0.000000
vn 0.000000 -1.000000 0.000000
vn 0.000000 -1.000000 0.000000
vn 0.000000 -1.000000 0.000000
vn 0.000000 1.000000 0.000000
vn 0.000000 1.000000 0.000000
vn 0.000000 1.000000 0.000000
vn 0.000000 1.000000 0.000000
vn 0.000000 1.000000 0.000000
vn 0.000000 1.000000 0.000000
vn -1.000000 0.000000 0.000000
vn -1.000000 0.000000 0.000000
vn -1.000000 0.000000 0.000000
vn -1.000000 0.000000 0.000000
vn -1.000000 0.000000 0.000000
vn -1.000000 0.000000 0.000000
f 1/1/1 2/2/2 7/3/3 6/4/4
f 3/5/5 4/6/6 9/7/7 8/8/8
f 4/6/6 5/9/9 10/10/10 9/7/7
f 5/9/9 1/1/1 6/4/4 10/10/10
f 2/2/11 1/1/12 11/11/13
f 4/6/14 3/5/15 11/11/13
f 5/9/16 4/6/14 11/11/13
f 1/1/12 5/9/16 11/11/13
f 6/4/17 7/3/18 12/12/19
f 8/8/20 9/7/21 12/12/19
f 9/7/21 10/10/22 12/12/19
f 10/10/22 6/4/17 12/12/19
f 11/11/23 12/12/24 7/3/25 2/2/26
f 8/8/27 12/12/24 11/11/23 3/5/28
