# This file uses meters as units for non-parametric coordinates.

v -86.492752 85.071587 13.820340
v -86.492752 93.612526 13.820340
v 86.492752 85.071587 13.820340
v 86.492752 93.612526 13.820340
v 86.492752 86.779594 77.630737
v 86.492752 85.071587 75.922714
v -86.492752 85.071587 75.922714
v -86.492752 86.779594 77.630737
v 86.492752 93.612526 75.922714
v 86.492752 91.904518 77.630737
v -86.492752 91.904518 77.630737
v -86.492752 93.612526 75.922714
v -3.852876 154.752594 13.820340
v 3.852876 154.752594 13.820340
v -3.852876 91.904518 13.820340
v 3.852876 91.904518 13.820340
v -1.926630 91.904518 77.630737
v -3.852876 91.904518 75.704491
v -3.852876 154.752594 75.704491
v -1.926630 154.752594 77.630737
v 3.852876 91.904518 75.704491
v 1.926630 91.904518 77.630737
v 1.926630 154.752594 77.630737
v 3.852876 154.752594 75.704491
v -94.483643 356.509247 0.000010
v -94.483643 186.415894 0.000010
v 94.483887 356.509247 0.000010
v 94.483887 186.415894 0.000010
v -94.483643 16.322525 0.000010
v 94.483887 16.322525 0.000010
v 84.259949 346.667145 13.820340
v -84.259399 346.667145 13.820340
v -84.259399 186.415894 13.820340
v 84.259949 186.415894 13.820340
v 84.259949 26.164673 13.820340
v -84.259399 26.164673 13.820340
v 86.493164 348.900269 77.630737
v 84.259949 346.667145 75.397598
v -86.492737 348.900269 77.630737
v -84.259399 346.667145 75.397598
v -86.492737 186.415894 77.630737
v -84.259399 186.415894 75.397598
v 86.493164 186.415894 77.630737
v 84.259949 186.415894 75.397598
v 86.493164 23.931534 77.630737
v 84.259949 26.164673 75.397598
v -86.492737 23.931534 77.630737
v -84.259399 26.164673 75.397598
v 94.483887 356.509247 76.078278
v 92.931458 354.956787 77.630737
v 94.483887 186.415894 76.078278
v 92.931458 186.415894 77.630737
v -94.483643 356.509247 76.078278
v -92.931213 354.956787 77.630737
v -94.483643 186.415894 76.078278
v -92.931213 186.415894 77.630737
v 94.483887 16.322525 76.078278
v 92.931458 17.874985 77.630737
v -94.483643 16.322525 76.078278
v -92.931213 17.874985 77.630737
v -3.852876 86.779602 13.820340
v 3.852876 86.779602 13.820340
v -3.852876 23.931530 13.820340
v 3.852876 23.931530 13.820340
v -1.926630 23.931530 77.630737
v -3.852876 23.931530 75.704491
v -3.852876 86.779602 75.704491
v -1.926630 86.779602 77.630737
v 3.852876 23.931530 75.704491
v 1.926630 23.931530 77.630737
v 1.926630 86.779602 77.630737
v 3.852876 86.779602 75.704491
v -86.492760 224.621460 13.820340
v -86.492760 230.879456 13.820340
v 86.492752 224.621460 13.820340
v 86.492752 230.879456 13.820340
v 86.492752 225.872925 73.311516
v 86.492752 224.621460 71.603493
v -86.492760 224.621460 71.603493
v -86.492760 225.872925 73.311516
v 86.492752 230.879456 71.603493
v 86.492752 229.627960 73.311516
v -86.492760 229.627960 73.311516
v -86.492760 230.879456 71.603493
v -86.492760 284.691345 13.820340
v -86.492760 290.949310 13.820340
v 86.492752 284.691345 13.820340
v 86.492752 290.949310 13.820340
v 86.492752 285.942780 73.311516
v 86.492752 284.691345 71.603493
v -86.492760 284.691345 71.603493
v -86.492760 285.942780 73.311516
v 86.492752 290.949310 71.603493
v 86.492752 289.697845 73.311516
v -86.492760 289.697845 73.311516
v -86.492760 290.949310 71.603493
v -86.492760 153.044571 13.820340
v -86.492760 161.585526 13.820340
v 86.492752 153.044571 13.820340
v 86.492752 161.585526 13.820340
v 86.492752 154.752579 77.630737
v 86.492752 153.044571 75.922714
v -86.492760 153.044571 75.922714
v -86.492760 154.752579 77.630737
v 86.492752 161.585526 75.922714
v 86.492752 159.877502 77.630737
v -86.492760 159.877502 77.630737
v -86.492760 161.585526 75.922714
v -91.296646 0.000000 14.767534
v -82.167526 0.000000 14.767534
v -91.296646 16.322525 14.767534
v -82.167526 16.322525 14.767534
v -91.296646 16.322525 5.638419
v -82.167526 16.322525 5.638419
v -91.296646 0.000000 5.638419
v -82.167526 0.000000 5.638419
v -91.296646 0.000000 74.449554
v -82.167526 0.000000 74.449554
v -91.296646 16.322525 74.449554
v -82.167526 16.322525 74.449554
v -91.296646 16.322525 65.320435
v -82.167526 16.322525 65.320435
v -91.296646 0.000000 65.320435
v -82.167526 0.000000 65.320435
v 91.296646 0.000000 14.767536
v 82.167534 0.000000 14.767536
v 91.296646 16.322525 14.767536
v 82.167534 16.322525 14.767536
v 91.296646 16.322525 5.638416
v 82.167534 16.322525 5.638416
v 91.296646 0.000000 5.638416
v 82.167534 0.000000 5.638416
v 91.296646 0.000000 74.449554
v 82.167534 0.000000 74.449554
v 91.296646 16.322525 74.449554
v 82.167534 16.322525 74.449554
v 91.296646 16.322525 65.320435
v 82.167534 16.322525 65.320435
v 91.296646 0.000000 65.320435
v 82.167534 0.000000 65.320435
vt 0.739278 0.181216
vt 0.642771 0.135372
vt 0.642771 0.181216
vt 0.739278 0.143532
vt 0.642771 0.171796
vt 0.739278 0.179955
vt 0.739278 0.134112
vt 0.642771 0.134112
vt 0.739278 0.135372
vt 0.642771 0.143532
vt 0.739278 0.171796
vt 0.642771 0.179955
vt 0.642771 0.145887
vt 0.739278 0.145887
vt 0.739278 0.169441
vt 0.642771 0.169441
vt 0.642771 0.179794
vt 0.739278 0.179794
vt 0.739278 0.134112
vt 0.642771 0.134112
vt 0.739278 0.181216
vt 0.739278 0.135534
vt 0.642771 0.135534
vt 0.642771 0.181216
vt 0.739278 0.134112
vt 0.642771 0.134112
vt 0.642771 0.181216
vt 0.739278 0.181216
vt 0.739278 0.134112
vt 0.642771 0.134112
vt 0.642771 0.181216
vt 0.739278 0.181216
vt 0.739278 0.134112
vt 0.642771 0.134112
vt 0.739278 0.134112
vt 0.642771 0.134112
vt 0.731539 0.139298
vt 0.733556 0.136963
vt 0.643272 0.136963
vt 0.643272 0.139291
vt 0.735283 0.139441
vt 0.644911 0.139441
vt 0.643386 0.136963
vt 0.641168 0.139297
vt 0.732768 0.139291
vt 0.732768 0.136963
vt 0.642814 0.139298
vt 0.642814 0.136963
vt 0.732993 0.136963
vt 0.730924 0.139298
vt 0.734713 0.139441
vt 0.643151 0.136963
vt 0.641344 0.139441
vt 0.643386 0.179279
vt 0.733556 0.179279
vt 0.732768 0.179279
vt 0.643272 0.179279
vt 0.732993 0.179279
vt 0.642814 0.179279
vt 0.643151 0.179279
vt 0.737348 0.134112
vt 0.739278 0.134542
vt 0.739278 0.181216
vt 0.737348 0.181216
vt 0.738485 0.134112
vt 0.739278 0.135054
vt 0.642771 0.135053
vt 0.643564 0.134112
vt 0.739278 0.134542
vt 0.737348 0.134112
vt 0.642771 0.134542
vt 0.644701 0.134112
vt 0.644701 0.181216
vt 0.642771 0.181216
vt 0.644701 0.134112
vt 0.642771 0.134542
vt 0.739278 0.135054
vt 0.738485 0.134112
vt 0.643564 0.134112
vt 0.642771 0.135053
vt 0.739278 0.181216
vt 0.642771 0.181216
vt 0.739278 0.181216
vt 0.642771 0.181216
vt 0.740117 0.150323
vt 0.648883 0.150317
vt 0.634829 0.150428
vt 0.732768 0.150426
vt 0.643272 0.150426
vt 0.725702 0.150428
vt 0.724940 0.150428
vt 0.642857 0.150428
vt 0.636271 0.150323
vt 0.739538 0.150317
vt 0.642771 0.145887
vt 0.739278 0.145887
vt 0.739278 0.169441
vt 0.642771 0.169441
vt 0.642771 0.179794
vt 0.739278 0.179794
vt 0.739278 0.134112
vt 0.642771 0.134112
vt 0.739278 0.181216
vt 0.739278 0.135534
vt 0.642771 0.135534
vt 0.642771 0.181216
vt 0.642771 0.143532
vt 0.739278 0.143532
vt 0.739278 0.171796
vt 0.642771 0.171796
vt 0.642771 0.179955
vt 0.739278 0.179955
vt 0.739278 0.134112
vt 0.642771 0.134112
vt 0.739278 0.181216
vt 0.739278 0.135372
vt 0.642771 0.135372
vt 0.642771 0.181216
vt 0.642771 0.143532
vt 0.739278 0.143532
vt 0.739278 0.171796
vt 0.642771 0.171796
vt 0.642771 0.179955
vt 0.739278 0.179955
vt 0.739278 0.134112
vt 0.642771 0.134112
vt 0.739278 0.181216
vt 0.739278 0.135372
vt 0.642771 0.135372
vt 0.642771 0.181216
vt 0.642771 0.143532
vt 0.739278 0.143532
vt 0.739278 0.171796
vt 0.642771 0.171796
vt 0.642771 0.179955
vt 0.739278 0.179955
vt 0.739278 0.134112
vt 0.642771 0.134112
vt 0.739278 0.181216
vt 0.739278 0.135372
vt 0.642771 0.135372
vt 0.642771 0.181216
vt 0.737794 0.135080
vt 0.737794 0.180214
vt 0.641854 0.180214
vt 0.641854 0.135080
vt 0.737794 0.135079
vt 0.737794 0.180214
vt 0.641854 0.180214
vt 0.641854 0.135080
vt 0.737794 0.180214
vt 0.737794 0.135080
vt 0.737794 0.135080
vt 0.641854 0.135080
vt 0.737794 0.180214
vt 0.641854 0.180214
vt 0.737794 0.135080
vt 0.737794 0.180214
vt 0.641854 0.180214
vt 0.641854 0.135080
vt 0.737794 0.135079
vt 0.737794 0.180214
vt 0.641854 0.180214
vt 0.641854 0.135080
vt 0.737794 0.180214
vt 0.737794 0.135080
vt 0.737794 0.135080
vt 0.641854 0.135080
vt 0.737794 0.180214
vt 0.641854 0.180214
vt 0.737794 0.135080
vt 0.641854 0.135080
vt 0.641854 0.180214
vt 0.737794 0.180214
vt 0.737794 0.135079
vt 0.641854 0.135080
vt 0.641854 0.180214
vt 0.737794 0.180214
vt 0.737794 0.135080
vt 0.737794 0.180214
vt 0.641854 0.135080
vt 0.737794 0.135080
vt 0.737794 0.180214
vt 0.641854 0.180214
vt 0.737794 0.135080
vt 0.641854 0.135080
vt 0.641854 0.180214
vt 0.737794 0.180214
vt 0.737794 0.135079
vt 0.641854 0.135080
vt 0.641854 0.180214
vt 0.737794 0.180214
vt 0.737794 0.135080
vt 0.737794 0.180214
vt 0.641854 0.135080
vt 0.737794 0.135080
vt 0.737794 0.180214
vt 0.641854 0.180214
vn 0.000000 0.000000 1.000000
vn 0.000000 0.000000 1.000000
vn 0.000000 0.000000 1.000000
vn 0.000000 0.000000 1.000000
vn 0.000000 1.000000 0.000000
vn 0.000000 1.000000 0.000000
vn 0.000000 1.000000 0.000000
vn 0.000000 1.000000 0.000000
vn 0.000000 -1.000000 0.000000
vn 0.000000 -1.000000 0.000000
vn 0.000000 -1.000000 0.000000
vn 0.000000 -1.000000 0.000000
vn 0.000000 -0.707110 0.707104
vn 0.000000 -0.707110 0.707104
vn 0.000000 -0.707110 0.707104
vn 0.000000 -0.707110 0.707104
vn 0.000000 0.707110 0.707104
vn 0.000000 0.707110 0.707104
vn 0.000000 0.707110 0.707104
vn 0.000000 0.707110 0.707104
vn 0.000000 0.000000 1.000000
vn 0.000000 0.000000 1.000000
vn 0.000000 0.000000 1.000000
vn 0.000000 0.000000 1.000000
vn 1.000000 0.000000 0.000000
vn 1.000000 0.000000 0.000000
vn 1.000000 0.000000 0.000000
vn 1.000000 0.000000 0.000000
vn -1.000000 0.000000 0.000000
vn -1.000000 0.000000 0.000000
vn -1.000000 0.000000 0.000000
vn -1.000000 0.000000 0.000000
vn -0.707107 0.000000 0.707106
vn -0.707107 0.000000 0.707106
vn -0.707107 0.000000 0.707106
vn -0.707107 0.000000 0.707106
vn 0.707107 0.000000 0.707106
vn 0.707107 0.000000 0.707106
vn 0.707107 0.000000 0.707106
vn 0.707107 0.000000 0.707106
vn 0.000000 0.000000 1.000000
vn 0.000000 0.000000 1.000000
vn 0.000000 0.000000 1.000000
vn 0.000000 0.000000 1.000000
vn 0.000000 0.000000 -1.000000
vn 0.000000 0.000000 -1.000000
vn 0.000000 0.000000 -1.000000
vn 0.000000 0.000000 -1.000000
vn 0.000000 0.000000 1.000000
vn 0.000000 0.000000 1.000000
vn 0.000000 0.000000 1.000000
vn 0.000000 0.000000 1.000000
vn 0.000000 0.000000 -1.000000
vn 0.000000 0.000000 -1.000000
vn 0.000000 0.000000 -1.000000
vn 0.000000 0.000000 -1.000000
vn -0.707095 0.000000 0.707118
vn -0.707095 0.000000 0.707118
vn -0.707094 0.000000 0.707119
vn -0.707094 0.000000 0.707119
vn 0.000000 -0.707108 0.707105
vn 0.000000 -0.707108 0.707105
vn 0.000000 -0.707108 0.707105
vn 0.000000 -0.707108 0.707105
vn 0.707076 0.000000 0.707138
vn 0.707076 0.000000 0.707137
vn 0.707075 0.000000 0.707138
vn 0.707075 0.000000 0.707138
vn 0.707074 0.000000 0.707139
vn 0.707074 0.000000 0.707139
vn -0.707093 0.000000 0.707120
vn -0.707094 0.000000 0.707120
vn 0.000000 0.707107 0.707107
vn 0.000000 0.707107 0.707107
vn 0.000000 0.707107 0.707107
vn 0.000000 0.707107 0.707107
vn 0.000000 -1.000000 0.000000
vn 0.000000 -1.000000 0.000000
vn 0.000000 -1.000000 0.000000
vn 0.000000 -1.000000 0.000000
vn 1.000000 0.000000 0.000000
vn 1.000000 0.000000 0.000000
vn 1.000000 0.000000 0.000000
vn 1.000000 0.000000 0.000000
vn -1.000000 0.000000 0.000000
vn -1.000000 0.000000 0.000000
vn -1.000000 0.000000 0.000000
vn -1.000000 0.000000 0.000000
vn -1.000000 0.000000 0.000000
vn -1.000000 0.000000 0.000000
vn 1.000000 0.000000 0.000000
vn 1.000000 0.000000 0.000000
vn 0.000000 1.000000 0.000000
vn 0.000000 1.000000 0.000000
vn 0.000000 1.000000 0.000000
vn 0.000000 1.000000 0.000000
vn 0.707114 0.000000 0.707099
vn 0.707114 0.000000 0.707099
vn 0.707114 0.000000 0.707099
vn 0.707114 0.000000 0.707099
vn 0.000000 0.707108 0.707105
vn 0.000000 0.707108 0.707105
vn 0.000000 0.707108 0.707105
vn 0.000000 0.707108 0.707105
vn 0.707114 0.000000 0.707099
vn 0.707114 0.000000 0.707099
vn -0.707114 0.000000 0.707099
vn -0.707114 0.000000 0.707099
vn -0.707114 0.000000 0.707099
vn -0.707114 0.000000 0.707099
vn -0.707114 0.000000 0.707099
vn -0.707114 0.000000 0.707099
vn 0.000000 -0.707107 0.707107
vn 0.000000 -0.707107 0.707107
vn 0.000000 -0.707107 0.707107
vn 0.000000 -0.707107 0.707107
vn -1.000000 0.000000 0.000000
vn -1.000000 0.000000 0.000000
vn -1.000000 0.000000 0.000000
vn -1.000000 0.000000 0.000000
vn 1.000000 0.000000 0.000000
vn 1.000000 0.000000 0.000000
vn 1.000000 0.000000 0.000000
vn 1.000000 0.000000 0.000000
vn 0.000000 1.000000 0.000000
vn 0.000000 1.000000 0.000000
vn 0.000000 1.000000 0.000000
vn 0.000000 1.000000 0.000000
vn -1.000000 0.000000 0.000000
vn -1.000000 0.000000 0.000000
vn 1.000000 0.000000 0.000000
vn 1.000000 0.000000 0.000000
vn 0.000000 -1.000000 0.000000
vn 0.000000 -1.000000 0.000000
vn 0.000000 -1.000000 0.000000
vn 0.000000 -1.000000 0.000000
vn 0.000000 0.000000 1.000000
vn -0.000000 0.000000 1.000000
vn -0.000000 0.000000 1.000000
vn 0.000000 0.000000 1.000000
vn -0.000000 0.000000 1.000000
vn -0.000000 0.000000 1.000000
vn -0.000000 0.000000 1.000000
vn -0.000000 0.000000 1.000000
vn -0.000000 0.000000 1.000000
vn -0.000000 0.000000 1.000000
vn 0.000000 0.000000 1.000000
vn 0.000000 0.000000 1.000000
vn 0.000000 0.000000 1.000000
vn 0.000000 0.000000 1.000000
vn 0.000000 0.000000 1.000000
vn 0.000000 0.000000 1.000000
vn 1.000000 0.000000 0.000000
vn 1.000000 0.000000 0.000000
vn 1.000000 0.000000 0.000000
vn 1.000000 0.000000 0.000000
vn -1.000000 0.000000 0.000000
vn -1.000000 0.000000 0.000000
vn -1.000000 0.000000 0.000000
vn -1.000000 0.000000 0.000000
vn -0.707107 0.000000 0.707106
vn -0.707107 0.000000 0.707106
vn -0.707107 0.000000 0.707106
vn -0.707107 0.000000 0.707106
vn 0.707107 0.000000 0.707106
vn 0.707107 0.000000 0.707106
vn 0.707107 0.000000 0.707106
vn 0.707107 0.000000 0.707106
vn 0.000000 0.000000 1.000000
vn 0.000000 0.000000 1.000000
vn 0.000000 0.000000 1.000000
vn 0.000000 0.000000 1.000000
vn 0.000000 1.000000 0.000000
vn 0.000000 1.000000 0.000000
vn 0.000000 1.000000 0.000000
vn 0.000000 1.000000 0.000000
vn 0.000000 -1.000000 0.000000
vn 0.000000 -1.000000 0.000000
vn 0.000000 -1.000000 0.000000
vn 0.000000 -1.000000 0.000000
vn 0.000000 -0.806651 0.591029
vn 0.000000 -0.806651 0.591029
vn 0.000000 -0.806651 0.591029
vn 0.000000 -0.806651 0.591029
vn 0.000000 0.806640 0.591043
vn 0.000000 0.806640 0.591043
vn 0.000000 0.806640 0.591043
vn 0.000000 0.806640 0.591043
vn 0.000000 0.000000 1.000000
vn 0.000000 0.000000 1.000000
vn 0.000000 0.000000 1.000000
vn 0.000000 0.000000 1.000000
vn 0.000000 1.000000 0.000000
vn 0.000000 1.000000 0.000000
vn 0.000000 1.000000 0.000000
vn 0.000000 1.000000 0.000000
vn 0.000000 -1.000000 0.000000
vn 0.000000 -1.000000 0.000000
vn 0.000000 -1.000000 0.000000
vn 0.000000 -1.000000 0.000000
vn 0.000000 -0.806656 0.591022
vn 0.000000 -0.806656 0.591022
vn 0.000000 -0.806656 0.591022
vn 0.000000 -0.806656 0.591022
vn 0.000000 0.806651 0.591029
vn 0.000000 0.806651 0.591029
vn 0.000000 0.806651 0.591029
vn 0.000000 0.806651 0.591029
vn 0.000000 0.000000 1.000000
vn 0.000000 0.000000 1.000000
vn 0.000000 0.000000 1.000000
vn 0.000000 0.000000 1.000000
vn 0.000000 1.000000 0.000000
vn 0.000000 1.000000 0.000000
vn 0.000000 1.000000 0.000000
vn 0.000000 1.000000 0.000000
vn 0.000000 -1.000000 0.000000
vn 0.000000 -1.000000 0.000000
vn 0.000000 -1.000000 0.000000
vn 0.000000 -1.000000 0.000000
vn 0.000000 -0.707110 0.707104
vn 0.000000 -0.707110 0.707104
vn 0.000000 -0.707110 0.707104
vn 0.000000 -0.707110 0.707104
vn 0.000000 0.707107 0.707106
vn 0.000000 0.707107 0.707106
vn 0.000000 0.707107 0.707106
vn 0.000000 0.707107 0.707106
vn 0.000000 0.000000 1.000000
vn 0.000000 0.000000 1.000000
vn 0.000000 0.000000 1.000000
vn 0.000000 0.000000 1.000000
vn 0.000000 0.000000 -1.000000
vn 0.000000 0.000000 -1.000000
vn 0.000000 0.000000 -1.000000
vn 0.000000 0.000000 -1.000000
vn 0.000000 -1.000000 0.000000
vn 0.000000 -1.000000 0.000000
vn 0.000000 -1.000000 0.000000
vn 0.000000 -1.000000 0.000000
vn 1.000000 0.000000 0.000000
vn 1.000000 0.000000 0.000000
vn 1.000000 0.000000 0.000000
vn 1.000000 0.000000 0.000000
vn -1.000000 0.000000 0.000000
vn -1.000000 0.000000 0.000000
vn -1.000000 0.000000 0.000000
vn -1.000000 0.000000 0.000000
vn 0.000000 0.000000 1.000000
vn 0.000000 0.000000 1.000000
vn 0.000000 0.000000 1.000000
vn 0.000000 0.000000 1.000000
vn 0.000000 0.000000 -1.000000
vn 0.000000 0.000000 -1.000000
vn 0.000000 0.000000 -1.000000
vn 0.000000 0.000000 -1.000000
vn 0.000000 -1.000000 0.000000
vn 0.000000 -1.000000 0.000000
vn 0.000000 -1.000000 0.000000
vn 0.000000 -1.000000 0.000000
vn 1.000000 0.000000 0.000000
vn 1.000000 0.000000 0.000000
vn 1.000000 0.000000 0.000000
vn 1.000000 0.000000 0.000000
vn -1.000000 0.000000 0.000000
vn -1.000000 0.000000 0.000000
vn -1.000000 0.000000 0.000000
vn -1.000000 0.000000 0.000000
vn 0.000000 0.000000 1.000000
vn 0.000000 0.000000 1.000000
vn 0.000000 0.000000 1.000000
vn 0.000000 0.000000 1.000000
vn 0.000000 0.000000 -1.000000
vn 0.000000 0.000000 -1.000000
vn 0.000000 0.000000 -1.000000
vn 0.000000 0.000000 -1.000000
vn 0.000000 -1.000000 0.000000
vn 0.000000 -1.000000 0.000000
vn 0.000000 -1.000000 0.000000
vn 0.000000 -1.000000 0.000000
vn -1.000000 0.000000 0.000000
vn -1.000000 0.000000 0.000000
vn -1.000000 0.000000 0.000000
vn -1.000000 0.000000 0.000000
vn 1.000000 0.000000 0.000000
vn 1.000000 0.000000 0.000000
vn 1.000000 0.000000 0.000000
vn 1.000000 0.000000 0.000000
vn 0.000000 0.000000 1.000000
vn 0.000000 0.000000 1.000000
vn 0.000000 0.000000 1.000000
vn 0.000000 0.000000 1.000000
vn 0.000000 0.000000 -1.000000
vn 0.000000 0.000000 -1.000000
vn 0.000000 0.000000 -1.000000
vn 0.000000 0.000000 -1.000000
vn 0.000000 -1.000000 0.000000
vn 0.000000 -1.000000 0.000000
vn 0.000000 -1.000000 0.000000
vn 0.000000 -1.000000 0.000000
vn -1.000000 0.000000 0.000000
vn -1.000000 0.000000 0.000000
vn -1.000000 0.000000 0.000000
vn -1.000000 0.000000 0.000000
vn 1.000000 0.000000 0.000000
vn 1.000000 0.000000 0.000000
vn 1.000000 0.000000 0.000000
vn 1.000000 0.000000 0.000000
f 8/10/1 5/4/2 10/11/3 11/5/4
f 12/12/5 9/6/6 4/7/7 2/8/8
f 3/1/9 6/9/10 7/2/11 1/3/12
f 6/9/13 5/4/14 8/10/15 7/2/16
f 10/11/17 9/6/18 12/12/19 11/5/20
f 20/13/21 17/14/22 22/15/23 23/16/24
f 24/17/25 21/18/26 16/19/27 14/20/28
f 15/21/29 18/22/30 19/23/31 13/24/32
f 18/22/33 17/14/34 20/13/35 19/23/36
f 22/15/37 21/18/38 24/17/39 23/16/40
f 31/25/41 32/26/42 33/27/43 34/28/44
f 25/29/45 27/30/46 28/31/47 26/32/48
f 35/33/49 34/28/50 33/27/51 36/34/52
f 29/35/53 26/32/54 28/31/55 30/36/56
f 37/37/57 38/38/58 44/39/59 43/40/60
f 38/38/61 37/41/62 39/42/63 40/43/64
f 40/43/65 39/44/66 41/45/67 42/46/68
f 42/46/68 41/45/67 47/47/69 48/48/70
f 43/40/60 44/39/59 46/49/71 45/50/72
f 45/51/73 46/49/74 48/52/75 47/53/76
f 38/38/77 40/43/78 32/54/79 31/55/80
f 40/43/81 42/46/82 33/56/83 32/54/84
f 44/39/85 38/38/86 31/55/87 34/57/88
f 46/49/89 44/39/85 34/57/88 35/58/90
f 42/46/82 48/48/91 36/59/92 33/56/83
f 48/52/93 46/49/94 35/58/95 36/60/96
f 49/61/97 50/62/98 52/63/99 51/64/100
f 50/65/101 49/66/102 53/67/103 54/68/104
f 51/64/100 52/63/99 58/69/105 57/70/106
f 54/71/107 53/72/108 55/73/109 56/74/110
f 56/74/110 55/73/109 59/75/111 60/76/112
f 57/77/113 58/78/114 60/79/115 59/80/116
f 53/72/117 25/29/118 26/32/119 55/73/120
f 27/30/121 49/61/122 51/64/123 28/31/124
f 27/81/125 25/82/126 53/67/127 49/66/128
f 59/75/129 55/73/120 26/32/119 29/35/130
f 30/36/131 28/31/124 51/64/123 57/70/132
f 30/83/133 57/77/134 59/80/135 29/84/136
f 50/85/137 54/86/138 39/42/139 37/41/140
f 54/87/138 56/88/141 41/45/142 39/44/139
f 52/89/143 50/90/137 37/37/140 43/40/144
f 58/91/145 52/89/143 43/40/144 45/50/146
f 56/88/141 60/92/147 47/47/148 41/45/142
f 60/93/147 58/94/145 45/51/146 47/53/148
f 68/95/149 65/96/150 70/97/151 71/98/152
f 72/99/153 69/100/154 64/101/155 62/102/156
f 63/103/157 66/104/158 67/105/159 61/106/160
f 66/104/161 65/96/162 68/95/163 67/105/164
f 70/97/165 69/100/166 72/99/167 71/98/168
f 80/107/169 77/108/170 82/109/171 83/110/172
f 84/111/173 81/112/174 76/113/175 74/114/176
f 75/115/177 78/116/178 79/117/179 73/118/180
f 78/116/181 77/108/182 80/107/183 79/117/184
f 82/109/185 81/112/186 84/111/187 83/110/188
f 92/119/189 89/120/190 94/121/191 95/122/192
f 96/123/193 93/124/194 88/125/195 86/126/196
f 87/127/197 90/128/198 91/129/199 85/130/200
f 90/128/201 89/120/202 92/119/203 91/129/204
f 94/121/205 93/124/206 96/123/207 95/122/208
f 104/131/209 101/132/210 106/133/211 107/134/212
f 108/135/213 105/136/214 100/137/215 98/138/216
f 99/139/217 102/140/218 103/141/219 97/142/220
f 102/140/221 101/132/222 104/131/223 103/141/224
f 106/133/225 105/136/226 108/135/227 107/134/228
f 109/143/229 110/144/230 112/145/231 111/146/232
f 113/147/233 114/148/234 116/149/235 115/150/236
f 115/150/237 116/149/238 110/151/239 109/152/240
f 110/144/241 116/153/242 114/154/243 112/145/244
f 115/155/245 109/143/246 111/146/247 113/156/248
f 117/157/249 118/158/250 120/159/251 119/160/252
f 121/161/253 122/162/254 124/163/255 123/164/256
f 123/164/257 124/163/258 118/165/259 117/166/260
f 118/158/261 124/167/262 122/168/263 120/159/264
f 123/169/265 117/157/266 119/160/267 121/170/268
f 125/171/269 127/172/270 128/173/271 126/174/272
f 129/175/273 131/176/274 132/177/275 130/178/276
f 131/176/277 125/179/278 126/180/279 132/177/280
f 126/174/281 128/173/282 130/181/283 132/182/284
f 131/183/285 129/184/286 127/172/287 125/171/288
f 133/185/289 135/186/290 136/187/291 134/188/292
f 137/189/293 139/190/294 140/191/295 138/192/296
f 139/190/297 133/193/298 134/194/299 140/191/300
f 134/188/301 136/187/302 138/195/303 140/196/304
f 139/197/305 137/198/306 135/186/307 133/185/308
