# This file uses meters as units for non-parametric coordinates.

v 84.504000 62.411163 1.854202
v 84.504000 62.411163 0.000000
v 84.504000 -62.411163 0.000000
v 84.504000 -62.411163 1.854202
v -36.357068 -62.411163 1.854202
v -36.357068 62.411163 1.854202
v -36.357068 62.411163 0.000000
v -36.357068 -62.411163 0.000000
vt 0.558639 0.933339
vt 0.535481 0.933339
vt 0.558639 0.933339
vt 0.535481 0.933339
vt 0.535481 0.910200
vt 0.558639 0.910200
vt 0.535481 0.910200
vt 0.558639 0.910200
vt 0.558639 0.933339
vt 0.558639 0.910200
vn 1.000000 0.000000 0.000000
vn 1.000000 0.000000 0.000000
vn 1.000000 0.000000 0.000000
vn 1.000000 0.000000 0.000000
vn 0.000000 0.000000 1.000000
vn 0.000000 0.000000 1.000000
vn 0.000000 0.000000 1.000000
vn 0.000000 0.000000 1.000000
vn 0.000000 1.000000 0.000000
vn 0.000000 1.000000 0.000000
vn 0.000000 1.000000 0.000000
vn 0.000000 1.000000 0.000000
vn 0.000000 0.000000 -1.000000
vn 0.000000 0.000000 -1.000000
vn 0.000000 0.000000 -1.000000
vn 0.000000 0.000000 -1.000000
vn 0.000000 -1.000000 0.000000
vn 0.000000 -1.000000 0.000000
vn 0.000000 -1.000000 0.000000
vn 0.000000 -1.000000 0.000000
vn -1.000000 0.000000 0.000000
vn -1.000000 0.000000 0.000000
vn -1.000000 0.000000 0.000000
vn -1.000000 0.000000 0.000000
f 3/1/1 2/2/2 1/3/3 4/4/4
f 5/5/5 4/4/6 1/3/7 6/6/8
f 7/7/9 6/8/10 1/9/11 2/2/12
f 8/10/13 7/7/14 2/2/15 3/1/16
f 5/5/17 8/10/18 3/1/19 4/4/20
f 6/8/21 7/7/22 8/10/23 5/5/24
