# This file uses meters as units for non-parametric coordinates.

v 124.120085 135.003845 0.000000
v 124.120085 0.000015 0.000000
v -2.243547 135.003845 0.000000
v -2.243547 0.000015 0.000000
v 124.120085 -135.654343 0.000000
v -2.243577 -135.654343 0.000000
v 9.629409 124.018829 0.000000
v 112.247107 124.018829 0.000000
v 112.247107 0.000000 0.000000
v 112.247107 -124.669357 0.000000
v 9.629424 -124.669357 0.000000
v 9.629424 0.000000 0.000000
v -2.243547 135.003845 -2.575104
v 124.120085 135.003845 -2.575104
v 9.629409 124.018829 -2.575104
v 112.247107 124.018829 -2.575104
v 112.247107 0.000000 -2.575104
v 124.120085 0.000015 -2.575104
v 112.247107 -124.669357 -2.575104
v 124.120085 -135.654343 -2.575104
v 9.629424 -124.669357 -2.575104
v -2.243577 -135.654343 -2.575104
v -2.243547 0.000015 -2.575104
v 9.629424 0.000000 -2.575104
vt 0.633659 0.049819
vt 0.633636 0.008111
vt 0.739245 0.008111
vt 0.739216 0.049819
vt 0.739245 0.049724
vt 0.632631 0.049722
vt 0.632631 0.008111
vt 0.739245 0.008111
vt 0.739245 0.049724
vt 0.739245 0.008111
vt 0.633658 0.049819
vt 0.739216 0.049819
vt 0.739245 0.008111
vt 0.633636 0.008111
vt 0.739245 0.049723
vt 0.632631 0.008111
vt 0.632631 0.049722
vt 0.739244 0.049723
vt 0.633659 0.049819
vt 0.739216 0.049819
vt 0.739245 0.008111
vt 0.633636 0.008111
vt 0.739245 0.049724
vt 0.739245 0.008111
vt 0.632631 0.008111
vt 0.632631 0.049722
vt 0.739245 0.008111
vt 0.739245 0.049724
vt 0.633658 0.049819
vt 0.633636 0.008111
vt 0.739245 0.008111
vt 0.739216 0.049819
vt 0.739245 0.049723
vt 0.632631 0.049722
vt 0.632631 0.008111
vt 0.739244 0.049723
vt 0.633659 0.049819
vt 0.739216 0.049819
vt 0.739245 0.008111
vt 0.633636 0.008111
vt 0.739245 0.008111
vt 0.632631 0.008111
vt 0.632631 0.049722
vt 0.739245 0.049724
vt 0.739245 0.008111
vt 0.739245 0.049724
vt 0.633636 0.008111
vt 0.739245 0.008111
vt 0.739216 0.049819
vt 0.633658 0.049819
vt 0.739245 0.049723
vt 0.632631 0.049722
vt 0.632631 0.008111
vt 0.739244 0.049723
vn 0.000000 0.000000 -1.000000
vn 0.000000 0.000000 -1.000000
vn -0.000000 0.000000 -1.000000
vn -0.000000 0.000000 -1.000000
vn 0.000000 0.000000 -1.000000
vn 0.000000 0.000000 -1.000000
vn -0.000000 0.000000 -1.000000
vn -0.000000 0.000000 -1.000000
vn 0.000000 0.000000 -1.000000
vn 0.000000 0.000000 -1.000000
vn -0.000000 0.000000 -1.000000
vn -0.000000 0.000000 -1.000000
vn 0.000000 0.000000 1.000000
vn 0.000000 0.000000 1.000000
vn 0.000000 0.000000 1.000000
vn 0.000000 0.000000 1.000000
vn -0.000000 0.000000 1.000000
vn -0.000000 0.000000 1.000000
vn -0.000000 0.000000 1.000000
vn -0.000000 0.000000 1.000000
vn 0.000000 0.000000 1.000000
vn 0.000000 0.000000 1.000000
vn 0.000000 0.000000 1.000000
vn 0.000000 0.000000 1.000000
vn 0.000000 1.000000 0.000000
vn 0.000000 1.000000 0.000000
vn 0.000000 1.000000 0.000000
vn 0.000000 1.000000 0.000000
vn 0.000000 -1.000000 0.000000
vn 0.000000 -1.000000 0.000000
vn 0.000000 -1.000000 0.000000
vn 0.000000 -1.000000 0.000000
vn -1.000000 0.000000 0.000000
vn -1.000000 0.000000 0.000000
vn -1.000000 0.000000 0.000000
vn -1.000000 0.000000 0.000000
vn 1.000000 0.000000 0.000000
vn 1.000000 0.000000 0.000000
vn 1.000000 0.000000 0.000000
vn 1.000000 0.000000 0.000000
vn -1.000000 0.000000 0.000000
vn -1.000000 0.000000 0.000000
vn 1.000000 0.000000 0.000000
vn 1.000000 0.000000 0.000000
vn 0.000000 1.000000 0.000000
vn 0.000000 1.000000 0.000000
vn 0.000000 1.000000 0.000000
vn 0.000000 1.000000 0.000000
vn 0.000000 -1.000000 0.000000
vn 0.000000 -1.000000 0.000000
vn 0.000000 -1.000000 0.000000
vn 0.000000 -1.000000 0.000000
vn -1.000000 0.000000 0.000000
vn -1.000000 0.000000 0.000000
vn -1.000000 0.000000 0.000000
vn -1.000000 0.000000 0.000000
vn 1.000000 0.000000 0.000000
vn 1.000000 0.000000 0.000000
vn 1.000000 0.000000 0.000000
vn 1.000000 0.000000 0.000000
vn -1.000000 0.000000 0.000000
vn -1.000000 0.000000 0.000000
vn 1.000000 0.000000 0.000000
vn 1.000000 0.000000 0.000000
f 14/1/1 16/2/2 15/3/3 13/4/4
f 14/5/1 18/6/5 17/7/6 16/8/2
f 18/6/5 20/9/7 19/10/8 17/7/6
f 20/11/7 22/12/9 21/13/10 19/14/8
f 13/15/4 15/3/3 24/16/11 23/17/12
f 23/17/12 24/16/11 21/13/10 22/18/9
f 1/19/13 3/20/14 7/21/15 8/22/16
f 1/23/13 8/24/16 9/25/17 2/26/18
f 2/26/18 9/25/17 10/27/19 5/28/20
f 5/29/20 10/30/19 11/31/21 6/32/22
f 3/33/14 4/34/23 12/35/24 7/21/15
f 4/34/23 6/36/22 11/31/21 12/35/24
f 1/37/25 14/1/26 13/4/27 3/38/28
f 7/39/29 15/3/30 16/2/31 8/40/32
f 8/41/33 16/8/34 17/7/35 9/42/36
f 2/43/37 18/6/38 14/5/39 1/44/40
f 9/42/36 17/7/35 19/10/41 10/45/42
f 5/46/43 20/9/44 18/6/38 2/43/37
f 10/47/45 19/14/46 21/13/47 11/48/48
f 6/49/49 22/12/50 20/11/51 5/50/52
f 3/51/53 13/15/54 23/17/55 4/52/56
f 12/53/57 24/16/58 15/3/59 7/39/60
f 4/52/56 23/17/55 22/18/61 6/54/62
f 11/48/63 21/13/64 24/16/58 12/53/57
