# This file uses meters as units for non-parametric coordinates.

v -83.096310 -0.000000 50.384254
v 83.096310 -0.000000 50.384254
v -83.096310 28.633275 50.384254
v 83.096310 28.633275 50.384254
v -83.096310 28.633275 45.432083
v 83.096310 28.633275 45.432083
v -83.096310 -0.000000 45.432083
v 83.096310 -0.000000 45.432083
v -83.096310 -0.000000 45.432083
v 83.096310 -0.000000 45.432083
v -83.096310 25.338571 45.432083
v 83.096310 25.338571 45.432083
v -83.096310 25.338571 -0.000000
v 83.096310 25.338571 -0.000000
v -83.096310 -0.000000 -0.000000
v 83.096310 -0.000000 -0.000000
v -81.064617 25.338571 45.616993
v 81.064617 25.338571 45.616993
v 81.064617 25.338571 2.424431
v -81.064617 25.338571 2.424431
v -81.064617 4.334399 45.616993
v 81.064617 4.334399 45.616993
v 81.064617 4.334399 2.424431
v -81.064617 4.334399 2.424431
vt 0.320258 0.916294
vt 0.336773 0.916294
vt 0.320258 0.932810
vt 0.336773 0.932810
vt 0.320258 0.916294
vt 0.336773 0.916294
vt 0.320258 0.932810
vt 0.336773 0.932810
vt 0.320258 0.916294
vt 0.336773 0.916294
vt 0.320258 0.916294
vt 0.320258 0.932810
vt 0.336773 0.916294
vt 0.336773 0.932810
vt 0.321271 0.931667
vt 0.335761 0.931667
vt 0.335761 0.917177
vt 0.321271 0.917177
vt 0.320258 0.916165
vt 0.336773 0.916165
vt 0.336773 0.932680
vt 0.320258 0.932680
vt 0.336773 0.916165
vt 0.320258 0.916165
vt 0.336773 0.916165
vt 0.320258 0.916165
vt 0.320258 0.932680
vt 0.336773 0.932680
vt 0.336773 0.916165
vt 0.320258 0.916165
vt 0.320258 0.932680
vt 0.336773 0.932680
vt 0.335761 0.917177
vt 0.335761 0.931667
vt 0.321271 0.917177
vt 0.321271 0.931667
vt 0.335877 0.917227
vt 0.320471 0.917227
vt 0.320471 0.932633
vt 0.335877 0.932633
vt 0.335877 0.917227
vt 0.335877 0.932633
vt 0.320471 0.917227
vt 0.320471 0.932633
vn 0.000000 0.000000 1.000000
vn 0.000000 0.000000 1.000000
vn 0.000000 0.000000 1.000000
vn 0.000000 0.000000 1.000000
vn 0.000000 1.000000 0.000000
vn 0.000000 1.000000 0.000000
vn 0.000000 1.000000 0.000000
vn 0.000000 1.000000 0.000000
vn 0.000000 0.000000 -1.000000
vn 0.000000 0.000000 -1.000000
vn 0.000000 0.000000 -1.000000
vn 0.000000 0.000000 -1.000000
vn 0.000000 -1.000000 0.000000
vn 0.000000 -1.000000 0.000000
vn 0.000000 -1.000000 0.000000
vn 0.000000 -1.000000 0.000000
vn 1.000000 0.000000 0.000000
vn 1.000000 0.000000 0.000000
vn 1.000000 0.000000 0.000000
vn 1.000000 0.000000 0.000000
vn -1.000000 0.000000 0.000000
vn -1.000000 0.000000 0.000000
vn -1.000000 0.000000 0.000000
vn -1.000000 0.000000 0.000000
vn 0.000000 1.000000 0.000000
vn 0.000000 1.000000 0.000000
vn 0.000000 1.000000 0.000000
vn 0.000000 1.000000 0.000000
vn 0.000000 0.000000 -1.000000
vn 0.000000 0.000000 -1.000000
vn 0.000000 0.000000 -1.000000
vn 0.000000 0.000000 -1.000000
vn 0.000000 -1.000000 0.000000
vn 0.000000 -1.000000 0.000000
vn 0.000000 -1.000000 0.000000
vn 0.000000 -1.000000 0.000000
vn 1.000000 0.000000 0.000000
vn 1.000000 0.000000 0.000000
vn 1.000000 0.000000 0.000000
vn 1.000000 0.000000 0.000000
vn -1.000000 0.000000 0.000000
vn -1.000000 0.000000 0.000000
vn -1.000000 0.000000 0.000000
vn -1.000000 0.000000 0.000000
vn 0.000000 1.000000 0.000000
vn 0.000000 1.000000 0.000000
vn 0.000000 1.000000 0.000000
vn 0.000000 1.000000 0.000000
vn 0.000000 1.000000 0.000000
vn 0.000000 1.000000 0.000000
vn 0.000000 1.000000 0.000000
vn 0.000000 1.000000 0.000000
vn 0.000000 1.000000 0.000000
vn 0.000000 1.000000 0.000000
vn 0.000000 1.000000 0.000000
vn 0.000000 1.000000 0.000000
vn -1.000000 0.000000 0.000000
vn -1.000000 0.000000 0.000000
vn -1.000000 0.000000 0.000000
vn -1.000000 0.000000 0.000000
vn 0.000000 0.000000 1.000000
vn 0.000000 0.000000 1.000000
vn 0.000000 0.000000 1.000000
vn 0.000000 0.000000 1.000000
vn 1.000000 0.000000 0.000000
vn 1.000000 0.000000 0.000000
vn 1.000000 0.000000 0.000000
vn 1.000000 0.000000 0.000000
f 1/1/1 2/2/2 4/4/3 3/3/4
f 3/3/5 4/4/6 6/6/7 5/5/8
f 5/5/9 6/6/10 8/8/11 7/7/12
f 7/7/13 8/8/14 2/10/15 1/9/16
f 2/2/17 8/11/18 6/12/19 4/4/20
f 7/13/21 1/1/22 3/3/23 5/14/24
f 21/15/25 22/16/26 23/17/27 24/18/28
f 13/19/29 14/20/30 16/21/31 15/22/32
f 15/22/33 16/21/34 10/23/35 9/24/36
f 10/25/37 16/26/38 14/27/39 12/28/40
f 15/29/41 9/30/42 11/31/43 13/32/44
f 12/28/45 14/20/46 19/33/47 18/34/48
f 14/20/49 13/19/50 20/35/51 19/33/52
f 13/19/53 11/31/54 17/36/55 20/35/56
f 18/37/57 19/38/58 23/39/59 22/40/60
f 19/38/61 20/41/62 24/42/63 23/39/64
f 20/41/65 17/43/66 21/44/67 24/42/68
