# This file uses meters as units for non-parametric coordinates.

v 133.433301 15.283690 -8.824030
v 134.285553 14.894528 -8.599353
v 133.433301 8.824041 -15.283668
v 134.285553 8.599375 -14.894507
v 133.433301 0.000022 -17.648060
v 134.285553 0.000021 -17.198694
v 133.433301 -8.823998 -15.283668
v 134.285553 -8.599321 -14.894507
v 133.433301 -15.283636 -8.824030
v 134.285553 -14.894485 -8.599353
v 133.433301 -17.648028 0.000000
v 134.285553 -17.198651 0.000000
v 133.433301 -15.283636 8.824030
v 134.285553 -14.894485 8.599353
v 133.433301 -8.823998 15.283668
v 134.285553 -8.599321 14.894496
v 133.433301 0.000022 17.648060
v 134.285553 0.000021 17.198683
v 133.433301 8.824041 15.283668
v 134.285553 8.599375 14.894496
v 133.433301 15.283690 8.824030
v 134.285553 14.894528 8.599353
v 133.433301 17.648071 0.000000
v 134.285553 17.198705 0.000000
v -133.433301 15.283690 -8.824030
v -134.285553 14.894528 -8.599353
v -133.433301 8.824041 -15.283668
v -134.285553 8.599375 -14.894507
v -133.433301 0.000022 -17.648060
v -134.285553 0.000021 -17.198694
v -133.433301 -8.823998 -15.283668
v -134.285553 -8.599321 -14.894507
v -133.433301 -15.283636 -8.824030
v -134.285553 -14.894485 -8.599353
v -133.433301 -17.648028 0.000000
v -134.285553 -17.198651 0.000000
v -133.433301 -15.283636 8.824030
v -134.285553 -14.894485 8.599353
v -133.433301 -8.823998 15.283668
v -134.285553 -8.599321 14.894496
v -133.433301 0.000022 17.648060
v -134.285553 0.000021 17.198683
v -133.433301 8.824041 15.283668
v -134.285553 8.599375 14.894496
v -133.433301 15.283690 8.824030
v -134.285553 14.894528 8.599353
v -133.433301 17.648071 0.000000
v -134.285553 17.198705 0.000000
v 138.662270 10.508868 -6.067290
v 138.662270 6.067311 -10.508846
v 142.738548 0.000023 -0.000001
v 138.662270 0.000023 -12.134572
v 138.662270 -6.067257 -10.508846
v 138.662270 -10.508823 -6.067290
v 138.662270 -12.134533 -0.000001
v 138.662270 -10.508823 6.067288
v 138.662270 -6.067257 10.508836
v 138.662270 0.000023 12.134562
v 138.662270 6.067311 10.508836
v 138.662270 10.508868 6.067288
v 138.662270 12.134587 -0.000001
v -138.662270 6.067311 -10.508846
v -138.662270 10.508868 -6.067290
v -142.738548 0.000023 -0.000001
v -138.662270 0.000023 -12.134572
v -138.662270 -6.067257 -10.508846
v -138.662270 -10.508823 -6.067290
v -138.662270 -12.134533 -0.000001
v -138.662270 -10.508823 6.067288
v -138.662270 -6.067257 10.508836
v -138.662270 0.000023 12.134562
v -138.662270 6.067311 10.508836
v -138.662270 10.508868 6.067288
v -138.662270 12.134587 -0.000001
v -133.516885 14.746987 8.514167
v -133.516885 8.514183 14.746960
v -133.516885 0.000022 17.028324
v -133.516885 -8.514135 14.746960
v -133.516885 -14.746938 8.514167
v -133.516885 -17.028291 0.000000
v -133.516885 -14.746938 -8.514167
v -133.516885 -8.514135 -14.746965
v -133.516885 0.000022 -17.028329
v -133.516885 8.514183 -14.746965
v -133.516885 14.746987 -8.514167
v -133.516885 17.028340 0.000000
v 133.516885 14.746987 8.514167
v 133.516885 8.514183 14.746960
v 133.516885 0.000022 17.028324
v 133.516885 -8.514135 14.746960
v 133.516885 -14.746938 8.514167
v 133.516885 -17.028291 0.000000
v 133.516885 -14.746938 -8.514167
v 133.516885 -8.514135 -14.746965
v 133.516885 0.000022 -17.028329
v 133.516885 8.514183 -14.746965
v 133.516885 14.746987 -8.514167
v 133.516885 17.028340 0.000000
vt 0.289895 0.932396
vt 0.289840 0.932340
vt 0.289840 0.930216
vt 0.289840 0.932270
vt 0.289840 0.930158
vt 0.289840 0.930104
vt 0.289840 0.927981
vt 0.289840 0.927869
vt 0.289840 0.925746
vt 0.289840 0.925634
vt 0.289840 0.923510
vt 0.289840 0.923398
vt 0.289840 0.921275
vt 0.289840 0.921163
vt 0.289840 0.919040
vt 0.289840 0.918928
vt 0.289840 0.921152
vt 0.289840 0.921263
vt 0.289840 0.923375
vt 0.289840 0.923487
vt 0.289840 0.925599
vt 0.289840 0.925710
vt 0.289840 0.927823
vt 0.289840 0.927934
vt 0.289840 0.930047
vt 0.304440 0.932326
vt 0.304495 0.932270
vt 0.304495 0.930158
vt 0.304495 0.932340
vt 0.304495 0.930216
vt 0.304495 0.930104
vt 0.304495 0.927981
vt 0.304495 0.927869
vt 0.304495 0.925746
vt 0.304495 0.925634
vt 0.304495 0.923510
vt 0.304495 0.923398
vt 0.304495 0.921275
vt 0.304495 0.921163
vt 0.304495 0.919040
vt 0.304495 0.918928
vt 0.304495 0.921152
vt 0.304495 0.921263
vt 0.304495 0.923375
vt 0.304495 0.923487
vt 0.304495 0.925599
vt 0.304495 0.925710
vt 0.304495 0.927823
vt 0.304495 0.927934
vt 0.304495 0.930047
vt 0.289895 0.930160
vt 0.304440 0.932396
vt 0.289895 0.927925
vt 0.304440 0.930160
vt 0.289895 0.925690
vt 0.304440 0.927925
vt 0.289895 0.923454
vt 0.304440 0.925690
vt 0.289895 0.921219
vt 0.304440 0.923454
vt 0.289895 0.918984
vt 0.304440 0.921219
vt 0.289895 0.921207
vt 0.304440 0.918984
vt 0.289895 0.923431
vt 0.304440 0.921207
vt 0.289895 0.925655
vt 0.304440 0.923431
vt 0.289895 0.927878
vt 0.304440 0.925655
vt 0.289895 0.930102
vt 0.304440 0.927878
vt 0.289895 0.932326
vt 0.304440 0.930102
vt 0.301203 0.932499
vt 0.304042 0.929660
vt 0.305081 0.925781
vt 0.304042 0.921903
vt 0.301203 0.919064
vt 0.297324 0.918025
vt 0.293446 0.919064
vt 0.290607 0.921903
vt 0.289568 0.925781
vt 0.290607 0.929660
vt 0.293446 0.932499
vt 0.297517 0.925781
vt 0.297324 0.933538
vt 0.290607 0.929660
vt 0.289568 0.925781
vt 0.290607 0.921903
vt 0.293446 0.919064
vt 0.297324 0.918025
vt 0.301203 0.919064
vt 0.304042 0.921903
vt 0.305081 0.925781
vt 0.304042 0.929660
vt 0.301203 0.932499
vt 0.297324 0.933538
vt 0.293446 0.932499
vt 0.297517 0.925781
vt 0.301488 0.928185
vt 0.299728 0.929945
vt 0.302132 0.925781
vt 0.301488 0.923377
vt 0.299728 0.921617
vt 0.297324 0.920973
vt 0.294920 0.921617
vt 0.293160 0.923377
vt 0.292516 0.925781
vt 0.293160 0.928185
vt 0.294920 0.929945
vt 0.297324 0.930590
vt 0.294920 0.929945
vt 0.293160 0.928185
vt 0.292516 0.925781
vt 0.293160 0.923377
vt 0.294920 0.921617
vt 0.297324 0.920973
vt 0.299728 0.921617
vt 0.301488 0.923377
vt 0.302132 0.925781
vt 0.301488 0.928185
vt 0.299728 0.929945
vt 0.297324 0.930590
vt 0.304467 0.927851
vt 0.304467 0.927906
vt 0.304467 0.925627
vt 0.304467 0.925683
vt 0.304467 0.923403
vt 0.304467 0.923459
vt 0.304467 0.921180
vt 0.304467 0.921235
vt 0.304467 0.919012
vt 0.304467 0.918956
vt 0.304467 0.921247
vt 0.304467 0.921191
vt 0.304467 0.923482
vt 0.304467 0.923426
vt 0.304467 0.925718
vt 0.304467 0.925662
vt 0.304467 0.927953
vt 0.304467 0.927897
vt 0.304467 0.930188
vt 0.304467 0.930132
vt 0.304467 0.932298
vt 0.304467 0.932368
vt 0.304467 0.930130
vt 0.304467 0.930074
vt 0.289868 0.927851
vt 0.289868 0.927906
vt 0.289868 0.925627
vt 0.289868 0.925683
vt 0.289868 0.923403
vt 0.289868 0.923459
vt 0.289868 0.921180
vt 0.289868 0.921235
vt 0.289868 0.919012
vt 0.289868 0.918956
vt 0.289868 0.921247
vt 0.289868 0.921191
vt 0.289868 0.923482
vt 0.289868 0.923426
vt 0.289868 0.925718
vt 0.289868 0.925662
vt 0.289868 0.927953
vt 0.289868 0.927897
vt 0.289868 0.930188
vt 0.289868 0.930132
vt 0.289868 0.932368
vt 0.289868 0.932298
vt 0.289868 0.930130
vt 0.289868 0.930074
vn -0.216388 0.845503 -0.488160
vn -0.216389 0.488158 -0.845504
vn -0.216389 0.488149 -0.845510
vn -0.216388 0.845505 -0.488157
vn -0.216387 0.976308 -0.000000
vn -0.216387 0.976308 -0.000000
vn -0.216388 0.000000 -0.976307
vn -0.216388 0.000000 -0.976307
vn -0.216390 -0.488157 -0.845505
vn -0.216390 -0.488154 -0.845507
vn -0.216390 -0.845509 -0.488149
vn -0.216390 -0.845509 -0.488149
vn -0.216387 -0.976308 0.000000
vn -0.216387 -0.976308 0.000000
vn -0.216389 -0.845509 0.488149
vn -0.216389 -0.845510 0.488149
vn -0.216386 -0.488159 0.845505
vn -0.216386 -0.488152 0.845509
vn -0.216381 -0.000000 0.976309
vn -0.216381 0.000000 0.976309
vn -0.216384 0.488159 0.845505
vn -0.216384 0.488146 0.845513
vn -0.216387 0.845502 0.488162
vn -0.216387 0.845505 0.488158
vn -0.991027 0.115754 -0.066828
vn -0.991027 0.133661 -0.000000
vn -0.991027 0.133661 -0.000000
vn -0.991027 0.115754 -0.066827
vn -0.991027 0.066831 -0.115757
vn -0.991027 0.066831 -0.115757
vn -0.991025 0.000000 -0.133674
vn -0.991025 -0.000000 -0.133674
vn -0.991026 -0.066831 -0.115766
vn -0.991026 -0.066831 -0.115766
vn -0.991027 -0.115754 -0.066835
vn -0.991027 -0.115754 -0.066835
vn -0.991027 -0.133661 0.000000
vn -0.991027 -0.133661 0.000000
vn -0.991027 -0.115754 0.066826
vn -0.991027 -0.115754 0.066826
vn -0.991027 -0.066830 0.115756
vn -0.991027 -0.066831 0.115756
vn -0.991026 0.000000 0.133673
vn -0.991026 -0.000000 0.133673
vn -0.991027 0.066830 0.115756
vn -0.991027 0.066831 0.115756
vn -0.991027 0.115754 0.066827
vn -0.991027 0.115754 0.066828
vn 0.000000 0.866025 -0.500000
vn 0.000000 0.500000 -0.866025
vn 0.000000 0.500000 -0.866025
vn 0.000000 0.866025 -0.500000
vn 0.000000 0.000000 -1.000000
vn 0.000000 0.000000 -1.000000
vn -0.000000 -0.500000 -0.866025
vn -0.000000 -0.500000 -0.866025
vn -0.000000 -0.866025 -0.500000
vn -0.000000 -0.866025 -0.500000
vn -0.000000 -1.000000 0.000000
vn -0.000000 -1.000000 0.000000
vn -0.000000 -0.866025 0.500000
vn -0.000000 -0.866025 0.500000
vn -0.000000 -0.500000 0.866025
vn -0.000000 -0.500000 0.866025
vn 0.000000 0.000000 1.000000
vn 0.000000 0.000000 1.000000
vn 0.000000 0.500000 0.866025
vn 0.000000 0.500000 0.866025
vn 0.000000 0.866025 0.500000
vn 0.000000 0.866025 0.500000
vn 0.000000 1.000000 0.000000
vn 0.000000 1.000000 0.000000
vn 0.840342 0.271028 -0.469435
vn 0.840342 0.469435 -0.271028
vn 1.000000 -0.000000 0.000000
vn 0.840342 0.000000 -0.542057
vn 0.840342 -0.271028 -0.469435
vn 0.840342 -0.469435 -0.271028
vn 0.840342 -0.542057 0.000000
vn 0.840342 -0.469435 0.271028
vn 0.840342 -0.271028 0.469435
vn 0.840342 0.000000 0.542057
vn 0.840342 0.271028 0.469435
vn 0.840342 0.469435 0.271029
vn 0.840342 0.542057 0.000001
vn -0.840342 0.469435 -0.271029
vn -0.840342 0.271028 -0.469435
vn -1.000000 -0.000000 -0.000000
vn -0.840342 0.000000 -0.542057
vn -0.840342 -0.271028 -0.469435
vn -0.840342 -0.469435 -0.271028
vn -0.840342 -0.542057 -0.000000
vn -0.840342 -0.469435 0.271028
vn -0.840342 -0.271028 0.469435
vn -0.840342 0.000000 0.542057
vn -0.840342 0.271028 0.469436
vn -0.840342 0.469435 0.271028
vn -0.840342 0.542057 -0.000001
vn 0.756590 0.326945 -0.566285
vn 0.756590 0.566285 -0.326944
vn 0.756590 -0.000000 -0.653889
vn 0.756590 -0.326945 -0.566285
vn 0.756590 -0.566285 -0.326945
vn 0.756589 -0.653890 0.000000
vn 0.756590 -0.566285 0.326945
vn 0.756590 -0.326945 0.566285
vn 0.756590 -0.000000 0.653889
vn 0.756590 0.326945 0.566285
vn 0.756590 0.566285 0.326945
vn 0.756589 0.653890 0.000001
vn -0.756590 0.566285 -0.326945
vn -0.756590 0.326945 -0.566285
vn -0.756590 -0.000000 -0.653889
vn -0.756590 -0.326945 -0.566285
vn -0.756590 -0.566285 -0.326945
vn -0.756589 -0.653890 0.000000
vn -0.756590 -0.566285 0.326945
vn -0.756590 -0.326945 0.566285
vn -0.756590 -0.000000 0.653889
vn -0.756590 0.326945 0.566285
vn -0.756590 0.566285 0.326944
vn -0.756589 0.653890 -0.000000
vn 0.216384 0.488159 0.845505
vn 0.216384 0.488146 0.845513
vn 0.216387 0.845505 0.488158
vn 0.216387 0.845502 0.488162
vn 0.216381 -0.000000 0.976309
vn 0.216381 0.000000 0.976309
vn 0.216386 -0.488159 0.845505
vn 0.216386 -0.488152 0.845509
vn 0.216389 -0.845509 0.488149
vn 0.216389 -0.845510 0.488149
vn 0.216387 -0.976308 0.000000
vn 0.216387 -0.976308 0.000000
vn 0.216390 -0.845509 -0.488149
vn 0.216390 -0.845509 -0.488149
vn 0.216390 -0.488157 -0.845505
vn 0.216390 -0.488154 -0.845507
vn 0.216388 0.000000 -0.976307
vn 0.216388 0.000000 -0.976307
vn 0.216389 0.488157 -0.845505
vn 0.216389 0.488148 -0.845510
vn 0.216388 0.845502 -0.488162
vn 0.216388 0.845504 -0.488158
vn 0.216386 0.976308 -0.000001
vn 0.216386 0.976308 -0.000001
vn 0.991026 0.066830 0.115765
vn 0.991026 0.066831 0.115765
vn 0.991027 0.115754 0.066837
vn 0.991027 0.115754 0.066837
vn 0.991026 -0.000000 0.133673
vn 0.991026 -0.000000 0.133673
vn 0.991026 -0.066830 0.115765
vn 0.991026 -0.066830 0.115765
vn 0.991027 -0.115754 0.066835
vn 0.991027 -0.115754 0.066835
vn 0.991027 -0.133661 0.000000
vn 0.991027 -0.133661 0.000000
vn 0.991027 -0.115754 -0.066835
vn 0.991027 -0.115754 -0.066835
vn 0.991026 -0.066831 -0.115766
vn 0.991026 -0.066831 -0.115766
vn 0.991025 -0.000000 -0.133674
vn 0.991025 -0.000000 -0.133674
vn 0.991026 0.066831 -0.115762
vn 0.991026 0.066831 -0.115762
vn 0.991027 0.115754 -0.066833
vn 0.991027 0.115754 -0.066833
vn 0.991027 0.133661 0.000001
vn 0.991027 0.133661 0.000001
f 2/2/1 4/3/2 96/167/3 97/169/4
f 2/4/1 97/170/4 98/171/5 24/5/6
f 96/168/3 4/6/2 6/7/7 95/165/8
f 95/166/8 6/8/7 8/9/9 94/163/10
f 94/164/10 8/10/9 10/11/11 93/161/12
f 93/162/12 10/12/11 12/13/13 92/159/14
f 92/160/14 12/14/13 14/15/15 91/157/16
f 91/158/16 14/16/15 16/17/17 90/155/18
f 90/156/18 16/18/17 18/19/19 89/153/20
f 89/154/20 18/20/19 20/21/21 88/151/22
f 88/152/22 20/22/21 22/23/23 87/149/24
f 98/172/5 87/150/24 22/24/23 24/25/6
f 85/145/25 86/147/26 47/74/27 25/26/28
f 85/146/25 25/52/28 27/54/29 84/143/30
f 84/144/30 27/54/29 29/56/31 83/141/32
f 83/142/32 29/56/31 31/58/33 82/139/34
f 82/140/34 31/58/33 33/60/35 81/137/36
f 81/138/36 33/60/35 35/62/37 80/135/38
f 80/136/38 35/62/37 37/64/39 79/133/40
f 79/134/40 37/64/39 39/66/41 78/131/42
f 78/132/42 39/66/41 41/68/43 77/129/44
f 77/130/44 41/68/43 43/70/45 76/127/46
f 76/128/46 43/70/45 45/72/47 75/125/48
f 86/148/26 75/126/48 45/72/47 47/74/27
f 1/1/49 3/51/50 27/54/51 25/52/52
f 3/51/50 5/53/53 29/56/54 27/54/51
f 5/53/53 7/55/55 31/58/56 29/56/54
f 7/55/55 9/57/57 33/60/58 31/58/56
f 9/57/57 11/59/59 35/62/60 33/60/58
f 11/59/59 13/61/61 37/64/62 35/62/60
f 13/61/61 15/63/63 39/66/64 37/64/62
f 15/63/63 17/65/65 41/68/66 39/66/64
f 17/65/65 19/67/67 43/70/68 41/68/66
f 19/67/67 21/69/69 45/72/70 43/70/68
f 21/69/69 23/71/71 47/74/72 45/72/70
f 23/71/71 1/73/49 25/26/52 47/74/72
f 50/101/73 49/102/74 51/86/75
f 52/103/76 50/101/73 51/86/75
f 53/104/77 52/103/76 51/86/75
f 54/105/78 53/104/77 51/86/75
f 55/106/79 54/105/78 51/86/75
f 56/107/80 55/106/79 51/86/75
f 57/108/81 56/107/80 51/86/75
f 58/109/82 57/108/81 51/86/75
f 59/110/83 58/109/82 51/86/75
f 60/111/84 59/110/83 51/86/75
f 61/112/85 60/111/84 51/86/75
f 49/102/74 61/112/85 51/86/75
f 63/113/86 62/114/87 64/100/88
f 62/114/87 65/115/89 64/100/88
f 65/115/89 66/116/90 64/100/88
f 66/116/90 67/117/91 64/100/88
f 67/117/91 68/118/92 64/100/88
f 68/118/92 69/119/93 64/100/88
f 69/119/93 70/120/94 64/100/88
f 70/120/94 71/121/95 64/100/88
f 71/121/95 72/122/96 64/100/88
f 72/122/96 73/123/97 64/100/88
f 73/123/97 74/124/98 64/100/88
f 74/124/98 63/113/86 64/100/88
f 4/76/99 2/75/100 49/102/74 50/101/73
f 6/77/101 4/76/99 50/101/73 52/103/76
f 8/78/102 6/77/101 52/103/76 53/104/77
f 10/79/103 8/78/102 53/104/77 54/105/78
f 12/80/104 10/79/103 54/105/78 55/106/79
f 14/81/105 12/80/104 55/106/79 56/107/80
f 16/82/106 14/81/105 56/107/80 57/108/81
f 18/83/107 16/82/106 57/108/81 58/109/82
f 20/84/108 18/83/107 58/109/82 59/110/83
f 22/85/109 20/84/108 59/110/83 60/111/84
f 24/87/110 22/85/109 60/111/84 61/112/85
f 2/75/100 24/87/110 61/112/85 49/102/74
f 26/99/111 28/88/112 62/114/87 63/113/86
f 28/88/112 30/89/113 65/115/89 62/114/87
f 30/89/113 32/90/114 66/116/90 65/115/89
f 32/90/114 34/91/115 67/117/91 66/116/90
f 34/91/115 36/92/116 68/118/92 67/117/91
f 36/92/116 38/93/117 69/119/93 68/118/92
f 38/93/117 40/94/118 70/120/94 69/119/93
f 40/94/118 42/95/119 71/121/95 70/120/94
f 42/95/119 44/96/120 72/122/96 71/121/95
f 44/96/120 46/97/121 73/123/97 72/122/96
f 46/97/121 48/98/122 74/124/98 73/123/97
f 48/98/122 26/99/111 63/113/86 74/124/98
f 44/47/123 76/128/124 75/125/125 46/48/126
f 42/45/127 77/130/128 76/127/124 44/46/123
f 40/43/129 78/132/130 77/129/128 42/44/127
f 38/41/131 79/134/132 78/131/130 40/42/129
f 36/39/133 80/136/134 79/133/132 38/40/131
f 34/37/135 81/138/136 80/135/134 36/38/133
f 32/35/137 82/140/138 81/137/136 34/36/135
f 30/33/139 83/142/140 82/139/138 32/34/137
f 28/31/141 84/144/142 83/141/140 30/32/139
f 26/29/143 85/146/144 84/143/142 28/30/141
f 26/27/143 48/28/145 86/147/146 85/145/144
f 46/49/126 75/126/125 86/148/146 48/50/145
f 19/67/147 88/152/148 87/149/149 21/69/150
f 17/65/151 89/154/152 88/151/148 19/67/147
f 15/63/153 90/156/154 89/153/152 17/65/151
f 13/61/155 91/158/156 90/155/154 15/63/153
f 11/59/157 92/160/158 91/157/156 13/61/155
f 9/57/159 93/162/160 92/159/158 11/59/157
f 7/55/161 94/164/162 93/161/160 9/57/159
f 5/53/163 95/166/164 94/163/162 7/55/161
f 3/51/165 96/168/166 95/165/164 5/53/163
f 97/169/167 96/167/166 3/51/165 1/1/168
f 98/171/169 97/170/167 1/73/168 23/71/170
f 21/69/150 87/150/149 98/172/169 23/71/170
