# This file uses meters as units for non-parametric coordinates.

v -55.872070 24.206940 2.758778
v 55.872070 24.206940 2.758778
v -55.872070 97.476074 2.758778
v 55.872070 97.476074 2.758778
v -55.872070 97.476074 -2.758778
v 55.872070 97.476074 -2.758778
v -55.872070 24.206940 -2.758778
v 55.872070 24.206940 -2.758778
v -51.681961 27.899254 2.758778
v 51.681961 27.899254 2.758778
v 51.681961 93.783798 2.758778
v -51.681961 93.783798 2.758778
v -51.681961 27.899254 -1.730092
v 51.681961 27.899254 -1.730092
v 51.681961 93.783798 -1.730092
v -51.681961 93.783798 -1.730092
v -55.872070 16.761276 -1.068244
v 55.872070 16.761276 -1.068244
v 55.872070 16.761276 4.449311
v -55.872070 16.761276 4.449311
vt 0.378322 0.964056
vt 0.402801 0.964018
vt 0.401811 0.963091
vt 0.379136 0.963125
vt 0.401811 0.942456
vt 0.379136 0.942491
vt 0.379161 0.940401
vt 0.401836 0.940366
vt 0.402828 0.939486
vt 0.378349 0.939523
vt 0.402801 0.941742
vt 0.378322 0.941779
vt 0.401883 0.942866
vt 0.379240 0.942901
vt 0.401883 0.962897
vt 0.379240 0.962932
vt 0.401811 0.942846
vt 0.379167 0.942880
vt 0.401811 0.962877
vt 0.379167 0.962911
vn 0.000000 1.000000 0.000000
vn 0.000000 1.000000 0.000000
vn 0.000000 1.000000 0.000000
vn 0.000000 1.000000 0.000000
vn 0.000000 0.000000 -1.000000
vn 0.000000 0.000000 -1.000000
vn 0.000000 0.000000 -1.000000
vn 0.000000 0.000000 -1.000000
vn 0.000000 -1.000000 0.000000
vn 0.000000 -1.000000 0.000000
vn 0.000000 -1.000000 0.000000
vn 0.000000 -1.000000 0.000000
vn 1.000000 0.000000 0.000000
vn 1.000000 0.000000 0.000000
vn 1.000000 0.000000 0.000000
vn 1.000000 0.000000 0.000000
vn -1.000000 0.000000 0.000000
vn -1.000000 0.000000 0.000000
vn -1.000000 0.000000 0.000000
vn -1.000000 0.000000 0.000000
vn 0.000000 0.000000 1.000000
vn 0.000000 0.000000 1.000000
vn 0.000000 0.000000 1.000000
vn 0.000000 0.000000 1.000000
vn -0.000000 0.000000 1.000000
vn -0.000000 0.000000 1.000000
vn -0.000000 0.000000 1.000000
vn -0.000000 0.000000 1.000000
vn 0.000000 0.000000 1.000000
vn 0.000000 0.000000 1.000000
vn 0.000000 0.000000 1.000000
vn 0.000000 0.000000 1.000000
vn 0.000000 0.000000 1.000000
vn 0.000000 0.000000 1.000000
vn 0.000000 0.000000 1.000000
vn 0.000000 0.000000 1.000000
vn 0.000000 1.000000 0.000000
vn 0.000000 1.000000 0.000000
vn 0.000000 1.000000 0.000000
vn 0.000000 1.000000 0.000000
vn -1.000000 0.000000 0.000000
vn -1.000000 0.000000 0.000000
vn -1.000000 0.000000 0.000000
vn -1.000000 0.000000 0.000000
vn 0.000000 -1.000000 0.000000
vn 0.000000 -1.000000 0.000000
vn 0.000000 -1.000000 0.000000
vn 0.000000 -1.000000 0.000000
vn 1.000000 0.000000 0.000000
vn 1.000000 0.000000 0.000000
vn 1.000000 0.000000 0.000000
vn 1.000000 0.000000 0.000000
vn 0.000000 -0.221414 -0.975180
vn 0.000000 -0.221414 -0.975180
vn 0.000000 -0.221414 -0.975180
vn 0.000000 -0.221414 -0.975180
vn 1.000000 0.000000 0.000000
vn 1.000000 0.000000 0.000000
vn 1.000000 0.000000 0.000000
vn 1.000000 0.000000 0.000000
vn 0.000000 0.221414 0.975180
vn 0.000000 0.221414 0.975180
vn 0.000000 0.221414 0.975180
vn 0.000000 0.221414 0.975180
vn -1.000000 -0.000000 0.000000
vn -1.000000 -0.000000 0.000000
vn -1.000000 -0.000000 0.000000
vn -1.000000 -0.000000 0.000000
f 3/1/1 4/2/2 6/3/3 5/4/4
f 5/4/5 6/3/6 8/5/7 7/6/8
f 17/7/9 18/8/10 19/9/11 20/10/12
f 2/11/13 8/5/14 6/3/15 4/2/16
f 7/6/17 1/12/18 3/1/19 5/4/20
f 1/12/21 2/11/22 10/13/23 9/14/24
f 2/11/25 4/2/26 11/15/27 10/13/28
f 4/2/29 3/1/30 12/16/31 11/15/32
f 3/1/33 1/12/34 9/14/35 12/16/36
f 9/14/37 10/13/38 14/17/39 13/18/40
f 10/13/41 11/15/42 15/19/43 14/17/44
f 11/15/45 12/16/46 16/20/47 15/19/48
f 12/16/49 9/14/50 13/18/51 16/20/52
f 7/6/53 8/5/54 18/8/55 17/7/56
f 8/5/57 2/11/58 19/9/59 18/8/60
f 2/11/61 1/12/62 20/10/63 19/9/64
f 1/12/65 7/6/66 17/7/67 20/10/68
