# This file uses meters as units for non-parametric coordinates.

v -13.127774 62.512444 -2.237676
v 13.127774 62.512444 -2.237676
v -13.127774 62.512444 -7.125316
v 13.127774 62.512444 -7.125316
v -13.127774 48.611015 -7.125316
v 13.127774 48.611015 -7.125316
v -13.127774 48.611015 -2.237676
v 13.127774 48.611015 -2.237676
v -8.979283 -0.000008 -16.739681
v 8.979283 -0.000008 -16.739681
v -8.836010 50.000000 -4.033221
v 8.836010 50.000000 -4.033221
v -8.836010 50.000000 -6.131371
v 8.836010 50.000000 -6.131371
v -8.979283 -0.000008 -22.676357
v 8.979283 -0.000008 -22.676357
v -28.225460 0.000000 0.687634
v 28.225460 0.000000 0.687634
v -28.225460 3.690845 -1.914579
v 28.225460 3.690845 -1.914579
v -28.225460 3.690845 -31.586214
v 28.225460 3.690845 -31.586214
v -28.225460 0.000000 -34.188427
v 28.225460 0.000000 -34.188427
v 28.225460 2.571634 0.687634
v -28.225460 2.571634 0.687634
v -28.225460 2.571634 -34.188427
v 28.225460 2.571634 -34.188427
vt 0.399064 0.995128
vt 0.382549 0.995028
vt 0.383933 0.992894
vt 0.397770 0.992978
vt 0.383933 0.979989
vt 0.397770 0.980072
vt 0.382549 0.978347
vt 0.399064 0.978446
vt 0.402172 0.973179
vt 0.380262 0.973301
vt 0.380302 0.991541
vt 0.402212 0.991420
vt 0.397030 0.972567
vt 0.383278 0.972562
vt 0.383354 0.992499
vt 0.396886 0.992504
vt 0.400142 0.992339
vt 0.380082 0.992334
vt 0.379985 0.972094
vt 0.400371 0.972099
vt 0.399047 0.974090
vt 0.383393 0.974176
vt 0.380258 0.971529
vt 0.402168 0.971407
vt 0.399081 0.989408
vt 0.383427 0.989494
vt 0.380306 0.992969
vt 0.402215 0.992847
vn 0.000000 1.000000 0.000000
vn 0.000000 1.000000 0.000000
vn 0.000000 1.000000 0.000000
vn 0.000000 1.000000 0.000000
vn 0.000000 0.000000 -1.000000
vn 0.000000 0.000000 -1.000000
vn 0.000000 0.000000 -1.000000
vn 0.000000 0.000000 -1.000000
vn 0.000000 -1.000000 0.000000
vn 0.000000 -1.000000 0.000000
vn 0.000000 -1.000000 0.000000
vn 0.000000 -1.000000 0.000000
vn 1.000000 0.000000 0.000000
vn 1.000000 0.000000 0.000000
vn 1.000000 0.000000 0.000000
vn 1.000000 0.000000 0.000000
vn -1.000000 0.000000 0.000000
vn -1.000000 0.000000 0.000000
vn -1.000000 0.000000 0.000000
vn -1.000000 0.000000 0.000000
vn 0.000000 -0.246300 0.969194
vn 0.000000 -0.246300 0.969194
vn 0.000000 -0.246300 0.969194
vn 0.000000 -0.246300 0.969194
vn 0.000000 0.314148 -0.949374
vn 0.000000 0.314148 -0.949374
vn 0.000000 0.314148 -0.949374
vn 0.000000 0.314148 -0.949374
vn 0.999996 0.002865 0.000000
vn 0.999996 0.002865 0.000000
vn 0.999996 0.002865 0.000000
vn 0.999996 0.002865 0.000000
vn -0.999996 0.002865 0.000000
vn -0.999996 0.002865 0.000000
vn -0.999996 0.002865 0.000000
vn -0.999996 0.002865 0.000000
vn 0.000000 0.000000 1.000000
vn 0.000000 0.000000 1.000000
vn 0.000000 0.576226 0.817290
vn 0.000000 0.576226 0.817290
vn 0.000000 1.000000 0.000000
vn 0.000000 1.000000 0.000000
vn 0.000000 1.000000 0.000000
vn 0.000000 1.000000 0.000000
vn 0.000000 0.576226 -0.817290
vn 0.000000 0.576226 -0.817290
vn 0.000000 0.000000 -1.000000
vn 0.000000 0.000000 -1.000000
vn 0.000000 -1.000000 0.000000
vn 0.000000 -1.000000 0.000000
vn 0.000000 -1.000000 0.000000
vn 0.000000 -1.000000 0.000000
vn 1.000000 0.000000 0.000000
vn 1.000000 0.000000 0.000000
vn 1.000000 -0.000000 0.000000
vn 1.000000 -0.000000 0.000000
vn -1.000000 0.000000 0.000000
vn -1.000000 0.000000 0.000000
vn -1.000000 -0.000000 0.000000
vn -1.000000 -0.000000 0.000000
vn 0.000000 0.918636 0.395105
vn 0.000000 0.918636 0.395105
vn -1.000000 -0.000001 0.000000
vn -1.000000 -0.000001 0.000000
vn 0.000000 0.918636 -0.395105
vn 0.000000 0.918636 -0.395105
vn 1.000000 -0.000001 0.000000
vn 1.000000 -0.000001 0.000000
f 1/1/1 2/2/2 4/3/3 3/4/4
f 3/4/5 4/3/6 6/5/7 5/6/8
f 5/6/9 6/5/10 8/7/11 7/8/12
f 2/2/13 8/7/14 6/5/15 4/3/16
f 7/8/17 1/1/18 3/4/19 5/6/20
f 9/13/21 10/14/22 12/15/23 11/16/24
f 13/17/25 14/18/26 16/19/27 15/20/28
f 10/14/29 16/19/30 14/18/31 12/15/32
f 15/20/33 9/13/34 11/16/35 13/17/36
f 17/25/37 18/26/38 25/27/39 26/28/40
f 19/12/41 20/11/42 22/10/43 21/9/44
f 27/24/45 28/23/46 24/22/47 23/21/48
f 23/21/49 24/22/50 18/26/51 17/25/52
f 18/26/53 24/22/54 28/23/55 25/27/56
f 23/21/57 17/25/58 26/28/59 27/24/60
f 26/28/40 25/27/39 20/11/61 19/12/62
f 27/24/60 26/28/59 19/12/63 21/9/64
f 21/9/65 22/10/66 28/23/46 27/24/45
f 25/27/56 28/23/55 22/10/67 20/11/68
