# This file uses meters as units for non-parametric coordinates.

v -55.872070 24.206940 2.758778
v 55.872070 24.206940 2.758778
v -55.872070 97.476074 2.758778
v 55.872070 97.476074 2.758778
v -55.872070 97.476074 -2.758778
v 55.872070 97.476074 -2.758778
v -55.872070 24.206940 -2.758778
v 55.872070 24.206940 -2.758778
v -51.681961 27.899254 2.758778
v 51.681961 27.899254 2.758778
v 51.681961 93.783798 2.758778
v -51.681961 93.783798 2.758778
v -51.681961 27.899254 -1.730092
v 51.681961 27.899254 -1.730092
v 51.681961 93.783798 -1.730092
v -51.681961 93.783798 -1.730092
v -55.872070 16.761276 -1.068244
v 55.872070 16.761276 -1.068244
v 55.872070 16.761276 4.449311
v -55.872070 16.761276 4.449311
vt 0.409572 0.932806
vt 0.434051 0.932768
vt 0.433061 0.931841
vt 0.410386 0.931875
vt 0.433061 0.911206
vt 0.410386 0.911241
vt 0.410411 0.909151
vt 0.433086 0.909116
vt 0.434078 0.908236
vt 0.409599 0.908273
vt 0.434051 0.910492
vt 0.409572 0.910529
vt 0.433133 0.911616
vt 0.410490 0.911651
vt 0.433133 0.931647
vt 0.410490 0.931682
vt 0.433061 0.911596
vt 0.410417 0.911630
vt 0.433061 0.931627
vt 0.410417 0.931661
vn 0.000000 1.000000 0.000000
vn 0.000000 1.000000 0.000000
vn 0.000000 1.000000 0.000000
vn 0.000000 1.000000 0.000000
vn 0.000000 0.000000 -1.000000
vn 0.000000 0.000000 -1.000000
vn 0.000000 0.000000 -1.000000
vn 0.000000 0.000000 -1.000000
vn 0.000000 -1.000000 0.000000
vn 0.000000 -1.000000 0.000000
vn 0.000000 -1.000000 0.000000
vn 0.000000 -1.000000 0.000000
vn 1.000000 0.000000 0.000000
vn 1.000000 0.000000 0.000000
vn 1.000000 0.000000 0.000000
vn 1.000000 0.000000 0.000000
vn -1.000000 0.000000 0.000000
vn -1.000000 0.000000 0.000000
vn -1.000000 0.000000 0.000000
vn -1.000000 0.000000 0.000000
vn 0.000000 0.000000 1.000000
vn 0.000000 0.000000 1.000000
vn 0.000000 0.000000 1.000000
vn 0.000000 0.000000 1.000000
vn -0.000000 0.000000 1.000000
vn -0.000000 0.000000 1.000000
vn -0.000000 0.000000 1.000000
vn -0.000000 0.000000 1.000000
vn 0.000000 0.000000 1.000000
vn 0.000000 0.000000 1.000000
vn 0.000000 0.000000 1.000000
vn 0.000000 0.000000 1.000000
vn 0.000000 0.000000 1.000000
vn 0.000000 0.000000 1.000000
vn 0.000000 0.000000 1.000000
vn 0.000000 0.000000 1.000000
vn 0.000000 1.000000 0.000000
vn 0.000000 1.000000 0.000000
vn 0.000000 1.000000 0.000000
vn 0.000000 1.000000 0.000000
vn -1.000000 0.000000 0.000000
vn -1.000000 0.000000 0.000000
vn -1.000000 0.000000 0.000000
vn -1.000000 0.000000 0.000000
vn 0.000000 -1.000000 0.000000
vn 0.000000 -1.000000 0.000000
vn 0.000000 -1.000000 0.000000
vn 0.000000 -1.000000 0.000000
vn 1.000000 0.000000 0.000000
vn 1.000000 0.000000 0.000000
vn 1.000000 0.000000 0.000000
vn 1.000000 0.000000 0.000000
vn 0.000000 -0.221414 -0.975180
vn 0.000000 -0.221414 -0.975180
vn 0.000000 -0.221414 -0.975180
vn 0.000000 -0.221414 -0.975180
vn 1.000000 0.000000 0.000000
vn 1.000000 0.000000 0.000000
vn 1.000000 0.000000 0.000000
vn 1.000000 0.000000 0.000000
vn 0.000000 0.221414 0.975180
vn 0.000000 0.221414 0.975180
vn 0.000000 0.221414 0.975180
vn 0.000000 0.221414 0.975180
vn -1.000000 -0.000000 0.000000
vn -1.000000 -0.000000 0.000000
vn -1.000000 -0.000000 0.000000
vn -1.000000 -0.000000 0.000000
f 3/1/1 4/2/2 6/3/3 5/4/4
f 5/4/5 6/3/6 8/5/7 7/6/8
f 17/7/9 18/8/10 19/9/11 20/10/12
f 2/11/13 8/5/14 6/3/15 4/2/16
f 7/6/17 1/12/18 3/1/19 5/4/20
f 1/12/21 2/11/22 10/13/23 9/14/24
f 2/11/25 4/2/26 11/15/27 10/13/28
f 4/2/29 3/1/30 12/16/31 11/15/32
f 3/1/33 1/12/34 9/14/35 12/16/36
f 9/14/37 10/13/38 14/17/39 13/18/40
f 10/13/41 11/15/42 15/19/43 14/17/44
f 11/15/45 12/16/46 16/20/47 15/19/48
f 12/16/49 9/14/50 13/18/51 16/20/52
f 7/6/53 8/5/54 18/8/55 17/7/56
f 8/5/57 2/11/58 19/9/59 18/8/60
f 2/11/61 1/12/62 20/10/63 19/9/64
f 1/12/65 7/6/66 17/7/67 20/10/68
