# This file uses meters as units for non-parametric coordinates.

v -8.911873 60.280262 -1.758422
v 8.911873 60.280262 -1.758421
v -8.911873 60.280262 -9.681331
v 8.911873 60.280262 -9.681331
v -8.911873 50.843189 -9.681331
v 8.911873 50.843189 -9.681331
v -8.911873 50.843189 -1.758422
v 8.911873 50.843189 -1.758421
v -8.911873 57.767742 -11.469732
v 8.911873 57.767742 -11.469732
v 8.911873 53.355717 -11.469732
v -8.911873 53.355717 -11.469732
v 5.656374 2.039803 -18.477497
v -5.656374 2.039803 -18.477497
v -11.312748 2.039803 -8.680361
v -5.656374 2.039803 1.116778
v 5.656374 2.039803 1.116778
v 11.312748 2.039803 -8.680359
v 1.878092 51.509319 -9.574517
v -1.878092 51.509319 -9.574517
v -3.756184 51.509319 -6.321564
v -1.878092 51.509319 -3.068610
v 1.878092 51.509319 -3.068610
v 3.756184 51.509319 -6.321564
v 7.159237 9.653939 -9.737271
v 3.579618 9.652431 -3.814811
v -3.579618 9.652431 -3.814811
v -7.159237 9.653940 -9.737272
v -3.579618 9.655447 -15.659732
v 3.579618 9.655447 -15.659732
v -28.537603 0.000000 13.250445
v 28.537603 0.000000 13.250445
v -28.537603 2.728710 13.250445
v 28.537603 2.728710 13.250445
v -28.537603 2.728710 -30.574898
v 28.537603 2.728710 -30.574898
v -28.537603 0.000000 -30.574898
v 28.537603 0.000000 -30.574898
v -28.537603 3.960095 9.395763
v 28.537603 3.960095 9.395763
v 28.537603 3.960095 -26.720217
v -28.537603 3.960095 -26.720217
vt 0.446627 0.990031
vt 0.458799 0.990054
vt 0.462319 0.993070
vt 0.443047 0.993046
vt 0.441247 0.988870
vt 0.464097 0.988893
vt 0.464097 0.980364
vt 0.441247 0.980341
vt 0.443047 0.974803
vt 0.462319 0.974826
vt 0.458799 0.971811
vt 0.446627 0.971787
vt 0.455714 0.970314
vt 0.448602 0.970314
vt 0.449914 0.976530
vt 0.454415 0.976530
vt 0.445068 0.970314
vt 0.447677 0.976530
vt 0.448645 0.970314
vt 0.449940 0.976530
vt 0.455757 0.970314
vt 0.454441 0.976530
vt 0.459291 0.970314
vt 0.456678 0.976530
vt 0.454546 0.996441
vt 0.453373 0.996085
vt 0.451011 0.996083
vt 0.449824 0.996438
vt 0.450997 0.996794
vt 0.453358 0.996796
vt 0.444747 0.970893
vt 0.461055 0.970994
vt 0.461055 0.972832
vt 0.444747 0.972731
vt 0.440872 0.975512
vt 0.464940 0.975613
vt 0.464886 0.993903
vt 0.440818 0.993802
vt 0.444703 0.994925
vt 0.461011 0.995026
vt 0.461011 0.993188
vt 0.444703 0.993087
vn 0.000000 1.000000 0.000000
vn 0.000000 1.000000 0.000000
vn 0.000000 1.000000 0.000000
vn 0.000000 1.000000 0.000000
vn 0.000000 0.000000 -1.000000
vn 0.000000 0.000000 -1.000000
vn 0.000000 0.000000 -1.000000
vn 0.000000 0.000000 -1.000000
vn 0.000000 -1.000000 0.000000
vn 0.000000 -1.000000 0.000000
vn 0.000000 -1.000000 0.000000
vn 0.000000 -1.000000 0.000000
vn 1.000000 0.000000 0.000000
vn 1.000000 0.000000 0.000000
vn 1.000000 0.000000 0.000000
vn 1.000000 0.000000 0.000000
vn -1.000000 0.000000 0.000000
vn -1.000000 0.000000 0.000000
vn -1.000000 0.000000 0.000000
vn -1.000000 0.000000 0.000000
vn 0.000000 0.579895 -0.814691
vn 0.000000 0.579895 -0.814691
vn 0.000000 0.579895 -0.814691
vn 0.000000 0.579895 -0.814691
vn 1.000000 0.000000 0.000000
vn 1.000000 0.000000 0.000000
vn 1.000000 0.000000 0.000000
vn 1.000000 0.000000 0.000000
vn 0.000000 -0.579893 -0.814693
vn 0.000000 -0.579893 -0.814693
vn 0.000000 -0.579893 -0.814693
vn 0.000000 -0.579893 -0.814693
vn -1.000000 0.000000 0.000000
vn -1.000000 0.000000 0.000000
vn -1.000000 0.000000 0.000000
vn -1.000000 0.000000 0.000000
vn 0.463529 0.410829 -0.785086
vn -0.463529 0.410829 -0.785086
vn -0.467127 0.222759 -0.855670
vn 0.467127 0.222759 -0.855670
vn -0.869794 0.491664 0.041539
vn -0.978295 0.205264 -0.028386
vn -0.384540 0.570140 0.725996
vn -0.494502 0.185392 0.849174
vn 0.384539 0.570140 0.725996
vn 0.494502 0.185392 0.849175
vn 0.869794 0.491664 0.041539
vn 0.978295 0.205264 -0.028386
vn 0.996651 0.077567 0.025894
vn 0.476778 0.004358 0.879013
vn -0.476778 0.004358 0.879013
vn -0.996651 0.077567 0.025894
vn -0.493270 0.145416 -0.857636
vn 0.493270 0.145416 -0.857636
vn 0.000000 0.000000 1.000000
vn 0.000000 0.000000 1.000000
vn 0.000000 0.000000 1.000000
vn 0.000000 0.000000 1.000000
vn 0.000000 1.000000 0.000000
vn 0.000000 1.000000 0.000000
vn 0.000000 1.000000 0.000000
vn 0.000000 1.000000 0.000000
vn 0.000000 0.000000 -1.000000
vn 0.000000 0.000000 -1.000000
vn 0.000000 0.000000 -1.000000
vn 0.000000 0.000000 -1.000000
vn 0.000000 -1.000000 0.000000
vn 0.000000 -1.000000 0.000000
vn 0.000000 -1.000000 0.000000
vn 0.000000 -1.000000 0.000000
vn 1.000000 0.000000 0.000000
vn 1.000000 0.000000 0.000000
vn 1.000000 0.000000 0.000000
vn 1.000000 0.000000 0.000000
vn -1.000000 0.000000 0.000000
vn -1.000000 0.000000 0.000000
vn -1.000000 0.000000 0.000000
vn -1.000000 0.000000 0.000000
vn 0.000000 0.952576 0.304302
vn 0.000000 0.952576 0.304302
vn 0.000000 0.952576 0.304302
vn 0.000000 0.952576 0.304302
vn 1.000000 0.000001 0.000000
vn 1.000000 0.000001 0.000000
vn 1.000000 0.000001 0.000000
vn 1.000000 0.000001 0.000000
vn 0.000000 0.952576 -0.304302
vn 0.000000 0.952576 -0.304302
vn 0.000000 0.952576 -0.304302
vn 0.000000 0.952576 -0.304302
vn -1.000000 -0.000001 0.000000
vn -1.000000 -0.000001 0.000000
vn -1.000000 -0.000001 0.000000
vn -1.000000 -0.000001 0.000000
f 1/1/1 2/2/2 4/3/3 3/4/4
f 9/5/5 10/6/6 11/7/7 12/8/8
f 5/9/9 6/10/10 8/11/11 7/12/12
f 2/2/13 8/11/14 6/10/15 4/3/16
f 7/12/17 1/1/18 3/4/19 5/9/20
f 3/4/21 4/3/22 10/6/23 9/5/24
f 4/3/25 6/10/26 11/7/27 10/6/28
f 6/10/29 5/9/30 12/8/31 11/7/32
f 5/9/33 3/4/34 9/5/35 12/8/36
f 13/13/37 14/14/38 29/15/39 30/16/40
f 14/14/38 15/17/41 28/18/42 29/15/39
f 15/17/41 16/19/43 27/20/44 28/18/42
f 16/19/43 17/21/45 26/22/46 27/20/44
f 17/21/45 18/23/47 25/24/48 26/22/46
f 18/23/47 13/13/37 30/16/40 25/24/48
f 26/22/46 25/24/48 24/25/49 23/26/50
f 27/20/44 26/22/46 23/26/50 22/27/51
f 28/18/42 27/20/44 22/27/51 21/28/52
f 29/15/39 28/18/42 21/28/52 20/29/53
f 30/16/40 29/15/39 20/29/53 19/30/54
f 25/24/48 30/16/40 19/30/54 24/25/49
f 31/31/55 32/32/56 34/33/57 33/34/58
f 39/35/59 40/36/60 41/37/61 42/38/62
f 35/39/63 36/40/64 38/41/65 37/42/66
f 37/42/67 38/41/68 32/32/69 31/31/70
f 32/32/71 38/41/72 36/40/73 34/33/74
f 37/42/75 31/31/76 33/34/77 35/39/78
f 33/34/79 34/33/80 40/36/81 39/35/82
f 34/33/83 36/40/84 41/37/85 40/36/86
f 36/40/87 35/39/88 42/38/89 41/37/90
f 35/39/91 33/34/92 39/35/93 42/38/94
