# This file uses meters as units for non-parametric coordinates.

v -96.405373 17.629810 2.758778
v 96.405373 17.629810 2.758778
v -96.405373 144.053207 2.758778
v 96.405373 144.053207 2.758778
v -96.405373 144.053207 -2.758778
v 96.405373 144.053207 -2.758778
v -96.405373 17.629810 -2.758778
v 96.405373 17.629810 -2.758778
v -89.175529 24.000767 2.758778
v 89.175529 24.000767 2.758778
v 89.175529 137.682266 2.758778
v -89.175529 137.682266 2.758778
v -89.175529 24.000767 -1.730092
v 89.175529 24.000767 -1.730092
v 89.175529 137.682266 -1.730092
v -89.175529 137.682266 -1.730092
vt 0.441729 0.995470
vt 0.465171 0.995592
vt 0.462554 0.993100
vt 0.444295 0.993004
vt 0.462554 0.973596
vt 0.444295 0.973501
vt 0.465171 0.970948
vt 0.441729 0.970826
vt 0.464292 0.972116
vt 0.442608 0.972003
vt 0.464292 0.994416
vt 0.442608 0.994303
vt 0.462273 0.974184
vt 0.444585 0.974092
vt 0.462273 0.992475
vt 0.444585 0.992383
vn 0.000000 1.000000 0.000000
vn 0.000000 1.000000 0.000000
vn 0.000000 1.000000 0.000000
vn 0.000000 1.000000 0.000000
vn 0.000000 0.000000 -1.000000
vn 0.000000 0.000000 -1.000000
vn 0.000000 0.000000 -1.000000
vn 0.000000 0.000000 -1.000000
vn 0.000000 -1.000000 0.000000
vn 0.000000 -1.000000 0.000000
vn 0.000000 -1.000000 0.000000
vn 0.000000 -1.000000 0.000000
vn 1.000000 0.000000 0.000000
vn 1.000000 0.000000 0.000000
vn 1.000000 0.000000 0.000000
vn 1.000000 0.000000 0.000000
vn -1.000000 0.000000 0.000000
vn -1.000000 0.000000 0.000000
vn -1.000000 0.000000 0.000000
vn -1.000000 0.000000 0.000000
vn 0.000000 0.000000 1.000000
vn 0.000000 0.000000 1.000000
vn 0.000000 0.000000 1.000000
vn 0.000000 0.000000 1.000000
vn 0.000000 0.000000 1.000000
vn 0.000000 0.000000 1.000000
vn 0.000000 0.000000 1.000000
vn 0.000000 0.000000 1.000000
vn 0.000000 0.000000 1.000000
vn 0.000000 0.000000 1.000000
vn 0.000000 0.000000 1.000000
vn 0.000000 0.000000 1.000000
vn 0.000000 0.000000 1.000000
vn 0.000000 0.000000 1.000000
vn 0.000000 0.000000 1.000000
vn 0.000000 0.000000 1.000000
vn 0.000000 1.000000 0.000000
vn 0.000000 1.000000 0.000000
vn 0.000000 1.000000 0.000000
vn 0.000000 1.000000 0.000000
vn -1.000000 0.000000 0.000000
vn -1.000000 0.000000 0.000000
vn -1.000000 0.000000 0.000000
vn -1.000000 0.000000 0.000000
vn 0.000000 -1.000000 0.000000
vn 0.000000 -1.000000 0.000000
vn 0.000000 -1.000000 0.000000
vn 0.000000 -1.000000 0.000000
vn 1.000000 0.000000 0.000000
vn 1.000000 0.000000 0.000000
vn 1.000000 0.000000 0.000000
vn 1.000000 0.000000 0.000000
f 3/1/1 4/2/2 6/3/3 5/4/4
f 5/4/5 6/3/6 8/5/7 7/6/8
f 7/6/9 8/5/10 2/7/11 1/8/12
f 2/7/13 8/5/14 6/3/15 4/2/16
f 7/6/17 1/8/18 3/1/19 5/4/20
f 1/8/21 2/7/22 10/9/23 9/10/24
f 2/7/25 4/2/26 11/11/27 10/9/28
f 4/2/29 3/1/30 12/12/31 11/11/32
f 3/1/33 1/8/34 9/10/35 12/12/36
f 9/10/37 10/9/38 14/13/39 13/14/40
f 10/9/41 11/11/42 15/15/43 14/13/44
f 11/11/45 12/12/46 16/16/47 15/15/48
f 12/12/49 9/10/50 13/14/51 16/16/52
