# This file uses meters as units for non-parametric coordinates.

v -120.499634 19.907066 3.100201
v 120.499634 19.907066 3.100201
v -120.499634 185.725433 3.100201
v 120.499634 185.725433 3.100201
v -120.499634 185.725433 -3.148200
v 120.499634 185.725433 -3.148200
v -120.499634 19.907066 -3.148200
v 120.499634 19.907066 -3.148200
v -112.312134 27.121908 3.100201
v 112.312134 27.121908 3.100201
v 112.312134 178.510605 3.100201
v -112.312134 178.510605 3.100201
v -112.312134 27.121908 -1.983256
v 112.312134 27.121908 -1.983256
v 112.312134 178.510605 -1.983256
v -112.312134 178.510605 -1.983256
vt 0.380345 0.992748
vt 0.400654 0.992715
vt 0.398090 0.990183
vt 0.382832 0.990208
vt 0.398090 0.974929
vt 0.382832 0.974953
vt 0.400654 0.972412
vt 0.380345 0.972444
vt 0.399964 0.973296
vt 0.381035 0.973326
vt 0.399964 0.991833
vt 0.381035 0.991863
vt 0.398189 0.974997
vt 0.382747 0.975022
vt 0.398189 0.990119
vt 0.382747 0.990144
vn 0.000000 1.000000 0.000000
vn 0.000000 1.000000 0.000000
vn 0.000000 1.000000 0.000000
vn 0.000000 1.000000 0.000000
vn 0.000000 0.000000 -1.000000
vn 0.000000 0.000000 -1.000000
vn 0.000000 0.000000 -1.000000
vn 0.000000 0.000000 -1.000000
vn 0.000000 -1.000000 0.000000
vn 0.000000 -1.000000 0.000000
vn 0.000000 -1.000000 0.000000
vn 0.000000 -1.000000 0.000000
vn 1.000000 0.000000 0.000000
vn 1.000000 0.000000 0.000000
vn 1.000000 0.000000 0.000000
vn 1.000000 0.000000 0.000000
vn -1.000000 0.000000 0.000000
vn -1.000000 0.000000 0.000000
vn -1.000000 0.000000 0.000000
vn -1.000000 0.000000 0.000000
vn 0.000000 0.000000 1.000000
vn 0.000000 0.000000 1.000000
vn 0.000000 0.000000 1.000000
vn 0.000000 0.000000 1.000000
vn 0.000000 0.000000 1.000000
vn 0.000000 0.000000 1.000000
vn 0.000000 0.000000 1.000000
vn 0.000000 0.000000 1.000000
vn 0.000000 0.000000 1.000000
vn 0.000000 0.000000 1.000000
vn 0.000000 0.000000 1.000000
vn 0.000000 0.000000 1.000000
vn -0.000000 0.000000 1.000000
vn -0.000000 0.000000 1.000000
vn -0.000000 0.000000 1.000000
vn -0.000000 0.000000 1.000000
vn 0.000000 1.000000 0.000000
vn 0.000000 1.000000 0.000000
vn 0.000000 1.000000 0.000000
vn 0.000000 1.000000 0.000000
vn -1.000000 0.000000 0.000000
vn -1.000000 0.000000 0.000000
vn -1.000000 0.000000 0.000000
vn -1.000000 0.000000 0.000000
vn 0.000000 -1.000000 0.000000
vn 0.000000 -1.000000 0.000000
vn 0.000000 -1.000000 0.000000
vn 0.000000 -1.000000 0.000000
vn 1.000000 0.000000 0.000000
vn 1.000000 0.000000 0.000000
vn 1.000000 0.000000 0.000000
vn 1.000000 0.000000 0.000000
f 3/1/1 4/2/2 6/3/3 5/4/4
f 5/4/5 6/3/6 8/5/7 7/6/8
f 7/6/9 8/5/10 2/7/11 1/8/12
f 2/7/13 8/5/14 6/3/15 4/2/16
f 7/6/17 1/8/18 3/1/19 5/4/20
f 1/8/21 2/7/22 10/9/23 9/10/24
f 2/7/25 4/2/26 11/11/27 10/9/28
f 4/2/29 3/1/30 12/12/31 11/11/32
f 3/1/33 1/8/34 9/10/35 12/12/36
f 9/10/37 10/9/38 14/13/39 13/14/40
f 10/9/41 11/11/42 15/15/43 14/13/44
f 11/11/45 12/12/46 16/16/47 15/15/48
f 12/12/49 9/10/50 13/14/51 16/16/52
