# This file uses meters as units for non-parametric coordinates.

v -43.201469 62.512444 -2.237676
v 43.201469 62.512444 -2.237676
v -43.201469 62.512444 -15.120631
v 43.201469 62.512444 -15.120631
v -43.201469 48.611015 -15.120631
v 43.201469 48.611015 -15.120631
v -43.201469 48.611015 -2.237676
v 43.201469 48.611015 -2.237676
v -50.000000 2.229217 -13.225964
v 50.000000 2.229217 -13.225964
v -38.909706 50.000000 -4.171121
v 38.909706 50.000000 -4.171121
v -38.909706 50.000000 -10.107797
v 38.909706 50.000000 -10.107797
v -50.000000 2.229217 -19.162640
v 50.000000 2.229217 -19.162640
v -62.414410 2.968338 11.415144
v 62.414410 2.968338 11.415144
v -62.414410 2.968338 -33.457481
v 62.414410 2.968338 -33.457481
v -65.747734 -2.968338 -36.021172
v 65.747734 -2.968338 -36.021172
v -65.747734 -2.968338 13.978834
v 65.747734 -2.968338 13.978834
v -65.747734 0.843884 -36.021172
v -65.747734 0.843884 13.978834
v 65.747734 0.843884 13.978834
v 65.747734 0.843884 -36.021172
vt 0.495177 0.985017
vt 0.470842 0.984867
vt 0.473990 0.982241
vt 0.492020 0.982204
vt 0.474295 0.971970
vt 0.492325 0.971933
vt 0.471375 0.976871
vt 0.495710 0.977020
vt 0.475501 0.978644
vt 0.493838 0.978820
vt 0.494168 0.991691
vt 0.475832 0.991515
vt 0.470952 0.970454
vt 0.497873 0.970454
vt 0.495818 0.991992
vt 0.473007 0.991991
vt 0.494931 0.995536
vt 0.473894 0.995533
vt 0.493351 0.970454
vt 0.475474 0.970454
vt 0.491760 0.970454
vt 0.491308 0.990349
vt 0.477066 0.970454
vt 0.477517 0.990350
vt 0.495858 0.993360
vt 0.474233 0.993263
vt 0.473084 0.996078
vt 0.497195 0.996081
vt 0.496539 0.973035
vt 0.472428 0.973033
vt 0.473781 0.976172
vt 0.495406 0.976269
vn 0.000000 1.000000 0.000000
vn 0.000000 1.000000 0.000000
vn 0.000000 1.000000 0.000000
vn 0.000000 1.000000 0.000000
vn 0.000000 0.000000 -1.000000
vn 0.000000 0.000000 -1.000000
vn 0.000000 0.000000 -1.000000
vn 0.000000 0.000000 -1.000000
vn 0.000000 -1.000000 0.000000
vn 0.000000 -1.000000 0.000000
vn 0.000000 -1.000000 0.000000
vn 0.000000 -1.000000 0.000000
vn 1.000000 0.000000 0.000000
vn 1.000000 0.000000 0.000000
vn 1.000000 0.000000 0.000000
vn 1.000000 0.000000 0.000000
vn -1.000000 0.000000 0.000000
vn -1.000000 0.000000 0.000000
vn -1.000000 0.000000 0.000000
vn -1.000000 0.000000 0.000000
vn 0.000000 -0.186232 0.982506
vn 0.000000 -0.186232 0.982506
vn 0.000000 -0.186232 0.982506
vn 0.000000 -0.186232 0.982506
vn 0.000000 1.000000 0.000000
vn 0.000000 1.000000 0.000000
vn 0.000000 1.000000 0.000000
vn 0.000000 1.000000 0.000000
vn 0.000000 0.186232 -0.982506
vn 0.000000 0.186232 -0.982506
vn 0.000000 0.186232 -0.982506
vn 0.000000 0.186232 -0.982506
vn 0.974094 0.226142 0.000000
vn 0.974094 0.226142 0.000000
vn 0.974094 0.226142 0.000000
vn 0.974094 0.226142 0.000000
vn -0.974094 0.226142 0.000000
vn -0.974094 0.226142 0.000000
vn -0.974094 0.226142 0.000000
vn -0.974094 0.226142 0.000000
vn 0.000000 1.000000 0.000000
vn 0.000000 1.000000 0.000000
vn 0.000000 1.000000 0.000000
vn 0.000000 1.000000 0.000000
vn 0.000000 0.769984 -0.638063
vn 0.000000 0.769984 -0.638063
vn 0.000000 0.249441 -0.968390
vn 0.000000 0.249441 -0.968390
vn 0.000000 -1.000000 0.000000
vn 0.000000 -1.000000 0.000000
vn 0.000000 -1.000000 0.000000
vn 0.000000 -1.000000 0.000000
vn 0.000000 0.249441 0.968390
vn 0.000000 0.249441 0.968390
vn 0.000000 0.769984 0.638063
vn 0.000000 0.769984 0.638063
vn 0.537460 0.843290 0.000000
vn 0.930465 0.366381 0.000000
vn 0.930465 0.366381 0.000000
vn 0.537460 0.843290 0.000000
vn -0.930465 0.366381 0.000000
vn -0.537460 0.843290 0.000000
vn -0.537460 0.843290 0.000000
vn -0.930465 0.366381 0.000000
vn -1.000000 0.000000 0.000000
vn -1.000000 0.000000 0.000000
vn 0.000000 0.000000 1.000000
vn 0.000000 0.000000 1.000000
vn 1.000000 0.000000 0.000000
vn 1.000000 0.000000 0.000000
vn 0.000000 0.000000 -1.000000
vn 0.000000 0.000000 -1.000000
f 1/1/1 2/2/2 4/3/3 3/4/4
f 3/4/5 4/3/6 6/5/7 5/6/8
f 5/6/9 6/5/10 8/7/11 7/8/12
f 2/2/13 8/7/14 6/5/15 4/3/16
f 7/8/17 1/1/18 3/4/19 5/6/20
f 9/13/21 10/14/22 12/15/23 11/16/24
f 11/16/25 12/15/26 14/17/27 13/18/28
f 13/18/29 14/17/30 16/19/31 15/20/32
f 10/14/33 16/21/34 14/22/35 12/15/36
f 15/23/37 9/13/38 11/16/39 13/24/40
f 17/9/41 18/10/42 20/11/43 19/12/44
f 19/12/45 20/11/46 28/25/47 25/26/48
f 21/27/49 22/28/50 24/29/51 23/30/52
f 26/31/53 27/32/54 18/10/55 17/9/56
f 18/10/57 27/32/58 28/25/59 20/11/60
f 26/31/61 17/9/62 19/12/63 25/26/64
f 23/30/65 26/31/61 25/26/64 21/27/66
f 23/30/67 24/29/68 27/32/54 26/31/53
f 28/25/59 27/32/58 24/29/69 22/28/70
f 25/26/48 28/25/47 22/28/71 21/27/72
