# This file uses meters as units for non-parametric coordinates.

v -148.532257 17.629811 2.758778
v 148.532257 17.629811 2.758778
v -148.532257 224.951832 2.758778
v 148.532257 224.951832 2.758778
v -148.532257 224.951832 -2.758778
v 148.532257 224.951832 -2.758778
v -148.532257 17.629811 -2.758778
v 148.532257 17.629811 -2.758778
v -141.302414 24.000767 2.758778
v 141.302414 24.000767 2.758778
v 141.302414 218.580876 2.758778
v -141.302414 218.580876 2.758778
v -141.302414 24.000767 -1.730092
v 141.302414 24.000767 -1.730092
v 141.302414 218.580876 -1.730092
v -141.302414 218.580876 -1.730092
vt 0.471388 0.966131
vt 0.496545 0.966157
vt 0.493859 0.963503
vt 0.474032 0.963481
vt 0.493859 0.943689
vt 0.474032 0.943668
vt 0.496545 0.941018
vt 0.471388 0.940991
vt 0.494499 0.943201
vt 0.473433 0.943178
vt 0.494499 0.963970
vt 0.473433 0.963947
vt 0.492939 0.944729
vt 0.474959 0.944710
vt 0.492939 0.962456
vt 0.474959 0.962437
vn 0.000000 1.000000 0.000000
vn 0.000000 1.000000 0.000000
vn 0.000000 1.000000 0.000000
vn 0.000000 1.000000 0.000000
vn 0.000000 0.000000 -1.000000
vn 0.000000 0.000000 -1.000000
vn 0.000000 0.000000 -1.000000
vn 0.000000 0.000000 -1.000000
vn 0.000000 -1.000000 0.000000
vn 0.000000 -1.000000 0.000000
vn 0.000000 -1.000000 0.000000
vn 0.000000 -1.000000 0.000000
vn 1.000000 0.000000 0.000000
vn 1.000000 0.000000 0.000000
vn 1.000000 0.000000 0.000000
vn 1.000000 0.000000 0.000000
vn -1.000000 0.000000 0.000000
vn -1.000000 0.000000 0.000000
vn -1.000000 0.000000 0.000000
vn -1.000000 0.000000 0.000000
vn 0.000000 0.000000 1.000000
vn 0.000000 0.000000 1.000000
vn 0.000000 0.000000 1.000000
vn 0.000000 0.000000 1.000000
vn 0.000000 0.000000 1.000000
vn 0.000000 0.000000 1.000000
vn 0.000000 0.000000 1.000000
vn 0.000000 0.000000 1.000000
vn 0.000000 0.000000 1.000000
vn 0.000000 0.000000 1.000000
vn 0.000000 0.000000 1.000000
vn 0.000000 0.000000 1.000000
vn -0.000000 0.000000 1.000000
vn -0.000000 0.000000 1.000000
vn -0.000000 0.000000 1.000000
vn -0.000000 0.000000 1.000000
vn 0.000000 1.000000 0.000000
vn 0.000000 1.000000 0.000000
vn 0.000000 1.000000 0.000000
vn 0.000000 1.000000 0.000000
vn -1.000000 0.000000 0.000000
vn -1.000000 0.000000 0.000000
vn -1.000000 0.000000 0.000000
vn -1.000000 0.000000 0.000000
vn 0.000000 -1.000000 0.000000
vn 0.000000 -1.000000 0.000000
vn 0.000000 -1.000000 0.000000
vn 0.000000 -1.000000 0.000000
vn 1.000000 0.000000 0.000000
vn 1.000000 0.000000 0.000000
vn 1.000000 0.000000 0.000000
vn 1.000000 0.000000 0.000000
f 3/1/1 4/2/2 6/3/3 5/4/4
f 5/4/5 6/3/6 8/5/7 7/6/8
f 7/6/9 8/5/10 2/7/11 1/8/12
f 2/7/13 8/5/14 6/3/15 4/2/16
f 7/6/17 1/8/18 3/1/19 5/4/20
f 1/8/21 2/7/22 10/9/23 9/10/24
f 2/7/25 4/2/26 11/11/27 10/9/28
f 4/2/29 3/1/30 12/12/31 11/11/32
f 3/1/33 1/8/34 9/10/35 12/12/36
f 9/10/37 10/9/38 14/13/39 13/14/40
f 10/9/41 11/11/42 15/15/43 14/13/44
f 11/11/45 12/12/46 16/16/47 15/15/48
f 12/12/49 9/10/50 13/14/51 16/16/52
