# This file uses meters as units for non-parametric coordinates.

v -58.634113 0.000000 26.106331
v 58.634113 0.000000 26.106331
v -58.634113 97.646111 26.106331
v 58.634113 97.646111 26.106331
v 67.395393 105.562546 15.916492
v -67.395393 105.562546 15.916492
v -67.395393 0.000000 15.916492
v 67.395393 0.000000 15.916492
v 22.465124 0.000000 15.916492
v 22.465134 0.000000 19.924849
v 22.465134 97.646111 26.106331
v 22.465124 105.562546 15.916492
v -22.465136 0.000000 15.916492
v -22.465137 0.000000 19.924849
v -22.465137 97.646111 26.106331
v -22.465136 105.562546 15.916492
v -67.395393 105.562546 2.871705
v 67.395393 105.562546 2.871705
v -67.395393 0.000000 2.871705
v 67.395393 0.000000 2.871705
v -67.395393 105.562546 15.916492
v -67.395393 0.000000 15.916492
v 67.395393 0.000000 15.916492
v 67.395393 105.562546 15.916492
v -37.758663 76.613426 -65.320671
v 37.758663 76.613426 -65.320671
v 37.758663 27.640985 -65.320671
v -37.758663 27.640985 -65.320671
v 50.650681 82.166351 -42.589874
v -50.650681 82.166351 -42.589874
v -50.650681 27.328691 -42.589874
v 50.650681 27.328691 -42.589874
v 61.612000 93.864449 -19.859083
v -61.612000 93.864449 -19.859083
v -61.612000 20.970699 -19.859083
v 61.612000 20.970699 -19.859083
v -41.705360 0.000000 2.871705
v 41.705360 0.000000 2.871705
v -41.705360 41.705360 2.871705
v 41.705360 41.705360 2.871705
v -41.705360 41.705360 -55.260910
v 41.705360 41.705360 -55.260910
v -41.705360 0.000000 -55.260910
v 41.705360 0.000000 -55.260910
v -41.705360 23.329472 30.050226
v 41.705360 23.329472 30.050226
v -41.705360 84.836006 30.050226
v 41.705360 84.836006 30.050226
v -58.634113 97.646111 30.050226
v 58.634113 97.646111 30.050226
v 58.634113 97.646111 18.036327
v -58.634113 97.646111 18.036327
v -58.634113 10.635353 18.036327
v 58.634113 10.635353 18.036327
v 58.634113 10.635353 30.050226
v -58.634113 10.635353 30.050226
v -41.705360 23.329472 26.475838
v 41.705360 23.329472 26.475838
v 41.705360 84.836006 26.475838
v -41.705360 84.836006 26.475838
vt 0.584629 0.136434
vt 0.584772 0.183467
vt 0.607589 0.173175
vt 0.545294 0.183467
vt 0.581861 0.150036
vt 0.615547 0.150036
vt 0.514490 0.150036
vt 0.548627 0.150036
vt 0.608744 0.173175
vt 0.615998 0.150036
vt 0.582312 0.150036
vt 0.584800 0.136434
vt 0.548176 0.150036
vt 0.545322 0.136434
vt 0.545344 0.183467
vt 0.514490 0.150036
vt 0.341052 0.996588
vt 0.314773 0.996588
vt 0.314773 0.970309
vt 0.341052 0.970309
vt 0.341052 0.996588
vt 0.314773 0.996588
vt 0.314773 0.970309
vt 0.341052 0.970309
vt 0.329152 0.970338
vt 0.321854 0.970285
vt 0.321854 0.998378
vt 0.329152 0.998378
vt 0.321854 0.998378
vt 0.321854 0.970121
vt 0.329152 0.970174
vt 0.329152 0.998378
vt 0.321854 0.976038
vt 0.321854 0.995401
vt 0.332514 0.987670
vt 0.322978 0.987598
vt 0.321854 0.995161
vt 0.321854 0.975798
vt 0.329152 0.978202
vt 0.329152 0.992768
vt 0.322148 0.970792
vt 0.331684 0.970864
vt 0.321854 0.991835
vt 0.321854 0.978827
vt 0.329152 0.992768
vt 0.329152 0.978202
vt 0.321854 0.978827
vt 0.321854 0.991835
vt 0.333609 0.977903
vt 0.320894 0.979357
vt 0.321856 0.998834
vt 0.334647 0.998931
vt 0.335489 0.989716
vt 0.319974 0.989771
vt 0.335441 0.988003
vt 0.319949 0.990018
vt 0.333116 0.972048
vt 0.319168 0.972048
vt 0.518864 0.173175
vt 0.617342 0.150036
vt 0.606090 0.173175
vt 0.545271 0.136434
vt 0.606992 0.173175
vt 0.584701 0.183467
vt 0.518864 0.173175
vt 0.616382 0.150036
vt 0.580615 0.173175
vt 0.548970 0.173175
vt 0.549736 0.173175
vt 0.581381 0.173175
vt 0.335756 0.970486
vt 0.318734 0.970330
vt 0.318236 0.976928
vt 0.335258 0.977084
vt 0.335546 0.976177
vt 0.318548 0.976507
vt 0.318746 0.980381
vt 0.335745 0.980051
vt 0.319168 0.970049
vt 0.333116 0.970049
vt 0.614568 0.079016
vt 0.517122 0.077763
vt 0.523929 0.085705
vt 0.608808 0.086796
vt 0.523439 0.089771
vt 0.608318 0.090863
vt 0.615124 0.078184
vt 0.517679 0.076931
vt 0.519125 0.079469
vt 0.526717 0.090835
vt 0.610121 0.090835
vt 0.614877 0.079469
vt 0.607746 0.088672
vt 0.615435 0.079053
vt 0.519683 0.079053
vt 0.524342 0.088672
vt 0.600501 0.102377
vt 0.531190 0.101486
vt 0.601057 0.101332
vt 0.531746 0.100441
vt 0.600672 0.102961
vt 0.532986 0.102961
vt 0.601357 0.102545
vt 0.533672 0.102545
vt 0.593879 0.113424
vt 0.538613 0.112713
vt 0.594196 0.114949
vt 0.540227 0.114949
vt 0.593633 0.113011
vt 0.538368 0.112301
vt 0.594009 0.114013
vt 0.540040 0.114013
vn 0.085100 -0.031522 0.995874
vn 0.037894 -0.049147 0.998073
vn 0.038037 -0.049093 0.998070
vn 0.085100 -0.031522 0.995874
vn 0.000000 0.789690 0.613506
vn 0.000000 0.789690 0.613506
vn 0.000000 0.789690 0.613506
vn 0.000000 0.789690 0.613507
vn 0.000000 -1.000000 0.000000
vn 0.000000 -1.000000 0.000000
vn 0.000000 -1.000000 0.000000
vn 0.000000 -1.000000 0.000000
vn 0.758258 0.000000 0.651955
vn 0.758258 0.000000 0.651955
vn 0.758258 0.000000 0.651955
vn 0.758258 0.000000 0.651955
vn -0.758258 0.000000 0.651955
vn -0.758258 0.000000 0.651955
vn -0.758258 0.000000 0.651955
vn -0.758258 0.000000 0.651955
vn 0.000000 -1.000000 0.000000
vn 0.000000 -1.000000 0.000000
vn 0.000000 -1.000000 0.000000
vn 0.000000 -1.000000 0.000000
vn -0.037894 -0.049147 0.998073
vn -0.085100 -0.031522 0.995874
vn -0.085100 -0.031522 0.995874
vn -0.038037 -0.049093 0.998070
vn 0.000000 0.789690 0.613506
vn 0.000000 0.789690 0.613506
vn 0.000000 0.789690 0.613506
vn 0.000000 0.789690 0.613506
vn 0.000000 0.000000 -1.000000
vn 0.000000 0.000000 -1.000000
vn 0.000000 0.000000 -1.000000
vn 0.000000 0.000000 -1.000000
vn -1.000000 0.000000 0.000000
vn -1.000000 0.000000 0.000000
vn -1.000000 0.000000 0.000000
vn -1.000000 0.000000 0.000000
vn 0.000000 -1.000000 0.000000
vn 0.000000 -1.000000 0.000000
vn 0.000000 -1.000000 0.000000
vn 0.000000 -1.000000 0.000000
vn 1.000000 0.000000 0.000000
vn 1.000000 0.000000 0.000000
vn 1.000000 0.000000 0.000000
vn 1.000000 0.000000 0.000000
vn 0.000000 1.000000 0.000000
vn 0.000000 1.000000 0.000000
vn 0.000000 1.000000 0.000000
vn 0.000000 1.000000 0.000000
vn 0.000000 0.889161 -0.457595
vn 0.000000 0.889161 -0.457595
vn 0.000000 0.889161 -0.457595
vn 0.000000 0.889161 -0.457595
vn 0.969124 0.000000 -0.246574
vn 0.969124 0.000000 -0.246574
vn 0.952177 0.000000 -0.305546
vn 0.952555 0.000000 -0.304368
vn 0.000000 -0.734990 -0.678078
vn 0.000000 -0.734990 -0.678078
vn 0.000000 -0.822701 -0.568475
vn 0.000000 -0.822701 -0.568475
vn -0.969124 0.000000 -0.246574
vn -0.969124 0.000000 -0.246574
vn -0.952555 0.000000 -0.304368
vn -0.952177 0.000000 -0.305547
vn 0.000000 0.917346 -0.398090
vn 0.000000 0.917346 -0.398090
vn 0.000000 0.971434 -0.237312
vn 0.000000 0.971434 -0.237312
vn -0.888265 0.000000 -0.459331
vn -0.889959 0.000000 -0.456041
vn -0.869838 0.000000 -0.493338
vn -0.869838 0.000000 -0.493338
vn 0.000000 -0.980239 -0.197817
vn 0.000000 -0.980239 -0.197817
vn 0.000000 -0.999906 -0.013737
vn 0.000000 -0.999906 -0.013737
vn 0.889959 0.000000 -0.456041
vn 0.888265 0.000000 -0.459331
vn 0.869838 0.000000 -0.493338
vn 0.869838 0.000000 -0.493338
vn 0.000000 0.000000 -1.000000
vn 0.000000 0.000000 -1.000000
vn 0.000000 0.000000 -1.000000
vn 0.000000 0.000000 -1.000000
vn 0.000000 -1.000000 0.000000
vn 0.000000 -1.000000 0.000000
vn 0.000000 -1.000000 0.000000
vn 0.000000 -1.000000 0.000000
vn 1.000000 0.000000 0.000000
vn 1.000000 0.000000 0.000000
vn 1.000000 0.000000 0.000000
vn 1.000000 0.000000 0.000000
vn -1.000000 0.000000 0.000000
vn -1.000000 0.000000 0.000000
vn -1.000000 0.000000 0.000000
vn -1.000000 0.000000 0.000000
vn 0.000000 1.000000 0.000000
vn 0.000000 1.000000 0.000000
vn 0.000000 1.000000 0.000000
vn 0.000000 1.000000 0.000000
vn 0.000000 -1.000000 0.000000
vn 0.000000 -1.000000 0.000000
vn 0.000000 -1.000000 0.000000
vn 0.000000 -1.000000 0.000000
vn 1.000000 0.000000 0.000000
vn 1.000000 0.000000 0.000000
vn 1.000000 0.000000 0.000000
vn 1.000000 0.000000 0.000000
vn -1.000000 0.000000 0.000000
vn -1.000000 0.000000 0.000000
vn -1.000000 0.000000 0.000000
vn -1.000000 0.000000 0.000000
vn -0.000000 0.000000 1.000000
vn 0.000000 0.000000 1.000000
vn 0.000000 0.000000 1.000000
vn -0.000000 0.000000 1.000000
vn 0.000000 0.000000 1.000000
vn -0.000000 0.000000 1.000000
vn -0.000000 0.000000 1.000000
vn 0.000000 0.000000 1.000000
vn 0.000000 1.000000 0.000000
vn 0.000000 1.000000 0.000000
vn 0.000000 1.000000 0.000000
vn 0.000000 1.000000 0.000000
vn -1.000000 0.000000 0.000000
vn -1.000000 0.000000 0.000000
vn -1.000000 0.000000 0.000000
vn -1.000000 0.000000 0.000000
vn 0.000000 -1.000000 0.000000
vn 0.000000 -1.000000 0.000000
vn 0.000000 -1.000000 0.000000
vn 0.000000 -1.000000 0.000000
vn 1.000000 0.000000 0.000000
vn 1.000000 0.000000 0.000000
vn 1.000000 0.000000 0.000000
vn 1.000000 0.000000 0.000000
f 1/1/1 14/2/2 15/4/3 3/62/4
f 3/61/5 15/67/6 16/5/7 6/6/8
f 7/7/9 13/8/10 14/69/11 1/59/12
f 2/9/13 8/66/14 5/16/15 4/65/16
f 6/60/17 7/7/18 1/59/19 3/3/20
f 9/11/21 8/10/22 2/63/23 10/70/24
f 10/12/25 2/64/26 4/15/27 11/14/28
f 12/13/29 11/68/30 4/65/31 5/16/32
f 13/8/10 9/11/21 10/70/24 14/69/11
f 14/2/2 10/12/25 11/14/28 15/4/3
f 16/5/7 15/67/6 11/68/30 12/13/29
f 25/35/33 26/36/34 27/41/35 28/42/36
f 19/25/37 22/26/38 21/27/39 17/28/40
f 19/71/41 20/72/42 23/73/43 22/74/44
f 24/29/45 23/30/46 20/31/47 18/32/48
f 21/75/49 24/76/50 18/77/51 17/78/52
f 17/78/53 18/77/54 33/56/55 34/53/56
f 18/32/57 20/31/58 36/33/59 33/34/60
f 20/72/61 19/71/62 35/55/63 36/54/64
f 19/25/65 17/28/66 34/37/67 35/38/68
f 30/52/69 29/51/70 26/36/71 25/35/72
f 31/39/73 30/40/74 25/43/75 28/44/76
f 32/50/77 31/49/78 28/42/79 27/41/80
f 29/45/81 32/46/82 27/47/83 26/48/84
f 34/53/56 33/56/55 29/51/70 30/52/69
f 35/38/68 34/37/67 30/40/74 31/39/73
f 36/54/64 35/55/63 31/49/78 32/50/77
f 33/34/60 36/33/59 32/46/82 29/45/81
f 41/17/85 42/22/86 44/23/87 43/20/88
f 43/79/89 44/80/90 38/57/91 37/58/92
f 38/24/93 44/23/94 42/22/95 40/21/96
f 43/20/97 37/19/98 39/18/99 41/17/100
f 49/81/101 50/82/102 51/83/103 52/84/104
f 53/85/105 54/86/106 55/87/107 56/88/108
f 55/89/109 54/90/110 51/91/111 50/92/112
f 53/93/113 56/94/114 49/95/115 52/96/116
f 47/97/117 48/98/118 50/82/119 49/81/120
f 46/99/121 45/100/122 56/88/123 55/87/124
f 48/101/118 46/102/121 55/89/124 50/92/119
f 45/103/122 47/104/117 49/95/120 56/94/123
f 45/100/125 46/99/126 58/105/127 57/106/128
f 46/102/129 48/101/130 59/107/131 58/108/132
f 48/98/133 47/97/134 60/109/135 59/110/136
f 47/104/137 45/103/138 57/111/139 60/112/140
