# This file uses meters as units for non-parametric coordinates.

v -33.915507 6.946982 16.324294
v 16.877698 6.946982 16.324294
v 16.877696 50.780039 16.324294
v -33.915507 50.780039 16.324294
v 18.033329 28.863506 16.257495
v -35.071136 28.863506 16.257495
v -8.518905 51.777312 16.257495
v -8.518903 47.053077 20.336421
v -8.518903 28.863506 20.203654
v -8.518902 10.673940 20.336421
v -8.518902 5.949704 16.257495
v -29.615616 46.888773 18.048431
v -29.807919 28.863506 18.017729
v -29.615616 10.838250 18.048431
v 12.577805 46.888773 18.048431
v 12.770114 28.863506 18.017729
v 12.577807 10.838250 18.048431
vt 0.897268 0.106673
vt 1.000000 0.000000
vt 1.000000 0.500000
vt 0.900889 0.500000
vt 0.897268 0.893328
vt 1.000000 1.000000
vt 0.500000 1.000000
vt 0.500000 0.896913
vt 0.102732 0.893328
vt 0.000000 1.000000
vt 0.099111 0.500000
vt 0.500000 0.500000
vt 0.102732 0.106673
vt 0.500000 0.103087
vt 0.000000 0.000000
vt 0.500000 0.000000
vt -0.000000 0.500000
vn 0.145032 -0.142039 0.979179
vn 0.203300 -0.293275 0.934162
vn 0.339053 0.000000 0.940767
vn 0.155524 0.000000 0.987832
vn 0.145032 0.142039 0.979179
vn 0.203301 0.293275 0.934162
vn -0.000000 0.540078 0.841615
vn -0.000000 0.126110 0.992016
vn -0.145032 0.142039 0.979179
vn -0.203301 0.293275 0.934162
vn -0.155524 0.000000 0.987832
vn 0.000000 0.000000 1.000000
vn -0.145032 -0.142039 0.979179
vn -0.000000 -0.126110 0.992016
vn -0.203300 -0.293275 0.934162
vn -0.000000 -0.540077 0.841615
vn -0.339053 0.000000 0.940767
f 17/1/1 2/2/2 5/3/3 16/4/4
f 15/5/5 16/4/4 5/3/3 3/6/6
f 15/5/5 3/6/6 7/7/7 8/8/8
f 12/9/9 8/8/8 7/7/7 4/10/10
f 13/11/11 9/12/12 8/8/8 12/9/9
f 14/13/13 10/14/14 9/12/12 13/11/11
f 1/15/15 11/16/16 10/14/14 14/13/13
f 4/10/10 6/17/17 13/11/11 12/9/9
f 9/12/12 16/4/4 15/5/5 8/8/8
f 10/14/14 17/1/1 16/4/4 9/12/12
f 11/16/16 2/2/2 17/1/1 10/14/14
f 6/17/17 1/15/15 14/13/13 13/11/11
