# This file uses meters as units for non-parametric coordinates.

v -33.915509 6.946986 15.820282
v 16.877704 6.946986 15.820282
v 16.877704 50.780035 15.820282
v -33.915509 50.780035 15.820282
v 18.033333 28.863510 15.753484
v -35.071138 28.863510 15.753484
v -8.518902 51.777310 15.753484
v -8.518902 47.053077 22.068400
v -8.518902 28.863510 21.935634
v -8.518902 10.673944 22.068400
v -8.518902 5.949711 15.753484
v -29.615616 46.888767 19.780409
v -29.807926 28.863510 19.749709
v -29.615616 10.838254 19.780409
v 12.577812 46.888767 19.780409
v 12.770121 28.863510 19.749709
v 12.577812 10.838254 19.780409
vt 0.567403 0.879285
vt 0.589694 0.879285
vt 0.589694 0.901576
vt 0.567403 0.901576
vt 0.589694 0.890431
vt 0.567403 0.890431
vt 0.578549 0.901576
vt 0.578549 0.896004
vt 0.578549 0.890431
vt 0.578549 0.884858
vt 0.578549 0.879285
vt 0.572976 0.896004
vt 0.572976 0.890431
vt 0.572976 0.884858
vt 0.584122 0.896004
vt 0.584122 0.890431
vt 0.584122 0.884858
vn 0.227114 -0.243906 0.942830
vn 0.367290 -0.466049 0.804920
vn 0.634862 0.000000 0.772626
vn 0.243722 0.000000 0.969845
vn 0.227114 0.243906 0.942830
vn 0.367290 0.466049 0.804920
vn 0.000000 0.755840 0.654756
vn 0.000000 0.223282 0.974754
vn -0.227114 0.243906 0.942830
vn -0.367290 0.466049 0.804920
vn -0.243722 0.000000 0.969845
vn 0.000000 -0.000000 1.000000
vn -0.227114 -0.243906 0.942830
vn -0.000000 -0.223282 0.974754
vn -0.367290 -0.466049 0.804920
vn 0.000000 -0.755840 0.654756
vn -0.634862 -0.000000 0.772626
f 17/17/1 2/2/2 5/5/3 16/16/4
f 15/15/5 16/16/4 5/5/3 3/3/6
f 15/15/5 3/3/6 7/7/7 8/8/8
f 12/12/9 8/8/8 7/7/7 4/4/10
f 13/13/11 9/9/12 8/8/8 12/12/9
f 14/14/13 10/10/14 9/9/12 13/13/11
f 1/1/15 11/11/16 10/10/14 14/14/13
f 4/4/10 6/6/17 13/13/11 12/12/9
f 9/9/12 16/16/4 15/15/5 8/8/8
f 10/10/14 17/17/1 16/16/4 9/9/12
f 11/11/16 2/2/2 17/17/1 10/10/14
f 6/6/17 1/1/15 14/14/13 13/13/11
