# This file uses meters as units for non-parametric coordinates.

v -35.398716 2.425446 -19.217142
v 35.398716 2.425446 -19.217142
v -35.398716 53.654480 -19.217117
v 35.398716 53.654480 -19.217117
v -35.398716 43.500198 -26.339342
v 35.398716 43.500198 -26.339342
v -35.398716 2.425446 -26.339357
v 35.398716 2.425446 -26.339357
v 35.398716 53.654480 -22.778225
v -35.398716 53.654480 -22.778225
v -35.398716 2.425446 -22.778248
v 35.398716 2.425446 -22.778248
v -35.398716 37.877426 -41.358105
v 35.398716 37.877426 -41.358105
v 35.398716 2.425446 -41.358105
v -35.398716 2.425446 -41.358105
v 32.134365 10.007767 18.697914
v 34.316486 10.797508 18.697914
v 29.835903 16.358604 18.697914
v 32.018024 17.148346 18.697914
v 29.835903 16.358604 16.476864
v 32.018024 17.148346 16.476864
v 32.134365 10.007767 16.476864
v 34.316486 10.797508 16.476864
v 27.497561 16.535507 15.194078
v 27.497561 11.248554 15.194078
v 32.076195 8.605077 15.194078
v 36.654831 11.248552 15.194078
v 36.654831 16.535507 15.194078
v 32.076195 19.178982 15.194078
v 27.497561 16.535507 16.981585
v 27.497561 11.248554 16.981585
v 32.076195 8.605077 16.981585
v 36.654831 11.248552 16.981585
v 36.654831 16.535507 16.981585
v 32.076195 19.178982 16.981585
v 32.076195 13.892029 16.981585
v 24.943901 11.403808 15.194078
v 23.487091 11.403808 15.194078
v 22.758686 10.142174 15.194078
v 23.487091 8.880540 15.194078
v 24.943901 8.880540 15.194078
v 25.672304 10.142174 15.194078
v 24.943901 11.403808 18.107697
v 23.487091 11.403808 18.107697
v 22.758686 10.142174 18.107697
v 23.487091 8.880540 18.107697
v 24.943901 8.880540 18.107697
v 25.672304 10.142174 18.107697
v 24.215496 10.142174 18.107697
v 24.943901 15.153664 15.194078
v 23.487091 15.153664 15.194078
v 22.758686 13.892029 15.194078
v 23.487091 12.630396 15.194078
v 24.943901 12.630396 15.194078
v 25.672304 13.892029 15.194078
v 24.943901 15.153664 18.107697
v 23.487091 15.153664 18.107697
v 22.758686 13.892029 18.107697
v 23.487091 12.630396 18.107697
v 24.943901 12.630396 18.107697
v 25.672304 13.892029 18.107697
v 24.215496 13.892029 18.107697
v 24.943901 18.913965 15.194078
v 23.487091 18.913965 15.194078
v 22.758686 17.652332 15.194078
v 23.487091 16.390697 15.194078
v 24.943901 16.390697 15.194078
v 25.672304 17.652332 15.194078
v 24.943901 18.913965 18.107697
v 23.487091 18.913965 18.107697
v 22.758686 17.652332 18.107697
v 23.487091 16.390697 18.107697
v 24.943901 16.390697 18.107697
v 25.672304 17.652332 18.107697
v 24.215496 17.652332 18.107697
v -32.627785 -0.000000 13.989857
v 32.627785 -0.000000 13.989857
v -32.627785 2.425444 13.989857
v 32.627785 2.425444 13.989857
v -32.627785 2.425444 -38.904015
v 32.627785 2.425444 -38.904015
v -32.627785 0.000000 -38.904015
v 32.627785 0.000000 -38.904015
v -36.105644 4.308746 19.382742
v 19.067842 4.308746 19.382742
v -36.105644 53.418274 19.382742
v 19.067842 53.418274 19.382742
v -36.105644 53.418274 5.213727
v 19.067842 53.418274 5.213727
v -36.105644 4.308746 5.213727
v 19.067842 4.308746 5.213727
v -34.426933 6.243048 19.382742
v 17.389130 6.243048 19.382742
v 17.389130 51.483971 19.382742
v -34.426933 51.483971 19.382742
v -31.763557 9.978670 13.083538
v 14.725752 9.978670 13.083538
v 14.725752 47.748352 13.083538
v -31.763557 47.748352 13.083538
v 7.214000 55.187122 -9.366572
v 0.000000 55.187122 -12.354709
v -7.214000 55.187122 -9.366572
v -10.202137 55.187122 -2.152571
v -7.214000 55.187122 5.061429
v 0.000000 55.187122 8.049565
v 7.214000 55.187122 5.061429
v 10.202137 55.187122 -2.152571
v 6.566402 60.900723 -8.718972
v 0.000000 60.900723 -11.438867
v -6.566402 60.900723 -8.718972
v -9.286294 60.900723 -2.152571
v -6.566402 60.900723 4.413830
v 0.000000 60.900723 7.133722
v 6.566402 60.900723 4.413831
v 9.286295 60.900723 -2.152571
v 3.553711 64.718430 -5.706283
v 0.000000 64.718430 -7.178277
v -3.553711 64.718430 -5.706283
v -5.025706 64.718430 -2.152571
v -3.553711 64.718430 1.401139
v 0.000000 64.718430 2.873135
v 3.553711 64.718430 1.401139
v 5.025707 64.718430 -2.152571
v 0.000000 66.059036 -2.152571
v -2.213583 59.803207 0.648623
v -1.334778 60.075825 0.648623
v -20.289249 118.835892 0.648623
v -19.410444 119.108513 0.648623
v -20.289249 118.835892 -0.271495
v -19.410444 119.108513 -0.271495
v -2.213583 59.803207 -0.271495
v -1.334778 60.075825 -0.271495
v 1.447110 59.865410 0.648623
v 2.333204 59.617500 0.648623
v 14.918545 108.016434 0.648623
v 15.804639 107.768509 0.648623
v 14.918545 108.016434 -0.271495
v 15.804639 107.768509 -0.271495
v 1.447110 59.865410 -0.271495
v 2.333204 59.617500 -0.271495
vt 0.513160 0.180945
vt 0.513160 0.131965
vt 0.519063 0.131965
vt 0.519063 0.180945
vt 0.557024 0.180945
vt 0.557024 0.131965
vt 0.608868 0.131965
vt 0.608868 0.180945
vt 0.582905 0.180945
vt 0.582905 0.131965
vt 0.577929 0.131965
vt 0.577929 0.180945
vt 0.531621 0.131965
vt 0.531621 0.180945
vt 0.587881 0.180945
vt 0.587881 0.131965
vt 0.587797 0.146042
vt 0.587798 0.157639
vt 0.521213 0.157639
vt 0.521212 0.146042
vt 0.587157 0.157488
vt 0.587156 0.146042
vt 0.520571 0.146042
vt 0.520572 0.157488
vt 0.587158 0.146042
vt 0.533771 0.146042
vt 0.587799 0.146042
vt 0.534412 0.146042
vt 0.587803 0.172936
vt 0.541724 0.172936
vt 0.541083 0.172785
vt 0.587162 0.172785
vt 0.722241 0.150969
vt 0.722241 0.164986
vt 0.672957 0.164986
vt 0.672957 0.150969
vt 0.667055 0.170905
vt 0.667055 0.145050
vt 0.728143 0.145050
vt 0.728143 0.170905
vt 0.694452 0.152615
vt 0.685544 0.171230
vt 0.675015 0.171230
vt 0.688917 0.141507
vt 0.694452 0.152615
vt 0.688917 0.141507
vt 0.714199 0.152455
vt 0.719735 0.141258
vt 0.723107 0.171230
vt 0.733637 0.171230
vt 0.714199 0.152455
vt 0.719735 0.141258
vt 0.704326 0.171230
vt 0.712210 0.148175
vt 0.689541 0.148244
vt 0.684284 0.134594
vt 0.720710 0.134483
vt 0.675534 0.170806
vt 0.661777 0.170848
vt 0.689541 0.148244
vt 0.684284 0.134594
vt 0.712210 0.148175
vt 0.720710 0.134483
vt 0.720872 0.170668
vt 0.734628 0.170626
vt 0.698203 0.170737
vt 0.712209 0.148175
vt 0.689541 0.148244
vt 0.684284 0.134594
vt 0.720710 0.134483
vt 0.675534 0.170806
vt 0.661777 0.170848
vt 0.689541 0.148244
vt 0.684284 0.134594
vt 0.712210 0.148175
vt 0.720710 0.134483
vt 0.720872 0.170668
vt 0.734628 0.170626
vt 0.698203 0.170737
vt 0.712210 0.148175
vt 0.689541 0.148244
vt 0.684284 0.134594
vt 0.720710 0.134483
vt 0.675534 0.170806
vt 0.661777 0.170848
vt 0.689541 0.148244
vt 0.684284 0.134594
vt 0.712210 0.148175
vt 0.720710 0.134483
vt 0.720872 0.170668
vt 0.734628 0.170626
vt 0.698203 0.170737
vt 0.513823 0.203577
vt 0.513823 0.243026
vt 0.536465 0.232723
vt 0.536465 0.213881
vt 0.577870 0.213881
vt 0.577870 0.232723
vt 0.600511 0.243026
vt 0.600511 0.203577
vt 0.615997 0.196509
vt 0.509682 0.196509
vt 0.519102 0.242116
vt 0.606577 0.242116
vt 0.520668 0.215733
vt 0.608143 0.215733
vt 0.617564 0.196833
vt 0.511248 0.196833
vt 0.512732 0.196935
vt 0.516745 0.241301
vt 0.601732 0.241301
vt 0.616023 0.196935
vt 0.609180 0.238355
vt 0.613193 0.193990
vt 0.509902 0.193990
vt 0.524193 0.238355
vt 0.614329 0.215993
vt 0.514483 0.215993
vt 0.611955 0.212170
vt 0.516801 0.212170
vt 0.612763 0.209492
vt 0.512917 0.209492
vt 0.609125 0.209224
vt 0.513971 0.209224
vt 0.609197 0.242238
vt 0.519615 0.242237
vt 0.601813 0.236340
vt 0.522373 0.236341
vt 0.607630 0.241858
vt 0.518049 0.241858
vt 0.603552 0.233395
vt 0.524112 0.233395
vt 0.253181 0.970965
vt 0.277467 0.970965
vt 0.277467 0.989711
vt 0.253181 0.989711
vt 0.253181 0.970965
vt 0.253181 0.989711
vt 0.277466 0.970965
vt 0.277466 0.989711
vt 0.253181 0.970965
vt 0.253181 0.989711
vt 0.277467 0.970965
vt 0.277467 0.989711
vt 0.253181 0.970965
vt 0.253181 0.989711
vt 0.277467 0.970965
vt 0.277467 0.989711
vt 0.253181 0.970965
vt 0.253181 0.989711
vt 0.277467 0.977040
vt 0.253181 0.977040
vt 0.253181 0.977040
vt 0.277466 0.977040
vt 0.253181 0.977040
vt 0.277467 0.977040
vt 0.253181 0.977040
vt 0.277467 0.977040
vt 0.253181 0.977040
vt 0.265324 0.995433
vt 0.265324 0.995433
vt 0.265324 0.995433
vt 0.265324 0.995433
vt 0.265324 0.995433
vt 0.265324 0.995433
vt 0.265324 0.995433
vt 0.265324 0.995433
vt 0.690754 0.072693
vt 0.705866 0.072693
vt 0.705866 0.087805
vt 0.690754 0.087805
vt 0.705866 0.102917
vt 0.690754 0.102917
vt 0.705866 0.118029
vt 0.690754 0.118029
vt 0.720978 0.072693
vt 0.720978 0.087805
vt 0.675641 0.072693
vt 0.675641 0.087805
vt 0.690754 0.072693
vt 0.705866 0.072693
vt 0.705866 0.087805
vt 0.690754 0.087805
vt 0.705866 0.102917
vt 0.690754 0.102917
vt 0.705866 0.118029
vt 0.690754 0.118029
vt 0.720978 0.072693
vt 0.720978 0.087805
vt 0.675641 0.072693
vt 0.675641 0.087805
vn 0.000000 1.000000 0.000000
vn 0.000000 1.000000 0.000000
vn 0.000000 0.574232 -0.818693
vn 0.000000 0.574232 -0.818693
vn 0.000000 0.000000 -1.000000
vn 0.000000 0.000000 -1.000000
vn 0.000000 0.000000 -1.000000
vn 0.000000 0.000000 -1.000000
vn 0.000000 -1.000000 0.000000
vn 0.000000 -1.000000 0.000000
vn 0.000000 -1.000000 0.000000
vn 0.000000 -1.000000 0.000000
vn 1.000000 0.000000 0.000000
vn 1.000000 0.000000 0.000000
vn 1.000000 0.000000 0.000000
vn 1.000000 0.000000 0.000000
vn -1.000000 0.000000 0.000000
vn -1.000000 -0.000000 0.000000
vn -1.000000 -0.000000 0.000000
vn -1.000000 -0.000000 0.000000
vn 0.000000 0.762260 -0.647271
vn 0.000000 0.762260 -0.647271
vn -1.000000 0.000000 0.000000
vn -1.000000 0.000000 0.000000
vn 0.000000 -1.000000 0.000000
vn 0.000000 -1.000000 0.000000
vn 1.000000 0.000000 0.000000
vn 1.000000 0.000000 0.000000
vn 0.000000 0.936519 -0.350617
vn 0.000000 0.936519 -0.350617
vn 1.000000 0.000000 0.000000
vn 1.000000 0.000000 0.000000
vn 1.000000 0.000000 0.000000
vn 1.000000 0.000000 0.000000
vn 0.000000 -1.000000 0.000000
vn 0.000000 -1.000000 0.000000
vn 0.000000 -1.000000 0.000000
vn 0.000000 -1.000000 0.000000
vn -1.000000 0.000000 0.000000
vn -1.000000 0.000000 0.000000
vn -1.000000 0.000000 0.000000
vn -1.000000 0.000000 0.000000
vn -0.000000 0.000000 1.000000
vn -0.000000 0.000000 1.000000
vn -0.000000 0.000000 1.000000
vn -0.000000 0.000000 1.000000
vn -0.340313 0.940312 0.000000
vn -0.340313 0.940312 0.000000
vn -0.340313 0.940312 0.000000
vn -0.340313 0.940312 0.000000
vn 0.340313 -0.940312 0.000000
vn 0.340313 -0.940312 0.000000
vn 0.340313 -0.940312 0.000000
vn 0.340313 -0.940312 0.000000
vn 0.940312 0.340313 0.000000
vn 0.940312 0.340313 0.000000
vn 0.940312 0.340313 0.000000
vn 0.940312 0.340313 0.000000
vn -0.940312 -0.340313 0.000000
vn -0.940312 -0.340313 0.000000
vn -0.940312 -0.340313 0.000000
vn -0.940312 -0.340313 0.000000
vn -0.866025 0.500000 0.000000
vn -0.866026 -0.500000 0.000000
vn -0.866026 -0.500000 0.000000
vn -0.866025 0.500000 0.000000
vn -0.000000 -1.000000 0.000000
vn -0.000000 -1.000000 0.000000
vn 0.866025 -0.500000 0.000000
vn 0.866025 -0.500000 0.000000
vn 0.866025 0.500000 0.000000
vn 0.866025 0.500000 0.000000
vn -0.000000 1.000000 0.000000
vn -0.000000 1.000000 0.000000
vn -0.000000 0.000000 1.000000
vn -0.000000 0.000000 1.000000
vn -0.000000 0.000000 1.000000
vn 0.000000 0.000000 1.000000
vn 0.000000 0.000000 1.000000
vn -0.000000 0.000000 1.000000
vn -0.000000 0.000000 1.000000
vn 0.500000 0.866026 0.000000
vn -0.500000 0.866026 0.000000
vn -0.500000 0.866026 0.000000
vn 0.500000 0.866026 0.000000
vn -1.000000 0.000000 0.000000
vn -1.000000 0.000000 0.000000
vn -0.500000 -0.866026 0.000000
vn -0.500000 -0.866026 0.000000
vn 0.500000 -0.866026 0.000000
vn 0.500000 -0.866026 0.000000
vn 1.000000 0.000000 0.000000
vn 1.000000 0.000000 0.000000
vn 0.000000 0.000000 1.000000
vn 0.000000 0.000000 1.000000
vn 0.000000 0.000000 1.000000
vn 0.000000 0.000000 1.000000
vn 0.000000 0.000000 1.000000
vn 0.000000 0.000000 1.000000
vn 0.000000 0.000000 1.000000
vn 0.500000 0.866025 0.000000
vn -0.500000 0.866025 0.000000
vn -0.500000 0.866025 0.000000
vn 0.500000 0.866025 0.000000
vn -1.000000 0.000000 0.000000
vn -1.000000 0.000000 0.000000
vn -0.499999 -0.866026 0.000000
vn -0.499999 -0.866026 0.000000
vn 0.499999 -0.866026 0.000000
vn 0.499999 -0.866026 0.000000
vn 1.000000 0.000000 0.000000
vn 1.000000 0.000000 0.000000
vn 0.000000 0.000000 1.000000
vn 0.000000 0.000000 1.000000
vn 0.000000 0.000000 1.000000
vn 0.000000 0.000000 1.000000
vn 0.000000 0.000000 1.000000
vn 0.000000 0.000000 1.000000
vn 0.000000 0.000000 1.000000
vn 0.499999 0.866026 0.000000
vn -0.499999 0.866026 0.000000
vn -0.499999 0.866026 0.000000
vn 0.499999 0.866026 0.000000
vn -1.000000 -0.000000 0.000000
vn -1.000000 -0.000000 0.000000
vn -0.500000 -0.866025 0.000000
vn -0.500000 -0.866025 0.000000
vn 0.500000 -0.866025 0.000000
vn 0.500000 -0.866025 0.000000
vn 1.000000 -0.000000 0.000000
vn 1.000000 -0.000000 0.000000
vn 0.000000 0.000000 1.000000
vn 0.000000 0.000000 1.000000
vn 0.000000 0.000000 1.000000
vn 0.000000 0.000000 1.000000
vn 0.000000 0.000000 1.000000
vn 0.000000 0.000000 1.000000
vn 0.000000 0.000000 1.000000
vn 0.000000 0.000000 1.000000
vn 0.000000 0.000000 1.000000
vn 0.000000 0.000000 1.000000
vn 0.000000 0.000000 1.000000
vn 0.000000 0.000000 -1.000000
vn 0.000000 0.000000 -1.000000
vn 0.000000 0.000000 -1.000000
vn 0.000000 0.000000 -1.000000
vn 0.000000 -1.000000 -0.000000
vn 0.000000 -1.000000 -0.000000
vn 0.000000 -1.000000 -0.000000
vn 0.000000 -1.000000 -0.000000
vn 1.000000 0.000000 0.000000
vn 1.000000 0.000000 0.000000
vn 1.000000 0.000000 0.000000
vn 1.000000 0.000000 0.000000
vn -1.000000 0.000000 0.000000
vn -1.000000 0.000000 0.000000
vn -1.000000 0.000000 0.000000
vn -1.000000 0.000000 0.000000
vn 0.000000 1.000000 0.000000
vn 0.000000 1.000000 0.000000
vn 0.000000 1.000000 0.000000
vn 0.000000 1.000000 0.000000
vn 0.000000 -1.000000 0.000000
vn 0.000000 -1.000000 0.000000
vn 0.000000 -1.000000 0.000000
vn 0.000000 -1.000000 0.000000
vn 1.000000 0.000000 0.000000
vn 1.000000 0.000000 0.000000
vn 1.000000 0.000000 0.000000
vn 1.000000 0.000000 0.000000
vn -1.000000 0.000000 0.000000
vn -1.000000 0.000000 0.000000
vn -1.000000 0.000000 0.000000
vn -1.000000 0.000000 0.000000
vn 0.000000 0.000000 1.000000
vn 0.000000 0.000000 1.000000
vn 0.000000 0.000000 1.000000
vn 0.000000 0.000000 1.000000
vn -0.000001 0.000000 1.000000
vn -0.000001 0.000000 1.000000
vn -0.000001 0.000000 1.000000
vn -0.000001 0.000000 1.000000
vn 0.000000 0.000000 1.000000
vn 0.000000 0.000000 1.000000
vn 0.000000 0.000000 1.000000
vn 0.000000 0.000000 1.000000
vn 0.000001 0.000000 1.000000
vn 0.000001 0.000000 1.000000
vn 0.000001 0.000000 1.000000
vn 0.000001 0.000000 1.000000
vn 0.000000 0.860126 0.510081
vn 0.000000 0.860126 0.510081
vn 0.000000 0.860126 0.510081
vn 0.000000 0.860126 0.510081
vn -0.921055 0.000000 0.389433
vn -0.921055 0.000000 0.389433
vn -0.921055 0.000000 0.389433
vn -0.921055 0.000000 0.389433
vn 0.000000 -0.860127 0.510081
vn 0.000000 -0.860127 0.510081
vn 0.000000 -0.860126 0.510081
vn 0.000000 -0.860126 0.510081
vn 0.921055 0.000000 0.389433
vn 0.921055 0.000000 0.389433
vn 0.921055 0.000000 0.389433
vn 0.921055 0.000000 0.389433
vn 0.698194 0.158271 -0.698194
vn 0.000000 0.158271 -0.987396
vn -0.000000 0.392098 -0.919923
vn 0.650484 0.392098 -0.650484
vn -0.698194 0.158271 -0.698194
vn -0.650484 0.392098 -0.650484
vn -0.987396 0.158271 0.000000
vn -0.919923 0.392098 0.000000
vn -0.698194 0.158271 0.698194
vn -0.650484 0.392098 0.650484
vn 0.000000 0.158271 0.987396
vn -0.000000 0.392098 0.919923
vn 0.698194 0.158271 0.698194
vn 0.650484 0.392098 0.650484
vn 0.987396 0.158271 0.000000
vn 0.919923 0.392098 0.000000
vn -0.000000 0.794618 -0.607110
vn 0.429292 0.794618 -0.429292
vn -0.429292 0.794617 -0.429292
vn -0.607110 0.794618 0.000000
vn -0.429292 0.794618 0.429292
vn -0.000000 0.794618 0.607110
vn 0.429292 0.794618 0.429292
vn 0.607110 0.794618 0.000000
vn 0.000000 1.000000 0.000000
vn -0.676913 -0.207269 0.706278
vn 0.675334 0.206786 0.707929
vn 0.673768 0.217340 0.706257
vn -0.678396 -0.196716 0.707872
vn 0.673769 0.217340 -0.706257
vn -0.678396 -0.196716 -0.707871
vn 0.675334 0.206786 -0.707929
vn -0.676913 -0.207269 -0.706278
vn -0.680956 0.190514 0.707109
vn 0.680958 -0.190515 0.707107
vn 0.684401 -0.177967 0.707052
vn -0.677398 0.203030 0.707044
vn 0.684401 -0.177967 -0.707052
vn -0.677398 0.203030 -0.707044
vn 0.680958 -0.190515 -0.707107
vn -0.680957 0.190514 -0.707109
f 3/1/1 4/2/2 9/3/3 10/4/4
f 13/5/5 14/6/6 15/7/7 16/8/8
f 11/9/9 12/10/10 2/11/11 1/12/12
f 2/17/13 12/18/14 9/19/15 4/20/16
f 11/21/17 1/22/18 3/23/19 10/24/20
f 10/4/4 9/3/3 6/13/21 5/14/22
f 7/25/23 11/21/17 10/24/20 5/26/24
f 7/15/25 8/16/26 12/10/10 11/9/9
f 9/19/15 12/18/14 8/27/27 6/28/28
f 5/14/22 6/13/21 14/6/29 13/5/30
f 6/28/31 8/27/32 15/29/33 14/30/34
f 8/16/35 7/15/36 16/8/37 15/7/38
f 7/25/39 5/26/40 13/31/41 16/32/42
f 17/33/43 18/34/44 20/35/45 19/36/46
f 19/36/47 20/35/48 22/37/49 21/38/50
f 23/39/51 24/40/52 18/34/53 17/33/54
f 18/34/55 24/40/56 22/37/57 20/35/58
f 23/39/59 17/33/60 19/36/61 21/38/62
f 25/41/63 26/42/64 32/43/65 31/44/66
f 26/42/64 27/45/67 33/46/68 32/43/65
f 27/45/67 28/47/69 34/48/70 33/46/68
f 28/47/69 29/49/71 35/50/72 34/48/70
f 29/49/71 30/51/73 36/52/74 35/50/72
f 30/51/73 25/41/63 31/44/66 36/52/74
f 31/44/75 32/43/76 37/53/77
f 32/43/76 33/46/78 37/53/77
f 33/46/78 34/48/79 37/53/77
f 34/48/79 35/50/80 37/53/77
f 35/50/80 36/52/81 37/53/77
f 36/52/81 31/44/75 37/53/77
f 38/54/82 39/55/83 45/56/84 44/57/85
f 39/55/83 40/58/86 46/59/87 45/56/84
f 40/58/86 41/60/88 47/61/89 46/59/87
f 41/60/88 42/62/90 48/63/91 47/61/89
f 42/62/90 43/64/92 49/65/93 48/63/91
f 43/64/92 38/54/82 44/57/85 49/65/93
f 44/57/94 45/56/95 50/66/96
f 45/56/95 46/59/97 50/66/96
f 46/59/97 47/61/98 50/66/96
f 47/61/98 48/63/99 50/66/96
f 48/63/99 49/65/100 50/66/96
f 49/65/100 44/57/94 50/66/96
f 51/67/101 52/68/102 58/69/103 57/70/104
f 52/68/102 53/71/105 59/72/106 58/69/103
f 53/71/105 54/73/107 60/74/108 59/72/106
f 54/73/107 55/75/109 61/76/110 60/74/108
f 55/75/109 56/77/111 62/78/112 61/76/110
f 56/77/111 51/67/101 57/70/104 62/78/112
f 57/70/113 58/69/114 63/79/115
f 58/69/114 59/72/116 63/79/115
f 59/72/116 60/74/117 63/79/115
f 60/74/117 61/76/118 63/79/115
f 61/76/118 62/78/119 63/79/115
f 62/78/119 57/70/113 63/79/115
f 64/80/120 65/81/121 71/82/122 70/83/123
f 65/81/121 66/84/124 72/85/125 71/82/122
f 66/84/124 67/86/126 73/87/127 72/85/125
f 67/86/126 68/88/128 74/89/129 73/87/127
f 68/88/128 69/90/130 75/91/131 74/89/129
f 69/90/130 64/80/120 70/83/123 75/91/131
f 70/83/132 71/82/133 76/92/134
f 71/82/133 72/85/135 76/92/134
f 72/85/135 73/87/136 76/92/134
f 73/87/136 74/89/137 76/92/134
f 74/89/137 75/91/138 76/92/134
f 75/91/138 70/83/132 76/92/134
f 77/93/139 78/94/140 80/95/141 79/96/142
f 81/97/143 82/98/144 84/99/145 83/100/146
f 83/100/147 84/99/148 78/94/149 77/93/150
f 78/94/151 84/99/152 82/98/153 80/95/154
f 83/100/155 77/93/156 79/96/157 81/97/158
f 87/101/159 88/102/160 90/103/161 89/104/162
f 91/105/163 92/106/164 86/107/165 85/108/166
f 86/109/167 92/110/168 90/111/169 88/112/170
f 91/113/171 85/114/172 87/115/173 89/116/174
f 85/108/175 86/107/176 94/117/177 93/118/178
f 86/109/179 88/112/180 95/119/181 94/120/182
f 88/102/183 87/101/184 96/121/185 95/122/186
f 87/115/187 85/114/188 93/123/189 96/124/190
f 93/118/191 94/117/192 98/125/193 97/126/194
f 94/120/195 95/119/196 99/127/197 98/128/198
f 95/122/199 96/121/200 100/129/201 99/130/202
f 96/124/203 93/123/204 97/131/205 100/132/206
f 101/133/207 102/134/208 110/135/209 109/136/210
f 102/134/208 103/137/211 111/138/212 110/135/209
f 103/137/211 104/139/213 112/140/214 111/138/212
f 104/139/213 105/141/215 113/142/216 112/140/214
f 105/141/215 106/143/217 114/144/218 113/142/216
f 106/143/217 107/145/219 115/146/220 114/144/218
f 107/145/219 108/147/221 116/148/222 115/146/220
f 108/147/221 101/149/207 109/150/210 116/148/222
f 109/136/210 110/135/209 118/151/223 117/152/224
f 110/135/209 111/138/212 119/153/225 118/151/223
f 111/138/212 112/140/214 120/154/226 119/153/225
f 112/140/214 113/142/216 121/155/227 120/154/226
f 113/142/216 114/144/218 122/156/228 121/155/227
f 114/144/218 115/146/220 123/157/229 122/156/228
f 115/146/220 116/148/222 124/158/230 123/157/229
f 116/148/222 109/150/210 117/159/224 124/158/230
f 117/152/224 118/151/223 125/160/231
f 118/151/223 119/153/225 125/161/231
f 119/153/225 120/154/226 125/162/231
f 120/154/226 121/155/227 125/163/231
f 121/155/227 122/156/228 125/164/231
f 122/156/228 123/157/229 125/165/231
f 123/157/229 124/158/230 125/166/231
f 124/158/230 117/159/224 125/167/231
f 126/168/232 127/169/233 129/170/234 128/171/235
f 128/171/235 129/170/234 131/172/236 130/173/237
f 130/173/237 131/172/236 133/174/238 132/175/239
f 127/169/233 133/176/238 131/177/236 129/170/234
f 132/178/239 126/168/232 128/171/235 130/179/237
f 134/180/240 135/181/241 137/182/242 136/183/243
f 136/183/243 137/182/242 139/184/244 138/185/245
f 138/185/245 139/184/244 141/186/246 140/187/247
f 135/181/241 141/188/246 139/189/244 137/182/242
f 140/190/247 134/180/240 136/183/243 138/191/245
