# This file uses meters as units for non-parametric coordinates.

v -38.480724 2.411812 16.100224
v 38.480724 2.411812 16.100224
v -38.480724 55.315208 16.100224
v 38.480724 55.315208 16.100224
v -38.480724 55.315208 -19.217138
v 38.480724 55.315208 -19.217138
v -38.480724 2.411812 -19.217138
v 38.480724 2.411812 -19.217138
v 21.442923 55.315208 16.100224
v 21.442923 55.315208 -19.217138
v 21.442923 2.411812 -19.217138
v 21.442923 2.411812 16.100224
v -36.105644 4.308748 16.100224
v 19.067842 4.308748 16.100224
v 19.067842 53.418274 16.100224
v -36.105644 53.418274 16.100224
v -32.911263 7.152046 2.075687
v 15.873460 7.152046 2.075687
v 15.873460 50.574978 2.075687
v -32.911263 50.574978 2.075687
vt 0.616567 0.759138
vt 0.616567 0.844952
vt 0.506354 0.844952
vt 0.506354 0.759138
vt 0.506354 0.869304
vt 0.588945 0.869341
vt 0.588945 0.764591
vt 0.506354 0.764555
vt 0.506354 0.759138
vt 0.506354 0.844952
vt 0.616567 0.844952
vt 0.616567 0.759138
vt 0.508878 0.759138
vt 0.616567 0.759509
vt 0.616567 0.840860
vt 0.508878 0.840489
vt 0.614042 0.788000
vt 0.506354 0.787630
vt 0.506354 0.868981
vt 0.614042 0.869351
vt 0.616567 0.869351
vt 0.506354 0.869351
vt 0.612428 0.869351
vt 0.612428 0.764602
vt 0.506354 0.869351
vt 0.616567 0.869351
vt 0.593084 0.868672
vt 0.593084 0.763922
vt 0.616567 0.763933
vt 0.616567 0.868682
vt 0.510493 0.763885
vt 0.589811 0.767677
vt 0.513767 0.767643
vt 0.589811 0.864914
vt 0.510493 0.868635
vt 0.513767 0.864881
vt 0.584395 0.773468
vt 0.517156 0.773438
vt 0.584395 0.859446
vt 0.517156 0.859417
vn 0.000000 1.000000 0.000000
vn 0.000000 1.000000 0.000000
vn 0.000000 1.000000 0.000000
vn 0.000000 1.000000 0.000000
vn 0.000000 0.000000 -1.000000
vn 0.000000 0.000000 -1.000000
vn 0.000000 0.000000 -1.000000
vn 0.000000 0.000000 -1.000000
vn 0.000000 -1.000000 0.000000
vn 0.000000 -1.000000 0.000000
vn 0.000000 -1.000000 0.000000
vn 0.000000 -1.000000 0.000000
vn 1.000000 0.000000 0.000000
vn 1.000000 0.000000 0.000000
vn 1.000000 0.000000 0.000000
vn 1.000000 0.000000 0.000000
vn -1.000000 0.000000 0.000000
vn -1.000000 0.000000 0.000000
vn -1.000000 0.000000 0.000000
vn -1.000000 0.000000 0.000000
vn 0.000000 1.000000 0.000000
vn 0.000000 1.000000 0.000000
vn 0.000000 0.000000 -1.000000
vn 0.000000 0.000000 -1.000000
vn 0.000000 -1.000000 0.000000
vn 0.000000 -1.000000 0.000000
vn 0.000000 0.000000 1.000000
vn 0.000000 0.000000 1.000000
vn 0.000000 0.000000 1.000000
vn 0.000000 0.000000 1.000000
vn 0.000000 0.000000 1.000000
vn 0.000000 0.000000 1.000000
vn 0.000000 0.000000 1.000000
vn 0.000000 0.000000 1.000000
vn 0.000000 0.000000 1.000000
vn 0.000000 0.000000 1.000000
vn 0.000000 0.000000 1.000000
vn 0.000000 0.000000 1.000000
vn 0.000000 0.000000 1.000000
vn 0.000000 0.000000 1.000000
vn 0.000000 0.000000 1.000000
vn 0.000000 0.000000 1.000000
vn 0.000000 0.000000 1.000000
vn 0.000000 0.000000 1.000000
vn 0.000000 0.000000 1.000000
vn 0.000000 0.000000 1.000000
vn 0.000000 0.980061 0.198695
vn 0.000000 0.980061 0.198695
vn 0.000000 0.980061 0.198695
vn 0.000000 0.980061 0.198695
vn -0.975028 0.000000 0.222083
vn -0.975028 0.000000 0.222083
vn -0.975028 0.000000 0.222083
vn -0.975028 0.000000 0.222083
vn 0.000000 -0.980061 0.198695
vn 0.000000 -0.980061 0.198695
vn 0.000000 -0.980061 0.198695
vn 0.000000 -0.980061 0.198695
vn 0.975028 0.000000 0.222083
vn 0.975028 0.000000 0.222083
vn 0.975028 0.000000 0.222083
vn 0.975028 0.000000 0.222083
f 3/1/1 9/2/2 10/3/3 5/4/4
f 5/5/5 10/6/6 11/7/7 7/8/8
f 7/9/9 11/10/10 12/11/11 1/12/12
f 2/13/13 8/14/14 6/15/15 4/16/16
f 7/17/17 1/18/18 3/19/19 5/20/20
f 9/2/2 4/21/21 6/22/22 10/3/3
f 11/7/7 10/6/6 6/23/23 8/24/24
f 12/11/11 11/10/10 8/25/25 2/26/26
f 9/27/27 12/28/28 2/29/29 4/30/30
f 1/31/31 12/28/32 14/32/33 13/33/34
f 12/28/35 9/27/36 15/34/37 14/32/38
f 9/27/39 3/35/40 16/36/41 15/34/42
f 3/35/43 1/31/44 13/33/45 16/36/46
f 13/33/47 14/32/48 18/37/49 17/38/50
f 14/32/51 15/34/52 19/39/53 18/37/54
f 15/34/55 16/36/56 20/40/57 19/39/58
f 16/36/59 13/33/60 17/38/61 20/40/62
