# This file uses meters as units for non-parametric coordinates.

v -137.364868 60.059845 150.606049
v -135.448532 79.655350 150.606049
v -129.887146 86.186310 143.466354
v -125.728699 86.186310 144.971939
v -125.728699 79.655350 151.502777
v -125.728699 60.059845 153.452332
v -132.453217 86.186310 138.752914
v -136.280945 79.655350 138.752899
v -140.607605 60.059845 138.752899
v -125.728699 87.882622 138.752914
v 135.448532 79.655350 150.606049
v 129.887146 86.186310 143.466354
v 132.453217 86.186310 138.752914
v 136.280945 79.655350 138.752899
v 140.607605 60.059845 138.752899
v 137.364868 60.059845 150.606049
v 125.728699 79.655350 151.502777
v 125.728699 86.186310 144.971939
v 125.728699 60.059845 153.452332
v 125.728699 87.882622 138.752914
v -133.191513 79.655334 147.483582
v -135.107849 60.059845 149.433167
v 133.191513 79.655334 147.483582
v 135.107849 60.059845 149.433167
v 139.126053 69.857597 138.752899
v 136.406708 69.857597 152.292587
v 134.149689 69.857590 150.144913
v 125.728699 69.857597 154.164093
v -125.728699 69.857597 154.164093
v -134.149689 69.857590 150.144913
v -136.406708 69.857597 152.292587
v -139.126053 69.857597 138.752899
v -137.364868 60.059845 -154.559601
v -135.448532 79.655350 -154.559601
v -129.887146 86.186310 -147.419907
v -125.728699 86.186310 -148.925491
v -125.728699 79.655350 -155.456329
v -125.728699 60.059845 -157.405884
v -132.453217 86.186310 -142.706467
v -136.280945 79.655350 -142.706451
v -140.607605 60.059845 -142.706451
v -125.728699 87.882622 -142.706467
v 135.448532 79.655350 -154.559601
v 129.887146 86.186310 -147.419907
v 132.453217 86.186310 -142.706467
v 136.280945 79.655350 -142.706451
v 140.607605 60.059845 -142.706451
v 137.364868 60.059845 -154.559601
v 125.728699 79.655350 -155.456329
v 125.728699 86.186310 -148.925491
v 125.728699 60.059845 -157.405884
v 125.728699 87.882622 -142.706467
v -133.191513 79.655334 -151.437134
v -135.107849 60.059845 -153.386719
v 133.191513 79.655334 -151.437134
v 135.107849 60.059845 -153.386719
v 139.126053 69.857597 -142.706451
v 136.406708 69.857597 -156.246140
v 134.149689 69.857590 -154.098465
v 125.728699 69.857597 -158.117645
v -125.728699 69.857597 -158.117645
v -134.149689 69.857590 -154.098465
v -136.406708 69.857597 -156.246140
v -139.126053 69.857597 -142.706451
v 140.607605 60.059845 125.249184
v 139.126053 69.857597 125.249184
v 136.280945 79.655357 125.249184
v 132.453217 86.186310 125.249199
v 125.728699 87.882622 125.249199
v -125.728699 87.882622 125.249199
v -132.453217 86.186310 125.249199
v -136.280945 79.655357 125.249184
v -139.126053 69.857597 125.249184
v -140.607605 60.059845 125.249184
v 140.607605 60.059845 52.577011
v 139.126053 69.857597 52.577011
v 136.280945 79.655357 52.577011
v 132.453217 86.186310 52.577015
v 125.728699 87.882629 52.577015
v -125.728699 87.882629 52.577015
v -132.453217 86.186310 52.577015
v -136.280945 79.655357 52.577011
v -139.126053 69.857597 52.577011
v -140.607605 60.059845 52.577011
vt 0.259951 0.886497
vt 0.260185 0.886797
vt 0.260077 0.886995
vt 0.259916 0.886995
vt 0.259797 0.886995
vt 0.259911 0.886426
vt 0.260046 0.886629
vt 0.260360 0.886460
vt 0.260360 0.886734
vt 0.260006 0.886517
vt 0.260360 0.886348
vt 0.260360 0.886995
vt 0.271334 0.886497
vt 0.271369 0.886995
vt 0.271208 0.886995
vt 0.271100 0.886797
vt 0.271489 0.886995
vt 0.271374 0.886426
vt 0.271239 0.886629
vt 0.271279 0.886517
vt 0.270926 0.886995
vt 0.270926 0.886734
vt 0.270926 0.886460
vt 0.270926 0.886348
vt 0.271551 0.886995
vt 0.271415 0.886497
vt 0.271320 0.886547
vt 0.270926 0.886378
vt 0.260360 0.886378
vt 0.259966 0.886547
vt 0.259871 0.886497
vt 0.259735 0.886995
vt 0.271551 0.887563
vt 0.271489 0.887563
vt 0.271369 0.887563
vt 0.271208 0.887563
vt 0.270926 0.887563
vt 0.260360 0.887563
vt 0.260077 0.887563
vt 0.259916 0.887563
vt 0.259797 0.887563
vt 0.259735 0.887563
vt 0.259951 0.899320
vt 0.259916 0.898822
vt 0.260077 0.898822
vt 0.260185 0.899020
vt 0.259797 0.898822
vt 0.259911 0.899391
vt 0.260360 0.899083
vt 0.260360 0.899357
vt 0.260046 0.899189
vt 0.260360 0.899469
vt 0.260006 0.899300
vt 0.260360 0.898822
vt 0.271334 0.899320
vt 0.271100 0.899020
vt 0.271208 0.898822
vt 0.271369 0.898822
vt 0.271489 0.898822
vt 0.271374 0.899391
vt 0.271239 0.899189
vt 0.271279 0.899300
vt 0.270926 0.899083
vt 0.270926 0.898822
vt 0.270926 0.899357
vt 0.270926 0.899469
vt 0.271551 0.898822
vt 0.271415 0.899320
vt 0.271320 0.899271
vt 0.270926 0.899439
vt 0.260360 0.899439
vt 0.259966 0.899271
vt 0.259871 0.899320
vt 0.259735 0.898822
vt 0.271551 0.890616
vt 0.271489 0.890616
vt 0.271369 0.890616
vt 0.271208 0.890616
vt 0.270926 0.890616
vt 0.260360 0.890616
vt 0.260077 0.890616
vt 0.259916 0.890616
vt 0.259797 0.890616
vt 0.259735 0.890616
vn -0.866651 0.364175 0.341018
vn -0.514792 0.772798 0.371177
vn -0.636077 0.769274 0.060198
vn -0.926227 0.371139 0.066021
vn -0.978789 0.184486 0.089089
vn -0.900769 0.159711 0.403867
vn -0.406320 0.406016 0.818569
vn -0.011705 0.488706 0.872370
vn -0.006414 0.839359 0.543539
vn -0.428144 0.097249 0.898463
vn -0.014702 0.099260 0.994953
vn -0.005487 0.996385 0.084772
vn 0.866651 0.364176 0.341018
vn 0.926227 0.371139 0.066021
vn 0.636077 0.769274 0.060198
vn 0.514791 0.772799 0.371177
vn 0.978789 0.184486 0.089089
vn 0.900769 0.159711 0.403867
vn -0.779743 0.023438 0.625662
vn -0.695684 -0.022376 0.717999
vn 0.005487 0.996385 0.084772
vn 0.006414 0.839359 0.543539
vn 0.011705 0.488706 0.872370
vn 0.014702 0.099260 0.994953
vn 0.779742 0.023438 0.625662
vn 0.695684 -0.022376 0.718000
vn 0.406319 0.406016 0.818569
vn 0.428143 0.097249 0.898463
vn 0.985716 0.126936 0.110684
vn 0.911218 0.075888 0.404874
vn -0.585424 -0.154654 0.795840
vn 0.411132 -0.046034 0.910413
vn 0.015666 -0.071684 0.997304
vn -0.015666 -0.071684 0.997304
vn -0.411132 -0.046034 0.910413
vn -0.911218 0.075888 0.404874
vn 0.585424 -0.154654 0.795840
vn -0.985716 0.126936 0.110684
vn 0.988760 0.149513 0.000000
vn 0.976481 0.215605 0.000000
vn 0.925688 0.378289 0.000000
vn 0.614870 0.788629 0.000000
vn 0.006570 0.999978 0.000000
vn -0.006570 0.999978 0.000000
vn -0.614870 0.788629 0.000000
vn -0.925688 0.378289 0.000000
vn -0.976481 0.215605 0.000000
vn -0.988760 0.149513 0.000000
vn -0.866650 0.364176 -0.341018
vn -0.925965 0.377528 -0.007827
vn -0.617177 0.786800 -0.006189
vn -0.514792 0.772798 -0.371177
vn -0.977247 0.211810 -0.011167
vn -0.900768 0.159711 -0.403867
vn -0.006414 0.839359 -0.543539
vn -0.011705 0.488706 -0.872370
vn -0.406320 0.406016 -0.818569
vn -0.014702 0.099260 -0.994953
vn -0.428144 0.097249 -0.898463
vn -0.006466 0.999945 -0.008306
vn 0.866650 0.364176 -0.341018
vn 0.514792 0.772798 -0.371177
vn 0.617177 0.786800 -0.006189
vn 0.925965 0.377528 -0.007827
vn 0.977247 0.211810 -0.011167
vn 0.900769 0.159711 -0.403867
vn -0.779744 0.023438 -0.625659
vn -0.695686 -0.022376 -0.717998
vn 0.006414 0.839359 -0.543539
vn 0.006466 0.999945 -0.008306
vn 0.011705 0.488706 -0.872370
vn 0.014702 0.099260 -0.994953
vn 0.779744 0.023438 -0.625659
vn 0.695686 -0.022376 -0.717998
vn 0.406320 0.406016 -0.818569
vn 0.428144 0.097249 -0.898463
vn 0.989070 0.146795 -0.013842
vn 0.911218 0.075888 -0.404874
vn -0.585424 -0.154654 -0.795840
vn 0.411133 -0.046034 -0.910412
vn 0.015666 -0.071684 -0.997304
vn -0.015666 -0.071684 -0.997304
vn -0.411133 -0.046034 -0.910412
vn -0.911218 0.075888 -0.404874
vn 0.585424 -0.154654 -0.795840
vn -0.989070 0.146795 -0.013842
vn 0.988760 0.149513 0.000000
vn 0.976480 0.215606 -0.000000
vn 0.925688 0.378289 -0.000000
vn 0.614870 0.788628 -0.000000
vn 0.006570 0.999978 0.000000
vn -0.006570 0.999978 0.000000
vn -0.614870 0.788628 -0.000000
vn -0.925688 0.378289 -0.000000
vn -0.976481 0.215606 -0.000000
vn -0.988760 0.149513 0.000000
f 2/1/1 3/2/2 7/3/3 8/4/4
f 32/5/5 31/6/6 2/1/1 8/4/4
f 3/2/2 21/7/7 5/8/8 4/9/9
f 21/7/7 30/10/10 29/11/11 5/8/8
f 3/2/2 4/9/9 10/12/12 7/3/3
f 11/13/13 14/14/14 13/15/15 12/16/16
f 25/17/17 14/14/14 11/13/13 26/18/18
f 12/16/16 23/19/19 11/13/13
f 26/18/18 11/13/13 23/19/19 27/20/20
f 12/16/16 13/15/15 20/21/21 18/22/22
f 4/9/9 5/8/8 17/23/23 18/22/22
f 5/8/8 29/11/11 28/24/24 17/23/23
f 10/12/12 4/9/9 18/22/22 20/21/21
f 3/2/2 2/1/1 21/7/25
f 31/6/6 30/10/26 21/7/25 2/1/1
f 12/16/16 18/22/22 17/23/23 23/19/27
f 27/20/28 23/19/27 17/23/23 28/24/24
f 15/25/29 25/17/17 26/18/18 16/26/30
f 16/26/30 26/18/18 27/20/20 24/27/31
f 24/27/32 27/20/28 28/24/24 19/28/33
f 29/11/11 6/29/34 19/28/33 28/24/24
f 30/10/10 22/30/35 6/29/34 29/11/11
f 1/31/36 22/30/37 30/10/26 31/6/6
f 9/32/38 1/31/36 31/6/6 32/5/5
f 25/17/17 15/25/29 65/33/39 66/34/40
f 14/14/14 25/17/17 66/34/40 67/35/41
f 13/15/15 14/14/14 67/35/41 68/36/42
f 20/21/21 13/15/15 68/36/42 69/37/43
f 10/12/12 20/21/21 69/37/43 70/38/44
f 7/3/3 10/12/12 70/38/44 71/39/45
f 8/4/4 7/3/3 71/39/45 72/40/46
f 32/5/5 8/4/4 72/40/46 73/41/47
f 74/42/48 9/32/38 32/5/5 73/41/47
f 34/43/49 40/44/50 39/45/51 35/46/52
f 64/47/53 40/44/50 34/43/49 63/48/54
f 35/46/52 36/49/55 37/50/56 53/51/57
f 53/51/57 37/50/56 61/52/58 62/53/59
f 35/46/52 39/45/51 42/54/60 36/49/55
f 43/55/61 44/56/62 45/57/63 46/58/64
f 57/59/65 58/60/66 43/55/61 46/58/64
f 44/56/62 43/55/61 55/61/67
f 58/60/66 59/62/68 55/61/67 43/55/61
f 44/56/62 50/63/69 52/64/70 45/57/63
f 37/50/56 36/49/55 50/63/69 49/65/71
f 61/52/58 37/50/56 49/65/71 60/66/72
f 36/49/55 42/54/60 52/64/70 50/63/69
f 35/46/52 53/51/73 34/43/49
f 63/48/54 34/43/49 53/51/73 62/53/74
f 44/56/62 55/61/75 49/65/71 50/63/69
f 59/62/76 60/66/72 49/65/71 55/61/75
f 47/67/77 48/68/78 58/60/66 57/59/65
f 48/68/78 56/69/79 59/62/68 58/60/66
f 56/69/80 51/70/81 60/66/72 59/62/76
f 51/70/81 38/71/82 61/52/58 60/66/72
f 62/53/59 61/52/58 38/71/82 54/72/83
f 33/73/84 63/48/54 62/53/74 54/72/85
f 41/74/86 64/47/53 63/48/54 33/73/84
f 66/34/40 65/33/39 75/75/87 76/76/88
f 67/35/41 66/34/40 76/76/88 77/77/89
f 68/36/42 67/35/41 77/77/89 78/78/90
f 69/37/43 68/36/42 78/78/90 79/79/91
f 70/38/44 69/37/43 79/79/91 80/80/92
f 71/39/45 70/38/44 80/80/92 81/81/93
f 72/40/46 71/39/45 81/81/93 82/82/94
f 73/41/47 72/40/46 82/82/94 83/83/95
f 84/84/96 74/42/48 73/41/47 83/83/95
f 76/76/88 75/75/87 47/67/77 57/59/65
f 77/77/89 76/76/88 57/59/65 46/58/64
f 78/78/90 77/77/89 46/58/64 45/57/63
f 79/79/91 78/78/90 45/57/63 52/64/70
f 80/80/92 79/79/91 52/64/70 42/54/60
f 81/81/93 80/80/92 42/54/60 39/45/51
f 82/82/94 81/81/93 39/45/51 40/44/50
f 83/83/95 82/82/94 40/44/50 64/47/53
f 41/74/86 84/84/96 83/83/95 64/47/53
