# This file uses meters as units for non-parametric coordinates.

v -131.081909 63.773724 -77.254631
v -134.532593 42.008362 -77.254631
v -128.649536 67.397854 -77.254639
v -124.689026 68.555768 -77.254639
v 124.689026 68.555768 -77.254639
v 128.649536 67.397854 -77.254639
v 131.081909 63.773724 -77.254631
v 134.532593 42.008362 -77.254631
v 133.854095 37.141732 -77.254631
v -133.854095 37.141732 -77.254631
v -138.394608 66.340016 -19.070023
v -138.394608 66.340016 -77.254631
v -141.547882 43.983735 -77.254631
v -141.547882 43.983735 -19.070023
v -134.639969 73.083890 -77.254639
v -134.639969 73.083890 -19.070019
v -125.970329 78.029187 -17.255846
v -125.970329 75.719822 -77.254639
v 125.970329 78.029187 -17.255846
v 125.970329 75.719822 -77.254639
v 134.639969 73.083890 -77.254639
v 134.639969 73.083890 -19.070019
v 138.394608 66.340016 -19.070023
v 138.394608 66.340016 -77.254631
v 141.547882 43.983735 -19.070023
v 141.547882 43.983735 -77.254631
v 140.800171 37.152421 -19.070023
v 140.800171 37.152421 -77.254631
v -140.800171 37.152421 -77.254631
v -140.800171 37.152421 -19.070023
v -125.254272 74.369481 -16.652948
v -132.836884 71.530736 -16.652948
v -137.235687 64.905850 -16.652952
v -140.216736 42.879799 -16.652952
v -139.507706 37.146447 -16.652952
v -139.507706 37.146447 -81.126701
v -140.216736 42.879799 -81.126701
v -137.235687 64.905850 -81.126701
v -132.836884 71.530736 -81.126709
v -125.254272 74.369481 -81.126709
v 125.254272 74.369481 -81.126709
v 132.836884 71.530736 -81.126709
v 137.235687 64.905850 -81.126701
v 140.216736 42.879799 -81.126701
v 139.507706 37.146447 -81.126701
v 139.507706 37.146447 -16.652952
v 140.216736 42.879799 -16.652952
v 137.235687 64.905850 -16.652952
v 132.836884 71.530736 -16.652948
v 125.254272 74.369481 -16.652948
v 140.800171 37.152421 -25.059761
v 141.547882 43.983735 -25.059761
v 138.394608 66.340016 -25.059761
v 135.993896 74.368016 -25.570852
v 125.970322 78.226979 -25.570852
v -125.970322 78.226979 -25.570852
v -135.993896 74.368016 -25.570852
v -138.394608 66.340016 -25.059761
v -141.547882 43.983735 -25.059763
v -140.800171 37.152421 -25.059763
v -138.086380 42.008362 -19.070023
v -135.241272 63.773724 -19.070023
v -131.413544 69.392079 -19.070019
v -124.689026 71.088391 -19.070019
v 124.689026 71.088391 -19.070019
v 131.413544 69.392079 -19.070019
v 135.241272 62.861119 -19.070023
v 138.086380 51.600049 -19.070023
v 139.567932 37.141732 -19.070023
v -139.567932 37.141732 -19.070021
v -99.999977 68.851666 -78.379181
v -99.493629 74.369481 -82.251251
v -100.005096 77.708363 -78.379181
v -100.005089 80.215512 -25.570852
v -100.005096 77.481785 -15.727777
v -99.493629 74.369481 -15.124879
v -99.089882 71.088391 -17.541948
v 0.000000 69.263348 -78.962914
v 0.000000 74.369481 -82.834984
v 0.000000 78.691411 -78.962914
v 0.000000 81.198552 -23.193989
v 0.000000 77.481793 -14.878983
v 0.000000 74.369481 -14.276085
v 0.000000 71.088391 -16.693155
v 99.999969 68.851666 -77.254631
v 99.493622 74.369481 -81.126701
v 100.005089 77.708363 -77.254631
v 100.005089 80.215504 -25.570852
v 100.005089 77.481793 -17.255846
v 99.493622 74.369481 -16.652948
v 99.089874 71.088391 -19.070019
v 140.800171 37.152421 -51.157196
v 141.547882 43.983735 -51.157196
v 138.394608 66.340016 -51.157196
v 135.316925 73.725957 -51.412743
v 125.970322 78.528203 -51.412743
v 100.005089 80.516736 -51.412743
v 0.000000 81.499783 -52.266884
v -100.005096 80.516743 -51.975014
v -125.970322 78.528203 -51.412743
v -135.316925 73.725957 -51.412743
v -138.394608 66.340016 -51.157196
v -141.547882 43.983735 -51.157196
v -140.800171 37.152421 -51.157196
v 140.800171 37.152421 -72.098801
v 141.547882 43.983735 -72.098801
v 138.394608 66.340016 -72.098801
v 134.773712 73.210736 -72.149284
v 125.970329 76.067021 -72.149284
v 100.005089 78.055554 -72.149284
v 0.000000 79.038601 -73.688820
v -100.005096 78.055554 -73.162743
v -125.970329 76.067021 -72.149284
v -134.773712 73.210736 -72.149284
v -138.394608 66.340016 -72.098801
v -141.547882 43.983735 -72.098801
v -140.800171 37.152421 -72.098801
v -136.325195 37.141732 150.606018
v -134.408859 63.773717 150.606018
v -128.847473 70.304684 143.466202
v -124.689018 70.304684 144.971817
v -124.689018 63.773717 151.502777
v -124.689018 37.141732 153.452393
v -131.413544 70.304684 138.752686
v -135.241272 63.773717 138.752670
v -139.567932 37.141732 138.752670
v -124.689018 72.000996 138.752686
v 134.408859 63.773717 150.606018
v 128.847473 70.304684 143.466202
v 131.413544 70.304684 138.752686
v 135.241272 63.773717 138.752670
v 139.567932 37.141732 138.752670
v 136.325195 37.141732 150.606018
v 124.689018 63.773717 151.502777
v 124.689018 70.304684 144.971817
v 124.689018 37.141732 153.452393
v 124.689018 72.000996 138.752686
v -132.151840 63.773717 147.483505
v -134.068176 37.141732 149.433121
v 132.151840 63.773717 147.483505
v 134.068176 37.141732 149.433121
v -124.689018 51.600041 153.928452
v 124.689018 51.600041 153.928452
v 133.110016 51.600041 149.909180
v 135.367035 51.600041 150.606018
v 138.086380 51.600041 138.752670
v -138.086380 51.600041 138.752670
v -135.367035 51.600041 150.606018
v -133.110016 51.600041 149.909180
v -139.567932 37.141732 -19.070023
v -138.086380 51.600049 -19.070023
v -135.241272 63.773724 -19.070023
v -131.413544 70.304684 -19.070019
v -124.689034 72.000996 -19.070019
v 124.689034 72.000996 -19.070019
v 131.413544 70.304684 -19.070019
v 135.241272 63.773724 -19.070023
v 138.086380 51.600049 -19.070023
v 139.567932 37.141732 -19.070021
v 0.000000 37.141732 153.452393
v 0.000000 51.600041 153.928452
v 0.000000 63.773717 151.502777
v 0.000000 70.304684 144.971817
v 0.000000 72.000996 138.752686
v 0.000000 72.000996 -21.370661
vt 0.292003 0.924234
vt 0.291988 0.925675
vt 0.290834 0.925642
vt 0.290834 0.924223
vt 0.292751 0.924180
vt 0.292736 0.925840
vt 0.293672 0.923918
vt 0.293799 0.925852
vt 0.293564 0.923859
vt 0.293701 0.925746
vt 0.295984 0.925319
vt 0.295928 0.922692
vt 0.292660 0.924098
vt 0.292644 0.925735
vt 0.291916 0.924144
vt 0.291898 0.925576
vt 0.290746 0.924108
vt 0.290745 0.925524
vt 0.289818 0.924190
vt 0.289844 0.925542
vt 0.289934 0.925653
vt 0.289909 0.924310
vt 0.292182 0.922113
vt 0.290863 0.921916
vt 0.290786 0.923653
vt 0.291993 0.923884
vt 0.290741 0.922486
vt 0.291958 0.922519
vt 0.291982 0.923360
vt 0.290785 0.923311
vt 0.292701 0.922082
vt 0.292686 0.923913
vt 0.292690 0.922388
vt 0.292756 0.923340
vt 0.293209 0.921709
vt 0.293419 0.923478
vt 0.293459 0.921684
vt 0.293548 0.922733
vt 0.293152 0.921918
vt 0.295767 0.920497
vt 0.295880 0.922192
vt 0.293333 0.923676
vt 0.295924 0.920251
vt 0.293381 0.921649
vt 0.293450 0.922692
vt 0.295930 0.921296
vt 0.292639 0.922255
vt 0.292610 0.924078
vt 0.292606 0.922312
vt 0.292667 0.923263
vt 0.292118 0.922263
vt 0.291919 0.924028
vt 0.291789 0.922367
vt 0.291896 0.923270
vt 0.290795 0.922029
vt 0.290712 0.923765
vt 0.290657 0.922365
vt 0.290699 0.923193
vt 0.289793 0.921796
vt 0.289729 0.923621
vt 0.289683 0.922405
vt 0.289740 0.923257
vt 0.289865 0.921711
vt 0.289807 0.923529
vt 0.289774 0.922532
vt 0.289831 0.923382
vt 0.289845 0.924782
vt 0.290819 0.924819
vt 0.291994 0.924964
vt 0.292673 0.924940
vt 0.293485 0.924661
vt 0.295880 0.923914
vt 0.293399 0.924841
vt 0.292592 0.925097
vt 0.291916 0.925105
vt 0.290741 0.924935
vt 0.289764 0.924880
vt 0.289839 0.931521
vt 0.290736 0.931536
vt 0.291879 0.931556
vt 0.292632 0.931607
vt 0.293624 0.931629
vt 0.295969 0.931851
vt 0.293715 0.931769
vt 0.292720 0.931740
vt 0.291967 0.931684
vt 0.290825 0.931652
vt 0.289928 0.931637
vt 0.295844 0.920125
vt 0.295958 0.921817
vt 0.295959 0.923538
vt 0.296084 0.925480
vt 0.296058 0.932147
vt 0.296033 0.922580
vt 0.296037 0.921187
vt 0.296033 0.920093
vt 0.305939 0.921016
vt 0.305951 0.919398
vt 0.305931 0.922937
vt 0.305873 0.924145
vt 0.305905 0.932443
vt 0.305861 0.921335
vt 0.305857 0.919935
vt 0.305857 0.918866
vt 0.289788 0.926160
vt 0.290729 0.926154
vt 0.291894 0.926223
vt 0.292600 0.926218
vt 0.293543 0.926153
vt 0.295917 0.925472
vt 0.305925 0.924514
vt 0.295998 0.925116
vt 0.293630 0.925990
vt 0.292684 0.926068
vt 0.291975 0.926086
vt 0.290810 0.926037
vt 0.289871 0.926056
vt 0.289560 0.921289
vt 0.289895 0.921719
vt 0.289742 0.921998
vt 0.289512 0.921989
vt 0.289341 0.921972
vt 0.289503 0.921271
vt 0.289696 0.921473
vt 0.290145 0.921233
vt 0.290145 0.921628
vt 0.289639 0.921312
vt 0.290144 0.921071
vt 0.290146 0.921998
vt 0.289549 0.921189
vt 0.289497 0.921888
vt 0.289728 0.921900
vt 0.289883 0.921622
vt 0.289326 0.921869
vt 0.289491 0.921170
vt 0.289684 0.921374
vt 0.289627 0.921212
vt 0.290133 0.921905
vt 0.290134 0.921535
vt 0.305555 0.921186
vt 0.305556 0.921582
vt 0.305555 0.921025
vt 0.305556 0.921951
vt 0.290134 0.921140
vt 0.290134 0.920978
vt 0.290145 0.921085
vt 0.305555 0.921038
vt 0.289569 0.921225
vt 0.290134 0.920991
vt 0.289433 0.921155
vt 0.289236 0.921854
vt 0.289252 0.921958
vt 0.289445 0.921257
vt 0.289581 0.921325
vt 0.289356 0.931490
vt 0.289267 0.931476
vt 0.289527 0.931507
vt 0.289757 0.931516
vt 0.290162 0.931516
vt 0.305572 0.931469
vt 0.289712 0.931418
vt 0.290117 0.931423
vt 0.289481 0.931406
vt 0.289310 0.931387
vt 0.289220 0.931372
vn -0.955687 0.221243 0.194203
vn -0.980953 0.194202 0.003989
vn -0.996621 0.082139 0.000000
vn -0.981568 0.086388 0.170475
vn -0.640766 0.699036 0.317439
vn -0.695033 0.718811 0.015477
vn -0.134782 0.906299 0.400571
vn -0.163705 0.985612 0.042080
vn 0.126216 0.894357 0.429180
vn 0.165578 0.985258 0.043012
vn 0.021406 0.995940 0.087440
vn 0.018013 0.836095 0.548289
vn 0.640766 0.699036 0.317439
vn 0.695033 0.718811 0.015477
vn 0.955687 0.221243 0.194203
vn 0.980954 0.194202 0.003989
vn 0.981568 0.086388 0.170475
vn 0.996621 0.082139 0.000000
vn 0.983963 -0.109468 0.140833
vn 0.994063 -0.108804 0.000000
vn -0.994063 -0.108804 0.000000
vn -0.983963 -0.109469 0.140833
vn 0.521452 -0.136142 -0.842350
vn 0.543738 -0.046979 -0.837939
vn 0.000533 -0.017349 -0.999849
vn -0.132121 0.029047 -0.990808
vn 0.775546 -0.092863 0.624423
vn 0.711230 -0.170823 0.681888
vn -0.211534 0.023125 0.977097
vn 0.068826 -0.052076 0.996269
vn 0.325110 -0.440504 -0.836815
vn -0.160788 0.247930 -0.955342
vn 0.394945 -0.527056 0.752483
vn -0.122085 0.004498 0.992509
vn 0.011420 -0.562562 -0.826676
vn -0.065414 0.118700 -0.990773
vn 0.002533 -0.603153 0.797622
vn -0.062770 -0.197416 0.978308
vn -0.040409 -0.562056 -0.826112
vn 0.009000 -0.583113 -0.812341
vn 0.017936 0.006566 -0.999818
vn 0.029473 0.119515 -0.992395
vn 0.015658 -0.593659 0.804564
vn -0.039915 -0.598986 0.799765
vn 0.017418 -0.186919 0.982221
vn 0.018189 -0.252395 0.967454
vn -0.325111 -0.440504 -0.836815
vn 0.160788 0.247930 -0.955342
vn -0.399944 -0.501269 0.767316
vn 0.108481 0.004389 0.994089
vn -0.521453 -0.136142 -0.842349
vn 0.132121 0.029047 -0.990808
vn -0.782493 -0.212465 0.585289
vn 0.372279 0.023281 0.927829
vn -0.543738 -0.046979 -0.837939
vn -0.000533 -0.017349 -0.999849
vn -0.850028 -0.141950 0.507250
vn 0.234713 0.014460 0.971957
vn -0.566374 0.074137 -0.820807
vn 0.046884 0.002870 -0.998896
vn -0.940502 -0.035983 0.337878
vn -0.509739 -0.136867 0.849373
vn 0.566374 0.074137 -0.820807
vn -0.046884 0.002870 -0.998896
vn 0.912802 -0.066525 0.402947
vn -0.132877 -0.193564 0.972048
vn -0.985155 -0.110476 -0.131394
vn -0.984096 0.086765 -0.155005
vn -0.956105 0.239473 -0.168865
vn -0.601930 0.766891 -0.222618
vn -0.132353 0.957252 -0.257200
vn 0.022885 0.923760 -0.382287
vn 0.123621 0.956850 -0.262974
vn 0.601930 0.766891 -0.222618
vn 0.956105 0.239473 -0.168865
vn 0.984096 0.086765 -0.155005
vn 0.985155 -0.110476 -0.131394
vn 0.994063 -0.108804 0.000000
vn 0.996621 0.082139 0.000000
vn 0.979370 0.202029 -0.004403
vn 0.681171 0.731506 -0.030101
vn 0.168372 0.984737 -0.044083
vn 0.023594 0.998730 -0.044528
vn -0.168618 0.984739 -0.043101
vn -0.681170 0.731506 -0.030101
vn -0.979370 0.202029 -0.004403
vn -0.996621 0.082139 0.000000
vn -0.994063 -0.108804 0.000000
vn -0.010402 -0.583307 -0.812186
vn -0.015774 0.005127 -0.999863
vn -0.021734 0.923360 -0.383320
vn -0.020898 0.996165 0.084968
vn -0.023588 0.998735 -0.044416
vn -0.017693 0.853665 0.520521
vn -0.018076 -0.251960 0.967569
vn -0.014652 -0.594134 0.804233
vn 0.005607 -0.000189 -0.999984
vn 0.004574 -0.588791 -0.808273
vn 0.002317 0.908174 -0.418587
vn 0.000243 0.995145 0.098423
vn 0.000138 0.999012 -0.044433
vn 0.003022 0.825303 0.564682
vn 0.007357 -0.272189 0.962216
vn 0.006230 -0.593618 0.804723
vn 0.994063 -0.108803 0.000000
vn 0.996621 0.082139 0.000000
vn 0.976006 0.217700 -0.004447
vn 0.651281 0.757325 -0.047874
vn 0.158806 0.982496 -0.097382
vn 0.024314 0.993988 -0.106751
vn 0.000362 0.994403 -0.105649
vn -0.024181 0.994128 -0.105471
vn -0.159709 0.982389 -0.096977
vn -0.651280 0.757326 -0.047874
vn -0.976006 0.217700 -0.004447
vn -0.996621 0.082139 0.000000
vn -0.994063 -0.108803 0.000000
vn -0.885925 0.297519 0.355837
vn -0.514794 0.772800 0.371170
vn -0.617696 0.786380 0.007594
vn -0.942207 0.334887 0.009775
vn -0.987456 0.157263 0.014133
vn -0.906838 0.118398 0.404507
vn -0.418385 0.344456 0.840419
vn -0.024175 0.427800 0.903550
vn -0.012672 0.838459 0.544818
vn -0.427515 0.073558 0.901011
vn -0.029258 0.073464 0.996869
vn -0.012576 0.999871 0.010004
vn 0.885925 0.297519 0.355837
vn 0.942207 0.334887 0.009775
vn 0.617696 0.786381 0.007594
vn 0.514793 0.772801 0.371170
vn 0.987456 0.157263 0.014133
vn 0.906838 0.118398 0.404507
vn -0.710727 -0.002107 0.703465
vn -0.529379 -0.005546 0.848367
vn 0.012576 0.999871 0.010004
vn 0.012672 0.838459 0.544818
vn 0.000000 0.431885 0.901929
vn 0.000000 0.840254 0.542193
vn 0.000000 0.073010 0.997331
vn 0.000000 0.999947 0.010268
vn 0.710726 -0.002107 0.703466
vn 0.529380 -0.005545 0.848367
vn 0.024175 0.427800 0.903550
vn 0.418385 0.344456 0.840419
vn 0.427515 0.073558 0.901011
vn 0.029258 0.073464 0.996869
vn -0.030289 -0.031891 0.999032
vn 0.000000 -0.032908 0.999458
vn 0.411523 -0.016369 0.911252
vn 0.030289 -0.031891 0.999032
vn 0.903226 0.074618 0.422628
vn -0.382362 -0.040537 0.923123
vn 0.994769 0.100697 0.017198
vn -0.994769 0.100697 0.017198
vn -0.903226 0.074618 0.422628
vn 0.382362 -0.040537 0.923123
vn -0.411523 -0.016369 0.911252
vn -0.987059 0.160358 0.000000
vn -0.994791 0.101937 0.000000
vn -0.941860 0.336006 0.000000
vn -0.614870 0.788628 0.000000
vn -0.012677 0.999920 0.000000
vn 0.000000 1.000000 0.000000
vn 0.614870 0.788628 0.000000
vn 0.012677 0.999920 0.000000
vn 0.941860 0.336006 0.000000
vn 0.987059 0.160358 0.000000
vn 0.994791 0.101937 0.000000
f 11/1/1 58/2/2 59/3/3 14/4/4
f 16/5/5 57/6/6 58/2/2 11/1/1
f 17/7/7 56/8/8 57/6/6 16/5/5
f 19/9/9 55/10/10 88/11/11 89/12/12
f 22/13/13 54/14/14 55/10/10 19/9/9
f 23/15/15 53/16/16 54/14/14 22/13/13
f 25/17/17 52/18/18 53/16/16 23/15/15
f 27/19/19 51/20/20 52/18/18 25/17/17
f 14/4/4 59/3/3 60/21/21 30/22/22
f 1/23/23 2/24/24 37/25/25 38/26/26
f 61/27/27 62/28/28 33/29/29 34/30/30
f 3/31/31 1/23/23 38/26/26 39/32/32
f 62/28/28 63/33/33 32/34/34 33/29/29
f 4/35/35 3/31/31 39/32/32 40/36/36
f 63/33/33 64/37/37 31/38/38 32/34/34
f 5/39/39 85/40/40 86/41/41 41/42/42
f 91/43/43 65/44/44 50/45/45 90/46/46
f 6/47/47 5/39/39 41/42/42 42/48/48
f 65/44/44 66/49/49 49/50/50 50/45/45
f 7/51/51 6/47/47 42/48/48 43/52/52
f 66/49/49 67/53/53 48/54/54 49/50/50
f 8/55/55 7/51/51 43/52/52 44/56/56
f 67/53/53 68/57/57 47/58/58 48/54/54
f 9/59/59 8/55/55 44/56/56 45/60/60
f 68/57/57 69/61/61 46/62/62 47/58/58
f 2/24/24 10/63/63 36/64/64 37/25/25
f 70/65/65 61/27/27 34/30/30 35/66/66
f 32/34/34 31/38/38 17/7/7 16/5/5
f 33/29/29 32/34/34 16/5/5 11/1/1
f 34/30/30 33/29/29 11/1/1 14/4/4
f 35/66/66 34/30/30 14/4/4 30/22/22
f 37/25/25 36/64/64 29/67/67 13/68/68
f 38/26/26 37/25/25 13/68/68 12/69/69
f 39/32/32 38/26/26 12/69/69 15/70/70
f 40/36/36 39/32/32 15/70/70 18/71/71
f 41/42/42 86/41/41 87/72/72 20/73/73
f 42/48/48 41/42/42 20/73/73 21/74/74
f 43/52/52 42/48/48 21/74/74 24/75/75
f 44/56/56 43/52/52 24/75/75 26/76/76
f 45/60/60 44/56/56 26/76/76 28/77/77
f 47/58/58 46/62/62 27/19/19 25/17/17
f 48/54/54 47/58/58 25/17/17 23/15/15
f 49/50/50 48/54/54 23/15/15 22/13/13
f 50/45/45 49/50/50 22/13/13 19/9/9
f 90/46/46 50/45/45 19/9/9 89/12/12
f 51/20/20 92/78/78 93/79/79 52/18/18
f 53/16/16 52/18/18 93/79/79 94/80/80
f 54/14/14 53/16/16 94/80/80 95/81/81
f 55/10/10 54/14/14 95/81/81 96/82/82
f 88/11/11 55/10/10 96/82/82 97/83/83
f 57/6/6 56/8/8 100/84/84 101/85/85
f 58/2/2 57/6/6 101/85/85 102/86/86
f 59/3/3 58/2/2 102/86/86 103/87/87
f 60/21/21 59/3/3 103/87/87 104/88/88
f 71/89/89 4/35/35 40/36/36 72/90/90
f 73/91/91 72/90/90 40/36/36 18/71/71
f 56/8/8 74/92/92 99/93/93 100/84/84
f 75/94/94 74/92/92 56/8/8 17/7/7
f 31/38/38 76/95/95 75/94/94 17/7/7
f 64/37/37 77/96/96 76/95/95 31/38/38
f 79/97/97 78/98/98 71/89/89 72/90/90
f 73/91/91 80/99/99 79/97/97 72/90/90
f 74/92/92 81/100/100 98/101/101 99/93/93
f 82/102/102 81/100/100 74/92/92 75/94/94
f 76/95/95 83/103/103 82/102/102 75/94/94
f 77/96/96 84/104/104 83/103/103 76/95/95
f 86/41/41 85/40/40 78/98/98 79/97/97
f 80/99/99 87/72/72 86/41/41 79/97/97
f 81/100/100 88/11/11 97/83/83 98/101/101
f 89/12/12 88/11/11 81/100/100 82/102/102
f 83/103/103 90/46/46 89/12/12 82/102/102
f 84/104/104 91/43/43 90/46/46 83/103/103
f 92/78/78 105/105/105 106/106/106 93/79/79
f 94/80/80 93/79/79 106/106/106 107/107/107
f 95/81/81 94/80/80 107/107/107 108/108/108
f 96/82/82 95/81/81 108/108/108 109/109/109
f 97/83/83 96/82/82 109/109/109 110/110/110
f 98/101/101 97/83/83 110/110/110 111/111/111
f 99/93/93 98/101/101 111/111/111 112/112/112
f 100/84/84 99/93/93 112/112/112 113/113/113
f 101/85/85 100/84/84 113/113/113 114/114/114
f 102/86/86 101/85/85 114/114/114 115/115/115
f 103/87/87 102/86/86 115/115/115 116/116/116
f 104/88/88 103/87/87 116/116/116 117/117/117
f 105/105/105 28/77/77 26/76/76 106/106/106
f 107/107/107 106/106/106 26/76/76 24/75/75
f 108/108/108 107/107/107 24/75/75 21/74/74
f 109/109/109 108/108/108 21/74/74 20/73/73
f 110/110/110 109/109/109 20/73/73 87/72/72
f 110/110/110 87/72/72 80/99/99 111/111/111
f 111/111/111 80/99/99 73/91/91 112/112/112
f 113/113/113 112/112/112 73/91/91 18/71/71
f 114/114/114 113/113/113 18/71/71 15/70/70
f 115/115/115 114/114/114 15/70/70 12/69/69
f 116/116/116 115/115/115 12/69/69 13/68/68
f 117/117/117 116/116/116 13/68/68 29/67/67
f 119/118/118 120/119/119 124/120/120 125/121/121
f 147/122/122 148/123/123 119/118/118 125/121/121
f 120/119/119 138/124/124 122/125/125 121/126/126
f 138/124/124 149/127/127 142/128/128 122/125/125
f 120/119/119 121/126/126 127/129/129 124/120/120
f 128/130/130 131/131/131 130/132/132 129/133/133
f 146/134/134 131/131/131 128/130/130 145/135/135
f 129/133/133 140/136/136 128/130/130
f 145/135/135 128/130/130 140/136/136 144/137/137
f 129/133/133 130/132/132 137/138/138 135/139/139
f 122/125/125 162/140/140 163/141/141 121/126/126
f 142/128/128 161/142/142 162/140/140 122/125/125
f 121/126/126 163/141/141 164/143/143 127/129/129
f 120/119/119 119/118/118 138/124/144
f 148/123/123 149/127/145 138/124/144 119/118/118
f 129/133/133 135/139/139 134/144/146 140/136/147
f 144/137/148 140/136/147 134/144/146 143/145/149
f 123/146/150 160/147/151 161/142/142 142/128/128
f 141/148/152 144/137/148 143/145/149 136/149/153
f 133/150/154 145/135/135 144/137/137 141/148/155
f 132/151/156 146/134/134 145/135/135 133/150/154
f 126/152/157 118/153/158 148/123/123 147/122/122
f 118/153/158 139/154/159 149/127/145 148/123/123
f 142/128/128 149/127/127 139/154/160 123/146/150
f 147/122/122 151/155/161 150/156/162 126/152/157
f 125/121/121 152/157/163 151/155/161 147/122/122
f 124/120/120 153/158/164 152/157/163 125/121/121
f 127/129/129 154/159/165 153/158/164 124/120/120
f 164/143/143 165/160/166 154/159/165 127/129/129
f 130/132/132 156/161/167 155/162/168 137/138/138
f 131/131/131 157/163/169 156/161/167 130/132/132
f 146/134/134 158/164/170 157/163/169 131/131/131
f 132/151/156 159/165/171 158/164/170 146/134/134
f 160/147/151 136/149/153 143/145/149 161/142/142
f 162/140/140 161/142/142 143/145/149 134/144/146
f 163/141/141 162/140/140 134/144/146 135/139/139
f 164/143/143 163/141/141 135/139/139 137/138/138
f 137/138/138 155/162/168 165/160/166 164/143/143
