# This file uses meters as units for non-parametric coordinates.

v 46.511780 -15.170263 21.022488
v 46.511780 15.170261 21.022488
v -46.511780 15.170261 21.022491
v -46.511780 -15.170263 21.022491
v 46.511780 -15.170263 23.261135
v 45.765671 -14.424154 24.007229
v 45.765671 14.424152 24.007229
v 46.511780 15.170261 23.261135
v -45.765671 14.424152 24.007233
v -46.511780 15.170261 23.261139
v -45.765671 -14.424154 24.007233
v -46.511780 -15.170263 23.261139
v 43.618790 10.545231 19.794857
v 43.618790 10.545231 -25.419495
v -43.618790 10.545231 19.794861
v -43.618790 10.545231 -25.419498
v 44.967102 -14.154398 21.022518
v 44.967102 -14.154398 -26.647156
v 44.967102 10.545231 -26.647156
v 44.967102 10.545231 21.022518
v -44.967102 10.545231 21.022518
v -44.967102 10.545231 -26.647160
v -44.967102 -14.154398 -26.647160
v -44.967102 -14.154398 21.022518
v -43.618790 -8.826279 19.794861
v 43.618790 -8.826279 19.794857
v 43.618790 -8.826279 -25.419495
v -43.618790 -8.826279 -25.419498
v 40.773438 -11.359163 22.883877
v -40.773438 -11.359163 22.883877
v 40.773438 11.359161 22.883877
v -40.773438 11.359161 22.883877
v 41.054245 -11.639973 24.007229
v 40.773438 -11.359163 23.726437
v -41.054245 -11.639973 24.007233
v -40.773438 -11.359163 23.726437
v 41.054245 11.639973 24.007229
v 40.773438 11.359161 23.726437
v -41.054245 11.639973 24.007233
v -40.773438 11.359161 23.726437
vt 0.740685 0.515027
vt 0.637626 0.515027
vt 0.637626 0.608763
vt 0.740685 0.608763
vt 0.740685 0.521453
vt 0.731529 0.521453
vt 0.731529 0.615679
vt 0.740686 0.615679
vt 0.739369 0.523771
vt 0.739369 0.613362
vt 0.740685 0.615679
vt 0.647255 0.532417
vt 0.731057 0.532417
vt 0.637626 0.615679
vt 0.731057 0.604715
vt 0.638943 0.613362
vt 0.637626 0.615679
vt 0.646783 0.615679
vt 0.646783 0.521453
vt 0.637626 0.521453
vt 0.647750 0.533289
vt 0.638943 0.523771
vt 0.637626 0.521454
vt 0.637626 0.514501
vt 0.740685 0.514501
vt 0.740685 0.521454
vt 0.647750 0.603843
vt 0.730562 0.533289
vt 0.648246 0.534162
vt 0.730066 0.534162
vt 0.730066 0.602971
vt 0.648246 0.602971
vt 0.694078 0.517910
vt 0.641292 0.517910
vt 0.641292 0.539449
vt 0.694077 0.539449
vt 0.685309 0.539449
vt 0.738989 0.539448
vt 0.738989 0.517909
vt 0.685309 0.517910
vt 0.641591 0.540572
vt 0.647255 0.604715
vt 0.730562 0.603843
vt 0.738042 0.557465
vt 0.694238 0.617876
vt 0.695762 0.540624
vt 0.641292 0.612394
vt 0.694078 0.612394
vt 0.695569 0.616699
vt 0.642239 0.557465
vt 0.738690 0.540572
vt 0.683626 0.540624
vt 0.642757 0.596894
vt 0.737524 0.596894
vt 0.737524 0.613787
vt 0.642757 0.613787
vt 0.683248 0.557516
vt 0.696139 0.557516
vn -0.000000 0.000000 -1.000000
vn -0.000000 0.000000 -1.000000
vn -0.000000 0.000000 -1.000000
vn -0.000000 0.000000 -1.000000
vn 0.000000 -0.707099 0.707114
vn 0.000000 -0.707099 0.707114
vn 0.000000 -0.707099 0.707114
vn 0.000000 -0.707099 0.707114
vn 0.707098 0.000000 0.707115
vn 0.707098 0.000000 0.707115
vn 0.707098 0.000000 0.707115
vn 0.707098 0.000000 0.707115
vn 0.000000 0.707098 0.707115
vn 0.000000 0.707098 0.707115
vn 0.000000 0.707098 0.707115
vn 0.000000 0.707098 0.707115
vn -0.707098 0.000000 0.707115
vn -0.707098 0.000000 0.707115
vn -0.707098 0.000000 0.707115
vn -0.707098 0.000000 0.707115
vn 1.000000 0.000000 0.000000
vn 1.000000 0.000000 0.000000
vn 1.000000 0.000000 0.000000
vn 1.000000 0.000000 0.000000
vn 0.000000 1.000000 0.000000
vn 0.000000 1.000000 0.000000
vn 0.000000 1.000000 0.000000
vn 0.000000 1.000000 0.000000
vn -1.000000 0.000000 0.000000
vn -1.000000 0.000000 0.000000
vn -1.000000 0.000000 0.000000
vn -1.000000 0.000000 0.000000
vn 0.000000 -1.000000 0.000000
vn 0.000000 -1.000000 0.000000
vn 0.000000 -1.000000 0.000000
vn 0.000000 -1.000000 0.000000
vn 0.000000 0.000000 1.000000
vn 0.000000 0.000000 1.000000
vn 0.000000 0.000000 1.000000
vn 0.000000 0.000000 1.000000
vn 1.000000 0.000000 0.000000
vn 1.000000 0.000000 0.000000
vn 1.000000 0.000000 0.000000
vn 1.000000 0.000000 0.000000
vn -1.000000 0.000000 0.000000
vn -1.000000 0.000000 0.000000
vn -1.000000 0.000000 0.000000
vn -1.000000 0.000000 0.000000
vn 0.000000 0.000000 -1.000000
vn 0.000000 0.000000 -1.000000
vn 0.000000 0.000000 -1.000000
vn 0.000000 0.000000 -1.000000
vn 0.000000 1.000000 -0.000000
vn 0.000000 1.000000 0.000000
vn 0.000000 1.000000 0.000000
vn 0.000000 1.000000 -0.000000
vn 0.000000 1.000000 0.000000
vn 0.000000 1.000000 -0.000000
vn 0.000000 1.000000 -0.000000
vn 0.000000 1.000000 0.000000
vn -0.000000 0.000000 -1.000000
vn -0.000000 0.000000 -1.000000
vn -0.000000 0.000000 -1.000000
vn -0.000000 0.000000 -1.000000
vn -1.000000 0.000000 0.000000
vn -1.000000 0.000000 0.000000
vn -1.000000 0.000000 0.000000
vn -1.000000 0.000000 0.000000
vn -0.000000 0.000000 1.000000
vn -0.000000 0.000000 1.000000
vn -0.000000 0.000000 1.000000
vn -0.000000 0.000000 1.000000
vn 1.000000 0.000000 0.000000
vn 1.000000 0.000000 0.000000
vn 1.000000 0.000000 0.000000
vn 1.000000 0.000000 0.000000
vn 0.000000 1.000000 0.000000
vn 0.000000 1.000000 0.000000
vn 0.000000 1.000000 0.000000
vn 0.000000 1.000000 0.000000
vn 0.000000 -1.000000 0.000000
vn 0.000000 -1.000000 0.000000
vn 0.000000 -1.000000 0.000000
vn 0.000000 -1.000000 0.000000
vn 0.000000 0.707088 0.707126
vn 0.000000 0.707088 0.707126
vn 0.000000 0.707088 0.707126
vn 0.000000 0.707088 0.707126
vn -0.707086 0.000000 0.707128
vn -0.707086 0.000000 0.707128
vn -0.707086 0.000000 0.707128
vn -0.707086 0.000000 0.707128
vn 0.707093 0.000000 0.707121
vn 0.707093 0.000000 0.707121
vn 0.707093 0.000000 0.707121
vn 0.707093 0.000000 0.707121
vn 0.000000 -0.707086 0.707128
vn 0.000000 -0.707086 0.707128
vn 0.000000 -0.707086 0.707128
vn 0.000000 -0.707086 0.707128
vn -0.000000 0.000000 1.000000
vn 0.000000 0.000000 1.000000
vn 0.000000 0.000000 1.000000
vn -0.000000 0.000000 1.000000
vn 0.000000 0.000000 1.000000
vn 0.000000 0.000000 1.000000
vn -0.000000 0.000000 1.000000
vn -0.000000 0.000000 1.000000
vn 0.000000 1.000000 0.000000
vn 0.000000 1.000000 0.000000
vn 0.000000 1.000000 0.000000
vn 0.000000 1.000000 0.000000
vn -1.000000 0.000000 0.000000
vn -1.000000 0.000000 0.000000
vn -1.000000 0.000000 0.000000
vn -1.000000 0.000000 0.000000
vn 0.000000 -1.000000 0.000000
vn 0.000000 -1.000000 0.000000
vn 0.000000 -1.000000 0.000000
vn 0.000000 -1.000000 0.000000
vn 1.000000 0.000000 0.000000
vn 1.000000 0.000000 0.000000
vn 1.000000 0.000000 0.000000
vn 1.000000 0.000000 0.000000
f 1/1/1 4/2/2 3/3/3 2/4/4
f 5/26/5 6/9/6 11/22/7 12/23/8
f 6/9/9 5/5/10 8/8/11 7/10/12
f 7/10/13 8/11/14 10/14/15 9/16/16
f 9/16/17 10/17/18 12/20/19 11/22/20
f 5/5/21 1/6/22 2/7/23 8/8/24
f 8/11/25 2/4/26 3/3/27 10/14/28
f 10/17/29 3/18/30 4/19/31 12/20/32
f 12/23/33 4/24/34 1/25/35 5/26/36
f 30/29/37 29/30/38 31/31/39 32/32/40
f 17/33/41 18/34/42 19/35/43 20/36/44
f 21/37/45 22/38/46 23/39/47 24/40/48
f 18/34/49 23/39/50 22/38/51 19/35/52
f 14/41/53 13/46/54 20/36/55 19/35/56
f 15/52/57 16/51/58 22/38/59 21/37/60
f 16/51/58 14/41/53 19/35/56 22/38/59
f 13/46/54 15/49/57 21/45/60 20/36/55
f 26/53/61 25/54/62 15/55/63 13/56/64
f 27/50/65 26/58/66 13/46/67 14/41/68
f 28/44/69 27/50/70 14/41/71 16/51/72
f 25/57/73 28/44/74 16/51/75 15/52/76
f 25/54/77 26/53/78 27/50/79 28/44/80
f 18/34/81 17/33/82 24/48/83 23/47/84
f 33/13/85 34/28/86 36/21/87 35/12/88
f 34/28/89 33/13/90 37/15/91 38/43/92
f 35/12/93 36/21/94 40/27/95 39/42/96
f 38/43/97 37/15/98 39/42/99 40/27/100
f 11/22/101 6/9/102 33/13/103 35/12/104
f 6/9/102 7/10/105 37/15/106 33/13/103
f 7/10/105 9/16/107 39/42/108 37/15/106
f 9/16/107 11/22/101 35/12/104 39/42/108
f 36/21/109 34/28/110 29/30/111 30/29/112
f 34/28/113 38/43/114 31/31/115 29/30/116
f 38/43/117 40/27/118 32/32/119 31/31/120
f 40/27/121 36/21/122 30/29/123 32/32/124
