# This file uses meters as units for non-parametric coordinates.

v 0.000000 115.191139 -158.805393
v 0.000000 115.191139 -183.501827
v -144.465683 227.551376 -158.805393
v -146.103821 229.189514 -160.443531
v 0.000000 229.189514 -160.443531
v 0.000000 227.551376 -158.805393
v -146.103821 229.189514 -181.863688
v -144.465683 227.551376 -183.501827
v 0.000000 227.551376 -183.501827
v 0.000000 229.189514 -181.863688
v -144.465683 3.280807 -183.501812
v -146.103821 1.642670 -181.863673
v 0.000000 1.642670 -181.863673
v 0.000000 3.280807 -183.501812
v -146.103821 1.642670 -160.443516
v -144.465683 3.280807 -158.805378
v 0.000000 1.642670 -160.443516
v 0.000000 3.280807 -158.805378
v -144.465683 115.191139 -183.501827
v 146.103821 229.189514 -181.863688
v 144.465683 227.551376 -183.501827
v 144.465683 115.191139 -183.501827
v -144.465683 115.191139 -158.805393
v 146.103821 1.642670 -160.443516
v 144.465683 3.280807 -158.805378
v 144.465683 115.191139 -158.805393
v 146.103821 1.642670 -181.863673
v 144.465683 3.280807 -183.501812
v 146.103821 229.189514 -160.443531
v 144.465683 227.551376 -158.805393
vt 0.446757 0.980175
vt 0.446506 0.980280
vt 0.459037 0.980347
vt 0.458850 0.979998
vt 0.446757 0.980175
vt 0.446618 0.979998
vt 0.446506 0.992351
vt 0.459037 0.992418
vt 0.458850 0.979998
vt 0.446618 0.979998
vt 0.446506 0.992313
vt 0.459037 0.992310
vt 0.446506 0.992307
vt 0.446506 0.980242
vt 0.459037 0.980239
vt 0.446506 0.980236
vt 0.459037 0.980950
vt 0.446362 0.991747
vt 0.446757 0.980175
vt 0.458850 0.980175
vt 0.459037 0.991707
vt 0.446362 0.980845
vt 0.446757 0.992400
vt 0.446362 0.980883
vt 0.446757 0.980175
vt 0.446757 0.992400
vt 0.459037 0.980842
vt 0.446362 0.991704
vt 0.458850 0.980175
vt 0.459037 0.991815
vt 0.446362 0.981018
vt 0.446362 0.991883
vt 0.446362 0.991710
vt 0.446757 0.980175
vt 0.458850 0.980175
vt 0.446757 0.992400
vt 0.458850 0.992400
vt 0.446757 0.980175
vt 0.446362 0.980839
vt 0.446757 0.980175
vt 0.458850 0.980175
vt 0.446757 0.992400
vt 0.458850 0.992400
vt 0.446757 0.980175
vn 0.000000 0.707107 0.707107
vn 0.000000 0.707107 0.707107
vn 0.000000 0.707107 0.707107
vn 0.000000 0.707107 0.707107
vn 0.000000 0.707107 0.707107
vn 0.000000 0.707107 0.707107
vn 0.000000 0.707107 -0.707107
vn 0.000000 0.707107 -0.707107
vn 0.000000 0.707107 -0.707107
vn 0.000000 0.707107 -0.707107
vn 0.000000 0.707107 -0.707107
vn 0.000000 0.707107 -0.707107
vn 0.000000 -0.707107 -0.707107
vn 0.000000 -0.707107 -0.707107
vn 0.000000 -0.707107 -0.707107
vn 0.000000 -0.707107 -0.707107
vn 0.000000 -0.707107 -0.707107
vn 0.000000 -0.707107 -0.707107
vn 0.000000 -0.707107 0.707107
vn 0.000000 -0.707107 0.707107
vn 0.000000 -0.707107 0.707107
vn 0.000000 -0.707107 0.707107
vn 0.000000 -0.707107 0.707107
vn 0.000000 -0.707107 0.707107
vn 0.000000 1.000000 0.000000
vn 0.000000 1.000000 0.000000
vn 0.000000 1.000000 0.000000
vn 0.000000 1.000000 0.000000
vn 0.000000 0.000000 -1.000000
vn 0.000000 0.000000 -1.000000
vn 0.000000 -0.000000 -1.000000
vn 0.000000 -0.000000 -1.000000
vn 0.000000 -1.000000 -0.000000
vn 0.000000 -1.000000 -0.000000
vn 0.000000 -1.000000 -0.000000
vn 0.000000 -1.000000 -0.000000
vn 0.000000 0.000000 1.000000
vn 0.000000 0.000000 1.000000
vn 0.000000 -0.000000 1.000000
vn 0.000000 -0.000000 1.000000
vn 0.000000 0.000000 -1.000000
vn 0.000000 -0.000000 -1.000000
vn 0.000000 -1.000000 -0.000000
vn 0.000000 -1.000000 -0.000000
vn 0.000000 0.000000 1.000000
vn 0.000000 -0.000000 1.000000
vn 0.000000 1.000000 0.000000
vn 0.000000 1.000000 0.000000
vn 0.000000 0.000000 1.000000
vn 0.000000 0.000000 1.000000
vn 0.000000 0.000000 1.000000
vn 0.000000 -0.000000 -1.000000
vn 0.000000 -0.000000 -1.000000
vn 0.000000 -0.000000 -1.000000
f 4/24/1 3/2/2 6/3/3 5/17/4
f 5/4/4 6/29/3 30/5/5 29/6/6
f 8/7/7 7/18/8 10/30/9 9/8/10
f 9/20/10 10/9/9 20/10/11 21/25/12
f 12/33/13 11/11/14 14/12/15 13/21/16
f 13/21/16 14/12/15 28/13/17 27/28/18
f 16/14/19 15/22/20 17/27/21 18/15/22
f 18/15/22 17/27/21 24/39/23 25/16/24
f 4/24/25 5/17/26 10/30/27 7/18/28
f 8/19/29 9/20/30 2/43/31 19/42/32
f 12/33/33 13/21/34 17/27/35 15/22/36
f 23/23/37 1/37/38 6/29/39 3/1/40
f 9/20/30 21/25/41 22/26/42 2/43/31
f 17/27/35 13/21/34 27/28/43 24/39/44
f 6/29/39 1/37/38 26/36/45 30/5/46
f 10/30/27 5/17/26 29/31/47 20/32/48
f 16/34/49 18/35/50 1/37/38 23/23/37
f 26/36/45 1/37/38 18/35/50 25/38/51
f 2/43/31 22/26/42 28/40/52 14/41/53
f 19/42/32 2/43/31 14/41/53 11/44/54
