# This file uses meters as units for non-parametric coordinates.

v -134.816516 38.602335 148.906834
v -136.305770 80.904260 152.920572
v -130.709187 87.476554 145.735691
v -126.524429 87.476554 147.250805
v -126.524429 80.904260 153.822976
v -123.412796 38.602335 151.696258
v -133.291498 87.476554 140.992421
v -137.143451 80.904260 140.992405
v -137.994476 38.602335 137.290473
v -126.524429 89.183602 140.992421
v 136.305770 80.904260 152.920572
v 130.709187 87.476554 145.735691
v 133.291498 87.476554 140.992421
v 137.143451 80.904260 140.992405
v 137.994476 38.602335 137.290473
v 134.816516 38.602335 148.906834
v 126.524429 80.904260 153.822976
v 126.524429 87.476554 147.250805
v 123.412796 38.602335 151.696258
v 126.524429 89.183602 140.992421
v -134.034467 80.904245 149.778343
v -132.604576 38.602335 147.757393
v 134.034467 80.904245 149.778343
v 132.604576 38.602335 147.757393
v 140.006566 61.527615 140.992405
v 137.270010 61.527615 154.617784
v 134.998707 61.527608 152.456517
v 126.524429 61.527615 156.501135
v -126.524429 61.527615 156.501135
v -134.998707 61.527608 152.456517
v -137.270010 61.527615 154.617784
v -140.006566 61.527615 140.992405
v 137.994476 38.602335 124.056510
v 140.006566 61.527615 127.403226
v 137.143451 80.904268 127.403226
v 133.291498 87.476554 127.403234
v 126.524429 89.183602 127.403234
v -126.524429 89.183602 127.403234
v -133.291498 87.476554 127.403234
v -137.143451 80.904268 127.403226
v -140.006566 61.527615 127.403226
v -137.994476 38.602335 124.056510
v -126.524429 41.328395 155.853599
v 126.524429 41.328395 155.853599
v 135.870415 41.328395 151.808997
v 138.141703 41.328395 153.083431
v 141.354429 41.328395 140.992405
v 141.354429 41.328395 127.403226
v -141.354429 41.328395 127.403226
v -141.354429 41.328395 140.992405
v -138.141703 41.328395 153.083431
v -135.870415 41.328395 151.808997
v 135.827559 38.602335 -85.722786
v 139.187511 41.328395 -88.006857
v 137.839648 61.527615 -88.006857
v 134.976534 80.904260 -88.006857
v 131.124580 84.806610 -88.006872
v 126.524429 86.513658 -88.006872
v -126.524429 86.513658 -88.006872
v -131.124580 84.806610 -88.006872
v -134.976534 80.904260 -88.006857
v -137.839648 61.527615 -88.006857
v -139.187511 41.328395 -88.006857
v -135.827559 38.602335 -85.722786
v 137.994476 38.602335 -83.677498
v 142.720825 41.328395 -85.906666
v 140.757735 61.527615 -85.906666
v 137.143451 80.904260 -85.906666
v 133.291498 87.476554 -85.906681
v 126.524429 89.183602 -85.906681
v -126.524429 89.183602 -85.906681
v -133.291498 87.476554 -85.906681
v -137.143451 80.904260 -85.906666
v -140.757735 61.527615 -85.906666
v -142.720825 41.328395 -85.906666
v -137.994476 38.602335 -83.677498
v 137.994476 38.602335 -23.467468
v 143.391148 41.328395 -19.899405
v 142.031585 63.385234 -20.182431
v 139.024713 82.761875 -20.182431
v 133.291498 89.334169 -20.182438
v 126.524429 91.041217 -20.182438
v -126.524429 91.041217 -20.182438
v -133.291498 89.334169 -20.182438
v -139.024713 82.761875 -20.182431
v -142.031585 63.385234 -20.182431
v -143.391148 41.328395 -19.899405
v -137.994476 38.602335 -23.467468
v 137.994476 38.602335 -18.941625
v 141.354429 41.328395 -19.079797
v 140.006566 61.527615 -19.079797
v 137.143451 80.904260 -19.079797
v 133.291498 87.476554 -19.079801
v 126.524429 89.183602 -19.079801
v -126.524429 89.183602 -19.079801
v -133.291498 87.476554 -19.079801
v -137.143451 80.904260 -19.079797
v -140.006566 61.527615 -19.079797
v -141.354429 41.328395 -19.079797
v -137.994476 38.602335 -18.941625
vt 0.290600 0.852433
vt 0.290873 0.852784
vt 0.290747 0.853016
vt 0.290559 0.853016
vt 0.290419 0.853016
vt 0.290553 0.852350
vt 0.290711 0.852587
vt 0.291078 0.852389
vt 0.291078 0.852710
vt 0.290664 0.852456
vt 0.291078 0.852258
vt 0.291078 0.853016
vt 0.303918 0.852433
vt 0.303959 0.853016
vt 0.303771 0.853016
vt 0.303644 0.852784
vt 0.304099 0.853016
vt 0.303965 0.852350
vt 0.303807 0.852587
vt 0.303854 0.852456
vt 0.303440 0.853016
vt 0.303440 0.852710
vt 0.303440 0.852389
vt 0.303440 0.852258
vt 0.304171 0.853016
vt 0.304012 0.852433
vt 0.303901 0.852491
vt 0.303440 0.852293
vt 0.291078 0.852293
vt 0.290617 0.852491
vt 0.290506 0.852433
vt 0.290346 0.853016
vt 0.304171 0.853680
vt 0.304099 0.853680
vt 0.303959 0.853680
vt 0.303771 0.853680
vt 0.303440 0.853680
vt 0.291078 0.853680
vt 0.290747 0.853680
vt 0.290559 0.853680
vt 0.290419 0.853680
vt 0.290346 0.853680
vt 0.291078 0.852290
vt 0.303440 0.852290
vt 0.303897 0.852487
vt 0.304007 0.852425
vt 0.304164 0.853016
vt 0.304164 0.853680
vt 0.290353 0.853680
vt 0.290353 0.853016
vt 0.290510 0.852425
vt 0.290621 0.852487
vt 0.304171 0.864203
vt 0.304164 0.864203
vt 0.304099 0.864203
vt 0.303959 0.864203
vt 0.303771 0.864203
vt 0.303440 0.864203
vt 0.291078 0.864203
vt 0.290747 0.864203
vt 0.290559 0.864203
vt 0.290419 0.864203
vt 0.290353 0.864203
vt 0.290346 0.864203
vt 0.304171 0.864100
vt 0.304164 0.864100
vt 0.304099 0.864100
vt 0.303959 0.864100
vt 0.303771 0.864100
vt 0.303440 0.864100
vt 0.291078 0.864100
vt 0.290747 0.864100
vt 0.290559 0.864100
vt 0.290419 0.864100
vt 0.290353 0.864100
vt 0.290346 0.864100
vt 0.304171 0.861080
vt 0.304164 0.861080
vt 0.304099 0.861080
vt 0.303959 0.861080
vt 0.303771 0.861080
vt 0.303440 0.861080
vt 0.291078 0.861080
vt 0.290747 0.861080
vt 0.290559 0.861080
vt 0.290419 0.861080
vt 0.290353 0.861080
vt 0.290346 0.861080
vt 0.304171 0.860193
vt 0.304164 0.860193
vt 0.304099 0.860193
vt 0.303959 0.860193
vt 0.303771 0.860193
vt 0.303440 0.860193
vt 0.291078 0.860193
vt 0.290747 0.860193
vt 0.290559 0.860193
vt 0.290419 0.860193
vt 0.290353 0.860193
vt 0.290346 0.860193
vn -0.907118 0.218540 0.359691
vn -0.514792 0.772798 0.371176
vn -0.636078 0.769273 0.060198
vn -0.968589 0.239259 0.067748
vn -0.991854 0.090177 0.089966
vn -0.911797 0.078602 0.403048
vn -0.432404 0.256934 0.864299
vn -0.013377 0.333775 0.942558
vn -0.006414 0.839359 0.543540
vn -0.430509 0.051146 0.901136
vn -0.015102 0.051401 0.998564
vn -0.005487 0.996385 0.084772
vn 0.907118 0.218540 0.359691
vn 0.968589 0.239259 0.067748
vn 0.636077 0.769274 0.060198
vn 0.514792 0.772798 0.371176
vn 0.991854 0.090177 0.089966
vn 0.911797 0.078602 0.403048
vn -0.771457 0.016210 0.636075
vn -0.694901 -0.010330 0.719032
vn 0.005487 0.996385 0.084772
vn 0.006414 0.839359 0.543540
vn 0.013377 0.333775 0.942558
vn 0.015102 0.051401 0.998564
vn 0.771457 0.016210 0.636074
vn 0.694901 -0.010330 0.719032
vn 0.432404 0.256934 0.864299
vn 0.430509 0.051146 0.901136
vn 0.987438 -0.105246 0.117855
vn 0.906796 -0.094536 0.410834
vn -0.574360 -0.176802 0.799282
vn 0.401894 -0.213850 0.890365
vn 0.016239 -0.153429 0.988026
vn -0.016239 -0.153429 0.988026
vn -0.401894 -0.213850 0.890365
vn -0.906796 -0.094536 0.410834
vn 0.574360 -0.176802 0.799282
vn -0.987438 -0.105246 0.117855
vn 0.999309 -0.037159 0.000000
vn 0.994387 0.105806 -0.000000
vn 0.968109 0.250527 -0.000000
vn 0.614870 0.788628 0.000000
vn 0.006570 0.999978 0.000000
vn -0.006570 0.999978 0.000000
vn -0.614870 0.788628 0.000000
vn -0.968109 0.250527 -0.000000
vn -0.994387 0.105806 0.000000
vn -0.999309 -0.037159 0.000000
vn 0.996540 -0.083109 0.000000
vn 0.994387 0.105806 -0.000000
vn 0.968110 0.250527 -0.000000
vn 0.614870 0.788628 -0.000000
vn 0.006570 0.999978 0.000000
vn -0.006570 0.999978 0.000000
vn -0.614870 0.788628 -0.000000
vn -0.968110 0.250527 -0.000000
vn -0.994387 0.105806 -0.000000
vn -0.996540 -0.083109 0.000000
vn -0.005437 -0.838072 0.545532
vn 0.005437 -0.838072 0.545532
vn 0.188438 -0.879224 0.437557
vn 0.424532 -0.873390 0.238669
vn -0.379994 -0.601347 0.702842
vn 0.595797 -0.801734 0.047417
vn 0.630049 -0.776555 0.000000
vn 0.630049 -0.776555 0.000000
vn -0.630049 -0.776555 0.000000
vn -0.630049 -0.776555 0.000000
vn -0.595797 -0.801734 0.047417
vn -0.424531 -0.873390 0.238669
vn 0.379994 -0.601346 0.702842
vn -0.188438 -0.879224 0.437557
vn 0.544385 -0.156095 -0.824184
vn 0.547225 -0.082474 -0.832912
vn 0.320049 -0.838984 -0.440085
vn 0.320049 -0.838984 -0.440085
vn 0.582916 0.070247 -0.809490
vn 0.588551 0.074137 -0.805054
vn 0.614754 0.158623 -0.772603
vn 0.600487 0.195626 -0.775336
vn 0.354411 0.478043 -0.803659
vn 0.340769 0.485485 -0.805097
vn 0.003581 0.617352 -0.786678
vn 0.004771 0.617051 -0.786909
vn -0.003581 0.617352 -0.786678
vn -0.004771 0.617051 -0.786909
vn -0.354411 0.478043 -0.803659
vn -0.340769 0.485486 -0.805097
vn -0.614754 0.158623 -0.772603
vn -0.600487 0.195625 -0.775336
vn -0.582916 0.070247 -0.809490
vn -0.588551 0.074137 -0.805054
vn -0.544385 -0.156095 -0.824184
vn -0.547225 -0.082474 -0.832912
vn -0.320050 -0.838983 -0.440086
vn -0.320050 -0.838983 -0.440086
vn 0.996109 -0.086860 -0.014903
vn 0.997376 -0.070931 0.014471
vn 0.474482 -0.880264 0.001231
vn 0.474442 -0.880283 -0.002520
vn 0.992439 0.122382 0.009323
vn 0.992416 0.120978 -0.021791
vn 0.953906 0.300071 -0.004509
vn 0.954726 0.296073 -0.028977
vn 0.578252 0.815841 -0.005226
vn 0.584911 0.810558 -0.029581
vn 0.006528 0.999979 -0.000095
vn 0.006596 0.999579 -0.028252
vn -0.006528 0.999979 -0.000095
vn -0.006596 0.999579 -0.028252
vn -0.578252 0.815841 -0.005226
vn -0.584911 0.810558 -0.029582
vn -0.953906 0.300071 -0.004509
vn -0.954726 0.296073 -0.028977
vn -0.992439 0.122382 0.009323
vn -0.992416 0.120978 -0.021791
vn -0.996109 -0.086860 -0.014903
vn -0.997376 -0.070931 0.014471
vn -0.474442 -0.880283 -0.002520
vn -0.474482 -0.880264 0.001231
vn 0.513719 -0.301659 0.803178
vn 0.468697 -0.865119 0.178583
vn 0.423712 0.043561 0.904749
vn 0.438123 0.110610 0.892084
vn 0.325599 0.372146 0.869191
vn 0.003793 0.510425 0.859914
vn -0.003793 0.510425 0.859914
vn -0.325599 0.372146 0.869191
vn -0.438123 0.110610 0.892084
vn -0.423712 0.043561 0.904749
vn -0.513719 -0.301659 0.803178
vn -0.468698 -0.865118 0.178583
f 2/1/1 3/2/2 7/3/3 8/4/4
f 32/5/5 31/6/6 2/1/1 8/4/4
f 3/2/2 21/7/7 5/8/8 4/9/9
f 21/7/7 30/10/10 29/11/11 5/8/8
f 3/2/2 4/9/9 10/12/12 7/3/3
f 11/13/13 14/14/14 13/15/15 12/16/16
f 25/17/17 14/14/14 11/13/13 26/18/18
f 12/16/16 23/19/19 11/13/13
f 26/18/18 11/13/13 23/19/19 27/20/20
f 12/16/16 13/15/15 20/21/21 18/22/22
f 4/9/9 5/8/8 17/23/23 18/22/22
f 5/8/8 29/11/11 28/24/24 17/23/23
f 10/12/12 4/9/9 18/22/22 20/21/21
f 3/2/2 2/1/1 21/7/25
f 31/6/6 30/10/26 21/7/25 2/1/1
f 12/16/16 18/22/22 17/23/23 23/19/27
f 27/20/28 23/19/27 17/23/23 28/24/24
f 47/47/29 25/17/17 26/18/18 46/46/30
f 46/46/30 26/18/18 27/20/20 45/45/31
f 45/45/32 27/20/28 28/24/24 44/44/33
f 29/11/11 43/43/34 44/44/33 28/24/24
f 30/10/10 52/52/35 43/43/34 29/11/11
f 51/51/36 52/52/37 30/10/26 31/6/6
f 50/50/38 51/51/36 31/6/6 32/5/5
f 25/17/17 47/47/29 48/48/39 34/34/40
f 14/14/14 25/17/17 34/34/40 35/35/41
f 13/15/15 14/14/14 35/35/41 36/36/42
f 20/21/21 13/15/15 36/36/42 37/37/43
f 10/12/12 20/21/21 37/37/43 38/38/44
f 7/3/3 10/12/12 38/38/44 39/39/45
f 8/4/4 7/3/3 39/39/45 40/40/46
f 32/5/5 8/4/4 40/40/46 41/41/47
f 49/49/48 50/50/38 32/5/5 41/41/47
f 34/34/40 48/48/39 90/90/49 91/91/50
f 35/35/41 34/34/40 91/91/50 92/92/51
f 36/36/42 35/35/41 92/92/51 93/93/52
f 37/37/43 36/36/42 93/93/52 94/94/53
f 38/38/44 37/37/43 94/94/53 95/95/54
f 39/39/45 38/38/44 95/95/54 96/96/55
f 40/40/46 39/39/45 96/96/55 97/97/56
f 41/41/47 40/40/46 97/97/56 98/98/57
f 99/99/58 49/49/48 41/41/47 98/98/57
f 43/43/34 6/29/59 19/28/60 44/44/33
f 24/27/61 45/45/32 44/44/33 19/28/60
f 16/26/62 46/46/30 45/45/31 24/27/63
f 15/25/64 47/47/29 46/46/30 16/26/62
f 48/48/39 47/47/29 15/25/64 33/33/65
f 90/90/49 48/48/39 33/33/65 89/89/66
f 100/100/67 42/42/68 49/49/48 99/99/58
f 42/42/68 9/32/69 50/50/38 49/49/48
f 9/32/69 1/31/70 51/51/36 50/50/38
f 1/31/70 22/30/71 52/52/37 51/51/36
f 43/43/34 52/52/35 22/30/72 6/29/59
f 54/54/73 66/66/74 65/65/75 53/53/76
f 67/67/77 66/66/74 54/54/73 55/55/78
f 68/68/79 67/67/77 55/55/78 56/56/80
f 69/69/81 68/68/79 56/56/80 57/57/82
f 70/70/83 69/69/81 57/57/82 58/58/84
f 71/71/85 70/70/83 58/58/84 59/59/86
f 72/72/87 71/71/85 59/59/86 60/60/88
f 73/73/89 72/72/87 60/60/88 61/61/90
f 74/74/91 73/73/89 61/61/90 62/62/92
f 63/63/93 75/75/94 74/74/91 62/62/92
f 64/64/95 76/76/96 75/75/94 63/63/93
f 66/66/97 78/78/98 77/77/99 65/65/100
f 79/79/101 78/78/98 66/66/97 67/67/102
f 80/80/103 79/79/101 67/67/102 68/68/104
f 81/81/105 80/80/103 68/68/104 69/69/106
f 82/82/107 81/81/105 69/69/106 70/70/108
f 83/83/109 82/82/107 70/70/108 71/71/110
f 84/84/111 83/83/109 71/71/110 72/72/112
f 85/85/113 84/84/111 72/72/112 73/73/114
f 86/86/115 85/85/113 73/73/114 74/74/116
f 75/75/117 87/87/118 86/86/115 74/74/116
f 76/76/119 88/88/120 87/87/118 75/75/117
f 78/78/98 90/90/121 89/89/122 77/77/99
f 91/91/123 90/90/121 78/78/98 79/79/101
f 92/92/124 91/91/123 79/79/101 80/80/103
f 93/93/125 92/92/124 80/80/103 81/81/105
f 94/94/126 93/93/125 81/81/105 82/82/107
f 95/95/127 94/94/126 82/82/107 83/83/109
f 96/96/128 95/95/127 83/83/109 84/84/111
f 97/97/129 96/96/128 84/84/111 85/85/113
f 98/98/130 97/97/129 85/85/113 86/86/115
f 87/87/118 99/99/131 98/98/130 86/86/115
f 88/88/120 100/100/132 99/99/131 87/87/118
