# This file uses meters as units for non-parametric coordinates.

v -137.364868 44.368599 150.606049
v -134.390396 69.699791 152.658508
v -131.315933 70.495064 154.164093
v -131.315933 44.368599 153.452332
v -136.404083 71.290321 150.138000
v -140.607605 44.368599 150.137985
v -131.315933 72.191376 150.138000
v 134.390396 69.699791 152.658508
v 136.404083 71.290321 150.138000
v 140.607605 44.368599 150.137985
v 137.364868 44.368599 150.606049
v 131.315933 70.495064 154.164093
v 131.315933 44.368599 153.452332
v 131.315933 72.191376 150.138000
v -135.107849 44.368599 149.433167
v 135.107849 44.368599 149.433167
v 139.126053 54.166351 150.137985
v 136.406708 54.166351 152.292587
v 134.149689 54.166344 150.144913
v 131.315933 54.166351 154.164093
v -131.315933 54.166351 154.164093
v -134.149689 54.166344 150.144913
v -136.406708 54.166351 152.292587
v -139.126053 54.166351 150.137985
v -137.364868 44.368599 -154.559601
v -134.390396 69.699791 -154.220551
v -131.315933 70.495064 -155.726135
v -131.315933 44.368599 -157.405884
v -136.404083 71.290321 -149.507111
v -140.607605 44.368599 -150.087311
v -131.315933 72.191376 -149.507111
v 134.390396 69.699791 -154.220551
v 136.404083 71.290321 -149.507111
v 140.607605 44.368599 -150.087311
v 137.364868 44.368599 -154.559601
v 131.315933 70.495064 -155.726135
v 131.315933 44.368599 -157.405884
v 131.315933 72.191376 -149.507111
v -135.107849 44.368599 -153.386719
v 135.107849 44.368599 -153.386719
v 139.126053 54.166351 -150.087311
v 136.406708 54.166351 -156.246140
v 134.149689 54.166344 -154.098465
v 131.315933 54.166351 -158.117645
v -131.315933 54.166351 -158.117645
v -134.149689 54.166344 -154.098465
v -136.406708 54.166351 -156.246140
v -139.126053 54.166351 -150.087311
vt 0.259694 0.980693
vt 0.259574 0.980912
vt 0.259264 0.980912
vt 0.259391 0.980282
vt 0.259887 0.980623
vt 0.259495 0.980382
vt 0.259887 0.980195
vt 0.259887 0.980912
vt 0.271886 0.980912
vt 0.271767 0.980693
vt 0.272196 0.980912
vt 0.272070 0.980282
vt 0.271965 0.980382
vt 0.271574 0.980912
vt 0.271574 0.980623
vt 0.271574 0.980195
vt 0.272265 0.980912
vt 0.272114 0.980361
vt 0.272010 0.980415
vt 0.271574 0.980228
vt 0.259887 0.980228
vt 0.259451 0.980415
vt 0.259346 0.980361
vt 0.259195 0.980912
vt 0.259574 0.993993
vt 0.259694 0.994212
vt 0.259264 0.993993
vt 0.259391 0.994622
vt 0.259887 0.994282
vt 0.259887 0.994709
vt 0.259495 0.994522
vt 0.259887 0.993993
vt 0.271767 0.994212
vt 0.271886 0.993993
vt 0.272196 0.993993
vt 0.272070 0.994622
vt 0.271965 0.994522
vt 0.271574 0.994282
vt 0.271574 0.993993
vt 0.271574 0.994709
vt 0.272265 0.993993
vt 0.272114 0.994544
vt 0.272010 0.994489
vt 0.271574 0.994676
vt 0.259887 0.994676
vt 0.259451 0.994489
vt 0.259346 0.994544
vt 0.259195 0.993993
vn -0.190513 -0.017794 0.981523
vn -0.647104 0.125855 0.751942
vn -0.917724 0.397171 0.006162
vn -0.988068 0.153794 0.008357
vn -0.011724 -0.027566 0.999551
vn -0.008250 0.217262 0.976079
vn -0.724444 -0.036886 0.688346
vn -0.003369 0.999979 0.005569
vn 0.190513 -0.017794 0.981523
vn 0.988068 0.153794 0.008357
vn 0.917724 0.397171 0.006162
vn 0.647105 0.125855 0.751942
vn -0.631877 -0.133023 0.763568
vn 0.003369 0.999979 0.005569
vn 0.008250 0.217262 0.976079
vn 0.011724 -0.027566 0.999551
vn 0.631877 -0.133023 0.763568
vn 0.724445 -0.036885 0.688346
vn 0.988849 0.148660 0.008855
vn -0.044048 -0.097883 0.994223
vn -0.585424 -0.154654 0.795840
vn 0.771626 -0.008474 0.636020
vn 0.015571 -0.071688 0.997306
vn -0.015571 -0.071688 0.997306
vn -0.771627 -0.008474 0.636019
vn 0.044047 -0.097883 0.994223
vn 0.585424 -0.154654 0.795840
vn -0.988849 0.148660 0.008855
vn 0.988898 0.148315 -0.009117
vn 0.988038 0.153975 -0.008531
vn 0.919611 0.392775 -0.006522
vn 0.003367 0.999979 -0.005531
vn -0.003367 0.999979 -0.005531
vn -0.919611 0.392775 -0.006522
vn -0.988038 0.153975 -0.008531
vn -0.988898 0.148315 -0.009117
vn -0.788758 0.258795 -0.557572
vn -0.695517 0.103182 -0.711062
vn -0.008376 0.430465 -0.902568
vn -0.011364 0.063808 -0.997898
vn -0.726640 0.021435 -0.686684
vn 0.788758 0.258795 -0.557572
vn 0.695517 0.103182 -0.711062
vn -0.637144 -0.080657 -0.766513
vn 0.008376 0.430465 -0.902568
vn 0.011364 0.063808 -0.997898
vn 0.637144 -0.080658 -0.766512
vn 0.726640 0.021435 -0.686684
vn 0.611079 0.002653 -0.791565
vn -0.585424 -0.154654 -0.795840
vn 0.771627 -0.008473 -0.636019
vn 0.015572 -0.071688 -0.997306
vn -0.015572 -0.071688 -0.997306
vn -0.771627 -0.008473 -0.636019
vn -0.611080 0.002653 -0.791565
vn 0.585424 -0.154654 -0.795840
f 23/4/1 2/1/2 5/2/3 24/3/4
f 21/7/5 3/5/6 2/1/2 22/6/7
f 2/1/2 3/5/6 7/8/8 5/2/3
f 18/12/9 17/11/10 9/9/11 8/10/12
f 8/10/12 19/13/13 18/12/9
f 8/10/12 9/9/11 14/14/14 12/15/15
f 21/7/5 20/16/16 12/15/15 3/5/6
f 7/8/8 3/5/6 12/15/15 14/14/14
f 2/1/2 23/4/1 22/6/17
f 12/15/15 20/16/16 19/13/18 8/10/12
f 10/17/19 17/11/10 18/12/9 11/18/20
f 11/18/20 18/12/9 19/13/13 16/19/21
f 16/19/22 19/13/18 20/16/16 13/20/23
f 21/7/5 4/21/24 13/20/23 20/16/16
f 22/6/7 15/22/25 4/21/24 21/7/5
f 1/23/26 15/22/27 22/6/17 23/4/1
f 6/24/28 1/23/26 23/4/1 24/3/4
f 17/11/10 10/17/19 34/41/29 41/35/30
f 9/9/11 17/11/10 41/35/30 33/34/31
f 14/14/14 9/9/11 33/34/31 38/39/32
f 7/8/8 14/14/14 38/39/32 31/32/33
f 5/2/3 7/8/8 31/32/33 29/25/34
f 24/3/4 5/2/3 29/25/34 48/27/35
f 30/48/36 6/24/28 24/3/4 48/27/35
f 26/26/37 47/28/38 48/27/35 29/25/34
f 27/29/39 45/30/40 46/31/41 26/26/37
f 26/26/37 29/25/34 31/32/33 27/29/39
f 32/33/42 33/34/31 41/35/30 42/36/43
f 32/33/42 42/36/43 43/37/44
f 32/33/42 36/38/45 38/39/32 33/34/31
f 27/29/39 36/38/45 44/40/46 45/30/40
f 27/29/39 31/32/33 38/39/32 36/38/45
f 26/26/37 46/31/47 47/28/38
f 44/40/46 36/38/45 32/33/42 43/37/48
f 34/41/29 35/42/49 42/36/43 41/35/30
f 35/42/49 40/43/50 43/37/44 42/36/43
f 40/43/51 37/44/52 44/40/46 43/37/48
f 37/44/52 28/45/53 45/30/40 44/40/46
f 46/31/41 45/30/40 28/45/53 39/46/54
f 25/47/55 47/28/38 46/31/47 39/46/56
f 30/48/36 48/27/35 47/28/38 25/47/55
