# This file uses meters as units for non-parametric coordinates.

v -155.007462 -0.000000 160.977875
v -158.625824 -0.000000 159.479080
v -162.244171 -0.000000 160.977875
v -163.742966 -0.000000 164.596222
v -162.244171 -0.000000 168.214584
v -158.625824 -0.000000 169.713364
v -155.007462 -0.000000 168.214584
v -153.508682 -0.000000 164.596222
v -155.007462 12.514923 160.977875
v -158.625824 12.514923 159.479080
v -162.244171 12.514923 160.977875
v -163.742966 12.514923 164.596222
v -162.244171 12.514923 168.214584
v -158.625824 12.514923 169.713364
v -155.007462 12.514923 168.214584
v -153.508682 12.514923 164.596222
v -158.625824 -0.000000 164.596222
v -158.625824 12.514923 164.596222
v -158.625824 11.632385 170.912689
v -163.092224 11.632385 169.062622
v -164.942291 11.632385 164.596222
v -163.092224 11.632385 160.129822
v -158.625824 11.632385 158.279755
v -154.159424 11.632385 160.129822
v -152.309357 11.632385 164.596222
v -154.159424 11.632385 169.062622
v -158.625824 0.549911 170.912689
v -163.092224 0.549911 169.062622
v -164.942291 0.549911 164.596222
v -163.092224 0.549911 160.129822
v -158.625824 0.549911 158.279755
v -154.159424 0.549911 160.129822
v -152.309357 0.549911 164.596222
v -154.159424 0.549911 169.062622
v 155.007477 -0.000000 160.977875
v 158.625824 -0.000000 159.479080
v 162.244186 -0.000000 160.977875
v 163.742950 -0.000000 164.596222
v 162.244186 -0.000000 168.214584
v 158.625824 -0.000000 169.713364
v 155.007477 -0.000000 168.214584
v 153.508667 -0.000000 164.596222
v 155.007477 12.514923 160.977875
v 158.625824 12.514923 159.479080
v 162.244186 12.514923 160.977875
v 163.742950 12.514923 164.596222
v 162.244186 12.514923 168.214584
v 158.625824 12.514923 169.713364
v 155.007477 12.514923 168.214584
v 153.508667 12.514923 164.596222
v 158.625824 -0.000000 164.596222
v 158.625824 12.514923 164.596222
v 158.625824 11.632385 170.912689
v 163.092224 11.632385 169.062622
v 164.942291 11.632385 164.596222
v 163.092224 11.632385 160.129822
v 158.625824 11.632385 158.279755
v 154.159424 11.632385 160.129822
v 152.309357 11.632385 164.596222
v 154.159424 11.632385 169.062622
v 158.625824 0.549911 170.912689
v 163.092224 0.549911 169.062622
v 164.942291 0.549911 164.596222
v 163.092224 0.549911 160.129822
v 158.625824 0.549911 158.279755
v 154.159424 0.549911 160.129822
v 152.309357 0.549911 164.596222
v 154.159424 0.549911 169.062622
v 155.007477 -0.000000 -165.184967
v 158.625824 -0.000000 -166.683762
v 162.244186 -0.000000 -165.184967
v 163.742950 -0.000000 -161.566620
v 162.244186 -0.000000 -157.948257
v 158.625824 -0.000000 -156.449478
v 155.007477 -0.000000 -157.948257
v 153.508667 -0.000000 -161.566620
v 155.007477 12.514923 -165.184967
v 158.625824 12.514923 -166.683762
v 162.244186 12.514923 -165.184967
v 163.742950 12.514923 -161.566620
v 162.244186 12.514923 -157.948257
v 158.625824 12.514923 -156.449478
v 155.007477 12.514923 -157.948257
v 153.508667 12.514923 -161.566620
v 158.625824 -0.000000 -161.566620
v 158.625824 12.514923 -161.566620
v 158.625824 11.632385 -155.250153
v 163.092224 11.632385 -157.100220
v 164.942291 11.632385 -161.566620
v 163.092224 11.632385 -166.033020
v 158.625824 11.632385 -167.883087
v 154.159424 11.632385 -166.033020
v 152.309357 11.632385 -161.566620
v 154.159424 11.632385 -157.100220
v 158.625824 0.549911 -155.250153
v 163.092224 0.549911 -157.100220
v 164.942291 0.549911 -161.566620
v 163.092224 0.549911 -166.033020
v 158.625824 0.549911 -167.883087
v 154.159424 0.549911 -166.033020
v 152.309357 0.549911 -161.566620
v 154.159424 0.549911 -157.100220
v -155.007462 -0.000000 -165.184967
v -158.625824 -0.000000 -166.683762
v -162.244171 -0.000000 -165.184967
v -163.742966 -0.000000 -161.566620
v -162.244171 -0.000000 -157.948257
v -158.625824 -0.000000 -156.449478
v -155.007462 -0.000000 -157.948257
v -153.508682 -0.000000 -161.566620
v -155.007462 12.514923 -165.184967
v -158.625824 12.514923 -166.683762
v -162.244171 12.514923 -165.184967
v -163.742966 12.514923 -161.566620
v -162.244171 12.514923 -157.948257
v -158.625824 12.514923 -156.449478
v -155.007462 12.514923 -157.948257
v -153.508682 12.514923 -161.566620
v -158.625824 -0.000000 -161.566620
v -158.625824 12.514923 -161.566620
v -158.625824 11.632385 -155.250153
v -163.092224 11.632385 -157.100220
v -164.942291 11.632385 -161.566620
v -163.092224 11.632385 -166.033020
v -158.625824 11.632385 -167.883087
v -154.159424 11.632385 -166.033020
v -152.309357 11.632385 -161.566620
v -154.159424 11.632385 -157.100220
v -158.625824 0.549911 -155.250153
v -163.092224 0.549911 -157.100220
v -164.942291 0.549911 -161.566620
v -163.092224 0.549911 -166.033020
v -158.625824 0.549911 -167.883087
v -154.159424 0.549911 -166.033020
v -152.309357 0.549911 -161.566620
v -154.159424 0.549911 -157.100220
vt 0.270539 0.983936
vt 0.266927 0.982440
vt 0.263315 0.983936
vt 0.261819 0.987548
vt 0.263315 0.991160
vt 0.266927 0.992656
vt 0.270539 0.991160
vt 0.272035 0.987548
vt 0.262196 0.981712
vt 0.263060 0.981712
vt 0.263924 0.981712
vt 0.264788 0.981712
vt 0.265652 0.981712
vt 0.266516 0.981712
vt 0.267380 0.981712
vt 0.268243 0.981712
vt 0.269107 0.981712
vt 0.262196 0.992104
vt 0.263060 0.992104
vt 0.263924 0.992104
vt 0.264788 0.992104
vt 0.265652 0.992104
vt 0.266516 0.992104
vt 0.267380 0.992104
vt 0.268243 0.992104
vt 0.269107 0.992104
vt 0.270546 0.983419
vt 0.266736 0.981842
vt 0.262928 0.983419
vt 0.261350 0.987229
vt 0.262928 0.991038
vt 0.266736 0.992616
vt 0.270546 0.991038
vt 0.272123 0.987229
vt 0.266927 0.987344
vt 0.266736 0.987014
vt 0.266516 0.991371
vt 0.265652 0.991371
vt 0.264788 0.991371
vt 0.263924 0.991371
vt 0.263060 0.991371
vt 0.269107 0.991371
vt 0.262196 0.991371
vt 0.268243 0.991371
vt 0.267380 0.991371
vt 0.266516 0.982168
vt 0.265652 0.982168
vt 0.264788 0.982168
vt 0.263924 0.982168
vt 0.263060 0.982168
vt 0.269107 0.982168
vt 0.262196 0.982168
vt 0.268243 0.982168
vt 0.267380 0.982168
vt 0.262196 0.981712
vt 0.262196 0.982168
vt 0.263060 0.982168
vt 0.263060 0.981712
vt 0.263924 0.982168
vt 0.263924 0.981712
vt 0.264788 0.982168
vt 0.264788 0.981712
vt 0.265652 0.982168
vt 0.265652 0.981712
vt 0.266516 0.982168
vt 0.266516 0.981712
vt 0.267380 0.982168
vt 0.267380 0.981712
vt 0.268243 0.982168
vt 0.268243 0.981712
vt 0.269107 0.982168
vt 0.269107 0.981712
vt 0.266927 0.982440
vt 0.266927 0.987344
vt 0.270539 0.983936
vt 0.263315 0.983936
vt 0.261819 0.987548
vt 0.263315 0.991160
vt 0.266927 0.992656
vt 0.270539 0.991160
vt 0.272035 0.987548
vt 0.270546 0.991038
vt 0.266736 0.987014
vt 0.266736 0.992616
vt 0.262928 0.991038
vt 0.261350 0.987229
vt 0.262928 0.983419
vt 0.266736 0.981842
vt 0.270546 0.983419
vt 0.272123 0.987229
vt 0.265652 0.991371
vt 0.265652 0.992104
vt 0.266516 0.992104
vt 0.266516 0.991371
vt 0.264788 0.991371
vt 0.264788 0.992104
vt 0.263924 0.991371
vt 0.263924 0.992104
vt 0.263060 0.991371
vt 0.263060 0.992104
vt 0.262196 0.991371
vt 0.262196 0.992104
vt 0.268243 0.991371
vt 0.268243 0.992104
vt 0.269107 0.992104
vt 0.269107 0.991371
vt 0.267380 0.991371
vt 0.267380 0.992104
vt 0.262196 0.981712
vt 0.262196 0.982168
vt 0.263060 0.982168
vt 0.263060 0.981712
vt 0.263924 0.982168
vt 0.263924 0.981712
vt 0.264788 0.982168
vt 0.264788 0.981712
vt 0.265652 0.982168
vt 0.265652 0.981712
vt 0.266516 0.982168
vt 0.266516 0.981712
vt 0.267380 0.982168
vt 0.267380 0.981712
vt 0.268243 0.982168
vt 0.268243 0.981712
vt 0.269107 0.982168
vt 0.269107 0.981712
vt 0.266927 0.982440
vt 0.266927 0.987344
vt 0.270539 0.983936
vt 0.263315 0.983936
vt 0.261819 0.987548
vt 0.263315 0.991160
vt 0.266927 0.992656
vt 0.270539 0.991160
vt 0.272035 0.987548
vt 0.270546 0.991038
vt 0.266736 0.987014
vt 0.266736 0.992616
vt 0.262928 0.991038
vt 0.261350 0.987229
vt 0.262928 0.983419
vt 0.266736 0.981842
vt 0.270546 0.983419
vt 0.272123 0.987229
vt 0.265652 0.991371
vt 0.265652 0.992104
vt 0.266516 0.992104
vt 0.266516 0.991371
vt 0.264788 0.991371
vt 0.264788 0.992104
vt 0.263924 0.991371
vt 0.263924 0.992104
vt 0.263060 0.991371
vt 0.263060 0.992104
vt 0.262196 0.991371
vt 0.262196 0.992104
vt 0.268243 0.991371
vt 0.268243 0.992104
vt 0.269107 0.992104
vt 0.269107 0.991371
vt 0.267380 0.991371
vt 0.267380 0.992104
vt 0.262196 0.981712
vt 0.263060 0.981712
vt 0.263060 0.982168
vt 0.262196 0.982168
vt 0.263924 0.981712
vt 0.263924 0.982168
vt 0.264788 0.981712
vt 0.264788 0.982168
vt 0.265652 0.981712
vt 0.265652 0.982168
vt 0.266516 0.981712
vt 0.266516 0.982168
vt 0.267380 0.981712
vt 0.267380 0.982168
vt 0.268243 0.981712
vt 0.268243 0.982168
vt 0.269107 0.981712
vt 0.269107 0.982168
vt 0.266927 0.982440
vt 0.270539 0.983936
vt 0.266927 0.987344
vt 0.263315 0.983936
vt 0.261819 0.987548
vt 0.263315 0.991160
vt 0.266927 0.992656
vt 0.270539 0.991160
vt 0.272035 0.987548
vt 0.270546 0.991038
vt 0.266736 0.992616
vt 0.266736 0.987014
vt 0.262928 0.991038
vt 0.261350 0.987229
vt 0.262928 0.983419
vt 0.266736 0.981842
vt 0.270546 0.983419
vt 0.272123 0.987229
vt 0.265652 0.991371
vt 0.266516 0.991371
vt 0.266516 0.992104
vt 0.265652 0.992104
vt 0.264788 0.991371
vt 0.264788 0.992104
vt 0.263924 0.991371
vt 0.263924 0.992104
vt 0.263060 0.991371
vt 0.263060 0.992104
vt 0.262196 0.991371
vt 0.262196 0.992104
vt 0.268243 0.991371
vt 0.269107 0.991371
vt 0.269107 0.992104
vt 0.268243 0.992104
vt 0.267380 0.991371
vt 0.267380 0.992104
vn 0.294720 -0.909000 -0.294720
vn 0.000000 -0.909002 -0.416791
vn 0.000000 -0.909002 -0.416791
vn 0.294719 -0.909000 -0.294721
vn -0.294716 -0.909002 -0.294716
vn -0.294716 -0.909002 -0.294716
vn -0.416789 -0.909004 -0.000001
vn -0.416788 -0.909004 -0.000001
vn -0.294716 -0.909002 0.294717
vn -0.294717 -0.909002 0.294716
vn -0.000000 -0.909001 0.416793
vn 0.000000 -0.909001 0.416793
vn 0.294719 -0.909000 0.294720
vn 0.294719 -0.909000 0.294720
vn 0.416799 -0.908999 0.000001
vn 0.416799 -0.908999 0.000001
vn 0.000000 -1.000000 0.000000
vn 0.000000 -1.000000 0.000000
vn 0.000000 -1.000000 0.000000
vn 0.000000 -1.000000 0.000000
vn 0.000000 -1.000000 0.000000
vn 0.000000 -1.000000 0.000000
vn 0.000000 -1.000000 0.000000
vn 0.000000 -1.000000 0.000000
vn 0.000000 -1.000000 0.000000
vn 0.000000 1.000000 -0.000002
vn 0.000000 1.000000 0.000000
vn 0.000000 1.000000 -0.000000
vn 0.000000 1.000000 0.000000
vn 0.000000 1.000000 0.000000
vn 0.000000 1.000000 0.000000
vn 0.000000 1.000000 0.000000
vn 0.000000 1.000000 0.000001
vn 0.000000 1.000000 -0.000001
vn -0.419094 0.805432 0.419094
vn 0.000000 0.805432 0.592688
vn -0.000000 0.805432 0.592688
vn -0.419093 0.805432 0.419095
vn -0.592685 0.805435 -0.000000
vn -0.592685 0.805435 -0.000000
vn -0.419091 0.805435 -0.419092
vn -0.419091 0.805435 -0.419092
vn 0.000000 0.805434 -0.592685
vn 0.000000 0.805434 -0.592685
vn 0.419093 0.805431 -0.419096
vn 0.419095 0.805431 -0.419094
vn 0.592691 0.805430 -0.000000
vn 0.592691 0.805430 -0.000000
vn 0.419095 0.805430 0.419096
vn 0.419095 0.805430 0.419096
vn -0.707107 0.000000 0.707107
vn 0.000000 0.000000 1.000000
vn 0.000000 0.000000 1.000000
vn -0.707107 0.000000 0.707107
vn -1.000000 0.000000 0.000000
vn -1.000000 0.000000 0.000000
vn -0.707107 0.000000 -0.707107
vn -0.707107 0.000000 -0.707107
vn 0.000000 0.000000 -1.000000
vn 0.000000 0.000000 -1.000000
vn 0.707107 0.000000 -0.707107
vn 0.707107 0.000000 -0.707107
vn 1.000000 0.000000 0.000000
vn 1.000000 0.000000 0.000000
vn 0.707107 0.000000 0.707107
vn 0.707107 0.000000 0.707107
vn -0.294718 -0.909000 -0.294720
vn -0.294719 -0.909000 -0.294720
vn -0.000000 -0.909002 -0.416792
vn -0.000000 -0.909002 -0.416792
vn 0.294714 -0.909003 -0.294715
vn 0.294715 -0.909003 -0.294713
vn 0.416790 -0.909003 0.000001
vn 0.416790 -0.909003 0.000001
vn 0.294718 -0.909001 0.294717
vn 0.294718 -0.909001 0.294717
vn 0.000000 -0.909001 0.416793
vn 0.000000 -0.909001 0.416793
vn -0.294720 -0.909000 0.294720
vn -0.294719 -0.909000 0.294721
vn -0.416797 -0.909000 0.000002
vn -0.416797 -0.909000 0.000002
vn 0.000000 -1.000000 0.000000
vn 0.000000 -1.000000 0.000000
vn 0.000000 -1.000000 0.000000
vn 0.000000 -1.000000 0.000000
vn 0.000000 -1.000000 0.000000
vn 0.000000 -1.000000 0.000000
vn 0.000000 -1.000000 0.000000
vn 0.000000 -1.000000 0.000000
vn 0.000000 -1.000000 0.000000
vn 0.000000 1.000000 0.000000
vn 0.000000 1.000000 -0.000000
vn 0.000000 1.000000 0.000000
vn 0.000000 1.000000 0.000000
vn 0.000000 1.000000 -0.000000
vn 0.000000 1.000000 -0.000000
vn 0.000000 1.000000 0.000000
vn 0.000000 1.000000 0.000000
vn 0.000000 1.000000 0.000000
vn 0.419094 0.805433 0.419092
vn 0.419094 0.805433 0.419092
vn -0.000000 0.805433 0.592687
vn 0.000000 0.805433 0.592687
vn 0.592684 0.805435 0.000000
vn 0.592684 0.805435 0.000000
vn 0.419090 0.805436 -0.419091
vn 0.419092 0.805436 -0.419089
vn 0.000001 0.805435 -0.592684
vn 0.000001 0.805435 -0.592684
vn -0.419094 0.805431 -0.419095
vn -0.419094 0.805431 -0.419096
vn -0.592691 0.805430 -0.000000
vn -0.592691 0.805430 -0.000000
vn -0.419096 0.805430 0.419095
vn -0.419094 0.805430 0.419097
vn 0.707107 0.000000 0.707107
vn 0.707107 0.000000 0.707107
vn 0.000000 0.000000 1.000000
vn 0.000000 0.000000 1.000000
vn 1.000000 0.000000 0.000000
vn 1.000000 0.000000 0.000000
vn 0.707107 0.000000 -0.707107
vn 0.707107 0.000000 -0.707107
vn 0.000000 0.000000 -1.000000
vn 0.000000 0.000000 -1.000000
vn -0.707107 0.000000 -0.707107
vn -0.707107 0.000000 -0.707107
vn -1.000000 0.000000 0.000000
vn -1.000000 0.000000 0.000000
vn -0.707107 0.000000 0.707107
vn -0.707107 0.000000 0.707107
vn -0.294718 -0.909000 -0.294720
vn -0.294719 -0.909000 -0.294720
vn -0.000000 -0.909002 -0.416792
vn -0.000000 -0.909002 -0.416792
vn 0.294714 -0.909003 -0.294715
vn 0.294715 -0.909003 -0.294713
vn 0.416790 -0.909003 0.000001
vn 0.416790 -0.909003 0.000001
vn 0.294717 -0.909001 0.294717
vn 0.294717 -0.909001 0.294717
vn 0.000000 -0.909001 0.416793
vn 0.000000 -0.909001 0.416793
vn -0.294719 -0.909000 0.294720
vn -0.294718 -0.909000 0.294721
vn -0.416796 -0.909000 0.000002
vn -0.416796 -0.909000 0.000002
vn 0.000000 -1.000000 0.000000
vn 0.000000 -1.000000 0.000000
vn 0.000000 -1.000000 0.000000
vn 0.000000 -1.000000 0.000000
vn 0.000000 -1.000000 0.000000
vn 0.000000 -1.000000 0.000000
vn 0.000000 -1.000000 0.000000
vn 0.000000 -1.000000 0.000000
vn 0.000000 -1.000000 0.000000
vn 0.000000 1.000000 0.000000
vn 0.000000 1.000000 -0.000000
vn 0.000000 1.000000 0.000000
vn 0.000000 1.000000 0.000000
vn 0.000000 1.000000 -0.000000
vn 0.000000 1.000000 -0.000000
vn 0.000000 1.000000 0.000000
vn 0.000000 1.000000 0.000000
vn 0.000000 1.000000 0.000000
vn 0.419094 0.805433 0.419092
vn 0.419094 0.805433 0.419092
vn -0.000000 0.805433 0.592687
vn 0.000000 0.805433 0.592687
vn 0.592684 0.805435 0.000000
vn 0.592684 0.805435 0.000000
vn 0.419090 0.805436 -0.419091
vn 0.419092 0.805436 -0.419089
vn 0.000001 0.805435 -0.592684
vn 0.000001 0.805435 -0.592684
vn -0.419094 0.805431 -0.419095
vn -0.419094 0.805431 -0.419096
vn -0.592691 0.805430 -0.000000
vn -0.592691 0.805430 -0.000000
vn -0.419096 0.805430 0.419095
vn -0.419094 0.805430 0.419097
vn 0.707107 0.000000 0.707107
vn 0.707107 0.000000 0.707107
vn 0.000000 0.000000 1.000000
vn 0.000000 0.000000 1.000000
vn 1.000000 0.000000 0.000000
vn 1.000000 0.000000 0.000000
vn 0.707107 0.000000 -0.707107
vn 0.707107 0.000000 -0.707107
vn 0.000000 0.000000 -1.000000
vn 0.000000 0.000000 -1.000000
vn -0.707107 0.000000 -0.707107
vn -0.707107 0.000000 -0.707107
vn -1.000000 0.000000 0.000000
vn -1.000000 0.000000 0.000000
vn -0.707107 0.000000 0.707107
vn -0.707107 0.000000 0.707107
vn 0.294720 -0.909000 -0.294720
vn 0.000000 -0.909002 -0.416791
vn 0.000000 -0.909002 -0.416791
vn 0.294719 -0.909000 -0.294721
vn -0.294716 -0.909002 -0.294716
vn -0.294716 -0.909002 -0.294716
vn -0.416788 -0.909004 -0.000001
vn -0.416788 -0.909004 -0.000001
vn -0.294715 -0.909002 0.294717
vn -0.294717 -0.909002 0.294716
vn -0.000000 -0.909001 0.416793
vn 0.000000 -0.909001 0.416793
vn 0.294719 -0.909000 0.294720
vn 0.294719 -0.909000 0.294720
vn 0.416798 -0.908999 0.000001
vn 0.416798 -0.908999 0.000001
vn 0.000000 -1.000000 0.000000
vn 0.000000 -1.000000 0.000000
vn 0.000000 -1.000000 0.000000
vn 0.000000 -1.000000 0.000000
vn 0.000000 -1.000000 0.000000
vn 0.000000 -1.000000 0.000000
vn 0.000000 -1.000000 0.000000
vn 0.000000 -1.000000 0.000000
vn 0.000000 -1.000000 0.000000
vn 0.000000 1.000000 -0.000002
vn 0.000000 1.000000 0.000000
vn 0.000000 1.000000 -0.000000
vn 0.000000 1.000000 0.000000
vn 0.000000 1.000000 0.000000
vn 0.000000 1.000000 0.000000
vn 0.000000 1.000000 0.000000
vn 0.000000 1.000000 0.000001
vn 0.000000 1.000000 -0.000001
vn -0.419094 0.805432 0.419094
vn 0.000000 0.805432 0.592688
vn -0.000000 0.805432 0.592688
vn -0.419093 0.805432 0.419095
vn -0.592685 0.805435 -0.000000
vn -0.592685 0.805435 -0.000000
vn -0.419091 0.805435 -0.419092
vn -0.419091 0.805435 -0.419092
vn 0.000000 0.805434 -0.592685
vn 0.000000 0.805434 -0.592685
vn 0.419093 0.805431 -0.419096
vn 0.419095 0.805431 -0.419094
vn 0.592691 0.805430 -0.000000
vn 0.592691 0.805430 -0.000000
vn 0.419095 0.805430 0.419096
vn 0.419095 0.805430 0.419096
vn -0.707107 0.000000 0.707107
vn 0.000000 0.000000 1.000000
vn 0.000000 0.000000 1.000000
vn -0.707107 0.000000 0.707107
vn -1.000000 0.000000 0.000000
vn -1.000000 0.000000 0.000000
vn -0.707107 0.000000 -0.707107
vn -0.707107 0.000000 -0.707107
vn 0.000000 0.000000 -1.000000
vn 0.000000 0.000000 -1.000000
vn 0.707107 0.000000 -0.707107
vn 0.707107 0.000000 -0.707107
vn 1.000000 0.000000 0.000000
vn 1.000000 0.000000 0.000000
vn 0.707107 0.000000 0.707107
vn 0.707107 0.000000 0.707107
f 1/9/1 2/10/2 31/50/3 32/52/4
f 2/10/2 3/11/5 30/49/6 31/50/3
f 3/11/5 4/12/7 29/48/8 30/49/6
f 4/12/7 5/13/9 28/47/10 29/48/8
f 5/13/9 6/14/11 27/46/12 28/47/10
f 6/14/11 7/15/13 34/54/14 27/46/12
f 7/15/13 8/16/15 33/53/16 34/54/14
f 8/16/15 1/17/1 32/51/4 33/53/16
f 2/2/17 1/1/18 17/35/19
f 3/3/20 2/2/17 17/35/19
f 4/4/21 3/3/20 17/35/19
f 5/5/22 4/4/21 17/35/19
f 6/6/23 5/5/22 17/35/19
f 7/7/24 6/6/23 17/35/19
f 8/8/25 7/7/24 17/35/19
f 1/1/18 8/8/25 17/35/19
f 9/33/26 10/32/27 18/36/28
f 10/32/27 11/31/29 18/36/28
f 11/31/29 12/30/30 18/36/28
f 12/30/30 13/29/31 18/36/28
f 13/29/31 14/28/32 18/36/28
f 14/28/32 15/27/33 18/36/28
f 15/27/33 16/34/34 18/36/28
f 16/34/34 9/33/26 18/36/28
f 20/38/35 19/37/36 14/23/37 13/22/38
f 21/39/39 20/38/35 13/22/38 12/21/40
f 22/40/41 21/39/39 12/21/40 11/20/42
f 23/41/43 22/40/41 11/20/42 10/19/44
f 24/43/45 23/41/43 10/19/44 9/18/46
f 25/44/47 24/42/45 9/26/46 16/25/48
f 26/45/49 25/44/47 16/25/48 15/24/50
f 19/37/36 26/45/49 15/24/50 14/23/37
f 28/47/51 27/46/52 19/37/53 20/38/54
f 29/48/55 28/47/51 20/38/54 21/39/56
f 30/49/57 29/48/55 21/39/56 22/40/58
f 31/50/59 30/49/57 22/40/58 23/41/60
f 32/52/61 31/50/59 23/41/60 24/43/62
f 33/53/63 32/51/61 24/42/62 25/44/64
f 34/54/65 33/53/63 25/44/64 26/45/66
f 27/46/52 34/54/65 26/45/66 19/37/53
f 35/55/67 66/56/68 65/57/69 36/58/70
f 36/58/70 65/57/69 64/59/71 37/60/72
f 37/60/72 64/59/71 63/61/73 38/62/74
f 38/62/74 63/61/73 62/63/75 39/64/76
f 39/64/76 62/63/75 61/65/77 40/66/78
f 40/66/78 61/65/77 68/67/79 41/68/80
f 41/68/80 68/67/79 67/69/81 42/70/82
f 42/70/82 67/69/81 66/71/68 35/72/67
f 36/73/83 51/74/84 35/75/85
f 37/76/86 51/74/84 36/73/83
f 38/77/87 51/74/84 37/76/86
f 39/78/88 51/74/84 38/77/87
f 40/79/89 51/74/84 39/78/88
f 41/80/90 51/74/84 40/79/89
f 42/81/91 51/74/84 41/80/90
f 35/75/85 51/74/84 42/81/91
f 43/82/92 52/83/93 44/84/94
f 44/84/94 52/83/93 45/85/95
f 45/85/95 52/83/93 46/86/96
f 46/86/96 52/83/93 47/87/97
f 47/87/97 52/83/93 48/88/98
f 48/88/98 52/83/93 49/89/99
f 49/89/99 52/83/93 50/90/100
f 50/90/100 52/83/93 43/82/92
f 54/91/101 47/92/102 48/93/103 53/94/104
f 55/95/105 46/96/106 47/92/102 54/91/101
f 56/97/107 45/98/108 46/96/106 55/95/105
f 57/99/109 44/100/110 45/98/108 56/97/107
f 58/101/111 43/102/112 44/100/110 57/99/109
f 59/103/113 50/104/114 43/105/112 58/106/111
f 60/107/115 49/108/116 50/104/114 59/103/113
f 53/94/104 48/93/103 49/108/116 60/107/115
f 62/63/117 54/91/118 53/94/119 61/65/120
f 63/61/121 55/95/122 54/91/118 62/63/117
f 64/59/123 56/97/124 55/95/122 63/61/121
f 65/57/125 57/99/126 56/97/124 64/59/123
f 66/56/127 58/101/128 57/99/126 65/57/125
f 67/69/129 59/103/130 58/106/128 66/71/127
f 68/67/131 60/107/132 59/103/130 67/69/129
f 61/65/120 53/94/119 60/107/132 68/67/131
f 69/109/133 100/110/134 99/111/135 70/112/136
f 70/112/136 99/111/135 98/113/137 71/114/138
f 71/114/138 98/113/137 97/115/139 72/116/140
f 72/116/140 97/115/139 96/117/141 73/118/142
f 73/118/142 96/117/141 95/119/143 74/120/144
f 74/120/144 95/119/143 102/121/145 75/122/146
f 75/122/146 102/121/145 101/123/147 76/124/148
f 76/124/148 101/123/147 100/125/134 69/126/133
f 70/127/149 85/128/150 69/129/151
f 71/130/152 85/128/150 70/127/149
f 72/131/153 85/128/150 71/130/152
f 73/132/154 85/128/150 72/131/153
f 74/133/155 85/128/150 73/132/154
f 75/134/156 85/128/150 74/133/155
f 76/135/157 85/128/150 75/134/156
f 69/129/151 85/128/150 76/135/157
f 77/136/158 86/137/159 78/138/160
f 78/138/160 86/137/159 79/139/161
f 79/139/161 86/137/159 80/140/162
f 80/140/162 86/137/159 81/141/163
f 81/141/163 86/137/159 82/142/164
f 82/142/164 86/137/159 83/143/165
f 83/143/165 86/137/159 84/144/166
f 84/144/166 86/137/159 77/136/158
f 88/145/167 81/146/168 82/147/169 87/148/170
f 89/149/171 80/150/172 81/146/168 88/145/167
f 90/151/173 79/152/174 80/150/172 89/149/171
f 91/153/175 78/154/176 79/152/174 90/151/173
f 92/155/177 77/156/178 78/154/176 91/153/175
f 93/157/179 84/158/180 77/159/178 92/160/177
f 94/161/181 83/162/182 84/158/180 93/157/179
f 87/148/170 82/147/169 83/162/182 94/161/181
f 96/117/183 88/145/184 87/148/185 95/119/186
f 97/115/187 89/149/188 88/145/184 96/117/183
f 98/113/189 90/151/190 89/149/188 97/115/187
f 99/111/191 91/153/192 90/151/190 98/113/189
f 100/110/193 92/155/194 91/153/192 99/111/191
f 101/123/195 93/157/196 92/160/194 100/125/193
f 102/121/197 94/161/198 93/157/196 101/123/195
f 95/119/186 87/148/185 94/161/198 102/121/197
f 103/163/199 104/164/200 133/165/201 134/166/202
f 104/164/200 105/167/203 132/168/204 133/165/201
f 105/167/203 106/169/205 131/170/206 132/168/204
f 106/169/205 107/171/207 130/172/208 131/170/206
f 107/171/207 108/173/209 129/174/210 130/172/208
f 108/173/209 109/175/211 136/176/212 129/174/210
f 109/175/211 110/177/213 135/178/214 136/176/212
f 110/177/213 103/179/199 134/180/202 135/178/214
f 104/181/215 103/182/216 119/183/217
f 105/184/218 104/181/215 119/183/217
f 106/185/219 105/184/218 119/183/217
f 107/186/220 106/185/219 119/183/217
f 108/187/221 107/186/220 119/183/217
f 109/188/222 108/187/221 119/183/217
f 110/189/223 109/188/222 119/183/217
f 103/182/216 110/189/223 119/183/217
f 111/190/224 112/191/225 120/192/226
f 112/191/225 113/193/227 120/192/226
f 113/193/227 114/194/228 120/192/226
f 114/194/228 115/195/229 120/192/226
f 115/195/229 116/196/230 120/192/226
f 116/196/230 117/197/231 120/192/226
f 117/197/231 118/198/232 120/192/226
f 118/198/232 111/190/224 120/192/226
f 122/199/233 121/200/234 116/201/235 115/202/236
f 123/203/237 122/199/233 115/202/236 114/204/238
f 124/205/239 123/203/237 114/204/238 113/206/240
f 125/207/241 124/205/239 113/206/240 112/208/242
f 126/209/243 125/207/241 112/208/242 111/210/244
f 127/211/245 126/212/243 111/213/244 118/214/246
f 128/215/247 127/211/245 118/214/246 117/216/248
f 121/200/234 128/215/247 117/216/248 116/201/235
f 130/172/249 129/174/250 121/200/251 122/199/252
f 131/170/253 130/172/249 122/199/252 123/203/254
f 132/168/255 131/170/253 123/203/254 124/205/256
f 133/165/257 132/168/255 124/205/256 125/207/258
f 134/166/259 133/165/257 125/207/258 126/209/260
f 135/178/261 134/180/259 126/212/260 127/211/262
f 136/176/263 135/178/261 127/211/262 128/215/264
f 129/174/250 136/176/263 128/215/264 121/200/251
