# This file uses meters as units for non-parametric coordinates.

v -168.344514 1.348254 -169.039913
v -169.674064 0.000000 -170.611658
v -139.651233 0.000000 -162.841748
v -139.763784 1.348254 -161.493472
v -168.344514 204.746137 -169.039913
v -169.674064 206.094386 -170.611658
v -139.651233 206.094386 -162.841748
v -139.763784 204.746137 -161.493472
v -169.674064 206.094386 -178.889873
v -168.325812 204.746137 -180.238134
v -139.763784 206.094386 -178.889873
v -139.763784 204.746137 -180.238134
v -168.325812 1.348254 -180.238134
v -169.674064 0.000000 -178.889873
v -139.763784 1.348254 -180.238134
v -139.763784 0.000000 -178.889873
v 169.674064 0.000000 -170.611658
v 168.344514 1.348254 -169.039913
v 168.344514 204.746137 -169.039913
v 169.674064 206.094386 -170.611658
v 169.674064 206.094386 -178.889873
v 168.325812 204.746137 -180.238134
v 168.325812 1.348254 -180.238134
v 169.674064 0.000000 -178.889873
v 139.763784 204.746137 -161.493472
v 139.651233 206.094386 -162.841748
v 139.763784 206.094386 -178.889873
v 139.763784 204.746137 -180.238134
v 139.763784 1.348254 -180.238134
v 139.763784 0.000000 -178.889873
v 139.651233 0.000000 -162.841748
v 139.763784 1.348254 -161.493472
v -139.763784 179.321389 -161.493472
v -168.344514 179.321389 -169.039913
v -169.674064 180.332600 -170.611658
v -169.674064 180.332600 -178.889873
v -168.325812 179.321389 -180.238134
v -139.763784 179.321389 -180.238134
v 139.763784 179.321389 -180.238134
v 168.325812 179.321389 -180.238134
v 169.674064 180.332600 -178.889873
v 169.674064 180.332600 -170.611658
v 168.344514 179.321389 -169.039913
v 139.763784 179.321389 -161.493472
v -139.763784 77.622453 -161.493472
v -168.344514 77.622453 -169.039913
v -169.674064 77.285391 -170.611658
v -169.674064 77.285391 -178.889873
v -168.325840 77.622453 -180.238134
v -139.763784 77.622453 -180.238134
v 139.763784 77.622453 -180.238134
v 168.325840 77.622453 -180.238134
v 169.674064 77.285391 -178.889873
v 169.674064 77.285391 -170.611658
v 168.344514 77.622453 -169.039913
v 139.763784 77.622453 -161.493472
v -123.319464 179.321389 -161.493472
v -123.319464 77.622453 -161.493472
v -123.319464 1.348254 -161.493472
v -123.235037 0.000000 -162.841748
v -123.319464 0.000000 -178.889873
v -123.319464 1.348254 -180.238134
v -123.319464 77.622453 -180.238134
v -123.319464 179.321389 -180.238134
v -123.319464 204.746137 -180.238134
v -123.319464 206.094386 -178.889873
v -123.235037 206.094386 -162.841748
v -123.319464 204.746137 -161.493472
v 123.319450 179.321389 -161.493472
v 123.319450 77.622453 -161.493472
v 123.319450 1.348254 -161.493472
v 123.235037 0.000000 -162.841748
v 123.319450 0.000000 -178.889873
v 123.319450 1.348254 -180.238134
v 123.319450 77.622453 -180.238134
v 123.319450 179.321389 -180.238134
v 123.319450 204.746137 -180.238134
v 123.319450 206.094402 -178.889873
v 123.235037 206.094402 -162.841748
v 123.319450 204.746137 -161.493472
v 120.937933 79.477448 -171.579267
v -120.937947 79.477448 -171.579267
v 120.937933 177.466395 -171.579267
v -120.937947 177.466395 -171.579267
v -120.937947 177.466395 -164.516225
v 120.937933 177.466395 -164.516225
v 120.937933 79.477448 -164.516225
v -120.937947 79.477448 -164.516225
vt 0.367011 0.894252
vt 0.367060 0.894823
vt 0.365378 0.891997
vt 0.365382 0.891507
vt 0.367060 0.895804
vt 0.365382 0.895804
vt 0.355323 0.891997
vt 0.355319 0.891507
vt 0.367011 0.896295
vt 0.365382 0.896295
vt 0.355319 0.895804
vt 0.353642 0.894823
vt 0.353690 0.894252
vt 0.355319 0.896295
vt 0.353642 0.895804
vt 0.353691 0.896295
vt 0.366709 0.886110
vt 0.367693 0.886207
vt 0.367693 0.900802
vt 0.366709 0.900899
vt 0.363125 0.886207
vt 0.363125 0.900802
vt 0.365021 0.886110
vt 0.365021 0.900899
vt 0.364177 0.900802
vt 0.364177 0.886207
vt 0.353655 0.894813
vt 0.353703 0.894241
vt 0.355332 0.891496
vt 0.355336 0.891986
vt 0.365395 0.891496
vt 0.365391 0.891986
vt 0.355332 0.895794
vt 0.353655 0.895794
vt 0.367024 0.894241
vt 0.367073 0.894813
vt 0.365395 0.895794
vt 0.353704 0.896284
vt 0.355332 0.896284
vt 0.367073 0.895794
vt 0.365395 0.896284
vt 0.367024 0.896284
vt 0.352482 0.886207
vt 0.353466 0.886110
vt 0.353466 0.900899
vt 0.352482 0.900802
vt 0.355154 0.886110
vt 0.355154 0.900899
vt 0.357149 0.900802
vt 0.357149 0.886207
vt 0.355998 0.900802
vt 0.355998 0.886207
vt 0.352580 0.886207
vt 0.363177 0.900802
vt 0.363177 0.886207
vt 0.352581 0.900802
vt 0.356998 0.886207
vt 0.356998 0.900802
vt 0.363125 0.898978
vt 0.367693 0.898978
vt 0.366709 0.899050
vt 0.365021 0.899050
vt 0.364177 0.898978
vt 0.363177 0.898978
vt 0.356998 0.898978
vt 0.355998 0.898978
vt 0.355154 0.899050
vt 0.353466 0.899050
vt 0.352482 0.898978
vt 0.352581 0.898978
vt 0.357149 0.898978
vt 0.363125 0.891680
vt 0.367693 0.891680
vt 0.366709 0.891656
vt 0.365021 0.891656
vt 0.364177 0.891680
vt 0.363177 0.891680
vt 0.356998 0.891680
vt 0.355998 0.891680
vt 0.355154 0.891656
vt 0.353466 0.891656
vt 0.352482 0.891680
vt 0.352581 0.891680
vt 0.357149 0.891680
vt 0.362378 0.898978
vt 0.362378 0.891680
vt 0.364125 0.891507
vt 0.362378 0.886207
vt 0.364122 0.891997
vt 0.364125 0.895804
vt 0.364125 0.896295
vt 0.362405 0.886207
vt 0.362405 0.891680
vt 0.362405 0.898978
vt 0.356590 0.896284
vt 0.362405 0.900802
vt 0.356590 0.895794
vt 0.356593 0.891986
vt 0.356590 0.891496
vt 0.362378 0.900802
vt 0.357896 0.898978
vt 0.357896 0.891680
vt 0.356577 0.891507
vt 0.357896 0.886207
vt 0.356580 0.891997
vt 0.356577 0.895804
vt 0.356577 0.896295
vt 0.357770 0.886207
vt 0.357770 0.891680
vt 0.357770 0.898978
vt 0.364137 0.896284
vt 0.357770 0.900802
vt 0.364137 0.895794
vt 0.364134 0.891986
vt 0.364137 0.891496
vt 0.357896 0.900802
vt 0.362378 0.891680
vt 0.357896 0.891680
vt 0.357896 0.898978
vt 0.362378 0.898978
vt 0.362378 0.898978
vt 0.357896 0.898978
vt 0.357896 0.891680
vt 0.362378 0.891680
vn -0.184834 -0.682413 0.707212
vn -0.184834 -0.682414 0.707212
vn -0.143237 -0.690142 0.709357
vn -0.025542 -0.705166 0.708582
vn -0.763479 0.000000 0.645832
vn -0.763479 0.000000 0.645832
vn -0.763479 0.000000 0.645832
vn -0.763479 0.000000 0.645832
vn 0.000000 -0.707113 0.707101
vn 0.000000 -0.707113 0.707101
vn 0.143238 -0.690141 0.709358
vn 0.025542 -0.705166 0.708582
vn -0.184835 0.682418 0.707207
vn -0.184835 0.682418 0.707207
vn -0.025542 0.705166 0.708582
vn -0.143238 0.690145 0.709353
vn -0.000000 0.707122 0.707091
vn 0.000000 0.707122 0.707091
vn 0.025542 0.705166 0.708582
vn 0.143237 0.690143 0.709356
vn -0.707112 0.000000 -0.707101
vn -0.707113 0.000000 -0.707101
vn -0.707113 0.000000 -0.707101
vn -0.707113 0.000000 -0.707101
vn 0.000000 0.707113 -0.707100
vn 0.000000 0.707113 -0.707100
vn 0.000000 0.707112 -0.707101
vn 0.000000 0.707112 -0.707101
vn 0.000000 0.707113 -0.707100
vn 0.000000 0.707113 -0.707100
vn 0.000000 0.707112 -0.707101
vn 0.000000 0.707112 -0.707101
vn 0.000000 -0.707109 -0.707105
vn 0.000000 -0.707109 -0.707105
vn 0.000000 -0.707109 -0.707105
vn 0.000000 -0.707109 -0.707105
vn 0.000000 -0.707109 -0.707105
vn 0.000000 -0.707109 -0.707105
vn 0.000000 -0.707109 -0.707105
vn 0.000000 -0.707109 -0.707105
vn 0.184834 -0.682412 0.707213
vn 0.184834 -0.682412 0.707213
vn 0.763479 0.000000 0.645832
vn 0.763479 0.000000 0.645832
vn 0.763479 0.000000 0.645832
vn 0.763479 0.000000 0.645832
vn 0.184833 0.682415 0.707210
vn 0.184833 0.682415 0.707210
vn 0.000000 0.707113 -0.707100
vn 0.000000 0.707113 -0.707100
vn 0.707113 0.000000 -0.707101
vn 0.707112 0.000000 -0.707101
vn 0.707113 0.000000 -0.707101
vn 0.707113 0.000000 -0.707101
vn 0.000000 -0.707109 -0.707105
vn 0.000000 -0.707109 -0.707105
vn -0.255290 0.000000 0.966864
vn -0.165300 0.000000 0.986243
vn -0.165300 0.000000 0.986243
vn -0.255290 0.000000 0.966864
vn 0.000000 1.000000 0.000000
vn 0.000000 1.000000 0.000000
vn 0.000000 1.000000 0.000000
vn 0.000000 1.000000 0.000000
vn 0.000000 0.000000 -1.000000
vn 0.000000 0.000000 -1.000000
vn 0.000000 0.000000 -1.000000
vn 0.000000 0.000000 -1.000000
vn 0.000000 -1.000000 0.000000
vn 0.000000 -1.000000 0.000000
vn 0.000000 -1.000000 0.000000
vn 0.000000 -1.000000 0.000000
vn 1.000000 0.000000 0.000000
vn 1.000000 0.000000 0.000000
vn 1.000000 0.000000 0.000000
vn 1.000000 0.000000 0.000000
vn -1.000000 0.000000 0.000000
vn -1.000000 0.000000 0.000000
vn -1.000000 0.000000 0.000000
vn -1.000000 0.000000 0.000000
vn 0.000001 1.000000 -0.000001
vn 0.000000 1.000000 -0.000000
vn 0.000000 1.000000 -0.000000
vn 0.000000 1.000000 -0.000000
vn 0.000000 0.000000 -1.000000
vn 0.000000 0.000000 -1.000000
vn 0.000000 0.000000 -1.000000
vn 0.000000 0.000000 -1.000000
vn 0.000000 -1.000000 0.000000
vn 0.000000 -1.000000 0.000000
vn 0.000000 -1.000000 0.000000
vn 0.000000 -1.000000 0.000000
vn 0.165300 0.000000 0.986243
vn 0.255290 0.000000 0.966864
vn 0.255290 0.000000 0.966864
vn 0.165300 0.000000 0.986243
vn 0.000000 1.000000 0.000000
vn -0.000000 1.000000 0.000000
vn 0.000000 0.000000 -1.000000
vn 0.000000 0.000000 -1.000000
vn 0.000000 -1.000000 0.000000
vn 0.000000 -1.000000 0.000000
vn 0.000000 0.000000 1.000000
vn 0.000000 0.000000 1.000000
vn -0.255290 0.000000 0.966864
vn -0.165300 0.000000 0.986243
vn -0.165300 0.000000 0.986243
vn -0.255290 0.000000 0.966864
vn -0.763479 0.000000 0.645832
vn -0.763479 0.000000 0.645833
vn -0.763479 0.000000 0.645832
vn -0.763479 0.000000 0.645832
vn -1.000000 0.000000 0.000000
vn -1.000000 0.000000 0.000000
vn -1.000000 0.000000 0.000000
vn -1.000000 0.000000 0.000000
vn -0.707109 0.000000 -0.707105
vn -0.707109 0.000000 -0.707105
vn -0.707112 0.000000 -0.707102
vn -0.707112 0.000000 -0.707102
vn 0.000000 0.000000 -1.000000
vn 0.000000 0.000000 -1.000000
vn 0.000000 0.000000 -1.000000
vn 0.000000 0.000000 -1.000000
vn 0.000000 0.000000 -1.000000
vn 0.000000 0.000000 -1.000000
vn 0.000000 0.000000 -1.000000
vn 0.000000 0.000000 -1.000000
vn 0.000000 0.000000 -1.000000
vn 0.000000 0.000000 -1.000000
vn 0.707109 0.000000 -0.707105
vn 0.707109 0.000000 -0.707105
vn 0.707112 0.000000 -0.707102
vn 0.707112 0.000000 -0.707102
vn 1.000000 0.000000 0.000000
vn 1.000000 0.000000 0.000000
vn 1.000000 0.000000 0.000000
vn 1.000000 0.000000 0.000000
vn 0.763479 0.000000 0.645832
vn 0.763479 0.000000 0.645832
vn 0.763479 0.000000 0.645832
vn 0.763479 0.000000 0.645832
vn 0.165300 0.000000 0.986243
vn 0.165300 0.000000 0.986243
vn 0.255290 0.000000 0.966864
vn 0.255290 0.000000 0.966864
vn 0.000000 0.000000 1.000000
vn 0.000000 0.000000 1.000000
vn 0.000000 0.000000 1.000000
vn 0.000000 0.000000 1.000000
vn 0.000000 0.000000 1.000000
vn 0.000000 -0.707113 0.707101
vn 0.000000 -0.707113 0.707101
vn 0.000000 -1.000000 0.000000
vn 0.000000 -1.000000 0.000000
vn 0.000000 -0.707109 -0.707105
vn 0.000000 -0.707109 -0.707105
vn 0.000000 0.000000 -1.000000
vn 0.000000 0.000000 -1.000000
vn 0.000000 0.000000 -1.000000
vn 0.000000 0.000000 -1.000000
vn -0.000000 0.707113 -0.707100
vn -0.000000 0.707113 -0.707100
vn -0.000000 1.000000 0.000000
vn -0.000000 1.000000 0.000000
vn -0.000000 0.707122 0.707091
vn -0.000000 0.707122 0.707091
vn 0.000000 0.000000 1.000000
vn 0.000000 0.000000 1.000000
vn 0.000000 0.000000 1.000000
vn 0.000000 0.000000 1.000000
vn 0.000000 0.000000 1.000000
vn 0.000000 0.852308 0.523040
vn 0.000000 0.852308 0.523040
vn 0.000000 0.852308 0.523040
vn 0.000000 0.852308 0.523040
vn -0.785497 0.000000 0.618865
vn -0.785497 0.000000 0.618865
vn -0.785497 0.000000 0.618865
vn -0.785497 0.000000 0.618865
vn 0.000000 -0.852305 0.523045
vn 0.000000 -0.852305 0.523045
vn 0.000000 -0.852305 0.523044
vn 0.000000 -0.852305 0.523044
vn 0.785497 0.000000 0.618865
vn 0.785497 0.000000 0.618865
vn 0.785497 0.000000 0.618865
vn 0.785497 0.000000 0.618865
vn 0.000000 -1.000000 0.000000
vn 0.000000 -1.000000 0.000000
vn 0.000000 -1.000000 0.000000
vn 0.000000 -1.000000 0.000000
vn -1.000000 0.000000 0.000000
vn -1.000000 0.000000 0.000000
vn -1.000000 0.000000 0.000000
vn -1.000000 0.000000 0.000000
vn 0.000000 1.000000 0.000000
vn 0.000000 1.000000 0.000000
vn 0.000000 1.000000 0.000000
vn 0.000000 1.000000 0.000000
vn 1.000000 0.000000 0.000000
vn 1.000000 0.000000 0.000000
vn 1.000000 0.000000 0.000000
vn 1.000000 0.000000 0.000000
f 1/1/1 2/2/2 3/3/3 4/4/4
f 2/17/5 1/18/6 46/73/7 47/74/8
f 71/103/9 72/105/10 31/7/11 32/8/12
f 6/27/13 5/28/14 8/29/15 7/30/16
f 79/114/17 80/115/18 25/31/19 26/32/20
f 13/26/21 14/23/22 48/75/23 49/76/24
f 10/38/25 9/34/26 11/33/27 12/39/28
f 77/111/29 78/113/30 27/37/31 28/41/32
f 14/5/33 13/9/34 15/10/35 16/6/36
f 73/106/37 74/107/38 29/14/39 30/11/40
f 17/12/41 18/13/42 32/8/12 31/7/11
f 18/43/43 17/44/44 54/81/45 55/82/46
f 19/35/47 20/36/48 26/32/20 25/31/19
f 21/40/49 22/42/50 28/41/32 27/37/31
f 24/47/51 23/52/52 52/79/53 53/80/54
f 23/16/55 24/15/56 30/11/40 29/14/39
f 1/18/57 4/21/58 45/72/59 46/73/60
f 6/27/61 7/30/62 11/33/63 9/34/64
f 15/55/65 13/26/66 49/76/67 50/77/68
f 14/5/69 16/6/70 3/3/71 2/2/72
f 17/44/73 24/47/74 53/80/75 54/81/76
f 14/23/77 2/17/78 47/74/79 48/75/80
f 26/32/81 20/36/82 21/40/83 27/37/84
f 23/52/85 29/57/86 51/78/87 52/79/88
f 31/7/89 30/11/90 24/15/91 17/12/92
f 32/50/93 18/53/94 55/83/95 56/84/96
f 27/37/84 78/113/97 79/114/98 26/32/81
f 29/57/86 74/108/99 75/109/100 51/78/87
f 31/7/89 72/105/101 73/106/102 30/11/90
f 70/102/103 71/104/104 32/50/93 56/84/96
f 34/60/105 33/59/106 8/22/107 5/19/108
f 35/61/109 34/60/110 5/19/111 6/20/112
f 36/62/113 35/61/114 6/20/115 9/24/116
f 9/24/117 10/25/118 37/63/119 36/62/120
f 10/25/121 12/54/122 38/64/123 37/63/124
f 39/65/125 76/110/126 77/112/127 28/58/128
f 40/66/129 39/65/125 28/58/128 22/51/130
f 22/51/131 21/48/132 41/67/133 40/66/134
f 42/68/135 41/67/136 21/48/137 20/45/138
f 43/69/139 42/68/140 20/45/141 19/46/142
f 25/49/143 44/71/144 43/70/145 19/56/146
f 25/49/143 80/116/147 69/101/148 44/71/144
f 34/60/105 46/73/60 45/72/59 33/59/106
f 47/74/8 46/73/7 34/60/110 35/61/109
f 36/62/113 48/75/80 47/74/79 35/61/114
f 49/76/24 48/75/23 36/62/120 37/63/119
f 50/77/68 49/76/67 37/63/124 38/64/123
f 39/65/125 51/78/87 75/109/100 76/110/126
f 40/66/129 52/79/88 51/78/87 39/65/125
f 53/80/54 52/79/53 40/66/134 41/67/133
f 42/68/135 54/81/76 53/80/75 41/67/136
f 55/82/46 54/81/45 42/68/140 43/69/139
f 56/84/96 55/83/95 43/70/145 44/71/144
f 69/101/148 70/102/103 56/84/96 44/71/144
f 33/59/106 45/72/59 58/86/149 57/85/150
f 45/72/59 4/21/58 59/88/151 58/86/149
f 4/4/4 3/3/3 60/89/152 59/87/153
f 61/90/154 60/89/155 3/3/71 16/6/70
f 16/6/36 15/10/35 62/91/156 61/90/157
f 63/93/158 62/92/159 15/55/65 50/77/68
f 64/94/160 63/93/158 50/77/68 38/64/123
f 65/96/161 64/94/160 38/64/123 12/54/122
f 12/39/28 11/33/27 66/97/162 65/95/163
f 67/98/164 66/97/165 11/33/63 7/30/62
f 7/30/16 8/29/15 68/99/166 67/98/167
f 57/85/150 68/100/168 8/22/107 33/59/106
f 82/117/169 81/118/170 83/119/171 84/120/172
f 59/88/151 71/104/104 70/102/103 58/86/149
f 72/105/10 71/103/9 59/87/153 60/89/152
f 61/90/154 73/106/102 72/105/101 60/89/155
f 74/107/38 73/106/37 61/90/157 62/91/156
f 75/109/100 74/108/99 62/92/159 63/93/158
f 76/110/126 75/109/100 63/93/158 64/94/160
f 65/96/161 77/112/127 76/110/126 64/94/160
f 78/113/30 77/111/29 65/95/163 66/97/162
f 67/98/164 79/114/98 78/113/97 66/97/165
f 80/115/18 79/114/17 67/98/167 68/99/166
f 57/85/150 69/101/148 80/116/147 68/100/168
f 58/86/173 70/102/174 87/123/175 88/124/176
f 70/102/177 69/101/178 86/122/179 87/123/180
f 69/101/181 57/85/182 85/121/183 86/122/184
f 57/85/185 58/86/186 88/124/187 85/121/188
f 86/122/189 85/121/190 84/120/191 83/119/192
f 87/123/193 86/122/194 83/119/195 81/118/196
f 88/124/197 87/123/198 81/118/199 82/117/200
f 85/121/201 88/124/202 82/117/203 84/120/204
