# This file uses meters as units for non-parametric coordinates.

v -142.393646 44.604923 -159.127380
v 142.393646 44.604923 -159.127380
v -142.393646 26.089546 -159.127380
v 142.393646 26.089546 -159.127380
v -141.467972 26.089546 154.683472
v -142.393646 27.015223 155.609146
v 142.393646 27.015223 155.609146
v 141.467972 26.089546 154.683472
v -142.393646 43.679249 155.609146
v -141.467972 44.604923 154.683472
v 141.467972 44.604923 154.683472
v 142.393646 43.679249 155.609146
v -142.393646 43.679249 -86.740265
v -141.467972 44.604923 -87.665939
v 141.467972 44.604923 -87.665939
v 142.393646 43.679249 -86.740265
v -141.467972 26.089546 -87.665939
v -142.393646 27.015223 -86.740265
v 142.393646 27.015223 -86.740265
v 141.467972 26.089546 -87.665939
v -205.670517 26.089546 -87.665939
v -206.596191 27.015223 -86.740265
v -205.670517 26.089546 -159.127380
v -206.596191 27.015223 -159.127380
v -206.596191 43.679249 -86.740265
v -205.670517 44.604923 -87.665939
v -206.596191 43.679249 -159.127380
v -205.670517 44.604923 -159.127380
v 206.596191 27.015223 -86.740265
v 205.670517 26.089546 -87.665939
v 205.670517 44.604923 -87.665939
v 206.596191 43.679249 -86.740265
v 206.596191 27.015223 -159.127380
v 205.670517 26.089546 -159.127380
v 205.670517 44.604923 -159.127380
v 206.596191 43.679249 -159.127380
v 0.000000 44.604923 -159.127380
v 0.000000 44.604923 -87.665939
v 0.000000 44.604923 154.683472
v 0.000000 43.679249 155.609146
v 0.000000 27.015223 155.609146
v 0.000000 26.089546 154.683472
v 0.000000 26.089546 -87.665939
v 0.000000 26.089546 -159.127380
v -142.393646 27.015223 34.434441
v -141.467972 26.089546 33.508766
v 0.000000 26.089546 33.508766
v 141.467972 26.089546 33.508766
v 142.393646 27.015223 34.434441
v 142.393646 43.679249 34.434441
v 141.467972 44.604923 33.508766
v 0.000000 44.604923 33.508766
v -141.467972 44.604923 33.508766
v -142.393646 43.679249 34.434441
v -207.676025 0.927765 -160.055145
v -206.748260 0.000000 -160.055145
v -206.748260 0.927765 -159.127380
v 206.748260 0.000000 -160.055145
v 207.676025 0.927765 -160.055145
v 206.748260 0.927765 -159.127380
v -206.748260 119.316162 -160.055145
v -207.676025 118.388397 -160.055145
v -206.748260 118.388397 -159.127380
v 207.676025 118.388397 -160.055145
v 206.748260 119.316162 -160.055145
v 206.748260 118.388397 -159.127380
v -206.748260 118.388397 -177.684570
v -207.676025 118.388397 -176.756805
v -206.748260 119.316162 -176.756805
v 207.676025 118.388397 -176.756805
v 206.748260 118.388397 -177.684570
v 206.748260 119.316162 -176.756805
v -206.748260 0.000000 -176.756805
v -207.676025 0.927765 -176.756805
v -206.748260 0.927765 -177.684570
v 207.676025 0.927765 -176.756805
v 206.748260 0.000000 -176.756805
v 206.748260 0.927765 -177.684570
v 0.000000 118.388397 -159.127380
v 0.000000 0.927765 -159.127380
v 0.000000 0.000000 -160.055145
v 0.000000 0.000000 -176.756805
v 0.000000 0.927765 -177.684570
v 0.000000 118.388397 -177.684570
v 0.000000 119.316162 -176.756805
v 0.000000 119.316162 -160.055145
vt 0.891216 0.861623
vt 0.890716 0.861623
vt 0.891216 0.862118
vt 0.890716 0.862118
vt 0.891216 0.861623
vt 0.890716 0.861623
vt 0.891216 0.862118
vt 0.890716 0.862118
vt 0.890716 0.830308
vt 0.890716 0.831027
vt 0.890716 0.830308
vt 0.890716 0.831027
vt 0.943254 0.830308
vt 0.943254 0.830308
vt 0.943254 0.831027
vt 0.943254 0.831027
vt 0.943254 0.862243
vt 0.943254 0.862741
vt 0.943254 0.862741
vt 0.943254 0.862243
vt 0.887448 0.781028
vt 0.887946 0.781121
vt 0.887946 0.845544
vt 0.887448 0.845451
vt 0.887449 0.777449
vt 0.887946 0.777542
vt 0.887448 0.849030
vt 0.887946 0.849123
vt 0.936804 0.845537
vt 0.888121 0.781115
vt 0.888121 0.845537
vt 0.936804 0.781115
vt 0.936804 0.777535
vt 0.888121 0.777536
vt 0.936804 0.849116
vt 0.888121 0.849116
vt 0.886775 0.781047
vt 0.938301 0.777482
vt 0.886775 0.777469
vt 0.886775 0.845470
vt 0.938300 0.849063
vt 0.938301 0.781061
vt 0.886775 0.849049
vt 0.938300 0.845484
vt 0.984593 0.781100
vt 0.982854 0.849121
vt 0.982854 0.845542
vt 0.984591 0.845523
vt 0.982855 0.777541
vt 0.984593 0.777521
vt 0.982855 0.781120
vt 0.984591 0.849101
vt 0.943254 0.766869
vt 0.890716 0.766869
vt 0.983176 0.849076
vt 0.891216 0.766869
vt 0.983176 0.845497
vt 0.983176 0.781074
vt 0.983176 0.777496
vt 0.891216 0.766869
vt 0.890716 0.766869
vt 0.943254 0.766869
vt 0.982715 0.781038
vt 0.982715 0.777459
vt 0.986969 0.861623
vt 0.986969 0.766869
vt 0.983637 0.777539
vt 0.986969 0.862118
vt 0.983636 0.781118
vt 0.983637 0.845541
vt 0.983637 0.849119
vt 0.986969 0.862118
vt 0.986969 0.766869
vt 0.982715 0.849039
vt 0.986969 0.861623
vt 0.982715 0.845460
vt 0.988190 0.859213
vt 0.892484 0.859213
vt 0.892484 0.762538
vt 0.988190 0.762538
vt 0.892484 0.768709
vt 0.892484 0.860164
vt 0.988190 0.860164
vt 0.988190 0.768709
vt 0.898606 0.860164
vt 0.892055 0.860164
vt 0.892055 0.768709
vt 0.898606 0.768709
vt 0.893048 0.768709
vt 0.893048 0.860164
vt 0.897685 0.860164
vt 0.897685 0.768709
vt 0.892484 0.854614
vt 0.892484 0.768159
vt 0.988190 0.768159
vt 0.988190 0.854614
vt 0.892484 0.762610
vt 0.892484 0.853858
vt 0.988190 0.853858
vt 0.988190 0.762610
vt 0.893522 0.762538
vt 0.893315 0.762538
vt 0.893315 0.859213
vt 0.893522 0.859213
vt 0.988190 0.767986
vt 0.892484 0.767986
vt 0.893522 0.768709
vt 0.893522 0.860164
vt 0.892272 0.762538
vt 0.892272 0.859213
vt 0.893315 0.854614
vt 0.893522 0.854614
vt 0.893522 0.768159
vt 0.893315 0.768159
vt 0.892272 0.854614
vt 0.892272 0.768159
vt 0.893315 0.762610
vt 0.893522 0.762610
vt 0.893522 0.853858
vt 0.893315 0.853858
vt 0.892272 0.762610
vt 0.892272 0.853858
vt 0.893522 0.767986
vn -0.707109 -0.707105 0.000000
vn -0.707109 -0.707105 0.000000
vn -0.707109 -0.707105 0.000000
vn -0.707109 -0.707105 0.000000
vn 0.000000 -0.707106 0.707108
vn 0.000000 -0.707106 0.707108
vn 0.000000 -0.707106 0.707108
vn 0.000000 -0.707106 0.707108
vn 0.707109 -0.707105 0.000000
vn 0.707109 -0.707105 0.000000
vn 0.707109 -0.707105 0.000000
vn 0.707109 -0.707105 0.000000
vn -0.707108 0.707106 0.000000
vn -0.707108 0.707106 0.000000
vn -0.707108 0.707106 0.000000
vn -0.707108 0.707106 0.000000
vn 0.000000 0.707107 0.707107
vn 0.000000 0.707107 0.707107
vn 0.000000 0.707107 0.707107
vn 0.000000 0.707106 0.707107
vn 0.707108 0.707106 0.000000
vn 0.707108 0.707106 0.000000
vn 0.707108 0.707106 0.000000
vn 0.707108 0.707106 0.000000
vn 0.000000 0.707107 0.707107
vn 0.000000 0.707107 0.707107
vn 0.000000 0.707107 0.707107
vn 0.000000 0.707107 0.707107
vn 0.000000 0.707107 0.707107
vn 0.000000 0.707107 0.707107
vn 0.000000 0.707107 0.707107
vn 0.000000 0.707107 0.707107
vn 0.000000 -0.707106 0.707108
vn 0.000000 -0.707106 0.707108
vn 0.000000 -0.707106 0.707108
vn 0.000000 -0.707106 0.707108
vn 0.000000 -0.707106 0.707108
vn 0.000000 -0.707106 0.707108
vn 0.000000 -0.707106 0.707108
vn 0.000000 -0.707106 0.707108
vn -0.707109 -0.707104 0.000000
vn -0.707109 -0.707104 0.000000
vn -0.707109 -0.707104 0.000000
vn -0.707109 -0.707104 0.000000
vn -0.707109 0.707105 0.000000
vn -0.707109 0.707105 0.000000
vn -0.707109 0.707105 0.000000
vn -0.707109 0.707105 0.000000
vn 0.707109 -0.707104 0.000000
vn 0.707109 -0.707104 0.000000
vn 0.707109 -0.707104 0.000000
vn 0.707109 -0.707104 0.000000
vn 0.707109 0.707105 0.000000
vn 0.707109 0.707105 0.000000
vn 0.707109 0.707105 0.000000
vn 0.707109 0.707105 0.000000
vn 0.000000 0.000000 1.000000
vn 0.000000 0.000000 1.000000
vn 0.000000 0.000000 1.000000
vn 0.000000 0.000000 1.000000
vn 0.000000 1.000000 0.000000
vn 0.000000 1.000000 0.000000
vn 0.000000 1.000000 0.000000
vn 0.000000 1.000000 0.000000
vn 0.000000 -1.000000 0.000000
vn 0.000000 -1.000000 0.000000
vn 0.000000 -1.000000 0.000000
vn 0.000000 -1.000000 0.000000
vn 1.000000 0.000000 0.000000
vn 1.000000 0.000000 0.000000
vn 1.000000 0.000000 0.000000
vn 1.000000 0.000000 0.000000
vn -1.000000 0.000000 0.000000
vn -1.000000 0.000000 0.000000
vn -1.000000 0.000000 0.000000
vn -1.000000 0.000000 0.000000
vn -1.000000 0.000000 0.000000
vn -1.000000 0.000000 0.000000
vn -1.000000 0.000000 0.000000
vn -1.000000 0.000000 0.000000
vn 0.000000 -1.000000 0.000000
vn 0.000000 -1.000000 0.000000
vn 0.000000 -1.000000 0.000000
vn 0.000000 -1.000000 0.000000
vn 1.000000 0.000000 0.000000
vn 1.000000 0.000000 0.000000
vn 1.000000 0.000000 0.000000
vn 1.000000 0.000000 0.000000
vn 0.000000 1.000000 -0.000000
vn 0.000000 1.000000 0.000000
vn 0.000000 1.000000 0.000000
vn 0.000000 1.000000 -0.000000
vn 0.000000 -1.000000 0.000000
vn 0.000000 -1.000000 0.000000
vn 0.000000 -1.000000 0.000000
vn 0.000000 -1.000000 0.000000
vn 0.000000 0.000000 1.000000
vn 0.000000 0.000000 1.000000
vn 0.000000 0.000000 1.000000
vn 0.000000 0.000000 1.000000
vn 0.000000 1.000000 -0.000000
vn 0.000000 1.000000 -0.000000
vn 0.000000 1.000000 0.000000
vn 0.000000 1.000000 0.000000
vn 0.000000 0.000000 1.000000
vn 0.000000 0.000000 1.000000
vn 0.000000 0.000000 1.000000
vn 0.000000 0.000000 1.000000
vn 0.000000 -1.000000 0.000000
vn 0.000000 -1.000000 0.000000
vn 0.000000 1.000000 0.000000
vn 0.000000 1.000000 0.000000
vn 0.000000 1.000000 0.000000
vn 0.000000 1.000000 0.000000
vn 0.000000 0.707106 0.707107
vn 0.000000 0.707107 0.707107
vn 0.000000 0.000000 1.000000
vn 0.000000 0.000000 1.000000
vn 0.000000 -0.707106 0.707108
vn 0.000000 -0.707106 0.707108
vn 0.000000 -1.000000 0.000000
vn 0.000000 -1.000000 0.000000
vn -0.707109 -0.707105 0.000000
vn -0.707109 -0.707105 0.000000
vn 0.707109 -0.707105 0.000000
vn 0.707109 -0.707105 0.000000
vn 1.000000 0.000000 0.000000
vn 1.000000 0.000000 0.000000
vn 0.707108 0.707106 0.000000
vn 0.707108 0.707106 0.000000
vn -0.707108 0.707106 0.000000
vn -0.707108 0.707106 0.000000
vn -1.000000 0.000000 0.000000
vn -1.000000 0.000000 0.000000
vn 0.000000 -1.000000 0.000000
vn 0.000000 -1.000000 0.000000
vn 0.000000 -1.000000 0.000000
vn 0.000000 -1.000000 0.000000
vn 0.000000 0.000000 1.000000
vn 0.000000 0.000000 1.000000
vn 0.000000 0.000000 1.000000
vn 0.000000 0.000000 1.000000
vn -1.000000 0.000000 0.000000
vn -1.000000 0.000000 0.000000
vn -1.000000 0.000000 0.000000
vn -1.000000 0.000000 0.000000
vn 1.000000 0.000000 0.000000
vn 1.000000 0.000000 0.000000
vn 1.000000 0.000000 0.000000
vn 1.000000 0.000000 0.000000
vn 0.000000 1.000000 0.000000
vn 0.000000 1.000000 0.000000
vn 0.000000 1.000000 0.000000
vn 0.000000 1.000000 0.000000
vn 0.000000 0.000000 -1.000000
vn 0.000000 0.000000 -1.000000
vn 0.000000 0.000000 -1.000000
vn 0.000000 0.000000 -1.000000
vn -0.707109 -0.707105 0.000000
vn -0.707109 -0.707105 0.000000
vn -0.707109 -0.707105 0.000000
vn -0.707109 -0.707105 0.000000
vn 0.000000 -0.707107 0.707107
vn 0.000000 -0.707107 0.707107
vn 0.000000 -0.707107 0.707107
vn 0.000000 -0.707107 0.707107
vn -0.707103 0.000000 0.707111
vn -0.707103 0.000000 0.707111
vn -0.707103 0.000000 0.707111
vn -0.707103 0.000000 0.707111
vn 0.707109 -0.707105 0.000000
vn 0.707109 -0.707105 0.000000
vn 0.707109 -0.707105 0.000000
vn 0.707109 -0.707105 0.000000
vn 0.707103 0.000000 0.707111
vn 0.707103 0.000000 0.707111
vn 0.707103 0.000000 0.707111
vn 0.707103 0.000000 0.707111
vn -0.707109 0.707105 0.000000
vn -0.707109 0.707105 0.000000
vn -0.707109 0.707105 0.000000
vn -0.707109 0.707105 0.000000
vn 0.000000 0.707109 0.707104
vn 0.000000 0.707109 0.707104
vn 0.000000 0.707109 0.707104
vn 0.000000 0.707109 0.707104
vn 0.707109 0.707105 0.000000
vn 0.707109 0.707105 0.000000
vn 0.707109 0.707105 0.000000
vn 0.707109 0.707105 0.000000
vn -0.707103 0.000000 -0.707111
vn -0.707103 0.000000 -0.707111
vn -0.707103 0.000000 -0.707111
vn -0.707103 0.000000 -0.707111
vn 0.000000 0.707109 -0.707104
vn 0.000000 0.707109 -0.707104
vn 0.000000 0.707109 -0.707104
vn 0.000000 0.707109 -0.707104
vn 0.707103 0.000000 -0.707111
vn 0.707103 0.000000 -0.707111
vn 0.707103 0.000000 -0.707111
vn 0.707103 0.000000 -0.707111
vn 0.000000 -0.707107 -0.707107
vn 0.000000 -0.707107 -0.707107
vn 0.000000 -0.707107 -0.707107
vn 0.000000 -0.707107 -0.707107
vn -0.577350 -0.577350 0.577350
vn -0.577350 -0.577350 0.577350
vn -0.577350 -0.577350 0.577350
vn 0.577350 -0.577350 0.577350
vn 0.577350 -0.577350 0.577350
vn 0.577350 -0.577350 0.577350
vn -0.577350 0.577350 0.577350
vn -0.577350 0.577350 0.577350
vn -0.577350 0.577350 0.577350
vn 0.577350 0.577350 0.577350
vn 0.577350 0.577350 0.577350
vn 0.577350 0.577350 0.577350
vn -0.577350 0.577350 -0.577350
vn -0.577350 0.577350 -0.577350
vn -0.577350 0.577350 -0.577350
vn 0.577350 0.577350 -0.577350
vn 0.577350 0.577350 -0.577350
vn 0.577350 0.577350 -0.577350
vn -0.577350 -0.577350 -0.577350
vn -0.577350 -0.577350 -0.577350
vn -0.577350 -0.577350 -0.577350
vn 0.577350 -0.577350 -0.577350
vn 0.577350 -0.577350 -0.577350
vn 0.577350 -0.577350 -0.577350
vn 0.000000 0.000000 1.000000
vn 0.000000 0.000000 1.000000
vn 0.000000 -0.707107 0.707107
vn 0.000000 -0.707107 0.707107
vn 0.000000 -1.000000 0.000000
vn 0.000000 -1.000000 0.000000
vn 0.000000 -0.707107 -0.707107
vn 0.000000 -0.707107 -0.707107
vn 0.000000 0.000000 -1.000000
vn 0.000000 0.000000 -1.000000
vn 0.000000 0.707109 -0.707104
vn 0.000000 0.707109 -0.707104
vn 0.000000 1.000000 0.000000
vn 0.000000 1.000000 0.000000
vn 0.000000 0.707109 0.707104
vn 0.000000 0.707109 0.707104
f 5/25/1 6/21/2 45/63/3 46/64/4
f 41/58/5 42/59/6 8/26/7 7/22/8
f 7/22/9 8/26/10 48/67/11 49/69/12
f 9/24/13 10/27/14 53/74/15 54/76/16
f 39/55/17 40/57/18 12/23/19 11/28/20
f 11/28/21 12/23/22 50/70/23 51/71/24
f 13/40/25 14/43/26 26/41/27 25/44/28
f 15/36/29 16/31/30 32/29/31 31/35/32
f 17/39/33 18/37/34 22/42/35 21/38/36
f 19/30/37 20/34/38 30/33/39 29/32/40
f 21/38/41 22/42/42 24/45/43 23/50/44
f 25/44/45 26/41/46 28/52/47 27/48/48
f 29/32/49 30/33/50 34/49/51 33/51/52
f 31/35/53 32/29/54 36/47/55 35/46/56
f 41/58/57 7/22/58 12/23/59 40/57/60
f 39/56/61 11/7/62 51/72/63 52/73/64
f 47/66/65 48/68/66 8/3/67 42/60/68
f 7/22/69 49/69/70 50/70/71 12/23/72
f 54/76/73 45/63/74 6/21/75 9/24/76
f 24/45/77 22/42/78 25/44/79 27/48/80
f 44/62/81 4/18/82 20/4/83 43/61/84
f 32/29/85 29/32/86 33/51/87 36/47/88
f 38/54/89 15/8/90 2/19/91 37/53/92
f 3/17/93 17/2/94 21/11/95 23/13/96
f 18/37/97 13/40/98 25/44/99 22/42/100
f 14/6/101 1/20/102 28/14/103 26/9/104
f 16/31/105 19/30/106 29/32/107 32/29/108
f 20/4/83 4/18/82 34/15/109 30/12/110
f 2/19/91 15/8/90 31/10/111 35/16/112
f 14/6/101 38/54/89 37/53/92 1/20/102
f 10/5/113 39/56/61 52/73/64 53/75/114
f 10/27/115 9/24/116 40/57/18 39/55/17
f 6/21/117 41/58/57 40/57/60 9/24/118
f 6/21/119 5/25/120 42/59/6 41/58/5
f 46/65/121 47/66/65 42/60/68 5/1/122
f 3/17/93 44/62/81 43/61/84 17/2/94
f 46/64/4 45/63/3 18/37/123 17/39/124
f 17/2/94 43/61/84 47/66/65 46/65/121
f 43/61/84 20/4/83 48/68/66 47/66/65
f 49/69/12 48/67/11 20/34/125 19/30/126
f 50/70/71 49/69/70 19/30/127 16/31/128
f 51/71/24 50/70/23 16/31/129 15/36/130
f 52/73/64 51/72/63 15/8/90 38/54/89
f 53/75/114 52/73/64 38/54/89 14/6/101
f 54/76/16 53/74/15 14/43/131 13/40/132
f 18/37/133 45/63/74 54/76/73 13/40/134
f 82/77/135 77/78/136 58/79/137 81/80/138
f 60/81/139 66/82/140 79/83/141 80/84/142
f 62/85/143 68/86/144 74/87/145 55/88/146
f 76/89/147 70/90/148 64/91/149 59/92/150
f 65/93/151 72/94/152 85/95/153 86/96/154
f 71/97/155 78/98/156 83/99/157 84/100/158
f 56/101/159 55/102/160 74/103/161 73/104/162
f 80/84/163 81/105/164 58/106/165 60/81/166
f 55/88/167 57/107/168 63/108/169 62/85/170
f 59/109/171 58/79/172 77/78/173 76/110/174
f 60/81/175 59/92/176 64/91/177 66/82/178
f 62/111/179 61/112/180 69/113/181 68/114/182
f 86/96/183 79/83/184 66/82/185 65/93/186
f 65/93/187 64/115/188 70/116/189 72/94/190
f 68/117/191 67/118/192 75/119/193 74/120/194
f 84/100/195 85/95/196 72/94/197 71/97/198
f 71/97/199 70/121/200 76/122/201 78/98/202
f 82/77/203 83/99/204 78/98/205 77/78/206
f 55/88/207 56/123/208 57/107/209
f 58/106/210 59/92/211 60/81/212
f 61/112/213 62/85/214 63/108/215
f 64/91/216 65/93/217 66/82/218
f 67/118/219 68/114/220 69/113/221
f 70/116/222 71/97/223 72/94/224
f 73/104/225 74/120/226 75/119/227
f 76/122/228 77/78/229 78/98/230
f 80/84/142 79/83/141 63/108/231 57/107/232
f 57/107/233 56/123/234 81/105/164 80/84/163
f 73/104/235 82/77/135 81/80/138 56/101/236
f 73/104/237 75/119/238 83/99/204 82/77/203
f 84/100/158 83/99/157 75/119/239 67/118/240
f 67/118/241 69/113/242 85/95/196 84/100/195
f 86/96/154 85/95/153 69/113/243 61/112/244
f 61/112/245 63/108/246 79/83/184 86/96/183
