# This file uses meters as units for non-parametric coordinates.

v -41.151928 131.434952 -160.972702
v -44.369347 130.533005 -160.972702
v -45.452618 128.256042 -160.972717
v -41.151928 128.255997 -158.622131
v -36.408047 128.255905 -160.972610
v -37.712914 130.532898 -160.972626
v -41.151928 125.076889 -160.972702
v -37.712914 125.978844 -160.972626
v -44.369347 125.978973 -160.972702
v 41.151920 131.433838 -160.972000
v 38.062031 130.531647 -160.971817
v 36.882423 128.255020 -160.972092
v 41.151920 128.254959 -158.621429
v 45.452614 128.254883 -160.971985
v 44.369339 130.531586 -160.971741
v 41.151920 125.075768 -160.972000
v 44.369339 125.977531 -160.971741
v 38.062031 125.977638 -160.971817
vt 0.267999 0.988271
vt 0.265084 0.987216
vt 0.264102 0.984554
vt 0.267999 0.984554
vt 0.272297 0.984554
vt 0.271115 0.987216
vt 0.267999 0.980837
vt 0.271115 0.981891
vt 0.265084 0.981891
vt 0.267676 0.988270
vt 0.270500 0.987215
vt 0.271578 0.984553
vt 0.267676 0.984553
vt 0.263745 0.984553
vt 0.264735 0.987215
vt 0.267676 0.980836
vt 0.264735 0.981890
vt 0.270500 0.981891
vn 0.001558 0.453744 0.891131
vn -0.316086 0.427622 0.846894
vn -0.349675 0.000001 0.936871
vn 0.003036 -0.000000 0.999995
vn 0.325108 -0.000010 0.945677
vn 0.292506 0.436514 0.850820
vn 0.001551 -0.453729 0.891138
vn 0.292494 -0.436501 0.850832
vn -0.316099 -0.427608 0.846896
vn 0.001052 0.453713 0.891147
vn -0.321996 0.432454 0.842201
vn -0.357105 -0.000019 0.934064
vn 0.000236 -0.000003 1.000000
vn 0.349636 -0.000025 0.936886
vn 0.316077 0.427615 0.846901
vn 0.001042 -0.453642 0.891183
vn 0.316048 -0.427555 0.846942
vn -0.321988 -0.432385 0.842240
f 1/1/1 2/2/2 3/3/3 4/4/4
f 5/5/5 6/6/6 1/1/1 4/4/4
f 4/4/4 7/7/7 8/8/8 5/5/5
f 3/3/3 9/9/9 7/7/7 4/4/4
f 10/10/10 11/11/11 12/12/12 13/13/13
f 14/14/14 15/15/15 10/10/10 13/13/13
f 13/13/13 16/16/16 17/17/17 14/14/14
f 12/12/12 18/18/18 16/16/16 13/13/13
