# This file uses meters as units for non-parametric coordinates.

v -139.183139 34.506315 154.623640
v -139.183139 34.506315 -161.493472
v 139.183133 34.506315 -161.493472
v 139.183133 34.506315 154.623640
v -143.785785 35.035486 159.226285
v -143.256610 34.506315 158.697111
v -143.256610 34.506315 -161.493472
v -143.785785 35.035486 -162.022646
v -143.256610 39.798536 158.697111
v -143.785785 39.269369 159.226285
v -143.785785 39.269369 -162.022646
v -143.256610 39.798536 -161.493472
v 143.785779 39.269369 -162.022646
v 143.256604 39.798536 -161.493472
v 143.256604 34.506315 -161.493472
v 143.785779 35.035486 -162.022646
v 143.256604 34.506315 158.697111
v 143.785779 35.035486 159.226285
v 143.785779 39.269369 159.226285
v 143.256604 39.798536 158.697111
v -138.621158 0.000000 154.061658
v 138.621152 0.000000 154.061658
v -138.621158 0.000000 -161.493472
v 138.621152 0.000000 -161.493472
v -143.785785 35.035486 -8.824717
v -143.256610 34.506315 -8.824717
v -139.183139 34.506315 -8.824717
v -138.621158 0.000000 -8.824717
v 138.621152 0.000000 -8.824717
v 139.183133 34.506315 -8.824717
v 143.256604 34.506315 -8.824717
v 143.785779 35.035486 -8.824717
v 143.785779 39.269369 -8.824717
v 143.256604 39.798536 -8.824717
v -143.256610 39.798536 -8.824717
v -143.785785 39.269369 -8.824717
v 3.387891 0.000000 154.061658
v 3.387891 0.000000 -8.824717
v 3.387891 0.000000 -161.493472
v 3.387891 34.506315 -161.493472
v 3.387891 34.506315 -161.493472
v 3.387891 35.035486 -162.022646
v 3.387891 39.269369 -162.022646
v 3.387891 39.798536 -161.493472
v 3.387891 39.798536 -8.824717
v 3.387891 39.798536 158.697111
v 3.387891 39.269369 159.226285
v 3.387891 35.035486 159.226285
v 3.387891 34.506315 158.697111
v 3.387891 34.506315 154.623640
vt 0.684393 0.739129
vt 0.687101 0.739129
vt 0.687454 0.739128
vt 0.690268 0.739128
vt 0.638384 0.738589
vt 0.690620 0.739129
vt 0.687454 0.641332
vt 0.687101 0.641686
vt 0.687101 0.641177
vt 0.687454 0.640821
vt 0.638384 0.688483
vt 0.638035 0.688796
vt 0.636143 0.688795
vt 0.636499 0.688483
vt 0.690068 0.641686
vt 0.690515 0.641332
vt 0.690514 0.640821
vt 0.690066 0.641177
vt 0.690620 0.641686
vt 0.690268 0.641332
vt 0.690268 0.640821
vt 0.690620 0.641177
vt 0.638035 0.691297
vt 0.638384 0.691610
vt 0.636499 0.691610
vt 0.636143 0.691297
vt 0.694094 0.641332
vt 0.694540 0.641686
vt 0.694540 0.641177
vt 0.694093 0.640822
vt 0.636143 0.693233
vt 0.636499 0.693586
vt 0.638384 0.693586
vt 0.638035 0.693233
vt 0.636499 0.690049
vt 0.636143 0.690403
vt 0.638035 0.690403
vt 0.638384 0.690049
vt 0.686624 0.644409
vt 0.641070 0.686076
vt 0.684393 0.644409
vt 0.636499 0.640114
vt 0.686623 0.643914
vt 0.638384 0.640114
vt 0.639236 0.687326
vt 0.684393 0.643914
vt 0.639614 0.644292
vt 0.641440 0.644785
vt 0.639614 0.644785
vt 0.641070 0.687326
vt 0.641440 0.644292
vt 0.639236 0.686076
vt 0.735474 0.688796
vt 0.735474 0.688483
vt 0.735474 0.686076
vt 0.735474 0.644785
vt 0.735474 0.644292
vt 0.735474 0.687326
vt 0.735474 0.690049
vt 0.735474 0.690403
vt 0.735474 0.693233
vt 0.735474 0.693586
vt 0.735474 0.640114
vt 0.735474 0.691610
vt 0.735474 0.691297
vt 0.641440 0.739129
vt 0.735474 0.739129
vt 0.639614 0.739129
vt 0.686624 0.739129
vt 0.690067 0.739129
vt 0.690515 0.739128
vt 0.694094 0.739129
vt 0.694540 0.739128
vt 0.636499 0.738589
vt 0.735474 0.738590
vn 0.000000 -0.707107 0.707107
vn 0.000000 -0.707107 0.707107
vn 0.000000 -0.707106 0.707108
vn 0.000000 -0.707106 0.707108
vn -0.707109 -0.707104 0.000000
vn -0.707109 -0.707104 0.000000
vn -0.707108 -0.707105 0.000000
vn -0.707108 -0.707105 0.000000
vn 0.000000 -0.707107 -0.707107
vn 0.000000 -0.707107 -0.707107
vn 0.000000 -0.707106 -0.707108
vn 0.000000 -0.707106 -0.707108
vn 0.000000 0.707114 0.707100
vn 0.000000 0.707114 0.707100
vn 0.000000 0.707115 0.707099
vn 0.000000 0.707115 0.707099
vn -0.707107 0.707107 0.000000
vn -0.707107 0.707107 0.000000
vn -0.707106 0.707108 0.000000
vn -0.707106 0.707108 0.000000
vn 0.000000 0.707114 -0.707100
vn 0.000000 0.707114 -0.707100
vn 0.000000 0.707115 -0.707099
vn 0.000000 0.707115 -0.707099
vn 0.707102 0.707112 0.000000
vn 0.707102 0.707112 0.000000
vn 0.707099 0.707115 0.000000
vn 0.707099 0.707115 0.000000
vn 0.707104 -0.707109 0.000000
vn 0.707104 -0.707109 0.000000
vn 0.707101 -0.707112 0.000000
vn 0.707101 -0.707112 0.000000
vn -1.000000 0.000000 0.000000
vn -1.000000 0.000000 0.000000
vn -1.000000 0.000000 0.000000
vn -1.000000 0.000000 0.000000
vn 0.000000 0.000000 -1.000000
vn 0.000000 0.000000 -1.000000
vn 0.000000 0.000000 -1.000000
vn 0.000000 0.000000 -1.000000
vn 1.000000 0.000000 0.000000
vn 1.000000 0.000000 0.000000
vn 1.000000 0.000000 0.000000
vn 1.000000 0.000000 0.000000
vn 0.000000 0.000000 1.000000
vn 0.000000 0.000000 1.000000
vn 0.000000 0.000000 1.000000
vn 0.000000 0.000000 1.000000
vn 0.000000 -1.000000 0.000000
vn 0.000000 -1.000000 0.000000
vn 0.000000 -1.000000 0.000000
vn 0.000000 -1.000000 0.000000
vn 0.000000 1.000000 0.000000
vn 0.000000 1.000000 0.000000
vn 0.000000 1.000000 0.000000
vn 0.000000 1.000000 0.000000
vn 0.000000 -1.000000 -0.000001
vn 0.000000 -1.000000 0.000000
vn 0.000000 -1.000000 0.000000
vn 0.000000 -1.000000 -0.000001
vn 0.000000 -1.000000 -0.000001
vn 0.000000 -1.000000 -0.000001
vn -0.999867 -0.016284 0.000000
vn -0.999867 -0.016284 0.000000
vn -0.999867 -0.016284 0.000000
vn -0.999867 -0.016284 0.000000
vn 0.000000 -0.016284 0.999867
vn 0.000000 -0.016284 0.999867
vn 0.000000 -0.016284 0.999867
vn 0.000000 -0.016284 0.999867
vn 0.999867 -0.016284 0.000000
vn 0.999867 -0.016284 0.000000
vn 0.999867 -0.016284 0.000000
vn 0.999867 -0.016284 0.000000
vn 0.000000 0.000000 -1.000000
vn 0.000000 0.000000 -1.000000
vn 0.000000 0.000000 -1.000000
vn 0.000000 0.000000 -1.000000
vn 0.000000 -1.000000 0.000000
vn 0.000000 -1.000000 0.000000
vn 0.000000 -1.000000 0.000000
vn 0.000000 -1.000000 0.000000
vn -0.707107 -0.707106 0.000000
vn -0.707107 -0.707106 0.000000
vn 0.000000 -1.000000 0.000000
vn 0.000000 -1.000000 0.000000
vn -0.999867 -0.016284 0.000000
vn -0.999867 -0.016284 0.000000
vn 0.000000 -1.000000 0.000000
vn 0.000000 -1.000000 0.000000
vn 0.999867 -0.016284 0.000000
vn 0.999867 -0.016284 0.000000
vn 0.000000 -1.000000 0.000000
vn 0.000000 -1.000000 0.000000
vn 0.707107 -0.707106 0.000000
vn 0.707107 -0.707106 0.000000
vn 1.000000 0.000000 0.000000
vn 1.000000 0.000000 0.000000
vn 0.707105 0.707109 0.000000
vn 0.707105 0.707109 0.000000
vn 0.000000 1.000000 0.000000
vn 0.000000 1.000000 0.000000
vn -0.707105 0.707109 0.000000
vn -0.707105 0.707109 0.000000
vn -1.000000 0.000000 0.000000
vn -1.000000 0.000000 0.000000
vn 0.000000 -0.016284 0.999867
vn 0.000000 -0.016284 0.999867
vn 0.000000 -1.000000 0.000000
vn 0.000000 -1.000000 0.000000
vn 0.000000 -1.000000 0.000000
vn 0.000000 0.000000 -1.000000
vn 0.000000 0.000000 -1.000000
vn 0.000000 -0.707108 -0.707105
vn 0.000000 -0.707108 -0.707105
vn 0.000000 0.000000 -1.000000
vn 0.000000 0.000000 -1.000000
vn 0.000000 0.707113 -0.707101
vn 0.000000 0.707113 -0.707101
vn 0.000000 1.000000 0.000000
vn 0.000000 1.000000 0.000000
vn 0.000000 1.000000 0.000000
vn 0.000000 0.707113 0.707101
vn 0.000000 0.707113 0.707101
vn 0.000000 0.000000 1.000000
vn 0.000000 0.000000 1.000000
vn 0.000000 -0.707108 0.707105
vn 0.000000 -0.707108 0.707105
f 48/3/1 49/2/2 17/9/3 18/10/4
f 6/11/5 5/12/6 25/53/7 26/54/8
f 41/70/9 42/71/10 16/17/11 15/18/12
f 46/6/13 47/4/14 19/21/15 20/22/16
f 10/23/17 9/24/18 35/64/19 36/65/20
f 43/72/21 44/73/22 14/29/23 13/30/24
f 33/61/25 34/62/26 20/33/27 19/34/28
f 31/59/29 32/60/30 18/37/31 17/38/32
f 36/65/33 25/53/34 5/12/35 10/23/36
f 43/72/37 13/30/38 16/17/39 42/71/40
f 18/37/41 32/60/42 33/61/43 19/34/44
f 48/3/45 18/10/46 19/21/47 47/4/48
f 27/55/49 1/40/50 6/11/51 26/54/52
f 34/63/53 45/75/54 46/5/55 20/44/56
f 4/50/57 30/58/58 31/59/59 17/38/60
f 50/1/61 4/46/57 17/9/60 49/2/62
f 27/55/63 28/56/64 21/48/65 1/40/66
f 37/66/67 22/51/68 4/46/69 50/1/70
f 4/50/71 22/51/72 29/57/73 30/58/74
f 3/43/75 24/47/76 39/68/77 40/69/78
f 38/67/79 29/57/80 22/51/81 37/66/82
f 26/54/8 25/53/7 8/13/83 7/14/84
f 2/52/85 27/55/49 26/54/52 7/14/86
f 2/52/87 23/49/88 28/56/64 27/55/63
f 39/68/89 24/47/90 29/57/80 38/67/79
f 29/57/73 24/47/91 3/45/92 30/58/74
f 31/59/59 30/58/58 3/45/93 15/35/94
f 15/35/95 16/36/96 32/60/30 31/59/29
f 33/61/43 32/60/42 16/36/97 13/31/98
f 13/31/99 14/32/100 34/62/26 33/61/25
f 14/42/101 44/74/102 45/75/54 34/63/53
f 36/65/20 35/64/19 12/25/103 11/26/104
f 8/13/105 25/53/34 36/65/33 11/26/106
f 1/41/107 21/48/108 37/66/67 50/1/70
f 28/56/109 38/67/79 37/66/82 21/48/110
f 23/49/111 39/68/89 38/67/79 28/56/109
f 39/68/77 23/49/112 2/39/113 40/69/78
f 7/15/114 8/16/115 42/71/10 41/70/9
f 11/27/116 43/72/37 42/71/40 8/16/117
f 11/27/118 12/28/119 44/73/22 43/72/21
f 45/75/54 44/74/102 12/25/120 35/64/121
f 46/5/55 45/75/54 35/64/121 9/24/122
f 9/19/123 10/20/124 47/4/14 46/6/13
f 5/7/125 48/3/45 47/4/48 10/20/126
f 5/7/127 6/8/128 49/2/2 48/3/1
f 1/41/50 50/1/61 49/2/62 6/8/51
