# This file uses meters as units for non-parametric coordinates.

v -134.816516 49.462827 147.545480
v -136.305770 91.764752 151.559217
v -130.709187 98.337046 144.374337
v -126.524429 98.337046 145.889450
v -126.524429 91.764752 152.461621
v -123.412796 49.462827 150.334904
v -133.291498 98.337046 139.631066
v -137.143451 91.764752 139.631051
v -137.994476 49.462827 135.929119
v -126.524429 100.044094 139.631066
v 136.305770 91.764752 151.559217
v 130.709187 98.337046 144.374337
v 133.291498 98.337046 139.631066
v 137.143451 91.764752 139.631051
v 137.994476 49.462827 135.929119
v 134.816516 49.462827 147.545480
v 126.524429 91.764752 152.461621
v 126.524429 98.337046 145.889450
v 123.412796 49.462827 150.334904
v 126.524429 100.044094 139.631066
v -134.034467 91.764737 148.416988
v -132.604576 49.462827 146.396039
v 134.034467 91.764737 148.416988
v 132.604576 49.462827 146.396039
v 140.006566 72.388107 139.631051
v 137.270010 72.388107 153.256430
v 134.998707 72.388100 151.095163
v 126.524429 72.388107 155.139780
v -126.524429 72.388107 155.139780
v -134.998707 72.388100 151.095163
v -137.270010 72.388107 153.256430
v -140.006566 72.388107 139.631051
v 137.994476 49.462827 122.695155
v 140.006566 72.388107 126.041872
v 137.143451 91.764760 126.041872
v 133.291498 98.337046 126.041879
v 126.524429 100.044094 126.041879
v -126.524429 100.044094 126.041879
v -133.291498 98.337046 126.041879
v -137.143451 91.764760 126.041872
v -140.006566 72.388107 126.041872
v -137.994476 49.462827 122.695155
v -126.524429 52.188887 154.492245
v 126.524429 52.188887 154.492245
v 135.870415 52.188887 150.447643
v 138.141703 52.188887 151.722076
v 141.354429 52.188887 139.631051
v 141.354429 52.188887 126.041872
v -141.354429 52.188887 126.041872
v -141.354429 52.188887 139.631051
v -138.141703 52.188887 151.722076
v -135.870415 52.188887 150.447643
v 135.827559 49.462827 -87.084140
v 139.187511 52.188887 -89.368212
v 137.839648 72.388107 -89.368212
v 134.976534 91.764752 -89.368212
v 131.124580 95.667102 -89.368227
v 126.524429 97.374150 -89.368227
v -126.524429 97.374150 -89.368227
v -131.124580 95.667102 -89.368227
v -134.976534 91.764752 -89.368212
v -137.839648 72.388107 -89.368212
v -139.187511 52.188887 -89.368212
v -135.827559 49.462827 -87.084140
v 137.994476 49.462827 -85.038852
v 141.354429 52.188887 -87.268021
v 140.006566 72.388107 -87.268021
v 137.143451 91.764752 -87.268021
v 133.291498 98.337046 -87.268036
v 126.524429 100.044094 -87.268036
v -126.524429 100.044094 -87.268036
v -133.291498 98.337046 -87.268036
v -137.143451 91.764752 -87.268021
v -140.006566 72.388107 -87.268021
v -141.354429 52.188887 -87.268021
v -137.994476 49.462827 -85.038852
vt 0.018680 0.388699
vt 0.020558 0.391110
vt 0.019692 0.392702
vt 0.018399 0.392702
vt 0.017438 0.392702
vt 0.018356 0.388129
vt 0.019442 0.389753
vt 0.021963 0.388396
vt 0.021963 0.390602
vt 0.019119 0.388855
vt 0.021963 0.387497
vt 0.021963 0.392702
vt 0.110171 0.388699
vt 0.110452 0.392702
vt 0.109159 0.392702
vt 0.108292 0.391110
vt 0.111413 0.392702
vt 0.110494 0.388129
vt 0.109408 0.389753
vt 0.109732 0.388855
vt 0.106888 0.392702
vt 0.106888 0.390602
vt 0.106888 0.388396
vt 0.106888 0.387497
vt 0.111913 0.392702
vt 0.110818 0.388699
vt 0.110056 0.389095
vt 0.106888 0.387738
vt 0.021963 0.387738
vt 0.018795 0.389095
vt 0.018033 0.388699
vt 0.016938 0.392702
vt 0.111913 0.397262
vt 0.111413 0.397262
vt 0.110452 0.397262
vt 0.109159 0.397262
vt 0.106888 0.397262
vt 0.021963 0.397262
vt 0.019692 0.397262
vt 0.018399 0.397262
vt 0.017438 0.397262
vt 0.016938 0.397262
vt 0.021963 0.387715
vt 0.106888 0.387715
vt 0.110025 0.389072
vt 0.110787 0.388645
vt 0.111865 0.392702
vt 0.111865 0.397262
vt 0.016985 0.397262
vt 0.016985 0.392702
vt 0.018064 0.388645
vt 0.018826 0.389072
vt 0.111913 0.469556
vt 0.111865 0.469556
vt 0.111413 0.469556
vt 0.110452 0.469556
vt 0.109159 0.469556
vt 0.106888 0.469556
vt 0.021963 0.469556
vt 0.019692 0.469556
vt 0.018399 0.469556
vt 0.017438 0.469556
vt 0.016985 0.469556
vt 0.016938 0.469556
vt 0.111913 0.468851
vt 0.111865 0.468851
vt 0.111413 0.468851
vt 0.110452 0.468851
vt 0.109159 0.468851
vt 0.106888 0.468851
vt 0.021963 0.468851
vt 0.019692 0.468851
vt 0.018399 0.468851
vt 0.017438 0.468851
vt 0.016985 0.468851
vt 0.016938 0.468851
vn -0.907118 0.218540 0.359691
vn -0.514792 0.772798 0.371176
vn -0.636078 0.769273 0.060198
vn -0.968589 0.239259 0.067748
vn -0.991854 0.090177 0.089966
vn -0.911797 0.078602 0.403048
vn -0.432404 0.256934 0.864299
vn -0.013377 0.333775 0.942558
vn -0.006414 0.839359 0.543540
vn -0.430509 0.051146 0.901136
vn -0.015102 0.051401 0.998564
vn -0.005487 0.996385 0.084772
vn 0.907118 0.218540 0.359691
vn 0.968589 0.239259 0.067748
vn 0.636077 0.769274 0.060198
vn 0.514792 0.772798 0.371176
vn 0.991854 0.090177 0.089966
vn 0.911797 0.078602 0.403048
vn -0.771457 0.016210 0.636075
vn -0.694901 -0.010330 0.719032
vn 0.005487 0.996385 0.084772
vn 0.006414 0.839359 0.543540
vn 0.013377 0.333775 0.942558
vn 0.015102 0.051401 0.998564
vn 0.771457 0.016210 0.636074
vn 0.694901 -0.010330 0.719032
vn 0.432404 0.256934 0.864299
vn 0.430509 0.051146 0.901136
vn 0.987438 -0.105246 0.117855
vn 0.906796 -0.094536 0.410834
vn -0.574360 -0.176802 0.799282
vn 0.401894 -0.213850 0.890365
vn 0.016239 -0.153429 0.988026
vn -0.016239 -0.153429 0.988026
vn -0.401894 -0.213850 0.890365
vn -0.906796 -0.094536 0.410834
vn 0.574360 -0.176802 0.799282
vn -0.987438 -0.105246 0.117855
vn 0.999422 -0.033994 0.000000
vn 0.994387 0.105805 -0.000000
vn 0.968109 0.250528 -0.000000
vn 0.614870 0.788629 0.000000
vn 0.006570 0.999978 0.000000
vn -0.006570 0.999978 0.000000
vn -0.614870 0.788629 0.000000
vn -0.968109 0.250528 -0.000000
vn -0.994387 0.105805 0.000000
vn -0.999422 -0.033994 0.000000
vn 0.998945 -0.044826 -0.010016
vn 0.994341 0.105781 -0.009832
vn 0.968096 0.250383 -0.009944
vn 0.614715 0.788697 -0.009107
vn 0.006562 0.999902 -0.012338
vn -0.006562 0.999902 -0.012338
vn -0.614715 0.788697 -0.009107
vn -0.968096 0.250383 -0.009944
vn -0.994341 0.105781 -0.009832
vn -0.998945 -0.044826 -0.010016
vn -0.005437 -0.838072 0.545532
vn 0.005437 -0.838072 0.545532
vn 0.188438 -0.879224 0.437557
vn 0.424532 -0.873390 0.238669
vn -0.379994 -0.601347 0.702842
vn 0.595797 -0.801734 0.047417
vn 0.630049 -0.776556 0.000000
vn 0.627805 -0.778351 -0.005509
vn -0.627805 -0.778351 -0.005509
vn -0.630049 -0.776555 0.000000
vn -0.595797 -0.801734 0.047417
vn -0.424531 -0.873390 0.238669
vn 0.379994 -0.601346 0.702842
vn -0.188438 -0.879224 0.437557
vn 0.688452 -0.140699 -0.711504
vn 0.392404 -0.823241 -0.410235
vn 0.693994 0.075188 -0.716044
vn 0.639128 0.199283 -0.742833
vn 0.340769 0.485485 -0.805097
vn 0.004771 0.617051 -0.786909
vn -0.004771 0.617051 -0.786909
vn -0.340769 0.485486 -0.805097
vn -0.639128 0.199283 -0.742834
vn -0.693994 0.075188 -0.716044
vn -0.688452 -0.140699 -0.711504
vn -0.392403 -0.823242 -0.410235
f 2/1/1 3/2/2 7/3/3 8/4/4
f 32/5/5 31/6/6 2/1/1 8/4/4
f 3/2/2 21/7/7 5/8/8 4/9/9
f 21/7/7 30/10/10 29/11/11 5/8/8
f 3/2/2 4/9/9 10/12/12 7/3/3
f 11/13/13 14/14/14 13/15/15 12/16/16
f 25/17/17 14/14/14 11/13/13 26/18/18
f 12/16/16 23/19/19 11/13/13
f 26/18/18 11/13/13 23/19/19 27/20/20
f 12/16/16 13/15/15 20/21/21 18/22/22
f 4/9/9 5/8/8 17/23/23 18/22/22
f 5/8/8 29/11/11 28/24/24 17/23/23
f 10/12/12 4/9/9 18/22/22 20/21/21
f 3/2/2 2/1/1 21/7/25
f 31/6/6 30/10/26 21/7/25 2/1/1
f 12/16/16 18/22/22 17/23/23 23/19/27
f 27/20/28 23/19/27 17/23/23 28/24/24
f 47/47/29 25/17/17 26/18/18 46/46/30
f 46/46/30 26/18/18 27/20/20 45/45/31
f 45/45/32 27/20/28 28/24/24 44/44/33
f 29/11/11 43/43/34 44/44/33 28/24/24
f 30/10/10 52/52/35 43/43/34 29/11/11
f 51/51/36 52/52/37 30/10/26 31/6/6
f 50/50/38 51/51/36 31/6/6 32/5/5
f 25/17/17 47/47/29 48/48/39 34/34/40
f 14/14/14 25/17/17 34/34/40 35/35/41
f 13/15/15 14/14/14 35/35/41 36/36/42
f 20/21/21 13/15/15 36/36/42 37/37/43
f 10/12/12 20/21/21 37/37/43 38/38/44
f 7/3/3 10/12/12 38/38/44 39/39/45
f 8/4/4 7/3/3 39/39/45 40/40/46
f 32/5/5 8/4/4 40/40/46 41/41/47
f 49/49/48 50/50/38 32/5/5 41/41/47
f 34/34/40 48/48/39 66/66/49 67/67/50
f 35/35/41 34/34/40 67/67/50 68/68/51
f 36/36/42 35/35/41 68/68/51 69/69/52
f 37/37/43 36/36/42 69/69/52 70/70/53
f 38/38/44 37/37/43 70/70/53 71/71/54
f 39/39/45 38/38/44 71/71/54 72/72/55
f 40/40/46 39/39/45 72/72/55 73/73/56
f 41/41/47 40/40/46 73/73/56 74/74/57
f 75/75/58 49/49/48 41/41/47 74/74/57
f 43/43/34 6/29/59 19/28/60 44/44/33
f 24/27/61 45/45/32 44/44/33 19/28/60
f 16/26/62 46/46/30 45/45/31 24/27/63
f 15/25/64 47/47/29 46/46/30 16/26/62
f 48/48/39 47/47/29 15/25/64 33/33/65
f 66/66/49 48/48/39 33/33/65 65/65/66
f 76/76/67 42/42/68 49/49/48 75/75/58
f 42/42/68 9/32/69 50/50/38 49/49/48
f 9/32/69 1/31/70 51/51/36 50/50/38
f 1/31/70 22/30/71 52/52/37 51/51/36
f 43/43/34 52/52/35 22/30/72 6/29/59
f 54/54/73 66/66/49 65/65/66 53/53/74
f 67/67/50 66/66/49 54/54/73 55/55/75
f 68/68/51 67/67/50 55/55/75 56/56/76
f 69/69/52 68/68/51 56/56/76 57/57/77
f 70/70/53 69/69/52 57/57/77 58/58/78
f 71/71/54 70/70/53 58/58/78 59/59/79
f 72/72/55 71/71/54 59/59/79 60/60/80
f 73/73/56 72/72/55 60/60/80 61/61/81
f 74/74/57 73/73/56 61/61/81 62/62/82
f 63/63/83 75/75/58 74/74/57 62/62/82
f 64/64/84 76/76/67 75/75/58 63/63/83
