# This file uses meters as units for non-parametric coordinates.

v -131.081909 63.773724 -77.254631
v -134.532593 42.008362 -77.254631
v -128.649536 67.397854 -77.254639
v -124.689026 68.555768 -77.254639
v 124.689026 68.555768 -77.254639
v 128.649536 67.397854 -77.254639
v 131.081909 63.773724 -77.254631
v 134.532593 42.008362 -77.254631
v 133.854095 37.141732 -77.254631
v -133.854095 37.141732 -77.254631
v -138.394608 66.340016 -19.070023
v -138.394608 66.340016 -77.254631
v -141.547882 43.983735 -77.254631
v -141.547882 43.983735 -19.070023
v -134.639969 73.083890 -77.254639
v -134.639969 73.083890 -19.070019
v -125.970329 78.029187 -17.255846
v -125.970329 75.719822 -77.254639
v 125.970329 78.029187 -17.255846
v 125.970329 75.719822 -77.254639
v 134.639969 73.083890 -77.254639
v 134.639969 73.083890 -19.070019
v 138.394608 66.340016 -19.070023
v 138.394608 66.340016 -77.254631
v 141.547882 43.983735 -19.070023
v 141.547882 43.983735 -77.254631
v 140.800171 37.152421 -19.070023
v 140.800171 37.152421 -77.254631
v -140.800171 37.152421 -77.254631
v -140.800171 37.152421 -19.070023
v -125.254272 74.369481 -16.652948
v -132.836884 71.530736 -16.652948
v -137.235687 64.905850 -16.652952
v -140.216736 42.879799 -16.652952
v -139.507706 37.146447 -16.652952
v -139.507706 37.146447 -81.126701
v -140.216736 42.879799 -81.126701
v -137.235687 64.905850 -81.126701
v -132.836884 71.530736 -81.126709
v -125.254272 74.369481 -81.126709
v 125.254272 74.369481 -81.126709
v 132.836884 71.530736 -81.126709
v 137.235687 64.905850 -81.126701
v 140.216736 42.879799 -81.126701
v 139.507706 37.146447 -81.126701
v 139.507706 37.146447 -16.652952
v 140.216736 42.879799 -16.652952
v 137.235687 64.905850 -16.652952
v 132.836884 71.530736 -16.652948
v 125.254272 74.369481 -16.652948
v 140.800171 37.152421 -25.059761
v 141.547882 43.983735 -25.059761
v 138.394608 66.340016 -25.059761
v 135.993896 74.368016 -25.570852
v 125.970322 78.226979 -25.570852
v -125.970322 78.226979 -25.570852
v -135.993896 74.368016 -25.570852
v -138.394608 66.340016 -25.059761
v -141.547882 43.983735 -25.059763
v -140.800171 37.152421 -25.059763
v -138.086380 42.008362 -19.070023
v -135.241272 63.773724 -19.070023
v -131.413544 69.392079 -19.070019
v -124.689026 71.088391 -19.070019
v 124.689026 71.088391 -19.070019
v 131.413544 69.392079 -19.070019
v 135.241272 62.861119 -19.070023
v 138.086380 51.600049 -19.070023
v 139.567932 37.141732 -19.070023
v -139.567932 37.141732 -19.070021
v -99.999977 68.851666 -78.379181
v -99.493629 74.369481 -82.251251
v -100.005096 77.708363 -78.379181
v -100.005089 80.215512 -25.570852
v -100.005096 77.481785 -15.727777
v -99.493629 74.369481 -15.124879
v -99.089882 71.088391 -17.541948
v 0.000000 69.263348 -78.962914
v 0.000000 74.369481 -82.834984
v 0.000000 78.691411 -78.962914
v 0.000000 81.198552 -23.193989
v 0.000000 77.481793 -14.878983
v 0.000000 74.369481 -14.276085
v 0.000000 71.088391 -16.693155
v 99.999969 68.851666 -77.254631
v 99.493622 74.369481 -81.126701
v 100.005089 77.708363 -77.254631
v 100.005089 80.215504 -25.570852
v 100.005089 77.481793 -17.255846
v 99.493622 74.369481 -16.652948
v 99.089874 71.088391 -19.070019
v 140.800171 37.152421 -51.157196
v 141.547882 43.983735 -51.157196
v 138.394608 66.340016 -51.157196
v 135.316925 73.725957 -51.412743
v 125.970322 78.528203 -51.412743
v 100.005089 80.516736 -51.412743
v 0.000000 81.499783 -52.266884
v -100.005096 80.516743 -51.975014
v -125.970322 78.528203 -51.412743
v -135.316925 73.725957 -51.412743
v -138.394608 66.340016 -51.157196
v -141.547882 43.983735 -51.157196
v -140.800171 37.152421 -51.157196
v 140.800171 37.152421 -72.098801
v 141.547882 43.983735 -72.098801
v 138.394608 66.340016 -72.098801
v 134.773712 73.210736 -72.149284
v 125.970329 76.067021 -72.149284
v 100.005089 78.055554 -72.149284
v 0.000000 79.038601 -73.688820
v -100.005096 78.055554 -73.162743
v -125.970329 76.067021 -72.149284
v -134.773712 73.210736 -72.149284
v -138.394608 66.340016 -72.098801
v -141.547882 43.983735 -72.098801
v -140.800171 37.152421 -72.098801
v -136.325195 37.141732 150.606018
v -134.408859 63.773717 150.606018
v -128.847473 70.304684 143.466202
v -124.689018 70.304684 144.971817
v -124.689018 63.773717 151.502777
v -124.689018 37.141732 153.452393
v -131.413544 70.304684 138.752686
v -135.241272 63.773717 138.752670
v -139.567932 37.141732 138.752670
v -124.689018 72.000996 138.752686
v 134.408859 63.773717 150.606018
v 128.847473 70.304684 143.466202
v 131.413544 70.304684 138.752686
v 135.241272 63.773717 138.752670
v 139.567932 37.141732 138.752670
v 136.325195 37.141732 150.606018
v 124.689018 63.773717 151.502777
v 124.689018 70.304684 144.971817
v 124.689018 37.141732 153.452393
v 124.689018 72.000996 138.752686
v -132.151840 63.773717 147.483505
v -134.068176 37.141732 149.433121
v 132.151840 63.773717 147.483505
v 134.068176 37.141732 149.433121
v -124.689018 51.600041 153.928452
v 124.689018 51.600041 153.928452
v 133.110016 51.600041 149.909180
v 135.367035 51.600041 150.606018
v 138.086380 51.600041 138.752670
v -138.086380 51.600041 138.752670
v -135.367035 51.600041 150.606018
v -133.110016 51.600041 149.909180
v -139.567932 37.141732 -19.070023
v -138.086380 51.600049 -19.070023
v -135.241272 63.773724 -19.070023
v -131.413544 70.304684 -19.070019
v -124.689034 72.000996 -19.070019
v 124.689034 72.000996 -19.070019
v 131.413544 70.304684 -19.070019
v 135.241272 63.773724 -19.070023
v 138.086380 51.600049 -19.070023
v 139.567932 37.141732 -19.070021
v 0.000000 37.141732 153.452393
v 0.000000 51.600041 153.928452
v 0.000000 63.773717 151.502777
v 0.000000 70.304684 144.971817
v 0.000000 72.000996 138.752686
v 0.000000 72.000996 -21.370661
vt 0.030550 0.310339
vt 0.030463 0.318565
vt 0.023875 0.318375
vt 0.023872 0.310277
vt 0.034822 0.310027
vt 0.034733 0.319509
vt 0.040079 0.308535
vt 0.040802 0.319574
vt 0.039461 0.308194
vt 0.040247 0.318973
vt 0.053278 0.316531
vt 0.052961 0.301531
vt 0.034298 0.309559
vt 0.034206 0.318907
vt 0.030054 0.309821
vt 0.029950 0.318001
vt 0.023373 0.309619
vt 0.023367 0.317705
vt 0.018074 0.310088
vt 0.018220 0.317805
vt 0.018733 0.318437
vt 0.018593 0.310768
vt 0.031573 0.298225
vt 0.024038 0.297099
vt 0.023601 0.307017
vt 0.030490 0.308339
vt 0.023344 0.300359
vt 0.030292 0.300547
vt 0.030431 0.305345
vt 0.023591 0.305067
vt 0.034534 0.298052
vt 0.034451 0.308506
vt 0.034473 0.299796
vt 0.034850 0.305235
vt 0.037434 0.295921
vt 0.038632 0.306021
vt 0.038863 0.295775
vt 0.039371 0.301764
vt 0.037110 0.297113
vt 0.052043 0.288998
vt 0.052687 0.298677
vt 0.038140 0.307153
vt 0.052937 0.287597
vt 0.038415 0.295577
vt 0.038813 0.301531
vt 0.052972 0.293562
vt 0.034180 0.299035
vt 0.034016 0.309445
vt 0.033993 0.299363
vt 0.034342 0.304791
vt 0.031202 0.299082
vt 0.030069 0.309158
vt 0.029328 0.299675
vt 0.029938 0.304833
vt 0.023653 0.297745
vt 0.023177 0.307660
vt 0.022860 0.299664
vt 0.023102 0.304391
vt 0.017930 0.296414
vt 0.017562 0.306837
vt 0.017302 0.299893
vt 0.017629 0.304761
vt 0.018340 0.295934
vt 0.018010 0.306312
vt 0.017821 0.300621
vt 0.018148 0.305474
vt 0.018229 0.313465
vt 0.023789 0.313677
vt 0.030495 0.314507
vt 0.034373 0.314370
vt 0.039012 0.312775
vt 0.052683 0.308509
vt 0.038517 0.313803
vt 0.033914 0.315264
vt 0.030053 0.315310
vt 0.023344 0.314341
vt 0.017763 0.314028
vt 0.018191 0.351947
vt 0.023316 0.352033
vt 0.029840 0.352148
vt 0.034139 0.352436
vt 0.039803 0.352560
vt 0.053196 0.353827
vt 0.040322 0.353362
vt 0.034645 0.353194
vt 0.030343 0.352874
vt 0.023822 0.352695
vt 0.018702 0.352606
vt 0.052483 0.286876
vt 0.053130 0.296535
vt 0.053135 0.306362
vt 0.053852 0.317453
vt 0.053703 0.355522
vt 0.053557 0.300891
vt 0.053584 0.292936
vt 0.053559 0.286691
vt 0.110125 0.291965
vt 0.110189 0.282721
vt 0.110076 0.302932
vt 0.109744 0.309826
vt 0.109930 0.357211
vt 0.109676 0.293782
vt 0.109657 0.285789
vt 0.109657 0.279686
vt 0.017899 0.321332
vt 0.023273 0.321298
vt 0.029926 0.321691
vt 0.033958 0.321665
vt 0.039339 0.321294
vt 0.052895 0.317406
vt 0.110042 0.311938
vt 0.053359 0.315372
vt 0.039840 0.320366
vt 0.034434 0.320807
vt 0.030386 0.320912
vt 0.023737 0.320632
vt 0.018377 0.320740
vt 0.016600 0.293523
vt 0.018514 0.295974
vt 0.017636 0.297568
vt 0.016322 0.297520
vt 0.015346 0.297422
vt 0.016272 0.293420
vt 0.017377 0.294571
vt 0.019937 0.293200
vt 0.019940 0.295458
vt 0.017047 0.293650
vt 0.019936 0.292278
vt 0.019944 0.297569
vt 0.016534 0.292949
vt 0.016240 0.296944
vt 0.017557 0.297008
vt 0.018443 0.295424
vt 0.015261 0.296833
vt 0.016204 0.292843
vt 0.017308 0.294007
vt 0.016979 0.293083
vt 0.019870 0.297037
vt 0.019874 0.294926
vt 0.107930 0.292934
vt 0.107933 0.295192
vt 0.107929 0.292012
vt 0.107937 0.297302
vt 0.019878 0.292668
vt 0.019878 0.291746
vt 0.019937 0.292354
vt 0.107930 0.292088
vt 0.016649 0.293157
vt 0.019877 0.291822
vt 0.015874 0.292757
vt 0.014751 0.296746
vt 0.014838 0.297341
vt 0.015944 0.293338
vt 0.016720 0.293729
vt 0.015436 0.351770
vt 0.014928 0.351688
vt 0.016412 0.351868
vt 0.017726 0.351916
vt 0.020034 0.351916
vt 0.108027 0.351651
vt 0.017467 0.351356
vt 0.019780 0.351385
vt 0.016150 0.351291
vt 0.015171 0.351181
vt 0.014660 0.351093
vn -0.955687 0.221243 0.194203
vn -0.980953 0.194202 0.003989
vn -0.996621 0.082139 0.000000
vn -0.981568 0.086388 0.170475
vn -0.640766 0.699036 0.317439
vn -0.695033 0.718811 0.015477
vn -0.134782 0.906299 0.400571
vn -0.163705 0.985612 0.042080
vn 0.126216 0.894357 0.429180
vn 0.165578 0.985258 0.043012
vn 0.021406 0.995940 0.087440
vn 0.018013 0.836095 0.548289
vn 0.640766 0.699036 0.317439
vn 0.695033 0.718811 0.015477
vn 0.955687 0.221243 0.194203
vn 0.980954 0.194202 0.003989
vn 0.981568 0.086388 0.170475
vn 0.996621 0.082139 0.000000
vn 0.983963 -0.109468 0.140833
vn 0.994063 -0.108804 0.000000
vn -0.994063 -0.108804 0.000000
vn -0.983963 -0.109469 0.140833
vn 0.521452 -0.136142 -0.842350
vn 0.543738 -0.046979 -0.837939
vn 0.000533 -0.017349 -0.999849
vn -0.132121 0.029047 -0.990808
vn 0.775546 -0.092863 0.624423
vn 0.711230 -0.170823 0.681888
vn -0.211534 0.023125 0.977097
vn 0.068826 -0.052076 0.996269
vn 0.325110 -0.440504 -0.836815
vn -0.160788 0.247930 -0.955342
vn 0.394945 -0.527056 0.752483
vn -0.122085 0.004498 0.992509
vn 0.011420 -0.562562 -0.826676
vn -0.065414 0.118700 -0.990773
vn 0.002533 -0.603153 0.797622
vn -0.062770 -0.197416 0.978308
vn -0.040409 -0.562056 -0.826112
vn 0.009000 -0.583113 -0.812341
vn 0.017936 0.006566 -0.999818
vn 0.029473 0.119515 -0.992395
vn 0.015658 -0.593659 0.804564
vn -0.039915 -0.598986 0.799765
vn 0.017418 -0.186919 0.982221
vn 0.018189 -0.252395 0.967454
vn -0.325111 -0.440504 -0.836815
vn 0.160788 0.247930 -0.955342
vn -0.399944 -0.501269 0.767316
vn 0.108481 0.004389 0.994089
vn -0.521453 -0.136142 -0.842349
vn 0.132121 0.029047 -0.990808
vn -0.782493 -0.212465 0.585289
vn 0.372279 0.023281 0.927829
vn -0.543738 -0.046979 -0.837939
vn -0.000533 -0.017349 -0.999849
vn -0.850028 -0.141950 0.507250
vn 0.234713 0.014460 0.971957
vn -0.566374 0.074137 -0.820807
vn 0.046884 0.002870 -0.998896
vn -0.940502 -0.035983 0.337878
vn -0.509739 -0.136867 0.849373
vn 0.566374 0.074137 -0.820807
vn -0.046884 0.002870 -0.998896
vn 0.912802 -0.066525 0.402947
vn -0.132877 -0.193564 0.972048
vn -0.985155 -0.110476 -0.131394
vn -0.984096 0.086765 -0.155005
vn -0.956105 0.239473 -0.168865
vn -0.601930 0.766891 -0.222618
vn -0.132353 0.957252 -0.257200
vn 0.022885 0.923760 -0.382287
vn 0.123621 0.956850 -0.262974
vn 0.601930 0.766891 -0.222618
vn 0.956105 0.239473 -0.168865
vn 0.984096 0.086765 -0.155005
vn 0.985155 -0.110476 -0.131394
vn 0.994063 -0.108804 0.000000
vn 0.996621 0.082139 0.000000
vn 0.979370 0.202029 -0.004403
vn 0.681171 0.731506 -0.030101
vn 0.168372 0.984737 -0.044083
vn 0.023594 0.998730 -0.044528
vn -0.168618 0.984739 -0.043101
vn -0.681170 0.731506 -0.030101
vn -0.979370 0.202029 -0.004403
vn -0.996621 0.082139 0.000000
vn -0.994063 -0.108804 0.000000
vn -0.010402 -0.583307 -0.812186
vn -0.015774 0.005127 -0.999863
vn -0.021734 0.923360 -0.383320
vn -0.020898 0.996165 0.084968
vn -0.023588 0.998735 -0.044416
vn -0.017693 0.853665 0.520521
vn -0.018076 -0.251960 0.967569
vn -0.014652 -0.594134 0.804233
vn 0.005607 -0.000189 -0.999984
vn 0.004574 -0.588791 -0.808273
vn 0.002317 0.908174 -0.418587
vn 0.000243 0.995145 0.098423
vn 0.000138 0.999012 -0.044433
vn 0.003022 0.825303 0.564682
vn 0.007357 -0.272189 0.962216
vn 0.006230 -0.593618 0.804723
vn 0.994063 -0.108803 0.000000
vn 0.996621 0.082139 0.000000
vn 0.976006 0.217700 -0.004447
vn 0.651281 0.757325 -0.047874
vn 0.158806 0.982496 -0.097382
vn 0.024314 0.993988 -0.106751
vn 0.000362 0.994403 -0.105649
vn -0.024181 0.994128 -0.105471
vn -0.159709 0.982389 -0.096977
vn -0.651280 0.757326 -0.047874
vn -0.976006 0.217700 -0.004447
vn -0.996621 0.082139 0.000000
vn -0.994063 -0.108803 0.000000
vn -0.885925 0.297519 0.355837
vn -0.514794 0.772800 0.371170
vn -0.617696 0.786380 0.007594
vn -0.942207 0.334887 0.009775
vn -0.987456 0.157263 0.014133
vn -0.906838 0.118398 0.404507
vn -0.418385 0.344456 0.840419
vn -0.024175 0.427800 0.903550
vn -0.012672 0.838459 0.544818
vn -0.427515 0.073558 0.901011
vn -0.029258 0.073464 0.996869
vn -0.012576 0.999871 0.010004
vn 0.885925 0.297519 0.355837
vn 0.942207 0.334887 0.009775
vn 0.617696 0.786381 0.007594
vn 0.514793 0.772801 0.371170
vn 0.987456 0.157263 0.014133
vn 0.906838 0.118398 0.404507
vn -0.710727 -0.002107 0.703465
vn -0.529379 -0.005546 0.848367
vn 0.012576 0.999871 0.010004
vn 0.012672 0.838459 0.544818
vn 0.000000 0.431885 0.901929
vn 0.000000 0.840254 0.542193
vn 0.000000 0.073010 0.997331
vn 0.000000 0.999947 0.010268
vn 0.710726 -0.002107 0.703466
vn 0.529380 -0.005545 0.848367
vn 0.024175 0.427800 0.903550
vn 0.418385 0.344456 0.840419
vn 0.427515 0.073558 0.901011
vn 0.029258 0.073464 0.996869
vn -0.030289 -0.031891 0.999032
vn 0.000000 -0.032908 0.999458
vn 0.411523 -0.016369 0.911252
vn 0.030289 -0.031891 0.999032
vn 0.903226 0.074618 0.422628
vn -0.382362 -0.040537 0.923123
vn 0.994769 0.100697 0.017198
vn -0.994769 0.100697 0.017198
vn -0.903226 0.074618 0.422628
vn 0.382362 -0.040537 0.923123
vn -0.411523 -0.016369 0.911252
vn -0.987059 0.160358 0.000000
vn -0.994791 0.101937 0.000000
vn -0.941860 0.336006 0.000000
vn -0.614870 0.788628 0.000000
vn -0.012677 0.999920 0.000000
vn 0.000000 1.000000 0.000000
vn 0.614870 0.788628 0.000000
vn 0.012677 0.999920 0.000000
vn 0.941860 0.336006 0.000000
vn 0.987059 0.160358 0.000000
vn 0.994791 0.101937 0.000000
f 11/1/1 58/2/2 59/3/3 14/4/4
f 16/5/5 57/6/6 58/2/2 11/1/1
f 17/7/7 56/8/8 57/6/6 16/5/5
f 19/9/9 55/10/10 88/11/11 89/12/12
f 22/13/13 54/14/14 55/10/10 19/9/9
f 23/15/15 53/16/16 54/14/14 22/13/13
f 25/17/17 52/18/18 53/16/16 23/15/15
f 27/19/19 51/20/20 52/18/18 25/17/17
f 14/4/4 59/3/3 60/21/21 30/22/22
f 1/23/23 2/24/24 37/25/25 38/26/26
f 61/27/27 62/28/28 33/29/29 34/30/30
f 3/31/31 1/23/23 38/26/26 39/32/32
f 62/28/28 63/33/33 32/34/34 33/29/29
f 4/35/35 3/31/31 39/32/32 40/36/36
f 63/33/33 64/37/37 31/38/38 32/34/34
f 5/39/39 85/40/40 86/41/41 41/42/42
f 91/43/43 65/44/44 50/45/45 90/46/46
f 6/47/47 5/39/39 41/42/42 42/48/48
f 65/44/44 66/49/49 49/50/50 50/45/45
f 7/51/51 6/47/47 42/48/48 43/52/52
f 66/49/49 67/53/53 48/54/54 49/50/50
f 8/55/55 7/51/51 43/52/52 44/56/56
f 67/53/53 68/57/57 47/58/58 48/54/54
f 9/59/59 8/55/55 44/56/56 45/60/60
f 68/57/57 69/61/61 46/62/62 47/58/58
f 2/24/24 10/63/63 36/64/64 37/25/25
f 70/65/65 61/27/27 34/30/30 35/66/66
f 32/34/34 31/38/38 17/7/7 16/5/5
f 33/29/29 32/34/34 16/5/5 11/1/1
f 34/30/30 33/29/29 11/1/1 14/4/4
f 35/66/66 34/30/30 14/4/4 30/22/22
f 37/25/25 36/64/64 29/67/67 13/68/68
f 38/26/26 37/25/25 13/68/68 12/69/69
f 39/32/32 38/26/26 12/69/69 15/70/70
f 40/36/36 39/32/32 15/70/70 18/71/71
f 41/42/42 86/41/41 87/72/72 20/73/73
f 42/48/48 41/42/42 20/73/73 21/74/74
f 43/52/52 42/48/48 21/74/74 24/75/75
f 44/56/56 43/52/52 24/75/75 26/76/76
f 45/60/60 44/56/56 26/76/76 28/77/77
f 47/58/58 46/62/62 27/19/19 25/17/17
f 48/54/54 47/58/58 25/17/17 23/15/15
f 49/50/50 48/54/54 23/15/15 22/13/13
f 50/45/45 49/50/50 22/13/13 19/9/9
f 90/46/46 50/45/45 19/9/9 89/12/12
f 51/20/20 92/78/78 93/79/79 52/18/18
f 53/16/16 52/18/18 93/79/79 94/80/80
f 54/14/14 53/16/16 94/80/80 95/81/81
f 55/10/10 54/14/14 95/81/81 96/82/82
f 88/11/11 55/10/10 96/82/82 97/83/83
f 57/6/6 56/8/8 100/84/84 101/85/85
f 58/2/2 57/6/6 101/85/85 102/86/86
f 59/3/3 58/2/2 102/86/86 103/87/87
f 60/21/21 59/3/3 103/87/87 104/88/88
f 71/89/89 4/35/35 40/36/36 72/90/90
f 73/91/91 72/90/90 40/36/36 18/71/71
f 56/8/8 74/92/92 99/93/93 100/84/84
f 75/94/94 74/92/92 56/8/8 17/7/7
f 31/38/38 76/95/95 75/94/94 17/7/7
f 64/37/37 77/96/96 76/95/95 31/38/38
f 79/97/97 78/98/98 71/89/89 72/90/90
f 73/91/91 80/99/99 79/97/97 72/90/90
f 74/92/92 81/100/100 98/101/101 99/93/93
f 82/102/102 81/100/100 74/92/92 75/94/94
f 76/95/95 83/103/103 82/102/102 75/94/94
f 77/96/96 84/104/104 83/103/103 76/95/95
f 86/41/41 85/40/40 78/98/98 79/97/97
f 80/99/99 87/72/72 86/41/41 79/97/97
f 81/100/100 88/11/11 97/83/83 98/101/101
f 89/12/12 88/11/11 81/100/100 82/102/102
f 83/103/103 90/46/46 89/12/12 82/102/102
f 84/104/104 91/43/43 90/46/46 83/103/103
f 92/78/78 105/105/105 106/106/106 93/79/79
f 94/80/80 93/79/79 106/106/106 107/107/107
f 95/81/81 94/80/80 107/107/107 108/108/108
f 96/82/82 95/81/81 108/108/108 109/109/109
f 97/83/83 96/82/82 109/109/109 110/110/110
f 98/101/101 97/83/83 110/110/110 111/111/111
f 99/93/93 98/101/101 111/111/111 112/112/112
f 100/84/84 99/93/93 112/112/112 113/113/113
f 101/85/85 100/84/84 113/113/113 114/114/114
f 102/86/86 101/85/85 114/114/114 115/115/115
f 103/87/87 102/86/86 115/115/115 116/116/116
f 104/88/88 103/87/87 116/116/116 117/117/117
f 105/105/105 28/77/77 26/76/76 106/106/106
f 107/107/107 106/106/106 26/76/76 24/75/75
f 108/108/108 107/107/107 24/75/75 21/74/74
f 109/109/109 108/108/108 21/74/74 20/73/73
f 110/110/110 109/109/109 20/73/73 87/72/72
f 110/110/110 87/72/72 80/99/99 111/111/111
f 111/111/111 80/99/99 73/91/91 112/112/112
f 113/113/113 112/112/112 73/91/91 18/71/71
f 114/114/114 113/113/113 18/71/71 15/70/70
f 115/115/115 114/114/114 15/70/70 12/69/69
f 116/116/116 115/115/115 12/69/69 13/68/68
f 117/117/117 116/116/116 13/68/68 29/67/67
f 119/118/118 120/119/119 124/120/120 125/121/121
f 147/122/122 148/123/123 119/118/118 125/121/121
f 120/119/119 138/124/124 122/125/125 121/126/126
f 138/124/124 149/127/127 142/128/128 122/125/125
f 120/119/119 121/126/126 127/129/129 124/120/120
f 128/130/130 131/131/131 130/132/132 129/133/133
f 146/134/134 131/131/131 128/130/130 145/135/135
f 129/133/133 140/136/136 128/130/130
f 145/135/135 128/130/130 140/136/136 144/137/137
f 129/133/133 130/132/132 137/138/138 135/139/139
f 122/125/125 162/140/140 163/141/141 121/126/126
f 142/128/128 161/142/142 162/140/140 122/125/125
f 121/126/126 163/141/141 164/143/143 127/129/129
f 120/119/119 119/118/118 138/124/144
f 148/123/123 149/127/145 138/124/144 119/118/118
f 129/133/133 135/139/139 134/144/146 140/136/147
f 144/137/148 140/136/147 134/144/146 143/145/149
f 123/146/150 160/147/151 161/142/142 142/128/128
f 141/148/152 144/137/148 143/145/149 136/149/153
f 133/150/154 145/135/135 144/137/137 141/148/155
f 132/151/156 146/134/134 145/135/135 133/150/154
f 126/152/157 118/153/158 148/123/123 147/122/122
f 118/153/158 139/154/159 149/127/145 148/123/123
f 142/128/128 149/127/127 139/154/160 123/146/150
f 147/122/122 151/155/161 150/156/162 126/152/157
f 125/121/121 152/157/163 151/155/161 147/122/122
f 124/120/120 153/158/164 152/157/163 125/121/121
f 127/129/129 154/159/165 153/158/164 124/120/120
f 164/143/143 165/160/166 154/159/165 127/129/129
f 130/132/132 156/161/167 155/162/168 137/138/138
f 131/131/131 157/163/169 156/161/167 130/132/132
f 146/134/134 158/164/170 157/163/169 131/131/131
f 132/151/156 159/165/171 158/164/170 146/134/134
f 160/147/151 136/149/153 143/145/149 161/142/142
f 162/140/140 161/142/142 143/145/149 134/144/146
f 163/141/141 162/140/140 134/144/146 135/139/139
f 164/143/143 163/141/141 135/139/139 137/138/138
f 137/138/138 155/162/168 165/160/166 164/143/143
