# This file uses meters as units for non-parametric coordinates.

v 187.918109 60.256847 -116.067939
v 187.918109 72.432204 -116.067939
v 220.854617 61.474261 -135.083839
v 219.763110 60.256847 -134.453659
v 206.934008 61.474261 -149.004440
v 206.303836 60.256847 -147.912933
v 187.918109 61.474261 -154.099739
v 187.918109 60.256847 -152.839378
v 168.902209 61.474261 -149.004440
v 169.532382 60.256847 -147.912933
v 154.981601 61.474261 -135.083839
v 156.073108 60.256847 -134.453659
v 149.886310 61.474261 -116.067939
v 151.146670 60.256847 -116.067939
v 154.981601 61.474261 -97.052040
v 156.073108 60.256847 -97.682220
v 168.902209 61.474261 -83.131439
v 169.532382 60.256847 -84.222942
v 187.918109 61.474261 -78.036136
v 187.918109 60.256847 -79.296497
v 206.934008 61.474261 -83.131439
v 206.303836 60.256847 -84.222942
v 220.854617 61.474261 -97.052040
v 219.763110 60.256847 -97.682220
v 225.949908 61.474261 -116.067939
v 224.689547 60.256847 -116.067939
v 220.854617 71.214790 -135.083839
v 219.763110 72.432204 -134.453659
v 206.934008 71.214790 -149.004440
v 206.303836 72.432204 -147.912933
v 187.918109 71.214790 -154.099739
v 187.918109 72.432204 -152.839378
v 168.902209 71.214790 -149.004440
v 169.532382 72.432204 -147.912933
v 154.981601 71.214790 -135.083839
v 156.073108 72.432204 -134.453659
v 149.886310 71.214790 -116.067939
v 151.146670 72.432204 -116.067939
v 154.981601 71.214790 -97.052040
v 156.073108 72.432204 -97.682220
v 168.902209 71.214790 -83.131439
v 169.532382 72.432204 -84.222942
v 187.918109 71.214790 -78.036136
v 187.918109 72.432204 -79.296497
v 206.934008 71.214790 -83.131439
v 206.303836 72.432204 -84.222942
v 220.854617 71.214790 -97.052040
v 219.763110 72.432204 -97.682220
v 225.949908 71.214790 -116.067939
v 224.689547 72.432204 -116.067939
vt 0.518165 0.639743
vt 0.518299 0.654497
vt 0.526226 0.654497
vt 0.614760 0.654497
vt 0.606833 0.654497
vt 0.563668 0.685963
vt 0.534286 0.654497
vt 0.606676 0.712780
vt 0.542347 0.654497
vt 0.613330 0.687949
vt 0.550408 0.654497
vt 0.606676 0.663118
vt 0.558469 0.654497
vt 0.588499 0.644941
vt 0.566529 0.654497
vt 0.563668 0.638287
vt 0.574590 0.654497
vt 0.538836 0.644941
vt 0.582651 0.654497
vt 0.520659 0.663118
vt 0.590711 0.654497
vt 0.514005 0.687949
vt 0.598772 0.654497
vt 0.520659 0.712780
vt 0.538836 0.730958
vt 0.614894 0.736766
vt 0.614760 0.722013
vt 0.606833 0.722013
vt 0.518299 0.722013
vt 0.526226 0.722013
vt 0.563668 0.737612
vt 0.534286 0.722013
vt 0.588499 0.730958
vt 0.542347 0.722013
vt 0.614984 0.687559
vt 0.550408 0.722013
vt 0.563810 0.685512
vt 0.558469 0.722013
vt 0.608128 0.713146
vt 0.566529 0.722013
vt 0.589397 0.731877
vt 0.574590 0.722013
vt 0.563810 0.738733
vt 0.582650 0.722013
vt 0.538222 0.731877
vt 0.590711 0.722013
vt 0.519491 0.713146
vt 0.598772 0.722013
vt 0.512635 0.687559
vt 0.519491 0.661972
vt 0.526226 0.639743
vt 0.518165 0.736766
vt 0.534286 0.639743
vt 0.526226 0.736766
vt 0.542347 0.639743
vt 0.534286 0.736766
vt 0.550408 0.639743
vt 0.542347 0.736766
vt 0.558469 0.639743
vt 0.550408 0.736766
vt 0.566529 0.639743
vt 0.558469 0.736766
vt 0.574590 0.639743
vt 0.566529 0.736766
vt 0.582650 0.639743
vt 0.574590 0.736766
vt 0.590711 0.639743
vt 0.582650 0.736766
vt 0.598772 0.639743
vt 0.590711 0.736766
vt 0.606833 0.639743
vt 0.598772 0.736766
vt 0.614894 0.639743
vt 0.606832 0.736766
vt 0.608128 0.661972
vt 0.589397 0.643240
vt 0.563810 0.636384
vt 0.538222 0.643240
vn 0.601668 -0.719254 -0.347373
vn 0.601668 -0.719254 -0.347374
vn 0.347374 -0.719254 -0.601668
vn 0.347373 -0.719254 -0.601669
vn 0.694747 -0.719255 0.000000
vn 0.694747 -0.719255 0.000000
vn -0.000000 -0.719255 -0.694746
vn -0.000000 -0.719255 -0.694746
vn -0.347374 -0.719254 -0.601668
vn -0.347373 -0.719254 -0.601669
vn -0.601668 -0.719254 -0.347374
vn -0.601668 -0.719254 -0.347373
vn -0.694747 -0.719255 0.000000
vn -0.694747 -0.719255 0.000000
vn -0.601668 -0.719254 0.347373
vn -0.601668 -0.719254 0.347373
vn -0.347374 -0.719254 0.601668
vn -0.347373 -0.719254 0.601669
vn 0.000000 -0.719254 0.694747
vn 0.000000 -0.719254 0.694747
vn 0.347374 -0.719254 0.601668
vn 0.347373 -0.719254 0.601669
vn 0.601668 -0.719254 0.347374
vn 0.601668 -0.719254 0.347373
vn 0.601668 0.719254 -0.347373
vn 0.601668 0.719254 -0.347373
vn 0.694747 0.719255 0.000000
vn 0.694747 0.719255 0.000000
vn 0.347373 0.719254 -0.601669
vn 0.347374 0.719254 -0.601668
vn 0.000000 0.719255 -0.694746
vn 0.000000 0.719255 -0.694747
vn -0.347373 0.719254 -0.601669
vn -0.347374 0.719254 -0.601668
vn -0.601668 0.719254 -0.347373
vn -0.601668 0.719254 -0.347373
vn -0.694747 0.719255 0.000000
vn -0.694747 0.719255 0.000000
vn -0.601668 0.719254 0.347373
vn -0.601668 0.719254 0.347373
vn -0.347373 0.719254 0.601669
vn -0.347374 0.719254 0.601668
vn 0.000000 0.719254 0.694747
vn 0.000000 0.719254 0.694747
vn 0.347373 0.719254 0.601669
vn 0.347374 0.719254 0.601668
vn 0.601668 0.719254 0.347373
vn 0.601668 0.719254 0.347373
vn 0.866025 0.000000 -0.500000
vn 0.500000 0.000000 -0.866025
vn 0.500000 0.000000 -0.866025
vn 0.866025 0.000000 -0.500000
vn 0.000000 0.000000 -1.000000
vn 0.000000 0.000000 -1.000000
vn -0.500000 0.000000 -0.866025
vn -0.500000 0.000000 -0.866025
vn -0.866025 0.000000 -0.500000
vn -0.866025 0.000000 -0.500000
vn -1.000000 0.000000 0.000000
vn -1.000000 0.000000 0.000000
vn -0.866025 0.000000 0.500000
vn -0.866025 0.000000 0.500000
vn -0.500000 0.000000 0.866025
vn -0.500000 0.000000 0.866025
vn 0.000000 0.000000 1.000000
vn 0.000000 0.000000 1.000000
vn 0.500000 0.000000 0.866025
vn 0.500000 0.000000 0.866025
vn 0.866025 0.000000 0.500000
vn 0.866025 0.000000 0.500000
vn 1.000000 0.000000 0.000000
vn 1.000000 0.000000 0.000000
vn 0.000000 -1.000000 0.000000
vn 0.000000 -1.000000 -0.000000
vn 0.000000 -1.000000 -0.000000
vn 0.000000 -1.000000 0.000000
vn 0.000000 -1.000000 0.000000
vn 0.000000 -1.000000 0.000000
vn 0.000000 -1.000000 0.000000
vn 0.000000 -1.000000 0.000000
vn 0.000000 -1.000000 -0.000000
vn 0.000000 -1.000000 0.000000
vn 0.000000 -1.000000 -0.000000
vn 0.000000 -1.000000 -0.000000
vn 0.000000 -1.000000 -0.000000
vn 0.000000 1.000000 0.000000
vn 0.000000 1.000000 0.000000
vn 0.000000 1.000000 -0.000000
vn 0.000000 1.000000 0.000000
vn 0.000000 1.000000 0.000000
vn 0.000000 1.000000 -0.000000
vn 0.000000 1.000000 0.000000
vn 0.000000 1.000000 0.000000
vn 0.000000 1.000000 -0.000000
vn 0.000000 1.000000 0.000000
vn 0.000000 1.000000 -0.000000
vn 0.000000 1.000000 0.000000
vn 0.000000 1.000000 0.000000
f 3/1/1 4/2/2 6/3/3 5/51/4
f 4/4/2 3/73/1 25/71/5 26/5/6
f 5/51/4 6/3/3 8/7/7 7/53/8
f 7/53/8 8/7/7 10/9/9 9/55/10
f 9/55/10 10/9/9 12/11/11 11/57/12
f 11/57/12 12/11/11 14/13/13 13/59/14
f 13/59/14 14/13/13 16/15/15 15/61/16
f 15/61/16 16/15/15 18/17/17 17/63/18
f 17/63/18 18/17/17 20/19/19 19/65/20
f 19/65/20 20/19/19 22/21/21 21/67/22
f 21/67/22 22/21/21 24/23/23 23/69/24
f 23/69/24 24/23/23 26/5/6 25/71/5
f 27/26/25 28/27/26 50/28/27 49/74/28
f 28/29/26 27/52/25 29/54/29 30/30/30
f 30/30/30 29/54/29 31/56/31 32/32/32
f 32/32/32 31/56/31 33/58/33 34/34/34
f 34/34/34 33/58/33 35/60/35 36/36/36
f 36/36/36 35/60/35 37/62/37 38/38/38
f 38/38/38 37/62/37 39/64/39 40/40/40
f 40/40/40 39/64/39 41/66/41 42/42/42
f 42/42/42 41/66/41 43/68/43 44/44/44
f 44/44/44 43/68/43 45/70/45 46/46/46
f 46/46/46 45/70/45 47/72/47 48/48/48
f 48/48/48 47/72/47 49/74/28 50/28/27
f 3/1/49 5/51/50 29/54/51 27/52/52
f 5/51/50 7/53/53 31/56/54 29/54/51
f 7/53/53 9/55/55 33/58/56 31/56/54
f 9/55/55 11/57/57 35/60/58 33/58/56
f 11/57/57 13/59/59 37/62/60 35/60/58
f 13/59/59 15/61/61 39/64/62 37/62/60
f 15/61/61 17/63/63 41/66/64 39/64/62
f 17/63/63 19/65/65 43/68/66 41/66/64
f 19/65/65 21/67/67 45/70/68 43/68/66
f 21/67/67 23/69/69 47/72/70 45/70/68
f 23/69/69 25/71/71 49/74/72 47/72/70
f 25/71/71 3/73/49 27/26/52 49/74/72
f 6/76/73 4/75/74 1/37/75
f 8/77/76 6/76/73 1/37/75
f 10/78/77 8/77/76 1/37/75
f 12/50/78 10/78/77 1/37/75
f 14/49/79 12/50/78 1/37/75
f 16/47/80 14/49/79 1/37/75
f 18/45/81 16/47/80 1/37/75
f 20/43/82 18/45/81 1/37/75
f 22/41/83 20/43/82 1/37/75
f 24/39/84 22/41/83 1/37/75
f 26/35/85 24/39/84 1/37/75
f 4/75/74 26/35/85 1/37/75
f 28/8/86 30/33/87 2/6/88
f 30/33/87 32/31/89 2/6/88
f 32/31/89 34/25/90 2/6/88
f 34/25/90 36/24/91 2/6/88
f 36/24/91 38/22/92 2/6/88
f 38/22/92 40/20/93 2/6/88
f 40/20/93 42/18/94 2/6/88
f 42/18/94 44/16/95 2/6/88
f 44/16/95 46/14/96 2/6/88
f 46/14/96 48/12/97 2/6/88
f 48/12/97 50/10/98 2/6/88
f 50/10/98 28/8/86 2/6/88
