# This file uses meters as units for non-parametric coordinates.

v 29.254685 15.430227 -54.494057
v 29.254695 15.430236 47.672279
v -14.329769 15.430227 -54.494057
v -14.329769 15.430236 47.672279
v -57.914254 15.430236 -3.410889
v -14.329790 -6.986095 -3.410860
v 29.254706 -6.986095 -3.410860
v 72.839186 15.430236 -3.410889
v -57.914244 15.430231 38.739412
v -49.198220 15.430236 47.672279
v 64.123157 15.430236 47.672279
v 72.839191 15.430231 38.739412
v -57.914244 15.430227 -45.561189
v -49.198220 15.430227 -54.494057
v 72.839186 15.430227 -45.561189
v 64.123151 15.430227 -54.494057
v 29.254706 15.430236 3.526403
v -14.329790 15.430236 3.526403
v 29.254695 15.430219 -10.348195
v -14.329790 15.430219 -10.348195
v 24.050467 15.430236 -3.410889
v -9.125556 15.430236 -3.410889
v -19.534013 15.430236 -3.410889
v 34.458924 15.430236 -3.410889
v 31.433920 17.079558 -11.625269
v 31.433910 17.079549 -51.939909
v 35.548547 17.079549 -5.965051
v 70.659956 17.079549 -5.965051
v 70.659956 17.079541 -43.900314
v 62.815529 17.079549 -51.939909
v 70.659956 17.079566 -0.856727
v 35.548539 17.079566 -0.856727
v 31.433931 17.079558 4.803477
v 31.433920 17.079558 45.118103
v 62.815534 17.079558 45.118103
v 70.659961 17.079536 37.078522
v -12.150555 17.079558 -11.625269
v -12.150570 17.079549 -51.939909
v -8.035941 17.079549 -5.965051
v 22.960852 17.079549 -5.965051
v 27.075476 17.079558 -11.625269
v 27.075465 17.079549 -51.939909
v -20.623628 17.079549 -5.965051
v -55.735024 17.079549 -5.965051
v -16.509020 17.079558 -11.625269
v -16.508999 17.079549 -51.939909
v -47.890587 17.079549 -51.939909
v -55.735014 17.079541 -43.900314
v -47.890587 17.079558 45.118103
v -55.735014 17.079536 37.078522
v -16.508999 17.079558 45.118103
v -16.509020 17.079549 4.803477
v -20.623628 17.079566 -0.856727
v -55.735024 17.079566 -0.856727
v -12.150544 17.079558 4.803477
v -8.035941 17.079566 -0.856727
v -12.150555 17.079558 45.118103
v 27.075476 17.079558 45.118103
v 27.075486 17.079558 4.803477
v 22.960852 17.079566 -0.856727
v 29.254706 -3.493388 -54.494028
v 29.254706 -6.986095 -51.001304
v 62.711555 -6.986095 -51.001304
v 64.123157 -3.493388 -54.494028
v 29.254706 -3.493388 47.672279
v 29.254706 -6.986091 44.179585
v 62.711566 -6.986091 44.179585
v 64.123167 -3.493388 47.672279
v -14.329769 -3.493388 -54.494028
v -14.329769 -6.986095 -51.001304
v -14.329769 -6.986091 44.179585
v -14.329769 -3.493388 47.672279
v -54.506338 -6.986095 -3.410860
v -57.914254 -3.493388 -3.410874
v -54.506327 -6.986091 37.292704
v -57.914244 -3.493388 38.739426
v 72.839191 -3.493388 -3.410874
v 69.431280 -6.986095 -3.410860
v 69.431280 -6.986091 37.292704
v 72.839202 -3.493388 38.739426
v -47.786618 -6.986091 44.179585
v -49.198220 -3.493388 47.672279
v -54.506327 -6.986103 -44.114437
v -57.914244 -3.493396 -45.561160
v -47.786618 -6.986095 -51.001304
v -49.198220 -3.493388 -54.494028
v 69.431269 -6.986103 -44.114437
v 72.839191 -3.493396 -45.561160
vt 0.098332 0.759570
vt 0.108444 0.773631
vt 0.097897 0.759410
vt 0.108678 0.774078
vt 0.029914 0.758898
vt 0.019133 0.772959
vt 0.030867 0.758738
vt 0.019367 0.774709
vt 0.105194 0.858793
vt 0.104527 0.776614
vt 0.026212 0.843010
vt 0.042113 0.859277
vt 0.025500 0.764760
vt 0.096078 0.765268
vt 0.104255 0.776167
vt 0.024872 0.837402
vt 0.022919 0.858121
vt 0.023599 0.775942
vt 0.103979 0.776547
vt 0.103299 0.858726
vt 0.105320 0.841061
vt 0.024816 0.775875
vt 0.025493 0.858054
vt 0.089464 0.857570
vt 0.103961 0.839233
vt 0.024541 0.776861
vt 0.033023 0.766082
vt 0.104598 0.766591
vt 0.032212 0.765900
vt 0.023876 0.776798
vt 0.104256 0.776230
vt 0.095729 0.765451
vt 0.107699 0.863620
vt 0.096162 0.765140
vt 0.021183 0.760162
vt 0.025584 0.765681
vt 0.021880 0.846083
vt 0.039548 0.864158
vt 0.109423 0.858613
vt 0.103588 0.853365
vt 0.037858 0.858107
vt 0.040507 0.852910
vt 0.020485 0.840876
vt 0.018388 0.862948
vt 0.032126 0.764468
vt 0.095643 0.764946
vt 0.109105 0.758146
vt 0.033109 0.764274
vt 0.104684 0.763732
vt 0.092194 0.862410
vt 0.109812 0.844067
vt 0.108398 0.842770
vt 0.090480 0.859749
vt 0.087836 0.854514
vt 0.020112 0.859244
vt 0.023864 0.854059
vt 0.024556 0.853996
vt 0.104936 0.853428
vt 0.107448 0.859650
vt 0.107461 0.851797
vt 0.021352 0.851125
vt 0.021365 0.858978
vt 0.039795 0.860187
vt 0.042620 0.852313
vt 0.022126 0.842113
vt 0.028998 0.838379
vt 0.109172 0.862342
vt 0.109066 0.856342
vt 0.041045 0.855857
vt 0.038104 0.861837
vt 0.019861 0.862973
vt 0.019755 0.856974
vt 0.027651 0.842572
vt 0.020732 0.844605
vt 0.089554 0.850610
vt 0.092444 0.858440
vt 0.090730 0.863478
vt 0.087957 0.857458
vt 0.102454 0.766425
vt 0.109355 0.765786
vt 0.110062 0.840097
vt 0.103137 0.836468
vt 0.101771 0.844368
vt 0.108647 0.846499
vt 0.021429 0.763892
vt 0.028325 0.764629
vt 0.018952 0.765843
vt 0.108264 0.765211
vt 0.067860 0.821360
vt 0.056091 0.836709
vt 0.044578 0.821184
vt 0.056347 0.805835
vt 0.068173 0.821819
vt 0.056404 0.837168
vt 0.044891 0.821643
vt 0.056660 0.806294
vt 0.024450 0.801039
vt 0.024450 0.821234
vt 0.066830 0.820992
vt 0.066830 0.801279
vt 0.116529 0.820583
vt 0.116529 0.801690
vt 0.086759 0.801582
vt 0.086759 0.820691
vt 0.077298 0.801443
vt 0.077298 0.820829
vt 0.042895 0.820835
vt 0.042895 0.801437
vt 0.054696 0.820229
vt 0.008333 0.820210
vt 0.008333 0.802063
vt 0.054696 0.802044
vt 0.049195 0.801556
vt 0.019243 0.801465
vt 0.019243 0.820808
vt 0.049195 0.820717
vt 0.115362 0.801538
vt 0.115362 0.820734
vt 0.087562 0.820708
vt 0.087562 0.801564
vt 0.008982 0.800921
vt 0.008983 0.821350
vt 0.008192 0.801355
vt 0.008192 0.820917
vt 0.102115 0.820402
vt 0.102114 0.801871
vn 0.000000 1.000000 -0.000001
vn 0.000000 1.000000 -0.000001
vn 0.000000 1.000000 -0.000001
vn 0.000000 1.000000 -0.000001
vn 0.000000 1.000000 -0.000001
vn 0.000000 1.000000 -0.000001
vn 0.000000 1.000000 -0.000001
vn 0.000000 1.000000 -0.000001
vn -0.071088 0.996066 -0.052906
vn -0.053312 0.998567 0.004709
vn 0.054113 0.998500 -0.008363
vn 0.010979 0.998586 -0.052012
vn 0.071805 0.995457 -0.062520
vn -0.009477 0.998213 -0.058992
vn -0.053312 0.998567 -0.004709
vn 0.054114 0.998500 0.008363
vn -0.044045 0.998189 -0.040974
vn -0.046037 0.998931 0.004066
vn 0.046037 0.998931 0.004066
vn 0.044045 0.998189 -0.040974
vn -0.054113 0.998500 -0.008363
vn 0.053312 0.998567 0.004709
vn 0.071088 0.996066 -0.052906
vn -0.010979 0.998586 -0.052012
vn -0.054114 0.998500 0.008363
vn 0.053312 0.998567 -0.004709
vn 0.009477 0.998213 -0.058992
vn -0.071805 0.995457 -0.062520
vn -0.031110 0.984603 -0.172012
vn -0.046037 0.998931 -0.004066
vn 0.046037 0.998932 -0.004066
vn 0.031110 0.984603 -0.172012
vn -0.341823 0.895078 -0.286345
vn -0.581260 0.811446 0.060762
vn -0.073891 0.852765 0.517042
vn -0.009477 0.998213 0.058992
vn 0.315906 0.896857 0.309599
vn 0.071805 0.995457 0.062520
vn 0.548715 0.829540 -0.103799
vn 0.099689 0.858372 -0.503249
vn 0.315906 0.896856 -0.309602
vn -0.073890 0.852762 -0.517046
vn -0.581258 0.811447 -0.060762
vn -0.341819 0.895079 0.286344
vn -0.071087 0.996066 0.052906
vn 0.099688 0.858374 0.503246
vn 0.010979 0.998586 0.052012
vn 0.548716 0.829540 0.103798
vn -0.304904 0.897276 -0.319265
vn -0.581261 0.811445 0.060762
vn -0.082810 0.853938 0.513743
vn -0.031110 0.984603 0.172013
vn 0.082810 0.853938 0.513743
vn 0.031110 0.984603 0.172013
vn 0.581261 0.811446 0.060762
vn 0.304904 0.897276 -0.319264
vn -0.315906 0.896857 0.309599
vn 0.073891 0.852764 0.517043
vn 0.009477 0.998213 0.058992
vn -0.071805 0.995457 0.062520
vn 0.581259 0.811447 0.060762
vn 0.341823 0.895078 -0.286344
vn -0.099689 0.858372 -0.503250
vn -0.548716 0.829540 -0.103799
vn -0.548715 0.829540 0.103798
vn -0.099688 0.858374 0.503246
vn -0.010979 0.998586 0.052012
vn 0.341818 0.895080 0.286344
vn 0.071087 0.996066 0.052906
vn 0.581256 0.811449 -0.060762
vn 0.073890 0.852762 -0.517046
vn -0.315906 0.896856 -0.309602
vn -0.082809 0.853936 -0.513747
vn -0.581257 0.811448 -0.060762
vn -0.304900 0.897278 0.319263
vn -0.044045 0.998189 0.040974
vn 0.304900 0.897277 0.319263
vn 0.044045 0.998189 0.040974
vn 0.581259 0.811447 -0.060762
vn 0.082809 0.853936 -0.513747
vn 0.000000 -0.707108 -0.707105
vn 0.000000 -0.707108 -0.707105
vn 0.000000 -0.707108 -0.707105
vn 0.000000 -0.707108 -0.707105
vn 0.123780 -0.726237 -0.676208
vn 0.130980 -0.726985 -0.674046
vn 0.687967 -0.717214 -0.110930
vn 0.689757 -0.716418 -0.104792
vn 0.000000 -0.707106 0.707108
vn 0.000000 -0.707106 0.707108
vn 0.130980 -0.726983 0.674048
vn 0.123781 -0.726236 0.676210
vn 0.000000 -0.707106 0.707108
vn 0.000000 -0.707106 0.707108
vn 0.689756 -0.716418 0.104793
vn 0.687967 -0.717214 0.110930
vn -0.130980 -0.726985 -0.674046
vn -0.123780 -0.726237 -0.676208
vn -0.123781 -0.726236 0.676210
vn -0.130980 -0.726983 0.674048
vn -0.715741 -0.698366 0.000000
vn -0.715741 -0.698366 0.000000
vn -0.687967 -0.717214 -0.110930
vn -0.689756 -0.716418 -0.104792
vn -0.689756 -0.716418 0.104793
vn -0.687967 -0.717214 0.110930
vn 0.715742 -0.698365 -0.000000
vn 0.715742 -0.698365 0.000000
vn -0.200781 0.000000 0.979636
vn -0.200781 0.000000 0.979636
vn 0.000000 0.000000 1.000000
vn 0.000000 0.000000 1.000000
vn -0.200782 -0.000001 -0.979636
vn -0.200782 -0.000001 -0.979636
vn 0.000000 -0.000002 -1.000000
vn 0.000000 -0.000002 -1.000000
vn 0.000000 -1.000000 0.000000
vn 0.000000 -1.000000 0.000000
vn -0.000000 -1.000000 0.000000
vn -0.000000 -1.000000 0.000000
vn -0.000000 -1.000000 0.000000
vn 0.985754 0.000000 0.168194
vn 0.985754 0.000000 0.168194
vn 1.000000 0.000000 -0.000000
vn 1.000000 0.000000 -0.000000
vn -1.000000 0.000000 -0.000000
vn -0.985754 0.000000 0.168194
vn -0.985754 0.000000 0.168194
vn -1.000000 0.000000 0.000000
vn 0.000000 -0.000002 -1.000000
vn 0.200782 -0.000001 -0.979636
vn 0.200782 -0.000001 -0.979636
vn 0.000000 -0.000002 -1.000000
vn 0.000000 -1.000000 0.000000
vn -0.000000 -1.000000 0.000000
vn -0.000000 -1.000000 0.000000
vn 0.000000 -1.000000 0.000000
vn 0.000000 -1.000000 0.000000
vn 0.000000 0.000000 1.000000
vn 0.000000 0.000000 1.000000
vn 0.200781 0.000000 0.979636
vn 0.200781 0.000000 0.979636
vn -0.985754 -0.000000 -0.168194
vn -0.985754 -0.000000 -0.168193
vn 0.000000 -1.000000 0.000000
vn -0.000000 -1.000000 0.000000
vn -0.000000 -1.000000 0.000000
vn -0.000000 -1.000000 0.000000
vn 0.985754 0.000000 -0.168193
vn 0.985754 0.000000 -0.168194
vn 0.000000 -1.000000 0.000000
vn 0.000000 -1.000000 0.000000
f 24/89/1 19/90/2 21/91/3 17/92/4
f 22/93/5 20/94/6 23/95/7 18/96/8
f 26/9/9 25/10/10 29/11/11 30/12/12
f 31/13/13 32/14/14 33/15/15 36/16/16
f 38/17/17 37/18/18 41/19/19 42/20/20
f 48/21/21 45/22/22 46/23/23 47/24/24
f 50/25/25 52/26/26 53/27/27 54/28/28
f 56/29/29 55/30/30 59/31/31 60/32/32
f 1/33/33 19/2/34 25/10/10 26/9/9
f 19/2/34 24/1/35 27/34/36 25/10/10
f 24/1/35 8/35/37 28/36/38 27/34/36
f 8/35/37 15/37/39 29/11/11 28/36/38
f 15/37/39 16/38/40 30/12/12 29/11/11
f 16/38/40 1/33/33 26/9/9 30/12/12
f 8/35/41 24/1/42 32/14/14 31/13/13
f 24/1/42 17/4/43 33/15/15 32/14/14
f 17/4/43 2/39/44 34/40/45 33/15/15
f 2/39/44 11/41/46 35/42/47 34/40/45
f 11/41/46 12/43/48 36/16/16 35/42/47
f 12/43/48 8/35/41 31/13/13 36/16/16
f 3/44/49 20/6/50 37/18/18 38/17/17
f 20/6/50 22/5/51 39/45/52 37/18/18
f 22/5/51 21/3/53 40/46/54 39/45/52
f 21/3/53 19/2/55 41/19/19 40/46/54
f 19/2/55 1/33/56 42/20/20 41/19/19
f 1/33/56 3/44/49 38/17/17 42/20/20
f 5/47/57 23/7/58 43/48/59 44/49/60
f 23/7/58 20/6/61 45/22/22 43/48/59
f 20/6/61 3/44/62 46/23/23 45/22/22
f 3/44/62 14/50/63 47/24/24 46/23/23
f 14/50/63 13/51/64 48/21/21 47/24/24
f 13/51/64 5/47/57 44/49/60 48/21/21
f 9/52/65 10/53/66 49/54/67 50/25/25
f 10/53/66 4/55/68 51/56/69 49/54/67
f 4/55/68 18/8/70 52/26/26 51/56/69
f 18/8/70 23/7/71 53/27/27 52/26/26
f 23/7/71 5/47/72 54/28/28 53/27/27
f 5/47/72 9/52/65 50/25/25 54/28/28
f 22/5/73 18/8/74 55/30/30 56/29/29
f 18/8/74 4/55/75 57/57/76 55/30/30
f 4/55/75 2/39/77 58/58/78 57/57/76
f 2/39/77 17/4/79 59/31/31 58/58/78
f 17/4/79 21/3/80 60/32/32 59/31/31
f 21/3/80 22/5/73 56/29/29 60/32/32
f 44/49/60 43/48/59 45/22/22 48/21/21
f 50/25/25 49/54/67 51/56/69 52/26/26
f 59/31/31 55/30/30 57/57/76 58/58/78
f 41/19/19 37/18/18 39/45/52 40/46/54
f 29/11/11 25/10/10 27/34/36 28/36/38
f 36/16/16 33/15/15 34/40/45 35/42/47
f 61/59/81 62/60/82 70/61/83 69/62/84
f 62/60/82 61/59/81 64/63/85 63/64/86
f 63/64/86 64/63/85 88/65/87 87/66/88
f 65/67/89 66/68/90 67/69/91 68/70/92
f 66/68/90 65/67/89 72/71/93 71/72/94
f 68/70/92 67/69/91 79/73/95 80/74/96
f 69/62/84 70/61/83 85/75/97 86/76/98
f 71/72/94 72/71/93 82/77/99 81/78/100
f 73/79/101 74/80/102 84/81/103 83/82/104
f 74/80/102 73/79/101 75/83/105 76/84/106
f 76/84/106 75/83/105 81/78/100 82/77/99
f 77/85/107 78/86/108 87/66/88 88/65/87
f 78/86/108 77/85/107 80/74/96 79/73/95
f 83/82/104 84/81/103 86/76/98 85/75/97
f 10/97/109 82/98/110 72/99/111 4/100/112
f 86/101/113 14/102/114 3/103/115 69/104/116
f 73/79/117 6/87/118 71/72/119 81/78/120 75/83/121
f 12/105/122 80/106/123 77/107/124 8/108/125
f 74/109/126 76/110/127 9/111/128 5/112/129
f 1/113/130 16/114/131 64/115/132 61/116/133
f 66/68/134 7/88/135 78/86/136 79/73/137 67/69/138
f 2/117/139 65/118/140 68/119/141 11/120/142
f 3/103/115 1/113/130 61/116/133 69/104/116
f 71/72/119 6/87/118 7/88/135 66/68/134
f 4/100/112 72/99/111 65/118/140 2/117/139
f 13/126/143 84/125/144 74/109/126 5/112/129
f 7/88/135 6/87/118 70/61/145 62/60/146
f 78/86/136 7/88/135 62/60/146 63/64/147 87/66/148
f 8/108/125 77/107/124 88/124/149 15/123/150
f 83/82/151 85/75/152 70/61/145 6/87/118 73/79/117
f 76/122/127 82/98/110 10/97/109 9/121/128
f 68/119/141 80/106/123 12/105/122 11/120/142
f 13/126/143 14/102/114 86/101/113 84/125/144
f 16/114/131 15/123/150 88/124/149 64/115/132
