# This file uses meters as units for non-parametric coordinates.

v 188.890169 37.141731 -107.199143
v 183.435235 37.141731 -109.458680
v 177.980300 37.141731 -107.199143
v 175.720762 37.141731 -101.744208
v 177.980300 37.141731 -96.289273
v 183.435235 37.141731 -94.029736
v 188.890169 37.141731 -96.289273
v 191.149707 37.141731 -101.744208
v 189.477838 60.256847 -107.786811
v 183.435235 60.256847 -110.289773
v 177.392631 60.256847 -107.786811
v 174.889670 60.256847 -101.744208
v 177.392631 60.256847 -95.701604
v 183.435235 60.256847 -93.198643
v 189.477838 60.256847 -95.701604
v 191.980799 60.256847 -101.744208
v 183.435235 37.924086 -93.198643
v 177.392631 37.924086 -95.701604
v 174.889670 37.924086 -101.744208
v 177.392631 37.924086 -107.786811
v 183.435235 37.924086 -110.289773
v 189.477838 37.924086 -107.786811
v 191.980799 37.924086 -101.744208
v 189.477838 37.924086 -95.701604
vt 0.617630 0.132969
vt 0.617630 0.138678
vt 0.617630 0.144387
vt 0.617630 0.150096
vt 0.617630 0.155805
vt 0.617630 0.161513
vt 0.617630 0.167222
vt 0.617630 0.172931
vt 0.617630 0.178640
vt 0.516605 0.132969
vt 0.516605 0.138678
vt 0.516605 0.144387
vt 0.516605 0.150096
vt 0.516605 0.155805
vt 0.516605 0.161513
vt 0.516605 0.167222
vt 0.516605 0.172931
vt 0.516605 0.178640
vt 0.615726 0.161513
vt 0.615726 0.155805
vt 0.615726 0.150096
vt 0.615726 0.144387
vt 0.615726 0.138678
vt 0.615726 0.178640
vt 0.615726 0.132969
vt 0.615726 0.172931
vt 0.615726 0.167222
vn 0.484676 -0.728133 -0.484676
vn 0.000000 -0.728135 -0.685434
vn 0.000000 -0.728135 -0.685434
vn 0.484676 -0.728133 -0.484676
vn -0.484676 -0.728133 -0.484676
vn -0.484676 -0.728133 -0.484676
vn -0.685435 -0.728134 -0.000000
vn -0.685434 -0.728134 -0.000000
vn -0.484676 -0.728133 0.484676
vn -0.484676 -0.728133 0.484676
vn -0.000000 -0.728135 0.685434
vn -0.000000 -0.728135 0.685434
vn 0.484676 -0.728133 0.484676
vn 0.484676 -0.728133 0.484676
vn 0.685435 -0.728134 0.000000
vn 0.685434 -0.728134 0.000000
vn -0.707107 0.000000 0.707107
vn 0.000000 0.000000 1.000000
vn 0.000000 0.000000 1.000000
vn -0.707107 0.000000 0.707107
vn -1.000000 0.000000 0.000000
vn -1.000000 0.000000 0.000000
vn -0.707107 0.000000 -0.707107
vn -0.707107 0.000000 -0.707107
vn 0.000000 0.000000 -1.000000
vn 0.000000 0.000000 -1.000000
vn 0.707107 0.000000 -0.707107
vn 0.707107 0.000000 -0.707107
vn 1.000000 0.000000 0.000000
vn 1.000000 0.000000 0.000000
vn 0.707107 0.000000 0.707107
vn 0.707107 0.000000 0.707107
f 1/1/1 2/2/2 21/23/3 22/25/4
f 2/2/2 3/3/5 20/22/6 21/23/3
f 3/3/5 4/4/7 19/21/8 20/22/6
f 4/4/7 5/5/9 18/20/10 19/21/8
f 5/5/9 6/6/11 17/19/12 18/20/10
f 6/6/11 7/7/13 24/27/14 17/19/12
f 7/7/13 8/8/15 23/26/16 24/27/14
f 8/8/15 1/9/1 22/24/4 23/26/16
f 18/20/17 17/19/18 14/15/19 13/14/20
f 19/21/21 18/20/17 13/14/20 12/13/22
f 20/22/23 19/21/21 12/13/22 11/12/24
f 21/23/25 20/22/23 11/12/24 10/11/26
f 22/25/27 21/23/25 10/11/26 9/10/28
f 23/26/29 22/24/27 9/18/28 16/17/30
f 24/27/31 23/26/29 16/17/30 15/16/32
f 17/19/18 24/27/31 15/16/32 14/15/19
