# This file uses meters as units for non-parametric coordinates.

v 29.254685 15.430227 -54.494057
v 29.254695 15.430236 47.672279
v -14.329769 15.430227 -54.494057
v -14.329769 15.430236 47.672279
v -57.914254 15.430236 -3.410889
v -14.329790 -6.986095 -3.410860
v 29.254706 -6.986095 -3.410860
v 72.839186 15.430236 -3.410889
v -57.914244 15.430231 38.739412
v -49.198220 15.430236 47.672279
v 64.123157 15.430236 47.672279
v 72.839191 15.430231 38.739412
v -57.914244 15.430227 -45.561189
v -49.198220 15.430227 -54.494057
v 72.839186 15.430227 -45.561189
v 64.123151 15.430227 -54.494057
v 29.254706 15.430236 3.526403
v -14.329790 15.430236 3.526403
v 29.254695 15.430219 -10.348195
v -14.329790 15.430219 -10.348195
v 24.050467 15.430236 -3.410889
v -9.125556 15.430236 -3.410889
v -19.534013 15.430236 -3.410889
v 34.458924 15.430236 -3.410889
v 31.433920 17.079558 -11.625269
v 31.433910 17.079549 -51.939909
v 35.548547 17.079549 -5.965051
v 70.659956 17.079549 -5.965051
v 70.659956 17.079541 -43.900314
v 62.815529 17.079549 -51.939909
v 70.659956 17.079566 -0.856727
v 35.548539 17.079566 -0.856727
v 31.433931 17.079558 4.803477
v 31.433920 17.079558 45.118103
v 62.815534 17.079558 45.118103
v 70.659961 17.079536 37.078522
v -12.150555 17.079558 -11.625269
v -12.150570 17.079549 -51.939909
v -8.035941 17.079549 -5.965051
v 22.960852 17.079549 -5.965051
v 27.075476 17.079558 -11.625269
v 27.075465 17.079549 -51.939909
v -20.623628 17.079549 -5.965051
v -55.735024 17.079549 -5.965051
v -16.509020 17.079558 -11.625269
v -16.508999 17.079549 -51.939909
v -47.890587 17.079549 -51.939909
v -55.735014 17.079541 -43.900314
v -47.890587 17.079558 45.118103
v -55.735014 17.079536 37.078522
v -16.508999 17.079558 45.118103
v -16.509020 17.079549 4.803477
v -20.623628 17.079566 -0.856727
v -55.735024 17.079566 -0.856727
v -12.150544 17.079558 4.803477
v -8.035941 17.079566 -0.856727
v -12.150555 17.079558 45.118103
v 27.075476 17.079558 45.118103
v 27.075486 17.079558 4.803477
v 22.960852 17.079566 -0.856727
v 29.254706 -3.493388 -54.494028
v 29.254706 -6.986095 -51.001304
v 62.711555 -6.986095 -51.001304
v 64.123157 -3.493388 -54.494028
v 29.254706 -3.493388 47.672279
v 29.254706 -6.986091 44.179585
v 62.711566 -6.986091 44.179585
v 64.123167 -3.493388 47.672279
v -14.329769 -3.493388 -54.494028
v -14.329769 -6.986095 -51.001304
v -14.329769 -6.986091 44.179585
v -14.329769 -3.493388 47.672279
v -54.506338 -6.986095 -3.410860
v -57.914254 -3.493388 -3.410874
v -54.506327 -6.986091 37.292704
v -57.914244 -3.493388 38.739426
v 72.839191 -3.493388 -3.410874
v 69.431280 -6.986095 -3.410860
v 69.431280 -6.986091 37.292704
v 72.839202 -3.493388 38.739426
v -47.786618 -6.986091 44.179585
v -49.198220 -3.493388 47.672279
v -54.506327 -6.986103 -44.114437
v -57.914244 -3.493396 -45.561160
v -47.786618 -6.986095 -51.001304
v -49.198220 -3.493388 -54.494028
v 69.431269 -6.986103 -44.114437
v 72.839191 -3.493396 -45.561160
vt 0.223332 0.258886
vt 0.233444 0.272947
vt 0.222897 0.258725
vt 0.233678 0.273393
vt 0.154914 0.258214
vt 0.144133 0.272275
vt 0.155867 0.258053
vt 0.144367 0.274025
vt 0.230194 0.358109
vt 0.229527 0.275930
vt 0.151212 0.342325
vt 0.167113 0.358592
vt 0.150500 0.264075
vt 0.221078 0.264583
vt 0.229255 0.275482
vt 0.149872 0.336717
vt 0.147919 0.357436
vt 0.148599 0.275257
vt 0.228979 0.275862
vt 0.228299 0.358041
vt 0.230320 0.340376
vt 0.149816 0.275190
vt 0.150493 0.357369
vt 0.214464 0.356885
vt 0.228961 0.338548
vt 0.149541 0.276176
vt 0.158023 0.265397
vt 0.229598 0.265906
vt 0.157212 0.265215
vt 0.148876 0.276113
vt 0.229256 0.275545
vt 0.220729 0.264766
vt 0.232699 0.362935
vt 0.221162 0.264455
vt 0.146183 0.259478
vt 0.150584 0.264997
vt 0.146880 0.345398
vt 0.164548 0.363473
vt 0.234423 0.357928
vt 0.228588 0.352680
vt 0.162858 0.357423
vt 0.165507 0.352225
vt 0.145485 0.340191
vt 0.143388 0.362263
vt 0.157126 0.263783
vt 0.220643 0.264261
vt 0.234105 0.257461
vt 0.158109 0.263589
vt 0.229684 0.263047
vt 0.217194 0.361725
vt 0.234812 0.343382
vt 0.233398 0.342085
vt 0.215480 0.359064
vt 0.212836 0.353829
vt 0.145112 0.358559
vt 0.148864 0.353375
vt 0.149556 0.353312
vt 0.229936 0.352743
vt 0.232448 0.358965
vt 0.232461 0.351113
vt 0.146352 0.350441
vt 0.146365 0.358293
vt 0.164795 0.359503
vt 0.167620 0.351628
vt 0.147126 0.341428
vt 0.153998 0.337694
vt 0.234172 0.361657
vt 0.234066 0.355657
vt 0.166045 0.355173
vt 0.163104 0.361152
vt 0.144861 0.362289
vt 0.144755 0.356289
vt 0.152651 0.341888
vt 0.145732 0.343920
vt 0.214554 0.349925
vt 0.217444 0.357755
vt 0.215730 0.362794
vt 0.212957 0.356774
vt 0.227454 0.265740
vt 0.234355 0.265101
vt 0.235062 0.339412
vt 0.228137 0.335783
vt 0.226771 0.343683
vt 0.233647 0.345814
vt 0.146429 0.263207
vt 0.153325 0.263945
vt 0.143952 0.265158
vt 0.233264 0.264527
vt 0.192860 0.320675
vt 0.181091 0.336024
vt 0.169578 0.320500
vt 0.181347 0.305151
vt 0.193173 0.321134
vt 0.181404 0.336483
vt 0.169891 0.320959
vt 0.181660 0.305610
vt 0.149450 0.300354
vt 0.149450 0.320549
vt 0.191830 0.320308
vt 0.191830 0.300595
vt 0.241529 0.319898
vt 0.241529 0.301006
vt 0.211759 0.300898
vt 0.211759 0.320006
vt 0.202298 0.300758
vt 0.202298 0.320144
vt 0.167895 0.320150
vt 0.167895 0.300753
vt 0.179696 0.319544
vt 0.133333 0.319525
vt 0.133333 0.301379
vt 0.179696 0.301360
vt 0.174195 0.300871
vt 0.144243 0.300780
vt 0.144243 0.320124
vt 0.174195 0.320032
vt 0.240362 0.300853
vt 0.240362 0.320050
vt 0.212562 0.320023
vt 0.212562 0.300879
vt 0.133982 0.300237
vt 0.133983 0.320666
vt 0.133192 0.300671
vt 0.133192 0.320233
vt 0.227115 0.319717
vt 0.227114 0.301186
vn 0.000000 1.000000 -0.000001
vn 0.000000 1.000000 -0.000001
vn 0.000000 1.000000 -0.000001
vn 0.000000 1.000000 -0.000001
vn 0.000000 1.000000 -0.000001
vn 0.000000 1.000000 -0.000001
vn 0.000000 1.000000 -0.000001
vn 0.000000 1.000000 -0.000001
vn -0.071088 0.996066 -0.052906
vn -0.053312 0.998567 0.004709
vn 0.054113 0.998500 -0.008363
vn 0.010979 0.998586 -0.052012
vn 0.071805 0.995457 -0.062520
vn -0.009477 0.998213 -0.058992
vn -0.053312 0.998567 -0.004709
vn 0.054114 0.998500 0.008363
vn -0.044045 0.998189 -0.040974
vn -0.046037 0.998931 0.004066
vn 0.046037 0.998931 0.004066
vn 0.044045 0.998189 -0.040974
vn -0.054113 0.998500 -0.008363
vn 0.053312 0.998567 0.004709
vn 0.071088 0.996066 -0.052906
vn -0.010979 0.998586 -0.052012
vn -0.054114 0.998500 0.008363
vn 0.053312 0.998567 -0.004709
vn 0.009477 0.998213 -0.058992
vn -0.071805 0.995457 -0.062520
vn -0.031110 0.984603 -0.172012
vn -0.046037 0.998931 -0.004066
vn 0.046037 0.998932 -0.004066
vn 0.031110 0.984603 -0.172012
vn -0.341823 0.895078 -0.286345
vn -0.581260 0.811446 0.060762
vn -0.073891 0.852765 0.517042
vn -0.009477 0.998213 0.058992
vn 0.315906 0.896857 0.309599
vn 0.071805 0.995457 0.062520
vn 0.548715 0.829540 -0.103799
vn 0.099689 0.858372 -0.503249
vn 0.315906 0.896856 -0.309602
vn -0.073890 0.852762 -0.517046
vn -0.581258 0.811447 -0.060762
vn -0.341819 0.895079 0.286344
vn -0.071087 0.996066 0.052906
vn 0.099688 0.858374 0.503246
vn 0.010979 0.998586 0.052012
vn 0.548716 0.829540 0.103798
vn -0.304904 0.897276 -0.319265
vn -0.581261 0.811445 0.060762
vn -0.082810 0.853938 0.513743
vn -0.031110 0.984603 0.172013
vn 0.082810 0.853938 0.513743
vn 0.031110 0.984603 0.172013
vn 0.581261 0.811446 0.060762
vn 0.304904 0.897276 -0.319264
vn -0.315906 0.896857 0.309599
vn 0.073891 0.852764 0.517043
vn 0.009477 0.998213 0.058992
vn -0.071805 0.995457 0.062520
vn 0.581259 0.811447 0.060762
vn 0.341823 0.895078 -0.286344
vn -0.099689 0.858372 -0.503250
vn -0.548716 0.829540 -0.103799
vn -0.548715 0.829540 0.103798
vn -0.099688 0.858374 0.503246
vn -0.010979 0.998586 0.052012
vn 0.341818 0.895080 0.286344
vn 0.071087 0.996066 0.052906
vn 0.581256 0.811449 -0.060762
vn 0.073890 0.852762 -0.517046
vn -0.315906 0.896856 -0.309602
vn -0.082809 0.853936 -0.513747
vn -0.581257 0.811448 -0.060762
vn -0.304900 0.897278 0.319263
vn -0.044045 0.998189 0.040974
vn 0.304900 0.897277 0.319263
vn 0.044045 0.998189 0.040974
vn 0.581259 0.811447 -0.060762
vn 0.082809 0.853936 -0.513747
vn 0.000000 -0.707108 -0.707105
vn 0.000000 -0.707108 -0.707105
vn 0.000000 -0.707108 -0.707105
vn 0.000000 -0.707108 -0.707105
vn 0.123780 -0.726237 -0.676208
vn 0.130980 -0.726985 -0.674046
vn 0.687967 -0.717214 -0.110930
vn 0.689757 -0.716418 -0.104792
vn 0.000000 -0.707106 0.707108
vn 0.000000 -0.707106 0.707108
vn 0.130980 -0.726983 0.674048
vn 0.123781 -0.726236 0.676210
vn 0.000000 -0.707106 0.707108
vn 0.000000 -0.707106 0.707108
vn 0.689756 -0.716418 0.104793
vn 0.687967 -0.717214 0.110930
vn -0.130980 -0.726985 -0.674046
vn -0.123780 -0.726237 -0.676208
vn -0.123781 -0.726236 0.676210
vn -0.130980 -0.726983 0.674048
vn -0.715741 -0.698366 0.000000
vn -0.715741 -0.698366 0.000000
vn -0.687967 -0.717214 -0.110930
vn -0.689756 -0.716418 -0.104792
vn -0.689756 -0.716418 0.104793
vn -0.687967 -0.717214 0.110930
vn 0.715742 -0.698365 -0.000000
vn 0.715742 -0.698365 0.000000
vn -0.200781 0.000000 0.979636
vn -0.200781 0.000000 0.979636
vn 0.000000 0.000000 1.000000
vn 0.000000 0.000000 1.000000
vn -0.200782 -0.000001 -0.979636
vn -0.200782 -0.000001 -0.979636
vn 0.000000 -0.000002 -1.000000
vn 0.000000 -0.000002 -1.000000
vn 0.000000 -1.000000 0.000000
vn 0.000000 -1.000000 0.000000
vn -0.000000 -1.000000 0.000000
vn -0.000000 -1.000000 0.000000
vn -0.000000 -1.000000 0.000000
vn 0.985754 0.000000 0.168194
vn 0.985754 0.000000 0.168194
vn 1.000000 0.000000 -0.000000
vn 1.000000 0.000000 -0.000000
vn -1.000000 0.000000 -0.000000
vn -0.985754 0.000000 0.168194
vn -0.985754 0.000000 0.168194
vn -1.000000 0.000000 0.000000
vn 0.000000 -0.000002 -1.000000
vn 0.200782 -0.000001 -0.979636
vn 0.200782 -0.000001 -0.979636
vn 0.000000 -0.000002 -1.000000
vn 0.000000 -1.000000 0.000000
vn -0.000000 -1.000000 0.000000
vn -0.000000 -1.000000 0.000000
vn 0.000000 -1.000000 0.000000
vn 0.000000 -1.000000 0.000000
vn 0.000000 0.000000 1.000000
vn 0.000000 0.000000 1.000000
vn 0.200781 0.000000 0.979636
vn 0.200781 0.000000 0.979636
vn -0.985754 -0.000000 -0.168194
vn -0.985754 -0.000000 -0.168193
vn 0.000000 -1.000000 0.000000
vn -0.000000 -1.000000 0.000000
vn -0.000000 -1.000000 0.000000
vn -0.000000 -1.000000 0.000000
vn 0.985754 0.000000 -0.168193
vn 0.985754 0.000000 -0.168194
vn 0.000000 -1.000000 0.000000
vn 0.000000 -1.000000 0.000000
f 24/89/1 19/90/2 21/91/3 17/92/4
f 22/93/5 20/94/6 23/95/7 18/96/8
f 26/9/9 25/10/10 29/11/11 30/12/12
f 31/13/13 32/14/14 33/15/15 36/16/16
f 38/17/17 37/18/18 41/19/19 42/20/20
f 48/21/21 45/22/22 46/23/23 47/24/24
f 50/25/25 52/26/26 53/27/27 54/28/28
f 56/29/29 55/30/30 59/31/31 60/32/32
f 1/33/33 19/2/34 25/10/10 26/9/9
f 19/2/34 24/1/35 27/34/36 25/10/10
f 24/1/35 8/35/37 28/36/38 27/34/36
f 8/35/37 15/37/39 29/11/11 28/36/38
f 15/37/39 16/38/40 30/12/12 29/11/11
f 16/38/40 1/33/33 26/9/9 30/12/12
f 8/35/41 24/1/42 32/14/14 31/13/13
f 24/1/42 17/4/43 33/15/15 32/14/14
f 17/4/43 2/39/44 34/40/45 33/15/15
f 2/39/44 11/41/46 35/42/47 34/40/45
f 11/41/46 12/43/48 36/16/16 35/42/47
f 12/43/48 8/35/41 31/13/13 36/16/16
f 3/44/49 20/6/50 37/18/18 38/17/17
f 20/6/50 22/5/51 39/45/52 37/18/18
f 22/5/51 21/3/53 40/46/54 39/45/52
f 21/3/53 19/2/55 41/19/19 40/46/54
f 19/2/55 1/33/56 42/20/20 41/19/19
f 1/33/56 3/44/49 38/17/17 42/20/20
f 5/47/57 23/7/58 43/48/59 44/49/60
f 23/7/58 20/6/61 45/22/22 43/48/59
f 20/6/61 3/44/62 46/23/23 45/22/22
f 3/44/62 14/50/63 47/24/24 46/23/23
f 14/50/63 13/51/64 48/21/21 47/24/24
f 13/51/64 5/47/57 44/49/60 48/21/21
f 9/52/65 10/53/66 49/54/67 50/25/25
f 10/53/66 4/55/68 51/56/69 49/54/67
f 4/55/68 18/8/70 52/26/26 51/56/69
f 18/8/70 23/7/71 53/27/27 52/26/26
f 23/7/71 5/47/72 54/28/28 53/27/27
f 5/47/72 9/52/65 50/25/25 54/28/28
f 22/5/73 18/8/74 55/30/30 56/29/29
f 18/8/74 4/55/75 57/57/76 55/30/30
f 4/55/75 2/39/77 58/58/78 57/57/76
f 2/39/77 17/4/79 59/31/31 58/58/78
f 17/4/79 21/3/80 60/32/32 59/31/31
f 21/3/80 22/5/73 56/29/29 60/32/32
f 44/49/60 43/48/59 45/22/22 48/21/21
f 50/25/25 49/54/67 51/56/69 52/26/26
f 59/31/31 55/30/30 57/57/76 58/58/78
f 41/19/19 37/18/18 39/45/52 40/46/54
f 29/11/11 25/10/10 27/34/36 28/36/38
f 36/16/16 33/15/15 34/40/45 35/42/47
f 61/59/81 62/60/82 70/61/83 69/62/84
f 62/60/82 61/59/81 64/63/85 63/64/86
f 63/64/86 64/63/85 88/65/87 87/66/88
f 65/67/89 66/68/90 67/69/91 68/70/92
f 66/68/90 65/67/89 72/71/93 71/72/94
f 68/70/92 67/69/91 79/73/95 80/74/96
f 69/62/84 70/61/83 85/75/97 86/76/98
f 71/72/94 72/71/93 82/77/99 81/78/100
f 73/79/101 74/80/102 84/81/103 83/82/104
f 74/80/102 73/79/101 75/83/105 76/84/106
f 76/84/106 75/83/105 81/78/100 82/77/99
f 77/85/107 78/86/108 87/66/88 88/65/87
f 78/86/108 77/85/107 80/74/96 79/73/95
f 83/82/104 84/81/103 86/76/98 85/75/97
f 10/97/109 82/98/110 72/99/111 4/100/112
f 86/101/113 14/102/114 3/103/115 69/104/116
f 73/79/117 6/87/118 71/72/119 81/78/120 75/83/121
f 12/105/122 80/106/123 77/107/124 8/108/125
f 74/109/126 76/110/127 9/111/128 5/112/129
f 1/113/130 16/114/131 64/115/132 61/116/133
f 66/68/134 7/88/135 78/86/136 79/73/137 67/69/138
f 2/117/139 65/118/140 68/119/141 11/120/142
f 3/103/115 1/113/130 61/116/133 69/104/116
f 71/72/119 6/87/118 7/88/135 66/68/134
f 4/100/112 72/99/111 65/118/140 2/117/139
f 13/126/143 84/125/144 74/109/126 5/112/129
f 7/88/135 6/87/118 70/61/145 62/60/146
f 78/86/136 7/88/135 62/60/146 63/64/147 87/66/148
f 8/108/125 77/107/124 88/124/149 15/123/150
f 83/82/151 85/75/152 70/61/145 6/87/118 73/79/117
f 76/122/127 82/98/110 10/97/109 9/121/128
f 68/119/141 80/106/123 12/105/122 11/120/142
f 13/126/143 14/102/114 86/101/113 84/125/144
f 16/114/131 15/123/150 88/124/149 64/115/132
