# This file uses meters as units for non-parametric coordinates.

v -137.364868 44.368600 150.606049
v -129.887146 70.495065 152.658508
v -125.728706 70.495065 154.164093
v -125.728706 44.368600 153.452332
v -132.453217 70.495065 150.138000
v -140.607605 44.368600 150.137985
v -125.728706 72.191377 150.138000
v 129.887146 70.495065 152.658508
v 132.453217 70.495065 150.138000
v 140.607605 44.368600 150.137985
v 137.364868 44.368600 150.606049
v 125.728706 70.495065 154.164093
v 125.728706 44.368600 153.452332
v 125.728706 72.191377 150.138000
v -135.107849 44.368600 149.433167
v 135.107849 44.368600 149.433167
v 139.126053 54.166353 150.137985
v 136.406708 54.166353 152.292587
v 134.149689 54.166345 150.144913
v 125.728706 54.166353 154.164093
v -125.728706 54.166353 154.164093
v -134.149689 54.166345 150.144913
v -136.406708 54.166353 152.292587
v -139.126053 54.166353 150.137985
v -137.364868 44.368600 -154.559601
v -129.887146 70.495065 -154.220551
v -125.728706 70.495065 -155.726135
v -125.728706 44.368600 -157.405884
v -132.453217 70.495065 -149.507111
v -140.607605 44.368600 -142.706451
v -125.728706 72.191377 -149.507111
v 129.887146 70.495065 -154.220551
v 132.453217 70.495065 -149.507111
v 140.607605 44.368600 -142.706451
v 137.364868 44.368600 -154.559601
v 125.728706 70.495065 -155.726135
v 125.728706 44.368600 -157.405884
v 125.728706 72.191377 -149.507111
v -135.107849 44.368600 -153.386719
v 135.107849 44.368600 -153.386719
v 139.126053 54.166353 -142.706451
v 136.406708 54.166353 -156.246140
v 134.149689 54.166345 -154.098465
v 125.728706 54.166353 -158.117645
v -125.728706 54.166353 -158.117645
v -134.149689 54.166345 -154.098465
v -136.406708 54.166353 -156.246140
v -139.126053 54.166353 -142.706451
v 140.607605 44.368600 125.249184
v 139.126053 54.166353 125.249184
v 132.453217 70.495065 125.249191
v 125.728706 72.191377 125.249191
v -125.728706 72.191377 125.249191
v -132.453217 70.495065 125.249191
v -139.126053 54.166353 125.249184
v -140.607605 44.368600 125.249184
v 140.607605 44.368600 52.577011
v 139.126053 54.166353 52.577011
v 132.453217 70.495065 52.577011
v 125.728706 72.191385 52.577011
v -125.728706 72.191385 52.577011
v -132.453217 70.495065 52.577011
v -139.126053 54.166353 52.577011
v -140.607605 44.368600 52.577011
vt 0.143267 0.014146
vt 0.142381 0.015775
vt 0.140075 0.015775
vt 0.141014 0.011096
vt 0.144704 0.013626
vt 0.141794 0.011838
vt 0.144704 0.010449
vt 0.144704 0.015775
vt 0.233916 0.015775
vt 0.233030 0.014146
vt 0.236222 0.015775
vt 0.235282 0.011096
vt 0.234502 0.011838
vt 0.231593 0.015775
vt 0.231593 0.013626
vt 0.231593 0.010449
vt 0.236734 0.015775
vt 0.235613 0.011679
vt 0.234834 0.012084
vt 0.231593 0.010695
vt 0.144704 0.010695
vt 0.141463 0.012084
vt 0.140683 0.011679
vt 0.139563 0.015775
vt 0.236734 0.020440
vt 0.236222 0.020440
vt 0.233916 0.020440
vt 0.231593 0.020440
vt 0.144704 0.020440
vt 0.142381 0.020440
vt 0.140075 0.020440
vt 0.139563 0.020440
vt 0.142381 0.113030
vt 0.143267 0.114659
vt 0.140075 0.113030
vt 0.141014 0.117709
vt 0.144704 0.115179
vt 0.144704 0.118355
vt 0.141794 0.116967
vt 0.144704 0.113030
vt 0.233030 0.114659
vt 0.233916 0.113030
vt 0.236222 0.113030
vt 0.235282 0.117709
vt 0.234502 0.116967
vt 0.231593 0.115179
vt 0.231593 0.113030
vt 0.231593 0.118355
vt 0.236734 0.113030
vt 0.235613 0.117126
vt 0.234834 0.116721
vt 0.231593 0.118109
vt 0.144704 0.118109
vt 0.141463 0.116721
vt 0.140683 0.117126
vt 0.139563 0.113030
vt 0.236734 0.045552
vt 0.236222 0.045552
vt 0.233916 0.045552
vt 0.231593 0.045552
vt 0.144704 0.045552
vt 0.142381 0.045552
vt 0.140075 0.045552
vt 0.139563 0.045552
vn -0.226105 0.056894 0.972440
vn -0.455573 0.195915 0.868372
vn -0.806043 0.585394 0.087230
vn -0.951748 0.293150 0.090767
vn -0.012380 -0.027410 0.999548
vn -0.010065 0.215462 0.976460
vn -0.406913 -0.032863 0.912876
vn -0.006084 0.998307 0.057845
vn 0.226105 0.056894 0.972440
vn 0.951748 0.293150 0.090767
vn 0.806043 0.585394 0.087230
vn 0.455573 0.195915 0.868372
vn -0.626379 -0.218571 0.748249
vn 0.006084 0.998307 0.057845
vn 0.010065 0.215462 0.976460
vn 0.012380 -0.027410 0.999548
vn 0.626379 -0.218570 0.748249
vn 0.406913 -0.032863 0.912876
vn 0.985033 0.138976 0.101962
vn -0.044048 -0.097883 0.994223
vn -0.585424 -0.154654 0.795840
vn 0.411132 -0.046034 0.910413
vn 0.015666 -0.071684 0.997304
vn -0.015666 -0.071684 0.997304
vn -0.411133 -0.046034 0.910412
vn 0.044047 -0.097883 0.994223
vn 0.585424 -0.154654 0.795840
vn -0.985033 0.138976 0.101962
vn 0.988760 0.149513 0.000000
vn 0.954585 0.297938 0.000000
vn 0.802588 0.596534 0.000000
vn 0.006570 0.999978 0.000000
vn -0.006570 0.999978 0.000000
vn -0.802588 0.596534 0.000000
vn -0.954585 0.297938 0.000000
vn -0.988760 0.149513 0.000000
vn -0.702150 0.386315 -0.598119
vn -0.886423 0.220621 -0.406917
vn -0.951968 0.306054 -0.009429
vn -0.775357 0.631330 -0.015623
vn -0.009862 0.428379 -0.903545
vn -0.012102 0.063619 -0.997901
vn -0.406817 0.031973 -0.912950
vn -0.006470 0.999947 -0.008035
vn 0.702150 0.386315 -0.598119
vn 0.775357 0.631330 -0.015623
vn 0.951968 0.306054 -0.009429
vn 0.886423 0.220620 -0.406917
vn -0.634042 -0.169144 -0.754574
vn 0.009862 0.428379 -0.903545
vn 0.006470 0.999947 -0.008035
vn 0.012102 0.063619 -0.997901
vn 0.634042 -0.169144 -0.754573
vn 0.406817 0.031972 -0.912950
vn 0.989070 0.146795 -0.013842
vn 0.911218 0.075888 -0.404874
vn -0.585424 -0.154654 -0.795840
vn 0.411133 -0.046034 -0.910412
vn 0.015666 -0.071684 -0.997304
vn -0.015666 -0.071684 -0.997304
vn -0.411133 -0.046034 -0.910412
vn -0.911218 0.075888 -0.404874
vn 0.585424 -0.154654 -0.795840
vn -0.989070 0.146795 -0.013842
vn 0.988760 0.149513 0.000000
vn 0.954379 0.298598 0.000000
vn 0.801130 0.598490 0.000000
vn 0.006570 0.999978 0.000000
vn -0.006570 0.999978 0.000000
vn -0.801130 0.598490 0.000000
vn -0.954379 0.298598 0.000000
vn -0.988760 0.149513 0.000000
f 23/4/1 2/1/2 5/2/3 24/3/4
f 21/7/5 3/5/6 2/1/2 22/6/7
f 2/1/2 3/5/6 7/8/8 5/2/3
f 18/12/9 17/11/10 9/9/11 8/10/12
f 8/10/12 19/13/13 18/12/9
f 8/10/12 9/9/11 14/14/14 12/15/15
f 21/7/5 20/16/16 12/15/15 3/5/6
f 7/8/8 3/5/6 12/15/15 14/14/14
f 2/1/2 23/4/1 22/6/17
f 12/15/15 20/16/16 19/13/18 8/10/12
f 10/17/19 17/11/10 18/12/9 11/18/20
f 11/18/20 18/12/9 19/13/13 16/19/21
f 16/19/22 19/13/18 20/16/16 13/20/23
f 21/7/5 4/21/24 13/20/23 20/16/16
f 22/6/7 15/22/25 4/21/24 21/7/5
f 1/23/26 15/22/27 22/6/17 23/4/1
f 6/24/28 1/23/26 23/4/1 24/3/4
f 17/11/10 10/17/19 49/25/29 50/26/30
f 50/26/30 51/27/31 9/9/11 17/11/10
f 14/14/14 9/9/11 51/27/31 52/28/32
f 7/8/8 14/14/14 52/28/32 53/29/33
f 5/2/3 7/8/8 53/29/33 54/30/34
f 54/30/34 55/31/35 24/3/4 5/2/3
f 56/32/36 6/24/28 24/3/4 55/31/35
f 26/34/37 47/36/38 48/35/39 29/33/40
f 27/37/41 45/38/42 46/39/43 26/34/37
f 26/34/37 29/33/40 31/40/44 27/37/41
f 32/41/45 33/42/46 41/43/47 42/44/48
f 32/41/45 42/44/48 43/45/49
f 32/41/45 36/46/50 38/47/51 33/42/46
f 27/37/41 36/46/50 44/48/52 45/38/42
f 27/37/41 31/40/44 38/47/51 36/46/50
f 26/34/37 46/39/53 47/36/38
f 44/48/52 36/46/50 32/41/45 43/45/54
f 34/49/55 35/50/56 42/44/48 41/43/47
f 35/50/56 40/51/57 43/45/49 42/44/48
f 40/51/58 37/52/59 44/48/52 43/45/54
f 37/52/59 28/53/60 45/38/42 44/48/52
f 46/39/43 45/38/42 28/53/60 39/54/61
f 25/55/62 47/36/38 46/39/53 39/54/63
f 30/56/64 48/35/39 47/36/38 25/55/62
f 50/26/30 49/25/29 57/57/65 58/58/66
f 58/58/66 59/59/67 51/27/31 50/26/30
f 52/28/32 51/27/31 59/59/67 60/60/68
f 53/29/33 52/28/32 60/60/68 61/61/69
f 54/30/34 53/29/33 61/61/69 62/62/70
f 62/62/70 63/63/71 55/31/35 54/30/34
f 64/64/72 56/32/36 55/31/35 63/63/71
f 58/58/66 57/57/65 34/49/55 41/43/47
f 41/43/47 33/42/46 59/59/67 58/58/66
f 60/60/68 59/59/67 33/42/46 38/47/51
f 61/61/69 60/60/68 38/47/51 31/40/44
f 62/62/70 61/61/69 31/40/44 29/33/40
f 29/33/40 48/35/39 63/63/71 62/62/70
f 30/56/64 64/64/72 63/63/71 48/35/39
