# This file uses meters as units for non-parametric coordinates.

v -140.694733 0.000000 182.781204
v 140.694733 0.000000 182.781204
v -140.694733 16.480007 182.781204
v 140.694733 16.480007 182.781204
v -140.694733 94.217026 -194.885849
v 140.694733 94.217026 -194.885849
v -140.694733 0.000000 -194.885849
v 140.694733 0.000000 -194.885849
v -140.694733 0.000000 -91.280441
v -140.694733 16.480007 -91.280434
v 140.694733 16.480007 -91.280434
v 140.694733 0.000000 -91.280441
v -147.674210 47.422180 -140.879425
v 147.674210 47.422180 -140.879425
v -147.674210 50.615101 -129.537415
v 147.674210 50.615101 -129.537415
v -147.674210 103.428268 -198.028320
v 147.674210 103.428268 -198.028320
v -147.674210 93.187714 -196.605118
v 147.674210 93.187714 -196.605118
v -147.674210 103.428268 -200.924164
v 147.674210 103.428268 -200.924164
v 147.674210 93.187714 -199.500961
v -147.674210 93.187714 -199.500961
vt 0.039289 0.260550
vt 0.109108 0.260752
vt 0.109106 0.278183
vt 0.039287 0.277981
vt 0.108915 0.360407
vt 0.015399 0.360409
vt 0.015399 0.260752
vt 0.108915 0.260749
vt 0.020466 0.302350
vt 0.102753 0.302350
vt 0.102753 0.270436
vt 0.020466 0.270436
vt 0.102753 0.350580
vt 0.020466 0.350580
vt 0.041106 0.260752
vt 0.102753 0.302350
vt 0.020466 0.302350
vt 0.041106 0.278183
vt 0.102753 0.270435
vt 0.020466 0.270435
vt 0.015399 0.260752
vt 0.041106 0.260752
vt 0.041106 0.278184
vt 0.015399 0.360409
vt 0.109107 0.260752
vt 0.109107 0.278183
vt 0.102753 0.350580
vt 0.020466 0.350580
vt 0.118264 0.320478
vt 0.010534 0.320477
vt 0.009917 0.311526
vt 0.118881 0.311525
vt 0.010424 0.366656
vt 0.118374 0.366656
vt 0.115695 0.363598
vt 0.013103 0.363598
vt 0.013457 0.347469
vt 0.115341 0.347470
vt 0.117783 0.343332
vt 0.011014 0.343333
vt 0.009862 0.312223
vt 0.118935 0.312223
vt 0.118264 0.320478
vt 0.118881 0.311525
vt 0.010534 0.320478
vt 0.009917 0.311526
vn 0.000000 0.000000 1.000000
vn 0.000000 0.000000 1.000000
vn 0.000000 0.000000 1.000000
vn 0.000000 0.000000 1.000000
vn 0.000000 0.979466 0.201608
vn 0.000000 0.979466 0.201608
vn 0.000000 0.799878 0.600163
vn 0.000000 0.799878 0.600163
vn 0.000000 0.000000 -1.000000
vn 0.000000 0.000000 -1.000000
vn 0.000000 0.000000 -1.000000
vn 0.000000 0.000000 -1.000000
vn 0.000000 -1.000000 0.000000
vn 0.000000 -1.000000 0.000000
vn 0.000000 -1.000000 0.000000
vn 0.000000 -1.000000 0.000000
vn 1.000000 0.000000 0.000000
vn 1.000000 0.000000 0.000000
vn 1.000000 0.000000 0.000000
vn 1.000000 0.000000 0.000000
vn -1.000000 0.000000 0.000000
vn -1.000000 -0.000000 0.000000
vn -1.000000 -0.000000 0.000000
vn -1.000000 0.000000 0.000000
vn -1.000000 -0.000000 0.000000
vn -1.000000 -0.000000 0.000000
vn 0.000000 1.000000 0.000000
vn 0.000000 1.000000 0.000000
vn 1.000000 0.000000 0.000000
vn 1.000000 0.000000 0.000000
vn 0.000000 -1.000000 0.000000
vn 0.000000 -1.000000 0.000000
vn 0.000000 -0.962585 0.270980
vn 0.000000 -0.962585 0.270980
vn 0.000000 -0.962585 0.270980
vn 0.000000 -0.962585 0.270980
vn 0.000000 0.791909 0.610639
vn 0.000000 0.791909 0.610639
vn 0.000000 0.791909 0.610639
vn 0.000000 0.791909 0.610639
vn 0.000000 -0.137654 -0.990480
vn 0.000000 -0.137654 -0.990480
vn 0.000000 -0.137654 -0.990480
vn 0.000000 -0.137654 -0.990480
vn 0.000000 -0.772789 -0.634664
vn 0.000000 -0.772789 -0.634664
vn 0.000000 -0.772789 -0.634664
vn 0.000000 -0.772789 -0.634664
vn 1.000000 -0.000001 0.000000
vn 1.000000 -0.000001 0.000000
vn 1.000000 -0.000001 0.000000
vn 1.000000 -0.000001 0.000000
vn -1.000000 0.000001 0.000000
vn -1.000000 0.000001 0.000000
vn -1.000000 0.000001 0.000000
vn -1.000000 0.000001 0.000000
vn 0.000000 1.000000 0.000000
vn 0.000000 1.000000 0.000000
vn 0.000000 1.000000 0.000000
vn 0.000000 1.000000 0.000000
vn 1.000000 0.000000 0.000000
vn 1.000000 0.000000 0.000000
vn 1.000000 0.000000 0.000000
vn 1.000000 0.000000 0.000000
vn 0.000000 -1.000000 0.000000
vn 0.000000 -1.000000 0.000000
vn 0.000000 -1.000000 0.000000
vn 0.000000 -1.000000 0.000000
vn -1.000000 -0.000001 0.000000
vn -1.000000 -0.000001 0.000000
vn -1.000000 -0.000001 0.000000
vn -1.000000 -0.000001 0.000000
f 1/1/1 2/2/2 4/3/3 3/4/4
f 10/19/5 11/20/6 6/17/7 5/16/8
f 5/5/9 6/6/10 8/7/11 7/8/12
f 7/9/13 8/10/14 12/11/15 9/12/16
f 12/15/17 8/7/18 6/6/19 11/18/20
f 7/21/21 9/22/22 10/23/23 5/24/24
f 9/22/22 1/25/25 3/26/26 10/23/23
f 3/27/27 4/28/28 11/20/6 10/19/5
f 2/2/29 12/15/17 11/18/20 4/3/30
f 9/12/16 12/11/15 2/13/31 1/14/32
f 13/29/33 14/30/34 16/31/35 15/32/36
f 15/32/37 16/31/38 18/33/39 17/34/40
f 21/35/41 22/36/42 23/37/43 24/38/44
f 19/39/45 20/40/46 14/41/47 13/42/48
f 14/30/49 20/43/50 18/44/51 16/31/52
f 19/45/53 13/29/54 15/32/55 17/46/56
f 17/34/57 18/33/58 22/36/59 21/35/60
f 18/33/61 20/40/62 23/37/63 22/36/64
f 20/40/65 19/39/66 24/38/67 23/37/68
f 19/39/69 17/34/70 21/35/71 24/38/72
