# This file uses meters as units for non-parametric coordinates.

v -158.080109 -337.580513 -162.511719
v -159.171539 -337.580513 -162.511719
v -159.717239 -337.580513 -161.566620
v -159.171539 -337.580513 -160.621521
v -158.080109 -337.580513 -160.621521
v -157.534409 -337.580513 -161.566620
v -158.080109 0.000000 -162.511719
v -159.171539 0.000000 -162.511719
v -159.717239 0.000000 -161.566620
v -159.171539 0.000000 -160.621521
v -158.080109 0.000000 -160.621521
v -157.534409 0.000000 -161.566620
v -158.625824 -337.580513 -161.566620
v -158.625824 0.000000 -161.566620
v -158.080109 -337.580513 163.651123
v -159.171539 -337.580513 163.651123
v -159.717239 -337.580513 164.596222
v -159.171539 -337.580513 165.541321
v -158.080109 -337.580513 165.541321
v -157.534409 -337.580513 164.596222
v -158.080109 0.000000 163.651123
v -159.171539 0.000000 163.651123
v -159.717239 0.000000 164.596222
v -159.171539 0.000000 165.541321
v -158.080109 0.000000 165.541321
v -157.534409 0.000000 164.596222
v -158.625824 -337.580513 164.596222
v -158.625824 0.000000 164.596222
v 158.080109 -337.580513 -162.511627
v 159.171448 -337.580513 -162.511627
v 159.717072 -337.580513 -161.566620
v 159.171448 -337.580513 -160.621521
v 158.080093 -337.580513 -160.621521
v 157.534485 -337.580513 -161.566620
v 158.080109 -0.000031 -162.511627
v 159.171448 -0.000031 -162.511627
v 159.717072 -0.000031 -161.566620
v 159.171448 -0.000031 -160.621521
v 158.080093 -0.000031 -160.621521
v 157.534485 -0.000031 -161.566620
v 158.625824 -337.580513 -161.566620
v 158.625824 -0.000031 -161.566620
v 158.080109 -337.580513 163.651215
v 159.171448 -337.580513 163.651215
v 159.717072 -337.580513 164.596222
v 159.171448 -337.580513 165.541321
v 158.080093 -337.580513 165.541321
v 157.534485 -337.580513 164.596222
v 158.080109 -0.000031 163.651215
v 159.171448 -0.000031 163.651215
v 159.717072 -0.000031 164.596222
v 159.171448 -0.000031 165.541321
v 158.080093 -0.000031 165.541321
v 157.534485 -0.000031 164.596222
v 158.625824 -337.580513 164.596222
v 158.625824 -0.000031 164.596222
vt 0.269918 0.980760
vt 0.262658 0.980760
vt 0.259027 0.987048
vt 0.262658 0.993335
vt 0.269918 0.993335
vt 0.273548 0.987048
vt 0.262779 0.979646
vt 0.264041 0.979646
vt 0.265304 0.979646
vt 0.266567 0.979646
vt 0.267829 0.979646
vt 0.269092 0.979646
vt 0.270354 0.979646
vt 0.262779 0.991038
vt 0.264041 0.991038
vt 0.265304 0.991038
vt 0.266567 0.991038
vt 0.267829 0.991038
vt 0.269092 0.991038
vt 0.270354 0.991038
vt 0.269309 0.981393
vt 0.262410 0.981393
vt 0.258960 0.987368
vt 0.262410 0.993343
vt 0.269309 0.993343
vt 0.272759 0.987368
vt 0.266288 0.986757
vt 0.265860 0.987092
vt 0.262779 0.979646
vt 0.264041 0.979646
vt 0.264041 0.991038
vt 0.262779 0.991038
vt 0.265304 0.979646
vt 0.265304 0.991038
vt 0.266567 0.979646
vt 0.266567 0.991038
vt 0.267829 0.979646
vt 0.267829 0.991038
vt 0.269092 0.979646
vt 0.269092 0.991038
vt 0.270354 0.979646
vt 0.270354 0.991038
vt 0.262658 0.980760
vt 0.269918 0.980760
vt 0.266288 0.986757
vt 0.259027 0.987048
vt 0.262658 0.993335
vt 0.269918 0.993335
vt 0.273548 0.987048
vt 0.269309 0.993343
vt 0.262410 0.993343
vt 0.265860 0.987092
vt 0.258960 0.987368
vt 0.262410 0.981393
vt 0.269309 0.981393
vt 0.272759 0.987368
vt 0.262779 0.979646
vt 0.262779 0.991038
vt 0.264041 0.991038
vt 0.264041 0.979646
vt 0.265304 0.991038
vt 0.265304 0.979646
vt 0.266567 0.991038
vt 0.266567 0.979646
vt 0.267829 0.991038
vt 0.267829 0.979646
vt 0.269092 0.991038
vt 0.269092 0.979646
vt 0.270354 0.991038
vt 0.270354 0.979646
vt 0.262658 0.980760
vt 0.266288 0.986757
vt 0.269918 0.980760
vt 0.259027 0.987048
vt 0.262658 0.993335
vt 0.269918 0.993335
vt 0.273548 0.987048
vt 0.269309 0.993343
vt 0.265860 0.987092
vt 0.262410 0.993343
vt 0.258960 0.987368
vt 0.262410 0.981393
vt 0.269309 0.981393
vt 0.272759 0.987368
vt 0.262779 0.979646
vt 0.262779 0.991038
vt 0.264041 0.991038
vt 0.264041 0.979646
vt 0.265304 0.991038
vt 0.265304 0.979646
vt 0.266567 0.991038
vt 0.266567 0.979646
vt 0.267829 0.991038
vt 0.267829 0.979646
vt 0.269092 0.991038
vt 0.269092 0.979646
vt 0.270354 0.991038
vt 0.270354 0.979646
vt 0.262658 0.980760
vt 0.266288 0.986757
vt 0.269918 0.980760
vt 0.259027 0.987048
vt 0.262658 0.993335
vt 0.269918 0.993335
vt 0.273548 0.987048
vt 0.269309 0.993343
vt 0.265860 0.987092
vt 0.262410 0.993343
vt 0.258960 0.987368
vt 0.262410 0.981393
vt 0.269309 0.981393
vt 0.272759 0.987368
vn 0.499961 0.000000 -0.866048
vn -0.499961 0.000000 -0.866048
vn -0.499961 0.000000 -0.866048
vn 0.499961 0.000000 -0.866048
vn -1.000000 0.000000 0.000000
vn -1.000000 0.000000 0.000000
vn -0.499961 0.000000 0.866048
vn -0.499961 0.000000 0.866048
vn 0.499961 0.000000 0.866048
vn 0.499961 0.000000 0.866048
vn 1.000000 0.000000 0.000000
vn 1.000000 0.000000 0.000000
vn 0.000000 -1.000000 0.000000
vn 0.000000 -1.000000 0.000000
vn 0.000000 -1.000000 0.000000
vn 0.000000 -1.000000 0.000000
vn 0.000000 -1.000000 0.000000
vn 0.000000 -1.000000 0.000000
vn 0.000000 -1.000000 0.000000
vn 0.000000 1.000000 0.000000
vn 0.000000 1.000000 0.000000
vn 0.000000 1.000000 0.000000
vn 0.000000 1.000000 0.000000
vn 0.000000 1.000000 0.000000
vn 0.000000 1.000000 0.000000
vn 0.000000 1.000000 0.000000
vn 0.499961 0.000000 -0.866048
vn -0.499961 0.000000 -0.866048
vn -0.499961 0.000000 -0.866048
vn 0.499961 0.000000 -0.866048
vn -1.000000 0.000000 0.000000
vn -1.000000 0.000000 0.000000
vn -0.499961 0.000000 0.866048
vn -0.499961 0.000000 0.866048
vn 0.499961 0.000000 0.866048
vn 0.499961 0.000000 0.866048
vn 1.000000 0.000000 0.000000
vn 1.000000 0.000000 0.000000
vn 0.000000 -1.000000 0.000000
vn 0.000000 -1.000000 0.000000
vn 0.000000 -1.000000 0.000000
vn 0.000000 -1.000000 0.000000
vn 0.000000 -1.000000 0.000000
vn 0.000000 -1.000000 0.000000
vn 0.000000 -1.000000 0.000000
vn 0.000000 1.000000 0.000000
vn 0.000000 1.000000 0.000000
vn 0.000000 1.000000 0.000000
vn 0.000000 1.000000 0.000000
vn 0.000000 1.000000 0.000000
vn 0.000000 1.000000 0.000000
vn 0.000000 1.000000 0.000000
vn -0.499967 0.000000 -0.866045
vn -0.499967 0.000000 -0.866045
vn 0.499967 0.000000 -0.866045
vn 0.499967 0.000000 -0.866045
vn 1.000000 0.000000 0.000000
vn 1.000000 0.000000 0.000000
vn 0.499996 0.000000 0.866028
vn 0.499996 0.000000 0.866028
vn -0.499999 0.000000 0.866026
vn -0.499999 0.000000 0.866026
vn -1.000000 0.000000 -0.000008
vn -1.000000 0.000000 -0.000008
vn 0.000000 -1.000000 0.000000
vn 0.000000 -1.000000 0.000000
vn 0.000000 -1.000000 0.000000
vn 0.000000 -1.000000 0.000000
vn 0.000000 -1.000000 0.000000
vn 0.000000 -1.000000 0.000000
vn 0.000000 -1.000000 0.000000
vn 0.000000 1.000000 0.000000
vn 0.000000 1.000000 0.000000
vn 0.000000 1.000000 0.000000
vn 0.000000 1.000000 0.000000
vn 0.000000 1.000000 0.000000
vn 0.000000 1.000000 0.000000
vn 0.000000 1.000000 0.000000
vn -0.499967 0.000000 -0.866045
vn -0.499967 0.000000 -0.866045
vn 0.499967 0.000000 -0.866045
vn 0.499967 0.000000 -0.866045
vn 1.000000 0.000000 0.000000
vn 1.000000 0.000000 0.000000
vn 0.499996 0.000000 0.866028
vn 0.499996 0.000000 0.866028
vn -0.499999 0.000000 0.866026
vn -0.499999 0.000000 0.866026
vn -1.000000 0.000000 -0.000008
vn -1.000000 0.000000 -0.000008
vn 0.000000 -1.000000 0.000000
vn 0.000000 -1.000000 0.000000
vn 0.000000 -1.000000 0.000000
vn 0.000000 -1.000000 0.000000
vn 0.000000 -1.000000 0.000000
vn 0.000000 -1.000000 0.000000
vn 0.000000 -1.000000 0.000000
vn 0.000000 1.000000 0.000000
vn 0.000000 1.000000 0.000000
vn 0.000000 1.000000 0.000000
vn 0.000000 1.000000 0.000000
vn 0.000000 1.000000 0.000000
vn 0.000000 1.000000 0.000000
vn 0.000000 1.000000 0.000000
f 1/7/1 2/8/2 8/15/3 7/14/4
f 2/8/2 3/9/5 9/16/6 8/15/3
f 3/9/5 4/10/7 10/17/8 9/16/6
f 4/10/7 5/11/9 11/18/10 10/17/8
f 5/11/9 6/12/11 12/19/12 11/18/10
f 6/12/11 1/13/1 7/20/4 12/19/12
f 2/2/13 1/1/14 13/27/15
f 3/3/16 2/2/13 13/27/15
f 4/4/17 3/3/16 13/27/15
f 5/5/18 4/4/17 13/27/15
f 6/6/19 5/5/18 13/27/15
f 1/1/14 6/6/19 13/27/15
f 7/25/20 8/24/21 14/28/22
f 8/24/21 9/23/23 14/28/22
f 9/23/23 10/22/24 14/28/22
f 10/22/24 11/21/25 14/28/22
f 11/21/25 12/26/26 14/28/22
f 12/26/26 7/25/20 14/28/22
f 15/29/27 16/30/28 22/31/29 21/32/30
f 16/30/28 17/33/31 23/34/32 22/31/29
f 17/33/31 18/35/33 24/36/34 23/34/32
f 18/35/33 19/37/35 25/38/36 24/36/34
f 19/37/35 20/39/37 26/40/38 25/38/36
f 20/39/37 15/41/27 21/42/30 26/40/38
f 16/43/39 15/44/40 27/45/41
f 17/46/42 16/43/39 27/45/41
f 18/47/43 17/46/42 27/45/41
f 19/48/44 18/47/43 27/45/41
f 20/49/45 19/48/44 27/45/41
f 15/44/40 20/49/45 27/45/41
f 21/50/46 22/51/47 28/52/48
f 22/51/47 23/53/49 28/52/48
f 23/53/49 24/54/50 28/52/48
f 24/54/50 25/55/51 28/52/48
f 25/55/51 26/56/52 28/52/48
f 26/56/52 21/50/46 28/52/48
f 29/57/53 35/58/54 36/59/55 30/60/56
f 30/60/56 36/59/55 37/61/57 31/62/58
f 31/62/58 37/61/57 38/63/59 32/64/60
f 32/64/60 38/63/59 39/65/61 33/66/62
f 33/66/62 39/65/61 40/67/63 34/68/64
f 34/68/64 40/67/63 35/69/54 29/70/53
f 30/71/65 41/72/66 29/73/67
f 31/74/68 41/72/66 30/71/65
f 32/75/69 41/72/66 31/74/68
f 33/76/70 41/72/66 32/75/69
f 34/77/71 41/72/66 33/76/70
f 29/73/67 41/72/66 34/77/71
f 35/78/72 42/79/73 36/80/74
f 36/80/74 42/79/73 37/81/75
f 37/81/75 42/79/73 38/82/76
f 38/82/76 42/79/73 39/83/77
f 39/83/77 42/79/73 40/84/78
f 40/84/78 42/79/73 35/78/72
f 43/85/79 49/86/80 50/87/81 44/88/82
f 44/88/82 50/87/81 51/89/83 45/90/84
f 45/90/84 51/89/83 52/91/85 46/92/86
f 46/92/86 52/91/85 53/93/87 47/94/88
f 47/94/88 53/93/87 54/95/89 48/96/90
f 48/96/90 54/95/89 49/97/80 43/98/79
f 44/99/91 55/100/92 43/101/93
f 45/102/94 55/100/92 44/99/91
f 46/103/95 55/100/92 45/102/94
f 47/104/96 55/100/92 46/103/95
f 48/105/97 55/100/92 47/104/96
f 43/101/93 55/100/92 48/105/97
f 49/106/98 56/107/99 50/108/100
f 50/108/100 56/107/99 51/109/101
f 51/109/101 56/107/99 52/110/102
f 52/110/102 56/107/99 53/111/103
f 53/111/103 56/107/99 54/112/104
f 54/112/104 56/107/99 49/106/98
