# This file uses meters as units for non-parametric coordinates.

v -36.266468 0.000000 25.671938
v 36.266468 0.000000 25.671938
v -36.266468 10.922931 25.671938
v 36.266468 10.922931 25.671938
v 36.266468 10.922931 23.702841
v -36.266468 10.922931 23.702841
v -36.266468 0.000000 23.702841
v 36.266468 0.000000 23.702841
v 16.510834 0.000000 23.702841
v 15.785577 0.000000 23.702841
v 16.510834 0.000000 25.671938
v 15.785577 0.000000 25.671938
v 16.510834 10.922930 25.671938
v 15.785577 10.922930 25.671938
v 15.785577 10.922930 23.702841
v 16.510834 10.922930 23.702841
v -15.785580 0.000000 23.702841
v -16.510836 0.000000 23.702841
v -16.510836 0.000000 25.671938
v -15.785580 0.000000 25.671938
v -16.510836 10.922930 25.671938
v -15.785580 10.922930 25.671938
v -16.510836 10.922930 23.702841
v -15.785580 10.922930 23.702841
vt 0.446588 0.987504
vt 0.463693 0.980444
vt 0.457880 0.980555
vt 0.458127 0.987285
vt 0.452154 0.980663
vt 0.452400 0.987394
vt 0.446906 0.982473
vt 0.452300 0.985695
vt 0.446886 0.985803
vt 0.263501 0.987323
vt 0.446514 0.980771
vt 0.452320 0.982366
vt 0.269325 0.980477
vt 0.463395 0.982146
vt 0.457981 0.982253
vt 0.463374 0.985474
vt 0.457961 0.985582
vt 0.463768 0.987178
vt 0.263599 0.980586
vt 0.457816 0.982257
vt 0.452485 0.982363
vt 0.457796 0.985585
vt 0.452465 0.985692
vt 0.269228 0.987214
vt 0.452229 0.987397
vt 0.263573 0.985621
vt 0.263738 0.985618
vt 0.263673 0.987320
vt 0.263593 0.982292
vt 0.263757 0.982289
vt 0.263427 0.980589
vt 0.452326 0.980660
vt 0.457956 0.987288
vt 0.269069 0.985511
vt 0.269234 0.985508
vt 0.269400 0.987211
vt 0.269089 0.982183
vt 0.269254 0.982179
vt 0.269153 0.980481
vt 0.458052 0.980551
vn 1.000000 0.000000 0.000000
vn 1.000000 0.000000 0.000000
vn 1.000000 0.000000 0.000000
vn 1.000000 0.000000 0.000000
vn -1.000000 0.000000 0.000000
vn -1.000000 0.000000 0.000000
vn -1.000000 0.000000 0.000000
vn -1.000000 0.000000 0.000000
vn 0.000000 -1.000000 0.000000
vn 0.000000 -1.000000 0.000000
vn 0.000000 -1.000000 0.000000
vn 0.000000 -1.000000 0.000000
vn 0.000000 0.000000 1.000000
vn -0.000000 0.000000 1.000000
vn -0.000000 0.000000 1.000000
vn 0.000000 0.000000 1.000000
vn 0.000000 1.000000 0.000000
vn -0.000000 1.000000 0.000000
vn -0.000000 1.000000 0.000000
vn 0.000000 1.000000 0.000000
vn 0.000000 -1.000000 0.000000
vn 0.000000 -1.000000 0.000000
vn 0.000000 -1.000000 0.000000
vn 0.000000 -1.000000 0.000000
vn 0.000000 0.000000 1.000000
vn 0.000000 0.000000 1.000000
vn 0.000000 0.000000 1.000000
vn 0.000000 0.000000 1.000000
vn 0.000000 1.000000 0.000000
vn 0.000000 1.000000 0.000000
vn 0.000000 1.000000 0.000000
vn 0.000000 1.000000 0.000000
vn 0.000000 0.000000 1.000000
vn 0.000000 0.000000 1.000000
vn 0.000000 1.000000 0.000000
vn 0.000000 1.000000 0.000000
vn 0.000000 -1.000000 0.000000
vn 0.000000 -1.000000 0.000000
vn 0.000000 -1.000000 0.000000
vn 0.000000 -1.000000 0.000000
vn -0.000000 0.000000 1.000000
vn -0.000000 0.000000 1.000000
vn -0.000000 1.000000 0.000000
vn -0.000000 1.000000 0.000000
f 2/14/1 8/2/2 5/18/3 4/16/4
f 7/11/5 1/7/6 3/9/7 6/1/8
f 10/39/9 9/13/10 11/38/11 12/37/12
f 12/37/13 11/38/14 13/35/15 14/34/16
f 14/34/17 13/35/18 16/36/19 15/24/20
f 18/31/21 17/19/22 20/30/23 19/29/24
f 19/29/25 20/30/26 22/27/27 21/26/28
f 21/26/29 22/27/30 24/28/31 23/10/32
f 1/7/33 19/12/25 21/8/28 3/9/34
f 3/9/35 21/8/29 23/25/32 6/1/36
f 7/11/37 18/5/21 19/12/24 1/7/38
f 11/15/11 9/40/10 8/2/39 2/14/40
f 13/17/15 11/15/14 2/14/41 4/16/42
f 16/4/19 13/17/18 4/16/43 5/18/44
f 20/21/23 17/32/22 10/3/9 12/20/12
f 22/23/27 20/21/26 12/20/13 14/22/16
f 24/6/31 22/23/30 14/22/17 15/33/20
