# This file uses meters as units for non-parametric coordinates.

v 19.989628 6.906381 25.859544
v 19.989628 4.703360 25.859544
v 22.133320 4.703360 25.859544
v 22.133320 6.906381 25.859544
v 23.639114 6.906381 25.859544
v 23.639114 4.703360 25.859544
v 25.782806 4.703360 25.859544
v 25.782806 6.906381 25.859544
v 27.315178 6.906381 25.859544
v 27.315178 4.703360 25.859544
v 29.458870 4.703360 25.859544
v 29.458870 6.906381 25.859544
v 31.206642 6.906381 25.859544
v 31.206642 4.703360 25.859544
v 33.350334 4.703360 25.859544
v 33.350334 6.906381 25.859544
v -34.824898 9.747923 25.859544
v -34.824898 5.428682 25.859544
v -22.908508 5.428682 25.859544
v -22.908508 9.747923 25.859544
vt 0.185474 0.811095
vt 0.185474 0.798719
vt 0.173631 0.798719
vt 0.173631 0.811095
vt 0.185474 0.811095
vt 0.185474 0.798719
vt 0.173631 0.798719
vt 0.173631 0.811095
vt 0.185474 0.811095
vt 0.185474 0.798719
vt 0.173631 0.798719
vt 0.173631 0.811095
vt 0.185474 0.811095
vt 0.185474 0.798719
vt 0.173631 0.798719
vt 0.173631 0.811095
vt 0.000540 0.749019
vt 0.000540 0.719557
vt 0.061849 0.719557
vt 0.061849 0.749019
vn 0.000000 0.000000 1.000000
vn 0.000000 0.000000 1.000000
vn 0.000000 0.000000 1.000000
vn 0.000000 0.000000 1.000000
vn 0.000000 0.000000 1.000000
vn 0.000000 0.000000 1.000000
vn 0.000000 0.000000 1.000000
vn 0.000000 0.000000 1.000000
vn 0.000000 0.000000 1.000000
vn 0.000000 0.000000 1.000000
vn 0.000000 0.000000 1.000000
vn 0.000000 0.000000 1.000000
vn 0.000000 0.000000 1.000000
vn 0.000000 0.000000 1.000000
vn 0.000000 0.000000 1.000000
vn 0.000000 0.000000 1.000000
vn 0.000000 0.000000 1.000000
vn 0.000000 0.000000 1.000000
vn 0.000000 0.000000 1.000000
vn 0.000000 0.000000 1.000000
f 1/1/1 2/2/2 3/3/3 4/4/4
f 5/5/5 6/6/6 7/7/7 8/8/8
f 9/9/9 10/10/10 11/11/11 12/12/12
f 13/13/13 14/14/14 15/15/15 16/16/16
f 17/17/17 18/18/18 19/19/19 20/20/20
