# This file uses centimeters as units for non-parametric coordinates.

v 17.587456 9.701617 26.223896
v 17.587456 7.498596 26.223896
v 19.731148 7.498596 26.223896
v 19.731148 9.701617 26.223896
v 19.767813 7.936696 26.223898
v 21.471378 7.936696 26.223898
v 21.471378 9.594382 26.223898
v 19.767813 9.594382 26.223898
v 25.256420 9.701617 26.223896
v 25.256420 7.498596 26.223896
v 27.400112 7.498596 26.223896
v 27.400112 9.701617 26.223896
v 28.905907 9.701617 26.223896
v 28.905907 7.498596 26.223896
v 31.049599 7.498596 26.223896
v 31.049599 9.701617 26.223896
v 32.581970 9.701617 26.223896
v 32.581970 7.498596 26.223896
v 34.725662 7.498596 26.223896
v 34.725662 9.701617 26.223896
v 36.473434 9.701617 26.223896
v 36.473434 7.498596 26.223896
v 38.617126 7.498596 26.223896
v 38.617126 9.701617 26.223896
v -19.137680 9.701617 26.223896
v -19.137680 7.498596 26.223896
v -16.993988 7.498596 26.223896
v -16.993988 9.701617 26.223896
v -32.974140 10.256794 26.223898
v -32.974140 7.274282 26.223898
v -30.071949 7.274282 26.223898
v -30.071949 10.256794 26.223898
v -36.539944 10.020645 26.223896
v -36.539944 7.179569 26.223896
v -33.775383 7.179569 26.223896
v -33.775383 10.020645 26.223896
v -28.800663 9.906893 26.223896
v -28.800663 7.293322 26.223896
v -21.590054 7.293322 26.223896
v -21.590054 9.906893 26.223896
vt 0.185474 0.811095
vt 0.185474 0.798719
vt 0.173631 0.798719
vt 0.173631 0.811095
vt 0.173285 0.798642
vt 0.173285 0.786266
vt 0.185821 0.786266
vt 0.185821 0.798642
vt 0.185474 0.811095
vt 0.185474 0.798719
vt 0.173631 0.798719
vt 0.173631 0.811095
vt 0.185474 0.811095
vt 0.185474 0.798719
vt 0.173631 0.798719
vt 0.173631 0.811095
vt 0.185474 0.811095
vt 0.185474 0.798719
vt 0.173631 0.798719
vt 0.173631 0.811095
vt 0.185474 0.811095
vt 0.185474 0.798719
vt 0.173631 0.798719
vt 0.173631 0.811095
vt 0.185474 0.811095
vt 0.185474 0.798719
vt 0.173631 0.798719
vt 0.173631 0.811095
vt 0.173285 0.798642
vt 0.173285 0.786266
vt 0.185821 0.786266
vt 0.185821 0.798642
vt 0.185474 0.811095
vt 0.185474 0.798719
vt 0.173631 0.798719
vt 0.173631 0.811095
vt 0.000540 0.749019
vt 0.000540 0.719557
vt 0.061849 0.719557
vt 0.061849 0.749019
vn 0.000000 0.000000 1.000000
vn 0.000000 0.000000 1.000000
vn 0.000000 0.000000 1.000000
vn 0.000000 0.000000 1.000000
vn 0.000000 0.000000 1.000000
vn 0.000000 0.000000 1.000000
vn 0.000000 0.000000 1.000000
vn 0.000000 0.000000 1.000000
vn 0.000000 0.000000 1.000000
vn 0.000000 0.000000 1.000000
vn 0.000000 0.000000 1.000000
vn 0.000000 0.000000 1.000000
vn 0.000000 0.000000 1.000000
vn 0.000000 0.000000 1.000000
vn 0.000000 0.000000 1.000000
vn 0.000000 0.000000 1.000000
vn 0.000000 0.000000 1.000000
vn 0.000000 0.000000 1.000000
vn 0.000000 0.000000 1.000000
vn 0.000000 0.000000 1.000000
vn 0.000000 0.000000 1.000000
vn 0.000000 0.000000 1.000000
vn 0.000000 0.000000 1.000000
vn 0.000000 0.000000 1.000000
vn 0.000000 0.000000 1.000000
vn 0.000000 0.000000 1.000000
vn 0.000000 0.000000 1.000000
vn 0.000000 0.000000 1.000000
vn 0.000000 0.000000 1.000000
vn 0.000000 0.000000 1.000000
vn 0.000000 0.000000 1.000000
vn 0.000000 0.000000 1.000000
vn 0.000000 0.000000 1.000000
vn 0.000000 0.000000 1.000000
vn 0.000000 0.000000 1.000000
vn 0.000000 0.000000 1.000000
vn 0.000000 0.000000 1.000000
vn 0.000000 0.000000 1.000000
vn 0.000000 0.000000 1.000000
vn 0.000000 0.000000 1.000000
f 1/1/1 2/2/2 3/3/3 4/4/4
f 5/5/5 6/6/6 7/7/7 8/8/8
f 9/9/9 10/10/10 11/11/11 12/12/12
f 13/13/13 14/14/14 15/15/15 16/16/16
f 17/17/17 18/18/18 19/19/19 20/20/20
f 21/21/21 22/22/22 23/23/23 24/24/24
f 25/25/25 26/26/26 27/27/27 28/28/28
f 29/29/29 30/30/30 31/31/31 32/32/32
f 33/33/33 34/34/34 35/35/35 36/36/36
f 37/37/37 38/38/38 39/39/39 40/40/40
