# This file uses meters as units for non-parametric coordinates.

v -40.915138 0.000000 -18.227299
v -34.506462 0.000000 -18.227299
v -40.915138 2.243090 -18.227299
v -34.506462 2.243090 -18.227299
v -40.915138 2.243090 -24.635975
v -34.506462 2.243090 -24.635975
v -40.915138 0.000000 -24.635975
v -34.506462 0.000000 -24.635975
v 40.915138 0.000000 -18.227299
v 34.506462 0.000000 -18.227299
v 40.915138 2.243090 -18.227299
v 34.506462 2.243090 -18.227299
v 40.915138 2.243090 -24.635975
v 34.506462 2.243090 -24.635975
v 40.915138 0.000000 -24.635975
v 34.506462 0.000000 -24.635975
v -40.915138 0.000000 24.398270
v -34.506462 0.000000 24.398270
v -40.915138 2.243090 24.398270
v -34.506462 2.243090 24.398270
v -40.915138 2.243090 17.989594
v -34.506462 2.243090 17.989594
v -40.915138 0.000000 17.989594
v -34.506462 0.000000 17.989594
v 40.915138 0.000000 24.398270
v 34.506462 0.000000 24.398270
v 40.915138 2.243090 24.398270
v 34.506462 2.243090 24.398270
v 40.915138 2.243090 17.989594
v 34.506462 2.243090 17.989594
v 40.915138 0.000000 17.989594
v 34.506462 0.000000 17.989594
v -42.228085 2.243088 25.671938
v 42.228085 2.243088 25.671938
v -42.228085 13.166018 25.671938
v 42.228085 13.166018 25.671938
v -42.228085 13.166018 -25.671938
v 42.228085 13.166018 -25.671938
v -42.228085 2.243088 -25.671938
v 42.228085 2.243088 -25.671938
v -42.228085 13.166018 20.738064
v -42.228085 2.243088 20.738064
v 42.228085 2.243088 20.738064
v 42.228085 13.166018 20.738064
vt 0.289687 0.978550
vt 0.304835 0.978550
vt 0.289687 0.993698
vt 0.304835 0.993698
vt 0.304835 0.993698
vt 0.289687 0.993698
vt 0.304835 0.978550
vt 0.289687 0.978550
vt 0.304835 0.993697
vt 0.289687 0.993697
vt 0.304835 0.993698
vt 0.304835 0.978550
vt 0.289687 0.978550
vt 0.289687 0.993698
vt 0.304835 0.993698
vt 0.304835 0.978550
vt 0.304835 0.993698
vt 0.304835 0.978550
vt 0.289687 0.978550
vt 0.289687 0.993698
vt 0.304835 0.993697
vt 0.289687 0.993697
vt 0.304835 0.978550
vt 0.304835 0.993698
vt 0.289687 0.978550
vt 0.304835 0.978550
vt 0.304835 0.993698
vt 0.289687 0.993698
vt 0.304835 0.993698
vt 0.289687 0.993698
vt 0.289687 0.978550
vt 0.304835 0.978550
vt 0.289687 0.993697
vt 0.304835 0.993697
vt 0.304835 0.978550
vt 0.304835 0.993698
vt 0.289687 0.978550
vt 0.289687 0.993698
vt 0.304835 0.993698
vt 0.304835 0.978550
vt 0.304835 0.993698
vt 0.304835 0.978550
vt 0.289687 0.978550
vt 0.289687 0.993698
vt 0.304835 0.993697
vt 0.289687 0.993697
vt 0.304835 0.978550
vt 0.304835 0.993698
vt 0.413210 0.982473
vt 0.429699 0.982146
vt 0.429679 0.985474
vt 0.413191 0.985803
vt 0.430073 0.987178
vt 0.412892 0.987504
vt 0.284492 0.991645
vt 0.308437 0.991591
vt 0.308437 0.991070
vt 0.284492 0.991125
vt 0.412818 0.980771
vt 0.429997 0.980444
vt 0.284492 0.978153
vt 0.284492 0.978674
vt 0.308437 0.978098
vt 0.308437 0.978619
vn 0.000000 0.000000 1.000000
vn 0.000000 0.000000 1.000000
vn 0.000000 0.000000 1.000000
vn 0.000000 0.000000 1.000000
vn 0.000000 0.000000 -1.000000
vn 0.000000 0.000000 -1.000000
vn 0.000000 0.000000 -1.000000
vn 0.000000 0.000000 -1.000000
vn 0.000000 -1.000000 0.000000
vn 0.000000 -1.000000 0.000000
vn 0.000000 -1.000000 0.000000
vn 0.000000 -1.000000 0.000000
vn 1.000000 0.000000 0.000000
vn 1.000000 0.000000 0.000000
vn 1.000000 0.000000 0.000000
vn 1.000000 0.000000 0.000000
vn -1.000000 0.000000 0.000000
vn -1.000000 0.000000 0.000000
vn -1.000000 0.000000 0.000000
vn -1.000000 0.000000 0.000000
vn 0.000000 0.000000 1.000000
vn 0.000000 0.000000 1.000000
vn 0.000000 0.000000 1.000000
vn 0.000000 0.000000 1.000000
vn 0.000000 0.000000 -1.000000
vn 0.000000 0.000000 -1.000000
vn 0.000000 0.000000 -1.000000
vn 0.000000 0.000000 -1.000000
vn 0.000000 -1.000000 0.000000
vn 0.000000 -1.000000 0.000000
vn 0.000000 -1.000000 0.000000
vn 0.000000 -1.000000 0.000000
vn -1.000000 0.000000 0.000000
vn -1.000000 0.000000 0.000000
vn -1.000000 0.000000 0.000000
vn -1.000000 0.000000 0.000000
vn 1.000000 0.000000 0.000000
vn 1.000000 0.000000 0.000000
vn 1.000000 0.000000 0.000000
vn 1.000000 0.000000 0.000000
vn 0.000000 0.000000 1.000000
vn 0.000000 0.000000 1.000000
vn 0.000000 0.000000 1.000000
vn 0.000000 0.000000 1.000000
vn 0.000000 0.000000 -1.000000
vn 0.000000 0.000000 -1.000000
vn 0.000000 0.000000 -1.000000
vn 0.000000 0.000000 -1.000000
vn 0.000000 -1.000000 0.000000
vn 0.000000 -1.000000 0.000000
vn 0.000000 -1.000000 0.000000
vn 0.000000 -1.000000 0.000000
vn 1.000000 0.000000 0.000000
vn 1.000000 0.000000 0.000000
vn 1.000000 0.000000 0.000000
vn 1.000000 0.000000 0.000000
vn -1.000000 0.000000 0.000000
vn -1.000000 0.000000 0.000000
vn -1.000000 0.000000 0.000000
vn -1.000000 0.000000 0.000000
vn 0.000000 0.000000 1.000000
vn 0.000000 0.000000 1.000000
vn 0.000000 0.000000 1.000000
vn 0.000000 0.000000 1.000000
vn 0.000000 0.000000 -1.000000
vn 0.000000 0.000000 -1.000000
vn 0.000000 0.000000 -1.000000
vn 0.000000 0.000000 -1.000000
vn 0.000000 -1.000000 0.000000
vn 0.000000 -1.000000 0.000000
vn 0.000000 -1.000000 0.000000
vn 0.000000 -1.000000 0.000000
vn -1.000000 0.000000 0.000000
vn -1.000000 0.000000 0.000000
vn -1.000000 0.000000 0.000000
vn -1.000000 0.000000 0.000000
vn 1.000000 0.000000 0.000000
vn 1.000000 0.000000 0.000000
vn 1.000000 0.000000 0.000000
vn 1.000000 0.000000 0.000000
vn 0.000000 0.000000 1.000000
vn 0.000000 0.000000 1.000000
vn 0.000000 0.000000 1.000000
vn 0.000000 0.000000 1.000000
vn 0.000000 1.000000 0.000000
vn 0.000000 1.000000 0.000000
vn 0.000000 1.000000 0.000000
vn 0.000000 1.000000 0.000000
vn 0.000000 0.000000 -1.000000
vn 0.000000 0.000000 -1.000000
vn 0.000000 0.000000 -1.000000
vn 0.000000 0.000000 -1.000000
vn 0.000000 -1.000000 0.000000
vn 0.000000 -1.000000 0.000000
vn 0.000000 -1.000000 0.000000
vn 0.000000 -1.000000 0.000000
vn 1.000000 0.000000 0.000000
vn 1.000000 0.000000 0.000000
vn 1.000000 0.000000 0.000000
vn 1.000000 0.000000 0.000000
vn -1.000000 0.000000 0.000000
vn -1.000000 0.000000 0.000000
vn -1.000000 0.000000 0.000000
vn -1.000000 0.000000 0.000000
vn -1.000000 0.000000 0.000000
vn -1.000000 0.000000 0.000000
vn 0.000000 -1.000000 0.000000
vn 0.000000 -1.000000 0.000000
vn 1.000000 0.000000 0.000000
vn 1.000000 0.000000 0.000000
vn 0.000000 1.000000 0.000000
vn 0.000000 1.000000 0.000000
f 1/1/1 2/2/2 4/4/3 3/3/4
f 5/5/5 6/6/6 8/8/7 7/7/8
f 7/7/9 8/8/10 2/10/11 1/9/12
f 2/2/13 8/8/14 6/6/15 4/4/16
f 7/12/17 1/1/18 3/3/19 5/11/20
f 9/13/21 11/14/22 12/15/23 10/16/24
f 13/17/25 15/18/26 16/19/27 14/20/28
f 15/18/29 9/21/30 10/22/31 16/19/32
f 10/16/33 12/15/34 14/20/35 16/19/36
f 15/23/37 13/24/38 11/14/39 9/13/40
f 17/25/41 18/26/42 20/27/43 19/28/44
f 21/29/45 22/30/46 24/31/47 23/32/48
f 23/32/49 24/31/50 18/33/51 17/34/52
f 18/26/53 24/31/54 22/30/55 20/27/56
f 23/35/57 17/25/58 19/28/59 21/36/60
f 25/37/61 27/38/62 28/39/63 26/40/64
f 29/41/65 31/42/66 32/43/67 30/44/68
f 31/42/69 25/45/70 26/46/71 32/43/72
f 26/40/73 28/39/74 30/44/75 32/43/76
f 31/47/77 29/48/78 27/38/79 25/37/80
f 33/49/81 34/50/82 36/51/83 35/52/84
f 35/52/85 36/51/86 44/53/87 41/54/88
f 37/55/89 38/56/90 40/57/91 39/58/92
f 42/59/93 43/60/94 34/50/95 33/49/96
f 34/50/97 43/60/98 44/53/99 36/51/100
f 42/59/101 33/49/102 35/52/103 41/54/104
f 39/58/105 42/61/101 41/62/104 37/55/106
f 39/58/107 40/57/108 43/63/94 42/61/93
f 44/64/99 43/63/98 40/57/109 38/56/110
f 41/62/88 44/64/87 38/56/111 37/55/112
