# This file uses meters as units for non-parametric coordinates.

v -12.023435 9.409309 25.895277
v -12.023435 7.790903 25.895277
v 12.023438 7.790903 25.895277
v 12.023438 9.409309 25.895277
v 15.976325 5.470402 25.811701
v 42.228085 5.470402 25.811701
v 42.228085 11.729812 25.811701
v 15.976325 11.729812 25.811701
v -42.228085 5.470402 25.811701
v -15.976322 5.470402 25.811701
v -15.976322 11.729812 25.811701
v -42.228085 11.729812 25.811701
v -13.359057 2.895144 25.811701
v 13.359061 2.895144 25.811701
vt 0.415002 0.958797
vt 0.415002 0.949846
vt 0.431074 0.949846
vt 0.431074 0.958797
vt 0.462700 0.993842
vt 0.462700 0.984891
vt 0.446628 0.984891
vt 0.446628 0.993842
vt 0.462700 0.984891
vt 0.446628 0.984891
vt 0.446628 0.993842
vt 0.462700 0.993842
vt 0.446628 0.979007
vt 0.462700 0.979002
vn 0.000000 0.000000 1.000000
vn 0.000000 0.000000 1.000000
vn 0.000000 0.000000 1.000000
vn 0.000000 0.000000 1.000000
vn 0.000000 0.000000 1.000000
vn 0.000000 0.000000 1.000000
vn 0.000000 0.000000 1.000000
vn 0.000000 0.000000 1.000000
vn 0.000000 0.000000 1.000000
vn 0.000000 0.000000 1.000000
vn 0.000000 0.000000 1.000000
vn 0.000000 0.000000 1.000000
vn 0.000000 0.000000 1.000000
vn 0.000000 0.000000 1.000000
f 1/1/1 2/2/2 3/3/3 4/4/4
f 8/5/5 5/6/6 6/7/7 7/8/8
f 9/9/9 10/10/10 11/11/11 12/12/12
f 13/13/13 14/14/14 5/6/6 10/10/10
f 11/11/11 10/10/10 5/6/6 8/5/5
