# This file uses meters as units for non-parametric coordinates.

v -36.266468 10.922931 -25.671938
v 36.266468 10.922931 -25.671938
v -36.266468 0.000000 -25.671938
v 36.266468 0.000000 -25.671938
v -36.266468 10.922931 23.702841
v -36.266468 0.000000 23.702841
v 36.266468 0.000000 23.702841
v 36.266468 10.922931 23.702841
vt 0.284492 0.991645
vt 0.308437 0.991591
vt 0.308437 0.991070
vt 0.284492 0.991125
vt 0.284492 0.978153
vt 0.284492 0.978674
vt 0.308437 0.978098
vt 0.308437 0.978619
vn 0.000000 0.000000 -1.000000
vn 0.000000 0.000000 -1.000000
vn 0.000000 0.000000 -1.000000
vn 0.000000 0.000000 -1.000000
vn -1.000000 0.000000 0.000000
vn -1.000000 0.000000 0.000000
vn -1.000000 0.000000 0.000000
vn -1.000000 0.000000 0.000000
vn 0.000000 -1.000000 0.000000
vn 0.000000 -1.000000 0.000000
vn 0.000000 -1.000000 0.000000
vn 0.000000 -1.000000 0.000000
vn 1.000000 0.000000 0.000000
vn 1.000000 0.000000 0.000000
vn 1.000000 0.000000 0.000000
vn 1.000000 0.000000 0.000000
vn 0.000000 1.000000 0.000000
vn 0.000000 1.000000 0.000000
vn 0.000000 1.000000 0.000000
vn 0.000000 1.000000 0.000000
f 1/1/1 2/2/2 4/3/3 3/4/4
f 3/4/5 6/5/6 5/6/7 1/1/8
f 3/4/9 4/3/10 7/7/11 6/5/12
f 8/8/13 7/7/14 4/3/15 2/2/16
f 5/6/17 8/8/18 2/2/19 1/1/20
