# This file uses meters as units for non-parametric coordinates.

v 6.243418 0.000000 -3.604639
v 3.604639 0.000000 -6.243418
v 0.000000 0.000000 -7.209278
v -3.604639 0.000000 -6.243418
v -6.243418 0.000000 -3.604639
v -7.209278 0.000000 0.000000
v -6.243418 0.000000 3.604639
v -3.604639 0.000000 6.243418
v 0.000000 0.000000 7.209278
v 3.604639 0.000000 6.243418
v 6.243418 0.000000 3.604639
v 7.209278 0.000000 0.000000
v 9.446378 97.391479 -5.453870
v 5.453870 97.391479 -9.446378
v 0.000000 97.391479 -10.907740
v -5.453870 97.391479 -9.446378
v -9.446378 97.391479 -5.453870
v -10.907740 97.391479 0.000000
v -9.446378 97.391479 5.453870
v -5.453870 97.391479 9.446378
v 0.000000 97.391479 10.907740
v 5.453870 97.391479 9.446378
v 9.446378 97.391479 5.453870
v 10.907740 97.391479 0.000000
v 0.000000 0.000000 0.000000
v 0.000000 78.219048 0.000000
v 0.000000 55.044067 4.192222
v -2.096111 55.044067 3.630571
v -3.630571 55.044067 2.096111
v -4.192222 55.044067 0.000000
v -3.630571 55.044067 -2.096111
v -2.096111 55.044067 -3.630571
v 0.000000 55.044067 -4.192222
v 2.096111 55.044067 -3.630571
v 3.630571 55.044067 -2.096111
v 4.192222 55.044067 0.000000
v 3.630571 55.044067 2.096111
v 2.096111 55.044067 3.630571
v -2.064536 75.613815 3.575881
v -3.575881 75.613815 2.064536
v -4.129072 75.613815 0.000000
v -3.575881 75.613815 -2.064536
v -2.064536 75.613815 -3.575881
v 0.000000 75.613815 -4.129072
v 2.064536 75.613815 -3.575881
v 3.575881 75.613815 -2.064536
v 4.129072 75.613815 0.000000
v 3.575881 75.613815 2.064536
v 2.064536 75.613815 3.575881
v 0.000000 75.613815 4.129072
v -8.390547 18.287924 14.532851
v -8.005676 8.412292 13.866236
v -13.866236 8.412292 8.005676
v -14.532851 18.287924 8.390547
v -16.011353 8.412292 0.000001
v -16.781094 18.287924 0.000000
v -13.866235 8.412292 -8.005676
v -14.532851 18.287924 -8.390547
v -8.005676 8.412292 -13.866236
v -8.390547 18.287924 -14.532851
v 0.000000 8.412292 -16.011353
v 0.000000 18.287924 -16.781094
v 8.005676 8.412292 -13.866236
v 8.390547 18.287924 -14.532851
v 13.866236 8.412292 -8.005676
v 14.532851 18.287924 -8.390547
v 16.011353 8.412292 -0.000001
v 16.781094 18.287924 0.000000
v 13.866235 8.412292 8.005676
v 14.532851 18.287924 8.390547
v 8.005676 8.412292 13.866236
v 8.390547 18.287924 14.532851
v 0.000000 8.412292 16.011353
v 0.000000 18.287924 16.781094
v 0.000000 88.965034 9.379782
v -4.689891 88.965034 8.123127
v -8.123127 88.965034 4.689891
v -9.379782 88.965034 0.000000
v -8.123127 88.965034 -4.689891
v -4.689891 88.965034 -8.123127
v 0.000000 88.965034 -9.379782
v 4.689891 88.965034 -8.123127
v 8.123127 88.965034 -4.689891
v 9.379782 88.965034 0.000000
v 8.123127 88.965034 4.689891
v 4.689891 88.965034 8.123127
vt 0.520819 0.978552
vt 0.517774 0.975507
vt 0.513614 0.974392
vt 0.509454 0.975507
vt 0.506408 0.978552
vt 0.505294 0.982713
vt 0.506408 0.986873
vt 0.509454 0.989918
vt 0.513614 0.991033
vt 0.517774 0.989918
vt 0.520819 0.986873
vt 0.521934 0.982713
vt 0.524909 0.974753
vt 0.522112 0.974753
vt 0.519314 0.974753
vt 0.516516 0.974753
vt 0.513718 0.974753
vt 0.510921 0.974753
vt 0.508123 0.974753
vt 0.510909 0.974753
vt 0.513695 0.974753
vt 0.516481 0.974753
vt 0.519267 0.974753
vt 0.522054 0.974753
vt 0.524840 0.974753
vt 0.519998 0.980259
vt 0.516965 0.977226
vt 0.512822 0.976116
vt 0.508679 0.977226
vt 0.505645 0.980259
vt 0.504535 0.984402
vt 0.505645 0.988545
vt 0.508679 0.991578
vt 0.512822 0.992688
vt 0.516965 0.991578
vt 0.519998 0.988545
vt 0.521108 0.984402
vt 0.513614 0.982380
vt 0.512822 0.984071
vt 0.524840 0.993365
vt 0.510909 0.984059
vt 0.508123 0.984059
vt 0.510921 0.984059
vt 0.513718 0.984059
vt 0.516516 0.984059
vt 0.519314 0.984059
vt 0.522112 0.984059
vt 0.524840 0.984059
vt 0.524909 0.984059
vt 0.522054 0.984059
vt 0.519267 0.984059
vt 0.516481 0.984059
vt 0.513695 0.984059
vt 0.524909 0.985269
vt 0.524840 0.981781
vt 0.524909 0.974830
vt 0.522112 0.974830
vt 0.524909 0.981781
vt 0.519314 0.974830
vt 0.522112 0.981781
vt 0.516516 0.974830
vt 0.519314 0.981781
vt 0.513718 0.974830
vt 0.516516 0.981781
vt 0.510921 0.974830
vt 0.513718 0.981781
vt 0.508123 0.974830
vt 0.510921 0.981781
vt 0.510909 0.974830
vt 0.508123 0.981781
vt 0.513695 0.974830
vt 0.510909 0.981781
vt 0.516481 0.974830
vt 0.513695 0.981781
vt 0.519267 0.974830
vt 0.516481 0.981781
vt 0.522054 0.974830
vt 0.519267 0.981781
vt 0.524840 0.974830
vt 0.522054 0.981781
vt 0.510909 0.985269
vt 0.508123 0.993365
vt 0.508123 0.985269
vt 0.510921 0.993365
vt 0.510921 0.985269
vt 0.513718 0.993365
vt 0.513718 0.985269
vt 0.516516 0.993365
vt 0.516516 0.985269
vt 0.519314 0.993365
vt 0.519314 0.985269
vt 0.522112 0.993365
vt 0.522112 0.985269
vt 0.524909 0.993365
vt 0.524840 0.985269
vt 0.522054 0.993365
vt 0.522054 0.985269
vt 0.519267 0.993365
vt 0.519267 0.985269
vt 0.516481 0.993365
vt 0.516481 0.985269
vt 0.513695 0.993365
vt 0.513695 0.985269
vt 0.510909 0.993365
vt 0.513695 0.979406
vt 0.510909 0.979406
vt 0.508123 0.979406
vt 0.510921 0.979406
vt 0.513718 0.979406
vt 0.516516 0.979406
vt 0.519314 0.979406
vt 0.522112 0.979406
vt 0.524840 0.979406
vt 0.524909 0.979406
vt 0.522054 0.979406
vt 0.519267 0.979406
vt 0.516481 0.979406
vn 0.000000 -1.000000 0.000000
vn 0.000000 -1.000000 0.000000
vn 0.000000 -1.000000 0.000000
vn 0.000000 -1.000000 0.000000
vn 0.000000 -1.000000 0.000000
vn 0.000000 -1.000000 0.000000
vn 0.000000 -1.000000 0.000000
vn 0.000000 -1.000000 0.000000
vn 0.000000 -1.000000 0.000000
vn 0.000000 -1.000000 0.000000
vn 0.000000 -1.000000 0.000000
vn 0.000000 -1.000000 0.000000
vn 0.000000 -1.000000 0.000000
vn -0.752730 0.494500 0.434589
vn -0.434589 0.494500 0.752730
vn -0.000000 1.000000 0.000000
vn 0.000000 0.494500 0.869178
vn 0.434589 0.494500 0.752730
vn 0.752730 0.494500 0.434589
vn 0.869178 0.494500 0.000000
vn 0.752730 0.494500 -0.434589
vn 0.434589 0.494500 -0.752730
vn 0.000000 0.494500 -0.869178
vn -0.434589 0.494500 -0.752730
vn -0.752730 0.494500 -0.434589
vn -0.869178 0.494500 0.000000
vn -0.481051 0.272693 0.833204
vn 0.000000 0.272693 0.962101
vn 0.000000 -0.201797 0.979427
vn -0.489714 -0.201797 0.848209
vn -0.833204 0.272693 0.481051
vn -0.848209 -0.201797 0.489714
vn -0.962101 0.272693 0.000000
vn -0.979427 -0.201797 -0.000000
vn -0.833204 0.272693 -0.481051
vn -0.848209 -0.201797 -0.489714
vn -0.481051 0.272693 -0.833204
vn -0.489714 -0.201797 -0.848209
vn 0.000000 0.272693 -0.962101
vn 0.000000 -0.201797 -0.979427
vn 0.481051 0.272693 -0.833204
vn 0.489714 -0.201797 -0.848209
vn 0.833204 0.272693 -0.481051
vn 0.848209 -0.201797 -0.489714
vn 0.962101 0.272693 0.000000
vn 0.979427 -0.201797 0.000000
vn 0.833204 0.272693 0.481051
vn 0.848209 -0.201797 0.489714
vn 0.481051 0.272693 0.833204
vn 0.489714 -0.201797 0.848209
vn -0.480814 -0.274357 0.832794
vn -0.832794 -0.274357 0.480814
vn -0.961628 -0.274357 -0.000000
vn -0.832794 -0.274357 -0.480814
vn -0.480814 -0.274357 -0.832794
vn 0.000000 -0.274357 -0.961628
vn 0.480814 -0.274357 -0.832794
vn 0.832794 -0.274357 -0.480814
vn 0.961628 -0.274357 0.000000
vn 0.832794 -0.274357 0.480814
vn 0.480814 -0.274357 0.832794
vn -0.000000 -0.274357 0.961628
vn -0.488889 0.209644 0.846780
vn -0.462465 -0.380136 0.801013
vn 0.000000 -0.380136 0.924930
vn 0.000000 0.209644 0.977778
vn -0.846780 0.209644 0.488889
vn -0.801013 -0.380136 0.462465
vn -0.977778 0.209644 0.000000
vn -0.924930 -0.380136 -0.000000
vn -0.846780 0.209644 -0.488889
vn -0.801013 -0.380136 -0.462465
vn -0.488889 0.209644 -0.846780
vn -0.462465 -0.380136 -0.801013
vn 0.000000 0.209644 -0.977778
vn 0.000000 -0.380136 -0.924930
vn 0.488889 0.209644 -0.846780
vn 0.462465 -0.380136 -0.801013
vn 0.846780 0.209644 -0.488889
vn 0.801013 -0.380136 -0.462465
vn 0.977778 0.209644 0.000000
vn 0.924930 -0.380136 0.000000
vn 0.846780 0.209644 0.488889
vn 0.801013 -0.380136 0.462465
vn 0.488889 0.209644 0.846780
vn 0.462465 -0.380136 0.801013
vn 0.598353 -0.722932 -0.345459
vn 0.345459 -0.722932 -0.598353
vn 0.000000 -0.722932 -0.690919
vn -0.345459 -0.722932 -0.598353
vn -0.598353 -0.722932 -0.345459
vn -0.690919 -0.722932 -0.000000
vn -0.598353 -0.722932 0.345459
vn -0.345459 -0.722932 0.598353
vn 0.000000 -0.722932 0.690919
vn 0.345459 -0.722932 0.598353
vn 0.598353 -0.722932 0.345459
vn 0.690919 -0.722932 0.000000
vn -0.000000 -0.178419 0.983955
vn -0.491977 -0.178419 0.852130
vn -0.852130 -0.178419 0.491977
vn -0.983955 -0.178420 -0.000000
vn -0.852129 -0.178419 -0.491978
vn -0.491977 -0.178419 -0.852130
vn 0.000000 -0.178419 -0.983955
vn 0.491977 -0.178419 -0.852130
vn 0.852130 -0.178419 -0.491977
vn 0.983955 -0.178420 0.000000
vn 0.852129 -0.178419 0.491978
vn 0.491977 -0.178419 0.852130
f 2/2/1 1/1/2 25/38/3
f 3/3/4 2/2/1 25/38/3
f 4/4/5 3/3/4 25/38/3
f 5/5/6 4/4/5 25/38/3
f 6/6/7 5/5/6 25/38/3
f 7/7/8 6/6/7 25/38/3
f 8/8/9 7/7/8 25/38/3
f 9/9/10 8/8/9 25/38/3
f 10/10/11 9/9/10 25/38/3
f 11/11/12 10/10/11 25/38/3
f 12/12/13 11/11/12 25/38/3
f 1/1/2 12/12/13 25/38/3
f 13/36/14 14/35/15 26/39/16
f 14/35/15 15/34/17 26/39/16
f 15/34/17 16/33/18 26/39/16
f 16/33/18 17/32/19 26/39/16
f 17/32/19 18/31/20 26/39/16
f 18/31/20 19/30/21 26/39/16
f 19/30/21 20/29/22 26/39/16
f 20/29/22 21/28/23 26/39/16
f 21/28/23 22/27/24 26/39/16
f 22/27/24 23/26/25 26/39/16
f 23/26/25 24/37/26 26/39/16
f 24/37/26 13/36/14 26/39/16
f 28/104/27 27/102/28 50/53/29 39/41/30
f 29/82/31 28/104/27 39/41/30 40/42/32
f 30/84/33 29/82/31 40/42/32 41/43/34
f 31/86/35 30/84/33 41/43/34 42/44/36
f 32/88/37 31/86/35 42/44/36 43/45/38
f 33/90/39 32/88/37 43/45/38 44/46/40
f 34/92/41 33/90/39 44/46/40 45/47/42
f 35/94/43 34/92/41 45/47/42 46/49/44
f 36/96/45 35/40/43 46/48/44 47/50/46
f 37/98/47 36/96/45 47/50/46 48/51/48
f 38/100/49 37/98/47 48/51/48 49/52/50
f 27/102/28 38/100/49 49/52/50 50/53/29
f 40/42/32 39/41/30 76/106/51 77/107/52
f 41/43/34 40/42/32 77/107/52 78/108/53
f 42/44/36 41/43/34 78/108/53 79/109/54
f 43/45/38 42/44/36 79/109/54 80/110/55
f 44/46/40 43/45/38 80/110/55 81/111/56
f 45/47/42 44/46/40 81/111/56 82/112/57
f 46/49/44 45/47/42 82/112/57 83/114/58
f 47/50/46 46/48/44 83/113/58 84/115/59
f 48/51/48 47/50/46 84/115/59 85/116/60
f 49/52/50 48/51/48 85/116/60 86/117/61
f 50/53/29 49/52/50 86/117/61 75/105/62
f 39/41/30 50/53/29 75/105/62 76/106/51
f 51/81/63 52/72/64 73/74/65 74/103/66
f 52/72/64 51/81/63 54/83/67 53/70/68
f 53/70/68 54/83/67 56/85/69 55/68/70
f 55/68/70 56/85/69 58/87/71 57/66/72
f 57/66/72 58/87/71 60/89/73 59/64/74
f 59/64/74 60/89/73 62/91/75 61/62/76
f 61/62/76 62/91/75 64/93/77 63/60/78
f 63/60/78 64/93/77 66/54/79 65/58/80
f 65/55/80 66/95/79 68/97/81 67/80/82
f 67/80/82 68/97/81 70/99/83 69/78/84
f 69/78/84 70/99/83 72/101/85 71/76/86
f 71/76/86 72/101/85 74/103/66 73/74/65
f 1/56/87 2/57/88 63/60/78 65/58/80
f 2/57/88 3/59/89 61/62/76 63/60/78
f 3/59/89 4/61/90 59/64/74 61/62/76
f 4/61/90 5/63/91 57/66/72 59/64/74
f 5/63/91 6/65/92 55/68/70 57/66/72
f 6/65/92 7/67/93 53/70/68 55/68/70
f 7/67/93 8/69/94 52/72/64 53/70/68
f 8/69/94 9/71/95 73/74/65 52/72/64
f 9/71/95 10/73/96 71/76/86 73/74/65
f 10/73/96 11/75/97 69/78/84 71/76/86
f 11/75/97 12/77/98 67/80/82 69/78/84
f 12/77/98 1/79/87 65/55/80 67/80/82
f 54/83/67 51/81/63 28/104/27 29/82/31
f 56/85/69 54/83/67 29/82/31 30/84/33
f 58/87/71 56/85/69 30/84/33 31/86/35
f 60/89/73 58/87/71 31/86/35 32/88/37
f 62/91/75 60/89/73 32/88/37 33/90/39
f 64/93/77 62/91/75 33/90/39 34/92/41
f 66/54/79 64/93/77 34/92/41 35/94/43
f 68/97/81 66/95/79 35/40/43 36/96/45
f 70/99/83 68/97/81 36/96/45 37/98/47
f 72/101/85 70/99/83 37/98/47 38/100/49
f 74/103/66 72/101/85 38/100/49 27/102/28
f 51/81/63 74/103/66 27/102/28 28/104/27
f 76/106/51 75/105/62 21/21/99 20/20/100
f 77/107/52 76/106/51 20/20/100 19/19/101
f 78/108/53 77/107/52 19/19/101 18/18/102
f 79/109/54 78/108/53 18/18/102 17/17/103
f 80/110/55 79/109/54 17/17/103 16/16/104
f 81/111/56 80/110/55 16/16/104 15/15/105
f 82/112/57 81/111/56 15/15/105 14/14/106
f 83/114/58 82/112/57 14/14/106 13/13/107
f 84/115/59 83/113/58 13/25/107 24/24/108
f 85/116/60 84/115/59 24/24/108 23/23/109
f 86/117/61 85/116/60 23/23/109 22/22/110
f 75/105/62 86/117/61 22/22/110 21/21/99
