# This file uses centimeters as units for non-parametric coordinates.

v 12.103452 0.000000 -12.103457
v -0.000004 0.000000 -17.116880
v -12.103459 0.000000 -12.103457
v -17.116882 0.000000 -0.000002
v -12.103459 0.000000 12.103454
v -0.000004 0.000000 17.116877
v 12.103452 0.000000 12.103454
v 17.116875 0.000000 -0.000002
v 11.800972 166.652359 -11.800978
v -0.000004 166.652359 -16.689104
v -11.800980 166.652359 -11.800978
v -16.689106 166.652359 -0.000002
v -11.800980 166.652359 11.800974
v -0.000004 166.652359 16.689100
v 11.800972 166.652359 11.800974
v 16.689098 166.652359 -0.000002
v -0.000004 0.000000 -0.000002
v 24.025620 128.672607 24.025623
v -0.000004 128.672607 33.977364
v -24.025627 128.672607 24.025621
v -33.977367 128.672607 -0.000002
v -24.025627 128.672607 -24.025625
v -0.000004 128.672607 -33.977364
v 24.025620 128.672607 -24.025625
v 33.977360 128.672607 -0.000002
v 25.627436 82.920074 25.627438
v -0.000005 82.920074 36.242664
v -25.627438 82.920074 25.627432
v -36.242668 82.920074 -0.000002
v -25.627438 82.920074 -25.627436
v -0.000005 82.920074 -36.242664
v 25.627430 82.920074 -25.627436
v 36.242668 82.920074 -0.000002
v 24.025625 37.167545 24.025627
v -0.000004 37.167545 33.977364
v -24.025627 37.167545 24.025621
v -33.977367 37.167545 -0.000002
v -24.025627 37.167545 -24.025625
v -0.000004 37.167545 -33.977364
v 24.025620 37.167545 -24.025625
v 33.977360 37.167545 -0.000002
v 9.699371 166.652359 -9.699377
v -0.000004 166.652359 -13.716990
v -9.699379 166.652359 -9.699377
v -13.716991 166.652359 -0.000002
v -9.699379 166.652359 9.699373
v -0.000004 166.652359 13.716986
v 9.699373 166.652359 9.699375
v 13.716984 166.652359 -0.000002
v 6.642926 3.530541 -6.642931
v -0.000004 3.530541 -9.394525
v -0.000004 3.530541 -0.000002
v -6.642933 3.530541 -6.642931
v -9.394526 3.530541 -0.000002
v -6.642933 3.530541 6.642928
v -0.000004 3.530541 9.394521
v 6.642926 3.530541 6.642928
v 9.394519 3.530541 -0.000002
v -0.000004 8.182791 26.356264
v -18.636694 8.182791 18.636688
v -26.356270 8.182791 -0.000002
v -18.636694 8.182791 -18.636692
v -0.000004 8.182791 -26.356268
v 18.636686 8.182791 -18.636692
v 26.356262 8.182791 -0.000002
v 18.636686 8.182791 18.636688
v 16.956249 159.647568 16.956253
v -0.000004 159.647568 23.979765
v -16.956257 159.647568 16.956251
v -23.979771 159.647568 -0.000002
v -16.956257 159.647568 -16.956255
v -0.000004 159.647568 -23.979769
v 16.956249 159.647568 -16.956255
v 23.979763 159.647568 -0.000002
vt 0.453603 0.851695
vt 0.450207 0.850288
vt 0.446811 0.851695
vt 0.445405 0.855090
vt 0.446811 0.858486
vt 0.450207 0.859893
vt 0.453603 0.858486
vt 0.455009 0.855090
vt 0.443634 0.845918
vt 0.445403 0.845918
vt 0.447172 0.845918
vt 0.448942 0.845918
vt 0.450711 0.845918
vt 0.452480 0.845918
vt 0.454250 0.845918
vt 0.456019 0.845918
vt 0.457789 0.845918
vt 0.443602 0.867535
vt 0.445403 0.867535
vt 0.447172 0.867535
vt 0.448942 0.867535
vt 0.450711 0.867535
vt 0.452480 0.867535
vt 0.454250 0.867535
vt 0.456019 0.867535
vt 0.457820 0.867535
vt 0.445403 0.867032
vt 0.447172 0.867033
vt 0.448942 0.867033
vt 0.450711 0.867033
vt 0.452481 0.867033
vt 0.454250 0.867033
vt 0.456020 0.867033
vt 0.457681 0.867034
vt 0.450207 0.854898
vt 0.450229 0.854924
vt 0.454250 0.863932
vt 0.452480 0.863932
vt 0.450711 0.863932
vt 0.448942 0.863932
vt 0.447172 0.863932
vt 0.445403 0.863932
vt 0.457789 0.863932
vt 0.443634 0.863932
vt 0.456019 0.863932
vt 0.454250 0.856727
vt 0.452480 0.856727
vt 0.450711 0.856727
vt 0.448942 0.856727
vt 0.447172 0.856727
vt 0.445403 0.856727
vt 0.457789 0.856727
vt 0.443634 0.856727
vt 0.456019 0.856727
vt 0.454250 0.849521
vt 0.452480 0.849521
vt 0.450711 0.849521
vt 0.448942 0.849521
vt 0.447172 0.849521
vt 0.445403 0.849521
vt 0.457789 0.849521
vt 0.443634 0.849521
vt 0.456019 0.849521
vt 0.453468 0.848908
vt 0.454804 0.848908
vt 0.445456 0.848908
vt 0.446791 0.848908
vt 0.448127 0.848908
vt 0.449462 0.848908
vt 0.450797 0.848908
vt 0.452133 0.848908
vt 0.453643 0.858532
vt 0.450229 0.859947
vt 0.446814 0.858532
vt 0.445400 0.855118
vt 0.446814 0.851703
vt 0.450229 0.850289
vt 0.453643 0.851703
vt 0.455057 0.855118
vt 0.452480 0.846712
vt 0.450711 0.846712
vt 0.448942 0.846712
vt 0.447172 0.846712
vt 0.445403 0.846712
vt 0.457789 0.846712
vt 0.443634 0.846712
vt 0.456019 0.846712
vt 0.454250 0.846712
vt 0.454250 0.866871
vt 0.452480 0.866871
vt 0.450711 0.866871
vt 0.448942 0.866871
vt 0.447172 0.866871
vt 0.445403 0.866871
vt 0.457789 0.866871
vt 0.443634 0.866871
vt 0.456019 0.866871
vt 0.443742 0.867034
vt 0.452133 0.865222
vt 0.450797 0.865222
vt 0.454804 0.865222
vt 0.453468 0.865222
vt 0.456139 0.848908
vt 0.456139 0.865222
vt 0.449462 0.865222
vt 0.448127 0.865222
vt 0.446791 0.865222
vt 0.445456 0.865222
vn 0.468815 -0.748615 -0.468815
vn 0.000000 -0.748615 -0.663005
vn 0.000000 -0.748615 -0.663005
vn 0.468815 -0.748615 -0.468815
vn 0.000000 -0.748615 -0.663005
vn -0.468815 -0.748615 -0.468815
vn -0.468815 -0.748615 -0.468815
vn 0.000000 -0.748615 -0.663005
vn -0.468815 -0.748615 -0.468815
vn -0.663005 -0.748615 0.000000
vn -0.663005 -0.748615 0.000000
vn -0.468815 -0.748615 -0.468815
vn -0.663005 -0.748615 0.000000
vn -0.468815 -0.748615 0.468815
vn -0.468815 -0.748615 0.468815
vn -0.663005 -0.748615 0.000000
vn -0.468815 -0.748615 0.468815
vn 0.000000 -0.748615 0.663005
vn 0.000000 -0.748615 0.663005
vn -0.468815 -0.748615 0.468815
vn 0.000000 -0.748615 0.663005
vn 0.468815 -0.748615 0.468815
vn 0.468815 -0.748615 0.468815
vn 0.000000 -0.748615 0.663005
vn 0.468815 -0.748615 0.468815
vn 0.663005 -0.748615 0.000000
vn 0.663005 -0.748615 0.000000
vn 0.468815 -0.748615 0.468815
vn 0.663005 -0.748615 0.000000
vn 0.468815 -0.748615 -0.468815
vn 0.468815 -0.748615 -0.468815
vn 0.663005 -0.748615 0.000000
vn 0.000000 -1.000000 0.000000
vn 0.000000 -1.000000 0.000000
vn 0.000000 -1.000000 0.000000
vn 0.000000 -1.000000 0.000000
vn 0.000000 -1.000000 0.000000
vn 0.000000 -1.000000 0.000000
vn 0.000000 -1.000000 0.000000
vn 0.000000 -1.000000 0.000000
vn 0.000000 -1.000000 0.000000
vn 0.000000 -1.000000 0.000000
vn 0.000000 -1.000000 0.000000
vn 0.000000 -1.000000 0.000000
vn 0.000000 -1.000000 0.000000
vn 0.000000 -1.000000 0.000000
vn 0.000000 -1.000000 0.000000
vn 0.000000 -1.000000 0.000000
vn 0.000000 -1.000000 0.000000
vn 0.000000 -1.000000 0.000000
vn 0.000000 -1.000000 0.000000
vn 0.000000 -1.000000 0.000000
vn 0.000000 -1.000000 0.000000
vn 0.000000 -1.000000 0.000000
vn 0.000000 -1.000000 0.000000
vn 0.000000 -1.000000 0.000000
vn -0.706425 0.043901 0.706425
vn 0.000000 0.043901 0.999036
vn 0.000000 1.000000 0.000000
vn 0.000000 0.043901 0.999036
vn 0.706425 0.043901 0.706425
vn 0.000000 1.000000 0.000000
vn 0.706425 0.043901 0.706425
vn 0.999036 0.043901 0.000000
vn 0.000000 1.000000 0.000000
vn 0.999036 0.043901 0.000000
vn 0.706425 0.043901 -0.706425
vn 0.000000 1.000000 0.000000
vn 0.706425 0.043901 -0.706425
vn 0.000000 0.043901 -0.999036
vn 0.000000 1.000000 0.000000
vn 0.000000 0.043901 -0.999036
vn -0.706425 0.043901 -0.706425
vn 0.000000 1.000000 0.000000
vn -0.706425 0.043901 -0.706425
vn -0.999036 0.043901 0.000000
vn 0.000000 1.000000 0.000000
vn -0.999036 0.043901 0.000000
vn -0.706425 0.043901 0.706425
vn 0.000000 1.000000 0.000000
vn 0.000000 0.140481 0.990083
vn 0.700095 0.140481 0.700095
vn 0.672924 0.307161 0.672924
vn 0.000000 0.307161 0.951658
vn -0.700095 0.140481 0.700095
vn 0.000000 0.140481 0.990083
vn 0.000000 0.307161 0.951658
vn -0.672924 0.307161 0.672924
vn -0.990083 0.140481 0.000000
vn -0.700095 0.140481 0.700095
vn -0.672924 0.307161 0.672924
vn -0.951658 0.307161 0.000000
vn -0.700095 0.140481 -0.700095
vn -0.990083 0.140481 0.000000
vn -0.951658 0.307161 0.000000
vn -0.672924 0.307161 -0.672924
vn -0.000000 0.140481 -0.990083
vn -0.700095 0.140481 -0.700095
vn -0.672924 0.307161 -0.672924
vn 0.000000 0.307161 -0.951658
vn 0.700095 0.140481 -0.700095
vn -0.000000 0.140481 -0.990083
vn 0.000000 0.307161 -0.951658
vn 0.672924 0.307161 -0.672924
vn 0.990083 0.140481 0.000000
vn 0.700095 0.140481 -0.700095
vn 0.672924 0.307161 -0.672924
vn 0.951658 0.307161 0.000000
vn 0.700095 0.140481 0.700095
vn 0.990083 0.140481 0.000000
vn 0.951658 0.307161 0.000000
vn 0.672924 0.307161 0.672924
vn 0.000000 0.140481 0.990083
vn 0.000000 0.000000 1.000000
vn 0.707107 0.000000 0.707107
vn 0.700095 0.140481 0.700095
vn -0.700095 0.140481 0.700095
vn -0.707107 0.000000 0.707107
vn 0.000000 0.000000 1.000000
vn 0.000000 0.140481 0.990083
vn -0.990083 0.140481 0.000000
vn -1.000000 0.000000 0.000000
vn -0.707107 0.000000 0.707107
vn -0.700095 0.140481 0.700095
vn -0.700095 0.140481 -0.700095
vn -0.707107 0.000000 -0.707107
vn -1.000000 0.000000 0.000000
vn -0.990083 0.140481 0.000000
vn -0.000000 0.140481 -0.990083
vn 0.000000 0.000000 -1.000000
vn -0.707107 0.000000 -0.707107
vn -0.700095 0.140481 -0.700095
vn 0.700095 0.140481 -0.700095
vn 0.707107 0.000000 -0.707107
vn 0.000000 0.000000 -1.000000
vn -0.000000 0.140481 -0.990083
vn 0.990083 0.140481 0.000000
vn 1.000000 0.000000 0.000000
vn 0.707107 0.000000 -0.707107
vn 0.700095 0.140481 -0.700095
vn 0.700095 0.140481 0.700095
vn 0.707107 0.000000 0.707107
vn 1.000000 0.000000 0.000000
vn 0.990083 0.140481 0.000000
vn 0.000000 0.000000 1.000000
vn 0.000000 -0.120198 0.992750
vn 0.701980 -0.120198 0.701980
vn 0.707107 0.000000 0.707107
vn -0.707107 0.000000 0.707107
vn -0.701980 -0.120197 0.701980
vn 0.000000 -0.120198 0.992750
vn 0.000000 0.000000 1.000000
vn -1.000000 0.000000 0.000000
vn -0.992750 -0.120198 0.000000
vn -0.701980 -0.120197 0.701980
vn -0.707107 0.000000 0.707107
vn -0.707107 0.000000 -0.707107
vn -0.701980 -0.120197 -0.701980
vn -0.992750 -0.120198 0.000000
vn -1.000000 0.000000 0.000000
vn 0.000000 0.000000 -1.000000
vn 0.000000 -0.120198 -0.992750
vn -0.701980 -0.120197 -0.701980
vn -0.707107 0.000000 -0.707107
vn 0.707107 0.000000 -0.707107
vn 0.701980 -0.120198 -0.701980
vn 0.000000 -0.120198 -0.992750
vn 0.000000 0.000000 -1.000000
vn 1.000000 0.000000 0.000000
vn 0.992750 -0.120198 0.000000
vn 0.701980 -0.120198 -0.701980
vn 0.707107 0.000000 -0.707107
vn 0.707107 0.000000 0.707107
vn 0.701980 -0.120198 0.701980
vn 0.992750 -0.120198 0.000000
vn 1.000000 0.000000 0.000000
vn 0.000000 1.000000 0.000001
vn 0.000000 1.000000 0.000004
vn 0.000000 1.000000 0.000004
vn 0.000000 1.000000 0.000001
vn 0.000000 1.000000 0.000004
vn 0.000000 1.000000 0.000002
vn 0.000000 1.000000 0.000002
vn 0.000000 1.000000 0.000004
vn 0.000000 1.000000 0.000002
vn 0.000000 1.000000 0.000000
vn 0.000000 1.000000 0.000000
vn 0.000000 1.000000 0.000002
vn 0.000000 1.000000 0.000000
vn 0.000000 1.000000 -0.000001
vn 0.000000 1.000000 -0.000001
vn 0.000000 1.000000 0.000000
vn 0.000000 1.000000 -0.000001
vn 0.000000 1.000000 -0.000001
vn 0.000000 1.000000 -0.000001
vn 0.000000 1.000000 -0.000001
vn 0.000000 1.000000 -0.000001
vn 0.000000 1.000000 0.000001
vn 0.000000 1.000000 0.000001
vn 0.000000 1.000000 -0.000001
vn 0.000000 1.000000 0.000001
vn 0.000000 1.000000 0.000000
vn 0.000000 1.000000 0.000000
vn 0.000000 1.000000 0.000001
vn 0.000000 1.000000 0.000000
vn 0.000000 1.000000 0.000001
vn 0.000000 1.000000 0.000001
vn 0.000000 1.000000 0.000000
vn -0.706859 0.026489 0.706859
vn 0.000000 0.026489 0.999649
vn 0.000000 0.043901 0.999036
vn -0.706425 0.043901 0.706425
vn 0.000000 0.026489 0.999649
vn 0.706859 0.026489 0.706859
vn 0.706425 0.043901 0.706425
vn 0.000000 0.043901 0.999036
vn 0.706859 0.026489 0.706859
vn 0.999649 0.026489 0.000000
vn 0.999036 0.043901 0.000000
vn 0.706425 0.043901 0.706425
vn 0.999649 0.026489 0.000000
vn 0.706859 0.026489 -0.706859
vn 0.706425 0.043901 -0.706425
vn 0.999036 0.043901 0.000000
vn 0.706859 0.026489 -0.706859
vn 0.000000 0.026489 -0.999649
vn 0.000000 0.043901 -0.999036
vn 0.706425 0.043901 -0.706425
vn 0.000000 0.026489 -0.999649
vn -0.706859 0.026489 -0.706859
vn -0.706425 0.043901 -0.706425
vn 0.000000 0.043901 -0.999036
vn -0.706859 0.026489 -0.706859
vn -0.999649 0.026489 0.000000
vn -0.999036 0.043901 0.000000
vn -0.706425 0.043901 -0.706425
vn -0.999649 0.026489 0.000000
vn -0.706859 0.026489 0.706859
vn -0.706425 0.043901 0.706425
vn -0.999036 0.043901 0.000000
vn -0.683863 -0.254291 0.683863
vn 0.000000 -0.254292 0.967128
vn 0.000000 -0.120198 0.992750
vn -0.701980 -0.120197 0.701980
vn -0.967128 -0.254291 0.000000
vn -0.683863 -0.254291 0.683863
vn -0.701980 -0.120197 0.701980
vn -0.992750 -0.120198 0.000000
vn -0.683863 -0.254291 -0.683863
vn -0.967128 -0.254291 0.000000
vn -0.992750 -0.120198 0.000000
vn -0.701980 -0.120197 -0.701980
vn 0.000000 -0.254292 -0.967128
vn -0.683863 -0.254291 -0.683863
vn -0.701980 -0.120197 -0.701980
vn 0.000000 -0.120198 -0.992750
vn 0.683863 -0.254291 -0.683863
vn 0.000000 -0.254292 -0.967128
vn 0.000000 -0.120198 -0.992750
vn 0.701980 -0.120198 -0.701980
vn 0.967128 -0.254292 0.000000
vn 0.683863 -0.254291 -0.683863
vn 0.701980 -0.120198 -0.701980
vn 0.992750 -0.120198 0.000000
vn 0.683862 -0.254292 0.683862
vn 0.967128 -0.254292 0.000000
vn 0.992750 -0.120198 0.000000
vn 0.701980 -0.120198 0.701980
vn 0.000000 -0.254292 0.967128
vn 0.683862 -0.254292 0.683862
vn 0.701980 -0.120198 0.701980
vn 0.000000 -0.120198 0.992750
vn 0.000000 0.721103 0.692828
vn 0.489903 0.721103 0.489903
vn 0.489903 0.721103 0.489903
vn 0.000000 0.721103 0.692828
vn -0.489904 0.721103 0.489903
vn 0.000000 0.721103 0.692828
vn 0.000000 0.721103 0.692828
vn -0.489904 0.721103 0.489903
vn -0.692828 0.721103 -0.000000
vn -0.489904 0.721103 0.489903
vn -0.489904 0.721103 0.489903
vn -0.692828 0.721103 -0.000000
vn -0.489903 0.721103 -0.489903
vn -0.692828 0.721103 -0.000000
vn -0.692828 0.721103 -0.000000
vn -0.489903 0.721103 -0.489903
vn 0.000000 0.721103 -0.692828
vn -0.489903 0.721103 -0.489903
vn -0.489903 0.721103 -0.489903
vn 0.000000 0.721103 -0.692828
vn 0.489904 0.721103 -0.489903
vn 0.000000 0.721103 -0.692828
vn 0.000000 0.721103 -0.692828
vn 0.489904 0.721103 -0.489903
vn 0.692828 0.721103 0.000000
vn 0.489904 0.721103 -0.489903
vn 0.489904 0.721103 -0.489903
vn 0.692828 0.721103 0.000000
vn 0.489903 0.721103 0.489903
vn 0.692828 0.721103 0.000000
vn 0.692828 0.721103 0.000000
vn 0.489903 0.721103 0.489903
f 1/9/1 2/10/2 63/84/3 64/86/4
f 2/10/5 3/11/6 62/83/7 63/84/8
f 3/11/9 4/12/10 61/82/11 62/83/12
f 4/12/13 5/13/14 60/81/15 61/82/16
f 5/13/17 6/14/18 59/80/19 60/81/20
f 6/14/21 7/15/22 66/88/23 59/80/24
f 7/15/25 8/16/26 65/87/27 66/88/28
f 8/16/29 1/17/30 64/85/31 65/87/32
f 2/2/33 1/1/34 17/35/35
f 3/3/36 2/2/37 17/35/38
f 4/4/39 3/3/40 17/35/41
f 5/5/42 4/4/43 17/35/44
f 6/6/45 5/5/46 17/35/47
f 7/7/48 6/6/49 17/35/50
f 8/8/51 7/7/52 17/35/53
f 1/1/54 8/8/55 17/35/56
f 50/72/57 51/73/58 52/36/59
f 51/73/60 53/74/61 52/36/62
f 53/74/63 54/75/64 52/36/65
f 54/75/66 55/76/67 52/36/68
f 55/76/69 56/77/70 52/36/71
f 56/77/72 57/78/73 52/36/74
f 57/78/75 58/79/76 52/36/77
f 58/79/78 50/72/79 52/36/80
f 19/38/81 18/37/82 67/89/83 68/90/84
f 20/39/85 19/38/86 68/90/87 69/91/88
f 21/40/89 20/39/90 69/91/91 70/92/92
f 22/41/93 21/40/94 70/92/95 71/93/96
f 23/42/97 22/41/98 71/93/99 72/94/100
f 24/44/101 23/42/102 72/94/103 73/96/104
f 25/45/105 24/43/106 73/95/107 74/97/108
f 18/37/109 25/45/110 74/97/111 67/89/112
f 19/38/113 27/47/114 26/46/115 18/37/116
f 20/39/117 28/48/118 27/47/119 19/38/120
f 21/40/121 29/49/122 28/48/123 20/39/124
f 22/41/125 30/50/126 29/49/127 21/40/128
f 23/42/129 31/51/130 30/50/131 22/41/132
f 24/44/133 32/53/134 31/51/135 23/42/136
f 25/45/137 33/54/138 32/52/139 24/43/140
f 18/37/141 26/46/142 33/54/143 25/45/144
f 27/47/145 35/56/146 34/55/147 26/46/148
f 28/48/149 36/57/150 35/56/151 27/47/152
f 29/49/153 37/58/154 36/57/155 28/48/156
f 30/50/157 38/59/158 37/58/159 29/49/160
f 31/51/161 39/60/162 38/59/163 30/50/164
f 32/53/165 40/62/166 39/60/167 31/51/168
f 33/54/169 41/63/170 40/61/171 32/52/172
f 26/46/173 34/55/174 41/63/175 33/54/176
f 9/18/177 10/19/178 43/27/179 42/98/180
f 10/19/181 11/20/182 44/28/183 43/27/184
f 11/20/185 12/21/186 45/29/187 44/28/188
f 12/21/189 13/22/190 46/30/191 45/29/192
f 13/22/193 14/23/194 47/31/195 46/30/196
f 14/23/197 15/24/198 48/32/199 47/31/200
f 15/24/201 16/25/202 49/33/203 48/32/204
f 16/25/205 9/26/206 42/34/207 49/33/208
f 42/64/209 43/65/210 51/101/211 50/102/212
f 43/65/213 44/103/214 53/104/215 51/101/216
f 44/66/217 45/67/218 54/107/219 53/108/220
f 45/67/221 46/68/222 55/106/223 54/107/224
f 46/68/225 47/69/226 56/105/227 55/106/228
f 47/69/229 48/70/230 57/100/231 56/105/232
f 48/70/233 49/71/234 58/99/235 57/100/236
f 49/71/237 42/64/238 50/102/239 58/99/240
f 60/81/241 59/80/242 35/56/243 36/57/244
f 61/82/245 60/81/246 36/57/247 37/58/248
f 62/83/249 61/82/250 37/58/251 38/59/252
f 63/84/253 62/83/254 38/59/255 39/60/256
f 64/86/257 63/84/258 39/60/259 40/62/260
f 65/87/261 64/85/262 40/61/263 41/63/264
f 66/88/265 65/87/266 41/63/267 34/55/268
f 59/80/269 66/88/270 34/55/271 35/56/272
f 68/90/273 67/89/274 15/24/275 14/23/276
f 69/91/277 68/90/278 14/23/279 13/22/280
f 70/92/281 69/91/282 13/22/283 12/21/284
f 71/93/285 70/92/286 12/21/287 11/20/288
f 72/94/289 71/93/290 11/20/291 10/19/292
f 73/96/293 72/94/294 10/19/295 9/18/296
f 74/97/297 73/95/298 9/26/299 16/25/300
f 67/89/301 74/97/302 16/25/303 15/24/304
