# This file uses centimeters as units for non-parametric coordinates.

v -7.549881 -7.213261 -14.017177
v -9.079391 -7.213261 -16.666367
v -7.549881 -0.601631 -14.017177
v -9.079391 -0.601631 -16.666367
v -8.364291 -0.601631 -13.546976
v -9.893801 -0.601631 -16.196167
v -8.364291 -7.213261 -13.546976
v -9.893801 -7.213261 -16.196167
v 15.914172 -7.213261 0.470200
v 18.973192 -7.213261 0.470200
v 15.914172 -0.601631 0.470200
v 18.973192 -0.601631 0.470200
v 15.914172 -0.601631 -0.470200
v 18.973192 -0.601631 -0.470200
v 15.914172 -7.213261 -0.470200
v 18.973192 -7.213261 -0.470200
v -8.364291 -7.213261 13.546976
v -9.893801 -7.213261 16.196167
v -8.364291 -0.601631 13.546976
v -9.893801 -0.601631 16.196167
v -7.549881 -0.601631 14.017177
v -9.079391 -0.601631 16.666367
v -7.549881 -7.213261 14.017177
v -9.079391 -7.213261 16.666367
v 16.721493 -7.774546 -9.654160
v 9.654160 -7.774546 -16.721493
v 0.000000 -7.774546 -19.308319
v -9.654160 -7.774546 -16.721493
v -16.721493 -7.774546 -9.654160
v -19.308319 -7.774546 0.000000
v -16.721493 -7.774546 9.654160
v -9.654160 -7.774546 16.721493
v 0.000000 -7.774546 19.308319
v 9.654160 -7.774546 16.721493
v 16.721493 -7.774546 9.654160
v 19.308319 -7.774546 0.000000
v 16.721493 0.000001 -9.654160
v 9.654160 0.000001 -16.721493
v 0.000000 0.000001 -19.308319
v -9.654160 0.000001 -16.721493
v -16.721493 0.000001 -9.654160
v -19.308319 0.000001 0.000000
v -16.721493 0.000001 9.654160
v -9.654160 0.000001 16.721493
v 0.000000 0.000001 19.308319
v 9.654160 0.000001 16.721493
v 16.721493 0.000001 9.654160
v 19.308319 0.000001 0.000000
v 0.000000 -7.774546 0.000000
v 16.721493 -6.299554 -9.654160
v 9.654160 -6.299554 -16.721493
v 9.654160 -1.474991 -16.721493
v 16.721493 -1.474991 -9.654160
v 0.000000 -6.299554 -19.308319
v 0.000000 -1.474991 -19.308319
v -9.654160 -6.299554 -16.721493
v -9.654160 -1.474991 -16.721493
v -16.721493 -6.299554 -9.654160
v -16.721493 -1.474991 -9.654160
v -19.308319 -6.299554 0.000000
v -19.308319 -1.474991 0.000000
v -16.721493 -6.299554 9.654160
v -16.721493 -1.474991 9.654160
v -9.654160 -6.299554 16.721493
v -9.654160 -1.474991 16.721493
v 0.000000 -6.299554 19.308319
v 0.000000 -1.474991 19.308319
v 9.654160 -6.299554 16.721493
v 9.654160 -1.474991 16.721493
v 16.721493 -6.299554 9.654160
v 16.721493 -1.474991 9.654160
v 19.308319 -6.299554 0.000000
v 19.308319 -1.474991 0.000000
v 14.118980 -6.299554 -8.151598
v 8.151599 -6.299554 -14.118980
v 8.151599 -1.474991 -14.118980
v 14.118980 -1.474991 -8.151598
v 0.000000 -6.299554 -16.303198
v 0.000000 -1.474991 -16.303198
v -8.151599 -6.299554 -14.118980
v -8.151599 -1.474991 -14.118980
v -14.118980 -6.299554 -8.151598
v -14.118980 -1.474991 -8.151598
v -16.303198 -6.299554 0.000000
v -16.303198 -1.474991 0.000000
v -14.118980 -6.299554 8.151598
v -14.118980 -1.474991 8.151598
v -8.151599 -6.299554 14.118980
v -8.151599 -1.474991 14.118980
v 0.000000 -6.299554 16.303198
v 0.000000 -1.474991 16.303198
v 8.151599 -6.299554 14.118980
v 8.151599 -1.474991 14.118980
v 14.118980 -6.299554 8.151598
v 14.118980 -1.474991 8.151598
v 16.303198 -6.299554 0.000000
v 16.303198 -1.474991 0.000000
vt 0.663112 0.204783
vt 0.680291 0.204783
vt 0.680291 0.231047
vt 0.663112 0.231047
vt 0.701463 0.231046
vt 0.684283 0.231047
vt 0.684283 0.204783
vt 0.701463 0.204783
vt 0.663112 0.204783
vt 0.680291 0.204783
vt 0.680291 0.231047
vt 0.663112 0.231047
vt 0.701463 0.231046
vt 0.684283 0.231047
vt 0.684283 0.204783
vt 0.701463 0.204783
vt 0.663112 0.204783
vt 0.680291 0.204783
vt 0.680291 0.231047
vt 0.663112 0.231047
vt 0.701463 0.231046
vt 0.684283 0.231047
vt 0.684283 0.204783
vt 0.701463 0.204783
vt 0.692471 0.202275
vt 0.698656 0.208460
vt 0.684023 0.216232
vt 0.684023 0.200012
vt 0.675574 0.202275
vt 0.669390 0.208460
vt 0.667126 0.216908
vt 0.669390 0.225357
vt 0.675574 0.231541
vt 0.684023 0.233805
vt 0.692471 0.231541
vt 0.698656 0.225357
vt 0.700919 0.216908
vt 0.641688 0.202395
vt 0.655275 0.202395
vt 0.655275 0.216126
vt 0.641688 0.216126
vt 0.655577 0.228722
vt 0.643070 0.228722
vt 0.643070 0.214760
vt 0.655577 0.214760
vt 0.668862 0.202395
vt 0.668862 0.216126
vt 0.668084 0.228722
vt 0.668084 0.214760
vt 0.682449 0.202395
vt 0.682449 0.216126
vt 0.680592 0.228722
vt 0.680592 0.214760
vt 0.696036 0.202395
vt 0.696036 0.216126
vt 0.693099 0.228722
vt 0.693099 0.214760
vt 0.709623 0.202395
vt 0.709623 0.216126
vt 0.705606 0.228722
vt 0.705606 0.214760
vt 0.723210 0.202395
vt 0.723210 0.216126
vt 0.718114 0.228722
vt 0.718114 0.214760
vt 0.709895 0.202395
vt 0.709895 0.216126
vt 0.705746 0.228722
vt 0.705746 0.214760
vt 0.696581 0.202395
vt 0.696581 0.216126
vt 0.693378 0.228722
vt 0.693378 0.214760
vt 0.683267 0.202395
vt 0.683267 0.216126
vt 0.681010 0.228722
vt 0.681010 0.214760
vt 0.669952 0.202395
vt 0.669952 0.216126
vt 0.668642 0.228722
vt 0.668642 0.214760
vt 0.656638 0.202395
vt 0.656638 0.216126
vt 0.656274 0.228722
vt 0.656274 0.214760
vt 0.643324 0.202395
vt 0.643324 0.216126
vt 0.643906 0.228722
vt 0.643906 0.214760
vt 0.655275 0.230804
vt 0.641688 0.230804
vt 0.643070 0.203833
vt 0.655577 0.203833
vt 0.668862 0.230804
vt 0.668084 0.203833
vt 0.682449 0.230804
vt 0.680592 0.203833
vt 0.696036 0.230804
vt 0.693099 0.203833
vt 0.709623 0.230804
vt 0.705606 0.203833
vt 0.723210 0.230804
vt 0.718114 0.203833
vt 0.709895 0.230804
vt 0.705746 0.203833
vt 0.696581 0.230804
vt 0.693378 0.203833
vt 0.683267 0.230804
vt 0.681010 0.203833
vt 0.669952 0.230804
vt 0.668642 0.203833
vt 0.656638 0.230804
vt 0.656274 0.203833
vt 0.643324 0.230804
vt 0.643906 0.203833
vn 0.866026 0.000000 -0.500000
vn 0.866026 0.000000 -0.500000
vn 0.866026 0.000000 -0.500000
vn 0.866026 0.000000 -0.500000
vn -0.866026 0.000000 0.500000
vn -0.866026 0.000000 0.500000
vn -0.866026 0.000000 0.500000
vn -0.866026 0.000000 0.500000
vn -0.500000 0.000000 -0.866026
vn -0.500000 0.000000 -0.866026
vn -0.500000 0.000000 -0.866026
vn -0.500000 0.000000 -0.866026
vn 0.000000 0.000000 1.000000
vn 0.000000 0.000000 1.000000
vn 0.000000 0.000000 1.000000
vn 0.000000 0.000000 1.000000
vn 0.000000 0.000000 -1.000000
vn 0.000000 0.000000 -1.000000
vn 0.000000 0.000000 -1.000000
vn 0.000000 0.000000 -1.000000
vn 1.000000 0.000000 0.000000
vn 1.000000 0.000000 0.000000
vn 1.000000 0.000000 0.000000
vn 1.000000 0.000000 0.000000
vn -0.866026 0.000000 -0.500000
vn -0.866026 0.000000 -0.500000
vn -0.866026 0.000000 -0.500000
vn -0.866026 0.000000 -0.500000
vn 0.866026 0.000000 0.500000
vn 0.866026 0.000000 0.500000
vn 0.866026 0.000000 0.500000
vn 0.866026 0.000000 0.500000
vn -0.500000 0.000000 0.866026
vn -0.500000 0.000000 0.866026
vn -0.500000 0.000000 0.866026
vn -0.500000 0.000000 0.866026
vn 0.000000 -1.000000 0.000000
vn 0.000000 -1.000000 0.000000
vn 0.000000 -1.000000 0.000000
vn 0.000000 -1.000000 0.000000
vn 0.000000 -1.000000 0.000000
vn 0.000000 -1.000000 0.000000
vn 0.000000 -1.000000 0.000000
vn 0.000000 -1.000000 0.000000
vn 0.000000 -1.000000 0.000000
vn 0.000000 -1.000000 0.000000
vn 0.000000 -1.000000 0.000000
vn 0.000000 -1.000000 0.000000
vn 0.000000 -1.000000 0.000000
vn 0.000000 -1.000000 0.000000
vn 0.000000 -1.000000 0.000000
vn 0.000000 -1.000000 0.000000
vn 0.000000 -1.000000 0.000000
vn 0.000000 -1.000000 0.000000
vn 0.000000 -1.000000 0.000000
vn 0.000000 -1.000000 0.000000
vn 0.000000 -1.000000 0.000000
vn 0.000000 -1.000000 0.000000
vn 0.000000 -1.000000 0.000000
vn 0.000000 -1.000000 0.000000
vn 0.000000 -1.000000 0.000000
vn 0.000000 -1.000000 0.000000
vn 0.000000 -1.000000 0.000000
vn 0.000000 -1.000000 0.000000
vn 0.000000 -1.000000 0.000000
vn 0.000000 -1.000000 0.000000
vn 0.000000 -1.000000 0.000000
vn 0.000000 -1.000000 0.000000
vn 0.000000 -1.000000 0.000000
vn 0.000000 -1.000000 0.000000
vn 0.000000 -1.000000 0.000000
vn 0.000000 -1.000000 0.000000
vn 0.866025 0.000000 -0.500000
vn 0.500000 0.000000 -0.866025
vn 0.500000 0.000000 -0.866025
vn 0.866025 0.000000 -0.500000
vn 0.500000 0.000000 -0.866025
vn 0.866025 0.000000 -0.500000
vn 0.866025 0.000000 -0.500000
vn 0.500000 0.000000 -0.866025
vn 0.500000 0.000000 -0.866025
vn 0.000000 0.000000 -1.000000
vn 0.000000 0.000000 -1.000000
vn 0.500000 0.000000 -0.866025
vn 0.000000 0.000000 -1.000000
vn 0.500000 0.000000 -0.866025
vn 0.500000 0.000000 -0.866025
vn 0.000000 0.000000 -1.000000
vn 0.000000 0.000000 -1.000000
vn -0.500000 0.000000 -0.866025
vn -0.500000 0.000000 -0.866025
vn 0.000000 0.000000 -1.000000
vn -0.500000 0.000000 -0.866025
vn 0.000000 0.000000 -1.000000
vn 0.000000 0.000000 -1.000000
vn -0.500000 0.000000 -0.866025
vn -0.500000 0.000000 -0.866025
vn -0.866025 0.000000 -0.500000
vn -0.866025 0.000000 -0.500000
vn -0.500000 0.000000 -0.866025
vn -0.866025 0.000000 -0.500000
vn -0.500000 0.000000 -0.866025
vn -0.500000 0.000000 -0.866025
vn -0.866025 0.000000 -0.500000
vn -0.866025 0.000000 -0.500000
vn -1.000000 0.000000 0.000000
vn -1.000000 0.000000 0.000000
vn -0.866025 0.000000 -0.500000
vn -1.000000 0.000000 0.000000
vn -0.866025 0.000000 -0.500000
vn -0.866025 0.000000 -0.500000
vn -1.000000 0.000000 0.000000
vn -1.000000 0.000000 0.000000
vn -0.866025 0.000000 0.500000
vn -0.866025 0.000000 0.500000
vn -1.000000 0.000000 0.000000
vn -0.866025 0.000000 0.500000
vn -1.000000 0.000000 0.000000
vn -1.000000 0.000000 0.000000
vn -0.866025 0.000000 0.500000
vn -0.866025 0.000000 0.500000
vn -0.500000 0.000000 0.866025
vn -0.500000 0.000000 0.866025
vn -0.866025 0.000000 0.500000
vn -0.500000 0.000000 0.866025
vn -0.866025 0.000000 0.500000
vn -0.866025 0.000000 0.500000
vn -0.500000 0.000000 0.866025
vn -0.500000 0.000000 0.866025
vn 0.000000 0.000000 1.000000
vn 0.000000 0.000000 1.000000
vn -0.500000 0.000000 0.866025
vn 0.000000 0.000000 1.000000
vn -0.500000 0.000000 0.866025
vn -0.500000 0.000000 0.866025
vn 0.000000 0.000000 1.000000
vn 0.000000 0.000000 1.000000
vn 0.500000 0.000000 0.866025
vn 0.500000 0.000000 0.866025
vn 0.000000 0.000000 1.000000
vn 0.500000 0.000000 0.866025
vn 0.000000 0.000000 1.000000
vn 0.000000 0.000000 1.000000
vn 0.500000 0.000000 0.866025
vn 0.500000 0.000000 0.866025
vn 0.866025 0.000000 0.500000
vn 0.866025 0.000000 0.500000
vn 0.500000 0.000000 0.866025
vn 0.866025 0.000000 0.500000
vn 0.500000 0.000000 0.866025
vn 0.500000 0.000000 0.866025
vn 0.866025 0.000000 0.500000
vn 0.866025 0.000000 0.500000
vn 1.000000 0.000000 0.000000
vn 1.000000 0.000000 0.000000
vn 0.866025 0.000000 0.500000
vn 1.000000 0.000000 0.000000
vn 0.866025 0.000000 0.500000
vn 0.866025 0.000000 0.500000
vn 1.000000 0.000000 0.000000
vn 1.000000 0.000000 0.000000
vn 0.866025 0.000000 -0.500000
vn 0.866025 0.000000 -0.500000
vn 1.000000 0.000000 0.000000
vn 0.866025 0.000000 -0.500000
vn 1.000000 0.000000 0.000000
vn 1.000000 0.000000 0.000000
vn 0.866025 0.000000 -0.500000
vn 0.000000 1.000000 0.000000
vn 0.000000 1.000000 0.000000
vn 0.000000 1.000000 0.000000
vn 0.000000 1.000000 0.000000
vn 0.000000 -1.000000 0.000000
vn 0.000000 -1.000000 0.000000
vn 0.000000 -1.000000 0.000000
vn 0.000000 -1.000000 0.000000
vn 0.000000 1.000000 0.000000
vn 0.000000 1.000000 0.000000
vn 0.000000 1.000000 0.000000
vn 0.000000 1.000000 0.000000
vn 0.000000 -1.000000 0.000000
vn 0.000000 -1.000000 0.000000
vn 0.000000 -1.000000 0.000000
vn 0.000000 -1.000000 0.000000
vn 0.000000 1.000000 0.000000
vn 0.000000 1.000000 0.000000
vn 0.000000 1.000000 0.000000
vn 0.000000 1.000000 0.000000
vn 0.000000 -1.000000 0.000000
vn 0.000000 -1.000000 0.000000
vn 0.000000 -1.000000 0.000000
vn 0.000000 -1.000000 0.000000
vn 0.000000 1.000000 0.000000
vn 0.000000 1.000000 0.000000
vn 0.000000 1.000000 0.000000
vn 0.000000 1.000000 0.000000
vn 0.000000 -1.000000 0.000000
vn 0.000000 -1.000000 0.000000
vn 0.000000 -1.000000 0.000000
vn 0.000000 -1.000000 0.000000
vn 0.000000 1.000000 0.000000
vn 0.000000 1.000000 0.000000
vn 0.000000 1.000000 0.000000
vn 0.000000 1.000000 0.000000
vn 0.000000 -1.000000 0.000000
vn 0.000000 -1.000000 0.000000
vn 0.000000 -1.000000 0.000000
vn 0.000000 -1.000000 0.000000
vn 0.000000 1.000000 0.000000
vn 0.000000 1.000000 0.000000
vn 0.000000 1.000000 0.000000
vn 0.000000 1.000000 0.000000
vn 0.000000 -1.000000 0.000000
vn 0.000000 -1.000000 0.000000
vn 0.000000 -1.000000 0.000000
vn 0.000000 -1.000000 0.000000
vn 0.000000 1.000000 0.000000
vn 0.000000 1.000000 0.000000
vn 0.000000 1.000000 0.000000
vn 0.000000 1.000000 0.000000
vn 0.000000 -1.000000 0.000000
vn 0.000000 -1.000000 0.000000
vn 0.000000 -1.000000 0.000000
vn 0.000000 -1.000000 0.000000
vn 0.000000 1.000000 0.000000
vn 0.000000 1.000000 0.000000
vn 0.000000 1.000000 0.000000
vn 0.000000 1.000000 0.000000
vn 0.000000 -1.000000 0.000000
vn 0.000000 -1.000000 0.000000
vn 0.000000 -1.000000 0.000000
vn 0.000000 -1.000000 0.000000
vn 0.000000 1.000000 0.000000
vn 0.000000 1.000000 0.000000
vn 0.000000 1.000000 0.000000
vn 0.000000 1.000000 0.000000
vn 0.000000 -1.000000 0.000000
vn 0.000000 -1.000000 0.000000
vn 0.000000 -1.000000 0.000000
vn 0.000000 -1.000000 0.000000
vn 0.000000 1.000000 0.000000
vn 0.000000 1.000000 0.000000
vn 0.000000 1.000000 0.000000
vn 0.000000 1.000000 0.000000
vn 0.000000 -1.000000 0.000000
vn 0.000000 -1.000000 0.000000
vn 0.000000 -1.000000 0.000000
vn 0.000000 -1.000000 0.000000
vn 0.000000 1.000000 0.000000
vn 0.000000 1.000000 0.000000
vn 0.000000 1.000000 0.000000
vn 0.000000 1.000000 0.000000
vn 0.000000 -1.000000 0.000000
vn 0.000000 -1.000000 0.000000
vn 0.000000 -1.000000 0.000000
vn 0.000000 -1.000000 0.000000
vn 0.000000 1.000000 0.000000
vn 0.000000 1.000000 0.000000
vn 0.000000 1.000000 0.000000
vn 0.000000 1.000000 0.000000
vn 0.000000 -1.000000 0.000000
vn 0.000000 -1.000000 0.000000
vn 0.000000 -1.000000 0.000000
vn 0.000000 -1.000000 0.000000
f 1/1/1 2/2/2 4/3/3 3/4/4
f 5/5/5 6/6/6 8/7/7 7/8/8
f 2/2/9 8/7/10 6/6/11 4/3/12
f 9/9/13 10/10/14 12/11/15 11/12/16
f 13/13/17 14/14/18 16/15/19 15/16/20
f 10/10/21 16/15/22 14/14/23 12/11/24
f 17/17/25 18/18/26 20/19/27 19/20/28
f 21/21/29 22/22/30 24/23/31 23/24/32
f 18/18/33 24/23/34 22/22/35 20/19/36
f 26/25/37 25/26/38 49/27/39
f 27/28/40 26/25/41 49/27/42
f 28/29/43 27/28/44 49/27/45
f 29/30/46 28/29/47 49/27/48
f 30/31/49 29/30/50 49/27/51
f 31/32/52 30/31/53 49/27/54
f 32/33/55 31/32/56 49/27/57
f 33/34/58 32/33/59 49/27/60
f 34/35/61 33/34/62 49/27/63
f 35/36/64 34/35/65 49/27/66
f 36/37/67 35/36/68 49/27/69
f 25/26/70 36/37/71 49/27/72
f 25/38/73 26/39/74 51/40/75 50/41/76
f 38/42/77 37/43/78 53/44/79 52/45/80
f 26/39/81 27/46/82 54/47/83 51/40/84
f 39/48/85 38/42/86 52/45/87 55/49/88
f 27/46/89 28/50/90 56/51/91 54/47/92
f 40/52/93 39/48/94 55/49/95 57/53/96
f 28/50/97 29/54/98 58/55/99 56/51/100
f 41/56/101 40/52/102 57/53/103 59/57/104
f 29/54/105 30/58/106 60/59/107 58/55/108
f 42/60/109 41/56/110 59/57/111 61/61/112
f 30/58/113 31/62/114 62/63/115 60/59/116
f 43/64/117 42/60/118 61/61/119 63/65/120
f 31/62/121 32/66/122 64/67/123 62/63/124
f 44/68/125 43/64/126 63/65/127 65/69/128
f 32/66/129 33/70/130 66/71/131 64/67/132
f 45/72/133 44/68/134 65/69/135 67/73/136
f 33/70/137 34/74/138 68/75/139 66/71/140
f 46/76/141 45/72/142 67/73/143 69/77/144
f 34/74/145 35/78/146 70/79/147 68/75/148
f 47/80/149 46/76/150 69/77/151 71/81/152
f 35/78/153 36/82/154 72/83/155 70/79/156
f 48/84/157 47/80/158 71/81/159 73/85/160
f 36/82/161 25/86/162 50/87/163 72/83/164
f 37/88/165 48/84/166 73/85/167 53/89/168
f 50/41/169 51/40/170 75/90/171 74/91/172
f 52/45/173 53/44/174 77/92/175 76/93/176
f 51/40/177 54/47/178 78/94/179 75/90/180
f 55/49/181 52/45/182 76/93/183 79/95/184
f 54/47/185 56/51/186 80/96/187 78/94/188
f 57/53/189 55/49/190 79/95/191 81/97/192
f 56/51/193 58/55/194 82/98/195 80/96/196
f 59/57/197 57/53/198 81/97/199 83/99/200
f 58/55/201 60/59/202 84/100/203 82/98/204
f 61/61/205 59/57/206 83/99/207 85/101/208
f 60/59/209 62/63/210 86/102/211 84/100/212
f 63/65/213 61/61/214 85/101/215 87/103/216
f 62/63/217 64/67/218 88/104/219 86/102/220
f 65/69/221 63/65/222 87/103/223 89/105/224
f 64/67/225 66/71/226 90/106/227 88/104/228
f 67/73/229 65/69/230 89/105/231 91/107/232
f 66/71/233 68/75/234 92/108/235 90/106/236
f 69/77/237 67/73/238 91/107/239 93/109/240
f 68/75/241 70/79/242 94/110/243 92/108/244
f 71/81/245 69/77/246 93/109/247 95/111/248
f 70/79/249 72/83/250 96/112/251 94/110/252
f 73/85/253 71/81/254 95/111/255 97/113/256
f 72/83/257 50/87/258 74/114/259 96/112/260
f 53/89/261 73/85/262 97/113/263 77/115/264
