# This file uses centimeters as units for non-parametric coordinates.

v 13.527310 -2.872225 -7.809996
v 7.809996 -2.872225 -13.527310
v 0.000000 -2.872225 -15.619992
v -7.809996 -2.872225 -13.527310
v -13.527310 -2.872225 -7.809996
v -15.619992 -2.872225 0.000000
v -13.527310 -2.872225 7.809996
v -7.809996 -2.872225 13.527310
v 0.000000 -2.872225 15.619992
v 7.809996 -2.872225 13.527310
v 13.527310 -2.872225 7.809996
v 15.619992 -2.872225 0.000000
v 13.527310 0.000000 -7.809996
v 7.809996 0.000000 -13.527310
v 0.000000 0.000000 -15.619992
v -7.809996 0.000000 -13.527310
v -13.527310 0.000000 -7.809996
v -15.619992 0.000000 0.000000
v -13.527310 0.000000 7.809996
v -7.809996 0.000000 13.527310
v 0.000000 0.000000 15.619992
v 7.809996 0.000000 13.527310
v 13.527310 0.000000 7.809996
v 15.619992 0.000000 0.000000
v 0.000000 -2.872225 0.000000
vt 0.508577 0.023732
vt 0.521049 0.023732
vt 0.521049 0.040041
vt 0.508577 0.040041
vt 0.533521 0.023732
vt 0.533521 0.040041
vt 0.545993 0.023732
vt 0.545993 0.040041
vt 0.558466 0.023732
vt 0.558466 0.040041
vt 0.570938 0.023732
vt 0.570938 0.040041
vt 0.583410 0.023732
vt 0.583410 0.040041
vt 0.570965 0.023732
vt 0.570965 0.040041
vt 0.558521 0.023732
vt 0.558521 0.040041
vt 0.546077 0.023732
vt 0.546077 0.040041
vt 0.533633 0.023732
vt 0.533633 0.040041
vt 0.521188 0.023732
vt 0.521188 0.040041
vt 0.508744 0.023732
vt 0.508744 0.040041
vt 0.553247 0.018108
vt 0.559942 0.024803
vt 0.544102 0.033216
vt 0.544102 0.015658
vt 0.534957 0.018108
vt 0.528263 0.024803
vt 0.525812 0.033948
vt 0.528263 0.043093
vt 0.534957 0.049788
vt 0.544102 0.052238
vt 0.553247 0.049788
vt 0.559942 0.043093
vt 0.562392 0.033948
vn 0.866025 0.000000 -0.500000
vn 0.500000 0.000000 -0.866025
vn 0.500000 0.000000 -0.866025
vn 0.866025 0.000000 -0.500000
vn 0.500000 0.000000 -0.866025
vn 0.000000 0.000000 -1.000000
vn 0.000000 0.000000 -1.000000
vn 0.500000 0.000000 -0.866025
vn 0.000000 0.000000 -1.000000
vn -0.500000 0.000000 -0.866025
vn -0.500000 0.000000 -0.866025
vn 0.000000 0.000000 -1.000000
vn -0.500000 0.000000 -0.866025
vn -0.866025 0.000000 -0.500000
vn -0.866025 0.000000 -0.500000
vn -0.500000 0.000000 -0.866025
vn -0.866025 0.000000 -0.500000
vn -1.000000 0.000000 0.000000
vn -1.000000 0.000000 0.000000
vn -0.866025 0.000000 -0.500000
vn -1.000000 0.000000 0.000000
vn -0.866025 0.000000 0.500000
vn -0.866025 0.000000 0.500000
vn -1.000000 0.000000 0.000000
vn -0.866025 0.000000 0.500000
vn -0.500000 0.000000 0.866025
vn -0.500000 0.000000 0.866025
vn -0.866025 0.000000 0.500000
vn -0.500000 0.000000 0.866025
vn 0.000000 0.000000 1.000000
vn 0.000000 0.000000 1.000000
vn -0.500000 0.000000 0.866025
vn 0.000000 0.000000 1.000000
vn 0.500000 0.000000 0.866025
vn 0.500000 0.000000 0.866025
vn 0.000000 0.000000 1.000000
vn 0.500000 0.000000 0.866025
vn 0.866025 0.000000 0.500000
vn 0.866025 0.000000 0.500000
vn 0.500000 0.000000 0.866025
vn 0.866025 0.000000 0.500000
vn 1.000000 0.000000 0.000000
vn 1.000000 0.000000 0.000000
vn 0.866025 0.000000 0.500000
vn 1.000000 0.000000 0.000000
vn 0.866025 0.000000 -0.500000
vn 0.866025 0.000000 -0.500000
vn 1.000000 0.000000 0.000000
vn 0.000000 -1.000000 0.000000
vn 0.000000 -1.000000 0.000000
vn 0.000000 -1.000000 0.000000
vn 0.000000 -1.000000 0.000000
vn 0.000000 -1.000000 0.000000
vn 0.000000 -1.000000 0.000000
vn 0.000000 -1.000000 0.000000
vn 0.000000 -1.000000 0.000000
vn 0.000000 -1.000000 0.000000
vn 0.000000 -1.000000 0.000000
vn 0.000000 -1.000000 0.000000
vn 0.000000 -1.000000 0.000000
vn 0.000000 -1.000000 0.000000
vn 0.000000 -1.000000 0.000000
vn 0.000000 -1.000000 0.000000
vn 0.000000 -1.000000 0.000000
vn 0.000000 -1.000000 0.000000
vn 0.000000 -1.000000 0.000000
vn 0.000000 -1.000000 0.000000
vn 0.000000 -1.000000 0.000000
vn 0.000000 -1.000000 0.000000
vn 0.000000 -1.000000 0.000000
vn 0.000000 -1.000000 0.000000
vn 0.000000 -1.000000 0.000000
vn 0.000000 -1.000000 0.000000
vn 0.000000 -1.000000 0.000000
vn 0.000000 -1.000000 0.000000
vn 0.000000 -1.000000 0.000000
vn 0.000000 -1.000000 0.000000
vn 0.000000 -1.000000 0.000000
vn 0.000000 -1.000000 0.000000
vn 0.000000 -1.000000 0.000000
vn 0.000000 -1.000000 0.000000
vn 0.000000 -1.000000 0.000000
vn 0.000000 -1.000000 0.000000
vn 0.000000 -1.000000 0.000000
f 1/1/1 2/2/2 14/3/3 13/4/4
f 2/2/5 3/5/6 15/6/7 14/3/8
f 3/5/9 4/7/10 16/8/11 15/6/12
f 4/7/13 5/9/14 17/10/15 16/8/16
f 5/9/17 6/11/18 18/12/19 17/10/20
f 6/11/21 7/13/22 19/14/23 18/12/24
f 7/13/25 8/15/26 20/16/27 19/14/28
f 8/15/29 9/17/30 21/18/31 20/16/32
f 9/17/33 10/19/34 22/20/35 21/18/36
f 10/19/37 11/21/38 23/22/39 22/20/40
f 11/21/41 12/23/42 24/24/43 23/22/44
f 12/23/45 1/25/46 13/26/47 24/24/48
f 2/27/49 1/28/50 25/29/51
f 3/30/52 2/27/53 25/29/54
f 4/31/55 3/30/56 25/29/57
f 5/32/58 4/31/59 25/29/60
f 6/33/61 5/32/62 25/29/63
f 7/34/64 6/33/65 25/29/66
f 8/35/67 7/34/68 25/29/69
f 9/36/70 8/35/71 25/29/72
f 10/37/73 9/36/74 25/29/75
f 11/38/76 10/37/77 25/29/78
f 12/39/79 11/38/80 25/29/81
f 1/28/82 12/39/83 25/29/84
