# This file uses centimeters as units for non-parametric coordinates.

v 10.360817 -9.354663 -5.981821
v 5.981821 -9.354663 -10.360817
v 0.000000 -9.354663 -11.963641
v -5.981821 -9.354663 -10.360817
v -10.360817 -9.354663 -5.981821
v -11.963641 -9.354663 0.000000
v -10.360817 -9.354663 5.981821
v -5.981821 -9.354663 10.360817
v 0.000000 -9.354663 11.963641
v 5.981821 -9.354663 10.360817
v 10.360817 -9.354663 5.981821
v 11.963641 -9.354663 0.000000
v 15.271341 0.000000 -8.816913
v 8.816913 0.000000 -15.271341
v 0.000000 0.000000 -17.633825
v -8.816913 0.000000 -15.271341
v -15.271341 0.000000 -8.816913
v -17.633825 0.000000 0.000000
v -15.271341 0.000000 8.816913
v -8.816913 0.000000 15.271341
v 0.000000 0.000000 17.633825
v 8.816913 0.000000 15.271341
v 15.271341 0.000000 8.816913
v 17.633825 0.000000 0.000000
v 0.000000 -9.354663 0.000000
v -15.271341 -7.841924 8.816913
v -17.633825 -7.841924 0.000000
v -15.271341 -7.841924 -8.816913
v -8.816913 -7.841924 -15.271341
v 0.000000 -7.841924 -17.633825
v 8.816913 -7.841924 -15.271341
v 15.271341 -7.841924 -8.816913
v 17.633825 -7.841924 0.000000
v 15.271341 -7.841924 8.816913
v 8.816913 -7.841924 15.271341
v 0.000000 -7.841924 17.633825
v -8.816913 -7.841924 15.271341
vt 0.527470 0.077279
vt 0.537155 0.077279
vt 0.537155 0.091104
vt 0.527470 0.091104
vt 0.546841 0.077279
vt 0.546841 0.091104
vt 0.556526 0.077279
vt 0.556526 0.091104
vt 0.566211 0.077279
vt 0.566211 0.091104
vt 0.575896 0.077279
vt 0.575896 0.091104
vt 0.585581 0.077279
vt 0.585581 0.091104
vt 0.575831 0.077279
vt 0.575831 0.091104
vt 0.566081 0.077279
vt 0.566081 0.091104
vt 0.556331 0.077279
vt 0.556331 0.091104
vt 0.546581 0.077279
vt 0.546581 0.091104
vt 0.536832 0.077279
vt 0.536832 0.091104
vt 0.527082 0.077279
vt 0.527082 0.091104
vt 0.562995 0.075038
vt 0.570228 0.082271
vt 0.553114 0.091361
vt 0.553114 0.072390
vt 0.543234 0.075038
vt 0.536001 0.082271
vt 0.533353 0.092152
vt 0.536001 0.102032
vt 0.543234 0.109266
vt 0.553114 0.111913
vt 0.562995 0.109266
vt 0.570228 0.102032
vt 0.572876 0.092152
vt 0.585581 0.110511
vt 0.575896 0.110511
vt 0.566211 0.110511
vt 0.556526 0.110511
vt 0.546841 0.110511
vt 0.537155 0.110511
vt 0.527470 0.110511
vt 0.527082 0.110511
vt 0.536832 0.110511
vt 0.546581 0.110511
vt 0.556331 0.110511
vt 0.566081 0.110511
vt 0.575831 0.110511
vn 0.223237 -0.966206 -0.128886
vn 0.128886 -0.966206 -0.223237
vn 0.128886 -0.966206 -0.223237
vn 0.223237 -0.966206 -0.128886
vn 0.128886 -0.966206 -0.223237
vn 0.000000 -0.966206 -0.257772
vn 0.000000 -0.966206 -0.257772
vn 0.128886 -0.966206 -0.223237
vn 0.000000 -0.966206 -0.257772
vn -0.128886 -0.966206 -0.223237
vn -0.128886 -0.966206 -0.223237
vn 0.000000 -0.966206 -0.257772
vn -0.128886 -0.966206 -0.223237
vn -0.223237 -0.966206 -0.128886
vn -0.223237 -0.966206 -0.128886
vn -0.128886 -0.966206 -0.223237
vn -0.223237 -0.966206 -0.128886
vn -0.257772 -0.966206 0.000000
vn -0.257772 -0.966206 0.000000
vn -0.223237 -0.966206 -0.128886
vn -0.257772 -0.966206 0.000000
vn -0.223237 -0.966206 0.128886
vn -0.223237 -0.966206 0.128886
vn -0.257772 -0.966206 0.000000
vn -0.223237 -0.966206 0.128886
vn -0.128886 -0.966206 0.223237
vn -0.128886 -0.966206 0.223237
vn -0.223237 -0.966206 0.128886
vn -0.128886 -0.966206 0.223237
vn 0.000000 -0.966206 0.257772
vn 0.000000 -0.966206 0.257772
vn -0.128886 -0.966206 0.223237
vn 0.000000 -0.966206 0.257772
vn 0.128886 -0.966206 0.223237
vn 0.128886 -0.966206 0.223237
vn 0.000000 -0.966206 0.257772
vn 0.128886 -0.966206 0.223237
vn 0.223237 -0.966206 0.128886
vn 0.223237 -0.966206 0.128886
vn 0.128886 -0.966206 0.223237
vn 0.223237 -0.966206 0.128886
vn 0.257772 -0.966206 0.000000
vn 0.257772 -0.966206 0.000000
vn 0.223237 -0.966206 0.128886
vn 0.257772 -0.966206 0.000000
vn 0.223237 -0.966206 -0.128886
vn 0.223237 -0.966206 -0.128886
vn 0.257772 -0.966206 0.000000
vn 0.000000 -1.000000 0.000000
vn 0.000000 -1.000000 0.000000
vn 0.000000 -1.000000 0.000000
vn 0.000000 -1.000000 0.000000
vn 0.000000 -1.000000 0.000000
vn 0.000000 -1.000000 0.000000
vn 0.000000 -1.000000 0.000000
vn 0.000000 -1.000000 0.000000
vn 0.000000 -1.000000 0.000000
vn 0.000000 -1.000000 0.000000
vn 0.000000 -1.000000 0.000000
vn 0.000000 -1.000000 0.000000
vn 0.000000 -1.000000 0.000000
vn 0.000000 -1.000000 0.000000
vn 0.000000 -1.000000 0.000000
vn 0.000000 -1.000000 0.000000
vn 0.000000 -1.000000 0.000000
vn 0.000000 -1.000000 0.000000
vn 0.000000 -1.000000 0.000000
vn 0.000000 -1.000000 0.000000
vn 0.000000 -1.000000 0.000000
vn 0.000000 -1.000000 0.000000
vn 0.000000 -1.000000 0.000000
vn 0.000000 -1.000000 0.000000
vn 0.000000 -1.000000 0.000000
vn 0.000000 -1.000000 0.000000
vn 0.000000 -1.000000 0.000000
vn 0.000000 -1.000000 0.000000
vn 0.000000 -1.000000 0.000000
vn 0.000000 -1.000000 0.000000
vn 0.000000 -1.000000 0.000000
vn 0.000000 -1.000000 0.000000
vn 0.000000 -1.000000 0.000000
vn 0.000000 -1.000000 0.000000
vn 0.000000 -1.000000 0.000000
vn 0.000000 -1.000000 0.000000
vn -1.000000 0.000000 0.000000
vn -0.866025 0.000000 0.500000
vn -0.866025 0.000000 0.500000
vn -1.000000 0.000000 0.000000
vn -0.866025 0.000000 -0.500000
vn -1.000000 0.000000 0.000000
vn -1.000000 0.000000 0.000000
vn -0.866025 0.000000 -0.500000
vn -0.500000 0.000000 -0.866025
vn -0.866025 0.000000 -0.500000
vn -0.866025 0.000000 -0.500000
vn -0.500000 0.000000 -0.866025
vn 0.000000 0.000000 -1.000000
vn -0.500000 0.000000 -0.866025
vn -0.500000 0.000000 -0.866025
vn 0.000000 0.000000 -1.000000
vn 0.500000 0.000000 -0.866025
vn 0.000000 0.000000 -1.000000
vn 0.000000 0.000000 -1.000000
vn 0.500000 0.000000 -0.866025
vn 0.866025 0.000000 -0.500000
vn 0.500000 0.000000 -0.866025
vn 0.500000 0.000000 -0.866025
vn 0.866025 0.000000 -0.500000
vn 1.000000 0.000000 0.000000
vn 0.866025 0.000000 -0.500000
vn 0.866025 0.000000 -0.500000
vn 1.000000 0.000000 0.000000
vn 0.866025 0.000000 0.500000
vn 1.000000 0.000000 0.000000
vn 1.000000 0.000000 0.000000
vn 0.866025 0.000000 0.500000
vn 0.500000 0.000000 0.866025
vn 0.866025 0.000000 0.500000
vn 0.866025 0.000000 0.500000
vn 0.500000 0.000000 0.866025
vn 0.000000 0.000000 1.000000
vn 0.500000 0.000000 0.866025
vn 0.500000 0.000000 0.866025
vn 0.000000 0.000000 1.000000
vn -0.500000 0.000000 0.866025
vn 0.000000 0.000000 1.000000
vn 0.000000 0.000000 1.000000
vn -0.500000 0.000000 0.866025
vn -0.866025 0.000000 0.500000
vn -0.500000 0.000000 0.866025
vn -0.500000 0.000000 0.866025
vn -0.866025 0.000000 0.500000
f 1/1/1 2/2/2 31/3/3 32/4/4
f 2/2/5 3/5/6 30/6/7 31/3/8
f 3/5/9 4/7/10 29/8/11 30/6/12
f 4/7/13 5/9/14 28/10/15 29/8/16
f 5/9/17 6/11/18 27/12/19 28/10/20
f 6/11/21 7/13/22 26/14/23 27/12/24
f 7/13/25 8/15/26 37/16/27 26/14/28
f 8/15/29 9/17/30 36/18/31 37/16/32
f 9/17/33 10/19/34 35/20/35 36/18/36
f 10/19/37 11/21/38 34/22/39 35/20/40
f 11/21/41 12/23/42 33/24/43 34/22/44
f 12/23/45 1/25/46 32/26/47 33/24/48
f 2/27/49 1/28/50 25/29/51
f 3/30/52 2/27/53 25/29/54
f 4/31/55 3/30/56 25/29/57
f 5/32/58 4/31/59 25/29/60
f 6/33/61 5/32/62 25/29/63
f 7/34/64 6/33/65 25/29/66
f 8/35/67 7/34/68 25/29/69
f 9/36/70 8/35/71 25/29/72
f 10/37/73 9/36/74 25/29/75
f 11/38/76 10/37/77 25/29/78
f 12/39/79 11/38/80 25/29/81
f 1/28/82 12/39/83 25/29/84
f 27/12/85 26/14/86 19/40/87 18/41/88
f 28/10/89 27/12/90 18/41/91 17/42/92
f 29/8/93 28/10/94 17/42/95 16/43/96
f 30/6/97 29/8/98 16/43/99 15/44/100
f 31/3/101 30/6/102 15/44/103 14/45/104
f 32/4/105 31/3/106 14/45/107 13/46/108
f 33/24/109 32/26/110 13/47/111 24/48/112
f 34/22/113 33/24/114 24/48/115 23/49/116
f 35/20/117 34/22/118 23/49/119 22/50/120
f 36/18/121 35/20/122 22/50/123 21/51/124
f 37/16/125 36/18/126 21/51/127 20/52/128
f 26/14/129 37/16/130 20/52/131 19/40/132
