# This file uses centimeters as units for non-parametric coordinates.

v -11.264314 -3.215595 11.264314
v 11.264314 -3.215595 11.264314
v -11.264314 0.000000 11.264314
v 11.264314 0.000000 11.264314
v -11.264314 0.000000 -11.264314
v 11.264314 0.000000 -11.264314
v -11.264314 -3.215595 -11.264314
v 11.264314 -3.215595 -11.264314
v -15.410659 -11.031604 15.410659
v 15.410659 -11.031604 15.410659
v -15.410659 -3.215596 15.410659
v 15.410659 -3.215596 15.410659
v -15.410659 -3.215596 -15.410659
v 15.410659 -3.215596 -15.410659
v -15.410659 -11.031604 -15.410659
v 15.410659 -11.031604 -15.410659
v -12.968405 -11.031604 -12.968405
v 12.968405 -11.031604 -12.968405
v 12.968405 -11.031604 12.968405
v -12.968405 -11.031604 12.968405
v -12.968405 -8.545302 -12.968405
v 12.968405 -8.545302 -12.968405
v 12.968405 -8.545302 12.968405
v -12.968405 -8.545302 12.968405
vt 0.650736 0.090065
vt 0.709144 0.090066
vt 0.709144 0.099041
vt 0.650736 0.099041
vt 0.709119 0.099044
vt 0.650622 0.099053
vt 0.650622 0.090072
vt 0.709119 0.090064
vt 0.708967 0.090079
vt 0.708967 0.099059
vt 0.663367 0.079898
vt 0.700356 0.079897
vt 0.700356 0.072576
vt 0.663367 0.072577
vt 0.700356 0.109565
vt 0.663367 0.109566
vt 0.700356 0.103331
vt 0.663368 0.103331
vt 0.693904 0.072577
vt 0.693904 0.109565
vt 0.669168 0.109566
vt 0.669168 0.072577
vt 0.697425 0.100328
vt 0.666298 0.100328
vt 0.690796 0.075507
vt 0.690797 0.106634
vt 0.666298 0.083423
vt 0.697424 0.083423
vt 0.671961 0.106635
vt 0.671961 0.075508
vt 0.697425 0.098344
vt 0.666299 0.098345
vt 0.688744 0.075507
vt 0.688744 0.106634
vt 0.666298 0.085752
vt 0.697424 0.085751
vt 0.673806 0.106635
vt 0.673806 0.075508
vn 0.000000 0.000000 1.000000
vn 0.000000 0.000000 1.000000
vn 0.000000 0.000000 1.000000
vn 0.000000 0.000000 1.000000
vn 0.000000 0.000000 -1.000000
vn 0.000000 0.000000 -1.000000
vn 0.000000 0.000000 -1.000000
vn 0.000000 0.000000 -1.000000
vn 1.000000 0.000000 0.000000
vn 1.000000 0.000000 0.000000
vn 1.000000 0.000000 0.000000
vn 1.000000 0.000000 0.000000
vn -1.000000 0.000000 0.000000
vn -1.000000 0.000000 0.000000
vn -1.000000 0.000000 0.000000
vn -1.000000 0.000000 0.000000
vn 0.000000 0.000000 1.000000
vn 0.000000 0.000000 1.000000
vn 0.000000 0.000000 1.000000
vn 0.000000 0.000000 1.000000
vn 0.000000 1.000000 0.000000
vn 0.000000 1.000000 0.000000
vn 0.000000 1.000000 0.000000
vn 0.000000 1.000000 0.000000
vn 0.000000 0.000000 -1.000000
vn 0.000000 0.000000 -1.000000
vn 0.000000 0.000000 -1.000000
vn 0.000000 0.000000 -1.000000
vn 1.000000 0.000000 0.000000
vn 1.000000 0.000000 0.000000
vn 1.000000 0.000000 0.000000
vn 1.000000 0.000000 0.000000
vn -1.000000 0.000000 0.000000
vn -1.000000 0.000000 0.000000
vn -1.000000 0.000000 0.000000
vn -1.000000 0.000000 0.000000
vn 0.000000 -1.000000 0.000000
vn 0.000000 -1.000000 0.000000
vn 0.000000 -1.000000 0.000000
vn 0.000000 -1.000000 0.000000
vn 0.000000 -1.000000 0.000000
vn 0.000000 -1.000000 0.000000
vn 0.000000 -1.000000 0.000000
vn 0.000000 -1.000000 0.000000
vn 0.000000 -1.000000 0.000000
vn 0.000000 -1.000000 0.000000
vn 0.000000 -1.000000 0.000000
vn 0.000000 -1.000000 0.000000
vn 0.000000 -1.000000 0.000000
vn 0.000000 -1.000000 0.000000
vn 0.000000 -1.000000 0.000000
vn 0.000000 -1.000000 0.000000
vn 0.000000 0.000000 1.000000
vn 0.000000 0.000000 1.000000
vn 0.000000 0.000000 1.000000
vn 0.000000 0.000000 1.000000
vn -1.000000 0.000000 0.000000
vn -1.000000 0.000000 0.000000
vn -1.000000 0.000000 0.000000
vn -1.000000 0.000000 0.000000
vn 0.000000 0.000000 -1.000000
vn 0.000000 0.000000 -1.000000
vn 0.000000 0.000000 -1.000000
vn 0.000000 0.000000 -1.000000
vn 1.000000 0.000000 0.000000
vn 1.000000 0.000000 0.000000
vn 1.000000 0.000000 0.000000
vn 1.000000 0.000000 0.000000
f 1/1/1 2/2/2 4/3/3 3/4/4
f 5/5/5 6/6/6 8/7/7 7/8/8
f 2/9/9 8/7/10 6/6/11 4/10/12
f 7/8/13 1/1/14 3/4/15 5/5/16
f 9/11/17 10/12/18 12/13/19 11/14/20
f 11/14/21 12/13/22 14/15/23 13/16/24
f 13/16/25 14/15/26 16/17/27 15/18/28
f 10/19/29 16/20/30 14/15/31 12/13/32
f 15/21/33 9/22/34 11/14/35 13/16/36
f 15/18/37 16/17/38 18/23/39 17/24/40
f 16/20/41 10/19/42 19/25/43 18/26/44
f 10/12/45 9/11/46 20/27/47 19/28/48
f 9/22/49 15/21/50 17/29/51 20/30/52
f 17/24/53 18/23/54 22/31/55 21/32/56
f 18/26/57 19/25/58 23/33/59 22/34/60
f 19/28/61 20/27/62 24/35/63 23/36/64
f 20/30/65 17/29/66 21/37/67 24/38/68
