# This file uses centimeters as units for non-parametric coordinates.

v -4.609618 -9.564946 0.902081
v -4.080580 -9.564946 0.902081
v -2.787237 0.000000 0.902081
v -0.983073 0.000000 0.902081
v -2.787237 0.000000 -0.902081
v -0.983073 0.000000 -0.902081
v -4.609618 -9.564946 -0.902081
v -4.080580 -9.564946 -0.902081
v 4.609618 -9.564946 0.902081
v 4.080580 -9.564946 0.902081
v 2.787238 0.000000 0.902081
v 0.983073 0.000000 0.902081
v 2.787238 0.000000 -0.902081
v 0.983073 0.000000 -0.902081
v 4.609618 -9.564946 -0.902081
v 4.080580 -9.564946 -0.902081
v 2.436916 -2.476371 -2.436916
v 0.000000 -2.476371 -3.446319
v -2.436916 -2.476371 -2.436916
v -3.446319 -2.476371 0.000000
v -2.436916 -2.476371 2.436916
v 0.000000 -2.476371 3.446319
v 2.436916 -2.476371 2.436916
v 3.446320 -2.476371 0.000000
v 2.884763 0.000000 -2.884763
v 0.000000 0.000000 -4.079670
v -2.884763 0.000000 -2.884763
v -4.079670 0.000000 0.000000
v -2.884763 0.000000 2.884763
v 0.000000 0.000000 4.079670
v 2.884763 0.000000 2.884763
v 4.079671 0.000000 0.000000
v 0.000000 -2.476371 0.000000
v 0.000000 -1.936913 4.079670
v -2.884763 -1.936913 2.884763
v -4.079670 -1.936913 0.000000
v -2.884763 -1.936913 -2.884763
v 0.000000 -1.936913 -4.079670
v 2.884763 -1.936913 -2.884763
v 4.079671 -1.936913 0.000000
v 2.884763 -1.936913 2.884763
vt 0.577897 0.084700
vt 0.577897 0.077806
vt 0.525795 0.077806
vt 0.525795 0.084699
vt 0.525794 0.106973
vt 0.525794 0.102155
vt 0.577897 0.102155
vt 0.577897 0.106973
vt 0.577897 0.084472
vt 0.525794 0.084473
vt 0.581982 0.084700
vt 0.581739 0.106973
vt 0.578680 0.078326
vt 0.526724 0.078326
vt 0.526724 0.084311
vt 0.578680 0.084310
vt 0.526724 0.101974
vt 0.578679 0.101974
vt 0.578679 0.107406
vt 0.526724 0.107406
vt 0.526725 0.084087
vt 0.578679 0.084086
vt 0.582220 0.084086
vt 0.582220 0.101975
vt 0.524202 0.075521
vt 0.537424 0.075521
vt 0.537424 0.092372
vt 0.524202 0.092372
vt 0.550645 0.075521
vt 0.550645 0.092372
vt 0.563867 0.075521
vt 0.563867 0.092372
vt 0.577089 0.075521
vt 0.577089 0.092372
vt 0.564132 0.075521
vt 0.564132 0.092372
vt 0.551176 0.075521
vt 0.551176 0.092372
vt 0.538220 0.075521
vt 0.538220 0.092372
vt 0.525263 0.075521
vt 0.525263 0.092372
vt 0.554111 0.077331
vt 0.566058 0.082280
vt 0.554111 0.093552
vt 0.542163 0.082280
vt 0.537214 0.094228
vt 0.542163 0.106175
vt 0.554111 0.111124
vt 0.566058 0.106175
vt 0.571007 0.094228
vt 0.564132 0.115357
vt 0.577089 0.115357
vt 0.563867 0.115357
vt 0.550645 0.115357
vt 0.537424 0.115357
vt 0.524202 0.115357
vt 0.525263 0.115357
vt 0.538220 0.115357
vt 0.551176 0.115357
vn -0.857432 0.163364 0.487978
vn 0.765541 -0.247912 0.593706
vn 0.853461 -0.276384 0.441833
vn -0.800475 0.152512 0.579638
vn -0.800475 0.152512 -0.579638
vn 0.853461 -0.276384 -0.441833
vn 0.765541 -0.247912 -0.593706
vn -0.857432 0.163364 -0.487978
vn 0.765541 -0.247912 0.593706
vn 0.765541 -0.247912 -0.593706
vn 0.853461 -0.276384 -0.441833
vn 0.853461 -0.276384 0.441833
vn -0.857432 0.163364 -0.487978
vn -0.857432 0.163364 0.487978
vn -0.800475 0.152512 0.579638
vn -0.800475 0.152512 -0.579638
vn 0.000000 -1.000000 0.000000
vn 0.000000 -1.000000 0.000000
vn 0.000000 -1.000000 0.000000
vn 0.000000 -1.000000 0.000000
vn 0.857432 0.163364 0.487978
vn 0.800475 0.152512 0.579638
vn -0.853461 -0.276384 0.441833
vn -0.765541 -0.247912 0.593706
vn 0.800475 0.152512 -0.579638
vn 0.857432 0.163364 -0.487978
vn -0.765541 -0.247912 -0.593706
vn -0.853461 -0.276384 -0.441833
vn -0.765541 -0.247912 0.593706
vn -0.853461 -0.276384 0.441833
vn -0.853461 -0.276384 -0.441833
vn -0.765541 -0.247912 -0.593706
vn 0.857432 0.163364 -0.487978
vn 0.800475 0.152512 -0.579638
vn 0.800475 0.152512 0.579638
vn 0.857432 0.163364 0.487978
vn 0.000000 -1.000000 0.000000
vn 0.000000 -1.000000 0.000000
vn 0.000000 -1.000000 0.000000
vn 0.000000 -1.000000 0.000000
vn 0.458504 -0.761281 -0.458504
vn 0.000000 -0.761281 -0.648422
vn 0.000000 -0.198562 -0.980088
vn 0.693027 -0.198562 -0.693027
vn 0.000000 -0.761281 -0.648422
vn -0.458504 -0.761281 -0.458504
vn -0.693027 -0.198562 -0.693027
vn 0.000000 -0.198562 -0.980088
vn -0.458504 -0.761281 -0.458504
vn -0.648422 -0.761281 0.000000
vn -0.980088 -0.198562 0.000000
vn -0.693027 -0.198562 -0.693027
vn -0.648422 -0.761281 0.000000
vn -0.458504 -0.761281 0.458504
vn -0.693027 -0.198562 0.693027
vn -0.980088 -0.198562 0.000000
vn -0.458504 -0.761281 0.458504
vn 0.000000 -0.761281 0.648422
vn 0.000000 -0.198562 0.980088
vn -0.693027 -0.198562 0.693027
vn 0.000000 -0.761281 0.648422
vn 0.458504 -0.761281 0.458504
vn 0.693027 -0.198562 0.693027
vn 0.000000 -0.198562 0.980088
vn 0.458504 -0.761281 0.458504
vn 0.648423 -0.761281 0.000000
vn 0.980088 -0.198562 0.000000
vn 0.693027 -0.198562 0.693027
vn 0.648423 -0.761281 0.000000
vn 0.458504 -0.761281 -0.458504
vn 0.693027 -0.198562 -0.693027
vn 0.980088 -0.198562 0.000000
vn 0.000000 -1.000000 0.000000
vn 0.000000 -1.000000 0.000000
vn 0.000000 -1.000000 0.000000
vn 0.000000 -1.000000 0.000000
vn 0.000000 -1.000000 0.000000
vn 0.000000 -1.000000 0.000000
vn 0.000000 -1.000000 0.000000
vn 0.000000 -1.000000 0.000000
vn 0.000000 -1.000000 0.000000
vn 0.000000 -1.000000 0.000000
vn 0.000000 -1.000000 0.000000
vn 0.000000 -1.000000 0.000000
vn 0.000000 -1.000000 0.000000
vn 0.000000 -1.000000 0.000000
vn 0.000000 -1.000000 0.000000
vn 0.000000 -1.000000 0.000000
vn 0.000000 -1.000000 0.000000
vn 0.000000 -1.000000 0.000000
vn 0.000000 -1.000000 0.000000
vn 0.000000 -1.000000 0.000000
vn 0.000000 -1.000000 0.000000
vn 0.000000 -1.000000 0.000000
vn 0.000000 -1.000000 0.000000
vn 0.000000 -1.000000 0.000000
vn -0.693027 -0.198562 0.693027
vn 0.000000 -0.198562 0.980088
vn 0.000000 0.000000 1.000000
vn -0.707107 0.000000 0.707107
vn -0.980088 -0.198562 0.000000
vn -0.693027 -0.198562 0.693027
vn -0.707107 0.000000 0.707107
vn -1.000000 0.000000 0.000000
vn -0.693027 -0.198562 -0.693027
vn -0.980088 -0.198562 0.000000
vn -1.000000 0.000000 0.000000
vn -0.707107 0.000000 -0.707107
vn 0.000000 -0.198562 -0.980088
vn -0.693027 -0.198562 -0.693027
vn -0.707107 0.000000 -0.707107
vn 0.000000 0.000000 -1.000000
vn 0.693027 -0.198562 -0.693027
vn 0.000000 -0.198562 -0.980088
vn 0.000000 0.000000 -1.000000
vn 0.707107 0.000000 -0.707107
vn 0.980088 -0.198562 0.000000
vn 0.693027 -0.198562 -0.693027
vn 0.707107 0.000000 -0.707107
vn 1.000000 0.000000 0.000000
vn 0.693027 -0.198562 0.693027
vn 0.980088 -0.198562 0.000000
vn 1.000000 0.000000 0.000000
vn 0.707107 0.000000 0.707107
vn 0.000000 -0.198562 0.980088
vn 0.693027 -0.198562 0.693027
vn 0.707107 0.000000 0.707107
vn 0.000000 0.000000 1.000000
f 1/1/1 2/2/2 4/3/3 3/4/4
f 5/5/5 6/6/6 8/7/7 7/8/8
f 2/9/9 8/7/10 6/6/11 4/10/12
f 7/8/13 1/1/14 3/4/15 5/5/16
f 2/11/17 1/1/18 7/8/19 8/12/20
f 9/13/21 11/14/22 12/15/23 10/16/24
f 13/17/25 15/18/26 16/19/27 14/20/28
f 10/16/29 12/15/30 14/20/31 16/19/32
f 15/18/33 13/17/34 11/21/35 9/22/36
f 10/23/37 16/24/38 15/18/39 9/22/40
f 17/25/41 18/26/42 38/27/43 39/28/44
f 18/26/45 19/29/46 37/30/47 38/27/48
f 19/29/49 20/31/50 36/32/51 37/30/52
f 20/31/53 21/33/54 35/34/55 36/32/56
f 21/33/57 22/35/58 34/36/59 35/34/60
f 22/35/61 23/37/62 41/38/63 34/36/64
f 23/37/65 24/39/66 40/40/67 41/38/68
f 24/39/69 17/41/70 39/42/71 40/40/72
f 18/43/73 17/44/74 33/45/75
f 19/46/76 18/43/77 33/45/78
f 20/47/79 19/46/80 33/45/81
f 21/48/82 20/47/83 33/45/84
f 22/49/85 21/48/86 33/45/87
f 23/50/88 22/49/89 33/45/90
f 24/51/91 23/50/92 33/45/93
f 17/44/94 24/51/95 33/45/96
f 35/34/97 34/36/98 30/52/99 29/53/100
f 36/32/101 35/34/102 29/53/103 28/54/104
f 37/30/105 36/32/106 28/54/107 27/55/108
f 38/27/109 37/30/110 27/55/111 26/56/112
f 39/28/113 38/27/114 26/56/115 25/57/116
f 40/40/117 39/42/118 25/58/119 32/59/120
f 41/38/121 40/40/122 32/59/123 31/60/124
f 34/36/125 41/38/126 31/60/127 30/52/128
