# This file uses centimeters as units for non-parametric coordinates.

v 21.285217 -51.009232 21.285217
v -0.000001 -51.009232 30.101854
v -0.000001 -64.899155 30.315006
v 21.435940 -64.899155 21.435940
v 30.101854 -51.009232 -0.000002
v 30.315006 -64.899155 -0.000002
v 21.285217 -51.009232 -21.285217
v 21.435940 -64.899155 -21.435940
v -0.000001 -51.009232 -30.101854
v -0.000001 -64.899155 -30.315004
v -21.285217 -51.009232 -21.285217
v -21.435934 -64.899155 -21.435940
v -30.101854 -51.009232 -0.000002
v -30.315004 -64.899155 -0.000002
v -21.285217 -51.009232 21.285217
v -21.435934 -64.899155 21.435940
v 27.919855 -64.899155 -11.564780
v 11.483464 -51.009232 -27.723551
v 11.564777 -64.899155 -27.919853
v -11.483464 -51.009232 -27.723551
v -11.564778 -64.899155 -27.919853
v -27.723543 -51.009232 -11.483465
v -27.919853 -64.899155 -11.564780
v -27.723543 -51.009232 11.483464
v -27.919853 -64.899155 11.564777
v -11.483464 -51.009232 27.723551
v -11.564778 -64.899155 27.919855
v 11.483464 -51.009232 27.723551
v 11.564777 -64.899155 27.919855
v 27.723551 -51.009232 11.483464
v 27.919855 -64.899155 11.564777
v 27.723551 -51.009232 -11.483465
vt 0.583568 0.109704
vt 0.595307 0.109704
vt 0.595307 0.078307
vt 0.583568 0.078307
vt 0.607046 0.109704
vt 0.607046 0.078307
vt 0.560091 0.109704
vt 0.571829 0.109704
vt 0.571829 0.078307
vt 0.560091 0.078307
vt 0.536613 0.109704
vt 0.548352 0.109704
vt 0.548352 0.078307
vt 0.536613 0.078307
vt 0.513135 0.109704
vt 0.524874 0.109704
vt 0.524874 0.078307
vt 0.513135 0.078307
vt 0.536392 0.109704
vt 0.524617 0.109704
vt 0.524617 0.078307
vt 0.536392 0.078307
vt 0.512841 0.109704
vt 0.512841 0.078307
vt 0.559943 0.109704
vt 0.548168 0.109704
vt 0.548168 0.078307
vt 0.559943 0.078307
vt 0.583495 0.109704
vt 0.571719 0.109704
vt 0.571719 0.078307
vt 0.583495 0.078307
vt 0.595270 0.109704
vt 0.595270 0.078307
vn 0.707024 0.015344 0.707024
vn 0.382639 0.015296 0.923771
vn 0.382639 0.015296 0.923771
vn 0.707024 0.015344 0.707023
vn 0.382639 0.015296 0.923771
vn 0.000000 0.015344 0.999882
vn 0.000000 0.015344 0.999882
vn 0.382639 0.015296 0.923771
vn 0.999882 0.015344 0.000000
vn 0.923771 0.015296 0.382639
vn 0.923771 0.015296 0.382639
vn 0.999882 0.015344 0.000000
vn 0.923771 0.015296 0.382639
vn 0.707024 0.015344 0.707024
vn 0.707024 0.015344 0.707023
vn 0.923771 0.015296 0.382639
vn 0.707023 0.015344 -0.707024
vn 0.923771 0.015296 -0.382639
vn 0.923771 0.015296 -0.382639
vn 0.707023 0.015344 -0.707024
vn 0.923771 0.015296 -0.382639
vn 0.999882 0.015344 0.000000
vn 0.999882 0.015344 0.000000
vn 0.923771 0.015296 -0.382639
vn 0.000000 0.015344 -0.999882
vn 0.382639 0.015296 -0.923771
vn 0.382639 0.015296 -0.923771
vn 0.000000 0.015344 -0.999882
vn 0.382639 0.015296 -0.923771
vn 0.707023 0.015344 -0.707024
vn 0.707023 0.015344 -0.707024
vn 0.382639 0.015296 -0.923771
vn -0.707024 0.015344 -0.707023
vn -0.382639 0.015296 -0.923771
vn -0.382639 0.015296 -0.923771
vn -0.707024 0.015344 -0.707024
vn -0.382639 0.015296 -0.923771
vn 0.000000 0.015344 -0.999882
vn 0.000000 0.015344 -0.999882
vn -0.382639 0.015296 -0.923771
vn -0.999882 0.015344 0.000000
vn -0.923771 0.015296 -0.382639
vn -0.923771 0.015296 -0.382639
vn -0.999882 0.015344 0.000000
vn -0.923771 0.015296 -0.382639
vn -0.707024 0.015344 -0.707023
vn -0.707024 0.015344 -0.707024
vn -0.923771 0.015296 -0.382639
vn -0.707024 0.015344 0.707023
vn -0.923771 0.015296 0.382639
vn -0.923771 0.015296 0.382639
vn -0.707024 0.015344 0.707023
vn -0.923771 0.015296 0.382639
vn -0.999882 0.015344 0.000000
vn -0.999882 0.015344 0.000000
vn -0.923771 0.015296 0.382639
vn 0.000000 0.015344 0.999882
vn 0.000000 0.015344 0.999882
vn -0.382639 0.015296 0.923771
vn -0.382639 0.015296 0.923771
vn -0.382639 0.015296 0.923771
vn -0.707024 0.015344 0.707023
vn -0.707024 0.015344 0.707023
vn -0.382639 0.015296 0.923771
f 1/1/1 28/2/2 29/3/3 4/4/4
f 28/2/5 2/5/6 3/6/7 29/3/8
f 5/7/9 30/8/10 31/9/11 6/10/12
f 30/8/13 1/1/14 4/4/15 31/9/16
f 7/11/17 32/12/18 17/13/19 8/14/20
f 32/12/21 5/7/22 6/10/23 17/13/24
f 9/15/25 18/16/26 19/17/27 10/18/28
f 18/16/29 7/11/30 8/14/31 19/17/32
f 11/19/33 20/20/34 21/21/35 12/22/36
f 20/20/37 9/23/38 10/24/39 21/21/40
f 13/25/41 22/26/42 23/27/43 14/28/44
f 22/26/45 11/19/46 12/22/47 23/27/48
f 15/29/49 24/30/50 25/31/51 16/32/52
f 24/30/53 13/25/54 14/28/55 25/31/56
f 3/6/57 2/5/58 26/33/59 27/34/60
f 26/33/61 15/29/62 16/32/63 27/34/64
