# This file uses centimeters as units for non-parametric coordinates.

v -25.413984 -45.101055 -3.909141
v -29.327028 -45.101055 -3.909142
v -31.283554 -45.927010 -0.622540
v -29.327032 -46.752964 2.664062
v -25.413984 -46.752964 2.664062
v -23.457462 -45.927010 -0.622540
v -25.413984 -40.146694 -2.664061
v -29.327028 -40.146694 -2.664062
v -31.283554 -40.972649 0.622540
v -29.327032 -41.798603 3.909142
v -25.413984 -41.798603 3.909142
v -23.457462 -40.972649 0.622540
v -27.370510 -45.927010 -0.622540
v -27.370510 -40.972649 0.622540
v -27.064339 -45.384308 0.978728
v 0.000000 -45.384308 0.978728
v -27.064339 -42.628590 1.671268
v 0.000000 -42.628590 1.671268
v -27.064339 -41.936047 -1.084453
v 0.000000 -41.936047 -1.084453
v -27.064339 -44.691765 -1.776992
v 0.000000 -44.691765 -1.776992
v -4.135540 -45.101055 -25.378128
v -5.344736 -45.101055 -29.099653
v -9.075079 -45.927010 -29.944805
v -11.596224 -46.752964 -27.068424
v -10.387028 -46.752964 -23.346895
v -6.656685 -45.927010 -22.501747
v -5.319681 -40.146694 -24.993376
v -6.528877 -40.146694 -28.714905
v -10.259220 -40.972649 -29.560051
v -12.780365 -41.798603 -26.683672
v -11.571168 -41.798603 -22.962147
v -7.840826 -40.972649 -22.116997
v -7.865883 -45.927010 -26.223276
v -9.050024 -40.972649 -25.838528
v -9.294167 -45.384308 -25.437271
v -0.930826 -45.384308 0.302444
v -9.952810 -42.628590 -25.223267
v -1.589470 -42.628590 0.516450
v -7.331964 -41.936047 -26.074829
v 1.031376 -41.936047 -0.335114
v -6.673321 -44.691765 -26.288837
v 1.690020 -44.691765 -0.549121
v 22.858080 -45.101055 -11.775404
v 26.023802 -45.101055 -14.075433
v 25.674847 -45.927010 -17.884365
v 22.160170 -46.752964 -19.393269
v 18.994448 -46.752964 -17.093237
v 19.343407 -45.927010 -13.284305
v 22.126242 -40.146694 -12.782695
v 25.291964 -40.146694 -15.082724
v 24.943008 -40.972649 -18.891657
v 21.428331 -41.798603 -20.400558
v 18.262609 -41.798603 -18.100529
v 18.611565 -40.972649 -14.291596
v 22.509129 -45.927010 -15.584336
v 21.777287 -40.972649 -16.591629
v 21.320229 -45.384308 -16.699825
v -0.575282 -45.384308 -0.791808
v 20.913162 -42.628590 -17.260101
v -0.982346 -42.628590 -1.352084
v 22.532936 -41.936047 -15.030679
v 0.637425 -41.936047 0.877341
v 22.940002 -44.691765 -14.470403
v 1.044490 -44.691765 1.437617
v 18.262609 -45.101055 18.100525
v 21.428328 -45.101055 20.400557
v 24.943008 -45.927010 18.891659
v 25.291964 -46.752964 15.082726
v 22.126242 -46.752964 12.782694
v 18.611565 -45.927010 14.291596
v 18.994452 -40.146694 17.093235
v 22.160166 -40.146694 19.393265
v 25.674847 -40.972649 17.884367
v 26.023802 -41.798603 14.075434
v 22.858080 -41.798603 11.775403
v 19.343407 -40.972649 13.284305
v 21.777287 -45.927010 16.591627
v 22.509129 -40.972649 15.584336
v 22.470791 -45.384308 15.116211
v 0.575282 -45.384308 -0.791808
v 22.877857 -42.628590 14.555935
v 0.982346 -42.628590 -1.352084
v 21.258083 -41.936047 16.785358
v -0.637425 -41.936047 0.877341
v 20.851021 -44.691765 17.345634
v -1.044490 -44.691765 1.437617
v -11.571168 -45.101055 22.962143
v -12.780365 -45.101055 26.683670
v -10.259220 -45.927010 29.560051
v -6.528879 -46.752964 28.714905
v -5.319679 -46.752964 24.993376
v -7.840825 -45.927010 22.116997
v -10.387025 -40.146694 23.346893
v -11.596224 -40.146694 27.068420
v -9.075079 -40.972649 29.944803
v -5.344736 -41.798603 29.099655
v -4.135538 -41.798603 25.378126
v -6.656683 -40.972649 22.501747
v -9.050022 -45.927010 25.838526
v -7.865881 -40.972649 26.223278
v -7.432514 -45.384308 26.042160
v 0.930826 -45.384308 0.302444
v -6.773870 -42.628590 26.256165
v 1.589470 -42.628590 0.516450
v -9.394716 -41.936047 25.404602
v -1.031376 -41.936047 -0.335114
v -10.053360 -44.691765 25.190594
v -1.690020 -44.691765 -0.549121
vt 0.536973 0.136595
vt 0.549113 0.136595
vt 0.549113 0.172942
vt 0.536973 0.172942
vt 0.561253 0.136595
vt 0.561253 0.172942
vt 0.573394 0.136595
vt 0.573394 0.172942
vt 0.561253 0.136595
vt 0.561253 0.172942
vt 0.549113 0.136595
vt 0.549113 0.172942
vt 0.536973 0.136595
vt 0.536973 0.172942
vt 0.546799 0.137721
vt 0.567359 0.137721
vt 0.557079 0.154704
vt 0.536519 0.155527
vt 0.546799 0.173332
vt 0.567359 0.173332
vt 0.577639 0.155527
vt 0.567359 0.173332
vt 0.546799 0.173332
vt 0.557079 0.154704
vt 0.536519 0.155527
vt 0.546799 0.137721
vt 0.567359 0.137721
vt 0.577639 0.155527
vt 0.531636 0.136103
vt 0.589446 0.136103
vt 0.589446 0.144774
vt 0.531636 0.144774
vt 0.589446 0.153446
vt 0.531636 0.153446
vt 0.589446 0.162117
vt 0.531636 0.162117
vt 0.589446 0.170789
vt 0.531636 0.170789
vt 0.536973 0.136595
vt 0.549113 0.136595
vt 0.549113 0.172942
vt 0.536973 0.172942
vt 0.561253 0.136595
vt 0.561253 0.172942
vt 0.573394 0.136595
vt 0.573394 0.172942
vt 0.561253 0.136595
vt 0.561253 0.172942
vt 0.549113 0.136595
vt 0.549113 0.172942
vt 0.536973 0.136595
vt 0.536973 0.172942
vt 0.546799 0.137721
vt 0.567359 0.137721
vt 0.557079 0.154704
vt 0.536519 0.155527
vt 0.546799 0.173332
vt 0.567359 0.173332
vt 0.577639 0.155527
vt 0.567359 0.173332
vt 0.546799 0.173332
vt 0.557079 0.154704
vt 0.536519 0.155527
vt 0.546799 0.137721
vt 0.567359 0.137721
vt 0.577639 0.155527
vt 0.531636 0.136103
vt 0.589446 0.136103
vt 0.589446 0.144774
vt 0.531636 0.144774
vt 0.589446 0.153446
vt 0.531636 0.153446
vt 0.589446 0.162117
vt 0.531636 0.162117
vt 0.589446 0.170789
vt 0.531636 0.170789
vt 0.536973 0.136595
vt 0.549113 0.136595
vt 0.549113 0.172942
vt 0.536973 0.172942
vt 0.561253 0.136595
vt 0.561253 0.172942
vt 0.573394 0.136595
vt 0.573394 0.172942
vt 0.561253 0.136595
vt 0.561253 0.172942
vt 0.549113 0.136595
vt 0.549113 0.172942
vt 0.536973 0.136595
vt 0.536973 0.172942
vt 0.546799 0.137721
vt 0.567359 0.137721
vt 0.557079 0.154704
vt 0.536519 0.155527
vt 0.546799 0.173332
vt 0.567359 0.173332
vt 0.577639 0.155527
vt 0.567359 0.173332
vt 0.546799 0.173332
vt 0.557079 0.154704
vt 0.536519 0.155527
vt 0.546799 0.137721
vt 0.567359 0.137721
vt 0.577639 0.155527
vt 0.531636 0.136103
vt 0.589446 0.136103
vt 0.589446 0.144774
vt 0.531636 0.144774
vt 0.589446 0.153446
vt 0.531636 0.153446
vt 0.589446 0.162117
vt 0.531636 0.162117
vt 0.589446 0.170789
vt 0.531636 0.170789
vt 0.536973 0.136595
vt 0.549113 0.136595
vt 0.549113 0.172942
vt 0.536973 0.172942
vt 0.561253 0.136595
vt 0.561253 0.172942
vt 0.573394 0.136595
vt 0.573394 0.172942
vt 0.561253 0.136595
vt 0.561253 0.172942
vt 0.549113 0.136595
vt 0.549113 0.172942
vt 0.536973 0.136595
vt 0.536973 0.172942
vt 0.546799 0.137721
vt 0.567359 0.137721
vt 0.557079 0.154704
vt 0.536519 0.155527
vt 0.546799 0.173332
vt 0.567359 0.173332
vt 0.577639 0.155527
vt 0.567359 0.173332
vt 0.546799 0.173332
vt 0.557079 0.154704
vt 0.536519 0.155527
vt 0.546799 0.137721
vt 0.567359 0.137721
vt 0.577639 0.155527
vt 0.531636 0.136103
vt 0.589446 0.136103
vt 0.589446 0.144774
vt 0.531636 0.144774
vt 0.589446 0.153446
vt 0.531636 0.153446
vt 0.589446 0.162117
vt 0.531636 0.162117
vt 0.589446 0.170789
vt 0.531636 0.170789
vt 0.536973 0.136595
vt 0.549113 0.136595
vt 0.549113 0.172942
vt 0.536973 0.172942
vt 0.561253 0.136595
vt 0.561253 0.172942
vt 0.573394 0.136595
vt 0.573394 0.172942
vt 0.561253 0.136595
vt 0.561253 0.172942
vt 0.549113 0.136595
vt 0.549113 0.172942
vt 0.536973 0.136595
vt 0.536973 0.172942
vt 0.546799 0.137721
vt 0.567359 0.137721
vt 0.557079 0.154704
vt 0.536519 0.155527
vt 0.546799 0.173332
vt 0.567359 0.173332
vt 0.577639 0.155527
vt 0.567359 0.173332
vt 0.546799 0.173332
vt 0.557079 0.154704
vt 0.536519 0.155527
vt 0.546799 0.137721
vt 0.567359 0.137721
vt 0.577639 0.155527
vt 0.531636 0.136103
vt 0.589446 0.136103
vt 0.589446 0.144774
vt 0.531636 0.144774
vt 0.589446 0.153446
vt 0.531636 0.153446
vt 0.589446 0.162117
vt 0.531636 0.162117
vt 0.589446 0.170789
vt 0.531636 0.170789
vn 0.500000 0.211077 -0.839908
vn -0.500000 0.211077 -0.839909
vn -0.500000 0.211077 -0.839909
vn 0.500000 0.211077 -0.839908
vn -0.500000 0.211077 -0.839909
vn -1.000000 0.000000 -0.000001
vn -1.000000 0.000000 -0.000001
vn -0.500000 0.211077 -0.839909
vn -1.000000 0.000000 -0.000001
vn -0.500000 -0.211078 0.839908
vn -0.500000 -0.211078 0.839908
vn -1.000000 0.000000 -0.000001
vn -0.500000 -0.211078 0.839908
vn 0.500000 -0.211077 0.839908
vn 0.500000 -0.211077 0.839908
vn -0.500000 -0.211078 0.839908
vn 0.500000 -0.211077 0.839908
vn 1.000000 0.000000 0.000000
vn 1.000000 -0.000000 0.000000
vn 0.500000 -0.211077 0.839908
vn 1.000000 0.000000 0.000000
vn 0.500000 0.211077 -0.839908
vn 0.500000 0.211077 -0.839908
vn 1.000000 -0.000000 0.000000
vn 0.000000 -0.969843 -0.243731
vn 0.000000 -0.969843 -0.243731
vn 0.000000 -0.969843 -0.243731
vn 0.000000 -0.969843 -0.243732
vn 0.000000 -0.969843 -0.243731
vn 0.000000 -0.969843 -0.243731
vn 0.000000 -0.969843 -0.243731
vn 0.000000 -0.969843 -0.243732
vn 0.000000 -0.969843 -0.243731
vn 0.000000 -0.969843 -0.243731
vn 0.000000 -0.969843 -0.243731
vn 0.000000 -0.969843 -0.243731
vn 0.000000 -0.969843 -0.243732
vn 0.000000 -0.969843 -0.243731
vn 0.000000 -0.969843 -0.243731
vn 0.000000 -0.969843 -0.243731
vn 0.000000 -0.969843 -0.243732
vn 0.000000 -0.969843 -0.243731
vn 0.000000 0.969843 0.243730
vn 0.000000 0.969843 0.243731
vn 0.000000 0.969843 0.243731
vn 0.000000 0.969843 0.243731
vn 0.000000 0.969843 0.243732
vn 0.000000 0.969843 0.243731
vn 0.000000 0.969843 0.243732
vn 0.000000 0.969843 0.243732
vn 0.000000 0.969843 0.243731
vn 0.000000 0.969843 0.243732
vn 0.000000 0.969843 0.243732
vn 0.000000 0.969843 0.243731
vn 0.000000 0.969843 0.243732
vn 0.000000 0.969843 0.243732
vn 0.000000 0.969843 0.243731
vn 0.000000 0.969843 0.243732
vn 0.000000 0.969843 0.243730
vn 0.000000 0.969843 0.243731
vn 0.000000 -0.858127 0.513438
vn 0.000000 -0.858127 0.513438
vn 0.000000 0.513438 0.858127
vn 0.000000 0.513438 0.858127
vn 0.000000 0.513438 0.858127
vn 0.000000 0.513438 0.858127
vn 0.000000 0.858127 -0.513438
vn 0.000000 0.858127 -0.513438
vn 0.000000 0.858127 -0.513438
vn 0.000000 0.858127 -0.513438
vn 0.000000 -0.513438 -0.858127
vn 0.000000 -0.513438 -0.858127
vn 0.000000 -0.513438 -0.858127
vn 0.000000 -0.513438 -0.858127
vn 0.000000 -0.858127 0.513438
vn 0.000000 -0.858127 0.513438
vn 0.953309 0.211077 0.215982
vn 0.644292 0.211077 -0.735074
vn 0.644292 0.211077 -0.735075
vn 0.953309 0.211077 0.215983
vn 0.644292 0.211077 -0.735074
vn -0.309017 0.000000 -0.951056
vn -0.309018 0.000000 -0.951056
vn 0.644292 0.211077 -0.735075
vn -0.309017 0.000000 -0.951056
vn -0.953309 -0.211077 -0.215983
vn -0.953309 -0.211077 -0.215982
vn -0.309018 0.000000 -0.951056
vn -0.953309 -0.211077 -0.215983
vn -0.644292 -0.211077 0.735074
vn -0.644292 -0.211077 0.735074
vn -0.953309 -0.211077 -0.215982
vn -0.644292 -0.211077 0.735074
vn 0.309017 0.000000 0.951057
vn 0.309017 0.000000 0.951057
vn -0.644292 -0.211077 0.735074
vn 0.309017 0.000000 0.951057
vn 0.953309 0.211077 0.215982
vn 0.953309 0.211077 0.215983
vn 0.309017 0.000000 0.951057
vn 0.231802 -0.969843 -0.075317
vn 0.231802 -0.969843 -0.075317
vn 0.231802 -0.969843 -0.075317
vn 0.231802 -0.969843 -0.075316
vn 0.231802 -0.969843 -0.075317
vn 0.231802 -0.969843 -0.075317
vn 0.231802 -0.969843 -0.075316
vn 0.231802 -0.969843 -0.075316
vn 0.231802 -0.969843 -0.075317
vn 0.231802 -0.969843 -0.075317
vn 0.231802 -0.969843 -0.075316
vn 0.231802 -0.969843 -0.075317
vn 0.231802 -0.969843 -0.075317
vn 0.231802 -0.969843 -0.075317
vn 0.231802 -0.969843 -0.075317
vn 0.231802 -0.969843 -0.075317
vn 0.231802 -0.969843 -0.075317
vn 0.231802 -0.969843 -0.075317
vn -0.231802 0.969843 0.075317
vn -0.231802 0.969843 0.075317
vn -0.231802 0.969843 0.075317
vn -0.231802 0.969843 0.075317
vn -0.231802 0.969843 0.075318
vn -0.231802 0.969843 0.075317
vn -0.231802 0.969843 0.075318
vn -0.231802 0.969843 0.075316
vn -0.231802 0.969843 0.075317
vn -0.231802 0.969843 0.075316
vn -0.231802 0.969843 0.075316
vn -0.231802 0.969843 0.075317
vn -0.231802 0.969843 0.075316
vn -0.231802 0.969843 0.075317
vn -0.231802 0.969843 0.075317
vn -0.231802 0.969843 0.075317
vn -0.231802 0.969843 0.075317
vn -0.231802 0.969843 0.075317
vn -0.488308 -0.858127 0.158661
vn -0.488308 -0.858127 0.158661
vn -0.816127 0.513439 0.265175
vn -0.816127 0.513439 0.265175
vn -0.816127 0.513439 0.265175
vn -0.816127 0.513439 0.265175
vn 0.488308 0.858127 -0.158661
vn 0.488308 0.858127 -0.158661
vn 0.488308 0.858127 -0.158661
vn 0.488308 0.858127 -0.158661
vn 0.816127 -0.513439 -0.265175
vn 0.816127 -0.513439 -0.265175
vn 0.816127 -0.513439 -0.265175
vn 0.816127 -0.513439 -0.265175
vn -0.488308 -0.858127 0.158661
vn -0.488308 -0.858127 0.158661
vn 0.089177 0.211077 0.973393
vn 0.898194 0.211077 0.385608
vn 0.898194 0.211077 0.385608
vn 0.089177 0.211077 0.973393
vn 0.898194 0.211077 0.385608
vn 0.809017 0.000000 -0.587785
vn 0.809017 0.000000 -0.587785
vn 0.898194 0.211077 0.385608
vn 0.809017 0.000000 -0.587785
vn -0.089177 -0.211077 -0.973393
vn -0.089177 -0.211077 -0.973393
vn 0.809017 0.000000 -0.587785
vn -0.089177 -0.211077 -0.973393
vn -0.898195 -0.211077 -0.385607
vn -0.898194 -0.211077 -0.385608
vn -0.089177 -0.211077 -0.973393
vn -0.898195 -0.211077 -0.385607
vn -0.809017 0.000000 0.587786
vn -0.809017 0.000000 0.587785
vn -0.898194 -0.211077 -0.385608
vn -0.809017 0.000000 0.587786
vn 0.089177 0.211077 0.973393
vn 0.089177 0.211077 0.973393
vn -0.809017 0.000000 0.587785
vn 0.143261 -0.969843 0.197182
vn 0.143261 -0.969843 0.197181
vn 0.143261 -0.969843 0.197182
vn 0.143261 -0.969843 0.197183
vn 0.143261 -0.969843 0.197182
vn 0.143261 -0.969843 0.197182
vn 0.143261 -0.969843 0.197183
vn 0.143261 -0.969843 0.197183
vn 0.143261 -0.969843 0.197182
vn 0.143261 -0.969843 0.197183
vn 0.143261 -0.969843 0.197183
vn 0.143261 -0.969843 0.197182
vn 0.143262 -0.969843 0.197182
vn 0.143261 -0.969843 0.197183
vn 0.143261 -0.969843 0.197182
vn 0.143261 -0.969843 0.197181
vn 0.143262 -0.969843 0.197182
vn 0.143261 -0.969843 0.197182
vn -0.143261 0.969843 -0.197182
vn -0.143261 0.969843 -0.197182
vn -0.143261 0.969843 -0.197183
vn -0.143261 0.969843 -0.197182
vn -0.143261 0.969843 -0.197184
vn -0.143261 0.969843 -0.197183
vn -0.143261 0.969843 -0.197184
vn -0.143261 0.969843 -0.197183
vn -0.143261 0.969843 -0.197183
vn -0.143261 0.969843 -0.197183
vn -0.143261 0.969843 -0.197183
vn -0.143261 0.969843 -0.197183
vn -0.143261 0.969843 -0.197183
vn -0.143261 0.969843 -0.197184
vn -0.143261 0.969843 -0.197183
vn -0.143261 0.969843 -0.197184
vn -0.143261 0.969843 -0.197182
vn -0.143261 0.969843 -0.197183
vn -0.301791 -0.858127 -0.415380
vn -0.301791 -0.858127 -0.415380
vn -0.504394 0.513439 -0.694239
vn -0.504394 0.513439 -0.694239
vn -0.504394 0.513439 -0.694239
vn -0.504394 0.513439 -0.694239
vn 0.301791 0.858127 0.415380
vn 0.301791 0.858127 0.415380
vn 0.301791 0.858127 0.415380
vn 0.301791 0.858127 0.415380
vn 0.504395 -0.513439 0.694238
vn 0.504395 -0.513439 0.694238
vn 0.504395 -0.513439 0.694238
vn 0.504395 -0.513439 0.694238
vn -0.301791 -0.858127 -0.415380
vn -0.301791 -0.858127 -0.415380
vn -0.898195 0.211078 0.385607
vn -0.089177 0.211078 0.973393
vn -0.089178 0.211078 0.973393
vn -0.898195 0.211078 0.385607
vn -0.089177 0.211078 0.973393
vn 0.809017 0.000000 0.587786
vn 0.809017 0.000000 0.587785
vn -0.089178 0.211078 0.973393
vn 0.809017 0.000000 0.587786
vn 0.898194 -0.211077 -0.385608
vn 0.898194 -0.211077 -0.385608
vn 0.809017 0.000000 0.587785
vn 0.898194 -0.211077 -0.385608
vn 0.089177 -0.211077 -0.973393
vn 0.089177 -0.211077 -0.973393
vn 0.898194 -0.211077 -0.385608
vn 0.089177 -0.211077 -0.973393
vn -0.809017 0.000000 -0.587785
vn -0.809017 0.000000 -0.587786
vn 0.089177 -0.211077 -0.973393
vn -0.809017 0.000000 -0.587785
vn -0.898195 0.211078 0.385607
vn -0.898195 0.211078 0.385607
vn -0.809017 0.000000 -0.587786
vn -0.143261 -0.969843 0.197182
vn -0.143262 -0.969843 0.197182
vn -0.143261 -0.969843 0.197183
vn -0.143261 -0.969843 0.197184
vn -0.143261 -0.969843 0.197182
vn -0.143261 -0.969843 0.197183
vn -0.143261 -0.969843 0.197183
vn -0.143261 -0.969843 0.197184
vn -0.143261 -0.969843 0.197183
vn -0.143261 -0.969843 0.197183
vn -0.143261 -0.969843 0.197183
vn -0.143261 -0.969843 0.197183
vn -0.143261 -0.969843 0.197184
vn -0.143261 -0.969843 0.197183
vn -0.143261 -0.969843 0.197183
vn -0.143262 -0.969843 0.197182
vn -0.143261 -0.969843 0.197184
vn -0.143261 -0.969843 0.197183
vn 0.143262 0.969843 -0.197182
vn 0.143261 0.969843 -0.197182
vn 0.143261 0.969843 -0.197183
vn 0.143261 0.969843 -0.197182
vn 0.143261 0.969843 -0.197183
vn 0.143261 0.969843 -0.197183
vn 0.143261 0.969843 -0.197183
vn 0.143261 0.969843 -0.197183
vn 0.143261 0.969843 -0.197183
vn 0.143261 0.969843 -0.197183
vn 0.143261 0.969843 -0.197183
vn 0.143261 0.969843 -0.197183
vn 0.143261 0.969843 -0.197183
vn 0.143261 0.969843 -0.197183
vn 0.143261 0.969843 -0.197183
vn 0.143261 0.969843 -0.197183
vn 0.143262 0.969843 -0.197182
vn 0.143261 0.969843 -0.197183
vn 0.301791 -0.858127 -0.415379
vn 0.301791 -0.858127 -0.415379
vn 0.504394 0.513438 -0.694239
vn 0.504394 0.513438 -0.694239
vn 0.504394 0.513438 -0.694239
vn 0.504394 0.513438 -0.694239
vn -0.301791 0.858127 0.415380
vn -0.301791 0.858127 0.415380
vn -0.301791 0.858127 0.415380
vn -0.301791 0.858127 0.415380
vn -0.504394 -0.513438 0.694239
vn -0.504394 -0.513438 0.694239
vn -0.504394 -0.513438 0.694239
vn -0.504394 -0.513438 0.694239
vn 0.301791 -0.858127 -0.415379
vn 0.301791 -0.858127 -0.415379
vn -0.644292 0.211077 -0.735075
vn -0.953309 0.211077 0.215982
vn -0.953309 0.211077 0.215982
vn -0.644291 0.211077 -0.735075
vn -0.953309 0.211077 0.215982
vn -0.309018 0.000000 0.951056
vn -0.309017 0.000000 0.951056
vn -0.953309 0.211077 0.215982
vn -0.309018 0.000000 0.951056
vn 0.644292 -0.211077 0.735074
vn 0.644292 -0.211077 0.735074
vn -0.309017 0.000000 0.951056
vn 0.644292 -0.211077 0.735074
vn 0.953309 -0.211077 -0.215982
vn 0.953309 -0.211077 -0.215982
vn 0.644292 -0.211077 0.735074
vn 0.953309 -0.211077 -0.215982
vn 0.309017 0.000000 -0.951057
vn 0.309017 0.000000 -0.951056
vn 0.953309 -0.211077 -0.215982
vn 0.309017 0.000000 -0.951057
vn -0.644292 0.211077 -0.735075
vn -0.644291 0.211077 -0.735075
vn 0.309017 0.000000 -0.951056
vn -0.231802 -0.969843 -0.075317
vn -0.231802 -0.969843 -0.075317
vn -0.231802 -0.969843 -0.075317
vn -0.231802 -0.969843 -0.075317
vn -0.231802 -0.969843 -0.075317
vn -0.231802 -0.969843 -0.075317
vn -0.231802 -0.969843 -0.075317
vn -0.231802 -0.969843 -0.075317
vn -0.231802 -0.969843 -0.075317
vn -0.231802 -0.969843 -0.075317
vn -0.231802 -0.969843 -0.075317
vn -0.231802 -0.969843 -0.075317
vn -0.231802 -0.969843 -0.075316
vn -0.231802 -0.969843 -0.075317
vn -0.231802 -0.969843 -0.075317
vn -0.231802 -0.969843 -0.075317
vn -0.231802 -0.969843 -0.075316
vn -0.231802 -0.969843 -0.075317
vn 0.231802 0.969843 0.075316
vn 0.231802 0.969843 0.075316
vn 0.231802 0.969843 0.075317
vn 0.231802 0.969843 0.075316
vn 0.231802 0.969843 0.075317
vn 0.231802 0.969843 0.075317
vn 0.231802 0.969843 0.075317
vn 0.231802 0.969843 0.075317
vn 0.231802 0.969843 0.075317
vn 0.231802 0.969843 0.075317
vn 0.231802 0.969843 0.075317
vn 0.231802 0.969843 0.075317
vn 0.231802 0.969843 0.075317
vn 0.231802 0.969843 0.075317
vn 0.231802 0.969843 0.075317
vn 0.231802 0.969843 0.075317
vn 0.231802 0.969843 0.075316
vn 0.231802 0.969843 0.075317
vn 0.488308 -0.858127 0.158661
vn 0.488308 -0.858127 0.158661
vn 0.816127 0.513439 0.265176
vn 0.816127 0.513439 0.265176
vn 0.816127 0.513439 0.265176
vn 0.816127 0.513439 0.265176
vn -0.488308 0.858127 -0.158661
vn -0.488308 0.858127 -0.158661
vn -0.488308 0.858127 -0.158661
vn -0.488308 0.858127 -0.158661
vn -0.816127 -0.513439 -0.265176
vn -0.816127 -0.513439 -0.265176
vn -0.816127 -0.513439 -0.265176
vn -0.816127 -0.513439 -0.265176
vn 0.488308 -0.858127 0.158661
vn 0.488308 -0.858127 0.158661
f 1/1/1 2/2/2 8/3/3 7/4/4
f 2/2/5 3/5/6 9/6/7 8/3/8
f 3/5/9 4/7/10 10/8/11 9/6/12
f 4/7/13 5/9/14 11/10/15 10/8/16
f 5/9/17 6/11/18 12/12/19 11/10/20
f 6/11/21 1/13/22 7/14/23 12/12/24
f 2/15/25 1/16/26 13/17/27
f 3/18/28 2/15/29 13/17/30
f 4/19/31 3/18/32 13/17/33
f 5/20/34 4/19/35 13/17/36
f 6/21/37 5/20/38 13/17/39
f 1/16/40 6/21/41 13/17/42
f 7/22/43 8/23/44 14/24/45
f 8/23/46 9/25/47 14/24/48
f 9/25/49 10/26/50 14/24/51
f 10/26/52 11/27/53 14/24/54
f 11/27/55 12/28/56 14/24/57
f 12/28/58 7/22/59 14/24/60
f 15/29/61 16/30/62 18/31/63 17/32/64
f 17/32/65 18/31/66 20/33/67 19/34/68
f 19/34/69 20/33/70 22/35/71 21/36/72
f 21/36/73 22/35/74 16/37/75 15/38/76
f 23/39/77 24/40/78 30/41/79 29/42/80
f 24/40/81 25/43/82 31/44/83 30/41/84
f 25/43/85 26/45/86 32/46/87 31/44/88
f 26/45/89 27/47/90 33/48/91 32/46/92
f 27/47/93 28/49/94 34/50/95 33/48/96
f 28/49/97 23/51/98 29/52/99 34/50/100
f 24/53/101 23/54/102 35/55/103
f 25/56/104 24/53/105 35/55/106
f 26/57/107 25/56/108 35/55/109
f 27/58/110 26/57/111 35/55/112
f 28/59/113 27/58/114 35/55/115
f 23/54/116 28/59/117 35/55/118
f 29/60/119 30/61/120 36/62/121
f 30/61/122 31/63/123 36/62/124
f 31/63/125 32/64/126 36/62/127
f 32/64/128 33/65/129 36/62/130
f 33/65/131 34/66/132 36/62/133
f 34/66/134 29/60/135 36/62/136
f 37/67/137 38/68/138 40/69/139 39/70/140
f 39/70/141 40/69/142 42/71/143 41/72/144
f 41/72/145 42/71/146 44/73/147 43/74/148
f 43/74/149 44/73/150 38/75/151 37/76/152
f 45/77/153 46/78/154 52/79/155 51/80/156
f 46/78/157 47/81/158 53/82/159 52/79/160
f 47/81/161 48/83/162 54/84/163 53/82/164
f 48/83/165 49/85/166 55/86/167 54/84/168
f 49/85/169 50/87/170 56/88/171 55/86/172
f 50/87/173 45/89/174 51/90/175 56/88/176
f 46/91/177 45/92/178 57/93/179
f 47/94/180 46/91/181 57/93/182
f 48/95/183 47/94/184 57/93/185
f 49/96/186 48/95/187 57/93/188
f 50/97/189 49/96/190 57/93/191
f 45/92/192 50/97/193 57/93/194
f 51/98/195 52/99/196 58/100/197
f 52/99/198 53/101/199 58/100/200
f 53/101/201 54/102/202 58/100/203
f 54/102/204 55/103/205 58/100/206
f 55/103/207 56/104/208 58/100/209
f 56/104/210 51/98/211 58/100/212
f 59/105/213 60/106/214 62/107/215 61/108/216
f 61/108/217 62/107/218 64/109/219 63/110/220
f 63/110/221 64/109/222 66/111/223 65/112/224
f 65/112/225 66/111/226 60/113/227 59/114/228
f 67/115/229 68/116/230 74/117/231 73/118/232
f 68/116/233 69/119/234 75/120/235 74/117/236
f 69/119/237 70/121/238 76/122/239 75/120/240
f 70/121/241 71/123/242 77/124/243 76/122/244
f 71/123/245 72/125/246 78/126/247 77/124/248
f 72/125/249 67/127/250 73/128/251 78/126/252
f 68/129/253 67/130/254 79/131/255
f 69/132/256 68/129/257 79/131/258
f 70/133/259 69/132/260 79/131/261
f 71/134/262 70/133/263 79/131/264
f 72/135/265 71/134/266 79/131/267
f 67/130/268 72/135/269 79/131/270
f 73/136/271 74/137/272 80/138/273
f 74/137/274 75/139/275 80/138/276
f 75/139/277 76/140/278 80/138/279
f 76/140/280 77/141/281 80/138/282
f 77/141/283 78/142/284 80/138/285
f 78/142/286 73/136/287 80/138/288
f 81/143/289 82/144/290 84/145/291 83/146/292
f 83/146/293 84/145/294 86/147/295 85/148/296
f 85/148/297 86/147/298 88/149/299 87/150/300
f 87/150/301 88/149/302 82/151/303 81/152/304
f 89/153/305 90/154/306 96/155/307 95/156/308
f 90/154/309 91/157/310 97/158/311 96/155/312
f 91/157/313 92/159/314 98/160/315 97/158/316
f 92/159/317 93/161/318 99/162/319 98/160/320
f 93/161/321 94/163/322 100/164/323 99/162/324
f 94/163/325 89/165/326 95/166/327 100/164/328
f 90/167/329 89/168/330 101/169/331
f 91/170/332 90/167/333 101/169/334
f 92/171/335 91/170/336 101/169/337
f 93/172/338 92/171/339 101/169/340
f 94/173/341 93/172/342 101/169/343
f 89/168/344 94/173/345 101/169/346
f 95/174/347 96/175/348 102/176/349
f 96/175/350 97/177/351 102/176/352
f 97/177/353 98/178/354 102/176/355
f 98/178/356 99/179/357 102/176/358
f 99/179/359 100/180/360 102/176/361
f 100/180/362 95/174/363 102/176/364
f 103/181/365 104/182/366 106/183/367 105/184/368
f 105/184/369 106/183/370 108/185/371 107/186/372
f 107/186/373 108/185/374 110/187/375 109/188/376
f 109/188/377 110/187/378 104/189/379 103/190/380
