# This file uses centimeters as units for non-parametric coordinates.

v 18.365950 -38.941559 -10.603587
v 10.603587 -38.941559 -18.365950
v 0.000000 -38.941559 -21.207172
v -10.603587 -38.941559 -18.365950
v -18.365950 -38.941559 -10.603587
v -21.207172 -38.941559 0.000000
v -18.365950 -38.941559 10.603587
v -10.603587 -38.941559 18.365950
v 0.000000 -38.941559 21.207172
v 10.603587 -38.941559 18.365950
v 18.365950 -38.941559 10.603587
v 21.207172 -38.941559 0.000000
v 16.846346 -45.388962 -9.726242
v 9.726242 -45.388962 -16.846346
v 0.000000 -45.388962 -19.452484
v -9.726242 -45.388962 -16.846346
v -16.846346 -45.388962 -9.726242
v -19.452484 -45.388962 0.000000
v -16.846346 -45.388962 9.726242
v -9.726242 -45.388962 16.846346
v 0.000000 -45.388962 19.452484
v 9.726242 -45.388962 16.846346
v 16.846346 -45.388962 9.726242
v 19.452484 -45.388962 0.000000
v 9.726242 -32.494152 -16.846346
v 16.846346 -32.494152 -9.726242
v 0.000000 -32.494152 -19.452484
v -9.726242 -32.494152 -16.846346
v -16.846346 -32.494152 -9.726242
v -19.452484 -32.494152 0.000000
v -16.846346 -32.494152 9.726242
v -9.726242 -32.494152 16.846346
v 0.000000 -32.494152 19.452484
v 9.726242 -32.494152 16.846346
v 16.846346 -32.494152 9.726242
v 19.452484 -32.494152 0.000000
v 0.000000 -32.494152 0.000000
v 0.000000 -45.388962 0.000000
vt 0.652867 0.076946
vt 0.662724 0.076946
vt 0.662724 0.092950
vt 0.652867 0.092950
vt 0.672580 0.076946
vt 0.672580 0.092950
vt 0.682437 0.076946
vt 0.682437 0.092950
vt 0.692294 0.076946
vt 0.692294 0.092950
vt 0.702150 0.076946
vt 0.702150 0.092950
vt 0.712007 0.076946
vt 0.712007 0.092950
vt 0.702150 0.076946
vt 0.702150 0.092950
vt 0.692294 0.076946
vt 0.692294 0.092950
vt 0.682437 0.076946
vt 0.682437 0.092950
vt 0.672580 0.076946
vt 0.672580 0.092950
vt 0.662724 0.076946
vt 0.662724 0.092950
vt 0.652867 0.076946
vt 0.652867 0.092950
vt 0.662724 0.108954
vt 0.652867 0.108954
vt 0.672580 0.108954
vt 0.682437 0.108954
vt 0.692294 0.108954
vt 0.702150 0.108954
vt 0.712007 0.108954
vt 0.702150 0.108954
vt 0.692294 0.108954
vt 0.682437 0.108954
vt 0.672580 0.108954
vt 0.662724 0.108954
vt 0.652867 0.108954
vt 0.692294 0.108954
vt 0.692294 0.076946
vn 0.835631 -0.262603 -0.482452
vn 0.482452 -0.262603 -0.835631
vn 0.500000 0.000000 -0.866025
vn 0.866025 0.000000 -0.500000
vn 0.482452 -0.262603 -0.835631
vn 0.000000 -0.262603 -0.964904
vn 0.000000 0.000000 -1.000000
vn 0.500000 0.000000 -0.866025
vn 0.000000 -0.262603 -0.964904
vn -0.482452 -0.262603 -0.835631
vn -0.500000 0.000000 -0.866025
vn 0.000000 0.000000 -1.000000
vn -0.482452 -0.262603 -0.835631
vn -0.835631 -0.262603 -0.482452
vn -0.866025 0.000000 -0.500000
vn -0.500000 0.000000 -0.866025
vn -0.835631 -0.262603 -0.482452
vn -0.964904 -0.262603 0.000000
vn -1.000000 0.000000 0.000000
vn -0.866025 0.000000 -0.500000
vn -0.964904 -0.262603 0.000000
vn -0.835631 -0.262603 0.482452
vn -0.866025 0.000000 0.500000
vn -1.000000 0.000000 0.000000
vn -0.835631 -0.262603 0.482452
vn -0.482452 -0.262603 0.835631
vn -0.500000 0.000000 0.866025
vn -0.866025 0.000000 0.500000
vn -0.482452 -0.262603 0.835631
vn 0.000000 -0.262603 0.964904
vn 0.000000 0.000000 1.000000
vn -0.500000 0.000000 0.866025
vn 0.000000 -0.262603 0.964904
vn 0.482452 -0.262603 0.835631
vn 0.500000 0.000000 0.866025
vn 0.000000 0.000000 1.000000
vn 0.482452 -0.262603 0.835631
vn 0.835631 -0.262603 0.482452
vn 0.866025 0.000000 0.500000
vn 0.500000 0.000000 0.866025
vn 0.835631 -0.262603 0.482452
vn 0.964904 -0.262603 0.000000
vn 1.000000 0.000000 0.000000
vn 0.866025 0.000000 0.500000
vn 0.964904 -0.262603 0.000000
vn 0.835631 -0.262603 -0.482452
vn 0.866025 0.000000 -0.500000
vn 1.000000 0.000000 0.000000
vn 0.866025 0.000000 -0.500000
vn 0.500000 0.000000 -0.866025
vn 0.482452 0.262603 -0.835631
vn 0.835631 0.262603 -0.482452
vn 0.500000 0.000000 -0.866025
vn 0.000000 0.000000 -1.000000
vn 0.000000 0.262603 -0.964904
vn 0.482452 0.262603 -0.835631
vn 0.000000 0.000000 -1.000000
vn -0.500000 0.000000 -0.866025
vn -0.482452 0.262603 -0.835631
vn 0.000000 0.262603 -0.964904
vn -0.500000 0.000000 -0.866025
vn -0.866025 0.000000 -0.500000
vn -0.835631 0.262603 -0.482452
vn -0.482452 0.262603 -0.835631
vn -0.866025 0.000000 -0.500000
vn -1.000000 0.000000 0.000000
vn -0.964904 0.262603 0.000000
vn -0.835631 0.262603 -0.482452
vn -1.000000 0.000000 0.000000
vn -0.866025 0.000000 0.500000
vn -0.835631 0.262603 0.482452
vn -0.964904 0.262603 0.000000
vn -0.866025 0.000000 0.500000
vn -0.500000 0.000000 0.866025
vn -0.482452 0.262603 0.835631
vn -0.835631 0.262603 0.482452
vn -0.500000 0.000000 0.866025
vn 0.000000 0.000000 1.000000
vn 0.000000 0.262603 0.964904
vn -0.482452 0.262603 0.835631
vn 0.000000 0.000000 1.000000
vn 0.500000 0.000000 0.866025
vn 0.482452 0.262603 0.835631
vn 0.000000 0.262603 0.964904
vn 0.500000 0.000000 0.866025
vn 0.866025 0.000000 0.500000
vn 0.835631 0.262603 0.482452
vn 0.482452 0.262603 0.835631
vn 0.866025 0.000000 0.500000
vn 1.000000 0.000000 0.000000
vn 0.964904 0.262603 0.000000
vn 0.835631 0.262603 0.482452
vn 1.000000 0.000000 0.000000
vn 0.866025 0.000000 -0.500000
vn 0.835631 0.262603 -0.482452
vn 0.964904 0.262603 0.000000
vn 0.000000 1.000000 0.000000
vn 0.000000 1.000000 0.000000
vn 0.000000 1.000000 0.000000
vn 0.000000 -1.000000 0.000000
vn 0.000000 -1.000000 0.000000
vn 0.000000 -1.000000 0.000000
vn 0.000000 1.000000 0.000000
vn 0.000000 1.000000 0.000000
vn 0.000000 1.000000 0.000000
vn 0.000000 1.000000 0.000000
vn 0.000000 1.000000 0.000000
vn 0.000000 1.000000 0.000000
vn 0.000000 1.000000 0.000000
vn 0.000000 1.000000 0.000000
vn 0.000000 1.000000 0.000000
vn 0.000000 1.000000 0.000000
vn 0.000000 1.000000 0.000000
vn 0.000000 1.000000 0.000000
vn 0.000000 1.000000 0.000000
vn 0.000000 1.000000 0.000000
vn 0.000000 1.000000 0.000000
vn 0.000000 1.000000 0.000000
vn 0.000000 1.000000 0.000000
vn 0.000000 1.000000 0.000000
vn 0.000000 1.000000 0.000000
vn 0.000000 1.000000 0.000000
vn 0.000000 1.000000 0.000000
vn 0.000000 1.000000 0.000000
vn 0.000000 1.000000 0.000000
vn 0.000000 1.000000 0.000000
vn 0.000000 1.000000 0.000000
vn 0.000000 1.000000 0.000000
vn 0.000000 1.000000 0.000000
vn 0.000000 1.000000 0.000000
vn 0.000000 1.000000 0.000000
vn 0.000000 1.000000 0.000000
vn 0.000000 1.000000 0.000000
vn 0.000000 1.000000 0.000000
vn 0.000000 1.000000 0.000000
vn 0.000000 -1.000000 0.000000
vn 0.000000 -1.000000 0.000000
vn 0.000000 -1.000000 0.000000
vn 0.000000 -1.000000 0.000000
vn 0.000000 -1.000000 0.000000
vn 0.000000 -1.000000 0.000000
vn 0.000000 -1.000000 0.000000
vn 0.000000 -1.000000 0.000000
vn 0.000000 -1.000000 0.000000
vn 0.000000 -1.000000 0.000000
vn 0.000000 -1.000000 0.000000
vn 0.000000 -1.000000 0.000000
vn 0.000000 -1.000000 0.000000
vn 0.000000 -1.000000 0.000000
vn 0.000000 -1.000000 0.000000
vn 0.000000 -1.000000 0.000000
vn 0.000000 -1.000000 0.000000
vn 0.000000 -1.000000 0.000000
vn 0.000000 -1.000000 0.000000
vn 0.000000 -1.000000 0.000000
vn 0.000000 -1.000000 0.000000
vn 0.000000 -1.000000 0.000000
vn 0.000000 -1.000000 0.000000
vn 0.000000 -1.000000 0.000000
vn 0.000000 -1.000000 0.000000
vn 0.000000 -1.000000 0.000000
vn 0.000000 -1.000000 0.000000
vn 0.000000 -1.000000 0.000000
vn 0.000000 -1.000000 0.000000
vn 0.000000 -1.000000 0.000000
vn 0.000000 -1.000000 0.000000
vn 0.000000 -1.000000 0.000000
vn 0.000000 -1.000000 0.000000
f 13/1/1 14/2/2 2/3/3 1/4/4
f 14/2/5 15/5/6 3/6/7 2/3/8
f 15/5/9 16/7/10 4/8/11 3/6/12
f 16/7/13 17/9/14 5/10/15 4/8/16
f 17/9/17 18/11/18 6/12/19 5/10/20
f 18/11/21 19/13/22 7/14/23 6/12/24
f 19/13/25 20/15/26 8/16/27 7/14/28
f 20/15/29 21/17/30 9/18/31 8/16/32
f 21/17/33 22/19/34 10/20/35 9/18/36
f 22/19/37 23/21/38 11/22/39 10/20/40
f 23/21/41 24/23/42 12/24/43 11/22/44
f 24/23/45 13/25/46 1/26/47 12/24/48
f 1/4/49 2/3/50 25/27/51 26/28/52
f 2/3/53 3/6/54 27/29/55 25/27/56
f 3/6/57 4/8/58 28/30/59 27/29/60
f 4/8/61 5/10/62 29/31/63 28/30/64
f 5/10/65 6/12/66 30/32/67 29/31/68
f 6/12/69 7/14/70 31/33/71 30/32/72
f 7/14/73 8/16/74 32/34/75 31/33/76
f 8/16/77 9/18/78 33/35/79 32/34/80
f 9/18/81 10/20/82 34/36/83 33/35/84
f 10/20/85 11/22/86 35/37/87 34/36/88
f 11/22/89 12/24/90 36/38/91 35/37/92
f 12/24/93 1/26/94 26/39/95 36/38/96
f 32/34/97 37/40/98 31/33/99
f 24/23/100 38/41/101 13/25/102
f 37/40/103 29/31/104 30/32/105
f 34/36/106 37/40/107 33/35/108
f 26/28/109 37/40/110 36/38/111
f 35/37/112 37/40/113 34/36/114
f 28/30/115 37/40/116 27/29/117
f 36/38/118 37/40/119 35/37/120
f 28/30/121 29/31/122 37/40/123
f 27/29/124 37/40/125 25/27/126
f 31/33/127 37/40/128 30/32/129
f 33/35/130 37/40/131 32/34/132
f 25/27/133 37/40/134 26/28/135
f 23/21/136 38/41/137 24/23/138
f 22/19/139 38/41/140 23/21/141
f 17/9/142 38/41/143 18/11/144
f 22/19/145 21/17/146 38/41/147
f 16/7/148 38/41/149 17/9/150
f 38/41/151 21/17/152 20/15/153
f 15/5/154 38/41/155 16/7/156
f 38/41/157 20/15/158 19/13/159
f 14/2/160 38/41/161 15/5/162
f 38/41/163 19/13/164 18/11/165
f 13/25/166 38/41/167 14/2/168
