# This file uses centimeters as units for non-parametric coordinates.

v -1.107970 -20.452007 6.587722
v -2.942745 -20.452007 5.125882
v -1.107970 -17.614128 6.587722
v -2.942745 -17.614128 5.125882
v -11.112489 -17.614128 19.819353
v -13.056703 -17.614128 18.848152
v -11.112489 -20.452007 19.819353
v -13.056703 -20.452007 18.848152
v 3.238516 -20.282213 5.842748
v 0.892589 -20.282213 5.842748
v 3.238516 -17.937838 5.842748
v 0.892589 -17.937838 5.842748
v 2.979277 -17.937838 27.169991
v 1.011555 -17.937838 25.892712
v 2.979277 -20.282213 27.169991
v 1.011555 -20.282213 25.892712
v 1.107970 -20.452007 -6.587722
v 2.942745 -20.452007 -5.125882
v 1.107970 -17.614128 -6.587722
v 2.942745 -17.614128 -5.125882
v 11.112489 -17.614128 -19.819353
v 13.056703 -17.614128 -18.848152
v 11.112489 -20.452007 -19.819353
v 13.056703 -20.452007 -18.848152
v -3.238516 -20.282213 -5.842748
v -0.892589 -20.282213 -5.842748
v -3.238516 -17.937838 -5.842748
v -0.892589 -17.937838 -5.842748
v -2.979277 -17.937838 -27.169991
v -1.011555 -17.937838 -25.892712
v -2.979277 -20.282213 -27.169991
v -1.011555 -20.282213 -25.892712
vt 0.523049 0.143993
vt 0.584877 0.143993
vt 0.584877 0.149976
vt 0.523049 0.149976
vt 0.584877 0.155960
vt 0.523049 0.155960
vt 0.584877 0.161943
vt 0.523049 0.161943
vt 0.584877 0.167926
vt 0.523049 0.167926
vt 0.590860 0.143993
vt 0.590860 0.149976
vt 0.517066 0.143993
vt 0.517066 0.149976
vt 0.523049 0.143993
vt 0.584877 0.143993
vt 0.584877 0.149976
vt 0.523049 0.149976
vt 0.584877 0.155960
vt 0.523049 0.155960
vt 0.584877 0.161943
vt 0.523049 0.161943
vt 0.584877 0.167926
vt 0.523049 0.167926
vt 0.590860 0.143993
vt 0.590860 0.149976
vt 0.517066 0.143993
vt 0.517066 0.149976
vt 0.523049 0.143993
vt 0.584877 0.143993
vt 0.584877 0.149976
vt 0.523049 0.149976
vt 0.584877 0.155960
vt 0.523049 0.155960
vt 0.584877 0.161943
vt 0.523049 0.161943
vt 0.584877 0.167926
vt 0.523049 0.167926
vt 0.590860 0.143993
vt 0.590860 0.149976
vt 0.517066 0.143993
vt 0.517066 0.149976
vt 0.523049 0.143993
vt 0.584877 0.143993
vt 0.584877 0.149976
vt 0.523049 0.149976
vt 0.584877 0.155960
vt 0.523049 0.155960
vt 0.584877 0.161943
vt 0.523049 0.161943
vt 0.584877 0.167926
vt 0.523049 0.167926
vt 0.590860 0.143993
vt 0.590860 0.149976
vt 0.517066 0.143993
vt 0.517066 0.149976
vn 0.623139 0.000000 -0.782111
vn 0.623139 0.000000 -0.782111
vn 0.623139 0.000000 -0.782111
vn 0.623139 0.000000 -0.782111
vn 0.000000 1.000000 0.000000
vn 0.000000 1.000000 0.000000
vn 0.000000 1.000000 0.000000
vn 0.000000 1.000000 0.000000
vn -0.446880 0.000000 0.894594
vn -0.446880 0.000000 0.894594
vn -0.446880 0.000000 0.894594
vn -0.446880 0.000000 0.894594
vn 0.000000 -1.000000 0.000000
vn 0.000000 -1.000000 0.000000
vn 0.000000 -1.000000 0.000000
vn 0.000000 -1.000000 0.000000
vn -0.804977 0.000000 -0.593306
vn -0.804977 0.000000 -0.593306
vn -0.804977 0.000000 -0.593306
vn -0.804977 0.000000 -0.593306
vn 0.797656 0.000000 0.603113
vn 0.797656 0.000000 0.603113
vn 0.797656 0.000000 0.603113
vn 0.797656 0.000000 0.603113
vn 0.000000 0.000000 -1.000000
vn 0.000000 0.000000 -1.000000
vn 0.000000 0.000000 -1.000000
vn 0.000000 0.000000 -1.000000
vn 0.000000 1.000000 0.000000
vn 0.000000 1.000000 0.000000
vn 0.000000 1.000000 0.000000
vn 0.000000 1.000000 0.000000
vn -0.544467 0.000000 0.838782
vn -0.544467 0.000000 0.838782
vn -0.544467 0.000000 0.838782
vn -0.544467 0.000000 0.838782
vn 0.000000 -1.000000 0.000000
vn 0.000000 -1.000000 0.000000
vn 0.000000 -1.000000 0.000000
vn 0.000000 -1.000000 0.000000
vn -0.999982 0.000000 0.005933
vn -0.999982 0.000000 0.005933
vn -0.999982 0.000000 0.005933
vn -0.999982 0.000000 0.005933
vn 0.999926 0.000000 0.012154
vn 0.999926 0.000000 0.012154
vn 0.999926 0.000000 0.012154
vn 0.999926 0.000000 0.012154
vn -0.623139 0.000000 0.782111
vn -0.623139 0.000000 0.782111
vn -0.623139 0.000000 0.782111
vn -0.623139 0.000000 0.782111
vn 0.000000 1.000000 0.000000
vn 0.000000 1.000000 0.000000
vn 0.000000 1.000000 0.000000
vn 0.000000 1.000000 0.000000
vn 0.446880 0.000000 -0.894594
vn 0.446880 0.000000 -0.894594
vn 0.446880 0.000000 -0.894594
vn 0.446880 0.000000 -0.894594
vn 0.000000 -1.000000 0.000000
vn 0.000000 -1.000000 0.000000
vn 0.000000 -1.000000 0.000000
vn 0.000000 -1.000000 0.000000
vn 0.804977 0.000000 0.593306
vn 0.804977 0.000000 0.593306
vn 0.804977 0.000000 0.593306
vn 0.804977 0.000000 0.593306
vn -0.797656 0.000000 -0.603113
vn -0.797656 0.000000 -0.603113
vn -0.797656 0.000000 -0.603113
vn -0.797656 0.000000 -0.603113
vn 0.000000 0.000000 1.000000
vn 0.000000 0.000000 1.000000
vn 0.000000 0.000000 1.000000
vn 0.000000 0.000000 1.000000
vn 0.000000 1.000000 0.000000
vn 0.000000 1.000000 0.000000
vn 0.000000 1.000000 0.000000
vn 0.000000 1.000000 0.000000
vn 0.544467 0.000000 -0.838782
vn 0.544467 0.000000 -0.838782
vn 0.544467 0.000000 -0.838782
vn 0.544467 0.000000 -0.838782
vn 0.000000 -1.000000 0.000000
vn 0.000000 -1.000000 0.000000
vn 0.000000 -1.000000 0.000000
vn 0.000000 -1.000000 0.000000
vn 0.999982 0.000000 -0.005933
vn 0.999982 0.000000 -0.005933
vn 0.999982 0.000000 -0.005933
vn 0.999982 0.000000 -0.005933
vn -0.999926 0.000000 -0.012154
vn -0.999926 0.000000 -0.012154
vn -0.999926 0.000000 -0.012154
vn -0.999926 0.000000 -0.012154
f 1/1/1 2/2/2 4/3/3 3/4/4
f 3/4/5 4/3/6 6/5/7 5/6/8
f 5/6/9 6/5/10 8/7/11 7/8/12
f 7/8/13 8/7/14 2/9/15 1/10/16
f 2/2/17 8/11/18 6/12/19 4/3/20
f 7/13/21 1/1/22 3/4/23 5/14/24
f 9/15/25 10/16/26 12/17/27 11/18/28
f 11/18/29 12/17/30 14/19/31 13/20/32
f 13/20/33 14/19/34 16/21/35 15/22/36
f 15/22/37 16/21/38 10/23/39 9/24/40
f 10/16/41 16/25/42 14/26/43 12/17/44
f 15/27/45 9/15/46 11/18/47 13/28/48
f 17/29/49 18/30/50 20/31/51 19/32/52
f 19/32/53 20/31/54 22/33/55 21/34/56
f 21/34/57 22/33/58 24/35/59 23/36/60
f 23/36/61 24/35/62 18/37/63 17/38/64
f 18/30/65 24/39/66 22/40/67 20/31/68
f 23/41/69 17/29/70 19/32/71 21/42/72
f 25/43/73 26/44/74 28/45/75 27/46/76
f 27/46/77 28/45/78 30/47/79 29/48/80
f 29/48/81 30/47/82 32/49/83 31/50/84
f 31/50/85 32/49/86 26/51/87 25/52/88
f 26/44/89 32/53/90 30/54/91 28/45/92
f 31/55/93 25/43/94 27/46/95 29/56/96
