# This file uses centimeters as units for non-parametric coordinates.

v 5.653084 -24.269070 -3.263810
v 3.263810 -24.269070 -5.653084
v 0.000000 -24.269070 -6.527619
v -3.263810 -24.269070 -5.653084
v -5.653084 -24.269070 -3.263810
v -6.527619 -24.269070 0.000000
v -5.653084 -24.269070 3.263810
v -3.263810 -24.269070 5.653084
v 0.000000 -24.269070 6.527619
v 3.263810 -24.269070 5.653084
v 5.653084 -24.269070 3.263810
v 6.527619 -24.269070 0.000000
v 7.224648 -16.833441 -4.171152
v 4.171152 -16.833441 -7.224648
v 0.000000 -16.833441 -8.342305
v -4.171152 -16.833441 -7.224648
v -7.224648 -16.833441 -4.171152
v -8.342305 -16.833441 0.000000
v -7.224648 -16.833441 4.171152
v -4.171152 -16.833441 7.224648
v 0.000000 -16.833441 8.342305
v 4.171152 -16.833441 7.224648
v 7.224648 -16.833441 4.171152
v 8.342305 -16.833441 0.000000
v 0.000000 -24.269070 0.000000
v 0.000000 -16.833441 0.000000
v 0.000000 -21.238882 7.732621
v -3.866310 -21.238882 6.696646
v -6.696646 -21.238882 3.866310
v -7.732621 -21.238882 0.000000
v -6.696646 -21.238882 -3.866310
v -3.866310 -21.238882 -6.696646
v 0.000000 -21.238882 -7.732621
v 3.866310 -21.238882 -6.696646
v 6.696646 -21.238882 -3.866310
v 7.732621 -21.238882 0.000000
v 6.696646 -21.238882 3.866310
v 3.866310 -21.238882 6.696646
vt 0.645315 0.136871
vt 0.656963 0.136871
vt 0.656963 0.153589
vt 0.645315 0.153589
vt 0.668612 0.136871
vt 0.668612 0.153589
vt 0.680261 0.136871
vt 0.680261 0.153589
vt 0.691910 0.136871
vt 0.691910 0.153589
vt 0.703558 0.136871
vt 0.703558 0.153589
vt 0.715207 0.136871
vt 0.715207 0.153589
vt 0.703683 0.136871
vt 0.703683 0.153589
vt 0.692160 0.136871
vt 0.692160 0.153589
vt 0.680637 0.136871
vt 0.680637 0.153589
vt 0.669113 0.136871
vt 0.669113 0.153589
vt 0.657590 0.136871
vt 0.657590 0.153589
vt 0.646066 0.136871
vt 0.646066 0.153589
vt 0.689544 0.137385
vt 0.697538 0.145380
vt 0.678623 0.155427
vt 0.678623 0.134459
vt 0.667702 0.137385
vt 0.659708 0.145380
vt 0.656782 0.156300
vt 0.659708 0.167221
vt 0.667702 0.175216
vt 0.678623 0.178142
vt 0.689544 0.175216
vt 0.697538 0.167221
vt 0.700464 0.156300
vt 0.696345 0.168398
vt 0.688690 0.176053
vt 0.678233 0.157104
vt 0.678233 0.178855
vt 0.667777 0.176053
vt 0.660122 0.168398
vt 0.657320 0.157941
vt 0.660122 0.147484
vt 0.667777 0.139829
vt 0.678233 0.137027
vt 0.688690 0.139829
vt 0.696345 0.147484
vt 0.699147 0.157941
vt 0.692160 0.173689
vt 0.703683 0.173689
vt 0.715207 0.173689
vt 0.703558 0.173689
vt 0.691910 0.173689
vt 0.680261 0.173689
vt 0.668612 0.173689
vt 0.656963 0.173689
vt 0.645315 0.173689
vt 0.646066 0.173689
vt 0.657590 0.173689
vt 0.669113 0.173689
vt 0.680637 0.173689
vn 0.804731 -0.369520 -0.464611
vn 0.464611 -0.369520 -0.804731
vn 0.487141 -0.225336 -0.843752
vn 0.843752 -0.225336 -0.487141
vn 0.464611 -0.369520 -0.804731
vn 0.000000 -0.369520 -0.929223
vn 0.000000 -0.225336 -0.974281
vn 0.487141 -0.225336 -0.843752
vn 0.000000 -0.369520 -0.929223
vn -0.464611 -0.369520 -0.804731
vn -0.487141 -0.225336 -0.843752
vn 0.000000 -0.225336 -0.974281
vn -0.464611 -0.369520 -0.804731
vn -0.804731 -0.369520 -0.464611
vn -0.843752 -0.225336 -0.487141
vn -0.487141 -0.225336 -0.843752
vn -0.804731 -0.369520 -0.464611
vn -0.929223 -0.369520 0.000000
vn -0.974281 -0.225336 0.000000
vn -0.843752 -0.225336 -0.487141
vn -0.929223 -0.369520 0.000000
vn -0.804731 -0.369520 0.464611
vn -0.843752 -0.225336 0.487141
vn -0.974281 -0.225336 0.000000
vn -0.804731 -0.369520 0.464611
vn -0.464611 -0.369520 0.804731
vn -0.487141 -0.225336 0.843752
vn -0.843752 -0.225336 0.487141
vn -0.464611 -0.369520 0.804731
vn 0.000000 -0.369520 0.929223
vn 0.000000 -0.225336 0.974281
vn -0.487141 -0.225336 0.843752
vn 0.000000 -0.369520 0.929223
vn 0.464611 -0.369520 0.804731
vn 0.487141 -0.225336 0.843752
vn 0.000000 -0.225336 0.974281
vn 0.464611 -0.369520 0.804731
vn 0.804731 -0.369520 0.464611
vn 0.843752 -0.225336 0.487141
vn 0.487141 -0.225336 0.843752
vn 0.804731 -0.369520 0.464611
vn 0.929223 -0.369520 0.000000
vn 0.974281 -0.225336 0.000000
vn 0.843752 -0.225336 0.487141
vn 0.929223 -0.369520 0.000000
vn 0.804731 -0.369520 -0.464611
vn 0.843752 -0.225336 -0.487141
vn 0.974281 -0.225336 0.000000
vn 0.000000 -1.000000 0.000000
vn 0.000000 -1.000000 0.000000
vn 0.000000 -1.000000 0.000000
vn 0.000000 -1.000000 0.000000
vn 0.000000 -1.000000 0.000000
vn 0.000000 -1.000000 0.000000
vn 0.000000 -1.000000 0.000000
vn 0.000000 -1.000000 0.000000
vn 0.000000 -1.000000 0.000000
vn 0.000000 -1.000000 0.000000
vn 0.000000 -1.000000 0.000000
vn 0.000000 -1.000000 0.000000
vn 0.000000 -1.000000 0.000000
vn 0.000000 -1.000000 0.000000
vn 0.000000 -1.000000 0.000000
vn 0.000000 -1.000000 0.000000
vn 0.000000 -1.000000 0.000000
vn 0.000000 -1.000000 0.000000
vn 0.000000 -1.000000 0.000000
vn 0.000000 -1.000000 0.000000
vn 0.000000 -1.000000 0.000000
vn 0.000000 -1.000000 0.000000
vn 0.000000 -1.000000 0.000000
vn 0.000000 -1.000000 0.000000
vn 0.000000 -1.000000 0.000000
vn 0.000000 -1.000000 0.000000
vn 0.000000 -1.000000 0.000000
vn 0.000000 -1.000000 0.000000
vn 0.000000 -1.000000 0.000000
vn 0.000000 -1.000000 0.000000
vn 0.000000 -1.000000 0.000000
vn 0.000000 -1.000000 0.000000
vn 0.000000 -1.000000 0.000000
vn 0.000000 -1.000000 0.000000
vn 0.000000 -1.000000 0.000000
vn 0.000000 -1.000000 0.000000
vn 0.000000 1.000000 0.000000
vn 0.000000 1.000000 0.000000
vn 0.000000 1.000000 0.000000
vn 0.000000 1.000000 0.000000
vn 0.000000 1.000000 0.000000
vn 0.000000 1.000000 0.000000
vn 0.000000 1.000000 0.000000
vn 0.000000 1.000000 0.000000
vn 0.000000 1.000000 0.000000
vn 0.000000 1.000000 0.000000
vn 0.000000 1.000000 0.000000
vn 0.000000 1.000000 0.000000
vn 0.000000 1.000000 0.000000
vn 0.000000 1.000000 0.000000
vn 0.000000 1.000000 0.000000
vn 0.000000 1.000000 0.000000
vn 0.000000 1.000000 0.000000
vn 0.000000 1.000000 0.000000
vn 0.000000 1.000000 0.000000
vn 0.000000 1.000000 0.000000
vn 0.000000 1.000000 0.000000
vn 0.000000 1.000000 0.000000
vn 0.000000 1.000000 0.000000
vn 0.000000 1.000000 0.000000
vn 0.000000 1.000000 0.000000
vn 0.000000 1.000000 0.000000
vn 0.000000 1.000000 0.000000
vn 0.000000 1.000000 0.000000
vn 0.000000 1.000000 0.000000
vn 0.000000 1.000000 0.000000
vn 0.000000 1.000000 0.000000
vn 0.000000 1.000000 0.000000
vn 0.000000 1.000000 0.000000
vn 0.000000 1.000000 0.000000
vn 0.000000 1.000000 0.000000
vn 0.000000 1.000000 0.000000
vn -0.487141 -0.225336 0.843752
vn 0.000000 -0.225336 0.974281
vn 0.000000 -0.137087 0.990559
vn -0.495279 -0.137087 0.857849
vn -0.843752 -0.225336 0.487141
vn -0.487141 -0.225336 0.843752
vn -0.495279 -0.137087 0.857849
vn -0.857849 -0.137087 0.495280
vn -0.974281 -0.225336 0.000000
vn -0.843752 -0.225336 0.487141
vn -0.857849 -0.137087 0.495280
vn -0.990559 -0.137087 0.000000
vn -0.843752 -0.225336 -0.487141
vn -0.974281 -0.225336 0.000000
vn -0.990559 -0.137087 0.000000
vn -0.857849 -0.137087 -0.495279
vn -0.487141 -0.225336 -0.843752
vn -0.843752 -0.225336 -0.487141
vn -0.857849 -0.137087 -0.495279
vn -0.495279 -0.137087 -0.857849
vn 0.000000 -0.225336 -0.974281
vn -0.487141 -0.225336 -0.843752
vn -0.495279 -0.137087 -0.857849
vn 0.000000 -0.137087 -0.990559
vn 0.487141 -0.225336 -0.843752
vn 0.000000 -0.225336 -0.974281
vn 0.000000 -0.137087 -0.990559
vn 0.495279 -0.137087 -0.857849
vn 0.843752 -0.225336 -0.487141
vn 0.487141 -0.225336 -0.843752
vn 0.495279 -0.137087 -0.857849
vn 0.857849 -0.137087 -0.495280
vn 0.974281 -0.225336 0.000000
vn 0.843752 -0.225336 -0.487141
vn 0.857849 -0.137087 -0.495280
vn 0.990559 -0.137087 0.000000
vn 0.843752 -0.225336 0.487141
vn 0.974281 -0.225336 0.000000
vn 0.990559 -0.137087 0.000000
vn 0.857849 -0.137087 0.495279
vn 0.487141 -0.225336 0.843752
vn 0.843752 -0.225336 0.487141
vn 0.857849 -0.137087 0.495279
vn 0.495279 -0.137087 0.857849
vn 0.000000 -0.225336 0.974281
vn 0.487141 -0.225336 0.843752
vn 0.495279 -0.137087 0.857849
vn 0.000000 -0.137087 0.990559
f 1/1/1 2/2/2 34/3/3 35/4/4
f 2/2/5 3/5/6 33/6/7 34/3/8
f 3/5/9 4/7/10 32/8/11 33/6/12
f 4/7/13 5/9/14 31/10/15 32/8/16
f 5/9/17 6/11/18 30/12/19 31/10/20
f 6/11/21 7/13/22 29/14/23 30/12/24
f 7/13/25 8/15/26 28/16/27 29/14/28
f 8/15/29 9/17/30 27/18/31 28/16/32
f 9/17/33 10/19/34 38/20/35 27/18/36
f 10/19/37 11/21/38 37/22/39 38/20/40
f 11/21/41 12/23/42 36/24/43 37/22/44
f 12/23/45 1/25/46 35/26/47 36/24/48
f 2/27/49 1/28/50 25/29/51
f 3/30/52 2/27/53 25/29/54
f 4/31/55 3/30/56 25/29/57
f 5/32/58 4/31/59 25/29/60
f 6/33/61 5/32/62 25/29/63
f 7/34/64 6/33/65 25/29/66
f 8/35/67 7/34/68 25/29/69
f 9/36/70 8/35/71 25/29/72
f 10/37/73 9/36/74 25/29/75
f 11/38/76 10/37/77 25/29/78
f 12/39/79 11/38/80 25/29/81
f 1/28/82 12/39/83 25/29/84
f 13/40/85 14/41/86 26/42/87
f 14/41/88 15/43/89 26/42/90
f 15/43/91 16/44/92 26/42/93
f 16/44/94 17/45/95 26/42/96
f 17/45/97 18/46/98 26/42/99
f 18/46/100 19/47/101 26/42/102
f 19/47/103 20/48/104 26/42/105
f 20/48/106 21/49/107 26/42/108
f 21/49/109 22/50/110 26/42/111
f 22/50/112 23/51/113 26/42/114
f 23/51/115 24/52/116 26/42/117
f 24/52/118 13/40/119 26/42/120
f 28/16/121 27/18/122 21/53/123 20/54/124
f 29/14/125 28/16/126 20/54/127 19/55/128
f 30/12/129 29/14/130 19/55/131 18/56/132
f 31/10/133 30/12/134 18/56/135 17/57/136
f 32/8/137 31/10/138 17/57/139 16/58/140
f 33/6/141 32/8/142 16/58/143 15/59/144
f 34/3/145 33/6/146 15/59/147 14/60/148
f 35/4/149 34/3/150 14/60/151 13/61/152
f 36/24/153 35/26/154 13/62/155 24/63/156
f 37/22/157 36/24/158 24/63/159 23/64/160
f 38/20/161 37/22/162 23/64/163 22/65/164
f 27/18/165 38/20/166 22/65/167 21/53/168
