# This file uses centimeters as units for non-parametric coordinates.

v 7.058237 -31.491949 -4.075075
v 4.075075 -31.491949 -7.058237
v 0.000000 -31.491949 -8.150149
v -4.075075 -31.491949 -7.058237
v -7.058237 -31.491949 -4.075075
v -8.150149 -31.491949 0.000000
v -7.058237 -31.491949 4.075075
v -4.075075 -31.491949 7.058237
v 0.000000 -31.491949 8.150149
v 4.075075 -31.491949 7.058237
v 7.058237 -31.491949 4.075075
v 8.150149 -31.491949 0.000000
v 8.852445 -24.056320 -5.110961
v 5.110961 -24.056320 -8.852445
v 0.000000 -24.056320 -10.221923
v -5.110961 -24.056320 -8.852445
v -8.852445 -24.056320 -5.110961
v -10.221923 -24.056320 0.000000
v -8.852445 -24.056320 5.110961
v -5.110961 -24.056320 8.852445
v 0.000000 -24.056320 10.221923
v 5.110961 -24.056320 8.852445
v 8.852445 -24.056320 5.110961
v 10.221923 -24.056320 0.000000
v 0.000000 -31.491949 0.000000
v 0.000000 -24.056320 0.000000
v -1.035985 -17.143597 1.035985
v 1.035985 -17.143597 1.035985
v -1.035985 -6.757560 1.035985
v 1.035985 -6.757560 1.035985
v -1.035985 -6.757560 -1.035985
v 1.035985 -6.757560 -1.035985
v -1.035985 -17.143597 -1.035985
v 1.035985 -17.143597 -1.035985
v 2.454416 -6.587433 -1.417058
v 1.417058 -6.587433 -2.454416
v 0.000000 -6.587433 -2.834115
v -1.417058 -6.587433 -2.454416
v -2.454416 -6.587433 -1.417058
v -2.834115 -6.587433 0.000000
v -2.454416 -6.587433 1.417058
v -1.417058 -6.587433 2.454416
v 0.000000 -6.587433 2.834115
v 1.417058 -6.587433 2.454416
v 2.454416 -6.587433 1.417058
v 2.834115 -6.587433 0.000000
v 4.251173 -3.803256 -2.454416
v 2.454416 -3.803256 -4.251173
v 0.000000 -3.803256 -4.908832
v -2.454416 -3.803256 -4.251173
v -4.251173 -3.803256 -2.454416
v -4.908832 -3.803256 0.000000
v -4.251173 -3.803256 2.454416
v -2.454416 -3.803256 4.251173
v 0.000000 -3.803256 4.908832
v 2.454416 -3.803256 4.251173
v 4.251173 -3.803256 2.454416
v 4.908832 -3.803256 0.000000
v 4.908832 0.000000 -2.834115
v 2.834115 0.000000 -4.908832
v 0.000000 0.000000 -5.668231
v -2.834115 0.000000 -4.908832
v -4.908832 0.000000 -2.834115
v -5.668231 0.000000 0.000000
v -4.908832 0.000000 2.834115
v -2.834115 0.000000 4.908832
v 0.000000 0.000000 5.668231
v 2.834115 0.000000 4.908832
v 4.908832 0.000000 2.834115
v 5.668231 0.000000 0.000000
v 0.000000 -7.606513 0.000000
vt 0.645027 0.136605
vt 0.658011 0.136605
vt 0.658011 0.169943
vt 0.645027 0.169943
vt 0.670994 0.136605
vt 0.670994 0.169943
vt 0.683977 0.136605
vt 0.683977 0.169943
vt 0.696960 0.136605
vt 0.696960 0.169943
vt 0.709943 0.136605
vt 0.709943 0.169943
vt 0.722927 0.136605
vt 0.722927 0.169943
vt 0.709943 0.136605
vt 0.709943 0.169943
vt 0.696960 0.136605
vt 0.696960 0.169943
vt 0.683977 0.136605
vt 0.683977 0.169943
vt 0.670994 0.136605
vt 0.670994 0.169943
vt 0.658011 0.136605
vt 0.658011 0.169943
vt 0.645028 0.136605
vt 0.645028 0.169943
vt 0.693700 0.136114
vt 0.701536 0.143950
vt 0.682997 0.153798
vt 0.682997 0.133246
vt 0.672293 0.136114
vt 0.664457 0.143950
vt 0.661589 0.154654
vt 0.664457 0.165358
vt 0.672293 0.173194
vt 0.682997 0.176062
vt 0.693700 0.173194
vt 0.701536 0.165358
vt 0.704404 0.154654
vt 0.700217 0.163999
vt 0.692573 0.171643
vt 0.682131 0.152721
vt 0.682131 0.174441
vt 0.671690 0.171643
vt 0.664045 0.163999
vt 0.661247 0.153557
vt 0.664045 0.143115
vt 0.671690 0.135471
vt 0.682131 0.132673
vt 0.692573 0.135471
vt 0.700217 0.143115
vt 0.703015 0.153557
vt 0.721594 0.148524
vt 0.721594 0.156618
vt 0.646325 0.156618
vt 0.646325 0.148524
vt 0.646325 0.172804
vt 0.646325 0.164711
vt 0.721594 0.164711
vt 0.721594 0.172804
vt 0.721594 0.140431
vt 0.646325 0.140431
vt 0.672742 0.160402
vt 0.672742 0.170410
vt 0.645194 0.165406
vt 0.672742 0.150394
vt 0.645194 0.155398
vt 0.672742 0.140386
vt 0.645193 0.145390
vt 0.672742 0.150287
vt 0.645194 0.145337
vt 0.672743 0.160187
vt 0.645193 0.155237
vt 0.672743 0.170088
vt 0.645194 0.165137
vt 0.672743 0.160187
vt 0.645194 0.165137
vt 0.672742 0.150287
vt 0.645194 0.155237
vt 0.672742 0.140386
vt 0.645194 0.145337
vt 0.672742 0.150394
vt 0.645194 0.145390
vt 0.672742 0.160402
vt 0.645194 0.155398
vt 0.672742 0.170410
vt 0.645194 0.165406
vt 0.695191 0.160402
vt 0.695191 0.170410
vt 0.695191 0.150394
vt 0.695191 0.140386
vt 0.695191 0.150287
vt 0.695191 0.160187
vt 0.695191 0.170088
vt 0.695191 0.160187
vt 0.695191 0.150287
vt 0.695191 0.140386
vt 0.695191 0.150394
vt 0.695191 0.160402
vt 0.695191 0.170410
vt 0.722740 0.160403
vt 0.722740 0.170410
vt 0.722740 0.150394
vt 0.722740 0.140386
vt 0.722740 0.150287
vt 0.722740 0.160187
vt 0.722740 0.170088
vt 0.722740 0.160187
vt 0.722740 0.150287
vt 0.722740 0.140386
vt 0.722740 0.150394
vt 0.722740 0.160403
vt 0.722740 0.170410
vn 0.834248 -0.268404 -0.481653
vn 0.481653 -0.268404 -0.834248
vn 0.481653 -0.268404 -0.834248
vn 0.834248 -0.268404 -0.481653
vn 0.481653 -0.268404 -0.834248
vn 0.000000 -0.268404 -0.963306
vn 0.000000 -0.268404 -0.963306
vn 0.481653 -0.268404 -0.834248
vn 0.000000 -0.268404 -0.963306
vn -0.481653 -0.268404 -0.834248
vn -0.481653 -0.268404 -0.834248
vn 0.000000 -0.268404 -0.963306
vn -0.481653 -0.268404 -0.834248
vn -0.834248 -0.268404 -0.481653
vn -0.834248 -0.268404 -0.481653
vn -0.481653 -0.268404 -0.834248
vn -0.834248 -0.268404 -0.481653
vn -0.963306 -0.268404 0.000000
vn -0.963306 -0.268404 0.000000
vn -0.834248 -0.268404 -0.481653
vn -0.963306 -0.268404 0.000000
vn -0.834248 -0.268404 0.481653
vn -0.834248 -0.268404 0.481653
vn -0.963306 -0.268404 0.000000
vn -0.834248 -0.268404 0.481653
vn -0.481653 -0.268404 0.834248
vn -0.481653 -0.268404 0.834248
vn -0.834248 -0.268404 0.481653
vn -0.481653 -0.268404 0.834248
vn 0.000000 -0.268404 0.963306
vn 0.000000 -0.268404 0.963306
vn -0.481653 -0.268404 0.834248
vn 0.000000 -0.268404 0.963306
vn 0.000000 -0.268404 0.963306
vn 0.481653 -0.268404 0.834248
vn 0.481653 -0.268404 0.834248
vn 0.481653 -0.268404 0.834248
vn 0.834248 -0.268404 0.481653
vn 0.834248 -0.268404 0.481653
vn 0.481653 -0.268404 0.834248
vn 0.834248 -0.268404 0.481653
vn 0.963306 -0.268404 0.000000
vn 0.963306 -0.268404 0.000000
vn 0.834248 -0.268404 0.481653
vn 0.963306 -0.268404 0.000000
vn 0.834248 -0.268404 -0.481653
vn 0.834248 -0.268404 -0.481653
vn 0.963306 -0.268404 0.000000
vn 0.000000 -1.000000 0.000000
vn 0.000000 -1.000000 0.000000
vn 0.000000 -1.000000 0.000000
vn 0.000000 -1.000000 0.000000
vn 0.000000 -1.000000 0.000000
vn 0.000000 -1.000000 0.000000
vn 0.000000 -1.000000 0.000000
vn 0.000000 -1.000000 0.000000
vn 0.000000 -1.000000 0.000000
vn 0.000000 -1.000000 0.000000
vn 0.000000 -1.000000 0.000000
vn 0.000000 -1.000000 0.000000
vn 0.000000 -1.000000 0.000000
vn 0.000000 -1.000000 0.000000
vn 0.000000 -1.000000 0.000000
vn 0.000000 -1.000000 0.000000
vn 0.000000 -1.000000 0.000000
vn 0.000000 -1.000000 0.000000
vn 0.000000 -1.000000 0.000000
vn 0.000000 -1.000000 0.000000
vn 0.000000 -1.000000 0.000000
vn 0.000000 -1.000000 0.000000
vn 0.000000 -1.000000 0.000000
vn 0.000000 -1.000000 0.000000
vn 0.000000 -1.000000 0.000000
vn 0.000000 -1.000000 0.000000
vn 0.000000 -1.000000 0.000000
vn 0.000000 -1.000000 0.000000
vn 0.000000 -1.000000 0.000000
vn 0.000000 -1.000000 0.000000
vn 0.000000 -1.000000 0.000000
vn 0.000000 -1.000000 0.000000
vn 0.000000 -1.000000 0.000000
vn 0.000000 -1.000000 0.000000
vn 0.000000 -1.000000 0.000000
vn 0.000000 -1.000000 0.000000
vn 0.000000 1.000000 0.000000
vn 0.000000 1.000000 0.000000
vn 0.000000 1.000000 0.000000
vn 0.000000 1.000000 0.000000
vn 0.000000 1.000000 0.000000
vn 0.000000 1.000000 0.000000
vn 0.000000 1.000000 0.000000
vn 0.000000 1.000000 0.000000
vn 0.000000 1.000000 0.000000
vn 0.000000 1.000000 0.000000
vn 0.000000 1.000000 0.000000
vn 0.000000 1.000000 0.000000
vn 0.000000 1.000000 0.000000
vn 0.000000 1.000000 0.000000
vn 0.000000 1.000000 0.000000
vn 0.000000 1.000000 0.000000
vn 0.000000 1.000000 0.000000
vn 0.000000 1.000000 0.000000
vn 0.000000 1.000000 0.000000
vn 0.000000 1.000000 0.000000
vn 0.000000 1.000000 0.000000
vn 0.000000 1.000000 0.000000
vn 0.000000 1.000000 0.000000
vn 0.000000 1.000000 0.000000
vn 0.000000 1.000000 0.000000
vn 0.000000 1.000000 0.000000
vn 0.000000 1.000000 0.000000
vn 0.000000 1.000000 0.000000
vn 0.000000 1.000000 0.000000
vn 0.000000 1.000000 0.000000
vn 0.000000 1.000000 0.000000
vn 0.000000 1.000000 0.000000
vn 0.000000 1.000000 0.000000
vn 0.000000 1.000000 0.000000
vn 0.000000 1.000000 0.000000
vn 0.000000 1.000000 0.000000
vn -0.707107 0.000000 0.707107
vn 0.707107 0.000000 0.707107
vn 0.707107 0.000000 0.707107
vn -0.707107 0.000000 0.707107
vn -0.707107 0.000000 -0.707107
vn 0.707107 0.000000 -0.707107
vn 0.707107 0.000000 -0.707107
vn -0.707107 0.000000 -0.707107
vn 0.707107 0.000000 0.707107
vn 0.707107 0.000000 -0.707107
vn 0.707107 0.000000 -0.707107
vn 0.707107 0.000000 0.707107
vn -0.707107 0.000000 -0.707107
vn -0.707107 0.000000 0.707107
vn -0.707107 0.000000 0.707107
vn -0.707107 0.000000 -0.707107
vn 0.365223 -0.682970 -0.632585
vn 0.632585 -0.682970 -0.365223
vn 0.000000 -1.000000 0.000000
vn 0.000000 -0.682970 -0.730446
vn 0.365223 -0.682970 -0.632585
vn 0.000000 -1.000000 0.000000
vn -0.365223 -0.682970 -0.632585
vn 0.000000 -0.682970 -0.730446
vn 0.000000 -1.000000 0.000000
vn -0.632585 -0.682970 -0.365223
vn -0.365223 -0.682970 -0.632585
vn 0.000000 -1.000000 0.000000
vn -0.730446 -0.682970 0.000000
vn -0.632585 -0.682970 -0.365223
vn 0.000000 -1.000000 0.000000
vn -0.632585 -0.682970 0.365223
vn -0.730446 -0.682970 0.000000
vn 0.000000 -1.000000 0.000000
vn -0.365223 -0.682970 0.632585
vn -0.632585 -0.682970 0.365223
vn 0.000000 -1.000000 0.000000
vn 0.000000 -0.682970 0.730446
vn -0.365223 -0.682970 0.632585
vn 0.000000 -1.000000 0.000000
vn 0.365223 -0.682970 0.632585
vn 0.000000 -0.682970 0.730446
vn 0.000000 -1.000000 0.000000
vn 0.632585 -0.682970 0.365223
vn 0.365223 -0.682970 0.632585
vn 0.000000 -1.000000 0.000000
vn 0.730446 -0.682970 0.000000
vn 0.632585 -0.682970 0.365223
vn 0.000000 -1.000000 0.000000
vn 0.632585 -0.682970 -0.365223
vn 0.730446 -0.682970 0.000000
vn 0.000000 -1.000000 0.000000
vn 0.365223 -0.682970 -0.632585
vn 0.468390 -0.349921 -0.811275
vn 0.811275 -0.349921 -0.468390
vn 0.632585 -0.682970 -0.365223
vn 0.000000 -0.682970 -0.730446
vn 0.000000 -0.349921 -0.936779
vn 0.468390 -0.349921 -0.811275
vn 0.365223 -0.682970 -0.632585
vn -0.365223 -0.682970 -0.632585
vn -0.468390 -0.349921 -0.811275
vn 0.000000 -0.349921 -0.936779
vn 0.000000 -0.682970 -0.730446
vn -0.632585 -0.682970 -0.365223
vn -0.811275 -0.349921 -0.468390
vn -0.468390 -0.349921 -0.811275
vn -0.365223 -0.682970 -0.632585
vn -0.730446 -0.682970 0.000000
vn -0.936779 -0.349921 0.000000
vn -0.811275 -0.349921 -0.468390
vn -0.632585 -0.682970 -0.365223
vn -0.632585 -0.682970 0.365223
vn -0.811275 -0.349921 0.468390
vn -0.936779 -0.349921 0.000000
vn -0.730446 -0.682970 0.000000
vn -0.365223 -0.682970 0.632585
vn -0.468390 -0.349921 0.811275
vn -0.811275 -0.349921 0.468390
vn -0.632585 -0.682970 0.365223
vn 0.000000 -0.682970 0.730446
vn 0.000000 -0.349921 0.936779
vn -0.468390 -0.349921 0.811275
vn -0.365223 -0.682970 0.632585
vn 0.365223 -0.682970 0.632585
vn 0.468390 -0.349921 0.811275
vn 0.000000 -0.349921 0.936779
vn 0.000000 -0.682970 0.730446
vn 0.632585 -0.682970 0.365223
vn 0.811275 -0.349921 0.468390
vn 0.468390 -0.349921 0.811275
vn 0.365223 -0.682970 0.632585
vn 0.730446 -0.682970 0.000000
vn 0.936779 -0.349921 0.000000
vn 0.811275 -0.349921 0.468390
vn 0.632585 -0.682970 0.365223
vn 0.632585 -0.682970 -0.365223
vn 0.811275 -0.349921 -0.468390
vn 0.936779 -0.349921 0.000000
vn 0.730446 -0.682970 0.000000
vn 0.468390 -0.349921 -0.811275
vn 0.490321 -0.195806 -0.849262
vn 0.849262 -0.195806 -0.490321
vn 0.811275 -0.349921 -0.468390
vn 0.000000 -0.349921 -0.936779
vn 0.000000 -0.195806 -0.980643
vn 0.490321 -0.195806 -0.849262
vn 0.468390 -0.349921 -0.811275
vn -0.468390 -0.349921 -0.811275
vn -0.490321 -0.195806 -0.849262
vn 0.000000 -0.195806 -0.980643
vn 0.000000 -0.349921 -0.936779
vn -0.811275 -0.349921 -0.468390
vn -0.849262 -0.195806 -0.490321
vn -0.490321 -0.195806 -0.849262
vn -0.468390 -0.349921 -0.811275
vn -0.936779 -0.349921 0.000000
vn -0.980643 -0.195806 0.000000
vn -0.849262 -0.195806 -0.490321
vn -0.811275 -0.349921 -0.468390
vn -0.811275 -0.349921 0.468390
vn -0.849262 -0.195806 0.490321
vn -0.980643 -0.195806 0.000000
vn -0.936779 -0.349921 0.000000
vn -0.468390 -0.349921 0.811275
vn -0.490321 -0.195806 0.849262
vn -0.849262 -0.195806 0.490321
vn -0.811275 -0.349921 0.468390
vn 0.000000 -0.349921 0.936779
vn 0.000000 -0.195806 0.980643
vn -0.490321 -0.195806 0.849262
vn -0.468390 -0.349921 0.811275
vn 0.468390 -0.349921 0.811275
vn 0.490321 -0.195806 0.849262
vn 0.000000 -0.195806 0.980643
vn 0.000000 -0.349921 0.936779
vn 0.811275 -0.349921 0.468390
vn 0.849262 -0.195806 0.490321
vn 0.490321 -0.195806 0.849262
vn 0.468390 -0.349921 0.811275
vn 0.936779 -0.349921 0.000000
vn 0.980643 -0.195806 0.000000
vn 0.849262 -0.195806 0.490321
vn 0.811275 -0.349921 0.468390
vn 0.811275 -0.349921 -0.468390
vn 0.849262 -0.195806 -0.490321
vn 0.980643 -0.195806 0.000000
vn 0.936779 -0.349921 0.000000
f 1/1/1 2/2/2 14/3/3 13/4/4
f 2/2/5 3/5/6 15/6/7 14/3/8
f 3/5/9 4/7/10 16/8/11 15/6/12
f 4/7/13 5/9/14 17/10/15 16/8/16
f 5/9/17 6/11/18 18/12/19 17/10/20
f 6/11/21 7/13/22 19/14/23 18/12/24
f 7/13/25 8/15/26 20/16/27 19/14/28
f 8/15/29 9/17/30 21/18/31 20/16/32
f 21/18/33 9/17/34 10/19/35 22/20/36
f 10/19/37 11/21/38 23/22/39 22/20/40
f 11/21/41 12/23/42 24/24/43 23/22/44
f 12/23/45 1/25/46 13/26/47 24/24/48
f 2/27/49 1/28/50 25/29/51
f 3/30/52 2/27/53 25/29/54
f 4/31/55 3/30/56 25/29/57
f 5/32/58 4/31/59 25/29/60
f 6/33/61 5/32/62 25/29/63
f 7/34/64 6/33/65 25/29/66
f 8/35/67 7/34/68 25/29/69
f 9/36/70 8/35/71 25/29/72
f 10/37/73 9/36/74 25/29/75
f 11/38/76 10/37/77 25/29/78
f 12/39/79 11/38/80 25/29/81
f 1/28/82 12/39/83 25/29/84
f 13/40/85 14/41/86 26/42/87
f 14/41/88 15/43/89 26/42/90
f 15/43/91 16/44/92 26/42/93
f 16/44/94 17/45/95 26/42/96
f 17/45/97 18/46/98 26/42/99
f 18/46/100 19/47/101 26/42/102
f 19/47/103 20/48/104 26/42/105
f 20/48/106 21/49/107 26/42/108
f 21/49/109 22/50/110 26/42/111
f 22/50/112 23/51/113 26/42/114
f 23/51/115 24/52/116 26/42/117
f 24/52/118 13/40/119 26/42/120
f 27/53/121 28/54/122 30/55/123 29/56/124
f 31/57/125 32/58/126 34/59/127 33/60/128
f 28/54/129 34/59/130 32/58/131 30/55/132
f 33/61/133 27/53/134 29/56/135 31/62/136
f 36/63/137 35/64/138 71/65/139
f 37/66/140 36/63/141 71/67/142
f 38/68/143 37/66/144 71/69/145
f 39/70/146 38/68/147 71/71/148
f 40/72/149 39/70/150 71/73/151
f 41/74/152 40/72/153 71/75/154
f 42/76/155 41/74/156 71/77/157
f 43/78/158 42/76/159 71/79/160
f 44/80/161 43/78/162 71/81/163
f 45/82/164 44/80/165 71/83/166
f 46/84/167 45/82/168 71/85/169
f 35/86/170 46/84/171 71/87/172
f 36/63/173 48/88/174 47/89/175 35/64/176
f 37/66/177 49/90/178 48/88/179 36/63/180
f 38/68/181 50/91/182 49/90/183 37/66/184
f 39/70/185 51/92/186 50/91/187 38/68/188
f 40/72/189 52/93/190 51/92/191 39/70/192
f 41/74/193 53/94/194 52/93/195 40/72/196
f 42/76/197 54/95/198 53/94/199 41/74/200
f 43/78/201 55/96/202 54/95/203 42/76/204
f 44/80/205 56/97/206 55/96/207 43/78/208
f 45/82/209 57/98/210 56/97/211 44/80/212
f 46/84/213 58/99/214 57/98/215 45/82/216
f 35/86/217 47/100/218 58/99/219 46/84/220
f 48/88/221 60/101/222 59/102/223 47/89/224
f 49/90/225 61/103/226 60/101/227 48/88/228
f 50/91/229 62/104/230 61/103/231 49/90/232
f 51/92/233 63/105/234 62/104/235 50/91/236
f 52/93/237 64/106/238 63/105/239 51/92/240
f 53/94/241 65/107/242 64/106/243 52/93/244
f 54/95/245 66/108/246 65/107/247 53/94/248
f 55/96/249 67/109/250 66/108/251 54/95/252
f 56/97/253 68/110/254 67/109/255 55/96/256
f 57/98/257 69/111/258 68/110/259 56/97/260
f 58/99/261 70/112/262 69/111/263 57/98/264
f 47/100/265 59/113/266 70/112/267 58/99/268
