# This file uses centimeters as units for non-parametric coordinates.

v -1.465390 -28.476828 1.465390
v 1.465390 -28.476828 1.465390
v -1.465390 -15.028580 1.465390
v 1.465390 -15.028580 1.465390
v -1.465390 -15.028580 -1.465390
v 1.465390 -15.028580 -1.465390
v -1.465390 -28.476828 -1.465390
v 1.465390 -28.476828 -1.465390
v 5.722841 -17.114128 -3.304084
v 3.304084 -17.114128 -5.722841
v 0.000000 -17.114128 -6.608169
v -3.304084 -17.114128 -5.722841
v -5.722841 -17.114128 -3.304084
v -6.608169 -17.114128 0.000000
v -5.722841 -17.114128 3.304084
v -3.304084 -17.114128 5.722841
v 0.000000 -17.114128 6.608169
v 3.304084 -17.114128 5.722841
v 5.722841 -17.114128 3.304084
v 6.608169 -17.114128 0.000000
v 10.700165 -13.259716 -6.177742
v 6.177742 -13.259716 -10.700165
v 0.000000 -13.259716 -12.355484
v -6.177742 -13.259716 -10.700165
v -10.700165 -13.259716 -6.177742
v -12.355484 -13.259716 0.000000
v -10.700165 -13.259716 6.177742
v -6.177742 -13.259716 10.700165
v 0.000000 -13.259716 12.355484
v 6.177742 -13.259716 10.700165
v 10.700165 -13.259716 6.177742
v 12.355484 -13.259716 0.000000
v 13.238470 -8.635754 -7.643232
v 7.643232 -8.635754 -13.238470
v 0.000000 -8.635754 -15.286465
v -7.643232 -8.635754 -13.238470
v -13.238470 -8.635754 -7.643232
v -15.286465 -8.635754 0.000000
v -13.238470 -8.635754 7.643232
v -7.643232 -8.635754 13.238470
v 0.000000 -8.635754 15.286465
v 7.643232 -8.635754 13.238470
v 13.238470 -8.635754 7.643232
v 15.286465 -8.635754 0.000000
v 0.000000 -17.114128 0.000000
v 13.705473 0.000000 -7.912856
v 7.912856 0.000000 -13.705473
v 0.000000 0.000000 -15.825713
v -7.912856 0.000000 -13.705473
v -13.705473 0.000000 -7.912856
v -15.825713 0.000000 0.000000
v -13.705473 0.000000 7.912856
v -7.912856 0.000000 13.705473
v 0.000000 0.000000 15.825713
v 7.912856 0.000000 13.705473
v 13.705473 0.000000 7.912856
v 15.825713 0.000000 0.000000
v 13.658774 -4.949316 -7.885897
v 13.705473 -4.126900 -7.912856
v 7.885897 -4.949316 -13.658774
v 7.912856 -4.126900 -13.705473
v 0.000000 -4.949316 -15.771794
v 0.000000 -4.126900 -15.825713
v -7.885897 -4.949316 -13.658774
v -7.912856 -4.126900 -13.705473
v -13.658774 -4.949316 -7.885897
v -13.705473 -4.126900 -7.912856
v -15.771794 -4.949316 0.000000
v -15.825713 -4.126900 0.000000
v -13.658774 -4.949316 7.885897
v -13.705473 -4.126900 7.912856
v -7.885897 -4.949316 13.658774
v -7.912856 -4.126900 13.705473
v 0.000000 -4.949316 15.771794
v 0.000000 -4.126900 15.825713
v 7.885897 -4.949316 13.658774
v 7.912856 -4.126900 13.705473
v 13.658774 -4.949316 7.885897
v 13.705473 -4.126900 7.912856
v 15.771794 -4.949316 0.000000
v 15.825713 -4.126900 0.000000
v 11.855850 -4.812824 -6.844978
v 11.902546 -3.990408 -6.871938
v 13.743876 -3.990409 0.000000
v 13.689956 -4.812825 0.000000
v 6.844978 -4.812823 -11.855850
v 6.871938 -3.990408 -11.902546
v 0.000000 -4.812824 -13.689956
v 0.000000 -3.990408 -13.743876
v -6.844978 -4.812823 -11.855850
v -6.871938 -3.990408 -11.902546
v -11.855850 -4.812824 -6.844978
v -11.902546 -3.990408 -6.871938
v -13.689956 -4.812825 0.000000
v -13.743876 -3.990409 0.000000
v -11.855850 -4.812824 6.844978
v -11.902546 -3.990408 6.871938
v -6.844978 -4.812823 11.855850
v -6.871938 -3.990408 11.902546
v 0.000000 -4.812824 13.689956
v 0.000000 -3.990408 13.743876
v 6.844978 -4.812823 11.855850
v 6.871938 -3.990408 11.902546
v 11.855850 -4.812824 6.844978
v 11.902546 -3.990408 6.871938
vt 0.576596 0.151752
vt 0.576596 0.156204
vt 0.544164 0.156204
vt 0.544164 0.151752
vt 0.544164 0.165106
vt 0.544164 0.160655
vt 0.576596 0.160655
vt 0.576596 0.165106
vt 0.576596 0.147301
vt 0.544164 0.147301
vt 0.545506 0.139619
vt 0.545506 0.147096
vt 0.538338 0.147096
vt 0.538338 0.139619
vt 0.552675 0.139619
vt 0.552675 0.147096
vt 0.559843 0.139619
vt 0.559843 0.147096
vt 0.567012 0.139619
vt 0.567012 0.147096
vt 0.574180 0.139619
vt 0.574180 0.147096
vt 0.581349 0.139619
vt 0.581349 0.147096
vt 0.574180 0.139619
vt 0.574180 0.147096
vt 0.567012 0.139619
vt 0.567012 0.147096
vt 0.559843 0.139619
vt 0.559843 0.147096
vt 0.552675 0.139619
vt 0.552675 0.147096
vt 0.545506 0.139619
vt 0.545506 0.147096
vt 0.538338 0.139619
vt 0.538338 0.147096
vt 0.545506 0.156465
vt 0.538338 0.156465
vt 0.552675 0.156465
vt 0.559843 0.156465
vt 0.567012 0.156465
vt 0.574180 0.156465
vt 0.581349 0.156465
vt 0.574180 0.156465
vt 0.567012 0.156465
vt 0.559843 0.156465
vt 0.552675 0.156465
vt 0.545506 0.156465
vt 0.538338 0.156465
vt 0.541922 0.132450
vt 0.549091 0.132450
vt 0.556259 0.132450
vt 0.563428 0.132450
vt 0.570596 0.132450
vt 0.577765 0.132450
vt 0.577764 0.132450
vt 0.570596 0.132450
vt 0.563428 0.132450
vt 0.556259 0.132450
vt 0.549091 0.132450
vt 0.541922 0.132450
vt 0.538338 0.164297
vt 0.538349 0.165627
vt 0.545506 0.165621
vt 0.545506 0.164297
vt 0.538349 0.165616
vt 0.538338 0.164297
vt 0.545506 0.164297
vt 0.545507 0.165621
vt 0.552675 0.164297
vt 0.552675 0.165621
vt 0.559843 0.164297
vt 0.559844 0.165621
vt 0.567012 0.164297
vt 0.567012 0.165621
vt 0.574180 0.164297
vt 0.574180 0.165621
vt 0.581349 0.164297
vt 0.581349 0.165621
vt 0.574180 0.164297
vt 0.574180 0.165621
vt 0.567012 0.164297
vt 0.567012 0.165621
vt 0.559843 0.164297
vt 0.559843 0.165621
vt 0.552675 0.164297
vt 0.552675 0.165621
vt 0.545506 0.162917
vt 0.538338 0.162917
vt 0.552675 0.162917
vt 0.559843 0.162917
vt 0.567012 0.162917
vt 0.574180 0.162917
vt 0.581349 0.162917
vt 0.574180 0.162917
vt 0.567012 0.162917
vt 0.559843 0.162917
vt 0.552675 0.162917
vt 0.545506 0.162917
vt 0.538338 0.162917
vt 0.538383 0.166727
vt 0.545507 0.166733
vt 0.545497 0.172971
vt 0.538407 0.172966
vt 0.552675 0.166733
vt 0.552665 0.172971
vt 0.559844 0.166733
vt 0.559834 0.172971
vt 0.567012 0.166733
vt 0.567002 0.172971
vt 0.574180 0.166733
vt 0.574170 0.172971
vt 0.581349 0.166733
vt 0.581339 0.172971
vt 0.574180 0.166733
vt 0.574190 0.172971
vt 0.567012 0.166733
vt 0.567022 0.172971
vt 0.559843 0.166733
vt 0.559853 0.172971
vt 0.552675 0.166733
vt 0.552685 0.172971
vt 0.545506 0.166733
vt 0.545516 0.172971
vt 0.538383 0.166738
vt 0.538427 0.172977
vn -0.707107 0.000000 0.707107
vn 0.707107 0.000000 0.707107
vn 0.707107 0.000000 0.707107
vn -0.707107 0.000000 0.707107
vn -0.707107 0.000000 -0.707107
vn 0.707107 0.000000 -0.707107
vn 0.707107 0.000000 -0.707107
vn -0.707107 0.000000 -0.707107
vn 0.707107 0.000000 0.707107
vn 0.707107 0.000000 -0.707107
vn 0.707107 0.000000 -0.707107
vn 0.707107 0.000000 0.707107
vn -0.707107 0.000000 -0.707107
vn -0.707107 0.000000 0.707107
vn -0.707107 0.000000 0.707107
vn -0.707107 0.000000 -0.707107
vn 0.278493 -0.830522 -0.482364
vn 0.371445 -0.669413 -0.643362
vn 0.643362 -0.669413 -0.371445
vn 0.482364 -0.830522 -0.278493
vn 0.000000 -0.830522 -0.556986
vn 0.000000 -0.669413 -0.742891
vn 0.371445 -0.669413 -0.643362
vn 0.278493 -0.830522 -0.482364
vn -0.278493 -0.830522 -0.482364
vn -0.371445 -0.669413 -0.643362
vn 0.000000 -0.669413 -0.742891
vn 0.000000 -0.830522 -0.556986
vn -0.482364 -0.830522 -0.278493
vn -0.643362 -0.669413 -0.371445
vn -0.371445 -0.669413 -0.643362
vn -0.278493 -0.830522 -0.482364
vn -0.556986 -0.830522 0.000000
vn -0.742891 -0.669413 0.000000
vn -0.643362 -0.669413 -0.371445
vn -0.482364 -0.830522 -0.278493
vn -0.482364 -0.830522 0.278493
vn -0.643362 -0.669413 0.371445
vn -0.742891 -0.669413 0.000000
vn -0.556986 -0.830522 0.000000
vn -0.278493 -0.830522 0.482364
vn -0.371445 -0.669413 0.643362
vn -0.643362 -0.669413 0.371445
vn -0.482364 -0.830522 0.278493
vn 0.000000 -0.830522 0.556986
vn 0.000000 -0.669413 0.742891
vn -0.371445 -0.669413 0.643362
vn -0.278493 -0.830522 0.482364
vn 0.278493 -0.830522 0.482364
vn 0.371445 -0.669413 0.643362
vn 0.000000 -0.669413 0.742891
vn 0.000000 -0.830522 0.556986
vn 0.482364 -0.830522 0.278493
vn 0.643362 -0.669413 0.371445
vn 0.371445 -0.669413 0.643362
vn 0.278493 -0.830522 0.482364
vn 0.556986 -0.830522 0.000000
vn 0.742891 -0.669413 0.000000
vn 0.643362 -0.669413 0.371445
vn 0.482364 -0.830522 0.278493
vn 0.482364 -0.830522 -0.278493
vn 0.643362 -0.669413 -0.371445
vn 0.742891 -0.669413 0.000000
vn 0.556986 -0.830522 0.000000
vn 0.371445 -0.669413 -0.643362
vn 0.467038 -0.357072 -0.808934
vn 0.808934 -0.357072 -0.467038
vn 0.643362 -0.669413 -0.371445
vn 0.000000 -0.669413 -0.742891
vn 0.000000 -0.357072 -0.934077
vn 0.467038 -0.357072 -0.808934
vn 0.371445 -0.669413 -0.643362
vn -0.371445 -0.669413 -0.643362
vn -0.467038 -0.357072 -0.808934
vn 0.000000 -0.357072 -0.934077
vn 0.000000 -0.669413 -0.742891
vn -0.643362 -0.669413 -0.371445
vn -0.808934 -0.357072 -0.467038
vn -0.467038 -0.357072 -0.808934
vn -0.371445 -0.669413 -0.643362
vn -0.742891 -0.669413 0.000000
vn -0.934077 -0.357072 0.000000
vn -0.808934 -0.357072 -0.467038
vn -0.643362 -0.669413 -0.371445
vn -0.643362 -0.669413 0.371445
vn -0.808934 -0.357072 0.467038
vn -0.934077 -0.357072 0.000000
vn -0.742891 -0.669413 0.000000
vn -0.371445 -0.669413 0.643362
vn -0.467038 -0.357072 0.808934
vn -0.808934 -0.357072 0.467038
vn -0.643362 -0.669413 0.371445
vn 0.000000 -0.669413 0.742891
vn 0.000000 -0.357072 0.934077
vn -0.467038 -0.357072 0.808934
vn -0.371445 -0.669413 0.643362
vn 0.371445 -0.669413 0.643362
vn 0.467038 -0.357072 0.808934
vn 0.000000 -0.357072 0.934077
vn 0.000000 -0.669413 0.742891
vn 0.643362 -0.669413 0.371445
vn 0.808934 -0.357072 0.467038
vn 0.467038 -0.357072 0.808934
vn 0.371445 -0.669413 0.643362
vn 0.742891 -0.669413 0.000000
vn 0.934077 -0.357072 0.000000
vn 0.808934 -0.357072 0.467038
vn 0.643362 -0.669413 0.371445
vn 0.643362 -0.669413 -0.371445
vn 0.808934 -0.357072 -0.467038
vn 0.934077 -0.357072 0.000000
vn 0.742891 -0.669413 0.000000
vn 0.000000 -1.000000 0.000000
vn 0.000000 -1.000000 0.000000
vn 0.000000 -1.000000 0.000000
vn 0.000000 -1.000000 0.000000
vn 0.000000 -1.000000 0.000000
vn 0.000000 -1.000000 0.000000
vn 0.000000 -1.000000 0.000000
vn 0.000000 -1.000000 0.000000
vn 0.000000 -1.000000 0.000000
vn 0.000000 -1.000000 0.000000
vn 0.000000 -1.000000 0.000000
vn 0.000000 -1.000000 0.000000
vn 0.000000 -1.000000 0.000000
vn 0.000000 -1.000000 0.000000
vn 0.000000 -1.000000 0.000000
vn 0.000000 -1.000000 0.000000
vn 0.000000 -1.000000 0.000000
vn 0.000000 -1.000000 0.000000
vn 0.000000 -1.000000 0.000000
vn 0.000000 -1.000000 0.000000
vn 0.000000 -1.000000 0.000000
vn 0.000000 -1.000000 0.000000
vn 0.000000 -1.000000 0.000000
vn 0.000000 -1.000000 0.000000
vn 0.000000 -1.000000 0.000000
vn 0.000000 -1.000000 0.000000
vn 0.000000 -1.000000 0.000000
vn 0.000000 -1.000000 0.000000
vn 0.000000 -1.000000 0.000000
vn 0.000000 -1.000000 0.000000
vn 0.000000 -1.000000 0.000000
vn 0.000000 -1.000000 0.000000
vn 0.000000 -1.000000 0.000000
vn 0.000000 -1.000000 0.000000
vn 0.000000 -1.000000 0.000000
vn 0.000000 -1.000000 0.000000
vn 0.864170 -0.065422 -0.498929
vn 0.864170 -0.065422 -0.498929
vn 0.997858 -0.065422 0.000000
vn 0.997858 -0.065422 0.000000
vn 0.864170 -0.065422 -0.498929
vn 0.864170 -0.065422 -0.498929
vn 0.498929 -0.065423 -0.864170
vn 0.498929 -0.065423 -0.864170
vn 0.498929 -0.065423 -0.864170
vn 0.498929 -0.065423 -0.864170
vn 0.000000 -0.065423 -0.997858
vn 0.000000 -0.065423 -0.997858
vn 0.000000 -0.065423 -0.997858
vn 0.000000 -0.065423 -0.997858
vn -0.498929 -0.065423 -0.864170
vn -0.498929 -0.065423 -0.864170
vn -0.498929 -0.065423 -0.864170
vn -0.498929 -0.065423 -0.864170
vn -0.864170 -0.065422 -0.498929
vn -0.864170 -0.065422 -0.498929
vn -0.864170 -0.065422 -0.498929
vn -0.864170 -0.065422 -0.498929
vn -0.997858 -0.065422 0.000000
vn -0.997858 -0.065422 0.000000
vn -0.997858 -0.065422 0.000000
vn -0.997858 -0.065422 0.000000
vn -0.864170 -0.065422 0.498929
vn -0.864170 -0.065422 0.498929
vn -0.864170 -0.065422 0.498929
vn -0.864170 -0.065422 0.498929
vn -0.498929 -0.065423 0.864170
vn -0.498929 -0.065423 0.864170
vn -0.498929 -0.065423 0.864170
vn -0.498929 -0.065423 0.864170
vn 0.000000 -0.065423 0.997858
vn 0.000000 -0.065423 0.997858
vn 0.000000 -0.065423 0.997858
vn 0.000000 -0.065423 0.997858
vn 0.498929 -0.065423 0.864170
vn 0.498929 -0.065423 0.864170
vn 0.498929 -0.065423 0.864170
vn 0.498929 -0.065423 0.864170
vn 0.864170 -0.065422 0.498929
vn 0.864170 -0.065422 0.498929
vn 0.864170 -0.065422 0.498929
vn 0.864170 -0.065422 0.498929
vn 0.997858 -0.065422 0.000000
vn 0.997858 -0.065422 0.000000
vn 0.808934 -0.357072 -0.467038
vn 0.467038 -0.357072 -0.808934
vn 0.495722 -0.130526 -0.858617
vn 0.858616 -0.130526 -0.495723
vn 0.467038 -0.357072 -0.808934
vn 0.000000 -0.357072 -0.934077
vn 0.000000 -0.130526 -0.991445
vn 0.495722 -0.130526 -0.858617
vn 0.000000 -0.357072 -0.934077
vn -0.467038 -0.357072 -0.808934
vn -0.495723 -0.130526 -0.858616
vn 0.000000 -0.130526 -0.991445
vn -0.467038 -0.357072 -0.808934
vn -0.808934 -0.357072 -0.467038
vn -0.858616 -0.130526 -0.495723
vn -0.495723 -0.130526 -0.858616
vn -0.808934 -0.357072 -0.467038
vn -0.934077 -0.357072 0.000000
vn -0.991445 -0.130526 0.000000
vn -0.858616 -0.130526 -0.495723
vn -0.934077 -0.357072 0.000000
vn -0.808934 -0.357072 0.467038
vn -0.858616 -0.130526 0.495723
vn -0.991445 -0.130526 0.000000
vn -0.808934 -0.357072 0.467038
vn -0.467038 -0.357072 0.808934
vn -0.495722 -0.130526 0.858617
vn -0.858616 -0.130526 0.495723
vn -0.467038 -0.357072 0.808934
vn 0.000000 -0.357072 0.934077
vn 0.000000 -0.130526 0.991445
vn -0.495722 -0.130526 0.858617
vn 0.000000 -0.357072 0.934077
vn 0.467038 -0.357072 0.808934
vn 0.495723 -0.130526 0.858616
vn 0.000000 -0.130526 0.991445
vn 0.467038 -0.357072 0.808934
vn 0.808934 -0.357072 0.467038
vn 0.858616 -0.130526 0.495723
vn 0.495723 -0.130526 0.858616
vn 0.808934 -0.357072 0.467038
vn 0.934077 -0.357072 0.000000
vn 0.991445 -0.130526 0.000000
vn 0.858616 -0.130526 0.495723
vn 0.934077 -0.357072 0.000000
vn 0.808934 -0.357072 -0.467038
vn 0.858616 -0.130526 -0.495723
vn 0.991445 -0.130526 0.000000
vn 0.866025 0.000000 -0.500000
vn 0.500000 0.000000 -0.866026
vn 0.500000 0.000000 -0.866026
vn 0.866025 0.000000 -0.500000
vn 0.500000 0.000000 -0.866026
vn 0.000000 0.000000 -1.000000
vn 0.000000 0.000000 -1.000000
vn 0.500000 0.000000 -0.866026
vn 0.000000 0.000000 -1.000000
vn -0.500000 0.000000 -0.866026
vn -0.500000 0.000000 -0.866026
vn 0.000000 0.000000 -1.000000
vn -0.500000 0.000000 -0.866026
vn -0.866025 0.000000 -0.500000
vn -0.866025 0.000000 -0.500000
vn -0.500000 0.000000 -0.866026
vn -0.866025 0.000000 -0.500000
vn -1.000000 0.000000 0.000000
vn -1.000000 0.000000 0.000000
vn -0.866025 0.000000 -0.500000
vn -1.000000 0.000000 0.000000
vn -0.866025 0.000000 0.500000
vn -0.866025 0.000000 0.500000
vn -1.000000 0.000000 0.000000
vn -0.866025 0.000000 0.500000
vn -0.500000 0.000000 0.866026
vn -0.500000 0.000000 0.866026
vn -0.866025 0.000000 0.500000
vn -0.500000 0.000000 0.866026
vn 0.000000 0.000000 1.000000
vn 0.000000 0.000000 1.000000
vn -0.500000 0.000000 0.866026
vn 0.000000 0.000000 1.000000
vn 0.500000 0.000000 0.866026
vn 0.500000 0.000000 0.866026
vn 0.000000 0.000000 1.000000
vn 0.500000 0.000000 0.866026
vn 0.866025 0.000000 0.500000
vn 0.866025 0.000000 0.500000
vn 0.500000 0.000000 0.866026
vn 0.866025 0.000000 0.500000
vn 1.000000 0.000000 0.000000
vn 1.000000 0.000000 0.000000
vn 0.866025 0.000000 0.500000
vn 1.000000 0.000000 0.000000
vn 0.866025 0.000000 -0.500000
vn 0.866025 0.000000 -0.500000
vn 1.000000 0.000000 0.000000
vn -0.056657 -0.997858 0.032711
vn -0.065422 -0.997858 0.000000
vn -0.065422 -0.997858 0.000000
vn -0.056657 -0.997858 0.032711
vn 0.065423 0.997858 0.000000
vn 0.056658 0.997858 -0.032711
vn 0.056658 0.997858 -0.032711
vn 0.065423 0.997858 0.000000
vn 0.056658 0.997858 -0.032711
vn 0.032711 0.997858 -0.056658
vn 0.032711 0.997858 -0.056658
vn 0.056658 0.997858 -0.032711
vn -0.032711 -0.997858 0.056658
vn -0.056657 -0.997858 0.032711
vn -0.056657 -0.997858 0.032711
vn -0.032711 -0.997858 0.056658
vn 0.032711 0.997858 -0.056658
vn 0.000000 0.997858 -0.065423
vn 0.000000 0.997858 -0.065423
vn 0.032711 0.997858 -0.056658
vn 0.000000 -0.997858 0.065423
vn -0.032711 -0.997858 0.056658
vn -0.032711 -0.997858 0.056658
vn 0.000000 -0.997858 0.065423
vn 0.000000 0.997858 -0.065423
vn -0.032711 0.997858 -0.056658
vn -0.032711 0.997858 -0.056658
vn 0.000000 0.997858 -0.065423
vn 0.032711 -0.997858 0.056658
vn 0.000000 -0.997858 0.065423
vn 0.000000 -0.997858 0.065423
vn 0.032711 -0.997858 0.056658
vn -0.032711 0.997858 -0.056658
vn -0.056658 0.997858 -0.032711
vn -0.056658 0.997858 -0.032711
vn -0.032711 0.997858 -0.056658
vn 0.056658 -0.997858 0.032711
vn 0.032711 -0.997858 0.056658
vn 0.032711 -0.997858 0.056658
vn 0.056658 -0.997858 0.032711
vn -0.056658 0.997858 -0.032711
vn -0.065423 0.997858 -0.000000
vn -0.065423 0.997858 -0.000000
vn -0.056658 0.997858 -0.032711
vn 0.065422 -0.997858 0.000000
vn 0.056658 -0.997858 0.032711
vn 0.056658 -0.997858 0.032711
vn 0.065422 -0.997858 0.000000
vn -0.065423 0.997858 -0.000000
vn -0.056658 0.997858 0.032711
vn -0.056658 0.997858 0.032711
vn -0.065423 0.997858 -0.000000
vn 0.056657 -0.997858 -0.032711
vn 0.065422 -0.997858 0.000000
vn 0.065422 -0.997858 0.000000
vn 0.056657 -0.997858 -0.032711
vn -0.056658 0.997858 0.032711
vn -0.032711 0.997858 0.056658
vn -0.032711 0.997858 0.056658
vn -0.056658 0.997858 0.032711
vn 0.032711 -0.997858 -0.056658
vn 0.056657 -0.997858 -0.032711
vn 0.056657 -0.997858 -0.032711
vn 0.032711 -0.997858 -0.056658
vn -0.032711 0.997858 0.056658
vn 0.000000 0.997858 0.065423
vn 0.000000 0.997858 0.065423
vn -0.032711 0.997858 0.056658
vn 0.000000 -0.997858 -0.065423
vn 0.032711 -0.997858 -0.056658
vn 0.032711 -0.997858 -0.056658
vn 0.000000 -0.997858 -0.065423
vn 0.000000 0.997858 0.065423
vn 0.032711 0.997858 0.056658
vn 0.032711 0.997858 0.056658
vn 0.000000 0.997858 0.065423
vn -0.032711 -0.997858 -0.056658
vn 0.000000 -0.997858 -0.065423
vn 0.000000 -0.997858 -0.065423
vn -0.032711 -0.997858 -0.056658
vn 0.032711 0.997858 0.056658
vn 0.056658 0.997858 0.032711
vn 0.056658 0.997858 0.032711
vn 0.032711 0.997858 0.056658
vn -0.056658 -0.997858 -0.032711
vn -0.032711 -0.997858 -0.056658
vn -0.032711 -0.997858 -0.056658
vn -0.056658 -0.997858 -0.032711
vn 0.056658 0.997858 0.032711
vn 0.065423 0.997858 0.000000
vn 0.065423 0.997858 0.000000
vn 0.056658 0.997858 0.032711
vn -0.065422 -0.997858 0.000000
vn -0.056658 -0.997858 -0.032711
vn -0.056658 -0.997858 -0.032711
vn -0.065422 -0.997858 0.000000
f 1/1/1 2/2/2 4/3/3 3/4/4
f 5/5/5 6/6/6 8/7/7 7/8/8
f 2/2/9 8/7/10 6/6/11 4/3/12
f 7/9/13 1/1/14 3/4/15 5/10/16
f 10/11/17 22/12/18 21/13/19 9/14/20
f 11/15/21 23/16/22 22/12/23 10/11/24
f 12/17/25 24/18/26 23/16/27 11/15/28
f 13/19/29 25/20/30 24/18/31 12/17/32
f 14/21/33 26/22/34 25/20/35 13/19/36
f 15/23/37 27/24/38 26/22/39 14/21/40
f 16/25/41 28/26/42 27/24/43 15/23/44
f 17/27/45 29/28/46 28/26/47 16/25/48
f 18/29/49 30/30/50 29/28/51 17/27/52
f 19/31/53 31/32/54 30/30/55 18/29/56
f 20/33/57 32/34/58 31/32/59 19/31/60
f 9/35/61 21/36/62 32/34/63 20/33/64
f 22/12/65 34/37/66 33/38/67 21/13/68
f 23/16/69 35/39/70 34/37/71 22/12/72
f 24/18/73 36/40/74 35/39/75 23/16/76
f 25/20/77 37/41/78 36/40/79 24/18/80
f 26/22/81 38/42/82 37/41/83 25/20/84
f 27/24/85 39/43/86 38/42/87 26/22/88
f 28/26/89 40/44/90 39/43/91 27/24/92
f 29/28/93 41/45/94 40/44/95 28/26/96
f 30/30/97 42/46/98 41/45/99 29/28/100
f 31/32/101 43/47/102 42/46/103 30/30/104
f 32/34/105 44/48/106 43/47/107 31/32/108
f 21/36/109 33/49/110 44/48/111 32/34/112
f 10/11/113 9/14/114 45/50/115
f 11/15/116 10/11/117 45/51/118
f 12/17/119 11/15/120 45/52/121
f 13/19/122 12/17/123 45/53/124
f 14/21/125 13/19/126 45/54/127
f 15/23/128 14/21/129 45/55/130
f 16/25/131 15/23/132 45/56/133
f 17/27/134 16/25/135 45/57/136
f 18/29/137 17/27/138 45/58/139
f 19/31/140 18/29/141 45/59/142
f 20/33/143 19/31/144 45/60/145
f 9/35/146 20/33/147 45/61/148
f 82/62/149 83/63/150 84/64/151 85/65/152
f 83/66/153 82/67/154 86/68/155 87/69/156
f 87/69/157 86/68/158 88/70/159 89/71/160
f 89/71/161 88/70/162 90/72/163 91/73/164
f 91/73/165 90/72/166 92/74/167 93/75/168
f 93/75/169 92/74/170 94/76/171 95/77/172
f 95/77/173 94/76/174 96/78/175 97/79/176
f 97/79/177 96/78/178 98/80/179 99/81/180
f 99/81/181 98/80/182 100/82/183 101/83/184
f 101/83/185 100/82/186 102/84/187 103/85/188
f 103/85/189 102/84/190 104/86/191 105/87/192
f 105/87/193 104/86/194 85/65/195 84/64/196
f 33/38/197 34/37/198 60/88/199 58/89/200
f 34/37/201 35/39/202 62/90/203 60/88/204
f 35/39/205 36/40/206 64/91/207 62/90/208
f 36/40/209 37/41/210 66/92/211 64/91/212
f 37/41/213 38/42/214 68/93/215 66/92/216
f 38/42/217 39/43/218 70/94/219 68/93/220
f 39/43/221 40/44/222 72/95/223 70/94/224
f 40/44/225 41/45/226 74/96/227 72/95/228
f 41/45/229 42/46/230 76/97/231 74/96/232
f 42/46/233 43/47/234 78/98/235 76/97/236
f 43/47/237 44/48/238 80/99/239 78/98/240
f 44/48/241 33/49/242 58/100/243 80/99/244
f 59/101/245 61/102/246 47/103/247 46/104/248
f 61/102/249 63/105/250 48/106/251 47/103/252
f 63/105/253 65/107/254 49/108/255 48/106/256
f 65/107/257 67/109/258 50/110/259 49/108/260
f 67/109/261 69/111/262 51/112/263 50/110/264
f 69/111/265 71/113/266 52/114/267 51/112/268
f 71/113/269 73/115/270 53/116/271 52/114/272
f 73/115/273 75/117/274 54/118/275 53/116/276
f 75/117/277 77/119/278 55/120/279 54/118/280
f 77/119/281 79/121/282 56/122/283 55/120/284
f 79/121/285 81/123/286 57/124/287 56/122/288
f 81/123/289 59/125/290 46/126/291 57/124/292
f 59/125/293 81/123/294 84/64/295 83/63/296
f 80/99/297 58/100/298 82/62/299 85/65/300
f 58/89/301 60/88/302 86/68/303 82/67/304
f 61/102/305 59/101/306 83/66/307 87/69/308
f 60/88/309 62/90/310 88/70/311 86/68/312
f 63/105/313 61/102/314 87/69/315 89/71/316
f 62/90/317 64/91/318 90/72/319 88/70/320
f 65/107/321 63/105/322 89/71/323 91/73/324
f 64/91/325 66/92/326 92/74/327 90/72/328
f 67/109/329 65/107/330 91/73/331 93/75/332
f 66/92/333 68/93/334 94/76/335 92/74/336
f 69/111/337 67/109/338 93/75/339 95/77/340
f 68/93/341 70/94/342 96/78/343 94/76/344
f 71/113/345 69/111/346 95/77/347 97/79/348
f 70/94/349 72/95/350 98/80/351 96/78/352
f 73/115/353 71/113/354 97/79/355 99/81/356
f 72/95/357 74/96/358 100/82/359 98/80/360
f 75/117/361 73/115/362 99/81/363 101/83/364
f 74/96/365 76/97/366 102/84/367 100/82/368
f 77/119/369 75/117/370 101/83/371 103/85/372
f 76/97/373 78/98/374 104/86/375 102/84/376
f 79/121/377 77/119/378 103/85/379 105/87/380
f 78/98/381 80/99/382 85/65/383 104/86/384
f 81/123/385 79/121/386 105/87/387 84/64/388
