# This file uses centimeters as units for non-parametric coordinates.

v 6.885620 0.000000 -2.852077
v 5.270035 0.000000 -5.270035
v 2.852074 0.000000 -6.885620
v 0.000001 0.000000 -7.452843
v -2.852077 0.000000 -6.885620
v -5.270042 0.000000 -5.270035
v -6.885628 0.000000 -2.852077
v -7.452843 0.000000 -0.000004
v -6.885628 0.000000 2.852077
v -5.270042 0.000000 5.270035
v -2.852077 0.000000 6.885620
v -0.000004 0.000000 7.452835
v 2.852074 0.000000 6.885620
v 5.270035 0.000000 5.270035
v 6.885620 0.000000 2.852077
v 7.452835 0.000000 -0.000001
v 20.543640 25.800697 -8.509451
v 15.723442 25.800697 -15.723423
v 8.509451 25.800697 -20.543617
v 0.000011 25.800697 -22.236244
v -8.509451 25.800697 -20.543633
v -15.723434 25.800697 -15.723442
v -20.543617 25.800697 -8.509451
v -22.236244 25.800697 -0.000008
v -20.543633 25.800697 8.509451
v -15.723438 25.800697 15.723438
v -8.509451 25.800697 20.543617
v -0.000003 25.800697 22.236244
v 8.509451 25.800697 20.543625
v 15.723438 25.800697 15.723438
v 20.543617 25.800697 8.509451
v 22.236244 25.800697 0.000000
v 6.297041 1.069977 -2.608287
v 4.819558 1.069977 -4.819555
v 15.004326 26.490273 -15.004305
v 19.604065 26.490273 -8.120275
v 2.608283 1.069977 -6.297040
v 8.120274 26.490273 -19.604042
v 0.000001 1.069977 -6.815783
v 0.000010 26.490273 -21.219257
v -2.608286 1.069977 -6.297044
v -8.120275 26.490273 -19.604057
v -4.819565 1.069977 -4.819557
v -15.004317 26.490273 -15.004324
v -6.297049 1.069977 -2.608283
v -19.604042 26.490273 -8.120274
v -6.815784 1.069977 -0.000003
v -21.219257 26.490273 -0.000007
v -6.297049 1.069977 2.608283
v -19.604057 26.490273 8.120275
v -4.819565 1.069977 4.819556
v -15.004322 26.490273 15.004319
v -2.608287 1.069977 6.297042
v -8.120275 26.490273 19.604042
v -0.000003 1.069977 6.815776
v -0.000003 26.490273 21.219257
v 2.608283 1.069977 6.297042
v 8.120275 26.490273 19.604050
v 4.819557 1.069977 4.819556
v 15.004321 26.490273 15.004320
v 6.297040 1.069977 2.608286
v 19.604042 26.490273 8.120275
v 6.815776 1.069977 -0.000001
v 21.219257 26.490273 -0.000001
v -0.000003 7.029922 12.921001
v -4.944657 7.029922 11.937493
v -9.136585 7.029922 9.136581
v -11.937504 7.029922 4.944657
v -12.921005 7.029922 -0.000005
v -11.937497 7.029922 -4.944657
v -9.136583 7.029922 -9.136583
v -4.944657 7.029922 -11.937501
v 0.000005 7.029922 -12.921005
v 4.944655 7.029922 -11.937494
v 9.136582 7.029922 -9.136575
v 11.937504 7.029922 -4.944657
v 12.921001 7.029922 -0.000001
v 11.937493 7.029922 4.944657
v 9.136581 7.029922 9.136581
v 4.944655 7.029922 11.937497
vt 0.990163 0.205587
vt 0.990163 0.192053
vt 0.902692 0.192053
vt 0.902692 0.205587
vt 0.990163 0.219122
vt 0.902692 0.219122
vt 0.990163 0.232657
vt 0.902692 0.232657
vt 0.902692 0.246191
vt 0.990163 0.246191
vt 0.990163 0.232703
vt 0.902692 0.232703
vt 0.990163 0.219215
vt 0.902692 0.219215
vt 0.990163 0.205726
vt 0.902692 0.205726
vt 0.990163 0.192238
vt 0.902692 0.192238
vt 0.990163 0.205695
vt 0.902692 0.205695
vt 0.990163 0.219153
vt 0.902692 0.219153
vt 0.990163 0.232610
vt 0.902692 0.232610
vt 0.990163 0.246315
vt 0.902692 0.246315
vt 0.990163 0.232812
vt 0.902692 0.232812
vt 0.990163 0.219308
vt 0.902692 0.219308
vt 0.990163 0.205804
vt 0.902692 0.205804
vt 0.990163 0.192300
vt 0.902692 0.192300
vt 0.990163 0.192053
vt 0.990163 0.205587
vt 0.983979 0.205587
vt 0.983979 0.192052
vt 0.990163 0.219122
vt 0.983979 0.219122
vt 0.990163 0.232657
vt 0.983979 0.232657
vt 0.990163 0.246191
vt 0.983979 0.246191
vt 0.990163 0.232703
vt 0.983979 0.232703
vt 0.990163 0.219215
vt 0.983979 0.219215
vt 0.990163 0.205726
vt 0.983979 0.205726
vt 0.990163 0.192238
vt 0.983979 0.192238
vt 0.990163 0.205695
vt 0.983979 0.205695
vt 0.990163 0.219153
vt 0.983979 0.219153
vt 0.990163 0.232610
vt 0.983979 0.232610
vt 0.990163 0.246315
vt 0.983979 0.246315
vt 0.990163 0.232812
vt 0.983979 0.232811
vt 0.990163 0.219308
vt 0.983979 0.219308
vt 0.990163 0.205804
vt 0.983979 0.205804
vt 0.990163 0.192300
vt 0.983979 0.192300
vt 0.895863 0.205587
vt 0.895863 0.192053
vt 0.895863 0.219122
vt 0.895863 0.232657
vt 0.895863 0.246191
vt 0.895863 0.232703
vt 0.895863 0.219215
vt 0.895863 0.205726
vt 0.895863 0.192238
vt 0.895863 0.205695
vt 0.895863 0.219153
vt 0.895863 0.232610
vt 0.895863 0.246315
vt 0.895863 0.232812
vt 0.895863 0.219308
vt 0.895863 0.205804
vt 0.895863 0.192300
vt 0.895863 0.232610
vt 0.895863 0.219153
vt 0.895863 0.205695
vt 0.895863 0.192238
vt 0.895863 0.205726
vt 0.895863 0.219215
vt 0.895863 0.232703
vt 0.895863 0.246191
vt 0.895863 0.232657
vt 0.895863 0.219122
vt 0.895863 0.205587
vt 0.895863 0.192053
vt 0.895863 0.192300
vt 0.895863 0.205804
vt 0.895863 0.219308
vt 0.895863 0.232812
vt 0.895863 0.246315
vn -0.615212 0.492977 0.615214
vn -0.803817 0.492977 0.332944
vn -0.803817 0.492977 0.332946
vn -0.615213 0.492977 0.615214
vn -0.332945 0.492976 0.803817
vn -0.615212 0.492977 0.615214
vn -0.615213 0.492977 0.615214
vn -0.332947 0.492976 0.803817
vn -0.000001 0.492976 0.870043
vn -0.332945 0.492976 0.803817
vn -0.332947 0.492976 0.803817
vn -0.000001 0.492976 0.870043
vn 0.332945 0.492976 0.803817
vn 0.332944 0.492976 0.803817
vn -0.000001 0.492976 0.870043
vn -0.000001 0.492976 0.870043
vn 0.615213 0.492977 0.615213
vn 0.332944 0.492976 0.803817
vn 0.332945 0.492976 0.803817
vn 0.615213 0.492977 0.615213
vn 0.803818 0.492976 0.332944
vn 0.615213 0.492977 0.615213
vn 0.615213 0.492977 0.615213
vn 0.803817 0.492976 0.332946
vn 0.870043 0.492976 0.000001
vn 0.803818 0.492976 0.332944
vn 0.803817 0.492976 0.332946
vn 0.870043 0.492976 0.000001
vn 0.803818 0.492977 -0.332944
vn 0.870043 0.492976 0.000001
vn 0.870043 0.492976 0.000001
vn 0.803817 0.492977 -0.332945
vn 0.615213 0.492977 -0.615213
vn 0.803818 0.492977 -0.332944
vn 0.803817 0.492977 -0.332945
vn 0.615213 0.492977 -0.615213
vn 0.332944 0.492976 -0.803817
vn 0.615213 0.492977 -0.615213
vn 0.615213 0.492977 -0.615213
vn 0.332946 0.492976 -0.803817
vn 0.000000 0.492976 -0.870043
vn 0.332944 0.492976 -0.803817
vn 0.332946 0.492976 -0.803817
vn 0.000000 0.492976 -0.870043
vn -0.332944 0.492977 -0.803817
vn 0.000000 0.492976 -0.870043
vn 0.000000 0.492976 -0.870043
vn -0.332946 0.492977 -0.803816
vn -0.615213 0.492977 -0.615213
vn -0.332944 0.492977 -0.803817
vn -0.332946 0.492977 -0.803816
vn -0.615213 0.492977 -0.615213
vn -0.803818 0.492976 -0.332944
vn -0.615213 0.492977 -0.615213
vn -0.615213 0.492977 -0.615213
vn -0.803817 0.492976 -0.332946
vn -0.870043 0.492976 -0.000001
vn -0.803818 0.492976 -0.332944
vn -0.803817 0.492976 -0.332946
vn -0.870043 0.492976 -0.000001
vn -0.803817 0.492977 0.332944
vn -0.870043 0.492976 -0.000001
vn -0.870043 0.492976 -0.000001
vn -0.803817 0.492977 0.332946
vn 0.729249 -0.613970 -0.302054
vn 0.558140 -0.613970 -0.558141
vn 0.621872 -0.475972 -0.621873
vn 0.812518 -0.475972 -0.336550
vn 0.558140 -0.613970 -0.558141
vn 0.302054 -0.613970 -0.729249
vn 0.336551 -0.475971 -0.812517
vn 0.621872 -0.475972 -0.621873
vn 0.302054 -0.613970 -0.729249
vn 0.000000 -0.613969 -0.789330
vn 0.000001 -0.475971 -0.879461
vn 0.336551 -0.475971 -0.812517
vn 0.000000 -0.613969 -0.789330
vn -0.302054 -0.613970 -0.729249
vn -0.336550 -0.475971 -0.812518
vn 0.000001 -0.475971 -0.879461
vn -0.302054 -0.613970 -0.729249
vn -0.558140 -0.613970 -0.558140
vn -0.621873 -0.475972 -0.621872
vn -0.336550 -0.475971 -0.812518
vn -0.558140 -0.613970 -0.558140
vn -0.729250 -0.613970 -0.302054
vn -0.812518 -0.475971 -0.336551
vn -0.621873 -0.475972 -0.621872
vn -0.729250 -0.613970 -0.302054
vn -0.789330 -0.613969 0.000000
vn -0.879461 -0.475971 -0.000001
vn -0.812518 -0.475971 -0.336551
vn -0.789330 -0.613969 0.000000
vn -0.729249 -0.613970 0.302053
vn -0.812518 -0.475971 0.336550
vn -0.879461 -0.475971 -0.000001
vn -0.729249 -0.613970 0.302053
vn -0.558140 -0.613970 0.558141
vn -0.621872 -0.475972 0.621873
vn -0.812518 -0.475971 0.336550
vn -0.558140 -0.613970 0.558141
vn -0.302053 -0.613970 0.729249
vn -0.336550 -0.475971 0.812518
vn -0.621872 -0.475972 0.621873
vn -0.302053 -0.613970 0.729249
vn 0.000000 -0.613969 0.789330
vn 0.000000 -0.475971 0.879461
vn -0.336550 -0.475971 0.812518
vn 0.000000 -0.613969 0.789330
vn 0.302053 -0.613970 0.729249
vn 0.336550 -0.475972 0.812518
vn 0.000000 -0.475971 0.879461
vn 0.302053 -0.613970 0.729249
vn 0.558140 -0.613970 0.558140
vn 0.621873 -0.475972 0.621872
vn 0.336550 -0.475972 0.812518
vn 0.558140 -0.613970 0.558140
vn 0.729250 -0.613970 0.302053
vn 0.812518 -0.475971 0.336550
vn 0.621873 -0.475972 0.621872
vn 0.729250 -0.613970 0.302053
vn 0.789330 -0.613969 0.000001
vn 0.879461 -0.475971 0.000001
vn 0.812518 -0.475971 0.336550
vn 0.789330 -0.613969 0.000001
vn 0.729249 -0.613970 -0.302054
vn 0.812518 -0.475972 -0.336550
vn 0.879461 -0.475971 0.000001
vn 0.396835 0.827673 -0.396836
vn 0.396835 0.827673 -0.396836
vn 0.518491 0.827673 -0.214765
vn 0.518491 0.827673 -0.214764
vn 0.214765 0.827673 -0.518491
vn 0.214765 0.827673 -0.518491
vn 0.396835 0.827673 -0.396836
vn 0.396835 0.827673 -0.396836
vn 0.000001 0.827673 -0.561210
vn 0.000001 0.827673 -0.561210
vn 0.214765 0.827673 -0.518491
vn 0.214765 0.827673 -0.518491
vn -0.214764 0.827673 -0.518492
vn -0.214764 0.827673 -0.518491
vn 0.000001 0.827673 -0.561210
vn 0.000001 0.827673 -0.561210
vn -0.396836 0.827673 -0.396835
vn -0.396836 0.827673 -0.396835
vn -0.214764 0.827673 -0.518491
vn -0.214764 0.827673 -0.518492
vn -0.518492 0.827673 -0.214764
vn -0.518491 0.827673 -0.214764
vn -0.396836 0.827673 -0.396835
vn -0.396836 0.827673 -0.396835
vn -0.561210 0.827674 0.000000
vn -0.561210 0.827674 0.000000
vn -0.518491 0.827673 -0.214764
vn -0.518492 0.827673 -0.214764
vn -0.518491 0.827673 0.214764
vn -0.518491 0.827673 0.214765
vn -0.561210 0.827674 0.000000
vn -0.561210 0.827674 0.000000
vn -0.396835 0.827673 0.396836
vn -0.396835 0.827673 0.396836
vn -0.518491 0.827673 0.214765
vn -0.518491 0.827673 0.214764
vn -0.214764 0.827674 0.518491
vn -0.214765 0.827673 0.518491
vn -0.396835 0.827673 0.396836
vn -0.396835 0.827673 0.396836
vn 0.000000 0.827673 0.561210
vn 0.000000 0.827673 0.561210
vn -0.214765 0.827673 0.518491
vn -0.214764 0.827674 0.518491
vn 0.214764 0.827672 0.518493
vn 0.214764 0.827673 0.518493
vn 0.000000 0.827673 0.561210
vn 0.000000 0.827673 0.561210
vn 0.396836 0.827673 0.396836
vn 0.396836 0.827673 0.396836
vn 0.214764 0.827673 0.518493
vn 0.214764 0.827672 0.518493
vn 0.518492 0.827673 0.214764
vn 0.518491 0.827673 0.214765
vn 0.396836 0.827673 0.396836
vn 0.396836 0.827673 0.396836
vn 0.561210 0.827674 0.000001
vn 0.561210 0.827674 0.000001
vn 0.518491 0.827673 0.214765
vn 0.518492 0.827673 0.214764
vn 0.518491 0.827673 -0.214764
vn 0.518491 0.827673 -0.214765
vn 0.561210 0.827674 0.000001
vn 0.561210 0.827674 0.000001
vn -0.336550 -0.475971 0.812518
vn 0.000000 -0.475971 0.879461
vn 0.000000 -0.444533 0.895763
vn -0.342790 -0.444533 0.827578
vn -0.621872 -0.475972 0.621873
vn -0.336550 -0.475971 0.812518
vn -0.342790 -0.444533 0.827578
vn -0.633399 -0.444533 0.633400
vn -0.812518 -0.475971 0.336550
vn -0.621872 -0.475972 0.621873
vn -0.633399 -0.444533 0.633400
vn -0.827578 -0.444533 0.342790
vn -0.879461 -0.475971 -0.000001
vn -0.812518 -0.475971 0.336550
vn -0.827578 -0.444533 0.342790
vn -0.895763 -0.444533 -0.000001
vn -0.812518 -0.475971 -0.336551
vn -0.879461 -0.475971 -0.000001
vn -0.895763 -0.444533 -0.000001
vn -0.827578 -0.444533 -0.342790
vn -0.621873 -0.475972 -0.621872
vn -0.812518 -0.475971 -0.336551
vn -0.827578 -0.444533 -0.342790
vn -0.633400 -0.444533 -0.633399
vn -0.336550 -0.475971 -0.812518
vn -0.621873 -0.475972 -0.621872
vn -0.633400 -0.444533 -0.633399
vn -0.342790 -0.444533 -0.827578
vn 0.000001 -0.475971 -0.879461
vn -0.336550 -0.475971 -0.812518
vn -0.342790 -0.444533 -0.827578
vn 0.000001 -0.444533 -0.895763
vn 0.336551 -0.475971 -0.812517
vn 0.000001 -0.475971 -0.879461
vn 0.000001 -0.444533 -0.895763
vn 0.342791 -0.444533 -0.827578
vn 0.621872 -0.475972 -0.621873
vn 0.336551 -0.475971 -0.812517
vn 0.342791 -0.444533 -0.827578
vn 0.633399 -0.444533 -0.633400
vn 0.812518 -0.475972 -0.336550
vn 0.621872 -0.475972 -0.621873
vn 0.633399 -0.444533 -0.633400
vn 0.827578 -0.444533 -0.342790
vn 0.879461 -0.475971 0.000001
vn 0.812518 -0.475972 -0.336550
vn 0.827578 -0.444533 -0.342790
vn 0.895763 -0.444533 0.000001
vn 0.812518 -0.475971 0.336550
vn 0.879461 -0.475971 0.000001
vn 0.895763 -0.444533 0.000001
vn 0.827578 -0.444533 0.342790
vn 0.621873 -0.475972 0.621872
vn 0.812518 -0.475971 0.336550
vn 0.827578 -0.444533 0.342790
vn 0.633400 -0.444533 0.633400
vn 0.336550 -0.475972 0.812518
vn 0.621873 -0.475972 0.621872
vn 0.633400 -0.444533 0.633400
vn 0.342790 -0.444533 0.827578
vn 0.000000 -0.475971 0.879461
vn 0.336550 -0.475972 0.812518
vn 0.342790 -0.444533 0.827578
vn 0.000000 -0.444533 0.895763
f 34/1/1 33/2/2 36/3/3 35/4/4
f 37/5/5 34/1/6 35/4/7 38/6/8
f 39/7/9 37/5/10 38/6/11 40/8/12
f 42/9/13 41/10/14 39/7/15 40/8/16
f 43/11/17 41/10/18 42/9/19 44/12/20
f 45/13/21 43/11/22 44/12/23 46/14/24
f 47/15/25 45/13/26 46/14/27 48/16/28
f 49/17/29 47/15/30 48/16/31 50/18/32
f 51/19/33 49/17/34 50/18/35 52/20/36
f 53/21/37 51/19/38 52/20/39 54/22/40
f 55/23/41 53/21/42 54/22/43 56/24/44
f 57/25/45 55/23/46 56/24/47 58/26/48
f 59/27/49 57/25/50 58/26/51 60/28/52
f 61/29/53 59/27/54 60/28/55 62/30/56
f 63/31/57 61/29/58 62/30/59 64/32/60
f 33/33/61 63/31/62 64/32/63 36/34/64
f 1/35/65 2/36/66 75/37/67 76/38/68
f 2/36/69 3/39/70 74/40/71 75/37/72
f 3/39/73 4/41/74 73/42/75 74/40/76
f 4/41/77 5/43/78 72/44/79 73/42/80
f 5/43/81 6/45/82 71/46/83 72/44/84
f 6/45/85 7/47/86 70/48/87 71/46/88
f 7/47/89 8/49/90 69/50/91 70/48/92
f 8/49/93 9/51/94 68/52/95 69/50/96
f 9/51/97 10/53/98 67/54/99 68/52/100
f 10/53/101 11/55/102 66/56/103 67/54/104
f 11/55/105 12/57/106 65/58/107 66/56/108
f 12/57/109 13/59/110 80/60/111 65/58/112
f 13/59/113 14/61/114 79/62/115 80/60/116
f 14/61/117 15/63/118 78/64/119 79/62/120
f 15/63/121 16/65/122 77/66/123 78/64/124
f 16/65/125 1/67/126 76/68/127 77/66/128
f 18/69/129 35/4/130 36/3/131 17/70/132
f 19/71/133 38/6/134 35/4/135 18/69/136
f 20/72/137 40/8/138 38/6/139 19/71/140
f 21/73/141 42/9/142 40/8/143 20/72/144
f 22/74/145 44/12/146 42/9/147 21/73/148
f 23/75/149 46/14/150 44/12/151 22/74/152
f 24/76/153 48/16/154 46/14/155 23/75/156
f 25/77/157 50/18/158 48/16/159 24/76/160
f 26/78/161 52/20/162 50/18/163 25/77/164
f 27/79/165 54/22/166 52/20/167 26/78/168
f 28/80/169 56/24/170 54/22/171 27/79/172
f 29/81/173 58/26/174 56/24/175 28/80/176
f 30/82/177 60/28/178 58/26/179 29/81/180
f 31/83/181 62/30/182 60/28/183 30/82/184
f 32/84/185 64/32/186 62/30/187 31/83/188
f 17/85/189 36/34/190 64/32/191 32/84/192
f 66/56/193 65/58/194 28/86/195 27/87/196
f 67/54/197 66/56/198 27/87/199 26/88/200
f 68/52/201 67/54/202 26/88/203 25/89/204
f 69/50/205 68/52/206 25/89/207 24/90/208
f 70/48/209 69/50/210 24/90/211 23/91/212
f 71/46/213 70/48/214 23/91/215 22/92/216
f 72/44/217 71/46/218 22/92/219 21/93/220
f 73/42/221 72/44/222 21/93/223 20/94/224
f 74/40/225 73/42/226 20/94/227 19/95/228
f 75/37/229 74/40/230 19/95/231 18/96/232
f 76/38/233 75/37/234 18/96/235 17/97/236
f 77/66/237 76/68/238 17/98/239 32/99/240
f 78/64/241 77/66/242 32/99/243 31/100/244
f 79/62/245 78/64/246 31/100/247 30/101/248
f 80/60/249 79/62/250 30/101/251 29/102/252
f 65/58/253 80/60/254 29/102/255 28/86/256
