# This file uses meters as units for non-parametric coordinates.

v 11.813218 2.211789 6.973297
v 12.849230 16.753906 4.729515
v 12.849230 -11.238074 4.589180
v -12.954916 16.753906 4.729515
v -11.438616 2.211789 6.973297
v -12.954916 -11.238075 4.589180
v 12.639675 19.631966 1.220426
v 13.687019 -15.091078 1.220426
v 15.492673 20.512075 1.220426
v 18.018959 15.673308 1.220426
v 18.327126 -8.838279 1.220426
v 17.972569 2.201863 1.220426
v 15.972936 -16.081648 1.220426
v -12.745361 19.631966 1.220424
v -13.792706 -15.091071 1.220426
v -15.598364 20.512077 1.220426
v -17.597973 2.201863 1.220426
v -18.432808 -8.838280 1.220426
v -18.124649 15.673310 1.220426
v -16.078623 -16.081650 1.220426
v -0.137686 -14.146547 1.220426
v -0.137659 -10.839584 5.949005
v -0.137553 2.184888 7.844337
v -0.137662 15.773308 6.160423
v -0.137686 18.296890 1.220426
v 11.813218 2.211789 -4.532465
v 12.849230 16.753906 -2.288682
v 12.849230 -11.238074 -2.148347
v -12.954916 16.753906 -2.288682
v -11.438616 2.211789 -4.532465
v -12.954916 -11.238075 -2.148347
v -0.137659 -10.839584 -3.508173
v -0.137553 2.184888 -5.403505
v -0.137662 15.773308 -3.719591
vt 0.102275 0.356417
vt 0.110975 0.366881
vt 0.104333 0.366881
vt 0.102275 0.281108
vt 0.116741 0.281108
vt 0.116741 0.318408
vt 0.102275 0.318408
vt 0.116741 0.356417
vt 0.106772 0.265583
vt 0.112093 0.265583
vt 0.022551 0.356417
vt 0.023121 0.366881
vt 0.016491 0.366881
vt 0.022551 0.281108
vt 0.022551 0.318408
vt 0.009899 0.318408
vt 0.009899 0.281108
vt 0.009899 0.356417
vt 0.020687 0.265583
vt 0.015375 0.265583
vt 0.066104 0.318408
vt 0.066104 0.356417
vt 0.066104 0.281108
vt 0.066104 0.265583
vt 0.066104 0.366881
vt 0.102275 0.356417
vt 0.104333 0.366881
vt 0.110975 0.366881
vt 0.102275 0.281108
vt 0.102275 0.318408
vt 0.116741 0.318408
vt 0.116741 0.281108
vt 0.116741 0.356417
vt 0.106772 0.265583
vt 0.112093 0.265583
vt 0.022551 0.356417
vt 0.016491 0.366881
vt 0.023121 0.366881
vt 0.022551 0.281108
vt 0.009899 0.281108
vt 0.009899 0.318408
vt 0.022551 0.318408
vt 0.009899 0.356417
vt 0.020687 0.265583
vt 0.015375 0.265583
vt 0.066104 0.318408
vt 0.066104 0.356417
vt 0.066104 0.281108
vt 0.066104 0.265583
vt 0.066104 0.366881
vn 0.261070 0.286251 0.921902
vn 0.407849 0.453216 0.792625
vn -0.064765 0.833277 0.549050
vn 0.233440 -0.305083 0.923271
vn 0.617163 -0.056017 0.784839
vn 0.628934 0.000142 0.777459
vn 0.274437 -0.004367 0.961595
vn 0.274437 -0.004367 0.961595
vn 0.628934 0.000142 0.777459
vn 0.631933 0.057724 0.772870
vn 0.261070 0.286251 0.921902
vn -0.034596 -0.743451 0.667895
vn 0.456286 -0.290671 0.841019
vn 0.233440 -0.305083 0.923271
vn 0.261070 0.286251 0.921902
vn 0.631933 0.057724 0.772870
vn 0.407849 0.453216 0.792625
vn 0.456286 -0.290671 0.841019
vn 0.617163 -0.056017 0.784839
vn 0.233440 -0.305083 0.923271
vn -0.270873 0.279542 0.921132
vn 0.065548 0.833140 0.549164
vn -0.407848 0.453217 0.792625
vn -0.242112 -0.299011 0.923025
vn -0.275477 -0.004566 0.961297
vn -0.626826 0.000108 0.779160
vn -0.614983 -0.034885 0.787769
vn -0.275477 -0.004566 0.961297
vn -0.270873 0.279542 0.921132
vn -0.631346 0.038085 0.774566
vn -0.626826 0.000108 0.779160
vn 0.035009 -0.743378 0.667955
vn -0.242112 -0.299011 0.923025
vn -0.456286 -0.290670 0.841019
vn -0.270873 0.279542 0.921132
vn -0.407848 0.453217 0.792625
vn -0.631346 0.038085 0.774566
vn -0.456286 -0.290670 0.841019
vn -0.242112 -0.299011 0.923025
vn -0.614983 -0.034885 0.787769
vn 0.000016 -0.006659 0.999978
vn 0.274437 -0.004367 0.961595
vn 0.261070 0.286251 0.921902
vn -0.000032 0.328248 0.944592
vn -0.000013 -0.340081 0.940396
vn 0.233440 -0.305083 0.923271
vn 0.274437 -0.004367 0.961595
vn 0.000016 -0.006659 0.999978
vn 0.000001 -0.749341 0.662184
vn -0.034596 -0.743451 0.667895
vn 0.233440 -0.305083 0.923271
vn -0.000013 -0.340081 0.940396
vn 0.261070 0.286251 0.921902
vn -0.064765 0.833277 0.549050
vn 0.000009 0.842014 0.539455
vn -0.000032 0.328248 0.944592
vn -0.242112 -0.299011 0.923025
vn 0.035009 -0.743378 0.667955
vn 0.000001 -0.749341 0.662184
vn -0.000013 -0.340081 0.940396
vn -0.275477 -0.004566 0.961297
vn -0.242112 -0.299011 0.923025
vn -0.000013 -0.340081 0.940396
vn 0.000016 -0.006659 0.999978
vn -0.000032 0.328248 0.944592
vn -0.270873 0.279542 0.921132
vn -0.275477 -0.004566 0.961297
vn 0.000016 -0.006659 0.999978
vn 0.000009 0.842014 0.539455
vn 0.065548 0.833140 0.549164
vn -0.270873 0.279542 0.921132
vn -0.000032 0.328248 0.944592
vn 0.261071 0.286252 -0.921901
vn -0.064766 0.833278 -0.549048
vn 0.407850 0.453218 -0.792623
vn 0.233441 -0.305084 -0.923271
vn 0.274437 -0.004367 -0.961595
vn 0.628935 0.000142 -0.777458
vn 0.617164 -0.056017 -0.784838
vn 0.274437 -0.004367 -0.961595
vn 0.261071 0.286252 -0.921901
vn 0.631935 0.057724 -0.772869
vn 0.628935 0.000142 -0.777458
vn -0.034597 -0.743453 -0.667893
vn 0.233441 -0.305084 -0.923271
vn 0.456288 -0.290672 -0.841018
vn 0.261071 0.286252 -0.921901
vn 0.407850 0.453218 -0.792623
vn 0.631935 0.057724 -0.772869
vn 0.456288 -0.290672 -0.841018
vn 0.233441 -0.305084 -0.923271
vn 0.617164 -0.056017 -0.784838
vn -0.270873 0.279543 -0.921132
vn -0.407850 0.453218 -0.792623
vn 0.065548 0.833141 -0.549163
vn -0.242112 -0.299011 -0.923024
vn -0.614984 -0.034885 -0.787767
vn -0.626827 0.000108 -0.779158
vn -0.275478 -0.004566 -0.961296
vn -0.275478 -0.004566 -0.961296
vn -0.626827 0.000108 -0.779158
vn -0.631347 0.038085 -0.774565
vn -0.270873 0.279543 -0.921132
vn 0.035009 -0.743379 -0.667953
vn -0.456288 -0.290671 -0.841018
vn -0.242112 -0.299011 -0.923024
vn -0.270873 0.279543 -0.921132
vn -0.631347 0.038085 -0.774565
vn -0.407850 0.453218 -0.792623
vn -0.456288 -0.290671 -0.841018
vn -0.614984 -0.034885 -0.787767
vn -0.242112 -0.299011 -0.923024
vn 0.000016 -0.006659 -0.999978
vn -0.000032 0.328249 -0.944591
vn 0.261071 0.286252 -0.921901
vn 0.274437 -0.004367 -0.961595
vn -0.000013 -0.340082 -0.940396
vn 0.000016 -0.006659 -0.999978
vn 0.274437 -0.004367 -0.961595
vn 0.233441 -0.305084 -0.923271
vn 0.000001 -0.749343 -0.662182
vn -0.000013 -0.340082 -0.940396
vn 0.233441 -0.305084 -0.923271
vn -0.034597 -0.743453 -0.667893
vn 0.261071 0.286252 -0.921901
vn -0.000032 0.328249 -0.944591
vn 0.000009 0.842015 -0.539454
vn -0.064766 0.833278 -0.549048
vn -0.242112 -0.299011 -0.923024
vn -0.000013 -0.340082 -0.940396
vn 0.000001 -0.749343 -0.662182
vn 0.035009 -0.743379 -0.667953
vn -0.275478 -0.004566 -0.961296
vn 0.000016 -0.006659 -0.999978
vn -0.000013 -0.340082 -0.940396
vn -0.242112 -0.299011 -0.923024
vn -0.000032 0.328249 -0.944591
vn 0.000016 -0.006659 -0.999978
vn -0.275478 -0.004566 -0.961296
vn -0.270873 0.279543 -0.921132
vn 0.000009 0.842015 -0.539454
vn -0.000032 0.328249 -0.944591
vn -0.270873 0.279543 -0.921132
vn 0.065548 0.833141 -0.549163
f 2/1/1 9/2/2 7/3/3
f 3/4/4 11/5/5 12/6/6 1/7/7
f 1/7/8 12/6/9 10/8/10 2/1/11
f 8/9/12 13/10/13 3/4/14
f 2/1/15 10/8/16 9/2/17
f 13/10/18 11/5/19 3/4/20
f 4/11/21 14/12/22 16/13/23
f 6/14/24 5/15/25 17/16/26 18/17/27
f 5/15/28 4/11/29 19/18/30 17/16/31
f 15/19/32 6/14/33 20/20/34
f 4/11/35 16/13/36 19/18/37
f 20/20/38 6/14/39 18/17/40
f 23/21/41 1/7/42 2/1/43 24/22/44
f 22/23/45 3/4/46 1/7/47 23/21/48
f 21/24/49 8/9/50 3/4/51 22/23/52
f 2/1/53 7/3/54 25/25/55 24/22/56
f 6/14/57 15/19/58 21/24/59 22/23/60
f 5/15/61 6/14/62 22/23/63 23/21/64
f 24/22/65 4/11/66 5/15/67 23/21/68
f 25/25/69 14/12/70 4/11/71 24/22/72
f 27/26/73 7/27/74 9/28/75
f 28/29/76 26/30/77 12/31/78 11/32/79
f 26/30/80 27/26/81 10/33/82 12/31/83
f 8/34/84 28/29/85 13/35/86
f 27/26/87 9/28/88 10/33/89
f 13/35/90 28/29/91 11/32/92
f 29/36/93 16/37/94 14/38/95
f 31/39/96 18/40/97 17/41/98 30/42/99
f 30/42/100 17/41/101 19/43/102 29/36/103
f 15/44/104 20/45/105 31/39/106
f 29/36/107 19/43/108 16/37/109
f 20/45/110 18/40/111 31/39/112
f 33/46/113 34/47/114 27/26/115 26/30/116
f 32/48/117 33/46/118 26/30/119 28/29/120
f 21/49/121 32/48/122 28/29/123 8/34/124
f 27/26/125 34/47/126 25/50/127 7/27/128
f 31/39/129 32/48/130 21/49/131 15/44/132
f 30/42/133 33/46/134 32/48/135 31/39/136
f 34/47/137 33/46/138 30/42/139 29/36/140
f 25/50/141 34/47/142 29/36/143 14/38/144
