# This file uses meters as units for non-parametric coordinates.

v 24.959332 3.408348 6.973152
v 24.959332 3.408348 -6.973297
v 25.995338 16.753906 4.729347
v 25.995338 16.753906 -4.729515
v 25.995338 -11.238075 4.589142
v 25.995338 -11.238075 -4.589180
v -26.817787 16.753906 -4.729515
v -26.817787 16.753906 4.729347
v -25.301491 3.408348 6.973152
v -26.817787 -11.238075 4.589142
v -25.301491 3.408348 -6.973297
v -26.817787 -11.238075 -4.589180
v 25.785789 19.631966 -1.360764
v 25.785805 19.631966 1.360703
v 26.833138 -15.091079 1.258698
v 26.833130 -15.091079 -1.258774
v 28.638783 20.512070 1.131363
v 28.638786 20.512077 -1.131432
v 31.165071 15.673310 -1.131432
v 31.165085 15.673286 1.131363
v 31.473236 -8.838280 -1.080063
v 31.473225 -8.838310 1.080009
v 31.118683 3.398415 1.206116
v 31.118683 3.398422 -1.206245
v 29.119049 -16.081650 -1.080063
v 29.119049 -16.081650 1.080009
v -26.608253 19.631966 1.360703
v -26.608238 19.631966 -1.360771
v -27.655579 -15.091072 -1.258774
v -27.655586 -15.091079 1.258698
v -29.461235 20.512070 1.131355
v -29.461235 20.512077 -1.131439
v -31.460846 3.398422 -1.206245
v -31.460846 3.398415 1.206116
v -32.295677 -8.838310 1.080009
v -32.295685 -8.838280 -1.080063
v -31.987526 15.673310 -1.131439
v -31.987534 15.673286 1.131355
v -29.941498 -16.081650 -1.080063
v -29.941498 -16.081650 1.080009
v 9.374947 3.389252 7.919281
v -9.650055 3.389145 7.914879
v -9.624596 15.564230 6.215393
v 9.349167 16.182688 6.219719
v 9.374950 3.389275 -7.919374
v -9.650055 3.389168 -7.914979
v -9.619537 -10.932579 -6.002266
v 9.344124 -10.928940 -6.006355
v 9.349167 16.182673 -6.219833
v -9.624596 15.564215 -6.215492
v 9.344124 -10.928947 6.006271
v -9.619537 -10.932586 6.002197
v 9.266491 18.735008 1.218163
v -9.541985 18.113577 1.218163
v -9.541985 18.113577 -1.218239
v 9.266491 18.735008 -1.218239
v 9.230152 -14.272790 -1.116486
v -9.505653 -14.272790 -1.116486
v -9.505653 -14.272790 1.116394
v 9.230152 -14.272790 1.116394
v -0.137554 3.381424 7.844238
v -0.137657 -10.839592 5.948921
v -0.137688 -14.146547 1.111382
v -0.137688 -14.146547 -1.111473
v -0.137657 -10.839584 -5.949005
v -0.137554 3.381447 -7.844337
v -0.137661 15.773308 -6.160423
v -0.137688 18.296890 -1.212982
v -0.137688 18.296890 1.212906
v -0.137661 15.773316 6.160316
vt 0.103937 0.493822
vt 0.103937 0.493822
vt 0.108799 0.496560
vt 0.108799 0.496561
vt 0.105722 0.385780
vt 0.105722 0.385780
vt 0.109617 0.382698
vt 0.109617 0.382698
vt 0.113104 0.481504
vt 0.113104 0.481505
vt 0.113025 0.443311
vt 0.113025 0.443311
vt 0.113629 0.405236
vt 0.113629 0.405236
vt 0.014649 0.493822
vt 0.014649 0.493822
vt 0.009787 0.496561
vt 0.009787 0.496560
vt 0.012864 0.385780
vt 0.012864 0.385780
vt 0.008969 0.382698
vt 0.008969 0.382698
vt 0.005482 0.481505
vt 0.005482 0.481504
vt 0.006380 0.443311
vt 0.006380 0.443311
vt 0.004957 0.405236
vt 0.004957 0.405236
vt 0.104294 0.484867
vt 0.104294 0.484867
vt 0.104294 0.397769
vt 0.102528 0.443342
vt 0.102528 0.443342
vt 0.104294 0.397769
vt 0.014292 0.484867
vt 0.014292 0.484867
vt 0.014292 0.397769
vt 0.016876 0.443342
vt 0.016876 0.443342
vt 0.014292 0.397769
vt 0.075970 0.443282
vt 0.059759 0.443258
vt 0.059759 0.399009
vt 0.075918 0.398731
vt 0.059759 0.481816
vt 0.075926 0.483090
vt 0.075785 0.491031
vt 0.059759 0.489668
vt 0.075970 0.443282
vt 0.059759 0.443258
vt 0.059759 0.481816
vt 0.075926 0.483089
vt 0.075918 0.398731
vt 0.059759 0.399009
vt 0.075723 0.388326
vt 0.059759 0.388719
vt 0.059759 0.489668
vt 0.075785 0.491031
vt 0.059759 0.388719
vt 0.075723 0.388326
vt 0.043601 0.398719
vt 0.043549 0.443282
vt 0.043601 0.398719
vt 0.043549 0.443282
vt 0.043592 0.481165
vt 0.043592 0.481165
vt 0.043733 0.489098
vt 0.043733 0.489098
vt 0.043795 0.388326
vt 0.043795 0.388326
vn -0.051505 0.926098 -0.373750
vn -0.051504 0.926097 0.373754
vn 0.554670 0.726061 0.406419
vn 0.554671 0.726062 -0.406416
vn -0.046113 -0.885264 0.462797
vn -0.046112 -0.885264 -0.462798
vn 0.724986 -0.526355 -0.444235
vn 0.724986 -0.526356 0.444235
vn 0.554671 0.726062 -0.406416
vn 0.554670 0.726061 0.406419
vn 0.785055 0.090916 0.612717
vn 0.785057 0.090917 -0.612714
vn 0.785057 0.090917 -0.612714
vn 0.785055 0.090916 0.612717
vn 0.764552 0.002477 0.644558
vn 0.764552 0.002475 -0.644557
vn 0.770488 -0.070194 -0.633578
vn 0.770487 -0.070191 0.633580
vn 0.724986 -0.526356 0.444235
vn 0.724986 -0.526355 -0.444235
vn 0.770487 -0.070191 0.633580
vn 0.770488 -0.070194 -0.633578
vn 0.764552 0.002475 -0.644557
vn 0.764552 0.002477 0.644558
vn 0.080577 0.924755 0.371935
vn 0.080578 0.924756 -0.371931
vn -0.554671 0.726062 -0.406416
vn -0.554670 0.726061 0.406420
vn 0.044814 -0.885255 -0.462943
vn 0.044815 -0.885256 0.462940
vn -0.724986 -0.526356 0.444235
vn -0.724986 -0.526355 -0.444236
vn -0.554670 0.726061 0.406420
vn -0.554671 0.726062 -0.406416
vn -0.787404 0.066359 -0.612855
vn -0.787402 0.066358 0.612858
vn -0.761053 0.002364 -0.648685
vn -0.761052 0.002367 0.648686
vn -0.787402 0.066358 0.612858
vn -0.787404 0.066359 -0.612855
vn -0.761052 0.002367 0.648686
vn -0.761053 0.002364 -0.648685
vn -0.771151 -0.047778 -0.634858
vn -0.771149 -0.047775 0.634859
vn -0.771149 -0.047775 0.634859
vn -0.771151 -0.047778 -0.634858
vn -0.724986 -0.526355 -0.444236
vn -0.724986 -0.526356 0.444235
vn 0.224004 0.312254 -0.923212
vn -0.051505 0.926098 -0.373750
vn 0.554671 0.726062 -0.406416
vn -0.051504 0.926097 0.373754
vn 0.224003 0.312251 0.923213
vn 0.554670 0.726061 0.406419
vn 0.202014 -0.300901 -0.932013
vn 0.234072 -0.004660 -0.972208
vn 0.764552 0.002475 -0.644557
vn 0.770488 -0.070194 -0.633578
vn 0.234072 -0.004657 0.972208
vn 0.202014 -0.300899 0.932014
vn 0.770487 -0.070191 0.633580
vn 0.764552 0.002477 0.644558
vn 0.234072 -0.004660 -0.972208
vn 0.224004 0.312254 -0.923212
vn 0.785057 0.090917 -0.612714
vn 0.764552 0.002475 -0.644557
vn 0.224003 0.312251 0.923213
vn 0.234072 -0.004657 0.972208
vn 0.764552 0.002477 0.644558
vn 0.785055 0.090916 0.612717
vn -0.046112 -0.885264 -0.462798
vn 0.202014 -0.300901 -0.932013
vn 0.724986 -0.526355 -0.444235
vn 0.202014 -0.300899 0.932014
vn 0.724986 -0.526356 0.444235
vn 0.770487 -0.070191 0.633580
vn 0.554670 0.726061 0.406419
vn 0.224003 0.312251 0.923213
vn 0.785055 0.090916 0.612717
vn 0.224004 0.312254 -0.923212
vn 0.554671 0.726062 -0.406416
vn 0.785057 0.090917 -0.612714
vn 0.724986 -0.526355 -0.444235
vn 0.202014 -0.300901 -0.932013
vn 0.770488 -0.070194 -0.633578
vn 0.202014 -0.300899 0.932014
vn -0.046113 -0.885264 0.462797
vn 0.724986 -0.526356 0.444235
vn -0.219104 0.318376 -0.922296
vn -0.554671 0.726062 -0.406416
vn 0.080578 0.924756 -0.371931
vn 0.080577 0.924755 0.371935
vn -0.554670 0.726061 0.406420
vn -0.219104 0.318374 0.922297
vn -0.202027 -0.298829 -0.932677
vn -0.771151 -0.047778 -0.634858
vn -0.761053 0.002364 -0.648685
vn -0.226405 -0.004700 -0.974022
vn -0.226406 -0.004697 0.974022
vn -0.761052 0.002367 0.648686
vn -0.771149 -0.047775 0.634859
vn -0.202027 -0.298827 0.932678
vn -0.226405 -0.004700 -0.974022
vn -0.761053 0.002364 -0.648685
vn -0.787404 0.066359 -0.612855
vn -0.219104 0.318376 -0.922296
vn -0.219104 0.318374 0.922297
vn -0.787402 0.066358 0.612858
vn -0.761052 0.002367 0.648686
vn -0.226406 -0.004697 0.974022
vn 0.044814 -0.885255 -0.462943
vn -0.724986 -0.526355 -0.444236
vn -0.202027 -0.298829 -0.932677
vn -0.202027 -0.298827 0.932678
vn -0.771149 -0.047775 0.634859
vn -0.724986 -0.526356 0.444235
vn -0.554670 0.726061 0.406420
vn -0.787402 0.066358 0.612858
vn -0.219104 0.318374 0.922297
vn -0.219104 0.318376 -0.922296
vn -0.787404 0.066359 -0.612855
vn -0.554671 0.726062 -0.406416
vn -0.724986 -0.526355 -0.444236
vn -0.771151 -0.047778 -0.634858
vn -0.202027 -0.298829 -0.932677
vn -0.202027 -0.298827 0.932678
vn -0.724986 -0.526356 0.444235
vn 0.044815 -0.885256 0.462940
vn 0.042732 -0.007036 0.999062
vn -0.001289 -0.008000 0.999967
vn -0.000154 -0.356684 0.934225
vn 0.031413 -0.336552 0.941141
vn -0.011893 0.404257 0.914568
vn -0.001289 -0.008000 0.999967
vn 0.042732 -0.007036 0.999062
vn 0.026059 0.372690 0.927590
vn -0.011893 0.404257 0.914568
vn 0.026059 0.372690 0.927590
vn -0.034977 0.934383 0.354550
vn -0.031213 0.945273 0.324784
vn 0.042731 -0.007038 -0.999062
vn -0.001290 -0.008001 -0.999967
vn -0.011894 0.404259 -0.914567
vn 0.026057 0.372692 -0.927589
vn -0.001290 -0.008001 -0.999967
vn 0.042731 -0.007038 -0.999062
vn 0.031413 -0.336552 -0.941141
vn -0.000154 -0.356684 -0.934225
vn -0.000154 -0.356684 -0.934225
vn 0.031413 -0.336552 -0.941141
vn -0.014312 -0.887502 -0.460581
vn 0.000012 -0.904857 -0.425716
vn 0.026057 0.372692 -0.927589
vn -0.011894 0.404259 -0.914567
vn -0.031213 0.945273 -0.324784
vn -0.034978 0.934383 -0.354549
vn 0.031413 -0.336552 0.941141
vn -0.000154 -0.356684 0.934225
vn 0.000012 -0.904858 0.425714
vn -0.014312 -0.887503 0.460580
vn -0.031213 0.945273 0.324784
vn -0.034977 0.934383 0.354550
vn -0.034978 0.934383 -0.354549
vn -0.031213 0.945273 -0.324784
vn 0.000012 -0.904857 -0.425716
vn -0.014312 -0.887502 -0.460581
vn -0.014312 -0.887503 0.460580
vn 0.000012 -0.904858 0.425714
vn 0.234072 -0.004657 0.972208
vn 0.042732 -0.007036 0.999062
vn 0.031413 -0.336552 0.941141
vn 0.202014 -0.300899 0.932014
vn 0.031413 -0.336552 -0.941141
vn 0.042731 -0.007038 -0.999062
vn 0.234072 -0.004660 -0.972208
vn 0.202014 -0.300901 -0.932013
vn 0.224003 0.312251 0.923213
vn 0.026059 0.372690 0.927590
vn 0.042732 -0.007036 0.999062
vn 0.234072 -0.004657 0.972208
vn 0.042731 -0.007038 -0.999062
vn 0.026057 0.372692 -0.927589
vn 0.224004 0.312254 -0.923212
vn 0.234072 -0.004660 -0.972208
vn -0.226406 -0.004697 0.974022
vn -0.202027 -0.298827 0.932678
vn -0.030957 -0.337191 0.940927
vn -0.042093 -0.007133 0.999088
vn -0.030957 -0.337192 -0.940927
vn -0.202027 -0.298829 -0.932677
vn -0.226405 -0.004700 -0.974022
vn -0.042092 -0.007135 -0.999088
vn -0.219104 0.318374 0.922297
vn -0.226406 -0.004697 0.974022
vn -0.042093 -0.007133 0.999088
vn -0.026690 0.372747 0.927549
vn -0.042092 -0.007135 -0.999088
vn -0.226405 -0.004700 -0.974022
vn -0.219104 0.318376 -0.922296
vn -0.026688 0.372749 -0.927548
vn -0.051504 0.926097 0.373754
vn -0.051505 0.926098 -0.373750
vn -0.034978 0.934383 -0.354549
vn -0.034977 0.934383 0.354550
vn 0.032211 0.933733 0.356519
vn 0.032211 0.933733 -0.356517
vn 0.080578 0.924756 -0.371931
vn 0.080577 0.924755 0.371935
vn -0.046112 -0.885264 -0.462798
vn -0.046113 -0.885264 0.462797
vn -0.014312 -0.887503 0.460580
vn -0.014312 -0.887502 -0.460581
vn 0.014044 -0.887312 -0.460956
vn 0.014044 -0.887313 0.460953
vn 0.044815 -0.885256 0.462940
vn 0.044814 -0.885255 -0.462943
vn 0.026057 0.372692 -0.927589
vn -0.034978 0.934383 -0.354549
vn -0.051505 0.926098 -0.373750
vn 0.224004 0.312254 -0.923212
vn -0.034977 0.934383 0.354550
vn 0.026059 0.372690 0.927590
vn 0.224003 0.312251 0.923213
vn -0.051504 0.926097 0.373754
vn 0.202014 -0.300899 0.932014
vn 0.031413 -0.336552 0.941141
vn -0.014312 -0.887503 0.460580
vn -0.046113 -0.885264 0.462797
vn -0.014312 -0.887502 -0.460581
vn 0.031413 -0.336552 -0.941141
vn 0.202014 -0.300901 -0.932013
vn -0.046112 -0.885264 -0.462798
vn -0.026688 0.372749 -0.927548
vn -0.219104 0.318376 -0.922296
vn 0.080578 0.924756 -0.371931
vn 0.032211 0.933733 -0.356517
vn 0.032211 0.933733 0.356519
vn 0.080577 0.924755 0.371935
vn -0.219104 0.318374 0.922297
vn -0.026690 0.372747 0.927549
vn -0.202027 -0.298827 0.932678
vn 0.044815 -0.885256 0.462940
vn 0.014044 -0.887313 0.460953
vn -0.030957 -0.337191 0.940927
vn 0.014044 -0.887312 -0.460956
vn 0.044814 -0.885255 -0.462943
vn -0.202027 -0.298829 -0.932677
vn -0.030957 -0.337192 -0.940927
vn -0.001289 -0.008000 0.999967
vn -0.042093 -0.007133 0.999088
vn -0.030957 -0.337191 0.940927
vn -0.000154 -0.356684 0.934225
vn 0.000012 -0.904858 0.425714
vn -0.000154 -0.356684 0.934225
vn -0.030957 -0.337191 0.940927
vn 0.014044 -0.887313 0.460953
vn 0.014044 -0.887312 -0.460956
vn 0.000012 -0.904857 -0.425716
vn 0.000012 -0.904858 0.425714
vn 0.014044 -0.887313 0.460953
vn -0.030957 -0.337192 -0.940927
vn -0.000154 -0.356684 -0.934225
vn 0.000012 -0.904857 -0.425716
vn 0.014044 -0.887312 -0.460956
vn -0.042092 -0.007135 -0.999088
vn -0.001290 -0.008001 -0.999967
vn -0.000154 -0.356684 -0.934225
vn -0.030957 -0.337192 -0.940927
vn -0.011894 0.404259 -0.914567
vn -0.001290 -0.008001 -0.999967
vn -0.042092 -0.007135 -0.999088
vn -0.026688 0.372749 -0.927548
vn -0.031213 0.945273 -0.324784
vn -0.011894 0.404259 -0.914567
vn -0.026688 0.372749 -0.927548
vn 0.032211 0.933733 -0.356517
vn 0.032211 0.933733 0.356519
vn -0.031213 0.945273 0.324784
vn -0.031213 0.945273 -0.324784
vn 0.032211 0.933733 -0.356517
vn -0.026690 0.372747 0.927549
vn -0.011893 0.404257 0.914568
vn -0.031213 0.945273 0.324784
vn 0.032211 0.933733 0.356519
vn -0.042093 -0.007133 0.999088
vn -0.001289 -0.008000 0.999967
vn -0.011893 0.404257 0.914568
vn -0.026690 0.372747 0.927549
f 13/1/1 14/2/2 17/3/3 18/4/4
f 15/5/5 16/6/6 25/7/7 26/8/8
f 18/4/9 17/3/10 20/9/11 19/10/12
f 19/10/13 20/9/14 23/11/15 24/12/16
f 21/13/17 22/14/18 26/8/19 25/7/20
f 22/14/21 21/13/22 24/12/23 23/11/24
f 27/15/25 28/16/26 32/17/27 31/18/28
f 29/19/29 30/20/30 40/21/31 39/22/32
f 31/18/33 32/17/34 37/23/35 38/24/36
f 33/25/37 34/26/38 38/24/39 37/23/40
f 34/26/41 33/25/42 36/27/43 35/28/44
f 35/28/45 36/27/46 39/22/47 40/21/48
f 4/29/49 13/1/50 18/4/51
f 14/2/52 3/30/53 17/3/54
f 6/31/55 2/32/56 24/12/57 21/13/58
f 1/33/59 5/34/60 22/14/61 23/11/62
f 2/32/63 4/29/64 19/10/65 24/12/66
f 3/30/67 1/33/68 23/11/69 20/9/70
f 16/6/71 6/31/72 25/7/73
f 5/34/74 26/8/75 22/14/76
f 17/3/77 3/30/78 20/9/79
f 4/29/80 18/4/81 19/10/82
f 25/7/83 6/31/84 21/13/85
f 5/34/86 15/5/87 26/8/88
f 7/35/89 32/17/90 28/16/91
f 27/15/92 31/18/93 8/36/94
f 12/37/95 36/27/96 33/25/97 11/38/98
f 9/39/99 34/26/100 35/28/101 10/40/102
f 11/38/103 33/25/104 37/23/105 7/35/106
f 8/36/107 38/24/108 34/26/109 9/39/110
f 29/19/111 39/22/112 12/37/113
f 10/40/114 35/28/115 40/21/116
f 31/18/117 38/24/118 8/36/119
f 7/35/120 37/23/121 32/17/122
f 39/22/123 36/27/124 12/37/125
f 10/40/126 40/21/127 30/20/128
f 41/41/129 61/42/130 62/43/131 51/44/132
f 70/45/133 61/42/134 41/41/135 44/46/136
f 70/45/137 44/46/138 53/47/139 69/48/140
f 45/49/141 66/50/142 67/51/143 49/52/144
f 66/50/145 45/49/146 48/53/147 65/54/148
f 65/54/149 48/53/150 57/55/151 64/56/152
f 49/52/153 67/51/154 68/57/155 56/58/156
f 51/44/157 62/43/158 63/59/159 60/60/160
f 69/48/161 53/47/162 56/58/163 68/57/164
f 64/56/165 57/55/166 60/60/167 63/59/168
f 1/33/169 41/41/170 51/44/171 5/34/172
f 48/53/173 45/49/174 2/32/175 6/31/176
f 3/30/177 44/46/178 41/41/179 1/33/180
f 45/49/181 49/52/182 4/29/183 2/32/184
f 9/39/185 10/40/186 52/61/187 42/62/188
f 47/63/189 12/37/190 11/38/191 46/64/192
f 8/36/193 9/39/194 42/62/195 43/65/196
f 46/64/197 11/38/198 7/35/199 50/66/200
f 14/2/201 13/1/202 56/58/203 53/47/204
f 54/67/205 55/68/206 28/16/207 27/15/208
f 16/6/209 15/5/210 60/60/211 57/55/212
f 58/69/213 59/70/214 30/20/215 29/19/216
f 49/52/217 56/58/218 13/1/219 4/29/220
f 53/47/221 44/46/222 3/30/223 14/2/224
f 5/34/225 51/44/226 60/60/227 15/5/228
f 57/55/229 48/53/230 6/31/231 16/6/232
f 50/66/233 7/35/234 28/16/235 55/68/236
f 54/67/237 27/15/238 8/36/239 43/65/240
f 10/40/241 30/20/242 59/70/243 52/61/244
f 58/69/245 29/19/246 12/37/247 47/63/248
f 61/42/249 42/62/250 52/61/251 62/43/252
f 63/59/253 62/43/254 52/61/255 59/70/256
f 58/69/257 64/56/258 63/59/259 59/70/260
f 47/63/261 65/54/262 64/56/263 58/69/264
f 46/64/265 66/50/266 65/54/267 47/63/268
f 67/51/269 66/50/270 46/64/271 50/66/272
f 68/57/273 67/51/274 50/66/275 55/68/276
f 54/67/277 69/48/278 68/57/279 55/68/280
f 43/65/281 70/45/282 69/48/283 54/67/284
f 42/62/285 61/42/286 70/45/287 43/65/288
