# This file uses centimeters as units for non-parametric coordinates.

v -27.841194 -48.227989 126.973839
v -1.550747 -47.009502 30.369911
v -27.156158 -45.361870 127.196419
v -0.865715 -44.143383 30.592487
v -52.131012 -38.762444 119.081604
v -16.618073 -39.980934 25.474236
v -52.816040 -41.628559 118.859024
v -17.303101 -42.847050 25.251657
v -12.819912 -40.759972 23.816265
v -48.588989 -39.997589 124.085060
v -49.274017 -42.863708 123.862480
v -13.504940 -43.626091 23.593689
v -3.096821 -43.329231 26.975491
v -33.173347 -44.071064 129.093918
v -33.858376 -46.937187 128.871338
v -3.781851 -46.195351 26.752911
v 112.155884 -48.227989 65.715630
v 28.404291 -47.009502 10.859667
v 112.579269 -45.361870 65.132904
v 28.827662 -44.143383 10.276943
v 97.143967 -38.762444 86.377777
v 19.092173 -39.980934 23.676697
v 96.720596 -41.628559 86.960495
v 18.668802 -42.847050 24.259417
v 18.689045 -40.759972 19.552092
v 102.997070 -39.997589 84.555267
v 102.573715 -42.863708 85.137985
v 18.265675 -43.626091 20.134811
v 24.698246 -43.329231 11.281137
v 112.524475 -44.071064 71.441940
v 112.101105 -46.937187 72.024651
v 24.274876 -46.195351 11.863859
v -129.362701 -48.227989 12.758520
v -29.362707 -47.009502 7.909969
v -129.362701 -45.361870 13.478804
v -29.362707 -44.143383 8.630255
v -129.362701 -38.762444 -12.781302
v -29.362707 -39.980934 -7.932753
v -129.362701 -41.628559 -13.501584
v -29.362707 -42.847050 -8.653034
v -26.612186 -40.759972 -4.832829
v -133.026733 -39.997589 -7.866477
v -133.026733 -42.863708 -8.586759
v -26.612186 -43.626091 -5.553112
v -26.612186 -43.329231 5.390633
v -133.026733 -44.071064 8.342487
v -133.026733 -46.937187 7.622205
v -26.612186 -46.195351 4.670350
v 97.157364 -48.227989 -86.359344
v 19.105566 -47.009502 -23.658264
v 96.733978 -45.361870 -86.942070
v 18.682192 -44.143383 -24.240986
v 112.169296 -38.762444 -65.697197
v 28.417685 -39.980934 -10.841234
v 112.592651 -41.628559 -65.114471
v 28.841055 -42.847050 -10.258515
v 24.370377 -40.759972 -11.732410
v 112.244690 -39.997589 -71.827042
v 112.668076 -42.863708 -71.244324
v 24.793743 -43.626091 -11.149689
v 18.361176 -43.329231 -20.003368
v 102.717285 -44.071064 -84.940361
v 103.140671 -46.937187 -84.357651
v 18.784550 -46.195351 -19.420643
v -52.109344 -48.227989 -119.088654
v -16.596401 -47.009502 -25.481277
v -52.794380 -45.361870 -118.866058
v -17.281437 -44.143383 -25.258698
v -27.819534 -38.762444 -126.980881
v -1.529078 -39.980934 -30.376949
v -27.134499 -41.628559 -127.203468
v -0.844051 -42.847050 -30.599529
v -3.627323 -40.759972 -26.803122
v -33.626060 -39.997589 -128.946808
v -32.941025 -42.863708 -129.169388
v -2.942295 -43.626091 -27.025700
v -13.350413 -43.329231 -23.643894
v -49.041695 -44.071064 -123.937965
v -48.356667 -46.937187 -124.160561
v -12.665385 -46.195351 -23.866474
vt 0.643762 0.635319
vt 0.735997 0.650164
vt 0.736082 0.654356
vt 0.644297 0.639415
vt 0.738595 0.666299
vt 0.640915 0.658595
vt 0.644202 0.736901
vt 0.736022 0.715843
vt 0.735937 0.711652
vt 0.644117 0.732709
vt 0.640379 0.654499
vt 0.738510 0.662107
vt 0.640856 0.718768
vt 0.738558 0.704251
vt 0.640321 0.714672
vt 0.738473 0.700059
vt 0.643762 0.635319
vt 0.735997 0.650164
vt 0.736082 0.654356
vt 0.644297 0.639415
vt 0.738595 0.666299
vt 0.640915 0.658595
vt 0.644202 0.736901
vt 0.736022 0.715843
vt 0.735937 0.711652
vt 0.644117 0.732709
vt 0.640379 0.654499
vt 0.738510 0.662107
vt 0.640856 0.718768
vt 0.738558 0.704251
vt 0.640321 0.714672
vt 0.738473 0.700059
vt 0.643762 0.635319
vt 0.735997 0.650164
vt 0.736082 0.654356
vt 0.644297 0.639415
vt 0.738595 0.666299
vt 0.640915 0.658595
vt 0.644202 0.736901
vt 0.736022 0.715843
vt 0.735937 0.711652
vt 0.644117 0.732709
vt 0.640379 0.654499
vt 0.738510 0.662107
vt 0.640856 0.718768
vt 0.738558 0.704251
vt 0.640321 0.714672
vt 0.738473 0.700059
vt 0.643762 0.635319
vt 0.735997 0.650164
vt 0.736082 0.654356
vt 0.644297 0.639415
vt 0.738595 0.666299
vt 0.640915 0.658595
vt 0.644202 0.736901
vt 0.736022 0.715843
vt 0.735937 0.711652
vt 0.644117 0.732709
vt 0.640379 0.654499
vt 0.738510 0.662107
vt 0.640856 0.718768
vt 0.738558 0.704251
vt 0.640321 0.714672
vt 0.738473 0.700059
vt 0.643762 0.635319
vt 0.735997 0.650164
vt 0.736082 0.654356
vt 0.644297 0.639415
vt 0.738595 0.666299
vt 0.640915 0.658595
vt 0.644202 0.736901
vt 0.736022 0.715843
vt 0.735937 0.711652
vt 0.644117 0.732709
vt 0.640379 0.654499
vt 0.738510 0.662107
vt 0.640856 0.718768
vt 0.738558 0.704251
vt 0.640321 0.714672
vt 0.738473 0.700059
vn 0.921487 -0.243731 0.302419
vn 0.944351 -0.242933 0.221777
vn 0.944351 -0.242933 0.221777
vn 0.921487 -0.243731 0.302419
vn 0.231802 0.969843 0.075317
vn 0.231802 0.969843 0.075317
vn 0.231802 0.969843 0.075317
vn 0.231802 0.969843 0.075317
vn -0.922579 0.243731 -0.299071
vn -0.894885 0.242959 -0.374368
vn -0.894885 0.242959 -0.374368
vn -0.922579 0.243731 -0.299071
vn -0.231802 -0.969843 -0.075317
vn -0.231802 -0.969843 -0.075317
vn -0.231802 -0.969843 -0.075317
vn -0.231802 -0.969843 -0.075317
vn 0.944351 -0.242933 0.221777
vn 0.482398 -0.047372 -0.874670
vn 0.482398 -0.047372 -0.874670
vn 0.944351 -0.242933 0.221777
vn -0.153350 -0.040025 0.987361
vn 0.921487 -0.243731 0.302419
vn 0.921487 -0.243731 0.302419
vn -0.153351 -0.040025 0.987361
vn 0.231802 0.969843 0.075317
vn 0.231802 0.969843 0.075317
vn 0.231802 0.969843 0.075317
vn 0.231802 0.969843 0.075317
vn -0.922579 0.243731 -0.299071
vn -0.457751 0.040433 0.888161
vn -0.457751 0.040433 0.888160
vn -0.922579 0.243731 -0.299071
vn -0.231803 -0.969843 -0.075317
vn -0.231803 -0.969843 -0.075317
vn -0.231802 -0.969843 -0.075317
vn -0.231802 -0.969843 -0.075317
vn 0.121922 0.047849 -0.991386
vn 0.121922 0.047849 -0.991386
vn -0.894885 0.242959 -0.374368
vn -0.894885 0.242959 -0.374368
vn 0.231802 0.969843 0.075317
vn 0.231802 0.969843 0.075317
vn 0.231802 0.969843 0.075317
vn 0.231802 0.969843 0.075317
vn -0.457751 0.040433 0.888161
vn -0.153350 -0.040025 0.987361
vn -0.153351 -0.040025 0.987361
vn -0.457751 0.040433 0.888160
vn -0.231802 -0.969843 -0.075317
vn -0.231802 -0.969843 -0.075317
vn -0.231802 -0.969843 -0.075317
vn -0.231802 -0.969843 -0.075317
vn 0.482398 -0.047372 -0.874670
vn 0.482398 -0.047372 -0.874670
vn 0.121922 0.047849 -0.991386
vn 0.121922 0.047849 -0.991386
vn 0.572372 -0.243731 -0.782934
vn 0.502743 -0.242932 -0.829599
vn 0.502743 -0.242932 -0.829599
vn 0.572372 -0.243731 -0.782934
vn 0.143261 0.969843 -0.197182
vn 0.143261 0.969843 -0.197182
vn 0.143262 0.969843 -0.197183
vn 0.143262 0.969843 -0.197183
vn -0.569526 0.243730 0.785007
vn -0.632579 0.242958 0.735401
vn -0.632579 0.242958 0.735401
vn -0.569526 0.243730 0.785007
vn -0.143262 -0.969843 0.197183
vn -0.143262 -0.969843 0.197183
vn -0.143262 -0.969843 0.197182
vn -0.143262 -0.969843 0.197182
vn 0.502743 -0.242932 -0.829599
vn -0.682792 -0.047372 -0.729076
vn -0.682792 -0.047372 -0.729076
vn 0.502743 -0.242932 -0.829599
vn 0.891648 -0.040027 0.450956
vn 0.572372 -0.243731 -0.782934
vn 0.572372 -0.243731 -0.782934
vn 0.891648 -0.040026 0.450957
vn 0.143262 0.969843 -0.197183
vn 0.143262 0.969843 -0.197183
vn 0.143262 0.969843 -0.197183
vn 0.143262 0.969843 -0.197183
vn -0.569526 0.243730 0.785007
vn 0.703239 0.040433 0.709803
vn 0.703238 0.040433 0.709804
vn -0.569526 0.243730 0.785007
vn -0.143262 -0.969843 0.197183
vn -0.143262 -0.969843 0.197183
vn -0.143262 -0.969843 0.197183
vn -0.143262 -0.969843 0.197183
vn -0.905188 0.047849 -0.422310
vn -0.905188 0.047849 -0.422310
vn -0.632579 0.242958 0.735401
vn -0.632579 0.242958 0.735401
vn 0.143262 0.969843 -0.197183
vn 0.143262 0.969843 -0.197183
vn 0.143262 0.969843 -0.197183
vn 0.143262 0.969843 -0.197183
vn 0.703239 0.040433 0.709803
vn 0.891648 -0.040027 0.450956
vn 0.891648 -0.040026 0.450957
vn 0.703238 0.040433 0.709804
vn -0.143262 -0.969843 0.197183
vn -0.143262 -0.969843 0.197183
vn -0.143262 -0.969843 0.197183
vn -0.143262 -0.969843 0.197183
vn -0.682792 -0.047372 -0.729076
vn -0.682792 -0.047372 -0.729076
vn -0.905188 0.047849 -0.422310
vn -0.905188 0.047849 -0.422310
vn -0.002862 -0.243730 0.969839
vn 0.080898 -0.242932 0.966664
vn 0.080898 -0.242932 0.966664
vn -0.002862 -0.243730 0.969839
vn 0.000000 0.969843 0.243731
vn 0.000000 0.969843 0.243731
vn 0.000000 0.969843 0.243731
vn 0.000000 0.969843 0.243731
vn -0.000659 0.243731 -0.969843
vn 0.079510 0.242959 -0.966773
vn 0.079510 0.242959 -0.966773
vn -0.000659 0.243731 -0.969843
vn 0.000000 -0.969843 -0.243731
vn 0.000000 -0.969843 -0.243731
vn 0.000000 -0.969843 -0.243730
vn 0.000000 -0.969843 -0.243730
vn 0.080898 -0.242932 0.966664
vn 0.980930 -0.047373 0.188500
vn 0.980930 -0.047373 0.188500
vn 0.080898 -0.242932 0.966664
vn -0.986424 -0.040026 0.159266
vn -0.002862 -0.243730 0.969839
vn -0.002862 -0.243730 0.969839
vn -0.986424 -0.040026 0.159266
vn 0.000000 0.969843 0.243731
vn 0.000000 0.969843 0.243731
vn 0.000000 0.969843 0.243731
vn 0.000000 0.969843 0.243731
vn -0.000659 0.243731 -0.969843
vn -0.986144 0.040432 -0.160890
vn -0.986144 0.040432 -0.160890
vn -0.000659 0.243731 -0.969843
vn 0.000000 -0.969842 -0.243733
vn 0.000000 -0.969842 -0.243733
vn 0.000000 -0.969843 -0.243732
vn 0.000000 -0.969843 -0.243732
vn 0.980540 0.047849 -0.190401
vn 0.980540 0.047849 -0.190401
vn 0.079510 0.242959 -0.966773
vn 0.079510 0.242959 -0.966773
vn 0.000000 0.969843 0.243731
vn 0.000000 0.969843 0.243731
vn 0.000000 0.969843 0.243731
vn 0.000000 0.969843 0.243731
vn -0.986144 0.040432 -0.160890
vn -0.986424 -0.040026 0.159266
vn -0.986424 -0.040026 0.159266
vn -0.986144 0.040432 -0.160890
vn 0.000000 -0.969843 -0.243732
vn 0.000000 -0.969843 -0.243732
vn 0.000000 -0.969843 -0.243731
vn 0.000000 -0.969843 -0.243731
vn 0.980930 -0.047373 0.188500
vn 0.980930 -0.047373 0.188500
vn 0.980540 0.047849 -0.190401
vn 0.980540 0.047849 -0.190401
vn -0.567741 -0.243733 -0.786298
vn -0.633639 -0.242935 -0.734496
vn -0.633639 -0.242935 -0.734496
vn -0.567742 -0.243733 -0.786298
vn -0.143262 0.969843 -0.197183
vn -0.143262 0.969843 -0.197183
vn -0.143262 0.969843 -0.197183
vn -0.143262 0.969843 -0.197183
vn 0.570593 0.243729 0.784232
vn 0.503930 0.242958 0.828870
vn 0.503930 0.242958 0.828870
vn 0.570593 0.243729 0.784232
vn 0.143262 -0.969843 0.197183
vn 0.143262 -0.969843 0.197183
vn 0.143262 -0.969843 0.197182
vn 0.143262 -0.969843 0.197182
vn -0.633639 -0.242935 -0.734496
vn -0.904387 -0.047371 0.424076
vn -0.904387 -0.047371 0.424076
vn -0.633639 -0.242935 -0.734496
vn 0.704419 -0.040020 -0.708655
vn -0.567741 -0.243733 -0.786298
vn -0.567742 -0.243733 -0.786298
vn 0.704419 -0.040020 -0.708656
vn -0.143262 0.969843 -0.197183
vn -0.143262 0.969843 -0.197183
vn -0.143261 0.969843 -0.197182
vn -0.143261 0.969843 -0.197182
vn 0.570593 0.243729 0.784232
vn 0.892375 0.040437 -0.449479
vn 0.892375 0.040437 -0.449479
vn 0.570593 0.243729 0.784232
vn 0.143262 -0.969843 0.197183
vn 0.143262 -0.969843 0.197183
vn 0.143262 -0.969843 0.197183
vn 0.143262 -0.969843 0.197183
vn -0.681359 0.047850 0.730384
vn -0.681359 0.047850 0.730383
vn 0.503930 0.242958 0.828870
vn 0.503930 0.242958 0.828870
vn -0.143262 0.969843 -0.197183
vn -0.143262 0.969843 -0.197183
vn -0.143262 0.969843 -0.197183
vn -0.143262 0.969843 -0.197183
vn 0.892375 0.040437 -0.449479
vn 0.704419 -0.040020 -0.708655
vn 0.704419 -0.040020 -0.708656
vn 0.892375 0.040437 -0.449479
vn 0.143262 -0.969843 0.197183
vn 0.143262 -0.969843 0.197183
vn 0.143262 -0.969843 0.197183
vn 0.143262 -0.969843 0.197183
vn -0.904387 -0.047371 0.424076
vn -0.904387 -0.047371 0.424076
vn -0.681359 0.047850 0.730383
vn -0.681359 0.047850 0.730384
vn -0.923256 -0.243733 0.296974
vn -0.894352 -0.242935 0.375655
vn -0.894352 -0.242935 0.375655
vn -0.923255 -0.243733 0.296975
vn -0.231802 0.969843 0.075317
vn -0.231802 0.969843 0.075317
vn -0.231802 0.969843 0.075317
vn -0.231802 0.969843 0.075317
vn 0.922171 0.243731 -0.300325
vn 0.944025 0.242960 -0.223131
vn 0.944025 0.242960 -0.223131
vn 0.922171 0.243731 -0.300325
vn 0.231802 -0.969843 -0.075317
vn 0.231802 -0.969843 -0.075317
vn 0.231802 -0.969843 -0.075317
vn 0.231802 -0.969843 -0.075317
vn -0.894352 -0.242935 0.375655
vn 0.123850 -0.047372 0.991170
vn 0.123850 -0.047372 0.991170
vn -0.894352 -0.242935 0.375655
vn -0.456294 -0.040022 -0.888929
vn -0.923256 -0.243733 0.296974
vn -0.923255 -0.243733 0.296975
vn -0.456294 -0.040023 -0.888929
vn -0.231802 0.969843 0.075317
vn -0.231802 0.969843 0.075317
vn -0.231802 0.969843 0.075317
vn -0.231802 0.969843 0.075317
vn 0.922171 0.243731 -0.300325
vn -0.151721 0.040436 -0.987596
vn -0.151721 0.040435 -0.987596
vn 0.922171 0.243731 -0.300325
vn 0.231802 -0.969843 -0.075317
vn 0.231802 -0.969843 -0.075317
vn 0.231802 -0.969843 -0.075317
vn 0.231802 -0.969843 -0.075317
vn 0.484085 0.047849 0.873712
vn 0.484085 0.047849 0.873712
vn 0.944025 0.242960 -0.223131
vn 0.944025 0.242960 -0.223131
vn -0.231802 0.969843 0.075317
vn -0.231802 0.969843 0.075317
vn -0.231802 0.969843 0.075317
vn -0.231802 0.969843 0.075317
vn -0.151721 0.040436 -0.987596
vn -0.456294 -0.040022 -0.888929
vn -0.456294 -0.040023 -0.888929
vn -0.151721 0.040435 -0.987596
vn 0.231802 -0.969843 -0.075317
vn 0.231802 -0.969843 -0.075317
vn 0.231802 -0.969843 -0.075317
vn 0.231802 -0.969843 -0.075317
vn 0.123850 -0.047372 0.991170
vn 0.123850 -0.047372 0.991170
vn 0.484085 0.047849 0.873712
vn 0.484085 0.047849 0.873712
f 1/1/1 2/2/2 4/3/3 3/4/4
f 3/4/5 4/3/6 13/5/7 14/6/8
f 5/7/9 6/8/10 8/9/11 7/10/12
f 15/11/13 16/12/14 2/2/15 1/1/16
f 2/2/17 16/12/18 13/5/19 4/3/20
f 15/11/21 1/1/22 3/4/23 14/6/24
f 10/13/25 9/14/26 6/8/27 5/7/28
f 7/10/29 11/15/30 10/13/31 5/7/32
f 7/10/33 8/9/34 12/16/35 11/15/36
f 9/14/37 12/16/38 8/9/39 6/8/40
f 14/6/41 13/5/42 9/14/43 10/13/44
f 11/15/45 15/11/46 14/6/47 10/13/48
f 11/15/49 12/16/50 16/12/51 15/11/52
f 13/5/53 16/12/54 12/16/55 9/14/56
f 17/17/57 18/18/58 20/19/59 19/20/60
f 19/20/61 20/19/62 29/21/63 30/22/64
f 21/23/65 22/24/66 24/25/67 23/26/68
f 31/27/69 32/28/70 18/18/71 17/17/72
f 18/18/73 32/28/74 29/21/75 20/19/76
f 31/27/77 17/17/78 19/20/79 30/22/80
f 26/29/81 25/30/82 22/24/83 21/23/84
f 23/26/85 27/31/86 26/29/87 21/23/88
f 23/26/89 24/25/90 28/32/91 27/31/92
f 25/30/93 28/32/94 24/25/95 22/24/96
f 30/22/97 29/21/98 25/30/99 26/29/100
f 27/31/101 31/27/102 30/22/103 26/29/104
f 27/31/105 28/32/106 32/28/107 31/27/108
f 29/21/109 32/28/110 28/32/111 25/30/112
f 33/33/113 34/34/114 36/35/115 35/36/116
f 35/36/117 36/35/118 45/37/119 46/38/120
f 37/39/121 38/40/122 40/41/123 39/42/124
f 47/43/125 48/44/126 34/34/127 33/33/128
f 34/34/129 48/44/130 45/37/131 36/35/132
f 47/43/133 33/33/134 35/36/135 46/38/136
f 42/45/137 41/46/138 38/40/139 37/39/140
f 39/42/141 43/47/142 42/45/143 37/39/144
f 39/42/145 40/41/146 44/48/147 43/47/148
f 41/46/149 44/48/150 40/41/151 38/40/152
f 46/38/153 45/37/154 41/46/155 42/45/156
f 43/47/157 47/43/158 46/38/159 42/45/160
f 43/47/161 44/48/162 48/44/163 47/43/164
f 45/37/165 48/44/166 44/48/167 41/46/168
f 49/49/169 50/50/170 52/51/171 51/52/172
f 51/52/173 52/51/174 61/53/175 62/54/176
f 53/55/177 54/56/178 56/57/179 55/58/180
f 63/59/181 64/60/182 50/50/183 49/49/184
f 50/50/185 64/60/186 61/53/187 52/51/188
f 63/59/189 49/49/190 51/52/191 62/54/192
f 58/61/193 57/62/194 54/56/195 53/55/196
f 55/58/197 59/63/198 58/61/199 53/55/200
f 55/58/201 56/57/202 60/64/203 59/63/204
f 57/62/205 60/64/206 56/57/207 54/56/208
f 62/54/209 61/53/210 57/62/211 58/61/212
f 59/63/213 63/59/214 62/54/215 58/61/216
f 59/63/217 60/64/218 64/60/219 63/59/220
f 61/53/221 64/60/222 60/64/223 57/62/224
f 65/65/225 66/66/226 68/67/227 67/68/228
f 67/68/229 68/67/230 77/69/231 78/70/232
f 69/71/233 70/72/234 72/73/235 71/74/236
f 79/75/237 80/76/238 66/66/239 65/65/240
f 66/66/241 80/76/242 77/69/243 68/67/244
f 79/75/245 65/65/246 67/68/247 78/70/248
f 74/77/249 73/78/250 70/72/251 69/71/252
f 71/74/253 75/79/254 74/77/255 69/71/256
f 71/74/257 72/73/258 76/80/259 75/79/260
f 73/78/261 76/80/262 72/73/263 70/72/264
f 78/70/265 77/69/266 73/78/267 74/77/268
f 75/79/269 79/75/270 78/70/271 74/77/272
f 75/79/273 76/80/274 80/76/275 79/75/276
f 77/69/277 80/76/278 76/80/279 73/78/280
