# This file uses centimeters as units for non-parametric coordinates.

v 73.749786 -19.917303 11.589203
v -7.062553 -19.665899 11.828260
v 73.749786 -18.297323 11.589203
v -7.062553 -18.548727 11.828260
v 73.345718 -18.297323 34.565136
v -12.196819 -18.548727 18.392319
v 73.345718 -19.917303 34.565136
v -12.196819 -19.665899 18.392319
v 19.361761 -18.297323 20.271229
v 19.361761 -18.297323 31.407124
v 19.361761 -19.917303 31.407124
v 19.361761 -19.917303 20.271229
v 8.811234 -18.403177 18.543104
v 5.164169 -18.403177 27.785858
v 5.164169 -19.811445 27.785858
v 8.811234 -19.811445 18.543104
v 19.361761 -18.297323 25.981382
v 77.650513 -18.297323 23.705679
v 77.650513 -19.917303 23.705679
v 19.361761 -19.917303 25.981382
v 6.941128 -19.811445 22.735846
v -9.214043 -19.665899 14.744325
v -9.214043 -18.548727 14.744325
v 6.941128 -18.403177 22.735846
v 38.250645 -18.297323 26.941113
v 36.935001 -18.297323 18.799776
v 36.935001 -19.917303 18.799776
v 38.250645 -19.917303 26.941113
v 36.935001 -19.917303 34.676941
v 36.935001 -18.297323 34.676941
v 72.652168 -19.917303 24.273600
v 69.079391 -19.917303 9.589879
v 69.079391 -18.297323 9.589879
v 72.652168 -18.297323 24.273602
v 68.726585 -18.297323 37.493393
v 68.726585 -19.917303 37.493393
v -73.749786 -19.917303 -11.589203
v 7.062553 -19.665899 -11.828260
v -73.749786 -18.297323 -11.589203
v 7.062553 -18.548727 -11.828260
v -73.345718 -18.297323 -34.565136
v 12.196819 -18.548727 -18.392319
v -73.345718 -19.917303 -34.565136
v 12.196819 -19.665899 -18.392319
v -19.361761 -18.297323 -20.271229
v -19.361761 -18.297323 -31.407124
v -19.361761 -19.917303 -31.407124
v -19.361761 -19.917303 -20.271229
v -8.811234 -18.403177 -18.543104
v -5.164169 -18.403177 -27.785858
v -5.164169 -19.811445 -27.785858
v -8.811234 -19.811445 -18.543104
v -19.361761 -18.297323 -25.981382
v -77.650513 -18.297323 -23.705679
v -77.650513 -19.917303 -23.705679
v -19.361761 -19.917303 -25.981382
v -6.941128 -19.811445 -22.735846
v 9.214043 -19.665899 -14.744325
v 9.214043 -18.548727 -14.744325
v -6.941128 -18.403177 -22.735846
v -38.250645 -18.297323 -26.941113
v -36.935001 -18.297323 -18.799776
v -36.935001 -19.917303 -18.799776
v -38.250645 -19.917303 -26.941113
v -36.935001 -19.917303 -34.676941
v -36.935001 -18.297323 -34.676941
v -72.652168 -19.917303 -24.273600
v -69.079391 -19.917303 -9.589879
v -69.079391 -18.297323 -9.589879
v -72.652168 -18.297323 -24.273602
v -68.726585 -18.297323 -37.493393
v -68.726585 -19.917303 -37.493393
vt 0.740699 0.787822
vt 0.701979 0.788956
vt 0.701043 0.790112
vt 0.741831 0.788978
vt 0.701182 0.805273
vt 0.738087 0.810802
vt 0.741363 0.831134
vt 0.701314 0.819679
vt 0.702251 0.818523
vt 0.740232 0.829977
vt 0.736955 0.809646
vt 0.702119 0.804117
vt 0.643352 0.762549
vt 0.638679 0.769952
vt 0.638033 0.770749
vt 0.642706 0.763346
vt 0.632103 0.807273
vt 0.642850 0.774487
vt 0.643982 0.775643
vt 0.633235 0.808429
vt 0.677794 0.783783
vt 0.673772 0.794620
vt 0.669976 0.807748
vt 0.670790 0.806743
vt 0.674586 0.793615
vt 0.678608 0.782778
vt 0.631543 0.779964
vt 0.632190 0.779167
vt 0.643250 0.835426
vt 0.644381 0.836582
vt 0.656481 0.769598
vt 0.646532 0.809148
vt 0.655349 0.768441
vt 0.645400 0.807992
vt 0.655467 0.842472
vt 0.656599 0.843628
vt 0.740699 0.787822
vt 0.701979 0.788956
vt 0.701043 0.790112
vt 0.741831 0.788978
vt 0.701182 0.805273
vt 0.738087 0.810802
vt 0.741363 0.831134
vt 0.701314 0.819679
vt 0.702251 0.818523
vt 0.740232 0.829977
vt 0.736955 0.809646
vt 0.702119 0.804117
vt 0.643352 0.762549
vt 0.638679 0.769952
vt 0.638033 0.770749
vt 0.642706 0.763346
vt 0.632103 0.807273
vt 0.642850 0.774487
vt 0.643982 0.775643
vt 0.633235 0.808429
vt 0.677794 0.783783
vt 0.673772 0.794620
vt 0.669976 0.807748
vt 0.670790 0.806743
vt 0.674586 0.793615
vt 0.678608 0.782778
vt 0.631543 0.779964
vt 0.632190 0.779167
vt 0.643250 0.835426
vt 0.644381 0.836582
vt 0.656481 0.769598
vt 0.646532 0.809148
vt 0.655349 0.768441
vt 0.645400 0.807992
vt 0.655467 0.842472
vt 0.656599 0.843628
vn -0.210047 0.000000 -0.977691
vn 0.004880 0.000000 -0.999988
vn 0.004880 0.000000 -0.999988
vn -0.210047 0.000000 -0.977691
vn 0.000000 1.000000 0.000000
vn -0.002914 0.999996 -0.000550
vn -0.002835 0.999996 -0.000503
vn 0.000000 1.000000 0.000000
vn -0.122365 0.000000 0.992485
vn -0.210826 0.000000 0.977524
vn -0.210826 0.000000 0.977524
vn -0.122365 0.000000 0.992485
vn 0.000000 -1.000000 0.000000
vn -0.002836 -0.999996 -0.000503
vn -0.002914 -0.999996 -0.000550
vn 0.000000 -1.000000 0.000000
vn 0.227387 0.000000 -0.973804
vn -0.787669 0.000000 -0.616098
vn -0.787669 0.000000 -0.616098
vn 0.227387 0.000000 -0.973804
vn 0.999845 0.000000 0.017584
vn 0.854766 0.000000 -0.519014
vn 0.854766 0.000000 -0.519014
vn 0.999845 0.000000 0.017584
vn -0.002914 0.999996 -0.000550
vn -0.008023 0.999964 -0.002894
vn -0.007456 0.999968 -0.002817
vn -0.002835 0.999996 -0.000503
vn -0.210826 0.000000 0.977524
vn -0.210826 0.000000 0.977524
vn -0.370432 0.000000 0.928860
vn -0.370432 0.000000 0.928860
vn -0.002914 -0.999996 -0.000550
vn -0.002836 -0.999996 -0.000503
vn -0.007456 -0.999968 -0.002817
vn -0.008023 -0.999964 -0.002893
vn 0.004880 0.000000 -0.999988
vn 0.004880 0.000000 -0.999988
vn 0.293744 0.000000 -0.955884
vn 0.293744 0.000000 -0.955884
vn -0.008023 0.999964 -0.002894
vn -0.007214 0.999966 -0.004081
vn -0.006933 0.999969 -0.003843
vn -0.007456 0.999968 -0.002817
vn -0.370432 0.000000 0.928860
vn -0.370432 0.000000 0.928860
vn -0.650093 0.000000 0.759854
vn -0.650093 0.000000 0.759854
vn -0.008023 -0.999964 -0.002893
vn -0.007456 -0.999968 -0.002817
vn -0.006932 -0.999969 -0.003843
vn -0.007214 -0.999966 -0.004081
vn 0.293744 0.000000 -0.955884
vn 0.293744 0.000000 -0.955884
vn 0.227387 0.000000 -0.973804
vn 0.227387 0.000000 -0.973804
vn 0.000000 1.000000 0.000000
vn 0.000000 1.000000 0.000000
vn -0.002835 0.999996 -0.000503
vn -0.002370 0.999997 -0.000402
vn 0.839502 0.000000 0.543357
vn 0.999845 0.000000 0.017584
vn 0.999845 0.000000 0.017584
vn 0.839502 0.000000 0.543357
vn 0.000000 -1.000000 0.000000
vn -0.002370 -0.999997 -0.000402
vn -0.002836 -0.999996 -0.000503
vn 0.000000 -1.000000 0.000000
vn -0.007456 -0.999968 -0.002817
vn -0.002836 -0.999996 -0.000503
vn -0.002370 -0.999997 -0.000402
vn -0.007149 -0.999971 -0.002620
vn -0.006932 -0.999969 -0.003843
vn -0.007456 -0.999968 -0.002817
vn -0.007149 -0.999971 -0.002620
vn -0.006765 -0.999970 -0.003702
vn -0.787669 0.000000 -0.616098
vn -0.787669 0.000000 -0.616098
vn -0.650093 0.000000 0.759854
vn -0.650093 0.000000 0.759854
vn -0.007456 0.999968 -0.002817
vn -0.006933 0.999969 -0.003843
vn -0.006765 0.999970 -0.003702
vn -0.007149 0.999971 -0.002620
vn -0.002835 0.999996 -0.000503
vn -0.007456 0.999968 -0.002817
vn -0.007149 0.999971 -0.002620
vn -0.002370 0.999997 -0.000402
vn 0.000000 1.000000 0.000000
vn 0.000000 1.000000 0.000000
vn 0.000000 1.000000 0.000000
vn 0.000000 1.000000 0.000000
vn 0.854766 0.000000 -0.519014
vn -0.192209 0.000000 -0.981354
vn -0.192209 0.000000 -0.981354
vn 0.854766 0.000000 -0.519014
vn 0.000000 -1.000000 0.000000
vn 0.000000 -1.000000 0.000000
vn 0.000000 -1.000000 0.000000
vn 0.000000 -1.000000 0.000000
vn 0.000000 -1.000000 0.000000
vn 0.000000 -1.000000 0.000000
vn 0.000000 -1.000000 0.000000
vn 0.000000 -1.000000 0.000000
vn 0.839502 0.000000 0.543357
vn 0.003071 0.000000 0.999995
vn 0.003071 0.000000 0.999995
vn 0.839502 0.000000 0.543357
vn 0.000000 1.000000 0.000000
vn 0.000000 1.000000 0.000000
vn 0.000000 1.000000 0.000000
vn 0.000000 1.000000 0.000000
vn 0.000000 -1.000000 0.000000
vn 0.000000 -1.000000 0.000000
vn 0.000000 -1.000000 0.000000
vn 0.000000 -1.000000 0.000000
vn -0.192209 0.000000 -0.981354
vn -0.192209 0.000000 -0.981354
vn -0.210047 0.000000 -0.977691
vn -0.210047 0.000000 -0.977691
vn 0.000000 1.000000 0.000000
vn 0.000000 1.000000 0.000000
vn 0.000000 1.000000 0.000000
vn 0.000000 1.000000 0.000000
vn 0.000000 1.000000 0.000000
vn 0.000000 1.000000 0.000000
vn 0.000000 1.000000 0.000000
vn 0.000000 1.000000 0.000000
vn 0.003071 0.000000 0.999995
vn 0.003071 0.000000 0.999995
vn -0.122365 0.000000 0.992485
vn -0.122365 0.000000 0.992485
vn 0.000000 -1.000000 0.000000
vn 0.000000 -1.000000 0.000000
vn 0.000000 -1.000000 0.000000
vn 0.000000 -1.000000 0.000000
vn 0.210047 0.000000 0.977691
vn -0.004880 0.000000 0.999988
vn -0.004880 0.000000 0.999988
vn 0.210047 0.000000 0.977691
vn 0.000000 1.000000 0.000000
vn 0.002914 0.999996 0.000550
vn 0.002835 0.999996 0.000503
vn 0.000000 1.000000 0.000000
vn 0.122365 0.000000 -0.992485
vn 0.210826 0.000000 -0.977524
vn 0.210826 0.000000 -0.977524
vn 0.122365 0.000000 -0.992485
vn 0.000000 -1.000000 0.000000
vn 0.002836 -0.999996 0.000503
vn 0.002914 -0.999996 0.000550
vn 0.000000 -1.000000 0.000000
vn -0.227387 0.000000 0.973804
vn 0.787669 0.000000 0.616098
vn 0.787669 0.000000 0.616098
vn -0.227387 0.000000 0.973804
vn -0.999845 0.000000 -0.017584
vn -0.854766 0.000000 0.519014
vn -0.854766 0.000000 0.519014
vn -0.999845 0.000000 -0.017584
vn 0.002914 0.999996 0.000550
vn 0.008023 0.999964 0.002894
vn 0.007456 0.999968 0.002817
vn 0.002835 0.999996 0.000503
vn 0.210826 0.000000 -0.977524
vn 0.210826 0.000000 -0.977524
vn 0.370432 0.000000 -0.928860
vn 0.370432 0.000000 -0.928860
vn 0.002914 -0.999996 0.000550
vn 0.002836 -0.999996 0.000503
vn 0.007456 -0.999968 0.002817
vn 0.008023 -0.999964 0.002893
vn -0.004880 0.000000 0.999988
vn -0.004880 0.000000 0.999988
vn -0.293744 0.000000 0.955884
vn -0.293744 0.000000 0.955884
vn 0.008023 0.999964 0.002894
vn 0.007214 0.999966 0.004081
vn 0.006933 0.999969 0.003843
vn 0.007456 0.999968 0.002817
vn 0.370432 0.000000 -0.928860
vn 0.370432 0.000000 -0.928860
vn 0.650093 0.000000 -0.759854
vn 0.650093 0.000000 -0.759854
vn 0.008023 -0.999964 0.002893
vn 0.007456 -0.999968 0.002817
vn 0.006932 -0.999969 0.003843
vn 0.007214 -0.999966 0.004081
vn -0.293744 0.000000 0.955884
vn -0.293744 0.000000 0.955884
vn -0.227387 0.000000 0.973804
vn -0.227387 0.000000 0.973804
vn 0.000000 1.000000 0.000000
vn 0.000000 1.000000 0.000000
vn 0.002835 0.999996 0.000503
vn 0.002370 0.999997 0.000402
vn -0.839502 0.000000 -0.543357
vn -0.999845 0.000000 -0.017584
vn -0.999845 0.000000 -0.017584
vn -0.839502 0.000000 -0.543357
vn 0.000000 -1.000000 0.000000
vn 0.002370 -0.999997 0.000402
vn 0.002836 -0.999996 0.000503
vn 0.000000 -1.000000 0.000000
vn 0.007456 -0.999968 0.002817
vn 0.002836 -0.999996 0.000503
vn 0.002370 -0.999997 0.000402
vn 0.007149 -0.999971 0.002620
vn 0.006932 -0.999969 0.003843
vn 0.007456 -0.999968 0.002817
vn 0.007149 -0.999971 0.002620
vn 0.006765 -0.999970 0.003702
vn 0.787669 0.000000 0.616098
vn 0.787669 0.000000 0.616098
vn 0.650093 0.000000 -0.759854
vn 0.650093 0.000000 -0.759854
vn 0.007456 0.999968 0.002817
vn 0.006933 0.999969 0.003843
vn 0.006765 0.999970 0.003702
vn 0.007149 0.999971 0.002620
vn 0.002835 0.999996 0.000503
vn 0.007456 0.999968 0.002817
vn 0.007149 0.999971 0.002620
vn 0.002370 0.999997 0.000402
vn 0.000000 1.000000 0.000000
vn 0.000000 1.000000 0.000000
vn 0.000000 1.000000 0.000000
vn 0.000000 1.000000 0.000000
vn -0.854766 0.000000 0.519014
vn 0.192209 0.000000 0.981354
vn 0.192209 0.000000 0.981354
vn -0.854766 0.000000 0.519014
vn 0.000000 -1.000000 0.000000
vn 0.000000 -1.000000 0.000000
vn 0.000000 -1.000000 0.000000
vn 0.000000 -1.000000 0.000000
vn 0.000000 -1.000000 0.000000
vn 0.000000 -1.000000 0.000000
vn 0.000000 -1.000000 0.000000
vn 0.000000 -1.000000 0.000000
vn -0.839502 0.000000 -0.543357
vn -0.003071 0.000000 -0.999995
vn -0.003071 0.000000 -0.999995
vn -0.839502 0.000000 -0.543357
vn 0.000000 1.000000 0.000000
vn 0.000000 1.000000 0.000000
vn 0.000000 1.000000 0.000000
vn 0.000000 1.000000 0.000000
vn 0.000000 -1.000000 0.000000
vn 0.000000 -1.000000 0.000000
vn 0.000000 -1.000000 0.000000
vn 0.000000 -1.000000 0.000000
vn 0.192209 0.000000 0.981354
vn 0.192209 0.000000 0.981354
vn 0.210047 0.000000 0.977691
vn 0.210047 0.000000 0.977691
vn 0.000000 1.000000 0.000000
vn 0.000000 1.000000 0.000000
vn 0.000000 1.000000 0.000000
vn 0.000000 1.000000 0.000000
vn 0.000000 1.000000 0.000000
vn 0.000000 1.000000 0.000000
vn 0.000000 1.000000 0.000000
vn 0.000000 1.000000 0.000000
vn -0.003071 0.000000 -0.999995
vn -0.003071 0.000000 -0.999995
vn 0.122365 0.000000 -0.992485
vn 0.122365 0.000000 -0.992485
vn 0.000000 -1.000000 0.000000
vn 0.000000 -1.000000 0.000000
vn 0.000000 -1.000000 0.000000
vn 0.000000 -1.000000 0.000000
f 27/1/1 12/2/2 9/3/3 26/4/4
f 26/4/5 9/3/6 17/5/7 25/6/8
f 30/7/9 10/8/10 11/9/11 29/10/12
f 28/11/13 20/12/14 12/2/15 27/1/16
f 2/13/17 22/14/18 23/15/19 4/16/20
f 19/17/21 1/18/22 3/19/23 18/20/24
f 9/3/25 13/21/26 24/22/27 17/5/28
f 11/9/29 10/8/30 14/23/31 15/24/32
f 12/2/33 20/12/34 21/25/35 16/26/36
f 9/3/37 12/2/38 16/26/39 13/21/40
f 13/21/41 4/16/42 23/15/43 24/22/44
f 15/24/45 14/23/46 6/27/47 8/28/48
f 16/26/49 21/25/50 22/14/51 2/13/52
f 13/21/53 16/26/54 2/13/55 4/16/56
f 30/7/57 25/6/58 17/5/59 10/8/60
f 7/29/61 19/17/62 18/20/63 5/30/64
f 29/10/65 11/9/66 20/12/67 28/11/68
f 21/25/69 20/12/70 11/9/71 15/24/72
f 22/14/73 21/25/74 15/24/75 8/28/76
f 23/15/77 22/14/78 8/28/79 6/27/80
f 24/22/81 23/15/82 6/27/83 14/23/84
f 17/5/85 24/22/86 14/23/87 10/8/88
f 3/19/89 33/31/90 34/32/91 18/20/92
f 1/18/93 32/33/94 33/31/95 3/19/96
f 19/17/97 31/34/98 32/33/99 1/18/100
f 7/29/101 36/35/102 31/34/103 19/17/104
f 5/30/105 35/36/106 36/35/107 7/29/108
f 18/20/109 34/32/110 35/36/111 5/30/112
f 31/34/113 28/11/114 27/1/115 32/33/116
f 33/31/117 32/33/118 27/1/119 26/4/120
f 34/32/121 33/31/122 26/4/123 25/6/124
f 35/36/125 34/32/126 25/6/127 30/7/128
f 36/35/129 35/36/130 30/7/131 29/10/132
f 31/34/133 36/35/134 29/10/135 28/11/136
f 63/37/137 48/38/138 45/39/139 62/40/140
f 62/40/141 45/39/142 53/41/143 61/42/144
f 66/43/145 46/44/146 47/45/147 65/46/148
f 64/47/149 56/48/150 48/38/151 63/37/152
f 38/49/153 58/50/154 59/51/155 40/52/156
f 55/53/157 37/54/158 39/55/159 54/56/160
f 45/39/161 49/57/162 60/58/163 53/41/164
f 47/45/165 46/44/166 50/59/167 51/60/168
f 48/38/169 56/48/170 57/61/171 52/62/172
f 45/39/173 48/38/174 52/62/175 49/57/176
f 49/57/177 40/52/178 59/51/179 60/58/180
f 51/60/181 50/59/182 42/63/183 44/64/184
f 52/62/185 57/61/186 58/50/187 38/49/188
f 49/57/189 52/62/190 38/49/191 40/52/192
f 66/43/193 61/42/194 53/41/195 46/44/196
f 43/65/197 55/53/198 54/56/199 41/66/200
f 65/46/201 47/45/202 56/48/203 64/47/204
f 57/61/205 56/48/206 47/45/207 51/60/208
f 58/50/209 57/61/210 51/60/211 44/64/212
f 59/51/213 58/50/214 44/64/215 42/63/216
f 60/58/217 59/51/218 42/63/219 50/59/220
f 53/41/221 60/58/222 50/59/223 46/44/224
f 39/55/225 69/67/226 70/68/227 54/56/228
f 37/54/229 68/69/230 69/67/231 39/55/232
f 55/53/233 67/70/234 68/69/235 37/54/236
f 43/65/237 72/71/238 67/70/239 55/53/240
f 41/66/241 71/72/242 72/71/243 43/65/244
f 54/56/245 70/68/246 71/72/247 41/66/248
f 67/70/249 64/47/250 63/37/251 68/69/252
f 69/67/253 68/69/254 63/37/255 62/40/256
f 70/68/257 69/67/258 62/40/259 61/42/260
f 71/72/261 70/68/262 61/42/263 66/43/264
f 72/71/265 71/72/266 66/43/267 65/46/268
f 67/70/269 72/71/270 65/46/271 64/47/272
