# This file uses centimeters as units for non-parametric coordinates.

v -1.890678 0.000000 3.780277
v 1.890678 0.000000 3.780277
v -1.890678 15.111977 3.780277
v 1.890678 15.111977 3.780277
v -1.890678 15.111977 0.000000
v 1.890678 15.111977 0.000000
v -1.890682 0.000000 0.000000
vt 0.827601 0.662855
vt 0.864984 0.662855
vt 0.864984 0.685921
vt 0.827600 0.685921
vt 0.864984 0.708987
vt 0.827600 0.708987
vt 0.781052 0.685921
vt 0.781054 0.662855
vn 0.000000 0.000000 1.000000
vn 0.000000 0.000000 1.000000
vn 0.000000 0.000000 1.000000
vn 0.000000 0.000000 1.000000
vn 0.000000 1.000000 0.000000
vn 0.000000 1.000000 0.000000
vn 0.000000 1.000000 0.000000
vn 0.000000 1.000000 0.000000
vn -1.000000 0.000000 0.000001
vn -1.000000 0.000000 0.000001
vn -1.000000 0.000000 0.000001
vn -1.000000 0.000000 0.000001
f 1/1/1 2/2/2 4/3/3 3/4/4
f 3/4/5 4/3/6 6/5/7 5/6/8
f 3/4/9 5/7/10 7/8/11 1/1/12
