# This file uses centimeters as units for non-parametric coordinates.

v -1.890678 0.000000 3.780277
v 1.890678 0.000000 3.780277
v -1.890678 15.111977 3.780277
v 1.890678 15.111977 3.780277
v -1.890678 15.111977 0.000000
v 1.890678 15.111977 0.000000
v -1.890682 0.000000 0.000000
vt 0.577601 0.787855
vt 0.614984 0.787855
vt 0.614984 0.810921
vt 0.577600 0.810921
vt 0.614984 0.833987
vt 0.577600 0.833987
vt 0.531052 0.810921
vt 0.531054 0.787855
vn 0.000000 0.000000 1.000000
vn 0.000000 0.000000 1.000000
vn 0.000000 0.000000 1.000000
vn 0.000000 0.000000 1.000000
vn 0.000000 1.000000 0.000000
vn 0.000000 1.000000 0.000000
vn 0.000000 1.000000 0.000000
vn 0.000000 1.000000 0.000000
vn -1.000000 0.000000 0.000001
vn -1.000000 0.000000 0.000001
vn -1.000000 0.000000 0.000001
vn -1.000000 0.000000 0.000001
f 1/1/1 2/2/2 4/3/3 3/4/4
f 3/4/5 4/3/6 6/5/7 5/6/8
f 3/4/9 5/7/10 7/8/11 1/1/12
