# This file uses centimeters as units for non-parametric coordinates.

v 100.000000 0.000000 3.780277
v 38.886650 0.000000 3.780277
v 100.000000 15.111972 3.780277
v 38.886650 15.111972 3.780277
v 100.000000 15.111972 0.000000
v 38.252708 15.111972 0.000000
v 38.252708 0.000000 0.000000
vt 0.762833 0.654811
vt 0.762833 0.690526
vt 0.864983 0.690526
vt 0.864985 0.654811
vt 0.762833 0.726242
vt 0.864984 0.726242
vt 0.835171 0.690526
vt 0.835175 0.654811
vn 0.000000 0.000000 1.000000
vn 0.000000 0.000000 1.000000
vn 0.000000 0.000000 1.000000
vn 0.000000 0.000000 1.000000
vn 0.000000 1.000000 0.000000
vn 0.000000 1.000000 0.000000
vn 0.000000 1.000000 0.000000
vn 0.000000 1.000000 0.000000
vn -0.986229 0.000000 0.165388
vn -0.986229 0.000000 0.165388
vn -0.986229 0.000000 0.165388
vn -0.986229 0.000000 0.165388
f 1/1/1 3/2/2 4/3/3 2/4/4
f 3/2/5 5/5/6 6/6/7 4/3/8
f 4/3/9 6/7/10 7/8/11 2/4/12
