# This file uses centimeters as units for non-parametric coordinates.

v -100.000000 0.000000 3.780277
v -38.886650 0.000000 3.780277
v -100.000000 15.111972 3.780277
v -38.886650 15.111972 3.780277
v -100.000000 15.111972 0.000000
v -38.252708 15.111972 0.000000
v -38.252708 0.000000 0.000000
vt 0.887833 0.779811
vt 0.989985 0.779811
vt 0.989983 0.815526
vt 0.887833 0.815526
vt 0.989984 0.851242
vt 0.887833 0.851242
vt 0.960175 0.779811
vt 0.960171 0.815526
vn 0.000000 0.000000 1.000000
vn 0.000000 0.000000 1.000000
vn 0.000000 0.000000 1.000000
vn 0.000000 0.000000 1.000000
vn 0.000000 1.000000 0.000000
vn 0.000000 1.000000 0.000000
vn 0.000000 1.000000 0.000000
vn 0.000000 1.000000 0.000000
vn 0.986229 0.000000 0.165388
vn 0.986229 0.000000 0.165388
vn 0.986229 0.000000 0.165388
vn 0.986229 0.000000 0.165388
f 1/1/1 2/2/2 4/3/3 3/4/4
f 3/4/5 4/3/6 6/5/7 5/6/8
f 4/3/9 2/2/10 7/7/11 6/8/12
