# This file uses centimeters as units for non-parametric coordinates.

v -100.000000 0.000000 3.780277
v 100.000000 0.000000 3.780277
v -100.000000 15.111977 3.780277
v 100.000000 15.111977 3.780277
v -100.000000 15.111977 0.000000
v 100.000000 15.111977 0.000000
vt 0.887833 0.779811
vt 0.989984 0.779811
vt 0.989984 0.815526
vt 0.887833 0.815526
vt 0.989984 0.851242
vt 0.887833 0.851242
vn 0.000000 0.000000 1.000000
vn 0.000000 0.000000 1.000000
vn 0.000000 0.000000 1.000000
vn 0.000000 0.000000 1.000000
vn 0.000000 1.000000 0.000000
vn 0.000000 1.000000 0.000000
vn 0.000000 1.000000 0.000000
vn 0.000000 1.000000 0.000000
f 1/1/1 2/2/2 4/3/3 3/4/4
f 3/4/5 4/3/6 6/5/7 5/6/8
