# This file uses centimeters as units for non-parametric coordinates.

v 100.000000 0.000000 3.780277
v -26.961601 0.000000 3.780277
v 100.000000 15.111972 3.780277
v -26.961601 15.111972 3.780277
v 100.000000 15.111972 0.000000
v -27.595541 15.111972 0.000000
v -27.595541 0.000000 0.000000
vt 0.637833 0.779811
vt 0.637833 0.815526
vt 0.739983 0.815526
vt 0.739985 0.779811
vt 0.637833 0.851242
vt 0.739984 0.851242
vt 0.710171 0.815526
vt 0.710175 0.779811
vn 0.000000 0.000000 1.000000
vn 0.000000 0.000000 1.000000
vn 0.000000 0.000000 1.000000
vn 0.000000 0.000000 1.000000
vn 0.000000 1.000000 0.000000
vn 0.000000 1.000000 0.000000
vn 0.000000 1.000000 0.000000
vn 0.000000 1.000000 0.000000
vn -0.986229 0.000000 0.165387
vn -0.986229 0.000000 0.165387
vn -0.986229 0.000000 0.165387
vn -0.986229 0.000000 0.165387
f 1/1/1 3/2/2 4/3/3 2/4/4
f 3/2/5 5/5/6 6/6/7 4/3/8
f 4/3/9 6/7/10 7/8/11 2/4/12
