# This file uses centimeters as units for non-parametric coordinates.

v -100.000000 157.874191 3.780277
v -100.000000 168.853714 3.780277
v -100.000000 168.853714 0.000000
v -100.000000 157.874191 0.000000
v -72.337929 157.874191 0.000000
v -75.028915 157.874191 3.780277
v -75.028915 168.853714 3.780277
v -72.337929 168.853714 0.000000
v 100.000000 157.874207 3.780277
v 100.000000 168.853714 3.780277
v 100.000000 168.853714 0.000000
v 100.000000 157.874207 0.000000
v 72.337929 157.874207 0.000000
v 75.028923 157.874207 3.780277
v 75.028923 168.853714 3.780277
v 72.337929 168.853714 0.000000
vt 0.636092 0.678978
vt 0.735634 0.678978
vt 0.735634 0.714590
vt 0.636092 0.714590
vt 0.734472 0.732783
vt 0.636092 0.732783
vt 0.636092 0.660785
vt 0.734472 0.660785
vt 0.704362 0.714590
vt 0.704362 0.678978
vt 0.636092 0.714590
vt 0.636092 0.678978
vt 0.735634 0.678978
vt 0.735634 0.714590
vt 0.636092 0.660785
vt 0.734472 0.660785
vt 0.636092 0.732783
vt 0.734472 0.732783
vt 0.704362 0.678978
vt 0.704362 0.714590
vn 0.000000 0.000000 1.000000
vn 0.135401 0.000000 0.990791
vn 0.135401 0.000000 0.990791
vn 0.000000 0.000000 1.000000
vn 0.000000 1.000000 -0.000005
vn 0.000000 1.000000 -0.000005
vn 0.000000 1.000000 -0.000005
vn 0.000000 1.000000 -0.000005
vn 0.000000 -1.000000 0.000002
vn 0.000000 -1.000000 0.000002
vn 0.000000 -1.000000 0.000002
vn 0.000000 -1.000000 0.000002
vn 0.814671 0.000000 0.579923
vn 0.135401 0.000000 0.990791
vn 0.135401 0.000000 0.990791
vn 0.814671 0.000000 0.579923
vn 0.000000 0.000000 1.000000
vn 0.000000 0.000000 1.000000
vn -0.135401 0.000000 0.990791
vn -0.135401 0.000000 0.990791
vn 0.000000 1.000000 0.000000
vn 0.000000 1.000000 0.000000
vn 0.000000 1.000000 0.000000
vn 0.000000 1.000000 0.000000
vn 0.000000 -1.000000 0.000000
vn 0.000000 -1.000000 0.000000
vn 0.000000 -1.000000 0.000000
vn 0.000000 -1.000000 0.000000
vn -0.814671 0.000000 0.579924
vn -0.814671 0.000000 0.579924
vn -0.135401 0.000000 0.990791
vn -0.135401 0.000000 0.990791
f 1/1/1 6/2/2 7/3/3 2/4/4
f 2/4/5 7/3/6 8/5/7 3/6/8
f 4/7/9 5/8/10 6/2/11 1/1/12
f 8/9/13 7/3/14 6/2/15 5/10/16
f 9/11/17 10/12/18 15/13/19 14/14/20
f 10/12/21 11/15/22 16/16/23 15/13/24
f 12/17/25 9/11/26 14/14/27 13/18/28
f 16/19/29 13/20/30 14/14/31 15/13/32
