# This file uses centimeters as units for non-parametric coordinates.

v -100.000000 157.874191 3.780277
v -100.000000 168.853714 3.780277
v -100.000000 168.853714 0.000000
v -100.000000 157.874191 0.000000
v 28.686295 157.874191 0.000000
v 25.530067 157.874191 3.780277
v 25.530067 168.853714 3.780277
v 28.686295 168.853714 0.000000
vt 0.511092 0.678978
vt 0.618648 0.678978
vt 0.618648 0.714590
vt 0.511092 0.714590
vt 0.619622 0.732783
vt 0.511092 0.732783
vt 0.511092 0.660785
vt 0.619622 0.660785
vt 0.598548 0.714590
vt 0.598548 0.678978
vn 0.000000 0.000000 1.000000
vn 0.029363 0.000000 0.999569
vn 0.029363 0.000000 0.999569
vn 0.000000 0.000000 1.000000
vn 0.000000 1.000000 -0.000004
vn 0.000000 1.000000 -0.000004
vn 0.000000 1.000000 -0.000004
vn 0.000000 1.000000 -0.000004
vn 0.000000 -1.000000 0.000000
vn 0.000000 -1.000000 0.000000
vn 0.000000 -1.000000 0.000000
vn 0.000000 -1.000000 0.000000
vn 0.767622 0.000000 0.640903
vn 0.029363 0.000000 0.999569
vn 0.029363 0.000000 0.999569
vn 0.767622 0.000000 0.640903
f 1/1/1 6/2/2 7/3/3 2/4/4
f 2/4/5 7/3/6 8/5/7 3/6/8
f 4/7/9 5/8/10 6/2/11 1/1/12
f 8/9/13 7/3/14 6/2/15 5/10/16
