# This file uses centimeters as units for non-parametric coordinates.

v -100.000000 400.000000 13.185528
v 100.000000 400.000000 13.185528
v -100.000000 377.368835 3.780277
v 100.000000 377.368835 3.780277
v -100.000000 377.368835 0.000000
v 100.000000 377.368835 0.000000
v -100.000000 392.450012 5.726432
v 100.000000 392.450012 5.726432
vt 0.989984 0.772197
vt 0.989984 0.804914
vt 0.887833 0.804914
vt 0.887833 0.772197
vt 0.989984 0.836710
vt 0.989984 0.859776
vt 0.887833 0.859776
vt 0.887833 0.836710
vn 0.000000 -0.702811 0.711376
vn 0.000000 -0.383767 0.923430
vn 0.000000 -0.383767 0.923430
vn 0.000000 -0.702811 0.711376
vn 0.000000 -1.000000 0.000000
vn 0.000000 -1.000000 0.000000
vn 0.000000 -1.000000 0.000000
vn 0.000000 -1.000000 0.000000
vn 0.000000 -0.383767 0.923430
vn 0.000000 -0.127984 0.991776
vn 0.000000 -0.127984 0.991776
vn 0.000000 -0.383767 0.923430
f 1/1/1 7/2/2 8/3/3 2/4/4
f 3/5/5 5/6/6 6/7/7 4/8/8
f 7/2/9 3/5/10 4/8/11 8/3/12
