# This file uses centimeters as units for non-parametric coordinates.

v -100.000000 7.398331 1.939705
v -100.000000 13.993851 1.939705
v 99.999992 7.398331 1.939705
v 99.999992 13.993851 1.939705
v 99.999992 7.398331 -23.484375
v 99.999992 13.993851 -23.484375
v -100.000000 7.398331 -23.484375
v -100.000000 13.993851 -23.484375
v -100.000000 386.008179 1.939705
v -100.000000 392.603699 1.939705
v 99.999992 386.008179 1.939705
v 99.999992 392.603699 1.939705
v 99.999992 386.008179 -23.484375
v 99.999992 392.603699 -23.484375
v -100.000000 386.008179 -23.484375
v -100.000000 392.603699 -23.484375
vt 0.868686 0.717511
vt 0.759458 0.717511
vt 0.759458 0.739460
vt 0.868686 0.739460
vt 0.759458 0.677820
vt 0.868686 0.677820
vt 0.868686 0.677627
vt 0.759458 0.677627
vt 0.759458 0.739460
vt 0.868686 0.739460
vt 0.868686 0.717511
vt 0.759458 0.717511
vt 0.759458 0.739460
vt 0.868686 0.739460
vt 0.759458 0.677820
vt 0.868686 0.677820
vt 0.868686 0.677627
vt 0.759458 0.677627
vt 0.759458 0.739460
vt 0.868686 0.739460
vn 0.000000 0.000000 1.000000
vn 0.000000 0.000000 1.000000
vn 0.000000 0.000000 1.000000
vn 0.000000 0.000000 1.000000
vn 0.000000 1.000000 0.000000
vn 0.000000 1.000000 0.000000
vn 0.000000 1.000000 0.000000
vn 0.000000 1.000000 0.000000
vn 0.000000 -1.000000 0.000000
vn 0.000000 -1.000000 0.000000
vn 0.000000 -1.000000 0.000000
vn 0.000000 -1.000000 0.000000
vn 0.000000 0.000000 -1.000000
vn 0.000000 0.000000 -1.000000
vn 0.000000 0.000000 -1.000000
vn 0.000000 0.000000 -1.000000
vn 0.000000 0.000000 1.000000
vn 0.000000 0.000000 1.000000
vn 0.000000 0.000000 1.000000
vn 0.000000 0.000000 1.000000
vn 0.000000 1.000000 0.000000
vn 0.000000 1.000000 0.000000
vn 0.000000 1.000000 0.000000
vn 0.000000 1.000000 0.000000
vn 0.000000 -1.000000 0.000000
vn 0.000000 -1.000000 0.000000
vn 0.000000 -1.000000 0.000000
vn 0.000000 -1.000000 0.000000
vn 0.000000 0.000000 -1.000000
vn 0.000000 0.000000 -1.000000
vn 0.000000 0.000000 -1.000000
vn 0.000000 0.000000 -1.000000
f 1/1/1 3/2/2 4/3/3 2/4/4
f 2/4/5 4/3/6 6/5/7 8/6/8
f 7/7/9 5/8/10 3/2/11 1/1/12
f 8/6/13 6/5/14 5/9/15 7/10/16
f 9/11/17 11/12/18 12/13/19 10/14/20
f 10/14/21 12/13/22 14/15/23 16/16/24
f 15/17/25 13/18/26 11/12/27 9/11/28
f 16/16/29 14/15/30 13/19/31 15/20/32
