# This file uses centimeters as units for non-parametric coordinates.

v 27.499596 0.000000 1.939705
v 34.095100 0.000000 1.939705
v 27.499588 342.294800 1.939705
v 34.095093 342.294800 1.939705
v 27.499588 342.294800 -23.484375
v 34.095093 342.294800 -23.484375
v 27.499596 0.000000 -23.484375
v 34.095100 0.000000 -23.484375
v 34.095093 335.699280 1.939705
v 34.095085 342.294800 1.939705
v 34.095093 335.699280 -23.484375
v 34.095085 342.294800 -23.484375
v 100.000000 335.699280 1.939705
v 100.000000 342.294800 1.939705
v 100.000000 342.294800 -23.484375
v 100.000000 335.699280 -23.484375
vt 0.989140 0.710931
vt 0.989140 0.726281
vt 0.886691 0.726281
vt 0.886691 0.710932
vt 0.906640 0.726281
vt 0.906640 0.710931
vt 0.968364 0.710931
vt 0.968364 0.726281
vt 0.989137 0.674281
vt 0.886694 0.674281
vt 0.989140 0.674344
vt 0.886691 0.674344
vt 0.989140 0.710931
vt 0.937916 0.710931
vt 0.937916 0.726281
vt 0.989140 0.726281
vt 0.937916 0.674281
vt 0.989137 0.674281
vt 0.989140 0.674344
vt 0.937916 0.674344
vt 0.989134 0.658226
vt 0.886698 0.658226
vt 0.937916 0.726292
vt 0.989134 0.726293
vn 0.000000 0.000000 1.000000
vn 0.000000 0.000000 1.000000
vn 0.000000 0.000000 1.000000
vn 0.000000 0.000000 1.000000
vn 0.000000 1.000000 0.000000
vn 0.000000 1.000000 0.000000
vn 0.000000 1.000000 0.000000
vn 0.000000 1.000000 0.000000
vn 0.000000 -1.000000 0.000000
vn 0.000000 -1.000000 0.000000
vn 0.000000 -1.000000 0.000000
vn 0.000000 -1.000000 0.000000
vn 1.000000 0.000000 0.000000
vn 1.000000 0.000000 0.000000
vn 1.000000 0.000000 0.000000
vn 1.000000 0.000000 0.000000
vn -1.000000 0.000000 0.000000
vn -1.000000 0.000000 0.000000
vn -1.000000 0.000000 0.000000
vn -1.000000 0.000000 0.000000
vn 0.000000 0.000000 1.000000
vn 0.000000 0.000000 1.000000
vn 0.000000 0.000000 1.000000
vn 0.000000 0.000000 1.000000
vn 0.000000 1.000000 0.000000
vn 0.000000 1.000000 0.000000
vn 0.000000 1.000000 0.000000
vn 0.000000 1.000000 0.000000
vn 0.000000 -1.000000 0.000000
vn 0.000000 -1.000000 0.000000
vn 0.000000 -1.000000 0.000000
vn 0.000000 -1.000000 0.000000
vn 0.000000 0.000000 -1.000000
vn 0.000000 0.000000 -1.000000
vn 0.000000 0.000000 -1.000000
vn 0.000000 0.000000 -1.000000
vn 0.000000 0.000000 -1.000000
vn 0.000000 0.000000 -1.000000
vn 0.000000 0.000000 -1.000000
vn 0.000000 0.000000 -1.000000
f 1/1/1 2/2/2 4/3/3 3/4/4
f 3/4/5 4/3/6 6/5/7 5/6/8
f 7/7/9 8/8/10 2/2/11 1/1/12
f 2/2/13 8/9/14 6/10/15 4/3/16
f 7/11/17 1/1/18 3/4/19 5/12/20
f 9/13/21 13/14/22 14/15/23 10/16/24
f 10/16/25 14/15/26 15/17/27 12/18/28
f 11/19/29 16/20/30 13/14/31 9/13/32
f 6/10/33 8/9/34 7/21/35 5/22/36
f 12/18/37 15/17/38 16/23/39 11/24/40
