# This file uses centimeters as units for non-parametric coordinates.

v -88.371422 151.099960 1.939705
v -81.775917 151.099960 1.939705
v -88.371422 339.879242 1.939705
v -81.775917 339.879242 1.939705
v -88.371422 339.879242 -23.484375
v -81.775917 339.879242 -23.484375
v -88.371422 151.099960 -23.484375
v -81.775917 151.099960 -23.484375
v -81.775917 333.283722 1.939705
v -81.775925 339.879242 1.939705
v 81.775925 333.283722 1.939705
v 81.775925 339.879242 1.939705
v 81.775925 333.283722 -23.484375
v 81.775925 339.879242 -23.484375
v -81.775932 333.283722 -23.484375
v -81.775925 339.879242 -23.484375
v 88.371429 151.099960 1.939705
v 81.775917 151.099960 1.939705
v 88.371429 339.879242 1.939705
v 81.775917 339.879242 1.939705
v 88.371429 339.879242 -23.484375
v 81.775917 339.879242 -23.484375
v 88.371429 151.099960 -23.484375
v 81.775917 151.099960 -23.484375
v -81.775917 151.099960 1.939705
v -81.775925 157.695480 1.939705
v 81.775925 151.099991 1.939705
v 81.775925 157.695480 1.939705
v 81.775925 151.099991 -23.484375
v 81.775925 157.695480 -23.484375
v -81.775917 151.099960 -23.484375
v -81.775925 157.695480 -23.484375
vt 0.741790 0.826405
vt 0.741790 0.844975
vt 0.630443 0.844975
vt 0.630443 0.826405
vt 0.659452 0.844975
vt 0.659452 0.826405
vt 0.712781 0.826405
vt 0.712781 0.844975
vt 0.741790 0.797795
vt 0.630443 0.797795
vt 0.741790 0.797667
vt 0.630443 0.797667
vt 0.741790 0.826405
vt 0.630443 0.826405
vt 0.630443 0.844975
vt 0.741790 0.844975
vt 0.630443 0.797795
vt 0.741790 0.797795
vt 0.741790 0.797667
vt 0.630443 0.797667
vt 0.741790 0.826405
vt 0.630443 0.826405
vt 0.630443 0.844975
vt 0.741790 0.844975
vt 0.659452 0.826405
vt 0.659452 0.844975
vt 0.712781 0.826405
vt 0.712781 0.844975
vt 0.630443 0.797795
vt 0.741790 0.797795
vt 0.741790 0.797667
vt 0.630443 0.797667
vt 0.741790 0.826405
vt 0.630443 0.826405
vt 0.630443 0.844975
vt 0.741790 0.844975
vt 0.630443 0.797795
vt 0.741790 0.797795
vt 0.741790 0.797667
vt 0.630443 0.797667
vt 0.630443 0.844975
vt 0.741790 0.844975
vt 0.630443 0.844975
vt 0.741790 0.844975
vt 0.630443 0.844975
vt 0.741790 0.844975
vt 0.741790 0.779394
vt 0.630443 0.779394
vn 0.000000 0.000000 1.000000
vn 0.000000 0.000000 1.000000
vn 0.000000 0.000000 1.000000
vn 0.000000 0.000000 1.000000
vn 0.000000 1.000000 0.000000
vn 0.000000 1.000000 0.000000
vn 0.000000 1.000000 0.000000
vn 0.000000 1.000000 0.000000
vn 0.000000 -1.000000 0.000000
vn 0.000000 -1.000000 0.000000
vn 0.000000 -1.000000 0.000000
vn 0.000000 -1.000000 0.000000
vn 1.000000 0.000000 0.000000
vn 1.000000 0.000000 0.000000
vn 1.000000 0.000000 0.000000
vn 1.000000 0.000000 0.000000
vn -1.000000 0.000000 0.000000
vn -1.000000 0.000000 0.000000
vn -1.000000 0.000000 0.000000
vn -1.000000 0.000000 0.000000
vn 0.000000 0.000000 1.000000
vn 0.000000 0.000000 1.000000
vn 0.000000 0.000000 1.000000
vn 0.000000 0.000000 1.000000
vn 0.000000 1.000000 0.000000
vn 0.000000 1.000000 0.000000
vn 0.000000 1.000000 0.000000
vn 0.000000 1.000000 0.000000
vn 0.000000 -1.000000 0.000001
vn 0.000000 -1.000000 0.000001
vn 0.000000 -1.000000 0.000001
vn 0.000000 -1.000000 0.000001
vn 0.000000 0.000000 1.000000
vn 0.000000 0.000000 1.000000
vn 0.000000 0.000000 1.000000
vn 0.000000 0.000000 1.000000
vn 0.000000 1.000000 0.000000
vn 0.000000 1.000000 0.000000
vn 0.000000 1.000000 0.000000
vn 0.000000 1.000000 0.000000
vn 0.000000 -1.000000 0.000000
vn 0.000000 -1.000000 0.000000
vn 0.000000 -1.000000 0.000000
vn 0.000000 -1.000000 0.000000
vn -1.000000 0.000000 0.000000
vn -1.000000 0.000000 0.000000
vn -1.000000 0.000000 0.000000
vn -1.000000 0.000000 0.000000
vn 1.000000 0.000000 0.000000
vn 1.000000 0.000000 0.000000
vn 1.000000 0.000000 0.000000
vn 1.000000 0.000000 0.000000
vn 0.000000 0.000000 1.000000
vn 0.000000 0.000000 1.000000
vn 0.000000 0.000000 1.000000
vn 0.000000 0.000000 1.000000
vn 0.000000 1.000000 0.000000
vn 0.000000 1.000000 0.000000
vn 0.000000 1.000000 0.000000
vn 0.000000 1.000000 0.000000
vn 0.000000 -1.000000 0.000000
vn 0.000000 -1.000000 0.000000
vn 0.000000 -1.000000 0.000000
vn 0.000000 -1.000000 0.000000
vn 0.000000 0.000000 -1.000000
vn 0.000000 0.000000 -1.000000
vn 0.000000 0.000000 -1.000000
vn 0.000000 0.000000 -1.000000
vn 0.000000 0.000000 -1.000000
vn 0.000000 0.000000 -1.000000
vn 0.000000 0.000000 -1.000000
vn 0.000000 0.000000 -1.000000
vn 0.000000 0.000000 -1.000000
vn 0.000000 0.000000 -1.000000
vn 0.000000 0.000000 -1.000000
vn 0.000000 0.000000 -1.000000
vn 0.000000 0.000000 -1.000000
vn 0.000000 0.000000 -1.000000
vn 0.000000 0.000000 -1.000000
vn 0.000000 0.000000 -1.000000
f 1/1/1 2/2/2 4/3/3 3/4/4
f 3/4/5 4/3/6 6/5/7 5/6/8
f 7/7/9 8/8/10 2/2/11 1/1/12
f 2/2/13 8/9/14 6/10/15 4/3/16
f 7/11/17 1/1/18 3/4/19 5/12/20
f 9/13/21 11/14/22 12/15/23 10/16/24
f 10/16/25 12/15/26 14/17/27 16/18/28
f 15/19/29 13/20/30 11/14/31 9/13/32
f 17/21/33 19/22/34 20/23/35 18/24/36
f 19/22/37 21/25/38 22/26/39 20/23/40
f 23/27/41 17/21/42 18/24/43 24/28/44
f 18/24/45 20/23/46 22/29/47 24/30/48
f 23/31/49 21/32/50 19/22/51 17/21/52
f 25/33/53 27/34/54 28/35/55 26/36/56
f 26/36/57 28/35/58 30/37/59 32/38/60
f 31/39/61 29/40/62 27/34/63 25/33/64
f 16/18/65 14/17/66 13/41/67 15/42/68
f 29/43/69 31/44/70 32/38/71 30/37/72
f 24/30/73 22/29/74 21/45/75 23/46/76
f 6/10/77 8/9/78 7/47/79 5/48/80
