# This file uses centimeters as units for non-parametric coordinates.

v -100.000000 335.699280 1.939705
v -100.000000 342.294800 1.939705
v 99.999992 335.699280 1.939705
v 99.999992 342.294800 1.939705
v 99.999992 335.699280 -23.484375
v 99.999992 342.294800 -23.484375
v -100.000000 335.699280 -23.484375
v -100.000000 342.294800 -23.484375
vt 0.993686 0.717511
vt 0.884458 0.717511
vt 0.884458 0.739460
vt 0.993686 0.739460
vt 0.884458 0.677820
vt 0.993686 0.677820
vt 0.993686 0.677627
vt 0.884458 0.677627
vt 0.884458 0.739460
vt 0.993686 0.739460
vn 0.000000 0.000000 1.000000
vn 0.000000 0.000000 1.000000
vn 0.000000 0.000000 1.000000
vn 0.000000 0.000000 1.000000
vn 0.000000 1.000000 0.000000
vn 0.000000 1.000000 0.000000
vn 0.000000 1.000000 0.000000
vn 0.000000 1.000000 0.000000
vn 0.000000 -1.000000 0.000000
vn 0.000000 -1.000000 0.000000
vn 0.000000 -1.000000 0.000000
vn 0.000000 -1.000000 0.000000
vn 0.000000 0.000000 -1.000000
vn 0.000000 0.000000 -1.000000
vn 0.000000 0.000000 -1.000000
vn 0.000000 0.000000 -1.000000
f 1/1/1 3/2/2 4/3/3 2/4/4
f 2/4/5 4/3/6 6/5/7 8/6/8
f 7/7/9 5/8/10 3/2/11 1/1/12
f 8/6/13 6/5/14 5/9/15 7/10/16
