# This file uses centimeters as units for non-parametric coordinates.

v -72.500404 0.000000 1.939705
v -65.904900 0.000000 1.939705
v -72.500412 342.294800 1.939705
v -65.904907 342.294800 1.939705
v -72.500412 342.294800 -23.484375
v -65.904907 342.294800 -23.484375
v -72.500404 0.000000 -23.484375
v -65.904900 0.000000 -23.484375
v -65.904907 335.699280 1.939705
v -65.904915 342.294800 1.939705
v 65.904915 335.699280 1.939705
v 65.904907 342.294800 1.939705
v 65.904907 335.699280 -23.484375
v 65.904907 342.294800 -23.484375
v -65.904907 335.699280 -23.484375
v -65.904915 342.294800 -23.484375
v 72.500412 0.000000 1.939705
v 65.904900 0.000000 1.939705
v 72.500420 342.294800 1.939705
v 65.904907 342.294800 1.939705
v 72.500420 342.294800 -23.484375
v 65.904907 342.294800 -23.484375
v 72.500412 0.000000 -23.484375
v 65.904900 0.000000 -23.484375
vt 0.739140 0.835931
vt 0.739140 0.851281
vt 0.636691 0.851281
vt 0.636691 0.835932
vt 0.656640 0.851281
vt 0.656640 0.835931
vt 0.718364 0.835931
vt 0.718364 0.851281
vt 0.739137 0.799281
vt 0.636694 0.799281
vt 0.739140 0.799344
vt 0.636691 0.799344
vt 0.739140 0.835931
vt 0.636691 0.835932
vt 0.636691 0.851281
vt 0.739140 0.851281
vt 0.636694 0.799281
vt 0.739137 0.799281
vt 0.739140 0.799344
vt 0.636691 0.799344
vt 0.739140 0.835931
vt 0.636691 0.835932
vt 0.636691 0.851281
vt 0.739140 0.851281
vt 0.656640 0.835931
vt 0.656640 0.851281
vt 0.718364 0.835931
vt 0.718364 0.851281
vt 0.636694 0.799281
vt 0.739137 0.799281
vt 0.739140 0.799344
vt 0.636691 0.799344
vt 0.636698 0.851292
vt 0.739134 0.851293
vt 0.739134 0.783226
vt 0.636698 0.783226
vt 0.636698 0.851292
vt 0.739134 0.851293
vn 0.000000 0.000000 1.000000
vn 0.000000 0.000000 1.000000
vn 0.000000 0.000000 1.000000
vn 0.000000 0.000000 1.000000
vn 0.000000 1.000000 0.000000
vn 0.000000 1.000000 0.000000
vn 0.000000 1.000000 0.000000
vn 0.000000 1.000000 0.000000
vn 0.000000 -1.000000 0.000000
vn 0.000000 -1.000000 0.000000
vn 0.000000 -1.000000 0.000000
vn 0.000000 -1.000000 0.000000
vn 1.000000 0.000000 0.000000
vn 1.000000 0.000000 0.000000
vn 1.000000 0.000000 0.000000
vn 1.000000 0.000000 0.000000
vn -1.000000 0.000000 0.000000
vn -1.000000 0.000000 0.000000
vn -1.000000 0.000000 0.000000
vn -1.000000 0.000000 0.000000
vn 0.000000 0.000000 1.000000
vn 0.000000 0.000000 1.000000
vn 0.000000 0.000000 1.000000
vn 0.000000 0.000000 1.000000
vn 0.000000 1.000000 0.000000
vn 0.000000 1.000000 0.000000
vn 0.000000 1.000000 0.000000
vn 0.000000 1.000000 0.000000
vn 0.000000 -1.000000 -0.000001
vn 0.000000 -1.000000 -0.000001
vn 0.000000 -1.000000 -0.000001
vn 0.000000 -1.000000 -0.000001
vn 0.000000 0.000000 1.000000
vn 0.000000 0.000000 1.000000
vn 0.000000 0.000000 1.000000
vn 0.000000 0.000000 1.000000
vn 0.000000 1.000000 0.000000
vn 0.000000 1.000000 0.000000
vn 0.000000 1.000000 0.000000
vn 0.000000 1.000000 0.000000
vn 0.000000 -1.000000 0.000000
vn 0.000000 -1.000000 0.000000
vn 0.000000 -1.000000 0.000000
vn 0.000000 -1.000000 0.000000
vn -1.000000 0.000000 0.000000
vn -1.000000 0.000000 0.000000
vn -1.000000 0.000000 0.000000
vn -1.000000 0.000000 0.000000
vn 1.000000 -0.000000 0.000000
vn 1.000000 -0.000000 0.000000
vn 1.000000 -0.000000 0.000000
vn 1.000000 -0.000000 0.000000
vn 0.000000 0.000000 -1.000000
vn 0.000000 0.000000 -1.000000
vn 0.000000 0.000000 -1.000000
vn 0.000000 0.000000 -1.000000
vn 0.000000 0.000000 -1.000000
vn 0.000000 0.000000 -1.000000
vn 0.000000 0.000000 -1.000000
vn 0.000000 0.000000 -1.000000
vn 0.000000 0.000000 -1.000000
vn 0.000000 0.000000 -1.000000
vn 0.000000 0.000000 -1.000000
vn 0.000000 0.000000 -1.000000
f 1/1/1 2/2/2 4/3/3 3/4/4
f 3/4/5 4/3/6 6/5/7 5/6/8
f 7/7/9 8/8/10 2/2/11 1/1/12
f 2/2/13 8/9/14 6/10/15 4/3/16
f 7/11/17 1/1/18 3/4/19 5/12/20
f 9/13/21 11/14/22 12/15/23 10/16/24
f 10/16/25 12/15/26 14/17/27 16/18/28
f 15/19/29 13/20/30 11/14/31 9/13/32
f 17/21/33 19/22/34 20/23/35 18/24/36
f 19/22/37 21/25/38 22/26/39 20/23/40
f 23/27/41 17/21/42 18/24/43 24/28/44
f 18/24/45 20/23/46 22/29/47 24/30/48
f 23/31/49 21/32/50 19/22/51 17/21/52
f 24/30/53 22/29/54 21/33/55 23/34/56
f 6/10/57 8/9/58 7/35/59 5/36/60
f 16/18/61 14/17/62 13/37/63 15/38/64
