# This file uses centimeters as units for non-parametric coordinates.

v 11.628578 7.398331 1.939705
v 18.224083 7.398331 1.939705
v 11.628578 392.603699 1.939705
v 18.224083 392.603699 1.939705
v 11.628578 392.603699 -23.484375
v 18.224083 392.603699 -23.484375
v 11.628578 7.398331 -23.484375
v 18.224083 7.398331 -23.484375
v 18.224083 386.008179 1.939705
v 18.224075 392.603699 1.939705
v 18.224068 386.008179 -23.484375
v 18.224075 392.603699 -23.484375
v 18.224083 7.398331 1.939705
v 18.224075 13.993851 1.939705
v 18.224083 7.398331 -23.484375
v 18.224075 13.993851 -23.484375
v 100.000000 386.008179 1.939705
v 100.000000 392.603699 1.939705
v 100.000000 392.603699 -23.484375
v 100.000000 386.008179 -23.484375
v 100.000000 7.398346 1.939705
v 100.000000 13.993851 1.939705
v 100.000000 13.993851 -23.484375
v 100.000000 7.398346 -23.484375
vt 0.991790 0.701405
vt 0.991790 0.719975
vt 0.880443 0.719975
vt 0.880443 0.701405
vt 0.909452 0.719975
vt 0.909452 0.701405
vt 0.962781 0.701405
vt 0.962781 0.719975
vt 0.991790 0.672795
vt 0.880443 0.672795
vt 0.991790 0.672667
vt 0.880443 0.672667
vt 0.991790 0.701405
vt 0.936117 0.701405
vt 0.936117 0.719975
vt 0.991790 0.719975
vt 0.936117 0.672795
vt 0.991790 0.672795
vt 0.991790 0.672667
vt 0.936117 0.672667
vt 0.991790 0.701405
vt 0.936117 0.701405
vt 0.936117 0.719975
vt 0.991790 0.719975
vt 0.936117 0.672795
vt 0.991790 0.672795
vt 0.991790 0.672667
vt 0.936117 0.672667
vt 0.936117 0.719975
vt 0.991790 0.719975
vt 0.936117 0.719975
vt 0.991790 0.719975
vt 0.991790 0.654394
vt 0.880443 0.654394
vn 0.000000 0.000000 1.000000
vn 0.000000 0.000000 1.000000
vn 0.000000 0.000000 1.000000
vn 0.000000 0.000000 1.000000
vn 0.000000 1.000000 0.000000
vn 0.000000 1.000000 0.000000
vn 0.000000 1.000000 0.000000
vn 0.000000 1.000000 0.000000
vn 0.000000 -1.000000 0.000000
vn 0.000000 -1.000000 0.000000
vn 0.000000 -1.000000 0.000000
vn 0.000000 -1.000000 0.000000
vn 1.000000 0.000000 0.000000
vn 1.000000 0.000000 0.000000
vn 1.000000 0.000000 0.000000
vn 1.000000 0.000000 0.000000
vn -1.000000 0.000000 0.000000
vn -1.000000 0.000000 0.000000
vn -1.000000 0.000000 0.000000
vn -1.000000 0.000000 0.000000
vn 0.000000 0.000000 1.000000
vn 0.000000 0.000000 1.000000
vn 0.000000 0.000000 1.000000
vn 0.000000 0.000000 1.000000
vn 0.000000 1.000000 0.000000
vn 0.000000 1.000000 0.000000
vn 0.000000 1.000000 0.000000
vn 0.000000 1.000000 0.000000
vn 0.000000 -1.000000 0.000000
vn 0.000000 -1.000000 0.000000
vn 0.000000 -1.000000 0.000000
vn 0.000000 -1.000000 0.000000
vn 0.000000 0.000000 1.000000
vn 0.000000 0.000000 1.000000
vn 0.000000 0.000000 1.000000
vn 0.000000 0.000000 1.000000
vn 0.000000 1.000000 0.000000
vn 0.000000 1.000000 0.000000
vn 0.000000 1.000000 0.000000
vn 0.000000 1.000000 0.000000
vn 0.000000 -1.000000 0.000000
vn 0.000000 -1.000000 0.000000
vn 0.000000 -1.000000 0.000000
vn 0.000000 -1.000000 0.000000
vn 0.000000 0.000000 -1.000000
vn 0.000000 0.000000 -1.000000
vn 0.000000 0.000000 -1.000000
vn 0.000000 0.000000 -1.000000
vn 0.000000 0.000000 -1.000000
vn 0.000000 0.000000 -1.000000
vn 0.000000 0.000000 -1.000000
vn 0.000000 0.000000 -1.000000
vn 0.000000 0.000000 -1.000000
vn 0.000000 0.000000 -1.000000
vn 0.000000 0.000000 -1.000000
vn 0.000000 0.000000 -1.000000
f 1/1/1 2/2/2 4/3/3 3/4/4
f 3/4/5 4/3/6 6/5/7 5/6/8
f 7/7/9 8/8/10 2/2/11 1/1/12
f 2/2/13 8/9/14 6/10/15 4/3/16
f 7/11/17 1/1/18 3/4/19 5/12/20
f 9/13/21 17/14/22 18/15/23 10/16/24
f 10/16/25 18/15/26 19/17/27 12/18/28
f 11/19/29 20/20/30 17/14/31 9/13/32
f 13/21/33 21/22/34 22/23/35 14/24/36
f 14/24/37 22/23/38 23/25/39 16/26/40
f 15/27/41 24/28/42 21/22/43 13/21/44
f 12/18/45 19/17/46 20/29/47 11/30/48
f 24/31/49 15/32/50 16/26/51 23/25/52
f 6/10/53 8/9/54 7/33/55 5/34/56
