# This file uses meters as units for non-parametric coordinates.

v 2.317119 5.074119 9.744003
v 2.317119 5.165836 9.142273
v -2.317119 5.074119 9.744003
v -2.317119 5.165837 9.142274
v 1.927573 5.760018 -0.252489
v 1.112885 5.747224 -1.067077
v -0.000000 5.883329 0.858597
v 0.000000 5.742541 -1.365239
v -1.112885 5.747224 -1.067077
v -1.927573 5.760018 -0.252489
v -2.225771 5.777490 0.860259
v -1.927573 5.794966 1.973007
v -1.112885 5.807759 2.787594
v -0.000000 5.812442 3.085755
v 1.112885 5.807759 2.787594
v 1.927573 5.794966 1.973007
v 2.225771 5.777490 0.860259
vt 0.366366 0.722580
vt 0.365779 0.729349
vt 0.314544 0.722362
vt 0.314939 0.729148
vt 0.348701 0.710061
vt 0.342339 0.716424
vt 0.333649 0.700676
vt 0.333649 0.718752
vt 0.324958 0.716424
vt 0.318596 0.710061
vt 0.316267 0.701371
vt 0.318596 0.692680
vt 0.324958 0.686318
vt 0.333649 0.683990
vt 0.342339 0.686318
vt 0.348701 0.692680
vt 0.351030 0.701371
vn 0.000000 0.988582 0.150683
vn 0.000000 0.988582 0.150683
vn 0.000000 0.988582 0.150683
vn 0.000000 0.988582 0.150683
vn 0.041139 0.998375 -0.039432
vn 0.023751 0.998102 -0.056819
vn -0.000000 0.999877 -0.015702
vn 0.000000 0.998002 -0.063182
vn -0.023751 0.998102 -0.056819
vn -0.041139 0.998375 -0.039432
vn -0.047504 0.998748 -0.015683
vn -0.041140 0.999121 0.008063
vn -0.023752 0.999394 0.025449
vn -0.000000 0.999494 0.031812
vn 0.023752 0.999394 0.025449
vn 0.041140 0.999121 0.008063
vn 0.047504 0.998748 -0.015684
f 2/2/1 4/4/2 3/3/3 1/1/4
f 5/5/5 6/6/6 7/7/7
f 6/6/6 8/8/8 7/7/7
f 8/8/8 9/9/9 7/7/7
f 9/9/9 10/10/10 7/7/7
f 10/10/10 11/11/11 7/7/7
f 11/11/11 12/12/12 7/7/7
f 12/12/12 13/13/13 7/7/7
f 13/13/13 14/14/14 7/7/7
f 14/14/14 15/15/15 7/7/7
f 15/15/15 16/16/16 7/7/7
f 16/16/16 17/17/17 7/7/7
f 17/17/17 5/5/5 7/7/7
