# This file uses meters as units for non-parametric coordinates.

v 13.168564 8.679819 12.955773
v 11.020237 9.159915 12.955773
v 13.168564 8.679819 9.477532
v 11.020237 9.159915 9.477532
v 12.134222 8.739206 12.955773
v 12.134222 8.739206 9.477532
v -8.296606 10.021687 1.813332
v -0.000001 10.575160 1.813333
v -0.000001 9.175569 -1.107603
v -8.296606 9.684225 -1.107603
v 8.296606 10.021687 1.813333
v 8.296606 9.684225 -1.107602
v -0.000000 10.679881 13.572865
v 4.245496 10.405187 13.572927
v 4.337036 10.405187 7.141534
v -0.000000 10.679999 7.141661
v -4.245496 10.405187 13.572927
v -4.337036 10.405187 7.141534
v -11.876717 2.243209 17.152716
v -8.476180 2.243209 17.152716
v -11.876717 5.643744 17.152716
v -8.476180 5.643744 17.152716
v -7.810882 2.243209 17.152716
v -4.410348 2.243209 17.152716
v -7.810882 5.643744 17.152716
v -4.410348 5.643744 17.152716
v 7.810881 2.243209 17.152716
v 4.410349 2.243209 17.152716
v 7.810881 5.643744 17.152716
v 4.410349 5.643744 17.152716
v 11.876717 2.243209 17.152716
v 8.476178 2.243209 17.152716
v 11.876717 5.643744 17.152716
v 8.476178 5.643744 17.152716
v -1.675053 5.222096 17.722746
v 1.675053 5.222096 17.722746
v -1.917007 7.772218 17.722746
v 1.917007 7.772218 17.722746
v 2.084736 6.541536 17.722746
v -2.084736 6.541536 17.722746
v 0.000000 7.997621 17.722746
v 0.000000 6.549381 17.722746
v 0.000000 4.996693 17.722746
v -13.168564 8.679819 12.955773
v -11.020237 9.159915 12.955773
v -13.168564 8.679819 9.477532
v -11.020237 9.159915 9.477532
v -12.134222 8.739206 12.955773
v -12.134222 8.739206 9.477532
vt 0.141739 0.627137
vt 0.141739 0.654588
vt 0.149034 0.654588
vt 0.149034 0.627137
vt 0.156329 0.654588
vt 0.156329 0.627137
vt 0.109116 0.641423
vt 0.140886 0.641423
vt 0.140918 0.653774
vt 0.109116 0.653774
vt 0.109330 0.641423
vt 0.109330 0.653774
vt 0.173014 0.629439
vt 0.187270 0.629395
vt 0.187354 0.653602
vt 0.173095 0.653602
vt 0.158757 0.629494
vt 0.158842 0.653602
vt 0.188522 0.631307
vt 0.213480 0.631307
vt 0.213480 0.656265
vt 0.188522 0.656265
vt 0.188522 0.631307
vt 0.213480 0.631307
vt 0.213480 0.656265
vt 0.188522 0.656265
vt 0.188522 0.631307
vt 0.188522 0.656265
vt 0.213480 0.656265
vt 0.213480 0.631307
vt 0.188522 0.631307
vt 0.188522 0.656265
vt 0.213480 0.656265
vt 0.213480 0.631307
vt 0.233637 0.625027
vt 0.249866 0.627319
vt 0.252739 0.639852
vt 0.233637 0.639932
vt 0.249866 0.654571
vt 0.233637 0.656862
vt 0.214534 0.639852
vt 0.217407 0.654571
vt 0.217407 0.627319
vt 0.141739 0.627137
vt 0.149034 0.627137
vt 0.149034 0.654588
vt 0.141739 0.654588
vt 0.156329 0.627137
vt 0.156329 0.654588
vn 0.057321 0.998356 0.000000
vn 0.057321 0.998356 0.000000
vn 0.218095 0.975928 0.000000
vn 0.218095 0.975928 0.000000
vn 0.353305 0.935508 0.000000
vn 0.353305 0.935508 0.000000
vn -0.002589 0.958521 -0.285012
vn 0.000000 0.958524 -0.285013
vn 0.000000 0.958524 -0.285013
vn -0.002589 0.958521 -0.285012
vn 0.002589 0.958521 -0.285012
vn 0.002589 0.958521 -0.285012
vn 0.000000 1.000000 0.000465
vn 0.063895 0.997957 0.000464
vn 0.063895 0.997957 0.000464
vn 0.000000 1.000000 0.000465
vn -0.063895 0.997957 0.000464
vn -0.063895 0.997957 0.000464
vn 0.000000 0.000000 1.000000
vn 0.000000 0.000000 1.000000
vn 0.000000 0.000000 1.000000
vn 0.000000 0.000000 1.000000
vn 0.000000 0.000000 1.000000
vn 0.000000 0.000000 1.000000
vn 0.000000 0.000000 1.000000
vn 0.000000 0.000000 1.000000
vn 0.000000 0.000000 1.000000
vn 0.000000 0.000000 1.000000
vn 0.000000 0.000000 1.000000
vn 0.000000 0.000000 1.000000
vn 0.000000 0.000000 1.000000
vn 0.000000 0.000000 1.000000
vn 0.000000 0.000000 1.000000
vn 0.000000 0.000000 1.000000
vn 0.000000 0.000000 1.000000
vn -0.000001 0.000000 1.000000
vn -0.000000 0.000000 1.000000
vn 0.000000 0.000000 1.000000
vn 0.000000 0.000000 1.000000
vn 0.000000 0.000000 1.000000
vn 0.000000 0.000000 1.000000
vn 0.000000 0.000000 1.000000
vn 0.000001 0.000000 1.000000
vn -0.057321 0.998356 0.000000
vn -0.218095 0.975928 0.000000
vn -0.218095 0.975928 0.000000
vn -0.057321 0.998356 0.000000
vn -0.353305 0.935508 0.000000
vn -0.353305 0.935508 0.000000
f 1/1/1 3/2/2 6/3/3 5/4/4
f 5/4/4 6/3/3 4/5/5 2/6/6
f 7/7/7 8/8/8 9/9/9 10/10/10
f 8/8/8 11/11/11 12/12/12 9/9/9
f 13/13/13 14/14/14 15/15/15 16/16/16
f 17/17/17 13/13/13 16/16/16 18/18/18
f 19/19/19 20/20/20 22/21/21 21/22/22
f 23/23/23 24/24/24 26/25/25 25/26/26
f 27/27/27 29/28/28 30/29/29 28/30/30
f 31/31/31 33/32/32 34/33/33 32/34/34
f 43/35/35 36/36/36 39/37/37 42/38/38
f 42/38/38 39/37/37 38/39/39 41/40/40
f 40/41/41 42/38/38 41/40/40 37/42/42
f 35/43/43 43/35/35 42/38/38 40/41/41
f 44/44/44 48/45/45 49/46/46 46/47/47
f 48/45/45 45/48/48 47/49/49 49/46/46
