# This file uses meters as units for non-parametric coordinates.

v 4.346324 3.970996 18.016507
v 10.705075 3.970996 18.016507
v 10.705075 6.625462 18.016507
v 4.346324 6.625462 18.016507
v -4.346324 3.970996 18.016507
v -4.346324 6.625461 18.016507
v -10.705075 6.625461 18.016507
v -10.705075 3.970996 18.016507
v -1.020564 9.750764 10.517831
v 1.020564 9.750764 10.517831
v 1.020564 9.750764 9.659404
v -1.020564 9.750764 9.659404
v -6.247673 10.537787 5.310688
v -6.247673 10.537787 4.454962
v -8.803725 10.537787 4.454962
v -8.803725 10.537787 5.310688
v 6.247672 10.537787 5.310688
v 8.803725 10.537787 5.310688
v 8.803725 10.537787 4.454962
v 6.247672 10.537787 4.454962
v -4.954511 11.069473 -2.095668
v -4.954511 11.069473 -4.080522
v -9.899414 11.069473 -4.080522
v -9.899414 11.069473 -2.095668
v 13.766789 9.738278 -14.963473
v 13.766789 9.738278 -16.089555
v 9.603257 9.738278 -16.089555
v 9.603257 9.738278 -14.963473
vt 0.249494 0.729480
vt 0.249494 0.760974
vt 0.239426 0.760974
vt 0.239426 0.729480
vt 0.249494 0.760974
vt 0.239426 0.760974
vt 0.239426 0.729480
vt 0.249494 0.729480
vt 0.224359 0.743347
vt 0.235687 0.743347
vt 0.235687 0.748348
vt 0.224359 0.748348
vt 0.239031 0.736279
vt 0.239031 0.742093
vt 0.223829 0.742093
vt 0.223829 0.736279
vt 0.223042 0.729371
vt 0.238244 0.729371
vt 0.238244 0.735184
vt 0.223042 0.735184
vt 0.221454 0.736279
vt 0.221454 0.749214
vt 0.188069 0.749214
vt 0.188069 0.736279
vt 0.245462 0.719809
vt 0.245462 0.728778
vt 0.222701 0.728778
vt 0.222701 0.719809
vn 0.000000 0.000000 1.000000
vn 0.000000 0.000000 1.000000
vn 0.000000 0.000000 1.000000
vn 0.000000 0.000000 1.000000
vn 0.000000 0.000000 1.000000
vn 0.000000 0.000000 1.000000
vn 0.000000 0.000000 1.000000
vn 0.000000 0.000000 1.000000
vn 0.000000 1.000000 0.000000
vn 0.000000 1.000000 0.000000
vn 0.000000 1.000000 0.000000
vn 0.000000 1.000000 0.000000
vn 0.000000 1.000000 0.000000
vn 0.000000 1.000000 0.000000
vn 0.000000 1.000000 0.000000
vn 0.000000 1.000000 0.000000
vn 0.000000 1.000000 0.000000
vn 0.000000 1.000000 0.000000
vn 0.000000 1.000000 0.000000
vn 0.000000 1.000000 0.000000
vn 0.000000 1.000000 0.000000
vn 0.000000 1.000000 0.000000
vn 0.000000 1.000000 0.000000
vn 0.000000 1.000000 0.000000
vn 0.000000 1.000000 0.000000
vn 0.000000 1.000000 0.000000
vn 0.000000 1.000000 0.000000
vn 0.000000 1.000000 0.000000
f 1/1/1 2/2/2 3/3/3 4/4/4
f 5/5/5 6/6/6 7/7/7 8/8/8
f 9/9/9 10/10/10 11/11/11 12/12/12
f 13/13/13 14/14/14 15/15/15 16/16/16
f 17/17/17 18/18/18 19/19/19 20/20/20
f 21/21/21 22/22/22 23/23/23 24/24/24
f 25/25/25 26/26/26 27/27/27 28/28/28
