# This file uses meters as units for non-parametric coordinates.

v 5.464914 13.592974 0.199765
v -5.464915 13.592974 0.199765
v -5.464915 13.592974 1.498653
v 5.464914 13.592974 1.498653
v -5.464915 7.479566 1.498653
v 5.464914 7.479566 1.498653
v 6.650996 13.529762 1.470908
v 6.650996 13.529762 -1.579920
v 6.650996 0.000000 -1.579920
v 6.650996 0.000000 1.470908
v -6.650996 13.529762 1.470908
v -6.650996 13.529762 -1.579920
v -6.650996 0.000000 -1.579920
v -6.650996 0.000000 1.470908
v -10.319492 0.000181 1.124319
v -6.650996 0.000412 1.170752
v -6.650996 13.162170 1.170752
v -10.319492 13.115734 1.124319
v -6.650996 13.162170 -1.279763
v -10.319492 13.115734 -1.233327
v -6.650996 0.000410 -1.279763
v -10.319492 0.000180 -1.233327
v 10.319492 0.000180 -1.233327
v 10.319492 0.000181 1.124319
v 10.319492 13.115734 -1.233327
v 10.319492 13.115734 1.124319
v 6.650996 13.162170 1.170752
v 6.650996 13.162170 -1.279763
v 6.650996 0.000410 -1.279763
v 6.650996 0.000412 1.170752
v 5.464914 0.000000 1.470908
v -5.464915 0.000000 1.470908
v -6.650996 7.479566 1.470908
v -6.650996 7.479561 -1.579920
v 6.650996 7.479561 -1.579920
v 6.650996 7.479566 1.470908
v 5.464914 6.033300 1.470908
v -5.464915 6.033300 1.470908
v -6.650996 6.033300 1.470908
v -6.650996 6.033300 -1.579920
v 6.650996 6.033300 -1.579920
v 6.650996 6.033300 1.470908
v 5.004417 5.564283 1.095670
v -5.004418 5.564283 1.095670
v -5.004418 0.000000 1.095670
v 5.004417 0.000000 1.095670
vt 0.400324 0.989564
vt 0.381716 0.989722
vt 0.381668 0.988409
vt 0.400277 0.988250
vt 0.381668 0.972117
vt 0.400277 0.972117
vt 0.348411 0.941065
vt 0.355167 0.941128
vt 0.355167 0.965367
vt 0.348411 0.965202
vt 0.357546 0.962499
vt 0.351957 0.962389
vt 0.357546 0.942472
vt 0.351957 0.942447
vt 0.371600 0.941325
vt 0.368535 0.942662
vt 0.368535 0.962604
vt 0.371600 0.965462
vt 0.364834 0.965535
vt 0.362954 0.962638
vt 0.362954 0.942611
vt 0.364834 0.941295
vt 0.350404 0.963091
vt 0.347969 0.966286
vt 0.372483 0.966454
vt 0.370658 0.963229
vt 0.370658 0.942526
vt 0.350404 0.942388
vt 0.350404 0.951410
vt 0.370658 0.951549
vt 0.350155 0.952164
vt 0.347969 0.952149
vt 0.347969 0.941228
vt 0.350155 0.941243
vt 0.372483 0.952317
vt 0.372483 0.941396
vt 0.370297 0.952302
vt 0.370297 0.941381
vt 0.369487 0.951125
vt 0.351042 0.950999
vt 0.351042 0.941122
vt 0.369487 0.941248
vt 0.350404 0.954068
vt 0.347969 0.955366
vt 0.370658 0.954207
vt 0.372483 0.955534
vn 0.000000 1.000000 0.000000
vn 0.000000 1.000000 0.000000
vn 0.000000 1.000000 0.000000
vn 0.000000 1.000000 0.000000
vn 0.000000 0.000000 1.000000
vn 0.000000 0.000000 1.000000
vn 0.000000 0.000000 1.000000
vn 0.000000 0.000000 1.000000
vn -0.012656 0.000000 0.999920
vn -0.012656 0.000000 0.999920
vn -0.012656 0.000000 0.999920
vn -0.012656 0.000000 0.999920
vn -0.012657 0.999920 0.000000
vn -0.012657 0.999920 0.000000
vn -0.012657 0.999920 0.000000
vn -0.012657 0.999920 0.000000
vn -0.012657 0.000000 -0.999920
vn -0.012657 0.000000 -0.999920
vn -0.012657 0.000000 -0.999920
vn -0.012657 0.000000 -0.999920
vn 1.000000 0.000000 0.000000
vn 1.000000 0.000000 0.000000
vn 1.000000 0.000000 0.000000
vn 1.000000 0.000000 0.000000
vn -1.000000 0.000000 0.000000
vn -1.000000 0.000000 0.000000
vn -1.000000 0.000000 0.000000
vn -1.000000 0.000000 0.000000
vn 0.012657 0.999920 0.000000
vn 0.012657 0.999920 0.000000
vn 0.012657 0.999920 0.000000
vn 0.012657 0.999920 0.000000
vn 0.012657 0.000000 -0.999920
vn 0.012657 0.000000 -0.999920
vn 0.012657 0.000000 -0.999920
vn 0.012657 0.000000 -0.999920
vn 0.012656 0.000000 0.999920
vn 0.012656 0.000000 0.999920
vn 0.012656 0.000000 0.999920
vn 0.012656 0.000000 0.999920
vn 0.000000 1.000000 0.000000
vn 0.000000 1.000000 0.000000
vn 0.000000 1.000000 0.000000
vn 0.000000 1.000000 0.000000
vn 0.000000 0.000000 -1.000000
vn 0.000000 0.000000 -1.000000
vn 0.000000 0.000000 -1.000000
vn 0.000000 0.000000 -1.000000
vn 0.000000 0.000000 1.000000
vn 0.000000 0.000000 1.000000
vn 0.000000 0.000000 1.000000
vn 0.000000 0.000000 1.000000
vn 1.000000 0.000000 0.000000
vn 1.000000 0.000000 0.000000
vn 1.000000 0.000000 0.000000
vn 1.000000 0.000000 0.000000
vn -1.000000 0.000000 0.000000
vn -1.000000 0.000000 0.000000
vn -1.000000 0.000000 0.000000
vn -1.000000 0.000000 0.000000
vn 0.000000 0.000000 1.000000
vn 0.000000 0.000000 1.000000
vn 0.000000 0.000000 1.000000
vn 0.000000 0.000000 1.000000
vn 0.000000 0.000000 1.000000
vn 0.000000 0.000000 1.000000
vn 0.000000 0.000000 1.000000
vn 0.000000 0.000000 1.000000
vn -1.000000 0.000000 0.000000
vn -1.000000 0.000000 0.000000
vn -1.000000 0.000000 0.000000
vn -1.000000 0.000000 0.000000
vn 0.000000 0.000000 -1.000000
vn 0.000000 0.000000 -1.000000
vn 0.000000 0.000000 -1.000000
vn 0.000000 0.000000 -1.000000
vn 1.000000 0.000000 0.000000
vn 1.000000 0.000000 0.000000
vn 1.000000 0.000000 0.000000
vn 1.000000 0.000000 0.000000
vn 0.000000 0.000000 1.000000
vn 0.000000 0.000000 1.000000
vn 0.000000 0.000000 1.000000
vn 0.000000 0.000000 1.000000
vn 0.000000 -0.624722 0.780847
vn 0.000000 -0.624722 0.780847
vn 0.000000 -0.624722 0.780847
vn 0.000000 -0.624722 0.780847
vn 0.631692 0.000000 0.775220
vn 0.631692 0.000000 0.775220
vn 0.631692 0.000000 0.775220
vn 0.631692 0.000000 0.775220
vn -0.631692 0.000000 0.775219
vn -0.631692 0.000000 0.775219
vn -0.631692 0.000000 0.775219
vn -0.631692 0.000000 0.775219
vn 0.000000 -1.000000 0.000000
vn 0.000000 -1.000000 -0.000001
vn 0.000000 -1.000000 0.000000
vn 0.000000 -1.000000 -0.000001
vn 0.000000 -1.000000 -0.000001
vn 0.000000 -1.000000 0.000000
vn 0.000000 -1.000000 0.000000
vn 0.000000 -1.000000 0.000001
vn 0.000000 -1.000000 0.000001
vn 0.000000 -1.000000 0.000001
vn -0.000063 -1.000000 0.000001
vn -0.000063 -1.000000 0.000001
vn -0.000063 -1.000000 0.000001
vn -0.000063 -1.000000 0.000001
vn 0.000063 -1.000000 0.000001
vn 0.000063 -1.000000 0.000001
vn 0.000063 -1.000000 0.000001
vn 0.000063 -1.000000 0.000001
f 1/1/1 2/2/2 3/3/3 4/4/4
f 4/4/5 3/3/6 5/5/7 6/6/8
f 15/7/9 16/8/10 17/9/11 18/10/12
f 18/10/13 17/9/14 19/11/15 20/12/16
f 20/12/17 19/11/18 21/13/19 22/14/20
f 24/15/21 23/16/22 25/17/23 26/18/24
f 22/14/25 15/7/26 18/10/27 20/12/28
f 27/19/29 26/18/30 25/17/31 28/20/32
f 29/21/33 28/20/34 25/17/35 23/16/36
f 27/19/37 30/22/38 24/15/39 26/18/40
f 12/23/41 11/24/42 7/25/43 8/26/44
f 9/27/45 13/28/46 40/29/47 41/30/48
f 38/31/49 39/32/50 14/33/51 32/34/52
f 42/35/53 10/36/54 9/27/55 41/30/56
f 14/33/57 39/32/58 40/29/59 13/28/60
f 42/35/61 37/37/62 31/38/63 10/36/64
f 43/39/65 44/40/66 45/41/67 46/42/68
f 34/43/69 33/44/70 11/24/71 12/23/72
f 34/43/73 12/23/74 8/26/75 35/45/76
f 7/25/77 36/46/78 35/45/79 8/26/80
f 38/31/49 33/44/81 39/32/50
f 40/29/59 39/32/58 33/44/70 34/43/69
f 40/29/47 34/43/73 35/45/76 41/30/48
f 36/46/78 42/35/53 41/30/56 35/45/79
f 33/44/81 36/46/82 7/25/83 11/24/84
f 37/37/85 38/31/86 44/40/87 43/39/88
f 38/31/89 32/34/90 45/41/91 44/40/92
f 31/38/93 37/37/94 43/39/95 46/42/96
f 36/46/82 37/37/62 42/35/61
f 37/37/62 36/46/82 33/44/81 38/31/49
f 14/33/97 13/28/98 32/34/99
f 32/34/99 13/28/98 45/41/100
f 46/42/101 45/41/100 13/28/98
f 10/36/102 31/38/103 9/27/104
f 46/42/105 9/27/104 31/38/103
f 13/28/106 9/27/104 46/42/105
f 24/15/107 30/22/108 29/21/109 23/16/110
f 16/8/111 15/7/112 22/14/113 21/13/114
