# This file uses meters as units for non-parametric coordinates.

v -5.237839 0.047336 0.878512
v -5.481741 0.047336 0.000000
v -4.747327 0.047336 -2.740871
v -2.740871 0.047336 -4.747327
v -0.000000 0.047336 -5.481741
v 2.740871 0.047336 -4.747327
v 4.747327 0.047336 -2.740871
v 5.481741 0.047336 0.000000
v 5.237839 0.047336 0.878512
v -1.899654 0.047336 0.878512
v -2.135915 0.047336 0.000000
v -1.849757 0.047336 -1.067958
v -1.067958 0.047336 -1.849757
v -0.000000 0.047336 -2.135915
v 1.067958 0.047336 -1.849757
v 1.849757 0.047336 -1.067958
v 2.135915 0.047336 0.000000
v 1.899654 0.047336 0.878512
vt 0.689795 0.451752
vt 0.688969 0.458212
vt 0.692934 0.478366
vt 0.703767 0.493120
vt 0.718565 0.498521
vt 0.733363 0.493120
vt 0.744195 0.478366
vt 0.748161 0.458212
vt 0.747335 0.451752
vt 0.708259 0.451752
vt 0.707034 0.458212
vt 0.708578 0.466065
vt 0.712799 0.471813
vt 0.718565 0.473917
vt 0.724331 0.471813
vt 0.728552 0.466065
vt 0.730097 0.458212
vt 0.728871 0.451752
vn 0.000000 1.000000 0.000000
vn 0.000000 1.000000 0.000000
vn 0.000000 1.000000 0.000000
vn 0.000000 1.000000 0.000000
vn 0.000000 1.000000 0.000000
vn 0.000000 1.000000 0.000000
vn 0.000000 1.000000 -0.000000
vn 0.000000 1.000000 -0.000000
vn 0.000000 1.000000 -0.000000
vn 0.000000 1.000000 -0.000000
vn 0.000000 1.000000 0.000000
vn 0.000000 1.000000 0.000000
vn 0.000000 1.000000 0.000000
vn 0.000000 1.000000 0.000000
vn 0.000000 1.000000 0.000000
vn 0.000000 1.000000 0.000000
vn 0.000000 1.000000 0.000000
vn 0.000000 1.000000 0.000000
f 2/2/1 1/1/2 10/10/3 11/11/4
f 3/3/5 2/2/1 11/11/4 12/12/6
f 4/4/7 3/3/5 12/12/6 13/13/8
f 5/5/9 4/4/7 13/13/8 14/14/10
f 6/6/11 5/5/9 14/14/10 15/15/12
f 7/7/13 6/6/11 15/15/12 16/16/14
f 8/8/15 7/7/13 16/16/14 17/17/16
f 9/9/17 8/8/15 17/17/16 18/18/18
