# This file uses meters as units for non-parametric coordinates.

v -4.669163 1.678701 1.385119
v 4.669163 1.678701 1.385119
v -4.669163 9.096070 1.385119
v 4.669163 9.096070 1.385119
v 1.556387 10.114128 1.385119
v 1.556387 1.678701 1.385119
v -1.556388 10.114128 1.385119
v -1.556388 1.678701 1.385119
vt 0.563712 0.438770
vt 0.623157 0.438770
vt 0.563712 0.491914
vt 0.623157 0.491914
vt 0.603342 0.498215
vt 0.603342 0.438770
vt 0.583527 0.498215
vt 0.583527 0.438770
vn -0.000000 -0.000000 1.000000
vn -0.000000 -0.000000 1.000000
vn -0.000000 -0.000000 1.000000
vn -0.000000 -0.000000 1.000000
vn 0.000000 -0.000000 1.000000
vn 0.000000 -0.000000 1.000000
vn 0.000000 -0.000000 1.000000
vn 0.000000 -0.000000 1.000000
f 6/6/1 2/2/2 4/4/3 5/5/4
f 8/8/5 6/6/1 5/5/4 7/7/6
f 1/1/7 8/8/5 7/7/6 3/3/8
