# This file uses meters as units for non-parametric coordinates.

v -2.852327 4.619574 14.485465
v -0.528970 4.619574 14.485465
v -0.528970 6.096564 14.485465
v -2.852327 6.096564 14.485465
v -0.528970 6.096564 13.483813
v -2.852327 6.096564 13.483813
v -0.528970 4.619574 13.483813
v -2.852327 4.619574 13.483813
v -2.852327 21.642949 14.485465
v -0.528970 21.642949 14.485465
v -2.852327 23.119938 14.485465
v -0.528970 23.119938 14.485465
v -2.852327 23.119938 13.483813
v -0.528970 23.119938 13.483813
v -2.852327 21.642949 13.483813
v -0.528970 21.642949 13.483813
v -2.852327 24.413563 14.485465
v -0.528970 24.413563 14.485465
v -2.852327 25.890553 14.485465
v -0.528970 25.890553 14.485465
v -2.852327 25.890553 13.483813
v -0.528970 25.890553 13.483813
v -2.852327 24.413563 13.483813
v -0.528970 24.413563 13.483813
v -2.653609 19.545567 14.278997
v -2.653609 9.415246 14.278997
v -2.653609 9.415246 12.378841
v -2.653609 19.545567 12.378841
v -0.857037 9.415246 14.278997
v -0.857037 19.545567 14.278997
v -2.653609 19.311558 14.278999
v -2.653609 9.595547 14.278999
v -1.025232 9.595547 14.278999
v -1.025232 19.311558 14.278999
v -2.653609 19.311558 12.571236
v -2.653609 9.595547 12.571236
v -2.643395 -0.041165 11.409950
v -2.643395 -0.041165 11.670133
v 2.644401 -0.041165 11.409950
v 2.644401 -0.041165 11.670133
v -2.643395 27.592400 11.409950
v -2.643395 27.592400 11.670133
v 2.644401 27.592400 11.409950
v 2.644401 27.592400 11.670133
v -2.619050 27.578564 -13.789281
v 2.619050 27.578564 -13.789281
v -2.619050 -0.000000 -13.789281
v 2.619050 -0.000000 -13.789281
v -2.619050 -0.000000 14.253007
v 2.619050 -0.000000 14.253007
v 2.619050 27.578564 14.253007
v -2.619050 27.578564 14.253007
vt 0.445827 0.759798
vt 0.455940 0.759798
vt 0.455940 0.769911
vt 0.445827 0.769911
vt 0.455940 0.759798
vt 0.445827 0.759798
vt 0.455940 0.769911
vt 0.445827 0.769911
vt 0.455940 0.759798
vt 0.445827 0.759798
vt 0.445827 0.759798
vt 0.445827 0.769911
vt 0.455940 0.759798
vt 0.455940 0.769911
vt 0.445827 0.759798
vt 0.455940 0.759798
vt 0.455940 0.769911
vt 0.445827 0.769911
vt 0.455940 0.759798
vt 0.445827 0.759798
vt 0.455940 0.769911
vt 0.445827 0.769911
vt 0.455940 0.759798
vt 0.445827 0.759798
vt 0.445827 0.759798
vt 0.445827 0.769911
vt 0.455940 0.759798
vt 0.455940 0.769911
vt 0.445827 0.759798
vt 0.455940 0.759798
vt 0.455940 0.769911
vt 0.445827 0.769911
vt 0.455940 0.759799
vt 0.445827 0.759799
vt 0.455940 0.769911
vt 0.445827 0.769911
vt 0.455940 0.759798
vt 0.445827 0.759798
vt 0.445827 0.759798
vt 0.445827 0.769911
vt 0.455940 0.759798
vt 0.455940 0.769911
vt 0.260112 0.750748
vt 0.267415 0.750748
vt 0.267415 0.751273
vt 0.260852 0.751273
vt 0.260792 0.751273
vt 0.260122 0.750748
vt 0.260122 0.751108
vt 0.267415 0.751108
vt 0.267415 0.750426
vt 0.260792 0.750426
vt 0.260852 0.750426
vt 0.260112 0.751108
vt 0.258027 0.751031
vt 0.257790 0.751031
vt 0.257790 0.752229
vt 0.258027 0.752229
vt 0.257790 0.751049
vt 0.273404 0.751049
vt 0.273404 0.751031
vt 0.273167 0.751031
vt 0.273167 0.752229
vt 0.273404 0.752229
vt 0.257790 0.752210
vt 0.273404 0.752210
vt 0.445584 0.756701
vt 0.461198 0.756701
vt 0.461198 0.772315
vt 0.445584 0.772315
vt 0.461198 0.756701
vt 0.445584 0.756701
vt 0.461198 0.772315
vt 0.445584 0.772315
vt 0.461198 0.772315
vt 0.461198 0.756701
vt 0.445584 0.772315
vt 0.445584 0.756701
vn 0.000000 0.000000 1.000000
vn 0.000000 0.000000 1.000000
vn 0.000000 0.000000 1.000000
vn 0.000000 0.000000 1.000000
vn 0.000000 1.000000 0.000000
vn 0.000000 1.000000 0.000000
vn 0.000000 1.000000 0.000000
vn 0.000000 1.000000 0.000000
vn 0.000000 0.000000 -1.000000
vn 0.000000 0.000000 -1.000000
vn 0.000000 0.000000 -1.000000
vn 0.000000 0.000000 -1.000000
vn 0.000000 -1.000000 0.000000
vn 0.000000 -1.000000 0.000000
vn 0.000000 -1.000000 0.000000
vn 0.000000 -1.000000 0.000000
vn 1.000000 0.000000 0.000000
vn 1.000000 0.000000 0.000000
vn 1.000000 0.000000 0.000000
vn 1.000000 0.000000 0.000000
vn -1.000000 0.000000 0.000000
vn -1.000000 0.000000 0.000000
vn -1.000000 0.000000 0.000000
vn -1.000000 0.000000 0.000000
vn 0.000000 0.000000 1.000000
vn 0.000000 0.000000 1.000000
vn 0.000000 0.000000 1.000000
vn 0.000000 0.000000 1.000000
vn 0.000000 1.000000 0.000000
vn 0.000000 1.000000 0.000000
vn 0.000000 1.000000 0.000000
vn 0.000000 1.000000 0.000000
vn 0.000000 0.000000 -1.000000
vn 0.000000 0.000000 -1.000000
vn 0.000000 0.000000 -1.000000
vn 0.000000 0.000000 -1.000000
vn 0.000000 -1.000000 0.000000
vn 0.000000 -1.000000 0.000000
vn 0.000000 -1.000000 0.000000
vn 0.000000 -1.000000 0.000000
vn 1.000000 0.000000 0.000000
vn 1.000000 0.000000 0.000000
vn 1.000000 0.000000 0.000000
vn 1.000000 0.000000 0.000000
vn -1.000000 0.000000 0.000000
vn -1.000000 0.000000 0.000000
vn -1.000000 0.000000 0.000000
vn -1.000000 0.000000 0.000000
vn 0.000000 0.000000 1.000000
vn 0.000000 0.000000 1.000000
vn 0.000000 0.000000 1.000000
vn 0.000000 0.000000 1.000000
vn 0.000000 1.000000 0.000000
vn 0.000000 1.000000 0.000000
vn 0.000000 1.000000 0.000000
vn 0.000000 1.000000 0.000000
vn 0.000000 0.000000 -1.000000
vn 0.000000 0.000000 -1.000000
vn 0.000000 0.000000 -1.000000
vn 0.000000 0.000000 -1.000000
vn 0.000000 -1.000000 0.000000
vn 0.000000 -1.000000 0.000000
vn 0.000000 -1.000000 0.000000
vn 0.000000 -1.000000 0.000000
vn 1.000000 0.000000 0.000000
vn 1.000000 0.000000 0.000000
vn 1.000000 0.000000 0.000000
vn 1.000000 0.000000 0.000000
vn -1.000000 0.000000 0.000000
vn -1.000000 0.000000 0.000000
vn -1.000000 0.000000 0.000000
vn -1.000000 0.000000 0.000000
vn -1.000000 -0.000000 0.000000
vn -1.000000 -0.000000 0.000000
vn -1.000000 -0.000000 0.000000
vn -1.000000 -0.000000 0.000000
vn 0.000008 -0.000002 1.000000
vn 0.000000 -0.000011 1.000000
vn 0.000000 -0.000011 1.000000
vn 0.000008 -0.000002 1.000000
vn 0.000007 0.000002 1.000000
vn 0.000000 0.000008 1.000000
vn 0.000000 0.000008 1.000000
vn 0.000008 0.000001 1.000000
vn -1.000000 0.000000 0.000000
vn -1.000000 0.000000 0.000000
vn -1.000000 0.000000 0.000000
vn -1.000000 0.000000 0.000000
vn -1.000000 0.000000 0.000000
vn -1.000000 0.000000 0.000000
vn -1.000000 0.000000 0.000000
vn -1.000000 0.000000 0.000000
vn 0.000000 -1.000000 0.000000
vn 0.000000 -1.000000 0.000000
vn 0.000000 -1.000000 0.000000
vn 0.000000 -1.000000 0.000000
vn 1.000000 0.000000 0.000000
vn 1.000000 0.000000 0.000000
vn 1.000000 0.000000 0.000000
vn 1.000000 0.000000 0.000000
vn 0.000000 1.000000 0.000000
vn 0.000000 1.000000 0.000000
vn 0.000000 1.000000 0.000000
vn 0.000000 1.000000 0.000000
vn 0.000000 0.000000 1.000000
vn 0.000000 0.000000 1.000000
vn 0.000000 0.000000 1.000000
vn 0.000000 0.000000 1.000000
vn 0.000000 1.000000 0.000000
vn 0.000000 1.000000 0.000000
vn 0.000000 1.000000 0.000000
vn 0.000000 1.000000 0.000000
vn 0.000000 0.000000 -1.000000
vn 0.000000 0.000000 -1.000000
vn 0.000000 0.000000 -1.000000
vn 0.000000 0.000000 -1.000000
vn -1.000000 0.000000 0.000000
vn -1.000000 0.000000 0.000000
vn -1.000000 0.000000 0.000000
vn -1.000000 0.000000 0.000000
vn 0.000000 -1.000000 0.000000
vn 0.000000 -1.000000 0.000000
vn 0.000000 -1.000000 0.000000
vn 0.000000 -1.000000 0.000000
vn 1.000000 0.000000 0.000000
vn 1.000000 0.000000 0.000000
vn 1.000000 0.000000 0.000000
vn 1.000000 0.000000 0.000000
f 1/1/1 2/2/2 3/3/3 4/4/4
f 4/4/5 3/3/6 5/5/7 6/6/8
f 6/6/9 5/5/10 7/7/11 8/8/12
f 8/8/13 7/7/14 2/9/15 1/10/16
f 2/2/17 7/11/18 5/12/19 3/3/20
f 8/13/21 1/1/22 4/4/23 6/14/24
f 9/15/25 10/16/26 12/17/27 11/18/28
f 11/18/29 12/17/30 14/19/31 13/20/32
f 13/20/33 14/19/34 16/21/35 15/22/36
f 15/22/37 16/21/38 10/23/39 9/24/40
f 10/16/41 16/25/42 14/26/43 12/17/44
f 15/27/45 9/15/46 11/18/47 13/28/48
f 17/29/49 18/30/50 20/31/51 19/32/52
f 19/32/53 20/31/54 22/33/55 21/34/56
f 21/34/57 22/33/58 24/35/59 23/36/60
f 23/36/61 24/35/62 18/37/63 17/38/64
f 18/30/65 24/39/66 22/40/67 20/31/68
f 23/41/69 17/29/70 19/32/71 21/42/72
f 27/43/73 26/44/74 32/45/75 36/46/76
f 33/47/77 32/45/78 26/44/79 29/48/80
f 30/49/81 25/50/82 31/51/83 34/52/84
f 35/53/85 31/51/86 25/50/87 28/54/88
f 33/47/77 29/48/80 30/49/81 34/52/84
f 28/54/88 27/43/73 36/46/76 35/53/85
f 37/55/89 38/56/90 42/57/91 41/58/92
f 38/56/93 37/59/94 39/60/95 40/61/96
f 40/61/97 39/62/98 43/63/99 44/64/100
f 41/65/101 42/57/102 44/64/103 43/66/104
f 49/67/105 50/68/106 51/69/107 52/70/108
f 46/71/109 45/72/110 52/70/111 51/69/112
f 45/72/113 46/71/114 48/73/115 47/74/116
f 45/75/117 47/76/118 49/67/119 52/70/120
f 48/73/121 50/68/122 49/67/123 47/74/124
f 46/77/125 51/69/126 50/68/127 48/78/128
