# This file uses centimeters as units for non-parametric coordinates.

v 7.715107 1.000282 -7.116249
v 4.727489 1.000282 -7.116249
v 7.715107 2.591442 -7.116249
v 4.727489 2.591442 -7.116249
v 7.715107 2.591442 -8.318423
v 4.727489 2.591442 -8.318423
v 7.715107 1.000282 -8.318423
v 4.727489 1.000282 -8.318423
v 6.204587 2.591442 -8.692633
v 6.204587 1.000282 -8.692633
v 6.204587 1.000282 -7.116249
v 6.204587 2.591442 -7.116249
v -7.715107 1.000282 -7.116249
v -4.727489 1.000282 -7.116249
v -7.715107 2.591442 -7.116249
v -4.727489 2.591442 -7.116249
v -7.715107 2.591442 -8.318423
v -4.727489 2.591442 -8.318423
v -7.715107 1.000282 -8.318423
v -4.727489 1.000282 -8.318423
v -6.204587 2.591442 -8.692633
v -6.204587 1.000282 -8.692633
v -6.204587 1.000282 -7.116249
v -6.204587 2.591442 -7.116249
v -1.658345 2.987854 -1.419834
v -0.530205 2.987854 -1.419834
v -1.658345 3.237254 -1.419834
v -0.530205 3.237254 -1.419834
v -1.658345 3.237254 -1.885357
v -0.530205 3.237254 -1.885357
v -1.658345 2.987854 -1.885357
v -0.530205 2.987854 -1.885357
v 1.841928 2.987854 -1.652597
v 0.713788 2.987854 -1.419836
v 1.841928 3.237254 -1.652597
v 0.713788 3.237254 -1.419836
v 0.713788 3.237254 -1.885359
v 0.713788 2.987854 -1.885359
v -6.470778 3.192872 -0.625832
v -5.108013 3.192872 -0.625832
v -5.108013 3.563099 -0.624816
v -6.470778 3.563099 -0.624816
v -6.470778 3.576346 -5.007892
v -5.108013 3.576346 -5.007892
v -5.108013 3.206120 -5.008908
v -6.470778 3.206120 -5.008908
v -3.597841 3.197436 -2.135979
v -3.597841 3.201557 -3.498745
v -3.597841 3.571783 -3.497725
v -3.597841 3.567662 -2.134954
v -7.980951 3.567662 -2.134954
v -7.980951 3.571783 -3.497725
v -7.980951 3.201557 -3.498745
v -7.980951 3.197436 -2.135979
v -6.608065 3.201557 -3.498745
v -6.608065 3.571783 -3.497725
v -6.608065 3.567662 -2.134954
v -6.608065 3.197436 -2.135979
v -5.108013 3.201972 -3.636037
v -5.108013 3.572198 -3.635017
v -6.470778 3.572198 -3.635017
v -6.470778 3.201972 -3.636037
v -4.970724 3.201557 -3.498745
v -4.970724 3.571783 -3.497725
v -4.970724 3.567662 -2.134954
v -4.970724 3.197436 -2.135979
v -5.108013 3.197021 -1.998693
v -5.108013 3.567248 -1.997668
v -6.470778 3.567248 -1.997668
v -6.470778 3.197021 -1.998693
v -6.032478 3.199496 -2.816909
v -6.032478 3.569723 -2.816787
v -5.789394 3.201972 -3.060089
v -5.789394 3.572198 -3.059784
v -5.546312 3.199496 -2.816909
v -5.546312 3.569723 -2.816787
v -5.789396 3.197021 -2.573921
v -5.789396 3.567248 -2.573614
vt 0.352491 0.994336
vt 0.352491 0.981090
vt 0.359187 0.981090
vt 0.359187 0.994336
vt 0.352491 0.994336
vt 0.359187 0.994336
vt 0.352491 0.981090
vt 0.359187 0.981090
vt 0.365736 0.981090
vt 0.365736 0.994336
vt 0.352491 0.994336
vt 0.352491 0.981090
vt 0.365736 0.981090
vt 0.365736 0.994336
vt 0.352491 0.981090
vt 0.365736 0.994336
vt 0.365736 0.981090
vt 0.365736 0.981090
vt 0.352491 0.994336
vt 0.359187 0.994336
vt 0.359187 0.981090
vt 0.352491 0.981090
vt 0.359187 0.994336
vt 0.352491 0.994336
vt 0.359187 0.981090
vt 0.352491 0.981090
vt 0.365736 0.981090
vt 0.352491 0.981090
vt 0.352491 0.994336
vt 0.365736 0.994336
vt 0.365736 0.981090
vt 0.352491 0.981090
vt 0.365736 0.994336
vt 0.365736 0.981090
vt 0.365736 0.994336
vt 0.365736 0.981090
vt 0.412391 0.978260
vt 0.428401 0.978260
vt 0.428401 0.994270
vt 0.412391 0.994270
vt 0.428401 0.978260
vt 0.412391 0.978260
vt 0.428401 0.994270
vt 0.412391 0.994270
vt 0.412391 0.978260
vt 0.412391 0.994270
vt 0.428401 0.978260
vt 0.428401 0.994270
vt 0.420396 0.978260
vt 0.417728 0.988933
vt 0.428401 0.994270
vt 0.428401 0.978260
vt 0.428401 0.978260
vt 0.412391 0.994270
vt 0.428401 0.994270
vt 0.412391 0.994270
vt 0.412391 0.978260
vt 0.412615 0.978563
vt 0.429477 0.978505
vt 0.429477 0.979048
vt 0.412615 0.979107
vt 0.429536 0.995959
vt 0.412674 0.996017
vt 0.429763 0.978598
vt 0.412901 0.978656
vt 0.412901 0.979199
vt 0.429763 0.979141
vt 0.429536 0.995415
vt 0.412674 0.995474
vt 0.412644 0.978696
vt 0.429430 0.978637
vt 0.429974 0.978637
vt 0.413187 0.978696
vt 0.430033 0.995625
vt 0.413246 0.995683
vt 0.429184 0.979186
vt 0.412398 0.979245
vt 0.412941 0.979245
vt 0.429728 0.979186
vt 0.429489 0.995625
vt 0.412703 0.995683
vt 0.412457 0.996233
vt 0.413000 0.996233
vt 0.429243 0.996174
vt 0.429787 0.996174
vt 0.412960 0.995567
vt 0.412960 0.996110
vt 0.429822 0.995508
vt 0.429822 0.996052
vt 0.420869 0.986868
vt 0.421424 0.986867
vt 0.421416 0.986163
vt 0.421416 0.986715
vt 0.421115 0.986318
vt 0.421670 0.986318
vt 0.421130 0.986070
vt 0.421130 0.986622
vn 0.000000 1.000000 0.000000
vn 0.000000 1.000000 0.000000
vn 0.000000 1.000000 0.000000
vn 0.000000 1.000000 0.000000
vn 0.240466 0.000000 -0.970658
vn 0.240466 0.000000 -0.970658
vn -0.000000 0.000000 -1.000000
vn -0.000000 0.000000 -1.000000
vn 0.000000 -1.000000 0.000000
vn 0.000000 -1.000000 0.000000
vn 0.000000 -1.000000 0.000000
vn 0.000000 -1.000000 0.000000
vn -1.000000 0.000000 0.000000
vn -1.000000 0.000000 0.000000
vn -1.000000 0.000000 0.000000
vn -1.000000 0.000000 0.000000
vn 1.000000 0.000000 0.000000
vn 1.000000 0.000000 0.000000
vn 1.000000 0.000000 0.000000
vn 1.000000 0.000000 0.000000
vn -0.000000 0.000000 -1.000000
vn -0.000000 0.000000 -1.000000
vn -0.245583 0.000000 -0.969376
vn -0.245583 0.000000 -0.969376
vn 0.000000 -1.000000 0.000000
vn 0.000000 -1.000000 0.000000
vn 0.000000 -1.000000 0.000000
vn 0.000000 -1.000000 0.000000
vn 0.000000 1.000000 0.000000
vn 0.000000 1.000000 0.000000
vn 0.000000 1.000000 0.000000
vn 0.000000 1.000000 0.000000
vn 0.000000 1.000000 0.000000
vn 0.000000 1.000000 0.000000
vn 0.000000 1.000000 0.000000
vn 0.000000 1.000000 0.000000
vn -0.240466 0.000000 -0.970658
vn 0.000000 0.000000 -1.000000
vn 0.000000 0.000000 -1.000000
vn -0.240466 0.000000 -0.970658
vn 0.000000 -1.000000 0.000000
vn 0.000000 -1.000000 0.000000
vn 0.000000 -1.000000 0.000000
vn 0.000000 -1.000000 0.000000
vn 1.000000 0.000000 0.000000
vn 1.000000 0.000000 0.000000
vn 1.000000 0.000000 0.000000
vn 1.000000 0.000000 0.000000
vn -1.000000 0.000000 0.000000
vn -1.000000 0.000000 0.000000
vn -1.000000 0.000000 0.000000
vn -1.000000 0.000000 0.000000
vn 0.000000 0.000000 -1.000000
vn 0.245583 0.000000 -0.969376
vn 0.245583 0.000000 -0.969376
vn 0.000000 0.000000 -1.000000
vn 0.000000 -1.000000 0.000000
vn 0.000000 -1.000000 0.000000
vn 0.000000 -1.000000 0.000000
vn 0.000000 -1.000000 0.000000
vn 0.000000 1.000000 0.000000
vn 0.000000 1.000000 0.000000
vn 0.000000 1.000000 0.000000
vn 0.000000 1.000000 0.000000
vn 0.000000 0.000000 1.000000
vn 0.000000 0.000000 1.000000
vn 0.000000 0.000000 1.000000
vn 0.000000 0.000000 1.000000
vn 0.000000 1.000000 0.000000
vn 0.000000 1.000000 0.000000
vn 0.000000 1.000000 0.000000
vn 0.000000 1.000000 0.000000
vn 0.000000 0.000000 -1.000000
vn 0.000000 0.000000 -1.000000
vn 0.000000 0.000000 -1.000000
vn 0.000000 0.000000 -1.000000
vn 1.000000 0.000000 0.000000
vn 1.000000 0.000000 0.000000
vn 1.000000 0.000000 0.000000
vn 1.000000 0.000000 0.000000
vn -1.000000 0.000000 0.000000
vn -1.000000 0.000000 0.000000
vn -1.000000 0.000000 0.000000
vn -1.000000 0.000000 0.000000
vn 0.202067 0.000000 0.979372
vn 0.202067 0.000000 0.979372
vn 0.202067 0.000000 0.979372
vn 0.202067 0.000000 0.979372
vn 0.000000 1.000000 0.000000
vn 0.000000 1.000000 0.000000
vn 0.000000 1.000000 0.000000
vn 0.202067 0.000000 -0.979372
vn 0.202067 0.000000 -0.979372
vn 0.202067 0.000000 -0.979372
vn 0.202067 0.000000 -0.979372
vn -1.000000 0.000000 0.000000
vn -1.000000 0.000000 0.000000
vn -1.000000 0.000000 0.000000
vn -1.000000 0.000000 0.000000
vn 0.000000 -0.002743 0.999996
vn 0.000000 -0.002743 0.999996
vn 0.000000 -0.002743 0.999996
vn 0.000000 -0.002743 0.999996
vn 0.000000 0.999996 0.003022
vn 0.000000 0.999996 0.003022
vn 0.000000 0.999996 0.003022
vn 0.000000 0.999996 0.003022
vn 0.000000 0.002743 -0.999996
vn 0.000000 0.002743 -0.999996
vn 0.000000 0.002743 -0.999996
vn 0.000000 0.002743 -0.999996
vn 1.000000 0.000000 0.000000
vn 1.000000 0.000000 0.000000
vn 1.000000 0.000000 0.000000
vn 1.000000 0.000000 0.000000
vn -1.000000 0.000001 0.000000
vn -1.000000 0.000001 0.000000
vn -1.000000 0.000001 0.000000
vn -1.000000 0.000001 0.000000
vn 1.000000 0.000000 0.000000
vn 1.000000 0.000000 0.000000
vn 1.000000 0.000000 0.000000
vn 1.000000 0.000000 0.000000
vn 0.000000 0.999995 0.003024
vn 0.000000 0.999995 0.003024
vn 0.000000 0.999995 0.003024
vn 0.000000 0.999995 0.003024
vn -1.000000 -0.000001 0.000000
vn -1.000000 -0.000001 0.000000
vn -1.000000 -0.000001 0.000000
vn -1.000000 -0.000001 0.000000
vn 0.000000 0.002756 -0.999996
vn 0.000000 0.002756 -0.999996
vn 0.000000 0.002756 -0.999996
vn 0.000000 0.002756 -0.999996
vn 0.000000 -0.002768 0.999996
vn 0.000000 -0.002768 0.999996
vn 0.000000 -0.002768 0.999996
vn 0.000000 -0.002768 0.999996
vn 0.000000 0.002756 -0.999996
vn 0.000000 0.002756 -0.999996
vn 0.000000 0.002756 -0.999996
vn 0.000000 0.002756 -0.999996
vn 0.000000 0.999995 0.003024
vn 0.000000 0.999995 0.003024
vn 0.000000 0.999995 0.003024
vn 0.000000 0.999995 0.003024
vn 0.000000 -0.002768 0.999996
vn 0.000000 -0.002768 0.999996
vn 0.000000 -0.002768 0.999996
vn 0.000000 -0.002768 0.999996
vn 1.000000 -0.000001 0.000000
vn 1.000000 -0.000001 0.000000
vn 1.000000 -0.000001 0.000000
vn 1.000000 -0.000001 0.000000
vn 0.000000 0.999996 0.003021
vn 0.000000 0.999996 0.003021
vn 0.000000 0.999995 0.003021
vn 0.000000 0.999995 0.003021
vn -1.000000 0.000001 0.000000
vn -1.000000 0.000001 0.000000
vn -1.000000 0.000001 0.000000
vn -1.000000 0.000001 0.000000
vn 0.763924 0.000996 -0.645306
vn 0.763924 0.000996 -0.645306
vn 0.763924 0.000996 -0.645306
vn 0.763924 0.000996 -0.645306
vn 0.000002 0.999995 0.003024
vn 0.000002 0.999995 0.003024
vn 0.000002 0.999996 0.003024
vn 0.763922 -0.000999 0.645308
vn 0.763922 -0.000999 0.645308
vn 0.763922 -0.000999 0.645308
vn 0.763922 -0.000999 0.645308
vn 0.645312 -0.001367 0.763918
vn 0.645312 -0.001367 0.763918
vn 0.645312 -0.001367 0.763918
vn 0.645312 -0.001367 0.763918
vn 0.000000 1.000000 0.000000
vn 0.000000 1.000000 0.000000
vn 0.000000 1.000000 0.000000
vn -0.645311 -0.001367 0.763919
vn -0.645311 -0.001367 0.763919
vn -0.645311 -0.001367 0.763919
vn -0.645311 -0.001367 0.763919
vn -0.763924 0.000996 -0.645306
vn -0.763923 0.000996 -0.645306
vn -0.763924 0.000996 -0.645306
vn -0.763924 0.000996 -0.645306
vn -0.000002 0.999995 0.003024
vn -0.000002 0.999995 0.003024
vn -0.000002 0.999996 0.003024
vn -0.763922 -0.001000 0.645308
vn -0.763922 -0.001000 0.645308
vn -0.763922 -0.001000 0.645308
vn -0.763922 -0.001000 0.645308
vn 0.645309 0.001375 -0.763920
vn 0.645309 0.001375 -0.763920
vn 0.645309 0.001375 -0.763920
vn 0.645309 0.001375 -0.763920
vn 0.000000 1.000000 0.000000
vn 0.000000 1.000000 0.000000
vn 0.000000 1.000000 0.000000
vn -0.645310 0.001374 -0.763920
vn -0.645310 0.001374 -0.763920
vn -0.645310 0.001374 -0.763920
vn -0.645310 0.001374 -0.763920
f 3/1/1 5/2/2 9/3/3 12/4/4
f 5/2/5 7/5/6 10/6/7 9/3/8
f 7/5/9 1/7/10 11/8/11 10/6/12
f 2/9/13 4/10/14 6/11/15 8/12/16
f 7/13/17 5/14/18 3/1/19 1/15/20
f 9/3/21 10/6/22 8/16/23 6/17/24
f 11/8/25 2/18/26 8/16/27 10/6/28
f 9/3/29 6/17/30 4/10/31 12/4/32
f 15/19/33 24/20/34 21/21/35 17/22/36
f 17/22/37 21/21/38 22/23/39 19/24/40
f 19/24/41 22/23/42 23/25/43 13/26/44
f 14/27/45 20/28/46 18/29/47 16/30/48
f 19/31/49 13/32/50 15/19/51 17/33/52
f 21/21/53 18/34/54 20/35/55 22/23/56
f 23/25/57 22/23/58 20/35/59 14/36/60
f 21/21/61 24/20/62 16/30/63 18/34/64
f 25/37/65 26/38/66 28/39/67 27/40/68
f 27/40/69 28/39/70 30/41/71 29/42/72
f 29/42/73 30/41/74 32/43/75 31/44/76
f 26/38/77 32/45/78 30/46/79 28/39/80
f 31/47/81 25/37/82 27/40/83 29/48/84
f 33/49/85 35/50/86 36/51/87 34/52/88
f 35/50/89 37/53/90 36/51/91
f 35/50/92 33/54/93 38/55/94 37/53/95
f 34/52/96 36/51/97 37/56/98 38/57/99
f 39/58/100 40/59/101 41/60/102 42/61/103
f 42/61/104 41/60/105 68/62/106 69/63/107
f 43/64/108 44/65/109 45/66/110 46/67/111
f 41/60/112 40/59/113 67/68/114 68/62/115
f 70/69/116 39/58/117 42/61/118 69/63/119
f 47/70/120 48/71/121 49/72/122 50/73/123
f 50/73/124 49/72/125 64/74/126 65/75/127
f 51/76/128 52/77/129 53/78/130 54/79/131
f 49/72/132 48/71/133 63/80/134 64/74/135
f 66/81/136 47/70/137 50/73/138 65/75/139
f 52/77/140 56/82/141 55/83/142 53/78/143
f 51/76/144 57/84/145 56/82/146 52/77/147
f 54/79/148 58/85/149 57/84/150 51/76/151
f 44/65/152 60/86/153 59/87/154 45/66/155
f 43/64/156 61/88/157 60/86/158 44/65/159
f 46/67/160 62/89/161 61/88/162 43/64/163
f 55/83/164 56/82/165 72/90/166 71/91/167
f 56/82/168 57/84/169 72/90/170
f 57/84/171 58/85/172 71/91/173 72/90/174
f 59/87/175 60/86/176 74/92/177 73/93/178
f 60/86/179 61/88/180 74/92/181
f 61/88/182 62/89/183 73/93/184 74/92/185
f 64/74/186 63/80/187 75/94/188 76/95/189
f 65/75/190 64/74/191 76/95/192
f 66/81/193 65/75/194 76/95/195 75/94/196
f 68/62/197 67/68/198 77/96/199 78/97/200
f 69/63/201 68/62/202 78/97/203
f 70/69/204 69/63/205 78/97/206 77/96/207
