# This file uses meters as units for non-parametric coordinates.

v 7.109853 2.378790 0.584507
v 7.109853 2.378790 2.938734
v 4.982891 2.378790 2.938734
v 4.982891 2.378790 0.584507
v 9.767602 2.378790 0.584507
v 9.767602 2.378790 2.938734
v 7.640641 2.378790 2.938734
v 7.640641 2.378790 0.584507
v -9.795066 2.353895 4.199274
v 11.142812 2.353895 4.199274
v 11.142812 2.353895 -4.199271
v -9.795066 2.353895 -4.199271
v -10.463920 -0.000000 4.749084
v 11.811666 -0.000000 4.749084
v -10.463920 2.306615 4.749084
v 11.811666 2.306615 4.749084
v -10.463920 2.306615 -4.749082
v 11.811666 2.306615 -4.749082
v -10.463920 -0.000000 -4.749082
v 11.811666 -0.000000 -4.749082
v 3.598454 2.365963 4.043583
v 3.598454 2.365963 -4.043581
v -3.598455 2.365963 4.043583
v -3.598455 2.365963 -4.043581
v 3.598454 2.365963 -2.882318
v 3.598454 2.365963 -2.672887
v -3.598455 2.365963 -2.672887
v -3.598455 2.365963 -2.882318
v 3.598454 2.365963 -1.485966
v 3.598454 2.365963 -1.276538
v -3.598455 2.365963 -1.276538
v -3.598455 2.365963 -1.485966
v 3.598454 2.365963 0.008847
v 3.598454 2.365963 0.218278
v -3.598455 2.365963 0.218278
v -3.598455 2.365963 0.008847
v 3.598454 2.365963 2.565562
v 3.598454 2.365963 2.774993
v -3.598455 2.365963 2.774993
v -3.598455 2.365963 2.565562
v -2.740194 2.420877 1.760241
v -2.740194 2.420877 1.130790
v -0.801318 2.420877 1.130790
v -0.801318 2.420877 1.760241
v 2.706547 2.420877 1.130790
v 2.706547 2.420877 1.760241
v 0.767671 2.420877 1.760241
v 0.767671 2.420877 1.130790
v -4.607824 2.400526 -0.514970
v -8.695468 2.400526 -0.514970
v -4.607824 2.400526 1.141951
v -8.695468 2.400526 1.141951
v -7.332920 2.400526 -0.514970
v -7.332920 2.400526 1.141951
v -5.970372 2.400526 -0.514970
v -5.970372 2.400526 1.141951
v -7.332920 2.400526 2.770175
v -5.970372 2.400526 2.770175
v -5.970372 2.400526 -2.143192
v -7.332920 2.400526 -2.143192
v -4.713470 2.443776 -0.387928
v -8.589822 2.443776 -0.387928
v -4.713470 2.443776 1.014913
v -8.589822 2.443776 1.014913
v -7.228452 2.443776 -0.387928
v -7.228452 2.443776 1.014913
v -6.074840 2.443776 -0.387928
v -6.074840 2.443776 1.014913
v -7.228452 2.443776 2.640956
v -6.074840 2.443776 2.640956
v -6.074840 2.443776 -2.013972
v -7.228452 2.443776 -2.013972
vt 0.365241 0.949608
vt 0.365232 0.961029
vt 0.354081 0.961029
vt 0.354090 0.949608
vt 0.365241 0.949608
vt 0.365232 0.961029
vt 0.354081 0.961029
vt 0.354090 0.949608
vt 0.381571 0.982558
vt 0.394658 0.982820
vt 0.394601 0.993201
vt 0.381514 0.992938
vt 0.350535 0.951355
vt 0.365901 0.951623
vt 0.368190 0.949295
vt 0.348266 0.948896
vt 0.368104 0.965099
vt 0.348180 0.964700
vt 0.365834 0.962229
vt 0.350469 0.961961
vt 0.324447 0.942167
vt 0.328809 0.942254
vt 0.328799 0.944172
vt 0.324437 0.944085
vt 0.324401 0.950643
vt 0.328763 0.950731
vt 0.328753 0.952635
vt 0.324390 0.952548
vt 0.324412 0.948551
vt 0.328775 0.948638
vt 0.328765 0.950403
vt 0.324403 0.950316
vt 0.324424 0.946465
vt 0.328786 0.946552
vt 0.328776 0.948337
vt 0.324414 0.948250
vt 0.354154 0.953038
vt 0.358516 0.953126
vt 0.358505 0.955032
vt 0.354143 0.954945
vt 0.324940 0.983968
vt 0.324943 0.983366
vt 0.326091 0.983389
vt 0.326088 0.983991
vt 0.328387 0.983435
vt 0.328384 0.984037
vt 0.327236 0.984014
vt 0.327239 0.983412
vt 0.357123 0.953087
vt 0.358516 0.953126
vt 0.358505 0.955032
vt 0.357112 0.955001
vt 0.354154 0.953038
vt 0.355547 0.953077
vt 0.355536 0.954976
vt 0.354143 0.954945
vt 0.355477 0.951390
vt 0.357174 0.951380
vt 0.357153 0.956695
vt 0.355456 0.956675
vt 0.324856 0.981163
vt 0.326249 0.981202
vt 0.326239 0.983108
vt 0.324845 0.983077
vt 0.321887 0.981115
vt 0.323280 0.981154
vt 0.323270 0.983052
vt 0.321876 0.983021
vt 0.323210 0.979466
vt 0.324907 0.979457
vt 0.324886 0.984772
vt 0.323189 0.984752
vn 0.000000 1.000000 0.000000
vn 0.000000 1.000000 0.000000
vn 0.000000 1.000000 0.000000
vn 0.000000 1.000000 0.000000
vn 0.000000 1.000000 0.000000
vn 0.000000 1.000000 0.000000
vn 0.000000 1.000000 0.000000
vn 0.000000 1.000000 0.000000
vn 0.000000 1.000000 0.000000
vn 0.000000 1.000000 0.000000
vn 0.000000 1.000000 0.000000
vn 0.000000 1.000000 0.000000
vn 0.000000 0.000000 1.000000
vn 0.000000 0.000000 1.000000
vn 0.000000 0.000000 1.000000
vn 0.000000 0.000000 1.000000
vn 0.000000 1.000000 0.000000
vn 0.000000 1.000000 0.000000
vn 0.000000 1.000000 0.000000
vn 0.000000 1.000000 0.000000
vn 0.000000 0.000000 -1.000000
vn 0.000000 0.000000 -1.000000
vn 0.000000 0.000000 -1.000000
vn 0.000000 0.000000 -1.000000
vn 0.000000 -1.000000 0.000000
vn 0.000000 -1.000000 0.000000
vn 0.000000 -1.000000 0.000000
vn 0.000000 -1.000000 0.000000
vn 1.000000 0.000000 0.000000
vn 1.000000 0.000000 0.000000
vn 1.000000 0.000000 0.000000
vn 1.000000 0.000000 0.000000
vn -1.000000 0.000000 0.000000
vn -1.000000 0.000000 0.000000
vn -1.000000 0.000000 0.000000
vn -1.000000 0.000000 0.000000
vn 0.000000 1.000000 0.000000
vn 0.000000 1.000000 0.000000
vn 0.000000 1.000000 0.000000
vn 0.000000 1.000000 0.000000
vn 0.000000 1.000000 0.000000
vn 0.000000 1.000000 0.000000
vn 0.000000 1.000000 0.000000
vn 0.000000 1.000000 0.000000
vn 0.000000 1.000000 0.000000
vn 0.000000 1.000000 0.000000
vn 0.000000 1.000000 0.000000
vn 0.000000 1.000000 0.000000
vn 0.000000 1.000000 0.000000
vn 0.000000 1.000000 0.000000
vn 0.000000 1.000000 0.000000
vn 0.000000 1.000000 0.000000
vn 0.000000 1.000000 0.000000
vn 0.000000 1.000000 0.000000
vn 0.000000 1.000000 0.000000
vn 0.000000 1.000000 0.000000
vn 0.000000 1.000000 0.000000
vn 0.000000 1.000000 0.000000
vn 0.000000 1.000000 0.000000
vn 0.000000 1.000000 0.000000
vn 0.000000 1.000000 0.000000
vn 0.000000 1.000000 0.000000
vn 0.000000 1.000000 0.000000
vn 0.000000 1.000000 0.000000
vn 0.000000 1.000000 0.000000
vn 0.000000 1.000000 0.000000
vn 0.000000 1.000000 0.000000
vn 0.000000 1.000000 0.000000
vn 0.000000 1.000000 0.000000
vn 0.000000 1.000000 0.000000
vn 0.000000 1.000000 0.000000
vn 0.000000 1.000000 0.000000
vn 0.000000 1.000000 0.000000
vn 0.000000 1.000000 0.000000
vn 0.000000 1.000000 0.000000
vn 0.000000 1.000000 0.000000
vn 0.000000 1.000000 0.000000
vn 0.000000 1.000000 0.000000
vn 0.000000 1.000000 0.000000
vn 0.000000 1.000000 0.000000
vn 0.000000 1.000000 0.000000
vn 0.000000 1.000000 0.000000
vn 0.000000 1.000000 0.000000
vn 0.000000 1.000000 0.000000
vn 0.000000 1.000000 0.000000
vn 0.000000 1.000000 0.000000
vn 0.000000 1.000000 0.000000
vn 0.000000 1.000000 0.000000
vn 0.000000 1.000000 0.000000
vn 0.000000 1.000000 0.000000
vn 0.000000 1.000000 0.000000
vn 0.000000 1.000000 0.000000
vn 0.000000 1.000000 0.000000
vn 0.000000 1.000000 0.000000
vn 0.000000 1.000000 0.000000
vn 0.000000 1.000000 0.000000
f 2/1/1 1/2/2 4/3/3 3/4/4
f 6/5/5 5/6/6 8/7/7 7/8/8
f 9/9/9 10/10/10 11/11/11 12/12/12
f 13/13/13 14/14/14 16/15/15 15/16/16
f 15/16/17 16/15/18 18/17/19 17/18/20
f 17/18/21 18/17/22 20/19/23 19/20/24
f 19/20/25 20/19/26 14/14/27 13/13/28
f 14/14/29 20/19/30 18/17/31 16/15/32
f 19/20/33 13/13/34 15/16/35 17/18/36
f 23/21/37 21/22/38 38/23/39 39/24/40
f 28/25/41 25/26/42 22/27/43 24/28/44
f 32/29/45 29/30/46 26/31/47 27/32/48
f 36/33/49 33/34/50 30/35/51 31/36/52
f 40/37/53 37/38/54 34/39/55 35/40/56
f 42/41/57 41/42/58 44/43/59 43/44/60
f 46/45/61 45/46/62 48/47/63 47/48/64
f 56/49/65 51/50/66 49/51/67 55/52/68
f 52/53/69 54/54/70 53/55/71 50/56/72
f 54/54/70 56/49/65 55/52/68 53/55/71
f 56/49/73 54/54/74 57/57/75 58/58/76
f 53/55/77 55/52/78 59/59/79 60/60/80
f 68/61/81 63/62/82 61/63/83 67/64/84
f 64/65/85 66/66/86 65/67/87 62/68/88
f 66/66/86 68/61/81 67/64/84 65/67/87
f 68/61/89 66/66/90 69/69/91 70/70/92
f 65/67/93 67/64/94 71/71/95 72/72/96
