# This file uses meters as units for non-parametric coordinates.

v -0.704713 0.506395 -3.035984
v 0.704713 0.506395 -3.035984
v -0.704713 1.206101 -2.758167
v 0.704713 1.206101 -2.758167
v -0.704713 1.972031 -4.687237
v 0.704713 1.972031 -4.687237
v -0.704713 1.272326 -4.965052
v 0.704713 1.272326 -4.965052
v -2.623222 -0.308152 11.541344
v 2.623222 -0.308152 11.541344
v -2.623222 3.318218 11.541336
v 2.623222 3.318218 11.541336
v -2.623222 3.318218 -11.541340
v 2.623222 3.318218 -11.541340
v -2.623222 1.497426 -11.541334
v 2.623222 1.497426 -11.541334
v 2.623222 3.318218 2.328037
v -2.623222 3.318218 2.328037
v -2.623222 -0.308152 2.328045
v 2.623222 -0.308152 2.328045
v 2.623222 3.318218 -4.909813
v -2.623222 3.318218 -4.909813
v -2.623222 1.497426 -4.909807
v 2.623222 1.497426 -4.909807
v 2.623222 3.318218 -0.765778
v -2.623222 3.318218 -0.765778
v -2.623222 0.000000 -0.765770
v 2.623222 0.000000 -0.765770
v -0.408104 3.248847 -6.658249
v 0.408104 3.248847 -6.658249
v 0.408104 3.571679 -6.657639
v -0.408104 3.571679 -6.657639
v 0.408104 3.575659 -7.562119
v -0.408104 3.575659 -7.562119
v -0.408104 3.583231 -9.282822
v 0.408104 3.583231 -9.282822
v 0.408104 3.260399 -9.283432
v -0.408104 3.260399 -9.283432
v 0.408104 3.252826 -7.562733
v -0.408104 3.252826 -7.562733
v -0.408104 3.579252 -8.378330
v 0.408104 3.579252 -8.378330
v -0.408104 3.256420 -8.378941
v 0.408104 3.256420 -8.378941
v 1.312599 3.252826 -7.562733
v 1.312599 3.256420 -8.378941
v 1.312599 3.579252 -8.378330
v 1.312599 3.575659 -7.562119
v -1.312599 3.575659 -7.562119
v -1.312599 3.579252 -8.378330
v -1.312599 3.256420 -8.378941
v -1.312599 3.252826 -7.562733
vt 0.412526 0.976285
vt 0.428305 0.976285
vt 0.412526 0.992064
vt 0.428305 0.992064
vt 0.428305 0.992064
vt 0.412526 0.992064
vt 0.428305 0.976285
vt 0.412526 0.976285
vt 0.428305 0.992064
vt 0.412526 0.992064
vt 0.428305 0.992064
vt 0.428305 0.976285
vt 0.481055 0.982038
vt 0.485928 0.982038
vt 0.487355 0.979835
vt 0.479628 0.979835
vt 0.487355 0.987475
vt 0.479628 0.987475
vt 0.479628 0.995434
vt 0.487355 0.995434
vt 0.485928 0.993231
vt 0.481055 0.993231
vt 0.481055 0.987520
vt 0.485928 0.987520
vt 0.487355 0.988865
vt 0.479628 0.988865
vt 0.481055 0.988517
vt 0.485928 0.988517
vt 0.479628 0.990429
vt 0.487355 0.990429
vt 0.481055 0.989640
vt 0.485928 0.989640
vt 0.413834 0.993849
vt 0.430156 0.993849
vt 0.430156 0.993849
vt 0.413834 0.993849
vt 0.430156 0.977527
vt 0.413834 0.977527
vt 0.413834 0.977527
vt 0.430156 0.977527
vt 0.430156 0.977527
vt 0.413834 0.977527
vt 0.430156 0.977527
vt 0.413834 0.977527
vt 0.413834 0.993849
vt 0.430156 0.993849
vt 0.413834 0.993849
vt 0.430156 0.993849
vt 0.413834 0.977527
vt 0.413834 0.993849
vt 0.413834 0.993849
vt 0.413834 0.977527
vt 0.430156 0.977527
vt 0.430156 0.993849
vt 0.430156 0.993849
vt 0.430156 0.977527
vn 0.000000 -0.369024 0.929420
vn 0.000000 -0.369024 0.929420
vn 0.000000 -0.369024 0.929420
vn 0.000000 -0.369024 0.929420
vn 0.000000 0.369022 -0.929421
vn 0.000000 0.369022 -0.929421
vn 0.000000 0.369022 -0.929421
vn 0.000000 0.369022 -0.929421
vn 0.000000 -0.929420 -0.369023
vn 0.000000 -0.929420 -0.369023
vn 0.000000 -0.929420 -0.369023
vn 0.000000 -0.929420 -0.369023
vn 1.000000 -0.000000 0.000000
vn 1.000000 -0.000000 0.000000
vn 1.000000 -0.000000 0.000000
vn 1.000000 -0.000000 0.000000
vn -1.000000 0.000000 0.000000
vn -1.000000 0.000000 0.000000
vn -1.000000 0.000000 0.000000
vn -1.000000 0.000000 0.000000
vn 0.000000 0.000002 1.000000
vn 0.000000 0.000002 1.000000
vn 0.000000 0.000002 1.000000
vn 0.000000 0.000002 1.000000
vn 0.000000 1.000000 0.000000
vn 0.000000 1.000000 0.000000
vn 0.000000 1.000000 0.000000
vn 0.000000 1.000000 0.000000
vn 0.000000 -0.000003 -1.000000
vn 0.000000 -0.000003 -1.000000
vn 0.000000 -0.000003 -1.000000
vn 0.000000 -0.000003 -1.000000
vn 0.000000 -0.999687 -0.025031
vn 0.000000 -0.999687 -0.025031
vn 0.000000 -1.000000 0.000000
vn 0.000000 -1.000000 0.000000
vn 1.000000 -0.000000 0.000000
vn 1.000000 -0.000000 0.000000
vn 1.000000 -0.000000 0.000000
vn 1.000000 -0.000000 0.000000
vn -1.000000 0.000000 0.000000
vn -1.000000 0.000000 0.000000
vn -1.000000 0.000000 0.000000
vn -1.000000 0.000000 0.000000
vn 0.000000 1.000000 0.000000
vn 0.000000 1.000000 0.000000
vn -1.000000 0.000000 0.000000
vn -1.000000 0.000000 0.000000
vn 0.000000 -0.970265 -0.242045
vn 0.000000 -0.970265 -0.242045
vn 1.000000 0.000000 0.000000
vn 1.000000 0.000000 0.000000
vn 0.000000 1.000000 0.000000
vn 0.000000 1.000000 0.000000
vn 0.000000 1.000000 0.000000
vn 0.000000 1.000000 0.000000
vn -1.000000 -0.000000 0.000000
vn -1.000000 0.000000 0.000000
vn -1.000000 0.000000 0.000000
vn -1.000000 -0.000000 0.000000
vn 0.000000 -1.000000 -0.000000
vn 0.000000 -1.000000 -0.000000
vn 0.000000 -0.990482 -0.137642
vn 0.000000 -0.990482 -0.137642
vn 1.000000 0.000000 0.000000
vn 1.000000 0.000000 0.000000
vn 1.000000 0.000000 0.000000
vn 1.000000 0.000000 0.000000
vn 0.000000 -0.001891 0.999998
vn 0.000000 -0.001891 0.999998
vn 0.000000 -0.001891 0.999998
vn 0.000000 -0.001891 0.999998
vn 0.000000 0.999990 0.004400
vn 0.000000 0.999990 0.004400
vn 0.000000 0.999990 0.004401
vn 0.000000 0.999990 0.004401
vn 0.000000 0.001891 -0.999998
vn 0.000000 0.001891 -0.999998
vn 0.000000 0.001891 -0.999998
vn 0.000000 0.001891 -0.999998
vn 1.000000 -0.000000 0.000000
vn 0.707665 -0.001344 0.706547
vn 0.706541 -0.001346 0.707671
vn 1.000000 -0.000000 0.000000
vn -0.707665 -0.001344 0.706547
vn -1.000000 -0.000000 0.000000
vn -1.000000 -0.000000 0.000000
vn -0.706541 -0.001346 0.707671
vn 0.000000 0.999990 0.004400
vn 0.000000 0.999990 0.004400
vn 0.000000 0.999990 0.004399
vn 0.000000 0.999990 0.004399
vn -1.000000 0.000000 0.000000
vn -0.706542 0.001338 -0.707669
vn -0.707672 0.001336 -0.706540
vn -1.000000 0.000000 0.000000
vn 0.707671 0.001336 -0.706540
vn 0.706542 0.001338 -0.707670
vn 1.000000 0.000000 0.000000
vn 1.000000 0.000000 0.000000
vn 1.000000 -0.000000 0.000000
vn 1.000000 -0.000000 0.000000
vn 1.000000 -0.000000 0.000000
vn 1.000000 -0.000000 0.000000
vn 0.000000 0.999990 0.004402
vn 0.000000 0.999990 0.004402
vn 0.000000 0.999990 0.004402
vn 0.000000 0.999990 0.004402
vn -1.000000 -0.000000 0.000000
vn -1.000000 -0.000000 0.000000
vn -1.000000 -0.000000 0.000000
vn -1.000000 -0.000000 0.000000
vn 0.000000 0.001891 -0.999998
vn 0.000000 0.001891 -0.999998
vn 0.000000 -0.001902 0.999998
vn 0.000000 -0.001902 0.999998
vn 0.000000 0.999990 0.004402
vn 0.000000 0.999990 0.004402
vn 0.000000 0.999990 0.004402
vn 0.000000 0.999990 0.004402
vn 0.000000 -0.001902 0.999998
vn 0.000000 -0.001902 0.999998
vn 0.000000 0.001891 -0.999998
vn 0.000000 0.001891 -0.999998
f 1/1/1 2/2/2 4/4/3 3/3/4
f 5/5/5 6/6/6 8/8/7 7/7/8
f 7/7/9 8/8/10 2/10/11 1/9/12
f 2/2/13 8/8/14 6/6/15 4/4/16
f 7/12/17 1/1/18 3/3/19 5/11/20
f 9/13/21 10/14/22 12/15/23 11/16/24
f 11/16/25 12/15/26 17/17/27 18/18/28
f 13/19/29 14/20/30 16/21/31 15/22/32
f 19/23/33 20/24/34 10/14/35 9/13/36
f 10/14/37 20/24/38 17/17/39 12/15/40
f 19/23/41 9/13/42 11/16/43 18/18/44
f 18/18/28 17/17/27 25/25/45 26/26/46
f 27/27/47 19/23/41 18/18/44 26/26/48
f 27/27/49 28/28/50 20/24/34 19/23/33
f 17/17/39 20/24/38 28/28/51 25/25/52
f 22/29/53 21/30/54 14/20/55 13/19/56
f 15/22/57 23/31/58 22/29/59 13/19/60
f 15/22/61 16/21/62 24/32/63 23/31/64
f 21/30/65 24/32/66 16/21/67 14/20/68
f 26/26/46 25/25/45 21/30/54 22/29/53
f 23/31/58 27/27/47 26/26/48 22/29/59
f 23/31/64 24/32/63 28/28/50 27/27/49
f 25/25/52 28/28/51 24/32/66 21/30/65
f 29/33/69 30/34/70 31/35/71 32/36/72
f 32/36/73 31/35/74 33/37/75 34/38/76
f 35/39/77 36/40/78 37/41/79 38/42/80
f 30/34/81 39/43/82 33/37/83 31/35/84
f 40/44/85 29/33/86 32/36/87 34/38/88
f 41/45/89 42/46/90 36/40/91 35/39/92
f 38/42/93 43/47/94 41/45/95 35/39/96
f 42/46/97 44/48/98 37/41/99 36/40/100
f 34/38/76 33/37/75 42/46/90 41/45/89
f 45/49/101 46/50/102 47/51/103 48/52/104
f 48/52/105 47/51/106 42/46/107 33/37/108
f 49/53/109 50/54/110 51/55/111 52/56/112
f 46/50/113 44/48/98 42/46/97 47/51/114
f 39/43/82 45/49/115 48/52/116 33/37/83
f 34/38/117 41/45/118 50/54/119 49/53/120
f 52/56/121 40/44/85 34/38/88 49/53/122
f 41/45/95 43/47/94 51/55/123 50/54/124
