# This file uses meters as units for non-parametric coordinates.

v 1.309060 3.234319 1.427746
v 4.634682 3.234319 1.427746
v 1.309060 1.844893 1.427746
v 4.634682 1.844893 1.427746
v -4.087695 4.575957 1.427746
v -2.264047 4.575957 1.427746
v -4.087695 2.156911 1.427746
v -2.264047 2.156911 1.427746
v 3.451049 4.759546 1.427746
v 4.316291 4.759546 1.427746
v 3.451049 3.469549 1.427746
v 4.316291 3.469549 1.427746
v 1.494900 4.595208 1.427746
v 2.982784 4.595208 1.427746
v 1.494900 3.608245 1.427746
v 2.982784 3.608245 1.427746
v -0.988745 2.534066 1.427746
v 1.265382 2.534066 1.427746
v -0.988745 1.943403 1.427746
v 1.265382 1.943403 1.427746
vt 0.222316 0.703486
vt 0.187842 0.703600
vt 0.187842 0.689833
vt 0.222316 0.689833
vt 0.206576 0.685969
vt 0.187890 0.686037
vt 0.187890 0.661096
vt 0.206576 0.661096
vt 0.226760 0.685984
vt 0.209199 0.686051
vt 0.209199 0.660277
vt 0.226760 0.660277
vt 0.245858 0.717099
vt 0.225934 0.717166
vt 0.225934 0.703576
vt 0.245858 0.703576
vt 0.248114 0.701987
vt 0.223678 0.702054
vt 0.223678 0.694402
vt 0.248114 0.694402
vn 0.000000 0.000000 1.000000
vn 0.000000 0.000000 1.000000
vn 0.000000 0.000000 1.000000
vn 0.000000 0.000000 1.000000
vn 0.000000 0.000000 1.000000
vn 0.000000 0.000000 1.000000
vn 0.000000 0.000000 1.000000
vn 0.000000 0.000000 1.000000
vn 0.000000 0.000000 1.000000
vn 0.000000 0.000000 1.000000
vn 0.000000 0.000000 1.000000
vn 0.000000 0.000000 1.000000
vn 0.000000 0.000000 1.000000
vn 0.000000 0.000000 1.000000
vn 0.000000 0.000000 1.000000
vn 0.000000 0.000000 1.000000
vn 0.000000 0.000000 1.000000
vn 0.000000 0.000000 1.000000
vn 0.000000 0.000000 1.000000
vn 0.000000 0.000000 1.000000
f 2/1/1 1/2/2 3/3/3 4/4/4
f 6/5/5 5/6/6 7/7/7 8/8/8
f 10/9/9 9/10/10 11/11/11 12/12/12
f 14/13/13 13/14/14 15/15/15 16/16/16
f 18/17/17 17/18/18 19/19/19 20/20/20
