# This file uses meters as units for non-parametric coordinates.

v 7.268766 5.887671 -5.288732
v 7.268766 7.656491 -5.078121
v 9.214846 7.610724 -4.445259
v 9.214846 5.841905 -4.655860
v 10.726091 7.480390 -3.127759
v 10.726091 5.711570 -3.338367
v 5.228757 5.887672 -5.288732
v 5.228757 7.656491 -5.078121
v 7.241424 5.854847 -5.013061
v 7.241424 7.623668 -4.802450
v 9.109632 7.580691 -4.193030
v 9.109632 5.811873 -4.403632
v 10.670240 7.457404 -2.934719
v 10.670240 5.688585 -3.145326
v 5.139552 5.854529 -5.010379
v 5.139552 7.623347 -4.799772
v -7.268767 5.887671 -5.288732
v -7.268767 7.656491 -5.078121
v -9.214848 7.610724 -4.445259
v -9.214848 5.841905 -4.655860
v -10.726093 7.480390 -3.127759
v -10.726093 5.711570 -3.338367
v -5.228758 5.887672 -5.288732
v -5.228758 7.656491 -5.078121
v -7.241425 5.854847 -5.013061
v -7.241425 7.623668 -4.802450
v -9.109634 7.580691 -4.193030
v -9.109634 5.811873 -4.403632
v -10.670240 7.457404 -2.934719
v -10.670240 5.688585 -3.145326
v -5.139553 5.854529 -5.010379
v -5.139553 7.623347 -4.799772
v -7.791081 7.117220 2.227513
v -6.548209 7.117220 2.227513
v -7.791081 7.437789 2.265683
v -6.548209 7.437789 2.265683
v -7.791081 7.910421 -1.703753
v -6.548209 7.910421 -1.703753
v -7.791081 7.589852 -1.741923
v -6.548209 7.589852 -1.741923
v -6.548209 7.747580 -0.336108
v -7.791081 7.747580 -0.336108
v -7.791081 7.427011 -0.374278
v -6.548209 7.427011 -0.374278
v -6.548209 7.600630 0.898051
v -7.791081 7.600630 0.898051
v -7.791081 7.280061 0.859881
v -6.548209 7.280061 0.859881
v -5.170901 7.280061 0.859881
v -5.170901 7.427011 -0.374278
v -5.170901 7.600630 0.898051
v -5.170901 7.747580 -0.336108
v -9.168388 7.600630 0.898051
v -9.168388 7.747580 -0.336108
v -9.168388 7.280061 0.859881
v -9.168388 7.427011 -0.374278
v 0.822535 7.370055 6.901108
v 0.474891 7.436716 6.559915
v 0.000000 7.461116 6.435030
v -0.474891 7.436716 6.559915
v -0.822535 7.370055 6.901108
v -0.949782 7.278994 7.367187
v -0.822535 7.187932 7.833265
v -0.474891 7.121271 8.174459
v 0.000000 7.096871 8.299343
v 0.474891 7.121271 8.174459
v 0.822535 7.187932 7.833265
v 0.949782 7.278994 7.367187
v 0.822535 7.744483 6.974263
v 0.474891 7.811143 6.633070
v 0.000000 7.835543 6.508184
v -0.474891 7.811143 6.633070
v -0.822535 7.744483 6.974263
v -0.949782 7.653421 7.440341
v -0.822535 7.562359 7.906420
v -0.474891 7.495698 8.247613
v 0.000000 7.471299 8.372499
v 0.474891 7.495698 8.247613
v 0.822535 7.562359 7.906420
v 0.949782 7.653421 7.440341
v 0.000000 7.653421 7.440341
v -0.185682 5.712783 7.250379
v 0.185682 5.712783 7.250379
v -0.185682 7.386341 7.577353
v 0.185682 7.386341 7.577353
v -0.185682 7.457551 7.212880
v 0.185682 7.457551 7.212880
v -0.185682 5.783993 6.885907
v 0.185682 5.783993 6.885907
vt 0.361144 0.980311
vt 0.361144 0.985756
vt 0.355058 0.985838
vt 0.355058 0.980393
vt 0.350099 0.986225
vt 0.350099 0.980780
vt 0.367407 0.980389
vt 0.367407 0.985834
vt 0.361148 0.985869
vt 0.355307 0.985945
vt 0.355307 0.980499
vt 0.361148 0.980424
vt 0.350214 0.986305
vt 0.350214 0.980860
vt 0.367599 0.980505
vt 0.367599 0.985950
vt 0.357685 0.981732
vt 0.363274 0.981951
vt 0.363274 0.987144
vt 0.357685 0.986924
vt 0.367393 0.982429
vt 0.367393 0.987622
vt 0.351713 0.986850
vt 0.351713 0.981658
vt 0.362896 0.987237
vt 0.357528 0.987030
vt 0.357528 0.981838
vt 0.362896 0.982045
vt 0.367176 0.987694
vt 0.367176 0.982502
vt 0.351374 0.981762
vt 0.351374 0.986955
vt 0.352105 0.992906
vt 0.368427 0.992906
vt 0.368427 0.992906
vt 0.352105 0.992906
vt 0.368427 0.976584
vt 0.352105 0.976584
vt 0.352105 0.976584
vt 0.368427 0.976584
vt 0.368427 0.976584
vt 0.352105 0.976584
vt 0.368427 0.976584
vt 0.352105 0.976584
vt 0.352105 0.992906
vt 0.368427 0.992906
vt 0.352105 0.992906
vt 0.368427 0.992906
vt 0.352105 0.976584
vt 0.352105 0.992906
vt 0.352105 0.992906
vt 0.352105 0.976584
vt 0.368427 0.976584
vt 0.368427 0.992906
vt 0.368427 0.992906
vt 0.368427 0.976584
vt 0.354115 0.947569
vt 0.355236 0.947569
vt 0.355236 0.962493
vt 0.354115 0.962493
vt 0.356358 0.947569
vt 0.356358 0.962493
vt 0.357479 0.947569
vt 0.357479 0.962493
vt 0.358600 0.947569
vt 0.358600 0.962493
vt 0.359721 0.947569
vt 0.359721 0.962493
vt 0.360842 0.947569
vt 0.360842 0.962493
vt 0.361963 0.947569
vt 0.361963 0.962493
vt 0.363084 0.947569
vt 0.363084 0.962493
vt 0.364205 0.947569
vt 0.364205 0.962493
vt 0.365326 0.947569
vt 0.365326 0.962493
vt 0.366447 0.947569
vt 0.366447 0.962493
vt 0.367568 0.947569
vt 0.367568 0.962493
vt 0.366479 0.961528
vt 0.364022 0.963985
vt 0.360666 0.957903
vt 0.360666 0.964884
vt 0.357309 0.963985
vt 0.354852 0.961528
vt 0.353953 0.958171
vt 0.354852 0.954815
vt 0.357309 0.952358
vt 0.360666 0.951458
vt 0.364022 0.952358
vt 0.366479 0.954815
vt 0.367378 0.958171
vt 0.351577 0.951332
vt 0.366585 0.951332
vt 0.366585 0.966340
vt 0.351577 0.966340
vt 0.366585 0.966340
vt 0.351577 0.966340
vt 0.351577 0.951332
vt 0.366585 0.951332
vt 0.366585 0.951332
vt 0.366585 0.966340
vn 0.156320 0.116778 -0.980779
vn 0.157753 0.116751 -0.980552
vn 0.494258 0.102779 -0.863218
vn 0.491139 0.102988 -0.864972
vn 0.658878 0.088938 -0.746974
vn 0.658878 0.088938 -0.746974
vn 0.000000 0.118233 -0.992986
vn 0.000000 0.118233 -0.992986
vn -0.006639 0.993158 0.116588
vn -0.007180 0.993170 0.116453
vn -0.013730 0.993371 0.114133
vn -0.013810 0.993359 0.114221
vn 0.013809 -0.993360 -0.114218
vn 0.013729 -0.993371 -0.114131
vn 0.007179 -0.993171 -0.116449
vn 0.006638 -0.993159 -0.116584
vn -0.013172 0.993448 0.113525
vn -0.013172 0.993448 0.113525
vn 0.013169 -0.993448 -0.113525
vn 0.013169 -0.993448 -0.113525
vn -0.000001 -0.992986 -0.118230
vn -0.000001 -0.992986 -0.118230
vn -0.952913 0.035853 -0.301117
vn -0.952913 0.035853 -0.301117
vn -0.952913 0.035853 -0.301117
vn -0.952913 0.035853 -0.301117
vn -0.000000 0.992986 0.118234
vn -0.000000 0.992986 0.118234
vn 0.961122 -0.032647 0.274188
vn 0.961122 -0.032647 0.274188
vn 0.961122 -0.032647 0.274188
vn 0.961122 -0.032647 0.274188
vn -0.156320 0.116778 -0.980779
vn -0.491139 0.102988 -0.864972
vn -0.494258 0.102779 -0.863218
vn -0.157753 0.116751 -0.980553
vn -0.658878 0.088938 -0.746974
vn -0.658878 0.088938 -0.746974
vn 0.000000 0.118233 -0.992986
vn 0.000000 0.118233 -0.992986
vn 0.006639 0.993158 0.116586
vn 0.013810 0.993360 0.114220
vn 0.013730 0.993371 0.114133
vn 0.007180 0.993170 0.116452
vn -0.013809 -0.993360 -0.114218
vn -0.006638 -0.993159 -0.116586
vn -0.007179 -0.993171 -0.116451
vn -0.013729 -0.993371 -0.114131
vn 0.013172 0.993448 0.113527
vn 0.013172 0.993448 0.113527
vn -0.013169 -0.993448 -0.113523
vn -0.013169 -0.993448 -0.113523
vn 0.000001 -0.992986 -0.118232
vn 0.000001 -0.992986 -0.118232
vn 0.952913 0.035853 -0.301118
vn 0.952913 0.035853 -0.301118
vn 0.952913 0.035853 -0.301118
vn 0.952913 0.035853 -0.301118
vn 0.000000 0.992986 0.118233
vn 0.000000 0.992986 0.118233
vn -0.961120 -0.032648 0.274196
vn -0.961119 -0.032648 0.274196
vn -0.961120 -0.032648 0.274196
vn -0.961119 -0.032648 0.274196
vn 0.000000 -0.118234 0.992986
vn 0.000000 -0.118234 0.992986
vn 0.000000 -0.118234 0.992986
vn 0.000000 -0.118234 0.992986
vn 0.000000 0.992986 0.118232
vn 0.000000 0.992986 0.118232
vn 0.000000 0.992986 0.118233
vn 0.000000 0.992986 0.118233
vn 0.000000 0.118234 -0.992986
vn 0.000000 0.118234 -0.992986
vn 0.000000 0.118234 -0.992986
vn 0.000000 0.118234 -0.992986
vn 1.000000 -0.000000 0.000000
vn 0.707103 -0.083605 0.702151
vn 0.707104 -0.083605 0.702150
vn 1.000000 -0.000000 0.000000
vn -0.707104 -0.083605 0.702150
vn -1.000000 -0.000000 0.000000
vn -1.000000 -0.000000 0.000000
vn -0.707105 -0.083605 0.702149
vn 0.000000 0.992986 0.118233
vn 0.000000 0.992986 0.118233
vn 0.000000 0.992986 0.118232
vn 0.000000 0.992986 0.118232
vn -1.000000 -0.000000 0.000000
vn -0.707107 0.083604 -0.702147
vn -0.707106 0.083604 -0.702148
vn -1.000000 -0.000000 0.000000
vn 0.707106 0.083604 -0.702148
vn 0.707107 0.083604 -0.702147
vn 1.000000 0.000000 0.000000
vn 1.000000 0.000000 0.000000
vn 1.000000 0.000000 0.000000
vn 1.000000 0.000000 0.000000
vn 1.000000 0.000000 0.000000
vn 1.000000 0.000000 0.000000
vn 0.000000 0.992986 0.118234
vn 0.000000 0.992986 0.118234
vn 0.000000 0.992986 0.118234
vn 0.000000 0.992986 0.118234
vn -1.000000 -0.000001 0.000000
vn -1.000000 -0.000001 0.000000
vn -1.000000 -0.000001 0.000000
vn -1.000000 -0.000001 0.000000
vn 0.000000 0.118234 -0.992986
vn 0.000000 0.118234 -0.992986
vn 0.000000 -0.118234 0.992986
vn 0.000000 -0.118234 0.992986
vn 0.000000 0.992986 0.118234
vn 0.000000 0.992986 0.118234
vn 0.000000 0.992986 0.118234
vn 0.000000 0.992986 0.118234
vn 0.000000 -0.118235 0.992986
vn 0.000000 -0.118235 0.992986
vn 0.000000 0.118234 -0.992986
vn 0.000000 0.118234 -0.992986
vn 0.866026 0.095876 -0.490722
vn 0.500000 0.166062 -0.849955
vn 0.347020 0.821831 -0.451853
vn 0.601056 0.773120 -0.202530
vn 0.000000 0.191751 -0.981444
vn 0.000000 0.839661 -0.543111
vn -0.500000 0.166062 -0.849955
vn -0.347020 0.821831 -0.451853
vn -0.866026 0.095876 -0.490722
vn -0.601056 0.773119 -0.202530
vn -1.000000 0.000000 0.000000
vn -0.694040 0.706577 0.138050
vn -0.866026 -0.095876 0.490721
vn -0.601056 0.640036 0.478629
vn -0.500000 -0.166063 0.849955
vn -0.347020 0.591325 0.727951
vn 0.000000 -0.191754 0.981443
vn 0.000000 0.573494 0.819210
vn 0.500000 -0.166063 0.849955
vn 0.347020 0.591324 0.727951
vn 0.866025 -0.095876 0.490722
vn 0.601056 0.640035 0.478630
vn 1.000000 0.000000 0.000000
vn 0.694040 0.706577 0.138050
vn 0.000000 0.981443 0.191752
vn 0.000000 -0.191752 0.981444
vn 0.000000 -0.191752 0.981444
vn 0.000000 -0.191752 0.981444
vn 0.000000 -0.191752 0.981444
vn 0.000000 0.191751 -0.981444
vn 0.000000 0.191751 -0.981444
vn 0.000000 0.191751 -0.981444
vn 0.000000 0.191751 -0.981444
vn 1.000000 -0.000000 0.000000
vn 1.000000 -0.000000 0.000000
vn 1.000000 -0.000000 0.000000
vn 1.000000 -0.000000 0.000000
vn -1.000000 -0.000000 0.000000
vn -1.000000 -0.000000 0.000000
vn -1.000000 -0.000000 0.000000
vn -1.000000 -0.000000 0.000000
f 1/1/1 2/2/2 3/3/3 4/4/4
f 4/4/4 3/3/3 5/5/5 6/6/6
f 2/2/2 1/1/1 7/7/7 8/8/8
f 2/2/9 10/9/10 11/10/11 3/3/12
f 4/4/13 12/11/14 9/12/15 1/1/16
f 3/3/12 11/10/11 13/13/17 5/5/18
f 6/6/19 14/14/20 12/11/14 4/4/13
f 1/1/16 9/12/15 15/15/21 7/7/22
f 7/7/23 15/15/24 16/16/25 8/8/26
f 8/8/27 16/16/28 10/9/10 2/2/9
f 5/5/29 13/13/30 14/14/31 6/6/32
f 17/17/33 20/18/34 19/19/35 18/20/36
f 20/18/34 22/21/37 21/22/38 19/19/35
f 18/20/36 24/23/39 23/24/40 17/17/33
f 18/20/41 19/19/42 27/25/43 26/26/44
f 20/18/45 17/17/46 25/27/47 28/28/48
f 19/19/42 21/22/49 29/29/50 27/25/43
f 22/21/51 20/18/45 28/28/48 30/30/52
f 17/17/46 23/24/53 31/31/54 25/27/47
f 23/24/55 24/23/56 32/32/57 31/31/58
f 24/23/59 18/20/41 26/26/44 32/32/60
f 21/22/61 22/21/62 30/30/63 29/29/64
f 33/33/65 34/34/66 36/35/67 35/36/68
f 35/36/69 36/35/70 45/37/71 46/38/72
f 37/39/73 38/40/74 40/41/75 39/42/76
f 34/34/77 48/43/78 45/37/79 36/35/80
f 47/44/81 33/33/82 35/36/83 46/38/84
f 42/45/85 41/46/86 38/40/87 37/39/88
f 39/42/89 43/47/90 42/45/91 37/39/92
f 41/46/93 44/48/94 40/41/95 38/40/96
f 46/38/72 45/37/71 41/46/86 42/45/85
f 49/49/97 50/50/98 52/51/99 51/52/100
f 51/52/101 52/51/102 41/46/103 45/37/104
f 53/53/105 54/54/106 56/55/107 55/56/108
f 50/50/109 44/48/94 41/46/93 52/51/110
f 48/43/78 49/49/111 51/52/112 45/37/79
f 46/38/113 42/45/114 54/54/115 53/53/116
f 55/56/117 47/44/81 46/38/84 53/53/118
f 42/45/91 43/47/90 56/55/119 54/54/120
f 57/57/121 58/58/122 70/59/123 69/60/124
f 58/58/122 59/61/125 71/62/126 70/59/123
f 59/61/125 60/63/127 72/64/128 71/62/126
f 60/63/127 61/65/129 73/66/130 72/64/128
f 61/65/129 62/67/131 74/68/132 73/66/130
f 62/67/131 63/69/133 75/70/134 74/68/132
f 63/69/133 64/71/135 76/72/136 75/70/134
f 64/71/135 65/73/137 77/74/138 76/72/136
f 65/73/137 66/75/139 78/76/140 77/74/138
f 66/75/139 67/77/141 79/78/142 78/76/140
f 67/77/141 68/79/143 80/80/144 79/78/142
f 68/79/143 57/81/121 69/82/124 80/80/144
f 69/83/124 70/84/123 81/85/145
f 70/84/123 71/86/126 81/85/145
f 71/86/126 72/87/128 81/85/145
f 72/87/128 73/88/130 81/85/145
f 73/88/130 74/89/132 81/85/145
f 74/89/132 75/90/134 81/85/145
f 75/90/134 76/91/136 81/85/145
f 76/91/136 77/92/138 81/85/145
f 77/92/138 78/93/140 81/85/145
f 78/93/140 79/94/142 81/85/145
f 79/94/142 80/95/144 81/85/145
f 80/95/144 69/83/124 81/85/145
f 82/96/146 83/97/147 85/98/148 84/99/149
f 86/100/150 87/101/151 89/102/152 88/103/153
f 83/97/154 89/102/155 87/101/156 85/98/157
f 88/104/158 82/96/159 84/99/160 86/105/161
