# This file uses meters as units for non-parametric coordinates.

v -23.525889 1.082982 14.746870
v -15.363169 1.082982 14.746870
v -23.525889 3.097797 14.746870
v -15.363169 3.097797 14.746870
v -23.525889 3.097797 13.228040
v -15.363169 3.097797 13.228040
v -23.525889 1.082982 13.228040
v -15.363169 1.082982 13.228040
vt 0.351134 0.814115
vt 0.374304 0.814115
vt 0.374304 0.837285
vt 0.351134 0.837285
vt 0.374304 0.814115
vt 0.351134 0.814115
vt 0.374304 0.837285
vt 0.351134 0.837285
vt 0.374304 0.814115
vt 0.351134 0.814115
vt 0.351134 0.814115
vt 0.351134 0.837285
vt 0.374304 0.814115
vt 0.374304 0.837285
vn 0.000000 0.000000 1.000000
vn 0.000000 0.000000 1.000000
vn 0.000000 0.000000 1.000000
vn 0.000000 0.000000 1.000000
vn 0.000000 1.000000 0.000000
vn 0.000000 1.000000 0.000000
vn 0.000000 1.000000 0.000000
vn 0.000000 1.000000 0.000000
vn 0.000000 0.000000 -1.000000
vn 0.000000 0.000000 -1.000000
vn 0.000000 0.000000 -1.000000
vn 0.000000 0.000000 -1.000000
vn 0.000000 -1.000000 0.000000
vn 0.000000 -1.000000 0.000000
vn 0.000000 -1.000000 0.000000
vn 0.000000 -1.000000 0.000000
vn 1.000000 0.000000 0.000000
vn 1.000000 0.000000 0.000000
vn 1.000000 0.000000 0.000000
vn 1.000000 0.000000 0.000000
vn -1.000000 0.000000 0.000000
vn -1.000000 0.000000 0.000000
vn -1.000000 0.000000 0.000000
vn -1.000000 0.000000 0.000000
f 1/1/1 2/2/2 4/3/3 3/4/4
f 3/4/5 4/3/6 6/5/7 5/6/8
f 5/6/9 6/5/10 8/7/11 7/8/12
f 7/8/13 8/7/14 2/9/15 1/10/16
f 2/2/17 8/11/18 6/12/19 4/3/20
f 7/13/21 1/1/22 3/4/23 5/14/24
