# This file uses meters as units for non-parametric coordinates.

v -5.603665 -0.000000 9.185972
v 5.603665 -0.000000 9.185972
v -5.060844 2.622592 -4.075185
v 5.060844 2.622592 -4.075185
v 9.531081 2.622592 -4.075185
v 12.588771 0.680295 4.105216
v -9.531081 2.622592 -4.075185
v -12.588771 0.680295 4.105216
v 8.532098 0.440238 13.053499
v 12.890922 0.595999 11.890206
v -8.532098 0.440238 13.053499
v -12.890922 0.595999 11.890206
v -2.530169 2.437799 -1.865208
v 2.530169 2.437799 -1.865208
v -2.530169 1.104306 8.093933
v 2.530169 1.104306 8.093933
v 12.147017 2.308764 1.183454
v 5.317745 2.213280 1.896576
v 2.250923 2.122643 2.573489
v -2.250923 2.122643 2.573489
v -5.317745 2.213280 1.896576
v -12.147017 2.308764 1.183454
v -7.295963 2.701993 -4.668188
v 7.295963 2.701993 -4.668188
v -0.000000 2.384919 -1.470278
v 0.000000 2.085536 2.850622
v -0.000000 1.151033 7.744950
v 5.060844 -0.000000 -2.218216
v 6.019484 -0.000000 -0.188391
v 7.295963 0.000000 -2.811218
v -7.295963 0.000000 -2.811218
v -6.019484 -0.000000 -0.188391
v -10.097377 -0.000000 -0.188391
v -9.531081 -0.000000 -2.218216
v -0.000000 0.000001 -1.470278
v -2.530169 0.000000 -1.865208
v 0.000000 0.000000 0.765655
v -2.250923 -0.000000 0.488523
v -5.060844 -0.000000 -2.218216
v 2.530169 0.000000 -1.865208
v 2.250923 -0.000000 0.488523
v 9.531081 -0.000000 -2.218216
v 10.097377 -0.000000 -0.188391
v -11.367782 0.299017 14.108202
v 11.367782 0.299017 14.108202
v 10.191667 4.994334 -3.854635
v 12.389291 4.539289 -0.456144
v -12.389290 4.539289 -0.456144
v -10.191667 4.994334 -3.854635
v 5.217875 4.994334 -3.854635
v 7.704770 5.073735 -4.447639
v 13.744905 2.723901 13.102005
v 11.624243 2.426919 15.320002
v -8.191037 2.568140 14.265298
v -11.624243 2.426919 15.320002
v -7.704770 5.073735 -4.447639
v 8.191037 2.568140 14.265298
v 5.072302 3.143849 9.965641
v 13.633056 3.824144 4.884885
v -5.072302 3.143849 9.965641
v -13.744905 2.723901 13.102005
v -13.633056 3.824144 4.884885
v -2.530169 4.781496 -2.265061
v 0.000000 4.728616 -1.870131
v 0.000000 3.314158 8.693694
v -2.530169 3.267431 9.042676
v -5.217875 4.994334 -3.854635
v 2.530169 4.781496 -2.265061
v 2.530169 3.267431 9.042676
vt 0.417228 0.923284
vt 0.418498 0.925882
vt 0.418171 0.925666
vt 0.417099 0.923995
vt 0.427953 0.925981
vt 0.429278 0.923410
vt 0.429390 0.924124
vt 0.428282 0.925772
vt 0.420260 0.924095
vt 0.420725 0.925103
vt 0.419613 0.925384
vt 0.420715 0.925905
vt 0.420638 0.925692
vt 0.419402 0.925969
vt 0.419604 0.926183
vt 0.417560 0.916297
vt 0.417681 0.916991
vt 0.416914 0.918066
vt 0.416497 0.917369
vt 0.426851 0.925460
vt 0.426231 0.924157
vt 0.428254 0.924178
vt 0.427963 0.925178
vt 0.427547 0.917608
vt 0.427384 0.916915
vt 0.429092 0.916418
vt 0.428959 0.917108
vt 0.427045 0.926048
vt 0.426841 0.926259
vt 0.420782 0.918945
vt 0.420515 0.919465
vt 0.419082 0.917520
vt 0.419258 0.916830
vt 0.417024 0.921910
vt 0.416510 0.921381
vt 0.426074 0.919523
vt 0.425814 0.918998
vt 0.430034 0.921523
vt 0.429512 0.922040
vt 0.429703 0.918199
vt 0.430132 0.917512
vt 0.424490 0.924956
vt 0.423237 0.924750
vt 0.423239 0.924655
vt 0.424492 0.924861
vt 0.424492 0.924968
vt 0.423239 0.924759
vt 0.423251 0.923655
vt 0.424366 0.923803
vt 0.424544 0.919999
vt 0.423287 0.920156
vt 0.423292 0.919593
vt 0.424549 0.919435
vt 0.425815 0.925746
vt 0.425736 0.925958
vt 0.425745 0.925155
vt 0.421982 0.924835
vt 0.421980 0.924930
vt 0.422133 0.923780
vt 0.421982 0.924941
vt 0.422039 0.919409
vt 0.422034 0.919973
vt 0.420619 0.922971
vt 0.422144 0.922657
vt 0.424377 0.922680
vt 0.423261 0.922533
vt 0.425894 0.923027
vt 0.418508 0.925080
vt 0.418237 0.924074
vn 0.819100 -0.309595 -0.482935
vn 0.642316 -0.362625 -0.675228
vn 0.689922 -0.216924 -0.690616
vn 0.819100 -0.309595 -0.482935
vn -0.642316 -0.362625 -0.675228
vn -0.819100 -0.309595 -0.482934
vn -0.819100 -0.309595 -0.482934
vn -0.689923 -0.216924 -0.690616
vn -0.000000 -1.000000 -0.000000
vn -0.000000 -1.000000 -0.000000
vn -0.000000 -1.000000 -0.000000
vn -0.385244 -0.227237 -0.894399
vn -0.446215 0.046882 -0.893697
vn 0.006949 0.078077 -0.996923
vn -0.003287 -0.294365 -0.955688
vn 0.203318 -0.562136 0.801664
vn 0.209032 -0.562272 0.800097
vn 0.930114 -0.362578 0.058521
vn 0.920098 -0.377970 0.102753
vn 0.000000 -1.000000 0.000000
vn 0.000000 -1.000000 -0.000000
vn 0.000000 -1.000000 -0.000000
vn 0.000000 -1.000000 -0.000000
vn 0.650396 -0.387752 0.653172
vn 0.608263 -0.403749 0.683377
vn -0.203318 -0.562136 0.801664
vn -0.209032 -0.562272 0.800097
vn -0.006949 0.078077 -0.996923
vn 0.003287 -0.294365 -0.955687
vn -0.636557 -0.339951 0.692264
vn -0.660800 -0.340092 0.669089
vn -0.650396 -0.387752 0.653172
vn -0.608263 -0.403749 0.683376
vn -0.006649 -0.986688 -0.162491
vn -0.034746 -0.968094 -0.248165
vn 0.091357 -0.995458 -0.026792
vn 0.082267 -0.996467 -0.016893
vn 0.945494 -0.309734 -0.100528
vn 0.944896 -0.305327 -0.118097
vn 0.660800 -0.340092 0.669089
vn 0.636557 -0.339951 0.692264
vn -0.944896 -0.305327 -0.118097
vn -0.945494 -0.309734 -0.100528
vn -0.930114 -0.362578 0.058521
vn -0.920098 -0.377970 0.102753
vn -0.082267 -0.996467 -0.016893
vn 0.006649 -0.986688 -0.162491
vn 0.124522 -0.970851 0.204798
vn 0.410438 -0.080760 -0.908305
vn -0.000000 -0.168178 -0.985757
vn 0.000000 -0.083046 -0.996546
vn 0.357075 -0.126561 -0.925462
vn 0.000000 -1.000000 -0.000000
vn 0.000000 -1.000000 -0.000000
vn 0.000000 -1.000000 -0.000000
vn 0.000000 -1.000000 -0.000000
vn 0.302142 -0.348642 0.887220
vn 0.000000 -0.401663 0.915788
vn 0.000000 -0.401663 0.915788
vn 0.281808 -0.355321 0.891253
vn 0.446215 0.046882 -0.893697
vn 0.385244 -0.227237 -0.894399
vn 0.000000 -1.000000 -0.000000
vn -0.357075 -0.126561 -0.925462
vn -0.410438 -0.080760 -0.908305
vn -0.000000 -1.000000 -0.000000
vn -0.000000 -1.000000 -0.000000
vn -0.281807 -0.355321 0.891253
vn -0.302142 -0.348642 0.887220
vn 0.927549 -0.264314 -0.264178
vn 0.927549 -0.264314 -0.264179
vn -0.052538 -0.998476 0.016914
vn -0.092185 -0.934112 -0.344872
vn -0.100641 -0.969967 -0.221437
vn -0.026030 -0.995232 0.093996
vn 0.026030 -0.995232 0.093996
vn -0.000000 -0.993627 0.112721
vn 0.000000 -0.982867 -0.184316
vn 0.100641 -0.969967 -0.221437
vn 0.052538 -0.998476 0.016914
vn 0.092185 -0.934112 -0.344872
vn 0.034746 -0.968094 -0.248165
vn -0.927550 -0.264313 -0.264179
vn -0.927550 -0.264313 -0.264179
vn -0.000000 -1.000000 -0.000000
vn -0.000000 -1.000000 -0.000000
vn 0.000000 -0.572090 -0.820191
vn -0.315017 -0.443652 -0.839010
vn -0.056722 -0.616953 0.784953
vn -0.056722 -0.616953 0.784953
vn -0.090567 -0.637533 0.765081
vn -0.839053 -0.386415 -0.382979
vn -0.613410 -0.500095 -0.611256
vn -0.839053 -0.386415 -0.382979
vn 0.000000 -0.572090 -0.820191
vn 0.000000 -0.000000 -1.000000
vn 0.312876 -0.182318 -0.932131
vn -0.131002 -0.682864 0.718704
vn -0.000000 -0.703871 0.710327
vn 0.315017 -0.443652 -0.839010
vn -0.312876 -0.182318 -0.932131
vn 0.131002 -0.682864 0.718703
vn 0.090567 -0.637534 0.765081
vn 0.613410 -0.500095 -0.611256
vn 0.839053 -0.386415 -0.382979
vn 0.839053 -0.386415 -0.382979
vn 0.056722 -0.616953 0.784953
vn 0.056722 -0.616953 0.784953
vn -0.091357 -0.995458 -0.026792
vn -0.124522 -0.970851 0.204798
f 17/1/1 5/2/2 46/3/3 47/4/4
f 7/5/5 22/6/6 48/7/7 49/8/8
f 29/9/9 28/10/10 30/11/11
f 4/12/12 50/13/13 51/14/14 24/15/15
f 53/16/16 45/17/17 10/18/18 52/19/19
f 31/20/20 32/21/21 33/22/22 34/23/23
f 11/24/24 54/25/25 55/26/26 44/27/27
f 56/28/28 23/29/29 7/5/5 49/8/8
f 58/30/30 2/31/31 9/32/32 57/33/33
f 2/31/34 6/34/35 10/18/36 45/17/37
f 6/34/38 59/35/39 52/19/19 10/18/18
f 1/36/40 60/37/41 54/25/25 11/24/24
f 62/38/42 8/39/43 12/40/44 61/41/45
f 44/27/46 1/36/47 11/24/48
f 63/42/49 64/43/50 25/44/51 13/45/52
f 36/46/53 35/47/54 37/48/55 38/49/56
f 15/50/57 27/51/58 65/52/59 66/53/60
f 1/36/40 15/50/57 66/53/60 60/37/41
f 67/54/61 63/42/49 13/45/52 3/55/62
f 39/56/63 36/46/53 38/49/56 32/21/21
f 14/57/64 68/58/65 50/13/13 4/12/12
f 41/59/66 40/60/67 28/10/10 29/9/9
f 69/61/68 16/62/69 2/31/31 58/30/30
f 6/34/38 17/1/70 47/4/71 59/35/39
f 2/31/34 18/63/72 17/1/73 6/34/35
f 16/62/74 19/64/75 18/63/72 2/31/34
f 20/65/76 26/66/77 27/51/78 15/50/79
f 21/67/80 20/65/76 15/50/79 1/36/47
f 22/6/81 21/67/80 1/36/47 8/39/82
f 48/7/83 22/6/84 8/39/43 62/38/42
f 67/54/61 3/55/62 23/29/29 56/28/28
f 39/56/63 32/21/21 31/20/20
f 24/15/15 51/14/14 46/3/3 5/2/2
f 29/9/9 30/11/11 42/68/85 43/69/86
f 25/44/51 64/43/50 68/58/65 14/57/64
f 37/48/55 35/47/54 40/60/67 41/59/66
f 27/51/78 26/66/77 19/64/75 16/62/74
f 65/52/59 27/51/58 16/62/69 69/61/68
f 4/12/12 24/15/15 30/11/87 28/10/88
f 21/67/80 22/6/89 33/22/90 32/21/91
f 22/6/92 7/5/5 34/23/93 33/22/94
f 7/5/5 23/29/29 31/20/95 34/23/93
f 13/45/52 25/44/51 35/47/96 36/46/97
f 26/66/77 20/65/76 38/49/98 37/48/99
f 3/55/62 13/45/52 36/46/97 39/56/100
f 20/65/76 21/67/80 32/21/91 38/49/98
f 14/57/64 4/12/12 28/10/88 40/60/101
f 18/63/72 19/64/75 41/59/102 29/9/103
f 23/29/29 3/55/62 39/56/100 31/20/95
f 24/15/15 5/2/2 42/68/104 30/11/87
f 5/2/2 17/1/105 43/69/106 42/68/104
f 17/1/107 18/63/72 29/9/103 43/69/108
f 25/44/51 14/57/64 40/60/101 35/47/96
f 19/64/75 26/66/77 37/48/99 41/59/102
f 44/27/27 55/26/26 61/41/45 12/40/44
f 8/39/82 1/36/47 44/27/46 12/40/109
f 57/33/33 9/32/32 45/17/17 53/16/16
f 2/31/34 45/17/37 9/32/110
