# This file uses meters as units for non-parametric coordinates.

v -5.603665 -0.000000 9.185972
v 5.603665 -0.000000 9.185972
v -5.060844 2.622592 -4.075185
v 5.060844 2.622592 -4.075185
v 9.531081 2.622592 -4.075185
v 12.588771 0.680295 4.105216
v -9.531081 2.622592 -4.075185
v -12.588771 0.680295 4.105216
v 8.532098 0.440238 13.053499
v 12.890922 0.595999 11.890206
v -8.532098 0.440238 13.053499
v -12.890922 0.595999 11.890206
v -2.530169 2.437799 -1.865208
v 2.530169 2.437799 -1.865208
v -2.530169 1.104306 8.093933
v 2.530169 1.104306 8.093933
v 12.147017 2.308764 1.183454
v 5.317745 2.213280 1.896576
v 2.250923 2.122643 2.573489
v -2.250923 2.122643 2.573489
v -5.317745 2.213280 1.896576
v -12.147017 2.308764 1.183454
v -7.295963 2.701993 -4.668188
v 7.295963 2.701993 -4.668188
v -0.000000 2.384919 -1.470278
v 0.000000 2.085536 2.850622
v -0.000000 1.151033 7.744950
v 5.060844 -0.000000 -2.218216
v 6.019484 -0.000000 -0.188391
v 7.295963 0.000000 -2.811218
v -7.295963 0.000000 -2.811218
v -6.019484 -0.000000 -0.188391
v -10.097377 -0.000000 -0.188391
v -9.531081 -0.000000 -2.218216
v -0.000000 0.000001 -1.470278
v -2.530169 0.000000 -1.865208
v 0.000000 0.000000 0.765655
v -2.250923 -0.000000 0.488523
v -5.060844 -0.000000 -2.218216
v 2.530169 0.000000 -1.865208
v 2.250923 -0.000000 0.488523
v 9.531081 -0.000000 -2.218216
v 10.097377 -0.000000 -0.188391
v -11.367782 0.299017 14.108202
v 11.367782 0.299017 14.108202
v 10.191667 4.994334 -3.854635
v 12.389291 4.539289 -0.456144
v -12.389290 4.539289 -0.456144
v -10.191667 4.994334 -3.854635
v 5.217875 4.994334 -3.854635
v 7.704770 5.073735 -4.447639
v 13.744905 2.723901 13.102005
v 11.624243 2.426919 15.320002
v -8.191037 2.568140 14.265298
v -11.624243 2.426919 15.320002
v -7.704770 5.073735 -4.447639
v 8.191037 2.568140 14.265298
v 5.072302 3.143849 9.965641
v 13.633056 3.824144 4.884885
v -5.072302 3.143849 9.965641
v -13.744905 2.723901 13.102005
v -13.633056 3.824144 4.884885
v -2.530169 4.781496 -2.265061
v 0.000000 4.728616 -1.870131
v 0.000000 3.314158 8.693694
v -2.530169 3.267431 9.042676
v -5.217875 4.994334 -3.854635
v 2.530169 4.781496 -2.265061
v 2.530169 3.267431 9.042676
vt 0.385978 0.860784
vt 0.387248 0.863382
vt 0.386921 0.863166
vt 0.385849 0.861495
vt 0.396703 0.863481
vt 0.398028 0.860910
vt 0.398140 0.861624
vt 0.397032 0.863272
vt 0.389010 0.861595
vt 0.389475 0.862603
vt 0.388363 0.862884
vt 0.389465 0.863405
vt 0.389388 0.863192
vt 0.388152 0.863469
vt 0.388354 0.863683
vt 0.386310 0.853797
vt 0.386431 0.854491
vt 0.385664 0.855566
vt 0.385247 0.854869
vt 0.395601 0.862960
vt 0.394981 0.861657
vt 0.397004 0.861678
vt 0.396713 0.862678
vt 0.396297 0.855108
vt 0.396134 0.854415
vt 0.397842 0.853918
vt 0.397709 0.854608
vt 0.395795 0.863548
vt 0.395591 0.863759
vt 0.389532 0.856445
vt 0.389265 0.856965
vt 0.387832 0.855020
vt 0.388008 0.854330
vt 0.385774 0.859410
vt 0.385260 0.858881
vt 0.394824 0.857023
vt 0.394564 0.856498
vt 0.398784 0.859023
vt 0.398262 0.859540
vt 0.398453 0.855699
vt 0.398882 0.855012
vt 0.393240 0.862456
vt 0.391987 0.862250
vt 0.391989 0.862155
vt 0.393242 0.862361
vt 0.393242 0.862468
vt 0.391989 0.862259
vt 0.392001 0.861155
vt 0.393116 0.861303
vt 0.393294 0.857499
vt 0.392037 0.857656
vt 0.392042 0.857093
vt 0.393299 0.856935
vt 0.394565 0.863246
vt 0.394486 0.863458
vt 0.394495 0.862655
vt 0.390732 0.862335
vt 0.390730 0.862430
vt 0.390883 0.861280
vt 0.390732 0.862441
vt 0.390789 0.856909
vt 0.390784 0.857473
vt 0.389369 0.860471
vt 0.390894 0.860157
vt 0.393127 0.860180
vt 0.392011 0.860033
vt 0.394644 0.860527
vt 0.387258 0.862580
vt 0.386987 0.861574
vn 0.819100 -0.309595 -0.482935
vn 0.642316 -0.362625 -0.675228
vn 0.689922 -0.216924 -0.690616
vn 0.819100 -0.309595 -0.482935
vn -0.642316 -0.362625 -0.675228
vn -0.819100 -0.309595 -0.482934
vn -0.819100 -0.309595 -0.482934
vn -0.689923 -0.216924 -0.690616
vn -0.000000 -1.000000 -0.000000
vn -0.000000 -1.000000 -0.000000
vn -0.000000 -1.000000 -0.000000
vn -0.385244 -0.227237 -0.894399
vn -0.446215 0.046882 -0.893697
vn 0.006949 0.078077 -0.996923
vn -0.003287 -0.294365 -0.955688
vn 0.203318 -0.562136 0.801664
vn 0.209032 -0.562272 0.800097
vn 0.930114 -0.362578 0.058521
vn 0.920098 -0.377970 0.102753
vn 0.000000 -1.000000 0.000000
vn 0.000000 -1.000000 -0.000000
vn 0.000000 -1.000000 -0.000000
vn 0.000000 -1.000000 -0.000000
vn 0.650396 -0.387752 0.653172
vn 0.608263 -0.403749 0.683377
vn -0.203318 -0.562136 0.801664
vn -0.209032 -0.562272 0.800097
vn -0.006949 0.078077 -0.996923
vn 0.003287 -0.294365 -0.955687
vn -0.636557 -0.339951 0.692264
vn -0.660800 -0.340092 0.669089
vn -0.650396 -0.387752 0.653172
vn -0.608263 -0.403749 0.683376
vn -0.006649 -0.986688 -0.162491
vn -0.034746 -0.968094 -0.248165
vn 0.091357 -0.995458 -0.026792
vn 0.082267 -0.996467 -0.016893
vn 0.945494 -0.309734 -0.100528
vn 0.944896 -0.305327 -0.118097
vn 0.660800 -0.340092 0.669089
vn 0.636557 -0.339951 0.692264
vn -0.944896 -0.305327 -0.118097
vn -0.945494 -0.309734 -0.100528
vn -0.930114 -0.362578 0.058521
vn -0.920098 -0.377970 0.102753
vn -0.082267 -0.996467 -0.016893
vn 0.006649 -0.986688 -0.162491
vn 0.124522 -0.970851 0.204798
vn 0.410438 -0.080760 -0.908305
vn -0.000000 -0.168178 -0.985757
vn 0.000000 -0.083046 -0.996546
vn 0.357075 -0.126561 -0.925462
vn 0.000000 -1.000000 -0.000000
vn 0.000000 -1.000000 -0.000000
vn 0.000000 -1.000000 -0.000000
vn 0.000000 -1.000000 -0.000000
vn 0.302142 -0.348642 0.887220
vn 0.000000 -0.401663 0.915788
vn 0.000000 -0.401663 0.915788
vn 0.281808 -0.355321 0.891253
vn 0.446215 0.046882 -0.893697
vn 0.385244 -0.227237 -0.894399
vn 0.000000 -1.000000 -0.000000
vn -0.357075 -0.126561 -0.925462
vn -0.410438 -0.080760 -0.908305
vn -0.000000 -1.000000 -0.000000
vn -0.000000 -1.000000 -0.000000
vn -0.281807 -0.355321 0.891253
vn -0.302142 -0.348642 0.887220
vn 0.927549 -0.264314 -0.264178
vn 0.927549 -0.264314 -0.264179
vn -0.052538 -0.998476 0.016914
vn -0.092185 -0.934112 -0.344872
vn -0.100641 -0.969967 -0.221437
vn -0.026030 -0.995232 0.093996
vn 0.026030 -0.995232 0.093996
vn -0.000000 -0.993627 0.112721
vn 0.000000 -0.982867 -0.184316
vn 0.100641 -0.969967 -0.221437
vn 0.052538 -0.998476 0.016914
vn 0.092185 -0.934112 -0.344872
vn 0.034746 -0.968094 -0.248165
vn -0.927550 -0.264313 -0.264179
vn -0.927550 -0.264313 -0.264179
vn -0.000000 -1.000000 -0.000000
vn -0.000000 -1.000000 -0.000000
vn 0.000000 -0.572090 -0.820191
vn -0.315017 -0.443652 -0.839010
vn -0.056722 -0.616953 0.784953
vn -0.056722 -0.616953 0.784953
vn -0.090567 -0.637533 0.765081
vn -0.839053 -0.386415 -0.382979
vn -0.613410 -0.500095 -0.611256
vn -0.839053 -0.386415 -0.382979
vn 0.000000 -0.572090 -0.820191
vn 0.000000 -0.000000 -1.000000
vn 0.312876 -0.182318 -0.932131
vn -0.131002 -0.682864 0.718704
vn -0.000000 -0.703871 0.710327
vn 0.315017 -0.443652 -0.839010
vn -0.312876 -0.182318 -0.932131
vn 0.131002 -0.682864 0.718703
vn 0.090567 -0.637534 0.765081
vn 0.613410 -0.500095 -0.611256
vn 0.839053 -0.386415 -0.382979
vn 0.839053 -0.386415 -0.382979
vn 0.056722 -0.616953 0.784953
vn 0.056722 -0.616953 0.784953
vn -0.091357 -0.995458 -0.026792
vn -0.124522 -0.970851 0.204798
f 17/1/1 5/2/2 46/3/3 47/4/4
f 7/5/5 22/6/6 48/7/7 49/8/8
f 29/9/9 28/10/10 30/11/11
f 4/12/12 50/13/13 51/14/14 24/15/15
f 53/16/16 45/17/17 10/18/18 52/19/19
f 31/20/20 32/21/21 33/22/22 34/23/23
f 11/24/24 54/25/25 55/26/26 44/27/27
f 56/28/28 23/29/29 7/5/5 49/8/8
f 58/30/30 2/31/31 9/32/32 57/33/33
f 2/31/34 6/34/35 10/18/36 45/17/37
f 6/34/38 59/35/39 52/19/19 10/18/18
f 1/36/40 60/37/41 54/25/25 11/24/24
f 62/38/42 8/39/43 12/40/44 61/41/45
f 44/27/46 1/36/47 11/24/48
f 63/42/49 64/43/50 25/44/51 13/45/52
f 36/46/53 35/47/54 37/48/55 38/49/56
f 15/50/57 27/51/58 65/52/59 66/53/60
f 1/36/40 15/50/57 66/53/60 60/37/41
f 67/54/61 63/42/49 13/45/52 3/55/62
f 39/56/63 36/46/53 38/49/56 32/21/21
f 14/57/64 68/58/65 50/13/13 4/12/12
f 41/59/66 40/60/67 28/10/10 29/9/9
f 69/61/68 16/62/69 2/31/31 58/30/30
f 6/34/38 17/1/70 47/4/71 59/35/39
f 2/31/34 18/63/72 17/1/73 6/34/35
f 16/62/74 19/64/75 18/63/72 2/31/34
f 20/65/76 26/66/77 27/51/78 15/50/79
f 21/67/80 20/65/76 15/50/79 1/36/47
f 22/6/81 21/67/80 1/36/47 8/39/82
f 48/7/83 22/6/84 8/39/43 62/38/42
f 67/54/61 3/55/62 23/29/29 56/28/28
f 39/56/63 32/21/21 31/20/20
f 24/15/15 51/14/14 46/3/3 5/2/2
f 29/9/9 30/11/11 42/68/85 43/69/86
f 25/44/51 64/43/50 68/58/65 14/57/64
f 37/48/55 35/47/54 40/60/67 41/59/66
f 27/51/78 26/66/77 19/64/75 16/62/74
f 65/52/59 27/51/58 16/62/69 69/61/68
f 4/12/12 24/15/15 30/11/87 28/10/88
f 21/67/80 22/6/89 33/22/90 32/21/91
f 22/6/92 7/5/5 34/23/93 33/22/94
f 7/5/5 23/29/29 31/20/95 34/23/93
f 13/45/52 25/44/51 35/47/96 36/46/97
f 26/66/77 20/65/76 38/49/98 37/48/99
f 3/55/62 13/45/52 36/46/97 39/56/100
f 20/65/76 21/67/80 32/21/91 38/49/98
f 14/57/64 4/12/12 28/10/88 40/60/101
f 18/63/72 19/64/75 41/59/102 29/9/103
f 23/29/29 3/55/62 39/56/100 31/20/95
f 24/15/15 5/2/2 42/68/104 30/11/87
f 5/2/2 17/1/105 43/69/106 42/68/104
f 17/1/107 18/63/72 29/9/103 43/69/108
f 25/44/51 14/57/64 40/60/101 35/47/96
f 19/64/75 26/66/77 37/48/99 41/59/102
f 44/27/27 55/26/26 61/41/45 12/40/44
f 8/39/82 1/36/47 44/27/46 12/40/109
f 57/33/33 9/32/32 45/17/17 53/16/16
f 2/31/34 45/17/37 9/32/110
