# This file uses meters as units for non-parametric coordinates.

v -9.008219 19.047127 8.838077
v -9.008219 19.047127 9.011437
v -8.834856 19.047127 9.011437
v -8.834856 19.047127 8.838077
v 8.834856 19.047127 8.838077
v 8.834856 19.047127 9.011437
v 9.008219 19.047127 9.011437
v 9.008219 19.047127 8.838077
v 8.834856 19.047127 -11.324903
v 9.008219 19.047127 -11.324903
v -9.008219 19.047127 -11.324903
v -8.834856 19.047127 -11.324903
v 9.008219 16.963177 -11.324903
v 8.834856 16.963177 -11.324903
v -8.834856 16.963177 -11.324903
v -9.008219 16.963177 -11.324903
v -11.935084 4.390350 11.854109
v 11.935084 4.390350 11.854109
v 11.935084 4.562630 11.854109
v -11.935084 4.562630 11.854109
v -11.935084 4.562630 -11.342523
v 11.935084 4.562630 -11.342523
v 11.935084 4.390350 -11.342523
v -11.935084 4.390350 -11.342523
v 8.951312 4.562630 -11.342523
v 8.951312 4.390350 -11.342523
v -8.951312 4.562630 -11.342523
v -8.951312 4.390350 -11.342523
v 8.333519 0.000000 11.878690
v 7.213829 0.000000 11.878690
v 8.333519 0.803650 11.878690
v 7.213829 0.803650 11.878690
v 8.333519 0.803650 10.867462
v 7.213829 0.803650 10.867462
v 8.333519 0.000000 10.867462
v 7.213829 0.000000 10.867462
v -8.333519 0.000000 11.878690
v -7.213829 0.000000 11.878690
v -8.333519 0.803650 11.878690
v -7.213829 0.803650 11.878690
v -8.333519 0.803650 10.867462
v -7.213829 0.803650 10.867462
v -8.333519 0.000000 10.867462
v -7.213829 0.000000 10.867462
v -8.333519 0.000000 -10.010028
v -7.213829 0.000000 -10.010028
v -8.333519 0.803650 -10.010028
v -7.213829 0.803650 -10.010028
v -8.333519 0.803650 -11.021256
v -7.213829 0.803650 -11.021256
v -8.333519 0.000000 -11.021256
v -7.213829 0.000000 -11.021256
v 8.333519 0.000000 -10.010028
v 7.213829 0.000000 -10.010028
v 8.333519 0.803650 -10.010028
v 7.213829 0.803650 -10.010028
v 8.333519 0.803650 -11.021256
v 7.213829 0.803650 -11.021256
v 8.333519 0.000000 -11.021256
v 7.213829 0.000000 -11.021256
v 6.050627 12.817860 -13.627435
v 4.860264 12.817860 -14.950602
v 2.630353 12.817860 -15.727855
v 0.000003 12.817860 -16.157230
v -2.630353 12.817860 -15.727860
v -4.860264 12.817860 -14.950602
v -6.050621 12.817860 -13.627437
v -6.450787 12.817860 -11.838602
v 6.450787 12.817860 -11.838600
v 6.835873 12.817860 -13.764237
v 5.231951 12.817860 -15.396713
v 2.831514 12.817860 -16.487501
v 0.000004 12.817860 -16.870535
v -2.831507 12.817860 -16.487503
v -5.231947 12.817860 -15.396717
v -6.835869 12.817860 -13.764240
v -7.399093 12.817860 -11.838602
v 7.399093 12.817860 -11.838600
v 6.835873 16.325178 -13.764237
v 5.231951 16.325178 -15.396713
v 2.831514 16.325178 -16.487501
v 0.000004 16.325178 -16.870535
v -2.831507 16.325178 -16.487503
v -5.231947 16.325178 -15.396717
v -6.835869 16.325178 -13.764240
v -7.399093 16.325178 -11.838602
v 7.399093 16.325178 -11.838600
v 6.050627 16.325178 -13.627435
v 4.860264 16.325178 -14.950602
v 2.630353 16.325178 -15.727855
v 0.000003 16.325178 -16.157230
v -2.630353 16.325178 -15.727860
v -4.860264 16.325178 -14.950602
v -6.050621 16.325178 -13.627437
v -6.450787 16.325178 -11.838602
v 6.450787 16.325178 -11.838600
v -8.198726 4.559438 11.990643
v 8.198726 4.559438 11.990643
v -8.198726 14.184582 11.990643
v 8.198726 14.184582 11.990643
v -8.198726 14.184582 11.654314
v 8.198726 14.184582 11.654314
v -8.198726 4.559437 11.654315
v 8.198726 4.559437 11.654315
v 8.198726 10.976201 11.654314
v 8.198726 10.976201 12.475157
v -8.198726 10.976201 12.475157
v -8.198726 10.976201 11.654314
v 8.198726 7.767819 11.654314
v 8.198726 7.767819 12.475157
v -8.198726 7.767819 12.475157
v -8.198726 7.767819 11.654314
v 7.662336 19.098459 -2.489661
v 6.517972 19.098459 -4.735604
v 4.735580 19.098459 -6.517995
v 2.489636 19.098459 -7.662360
v -0.000011 19.098459 -8.056681
v -2.489657 19.098459 -7.662359
v -4.735600 19.098459 -6.517994
v -6.517990 19.098459 -4.735603
v -7.662354 19.098459 -2.489661
v -8.056675 19.098459 -0.000014
v -7.662354 19.098459 2.489632
v -6.517989 19.098459 4.735575
v -4.735599 19.098459 6.517964
v -2.489657 19.098459 7.662329
v -0.000011 19.098459 8.056650
v 2.489635 19.098459 7.662329
v 4.735577 19.098459 6.517964
v 6.517968 19.098459 4.735574
v 7.662331 19.098459 2.489632
v 8.056652 19.098459 -0.000014
v -0.000011 19.098459 -0.000014
vt 0.257760 0.978000
vt 0.257760 0.994845
vt 0.257901 0.994845
vt 0.257901 0.978000
vt 0.257901 0.994990
vt 0.272261 0.994990
vt 0.272261 0.994845
vt 0.272261 0.978000
vt 0.272402 0.994845
vt 0.272401 0.978000
vt 0.257760 0.994990
vt 0.272402 0.994990
vt 0.263095 0.984257
vt 0.268146 0.984257
vt 0.268146 0.989309
vt 0.263095 0.989309
vt 0.263095 0.984257
vt 0.268146 0.984257
vt 0.268146 0.989309
vt 0.263095 0.989309
vt 0.256573 0.979375
vt 0.268976 0.979375
vt 0.268976 0.991779
vt 0.256573 0.991779
vt 0.256573 0.979375
vt 0.258123 0.979375
vt 0.258123 0.991779
vt 0.256573 0.991779
vt 0.256573 0.979375
vt 0.256573 0.991779
vt 0.268976 0.979375
vt 0.268976 0.991779
vt 0.267426 0.979375
vt 0.268976 0.979375
vt 0.268976 0.991779
vt 0.267426 0.991779
vt 0.253145 0.981788
vt 0.253145 0.992389
vt 0.263746 0.992389
vt 0.263746 0.981788
vt 0.253145 0.981788
vt 0.263746 0.981788
vt 0.253145 0.992389
vt 0.263746 0.992389
vt 0.253145 0.981788
vt 0.263746 0.981788
vt 0.253145 0.992389
vt 0.253145 0.981788
vt 0.263746 0.981788
vt 0.263746 0.992389
vt 0.253145 0.981788
vt 0.263746 0.981788
vt 0.263746 0.992389
vt 0.253145 0.992389
vt 0.263746 0.981788
vt 0.253145 0.981788
vt 0.263746 0.992389
vt 0.253145 0.992389
vt 0.263746 0.981788
vt 0.253145 0.981788
vt 0.253145 0.981788
vt 0.253145 0.992389
vt 0.263746 0.981788
vt 0.263746 0.992389
vt 0.253145 0.981788
vt 0.263746 0.981788
vt 0.263746 0.992389
vt 0.253145 0.992389
vt 0.263746 0.981788
vt 0.253145 0.981788
vt 0.263746 0.992389
vt 0.253145 0.992389
vt 0.263746 0.981788
vt 0.253145 0.981788
vt 0.253145 0.981788
vt 0.253145 0.992389
vt 0.263746 0.981788
vt 0.263746 0.992389
vt 0.253145 0.981788
vt 0.253145 0.992389
vt 0.263746 0.992389
vt 0.263746 0.981788
vt 0.253145 0.981788
vt 0.263746 0.981788
vt 0.253145 0.992389
vt 0.263746 0.992389
vt 0.253145 0.981788
vt 0.263746 0.981788
vt 0.253145 0.992389
vt 0.253145 0.981788
vt 0.263746 0.981788
vt 0.263746 0.992389
vt 0.384566 0.980867
vt 0.385861 0.980836
vt 0.385490 0.980826
vt 0.384108 0.980865
vt 0.387874 0.980815
vt 0.387642 0.980798
vt 0.390272 0.980799
vt 0.390235 0.980786
vt 0.392736 0.980807
vt 0.392875 0.980790
vt 0.394845 0.980821
vt 0.395161 0.980811
vt 0.396303 0.980848
vt 0.396743 0.980845
vt 0.396896 0.980888
vt 0.397382 0.980887
vt 0.384192 0.980908
vt 0.383706 0.980909
vt 0.385490 0.994084
vt 0.384108 0.994123
vt 0.387642 0.994056
vt 0.390235 0.994044
vt 0.392875 0.994048
vt 0.395161 0.994069
vt 0.396743 0.994103
vt 0.397382 0.994145
vt 0.383706 0.994167
vt 0.385861 0.994094
vt 0.384566 0.994125
vt 0.387874 0.994073
vt 0.390272 0.994057
vt 0.392736 0.994066
vt 0.394845 0.994079
vt 0.396303 0.994107
vt 0.396896 0.994146
vt 0.384192 0.994166
vt 0.351083 0.941041
vt 0.371927 0.941152
vt 0.371982 0.948001
vt 0.351138 0.947891
vt 0.351083 0.961838
vt 0.371927 0.961949
vt 0.371889 0.962006
vt 0.351045 0.961896
vt 0.351045 0.941099
vt 0.371889 0.941210
vt 0.371889 0.948142
vt 0.351045 0.948031
vt 0.371982 0.954934
vt 0.371889 0.955074
vt 0.351138 0.954823
vt 0.351045 0.954963
vt 0.460434 0.989250
vt 0.459452 0.991176
vt 0.453863 0.986839
vt 0.457924 0.992705
vt 0.455998 0.993686
vt 0.453863 0.994024
vt 0.451728 0.993686
vt 0.449801 0.992705
vt 0.448273 0.991176
vt 0.447292 0.989250
vt 0.446953 0.987115
vt 0.447292 0.984980
vt 0.448273 0.983054
vt 0.449801 0.981525
vt 0.451728 0.980544
vt 0.453863 0.980206
vt 0.455998 0.980544
vt 0.457924 0.981525
vt 0.459452 0.983054
vt 0.460434 0.984980
vt 0.460772 0.987115
vn 0.000000 1.000000 0.000000
vn 0.000000 1.000000 0.000000
vn 0.000000 1.000000 0.000000
vn 0.000000 1.000000 0.000000
vn 0.000000 1.000000 0.000000
vn 0.000000 1.000000 0.000000
vn 0.000000 1.000000 0.000000
vn 0.000000 1.000000 0.000000
vn 0.000000 1.000000 0.000000
vn 0.000000 1.000000 0.000000
vn 0.000000 1.000000 0.000000
vn 0.000000 1.000000 0.000000
vn 0.000000 0.000000 -1.000000
vn 0.000000 0.000000 -1.000000
vn 0.000000 0.000000 -1.000000
vn 0.000000 0.000000 -1.000000
vn 0.000000 0.000000 -1.000000
vn 0.000000 0.000000 -1.000000
vn 0.000000 0.000000 -1.000000
vn 0.000000 0.000000 -1.000000
vn 0.000000 0.000000 1.000000
vn 0.000000 0.000000 1.000000
vn 0.000000 0.000000 1.000000
vn 0.000000 0.000000 1.000000
vn 0.000000 0.000000 -1.000000
vn 0.000000 0.000000 -1.000000
vn 0.000000 0.000000 -1.000000
vn 0.000000 0.000000 -1.000000
vn 1.000000 0.000000 0.000000
vn 1.000000 0.000000 0.000000
vn 1.000000 0.000000 0.000000
vn 1.000000 0.000000 0.000000
vn -1.000000 0.000000 0.000000
vn -1.000000 0.000000 0.000000
vn -1.000000 0.000000 0.000000
vn -1.000000 0.000000 0.000000
vn 0.000000 0.000000 -1.000000
vn 0.000000 0.000000 -1.000000
vn 0.000000 0.000000 -1.000000
vn 0.000000 0.000000 -1.000000
vn 0.000000 0.000000 1.000000
vn 0.000000 0.000000 1.000000
vn 0.000000 0.000000 1.000000
vn 0.000000 0.000000 1.000000
vn 0.000000 1.000000 0.000000
vn 0.000000 1.000000 0.000000
vn 0.000000 1.000000 0.000000
vn 0.000000 1.000000 0.000000
vn 0.000000 0.000000 -1.000000
vn 0.000000 0.000000 -1.000000
vn 0.000000 0.000000 -1.000000
vn 0.000000 0.000000 -1.000000
vn 0.000000 -1.000000 0.000000
vn 0.000000 -1.000000 0.000000
vn 0.000000 -1.000000 0.000000
vn 0.000000 -1.000000 0.000000
vn -1.000000 0.000000 0.000000
vn -1.000000 0.000000 0.000000
vn -1.000000 0.000000 0.000000
vn -1.000000 0.000000 0.000000
vn 1.000000 0.000000 0.000000
vn 1.000000 0.000000 0.000000
vn 1.000000 0.000000 0.000000
vn 1.000000 0.000000 0.000000
vn 0.000000 0.000000 1.000000
vn 0.000000 0.000000 1.000000
vn 0.000000 0.000000 1.000000
vn 0.000000 0.000000 1.000000
vn 0.000000 1.000000 0.000000
vn 0.000000 1.000000 0.000000
vn 0.000000 1.000000 0.000000
vn 0.000000 1.000000 0.000000
vn 0.000000 0.000000 -1.000000
vn 0.000000 0.000000 -1.000000
vn 0.000000 0.000000 -1.000000
vn 0.000000 0.000000 -1.000000
vn 0.000000 -1.000000 0.000000
vn 0.000000 -1.000000 0.000000
vn 0.000000 -1.000000 0.000000
vn 0.000000 -1.000000 0.000000
vn 1.000000 0.000000 0.000000
vn 1.000000 0.000000 0.000000
vn 1.000000 0.000000 0.000000
vn 1.000000 0.000000 0.000000
vn -1.000000 0.000000 0.000000
vn -1.000000 0.000000 0.000000
vn -1.000000 0.000000 0.000000
vn -1.000000 0.000000 0.000000
vn 0.000000 0.000000 1.000000
vn 0.000000 0.000000 1.000000
vn 0.000000 0.000000 1.000000
vn 0.000000 0.000000 1.000000
vn 0.000000 1.000000 0.000000
vn 0.000000 1.000000 0.000000
vn 0.000000 1.000000 0.000000
vn 0.000000 1.000000 0.000000
vn 0.000000 0.000000 -1.000000
vn 0.000000 0.000000 -1.000000
vn 0.000000 0.000000 -1.000000
vn 0.000000 0.000000 -1.000000
vn 0.000000 -1.000000 0.000000
vn 0.000000 -1.000000 0.000000
vn 0.000000 -1.000000 0.000000
vn 0.000000 -1.000000 0.000000
vn 1.000000 0.000000 0.000000
vn 1.000000 0.000000 0.000000
vn 1.000000 0.000000 0.000000
vn 1.000000 0.000000 0.000000
vn -1.000000 0.000000 0.000000
vn -1.000000 0.000000 0.000000
vn -1.000000 0.000000 0.000000
vn -1.000000 0.000000 0.000000
vn 0.000000 0.000000 1.000000
vn 0.000000 0.000000 1.000000
vn 0.000000 0.000000 1.000000
vn 0.000000 0.000000 1.000000
vn 0.000000 1.000000 0.000000
vn 0.000000 1.000000 0.000000
vn 0.000000 1.000000 0.000000
vn 0.000000 1.000000 0.000000
vn 0.000000 0.000000 -1.000000
vn 0.000000 0.000000 -1.000000
vn 0.000000 0.000000 -1.000000
vn 0.000000 0.000000 -1.000000
vn 0.000000 -1.000000 0.000000
vn 0.000000 -1.000000 0.000000
vn 0.000000 -1.000000 0.000000
vn 0.000000 -1.000000 0.000000
vn -1.000000 0.000000 0.000000
vn -1.000000 0.000000 0.000000
vn -1.000000 0.000000 0.000000
vn -1.000000 0.000000 0.000000
vn 1.000000 0.000000 0.000000
vn 1.000000 0.000000 0.000000
vn 1.000000 0.000000 0.000000
vn 1.000000 0.000000 0.000000
vn 0.000000 -1.000000 -0.000000
vn 0.000000 -1.000000 -0.000001
vn 0.000000 -1.000000 -0.000001
vn 0.000000 -1.000000 0.000000
vn 0.000000 -1.000000 -0.000001
vn 0.000000 -1.000000 -0.000001
vn 0.000000 -1.000000 -0.000000
vn 0.000000 -1.000000 -0.000000
vn 0.000000 -1.000000 0.000000
vn 0.000000 -1.000000 0.000000
vn 0.000000 -1.000000 0.000000
vn 0.000000 -1.000000 0.000001
vn 0.000000 -1.000000 0.000000
vn 0.000000 -1.000000 -0.000000
vn 0.000000 -1.000000 -0.000001
vn 0.000000 -1.000000 -0.000001
vn 0.000000 -1.000000 0.000001
vn 0.000000 -1.000000 0.000001
vn 0.854056 0.000000 -0.520180
vn 0.562352 0.000000 -0.826898
vn 0.562352 0.000000 -0.826898
vn 0.854056 0.000000 -0.520180
vn 0.271144 0.000000 -0.962539
vn 0.271144 0.000000 -0.962539
vn 0.000000 0.000000 -1.000000
vn 0.000000 0.000000 -1.000000
vn -0.271143 0.000000 -0.962539
vn -0.271143 0.000000 -0.962539
vn -0.562352 0.000000 -0.826898
vn -0.562352 0.000000 -0.826898
vn -0.854056 0.000000 -0.520181
vn -0.854056 0.000000 -0.520181
vn -0.959788 0.000000 -0.280725
vn -0.959788 0.000000 -0.280725
vn 0.959789 0.000000 -0.280724
vn 0.959789 0.000000 -0.280724
vn 0.000000 1.000000 0.000000
vn 0.000000 1.000000 0.000002
vn 0.000000 1.000000 0.000002
vn 0.000000 1.000000 0.000001
vn 0.000000 1.000000 0.000001
vn 0.000000 1.000000 0.000001
vn 0.000000 1.000000 0.000000
vn 0.000000 1.000000 0.000000
vn 0.000000 1.000000 -0.000000
vn 0.000000 1.000000 -0.000000
vn 0.000000 1.000000 0.000001
vn 0.000000 1.000000 0.000001
vn 0.000000 1.000000 0.000000
vn 0.000000 1.000000 0.000001
vn 0.000000 1.000000 0.000000
vn 0.000000 1.000000 0.000000
vn 0.000000 1.000000 0.000000
vn 0.000000 1.000000 0.000000
vn -0.523309 0.000000 0.852143
vn -0.890441 0.000000 0.455098
vn -0.890441 0.000000 0.455098
vn -0.523309 0.000000 0.852143
vn -0.975881 0.000000 0.218303
vn -0.975881 0.000000 0.218303
vn 0.975880 0.000000 0.218306
vn 0.890441 0.000000 0.455099
vn 0.890441 0.000000 0.455099
vn 0.975880 0.000000 0.218306
vn 0.523310 0.000000 0.852142
vn 0.523310 0.000000 0.852142
vn 0.240950 0.000000 0.970538
vn 0.240950 0.000000 0.970538
vn -0.000001 0.000000 1.000000
vn -0.000001 0.000000 1.000000
vn -0.240950 0.000000 0.970538
vn -0.240950 0.000000 0.970538
vn 0.000000 -0.149322 0.988789
vn 0.000000 -0.149322 0.988789
vn 0.000000 -0.075293 0.997161
vn 0.000000 -0.075293 0.997161
vn 0.000000 1.000000 0.000000
vn 0.000000 1.000000 0.000000
vn 0.000000 1.000000 0.000000
vn 0.000000 1.000000 0.000000
vn 0.000000 -1.000000 0.000003
vn 0.000000 -1.000000 0.000003
vn 0.000000 -1.000000 0.000003
vn 0.000000 -1.000000 0.000003
vn 1.000000 -0.000000 0.000000
vn 1.000000 -0.000000 0.000000
vn 1.000000 -0.000000 0.000000
vn 1.000000 -0.000000 0.000000
vn -1.000000 -0.000000 0.000000
vn -1.000000 -0.000000 0.000000
vn -1.000000 -0.000000 0.000000
vn -1.000000 -0.000000 0.000000
vn 1.000000 0.000000 0.000000
vn 1.000000 0.000000 0.000000
vn 1.000000 0.000000 0.000000
vn 1.000000 0.000000 0.000000
vn 0.000000 0.075293 0.997161
vn 0.000000 0.075293 0.997161
vn 0.000000 0.149322 0.988789
vn 0.000000 0.149322 0.988789
vn -1.000000 0.000000 0.000000
vn -1.000000 0.000000 0.000000
vn -1.000000 0.000000 0.000000
vn -1.000000 0.000000 0.000000
vn 0.000000 1.000000 0.000000
vn 0.000000 1.000000 0.000000
vn 0.000000 1.000000 0.000000
vn 0.000000 1.000000 0.000000
vn 0.000000 1.000000 0.000000
vn 0.000000 1.000000 0.000000
vn 0.000000 1.000000 -0.000000
vn 0.000000 1.000000 0.000000
vn 0.000000 1.000000 0.000000
vn 0.000000 1.000000 0.000000
vn 0.000000 1.000000 0.000000
vn 0.000000 1.000000 0.000000
vn 0.000000 1.000000 0.000000
vn 0.000000 1.000000 0.000000
vn 0.000000 1.000000 0.000000
vn 0.000000 1.000000 0.000000
vn 0.000000 1.000000 0.000000
vn 0.000000 1.000000 0.000000
vn 0.000000 1.000000 0.000000
vn 0.000000 1.000000 0.000000
vn 0.000000 1.000000 0.000000
f 11/1/1 1/2/2 4/3/3 12/4/4
f 3/5/5 6/6/6 5/7/7 4/3/3
f 9/8/8 5/7/7 8/9/9 10/10/10
f 1/2/2 2/11/11 3/5/5 4/3/3
f 5/7/7 6/6/6 7/12/12 8/9/9
f 9/13/13 10/14/14 13/15/15 14/16/16
f 11/17/17 12/18/18 15/19/19 16/20/20
f 17/21/21 18/22/22 19/23/23 20/24/24
f 21/25/25 27/26/26 28/27/27 24/28/28
f 18/22/29 23/29/30 22/30/31 19/23/32
f 24/31/33 17/21/34 20/24/35 21/32/36
f 25/33/37 22/34/38 23/35/39 26/36/40
f 29/37/41 31/38/42 32/39/43 30/40/44
f 31/38/45 33/41/46 34/42/47 32/39/48
f 33/41/49 35/43/50 36/44/51 34/42/52
f 35/43/53 29/45/54 30/46/55 36/44/56
f 30/40/57 32/39/58 34/47/59 36/48/60
f 35/49/61 33/50/62 31/38/63 29/37/64
f 37/51/65 38/52/66 40/53/67 39/54/68
f 39/54/69 40/53/70 42/55/71 41/56/72
f 41/56/73 42/55/74 44/57/75 43/58/76
f 43/58/77 44/57/78 38/59/79 37/60/80
f 38/52/81 44/61/82 42/62/83 40/53/84
f 43/63/85 37/51/86 39/54/87 41/64/88
f 45/65/89 46/66/90 48/67/91 47/68/92
f 47/68/93 48/67/94 50/69/95 49/70/96
f 49/70/97 50/69/98 52/71/99 51/72/100
f 51/72/101 52/71/102 46/73/103 45/74/104
f 46/66/105 52/75/106 50/76/107 48/67/108
f 51/77/109 45/65/110 47/68/111 49/78/112
f 53/79/113 55/80/114 56/81/115 54/82/116
f 55/80/117 57/83/118 58/84/119 56/81/120
f 57/83/121 59/85/122 60/86/123 58/84/124
f 59/85/125 53/87/126 54/88/127 60/86/128
f 54/82/129 56/81/130 58/89/131 60/90/132
f 59/91/133 57/92/134 55/80/135 53/79/136
f 61/93/137 62/94/138 71/95/139 70/96/140
f 62/94/138 63/97/141 72/98/142 71/95/139
f 63/97/141 64/99/143 73/100/144 72/98/142
f 64/99/143 65/101/145 74/102/146 73/100/144
f 65/101/145 66/103/147 75/104/148 74/102/146
f 66/103/147 67/105/149 76/106/150 75/104/148
f 67/105/149 68/107/151 77/108/152 76/106/150
f 69/109/153 61/93/137 70/96/140 78/110/154
f 70/96/155 71/95/156 80/111/157 79/112/158
f 71/95/156 72/98/159 81/113/160 80/111/157
f 72/98/159 73/100/161 82/114/162 81/113/160
f 73/100/161 74/102/163 83/115/164 82/114/162
f 74/102/163 75/104/165 84/116/166 83/115/164
f 75/104/165 76/106/167 85/117/168 84/116/166
f 76/106/167 77/108/169 86/118/170 85/117/168
f 78/110/171 70/96/155 79/112/158 87/119/172
f 79/112/173 80/111/174 89/120/175 88/121/176
f 80/111/174 81/113/177 90/122/178 89/120/175
f 81/113/177 82/114/179 91/123/180 90/122/178
f 82/114/179 83/115/181 92/124/182 91/123/180
f 83/115/181 84/116/183 93/125/184 92/124/182
f 84/116/183 85/117/185 94/126/186 93/125/184
f 85/117/185 86/118/187 95/127/188 94/126/186
f 87/119/189 79/112/173 88/121/176 96/128/190
f 62/94/191 61/93/192 88/121/193 89/120/194
f 61/93/192 69/109/195 96/128/196 88/121/193
f 68/107/197 67/105/198 94/126/199 95/127/200
f 67/105/198 66/103/201 93/125/202 94/126/199
f 66/103/201 65/101/203 92/124/204 93/125/202
f 65/101/203 64/99/205 91/123/206 92/124/204
f 64/99/205 63/97/207 90/122/208 91/123/206
f 63/97/207 62/94/191 89/120/194 90/122/208
f 97/129/209 98/130/210 110/131/211 111/132/212
f 99/133/213 100/134/214 102/135/215 101/136/216
f 103/137/217 104/138/218 98/130/219 97/129/220
f 98/130/221 104/138/222 109/139/223 110/131/224
f 103/137/225 97/129/226 111/132/227 112/140/228
f 106/141/229 105/142/230 102/135/231 100/134/232
f 107/143/233 106/141/234 100/134/235 99/133/236
f 108/144/237 107/143/238 99/133/239 101/136/240
f 110/131/224 109/139/223 105/142/230 106/141/229
f 111/132/212 110/131/211 106/141/234 107/143/233
f 112/140/228 111/132/227 107/143/238 108/144/237
f 113/145/241 114/146/242 133/147/243
f 114/146/242 115/148/244 133/147/243
f 115/148/244 116/149/245 133/147/243
f 116/149/245 117/150/246 133/147/243
f 117/150/246 118/151/247 133/147/243
f 118/151/247 119/152/248 133/147/243
f 119/152/248 120/153/249 133/147/243
f 120/153/249 121/154/250 133/147/243
f 121/154/250 122/155/251 133/147/243
f 122/155/251 123/156/252 133/147/243
f 123/156/252 124/157/253 133/147/243
f 124/157/253 125/158/254 133/147/243
f 125/158/254 126/159/255 133/147/243
f 126/159/255 127/160/256 133/147/243
f 127/160/256 128/161/257 133/147/243
f 128/161/257 129/162/258 133/147/243
f 129/162/258 130/163/259 133/147/243
f 130/163/259 131/164/260 133/147/243
f 131/164/260 132/165/261 133/147/243
f 132/165/261 113/145/241 133/147/243
