# This file uses meters as units for non-parametric coordinates.

v 0.937357 6.768722 1.040887
v 0.000000 6.810803 0.654908
v 0.000000 7.021459 1.288463
v 0.508149 6.998647 1.497706
v -0.937357 6.768722 1.040887
v -0.508149 6.998647 1.497706
v -1.325623 6.667130 1.972723
v -0.718632 6.943573 2.002862
v -0.937357 6.565537 2.904558
v -0.508149 6.888498 2.508018
v 0.000000 6.523456 3.290537
v -0.000000 6.865686 2.717260
v 0.937357 6.565537 2.904558
v 0.508149 6.888498 2.508018
v 1.325624 6.667130 1.972723
v 0.718632 6.943573 2.002862
v -0.000000 7.041368 2.013524
vt 0.339985 0.716342
vt 0.332545 0.719151
vt 0.332701 0.714543
vt 0.336735 0.713020
vt 0.325295 0.715887
vt 0.328771 0.712773
vt 0.322482 0.708462
vt 0.327246 0.708748
vt 0.325754 0.701226
vt 0.329020 0.704825
vt 0.333194 0.698417
vt 0.333053 0.703303
vt 0.340444 0.701681
vt 0.336983 0.705072
vt 0.343257 0.709106
vt 0.338508 0.709097
vt 0.332880 0.708972
vn 0.294512 0.935699 -0.194243
vn 0.000000 0.948921 -0.315514
vn 0.000000 0.964917 -0.262557
vn 0.258511 0.953311 -0.156110
vn -0.294511 0.935699 -0.194243
vn -0.258511 0.953311 -0.156109
vn -0.416502 0.903779 0.098534
vn -0.365590 0.925293 0.100879
vn -0.294511 0.871860 0.391311
vn -0.258511 0.897275 0.357868
vn 0.000000 0.858638 0.512583
vn 0.000000 0.885669 0.464317
vn 0.294511 0.871860 0.391310
vn 0.258511 0.897275 0.357868
vn 0.416502 0.903780 0.098533
vn 0.365590 0.925293 0.100879
vn -0.000000 0.994109 0.108381
f 1/1/1 2/2/2 3/3/3 4/4/4
f 2/2/2 5/5/5 6/6/6 3/3/3
f 5/5/5 7/7/7 8/8/8 6/6/6
f 7/7/7 9/9/9 10/10/10 8/8/8
f 9/9/9 11/11/11 12/12/12 10/10/10
f 11/11/11 13/13/13 14/14/14 12/12/12
f 13/13/13 15/15/15 16/16/16 14/14/14
f 15/15/15 1/1/1 4/4/4 16/16/16
f 4/4/4 3/3/3 17/17/17
f 3/3/3 6/6/6 17/17/17
f 6/6/6 8/8/8 17/17/17
f 8/8/8 10/10/10 17/17/17
f 10/10/10 12/12/12 17/17/17
f 12/12/12 14/14/14 17/17/17
f 14/14/14 16/16/16 17/17/17
f 16/16/16 4/4/4 17/17/17
