# This file uses meters as units for non-parametric coordinates.

v -19.653754 0.971418 16.663056
v 19.653754 0.971418 16.663056
v -19.653754 9.810438 16.663056
v 19.653754 9.810438 16.663056
v -19.653754 9.810438 -16.663056
v 19.653754 9.810438 -16.663056
v -19.653754 0.971418 -16.663056
v 19.653754 0.971418 -16.663056
vt 0.365876 0.931230
vt 0.350453 0.931230
vt 0.350453 0.915807
vt 0.365876 0.915807
vt 0.350453 0.915807
vt 0.365876 0.915807
vt 0.365876 0.915807
vt 0.350453 0.915807
vt 0.350453 0.931230
vt 0.365876 0.931230
vt 0.365876 0.915807
vt 0.350453 0.915807
vt 0.350453 0.931230
vt 0.365876 0.931230
vn 0.000000 0.000000 -1.000000
vn 0.000000 0.000000 -1.000000
vn 0.000000 0.000000 -1.000000
vn 0.000000 0.000000 -1.000000
vn 0.000000 -1.000000 0.000000
vn 0.000000 -1.000000 0.000000
vn 0.000000 -1.000000 0.000000
vn 0.000000 -1.000000 0.000000
vn 1.000000 0.000000 0.000000
vn 1.000000 0.000000 0.000000
vn 1.000000 0.000000 0.000000
vn 1.000000 0.000000 0.000000
vn -1.000000 0.000000 0.000000
vn -1.000000 0.000000 0.000000
vn -1.000000 0.000000 0.000000
vn -1.000000 0.000000 0.000000
vn 0.000000 0.000000 1.000000
vn 0.000000 0.000000 1.000000
vn 0.000000 0.000000 1.000000
vn 0.000000 0.000000 1.000000
vn 0.000000 1.000000 0.000000
vn 0.000000 1.000000 0.000000
vn 0.000000 1.000000 0.000000
vn 0.000000 1.000000 0.000000
f 8/1/1 7/2/2 5/3/3 6/4/4
f 1/5/5 7/2/6 8/1/7 2/6/8
f 2/7/9 8/8/10 6/9/11 4/10/12
f 7/11/13 1/12/14 3/13/15 5/14/16
f 1/12/17 2/7/18 4/10/19 3/13/20
f 6/4/21 5/3/22 3/13/23 4/10/24
