# This file uses meters as units for non-parametric coordinates.

v -20.282784 2.649386 -18.317982
v -20.282784 1.172110 -18.317982
v -17.345942 2.649386 -18.317982
v -17.345942 1.172110 -18.317982
v -24.019154 2.649386 -18.317982
v -24.019154 1.172110 -18.317982
v -21.082310 2.649386 -18.317982
v -21.082310 1.172110 -18.317982
v -24.005079 8.370100 -18.317982
v 10.301374 8.370100 -18.317982
v 10.301374 4.055933 -18.317982
v -24.005079 4.055933 -18.317982
v -6.851853 8.370100 -18.317982
v -6.851853 4.055933 -18.317982
v 1.724761 8.370100 -18.317982
v 1.724761 4.055933 -18.317982
v -15.428465 8.370100 -18.317982
v -15.428465 4.055933 -18.317982
v -27.734888 0.549618 16.582092
v -27.734888 1.395133 17.661791
v -27.734888 9.039145 17.661791
v -27.734886 9.884661 16.582094
v -27.734888 0.549618 -17.661791
v -27.734888 9.884661 -17.661791
v -27.734888 5.217139 -17.661791
v -27.734888 5.217139 16.582092
v -27.734888 5.217139 17.661791
v -27.734888 0.549618 9.733316
v -27.734888 5.217139 9.733316
v -27.734886 9.884661 9.733317
v -27.734888 0.549618 2.884539
v -27.734888 5.217139 2.884539
v -27.734886 9.884661 2.884541
v -27.734888 0.549618 -3.964238
v -27.734888 5.217139 -3.964238
v -27.734886 9.884661 -3.964237
v -27.734888 0.549618 -10.813014
v -27.734888 5.217139 -10.813014
v -27.734888 9.884661 -10.813014
v 27.686737 0.549618 16.582092
v 27.686737 1.395134 17.661789
v 27.686737 0.549618 -17.661789
v 27.686737 5.217139 -17.661789
v 27.686737 5.217139 16.582092
v 27.686737 5.217139 17.661789
v 27.686737 0.549618 9.733316
v 27.686737 5.217139 9.733316
v 27.686737 0.549618 2.884539
v 27.686737 5.217139 2.884539
v 27.686737 0.549618 -3.964238
v 27.686737 5.217139 -3.964238
v 27.686737 0.549618 -10.813013
v 27.686737 5.217139 -10.813013
v 21.688595 7.060680 18.276896
v 21.688595 3.373598 18.276896
v 25.538897 3.373598 18.276896
v 25.538897 7.060680 18.276896
v -25.924032 10.529205 16.757322
v -16.692654 10.529205 16.757322
v -16.692652 10.529205 13.484439
v -25.924032 10.529205 13.484439
v 1.008619 10.529205 16.757322
v 26.642244 10.529205 16.757322
v 26.642248 10.529205 -17.872332
v 1.008619 10.529205 -17.872332
v 26.642246 10.529205 -0.557505
v 1.008619 10.529205 -0.557505
v 13.825434 10.529205 -17.872332
v 13.825433 10.529205 -0.557505
v 13.825432 10.529205 16.757322
vt 0.270243 0.843103
vt 0.270243 0.833204
vt 0.251099 0.843103
vt 0.251099 0.833204
vt 0.270243 0.832920
vt 0.251099 0.832920
vt 0.251099 0.823021
vt 0.270243 0.823021
vt 0.344648 0.617548
vt 0.344648 0.641889
vt 0.321114 0.641888
vt 0.321114 0.617548
vt 0.344648 0.617548
vt 0.344648 0.641889
vt 0.321114 0.641888
vt 0.321114 0.617548
vt 0.344648 0.617548
vt 0.344648 0.641888
vt 0.321114 0.641888
vt 0.321114 0.617548
vt 0.344648 0.617548
vt 0.344648 0.641889
vt 0.321114 0.641888
vt 0.321114 0.617548
vt 0.320469 0.619649
vt 0.326587 0.619649
vt 0.326587 0.635723
vt 0.320469 0.639140
vt 0.320469 0.619759
vt 0.344828 0.619759
vt 0.344828 0.639250
vt 0.320469 0.639250
vt 0.320469 0.619759
vt 0.344828 0.619759
vt 0.344828 0.639250
vt 0.320469 0.639250
vt 0.320469 0.619649
vt 0.326587 0.621971
vt 0.326587 0.639140
vt 0.320469 0.639140
vt 0.320469 0.619759
vt 0.344828 0.619759
vt 0.344828 0.639250
vt 0.320469 0.639250
vt 0.320469 0.639250
vt 0.320469 0.619759
vt 0.344828 0.619759
vt 0.344828 0.639250
vt 0.320469 0.619759
vt 0.344828 0.619759
vt 0.344828 0.639250
vt 0.320469 0.639250
vt 0.320469 0.639250
vt 0.320469 0.619759
vt 0.344828 0.619759
vt 0.344828 0.639250
vt 0.320469 0.619759
vt 0.344828 0.619759
vt 0.344828 0.639250
vt 0.320469 0.639250
vt 0.320469 0.639250
vt 0.320469 0.619759
vt 0.344828 0.619759
vt 0.344828 0.639250
vt 0.320469 0.619759
vt 0.344828 0.619759
vt 0.344828 0.639250
vt 0.320469 0.639250
vt 0.320469 0.639250
vt 0.320469 0.619759
vt 0.344828 0.619759
vt 0.344828 0.639250
vt 0.320469 0.619759
vt 0.320469 0.639250
vt 0.344828 0.639250
vt 0.344828 0.619759
vt 0.320469 0.619649
vt 0.320469 0.639140
vt 0.326587 0.639140
vt 0.326587 0.621971
vt 0.320469 0.619759
vt 0.320469 0.639250
vt 0.344828 0.639250
vt 0.344828 0.619759
vt 0.320469 0.619759
vt 0.320469 0.639250
vt 0.344828 0.639250
vt 0.344828 0.619759
vt 0.320469 0.619759
vt 0.320469 0.639250
vt 0.344828 0.639250
vt 0.344828 0.619759
vt 0.320469 0.619759
vt 0.320469 0.639250
vt 0.344828 0.639250
vt 0.344828 0.619759
vt 0.317693 0.658817
vt 0.317693 0.646912
vt 0.329828 0.646912
vt 0.329828 0.658817
vt 0.316147 0.645739
vt 0.360595 0.645739
vt 0.360595 0.658894
vt 0.316147 0.658894
vt 0.320073 0.617337
vt 0.344438 0.617337
vt 0.344438 0.641701
vt 0.320073 0.641701
vt 0.320073 0.617337
vt 0.344438 0.617337
vt 0.344438 0.641701
vt 0.320073 0.641701
vt 0.320073 0.617337
vt 0.344438 0.617337
vt 0.344438 0.641701
vt 0.320073 0.641701
vt 0.320073 0.617337
vt 0.344438 0.617337
vt 0.344438 0.641701
vt 0.320073 0.641701
vn 0.000000 0.000000 -1.000000
vn 0.000000 0.000000 -1.000000
vn 0.000000 0.000000 -1.000000
vn 0.000000 0.000000 -1.000000
vn 0.000000 0.000000 -1.000000
vn 0.000000 0.000000 -1.000000
vn 0.000000 0.000000 -1.000000
vn 0.000000 0.000000 -1.000000
vn 0.000000 0.000000 -1.000000
vn 0.000000 0.000000 -1.000000
vn 0.000000 0.000000 -1.000000
vn 0.000000 0.000000 -1.000000
vn 0.000000 0.000000 -1.000000
vn 0.000000 0.000000 -1.000000
vn 0.000000 0.000000 -1.000000
vn 0.000000 0.000000 -1.000000
vn 0.000000 0.000000 -1.000000
vn 0.000000 0.000000 -1.000000
vn -1.000000 0.000000 -0.000000
vn -1.000000 0.000000 -0.000000
vn -1.000000 0.000001 -0.000001
vn -1.000000 0.000001 -0.000001
vn -1.000000 0.000000 0.000000
vn -1.000000 0.000000 0.000000
vn -1.000000 0.000000 0.000000
vn -1.000000 0.000000 0.000000
vn -1.000000 0.000000 0.000000
vn -1.000000 0.000000 0.000000
vn -1.000000 0.000000 0.000000
vn -1.000000 0.000000 0.000000
vn -1.000000 0.000000 0.000000
vn -1.000000 0.000000 0.000000
vn -1.000000 0.000000 0.000000
vn -1.000000 0.000000 0.000000
vn -1.000000 0.000000 0.000000
vn -1.000000 0.000000 0.000000
vn -1.000000 0.000000 0.000000
vn -1.000000 0.000000 0.000000
vn -1.000000 0.000000 0.000000
vn -1.000000 0.000000 0.000000
vn -1.000000 0.000000 0.000000
vn -1.000000 0.000000 0.000000
vn 1.000000 0.000000 0.000000
vn 1.000000 0.000000 0.000000
vn 1.000000 0.000000 0.000000
vn 1.000000 0.000000 0.000000
vn 1.000000 0.000000 0.000000
vn 1.000000 0.000000 0.000000
vn 1.000000 0.000000 0.000000
vn 1.000000 0.000000 0.000000
vn 1.000000 0.000000 0.000000
vn 1.000000 0.000000 0.000000
vn 1.000000 0.000000 0.000000
vn 1.000000 0.000000 0.000000
vn 1.000000 0.000000 0.000000
vn 1.000000 0.000000 0.000000
vn 1.000000 0.000000 0.000000
vn 1.000000 0.000000 0.000000
vn 0.000000 0.000000 1.000000
vn 0.000000 0.000000 1.000000
vn 0.000000 0.000000 1.000000
vn 0.000000 0.000000 1.000000
vn 0.000000 1.000000 -0.000000
vn 0.000000 1.000000 -0.000000
vn 0.000000 1.000000 -0.000000
vn 0.000000 1.000000 -0.000000
vn 0.000000 1.000000 0.000000
vn 0.000000 1.000000 0.000000
vn 0.000000 1.000000 0.000000
vn 0.000000 1.000000 -0.000000
vn 0.000000 1.000000 -0.000000
vn 0.000000 1.000000 -0.000000
vn 0.000000 1.000000 -0.000000
vn 0.000000 1.000000 -0.000000
vn 0.000000 1.000000 0.000000
f 1/1/1 3/3/2 4/4/3 2/2/4
f 5/5/5 7/6/6 8/7/7 6/8/8
f 9/9/9 17/10/10 18/11/11 12/12/12
f 13/13/13 15/14/14 16/15/15 14/16/16
f 15/17/14 10/18/17 11/19/18 16/20/15
f 17/21/10 13/22/13 14/23/16 18/24/11
f 26/25/19 27/26/20 21/27/21 22/28/22
f 25/29/23 38/30/24 39/31/25 24/32/26
f 23/33/27 37/34/28 38/35/24 25/36/23
f 19/37/29 20/38/30 27/39/20 26/40/19
f 28/41/31 19/42/32 26/43/33 29/44/34
f 30/45/35 29/46/34 26/47/33 22/48/36
f 31/49/37 28/50/31 29/51/34 32/52/38
f 33/53/39 32/54/38 29/55/34 30/56/35
f 34/57/40 31/58/37 32/59/38 35/60/41
f 36/61/42 35/62/41 32/63/38 33/64/39
f 37/65/28 34/66/40 35/67/41 38/68/24
f 39/69/25 38/70/24 35/71/41 36/72/42
f 42/73/43 43/74/44 53/75/45 52/76/46
f 40/77/47 44/78/48 45/79/49 41/80/50
f 46/81/51 47/82/52 44/83/53 40/84/54
f 48/85/55 49/86/56 47/87/52 46/88/51
f 50/89/57 51/90/58 49/91/56 48/92/55
f 52/93/46 53/94/45 51/95/58 50/96/57
f 54/97/59 55/98/60 56/99/61 57/100/62
f 58/101/63 59/102/64 60/103/65 61/104/66
f 70/105/67 63/106/68 66/107/69 69/108/70
f 69/109/70 66/110/69 64/111/71 68/112/72
f 67/113/73 69/114/70 68/115/72 65/116/74
f 62/117/75 70/118/67 69/119/70 67/120/73
