# This file uses meters as units for non-parametric coordinates.

v -4.544608 11.320126 10.952917
v 4.544608 11.320126 10.952917
v 4.544608 11.320126 -10.952917
v -4.544608 11.320126 -10.952917
v -14.764599 0.234809 -16.343735
v -14.764599 3.746391 -16.343735
v -19.107790 0.234809 -16.343735
v -19.107790 3.746391 -16.343735
v -14.001091 0.449446 -16.343735
v 18.218075 0.449446 -16.343735
v 18.218075 3.531754 -16.343735
v -14.001091 3.531754 -16.343735
v 10.163284 0.449446 -16.343735
v 10.163284 3.531754 -16.343735
v 2.108492 0.449446 -16.343735
v 2.108492 3.531754 -16.343735
v -5.946300 0.449446 -16.343735
v -5.946300 3.531754 -16.343735
v -20.274532 1.419751 -16.343735
v -20.274532 2.561449 -16.343735
v -22.531790 1.419751 -16.343735
v -22.531790 2.561449 -16.343735
v -22.752346 1.419751 -16.343735
v -22.752346 2.561449 -16.343735
v -25.009602 1.419751 -16.343735
v -25.009602 2.561449 -16.343735
v -22.802849 1.492943 14.786435
v -19.932178 1.492943 14.786435
v -19.932178 2.687836 14.786435
v -22.802849 2.687836 14.786435
v -18.937172 1.492943 14.786435
v -16.066502 1.492943 14.786435
v -16.066502 2.687836 14.786435
v -18.937172 2.687836 14.786435
v -14.001091 0.449446 14.603627
v 18.218075 0.449446 14.603627
v 18.218075 3.531754 14.603627
v -14.001091 3.531754 14.603627
v 10.163284 0.449446 14.603627
v 10.163284 3.531754 14.603627
v 2.108492 0.449446 14.603628
v 2.108492 3.531754 14.603628
v -5.946300 0.449446 14.603628
v -5.946300 3.531754 14.603628
v 13.708740 5.809235 18.081032
v 17.132166 5.809235 18.081032
v 13.708740 9.232659 18.081032
v 17.132166 9.232659 18.081032
v 21.863230 4.376914 18.081032
v 23.554346 4.376914 18.081032
v 21.863230 6.068029 18.081032
v 23.554346 6.068029 18.081032
v 21.863230 8.772099 18.081032
v 23.554346 8.772099 18.081032
v 21.863230 10.463213 18.081032
v 23.554346 10.463213 18.081032
v 24.129938 4.839434 18.081032
v 25.821054 4.839434 18.081032
v 24.129938 9.919500 18.081032
v 25.821054 9.919500 18.081032
vt 0.278015 0.742759
vt 0.278015 0.757594
vt 0.252476 0.757594
vt 0.252476 0.742759
vt 0.109665 0.654440
vt 0.109665 0.642152
vt 0.140963 0.642152
vt 0.140963 0.654440
vt 0.141380 0.642410
vt 0.109117 0.642410
vt 0.109117 0.653397
vt 0.141380 0.653397
vt 0.141380 0.653397
vt 0.109117 0.653397
vt 0.109117 0.642410
vt 0.141380 0.642410
vt 0.141380 0.642410
vt 0.109117 0.642410
vt 0.250820 0.843802
vt 0.250820 0.832916
vt 0.270757 0.832916
vt 0.270757 0.843802
vt 0.250820 0.843802
vt 0.250820 0.832916
vt 0.270757 0.832916
vt 0.270757 0.843802
vt 0.250780 0.833238
vt 0.269923 0.833238
vt 0.269923 0.843321
vt 0.250780 0.843321
vt 0.250780 0.833238
vt 0.269923 0.833238
vt 0.269923 0.843321
vt 0.250780 0.843321
vt 0.141380 0.642410
vt 0.141380 0.653397
vt 0.109117 0.653397
vt 0.109117 0.642410
vt 0.141380 0.653397
vt 0.141380 0.642410
vt 0.109117 0.642410
vt 0.109117 0.653397
vt 0.141380 0.642410
vt 0.109117 0.642410
vt 0.252145 0.782661
vt 0.286474 0.782661
vt 0.286474 0.812873
vt 0.252145 0.812873
vt 0.261255 0.733064
vt 0.270118 0.733064
vt 0.270118 0.741623
vt 0.261255 0.741623
vt 0.251535 0.733064
vt 0.260398 0.733064
vt 0.260398 0.741623
vt 0.251535 0.741623
vt 0.269966 0.723670
vt 0.269966 0.732533
vt 0.251262 0.732533
vt 0.251262 0.723670
vn 0.000000 1.000000 0.000000
vn 0.000000 1.000000 0.000000
vn 0.000000 1.000000 0.000000
vn 0.000000 1.000000 0.000000
vn 0.000000 0.000000 -1.000000
vn 0.000000 0.000000 -1.000000
vn 0.000000 0.000000 -1.000000
vn 0.000000 0.000000 -1.000000
vn 0.000000 0.000000 -1.000000
vn 0.000000 0.000000 -1.000000
vn 0.000000 0.000000 -1.000000
vn 0.000000 0.000000 -1.000000
vn 0.000000 0.000000 -1.000000
vn 0.000000 0.000000 -1.000000
vn 0.000000 0.000000 -1.000000
vn 0.000000 0.000000 -1.000000
vn 0.000000 0.000000 -1.000000
vn 0.000000 0.000000 -1.000000
vn 0.000000 0.000000 -1.000000
vn 0.000000 0.000000 -1.000000
vn 0.000000 0.000000 -1.000000
vn 0.000000 0.000000 -1.000000
vn 0.000000 0.000000 -1.000000
vn 0.000000 0.000000 -1.000000
vn 0.000000 0.000000 -1.000000
vn 0.000000 0.000000 -1.000000
vn 0.000000 0.000000 1.000000
vn 0.000000 0.000000 1.000000
vn 0.000000 0.000000 1.000000
vn 0.000000 0.000000 1.000000
vn 0.000000 0.000000 1.000000
vn 0.000000 0.000000 1.000000
vn 0.000000 0.000000 1.000000
vn 0.000000 0.000000 1.000000
vn 0.000000 0.000000 1.000000
vn 0.000000 0.000000 1.000000
vn 0.000000 0.000000 1.000000
vn 0.000000 0.000000 1.000000
vn 0.000000 0.000000 1.000000
vn 0.000000 0.000000 1.000000
vn 0.000000 0.000000 1.000000
vn 0.000000 0.000000 1.000000
vn 0.000000 0.000000 1.000000
vn 0.000000 0.000000 1.000000
vn 0.000000 0.000000 1.000000
vn 0.000000 0.000000 1.000000
vn 0.000000 0.000000 1.000000
vn 0.000000 0.000000 1.000000
vn 0.000000 0.000000 1.000000
vn 0.000000 0.000000 1.000000
vn 0.000000 0.000000 1.000000
vn 0.000000 0.000000 1.000000
vn 0.000000 0.000000 1.000000
vn 0.000000 0.000000 1.000000
vn 0.000000 0.000000 1.000000
vn 0.000000 0.000000 1.000000
vn 0.000000 0.000000 1.000000
vn 0.000000 0.000000 1.000000
vn 0.000000 0.000000 1.000000
vn 0.000000 0.000000 1.000000
f 1/1/1 2/2/2 3/3/3 4/4/4
f 7/5/5 8/6/6 6/7/7 5/8/8
f 9/9/9 12/10/10 18/11/11 17/12/12
f 13/13/13 14/14/14 11/15/15 10/16/16
f 15/17/17 16/18/18 14/14/14 13/13/13
f 17/12/12 18/11/11 16/18/18 15/17/17
f 21/19/19 22/20/20 20/21/21 19/22/22
f 25/23/23 26/24/24 24/25/25 23/26/26
f 27/27/27 28/28/28 29/29/29 30/30/30
f 31/31/31 32/32/32 33/33/33 34/34/34
f 35/35/35 43/36/36 44/37/37 38/38/38
f 39/39/39 36/40/40 37/41/41 40/42/42
f 41/43/43 39/39/39 40/42/42 42/44/44
f 43/36/36 41/43/43 42/44/44 44/37/37
f 45/45/45 46/46/46 48/47/47 47/48/48
f 49/49/49 50/50/50 52/51/51 51/52/52
f 53/53/53 54/54/54 56/55/55 55/56/56
f 57/57/57 58/58/58 60/59/59 59/60/60
