# This file uses meters as units for non-parametric coordinates.

v -20.816257 6.474922 18.708530
v 4.593429 6.474922 18.708530
v 4.593429 9.085355 18.708530
v -20.816257 9.085355 18.708530
v -21.234938 8.215211 18.708530
v 5.012111 8.215211 18.708530
v -21.234938 7.345066 18.708530
v 5.012111 7.345066 18.708530
vt 0.511343 0.080713
vt 0.608196 0.080713
vt 0.608196 0.112997
vt 0.511343 0.112997
vt 0.509570 0.102236
vt 0.609969 0.102236
vt 0.509570 0.091474
vt 0.609969 0.091474
vn 0.000000 0.000000 1.000000
vn 0.000000 0.000000 1.000000
vn 0.000000 0.000000 1.000000
vn 0.000000 0.000000 1.000000
vn 0.000000 0.000000 1.000000
vn 0.000000 0.000000 1.000000
vn 0.000000 0.000000 1.000000
vn 0.000000 0.000000 1.000000
f 5/5/1 6/6/2 3/3/3 4/4/4
f 7/7/5 8/8/6 6/6/2 5/5/1
f 1/1/7 2/2/8 8/8/6 7/7/5
