# This file uses meters as units for non-parametric coordinates.

v 11.957440 4.829989 4.535332
v 11.957440 4.829989 -4.535332
v 11.957440 13.945518 -4.535332
v 11.957440 13.945518 4.535332
v 11.957440 13.945518 0.000000
v 11.957440 4.829989 0.000000
v 11.957440 9.387753 4.535332
v 11.957440 9.387753 0.000000
v 11.957440 9.387753 -4.535332
v -5.865386 4.806810 -11.351012
v 1.455726 4.806810 -11.351012
v 1.455726 2.473520 -11.351012
v -5.865386 2.473520 -11.351012
v -4.299262 19.377401 1.500736
v 4.299262 19.377401 1.500736
v -4.299262 19.377401 -1.500736
v 4.299262 19.377401 -1.500736
v 3.109994 19.377401 -9.077651
v 7.813193 19.377401 -9.077651
v 3.109994 19.377401 -10.661798
v 7.813193 19.377401 -10.661798
v -10.229418 19.098459 -6.673859
v -7.249554 19.098459 -6.673859
v -10.229418 19.098459 -9.675331
v -7.249554 19.098459 -9.675331
v -10.229418 19.098459 10.271749
v -7.249554 19.098459 10.271749
v -10.229418 19.098459 7.270277
v -7.249554 19.098459 7.270277
v 7.618430 19.098459 10.271749
v 10.598294 19.098459 10.271749
v 7.618430 19.098459 7.270277
v 10.598294 19.098459 7.270277
v -3.080878 12.380365 12.323505
v -3.080878 10.976200 12.535556
v -3.080878 9.906740 12.535556
v -0.744484 12.380365 12.323505
v -0.744484 10.976200 12.535556
v -0.744484 9.906740 12.535556
v -6.748442 12.380366 12.323504
v -6.748442 10.976200 12.535555
v -6.748442 9.906739 12.535555
v -4.412048 12.380366 12.323504
v -4.412048 10.976200 12.535555
v -4.412048 9.906739 12.535555
v 3.080879 12.380365 12.323503
v 3.080879 10.976200 12.535558
v 3.080879 9.906738 12.535558
v 0.744484 12.380365 12.323503
v 0.744484 10.976200 12.535558
v 0.744484 9.906738 12.535558
v 6.748444 12.380365 12.323503
v 6.748444 10.976200 12.535558
v 6.748444 9.906738 12.535558
v 4.412048 12.380365 12.323503
v 4.412048 10.976200 12.535558
v 4.412048 9.906738 12.535558
v 6.598621 5.970688 12.439209
v 1.486401 5.970688 12.439209
v 1.486401 7.593363 12.684258
v 6.598621 7.593363 12.684258
v -6.598621 5.970688 12.439209
v -1.486401 5.970688 12.439209
v -1.486401 7.593363 12.684258
v -6.598621 7.593363 12.684258
v 6.454222 12.646629 12.241959
v 6.454222 13.137114 12.209847
v 4.691551 13.137114 12.209847
v 4.691551 12.646629 12.241959
v 2.531564 12.646629 12.241959
v 2.531564 13.137114 12.209847
v 1.276653 13.137114 12.209847
v 1.276653 12.646629 12.241959
v -1.515380 12.646629 12.241959
v -1.515380 13.137115 12.209847
v -2.358250 13.137115 12.209847
v -2.358250 12.646629 12.241959
v -5.339128 12.646629 12.241959
v -5.339128 13.137114 12.209847
v -5.821362 13.137114 12.209847
v -5.821362 12.646629 12.241959
v -11.957439 4.829990 4.535332
v -11.957439 4.829990 -4.535332
v -11.957439 13.945518 -4.535332
v -11.957439 13.945518 4.535332
v -11.957439 13.945518 -0.000000
v -11.957439 4.829990 -0.000000
v -11.957439 9.387753 4.535332
v -11.957439 9.387753 -0.000000
v -11.957439 9.387753 -4.535332
vt 0.109534 0.641852
vt 0.109534 0.641852
vt 0.109534 0.641852
vt 0.109534 0.641852
vt 0.126963 0.641852
vt 0.126963 0.641852
vt 0.109534 0.624531
vt 0.126963 0.624531
vt 0.109534 0.624531
vt 0.109241 0.642497
vt 0.141143 0.642497
vt 0.141143 0.653590
vt 0.109241 0.653590
vt 0.065349 0.605420
vt 0.097353 0.605420
vt 0.097353 0.615782
vt 0.065349 0.615782
vt 0.222344 0.719947
vt 0.245591 0.719947
vt 0.245591 0.728621
vt 0.222344 0.728621
vt 0.095700 0.624715
vt 0.107229 0.624715
vt 0.107229 0.636540
vt 0.095700 0.636540
vt 0.128722 0.627615
vt 0.140252 0.627615
vt 0.140252 0.639441
vt 0.128722 0.639441
vt 0.128971 0.627556
vt 0.140501 0.627556
vt 0.140501 0.639381
vt 0.128971 0.639381
vt 0.067283 0.625670
vt 0.086018 0.625739
vt 0.085870 0.636688
vt 0.067135 0.636619
vt 0.067283 0.618054
vt 0.086018 0.618123
vt 0.067283 0.625670
vt 0.086018 0.625739
vt 0.085870 0.636688
vt 0.067135 0.636619
vt 0.067283 0.618054
vt 0.086018 0.618123
vt 0.067283 0.625670
vt 0.067135 0.636619
vt 0.085870 0.636688
vt 0.086018 0.625739
vt 0.067283 0.618054
vt 0.086018 0.618123
vt 0.067283 0.625670
vt 0.067135 0.636619
vt 0.085870 0.636688
vt 0.086018 0.625739
vt 0.067283 0.618054
vt 0.086018 0.618123
vt 0.156596 0.627490
vt 0.141400 0.627545
vt 0.141289 0.654611
vt 0.156485 0.654556
vt 0.156596 0.627490
vt 0.156485 0.654556
vt 0.141289 0.654611
vt 0.141400 0.627545
vt 0.088604 0.620716
vt 0.092201 0.620739
vt 0.092172 0.634668
vt 0.088576 0.634645
vt 0.088604 0.624334
vt 0.092201 0.624357
vt 0.092172 0.634668
vt 0.088576 0.634645
vt 0.088604 0.627655
vt 0.092201 0.627677
vt 0.092172 0.634668
vt 0.088576 0.634645
vt 0.088604 0.631025
vt 0.092201 0.631048
vt 0.092172 0.634668
vt 0.088576 0.634645
vt 0.126963 0.624531
vt 0.126963 0.641852
vt 0.109534 0.641852
vt 0.109534 0.624531
vt 0.109534 0.624531
vt 0.109534 0.641852
vt 0.109534 0.641852
vt 0.126963 0.641852
vt 0.109534 0.641852
vn 1.000000 0.000000 0.000000
vn 1.000000 0.000000 0.000000
vn 1.000000 0.000000 0.000000
vn 1.000000 0.000000 0.000000
vn 1.000000 0.000000 0.000000
vn 1.000000 0.000000 0.000000
vn 1.000000 0.000000 0.000000
vn 1.000000 0.000000 0.000000
vn 1.000000 0.000000 0.000000
vn 0.000000 0.000000 -1.000000
vn 0.000000 0.000000 -1.000000
vn 0.000000 0.000000 -1.000000
vn 0.000000 0.000000 -1.000000
vn 0.000000 1.000000 0.000000
vn 0.000000 1.000000 0.000000
vn 0.000000 1.000000 0.000000
vn 0.000000 1.000000 0.000000
vn 0.000000 1.000000 0.000000
vn 0.000000 1.000000 0.000000
vn 0.000000 1.000000 0.000000
vn 0.000000 1.000000 0.000000
vn 0.000000 1.000000 0.000000
vn 0.000000 1.000000 0.000000
vn 0.000000 1.000000 0.000000
vn 0.000000 1.000000 0.000000
vn 0.000000 1.000000 0.000000
vn 0.000000 1.000000 0.000000
vn 0.000000 1.000000 0.000000
vn 0.000000 1.000000 0.000000
vn 0.000000 1.000000 0.000000
vn 0.000000 1.000000 0.000000
vn 0.000000 1.000000 0.000000
vn 0.000000 1.000000 0.000000
vn 0.000000 0.085411 0.996346
vn 0.000000 0.085411 0.996346
vn 0.000000 0.149322 0.988789
vn 0.000000 0.149322 0.988789
vn 0.000000 0.000000 1.000000
vn 0.000000 0.000000 1.000000
vn 0.000000 0.085411 0.996346
vn 0.000000 0.085411 0.996346
vn 0.000000 0.149322 0.988789
vn 0.000000 0.149322 0.988789
vn 0.000000 0.000000 1.000000
vn 0.000000 0.000000 1.000000
vn 0.000000 0.085413 0.996346
vn 0.000000 0.149325 0.988788
vn 0.000000 0.149325 0.988788
vn 0.000000 0.085413 0.996346
vn 0.000000 0.000000 1.000000
vn 0.000000 0.000000 1.000000
vn 0.000000 0.085413 0.996346
vn 0.000000 0.149325 0.988788
vn 0.000000 0.149325 0.988788
vn 0.000000 0.085413 0.996346
vn 0.000000 0.000000 1.000000
vn 0.000000 0.000000 1.000000
vn 0.000000 -0.149322 0.988789
vn 0.000000 -0.149322 0.988789
vn 0.000000 -0.149322 0.988789
vn 0.000000 -0.149322 0.988789
vn 0.000000 -0.149322 0.988789
vn 0.000000 -0.149322 0.988789
vn 0.000000 -0.149322 0.988789
vn 0.000000 -0.149322 0.988789
vn 0.000000 0.065329 0.997864
vn 0.000000 0.065329 0.997864
vn 0.000000 0.065329 0.997864
vn 0.000000 0.065329 0.997864
vn 0.000000 0.065328 0.997864
vn 0.000000 0.065328 0.997864
vn 0.000000 0.065328 0.997864
vn 0.000000 0.065328 0.997864
vn 0.000000 0.065328 0.997864
vn 0.000000 0.065328 0.997864
vn 0.000000 0.065328 0.997864
vn 0.000000 0.065328 0.997864
vn 0.000000 0.065328 0.997864
vn 0.000000 0.065328 0.997864
vn 0.000000 0.065328 0.997864
vn 0.000000 0.065328 0.997864
vn -1.000000 0.000000 0.000000
vn -1.000000 0.000000 0.000000
vn -1.000000 0.000000 0.000000
vn -1.000000 0.000000 0.000000
vn -1.000000 0.000000 0.000000
vn -1.000000 0.000000 0.000000
vn -1.000000 0.000000 0.000000
vn -1.000000 0.000000 0.000000
vn -1.000000 0.000000 0.000000
f 8/8/1 9/9/2 3/3/3 5/5/4
f 7/7/5 8/8/1 5/5/4 4/4/6
f 1/1/7 6/6/8 8/8/1 7/7/5
f 6/6/8 2/2/9 9/9/2 8/8/1
f 10/10/10 11/11/11 12/12/12 13/13/13
f 14/14/14 15/15/15 17/16/16 16/17/17
f 18/18/18 19/19/19 21/20/20 20/21/21
f 22/22/22 23/23/23 25/24/24 24/25/25
f 26/26/26 27/27/27 29/28/28 28/29/29
f 30/30/30 31/31/31 33/32/32 32/33/33
f 35/34/34 38/35/35 37/36/36 34/37/37
f 36/38/38 39/39/39 38/35/35 35/34/34
f 41/40/40 44/41/41 43/42/42 40/43/43
f 42/44/44 45/45/45 44/41/41 41/40/40
f 47/46/46 46/47/47 49/48/48 50/49/49
f 48/50/50 47/46/46 50/49/49 51/51/51
f 53/52/52 52/53/53 55/54/54 56/55/55
f 54/56/56 53/52/52 56/55/55 57/57/57
f 58/58/58 61/59/59 60/60/60 59/61/61
f 62/62/62 63/63/63 64/64/64 65/65/65
f 66/66/66 67/67/67 68/68/68 69/69/69
f 70/70/70 71/71/71 72/72/72 73/73/73
f 74/74/74 75/75/75 76/76/76 77/77/77
f 78/78/78 79/79/79 80/80/80 81/81/81
f 89/82/82 86/83/83 84/84/84 90/85/85
f 88/86/86 85/87/87 86/83/83 89/82/82
f 82/88/88 88/86/86 89/82/82 87/89/89
f 87/89/89 89/82/82 90/85/85 83/90/90
