# This file uses meters as units for non-parametric coordinates.

v 3.723526 3.366297 -3.210041
v 3.723526 3.366297 -2.397388
v 4.529324 3.366298 -2.397388
v 4.529324 3.366298 -3.210041
v 5.347641 3.366297 -4.897020
v 5.347641 3.366297 -3.984808
v 6.226552 3.366298 -3.984808
v 6.226552 3.366298 -4.897020
v 5.308464 3.366297 -1.720058
v 5.308464 3.366297 -0.807846
v 6.187376 3.366298 -0.807846
v 6.187376 3.366298 -1.720058
v 7.044408 3.366297 -3.316767
v 7.044408 3.366297 -2.404556
v 7.850207 3.366298 -2.404556
v 7.850206 3.366298 -3.316767
v 3.283913 3.347942 -3.653395
v 3.283913 3.347942 -1.954039
v 4.968937 3.347942 -1.954039
v 4.968936 3.347942 -3.653395
v 6.628721 3.347942 -3.652788
v 6.628721 3.347942 -1.953430
v 8.313745 3.347942 -1.953430
v 8.313745 3.347942 -3.652788
v 4.950500 3.347942 -5.236303
v 4.950500 3.347942 -3.536947
v 6.635523 3.347942 -3.536947
v 6.635523 3.347942 -5.236303
v 4.950500 3.347942 -2.082485
v 4.950500 3.347942 -0.383129
v 6.635523 3.347942 -0.383129
v 6.635523 3.347942 -2.082485
v -0.862201 3.077736 -3.777880
v -0.862202 3.077736 -2.344248
v 0.862202 3.077736 -2.344248
v 0.862201 3.077736 -3.777880
v -1.886667 3.077736 -5.601238
v -1.886667 3.077736 -4.579418
v 1.886667 3.077736 -4.579418
v 1.886667 3.077736 -5.601238
v 8.550697 3.318582 0.065441
v 3.075634 3.318582 0.065441
v 8.550697 3.318582 -5.409622
v 3.075634 3.318582 -5.409622
v -8.550698 3.318582 0.065442
v -3.075633 3.318582 0.065442
v -8.550698 3.318582 -5.409623
v -3.075633 3.318582 -5.409623
vt 0.283338 0.841528
vt 0.275134 0.841528
vt 0.275134 0.833391
vt 0.283338 0.833391
vt 0.288984 0.852825
vt 0.279203 0.852825
vt 0.279203 0.843468
vt 0.288984 0.843468
vt 0.282751 0.832284
vt 0.273501 0.832284
vt 0.273501 0.822928
vt 0.282751 0.822928
vt 0.278317 0.852825
vt 0.270023 0.852825
vt 0.270023 0.843468
vt 0.278317 0.843468
vt 0.271672 0.779396
vt 0.254023 0.779396
vt 0.254023 0.761891
vt 0.271672 0.761891
vt 0.271672 0.779396
vt 0.254023 0.779396
vt 0.254023 0.761891
vt 0.271672 0.761891
vt 0.271672 0.779396
vt 0.254023 0.779396
vt 0.254023 0.761891
vt 0.271672 0.761891
vt 0.271672 0.779396
vt 0.254023 0.779396
vt 0.254023 0.761891
vt 0.271672 0.761891
vt 0.285062 0.810313
vt 0.252670 0.810313
vt 0.252670 0.784411
vt 0.285062 0.784411
vt 0.279390 0.819051
vt 0.254203 0.819051
vt 0.254203 0.813076
vt 0.279390 0.813076
vt 0.280424 0.748586
vt 0.280424 0.781431
vt 0.313269 0.781431
vt 0.313269 0.748586
vt 0.280424 0.748586
vt 0.313269 0.748586
vt 0.313269 0.781431
vt 0.280424 0.781431
vn -0.000001 1.000000 -0.000000
vn -0.000001 1.000000 -0.000000
vn -0.000001 1.000000 -0.000000
vn -0.000001 1.000000 -0.000000
vn -0.000001 1.000000 0.000000
vn -0.000001 1.000000 0.000000
vn -0.000001 1.000000 0.000000
vn -0.000001 1.000000 0.000000
vn -0.000001 1.000000 -0.000000
vn -0.000001 1.000000 -0.000000
vn -0.000001 1.000000 -0.000000
vn -0.000001 1.000000 -0.000000
vn -0.000001 1.000000 -0.000000
vn -0.000001 1.000000 -0.000000
vn -0.000001 1.000000 -0.000000
vn -0.000001 1.000000 -0.000000
vn -0.000000 1.000000 0.000000
vn -0.000000 1.000000 0.000000
vn -0.000000 1.000000 0.000000
vn -0.000000 1.000000 0.000000
vn -0.000000 1.000000 0.000000
vn -0.000000 1.000000 0.000000
vn -0.000000 1.000000 0.000000
vn -0.000000 1.000000 0.000000
vn -0.000000 1.000000 -0.000000
vn -0.000000 1.000000 -0.000000
vn -0.000000 1.000000 -0.000000
vn -0.000000 1.000000 -0.000000
vn -0.000000 1.000000 -0.000000
vn -0.000000 1.000000 -0.000000
vn -0.000000 1.000000 -0.000000
vn -0.000000 1.000000 -0.000000
vn 0.000000 1.000000 0.000000
vn 0.000000 1.000000 0.000000
vn 0.000000 1.000000 0.000000
vn 0.000000 1.000000 0.000000
vn -0.000000 1.000000 -0.000000
vn -0.000000 1.000000 -0.000000
vn -0.000000 1.000000 -0.000000
vn -0.000000 1.000000 -0.000000
vn 0.000000 1.000000 0.000000
vn 0.000000 1.000000 0.000000
vn 0.000000 1.000000 0.000000
vn 0.000000 1.000000 0.000000
vn 0.000000 1.000000 0.000000
vn 0.000000 1.000000 0.000000
vn 0.000000 1.000000 0.000000
vn 0.000000 1.000000 0.000000
f 4/1/1 1/2/2 2/3/3 3/4/4
f 8/5/5 5/6/6 6/7/7 7/8/8
f 12/9/9 9/10/10 10/11/11 11/12/12
f 16/13/13 13/14/14 14/15/15 15/16/16
f 20/17/17 17/18/18 18/19/19 19/20/20
f 24/21/21 21/22/22 22/23/23 23/24/24
f 28/25/25 25/26/26 26/27/27 27/28/28
f 32/29/29 29/30/30 30/31/31 31/32/32
f 36/33/33 33/34/34 34/35/35 35/36/36
f 40/37/37 37/38/38 38/39/39 39/40/40
f 41/41/41 43/42/42 44/43/43 42/44/44
f 45/45/45 46/46/46 48/47/47 47/48/48
