# This file uses meters as units for non-parametric coordinates.

v 30.144867 11.407905 17.924551
v 1.453628 11.407905 17.924551
v 1.453628 10.563720 17.924551
v 30.144867 10.563720 17.924551
v 0.000000 12.395638 17.843306
v 0.000000 8.288406 17.843306
v 31.598495 8.288406 17.843306
v 31.598495 12.395638 17.843306
v 31.598495 12.812542 16.527744
v 0.000000 12.812542 16.527744
v -31.598495 12.395638 17.843306
v -31.598495 12.812542 16.527744
vt 0.264604 0.971873
vt 0.257847 0.971873
vt 0.257847 0.969667
vt 0.264604 0.969667
vt 0.607891 0.110035
vt 0.519811 0.110035
vt 0.519811 0.081273
vt 0.607891 0.081273
vt 0.519772 0.081273
vt 0.607891 0.081273
vt 0.607891 0.110035
vt 0.607891 0.081273
vn 0.000000 0.000000 1.000000
vn 0.000000 0.000000 1.000000
vn 0.000000 0.000000 1.000000
vn 0.000000 0.000000 1.000000
vn 0.000000 0.000000 1.000000
vn 0.000000 0.000000 1.000000
vn 0.000000 0.000000 1.000000
vn 0.000000 0.000000 1.000000
vn 0.000000 0.953278 0.302096
vn 0.000000 0.953278 0.302096
vn 0.000000 0.953278 0.302096
vn 0.000000 0.953278 0.302096
vn 0.000000 0.953278 0.302096
vn 0.000000 0.953278 0.302096
f 1/1/1 2/2/2 3/3/3 4/4/4
f 8/5/5 5/6/6 6/7/7 7/8/8
f 10/9/9 5/6/10 8/5/11 9/10/12
f 11/11/13 5/6/10 10/9/9 12/12/14
