# This file uses meters as units for non-parametric coordinates.

v -3.682708 -10.537022 -0.802466
v -7.047445 -10.537022 -0.802466
v -7.047445 5.873022 -0.802466
v -3.682708 5.873022 -0.802466
v -7.047445 -6.434511 -0.802466
v -3.682708 -6.434511 -0.802466
v -7.047445 -2.332000 -0.802466
v -3.682708 -2.332000 -0.802466
v -7.047445 1.770511 -0.802466
v -3.682708 1.770511 -0.802466
v -3.682708 5.873022 0.786046
v -7.047445 5.873022 0.786046
v -7.047445 -10.537022 0.786046
v -3.682708 -10.537022 0.786046
v -7.047445 1.770511 0.786046
v -3.682708 1.770511 0.786046
v -7.047445 -2.332000 0.786046
v -3.682708 -2.332000 0.786046
v -7.047445 -6.434511 0.786046
v -3.682708 -6.434511 0.786046
v -3.682708 -12.434177 0.786046
v -7.047444 -12.434177 0.786046
v -7.047445 -12.434177 -0.802466
v -3.682708 -12.434177 -0.802466
v -3.682708 10.240013 -0.452407
v -7.047445 10.240013 -0.452407
v -7.047445 5.873022 -0.452407
v -3.682708 5.873022 -0.452407
v -3.682708 10.240013 0.452407
v -7.047445 10.240013 0.452407
v -7.047445 5.873022 0.452407
v -3.682708 5.873022 0.452407
v 3.654499 -4.358683 0.904265
v 6.980122 -4.358683 0.904265
v 3.654499 -5.748108 0.904265
v 6.980122 -5.748108 0.904265
v 5.226655 -0.758828 0.904264
v 7.050303 -0.758828 0.904264
v 5.226655 -3.177875 0.904264
v 7.050303 -3.177875 0.904264
v 1.651151 -3.759126 0.904264
v 2.896783 -3.759126 0.904264
v 1.651151 -5.616250 0.904264
v 2.896783 -5.616250 0.904264
v -1.286443 -4.379704 0.904264
v 0.754591 -4.379704 0.904264
v -1.286443 -5.733584 0.904264
v 0.754591 -5.733584 0.904264
v -2.254237 -2.556723 0.904265
v 0.664166 -2.556723 0.904265
v -2.254237 -3.136666 0.904265
v 0.664165 -3.136666 0.904265
vt 0.248546 0.908291
vt 0.220163 0.908291
vt 0.248546 0.935594
vt 0.220163 0.935594
vt 0.248546 0.908291
vt 0.220163 0.908291
vt 0.248546 0.908291
vt 0.220163 0.908291
vt 0.248546 0.908291
vt 0.220163 0.908291
vt 0.220163 0.908291
vt 0.248546 0.908291
vt 0.248546 0.908291
vt 0.220163 0.908291
vt 0.220163 0.935594
vt 0.248546 0.935594
vt 0.248546 0.908291
vt 0.220163 0.908291
vt 0.248546 0.908291
vt 0.220163 0.908291
vt 0.220163 0.908291
vt 0.248546 0.908291
vt 0.248546 0.935594
vt 0.220163 0.935594
vt 0.248546 0.935594
vt 0.220163 0.935594
vt 0.248546 0.935594
vt 0.220163 0.935594
vt 0.248546 0.935594
vt 0.220163 0.935594
vt 0.220163 0.908291
vt 0.248546 0.908291
vt 0.248546 0.935594
vt 0.220163 0.935594
vt 0.248546 0.935594
vt 0.220163 0.935594
vt 0.220163 0.921942
vt 0.248546 0.921942
vt 0.220163 0.921942
vt 0.248546 0.921942
vt 0.220163 0.908291
vt 0.220163 0.935594
vt 0.248546 0.935594
vt 0.248546 0.908291
vt 0.220163 0.908291
vt 0.248546 0.908291
vt 0.248546 0.935594
vt 0.220163 0.935594
vt 0.222316 0.703486
vt 0.187842 0.703600
vt 0.187842 0.689833
vt 0.222316 0.689833
vt 0.206576 0.685969
vt 0.187890 0.686037
vt 0.187890 0.661096
vt 0.206576 0.661096
vt 0.226760 0.685984
vt 0.209199 0.686051
vt 0.209199 0.660277
vt 0.226760 0.660277
vt 0.245858 0.717099
vt 0.225934 0.717166
vt 0.225934 0.703576
vt 0.245858 0.703576
vt 0.248114 0.701987
vt 0.223678 0.702054
vt 0.223678 0.694402
vt 0.248114 0.694402
vn 0.000000 0.000000 -1.000000
vn 0.000000 0.000000 -1.000000
vn 0.000000 0.000000 -1.000000
vn 0.000000 0.000000 -1.000000
vn 0.000000 0.000000 -1.000000
vn 0.000000 0.000000 -1.000000
vn 0.000000 0.000000 -1.000000
vn 0.000000 0.000000 -1.000000
vn 0.000000 0.000000 -1.000000
vn 0.000000 0.000000 -1.000000
vn 0.000000 0.000000 1.000000
vn 0.000000 0.000000 1.000000
vn 0.000000 0.000000 1.000000
vn 0.000000 0.000000 1.000000
vn 0.000000 0.000000 1.000000
vn 0.000000 0.000000 1.000000
vn 0.000000 0.000000 1.000000
vn 0.000000 0.000000 1.000000
vn 0.000000 0.000000 1.000000
vn 0.000000 0.000000 1.000000
vn 0.000000 0.000000 1.000000
vn 0.000000 0.000000 1.000000
vn 0.000000 0.000000 1.000000
vn 0.000000 0.000000 1.000000
vn 0.000000 0.000000 -1.000000
vn 0.000000 0.000000 -1.000000
vn 0.000000 0.000000 -1.000000
vn 0.000000 0.000000 -1.000000
vn 0.000000 0.000000 -1.000000
vn 0.000000 0.000000 -1.000000
vn 0.000000 0.000000 -1.000000
vn 0.000000 0.000000 -1.000000
vn 0.000000 0.000000 1.000000
vn 0.000000 0.000000 1.000000
vn 0.000000 0.000000 1.000000
vn 0.000000 0.000000 1.000000
vn 0.000000 0.000000 1.000000
vn 0.000000 0.000000 1.000000
vn 0.000000 0.000000 1.000000
vn 0.000000 0.000000 1.000000
vn 0.000000 0.000000 1.000000
vn 0.000000 0.000000 1.000000
vn 0.000000 0.000000 1.000000
vn 0.000000 0.000000 1.000000
vn 0.000000 0.000000 1.000000
vn 0.000000 0.000000 1.000000
vn 0.000000 0.000000 1.000000
vn 0.000000 0.000000 1.000000
vn 0.000000 0.000000 1.000000
vn 0.000000 0.000000 1.000000
vn 0.000000 0.000000 1.000000
vn 0.000000 0.000000 1.000000
vn 0.000000 0.000000 1.000000
vn 0.000000 0.000000 1.000000
vn 0.000000 0.000000 1.000000
vn 0.000000 0.000000 1.000000
f 1/21/1 2/22/2 5/23/3 6/24/4
f 6/6/4 5/5/3 7/25/5 8/26/6
f 8/8/6 7/7/5 9/27/7 10/28/8
f 10/10/8 9/9/7 3/3/9 4/4/10
f 11/11/11 12/12/12 15/29/13 16/30/14
f 16/14/14 15/13/13 17/33/15 18/34/16
f 18/18/16 17/17/15 19/35/17 20/36/18
f 20/20/18 19/19/17 13/16/19 14/15/20
f 13/32/21 22/38/22 21/37/23 14/31/24
f 2/2/25 1/1/26 24/40/27 23/39/28
f 25/41/29 28/42/30 27/43/31 26/44/32
f 29/45/33 30/46/34 31/47/35 32/48/36
f 34/49/37 33/50/38 35/51/39 36/52/40
f 38/53/41 37/54/42 39/55/43 40/56/44
f 42/57/45 41/58/46 43/59/47 44/60/48
f 46/61/49 45/62/50 47/63/51 48/64/52
f 50/65/53 49/66/54 51/67/55 52/68/56
