# This file uses meters as units for non-parametric coordinates.

v -23.802389 2.649386 -23.952003
v -23.802389 1.172110 -23.952003
v -20.865547 2.649386 -23.952003
v -20.865547 1.172110 -23.952003
v -27.538757 2.649386 -23.952003
v -27.538757 1.172110 -23.952003
v -24.601915 2.649386 -23.952003
v -24.601915 1.172110 -23.952003
v -12.802343 5.089602 -23.952003
v 21.504112 5.089602 -23.952003
v 21.504112 0.775434 -23.952003
v -12.802343 0.775434 -23.952003
v 4.350885 5.089602 -23.952003
v 4.350885 0.775434 -23.952003
v 12.927500 5.089602 -23.952003
v 12.927500 0.775434 -23.952003
v -4.225729 5.089602 -23.952003
v -4.225729 0.775434 -23.952003
v 1.018446 14.363472 -11.963534
v 1.018446 14.895235 0.000001
v 1.018446 14.363472 11.963534
v -1.018446 14.363472 -11.963534
v -1.018446 14.895235 0.000001
v -1.018446 14.363472 11.963534
v 1.018446 12.279904 -18.538324
v -1.018446 12.279904 -18.538324
v 30.617439 8.322630 22.688597
v 30.617439 8.322630 19.768799
v 29.754980 8.322630 19.768799
v 29.754980 8.322630 22.688597
v 28.434830 8.322630 20.676163
v 26.821978 8.322630 20.676163
v 26.821978 8.322630 21.781233
v 28.434830 8.322630 21.781233
v 15.246134 8.322628 21.593021
v 16.352362 8.322628 21.593021
v 16.352362 8.322628 20.245647
v 15.246134 8.322628 20.245647
v 16.846718 10.565598 17.924553
v 14.751777 10.565598 17.924553
v 14.751777 8.293751 17.924553
v 16.846718 8.293751 17.924553
v 31.635687 8.288406 0.000001
v 31.635687 2.630288 0.000001
v 31.635687 3.162051 -11.963534
v 31.635687 8.288406 -11.963534
v 31.635687 8.288406 11.963534
v 31.635687 3.162051 11.963534
v 31.635687 14.036719 0.000001
v 31.635687 13.504956 -11.963534
v 31.635687 13.504956 11.963534
v 31.635687 13.770838 5.981768
v 31.635687 8.288406 5.981768
v 31.635687 2.896169 5.981768
v 31.635687 13.770838 -5.981767
v 31.635687 8.288406 -5.981767
v 31.635687 2.896169 -5.981767
v -31.635689 8.288406 0.000001
v -31.635689 2.630288 0.000001
v -31.635689 3.162051 -11.963534
v -31.635689 8.288406 -11.963534
v -31.635689 8.288406 11.963534
v -31.635689 3.162051 11.963534
v -31.635689 14.036719 0.000001
v -31.635689 13.504956 -11.963534
v -31.635689 13.504956 11.963534
v -31.635689 13.770838 5.981768
v -31.635689 8.288406 5.981768
v -31.635689 2.896169 5.981768
v -31.635689 13.770838 -5.981767
v -31.635689 8.288406 -5.981767
v -31.635689 2.896169 -5.981767
vt 0.270243 0.843103
vt 0.270243 0.833204
vt 0.251099 0.843103
vt 0.251099 0.833204
vt 0.270243 0.832920
vt 0.251099 0.832920
vt 0.251099 0.823021
vt 0.270243 0.823021
vt 0.140890 0.642659
vt 0.140890 0.653533
vt 0.109196 0.653533
vt 0.109196 0.642659
vt 0.140890 0.642659
vt 0.140890 0.653533
vt 0.109196 0.653533
vt 0.109196 0.642659
vt 0.140890 0.642659
vt 0.140890 0.653533
vt 0.109196 0.653533
vt 0.109196 0.642659
vt 0.140890 0.642659
vt 0.140890 0.653533
vt 0.109196 0.653533
vt 0.109196 0.642659
vt 0.261715 0.718470
vt 0.250076 0.718470
vt 0.250076 0.709229
vt 0.261715 0.709229
vt 0.282036 0.718470
vt 0.282036 0.709229
vt 0.311833 0.718470
vt 0.311833 0.709229
vt 0.308248 0.727096
vt 0.283463 0.727096
vt 0.283463 0.720865
vt 0.308248 0.720865
vt 0.311688 0.745355
vt 0.294842 0.745355
vt 0.294842 0.733302
vt 0.311688 0.733302
vt 0.293032 0.746811
vt 0.282669 0.746811
vt 0.282669 0.733302
vt 0.293032 0.733302
vt 0.285264 0.811406
vt 0.252708 0.811406
vt 0.252708 0.783623
vt 0.285264 0.783623
vt 0.219596 0.908402
vt 0.248533 0.908402
vt 0.248533 0.935767
vt 0.219596 0.935767
vt 0.219596 0.908402
vt 0.248533 0.908402
vt 0.248533 0.935767
vt 0.219596 0.935767
vt 0.219596 0.908402
vt 0.248533 0.908402
vt 0.248533 0.935767
vt 0.219596 0.935767
vt 0.219596 0.908402
vt 0.248533 0.908402
vt 0.248533 0.935767
vt 0.219596 0.935767
vt 0.219596 0.908402
vt 0.248533 0.908402
vt 0.248533 0.935767
vt 0.219596 0.935767
vt 0.219596 0.908402
vt 0.248533 0.908402
vt 0.248533 0.935767
vt 0.219596 0.935767
vt 0.219596 0.908402
vt 0.248533 0.908402
vt 0.248533 0.935767
vt 0.219596 0.935767
vt 0.219596 0.908402
vt 0.248533 0.908402
vt 0.248533 0.935767
vt 0.219596 0.935767
vt 0.219596 0.908402
vt 0.219596 0.935767
vt 0.248533 0.935767
vt 0.248533 0.908402
vt 0.219596 0.908402
vt 0.219596 0.935767
vt 0.248533 0.935767
vt 0.248533 0.908402
vt 0.219596 0.908402
vt 0.219596 0.935767
vt 0.248533 0.935767
vt 0.248533 0.908402
vt 0.219596 0.908402
vt 0.219596 0.935767
vt 0.248533 0.935767
vt 0.248533 0.908402
vt 0.219596 0.908402
vt 0.219596 0.935767
vt 0.248533 0.935767
vt 0.248533 0.908402
vt 0.219596 0.908402
vt 0.219596 0.935767
vt 0.248533 0.935767
vt 0.248533 0.908402
vt 0.219596 0.908402
vt 0.219596 0.935767
vt 0.248533 0.935767
vt 0.248533 0.908402
vt 0.219596 0.908402
vt 0.219596 0.935767
vt 0.248533 0.935767
vt 0.248533 0.908402
vn 0.000000 0.000000 -1.000000
vn 0.000000 0.000000 -1.000000
vn 0.000000 0.000000 -1.000000
vn 0.000000 0.000000 -1.000000
vn 0.000000 0.000000 -1.000000
vn 0.000000 0.000000 -1.000000
vn 0.000000 0.000000 -1.000000
vn 0.000000 0.000000 -1.000000
vn 0.000000 0.000000 -1.000000
vn 0.000000 0.000000 -1.000000
vn 0.000000 0.000000 -1.000000
vn 0.000000 0.000000 -1.000000
vn 0.000000 0.000000 -1.000000
vn 0.000000 0.000000 -1.000000
vn 0.000000 0.000000 -1.000000
vn 0.000000 0.000000 -1.000000
vn 0.000000 0.000000 -1.000000
vn 0.000000 0.000000 -1.000000
vn 0.000000 0.990195 -0.139694
vn 0.000000 0.953278 -0.302096
vn 0.000000 0.953278 -0.302096
vn 0.000000 0.990195 -0.139694
vn 0.000000 1.000000 0.000000
vn 0.000000 1.000000 0.000000
vn 0.000000 0.999014 0.044405
vn 0.000000 0.999014 0.044405
vn 0.000000 1.000000 0.000000
vn 0.000000 1.000000 0.000000
vn 0.000000 1.000000 0.000000
vn 0.000000 1.000000 0.000000
vn 0.000000 1.000000 0.000000
vn 0.000000 1.000000 0.000000
vn 0.000000 1.000000 0.000000
vn 0.000000 1.000000 0.000000
vn 0.000000 1.000000 0.000000
vn 0.000000 1.000000 0.000000
vn 0.000000 1.000000 0.000000
vn 0.000000 1.000000 0.000000
vn 0.000000 0.000000 1.000000
vn 0.000000 0.000000 1.000000
vn 0.000000 0.000000 1.000000
vn 0.000000 0.000000 1.000000
vn 1.000000 0.000000 0.000000
vn 1.000000 0.000000 0.000000
vn 1.000000 0.000000 0.000000
vn 1.000000 0.000000 0.000000
vn 1.000000 0.000000 0.000000
vn 1.000000 0.000000 0.000000
vn 1.000000 0.000000 0.000000
vn 1.000000 0.000000 0.000000
vn 1.000000 0.000000 0.000000
vn 1.000000 0.000000 0.000000
vn 1.000000 0.000000 0.000000
vn 1.000000 0.000000 0.000000
vn 1.000000 0.000000 0.000000
vn 1.000000 0.000000 0.000000
vn 1.000000 0.000000 0.000000
vn -1.000000 0.000000 0.000000
vn -1.000000 0.000000 0.000000
vn -1.000000 0.000000 0.000000
vn -1.000000 0.000000 0.000000
vn -1.000000 0.000000 0.000000
vn -1.000000 0.000000 0.000000
vn -1.000000 0.000000 0.000000
vn -1.000000 0.000000 0.000000
vn -1.000000 0.000000 0.000000
vn -1.000000 0.000000 0.000000
vn -1.000000 0.000000 0.000000
vn -1.000000 0.000000 0.000000
vn -1.000000 0.000000 0.000000
vn -1.000000 0.000000 0.000000
vn -1.000000 0.000000 0.000000
f 1/1/1 3/3/2 4/4/3 2/2/4
f 5/5/5 7/6/6 8/7/7 6/8/8
f 9/9/9 17/10/10 18/11/11 12/12/12
f 13/13/13 15/14/14 16/15/15 14/16/16
f 15/17/14 10/18/17 11/19/18 16/20/15
f 17/21/10 13/22/13 14/23/16 18/24/11
f 19/25/19 25/26/20 26/27/21 22/28/22
f 20/29/23 19/25/19 22/28/22 23/30/24
f 21/31/25 20/29/23 23/30/24 24/32/26
f 27/33/27 28/34/28 29/35/29 30/36/30
f 31/37/31 32/38/32 33/39/33 34/40/34
f 35/41/35 36/42/36 37/43/37 38/44/38
f 39/45/39 40/46/40 41/47/41 42/48/42
f 56/49/43 57/50/44 45/51/45 46/52/46
f 53/53/47 54/54/48 44/55/49 43/56/50
f 55/57/51 56/58/43 46/59/46 50/60/52
f 52/61/53 53/62/47 43/63/50 49/64/54
f 51/65/55 47/66/56 53/67/47 52/68/53
f 47/69/56 48/70/57 54/71/48 53/72/47
f 49/73/54 43/74/50 56/75/43 55/76/51
f 43/77/50 44/78/49 57/79/44 56/80/43
f 71/81/58 61/82/59 60/83/60 72/84/61
f 68/85/62 58/86/63 59/87/64 69/88/65
f 70/89/66 65/90/67 61/91/59 71/92/58
f 67/93/68 64/94/69 58/95/63 68/96/62
f 66/97/70 67/98/68 68/99/62 62/100/71
f 62/101/71 68/102/62 69/103/65 63/104/72
f 64/105/69 70/106/66 71/107/58 58/108/63
f 58/109/63 71/110/58 72/111/61 59/112/64
