# This file uses meters as units for non-parametric coordinates.

v -19.653754 0.971418 16.663056
v -19.653754 9.810439 16.663056
v -19.653630 9.810439 -16.663056
v -19.653754 0.971418 -16.663056
v 19.653754 9.810439 -16.663056
v 19.653754 9.810439 -13.330445
v 19.653754 0.971418 -13.330445
v 19.653754 0.971418 -16.663056
v -19.653754 9.810439 13.330445
v -19.653754 0.971418 13.330445
v 19.653754 9.810439 16.663056
v 19.653754 9.810439 13.330445
v 9.636669 9.810439 0.000000
v 19.653754 0.971418 16.663056
v -0.000001 9.810439 -11.860860
v -6.522275 9.810439 -16.663056
v -9.636670 9.810439 -0.000000
v -6.522275 9.810439 16.663056
v -0.000001 9.810439 11.860860
v -6.522275 0.971418 -16.663056
v 6.522273 9.810439 16.663056
v 6.522273 0.971418 16.663056
v -19.653754 9.810439 -13.330445
v -19.653754 0.971418 -13.330445
v 19.653754 0.971418 13.330445
v -6.522275 0.971418 16.663056
v 6.522273 9.810439 -16.663056
v 6.522273 0.971418 -16.663056
v -20.218989 0.971418 17.228292
v -20.218989 10.375670 17.228292
v -20.218989 10.375670 -17.228292
v -20.218989 0.971418 -17.228292
v 20.218989 10.375670 -13.330445
v 20.218989 10.375670 -17.228292
v 20.218989 0.971418 -13.330445
v 20.218989 0.971418 -17.228292
v -20.218989 10.375670 13.330445
v -20.218989 0.971418 13.330445
v 20.218989 10.375670 17.228292
v 20.218989 10.375670 13.330445
v 9.636669 10.375670 0.000000
v 20.218989 0.971418 17.228292
v -0.000001 10.375670 -11.860860
v -6.522275 10.375670 -17.228292
v -9.636670 10.375670 -0.000000
v -6.522275 10.375670 17.228292
v -0.000001 10.375670 11.860860
v -6.522275 0.971418 -17.228292
v 6.522273 10.375670 17.228292
v 6.522273 0.971418 17.228292
v -20.218989 10.375670 -13.330445
v -20.218989 0.971418 -13.330445
v 20.218989 0.971418 13.330445
v -6.522275 0.971418 17.228292
v 6.522273 10.375670 -17.228292
v 6.522273 0.971418 -17.228292
v -0.000001 10.375670 0.000000
vt 0.411030 0.790510
vt 0.411041 0.790316
vt 0.425859 0.790339
vt 0.425849 0.790533
vt 0.411163 0.791286
vt 0.411150 0.791103
vt 0.425963 0.790789
vt 0.425976 0.790973
vt 0.410654 0.790716
vt 0.410638 0.793704
vt 0.410626 0.793888
vt 0.410642 0.790900
vt 0.411026 0.793674
vt 0.411036 0.793479
vt 0.410764 0.790868
vt 0.425721 0.790682
vt 0.425709 0.790487
vt 0.410751 0.790673
vt 0.422105 0.804509
vt 0.411196 0.794090
vt 0.411208 0.794273
vt 0.410787 0.793836
vt 0.410800 0.794031
vt 0.422123 0.804709
vt 0.425598 0.791050
vt 0.425609 0.790867
vt 0.411114 0.791165
vt 0.411103 0.791338
vt 0.411089 0.793892
vt 0.411100 0.793720
vt 0.411499 0.790775
vt 0.411495 0.793480
vt 0.411485 0.793663
vt 0.411489 0.790958
vt 0.425606 0.791311
vt 0.425595 0.791484
vt 0.411231 0.791309
vt 0.411220 0.791126
vt 0.425714 0.790946
vt 0.425726 0.791129
vt 0.422105 0.804497
vt 0.411655 0.794091
vt 0.411616 0.791537
vt 0.425970 0.791233
vt 0.427621 0.794880
vt 0.427438 0.794880
vt 0.425849 0.790980
vt 0.425982 0.791406
vt 0.411628 0.791710
vt 0.411667 0.794264
vt 0.422122 0.804698
vt 0.411262 0.794013
vt 0.411251 0.793831
vt 0.425858 0.790797
vt 0.427620 0.794869
vt 0.427438 0.794891
vt 0.427423 0.804517
vn 0.000000 0.000000 1.000000
vn 0.000000 0.000000 1.000000
vn 0.000000 0.000000 1.000000
vn 0.000000 0.000000 1.000000
vn 0.000000 0.000000 -1.000000
vn 0.000000 0.000000 -1.000000
vn 0.000000 0.000000 -1.000000
vn 0.000000 0.000000 -1.000000
vn 1.000000 0.000000 0.000000
vn 1.000000 0.000000 0.000000
vn 1.000000 0.000000 0.000000
vn 1.000000 0.000000 0.000000
vn -1.000000 0.000000 0.000000
vn -1.000000 0.000000 0.000000
vn -1.000000 0.000000 0.000000
vn -1.000000 0.000000 0.000000
vn 0.000000 0.000000 1.000000
vn 0.000000 0.000000 1.000000
vn 0.000000 0.000000 1.000000
vn 0.000000 0.000000 1.000000
vn 0.000000 1.000000 -0.000000
vn 0.000000 1.000000 -0.000000
vn 0.000000 1.000000 -0.000000
vn 0.000000 1.000000 -0.000000
vn 0.000000 1.000000 0.000000
vn 0.000000 1.000000 0.000000
vn 0.000000 1.000000 0.000000
vn -1.000000 0.000000 0.000000
vn -1.000000 0.000000 0.000000
vn -1.000000 0.000000 0.000000
vn -1.000000 0.000000 0.000000
vn 1.000000 0.000000 0.000000
vn 1.000000 0.000000 0.000000
vn 1.000000 0.000000 0.000000
vn 1.000000 0.000000 0.000000
vn 0.000000 1.000000 0.000000
vn 0.000000 1.000000 -0.000000
vn 0.000000 1.000000 -0.000000
vn 0.000000 1.000000 -0.000000
vn 0.000000 0.000000 -1.000000
vn 0.000000 0.000000 -1.000000
vn 0.000000 0.000000 -1.000000
vn 0.000000 0.000000 -1.000000
vn -1.000000 0.000000 0.000000
vn -1.000000 0.000000 0.000000
vn -1.000000 0.000000 0.000000
vn -1.000000 0.000000 0.000000
vn 1.000000 0.000000 0.000000
vn 1.000000 0.000000 0.000000
vn 1.000000 0.000000 0.000000
vn 1.000000 0.000000 0.000000
vn 0.000000 0.000000 1.000000
vn 0.000000 0.000000 1.000000
vn 0.000000 0.000000 1.000000
vn 0.000000 0.000000 1.000000
vn 0.000000 0.000000 -1.000000
vn 0.000000 0.000000 -1.000000
vn 0.000000 0.000000 -1.000000
vn 0.000000 0.000000 -1.000000
vn 0.000000 -1.000000 0.000000
vn 0.000000 -1.000000 0.000000
vn 0.000000 -1.000000 0.000000
vn 0.000000 -1.000000 0.000000
vn 0.000000 -1.000000 0.000000
vn 0.000000 -1.000000 0.000000
vn 0.000000 -1.000000 0.000000
vn 0.000000 -1.000000 0.000000
vn 0.000000 -1.000000 0.000000
vn 0.000000 0.000000 1.000000
vn 0.000000 0.000000 1.000000
vn 0.000000 0.000000 1.000000
vn 0.000000 0.000000 1.000000
vn 1.000000 -0.000007 0.000019
vn 1.000000 -0.000007 0.000019
vn 1.000000 -0.000007 0.000019
vn 1.000000 -0.000007 0.000019
vn 0.000000 -1.000000 0.000000
vn 0.000000 -1.000000 0.000000
vn 0.000000 -1.000000 0.000000
vn 0.000000 -1.000000 0.000000
vn 0.000000 -1.000000 0.000000
vn 0.000000 -1.000000 0.000000
vn 0.000000 -1.000000 0.000000
vn -1.000000 0.000000 0.000000
vn -1.000000 0.000000 0.000000
vn -1.000000 0.000000 0.000000
vn -1.000000 0.000000 0.000000
vn 0.000000 0.000000 -1.000000
vn 0.000000 0.000000 -1.000000
vn 0.000000 0.000000 -1.000000
vn 0.000000 0.000000 -1.000000
vn 0.000000 -1.000000 0.000001
vn 0.000000 -1.000000 0.000001
vn 0.000000 -1.000000 0.000001
vn 0.000000 -1.000000 0.000001
vn 0.000001 0.000000 1.000000
vn 0.000001 0.000000 1.000000
vn 0.000001 0.000000 1.000000
vn 0.000001 0.000000 1.000000
vn 0.000000 -1.000000 0.000000
vn 0.000000 -1.000000 -0.000001
vn 0.000000 -1.000000 -0.000001
vn 0.000000 -1.000000 0.000000
vn -0.000001 0.000000 -1.000000
vn -0.000001 0.000000 -1.000000
vn -0.000001 0.000000 -1.000000
vn -0.000001 0.000000 -1.000000
vn 0.000000 -1.000000 0.000000
vn 0.000000 -1.000000 0.000000
vn 0.735814 -0.367912 -0.568523
vn 0.735814 -0.367912 -0.568523
vn 0.735814 -0.367912 -0.568523
vn 0.735814 -0.367912 -0.568523
vn 0.000000 -1.000000 -0.000001
vn 0.000000 -1.000000 -0.000001
vn 0.571975 -0.366839 -0.733671
vn 0.942574 -0.149369 -0.298735
vn 0.667227 -0.333112 -0.666216
vn 0.571975 -0.366839 -0.733671
vn 0.942574 -0.149369 0.298735
vn 0.571976 -0.366839 0.733671
vn 0.571976 -0.366839 0.733671
vn 0.667227 -0.333112 0.666216
vn 1.000000 0.000000 0.000000
vn 1.000000 0.000000 0.000000
vn 0.000000 -1.000000 -0.000001
vn 0.000000 -1.000000 -0.000001
vn 0.000000 -1.000000 -0.000001
vn 0.000000 -1.000000 -0.000001
vn -0.942574 -0.149369 0.298735
vn -1.000000 0.000000 0.000000
vn -1.000000 0.000000 0.000000
vn -0.667227 -0.333112 0.666216
vn 0.000000 -1.000000 0.000001
vn 0.000000 -1.000000 0.000001
vn 0.000000 -1.000000 0.000001
vn 0.000000 -1.000000 0.000001
vn -0.735815 -0.367910 -0.568524
vn -0.735815 -0.367910 -0.568524
vn -0.735815 -0.367910 -0.568524
vn -0.735815 -0.367910 -0.568524
vn -0.735815 -0.367910 0.568523
vn -0.735815 -0.367910 0.568523
vn -0.735815 -0.367910 0.568523
vn -0.735815 -0.367910 0.568523
vn 0.000000 0.000000 1.000000
vn 0.000000 0.000000 1.000000
vn 0.000000 0.000000 1.000000
vn 0.000000 0.000000 1.000000
vn 0.000000 -1.000000 0.000000
vn 0.000000 -1.000000 0.000000
vn 0.735814 -0.367911 0.568523
vn 0.735814 -0.367912 0.568523
vn 0.735814 -0.367912 0.568523
vn 0.735814 -0.367911 0.568523
vn 0.000000 -1.000000 0.000000
vn 0.000000 -1.000000 0.000000
vn 0.000000 0.000000 -1.000000
vn 0.000000 0.000000 -1.000000
vn 0.000000 0.000000 -1.000000
vn 0.000000 0.000000 -1.000000
vn 1.000000 0.000000 0.000000
vn 1.000000 0.000000 0.000000
vn -0.942574 -0.149369 -0.298735
vn -0.571975 -0.366839 -0.733671
vn -0.571975 -0.366839 -0.733671
vn -0.667227 -0.333112 -0.666216
vn -0.571975 -0.366839 0.733671
vn -0.571975 -0.366839 0.733671
vn -1.000000 0.000000 0.000000
vn -1.000000 0.000000 0.000000
vn 0.000000 1.000000 0.000000
vn 0.000000 1.000000 -0.000000
vn 0.000000 1.000000 -0.000000
vn 0.000000 1.000000 0.000000
vn 0.000000 1.000000 0.000000
vn 0.000000 1.000000 0.000000
f 30/1/1 29/2/2 54/3/3 46/4/4
f 32/5/5 31/6/6 44/7/7 48/8/8
f 34/9/9 33/10/10 35/11/11 36/12/12
f 29/2/13 30/1/14 37/13/15 38/14/16
f 39/15/17 49/16/18 50/17/19 42/18/20
f 45/19/21 37/13/22 30/1/23 46/4/24
f 44/7/25 31/6/26 51/20/27 45/19/21
f 52/21/28 51/20/29 31/6/30 32/5/31
f 39/15/32 42/18/33 53/22/34 40/23/35
f 41/24/36 49/16/37 39/15/38 40/23/39
f 36/12/40 56/25/41 55/26/42 34/9/43
f 5/27/44 8/28/45 7/29/46 6/30/47
f 1/31/48 10/32/49 9/33/50 2/34/51
f 8/28/52 5/27/53 27/35/54 28/36/55
f 11/37/56 14/38/57 22/39/58 21/40/59
f 17/41/60 23/42/61 3/43/62 16/44/63 15/45/64 19/46/65 18/47/66 2/34/67 9/33/68
f 20/48/69 16/44/70 3/43/71 4/49/72
f 24/50/73 4/49/74 3/43/75 23/42/76
f 5/27/77 6/30/78 13/51/79 12/52/80 11/37/81 21/40/82 19/46/65 15/45/64 27/35/83
f 11/37/84 12/52/85 25/53/86 14/38/87
f 2/34/88 18/47/89 26/54/90 1/31/91
f 29/2/92 1/31/93 26/54/94 54/3/95
f 6/30/96 7/29/97 35/11/98 33/10/99
f 7/29/100 8/28/101 36/12/102 35/11/103
f 9/33/104 10/32/105 38/14/106 37/13/107
f 10/32/108 1/31/93 29/2/92 38/14/109
f 12/52/110 13/51/111 41/24/112 40/23/113
f 36/12/102 8/28/101 28/36/114 56/25/115
f 15/45/116 16/44/117 44/7/118 43/55/119
f 18/47/120 19/46/121 47/56/122 46/4/123
f 16/44/117 20/48/124 48/8/125 44/7/118
f 32/5/126 48/8/127 20/48/128 4/49/129
f 21/40/130 22/39/131 50/17/132 49/16/133
f 42/18/134 50/17/135 22/39/136 14/38/137
f 17/41/138 9/33/139 37/13/140 45/19/141
f 23/42/142 17/41/143 45/19/144 51/20/145
f 24/50/146 23/42/147 51/20/148 52/21/149
f 4/49/129 24/50/150 52/21/151 32/5/126
f 13/51/152 6/30/153 33/10/154 41/24/155
f 14/38/137 25/53/156 53/22/157 42/18/134
f 25/53/158 12/52/159 40/23/160 53/22/161
f 26/54/162 18/47/120 46/4/123 54/3/163
f 27/35/164 15/45/165 43/55/166 55/26/167
f 19/46/168 21/40/130 49/16/133 47/56/169
f 28/36/170 27/35/164 55/26/167 56/25/171
f 41/24/36 55/26/172 43/55/173 57/57/174
f 34/9/175 55/26/172 41/24/36 33/10/176
f 41/24/36 57/57/174 47/56/177 49/16/37
f 45/19/21 46/4/24 47/56/177 57/57/174
f 44/7/25 45/19/21 57/57/174 43/55/173
