# This file uses meters as units for non-parametric coordinates.

v 3.494580 3.080280 -2.693281
v 3.494580 3.080280 -1.421389
v 4.661850 3.080281 -1.421389
v 4.661850 3.080281 -2.693281
v 4.463728 3.080280 -4.885612
v 4.463728 3.080280 -2.244308
v 6.887757 3.080281 -2.244308
v 6.887757 3.080281 -4.885612
v -1.873311 2.864164 -5.500982
v -1.873312 2.864164 -4.087471
v 1.873312 2.864165 -4.087471
v 1.873311 2.864165 -5.500982
v -0.350229 2.864164 -2.660114
v -0.350229 2.864164 -2.028456
v 0.350229 2.864165 -2.028456
v 0.350229 2.864165 -2.660114
vt 0.231430 0.762750
vt 0.220666 0.762750
vt 0.220666 0.751138
vt 0.231430 0.751138
vt 0.094612 0.655952
vt 0.079911 0.655952
vt 0.079911 0.640092
vt 0.094612 0.640092
vt 0.095855 0.615304
vt 0.066892 0.615304
vt 0.066892 0.605493
vt 0.095855 0.605493
vt 0.186269 0.811341
vt 0.173269 0.811341
vt 0.173269 0.799079
vt 0.186269 0.799079
vn -0.000000 1.000000 0.000000
vn -0.000000 1.000000 0.000000
vn -0.000000 1.000000 0.000000
vn -0.000000 1.000000 0.000000
vn -0.000000 1.000000 0.000000
vn -0.000000 1.000000 0.000000
vn -0.000000 1.000000 0.000000
vn -0.000000 1.000000 0.000000
vn -0.000000 1.000000 0.000000
vn -0.000000 1.000000 0.000000
vn -0.000000 1.000000 0.000000
vn -0.000000 1.000000 0.000000
vn -0.000000 1.000000 0.000000
vn -0.000000 1.000000 0.000000
vn -0.000000 1.000000 0.000000
vn -0.000000 1.000000 0.000000
f 4/1/1 1/2/2 2/3/3 3/4/4
f 8/5/5 5/6/6 6/7/7 7/8/8
f 12/9/9 9/10/10 10/11/11 11/12/12
f 16/13/13 13/14/14 14/15/15 15/16/16
