# This file uses meters as units for non-parametric coordinates.

v -31.598499 6.109137 23.927069
v 31.598499 6.109137 23.927069
v -31.598499 10.467677 23.927069
v -31.598499 10.467677 -23.927069
v 31.598499 10.467677 -23.927069
v -31.598499 6.109137 -23.927069
v 31.598499 6.109137 -23.927069
v 31.598499 14.258951 -11.963534
v -31.598499 14.258951 -11.963534
v -31.598499 2.317862 -11.963534
v 31.598499 2.317862 -11.963534
v 31.598499 14.790714 0.000001
v -31.598499 14.790714 0.000001
v -31.598499 1.786098 0.000001
v 31.598499 1.786098 0.000001
v 31.598499 14.258951 11.963534
v -31.598499 14.258951 11.963534
v -31.598499 2.317862 11.963534
v 31.598499 2.317862 11.963534
v 31.598499 12.395638 17.843307
v -31.598499 12.395638 17.843307
v 0.000000 12.395638 17.843307
v 0.000000 10.467677 23.927069
v 0.000000 6.109137 23.927069
v 0.000000 2.317862 11.963534
v 0.000000 1.786098 0.000001
v 0.000000 2.317862 -11.963534
v 0.000000 6.109137 -23.927069
v 0.000000 10.467677 -23.927069
v 0.000000 14.258951 -11.963534
v 0.000000 14.790714 0.000001
v 0.000000 14.258951 11.963534
v 31.598499 8.288406 23.927069
v 0.000000 8.288406 23.927069
v -31.598499 8.288406 23.927069
v -31.598499 8.288406 17.843307
v -31.598499 8.288406 11.963534
v -31.598499 8.288406 0.000001
v -31.598499 8.288406 -11.963534
v -31.598499 8.288406 -23.927069
v 0.000000 8.288406 -23.927069
v 31.598499 8.288406 -23.927069
v 31.598499 8.288406 -11.963534
v 31.598499 8.288406 0.000001
v 31.598499 8.288406 11.963534
v 31.598499 8.288406 17.843307
v 0.000000 8.288406 17.843307
v 0.000000 12.812542 16.527744
v 31.598499 12.812542 16.527744
v -31.598499 12.812542 16.527744
v -31.140980 0.000000 19.575525
v 22.992931 0.000000 19.575525
v -31.140980 6.109137 19.575525
v 22.992931 6.109137 19.575525
v -31.140980 6.109137 -23.927069
v 22.992931 6.109137 -23.927069
v -31.140980 0.000000 -23.927069
v 22.992931 0.000000 -23.927069
vt 0.426322 0.799453
vt 0.415979 0.799453
vt 0.413844 0.799453
vt 0.426088 0.792038
vt 0.426088 0.808108
vt 0.412516 0.805971
vt 0.415979 0.799550
vt 0.426322 0.799550
vt 0.426322 0.803418
vt 0.415979 0.803418
vt 0.412516 0.793809
vt 0.415851 0.799453
vt 0.412812 0.792038
vt 0.413690 0.801470
vt 0.415851 0.803418
vt 0.490403 0.802488
vt 0.414953 0.802488
vt 0.414953 0.805971
vt 0.426088 0.805971
vt 0.415851 0.799550
vt 0.415851 0.803466
vt 0.412812 0.802488
vt 0.414953 0.808108
vt 0.415979 0.803466
vt 0.426322 0.803466
vt 0.412516 0.802488
vt 0.490403 0.799004
vt 0.414953 0.799004
vt 0.415851 0.807383
vt 0.412812 0.799004
vt 0.415979 0.807383
vt 0.426322 0.807383
vt 0.412516 0.799004
vt 0.490403 0.795521
vt 0.479267 0.795521
vt 0.412812 0.795521
vt 0.412516 0.795521
vt 0.490403 0.794192
vt 0.479267 0.794192
vt 0.414953 0.792038
vt 0.426088 0.792038
vt 0.492010 0.801849
vt 0.480875 0.801849
vt 0.479267 0.802488
vt 0.414953 0.805971
vt 0.479267 0.799004
vt 0.414953 0.795521
vt 0.414953 0.794192
vt 0.478345 0.801184
vt 0.414953 0.793809
vt 0.415023 0.793010
vt 0.426838 0.793010
vt 0.426838 0.804825
vt 0.415023 0.804825
vt 0.426838 0.804825
vt 0.415023 0.804825
vt 0.415023 0.793010
vt 0.426838 0.793010
vt 0.413844 0.803418
vt 0.413844 0.801470
vt 0.487779 0.801125
vt 0.487785 0.804365
vt 0.413844 0.807383
vt 0.413844 0.803466
vt 0.416013 0.796658
vt 0.426322 0.796658
vt 0.413690 0.799550
vt 0.413690 0.803466
vt 0.413690 0.807383
vt 0.413690 0.803418
vt 0.412812 0.793809
vt 0.415885 0.796525
vt 0.426322 0.796525
vt 0.414953 0.808108
vt 0.412812 0.805971
vt 0.414953 0.792038
vt 0.413844 0.799550
vt 0.415885 0.796658
vt 0.416013 0.796525
vt 0.413690 0.799453
vt 0.478351 0.804423
vt 0.482526 0.805039
vt 0.482519 0.801510
vt 0.415023 0.793010
vt 0.413647 0.806305
vt 0.426198 0.806305
vt 0.415023 0.804825
vt 0.426198 0.793753
vt 0.413647 0.793753
vt 0.479267 0.794192
vt 0.479267 0.795521
vt 0.414953 0.794192
vt 0.414953 0.795521
vt 0.490403 0.805971
vt 0.414953 0.805971
vt 0.479267 0.805971
vt 0.492010 0.800077
vt 0.414953 0.799004
vt 0.479267 0.799004
vt 0.414953 0.802488
vt 0.479267 0.802488
vt 0.414953 0.805971
vt 0.479267 0.805971
vt 0.480875 0.800077
vt 0.414953 0.792038
vt 0.414953 0.793809
vn 0.000000 0.000000 1.000000
vn 0.000000 0.000000 1.000000
vn 0.151028 0.930624 0.333360
vn 0.000000 0.681229 0.732071
vn 0.000000 0.000000 -1.000000
vn 0.000000 0.000000 -1.000000
vn 0.000000 0.000000 -1.000000
vn 0.000000 0.000000 -1.000000
vn 0.000000 -0.953278 0.302096
vn 0.000000 -0.953278 0.302096
vn 0.000000 -0.984067 0.177797
vn 0.000000 -0.984067 0.177797
vn 0.376259 0.926515 0.000000
vn 1.000000 -0.000000 0.000000
vn 1.000000 -0.000000 0.000000
vn -1.000000 0.000000 0.000000
vn -1.000000 0.000000 0.000000
vn -1.000000 0.000000 0.000000
vn -1.000000 0.000000 0.000000
vn 0.000000 0.984067 -0.177797
vn 0.000000 0.984067 -0.177797
vn 0.000000 0.953278 -0.302096
vn 0.000000 0.953278 -0.302096
vn -1.000000 0.000000 0.000000
vn -1.000000 0.000000 0.000000
vn -1.000000 0.000000 0.000000
vn -1.000000 0.000000 0.000000
vn 0.000000 -0.953278 -0.302096
vn 0.000000 -0.953278 -0.302096
vn 0.000000 -0.984067 -0.177797
vn 0.000000 -0.984067 -0.177797
vn 1.000000 0.000000 0.000000
vn 1.000000 0.000000 0.000000
vn 1.000000 0.000000 0.000000
vn 1.000000 0.000000 0.000000
vn 0.000000 1.000000 0.000000
vn 0.000000 1.000000 0.000000
vn -1.000000 0.000000 0.000000
vn -1.000000 0.000000 0.000000
vn 0.000000 -1.000000 0.000000
vn 0.000000 -1.000000 0.000000
vn 1.000000 0.000000 0.000000
vn 1.000000 0.000000 0.000000
vn 0.000000 0.992913 0.118840
vn 0.000000 0.992913 0.118840
vn -1.000000 0.000000 0.000000
vn 1.000000 0.000000 0.000000
vn 0.000000 0.953277 0.302096
vn 0.000000 0.953277 0.302096
vn 0.000000 0.953278 0.302096
vn 0.000000 0.953278 0.302096
vn 0.000000 0.953278 0.302096
vn 0.000000 0.953278 0.302096
vn 0.000000 0.000000 1.000000
vn 0.000000 0.000000 1.000000
vn 0.000000 -0.953278 0.302096
vn 0.000000 -0.984067 0.177797
vn 0.000000 -1.000000 0.000000
vn 0.000000 -0.984067 -0.177797
vn 0.000000 -0.953278 -0.302096
vn 0.000000 0.000000 -1.000000
vn 0.000000 0.000000 -1.000000
vn 0.000000 0.984067 -0.177797
vn 0.000000 0.953278 -0.302096
vn 0.000000 1.000000 0.000000
vn 0.000000 0.992913 0.118840
vn 0.000000 0.953277 0.302096
vn 0.000000 0.000000 1.000000
vn 0.000000 0.000000 1.000000
vn -1.000000 0.000000 0.000000
vn -1.000000 0.000000 0.000000
vn -1.000000 0.000000 0.000000
vn -1.000000 0.000000 0.000000
vn -1.000000 0.000000 0.000000
vn -1.000000 0.000000 0.000000
vn -1.000000 0.000000 0.000000
vn 0.000000 0.000000 -1.000000
vn 0.000000 0.000000 -1.000000
vn 0.000000 0.000000 -1.000000
vn 1.000000 0.000000 0.000000
vn 1.000000 0.000000 0.000000
vn 1.000000 0.000000 0.000000
vn 1.000000 0.000000 0.000000
vn 1.000000 0.000000 0.000000
vn 0.000000 1.000000 0.000000
vn 1.000000 0.000000 0.000000
vn 1.000000 0.000000 0.000000
vn 1.000000 0.000000 0.000000
vn 1.000000 0.000000 0.000000
vn 1.000000 0.000000 0.000000
vn 0.000000 0.000000 1.000000
vn 0.000000 0.000000 1.000000
vn 0.000000 0.000000 1.000000
vn 0.000000 0.000000 1.000000
vn 0.000000 0.000000 -1.000000
vn 0.000000 0.000000 -1.000000
vn 0.000000 0.000000 -1.000000
vn 0.000000 0.000000 -1.000000
vn 0.000000 -1.000000 0.000000
vn 0.000000 -1.000000 0.000000
vn 0.000000 -1.000000 0.000000
vn 0.000000 -1.000000 0.000000
vn 1.000000 0.000000 0.000000
vn 1.000000 0.000000 0.000000
vn 1.000000 0.000000 0.000000
vn 1.000000 0.000000 0.000000
vn -1.000000 0.000000 0.000000
vn -1.000000 0.000000 0.000000
vn -1.000000 0.000000 0.000000
vn -1.000000 0.000000 0.000000
f 24/1/1 2/2/2 33/79/3 34/73/4
f 41/66/5 42/65/6 7/7/7 28/8/8
f 2/2/9 24/1/10 25/9/11 19/10/12
f 46/60/13 33/3/3 2/2/14 19/10/15
f 1/12/16 35/80/17 36/14/18 18/15/19
f 30/16/20 8/101/21 5/96/22 29/94/23
f 6/20/24 10/21/25 39/68/26 40/67/27
f 28/8/28 7/7/29 11/24/30 27/25/31
f 43/64/32 11/24/33 7/7/34 42/77/35
f 31/27/36 12/99/37 8/101/21 30/16/20
f 10/21/25 14/29/38 38/69/39 39/68/26
f 27/25/31 11/24/30 15/31/40 26/32/41
f 44/63/42 15/31/43 11/24/33 43/64/32
f 32/34/44 16/35/45 12/99/37 31/27/36
f 14/29/38 18/15/19 37/70/46 38/69/39
f 26/32/41 15/31/40 19/10/12 25/9/11
f 45/59/47 19/10/15 15/31/43 44/63/42
f 32/34/44 48/38/48 49/39/49 16/35/45
f 19/10/15 45/59/47 46/60/13
f 3/104/50 23/97/51 22/42/52 21/43/53
f 1/12/54 24/1/1 34/73/4 35/72/55
f 24/1/10 1/12/56 18/15/57 25/9/11
f 14/29/58 26/32/41 25/9/11 18/15/57
f 10/21/59 27/25/31 26/32/41 14/29/58
f 6/20/60 28/8/28 27/25/31 10/21/59
f 40/78/61 41/66/5 28/8/8 6/20/62
f 9/44/63 30/16/20 29/94/23 4/103/64
f 13/46/65 31/27/36 30/16/20 9/44/63
f 17/91/66 32/34/44 31/27/36 13/46/65
f 50/90/67 48/38/48 32/34/44 17/91/66
f 35/76/55 34/4/4 23/41/68 3/105/69
f 36/71/18 35/13/17 3/40/70 21/106/71
f 50/48/72 17/47/73 37/36/46 36/71/18
f 38/30/39 37/36/46 17/47/73 13/98/74
f 39/22/26 38/30/39 13/98/74 9/100/75
f 40/75/27 39/22/26 9/100/75 4/45/76
f 4/102/77 29/19/78 41/5/5 40/23/61
f 29/19/78 5/18/79 42/74/6 41/5/5
f 8/17/80 43/26/32 42/6/35 5/95/81
f 12/28/82 44/33/42 43/26/32 8/17/80
f 16/93/83 45/37/47 44/33/42 12/28/82
f 45/37/47 16/93/83 49/92/84 46/11/13
f 34/49/4 33/61/3 46/62/13 47/81/85
f 22/82/86 23/83/87 34/49/88 47/81/89
f 20/50/90 46/11/13 49/92/84
f 50/48/72 36/71/18 21/106/71
f 37/70/46 18/15/19 36/14/18
f 51/84/91 52/52/92 54/53/93 53/87/94
f 55/55/95 56/56/96 58/57/97 57/58/98
f 57/89/99 58/88/100 52/86/101 51/85/102
f 52/52/103 58/57/104 56/56/105 54/53/106
f 57/58/107 51/51/108 53/54/109 55/55/110
