# This file uses meters as units for non-parametric coordinates.

v -8.798151 -0.031047 13.575551
v 8.790433 -0.031047 13.575551
v -8.798151 1.811732 13.575551
v -8.798151 -0.031047 3.601150
v -8.798151 1.811732 3.601150
v 8.790433 -0.031047 3.601150
vt 0.414134 0.978765
vt 0.414134 0.992750
vt 0.428119 0.978765
vt 0.414134 0.978765
vt 0.419272 0.978765
vt 0.414134 0.983903
vt 0.419272 0.992750
vt 0.428119 0.983903
vn -1.000000 0.000000 0.000000
vn -1.000000 0.000000 0.000000
vn -1.000000 0.000000 0.000000
vn -1.000000 0.000000 0.000000
vn 0.000000 -1.000000 0.000000
vn 0.000000 -1.000000 0.000000
vn 0.000000 -1.000000 0.000000
vn 0.000000 -1.000000 0.000000
f 4/5/1 1/1/2 3/2/3 5/7/4
f 4/6/5 6/8/6 2/3/7 1/4/8
