# This file uses meters as units for non-parametric coordinates.

v -13.653810 2.307944 13.648509
v -11.472672 2.307944 13.648509
v -11.472672 3.242673 13.648509
v -13.653810 3.242673 13.648509
v -7.576106 2.307944 13.648509
v -5.394967 2.307944 13.648509
v -5.394967 3.242673 13.648509
v -7.576106 3.242673 13.648509
v -7.242503 10.904808 13.389081
v -14.594188 10.904808 13.389081
v -14.594188 10.033021 13.389081
v -7.242503 10.033021 13.389081
v -10.978621 11.976028 13.389081
v -14.793000 11.976028 13.389081
v -14.793000 10.904897 13.389081
v -10.978621 10.904897 13.389081
v 5.971409 12.917210 7.599977
v 15.059349 12.917210 7.599977
v 15.059349 12.917210 -13.331018
v 5.971409 12.917210 -13.331018
v 15.059349 12.917210 -6.354019
v 5.971409 12.917210 -6.354019
v 15.059349 12.917210 0.622979
v 5.971409 12.917210 0.622979
vt 0.221341 0.771186
vt 0.233866 0.771186
vt 0.233866 0.776726
vt 0.221341 0.776726
vt 0.234611 0.771186
vt 0.247135 0.771186
vt 0.247135 0.776726
vt 0.234611 0.776726
vt 0.244646 0.768714
vt 0.188004 0.768714
vt 0.188005 0.762660
vt 0.244646 0.762660
vt 0.218233 0.779776
vt 0.188004 0.779776
vt 0.188005 0.769804
vt 0.218233 0.769804
vt 0.220348 0.908347
vt 0.248048 0.908347
vt 0.248048 0.936131
vt 0.220348 0.936131
vt 0.220348 0.908347
vt 0.248048 0.908347
vt 0.248048 0.936131
vt 0.220348 0.936131
vn 0.000000 0.000000 1.000000
vn 0.000000 0.000000 1.000000
vn 0.000000 0.000000 1.000000
vn 0.000000 0.000000 1.000000
vn 0.000000 0.000000 1.000000
vn 0.000000 0.000000 1.000000
vn 0.000000 0.000000 1.000000
vn 0.000000 0.000000 1.000000
vn 0.000000 0.000000 1.000000
vn 0.000000 0.000000 1.000000
vn 0.000000 0.000000 1.000000
vn 0.000000 0.000000 1.000000
vn 0.000000 0.000000 1.000000
vn 0.000000 0.000000 1.000000
vn 0.000000 0.000000 1.000000
vn 0.000000 0.000000 1.000000
vn 0.000000 1.000000 0.000000
vn 0.000000 1.000000 0.000000
vn 0.000000 1.000000 0.000000
vn 0.000000 1.000000 0.000000
vn 0.000000 1.000000 0.000000
vn 0.000000 1.000000 0.000000
vn 0.000000 1.000000 0.000000
vn 0.000000 1.000000 0.000000
f 1/1/1 2/2/2 3/3/3 4/4/4
f 5/5/5 6/6/6 7/7/7 8/8/8
f 9/9/9 10/10/10 11/11/11 12/12/12
f 13/13/13 14/14/14 15/15/15 16/16/16
f 17/17/17 18/18/18 23/19/19 24/20/20
f 22/21/21 21/22/22 19/23/23 20/24/24
f 24/20/20 23/19/19 21/22/22 22/21/21
