# This file uses meters as units for non-parametric coordinates.

v -8.978943 2.098027 1.179201
v -8.043493 2.098027 1.179201
v -8.978943 1.091015 1.179201
v -8.043493 1.091015 1.179201
v 8.978941 2.098026 1.179203
v 8.043493 2.098026 1.179203
v 8.978941 1.091015 1.179203
v 8.043493 1.091015 1.179203
v 1.895972 8.940071 1.579920
v 5.221595 8.940071 1.579920
v 1.895972 7.550645 1.579920
v 5.221595 7.550645 1.579920
v 1.287410 11.881514 1.579919
v 3.111057 11.881514 1.579919
v 1.287410 9.462467 1.579919
v 3.111057 9.462467 1.579919
v 4.088085 10.727970 1.579919
v 4.953327 10.727970 1.579919
v 4.088085 9.437973 1.579919
v 4.953327 9.437973 1.579919
v 3.365895 12.312313 1.579919
v 4.853780 12.312313 1.579919
v 3.365895 11.325350 1.579919
v 4.853780 11.325350 1.579919
v 2.424966 13.161325 1.579920
v 4.679093 13.161325 1.579920
v 2.424966 12.713387 1.579920
v 4.679092 12.713387 1.579920
vt 0.229758 0.685406
vt 0.246706 0.685261
vt 0.229758 0.667895
vt 0.246706 0.667895
vt 0.246706 0.685261
vt 0.246706 0.667895
vt 0.229758 0.667895
vt 0.229758 0.685406
vt 0.222316 0.703486
vt 0.187842 0.703600
vt 0.187842 0.689833
vt 0.222316 0.689833
vt 0.206576 0.685969
vt 0.187890 0.686037
vt 0.187890 0.661096
vt 0.206576 0.661096
vt 0.226760 0.685984
vt 0.209199 0.686051
vt 0.209199 0.660277
vt 0.226760 0.660277
vt 0.245858 0.717099
vt 0.225934 0.717166
vt 0.225934 0.703576
vt 0.245858 0.703576
vt 0.248114 0.701987
vt 0.223678 0.702054
vt 0.223678 0.694402
vt 0.248114 0.694402
vn 0.000000 0.000000 1.000000
vn 0.000000 0.000000 1.000000
vn 0.000000 0.000000 1.000000
vn 0.000000 0.000000 1.000000
vn 0.000000 0.000000 1.000000
vn 0.000000 0.000000 1.000000
vn 0.000000 0.000000 1.000000
vn 0.000000 0.000000 1.000000
vn 0.000000 0.000000 1.000000
vn 0.000000 0.000000 1.000000
vn 0.000000 0.000000 1.000000
vn 0.000000 0.000000 1.000000
vn 0.000000 0.000000 1.000000
vn 0.000000 0.000000 1.000000
vn 0.000000 0.000000 1.000000
vn 0.000000 0.000000 1.000000
vn 0.000000 0.000000 1.000000
vn 0.000000 0.000000 1.000000
vn 0.000000 0.000000 1.000000
vn 0.000000 0.000000 1.000000
vn 0.000000 0.000000 1.000000
vn 0.000000 0.000000 1.000000
vn 0.000000 0.000000 1.000000
vn 0.000000 0.000000 1.000000
vn 0.000000 0.000000 1.000000
vn 0.000000 0.000000 1.000000
vn 0.000000 0.000000 1.000000
vn 0.000000 0.000000 1.000000
f 2/2/1 1/1/2 3/3/3 4/4/4
f 6/5/5 8/6/6 7/7/7 5/8/8
f 10/9/9 9/10/10 11/11/11 12/12/12
f 14/13/13 13/14/14 15/15/15 16/16/16
f 18/17/17 17/18/18 19/19/19 20/20/20
f 22/21/21 21/22/22 23/23/23 24/24/24
f 26/25/25 25/26/26 27/27/27 28/28/28
