# This file uses meters as units for non-parametric coordinates.

v -27.650859 0.945077 18.239460
v 27.650859 0.945077 18.239460
v -27.650859 9.489200 18.239460
v 27.650859 9.489200 18.239460
v -27.650859 10.434278 -18.239460
v 27.650859 10.434278 -18.239460
v -27.650859 -0.000000 -18.239460
v 27.650859 -0.000000 -18.239460
v 0.000000 9.489200 18.239460
v 0.000000 10.434278 -18.239460
v 0.000000 -0.000000 -18.239460
v 0.000000 0.945077 18.239460
v -27.650857 10.434278 17.124450
v -27.650859 -0.000000 17.124449
v 0.000000 -0.000000 17.124449
v 27.650859 -0.000000 17.124449
v 27.650857 10.434278 17.124450
v 0.000000 10.434278 17.124450
vt 0.417356 0.862088
vt 0.422158 0.862088
vt 0.422158 0.852867
vt 0.417356 0.852867
vt 0.422158 0.853737
vt 0.417356 0.853737
vt 0.417356 0.863048
vt 0.422158 0.863048
vt 0.422158 0.852915
vt 0.417356 0.852915
vt 0.417356 0.863108
vt 0.422158 0.863108
vt 0.417363 0.853670
vt 0.417657 0.852915
vt 0.417657 0.863048
vt 0.417363 0.863918
vt 0.426958 0.852915
vt 0.427261 0.853670
vt 0.427261 0.863918
vt 0.426958 0.863048
vt 0.426961 0.852867
vt 0.426961 0.853737
vt 0.426961 0.863048
vt 0.426961 0.852915
vt 0.426961 0.863108
vt 0.426961 0.862088
vt 0.422158 0.863051
vt 0.417356 0.863051
vt 0.426961 0.863051
vn 0.000000 0.000000 1.000000
vn 0.000000 0.000000 1.000000
vn 0.000000 0.000000 1.000000
vn 0.000000 0.000000 1.000000
vn 0.000000 0.762844 0.646583
vn 0.000000 0.762844 0.646583
vn 0.000000 0.762844 0.646583
vn 0.000000 0.762844 0.646583
vn 0.000000 0.000000 -1.000000
vn 0.000000 0.000000 -1.000000
vn 0.000000 0.000000 -1.000000
vn 0.000000 0.000000 -1.000000
vn 0.000000 -0.762844 0.646583
vn 0.000000 -0.762844 0.646583
vn 0.000000 -0.762844 0.646583
vn 0.000000 -0.762844 0.646583
vn 1.000000 0.000000 -0.000001
vn 1.000000 0.000000 -0.000001
vn 1.000000 0.000000 -0.000001
vn 1.000000 0.000000 -0.000001
vn -1.000000 -0.000000 -0.000001
vn -1.000000 -0.000000 -0.000001
vn -1.000000 -0.000000 -0.000001
vn -1.000000 -0.000000 -0.000001
vn 0.000000 0.762844 0.646583
vn 0.000000 0.762844 0.646583
vn 0.000000 0.762844 0.646583
vn 0.000000 0.762844 0.646583
vn 0.000000 0.000000 -1.000000
vn 0.000000 0.000000 -1.000000
vn 0.000000 0.000000 -1.000000
vn 0.000000 0.000000 -1.000000
vn 0.000000 -0.762844 0.646583
vn 0.000000 -0.762844 0.646583
vn 0.000000 -0.762844 0.646583
vn 0.000000 -0.762844 0.646583
vn 0.000000 0.000000 1.000000
vn 0.000000 0.000000 1.000000
vn 0.000000 0.000000 1.000000
vn 0.000000 0.000000 1.000000
vn -1.000000 0.000000 0.000000
vn -1.000000 0.000000 0.000000
vn -1.000000 0.000000 0.000000
vn -1.000000 0.000000 0.000000
vn 0.000000 -1.000000 0.000000
vn 0.000000 -1.000000 0.000000
vn 0.000000 -1.000000 0.000000
vn 0.000000 -1.000000 0.000000
vn 0.000000 -1.000000 0.000000
vn 0.000000 -1.000000 0.000000
vn 0.000000 -1.000000 0.000000
vn 0.000000 -1.000000 0.000000
vn 1.000000 0.000000 0.000000
vn 1.000000 0.000000 0.000000
vn 1.000000 0.000000 0.000000
vn 1.000000 0.000000 0.000000
vn 0.000000 1.000000 0.000000
vn 0.000000 1.000000 0.000000
vn 0.000000 1.000000 0.000000
vn 0.000000 1.000000 0.000000
vn 0.000000 1.000000 0.000000
vn 0.000000 1.000000 0.000000
vn 0.000000 1.000000 0.000000
vn 0.000000 1.000000 0.000000
f 1/1/1 12/2/2 9/3/3 3/4/4
f 3/4/5 9/3/6 18/5/7 13/6/8
f 5/7/9 10/8/10 11/9/11 7/10/12
f 14/11/13 15/12/14 12/2/15 1/1/16
f 2/13/17 16/14/18 17/15/19 4/16/20
f 14/17/21 1/18/22 3/19/23 13/20/24
f 9/3/25 4/21/26 17/22/27 18/5/28
f 11/9/29 10/8/30 6/23/31 8/24/32
f 12/2/33 15/12/34 16/25/35 2/26/36
f 9/3/37 12/2/38 2/26/39 4/21/40
f 7/10/41 14/17/42 13/20/43 5/7/44
f 7/10/45 11/9/46 15/27/47 14/28/48
f 16/29/49 15/27/50 11/9/51 8/24/52
f 17/15/53 16/14/54 8/24/55 6/23/56
f 18/5/57 17/22/58 6/23/59 10/8/60
f 13/6/61 18/5/62 10/8/63 5/7/64
