# This file uses meters as units for non-parametric coordinates.

v 3.607862 3.776069 -0.005899
v 3.009284 3.776069 -0.253836
v 3.009284 4.028211 0.592684
v 2.410705 3.776069 -0.005899
v 2.162766 3.776069 0.592684
v 2.410705 3.776069 1.191259
v 3.009284 3.776069 1.439203
v 3.607862 3.776069 1.191259
v 3.855800 3.776069 0.592684
v 3.607862 3.411852 -0.005899
v 3.009284 3.411852 -0.253836
v 2.410705 3.411852 -0.005899
v 2.162766 3.411852 0.592684
v 2.410705 3.411852 1.191259
v 3.009284 3.411852 1.439203
v 3.607862 3.411852 1.191259
v 3.855800 3.411852 0.592684
v 3.931513 3.037324 -0.329554
v 3.009284 3.037324 -0.711550
v 3.009284 3.564431 0.592680
v 2.087054 3.037324 -0.329554
v 1.705054 3.037324 0.592680
v 2.087054 3.037324 1.514914
v 3.009284 3.037324 1.896914
v 3.931513 3.037324 1.514914
v 4.313513 3.037324 0.592680
v -3.441955 2.964561 2.006113
v -2.625746 2.964561 2.006113
v -2.625746 3.287394 2.006723
v -3.441955 3.287394 2.006723
v -2.625746 3.291374 1.102243
v -3.441955 3.291374 1.102243
v -3.441955 3.298946 -0.618460
v -2.625746 3.298946 -0.618460
v -2.625746 2.976114 -0.619070
v -3.441955 2.976114 -0.619070
v -2.625746 2.968542 1.101629
v -3.441955 2.968542 1.101629
v -3.441955 3.294967 0.286032
v -2.625746 3.294967 0.286032
v -3.441955 2.972135 0.285421
v -2.625746 2.972135 0.285421
v -1.721250 2.968542 1.101629
v -1.721250 2.972135 0.285421
v -1.721250 3.294967 0.286032
v -1.721250 3.291374 1.102243
v -4.346451 3.291374 1.102243
v -4.346451 3.294967 0.286032
v -4.346451 2.972135 0.285421
v -4.346451 2.968542 1.101629
v -4.907088 3.900728 -4.319906
v -5.630268 3.900728 -4.619455
v -5.630268 4.152869 -3.596722
v -6.353449 3.900728 -4.319906
v -6.653000 3.900728 -3.596722
v -6.353449 3.900728 -2.873541
v -5.630268 3.900728 -2.573988
v -4.907088 3.900728 -2.873541
v -4.607537 3.900728 -3.596722
v -4.907088 3.536511 -4.319906
v -5.630268 3.536511 -4.619455
v -6.353449 3.536511 -4.319906
v -6.653000 3.536511 -3.596722
v -6.353449 3.536511 -2.873541
v -5.630268 3.536511 -2.573988
v -4.907088 3.536511 -2.873541
v -4.607537 3.536511 -3.596722
v -4.962550 3.161982 -4.264442
v -5.630268 3.161982 -4.541019
v -5.630268 3.689090 -3.596720
v -6.297988 3.161982 -4.264442
v -6.574566 3.161982 -3.596720
v -6.297988 3.161982 -2.929001
v -5.630268 3.161982 -2.652420
v -4.962550 3.161982 -2.929001
v -4.685972 3.161982 -3.596720
v 4.720500 2.924381 -4.973974
v 6.511217 2.924381 -4.973974
v 4.720500 3.244780 -4.973974
v 6.511217 3.244780 -4.973974
v 4.720500 3.244780 -5.401804
v 6.511217 3.244780 -5.401804
v 4.720500 2.924381 -5.401804
v 6.511217 2.924381 -5.401804
v 5.268042 3.244780 -5.213409
v 5.268042 3.244780 -5.641239
v 5.268042 2.924381 -5.641239
v 5.268042 2.924381 -5.213409
v 5.876798 3.244780 -5.213409
v 5.876798 3.244780 -5.641239
v 5.876798 2.924381 -5.641239
v 5.876798 2.924381 -5.213409
v 6.818935 2.924381 -4.721518
v 7.168833 2.924381 -2.965321
v 6.818935 3.244780 -4.721518
v 7.168833 3.244780 -2.965321
v 7.238518 3.244780 -4.805113
v 7.588416 3.244780 -3.048914
v 7.238518 2.924381 -4.805113
v 7.588416 2.924381 -3.048914
v 7.160742 3.244780 -4.231318
v 7.580325 3.244780 -4.314911
v 7.580325 2.924381 -4.314911
v 7.160742 2.924381 -4.231318
v 7.279691 3.244780 -3.634293
v 7.699274 3.244780 -3.717888
v 7.699274 2.924381 -3.717888
v 7.279691 2.924381 -3.634293
v 7.826474 -0.187955 -7.228279
v 6.532744 -0.187955 -7.764158
v 5.239015 -0.187955 -7.228279
v 4.963316 -0.187955 -6.562683
v 8.230255 -0.187955 -5.615637
v 8.362354 -0.187955 -5.934551
v 7.826474 1.352425 -7.228279
v 6.532744 1.352425 -7.764158
v 5.239015 1.352425 -7.228279
v 4.963316 1.352425 -6.562683
v 8.230255 1.352425 -5.615637
v 8.362354 1.352425 -5.934551
v 6.532744 -0.187955 -5.934549
v 6.532744 1.352425 -5.934549
v 7.826474 0.565504 -6.897665
v 8.362354 0.565504 -5.603939
v 8.230255 0.565504 -5.285023
v 4.963316 0.565504 -6.232069
v 5.239015 0.565504 -6.897665
v 6.532744 0.565504 -7.433546
v 6.596786 0.565504 -5.758547
v 5.959970 2.688561 -6.893833
v 5.959970 2.006140 -6.893833
v 8.001998 2.688561 -5.871052
v 8.001998 2.006140 -5.871052
v 5.976409 2.688561 -7.103937
v 5.976409 2.006140 -7.103937
v 8.121285 2.688561 -6.044788
v 8.121285 2.006140 -6.044788
v 7.613144 2.688561 -6.270550
v 7.705568 2.688561 -6.453785
v 7.705568 2.006140 -6.453785
v 7.613144 2.006140 -6.270550
v -7.826477 -0.187958 -7.228275
v -6.532744 -0.187958 -7.764156
v -5.239014 -0.187958 -7.228275
v -4.963318 -0.187958 -6.562683
v -8.230255 -0.187958 -5.615635
v -8.362350 -0.187958 -5.934551
v -7.826477 1.352425 -7.228275
v -6.532744 1.352425 -7.764156
v -5.239014 1.352425 -7.228275
v -4.963318 1.352425 -6.562683
v -8.230255 1.352425 -5.615635
v -8.362350 1.352425 -5.934551
v -6.532744 -0.187958 -5.934547
v -6.532744 1.352425 -5.934547
v -7.826477 0.565504 -6.897663
v -8.362350 0.565504 -5.603937
v -8.230255 0.565504 -5.285019
v -4.963318 0.565504 -6.232067
v -5.239014 0.565504 -6.897663
v -6.532744 0.565504 -7.433544
v -6.596786 0.565504 -5.758545
vt 0.390960 0.896906
vt 0.387617 0.898127
vt 0.384378 0.896657
vt 0.383141 0.893357
vt 0.384631 0.890160
vt 0.387974 0.888940
vt 0.391213 0.890410
vt 0.392450 0.893710
vt 0.390960 0.896906
vt 0.387617 0.898127
vt 0.387796 0.893533
vt 0.384378 0.896657
vt 0.383141 0.893357
vt 0.384631 0.890160
vt 0.387974 0.888940
vt 0.391213 0.890410
vt 0.392450 0.893710
vt 0.390960 0.896906
vt 0.387617 0.898127
vt 0.384378 0.896657
vt 0.383141 0.893357
vt 0.384631 0.890160
vt 0.387974 0.888940
vt 0.391213 0.890410
vt 0.392450 0.893710
vt 0.390960 0.896906
vt 0.387617 0.898127
vt 0.387796 0.893533
vt 0.384378 0.896657
vt 0.383141 0.893357
vt 0.384631 0.890160
vt 0.387974 0.888940
vt 0.391213 0.890410
vt 0.392450 0.893710
vt 0.352623 0.961856
vt 0.368945 0.961856
vt 0.368945 0.961856
vt 0.352623 0.961856
vt 0.368945 0.945534
vt 0.352623 0.945534
vt 0.352623 0.945534
vt 0.368945 0.945534
vt 0.368945 0.945534
vt 0.352623 0.945534
vt 0.368945 0.945534
vt 0.352623 0.945534
vt 0.352623 0.961856
vt 0.368945 0.961856
vt 0.352623 0.961856
vt 0.368945 0.961856
vt 0.352623 0.945534
vt 0.352623 0.961856
vt 0.352623 0.961856
vt 0.352623 0.945534
vt 0.368945 0.945534
vt 0.368945 0.961856
vt 0.368945 0.961856
vt 0.368945 0.945534
vt 0.362820 0.959637
vt 0.359476 0.960857
vt 0.359655 0.956263
vt 0.356237 0.959387
vt 0.355001 0.956087
vt 0.356490 0.952891
vt 0.359834 0.951670
vt 0.363073 0.953140
vt 0.364309 0.956440
vt 0.362820 0.959637
vt 0.362820 0.959637
vt 0.359476 0.960857
vt 0.359476 0.960857
vt 0.356237 0.959387
vt 0.356237 0.959387
vt 0.355001 0.956087
vt 0.355001 0.956087
vt 0.356490 0.952891
vt 0.356490 0.952891
vt 0.359834 0.951670
vt 0.359834 0.951670
vt 0.363073 0.953140
vt 0.363073 0.953140
vt 0.364309 0.956440
vt 0.364309 0.956440
vt 0.362820 0.959637
vt 0.359476 0.960857
vt 0.359655 0.956263
vt 0.356237 0.959387
vt 0.355001 0.956087
vt 0.356490 0.952891
vt 0.359834 0.951670
vt 0.363073 0.953140
vt 0.364309 0.956440
vt 0.351802 0.952264
vt 0.355339 0.954491
vt 0.355339 0.954972
vt 0.351802 0.952745
vt 0.355406 0.959185
vt 0.351869 0.956959
vt 0.355406 0.958705
vt 0.351869 0.956478
vt 0.363248 0.951833
vt 0.363315 0.956047
vt 0.363315 0.956528
vt 0.363248 0.952314
vt 0.359230 0.954825
vt 0.359297 0.959039
vt 0.359297 0.958558
vt 0.359230 0.954344
vt 0.352091 0.953162
vt 0.355614 0.954823
vt 0.355300 0.954871
vt 0.351777 0.953209
vt 0.355240 0.957680
vt 0.351717 0.956018
vt 0.355554 0.957633
vt 0.352031 0.955971
vt 0.363722 0.953455
vt 0.363662 0.956264
vt 0.363349 0.956311
vt 0.363409 0.953502
vt 0.359254 0.954970
vt 0.359195 0.957780
vt 0.359508 0.957732
vt 0.359568 0.954923
vt 0.356528 0.955318
vt 0.362247 0.955507
vt 0.362247 0.958652
vt 0.356528 0.958463
vt 0.365275 0.956170
vt 0.365275 0.959316
vt 0.364536 0.956556
vt 0.364536 0.959702
vt 0.351115 0.955900
vt 0.351469 0.955715
vt 0.351469 0.958861
vt 0.351115 0.959046
vt 0.357654 0.956318
vt 0.356528 0.961748
vt 0.362247 0.961937
vt 0.357654 0.962748
vt 0.365275 0.962601
vt 0.364536 0.962986
vt 0.351115 0.962331
vt 0.351469 0.962146
vt 0.357825 0.959374
vt 0.364320 0.776804
vt 0.365567 0.776363
vt 0.365567 0.776363
vt 0.364320 0.776804
vt 0.364320 0.776804
vt 0.365567 0.776363
vt 0.365567 0.776363
vt 0.364320 0.776804
vt 0.364320 0.776804
vt 0.359065 0.768138
vt 0.363204 0.768138
vt 0.363204 0.772616
vt 0.359065 0.772616
vt 0.366008 0.776207
vt 0.366008 0.776207
vt 0.366008 0.776207
vt 0.366008 0.776207
vt 0.356528 0.955318
vt 0.356528 0.958463
vt 0.362247 0.958652
vt 0.362247 0.955507
vt 0.365275 0.959316
vt 0.365275 0.956170
vt 0.364536 0.959702
vt 0.364536 0.956556
vt 0.351115 0.955900
vt 0.351115 0.959046
vt 0.351469 0.958861
vt 0.351469 0.955715
vt 0.357654 0.956318
vt 0.356528 0.961748
vt 0.357654 0.962748
vt 0.362247 0.961937
vt 0.365275 0.962601
vt 0.364536 0.962986
vt 0.351115 0.962331
vt 0.351469 0.962146
vt 0.357825 0.959374
vn 0.201852 0.958390 -0.201853
vn -0.000000 0.958390 -0.285463
vn 0.000000 1.000000 0.000000
vn -0.201852 0.958390 -0.201852
vn -0.285463 0.958390 -0.000000
vn -0.201853 0.958390 0.201853
vn 0.000000 0.958390 0.285463
vn 0.201853 0.958390 0.201854
vn 0.285463 0.958390 -0.000000
vn 0.707108 0.000000 -0.707106
vn 0.707108 0.000000 -0.707106
vn 0.000000 0.000000 -1.000000
vn 0.000000 0.000000 -1.000000
vn -0.707107 0.000000 -0.707107
vn -0.707107 0.000000 -0.707107
vn -1.000000 0.000000 0.000000
vn -1.000000 0.000000 0.000000
vn -0.707108 0.000000 0.707106
vn -0.707108 0.000000 0.707106
vn 0.000000 0.000000 1.000000
vn 0.000000 0.000000 1.000000
vn 0.707109 0.000000 0.707105
vn 0.707109 0.000000 0.707105
vn 1.000000 0.000000 0.000000
vn 1.000000 0.000000 0.000000
vn 0.264956 0.927144 -0.264958
vn -0.000000 0.927143 -0.374707
vn 0.000000 1.000000 0.000000
vn -0.264956 0.927144 -0.264958
vn -0.374707 0.927143 0.000000
vn -0.264958 0.927143 0.264957
vn -0.000000 0.927144 0.374706
vn 0.264959 0.927143 0.264957
vn 0.374707 0.927143 0.000000
vn 0.000000 -0.001891 0.999998
vn 0.000000 -0.001891 0.999998
vn 0.000000 -0.001891 0.999998
vn 0.000000 -0.001891 0.999998
vn 0.000000 0.999990 0.004400
vn 0.000000 0.999990 0.004400
vn 0.000000 0.999990 0.004401
vn 0.000000 0.999990 0.004401
vn 0.000000 0.001891 -0.999998
vn 0.000000 0.001891 -0.999998
vn 0.000000 0.001891 -0.999998
vn 0.000000 0.001891 -0.999998
vn 1.000000 0.000000 0.000000
vn 0.707664 -0.001344 0.706548
vn 0.706540 -0.001346 0.707672
vn 1.000000 0.000000 0.000000
vn -0.707664 -0.001344 0.706548
vn -1.000000 -0.000000 0.000000
vn -1.000000 -0.000000 0.000000
vn -0.706540 -0.001347 0.707672
vn 0.000000 0.999990 0.004400
vn 0.000000 0.999990 0.004400
vn 0.000000 0.999990 0.004399
vn 0.000000 0.999990 0.004399
vn -1.000000 -0.000000 0.000000
vn -0.706542 0.001338 -0.707669
vn -0.707672 0.001336 -0.706540
vn -1.000000 -0.000000 0.000000
vn 0.707672 0.001336 -0.706540
vn 0.706543 0.001338 -0.707669
vn 1.000000 0.000000 0.000000
vn 1.000000 0.000000 0.000000
vn 1.000000 0.000000 0.000000
vn 1.000000 0.000000 0.000000
vn 1.000000 0.000000 0.000000
vn 1.000000 0.000000 0.000000
vn 0.000000 0.999990 0.004402
vn 0.000000 0.999990 0.004402
vn 0.000000 0.999990 0.004402
vn 0.000000 0.999990 0.004402
vn -1.000000 -0.000000 0.000000
vn -1.000000 -0.000000 0.000000
vn -1.000000 -0.000000 0.000000
vn -1.000000 -0.000000 0.000000
vn 0.000000 0.001891 -0.999998
vn 0.000000 0.001891 -0.999998
vn 0.000000 -0.001902 0.999998
vn 0.000000 -0.001902 0.999998
vn 0.000000 0.999990 0.004402
vn 0.000000 0.999990 0.004402
vn 0.000000 0.999990 0.004402
vn 0.000000 0.999990 0.004402
vn 0.000000 -0.001902 0.999998
vn 0.000000 -0.001902 0.999998
vn 0.000000 0.001891 -0.999998
vn 0.000000 0.001891 -0.999998
vn 0.169259 0.970929 -0.169260
vn 0.000000 0.970929 -0.239369
vn 0.000000 1.000000 0.000000
vn -0.169259 0.970929 -0.169260
vn -0.239370 0.970928 -0.000000
vn -0.169260 0.970929 0.169260
vn 0.000000 0.970929 0.239370
vn 0.169260 0.970929 0.169260
vn 0.239371 0.970928 -0.000000
vn 0.707108 0.000000 -0.707106
vn 0.707108 0.000000 -0.707106
vn -0.000000 0.000000 -1.000000
vn -0.000000 0.000000 -1.000000
vn -0.707107 0.000000 -0.707106
vn -0.707107 0.000000 -0.707106
vn -1.000000 0.000000 0.000000
vn -1.000000 0.000000 0.000000
vn -0.707107 0.000000 0.707106
vn -0.707107 0.000000 0.707106
vn 0.000000 0.000000 1.000000
vn 0.000000 0.000000 1.000000
vn 0.707108 0.000000 0.707106
vn 0.707108 0.000000 0.707106
vn 1.000000 0.000000 0.000000
vn 1.000000 0.000000 0.000000
vn 0.344647 0.873176 -0.344648
vn -0.000000 0.873176 -0.487406
vn 0.000000 1.000000 0.000000
vn -0.344647 0.873176 -0.344648
vn -0.487406 0.873175 -0.000000
vn -0.344650 0.873175 0.344648
vn -0.000000 0.873175 0.487406
vn 0.344650 0.873174 0.344649
vn 0.487407 0.873175 -0.000000
vn 0.400657 0.000000 0.916228
vn 0.202768 0.000000 0.979227
vn 0.202768 0.000000 0.979227
vn 0.400657 0.000000 0.916228
vn 0.000000 1.000000 0.000000
vn 0.000000 1.000000 0.000000
vn 0.000000 1.000000 0.000000
vn 0.000000 1.000000 0.000000
vn -0.400657 0.000000 -0.916228
vn -0.202768 0.000000 -0.979227
vn -0.202768 0.000000 -0.979227
vn -0.400657 0.000000 -0.916228
vn 1.000000 0.000000 0.000000
vn 1.000000 0.000000 0.000000
vn 1.000000 0.000000 0.000000
vn 1.000000 0.000000 0.000000
vn -1.000000 0.000000 0.000000
vn -1.000000 0.000000 0.000000
vn -1.000000 0.000000 0.000000
vn -1.000000 0.000000 0.000000
vn 0.000000 1.000000 0.000000
vn 0.000000 1.000000 0.000000
vn 0.189123 0.000000 -0.981953
vn 0.189123 0.000000 -0.981953
vn -0.189123 0.000000 0.981953
vn -0.189123 0.000000 0.981953
vn 0.000000 1.000000 0.000000
vn 0.000000 1.000000 0.000000
vn 0.353097 0.000000 -0.935587
vn 0.353097 0.000000 -0.935587
vn -0.353097 0.000000 0.935587
vn -0.353097 0.000000 0.935587
vn -0.820278 0.000000 0.571965
vn -0.920732 0.000000 0.390197
vn -0.920732 0.000000 0.390197
vn -0.820278 0.000000 0.571965
vn 0.000000 1.000000 -0.000001
vn 0.000000 1.000000 -0.000000
vn 0.000000 1.000000 -0.000000
vn 0.000000 1.000000 -0.000001
vn 0.820280 0.000000 -0.571962
vn 0.920732 0.000000 -0.390196
vn 0.920732 0.000000 -0.390196
vn 0.820280 0.000000 -0.571962
vn 0.195395 0.000000 0.980725
vn 0.195395 0.000000 0.980725
vn 0.195395 0.000000 0.980725
vn 0.195395 0.000000 0.980725
vn -0.195394 0.000000 -0.980725
vn -0.195394 0.000000 -0.980725
vn -0.195394 0.000000 -0.980725
vn -0.195394 0.000000 -0.980725
vn 0.000000 1.000000 -0.000000
vn 0.000000 1.000000 -0.000000
vn 0.999980 0.000000 -0.006390
vn 0.999980 0.000000 -0.006390
vn -0.999980 0.000000 0.006391
vn -0.999980 0.000000 0.006391
vn 0.000000 1.000000 0.000000
vn 0.000000 1.000000 0.000000
vn 0.986546 0.000000 0.163484
vn 0.986546 0.000000 0.163484
vn -0.986546 0.000000 -0.163484
vn -0.986546 0.000000 -0.163484
vn 0.618164 0.315845 -0.719802
vn 0.000000 0.401813 -0.915722
vn -0.000000 0.000698 -1.000000
vn 0.751221 0.000022 -0.660051
vn -0.523302 0.342404 -0.780330
vn -0.654668 -0.000225 -0.755917
vn -0.755129 -0.179852 0.630424
vn -0.475566 0.102381 0.873702
vn -0.009347 -0.318296 0.947945
vn 0.948477 0.127313 -0.290144
vn 0.984608 -0.000934 -0.174775
vn -0.157853 0.095987 0.982786
vn 0.000000 -1.000000 0.000000
vn 0.000000 -1.000000 0.000000
vn 0.000000 -1.000000 0.000000
vn 0.000000 -1.000000 0.000000
vn 0.000000 -1.000000 0.000000
vn 0.000000 -1.000000 0.000000
vn 0.000000 -1.000000 0.000000
vn 0.000000 1.000000 0.000000
vn 0.000000 1.000000 0.000000
vn 0.000000 1.000000 0.000000
vn 0.000000 1.000000 0.000000
vn 0.000000 1.000000 0.000000
vn 0.000000 1.000000 0.000000
vn 0.000000 1.000000 0.000000
vn -0.275655 0.099945 0.956047
vn -0.269920 -0.296513 0.916091
vn 0.623090 -0.302957 -0.721094
vn 0.949681 -0.121321 -0.288767
vn -0.157128 0.296809 0.941921
vn -0.522966 0.241817 0.817332
vn -0.266840 0.285448 0.920497
vn -0.527815 -0.328990 -0.783056
vn 0.000000 -0.387338 -0.921938
vn 0.351938 0.000000 -0.936023
vn 0.442764 0.000000 -0.896638
vn 0.442764 0.000000 -0.896638
vn 0.351938 0.000000 -0.936023
vn 0.000000 1.000000 0.000000
vn 0.000000 1.000000 0.000000
vn 0.000000 1.000000 0.000000
vn 0.000000 1.000000 0.000000
vn 0.000000 -1.000000 0.000000
vn 0.000000 -1.000000 0.000000
vn 0.000000 -1.000000 0.000000
vn 0.000000 -1.000000 0.000000
vn -0.996953 0.000000 -0.078004
vn -0.996953 0.000000 -0.078004
vn -0.996953 0.000000 -0.078004
vn -0.996953 0.000000 -0.078004
vn 0.824386 0.000000 0.566028
vn 0.824386 0.000000 0.566028
vn 0.824386 0.000000 0.566028
vn 0.824386 0.000000 0.566028
vn 0.000000 1.000000 -0.000000
vn 0.000000 1.000000 -0.000000
vn 0.701321 0.000000 -0.712845
vn 0.701321 0.000000 -0.712845
vn 0.000000 -1.000000 0.000000
vn 0.000000 -1.000000 0.000000
vn -0.618165 0.315843 -0.719802
vn -0.751221 0.000022 -0.660050
vn 0.000000 0.000698 -1.000000
vn -0.000000 0.401811 -0.915723
vn 0.654667 -0.000225 -0.755917
vn 0.523302 0.342402 -0.780330
vn 0.475566 0.102381 0.873702
vn 0.755128 -0.179853 0.630424
vn 0.009347 -0.318296 0.947945
vn 0.157854 0.095988 0.982786
vn -0.984608 -0.000934 -0.174773
vn -0.948478 0.127312 -0.290141
vn 0.000000 -1.000000 0.000000
vn 0.000000 -1.000000 -0.000000
vn 0.000000 -1.000000 -0.000000
vn 0.000000 -1.000000 0.000000
vn 0.000000 -1.000000 0.000000
vn 0.000000 -1.000000 -0.000000
vn 0.000000 -1.000000 0.000000
vn 0.000000 1.000000 -0.000000
vn 0.000000 1.000000 -0.000000
vn 0.000000 1.000000 0.000000
vn 0.000000 1.000000 -0.000000
vn 0.000000 1.000000 -0.000000
vn 0.000000 1.000000 -0.000000
vn 0.000000 1.000000 -0.000000
vn 0.275656 0.099945 0.956046
vn 0.269921 -0.296513 0.916091
vn -0.949682 -0.121320 -0.288765
vn -0.623090 -0.302956 -0.721093
vn 0.157128 0.296810 0.941921
vn 0.522966 0.241818 0.817331
vn 0.266841 0.285449 0.920497
vn 0.527814 -0.328989 -0.783057
vn -0.000000 -0.387338 -0.921938
f 1/9/1 2/10/2 3/11/3
f 2/10/2 4/12/4 3/11/3
f 4/12/4 5/13/5 3/11/3
f 5/13/5 6/14/6 3/11/3
f 6/14/6 7/15/7 3/11/3
f 7/15/7 8/16/8 3/11/3
f 8/16/8 9/17/9 3/11/3
f 9/17/9 1/9/1 3/11/3
f 1/1/10 10/18/11 11/19/12 2/2/13
f 2/2/13 11/19/12 12/20/14 4/3/15
f 4/3/15 12/20/14 13/21/16 5/4/17
f 5/4/17 13/21/16 14/22/18 6/5/19
f 6/5/19 14/22/18 15/23/20 7/6/21
f 7/6/21 15/23/20 16/24/22 8/7/23
f 8/7/23 16/24/22 17/25/24 9/8/25
f 9/8/25 17/25/24 10/18/11 1/1/10
f 18/26/26 19/27/27 20/28/28
f 19/27/27 21/29/29 20/28/28
f 21/29/29 22/30/30 20/28/28
f 22/30/30 23/31/31 20/28/28
f 23/31/31 24/32/32 20/28/28
f 24/32/32 25/33/33 20/28/28
f 25/33/33 26/34/34 20/28/28
f 26/34/34 18/26/26 20/28/28
f 27/35/35 28/36/36 29/37/37 30/38/38
f 30/38/39 29/37/40 31/39/41 32/40/42
f 33/41/43 34/42/44 35/43/45 36/44/46
f 28/36/47 37/45/48 31/39/49 29/37/50
f 38/46/51 27/35/52 30/38/53 32/40/54
f 39/47/55 40/48/56 34/42/57 33/41/58
f 36/44/59 41/49/60 39/47/61 33/41/62
f 40/48/63 42/50/64 35/43/65 34/42/66
f 32/40/42 31/39/41 40/48/56 39/47/55
f 43/51/67 44/52/68 45/53/69 46/54/70
f 46/54/71 45/53/72 40/48/73 31/39/74
f 47/55/75 48/56/76 49/57/77 50/58/78
f 44/52/79 42/50/64 40/48/63 45/53/80
f 37/45/48 43/51/81 46/54/82 31/39/49
f 32/40/83 39/47/84 48/56/85 47/55/86
f 50/58/87 38/46/51 32/40/54 47/55/88
f 39/47/61 41/49/60 49/57/89 48/56/90
f 51/59/91 52/60/92 53/61/93
f 52/60/92 54/62/94 53/61/93
f 54/62/94 55/63/95 53/61/93
f 55/63/95 56/64/96 53/61/93
f 56/64/96 57/65/97 53/61/93
f 57/65/97 58/66/98 53/61/93
f 58/66/98 59/67/99 53/61/93
f 59/67/99 51/59/91 53/61/93
f 51/68/100 60/69/101 61/70/102 52/71/103
f 52/71/103 61/70/102 62/72/104 54/73/105
f 54/73/105 62/72/104 63/74/106 55/75/107
f 55/75/107 63/74/106 64/76/108 56/77/109
f 56/77/109 64/76/108 65/78/110 57/79/111
f 57/79/111 65/78/110 66/80/112 58/81/113
f 58/81/113 66/80/112 67/82/114 59/83/115
f 59/83/115 67/82/114 60/69/101 51/68/100
f 68/84/116 69/85/117 70/86/118
f 69/85/117 71/87/119 70/86/118
f 71/87/119 72/88/120 70/86/118
f 72/88/120 73/89/121 70/86/118
f 73/89/121 74/90/122 70/86/118
f 74/90/122 75/91/123 70/86/118
f 75/91/123 76/92/124 70/86/118
f 76/92/124 68/84/116 70/86/118
f 77/93/125 88/94/126 85/95/127 79/96/128
f 79/96/129 85/95/130 86/97/131 81/98/132
f 81/98/133 86/97/134 87/99/135 83/100/136
f 78/101/137 84/102/138 82/103/139 80/104/140
f 83/100/141 77/93/142 79/96/143 81/98/144
f 85/95/130 89/105/145 90/106/146 86/97/131
f 87/99/135 86/97/134 90/106/147 91/107/148
f 85/95/127 88/94/126 92/108/149 89/105/150
f 89/105/145 80/104/151 82/103/152 90/106/146
f 91/107/148 90/106/147 82/103/153 84/102/154
f 89/105/150 92/108/149 78/101/155 80/104/156
f 93/109/157 104/110/158 101/111/159 95/112/160
f 95/112/161 101/111/162 102/113/163 97/114/164
f 97/114/165 102/113/166 103/115/167 99/116/168
f 94/117/169 100/118/170 98/119/171 96/120/172
f 99/116/173 93/109/174 95/112/175 97/114/176
f 101/111/162 105/121/177 106/122/178 102/113/163
f 103/115/167 102/113/166 106/122/179 107/123/180
f 101/111/159 104/110/158 108/124/181 105/121/182
f 105/121/177 96/120/183 98/119/184 106/122/178
f 107/123/180 106/122/179 98/119/185 100/118/186
f 105/121/182 108/124/181 94/117/187 96/120/188
f 109/125/189 110/126/190 128/127/191 123/128/192
f 110/126/190 111/129/193 127/130/194 128/127/191
f 111/129/193 112/131/195 126/132/196 127/130/194
f 113/133/197 114/134/198 124/135/199 125/136/200
f 114/134/198 109/125/189 123/128/192 124/135/199
f 110/126/201 109/125/202 121/137/203
f 111/129/204 110/126/201 121/137/203
f 112/131/205 111/129/204 121/137/203
f 114/134/206 113/133/207 121/137/203
f 109/125/202 114/134/206 121/137/203
f 115/138/208 116/139/209 122/140/210
f 116/139/209 117/141/211 122/140/210
f 117/141/211 118/142/212 122/140/210
f 119/143/213 120/144/214 122/140/210
f 120/144/214 115/138/208 122/140/210
f 129/145/215 121/137/216 113/133/197 125/136/200
f 124/135/199 123/128/192 115/138/217 120/144/218
f 125/136/200 124/135/199 120/144/218 119/143/219
f 118/142/220 126/132/196 129/145/215 125/136/200 119/143/219 122/140/221
f 127/130/194 126/132/196 118/142/220 117/141/222
f 128/127/191 127/130/194 117/141/222 116/139/223
f 123/128/192 128/127/191 116/139/223 115/138/217
f 126/132/196 112/131/195 121/137/216 129/145/215
f 134/146/224 139/147/225 140/148/226 135/149/227
f 130/150/228 138/151/229 139/147/230 134/146/231
f 141/152/232 131/153/233 135/149/234 140/148/235
f 135/149/236 131/154/237 130/150/238 134/146/239
f 133/155/240 137/156/241 136/157/242 132/158/243
f 138/151/229 132/159/244 136/160/245 139/147/230
f 140/148/226 139/147/225 136/160/246 137/161/247
f 133/162/248 141/152/232 140/148/235 137/161/249
f 142/163/250 156/164/251 161/165/252 143/166/253
f 143/166/253 161/165/252 160/167/254 144/168/255
f 144/168/255 160/167/254 159/169/256 145/170/257
f 146/171/258 158/172/259 157/173/260 147/174/261
f 147/174/261 157/173/260 156/164/251 142/163/250
f 143/166/262 154/175/263 142/163/264
f 144/168/265 154/175/263 143/166/262
f 145/170/266 154/175/263 144/168/265
f 147/174/267 154/175/263 146/171/268
f 142/163/264 154/175/263 147/174/267
f 148/176/269 155/177/270 149/178/271
f 149/178/271 155/177/270 150/179/272
f 150/179/272 155/177/270 151/180/273
f 152/181/274 155/177/270 153/182/275
f 153/182/275 155/177/270 148/176/269
f 162/183/276 158/172/259 146/171/258 154/175/277
f 157/173/260 153/182/278 148/176/279 156/164/251
f 158/172/259 152/181/280 153/182/278 157/173/260
f 151/180/281 155/177/282 152/181/280 158/172/259 162/183/276 159/169/256
f 160/167/254 150/179/283 151/180/281 159/169/256
f 161/165/252 149/178/284 150/179/283 160/167/254
f 156/164/251 148/176/279 149/178/284 161/165/252
f 159/169/256 162/183/276 154/175/277 145/170/257
