# This file uses meters as units for non-parametric coordinates.

v -16.802921 7.177847 17.276814
v -16.710794 7.177847 17.277706
v -16.710794 8.851754 17.277706
v -16.802921 8.851753 17.276814
v -0.046062 7.177847 16.733940
v 0.046064 7.177847 16.734837
v 0.046064 8.851754 16.734837
v -0.046062 8.851753 16.733940
v -17.395687 3.944249 17.091251
v -17.395689 2.509424 17.091248
v -14.552674 2.509424 17.091249
v -14.552671 3.944249 17.091251
v -17.395689 2.509424 17.572132
v -17.395687 3.944249 17.572138
v -14.552674 2.509424 17.572136
v -14.552671 3.944249 17.572138
v -17.566378 3.226836 17.091249
v -17.566378 3.226836 17.762415
v -14.381982 3.226836 17.762415
v -14.381982 3.226836 17.091249
v -12.383995 3.944249 17.091251
v -12.383996 2.509424 17.091248
v -9.540980 2.509424 17.091249
v -9.540978 3.944249 17.091251
v -12.383996 2.509424 17.572132
v -12.383995 3.944249 17.572138
v -9.540980 2.509424 17.572136
v -9.540978 3.944249 17.572138
v -12.554684 3.226836 17.091249
v -12.554684 3.226836 17.762415
v -9.370290 3.226836 17.762415
v -9.370290 3.226836 17.091249
v 12.383995 3.944248 17.091251
v 12.383995 2.509419 17.091246
v 9.540977 2.509419 17.091246
v 9.540977 3.944248 17.091251
v 12.383995 2.509419 17.572132
v 12.383995 3.944248 17.572136
v 9.540977 2.509419 17.572132
v 9.540977 3.944248 17.572136
v 12.554687 3.226836 17.091246
v 12.554687 3.226836 17.762419
v 9.370289 3.226836 17.762419
v 9.370289 3.226836 17.091246
v 17.395693 3.944248 17.091251
v 17.395693 2.509419 17.091246
v 14.552671 2.509419 17.091246
v 14.552671 3.944248 17.091251
v 17.395693 2.509419 17.572132
v 17.395693 3.944248 17.572136
v 14.552671 2.509419 17.572132
v 14.552671 3.944248 17.572136
v 17.566374 3.226836 17.091246
v 17.566374 3.226836 17.762419
v 14.381982 3.226836 17.762419
v 14.381982 3.226836 17.091246
v 1.034802 5.019145 16.663055
v 0.597443 5.456504 16.663055
v 0.000000 5.616589 16.663055
v -0.597443 5.456504 16.663055
v -1.034802 5.019145 16.663055
v -1.194886 4.421702 16.663055
v -1.034802 3.824259 16.663055
v -0.597443 3.386901 16.663055
v 0.000000 3.226816 16.663055
v 0.597443 3.386901 16.663055
v 1.034802 3.824259 16.663055
v 1.194886 4.421702 16.663055
v 0.701009 4.826430 17.033703
v 0.404727 5.122711 17.033703
v 0.000000 5.231157 17.033703
v -0.404727 5.122711 17.033703
v -0.701009 4.826430 17.033703
v -0.809455 4.421702 17.033703
v -0.701009 4.016975 17.033703
v -0.404727 3.720694 17.033703
v 0.000000 3.612247 17.033703
v 0.404727 3.720694 17.033703
v 0.701009 4.016975 17.033703
v 0.809455 4.421702 17.033703
v 0.000000 4.421702 17.160122
v 6.491481 7.177847 16.685425
v -6.522275 7.177847 16.734390
v -6.522275 7.077089 16.734390
v 6.491481 7.077089 16.685425
v 6.491481 8.952513 16.685425
v -6.522275 8.952513 16.734390
v -6.522275 8.851754 16.734390
v 6.491481 8.851754 16.685425
v -20.240587 7.177847 17.277260
v -20.240587 7.077089 17.277260
v -6.522275 7.077089 17.326225
v -6.522275 7.177847 17.326225
v -20.289555 7.177847 13.330445
v -20.289555 7.077089 13.330445
v 20.267956 7.177847 17.277260
v 6.522273 7.177847 17.326225
v 6.522273 7.077089 17.326225
v 20.267956 7.077089 17.277260
v 20.316921 7.077089 13.330445
v 20.316921 7.177847 13.330445
v -20.240587 8.952513 17.277260
v -20.240587 8.851754 17.277260
v -6.522275 8.851754 17.326225
v -6.522275 8.952513 17.326225
v -20.289555 8.952513 13.330445
v -20.289555 8.851754 13.330445
v 20.267956 8.952513 17.277260
v 6.522273 8.952513 17.326225
v 6.522273 8.851754 17.326225
v 20.267956 8.851754 17.277260
v 20.316921 8.851754 13.330445
v 20.316921 8.952513 13.330445
v -6.519020 7.177847 16.412313
v -6.519020 7.077089 16.412313
v 6.519017 7.177847 16.412313
v 6.519017 7.077089 16.412313
v -6.519020 8.952513 16.412313
v -6.519020 8.851754 16.412313
v 6.519017 8.952513 16.412313
v 6.519017 8.851754 16.412313
v 4.447166 10.375670 -2.567573
v 2.567573 10.375670 -4.447166
v 0.000000 10.375670 -5.135145
v -2.567573 10.375670 -4.447166
v -4.447166 10.375670 -2.567573
v -5.135145 10.375670 0.000000
v -4.447166 10.375670 2.567573
v -2.567573 10.375670 4.447166
v 0.000000 10.375670 5.135145
v 2.567573 10.375670 4.447166
v 4.447166 10.375670 2.567573
v 5.135145 10.375670 0.000000
v 2.302023 11.592823 -1.329074
v 1.329074 11.592823 -2.302023
v 0.000000 11.592823 -2.658147
v -1.329074 11.592823 -2.302023
v -2.302023 11.592823 -1.329074
v -2.658147 11.592823 0.000000
v -2.302023 11.592823 1.329074
v -1.329074 11.592823 2.302023
v 0.000000 11.592823 2.658147
v 1.329074 11.592823 2.302023
v 2.302023 11.592823 1.329074
v 2.658147 11.592823 0.000000
v 0.000000 12.007973 0.000000
v -18.468149 0.000000 15.385206
v 18.468149 0.000000 15.385206
v -18.468149 1.046604 15.385206
v 18.468149 1.046604 15.385206
v -18.468149 1.046604 -15.385206
v 18.468149 1.046604 -15.385206
v -18.468149 0.000000 -15.385206
v 18.468149 0.000000 -15.385206
vt 0.276769 0.969534
vt 0.276769 0.970036
vt 0.254366 0.970036
vt 0.254366 0.969534
vt 0.276769 0.969534
vt 0.276769 0.970036
vt 0.254366 0.970036
vt 0.254366 0.969534
vt 0.449616 0.987805
vt 0.449616 0.983308
vt 0.459624 0.983332
vt 0.459624 0.987830
vt 0.449682 0.987760
vt 0.449682 0.983263
vt 0.449682 0.978765
vt 0.459690 0.978789
vt 0.459624 0.978834
vt 0.449616 0.978810
vt 0.459690 0.983287
vt 0.459690 0.987784
vt 0.449616 0.987805
vt 0.449616 0.983308
vt 0.459624 0.983332
vt 0.459624 0.987830
vt 0.449682 0.987760
vt 0.449682 0.983263
vt 0.449682 0.978765
vt 0.459690 0.978789
vt 0.459624 0.978834
vt 0.449616 0.978810
vt 0.459690 0.983287
vt 0.459690 0.987784
vt 0.449616 0.987805
vt 0.459624 0.987830
vt 0.459624 0.983332
vt 0.449616 0.983308
vt 0.449682 0.987760
vt 0.449682 0.983263
vt 0.449682 0.978765
vt 0.449616 0.978810
vt 0.459624 0.978834
vt 0.459690 0.978789
vt 0.459690 0.983287
vt 0.459690 0.987784
vt 0.449616 0.987805
vt 0.459624 0.987830
vt 0.459624 0.983332
vt 0.449616 0.983308
vt 0.449682 0.987760
vt 0.449682 0.983263
vt 0.449682 0.978765
vt 0.449616 0.978810
vt 0.459624 0.978834
vt 0.459690 0.978789
vt 0.459690 0.983287
vt 0.459690 0.987784
vt 0.567318 0.094338
vt 0.565104 0.096592
vt 0.563486 0.094589
vt 0.564632 0.093422
vt 0.561991 0.097501
vt 0.561874 0.095059
vt 0.558813 0.096820
vt 0.560230 0.094707
vt 0.556422 0.094733
vt 0.558992 0.093626
vt 0.555459 0.091798
vt 0.558493 0.092107
vt 0.556181 0.088802
vt 0.558867 0.090556
vt 0.558395 0.086547
vt 0.560013 0.089389
vt 0.561508 0.085639
vt 0.561624 0.088919
vt 0.564685 0.086319
vt 0.563269 0.089271
vt 0.567076 0.088407
vt 0.564507 0.090352
vt 0.568040 0.091342
vt 0.565005 0.091871
vt 0.561749 0.092132
vt 0.258315 0.970557
vt 0.273272 0.970371
vt 0.273260 0.970177
vt 0.258302 0.970362
vt 0.258315 0.970557
vt 0.273272 0.970371
vt 0.273260 0.970177
vt 0.258302 0.970362
vt 0.258581 0.970199
vt 0.258592 0.970005
vt 0.273410 0.970028
vt 0.273400 0.970222
vt 0.258577 0.970035
vt 0.258587 0.969841
vt 0.258315 0.970557
vt 0.273272 0.970371
vt 0.273260 0.970177
vt 0.258302 0.970362
vt 0.258338 0.970198
vt 0.258351 0.970392
vt 0.258581 0.970199
vt 0.258592 0.970005
vt 0.273410 0.970028
vt 0.273400 0.970222
vt 0.258577 0.970035
vt 0.258587 0.969841
vt 0.258315 0.970557
vt 0.273272 0.970371
vt 0.273260 0.970177
vt 0.258302 0.970362
vt 0.258338 0.970198
vt 0.258351 0.970392
vt 0.258601 0.969754
vt 0.265913 0.969754
vt 0.265913 0.970395
vt 0.258601 0.970395
vt 0.258601 0.969754
vt 0.265913 0.969754
vt 0.265913 0.970395
vt 0.258601 0.970395
vt 0.258601 0.969754
vt 0.265913 0.969754
vt 0.265913 0.970395
vt 0.258601 0.970395
vt 0.258601 0.969754
vt 0.265913 0.969754
vt 0.265913 0.970395
vt 0.258601 0.970395
vt 0.490613 0.865894
vt 0.488399 0.868148
vt 0.486781 0.866144
vt 0.487927 0.864977
vt 0.485287 0.869056
vt 0.485170 0.866614
vt 0.482109 0.868376
vt 0.483525 0.866262
vt 0.479718 0.866288
vt 0.482288 0.865182
vt 0.478754 0.863353
vt 0.481789 0.863662
vt 0.479476 0.860357
vt 0.482162 0.862112
vt 0.481690 0.858103
vt 0.483308 0.860945
vt 0.484803 0.857194
vt 0.484920 0.860474
vt 0.487981 0.857875
vt 0.486565 0.860827
vt 0.490372 0.859963
vt 0.487802 0.861907
vt 0.491335 0.862897
vt 0.488301 0.863426
vt 0.485045 0.863687
vt 0.326107 0.979993
vt 0.337614 0.979952
vt 0.337614 0.979964
vt 0.326107 0.980004
vt 0.337648 0.989544
vt 0.326140 0.989585
vt 0.337648 0.989533
vt 0.326140 0.989573
vn -0.009684 0.000000 0.999953
vn -0.009684 0.000000 0.999953
vn -0.009684 0.000000 0.999953
vn -0.009684 0.000000 0.999953
vn -0.009733 0.000000 0.999953
vn -0.009733 0.000000 0.999953
vn -0.009733 0.000000 0.999953
vn -0.009733 0.000000 0.999953
vn -0.145193 0.646920 0.748607
vn -0.184167 -0.000002 0.982895
vn 0.184167 -0.000003 0.982895
vn 0.145193 0.646921 0.748607
vn -0.271402 0.962466 0.000000
vn -1.000000 0.000001 0.000000
vn -0.271403 -0.962466 0.000000
vn 0.271403 -0.962466 0.000000
vn 0.145193 -0.646922 0.748606
vn -0.145194 -0.646923 0.748605
vn 1.000000 -0.000003 0.000000
vn 0.271402 0.962466 0.000000
vn -0.145193 0.646921 0.748607
vn -0.184167 -0.000003 0.982895
vn 0.184167 -0.000003 0.982895
vn 0.145193 0.646921 0.748607
vn -0.271402 0.962466 0.000000
vn -1.000000 0.000000 0.000000
vn -0.271403 -0.962466 0.000000
vn 0.271403 -0.962466 0.000000
vn 0.145193 -0.646922 0.748606
vn -0.145194 -0.646923 0.748605
vn 1.000000 -0.000001 0.000000
vn 0.271402 0.962466 0.000000
vn 0.145194 0.646924 0.748604
vn -0.145195 0.646924 0.748604
vn -0.184167 -0.000003 0.982895
vn 0.184167 -0.000003 0.982895
vn 0.271406 0.962465 0.000000
vn 1.000000 -0.000000 0.000000
vn 0.271405 -0.962465 0.000000
vn 0.145194 -0.646924 0.748604
vn -0.145195 -0.646924 0.748604
vn -0.271405 -0.962465 0.000000
vn -1.000000 -0.000001 0.000000
vn -0.271406 0.962465 0.000000
vn 0.145195 0.646924 0.748604
vn -0.145195 0.646924 0.748604
vn -0.184167 -0.000003 0.982895
vn 0.184166 -0.000003 0.982895
vn 0.271407 0.962465 0.000000
vn 1.000000 -0.000002 0.000000
vn 0.271405 -0.962465 0.000000
vn 0.145195 -0.646925 0.748603
vn -0.145194 -0.646925 0.748603
vn -0.271405 -0.962465 0.000000
vn -1.000000 -0.000000 0.000000
vn -0.271406 0.962465 0.000000
vn 0.600283 0.346574 0.720796
vn 0.346574 0.600284 0.720795
vn 0.272332 0.471693 0.838654
vn 0.471693 0.272332 0.838655
vn -0.000000 0.693149 0.720795
vn -0.000000 0.544664 0.838654
vn -0.346573 0.600284 0.720795
vn -0.272332 0.471693 0.838654
vn -0.600283 0.346575 0.720796
vn -0.471692 0.272332 0.838655
vn -0.693148 0.000000 0.720796
vn -0.544663 0.000000 0.838655
vn -0.600284 -0.346574 0.720795
vn -0.471693 -0.272332 0.838654
vn -0.346574 -0.600284 0.720795
vn -0.272332 -0.471693 0.838654
vn 0.000000 -0.693148 0.720795
vn 0.000000 -0.544664 0.838654
vn 0.346573 -0.600284 0.720796
vn 0.272332 -0.471693 0.838654
vn 0.600283 -0.346574 0.720796
vn 0.471693 -0.272332 0.838654
vn 0.693148 -0.000000 0.720796
vn 0.544663 -0.000000 0.838655
vn 0.000000 0.000000 1.000000
vn 0.003763 0.000000 0.999993
vn 0.003763 0.000000 0.999993
vn 0.003763 0.000000 0.999993
vn 0.003763 0.000000 0.999993
vn 0.003763 0.000000 0.999993
vn 0.003763 0.000000 0.999993
vn 0.003763 0.000000 0.999993
vn 0.003763 0.000000 0.999993
vn -0.003569 0.000000 0.999994
vn -0.003569 0.000000 0.999994
vn -0.003569 0.000000 0.999994
vn -0.003569 0.000000 0.999994
vn -0.999923 0.000000 0.012406
vn -0.999923 0.000000 0.012406
vn -0.999923 0.000000 0.012406
vn -0.999923 0.000000 0.012406
vn 0.003562 0.000000 0.999994
vn 0.003562 0.000000 0.999994
vn 0.003562 0.000000 0.999994
vn 0.003562 0.000000 0.999994
vn 0.999923 0.000000 0.012405
vn 0.999923 0.000000 0.012405
vn 0.999923 0.000000 0.012405
vn 0.999923 0.000000 0.012405
vn -0.003569 0.000000 0.999994
vn -0.003569 0.000000 0.999994
vn -0.003569 0.000000 0.999994
vn -0.003569 0.000000 0.999994
vn -0.999923 0.000000 0.012406
vn -0.999923 0.000000 0.012406
vn -0.999923 0.000000 0.012406
vn -0.999923 0.000000 0.012406
vn 0.003562 0.000000 0.999994
vn 0.003562 0.000000 0.999994
vn 0.003562 0.000000 0.999994
vn 0.003562 0.000000 0.999994
vn 0.999923 0.000000 0.012405
vn 0.999923 0.000000 0.012405
vn 0.999923 0.000000 0.012405
vn 0.999923 0.000000 0.012405
vn 0.999994 0.000000 0.003562
vn 0.999994 0.000000 0.003562
vn 0.999994 0.000000 0.003562
vn 0.999994 0.000000 0.003562
vn -0.999994 0.000000 0.003563
vn -0.999994 0.000000 0.003563
vn -0.999994 0.000000 0.003563
vn -0.999994 0.000000 0.003563
vn 0.999994 0.000000 0.003562
vn 0.999994 0.000000 0.003562
vn 0.999994 0.000000 0.003562
vn 0.999994 0.000000 0.003562
vn -0.999994 0.000000 0.003563
vn -0.999994 0.000000 0.003563
vn -0.999994 0.000000 0.003563
vn -0.999994 0.000000 0.003563
vn 0.381930 0.897500 -0.220508
vn 0.220508 0.897500 -0.381931
vn 0.193984 0.921673 -0.335991
vn 0.335991 0.921673 -0.193985
vn 0.000000 0.897500 -0.441015
vn 0.000000 0.921672 -0.387969
vn -0.220508 0.897500 -0.381930
vn -0.193984 0.921673 -0.335991
vn -0.381930 0.897500 -0.220508
vn -0.335991 0.921673 -0.193984
vn -0.441015 0.897500 0.000000
vn -0.387969 0.921673 0.000000
vn -0.381930 0.897500 0.220508
vn -0.335991 0.921673 0.193985
vn -0.220508 0.897500 0.381931
vn -0.193984 0.921673 0.335991
vn 0.000000 0.897500 0.441015
vn 0.000000 0.921672 0.387969
vn 0.220508 0.897500 0.381930
vn 0.193984 0.921673 0.335991
vn 0.381930 0.897500 0.220508
vn 0.335991 0.921673 0.193984
vn 0.441015 0.897500 -0.000000
vn 0.387969 0.921673 -0.000000
vn -0.000000 1.000000 -0.000000
vn 0.000000 0.000000 -1.000000
vn 0.000000 0.000000 -1.000000
vn 0.000000 0.000000 -1.000000
vn 0.000000 0.000000 -1.000000
vn 0.000000 -1.000000 0.000000
vn 0.000000 -1.000000 0.000000
vn 0.000000 -1.000000 0.000000
vn 0.000000 -1.000000 0.000000
vn 1.000000 0.000000 0.000000
vn 1.000000 0.000000 0.000000
vn 1.000000 0.000000 0.000000
vn 1.000000 0.000000 0.000000
vn -1.000000 0.000000 0.000000
vn -1.000000 0.000000 0.000000
vn -1.000000 0.000000 0.000000
vn -1.000000 0.000000 0.000000
vn 0.000000 0.000000 1.000000
vn 0.000000 0.000000 1.000000
vn 0.000000 0.000000 1.000000
vn 0.000000 0.000000 1.000000
f 3/1/1 4/2/2 1/3/3 2/4/4
f 7/5/5 8/6/6 5/7/7 6/8/8
f 14/9/9 18/10/10 19/11/11 16/12/12
f 9/13/13 17/14/14 18/10/10 14/9/9
f 10/15/15 11/16/16 15/17/17 13/18/18
f 20/19/19 12/20/20 16/12/12 19/11/11
f 12/20/20 9/13/13 14/9/9 16/12/12
f 17/14/14 10/15/15 13/18/18 18/10/10
f 19/11/11 18/10/10 13/18/18 15/17/17
f 11/16/16 20/19/19 19/11/11 15/17/17
f 26/21/21 30/22/22 31/23/23 28/24/24
f 21/25/25 29/26/26 30/22/22 26/21/21
f 22/27/27 23/28/28 27/29/29 25/30/30
f 32/31/31 24/32/32 28/24/24 31/23/23
f 24/32/32 21/25/25 26/21/21 28/24/24
f 29/26/26 22/27/27 25/30/30 30/22/22
f 31/23/23 30/22/22 25/30/30 27/29/29
f 23/28/28 32/31/31 31/23/23 27/29/29
f 38/33/33 40/34/34 43/35/35 42/36/36
f 33/37/37 38/33/33 42/36/36 41/38/38
f 34/39/39 37/40/40 39/41/41 35/42/42
f 44/43/43 43/35/35 40/34/34 36/44/44
f 36/44/44 40/34/34 38/33/33 33/37/37
f 41/38/38 42/36/36 37/40/40 34/39/39
f 43/35/35 39/41/41 37/40/40 42/36/36
f 35/42/42 39/41/41 43/35/35 44/43/43
f 50/45/45 52/46/46 55/47/47 54/48/48
f 45/49/49 50/45/45 54/48/48 53/50/50
f 46/51/51 49/52/52 51/53/53 47/54/54
f 56/55/55 55/47/47 52/46/46 48/56/56
f 48/56/56 52/46/46 50/45/45 45/49/49
f 53/50/50 54/48/48 49/52/52 46/51/51
f 55/47/47 51/53/53 49/52/52 54/48/48
f 47/54/54 51/53/53 55/47/47 56/55/55
f 57/57/57 58/58/58 70/59/59 69/60/60
f 58/58/58 59/61/61 71/62/62 70/59/59
f 59/61/61 60/63/63 72/64/64 71/62/62
f 60/63/63 61/65/65 73/66/66 72/64/64
f 61/65/65 62/67/67 74/68/68 73/66/66
f 62/67/67 63/69/69 75/70/70 74/68/68
f 63/69/69 64/71/71 76/72/72 75/70/70
f 64/71/71 65/73/73 77/74/74 76/72/72
f 65/73/73 66/75/75 78/76/76 77/74/74
f 66/75/75 67/77/77 79/78/78 78/76/76
f 67/77/77 68/79/79 80/80/80 79/78/78
f 68/79/79 57/57/57 69/60/60 80/80/80
f 69/60/60 70/59/59 81/81/81
f 70/59/59 71/62/62 81/81/81
f 71/62/62 72/64/64 81/81/81
f 72/64/64 73/66/66 81/81/81
f 73/66/66 74/68/68 81/81/81
f 74/68/68 75/70/70 81/81/81
f 75/70/70 76/72/72 81/81/81
f 76/72/72 77/74/74 81/81/81
f 77/74/74 78/76/76 81/81/81
f 78/76/76 79/78/78 81/81/81
f 79/78/78 80/80/80 81/81/81
f 80/80/80 69/60/60 81/81/81
f 82/82/82 83/83/83 84/84/84 85/85/85
f 86/86/86 87/87/87 88/88/88 89/89/89
f 90/90/90 91/91/91 92/92/92 93/93/93
f 91/91/94 90/90/95 94/94/96 95/95/97
f 96/96/98 97/97/99 98/98/100 99/99/101
f 96/96/102 99/99/103 100/100/104 101/101/105
f 102/102/106 103/103/107 104/104/108 105/105/109
f 103/103/110 102/102/111 106/106/112 107/107/113
f 108/108/114 109/109/115 110/110/116 111/111/117
f 108/108/118 111/111/119 112/112/120 113/113/121
f 93/114/122 92/115/123 115/116/124 114/117/125
f 98/118/126 97/119/127 116/120/128 117/121/129
f 105/122/130 104/123/131 119/124/132 118/125/133
f 110/126/134 109/127/135 120/128/136 121/129/137
f 122/130/138 123/131/139 135/132/140 134/133/141
f 123/131/139 124/134/142 136/135/143 135/132/140
f 124/134/142 125/136/144 137/137/145 136/135/143
f 125/136/144 126/138/146 138/139/147 137/137/145
f 126/138/146 127/140/148 139/141/149 138/139/147
f 127/140/148 128/142/150 140/143/151 139/141/149
f 128/142/150 129/144/152 141/145/153 140/143/151
f 129/144/152 130/146/154 142/147/155 141/145/153
f 130/146/154 131/148/156 143/149/157 142/147/155
f 131/148/156 132/150/158 144/151/159 143/149/157
f 132/150/158 133/152/160 145/153/161 144/151/159
f 133/152/160 122/130/138 134/133/141 145/153/161
f 134/133/141 135/132/140 146/154/162
f 135/132/140 136/135/143 146/154/162
f 136/135/143 137/137/145 146/154/162
f 137/137/145 138/139/147 146/154/162
f 138/139/147 139/141/149 146/154/162
f 139/141/149 140/143/151 146/154/162
f 140/143/151 141/145/153 146/154/162
f 141/145/153 142/147/155 146/154/162
f 142/147/155 143/149/157 146/154/162
f 143/149/157 144/151/159 146/154/162
f 144/151/159 145/153/161 146/154/162
f 145/153/161 134/133/141 146/154/162
f 151/155/163 152/156/164 154/157/165 153/158/166
f 153/158/167 154/157/168 148/159/169 147/160/170
f 148/159/171 154/157/172 152/156/173 150/161/174
f 153/158/175 147/160/176 149/162/177 151/155/178
f 150/161/179 149/162/180 147/160/181 148/159/182
