# This file uses meters as units for non-parametric coordinates.

v -19.318686 0.000000 11.924363
v 19.318686 0.000000 11.924363
v -20.728749 12.896723 13.334427
v 20.728749 12.896723 13.334427
v -20.728749 12.896723 -18.959125
v 20.728749 12.896723 -18.959125
v -19.318686 0.000000 -17.549062
v 19.318686 0.000000 -17.549062
v 20.728749 6.426171 13.334427
v -20.728749 6.426171 13.334427
v -20.728749 6.426171 -18.959125
v 20.728749 6.426171 -18.959125
v -20.728749 6.957244 13.334427
v -20.728749 6.957244 -18.959125
v 20.728749 6.957244 -18.959125
v 20.728749 6.957244 13.334427
v -20.451974 6.604628 13.057651
v -20.451974 6.604628 -18.682349
v 20.451974 6.604628 -18.682349
v 20.451974 6.604628 13.057651
v -15.355840 12.938777 13.367028
v -15.355840 12.938777 7.856170
v -15.527823 12.938777 8.130778
v -15.527823 12.938777 13.367028
v -15.178204 12.938777 7.703557
v -15.527823 12.938777 7.703557
v 6.029408 12.938777 7.856170
v 6.029408 12.938777 7.703557
v -15.355840 8.657728 13.367028
v -15.527824 8.706925 13.367028
v -15.355840 8.475281 13.367028
v -15.527824 8.475281 13.367028
v 5.971409 8.475281 13.367028
v 5.971409 8.657728 13.367028
v 6.249828 -0.008783 11.964389
v 15.058327 -0.008783 11.964389
v 15.059349 6.438999 13.365541
v 5.971409 6.438999 13.365541
v 5.971409 12.917210 13.354916
v 15.059349 12.917210 13.354916
v 15.059349 12.917210 -18.979615
v 5.971409 12.917210 -18.979615
v 5.971409 6.438999 -18.990242
v 15.059349 6.438999 -18.990242
v 15.058327 -0.008783 -17.589088
v 6.249828 -0.008783 -17.589088
v 5.859010 6.609198 13.084870
v 14.850848 6.609198 13.084870
v 5.859011 6.609198 -18.709571
v 14.850847 6.609198 -18.709571
v 15.059349 6.944593 -18.995732
v 5.971410 6.944593 -18.995732
v 5.971409 6.944593 13.371033
v 15.059349 6.944593 13.371033
v 15.059349 12.917210 7.599977
v 5.971409 12.917210 7.599977
v 15.059349 12.917210 -13.331018
v 5.971409 12.917210 -13.331018
v -14.649204 2.133123 13.628446
v -10.477279 2.133123 13.628446
v -14.649204 3.417495 13.628446
v -10.477279 3.417495 13.628446
v -14.649204 3.417495 10.697065
v -10.477279 3.417495 10.697065
v -14.649204 2.133123 10.697065
v -10.477279 2.133123 10.697065
v -8.643784 2.133123 13.628446
v -4.471859 2.133123 13.628446
v -8.643784 3.417495 13.628446
v -4.471859 3.417495 13.628446
v -8.643784 3.417495 10.697065
v -4.471859 3.417495 10.697065
v -8.643784 2.133123 10.697065
v -4.471859 2.133123 10.697065
vt 0.332864 0.957024
vt 0.330398 0.957024
vt 0.321781 0.956693
vt 0.319226 0.956693
vt 0.332864 0.945533
vt 0.332864 0.946694
vt 0.319480 0.946363
vt 0.321902 0.946363
vt 0.330570 0.957024
vt 0.319226 0.958709
vt 0.321659 0.946363
vt 0.332864 0.944620
vt 0.364719 0.948420
vt 0.364719 0.958556
vt 0.354550 0.958556
vt 0.354797 0.958556
vt 0.364719 0.955398
vt 0.364719 0.955278
vt 0.351681 0.951156
vt 0.351681 0.951047
vt 0.361358 0.948420
vt 0.361522 0.948420
vt 0.351354 0.958556
vt 0.351681 0.948420
vt 0.351354 0.955278
vt 0.354961 0.948420
vt 0.361358 0.958556
vt 0.364719 0.951156
vt 0.351354 0.955398
vt 0.354694 0.948420
vt 0.361522 0.958556
vt 0.364719 0.951047
vt 0.319226 0.957925
vt 0.321604 0.956693
vt 0.332864 0.958075
vt 0.332864 0.958856
vt 0.330740 0.946694
vt 0.330563 0.946694
vt 0.319480 0.944283
vt 0.319480 0.945192
vt 0.262923 0.981894
vt 0.262878 0.983527
vt 0.262770 0.983527
vt 0.262815 0.981894
vt 0.262875 0.983661
vt 0.262766 0.983661
vt 0.269440 0.983527
vt 0.269439 0.983661
vt 0.262923 0.983444
vt 0.262815 0.983444
vt 0.262923 0.983550
vt 0.262815 0.983550
vt 0.260390 0.983917
vt 0.262100 0.983917
vt 0.262100 0.985627
vt 0.260390 0.985627
vt 0.382079 0.995715
vt 0.394673 0.995787
vt 0.394453 0.981844
vt 0.382218 0.981802
vt 0.381942 0.995382
vt 0.394794 0.995390
vt 0.394014 0.988463
vt 0.382707 0.988449
vt 0.382522 0.994717
vt 0.393759 0.994664
vt 0.393779 0.980062
vt 0.382632 0.980156
vt 0.382271 0.981173
vt 0.394319 0.981199
vt 0.382565 0.995329
vt 0.393677 0.995296
vt 0.382255 0.979861
vt 0.394129 0.979852
vt 0.393860 0.996465
vt 0.382546 0.996431
vt 0.382329 0.980051
vt 0.394557 0.980042
vt 0.383131 0.987166
vt 0.393225 0.987133
vt 0.321469 0.947783
vt 0.333993 0.947783
vt 0.333993 0.960308
vt 0.321469 0.960308
vt 0.333993 0.947783
vt 0.321469 0.947783
vt 0.321469 0.960308
vt 0.333993 0.960308
vt 0.321469 0.947783
vt 0.321469 0.960308
vt 0.333993 0.947783
vt 0.333993 0.960308
vt 0.321469 0.947783
vt 0.333993 0.947783
vt 0.333993 0.960308
vt 0.321469 0.960308
vt 0.333993 0.947783
vt 0.321469 0.947783
vt 0.321469 0.960308
vt 0.333993 0.960308
vt 0.321469 0.947783
vt 0.321469 0.960308
vt 0.333993 0.947783
vt 0.333993 0.960308
vn 0.000000 -0.214326 0.976762
vn 0.000000 -0.214326 0.976762
vn 0.000000 -0.214326 0.976762
vn 0.000000 -0.214326 0.976762
vn 0.000000 1.000000 0.000000
vn 0.000000 1.000000 0.000000
vn 0.000000 1.000000 0.000000
vn 0.000000 1.000000 0.000000
vn 0.000000 -0.214326 -0.976762
vn 0.000000 -0.214326 -0.976762
vn 0.000000 -0.214326 -0.976762
vn 0.000000 -0.214326 -0.976762
vn 0.000000 -1.000000 0.000000
vn 0.000000 -1.000000 0.000000
vn 0.000000 -1.000000 0.000000
vn 0.000000 -1.000000 0.000000
vn 0.976762 -0.214326 0.000000
vn 0.976762 -0.214326 0.000000
vn 0.976762 -0.214326 0.000000
vn 0.976762 -0.214326 0.000000
vn -0.976762 -0.214326 0.000000
vn -0.976762 -0.214326 0.000000
vn -0.976762 -0.214326 0.000000
vn -0.976762 -0.214326 0.000000
vn 0.000000 0.840445 0.541896
vn 0.000000 0.840445 0.541896
vn 0.000000 0.840445 0.541896
vn 0.000000 0.840445 0.541896
vn -0.541897 0.840445 0.000000
vn -0.541897 0.840445 0.000000
vn -0.541897 0.840445 0.000000
vn -0.541897 0.840445 0.000000
vn 0.000000 0.840445 -0.541896
vn 0.000000 0.840445 -0.541896
vn 0.000000 0.840445 -0.541896
vn 0.000000 0.840445 -0.541896
vn 0.541897 0.840445 0.000000
vn 0.541897 0.840445 0.000000
vn 0.541897 0.840445 0.000000
vn 0.541897 0.840445 0.000000
vn -1.000000 0.000000 0.000000
vn -1.000000 0.000000 0.000000
vn -1.000000 0.000000 0.000000
vn -1.000000 0.000000 0.000000
vn 0.000000 0.000000 -1.000000
vn 0.000000 0.000000 -1.000000
vn 0.000000 0.000000 -1.000000
vn 0.000000 0.000000 -1.000000
vn 1.000000 0.000000 0.000000
vn 1.000000 0.000000 0.000000
vn 1.000000 0.000000 0.000000
vn 1.000000 0.000000 0.000000
vn 0.000000 0.000000 1.000000
vn 0.000000 0.000000 1.000000
vn 0.000000 0.000000 1.000000
vn 0.000000 0.000000 1.000000
vn -0.786622 -0.617434 0.000000
vn -0.786622 -0.617434 0.000000
vn -0.786622 -0.617435 0.000000
vn -0.786622 -0.617435 0.000000
vn 0.000000 -0.617435 -0.786622
vn 0.000000 -0.617435 -0.786622
vn 0.000000 -0.617435 -0.786622
vn 0.000000 -0.617435 -0.786622
vn 0.786622 -0.617434 0.000000
vn 0.786622 -0.617434 0.000000
vn 0.786622 -0.617435 0.000000
vn 0.786622 -0.617435 0.000000
vn 0.000000 -0.617435 0.786622
vn 0.000000 -0.617435 0.786622
vn 0.000000 -0.617435 0.786622
vn 0.000000 -0.617435 0.786622
vn 0.000000 1.000000 0.000000
vn 0.000000 1.000000 -0.000001
vn 0.000000 1.000000 0.000000
vn 0.000000 1.000000 0.000000
vn 0.000000 1.000000 -0.000001
vn 0.000000 1.000000 0.000003
vn 0.000000 1.000000 -0.000001
vn 0.000000 1.000000 -0.000001
vn 0.000002 0.000000 1.000000
vn 0.000002 0.000000 1.000000
vn 0.000002 0.000000 1.000000
vn 0.000002 0.000000 1.000000
vn 0.000005 0.000000 1.000000
vn 0.000005 0.000000 1.000000
vn 0.000000 0.000000 1.000000
vn 0.000000 0.000000 1.000000
vn 0.000000 0.000000 1.000000
vn 0.000000 0.000000 1.000000
vn 0.000000 -0.212352 0.977193
vn 0.000000 -0.212352 0.977193
vn 0.000000 -0.212352 0.977193
vn 0.000000 -0.212352 0.977193
vn 0.000000 1.000000 0.000000
vn 0.000000 1.000000 0.000000
vn 0.000000 1.000000 0.000000
vn 0.000000 1.000000 0.000000
vn 0.000000 -0.212352 -0.977193
vn 0.000000 -0.212352 -0.977193
vn 0.000000 -0.212352 -0.977193
vn 0.000000 -0.212352 -0.977193
vn 0.000000 0.855070 0.518512
vn 0.000000 0.855070 0.518512
vn 0.000000 0.855070 0.518512
vn 0.000000 0.855070 0.518512
vn 0.000000 0.855069 -0.518513
vn 0.000000 0.855069 -0.518513
vn 0.000000 0.855069 -0.518513
vn 0.000000 0.855070 -0.518513
vn 0.000000 0.002698 -0.999996
vn 0.000000 0.002698 -0.999996
vn 0.000000 0.002698 -0.999996
vn 0.000000 0.002698 -0.999996
vn 0.000000 0.002698 0.999996
vn 0.000000 0.002698 0.999996
vn 0.000000 0.002698 0.999996
vn 0.000000 0.002698 0.999996
vn 0.000000 -0.649063 -0.760735
vn 0.000000 -0.649063 -0.760735
vn 0.000000 -0.649063 -0.760735
vn 0.000000 -0.649063 -0.760735
vn 0.000000 -0.649065 0.760733
vn 0.000000 -0.649065 0.760733
vn 0.000000 -0.649065 0.760733
vn 0.000000 -0.649065 0.760733
vn 0.000000 1.000000 0.000000
vn 0.000000 1.000000 0.000000
vn 0.000000 1.000000 0.000000
vn 0.000000 1.000000 0.000000
vn 0.000000 0.000000 1.000000
vn 0.000000 0.000000 1.000000
vn 0.000000 0.000000 1.000000
vn 0.000000 0.000000 1.000000
vn 0.000000 1.000000 0.000000
vn 0.000000 1.000000 0.000000
vn 0.000000 1.000000 0.000000
vn 0.000000 1.000000 0.000000
vn 0.000000 -1.000000 0.000000
vn 0.000000 -1.000000 0.000000
vn 0.000000 -1.000000 0.000000
vn 0.000000 -1.000000 0.000000
vn 1.000000 0.000000 0.000000
vn 1.000000 0.000000 0.000000
vn 1.000000 0.000000 0.000000
vn 1.000000 0.000000 0.000000
vn -1.000000 0.000000 0.000000
vn -1.000000 0.000000 0.000000
vn -1.000000 0.000000 0.000000
vn -1.000000 0.000000 0.000000
vn 0.000000 0.000000 1.000000
vn 0.000000 0.000000 1.000000
vn 0.000000 0.000000 1.000000
vn 0.000000 0.000000 1.000000
vn 0.000000 1.000000 0.000000
vn 0.000000 1.000000 0.000000
vn 0.000000 1.000000 0.000000
vn 0.000000 1.000000 0.000000
vn 0.000000 -1.000000 0.000000
vn 0.000000 -1.000000 0.000000
vn 0.000000 -1.000000 0.000000
vn 0.000000 -1.000000 0.000000
vn 1.000000 0.000000 0.000000
vn 1.000000 0.000000 0.000000
vn 1.000000 0.000000 0.000000
vn 1.000000 0.000000 0.000000
vn -1.000000 0.000000 0.000000
vn -1.000000 0.000000 0.000000
vn -1.000000 0.000000 0.000000
vn -1.000000 0.000000 0.000000
f 2/1/1 9/35/2 10/33/3 1/4/4
f 4/13/5 6/14/6 5/23/7 3/24/8
f 12/5/9 8/6/10 7/7/11 11/40/12
f 8/6/13 2/1/14 1/4/15 7/7/16
f 2/1/17 8/6/18 12/38/19 9/2/20
f 7/7/21 1/4/22 10/3/23 11/8/24
f 10/33/25 9/35/26 20/36/27 17/10/28
f 11/8/29 10/3/30 17/34/31 18/11/32
f 12/5/33 11/40/34 18/39/35 19/12/36
f 9/2/37 12/38/38 19/37/39 20/9/40
f 14/16/41 13/26/42 3/24/43 5/23/44
f 5/23/45 6/14/46 15/18/47 14/25/48
f 16/21/49 15/27/50 6/14/51 4/13/52
f 4/13/53 3/24/54 13/19/55 16/28/56
f 18/15/57 17/30/58 13/26/59 14/16/60
f 14/25/61 15/18/62 19/17/63 18/29/64
f 20/22/65 19/31/66 15/27/67 16/21/68
f 16/28/69 13/19/70 17/20/71 20/32/72
f 21/41/73 22/42/74 23/43/75 24/44/76
f 22/42/74 25/45/77 26/46/78 23/43/75
f 22/42/74 27/47/79 28/48/80 25/45/77
f 29/49/81 21/41/82 24/44/83 30/50/84
f 31/51/85 29/49/81 30/50/84 32/52/86
f 29/53/87 31/54/88 33/55/89 34/56/90
f 35/57/91 36/58/92 37/59/93 38/60/94
f 39/61/95 40/62/96 55/63/97 56/64/98
f 43/65/99 44/66/100 45/67/101 46/68/102
f 47/69/103 38/60/104 37/59/105 48/70/106
f 49/71/107 50/72/108 44/66/109 43/65/110
f 42/73/111 41/74/112 51/75/113 52/76/114
f 39/61/115 53/77/116 54/78/117 40/62/118
f 52/76/119 51/75/120 50/72/121 49/71/122
f 53/77/123 47/69/124 48/70/125 54/78/126
f 58/79/127 57/80/128 41/74/129 42/73/130
f 59/81/131 60/82/132 62/83/133 61/84/134
f 61/84/135 62/83/136 64/85/137 63/86/138
f 65/87/139 66/88/140 60/82/141 59/81/142
f 60/82/143 66/89/144 64/90/145 62/83/146
f 65/91/147 59/81/148 61/84/149 63/92/150
f 67/93/151 68/94/152 70/95/153 69/96/154
f 69/96/155 70/95/156 72/97/157 71/98/158
f 73/99/159 74/100/160 68/94/161 67/93/162
f 68/94/163 74/101/164 72/102/165 70/95/166
f 73/103/167 67/93/168 69/96/169 71/104/170
