# This file uses meters as units for non-parametric coordinates.

v -2.971459 1.954632 -11.130342
v 2.912226 1.954632 -11.130342
v 2.912226 1.954632 -12.933195
v -2.971459 1.954632 -12.933195
v -8.849667 1.871771 -10.117268
v 8.790434 1.871771 -10.117268
v 8.790434 1.871771 -13.575551
v -8.849667 1.871771 -13.575551
v -7.733053 1.924494 12.717743
v -4.501426 1.924494 12.717743
v -7.733053 1.924495 8.034573
v -4.501426 1.924495 8.034573
v 4.402796 1.924495 11.255075
v 7.064104 1.924495 11.255075
v 4.402796 1.924495 9.295332
v 7.064104 1.924495 9.295332
v -0.774748 1.924495 10.755192
v 2.898000 1.924495 10.755192
v -0.774748 1.924495 9.739771
v 2.898000 1.924495 9.739771
v -4.245779 1.924494 12.262759
v -1.353216 1.924494 12.262759
v -4.245779 1.924494 8.761506
v -1.353216 1.924494 8.761506
vt 0.065805 0.606380
vt 0.096028 0.606380
vt 0.096028 0.615080
vt 0.065805 0.615080
vt 0.250448 0.990963
vt 0.280671 0.990963
vt 0.280671 0.999662
vt 0.250448 0.999662
vt 0.187619 0.686574
vt 0.187619 0.660329
vt 0.206202 0.660329
vt 0.206202 0.686574
vt 0.226068 0.717510
vt 0.226068 0.703814
vt 0.244650 0.703814
vt 0.244650 0.717510
vt 0.224038 0.702294
vt 0.224038 0.694139
vt 0.247356 0.694139
vt 0.247356 0.702294
vt 0.290539 0.953586
vt 0.290539 0.927308
vt 0.311061 0.927308
vt 0.311061 0.953586
vn 0.000000 1.000000 0.000000
vn 0.000000 1.000000 0.000000
vn 0.000000 1.000000 0.000000
vn 0.000000 1.000000 0.000000
vn 0.000000 1.000000 0.000000
vn 0.000000 1.000000 0.000000
vn 0.000000 1.000000 0.000000
vn 0.000000 1.000000 0.000000
vn 0.000000 1.000000 0.000000
vn 0.000000 1.000000 0.000000
vn 0.000000 1.000000 0.000000
vn 0.000000 1.000000 0.000000
vn 0.000000 1.000000 0.000000
vn 0.000000 1.000000 0.000000
vn 0.000000 1.000000 0.000000
vn 0.000000 1.000000 0.000000
vn 0.000000 1.000000 0.000000
vn 0.000000 1.000000 0.000000
vn 0.000000 1.000000 0.000000
vn 0.000000 1.000000 0.000000
vn 0.000000 1.000000 0.000000
vn 0.000000 1.000000 0.000000
vn 0.000000 1.000000 0.000000
vn 0.000000 1.000000 0.000000
f 1/1/1 2/2/2 3/3/3 4/4/4
f 5/5/5 6/6/6 7/7/7 8/8/8
f 11/9/9 9/10/10 10/11/11 12/12/12
f 15/13/13 13/14/14 14/15/15 16/16/16
f 19/17/17 17/18/18 18/19/19 20/20/20
f 23/21/21 21/22/22 22/23/23 24/24/24
