# This file uses meters as units for non-parametric coordinates.

v -8.798151 -0.031047 13.575551
v 8.790433 -0.031047 13.575551
v -8.798151 1.811732 13.575551
v -8.798151 -0.031047 3.601150
v -8.798151 1.811732 3.601150
v 8.790433 -0.031047 3.601150
vt 0.382884 0.822515
vt 0.382884 0.836500
vt 0.396869 0.822515
vt 0.382884 0.822515
vt 0.388022 0.822515
vt 0.382884 0.827653
vt 0.388022 0.836500
vt 0.396869 0.827653
vn -1.000000 0.000000 0.000000
vn -1.000000 0.000000 0.000000
vn -1.000000 0.000000 0.000000
vn -1.000000 0.000000 0.000000
vn 0.000000 -1.000000 0.000000
vn 0.000000 -1.000000 0.000000
vn 0.000000 -1.000000 0.000000
vn 0.000000 -1.000000 0.000000
f 4/5/1 1/1/2 3/2/3 5/7/4
f 4/6/5 6/8/6 2/3/7 1/4/8
