# This file uses meters as units for non-parametric coordinates.

v 0.927910 0.941584 -11.472502
v 16.652958 0.941584 -11.472502
v 0.927910 0.941584 11.888482
v 16.652958 0.941584 11.888482
v -0.042880 0.905866 3.666057
v -0.042880 0.905866 3.531615
v -0.042880 0.000000 3.531615
v -0.042880 0.000000 3.666057
v 0.498832 0.677909 13.266645
v 17.082031 0.677909 13.266645
v 17.082031 0.677909 -13.266645
v 0.498832 0.677909 -13.266645
v 17.082031 -0.000000 13.266645
v 0.498832 -0.000000 13.266645
v 0.498832 -0.000000 -13.266645
v 17.082031 -0.000000 -13.266645
v -0.000001 -0.000000 13.575551
v 17.580868 -0.000000 13.575551
v -0.000001 -0.000000 -13.575551
v 17.580868 -0.000000 -13.575551
vt 0.322756 0.978801
vt 0.337215 0.978801
vt 0.337215 0.993260
vt 0.322756 0.993260
vt 0.364453 0.920595
vt 0.350468 0.920595
vt 0.350468 0.927588
vt 0.364453 0.927588
vt 0.319034 0.992881
vt 0.333018 0.992881
vt 0.333018 0.978896
vt 0.319034 0.978896
vt 0.319034 0.985888
vt 0.333018 0.985888
vt 0.333018 0.985888
vt 0.333018 0.992881
vt 0.333018 0.985888
vt 0.319034 0.985888
vt 0.319034 0.985888
vt 0.319034 0.992881
vt 0.319034 0.985888
vt 0.333018 0.985888
vt 0.333018 0.985888
vt 0.333018 0.985888
vt 0.319034 0.985888
vt 0.319034 0.985888
vn 0.000000 1.000000 0.000000
vn 0.000000 1.000000 0.000000
vn 0.000000 1.000000 0.000000
vn 0.000000 1.000000 0.000000
vn -1.000000 0.000000 0.000000
vn -1.000000 0.000000 0.000000
vn -1.000000 0.000000 0.000000
vn -1.000000 0.000000 0.000000
vn 0.000000 1.000000 0.000000
vn 0.000000 1.000000 0.000000
vn 0.000000 1.000000 0.000000
vn 0.000000 1.000000 0.000000
vn 0.000000 0.000000 1.000000
vn 0.000000 0.000000 1.000000
vn 0.000000 0.000000 1.000000
vn 0.000000 0.000000 1.000000
vn -1.000000 0.000000 0.000000
vn -1.000000 0.000000 0.000000
vn -1.000000 0.000000 0.000000
vn -1.000000 0.000000 0.000000
vn 0.000000 0.000000 -1.000000
vn 0.000000 0.000000 -1.000000
vn 0.000000 0.000000 -1.000000
vn 0.000000 0.000000 -1.000000
vn 1.000000 0.000000 0.000000
vn 1.000000 0.000000 0.000000
vn 1.000000 0.000000 0.000000
vn 1.000000 0.000000 0.000000
vn -0.000000 1.000000 0.000000
vn -0.000000 1.000000 0.000000
vn -0.000000 1.000000 0.000000
vn -0.000000 1.000000 0.000000
vn 0.000000 1.000000 0.000000
vn 0.000000 1.000000 0.000000
vn 0.000000 1.000000 0.000000
vn 0.000000 1.000000 0.000000
vn -0.000000 1.000000 -0.000000
vn -0.000000 1.000000 -0.000000
vn -0.000000 1.000000 -0.000000
vn -0.000000 1.000000 -0.000000
vn 0.000000 1.000000 0.000000
vn 0.000000 1.000000 0.000000
vn 0.000000 1.000000 0.000000
vn 0.000000 1.000000 0.000000
f 3/1/1 4/2/2 2/3/3 1/4/4
f 7/5/5 8/6/6 5/7/7 6/8/8
f 9/9/9 10/10/10 11/11/11 12/12/12
f 14/13/13 13/14/14 10/10/15 9/9/16
f 15/15/17 14/13/18 9/9/19 12/16/20
f 12/12/21 11/11/22 16/17/23 15/18/24
f 13/14/25 16/19/26 11/20/27 10/10/28
f 17/21/29 18/22/30 13/14/31 14/13/32
f 19/23/33 17/21/34 14/13/35 15/15/36
f 20/24/37 19/25/38 15/18/39 16/17/40
f 18/22/41 20/26/42 16/19/43 13/14/44
