# This file uses meters as units for non-parametric coordinates.

v 8.168066 -0.941773 2.700379
v 4.963884 -0.941773 2.700379
v 8.168066 -0.941773 -0.439842
v 4.963884 -0.941773 -0.439842
v 11.773112 -0.941773 2.700379
v 8.568930 -0.941773 2.700379
v 11.773112 -0.941773 -0.439842
v 8.568930 -0.941773 -0.439842
v 15.382450 -0.941773 2.700379
v 12.178268 -0.941773 2.700379
v 15.382450 -0.941773 -0.439842
v 12.178268 -0.941773 -0.439842
v 3.182734 -0.941773 -3.083382
v 1.289143 -0.941773 -3.083382
v 3.182734 -0.941773 -4.939175
v 1.289143 -0.941773 -4.939175
v 3.556374 -0.941773 -5.708102
v 1.662783 -0.941773 -5.708102
v 3.556374 -0.941773 -7.563894
v 1.662783 -0.941773 -7.563894
v 3.242044 -0.941773 -8.552391
v 1.348453 -0.941773 -8.552391
v 3.242044 -0.941773 -10.408183
v 1.348453 -0.941773 -10.408183
vt 0.520875 0.467336
vt 0.502037 0.467336
vt 0.520875 0.485969
vt 0.502037 0.485969
vt 0.559335 0.484528
vt 0.559335 0.465895
vt 0.540497 0.465895
vt 0.540497 0.484528
vt 0.538016 0.476030
vt 0.538016 0.457396
vt 0.519179 0.457396
vt 0.519179 0.476030
vt 0.529892 0.457877
vt 0.529892 0.450348
vt 0.522281 0.450348
vt 0.522281 0.457877
vt 0.515021 0.481857
vt 0.515021 0.474328
vt 0.507410 0.474328
vt 0.507410 0.481857
vt 0.541046 0.481857
vt 0.541046 0.474328
vt 0.533434 0.474328
vt 0.533434 0.481857
vn 0.000000 -1.000000 0.000000
vn 0.000000 -1.000000 0.000000
vn 0.000000 -1.000000 0.000000
vn 0.000000 -1.000000 0.000000
vn 0.000000 -1.000000 0.000000
vn 0.000000 -1.000000 0.000000
vn 0.000000 -1.000000 0.000000
vn 0.000000 -1.000000 0.000000
vn 0.000000 -1.000000 0.000000
vn 0.000000 -1.000000 0.000000
vn 0.000000 -1.000000 0.000000
vn 0.000000 -1.000000 0.000000
vn 0.000000 -1.000000 -0.000000
vn 0.000000 -1.000000 -0.000000
vn 0.000000 -1.000000 -0.000000
vn 0.000000 -1.000000 -0.000000
vn 0.000000 -1.000000 -0.000000
vn 0.000000 -1.000000 -0.000000
vn 0.000000 -1.000000 -0.000000
vn 0.000000 -1.000000 -0.000000
vn 0.000000 -1.000000 -0.000000
vn 0.000000 -1.000000 -0.000000
vn 0.000000 -1.000000 -0.000000
vn 0.000000 -1.000000 -0.000000
f 3/3/1 1/1/2 2/2/3 4/4/4
f 7/5/5 5/6/6 6/7/7 8/8/8
f 11/9/9 9/10/10 10/11/11 12/12/12
f 15/13/13 13/14/14 14/15/15 16/16/16
f 19/17/17 17/18/18 18/19/19 20/20/20
f 23/21/21 21/22/22 22/23/23 24/24/24
