# This file uses meters as units for non-parametric coordinates.

v -0.000001 0.905866 13.575551
v 17.580866 0.905866 13.575551
v -0.000001 0.905866 -13.575551
v 17.580866 0.905866 -13.575551
v -0.000001 -0.000000 13.575551
v 17.580866 -0.000000 13.575551
v -0.000001 -0.000000 -13.575551
v 17.580866 -0.000000 -13.575551
vt 0.319034 0.961631
vt 0.333018 0.961631
vt 0.333018 0.947646
vt 0.319034 0.947646
vt 0.319034 0.954638
vt 0.333018 0.954638
vt 0.333018 0.954638
vt 0.333018 0.961631
vt 0.333018 0.954638
vt 0.319034 0.954638
vt 0.319034 0.954638
vt 0.319034 0.961631
vn 0.000000 1.000000 0.000000
vn 0.000000 1.000000 0.000000
vn 0.000000 1.000000 0.000000
vn 0.000000 1.000000 0.000000
vn 0.000000 0.000000 1.000000
vn 0.000000 0.000000 1.000000
vn 0.000000 0.000000 1.000000
vn 0.000000 0.000000 1.000000
vn -1.000000 0.000000 0.000000
vn -1.000000 0.000000 0.000000
vn -1.000000 0.000000 0.000000
vn -1.000000 0.000000 0.000000
vn 0.000000 0.000000 -1.000000
vn 0.000000 0.000000 -1.000000
vn 0.000000 0.000000 -1.000000
vn 0.000000 0.000000 -1.000000
vn 1.000000 0.000000 0.000000
vn 1.000000 0.000000 0.000000
vn 1.000000 0.000000 0.000000
vn 1.000000 0.000000 0.000000
f 1/1/1 2/2/2 4/3/3 3/4/4
f 5/5/5 6/6/6 2/2/7 1/1/8
f 7/7/9 5/5/10 1/1/11 3/8/12
f 3/4/13 4/3/14 8/9/15 7/10/16
f 6/6/17 8/11/18 4/12/19 2/2/20
