# This file uses meters as units for non-parametric coordinates.

v 0.498832 -0.677909 13.266645
v 17.082031 -0.677909 13.266645
v 17.082031 -0.677909 -13.266645
v 0.498832 -0.677909 -13.266645
v 0.498832 0.000000 13.266645
v 17.082031 0.000000 13.266645
v 0.498832 0.000000 -13.266645
v 17.082031 0.000000 -13.266645
v -0.000001 0.000000 13.575551
v 17.580868 0.000000 13.575551
v -0.000001 0.000000 -13.575551
v 17.580868 0.000000 -13.575551
v -0.042880 -0.951580 3.666057
v 17.580868 -0.951580 3.666057
v -0.042880 -0.951580 3.531615
v 17.580868 -0.951580 3.531615
v -0.042880 0.000000 3.666057
v -0.042880 0.000000 3.531615
vt 0.319034 0.992881
vt 0.333018 0.992881
vt 0.333018 0.978896
vt 0.319034 0.978896
vt 0.319034 0.985888
vt 0.333018 0.985888
vt 0.333018 0.985888
vt 0.333018 0.992881
vt 0.333018 0.985888
vt 0.319034 0.985888
vt 0.319034 0.985888
vt 0.319034 0.992881
vt 0.319034 0.985888
vt 0.333018 0.985888
vt 0.333018 0.985888
vt 0.333018 0.985888
vt 0.319034 0.985888
vt 0.319034 0.985888
vt 0.350468 0.927588
vt 0.364453 0.927588
vt 0.364453 0.913603
vt 0.350468 0.913603
vt 0.364453 0.913603
vt 0.350468 0.913603
vt 0.350468 0.920595
vt 0.364453 0.920595
vn 0.000000 1.000000 0.000000
vn 0.000000 1.000000 0.000000
vn 0.000000 1.000000 0.000000
vn 0.000000 1.000000 0.000000
vn 0.000000 0.000000 -1.000000
vn 0.000000 0.000000 -1.000000
vn 0.000000 0.000000 -1.000000
vn 0.000000 0.000000 -1.000000
vn 1.000000 0.000000 0.000000
vn 1.000000 0.000000 0.000000
vn 1.000000 0.000000 0.000000
vn 1.000000 0.000000 0.000000
vn 0.000000 0.000000 1.000000
vn 0.000000 0.000000 1.000000
vn 0.000000 0.000000 1.000000
vn 0.000000 0.000000 1.000000
vn -1.000000 0.000000 0.000000
vn -1.000000 0.000000 0.000000
vn -1.000000 0.000000 0.000000
vn -1.000000 0.000000 0.000000
vn 0.000000 1.000000 -0.000000
vn 0.000000 1.000000 -0.000000
vn 0.000000 1.000000 -0.000000
vn 0.000000 1.000000 -0.000000
vn 0.000000 1.000000 0.000000
vn 0.000000 1.000000 0.000000
vn 0.000000 1.000000 0.000000
vn 0.000000 1.000000 0.000000
vn 0.000000 1.000000 0.000000
vn 0.000000 1.000000 0.000000
vn 0.000000 1.000000 0.000000
vn 0.000000 1.000000 0.000000
vn -0.000000 1.000000 0.000000
vn -0.000000 1.000000 0.000000
vn -0.000000 1.000000 0.000000
vn -0.000000 1.000000 0.000000
vn 0.000000 -1.000000 0.000000
vn 0.000000 -1.000000 0.000000
vn 0.000000 -1.000000 0.000000
vn 0.000000 -1.000000 0.000000
vn -1.000000 0.000000 0.000000
vn -1.000000 0.000000 0.000000
vn -1.000000 0.000000 0.000000
vn -1.000000 0.000000 0.000000
f 1/1/1 2/2/2 3/3/3 4/4/4
f 5/5/5 6/6/6 2/2/7 1/1/8
f 7/7/9 5/5/10 1/1/11 4/8/12
f 4/4/13 3/3/14 8/9/15 7/10/16
f 6/6/17 8/11/18 3/12/19 2/2/20
f 9/13/21 10/14/22 6/6/23 5/5/24
f 11/15/25 9/13/26 5/5/27 7/7/28
f 12/16/29 11/17/30 7/10/31 8/9/32
f 10/14/33 12/18/34 8/11/35 6/6/36
f 15/19/37 16/20/38 14/21/39 13/22/40
f 15/23/41 13/24/42 17/25/43 18/26/44
