# This file uses meters as units for non-parametric coordinates.

v -0.000001 -0.905866 13.575551
v 17.580866 -0.905866 13.575551
v -0.000001 -0.905866 -13.575551
v 17.580866 -0.905866 -13.575551
v 17.580866 -0.000000 13.575551
v -0.000001 -0.000000 13.575551
v -0.000001 -0.000000 -13.575551
v 17.580866 -0.000000 -13.575551
vt 0.319034 0.760146
vt 0.333018 0.760146
vt 0.333018 0.767138
vt 0.319034 0.767138
vt 0.319034 0.767138
vt 0.333018 0.767138
vt 0.333018 0.774131
vt 0.319034 0.774131
vt 0.333018 0.760146
vt 0.319034 0.760146
vt 0.319034 0.760146
vt 0.319034 0.767138
vt 0.333018 0.760146
vt 0.333018 0.767138
vn 0.000000 0.000000 1.000000
vn 0.000000 0.000000 1.000000
vn 0.000000 0.000000 1.000000
vn 0.000000 0.000000 1.000000
vn 0.000000 0.000000 -1.000000
vn 0.000000 0.000000 -1.000000
vn 0.000000 0.000000 -1.000000
vn 0.000000 0.000000 -1.000000
vn 0.000000 -1.000000 0.000000
vn 0.000000 -1.000000 0.000000
vn 0.000000 -1.000000 0.000000
vn 0.000000 -1.000000 0.000000
vn 1.000000 0.000000 0.000000
vn 1.000000 0.000000 0.000000
vn 1.000000 0.000000 0.000000
vn 1.000000 0.000000 0.000000
vn -1.000000 0.000000 0.000000
vn -1.000000 0.000000 0.000000
vn -1.000000 0.000000 0.000000
vn -1.000000 0.000000 0.000000
f 1/1/1 2/2/2 5/3/3 6/4/4
f 7/5/5 8/6/6 4/7/7 3/8/8
f 3/8/9 4/7/10 2/9/11 1/10/12
f 2/2/13 4/11/14 8/12/15 5/3/16
f 3/13/17 1/1/18 6/4/19 7/14/20
