# This file uses centimeters as units for non-parametric coordinates.

v -16.692268 0.000000 16.692268
v 16.692268 0.000000 16.692268
v -16.692268 0.000000 -16.692268
v 16.692268 0.000000 -16.692268
v -14.586084 -8.425574 14.586084
v -16.692268 -6.319391 16.692268
v 16.692268 -6.319391 16.692268
v 14.586084 -8.425574 14.586084
v -16.692268 -6.319391 -16.692268
v -14.586084 -8.425574 -14.586084
v 14.586084 -8.425574 -14.586084
v 16.692268 -6.319391 -16.692268
vt 0.582799 0.109817
vt 0.582799 0.100346
vt 0.543236 0.100346
vt 0.543236 0.109817
vt 0.543236 0.109817
vt 0.543236 0.100346
vt 0.582799 0.109817
vt 0.582799 0.100346
vt 0.543236 0.109817
vt 0.543236 0.100346
vt 0.543236 0.085076
vt 0.582799 0.085076
vt 0.543236 0.085076
vt 0.582799 0.085076
vt 0.582799 0.076427
vt 0.543236 0.076427
vt 0.543236 0.085076
vn -0.707106 -0.707107 0.000000
vn -0.707107 -0.707107 0.000000
vn -0.707107 -0.707107 0.000000
vn -0.707106 -0.707107 0.000000
vn 0.000000 -0.707107 0.707106
vn 0.000000 -0.707107 0.707106
vn 0.000000 -0.707107 0.707106
vn 0.000000 -0.707107 0.707106
vn 0.707107 -0.707107 0.000000
vn 0.707106 -0.707107 0.000000
vn 0.707106 -0.707107 0.000000
vn 0.707107 -0.707107 0.000000
vn 0.000000 -0.707107 -0.707106
vn 0.000000 -0.707107 -0.707106
vn 0.000000 -0.707107 -0.707106
vn 0.000000 -0.707107 -0.707106
vn 0.000000 0.000000 1.000000
vn 0.000000 0.000000 1.000000
vn 0.000000 0.000000 1.000000
vn 0.000000 0.000000 1.000000
vn 0.000000 0.000000 -1.000000
vn 0.000000 0.000000 -1.000000
vn 0.000000 0.000000 -1.000000
vn 0.000000 0.000000 -1.000000
vn 0.000000 -1.000000 0.000000
vn 0.000000 -1.000000 0.000000
vn 0.000000 -1.000000 0.000000
vn 0.000000 -1.000000 0.000000
vn 1.000000 0.000000 0.000000
vn 1.000000 0.000000 0.000000
vn 1.000000 0.000000 0.000000
vn 1.000000 0.000000 0.000000
vn -1.000000 0.000000 0.000000
vn -1.000000 0.000000 0.000000
vn -1.000000 0.000000 0.000000
vn -1.000000 0.000000 0.000000
f 5/1/1 6/2/2 9/3/3 10/4/4
f 6/2/5 5/1/6 8/5/7 7/6/8
f 7/6/9 8/5/10 11/7/11 12/8/12
f 10/9/13 9/10/14 12/8/15 11/7/16
f 6/2/17 7/6/18 2/11/19 1/12/20
f 3/13/21 4/14/22 12/8/23 9/10/24
f 10/9/25 11/7/26 8/15/27 5/16/28
f 7/6/29 12/8/30 4/14/31 2/11/32
f 9/3/33 6/2/34 1/12/35 3/17/36
