# This file uses centimeters as units for non-parametric coordinates.

v -3.970957 -96.012741 3.970957
v 3.970957 -96.012741 3.970957
v -2.155645 -90.067940 2.155645
v 2.155645 -90.067940 2.155645
v -2.155645 -90.067940 -2.155645
v 2.155645 -90.067940 -2.155645
v -3.970957 -96.012741 -3.970957
v 3.970957 -96.012741 -3.970957
v -10.349717 -95.204079 -5.872544
v 9.989558 -95.204079 6.466231
v -10.349717 -94.509682 -5.872544
v 9.989558 -94.509682 6.466231
v -9.989558 -94.509682 -6.466231
v 10.349717 -94.509682 5.872544
v -9.989558 -95.204079 -6.466231
v 10.349717 -95.204079 5.872544
v -9.989564 -95.204079 6.466223
v 10.349723 -95.204079 -5.872534
v -9.989564 -94.509682 6.466223
v 10.349723 -94.509682 -5.872534
v -10.349723 -94.509682 5.872534
v 9.989564 -94.509682 -6.466223
v -10.349723 -95.204079 5.872534
v 9.989564 -95.204079 -6.466223
vt 0.708169 0.087935
vt 0.708169 0.100756
vt 0.695348 0.100756
vt 0.695348 0.087935
vt 0.682527 0.100756
vt 0.682527 0.087935
vt 0.669705 0.100756
vt 0.670843 0.087935
vt 0.656884 0.100756
vt 0.656884 0.087935
vt 0.708170 0.113578
vt 0.695348 0.113578
vt 0.708169 0.075113
vt 0.695348 0.075113
vt 0.708169 0.087935
vt 0.708169 0.100756
vt 0.695348 0.100756
vt 0.695348 0.087935
vt 0.682527 0.100756
vt 0.682527 0.087935
vt 0.669705 0.100756
vt 0.670843 0.087935
vt 0.656884 0.100756
vt 0.656884 0.087935
vt 0.708169 0.087935
vt 0.708169 0.100756
vt 0.695348 0.100756
vt 0.695348 0.087935
vt 0.682527 0.100756
vt 0.682527 0.087935
vt 0.669705 0.100756
vt 0.670843 0.087935
vt 0.656884 0.100756
vt 0.656884 0.087935
vn 0.000000 0.292049 0.956403
vn 0.000000 0.292049 0.956403
vn 0.000000 0.292049 0.956403
vn 0.000000 0.292049 0.956403
vn 0.000000 1.000000 0.000000
vn 0.000000 1.000000 0.000000
vn 0.000000 1.000000 0.000000
vn 0.000000 1.000000 0.000000
vn 0.000000 0.292049 -0.956403
vn 0.000000 0.292049 -0.956403
vn 0.000000 0.292049 -0.956403
vn 0.000000 0.292049 -0.956403
vn 0.000000 -1.000000 0.000000
vn 0.000000 -1.000000 0.000000
vn 0.000000 -1.000000 0.000000
vn 0.000000 -1.000000 0.000000
vn 0.956403 0.292049 0.000000
vn 0.956403 0.292049 0.000000
vn 0.956403 0.292049 0.000000
vn 0.956403 0.292049 0.000000
vn -0.956403 0.292049 0.000000
vn -0.956403 0.292049 0.000000
vn -0.956403 0.292049 0.000000
vn -0.956403 0.292049 0.000000
vn -0.518669 0.000000 0.854975
vn -0.518669 0.000000 0.854975
vn -0.518669 0.000000 0.854975
vn -0.518669 0.000000 0.854975
vn 0.000000 1.000000 0.000000
vn 0.000000 1.000000 0.000000
vn 0.000000 1.000000 0.000000
vn 0.000000 1.000000 0.000000
vn 0.518669 0.000000 -0.854975
vn 0.518669 0.000000 -0.854975
vn 0.518669 0.000000 -0.854975
vn 0.518669 0.000000 -0.854975
vn 0.000000 -1.000000 0.000000
vn 0.000000 -1.000000 0.000000
vn 0.000000 -1.000000 0.000000
vn 0.000000 -1.000000 0.000000
vn 0.518668 0.000000 0.854976
vn 0.518668 0.000000 0.854976
vn 0.518668 0.000000 0.854976
vn 0.518668 0.000000 0.854976
vn 0.000000 1.000000 0.000000
vn 0.000000 1.000000 0.000000
vn 0.000000 1.000000 0.000000
vn 0.000000 1.000000 0.000000
vn -0.518668 0.000000 -0.854976
vn -0.518668 0.000000 -0.854976
vn -0.518668 0.000000 -0.854976
vn -0.518668 0.000000 -0.854976
vn 0.000000 -1.000000 0.000000
vn 0.000000 -1.000000 0.000000
vn 0.000000 -1.000000 0.000000
vn 0.000000 -1.000000 0.000000
f 1/1/1 2/2/2 4/3/3 3/4/4
f 3/4/5 4/3/6 6/5/7 5/6/8
f 5/6/9 6/5/10 8/7/11 7/8/12
f 7/8/13 8/7/14 2/9/15 1/10/16
f 2/2/17 8/11/18 6/12/19 4/3/20
f 7/13/21 1/1/22 3/4/23 5/14/24
f 9/15/25 10/16/26 12/17/27 11/18/28
f 11/18/29 12/17/30 14/19/31 13/20/32
f 13/20/33 14/19/34 16/21/35 15/22/36
f 15/22/37 16/21/38 10/23/39 9/24/40
f 17/25/41 18/26/42 20/27/43 19/28/44
f 19/28/45 20/27/46 22/29/47 21/30/48
f 21/30/49 22/29/50 24/31/51 23/32/52
f 23/32/53 24/31/54 18/33/55 17/34/56
