# This file uses centimeters as units for non-parametric coordinates.

v -0.691044 -79.617332 0.691044
v 0.691044 -79.617332 0.691044
v -0.691044 0.000000 0.691044
v 0.691044 0.000000 0.691044
v -0.691044 0.000000 -0.691044
v 0.691044 0.000000 -0.691044
v -0.691044 -79.617332 -0.691044
v 0.691044 -79.617332 -0.691044
vt 0.583618 0.021483
vt 0.583618 0.029781
vt 0.530616 0.029781
vt 0.530616 0.021483
vt 0.530616 0.046376
vt 0.530616 0.038078
vt 0.583618 0.038078
vt 0.583618 0.046376
vt 0.576684 0.038078
vt 0.576684 0.046376
vt 0.583618 0.013186
vt 0.530616 0.013186
vn 0.000000 0.000000 1.000000
vn 0.000000 0.000000 1.000000
vn 0.000000 0.000000 1.000000
vn 0.000000 0.000000 1.000000
vn 0.000000 0.000000 -1.000000
vn 0.000000 0.000000 -1.000000
vn 0.000000 0.000000 -1.000000
vn 0.000000 0.000000 -1.000000
vn 0.000000 -1.000000 0.000000
vn 0.000000 -1.000000 0.000000
vn 0.000000 -1.000000 0.000000
vn 0.000000 -1.000000 0.000000
vn 1.000000 0.000000 0.000000
vn 1.000000 0.000000 0.000000
vn 1.000000 0.000000 0.000000
vn 1.000000 0.000000 0.000000
vn -1.000000 0.000000 0.000000
vn -1.000000 0.000000 0.000000
vn -1.000000 0.000000 0.000000
vn -1.000000 0.000000 0.000000
f 1/1/1 2/2/2 4/3/3 3/4/4
f 5/5/5 6/6/6 8/7/7 7/8/8
f 7/8/9 8/7/10 2/9/11 1/10/12
f 2/2/13 8/7/14 6/6/15 4/3/16
f 7/11/17 1/1/18 3/4/19 5/12/20
