# This file uses centimeters as units for non-parametric coordinates.

v -53.897739 -81.595207 3.440312
v -53.037762 -82.455185 3.440312
v -53.037762 -81.595207 4.300282
v 53.037762 -82.455185 3.440312
v 53.897739 -81.595207 3.440312
v 53.037762 -81.595207 4.300282
v -53.037762 -73.854614 3.440312
v -53.897739 -74.714584 3.440312
v -53.037762 -74.714584 4.300282
v 53.897739 -74.714584 3.440312
v 53.037762 -73.854614 3.440312
v 53.037762 -74.714584 4.300282
v -53.037762 -74.714584 -4.300282
v -53.897739 -74.714584 -3.440312
v -53.037762 -73.854614 -3.440312
v 53.897739 -74.714584 -3.440312
v 53.037762 -74.714584 -4.300282
v 53.037762 -73.854614 -3.440312
v -53.037762 -82.455185 -3.440312
v -53.897739 -81.595207 -3.440312
v -53.037762 -81.595207 -4.300282
v 53.897739 -81.595207 -3.440312
v 53.037762 -82.455185 -3.440312
v 53.037762 -81.595207 -4.300282
vt 0.521126 0.093552
vt 0.588486 0.096055
vt 0.585400 0.099850
vt 0.523930 0.098303
vt 0.586273 0.097206
vt 0.589636 0.085616
vt 0.520250 0.087377
vt 0.523620 0.098665
vt 0.515791 0.090557
vt 0.515531 0.075153
vt 0.509308 0.074408
vt 0.512543 0.089058
vt 0.600598 0.076569
vt 0.594347 0.077360
vt 0.594166 0.089099
vt 0.597433 0.087365
vt 0.589657 0.083532
vt 0.589872 0.075047
vt 0.519896 0.074227
vt 0.520236 0.084795
vt 0.589939 0.079137
vt 0.588914 0.094306
vt 0.520702 0.091434
vt 0.519797 0.077614
vt 0.524402 0.105077
vt 0.520878 0.100654
vt 0.524142 0.099778
vt 0.585760 0.098790
vt 0.527343 0.110474
vt 0.582419 0.098568
vt 0.588828 0.101512
vt 0.582449 0.109368
vn 0.000000 -1.000000 0.000000
vn 0.000000 -1.000000 0.000000
vn 0.000000 -1.000000 0.000000
vn 0.000000 -1.000000 0.000000
vn 0.000000 0.000000 1.000000
vn 0.000000 0.000000 1.000000
vn 0.000000 0.000000 1.000000
vn 0.000000 0.000000 1.000000
vn -1.000000 0.000000 0.000000
vn -1.000000 0.000000 0.000000
vn -1.000000 0.000000 0.000000
vn -1.000000 0.000000 0.000000
vn 1.000000 0.000000 0.000000
vn 1.000000 0.000000 0.000000
vn 1.000000 0.000000 0.000000
vn 1.000000 0.000000 0.000000
vn 0.000000 1.000000 0.000000
vn 0.000000 1.000000 0.000000
vn 0.000000 1.000000 0.000000
vn 0.000000 1.000000 0.000000
vn 0.000000 0.000000 -1.000000
vn 0.000000 0.000000 -1.000000
vn 0.000000 0.000000 -1.000000
vn 0.000000 0.000000 -1.000000
vn -0.707106 -0.707108 0.000000
vn -0.707106 -0.707108 0.000000
vn -0.707106 -0.707108 0.000000
vn -0.707106 -0.707108 0.000000
vn 0.000000 -0.707105 0.707108
vn 0.000000 -0.707105 0.707108
vn 0.000000 -0.707105 0.707108
vn 0.000000 -0.707105 0.707108
vn -0.707104 0.000000 0.707110
vn -0.707104 0.000000 0.707110
vn -0.707104 0.000000 0.707110
vn -0.707104 0.000000 0.707110
vn 0.707106 -0.707108 0.000000
vn 0.707106 -0.707108 0.000000
vn 0.707106 -0.707108 0.000000
vn 0.707106 -0.707108 0.000000
vn 0.707104 0.000000 0.707110
vn 0.707104 0.000000 0.707110
vn 0.707104 0.000000 0.707110
vn 0.707104 0.000000 0.707110
vn -0.707104 0.707110 0.000000
vn -0.707104 0.707110 0.000000
vn -0.707104 0.707110 0.000000
vn -0.707104 0.707110 0.000000
vn 0.000000 0.707107 0.707107
vn 0.000000 0.707107 0.707107
vn 0.000000 0.707107 0.707107
vn 0.000000 0.707107 0.707107
vn 0.707104 0.707110 0.000000
vn 0.707104 0.707110 0.000000
vn 0.707104 0.707110 0.000000
vn 0.707104 0.707110 0.000000
vn -0.707104 0.000000 -0.707110
vn -0.707104 0.000000 -0.707110
vn -0.707104 0.000000 -0.707110
vn -0.707104 0.000000 -0.707110
vn 0.000000 0.707107 -0.707107
vn 0.000000 0.707107 -0.707107
vn 0.000000 0.707107 -0.707107
vn 0.000000 0.707107 -0.707107
vn 0.707104 0.000000 -0.707110
vn 0.707104 0.000000 -0.707110
vn 0.707104 0.000000 -0.707110
vn 0.707104 0.000000 -0.707110
vn 0.000000 -0.707105 -0.707108
vn 0.000000 -0.707105 -0.707108
vn 0.000000 -0.707105 -0.707108
vn 0.000000 -0.707105 -0.707108
vn -0.577350 -0.577347 0.577354
vn -0.577350 -0.577347 0.577355
vn -0.577350 -0.577347 0.577354
vn 0.577350 -0.577347 0.577355
vn 0.577350 -0.577347 0.577354
vn 0.577350 -0.577347 0.577354
vn -0.577349 0.577348 0.577354
vn -0.577349 0.577348 0.577354
vn -0.577349 0.577348 0.577354
vn 0.577349 0.577348 0.577354
vn 0.577349 0.577348 0.577354
vn 0.577349 0.577348 0.577354
vn -0.577349 0.577348 -0.577354
vn -0.577349 0.577348 -0.577354
vn -0.577349 0.577348 -0.577354
vn 0.577349 0.577348 -0.577354
vn 0.577349 0.577348 -0.577354
vn 0.577349 0.577348 -0.577354
vn -0.577350 -0.577347 -0.577355
vn -0.577350 -0.577347 -0.577354
vn -0.577350 -0.577347 -0.577354
vn 0.577350 -0.577347 -0.577354
vn 0.577350 -0.577347 -0.577355
vn 0.577350 -0.577347 -0.577354
f 19/1/1 23/2/2 4/3/3 2/4/4
f 6/5/5 12/6/6 9/7/7 3/8/8
f 8/9/9 14/10/10 20/11/11 1/12/12
f 22/13/13 16/14/14 10/15/15 5/16/16
f 11/17/17 18/18/18 15/19/19 7/20/20
f 17/21/21 24/22/22 21/23/23 13/24/24
f 2/4/25 1/25/26 20/26/27 19/1/28
f 3/8/29 2/27/30 4/28/31 6/5/32
f 1/29/33 3/8/34 9/7/35 8/9/36
f 5/30/37 4/3/38 23/2/39 22/31/40
f 6/5/41 5/32/42 10/15/43 12/6/44
f 8/9/45 7/20/46 15/19/47 14/10/48
f 7/20/49 9/7/50 12/6/51 11/17/52
f 11/17/53 10/15/54 16/14/55 18/18/56
f 14/10/57 13/24/58 21/23/59 20/26/60
f 13/24/61 15/19/62 18/18/63 17/21/64
f 17/21/65 16/14/66 22/31/67 24/22/68
f 19/1/69 21/23/70 24/22/71 23/2/72
f 1/29/73 2/27/74 3/8/75
f 4/28/76 5/32/77 6/5/78
f 7/20/79 8/9/80 9/7/81
f 10/15/82 11/17/83 12/6/84
f 13/24/85 14/10/86 15/19/87
f 16/14/88 17/21/89 18/18/90
f 19/1/91 20/26/92 21/23/93
f 22/31/94 23/2/95 24/22/96
