# This file uses centimeters as units for non-parametric coordinates.

v -10.974146 47.022923 10.313940
v -10.313940 47.022923 10.974146
v -10.974146 47.956593 10.313940
v -10.313940 47.956593 10.974146
v 10.313940 47.956593 -10.974146
v 10.974146 47.956593 -10.313940
v 10.313940 47.022923 -10.974146
v 10.974146 47.022923 -10.313940
v 10.313940 47.022923 10.974146
v 10.974146 47.022923 10.313940
v 10.313940 47.956593 10.974146
v 10.974146 47.956593 10.313940
v -10.974146 47.956593 -10.313940
v -10.313940 47.956593 -10.974146
v -10.974146 47.022923 -10.313940
v -10.313940 47.022923 -10.974146
vt 0.512022 0.089457
vt 0.512022 0.082091
vt 0.609695 0.082090
vt 0.609695 0.089458
vt 0.609695 0.096826
vt 0.609695 0.104193
vt 0.512022 0.104192
vt 0.512022 0.096825
vt 0.512022 0.074723
vt 0.609695 0.074723
vt 0.609695 0.089457
vt 0.609695 0.096824
vt 0.512022 0.096825
vt 0.512022 0.089457
vt 0.512021 0.082090
vt 0.512022 0.074722
vt 0.609695 0.074724
vt 0.609695 0.082090
vt 0.609695 0.104191
vt 0.512021 0.104192
vn 0.000000 1.000000 -0.000002
vn 0.000000 1.000000 -0.000002
vn 0.000000 1.000000 -0.000002
vn 0.000000 1.000000 -0.000002
vn 0.000000 -1.000000 0.000000
vn 0.000000 -1.000000 0.000000
vn 0.000000 -1.000000 0.000000
vn 0.000000 -1.000000 0.000000
vn 0.707107 0.000000 0.707107
vn 0.707107 0.000000 0.707107
vn 0.707107 0.000000 0.707107
vn 0.707107 0.000000 0.707107
vn -0.707107 0.000000 -0.707107
vn -0.707107 0.000000 -0.707107
vn -0.707107 0.000000 -0.707107
vn -0.707107 0.000000 -0.707107
vn 0.000000 1.000000 0.000000
vn 0.000000 1.000000 0.000000
vn 0.000000 1.000000 0.000000
vn 0.000000 1.000000 0.000000
vn 0.000000 -1.000000 -0.000002
vn 0.000000 -1.000000 -0.000002
vn 0.000000 -1.000000 -0.000002
vn 0.000000 -1.000000 -0.000002
vn 0.707107 0.000000 -0.707107
vn 0.707107 0.000000 -0.707107
vn 0.707107 0.000000 -0.707107
vn 0.707107 0.000000 -0.707107
vn -0.707107 0.000000 0.707107
vn -0.707107 0.000000 0.707107
vn -0.707107 0.000000 0.707107
vn -0.707107 0.000000 0.707107
f 3/1/1 4/2/2 6/3/3 5/4/4
f 7/5/5 8/6/6 2/7/7 1/8/8
f 2/9/9 8/10/10 6/3/11 4/2/12
f 7/5/13 1/8/14 3/1/15 5/4/16
f 11/11/17 12/12/18 14/13/19 13/14/20
f 15/15/21 16/16/22 10/17/23 9/18/24
f 10/19/25 16/20/26 14/13/27 12/12/28
f 15/15/29 9/18/30 11/11/31 13/14/32
