# This file uses centimeters as units for non-parametric coordinates.

v -10.974146 111.371315 10.313940
v -10.313940 111.371315 10.974146
v -10.974146 112.304985 10.313940
v -10.313940 112.304985 10.974146
v 10.313940 112.304985 -10.974146
v 10.974146 112.304985 -10.313940
v 10.313940 111.371315 -10.974146
v 10.974146 111.371315 -10.313940
v 10.313940 111.371315 10.974146
v 10.974146 111.371315 10.313940
v 10.313940 112.304985 10.974146
v 10.974146 112.304985 10.313940
v -10.974146 112.304985 -10.313940
v -10.313940 112.304985 -10.974146
v -10.974146 111.371315 -10.313940
v -10.313940 111.371315 -10.974146
vt 0.512022 0.151957
vt 0.512022 0.144591
vt 0.609695 0.144590
vt 0.609695 0.151958
vt 0.609695 0.159326
vt 0.609695 0.166693
vt 0.512022 0.166692
vt 0.512022 0.159325
vt 0.512022 0.137223
vt 0.609695 0.137223
vt 0.609695 0.151957
vt 0.609695 0.159324
vt 0.512022 0.159325
vt 0.512022 0.151957
vt 0.512021 0.144590
vt 0.512022 0.137222
vt 0.609695 0.137224
vt 0.609695 0.144590
vt 0.609695 0.166691
vt 0.512021 0.166692
vn 0.000000 1.000000 0.000009
vn 0.000000 1.000000 0.000009
vn 0.000000 1.000000 0.000009
vn 0.000000 1.000000 0.000009
vn 0.000000 -1.000000 0.000000
vn 0.000000 -1.000000 0.000000
vn 0.000000 -1.000000 0.000000
vn 0.000000 -1.000000 0.000000
vn 0.707108 0.000000 0.707106
vn 0.707108 0.000000 0.707106
vn 0.707108 0.000000 0.707106
vn 0.707108 0.000000 0.707106
vn -0.707108 0.000000 -0.707106
vn -0.707108 0.000000 -0.707106
vn -0.707108 0.000000 -0.707106
vn -0.707108 0.000000 -0.707106
vn 0.000000 1.000000 0.000009
vn 0.000000 1.000000 0.000009
vn 0.000000 1.000000 0.000009
vn 0.000000 1.000000 0.000009
vn 0.000000 -1.000000 0.000000
vn 0.000000 -1.000000 0.000000
vn 0.000000 -1.000000 0.000000
vn 0.000000 -1.000000 0.000000
vn 0.707108 0.000000 -0.707106
vn 0.707108 0.000000 -0.707106
vn 0.707108 0.000000 -0.707106
vn 0.707108 0.000000 -0.707106
vn -0.707108 0.000000 0.707106
vn -0.707108 0.000000 0.707106
vn -0.707108 0.000000 0.707106
vn -0.707108 0.000000 0.707106
f 3/1/1 4/2/2 6/3/3 5/4/4
f 7/5/5 8/6/6 2/7/7 1/8/8
f 2/9/9 8/10/10 6/3/11 4/2/12
f 7/5/13 1/8/14 3/1/15 5/4/16
f 11/11/17 12/12/18 14/13/19 13/14/20
f 15/15/21 16/16/22 10/17/23 9/18/24
f 10/19/25 16/20/26 14/13/27 12/12/28
f 15/15/29 9/18/30 11/11/31 13/14/32
