# This file uses centimeters as units for non-parametric coordinates.

v 0.475960 -6.317294 14.870399
v 0.475960 -6.317294 -14.870399
v 0.475960 -5.365379 14.870399
v 0.475960 -5.365379 -14.870399
v -0.475960 -5.365379 14.870399
v -0.475960 -5.365379 -14.870399
v -0.475960 -6.317294 14.870399
v -0.475960 -6.317294 -14.870399
v -14.870399 -6.317294 0.475960
v 14.870399 -6.317294 0.475960
v -14.870399 -5.365379 0.475960
v 14.870399 -5.365379 0.475960
v -14.870399 -5.365379 -0.475960
v 14.870399 -5.365379 -0.475960
v -14.870399 -6.317294 -0.475960
v 14.870399 -6.317294 -0.475960
v -2.996985 -7.435630 2.996978
v 2.996985 -7.435630 2.996978
v -1.370301 0.000000 1.370294
v 1.370301 0.000000 1.370294
v -1.370301 0.000000 -1.370309
v 1.370301 0.000000 -1.370309
v -2.996985 -7.435630 -2.996993
v 2.996985 -7.435630 -2.996993
vt 0.645808 0.206939
vt 0.713409 0.206939
vt 0.713409 0.213043
vt 0.645808 0.213043
vt 0.713409 0.219148
vt 0.645808 0.219148
vt 0.713409 0.225252
vt 0.645808 0.225252
vt 0.713409 0.231356
vt 0.645808 0.231356
vt 0.645808 0.206939
vt 0.713409 0.206939
vt 0.713409 0.213043
vt 0.645808 0.213043
vt 0.713409 0.219148
vt 0.645808 0.219148
vt 0.713409 0.225252
vt 0.645808 0.225252
vt 0.713409 0.231356
vt 0.645808 0.231356
vt 0.703550 0.210798
vt 0.703550 0.223990
vt 0.690359 0.223990
vt 0.690358 0.210798
vt 0.677167 0.223990
vt 0.677167 0.210798
vt 0.663976 0.223990
vt 0.663976 0.210798
vt 0.650784 0.223990
vt 0.650784 0.210798
vt 0.703550 0.237181
vt 0.690359 0.237181
vt 0.703550 0.197607
vt 0.690359 0.197607
vn 1.000000 0.000000 0.000000
vn 1.000000 0.000000 0.000000
vn 1.000000 0.000000 0.000000
vn 1.000000 0.000000 0.000000
vn 0.000000 1.000000 0.000000
vn 0.000000 1.000000 0.000000
vn 0.000000 1.000000 0.000000
vn 0.000000 1.000000 0.000000
vn -1.000000 0.000000 0.000000
vn -1.000000 0.000000 0.000000
vn -1.000000 0.000000 0.000000
vn -1.000000 0.000000 0.000000
vn 0.000000 -1.000000 0.000000
vn 0.000000 -1.000000 0.000000
vn 0.000000 -1.000000 0.000000
vn 0.000000 -1.000000 0.000000
vn 0.000000 0.000000 1.000000
vn 0.000000 0.000000 1.000000
vn 0.000000 0.000000 1.000000
vn 0.000000 0.000000 1.000000
vn 0.000000 1.000000 0.000000
vn 0.000000 1.000000 0.000000
vn 0.000000 1.000000 0.000000
vn 0.000000 1.000000 0.000000
vn 0.000000 0.000000 -1.000000
vn 0.000000 0.000000 -1.000000
vn 0.000000 0.000000 -1.000000
vn 0.000000 0.000000 -1.000000
vn 0.000000 -1.000000 0.000000
vn 0.000000 -1.000000 0.000000
vn 0.000000 -1.000000 0.000000
vn 0.000000 -1.000000 0.000000
vn 0.000000 0.213714 0.976896
vn 0.000000 0.213714 0.976896
vn 0.000000 0.213714 0.976896
vn 0.000000 0.213714 0.976896
vn 0.000000 1.000000 0.000000
vn 0.000000 1.000000 0.000000
vn 0.000000 1.000000 0.000000
vn 0.000000 1.000000 0.000000
vn 0.000000 0.213714 -0.976896
vn 0.000000 0.213714 -0.976896
vn 0.000000 0.213714 -0.976896
vn 0.000000 0.213714 -0.976896
vn 0.000000 -1.000000 0.000000
vn 0.000000 -1.000000 0.000000
vn 0.000000 -1.000000 0.000000
vn 0.000000 -1.000000 0.000000
vn 0.976896 0.213714 0.000000
vn 0.976896 0.213714 0.000000
vn 0.976896 0.213714 0.000000
vn 0.976896 0.213714 0.000000
vn -0.976896 0.213714 0.000000
vn -0.976896 0.213714 0.000000
vn -0.976896 0.213714 0.000000
vn -0.976896 0.213714 0.000000
f 1/1/1 2/2/2 4/3/3 3/4/4
f 3/4/5 4/3/6 6/5/7 5/6/8
f 5/6/9 6/5/10 8/7/11 7/8/12
f 7/8/13 8/7/14 2/9/15 1/10/16
f 9/11/17 10/12/18 12/13/19 11/14/20
f 11/14/21 12/13/22 14/15/23 13/16/24
f 13/16/25 14/15/26 16/17/27 15/18/28
f 15/18/29 16/17/30 10/19/31 9/20/32
f 17/21/33 18/22/34 20/23/35 19/24/36
f 19/24/37 20/23/38 22/25/39 21/26/40
f 21/26/41 22/25/42 24/27/43 23/28/44
f 23/28/45 24/27/46 18/29/47 17/30/48
f 18/22/49 24/31/50 22/32/51 20/23/52
f 23/33/53 17/21/54 19/24/55 21/34/56
