# This file uses centimeters as units for non-parametric coordinates.

v 5.868818 -0.000001 -5.868818
v 0.000000 -0.000001 -8.299762
v -5.868818 -0.000001 -5.868818
v -8.299762 -0.000001 0.000000
v -5.868818 -0.000001 5.868818
v 0.000000 -0.000001 8.299763
v 5.868819 -0.000001 5.868819
v 8.299764 -0.000001 0.000000
v 10.165092 6.075849 -10.165092
v 0.000000 6.075849 -14.375612
v -10.165092 6.075849 -10.165092
v -14.375612 6.075849 0.000000
v -10.165092 6.075849 10.165092
v 0.000000 6.075849 14.375612
v 10.165093 6.075849 10.165093
v 14.375614 6.075849 0.000000
v 11.737636 14.375611 -11.737636
v 0.000000 14.375611 -16.599524
v -11.737636 14.375611 -11.737636
v -16.599524 14.375611 0.000000
v -11.737636 14.375611 11.737636
v 0.000000 14.375611 16.599525
v 11.737639 14.375611 11.737639
v 16.599527 14.375611 0.000000
v 10.165092 22.675373 -10.165092
v 0.000000 22.675373 -14.375612
v -10.165092 22.675373 -10.165092
v -14.375612 22.675373 0.000000
v -10.165092 22.675373 10.165092
v 0.000000 22.675373 14.375612
v 10.165093 22.675373 10.165093
v 14.375614 22.675373 0.000000
v 5.868818 28.751225 -5.868818
v 0.000000 28.751225 -8.299762
v -5.868818 28.751225 -5.868818
v -8.299762 28.751225 0.000000
v -5.868818 28.751225 5.868818
v 0.000000 28.751225 8.299763
v 5.868819 28.751225 5.868819
v 8.299764 28.751225 0.000000
v 0.000000 -0.000001 0.000000
v 0.000000 30.975140 0.000000
v -3.273572 28.667107 3.273572
v 3.273572 28.667107 3.273572
v -4.058415 39.061081 4.058415
v 4.058415 39.061081 4.058415
v -4.058415 39.061081 -4.058415
v 4.058415 39.061081 -4.058415
v -3.273572 28.667107 -3.273572
v 3.273572 28.667107 -3.273572
v -0.921708 38.013882 0.921708
v 0.921708 38.013882 0.921708
v -0.987867 66.976974 0.987867
v 0.987867 66.976974 0.987867
v -0.987867 66.976974 -0.987867
v 0.987867 66.976974 -0.987867
v -0.921708 38.013882 -0.921708
v 0.921708 38.013882 -0.921708
v 0.979511 63.318890 0.979511
v -0.979511 63.318890 0.979511
v -0.979511 63.318890 -0.979511
v 0.979511 63.318890 -0.979511
v 0.966103 57.449039 0.966103
v -0.966103 57.449039 0.966103
v -0.966103 57.449039 -0.966103
v 0.966103 57.449039 -0.966103
vt 0.714806 0.077209
vt 0.714806 0.114268
vt 0.699755 0.114268
vt 0.699755 0.077209
vt 0.714806 0.077209
vt 0.699756 0.077209
vt 0.714806 0.114268
vt 0.699756 0.114268
vt 0.714806 0.077209
vt 0.699756 0.077209
vt 0.714806 0.114268
vt 0.699756 0.114268
vt 0.714806 0.077209
vt 0.699755 0.077209
vt 0.714806 0.114268
vt 0.699756 0.114268
vt 0.714806 0.077209
vt 0.699756 0.077209
vt 0.684705 0.114268
vt 0.684705 0.077209
vt 0.684705 0.077209
vt 0.684705 0.114268
vt 0.684705 0.077209
vt 0.684705 0.114268
vt 0.684705 0.077209
vt 0.684705 0.114268
vt 0.684705 0.077209
vt 0.669655 0.114268
vt 0.669655 0.077209
vt 0.669655 0.077209
vt 0.669655 0.114268
vt 0.669655 0.077209
vt 0.669655 0.114268
vt 0.669655 0.077209
vt 0.669655 0.114268
vt 0.669655 0.077209
vt 0.654605 0.114268
vt 0.654605 0.077209
vt 0.654605 0.077209
vt 0.654605 0.114268
vt 0.654605 0.077209
vt 0.654605 0.114268
vt 0.654605 0.077209
vt 0.654605 0.114268
vt 0.654605 0.077209
vt 0.729856 0.095739
vt 0.729856 0.095739
vt 0.729856 0.095739
vt 0.729856 0.095739
vt 0.729856 0.095739
vt 0.729856 0.095739
vt 0.729856 0.095739
vt 0.729856 0.095739
vt 0.639555 0.095739
vt 0.639555 0.095739
vt 0.639555 0.095739
vt 0.639555 0.095739
vt 0.639555 0.095739
vt 0.639555 0.095739
vt 0.639555 0.095739
vt 0.639555 0.095739
vt 0.723168 0.114418
vt 0.723168 0.074006
vt 0.661410 0.074006
vt 0.661410 0.114418
vt 0.704659 0.074006
vt 0.704659 0.114418
vt 0.661410 0.074006
vt 0.661410 0.114418
vt 0.723168 0.114418
vt 0.723168 0.074006
vt 0.723168 0.074006
vt 0.661410 0.074006
vt 0.712900 0.102183
vt 0.712900 0.093849
vt 0.685782 0.093849
vt 0.685782 0.102183
vt 0.672488 0.102183
vt 0.672488 0.093849
vt 0.684751 0.093849
vt 0.684752 0.102183
vt 0.685782 0.093849
vt 0.685782 0.102183
vt 0.712900 0.102183
vt 0.712900 0.093849
vt 0.712900 0.093849
vt 0.685782 0.093849
vt 0.677592 0.102183
vt 0.677592 0.093849
vt 0.677592 0.093849
vt 0.672488 0.093849
vt 0.672488 0.093849
vt 0.672488 0.102183
vt 0.677592 0.102183
vt 0.677592 0.093849
vn 0.427136 -0.796938 -0.427136
vn 0.000000 -0.796938 -0.604061
vn 0.000000 -0.434972 -0.900444
vn 0.636710 -0.434971 -0.636710
vn 0.000000 -0.796938 -0.604061
vn -0.427136 -0.796938 -0.427136
vn -0.636710 -0.434971 -0.636710
vn 0.000000 -0.434972 -0.900444
vn -0.427136 -0.796938 -0.427136
vn -0.604061 -0.796938 0.000000
vn -0.900444 -0.434971 0.000000
vn -0.636710 -0.434971 -0.636710
vn -0.604061 -0.796938 0.000000
vn -0.427136 -0.796938 0.427136
vn -0.636710 -0.434971 0.636710
vn -0.900444 -0.434971 0.000000
vn -0.427136 -0.796938 0.427136
vn 0.000000 -0.796938 0.604061
vn 0.000000 -0.434972 0.900444
vn -0.636710 -0.434971 0.636710
vn 0.000000 -0.796938 0.604061
vn 0.427136 -0.796938 0.427136
vn 0.636710 -0.434972 0.636710
vn 0.000000 -0.434972 0.900444
vn 0.427136 -0.796938 0.427136
vn 0.604061 -0.796938 0.000000
vn 0.900444 -0.434972 0.000000
vn 0.636710 -0.434972 0.636710
vn 0.604061 -0.796938 0.000000
vn 0.427136 -0.796938 -0.427136
vn 0.636710 -0.434971 -0.636710
vn 0.900444 -0.434972 0.000000
vn 0.636710 -0.434971 -0.636710
vn 0.000000 -0.434972 -0.900444
vn 0.000000 0.000000 -1.000000
vn 0.707107 0.000000 -0.707107
vn 0.000000 -0.434972 -0.900444
vn -0.636710 -0.434971 -0.636710
vn -0.707107 0.000000 -0.707107
vn 0.000000 0.000000 -1.000000
vn -0.636710 -0.434971 -0.636710
vn -0.900444 -0.434971 0.000000
vn -1.000000 0.000000 0.000000
vn -0.707107 0.000000 -0.707107
vn -0.900444 -0.434971 0.000000
vn -0.636710 -0.434971 0.636710
vn -0.707107 0.000000 0.707107
vn -1.000000 0.000000 0.000000
vn -0.636710 -0.434971 0.636710
vn 0.000000 -0.434972 0.900444
vn 0.000000 0.000000 1.000000
vn -0.707107 0.000000 0.707107
vn 0.000000 -0.434972 0.900444
vn 0.636710 -0.434972 0.636710
vn 0.707107 -0.000000 0.707107
vn 0.000000 0.000000 1.000000
vn 0.636710 -0.434972 0.636710
vn 0.900444 -0.434972 0.000000
vn 1.000000 0.000000 0.000000
vn 0.707107 -0.000000 0.707107
vn 0.900444 -0.434972 0.000000
vn 0.636710 -0.434971 -0.636710
vn 0.707107 0.000000 -0.707107
vn 1.000000 0.000000 0.000000
vn 0.707107 0.000000 -0.707107
vn 0.000000 0.000000 -1.000000
vn 0.000000 0.434971 -0.900444
vn 0.636710 0.434971 -0.636710
vn 0.000000 0.000000 -1.000000
vn -0.707107 0.000000 -0.707107
vn -0.636710 0.434971 -0.636710
vn 0.000000 0.434971 -0.900444
vn -0.707107 0.000000 -0.707107
vn -1.000000 0.000000 0.000000
vn -0.900444 0.434971 -0.000000
vn -0.636710 0.434971 -0.636710
vn -1.000000 0.000000 0.000000
vn -0.707107 0.000000 0.707107
vn -0.636710 0.434971 0.636710
vn -0.900444 0.434971 -0.000000
vn -0.707107 0.000000 0.707107
vn 0.000000 0.000000 1.000000
vn 0.000000 0.434972 0.900444
vn -0.636710 0.434971 0.636710
vn 0.000000 0.000000 1.000000
vn 0.707107 -0.000000 0.707107
vn 0.636710 0.434972 0.636710
vn 0.000000 0.434972 0.900444
vn 0.707107 -0.000000 0.707107
vn 1.000000 0.000000 0.000000
vn 0.900444 0.434971 0.000000
vn 0.636710 0.434972 0.636710
vn 1.000000 0.000000 0.000000
vn 0.707107 0.000000 -0.707107
vn 0.636710 0.434971 -0.636710
vn 0.900444 0.434971 0.000000
vn 0.636710 0.434971 -0.636710
vn 0.000000 0.434971 -0.900444
vn 0.000000 0.772802 -0.634647
vn 0.448763 0.772802 -0.448763
vn 0.000000 0.434971 -0.900444
vn -0.636710 0.434971 -0.636710
vn -0.448763 0.772802 -0.448763
vn 0.000000 0.772802 -0.634647
vn -0.636710 0.434971 -0.636710
vn -0.900444 0.434971 -0.000000
vn -0.634647 0.772802 -0.000000
vn -0.448763 0.772802 -0.448763
vn -0.900444 0.434971 -0.000000
vn -0.636710 0.434971 0.636710
vn -0.448763 0.772802 0.448763
vn -0.634647 0.772802 -0.000000
vn -0.636710 0.434971 0.636710
vn 0.000000 0.434972 0.900444
vn 0.000000 0.772802 0.634647
vn -0.448763 0.772802 0.448763
vn 0.000000 0.434972 0.900444
vn 0.636710 0.434972 0.636710
vn 0.448763 0.772802 0.448763
vn 0.000000 0.772802 0.634647
vn 0.636710 0.434972 0.636710
vn 0.900444 0.434971 0.000000
vn 0.634647 0.772802 0.000000
vn 0.448763 0.772802 0.448763
vn 0.900444 0.434971 0.000000
vn 0.636710 0.434971 -0.636710
vn 0.448763 0.772802 -0.448763
vn 0.634647 0.772802 0.000000
vn 0.000000 -0.796938 -0.604061
vn 0.427136 -0.796938 -0.427136
vn 0.000000 -1.000000 0.000000
vn -0.427136 -0.796938 -0.427136
vn 0.000000 -0.796938 -0.604061
vn 0.000000 -1.000000 0.000000
vn -0.604061 -0.796938 0.000000
vn -0.427136 -0.796938 -0.427136
vn 0.000000 -1.000000 0.000000
vn -0.427136 -0.796938 0.427136
vn -0.604061 -0.796938 0.000000
vn 0.000000 -1.000000 0.000000
vn 0.000000 -0.796938 0.604061
vn -0.427136 -0.796938 0.427136
vn 0.000000 -1.000000 0.000000
vn 0.427136 -0.796938 0.427136
vn 0.000000 -0.796938 0.604061
vn 0.000000 -1.000000 0.000000
vn 0.604061 -0.796938 0.000000
vn 0.427136 -0.796938 0.427136
vn 0.000000 -1.000000 0.000000
vn 0.427136 -0.796938 -0.427136
vn 0.604061 -0.796938 0.000000
vn 0.000000 -1.000000 0.000000
vn 0.448763 0.772802 -0.448763
vn 0.000000 0.772802 -0.634647
vn 0.000000 1.000000 0.000000
vn 0.000000 0.772802 -0.634647
vn -0.448763 0.772802 -0.448763
vn 0.000000 1.000000 0.000000
vn -0.448763 0.772802 -0.448763
vn -0.634647 0.772802 -0.000000
vn 0.000000 1.000000 0.000000
vn -0.634647 0.772802 -0.000000
vn -0.448763 0.772802 0.448763
vn 0.000000 1.000000 0.000000
vn -0.448763 0.772802 0.448763
vn 0.000000 0.772802 0.634647
vn 0.000000 1.000000 0.000000
vn 0.000000 0.772802 0.634647
vn 0.448763 0.772802 0.448763
vn 0.000000 1.000000 0.000000
vn 0.448763 0.772802 0.448763
vn 0.634647 0.772802 0.000000
vn 0.000000 1.000000 0.000000
vn 0.634647 0.772802 0.000000
vn 0.448763 0.772802 -0.448763
vn 0.000000 1.000000 0.000000
vn 0.000000 -0.075295 0.997161
vn 0.000000 -0.075295 0.997161
vn 0.000000 -0.075295 0.997161
vn 0.000000 -0.075295 0.997161
vn 0.000000 1.000000 0.000000
vn 0.000000 1.000000 0.000000
vn 0.000000 1.000000 0.000000
vn 0.000000 1.000000 0.000000
vn 0.000000 -0.075295 -0.997161
vn 0.000000 -0.075295 -0.997161
vn 0.000000 -0.075295 -0.997161
vn 0.000000 -0.075295 -0.997161
vn 0.997161 -0.075295 0.000000
vn 0.997161 -0.075295 0.000000
vn 0.997161 -0.075295 0.000000
vn 0.997161 -0.075295 0.000000
vn -0.997161 -0.075295 0.000000
vn -0.997161 -0.075295 0.000000
vn -0.997161 -0.075295 0.000000
vn -0.997161 -0.075295 0.000000
vn 0.000000 -0.002284 0.999997
vn 0.000000 -0.002284 0.999997
vn 0.000000 -0.002284 0.999997
vn 0.000000 -0.002284 0.999997
vn 0.000000 1.000000 0.000000
vn 0.000000 1.000000 0.000000
vn 0.000000 1.000000 0.000000
vn 0.000000 1.000000 0.000000
vn 0.000000 -0.002284 -0.999997
vn 0.000000 -0.002284 -0.999997
vn 0.000000 -0.002284 -0.999997
vn 0.000000 -0.002284 -0.999997
vn 0.999997 -0.002284 0.000000
vn 0.999997 -0.002284 0.000000
vn 0.999997 -0.002284 0.000000
vn 0.999997 -0.002284 0.000000
vn -0.999997 -0.002284 0.000000
vn -0.999997 -0.002284 0.000000
vn -0.999997 -0.002284 0.000000
vn -0.999997 -0.002284 0.000000
vn 0.000000 -0.002284 0.999997
vn 0.000000 -0.002284 0.999997
vn 0.000000 -0.002284 0.999997
vn 0.000000 -0.002284 0.999997
vn -0.999997 -0.002284 0.000000
vn -0.999997 -0.002284 0.000000
vn -0.999997 -0.002284 0.000000
vn -0.999997 -0.002284 0.000000
vn 0.000000 -0.002284 -0.999997
vn 0.000000 -0.002284 -0.999997
vn 0.000000 -0.002284 -0.999997
vn 0.000000 -0.002284 -0.999997
vn 0.999997 -0.002284 0.000000
vn 0.999997 -0.002284 0.000000
vn 0.999997 -0.002284 0.000000
vn 0.999997 -0.002284 0.000000
vn 0.000000 -1.000000 0.000000
vn 0.000000 -1.000000 0.000000
vn 0.000000 -1.000000 0.000000
vn 0.000000 -1.000000 0.000000
vn 0.000000 1.000000 0.000000
vn 0.000000 1.000000 0.000000
vn 0.000000 1.000000 0.000000
vn 0.000000 1.000000 0.000000
f 1/1/1 2/2/2 10/3/3 9/4/4
f 2/2/5 3/5/6 11/6/7 10/3/8
f 3/5/9 4/7/10 12/8/11 11/6/12
f 4/7/13 5/9/14 13/10/15 12/8/16
f 5/9/17 6/11/18 14/12/19 13/10/20
f 6/11/21 7/13/22 15/14/23 14/12/24
f 7/13/25 8/15/26 16/16/27 15/14/28
f 8/15/29 1/17/30 9/18/31 16/16/32
f 9/4/33 10/3/34 18/19/35 17/20/36
f 10/3/37 11/6/38 19/21/39 18/19/40
f 11/6/41 12/8/42 20/22/43 19/21/44
f 12/8/45 13/10/46 21/23/47 20/22/48
f 13/10/49 14/12/50 22/24/51 21/23/52
f 14/12/53 15/14/54 23/25/55 22/24/56
f 15/14/57 16/16/58 24/26/59 23/25/60
f 16/16/61 9/18/62 17/27/63 24/26/64
f 17/20/65 18/19/66 26/28/67 25/29/68
f 18/19/69 19/21/70 27/30/71 26/28/72
f 19/21/73 20/22/74 28/31/75 27/30/76
f 20/22/77 21/23/78 29/32/79 28/31/80
f 21/23/81 22/24/82 30/33/83 29/32/84
f 22/24/85 23/25/86 31/34/87 30/33/88
f 23/25/89 24/26/90 32/35/91 31/34/92
f 24/26/93 17/27/94 25/36/95 32/35/96
f 25/29/97 26/28/98 34/37/99 33/38/100
f 26/28/101 27/30/102 35/39/103 34/37/104
f 27/30/105 28/31/106 36/40/107 35/39/108
f 28/31/109 29/32/110 37/41/111 36/40/112
f 29/32/113 30/33/114 38/42/115 37/41/116
f 30/33/117 31/34/118 39/43/119 38/42/120
f 31/34/121 32/35/122 40/44/123 39/43/124
f 32/35/125 25/36/126 33/45/127 40/44/128
f 2/2/129 1/1/130 41/46/131
f 3/5/132 2/2/133 41/47/134
f 4/7/135 3/5/136 41/48/137
f 5/9/138 4/7/139 41/49/140
f 6/11/141 5/9/142 41/50/143
f 7/13/144 6/11/145 41/51/146
f 8/15/147 7/13/148 41/52/149
f 1/17/150 8/15/151 41/53/152
f 33/38/153 34/37/154 42/54/155
f 34/37/156 35/39/157 42/55/158
f 35/39/159 36/40/160 42/56/161
f 36/40/162 37/41/163 42/57/164
f 37/41/165 38/42/166 42/58/167
f 38/42/168 39/43/169 42/59/170
f 39/43/171 40/44/172 42/60/173
f 40/44/174 33/45/175 42/61/176
f 43/62/177 44/63/178 46/64/179 45/65/180
f 45/65/181 46/64/182 48/66/183 47/67/184
f 47/68/185 48/69/186 50/70/187 49/71/188
f 44/63/189 50/70/190 48/69/191 46/64/192
f 49/72/193 43/62/194 45/65/195 47/73/196
f 51/74/197 52/75/198 63/76/199 64/77/200
f 53/78/201 54/79/202 56/80/203 55/81/204
f 65/82/205 66/83/206 58/84/207 57/85/208
f 52/75/209 58/84/210 66/83/211 63/76/212
f 57/86/213 51/74/214 64/77/215 65/87/216
f 60/88/217 59/89/218 54/79/219 53/78/220
f 61/90/221 60/88/222 53/78/223 55/91/224
f 55/92/225 56/93/226 62/94/227 61/95/228
f 59/89/229 62/94/230 56/93/231 54/79/232
f 60/88/233 61/95/234 62/94/235 59/89/236
f 64/77/237 63/76/238 66/83/239 65/87/240
