# This file uses centimeters as units for non-parametric coordinates.

v -2.940344 2.481351 1.075822
v 2.940344 2.481351 1.075822
v -2.940344 60.709984 1.075822
v 2.940344 60.709984 1.075822
v -2.940344 60.709984 -1.075822
v 2.940344 60.709984 -1.075822
v -2.940344 2.481351 -1.075822
v 2.940344 2.481351 -1.075822
v -16.992764 0.000000 9.475820
v 16.992764 0.000000 9.475820
v -16.992764 2.272255 9.475820
v 16.992764 2.272255 9.475820
v -16.992764 2.272255 -9.475820
v 16.992764 2.272255 -9.475820
v -16.992764 0.000000 -9.475820
v 16.992764 0.000000 -9.475820
v 2.940344 55.394455 1.075822
v -2.940344 55.394455 1.075822
v -2.940344 55.394455 -1.075822
v 2.940344 55.394455 -1.075822
v 2.940344 47.116154 1.075822
v -2.940344 47.116154 1.075822
v -2.940344 47.116154 -1.075822
v 2.940344 47.116154 -1.075822
vt 0.610227 0.031948
vt 0.610227 0.047072
vt 0.532954 0.047072
vt 0.532954 0.031948
vt 0.526502 0.026343
vt 0.526682 0.010287
vt 0.509420 0.010287
vt 0.509420 0.026343
vt 0.532954 0.026343
vt 0.532954 0.010287
vt 0.610227 0.010287
vt 0.610227 0.026343
vt 0.610227 0.052196
vt 0.532954 0.052196
vt 0.528793 0.011240
vt 0.590442 0.011240
vt 0.590442 0.017047
vt 0.528793 0.017047
vt 0.590442 0.051013
vt 0.528793 0.051013
vt 0.590442 0.045097
vt 0.528793 0.045097
vt 0.590442 0.010404
vt 0.528793 0.010404
vt 0.583239 0.020427
vt 0.583239 0.049304
vt 0.535457 0.049304
vt 0.535457 0.020427
vt 0.518622 0.031948
vt 0.518622 0.047072
vt 0.509420 0.047072
vt 0.509420 0.031948
vt 0.518622 0.026343
vt 0.518622 0.010287
vt 0.518622 0.052196
vt 0.509420 0.052196
vn 0.000000 0.000000 1.000000
vn 0.000000 0.000000 1.000000
vn 0.000000 0.000000 1.000000
vn 0.000000 0.000000 1.000000
vn 0.000000 1.000000 0.000000
vn 0.000000 1.000000 0.000000
vn 0.000000 1.000000 0.000000
vn 0.000000 1.000000 0.000000
vn 0.000000 0.000000 -1.000000
vn 0.000000 0.000000 -1.000000
vn 0.000000 0.000000 -1.000000
vn 0.000000 0.000000 -1.000000
vn 1.000000 0.000000 0.000000
vn 1.000000 0.000000 0.000000
vn 1.000000 0.000000 0.000000
vn 1.000000 0.000000 0.000000
vn -1.000000 0.000000 0.000000
vn -1.000000 0.000000 0.000000
vn -1.000000 0.000000 0.000000
vn -1.000000 0.000000 0.000000
vn 0.000000 0.000000 1.000000
vn 0.000000 0.000000 1.000000
vn 0.000000 0.000000 1.000000
vn 0.000000 0.000000 1.000000
vn 0.000000 1.000000 0.000000
vn 0.000000 1.000000 0.000000
vn 0.000000 1.000000 0.000000
vn 0.000000 1.000000 0.000000
vn 0.000000 0.000000 -1.000000
vn 0.000000 0.000000 -1.000000
vn 0.000000 0.000000 -1.000000
vn 0.000000 0.000000 -1.000000
vn 0.000000 -1.000000 0.000000
vn 0.000000 -1.000000 0.000000
vn 0.000000 -1.000000 0.000000
vn 0.000000 -1.000000 0.000000
vn 1.000000 0.000000 0.000000
vn 1.000000 0.000000 0.000000
vn 1.000000 0.000000 0.000000
vn 1.000000 0.000000 0.000000
vn -1.000000 0.000000 0.000000
vn -1.000000 0.000000 0.000000
vn -1.000000 0.000000 0.000000
vn -1.000000 0.000000 0.000000
vn 0.000000 0.000000 1.000000
vn 0.000000 0.000000 1.000000
vn 0.000000 0.000000 1.000000
vn 0.000000 0.000000 1.000000
vn -1.000000 0.000000 0.000000
vn -1.000000 0.000000 0.000000
vn -1.000000 0.000000 0.000000
vn -1.000000 0.000000 0.000000
vn 0.000000 0.000000 -1.000000
vn 0.000000 0.000000 -1.000000
vn 0.000000 0.000000 -1.000000
vn 0.000000 0.000000 -1.000000
vn 1.000000 0.000000 0.000000
vn 1.000000 0.000000 0.000000
vn 1.000000 0.000000 0.000000
vn 1.000000 0.000000 0.000000
vn 0.000000 -1.000000 0.000000
vn 0.000000 -1.000000 0.000000
vn 0.000000 -1.000000 0.000000
vn 0.000000 -1.000000 0.000000
vn 0.000000 1.000000 0.000000
vn 0.000000 1.000000 0.000000
vn 0.000000 1.000000 0.000000
vn 0.000000 1.000000 0.000000
f 1/1/1 2/2/2 21/3/3 22/4/4
f 3/5/5 4/6/6 6/7/7 5/8/8
f 23/9/9 24/10/10 8/11/11 7/12/12
f 2/2/13 8/13/14 24/14/15 21/3/16
f 7/12/17 1/1/18 22/4/19 23/9/20
f 9/15/21 10/16/22 12/17/23 11/18/24
f 11/18/25 12/17/26 14/19/27 13/20/28
f 13/20/29 14/19/30 16/21/31 15/22/32
f 15/22/33 16/21/34 10/23/35 9/24/36
f 10/25/37 16/26/38 14/19/39 12/17/40
f 15/27/41 9/28/42 11/18/43 13/20/44
f 18/29/45 17/30/46 4/31/47 3/32/48
f 19/33/49 18/29/50 3/32/51 5/8/52
f 5/8/53 6/7/54 20/34/55 19/33/56
f 17/30/57 20/35/58 6/36/59 4/31/60
f 18/29/61 19/33/62 20/35/63 17/30/64
f 24/10/65 23/9/66 22/4/67 21/3/68
