# This file uses centimeters as units for non-parametric coordinates.

v -14.543763 -0.000001 5.129654
v 14.543763 -0.000001 5.129654
v -14.543763 33.023949 0.229015
v 14.543763 33.023949 0.229015
v -14.543763 33.023949 -0.972260
v 14.543763 33.023949 -0.972260
v -14.543763 -0.000001 -4.831038
v 14.543763 -0.000001 -4.831038
v 14.543763 14.543763 -7.157355
v -14.543763 14.543763 -7.157355
v -14.543763 14.543763 -0.079631
v 14.543763 14.543763 -0.079631
v -14.543763 7.271881 1.519961
v -14.543763 7.271881 -7.163617
v 14.543763 7.271881 -7.163617
v 14.543763 7.271881 1.519961
v -14.543763 21.815643 0.572008
v -14.543763 21.815643 -4.450531
v 14.543763 21.815643 -4.450531
v 14.543763 21.815643 0.572008
v -14.543763 27.938065 1.593197
v -14.543763 27.938065 -1.027025
v 14.543763 27.938065 -1.027025
v 14.543763 27.938065 1.593197
v 0.000000 27.938065 2.273180
v 0.000000 21.815643 0.572008
v 0.000000 14.543763 -0.079631
v 0.000000 7.271881 1.519961
v 0.000000 -0.000001 5.129654
v 0.000000 -0.000001 -4.831038
v 0.000000 7.271881 -7.163617
v 0.000000 14.543763 -7.157355
v 0.000000 21.815643 -4.450531
v 0.000000 27.938065 -2.388210
v 0.000000 33.023949 -1.525887
v 0.000000 33.023949 1.649082
v -0.917143 32.552624 0.793147
v 0.917143 32.552624 0.793147
v -0.917143 63.274174 0.793147
v 0.917143 63.274174 0.793147
v -0.917143 63.274174 -1.041138
v 0.917143 63.274174 -1.041138
v -0.917143 32.552624 -1.041138
v 0.917143 32.552624 -1.041138
v 0.917143 59.937672 0.793147
v -0.917143 59.937672 0.793147
v -0.917143 59.937672 -1.041138
v 0.917143 59.937672 -1.041138
v 0.917143 56.258842 0.793147
v -0.917143 56.258842 0.793147
v -0.917143 56.258842 -1.041138
v 0.917143 56.258842 -1.041138
vt 0.592107 0.091487
vt 0.592107 0.067936
vt 0.585586 0.067936
vt 0.585586 0.091487
vt 0.547053 0.091487
vt 0.547053 0.067937
vt 0.532787 0.067936
vt 0.532786 0.091487
vt 0.532400 0.091487
vt 0.532400 0.067936
vt 0.570159 0.067936
vt 0.570159 0.091487
vt 0.571063 0.091487
vt 0.571063 0.067937
vt 0.514348 0.067937
vt 0.514348 0.091487
vt 0.570159 0.079436
vt 0.532400 0.079436
vt 0.570159 0.115038
vt 0.570160 0.103538
vt 0.532400 0.103538
vt 0.532400 0.115038
vt 0.607919 0.091487
vt 0.607919 0.067937
vt 0.571063 0.115038
vt 0.571063 0.103538
vt 0.607919 0.103538
vt 0.607919 0.115038
vt 0.516886 0.091487
vt 0.516886 0.067936
vt 0.554496 0.067936
vt 0.554496 0.091487
vt 0.571063 0.079436
vt 0.607919 0.079436
vt 0.513520 0.103538
vt 0.513520 0.115038
vt 0.513520 0.091487
vt 0.513520 0.067936
vt 0.513520 0.079436
vt 0.566320 0.067936
vt 0.566320 0.091487
vt 0.532786 0.103538
vt 0.532786 0.115038
vt 0.532787 0.079436
vt 0.585586 0.115038
vt 0.566320 0.115038
vt 0.592107 0.115038
vt 0.554496 0.115038
vt 0.516886 0.115038
vt 0.514348 0.115038
vt 0.547053 0.115038
vt 0.604970 0.089370
vt 0.604970 0.101301
vt 0.537276 0.101301
vt 0.537276 0.089370
vt 0.517243 0.089370
vt 0.517243 0.101301
vt 0.528500 0.101301
vt 0.528693 0.089840
vt 0.537276 0.084202
vt 0.537276 0.071914
vt 0.604970 0.071914
vt 0.604970 0.084202
vt 0.604970 0.107722
vt 0.537276 0.107722
vt 0.526771 0.089370
vt 0.526771 0.101301
vt 0.526771 0.084202
vt 0.517243 0.084202
vt 0.517243 0.071914
vt 0.526771 0.071914
vt 0.526771 0.107722
vt 0.517243 0.107722
vn 0.000000 0.065041 0.997883
vn 0.000000 0.065041 0.997883
vn 0.010566 -0.148597 0.988841
vn 0.000000 -0.148606 0.988897
vn 0.000000 1.000000 0.000000
vn 0.000000 1.000000 0.000000
vn 0.000000 1.000000 0.000000
vn 0.000000 1.000000 0.000000
vn 0.000000 0.376870 -0.926266
vn 0.019809 0.376796 -0.926085
vn 0.000000 0.183383 -0.983042
vn 0.000000 0.183383 -0.983042
vn 0.000000 -1.000000 0.000000
vn 0.000000 -1.000000 0.000000
vn 0.000000 -1.000000 0.000000
vn 0.000000 -1.000000 0.000000
vn 1.000000 -0.000000 0.000000
vn 1.000000 -0.000000 0.000000
vn 1.000000 0.000000 0.000000
vn 1.000000 0.000000 0.000000
vn -1.000000 0.000000 0.000000
vn -1.000000 0.000000 0.000000
vn -1.000000 0.000000 0.000000
vn -1.000000 0.000000 0.000000
vn 0.000000 -0.157945 -0.987448
vn 0.000000 -0.157945 -0.987448
vn 0.000000 -0.305438 -0.952212
vn 0.000000 -0.305438 -0.952212
vn -1.000000 0.000000 0.000000
vn -1.000000 0.000000 0.000000
vn -1.000000 0.000000 0.000000
vn -1.000000 0.000000 0.000000
vn 0.000000 0.444625 0.895717
vn 0.000000 0.444625 0.895717
vn 0.000000 0.337202 0.941432
vn 0.000000 0.337202 0.941432
vn 1.000000 0.000000 0.000000
vn 1.000000 0.000000 0.000000
vn 1.000000 0.000000 0.000000
vn 1.000000 0.000000 0.000000
vn -1.000000 0.000000 0.000000
vn -1.000000 0.000000 0.000000
vn -1.000000 0.000000 0.000000
vn -1.000000 0.000000 0.000000
vn 0.000000 0.183383 -0.983042
vn 0.000000 0.183383 -0.983042
vn 0.000000 -0.157945 -0.987448
vn 0.000000 -0.157945 -0.987448
vn 1.000000 0.000000 0.000000
vn 1.000000 0.000000 0.000000
vn 1.000000 -0.000000 0.000000
vn 1.000000 -0.000000 0.000000
vn 0.000000 0.337202 0.941432
vn 0.000000 0.337202 0.941432
vn 0.000000 0.065041 0.997883
vn 0.000000 0.065041 0.997883
vn -1.000000 0.000000 0.000000
vn -1.000000 0.000000 0.000000
vn -1.000000 0.000000 0.000000
vn -1.000000 0.000000 0.000000
vn 0.000000 0.276909 -0.960896
vn 0.053399 0.271887 -0.960847
vn 0.019809 0.376796 -0.926085
vn 0.000000 0.376870 -0.926266
vn 1.000000 0.000000 0.000000
vn 1.000000 0.000000 0.000000
vn 1.000000 0.000000 0.000000
vn 1.000000 0.000000 0.000000
vn 0.000000 -0.148606 0.988897
vn 0.010566 -0.148597 0.988841
vn 0.045493 -0.032407 0.998439
vn 0.000000 -0.032278 0.999479
vn -1.000000 0.000000 0.000000
vn -1.000000 0.000000 0.000000
vn -1.000000 0.000000 0.000000
vn -1.000000 0.000000 0.000000
vn 0.000000 0.089796 -0.995960
vn 0.065423 0.089604 -0.993827
vn 0.053399 0.271887 -0.960847
vn 0.000000 0.276909 -0.960896
vn 1.000000 0.000000 0.000000
vn 1.000000 0.000000 0.000000
vn 1.000000 0.000000 0.000000
vn 1.000000 0.000000 0.000000
vn 0.000000 0.191840 0.981426
vn 0.000000 -0.032278 0.999479
vn 0.045493 -0.032407 0.998439
vn 0.070679 0.191360 0.978972
vn -0.010566 -0.148597 0.988841
vn 0.000000 -0.148606 0.988897
vn 0.000000 -0.032278 0.999479
vn -0.045493 -0.032407 0.998439
vn 0.000000 0.065041 0.997883
vn 0.000000 0.065041 0.997883
vn 0.000000 -0.148606 0.988897
vn -0.010566 -0.148597 0.988841
vn 0.000000 0.337202 0.941432
vn 0.000000 0.337202 0.941432
vn 0.000000 0.065041 0.997883
vn 0.000000 0.065041 0.997883
vn 0.000000 0.444625 0.895717
vn 0.000000 0.444625 0.895717
vn 0.000000 0.337202 0.941432
vn 0.000000 0.337202 0.941432
vn 0.000000 -1.000000 0.000000
vn 0.000000 -1.000000 0.000000
vn 0.000000 -1.000000 0.000000
vn 0.000000 -1.000000 0.000000
vn 0.000000 -0.157945 -0.987448
vn 0.000000 -0.157945 -0.987448
vn 0.000000 -0.305438 -0.952212
vn 0.000000 -0.305438 -0.952212
vn 0.000000 0.183383 -0.983042
vn 0.000000 0.183383 -0.983042
vn 0.000000 -0.157945 -0.987448
vn 0.000000 -0.157945 -0.987448
vn -0.019809 0.376796 -0.926085
vn 0.000000 0.376870 -0.926266
vn 0.000000 0.183383 -0.983042
vn 0.000000 0.183383 -0.983042
vn -0.053399 0.271887 -0.960847
vn 0.000000 0.276909 -0.960896
vn 0.000000 0.376870 -0.926266
vn -0.019809 0.376796 -0.926085
vn -0.065423 0.089604 -0.993827
vn 0.000000 0.089796 -0.995960
vn 0.000000 0.276909 -0.960896
vn -0.053399 0.271887 -0.960847
vn 0.000000 1.000000 0.000000
vn 0.000000 1.000000 0.000000
vn 0.000000 1.000000 0.000000
vn 0.000000 1.000000 0.000000
vn -0.045493 -0.032407 0.998439
vn 0.000000 -0.032278 0.999479
vn 0.000000 0.191840 0.981426
vn -0.070679 0.191360 0.978972
vn 0.000000 0.000000 1.000000
vn 0.000000 0.000000 1.000000
vn 0.000000 0.000000 1.000000
vn 0.000000 0.000000 1.000000
vn 0.000000 1.000000 0.000000
vn 0.000000 1.000000 0.000000
vn 0.000000 1.000000 0.000000
vn 0.000000 1.000000 0.000000
vn 0.000000 0.000000 -1.000000
vn 0.000000 0.000000 -1.000000
vn 0.000000 0.000000 -1.000000
vn 0.000000 0.000000 -1.000000
vn 1.000000 0.000000 0.000000
vn 1.000000 0.000000 0.000000
vn 1.000000 0.000000 0.000000
vn 1.000000 0.000000 0.000000
vn -1.000000 0.000000 0.000000
vn -1.000000 0.000000 0.000000
vn -1.000000 0.000000 0.000000
vn -1.000000 0.000000 0.000000
vn 0.000000 0.000000 1.000000
vn 0.000000 0.000000 1.000000
vn 0.000000 0.000000 1.000000
vn 0.000000 0.000000 1.000000
vn -1.000000 0.000000 0.000000
vn -1.000000 0.000000 0.000000
vn -1.000000 0.000000 0.000000
vn -1.000000 0.000000 0.000000
vn 0.000000 0.000000 -1.000000
vn 0.000000 0.000000 -1.000000
vn 0.000000 0.000000 -1.000000
vn 0.000000 0.000000 -1.000000
vn 1.000000 0.000000 0.000000
vn 1.000000 0.000000 0.000000
vn 1.000000 0.000000 0.000000
vn 1.000000 0.000000 0.000000
vn 0.000000 -1.000000 0.000000
vn 0.000000 -1.000000 0.000000
vn 0.000000 -1.000000 0.000000
vn 0.000000 -1.000000 0.000000
vn 0.000000 1.000000 0.000000
vn 0.000000 1.000000 0.000000
vn 0.000000 1.000000 0.000000
vn 0.000000 1.000000 0.000000
f 27/1/1 12/2/2 20/3/3 26/4/4
f 36/5/5 4/6/6 6/7/7 35/8/8
f 33/9/9 19/10/10 9/11/11 32/12/12
f 30/13/13 8/14/14 2/15/15 29/16/16
f 12/17/17 9/11/18 19/10/19 20/18/20
f 10/19/21 11/20/22 17/21/23 18/22/24
f 31/23/25 15/24/26 8/14/27 30/13/28
f 7/25/29 1/26/30 13/27/31 14/28/32
f 29/29/33 2/30/34 16/31/35 28/32/36
f 2/33/37 8/14/38 15/24/39 16/34/40
f 14/28/41 13/27/42 11/20/43 10/19/44
f 32/12/45 9/11/46 15/24/47 31/23/48
f 16/34/49 15/24/50 9/11/51 12/17/52
f 28/32/53 16/31/54 12/2/55 27/1/56
f 18/22/57 17/21/58 21/35/59 22/36/60
f 34/37/61 23/38/62 19/10/63 33/9/64
f 20/18/65 19/10/66 23/38/67 24/39/68
f 26/4/69 20/3/70 24/40/71 25/41/72
f 22/36/73 21/35/74 3/42/75 5/43/76
f 35/8/77 6/7/78 23/38/79 34/37/80
f 24/39/81 23/38/82 6/7/83 4/44/84
f 36/5/85 25/41/86 24/40/87 4/6/88
f 17/45/89 26/4/90 25/41/91 21/46/92
f 11/47/93 27/1/94 26/4/95 17/45/96
f 13/48/97 28/32/98 27/1/99 11/47/100
f 1/49/101 29/29/102 28/32/103 13/48/104
f 7/25/105 30/13/106 29/16/107 1/50/108
f 14/28/109 31/23/110 30/13/111 7/25/112
f 10/19/113 32/12/114 31/23/115 14/28/116
f 18/22/117 33/9/118 32/12/119 10/19/120
f 22/36/121 34/37/122 33/9/123 18/22/124
f 5/43/125 35/8/126 34/37/127 22/36/128
f 3/51/129 36/5/130 35/8/131 5/43/132
f 21/46/133 25/41/134 36/5/135 3/51/136
f 37/52/137 38/53/138 49/54/139 50/55/140
f 39/56/141 40/57/142 42/58/143 41/59/144
f 51/60/145 52/61/146 44/62/147 43/63/148
f 38/53/149 44/64/150 52/65/151 49/54/152
f 43/63/153 37/52/154 50/55/155 51/60/156
f 46/66/157 45/67/158 40/57/159 39/56/160
f 47/68/161 46/66/162 39/56/163 41/69/164
f 41/69/165 42/70/166 48/71/167 47/68/168
f 45/67/169 48/72/170 42/73/171 40/57/172
f 46/66/173 47/68/174 48/72/175 45/67/176
f 50/55/177 49/54/178 52/61/179 51/60/180
