# This file uses centimeters as units for non-parametric coordinates.

v -10.356779 0.000000 6.529370
v 10.356779 0.000000 6.529370
v -10.590167 58.870190 6.529370
v 10.590167 58.870190 6.529370
v -10.590167 58.870190 -6.529370
v 10.590167 58.870190 -6.529370
v -10.356779 0.000000 -6.529370
v 10.356779 0.000000 -6.529370
v -8.122873 29.435095 4.187823
v -8.122873 29.435095 -4.187823
v 8.122873 29.435095 -4.187823
v 8.122873 29.435095 4.187823
v -9.244361 44.152641 4.187823
v -9.244361 44.152641 -4.187823
v 9.244361 44.152641 -4.187823
v 9.244361 44.152641 4.187823
v -9.244361 14.717549 4.187823
v -9.244361 14.717549 -4.187823
v 9.244361 14.717549 -4.187823
v 9.244361 14.717549 4.187823
v -5.070644 44.152641 -4.187823
v 5.070644 44.152641 -4.187823
v 4.055558 33.009926 -4.187823
v -4.055558 33.009926 -4.187823
v -4.645973 54.391457 -5.792071
v 4.645973 54.391457 -5.792071
v 4.055558 33.009926 4.187823
v -4.055558 33.009926 4.187823
v 5.070644 44.152641 4.187823
v -5.070644 44.152641 4.187823
v 4.645973 54.391457 5.792071
v -4.645973 54.391457 5.792071
v -1.910399 56.754440 1.910399
v 1.910399 56.754440 1.910399
v -1.910399 91.960510 1.910399
v 1.910399 91.960510 1.910399
v -1.910399 91.960510 -1.910399
v 1.910399 91.960510 -1.910399
v -1.910399 56.754440 -1.910399
v 1.910399 56.754440 -1.910399
v 1.910399 86.611626 1.910399
v -1.910399 86.611626 1.910399
v -1.910399 86.611626 -1.910399
v 1.910399 86.611626 -1.910399
v 1.910399 80.544128 1.910399
v -1.910399 80.544128 1.910399
v -1.910399 80.544128 -1.910399
v 1.910399 80.544128 -1.910399
vt 0.706305 0.136443
vt 0.706305 0.161566
vt 0.687270 0.161566
vt 0.687270 0.136443
vt 0.657341 0.136613
vt 0.710786 0.136613
vt 0.710786 0.169564
vt 0.657341 0.169564
vt 0.687302 0.148462
vt 0.687430 0.176083
vt 0.706477 0.176083
vt 0.706341 0.148462
vt 0.656603 0.136834
vt 0.708870 0.136834
vt 0.708870 0.169786
vt 0.656603 0.169786
vt 0.706347 0.176083
vt 0.687300 0.176083
vt 0.668263 0.148462
vt 0.668231 0.136443
vt 0.687291 0.136443
vt 0.687259 0.148462
vt 0.668231 0.161566
vt 0.668261 0.176083
vt 0.687262 0.176083
vt 0.687291 0.161566
vt 0.706292 0.136443
vt 0.706256 0.148462
vt 0.706250 0.176083
vt 0.706292 0.161566
vt 0.668392 0.176083
vt 0.687131 0.176083
vt 0.672777 0.167786
vt 0.687159 0.167863
vt 0.672847 0.154579
vt 0.687229 0.154656
vt 0.706118 0.176083
vt 0.700370 0.168895
vt 0.700449 0.153765
vt 0.672910 0.155564
vt 0.672910 0.142445
vt 0.687292 0.155564
vt 0.687292 0.142445
vt 0.700508 0.156519
vt 0.700508 0.141490
vt 0.737724 0.165998
vt 0.705124 0.165998
vt 0.705124 0.139074
vt 0.737724 0.139074
vt 0.669305 0.165998
vt 0.669305 0.139074
vt 0.636392 0.171155
vt 0.636392 0.133917
vt 0.637559 0.171156
vt 0.672823 0.171156
vt 0.672823 0.133918
vt 0.637559 0.133918
vt 0.703902 0.165999
vt 0.703902 0.139074
vt 0.735921 0.133772
vt 0.735921 0.143813
vt 0.669227 0.143813
vt 0.669227 0.133772
vt 0.654592 0.163894
vt 0.654592 0.153853
vt 0.643402 0.153854
vt 0.643402 0.163894
vt 0.669227 0.163894
vt 0.669227 0.153854
vt 0.735921 0.153854
vt 0.735921 0.163894
vt 0.735921 0.173935
vt 0.669227 0.173935
vt 0.657458 0.133772
vt 0.657458 0.143813
vt 0.643402 0.143813
vt 0.643402 0.133772
vt 0.657458 0.163894
vt 0.657458 0.173935
vt 0.643402 0.173935
vt 0.657458 0.153854
vn 0.000000 0.157123 0.987579
vn 0.000000 0.157123 0.987579
vn 0.000000 0.087805 0.996138
vn 0.000000 0.087805 0.996138
vn 0.000000 1.000000 0.000000
vn 0.000000 1.000000 0.000000
vn 0.000000 1.000000 0.000000
vn 0.000000 1.000000 0.000000
vn 0.000000 0.087805 -0.996138
vn 0.000000 0.087805 -0.996138
vn 0.000000 0.157123 -0.987579
vn 0.000000 0.157123 -0.987579
vn 0.000000 -1.000000 0.000000
vn 0.000000 -1.000000 0.000000
vn 0.000000 -1.000000 0.000000
vn 0.000000 -1.000000 0.000000
vn 0.997156 0.075369 0.000000
vn 0.997156 0.075369 0.000000
vn 0.997137 0.075623 0.000000
vn 0.997137 0.075623 0.000000
vn -0.997156 0.075369 0.000000
vn -0.997156 0.075369 0.000000
vn -0.997137 0.075623 0.000000
vn -0.997137 0.075623 0.000000
vn -1.000000 0.000000 0.000000
vn -1.000000 0.000000 0.000000
vn -0.996398 -0.084805 0.000000
vn -0.996398 -0.084805 0.000000
vn 1.000000 -0.000000 0.000000
vn 1.000000 -0.000000 0.000000
vn 0.996398 -0.084805 0.000000
vn 0.996398 -0.084805 0.000000
vn -0.996398 -0.084805 0.000000
vn -0.996398 -0.084805 0.000000
vn -0.995845 -0.091062 0.000000
vn -0.995845 -0.091062 0.000000
vn 0.996398 -0.084805 0.000000
vn 0.996398 -0.084805 0.000000
vn 0.995845 -0.091062 0.000000
vn 0.995845 -0.091062 0.000000
vn -0.997137 0.075623 0.000000
vn -0.997137 0.075623 0.000000
vn -1.000000 0.000000 0.000000
vn -1.000000 0.000000 0.000000
vn 0.000000 0.000000 -1.000000
vn 0.000000 0.000000 -1.000000
vn 0.000000 0.087805 -0.996138
vn 0.000000 0.087805 -0.996138
vn 0.997137 0.075623 0.000000
vn 0.997137 0.075623 0.000000
vn 1.000000 -0.000000 0.000000
vn 1.000000 -0.000000 0.000000
vn 0.000000 0.087805 0.996138
vn 0.000000 0.087805 0.996138
vn 0.000000 0.000000 1.000000
vn 0.000000 0.000000 1.000000
vn 0.000000 0.000000 -1.000000
vn 0.000000 0.000000 -1.000000
vn 0.000000 0.000000 -1.000000
vn 0.000000 0.000000 -1.000000
vn 0.000000 0.000000 -1.000000
vn 0.000000 0.000000 -1.000000
vn 0.000000 0.000000 -1.000000
vn 0.000000 0.000000 -1.000000
vn 0.000000 0.000000 -1.000000
vn 0.000000 0.000000 -1.000000
vn 0.000000 0.000000 -1.000000
vn 0.000000 0.000000 -1.000000
vn 0.000000 -0.162436 -0.986719
vn 0.000000 -0.162436 -0.986719
vn 0.000000 -0.162436 -0.986719
vn 0.000000 -0.162436 -0.986719
vn -0.002896 -0.156063 -0.987743
vn -0.002896 -0.156063 -0.987743
vn -0.002896 -0.156063 -0.987743
vn -0.002896 -0.156063 -0.987743
vn 0.002896 -0.156063 -0.987743
vn 0.002896 -0.156063 -0.987743
vn 0.002896 -0.156063 -0.987743
vn 0.002896 -0.156063 -0.987743
vn 0.000000 0.000000 1.000000
vn 0.000000 0.000000 1.000000
vn 0.000000 0.000000 1.000000
vn 0.000000 0.000000 1.000000
vn 0.000000 0.000000 1.000000
vn 0.000000 0.000000 1.000000
vn 0.000000 0.000000 1.000000
vn 0.000000 0.000000 1.000000
vn 0.000000 0.000000 1.000000
vn 0.000000 0.000000 1.000000
vn 0.000000 0.000000 1.000000
vn 0.000000 0.000000 1.000000
vn -0.002896 -0.156063 0.987743
vn -0.002896 -0.156063 0.987743
vn -0.002896 -0.156063 0.987743
vn -0.002896 -0.156063 0.987743
vn 0.000000 -0.162436 0.986719
vn 0.000000 -0.162436 0.986719
vn 0.000000 -0.162436 0.986719
vn 0.000000 -0.162436 0.986719
vn 0.002896 -0.156063 0.987743
vn 0.002896 -0.156063 0.987743
vn 0.002896 -0.156063 0.987743
vn 0.002896 -0.156063 0.987743
vn 0.000000 1.000000 0.000000
vn 0.000000 1.000000 0.000000
vn 0.000000 1.000000 0.000000
vn 0.000000 1.000000 0.000000
vn 0.995876 0.090723 0.000000
vn 0.999825 0.018696 0.000000
vn 0.999825 0.018696 0.000000
vn 0.995876 0.090723 0.000000
vn 0.999825 0.018696 0.000000
vn 0.999141 -0.041441 0.000000
vn 0.999141 -0.041441 0.000000
vn 0.999825 0.018696 0.000000
vn 0.000000 -1.000000 0.000000
vn 0.000000 -1.000000 0.000000
vn 0.000000 -1.000000 0.000000
vn 0.000000 -1.000000 0.000000
vn -0.999141 -0.041441 0.000000
vn -0.999825 0.018696 0.000000
vn -0.999825 0.018696 0.000000
vn -0.999141 -0.041441 0.000000
vn -0.999825 0.018696 0.000000
vn -0.995876 0.090723 0.000000
vn -0.995876 0.090723 0.000000
vn -0.999825 0.018696 0.000000
vn 0.000000 0.000000 1.000000
vn 0.000000 0.000000 1.000000
vn 0.000000 0.000000 1.000000
vn 0.000000 0.000000 1.000000
vn 0.000000 1.000000 0.000000
vn 0.000000 1.000000 0.000000
vn 0.000000 1.000000 0.000000
vn 0.000000 1.000000 0.000000
vn 0.000000 0.000000 -1.000000
vn 0.000000 0.000000 -1.000000
vn 0.000000 0.000000 -1.000000
vn 0.000000 0.000000 -1.000000
vn 1.000000 0.000000 0.000000
vn 1.000000 0.000000 0.000000
vn 1.000000 0.000000 0.000000
vn 1.000000 0.000000 0.000000
vn -1.000000 0.000000 0.000000
vn -1.000000 0.000000 0.000000
vn -1.000000 0.000000 0.000000
vn -1.000000 0.000000 0.000000
vn 0.000000 0.000000 1.000000
vn 0.000000 0.000000 1.000000
vn 0.000000 0.000000 1.000000
vn 0.000000 0.000000 1.000000
vn -1.000000 0.000000 0.000000
vn -1.000000 0.000000 0.000000
vn -1.000000 0.000000 0.000000
vn -1.000000 0.000000 0.000000
vn 0.000000 0.000000 -1.000000
vn 0.000000 0.000000 -1.000000
vn 0.000000 0.000000 -1.000000
vn 0.000000 0.000000 -1.000000
vn 1.000000 0.000000 0.000000
vn 1.000000 0.000000 0.000000
vn 1.000000 0.000000 0.000000
vn 1.000000 0.000000 0.000000
vn 0.000000 1.000000 0.000000
vn 0.000000 1.000000 0.000000
vn 0.000000 1.000000 0.000000
vn 0.000000 1.000000 0.000000
vn 0.000000 -1.000000 0.000000
vn 0.000000 -1.000000 0.000000
vn 0.000000 -1.000000 0.000000
vn 0.000000 -1.000000 0.000000
f 1/1/1 2/2/2 20/3/3 17/4/4
f 3/5/5 4/6/6 6/7/7 5/8/8
f 18/9/9 19/10/10 8/11/11 7/12/12
f 7/13/13 8/14/14 2/15/15 1/16/16
f 2/2/17 8/17/18 19/18/19 20/3/20
f 7/12/21 1/1/22 17/4/23 18/9/24
f 10/19/25 9/20/26 13/21/27 14/22/28
f 12/23/29 11/24/30 15/25/31 16/26/32
f 14/22/33 13/21/34 3/27/35 5/28/36
f 16/26/37 15/25/38 6/29/39 4/30/40
f 18/9/41 17/4/42 9/20/43 10/19/44
f 10/19/45 11/31/46 19/10/47 18/9/48
f 20/3/49 19/18/50 11/24/51 12/23/52
f 17/4/53 20/3/54 12/23/55 9/20/56
f 15/32/57 11/31/58 23/33/59 22/34/60
f 11/31/61 10/19/62 24/35/63 23/33/64
f 10/19/65 14/22/66 21/36/67 24/35/68
f 5/28/69 6/37/70 26/38/71 25/39/72
f 6/37/73 15/32/74 22/34/75 26/38/76
f 14/22/77 5/28/78 25/39/79 21/36/80
f 9/20/81 12/23/82 27/40/83 28/41/84
f 12/23/85 16/26/86 29/42/87 27/40/88
f 13/21/89 9/20/90 28/41/91 30/43/92
f 16/26/93 4/30/94 31/44/95 29/42/96
f 4/30/97 3/27/98 32/45/99 31/44/100
f 3/27/101 13/21/102 30/43/103 32/45/104
f 23/46/105 24/47/106 28/48/107 27/49/108
f 24/47/109 21/50/110 30/51/111 28/48/112
f 21/50/113 25/52/114 32/53/115 30/51/116
f 25/54/117 26/55/118 31/56/119 32/57/120
f 26/55/121 22/58/122 29/59/123 31/56/124
f 22/58/125 23/46/126 27/49/127 29/59/128
f 33/60/129 34/61/130 45/62/131 46/63/132
f 35/64/133 36/65/134 38/66/135 37/67/136
f 47/68/137 48/69/138 40/70/139 39/71/140
f 34/61/141 40/70/142 48/69/143 45/62/144
f 39/71/145 33/72/146 46/73/147 47/68/148
f 42/74/149 41/75/150 36/76/151 35/77/152
f 43/78/153 42/79/154 35/80/155 37/67/156
f 37/67/157 38/66/158 44/81/159 43/78/160
f 41/75/161 44/81/162 38/66/163 36/76/164
f 46/63/165 45/62/166 48/69/167 47/68/168
f 42/79/169 43/78/170 44/81/171 41/75/172
