# This file uses meters as units for non-parametric coordinates.

v 7.146149 0.308548 1.449936
v 7.088913 0.000000 1.149376
v 7.381500 0.307449 1.163200
v 2.860046 0.000000 -8.894485
v 2.782143 0.308514 -9.271118
v 3.055473 0.305908 -9.213936
v 10.528713 44.949104 4.508930
v 10.880814 44.304588 5.086632
v 11.201450 44.703934 4.550652
v 2.671173 44.959007 -13.095654
v 3.102699 44.709778 -13.676060
v 2.502171 44.350090 -13.812489
v -10.894324 32.266621 3.605598
v -11.778859 31.035583 3.602345
v -11.543570 31.035583 4.128403
v -4.669568 0.308453 1.264236
v -4.267190 0.000000 1.235435
v -4.554291 0.308464 1.518936
v 7.965130 43.854355 2.833824
v 7.147154 42.889931 2.205818
v -6.944566 35.030472 2.195145
v -5.785736 35.177979 1.650978
v 2.141603 43.565342 -9.115551
v 2.104752 42.640335 -8.172077
v -1.263112 0.707714 -1.213411
v -1.824965 1.015858 -0.933813
v 1.210899 1.020996 -5.460373
v 1.075127 0.712986 -4.755875
v 4.291267 0.713165 -1.108879
v 4.653065 1.020916 -0.779156
vt 0.713939 0.041983
vt 0.654792 0.040267
vt 0.636549 0.015771
vt 0.653805 0.041983
vt 0.652823 0.041958
vt 0.667163 0.015700
vt 0.715179 0.042006
vt 0.683872 0.016396
vt 0.684397 0.015816
vt 0.697527 0.016375
vt 0.675348 0.047589
vt 0.674926 0.047635
vt 0.655447 0.040699
vt 0.692634 0.047384
vt 0.692299 0.047652
vt 0.694142 0.047285
vt 0.713955 0.040653
vt 0.714696 0.040349
vt 0.734901 0.015945
vt 0.735041 0.016052
vt 0.685234 0.025848
vt 0.685529 0.024283
vt 0.723692 0.022205
vt 0.661486 0.026660
vt 0.644644 0.023610
vt 0.681492 0.038859
vt 0.682869 0.047035
vt 0.701211 0.026375
vt 0.685005 0.024559
vt 0.681556 0.036027
vt 0.685629 0.024245
vt 0.667884 0.027725
vt 0.685206 0.026027
vt 0.694903 0.027442
vt 0.684862 0.024549
vt 0.668317 0.015855
vt 0.668160 0.015687
vt 0.697140 0.016515
vt 0.698523 0.016382
vt 0.676648 0.047987
vt 0.676391 0.047751
vt 0.693660 0.047255
vt 0.714561 0.040258
vt 0.683463 0.015889
vn 0.000000 -1.000000 0.000000
vn 0.000000 -1.000000 0.000000
vn 0.000000 -1.000000 0.000000
vn 0.916287 -0.044720 -0.398018
vn 0.916287 -0.044720 -0.398018
vn 0.916287 -0.044720 -0.398018
vn 0.916287 -0.044720 -0.398018
vn 0.006316 -0.083025 0.996527
vn 0.006316 -0.083025 0.996527
vn 0.006316 -0.083025 0.996527
vn 0.006316 -0.083025 0.996527
vn -0.763656 -0.094292 -0.638701
vn -0.763656 -0.094292 -0.638701
vn -0.763656 -0.094292 -0.638700
vn -0.763656 -0.094292 -0.638700
vn 0.004893 -0.686478 0.727134
vn 0.004893 -0.686478 0.727134
vn 0.004893 -0.686479 0.727134
vn 0.004893 -0.686478 0.727134
vn 0.676641 -0.679584 -0.283412
vn 0.676641 -0.679584 -0.283412
vn 0.676641 -0.679584 -0.283412
vn 0.676641 -0.679584 -0.283412
vn 0.847826 -0.113621 0.517958
vn 0.847826 -0.113621 0.517958
vn 0.847826 -0.113621 0.517958
vn 0.847826 -0.113621 0.517958
vn -0.589139 -0.692942 -0.415628
vn -0.589139 -0.692942 -0.415628
vn -0.589139 -0.692942 -0.415628
vn -0.589139 -0.692942 -0.415628
vn 0.253029 -0.097319 -0.962552
vn 0.253029 -0.097319 -0.962552
vn 0.253029 -0.097319 -0.962552
vn 0.253029 -0.097319 -0.962552
vn -0.338532 0.515516 0.787172
vn -0.338532 0.515516 0.787172
vn -0.338532 0.515516 0.787172
vn -0.338532 0.515516 0.787172
vn 0.341360 0.927625 -0.151607
vn 0.341360 0.927625 -0.151607
vn 0.341360 0.927625 -0.151607
vn 0.341360 0.927626 -0.151607
vn -0.801259 0.550510 -0.234355
vn -0.801259 0.550510 -0.234355
vn -0.801259 0.550510 -0.234355
vn -0.801260 0.550510 -0.234355
vn -0.890780 -0.215786 0.399934
vn -0.890600 -0.216677 0.399854
vn -0.886611 -0.235453 0.398099
vn -0.886611 -0.235453 0.398099
vn -0.389266 0.698755 -0.600178
vn -0.389266 0.698755 -0.600178
vn -0.389266 0.698755 -0.600178
vn -0.389266 0.698755 -0.600178
vn -0.814581 0.432984 0.385983
vn -0.814581 0.432984 0.385983
vn -0.814581 0.432984 0.385983
vn -0.814581 0.432984 0.385983
vn 0.224542 0.681662 0.696360
vn 0.224542 0.681662 0.696360
vn 0.224542 0.681662 0.696360
vn 0.224542 0.681662 0.696360
vn 0.014644 0.705628 -0.708431
vn 0.014644 0.705628 -0.708431
vn 0.014644 0.705628 -0.708431
vn 0.014644 0.705628 -0.708431
vn 0.600597 0.691783 0.400900
vn 0.600597 0.691783 0.400900
vn 0.600597 0.691783 0.400900
vn 0.600597 0.691783 0.400900
vn -0.549213 0.711036 0.439081
vn -0.549213 0.711036 0.439081
vn -0.549213 0.711036 0.439081
vn -0.549213 0.711037 0.439081
vn -0.503361 0.834231 0.225136
vn -0.503359 0.834231 0.225138
vn -0.503359 0.834231 0.225139
vn -0.503361 0.834231 0.225136
vn -0.503359 0.834232 0.225138
vn -0.503359 0.834232 0.225137
vn -0.000997 0.999999 0.000830
vn -0.000997 0.999999 0.000830
vn -0.000997 0.999999 0.000830
vn 0.786860 0.032877 0.616255
vn 0.786860 0.032877 0.616255
vn 0.786860 0.032877 0.616255
vn 0.786860 0.032877 0.616255
vn 0.007351 0.073200 -0.997290
vn 0.007351 0.073200 -0.997290
vn 0.007351 0.073200 -0.997290
vn 0.007351 0.073200 -0.997290
vn -0.870977 0.033740 0.490165
vn -0.870977 0.033740 0.490165
vn -0.870977 0.033740 0.490165
vn -0.870977 0.033740 0.490165
vn 0.613423 -0.606514 0.505820
vn 0.613423 -0.606514 0.505820
vn 0.613423 -0.606514 0.505820
vn 0.127577 -0.754176 -0.644161
vn 0.127577 -0.754176 -0.644161
vn 0.127577 -0.754176 -0.644161
vn 0.219370 0.714918 0.663904
vn 0.219370 0.714918 0.663904
vn 0.219370 0.714918 0.663904
vn -0.324813 0.757234 -0.566651
vn -0.324813 0.757234 -0.566651
vn -0.324813 0.757234 -0.566651
vn -0.763685 0.547827 0.341572
vn -0.575560 -0.775147 0.260534
vn -0.575560 -0.775147 0.260534
vn -0.575560 -0.775147 0.260534
f 17/8/1 4/1/2 2/4/3
f 6/10/4 11/14/5 9/41/6 3/37/7
f 8/11/8 15/2/9 18/3/10 1/6/11
f 16/19/12 14/43/13 12/42/14 5/39/15
f 2/4/16 1/5/17 18/44/18 17/8/19
f 3/37/20 2/36/21 4/38/22 6/10/23
f 1/6/24 3/37/25 9/41/26 8/11/27
f 5/7/28 4/1/29 17/8/30 16/9/31
f 6/10/32 5/39/33 12/42/34 11/14/35
f 8/11/36 7/12/37 13/13/38 15/2/39
f 7/40/40 9/41/41 11/14/42 10/15/43
f 10/16/44 12/42/45 14/43/46 13/17/47
f 15/18/48 14/43/49 16/19/50 18/20/51
f 19/24/52 20/32/53 22/30/54 21/26/55
f 20/32/56 19/24/57 23/28/58 24/34/59
f 21/26/60 22/30/61 24/34/62 23/28/63
f 25/21/64 26/33/65 30/35/66 29/29/67
f 26/33/68 25/21/69 28/22/70 27/31/71
f 27/31/72 28/22/73 29/29/74 30/35/75
f 7/25/76 10/23/77 23/28/78 19/24/79
f 13/27/80 7/25/76 19/24/79 21/26/81
f 10/23/77 13/27/80 21/26/81 23/28/78
f 28/22/82 25/21/83 29/29/84
f 24/34/85 22/30/86 26/33/87 27/31/88
f 22/30/89 20/32/90 30/35/91 26/33/92
f 20/32/93 24/34/94 27/31/95 30/35/96
f 1/6/97 2/36/98 3/37/99
f 4/38/100 5/39/101 6/10/102
f 7/40/103 8/11/104 9/41/105
f 10/15/106 11/14/107 12/42/108
f 13/17/109 14/43/49 15/18/48
f 16/9/110 17/8/111 18/44/112
