# This file uses meters as units for non-parametric coordinates.

v -3.068359 0.308548 -11.468849
v -3.276497 0.000000 -11.244591
v -3.438805 0.307449 -11.488426
v -15.046127 0.000000 2.969086
v -15.303284 0.308514 3.255089
v -15.419266 0.305908 3.001076
v -1.984230 41.516243 -6.738308
v -1.854366 41.189995 -7.055202
v -2.169083 41.392136 -7.025089
v -6.803329 41.521252 1.747383
v -7.169426 41.395096 1.745621
v -7.044853 41.213028 2.031380
v 4.075709 35.096478 2.266235
v 4.339787 34.473339 2.627811
v 4.483644 34.473339 2.374039
v 7.170160 0.308453 4.226715
v 6.908441 0.000000 3.919731
v 7.306955 0.308464 3.982895
v -1.897886 40.962090 -5.190590
v -1.908464 40.473904 -4.668694
v 2.315548 36.495514 1.079266
v 1.745985 36.570183 0.770126
v -5.021864 40.815796 0.769005
v -4.626183 40.347565 0.500927
v 1.841181 0.707714 1.736551
v 2.399415 1.015858 2.023306
v -11.302834 1.020996 2.261581
v -10.654976 0.712986 1.953316
v -3.436825 0.713165 -6.310295
v -3.385750 1.020916 -6.797127
vt 0.838939 0.710991
vt 0.779792 0.706957
vt 0.761549 0.649388
vt 0.778805 0.710991
vt 0.777823 0.710931
vt 0.792163 0.649222
vt 0.840179 0.711044
vt 0.808872 0.650857
vt 0.809397 0.649493
vt 0.822527 0.650809
vt 0.800348 0.724164
vt 0.799926 0.724273
vt 0.780447 0.707971
vt 0.817634 0.723684
vt 0.817299 0.724314
vt 0.819142 0.723451
vt 0.838955 0.707865
vt 0.839696 0.707149
vt 0.859901 0.649798
vt 0.860041 0.650049
vt 0.810234 0.673069
vt 0.810529 0.669394
vt 0.848692 0.664508
vt 0.786486 0.674979
vt 0.769644 0.667810
vt 0.806492 0.703649
vt 0.807869 0.722863
vt 0.826211 0.674309
vt 0.810005 0.670042
vt 0.806556 0.696992
vt 0.810629 0.669304
vt 0.792884 0.677482
vt 0.810206 0.673491
vt 0.819903 0.676816
vt 0.809862 0.670019
vt 0.793317 0.649585
vt 0.793160 0.649190
vt 0.822140 0.651137
vt 0.823523 0.650825
vt 0.801648 0.725099
vt 0.801391 0.724544
vt 0.818660 0.723380
vt 0.839561 0.706935
vt 0.808463 0.649665
vn 0.000000 -1.000000 0.000000
vn 0.000000 -1.000000 0.000000
vn 0.000000 -1.000000 0.000000
vn -0.802236 0.115799 -0.585669
vn -0.802236 0.115799 -0.585669
vn -0.802236 0.115800 -0.585669
vn -0.802236 0.115799 -0.585669
vn 0.834265 0.038447 -0.550022
vn 0.834265 0.038447 -0.550022
vn 0.834265 0.038447 -0.550022
vn 0.834265 0.038447 -0.550022
vn -0.038218 0.040305 0.998456
vn -0.038218 0.040305 0.998456
vn -0.038218 0.040305 0.998456
vn -0.038218 0.040305 0.998456
vn 0.598340 -0.693204 -0.401818
vn 0.598340 -0.693204 -0.401818
vn 0.598340 -0.693204 -0.401818
vn 0.598340 -0.693204 -0.401818
vn -0.574719 -0.665975 -0.475580
vn -0.574718 -0.665975 -0.475579
vn -0.574718 -0.665975 -0.475580
vn -0.574718 -0.665975 -0.475580
vn 0.016160 0.107173 -0.994109
vn 0.016160 0.107173 -0.994109
vn 0.016160 0.107173 -0.994109
vn 0.016160 0.107173 -0.994109
vn -0.031185 -0.692500 0.720743
vn -0.031185 -0.692500 0.720743
vn -0.031185 -0.692500 0.720743
vn -0.031185 -0.692500 0.720743
vn -0.871973 0.189211 0.451512
vn -0.871973 0.189211 0.451512
vn -0.871973 0.189211 0.451512
vn -0.871973 0.189211 0.451512
vn 0.834635 0.515517 -0.193976
vn 0.834635 0.515517 -0.193976
vn 0.834635 0.515517 -0.193976
vn 0.834635 0.515517 -0.193976
vn -0.324450 0.927626 -0.185047
vn -0.324450 0.927626 -0.185047
vn -0.324450 0.927626 -0.185047
vn -0.324450 0.927626 -0.185047
vn 0.286234 0.550517 0.784220
vn 0.286234 0.550517 0.784220
vn 0.286234 0.550517 0.784220
vn 0.286234 0.550517 0.784220
vn 0.866691 0.099336 0.488855
vn 0.866720 0.099016 0.488869
vn 0.867093 0.094703 0.489061
vn 0.867093 0.094703 0.489061
vn -0.252616 0.698752 0.669277
vn -0.252616 0.698751 0.669277
vn -0.252616 0.698752 0.669277
vn -0.252616 0.698752 0.669277
vn 0.793729 0.432978 0.427230
vn 0.793729 0.432978 0.427230
vn 0.793729 0.432978 0.427230
vn 0.793729 0.432978 0.427230
vn 0.427718 0.681660 -0.593630
vn 0.427718 0.681660 -0.593630
vn 0.427718 0.681660 -0.593630
vn 0.427718 0.681660 -0.593630
vn -0.589513 0.708962 0.387101
vn -0.589513 0.708962 0.387101
vn -0.589513 0.708962 0.387101
vn -0.589513 0.708962 0.387101
vn -0.012233 0.693690 -0.720170
vn -0.012233 0.693690 -0.720170
vn -0.012233 0.693690 -0.720170
vn -0.012233 0.693690 -0.720170
vn 0.554011 0.677311 0.484067
vn 0.554011 0.677311 0.484067
vn 0.554011 0.677311 0.484067
vn 0.554011 0.677311 0.484067
vn 0.479698 0.834232 0.271931
vn 0.479698 0.834231 0.271933
vn 0.479698 0.834231 0.271933
vn 0.479698 0.834232 0.271931
vn 0.479698 0.834231 0.271934
vn 0.479698 0.834231 0.271933
vn 0.000429 1.000000 0.000396
vn 0.000429 1.000000 0.000396
vn 0.000429 1.000000 0.000396
vn -0.005948 -0.039737 -0.999193
vn -0.005948 -0.039737 -0.999193
vn -0.005948 -0.039737 -0.999192
vn -0.005948 -0.039737 -0.999192
vn -0.833497 0.002708 0.552517
vn -0.833497 0.002708 0.552517
vn -0.833497 0.002708 0.552517
vn -0.833497 0.002708 0.552517
vn 0.798419 -0.085421 0.596011
vn 0.798419 -0.085421 0.596012
vn 0.798419 -0.085421 0.596012
vn 0.798419 -0.085421 0.596011
vn 0.043753 -0.606513 -0.793869
vn 0.043753 -0.606513 -0.793869
vn 0.043753 -0.606513 -0.793869
vn -0.594376 -0.754192 0.279127
vn -0.594376 -0.754192 0.279127
vn -0.594376 -0.754192 0.279127
vn 0.404640 0.714931 -0.570211
vn 0.404640 0.714931 -0.570211
vn 0.404640 0.714931 -0.570211
vn -0.263821 0.757248 0.597473
vn -0.263821 0.757248 0.597473
vn -0.263821 0.757248 0.597472
vn 0.727791 0.547821 0.412568
vn 0.551001 -0.775148 0.309101
vn 0.551001 -0.775148 0.309101
vn 0.551001 -0.775148 0.309101
f 17/8/1 4/1/2 2/4/3
f 6/10/4 11/14/5 9/41/6 3/37/7
f 8/11/8 15/2/9 18/3/10 1/6/11
f 16/19/12 14/43/13 12/42/14 5/39/15
f 2/4/16 1/5/17 18/44/18 17/8/19
f 3/37/20 2/36/21 4/38/22 6/10/23
f 1/6/24 3/37/25 9/41/26 8/11/27
f 5/7/28 4/1/29 17/8/30 16/9/31
f 6/10/32 5/39/33 12/42/34 11/14/35
f 8/11/36 7/12/37 13/13/38 15/2/39
f 7/40/40 9/41/41 11/14/42 10/15/43
f 10/16/44 12/42/45 14/43/46 13/17/47
f 15/18/48 14/43/49 16/19/50 18/20/51
f 19/24/52 20/32/53 22/30/54 21/26/55
f 20/32/56 19/24/57 23/28/58 24/34/59
f 21/26/60 22/30/61 24/34/62 23/28/63
f 25/21/64 26/33/65 30/35/66 29/29/67
f 26/33/68 25/21/69 28/22/70 27/31/71
f 27/31/72 28/22/73 29/29/74 30/35/75
f 7/25/76 10/23/77 23/28/78 19/24/79
f 13/27/80 7/25/76 19/24/79 21/26/81
f 10/23/77 13/27/80 21/26/81 23/28/78
f 28/22/82 25/21/83 29/29/84
f 24/34/85 22/30/86 26/33/87 27/31/88
f 22/30/89 20/32/90 30/35/91 26/33/92
f 20/32/93 24/34/94 27/31/95 30/35/96
f 1/6/97 2/36/98 3/37/99
f 4/38/100 5/39/101 6/10/102
f 7/40/103 8/11/104 9/41/105
f 10/15/106 11/14/107 12/42/108
f 13/17/109 14/43/49 15/18/48
f 16/9/110 17/8/111 18/44/112
