# This file uses meters as units for non-parametric coordinates.

v -3.068359 0.308548 -11.468849
v -3.276497 0.000000 -11.244591
v -3.438805 0.307449 -11.488426
v -15.046127 0.000000 2.969086
v -15.303284 0.308514 3.255089
v -15.419266 0.305908 3.001076
v -1.984230 41.516243 -6.738308
v -1.854366 41.189995 -7.055202
v -2.169083 41.392136 -7.025089
v -6.803329 41.521252 1.747383
v -7.169426 41.395096 1.745621
v -7.044853 41.213028 2.031380
v 4.075709 35.096478 2.266235
v 4.339787 34.473339 2.627811
v 4.483644 34.473339 2.374039
v 7.170160 0.308453 4.226715
v 6.908441 0.000000 3.919731
v 7.306955 0.308464 3.982895
v -1.897886 40.962090 -5.190590
v -1.908464 40.473904 -4.668694
v 2.315548 36.495514 1.079266
v 1.745985 36.570183 0.770126
v -5.021864 40.815796 0.769005
v -4.626183 40.347565 0.500927
v 1.841181 0.707714 1.736551
v 2.399415 1.015858 2.023306
v -11.302834 1.020996 2.261581
v -10.654976 0.712986 1.953316
v -3.436825 0.713165 -6.310295
v -3.385750 1.020916 -6.797127
vt 0.713939 0.104483
vt 0.654792 0.102767
vt 0.636549 0.078271
vt 0.653805 0.104483
vt 0.652823 0.104458
vt 0.667163 0.078200
vt 0.715179 0.104506
vt 0.683872 0.078896
vt 0.684397 0.078316
vt 0.697527 0.078875
vt 0.675348 0.110089
vt 0.674926 0.110135
vt 0.655447 0.103199
vt 0.692634 0.109884
vt 0.692299 0.110152
vt 0.694142 0.109785
vt 0.713955 0.103153
vt 0.714696 0.102849
vt 0.734901 0.078445
vt 0.735041 0.078552
vt 0.685234 0.088348
vt 0.685529 0.086783
vt 0.723692 0.084705
vt 0.661486 0.089160
vt 0.644644 0.086110
vt 0.681492 0.101359
vt 0.682869 0.109535
vt 0.701211 0.088875
vt 0.685005 0.087059
vt 0.681556 0.098527
vt 0.685629 0.086745
vt 0.667884 0.090225
vt 0.685206 0.088527
vt 0.694903 0.089942
vt 0.684862 0.087049
vt 0.668317 0.078355
vt 0.668160 0.078187
vt 0.697140 0.079015
vt 0.698523 0.078882
vt 0.676648 0.110487
vt 0.676391 0.110251
vt 0.693660 0.109755
vt 0.714561 0.102758
vt 0.683463 0.078389
vn 0.000000 -1.000000 0.000000
vn 0.000000 -1.000000 0.000000
vn 0.000000 -1.000000 0.000000
vn -0.802236 0.115799 -0.585669
vn -0.802236 0.115799 -0.585669
vn -0.802236 0.115800 -0.585669
vn -0.802236 0.115799 -0.585669
vn 0.834265 0.038447 -0.550022
vn 0.834265 0.038447 -0.550022
vn 0.834265 0.038447 -0.550022
vn 0.834265 0.038447 -0.550022
vn -0.038218 0.040305 0.998456
vn -0.038218 0.040305 0.998456
vn -0.038218 0.040305 0.998456
vn -0.038218 0.040305 0.998456
vn 0.598340 -0.693204 -0.401818
vn 0.598340 -0.693204 -0.401818
vn 0.598340 -0.693204 -0.401818
vn 0.598340 -0.693204 -0.401818
vn -0.574719 -0.665975 -0.475580
vn -0.574718 -0.665975 -0.475579
vn -0.574718 -0.665975 -0.475580
vn -0.574718 -0.665975 -0.475580
vn 0.016160 0.107173 -0.994109
vn 0.016160 0.107173 -0.994109
vn 0.016160 0.107173 -0.994109
vn 0.016160 0.107173 -0.994109
vn -0.031185 -0.692500 0.720743
vn -0.031185 -0.692500 0.720743
vn -0.031185 -0.692500 0.720743
vn -0.031185 -0.692500 0.720743
vn -0.871973 0.189211 0.451512
vn -0.871973 0.189211 0.451512
vn -0.871973 0.189211 0.451512
vn -0.871973 0.189211 0.451512
vn 0.834635 0.515517 -0.193976
vn 0.834635 0.515517 -0.193976
vn 0.834635 0.515517 -0.193976
vn 0.834635 0.515517 -0.193976
vn -0.324450 0.927626 -0.185047
vn -0.324450 0.927626 -0.185047
vn -0.324450 0.927626 -0.185047
vn -0.324450 0.927626 -0.185047
vn 0.286234 0.550517 0.784220
vn 0.286234 0.550517 0.784220
vn 0.286234 0.550517 0.784220
vn 0.286234 0.550517 0.784220
vn 0.866691 0.099336 0.488855
vn 0.866720 0.099016 0.488869
vn 0.867093 0.094703 0.489061
vn 0.867093 0.094703 0.489061
vn -0.252616 0.698752 0.669277
vn -0.252616 0.698751 0.669277
vn -0.252616 0.698752 0.669277
vn -0.252616 0.698752 0.669277
vn 0.793729 0.432978 0.427230
vn 0.793729 0.432978 0.427230
vn 0.793729 0.432978 0.427230
vn 0.793729 0.432978 0.427230
vn 0.427718 0.681660 -0.593630
vn 0.427718 0.681660 -0.593630
vn 0.427718 0.681660 -0.593630
vn 0.427718 0.681660 -0.593630
vn -0.589513 0.708962 0.387101
vn -0.589513 0.708962 0.387101
vn -0.589513 0.708962 0.387101
vn -0.589513 0.708962 0.387101
vn -0.012233 0.693690 -0.720170
vn -0.012233 0.693690 -0.720170
vn -0.012233 0.693690 -0.720170
vn -0.012233 0.693690 -0.720170
vn 0.554011 0.677311 0.484067
vn 0.554011 0.677311 0.484067
vn 0.554011 0.677311 0.484067
vn 0.554011 0.677311 0.484067
vn 0.479698 0.834232 0.271931
vn 0.479698 0.834231 0.271933
vn 0.479698 0.834231 0.271933
vn 0.479698 0.834232 0.271931
vn 0.479698 0.834231 0.271934
vn 0.479698 0.834231 0.271933
vn 0.000429 1.000000 0.000396
vn 0.000429 1.000000 0.000396
vn 0.000429 1.000000 0.000396
vn -0.005948 -0.039737 -0.999193
vn -0.005948 -0.039737 -0.999193
vn -0.005948 -0.039737 -0.999192
vn -0.005948 -0.039737 -0.999192
vn -0.833497 0.002708 0.552517
vn -0.833497 0.002708 0.552517
vn -0.833497 0.002708 0.552517
vn -0.833497 0.002708 0.552517
vn 0.798419 -0.085421 0.596011
vn 0.798419 -0.085421 0.596012
vn 0.798419 -0.085421 0.596012
vn 0.798419 -0.085421 0.596011
vn 0.043753 -0.606513 -0.793869
vn 0.043753 -0.606513 -0.793869
vn 0.043753 -0.606513 -0.793869
vn -0.594376 -0.754192 0.279127
vn -0.594376 -0.754192 0.279127
vn -0.594376 -0.754192 0.279127
vn 0.404640 0.714931 -0.570211
vn 0.404640 0.714931 -0.570211
vn 0.404640 0.714931 -0.570211
vn -0.263821 0.757248 0.597473
vn -0.263821 0.757248 0.597473
vn -0.263821 0.757248 0.597472
vn 0.727791 0.547821 0.412568
vn 0.551001 -0.775148 0.309101
vn 0.551001 -0.775148 0.309101
vn 0.551001 -0.775148 0.309101
f 17/8/1 4/1/2 2/4/3
f 6/10/4 11/14/5 9/41/6 3/37/7
f 8/11/8 15/2/9 18/3/10 1/6/11
f 16/19/12 14/43/13 12/42/14 5/39/15
f 2/4/16 1/5/17 18/44/18 17/8/19
f 3/37/20 2/36/21 4/38/22 6/10/23
f 1/6/24 3/37/25 9/41/26 8/11/27
f 5/7/28 4/1/29 17/8/30 16/9/31
f 6/10/32 5/39/33 12/42/34 11/14/35
f 8/11/36 7/12/37 13/13/38 15/2/39
f 7/40/40 9/41/41 11/14/42 10/15/43
f 10/16/44 12/42/45 14/43/46 13/17/47
f 15/18/48 14/43/49 16/19/50 18/20/51
f 19/24/52 20/32/53 22/30/54 21/26/55
f 20/32/56 19/24/57 23/28/58 24/34/59
f 21/26/60 22/30/61 24/34/62 23/28/63
f 25/21/64 26/33/65 30/35/66 29/29/67
f 26/33/68 25/21/69 28/22/70 27/31/71
f 27/31/72 28/22/73 29/29/74 30/35/75
f 7/25/76 10/23/77 23/28/78 19/24/79
f 13/27/80 7/25/76 19/24/79 21/26/81
f 10/23/77 13/27/80 21/26/81 23/28/78
f 28/22/82 25/21/83 29/29/84
f 24/34/85 22/30/86 26/33/87 27/31/88
f 22/30/89 20/32/90 30/35/91 26/33/92
f 20/32/93 24/34/94 27/31/95 30/35/96
f 1/6/97 2/36/98 3/37/99
f 4/38/100 5/39/101 6/10/102
f 7/40/103 8/11/104 9/41/105
f 10/15/106 11/14/107 12/42/108
f 13/17/109 14/43/49 15/18/48
f 16/9/110 17/8/111 18/44/112
