# This file uses meters as units for non-parametric coordinates.

v -4.613411 0.800522 3.810921
v 4.613411 0.800522 3.810921
v 4.613411 0.800522 -3.810921
v -4.613411 0.800522 -3.810921
v -6.141758 0.301323 5.034473
v -5.806263 0.000000 5.003777
v -5.836964 0.301323 5.339272
v 5.806263 0.000000 5.003777
v 6.141758 0.301323 5.034473
v 5.836964 0.301323 5.339272
v -8.022308 47.428638 8.536327
v -8.292946 47.127316 8.502186
v -7.988163 47.127316 8.806973
v 8.022308 47.428638 8.536327
v 7.988163 47.127316 8.806973
v 8.292946 47.127316 8.502186
v -8.022308 47.428638 -8.536327
v -7.988163 47.127316 -8.806973
v -8.292946 47.127316 -8.502186
v 8.022308 47.428638 -8.536327
v 8.292946 47.127316 -8.502186
v 7.988163 47.127316 -8.806973
v -5.806263 0.000000 -5.003777
v -6.141758 0.301323 -5.034473
v -5.836964 0.301323 -5.339272
v 6.141758 0.301323 -5.034473
v 5.806263 0.000000 -5.003777
v 5.836964 0.301323 -5.339272
v -7.416065 47.428638 7.930088
v -7.077152 47.127708 7.591175
v 7.416065 47.428638 7.930088
v 7.077152 47.127708 7.591175
v 7.416065 47.428638 -7.930088
v 7.077152 47.127708 -7.591175
v -7.416065 47.428638 -7.930088
v -7.077152 47.127708 -7.591175
vt 0.884311 0.867382
vt 0.993541 0.867382
vt 0.993541 0.758153
vt 0.884311 0.758153
vt 0.990422 0.761272
vt 0.991257 0.866380
vt 0.990404 0.759156
vt 0.886781 0.759156
vt 0.887430 0.761272
vt 0.884311 0.761280
vt 0.884311 0.864588
vt 0.886781 0.759156
vt 0.993541 0.760947
vt 0.993541 0.864255
vt 0.991071 0.759156
vt 0.886194 0.866380
vt 0.991548 0.866781
vt 0.991658 0.866380
vt 0.991548 0.866781
vt 0.886194 0.866380
vt 0.886064 0.866781
vt 0.884311 0.759758
vt 0.991257 0.759155
vt 0.993541 0.866985
vt 0.887430 0.864263
vt 0.990404 0.866380
vt 0.884311 0.867382
vt 0.993541 0.867382
vt 0.993541 0.758153
vt 0.884311 0.758153
vt 0.993541 0.867382
vt 0.884311 0.867382
vt 0.993541 0.758153
vt 0.993541 0.867382
vt 0.884311 0.758153
vt 0.993541 0.758153
vt 0.884311 0.867382
vt 0.884311 0.758153
vt 0.992043 0.759462
vt 0.884518 0.865977
vt 0.884518 0.759462
vt 0.992043 0.865977
vt 0.992043 0.759462
vt 0.884518 0.865977
vt 0.884518 0.759462
vt 0.992043 0.865977
vt 0.887214 0.758153
vt 0.887448 0.759156
vt 0.989642 0.758153
vt 0.990404 0.759156
vt 0.886595 0.866380
vt 0.991257 0.866380
vt 0.886194 0.759156
vt 0.993541 0.759958
vt 0.884311 0.866864
vt 0.886781 0.866380
vt 0.990422 0.864263
vn 0.000000 1.000000 0.000000
vn 0.000000 1.000000 0.000000
vn 0.000000 1.000000 0.000000
vn 0.000000 1.000000 0.000000
vn 0.000000 -1.000000 0.000000
vn 0.000000 -1.000000 0.000000
vn 0.000000 -1.000000 0.000000
vn 0.000000 -1.000000 0.000000
vn 0.000000 -0.073853 0.997269
vn 0.000000 -0.073853 0.997269
vn 0.000000 -0.073853 0.997269
vn 0.000000 -0.073853 0.997269
vn -0.998946 -0.045892 0.000000
vn -0.998946 -0.045892 0.000000
vn -0.998946 -0.045892 0.000000
vn -0.998946 -0.045892 0.000000
vn 0.998946 -0.045892 0.000000
vn 0.998946 -0.045892 0.000000
vn 0.998946 -0.045892 0.000000
vn 0.998946 -0.045892 0.000000
vn 0.000000 -0.073853 -0.997269
vn 0.000000 -0.073853 -0.997269
vn 0.000000 -0.073853 -0.997269
vn 0.000000 -0.073853 -0.997269
vn -0.668202 -0.743980 0.000000
vn -0.668202 -0.743980 0.000000
vn -0.668202 -0.743980 0.000000
vn -0.668202 -0.743980 0.000000
vn 0.000000 -0.743980 0.668202
vn 0.000000 -0.743980 0.668202
vn 0.000000 -0.743980 0.668202
vn 0.000000 -0.743980 0.668202
vn -0.704580 -0.084545 0.704570
vn -0.704580 -0.084545 0.704570
vn -0.704580 -0.084545 0.704570
vn -0.704580 -0.084545 0.704570
vn 0.668202 -0.743980 0.000000
vn 0.668202 -0.743980 0.000000
vn 0.668202 -0.743980 0.000000
vn 0.668202 -0.743980 0.000000
vn 0.704580 -0.084546 0.704570
vn 0.704580 -0.084546 0.704570
vn 0.704580 -0.084546 0.704570
vn 0.704580 -0.084546 0.704570
vn -0.743972 0.668210 0.000000
vn -0.743972 0.668210 0.000000
vn -0.743972 0.668210 0.000000
vn -0.743972 0.668210 0.000000
vn 0.000000 0.668219 0.743965
vn 0.000000 0.668219 0.743965
vn 0.000000 0.668219 0.743965
vn 0.000000 0.668219 0.743965
vn 0.743972 0.668210 0.000000
vn 0.743972 0.668210 0.000000
vn 0.743972 0.668210 0.000000
vn 0.743972 0.668210 0.000000
vn 0.000000 0.668219 -0.743965
vn 0.000000 0.668219 -0.743965
vn 0.000000 0.668219 -0.743965
vn 0.000000 0.668219 -0.743965
vn -0.704580 -0.084545 -0.704570
vn -0.704580 -0.084545 -0.704570
vn -0.704580 -0.084545 -0.704570
vn -0.704580 -0.084545 -0.704570
vn 0.704580 -0.084546 -0.704570
vn 0.704580 -0.084546 -0.704570
vn 0.704580 -0.084546 -0.704570
vn 0.704580 -0.084545 -0.704570
vn 0.000000 -0.743980 -0.668202
vn 0.000000 -0.743980 -0.668202
vn 0.000000 -0.743980 -0.668202
vn 0.000000 -0.743980 -0.668202
vn 0.663962 0.747766 0.000000
vn 0.663962 0.747766 0.000000
vn 0.663962 0.747766 0.000000
vn 0.663962 0.747766 0.000000
vn 0.000000 0.747766 -0.663963
vn 0.000000 0.747766 -0.663963
vn 0.000000 0.747766 -0.663963
vn 0.000000 0.747766 -0.663963
vn -0.663962 0.747766 0.000000
vn -0.663962 0.747766 0.000000
vn -0.663962 0.747766 0.000000
vn -0.663962 0.747766 0.000000
vn 0.000000 0.747766 0.663963
vn 0.000000 0.747766 0.663963
vn 0.000000 0.747766 0.663963
vn 0.000000 0.747766 0.663963
vn 0.000000 1.000000 0.000003
vn 0.000000 1.000000 0.000003
vn 0.000000 1.000000 0.000003
vn 0.000000 1.000000 0.000003
vn 0.000000 1.000000 -0.000003
vn 0.000000 1.000000 -0.000003
vn 0.000000 1.000000 -0.000003
vn 0.000000 1.000000 -0.000003
vn 0.000000 0.081329 -0.996687
vn 0.000000 0.081329 -0.996687
vn 0.000000 0.081329 -0.996687
vn 0.000000 0.081329 -0.996687
vn -0.998589 0.053106 0.000000
vn -0.998589 0.053106 0.000000
vn -0.998589 0.053106 0.000000
vn -0.998589 0.053106 0.000000
vn 0.000000 0.081329 0.996687
vn 0.000000 0.081329 0.996687
vn 0.000000 0.081329 0.996687
vn 0.000000 0.081329 0.996687
vn 0.998589 0.053106 0.000000
vn 0.998589 0.053106 0.000000
vn 0.998589 0.053106 0.000000
vn 0.998589 0.053106 0.000000
vn -0.536297 -0.651750 0.536290
vn -0.536297 -0.651750 0.536290
vn -0.536297 -0.651750 0.536290
vn 0.536297 -0.651750 0.536291
vn 0.536297 -0.651750 0.536291
vn 0.536297 -0.651750 0.536291
vn -0.618281 0.485264 0.618262
vn -0.618281 0.485264 0.618262
vn -0.618281 0.485264 0.618262
vn 0.618280 0.485263 0.618264
vn 0.618280 0.485263 0.618264
vn 0.618280 0.485263 0.618264
vn -0.618280 0.485263 -0.618264
vn -0.618280 0.485263 -0.618264
vn -0.618280 0.485263 -0.618264
vn 0.618281 0.485264 -0.618262
vn 0.618281 0.485264 -0.618262
vn 0.618281 0.485264 -0.618262
vn -0.536297 -0.651750 -0.536291
vn -0.536297 -0.651750 -0.536291
vn -0.536297 -0.651750 -0.536291
vn 0.536297 -0.651750 -0.536290
vn 0.536297 -0.651750 -0.536290
vn 0.536297 -0.651750 -0.536290
f 1/1/1 2/2/2 3/3/3 4/4/4
f 23/25/5 27/57/6 8/5/7 6/9/8
f 10/15/9 15/18/10 13/51/11 7/48/12
f 12/16/13 19/6/14 24/7/15 5/12/16
f 26/8/17 21/20/18 16/52/19 9/50/20
f 22/23/21 28/26/22 25/56/23 18/53/24
f 6/9/25 5/10/26 24/11/27 23/25/28
f 7/48/29 6/47/30 8/49/31 10/15/32
f 5/12/33 7/48/34 13/51/35 12/16/36
f 9/13/37 8/5/38 27/57/39 26/14/40
f 10/15/41 9/50/42 16/52/43 15/18/44
f 12/16/45 11/37/46 17/17/47 19/6/48
f 11/37/49 13/51/50 15/18/51 14/31/52
f 14/19/53 16/52/54 21/20/55 20/21/56
f 18/53/57 17/35/58 20/33/59 22/23/60
f 19/22/61 18/53/62 25/56/63 24/55/64
f 22/23/65 21/54/66 26/24/67 28/26/68
f 23/25/69 25/56/70 28/26/71 27/57/72
f 29/32/73 30/27/74 36/30/75 35/38/76
f 30/27/77 29/32/78 31/34/79 32/28/80
f 32/28/81 31/34/82 33/36/83 34/29/84
f 34/29/85 33/36/86 35/38/87 36/30/88
f 11/37/89 14/31/90 31/34/91 29/32/92
f 14/31/90 20/33/93 33/36/94 31/34/91
f 20/33/93 17/35/95 35/38/96 33/36/94
f 17/35/95 11/37/89 29/32/92 35/38/96
f 30/45/97 32/39/98 2/42/99 1/40/100
f 32/39/101 34/41/102 3/44/103 2/42/104
f 34/41/105 36/43/106 4/46/107 3/44/108
f 36/43/109 30/45/110 1/40/111 4/46/112
f 5/12/113 6/47/114 7/48/115
f 8/49/116 9/50/117 10/15/118
f 11/37/119 12/16/120 13/51/121
f 14/31/122 15/18/123 16/52/124
f 17/35/125 18/53/126 19/22/127
f 20/33/128 21/54/129 22/23/130
f 23/25/131 24/55/132 25/56/133
f 26/24/134 27/57/135 28/26/136
