# This file uses meters as units for non-parametric coordinates.

v -3.810921 0.800522 3.810921
v 3.810921 0.800522 3.810921
v 3.810921 0.800522 -3.810921
v -3.810921 0.800522 -3.810921
v -5.339260 0.301323 5.034470
v -5.003777 0.000000 5.003777
v -5.034470 0.301323 5.339260
v 5.003777 0.000000 5.003777
v 5.339260 0.301323 5.034470
v 5.034470 0.301323 5.339260
v -8.536327 32.830345 8.536327
v -8.806973 32.529026 8.502186
v -8.502186 32.529026 8.806973
v 8.536327 32.830345 8.536327
v 8.502186 32.529026 8.806973
v 8.806973 32.529026 8.502186
v -8.536327 32.830345 -8.536327
v -8.502186 32.529026 -8.806973
v -8.806973 32.529026 -8.502186
v 8.536327 32.830345 -8.536327
v 8.806973 32.529026 -8.502186
v 8.502186 32.529026 -8.806973
v -5.003777 0.000000 -5.003777
v -5.339260 0.301323 -5.034470
v -5.034470 0.301323 -5.339260
v 5.339260 0.301323 -5.034470
v 5.003777 0.000000 -5.003777
v 5.034470 0.301323 -5.339260
v -7.930088 32.830345 7.930088
v -7.591175 32.529415 7.591175
v 7.930088 32.830345 7.930088
v 7.591175 32.529415 7.591175
v 7.930088 32.830345 -7.930088
v 7.591175 32.529415 -7.591175
v -7.930088 32.830345 -7.930088
v -7.591175 32.529415 -7.591175
vt 0.476447 0.870049
vt 0.492654 0.870049
vt 0.492654 0.852799
vt 0.476447 0.852799
vt 0.492192 0.853291
vt 0.492316 0.869891
vt 0.492189 0.852957
vt 0.476813 0.852957
vt 0.476910 0.853291
vt 0.476447 0.853293
vt 0.476447 0.869608
vt 0.476813 0.852957
vt 0.492654 0.853240
vt 0.492654 0.869555
vt 0.492288 0.852957
vt 0.476726 0.869891
vt 0.492359 0.869954
vt 0.492375 0.869891
vt 0.492359 0.869954
vt 0.476726 0.869891
vt 0.476707 0.869954
vt 0.476447 0.853052
vt 0.492316 0.852957
vt 0.492654 0.869986
vt 0.476910 0.869556
vt 0.492189 0.869891
vt 0.476447 0.870049
vt 0.492654 0.870049
vt 0.492654 0.852799
vt 0.476447 0.852799
vt 0.492654 0.870049
vt 0.476447 0.870049
vt 0.492654 0.852799
vt 0.492654 0.870049
vt 0.476447 0.852799
vt 0.492654 0.852799
vt 0.476447 0.870049
vt 0.476447 0.852799
vt 0.492432 0.853006
vt 0.476478 0.869827
vt 0.476478 0.853006
vt 0.492432 0.869827
vt 0.492432 0.853006
vt 0.476478 0.869827
vt 0.476478 0.853006
vt 0.492432 0.869827
vt 0.476878 0.852799
vt 0.476912 0.852957
vt 0.492076 0.852799
vt 0.492189 0.852957
vt 0.476786 0.869891
vt 0.492316 0.869891
vt 0.476726 0.852957
vt 0.492654 0.853084
vt 0.476447 0.869967
vt 0.476813 0.869891
vt 0.492192 0.869556
vn 0.000000 1.000000 0.000000
vn 0.000000 1.000000 0.000000
vn 0.000000 1.000000 0.000000
vn 0.000000 1.000000 0.000000
vn 0.000000 -1.000000 0.000000
vn 0.000000 -1.000000 0.000000
vn 0.000000 -1.000000 0.000000
vn 0.000000 -1.000000 0.000000
vn 0.000000 -0.106983 0.994261
vn 0.000000 -0.106983 0.994261
vn 0.000000 -0.106983 0.994261
vn 0.000000 -0.106983 0.994261
vn -0.994261 -0.106983 0.000000
vn -0.994261 -0.106983 0.000000
vn -0.994261 -0.106983 0.000000
vn -0.994261 -0.106983 0.000000
vn 0.994261 -0.106983 0.000000
vn 0.994261 -0.106983 0.000000
vn 0.994261 -0.106983 0.000000
vn 0.994261 -0.106983 0.000000
vn 0.000000 -0.106983 -0.994261
vn 0.000000 -0.106983 -0.994261
vn 0.000000 -0.106983 -0.994261
vn 0.000000 -0.106983 -0.994261
vn -0.668214 -0.743969 0.000000
vn -0.668214 -0.743969 0.000000
vn -0.668214 -0.743969 0.000000
vn -0.668214 -0.743969 0.000000
vn 0.000000 -0.743969 0.668214
vn 0.000000 -0.743969 0.668214
vn 0.000000 -0.743969 0.668214
vn 0.000000 -0.743969 0.668214
vn -0.699059 -0.150438 0.699060
vn -0.699059 -0.150438 0.699060
vn -0.699059 -0.150438 0.699060
vn -0.699059 -0.150438 0.699060
vn 0.668214 -0.743969 0.000000
vn 0.668214 -0.743969 0.000000
vn 0.668214 -0.743969 0.000000
vn 0.668214 -0.743969 0.000000
vn 0.699059 -0.150438 0.699060
vn 0.699059 -0.150438 0.699060
vn 0.699059 -0.150438 0.699060
vn 0.699059 -0.150438 0.699060
vn -0.743958 0.668226 0.000000
vn -0.743958 0.668226 0.000000
vn -0.743958 0.668226 0.000000
vn -0.743958 0.668226 0.000000
vn 0.000000 0.668220 0.743963
vn 0.000000 0.668220 0.743963
vn 0.000000 0.668220 0.743963
vn 0.000000 0.668220 0.743963
vn 0.743958 0.668226 0.000000
vn 0.743958 0.668226 0.000000
vn 0.743958 0.668226 0.000000
vn 0.743958 0.668226 0.000000
vn 0.000000 0.668220 -0.743963
vn 0.000000 0.668220 -0.743963
vn 0.000000 0.668220 -0.743963
vn 0.000000 0.668220 -0.743963
vn -0.699059 -0.150438 -0.699060
vn -0.699059 -0.150438 -0.699060
vn -0.699059 -0.150438 -0.699060
vn -0.699059 -0.150438 -0.699060
vn 0.699059 -0.150438 -0.699060
vn 0.699059 -0.150438 -0.699060
vn 0.699059 -0.150438 -0.699060
vn 0.699059 -0.150438 -0.699060
vn 0.000000 -0.743969 -0.668214
vn 0.000000 -0.743969 -0.668214
vn 0.000000 -0.743969 -0.668214
vn 0.000000 -0.743969 -0.668214
vn 0.663962 0.747766 0.000000
vn 0.663962 0.747766 0.000000
vn 0.663962 0.747766 0.000000
vn 0.663962 0.747766 0.000000
vn 0.000000 0.747765 -0.663964
vn 0.000000 0.747765 -0.663964
vn 0.000000 0.747765 -0.663964
vn 0.000000 0.747765 -0.663964
vn -0.663962 0.747766 0.000000
vn -0.663962 0.747766 0.000000
vn -0.663962 0.747766 0.000000
vn -0.663962 0.747766 0.000000
vn 0.000000 0.747765 0.663964
vn 0.000000 0.747765 0.663964
vn 0.000000 0.747765 0.663964
vn 0.000000 0.747765 0.663964
vn 0.000000 1.000000 -0.000002
vn 0.000000 1.000000 -0.000002
vn 0.000000 1.000000 -0.000002
vn 0.000000 1.000000 -0.000002
vn 0.000000 1.000000 0.000002
vn 0.000000 1.000000 0.000002
vn 0.000000 1.000000 0.000002
vn 0.000000 1.000000 0.000002
vn 0.000000 0.118306 -0.992977
vn 0.000000 0.118306 -0.992977
vn 0.000000 0.118306 -0.992977
vn 0.000000 0.118306 -0.992977
vn -0.992977 0.118306 0.000000
vn -0.992977 0.118306 0.000000
vn -0.992977 0.118306 0.000000
vn -0.992977 0.118306 0.000000
vn 0.000000 0.118306 0.992977
vn 0.000000 0.118306 0.992977
vn 0.000000 0.118306 0.992977
vn 0.000000 0.118306 0.992977
vn 0.992977 0.118306 0.000000
vn 0.992977 0.118306 0.000000
vn 0.992977 0.118306 0.000000
vn 0.992977 0.118306 0.000000
vn -0.536304 -0.651733 0.536304
vn -0.536304 -0.651733 0.536304
vn -0.536304 -0.651733 0.536304
vn 0.536304 -0.651733 0.536304
vn 0.536304 -0.651733 0.536304
vn 0.536304 -0.651733 0.536304
vn -0.618260 0.485272 0.618276
vn -0.618260 0.485272 0.618276
vn -0.618260 0.485272 0.618276
vn 0.618259 0.485270 0.618279
vn 0.618259 0.485270 0.618279
vn 0.618259 0.485270 0.618279
vn -0.618259 0.485270 -0.618279
vn -0.618259 0.485270 -0.618279
vn -0.618259 0.485270 -0.618279
vn 0.618260 0.485272 -0.618276
vn 0.618260 0.485272 -0.618276
vn 0.618260 0.485272 -0.618276
vn -0.536304 -0.651733 -0.536304
vn -0.536304 -0.651733 -0.536304
vn -0.536304 -0.651733 -0.536304
vn 0.536304 -0.651733 -0.536304
vn 0.536304 -0.651733 -0.536304
vn 0.536304 -0.651733 -0.536304
f 1/1/1 2/2/2 3/3/3 4/4/4
f 23/25/5 27/57/6 8/5/7 6/9/8
f 10/15/9 15/18/10 13/51/11 7/48/12
f 12/16/13 19/6/14 24/7/15 5/12/16
f 26/8/17 21/20/18 16/52/19 9/50/20
f 22/23/21 28/26/22 25/56/23 18/53/24
f 6/9/25 5/10/26 24/11/27 23/25/28
f 7/48/29 6/47/30 8/49/31 10/15/32
f 5/12/33 7/48/34 13/51/35 12/16/36
f 9/13/37 8/5/38 27/57/39 26/14/40
f 10/15/41 9/50/42 16/52/43 15/18/44
f 12/16/45 11/37/46 17/17/47 19/6/48
f 11/37/49 13/51/50 15/18/51 14/31/52
f 14/19/53 16/52/54 21/20/55 20/21/56
f 18/53/57 17/35/58 20/33/59 22/23/60
f 19/22/61 18/53/62 25/56/63 24/55/64
f 22/23/65 21/54/66 26/24/67 28/26/68
f 23/25/69 25/56/70 28/26/71 27/57/72
f 29/32/73 30/27/74 36/30/75 35/38/76
f 30/27/77 29/32/78 31/34/79 32/28/80
f 32/28/81 31/34/82 33/36/83 34/29/84
f 34/29/85 33/36/86 35/38/87 36/30/88
f 11/37/89 14/31/90 31/34/91 29/32/92
f 14/31/90 20/33/93 33/36/94 31/34/91
f 20/33/93 17/35/95 35/38/96 33/36/94
f 17/35/95 11/37/89 29/32/92 35/38/96
f 30/45/97 32/39/98 2/42/99 1/40/100
f 32/39/101 34/41/102 3/44/103 2/42/104
f 34/41/105 36/43/106 4/46/107 3/44/108
f 36/43/109 30/45/110 1/40/111 4/46/112
f 5/12/113 6/47/114 7/48/115
f 8/49/116 9/50/117 10/15/118
f 11/37/119 12/16/120 13/51/121
f 14/31/122 15/18/123 16/52/124
f 17/35/125 18/53/126 19/22/127
f 20/33/128 21/54/129 22/23/130
f 23/25/131 24/55/132 25/56/133
f 26/24/134 27/57/135 28/26/136
