# This file uses meters as units for non-parametric coordinates.

v 0.000000 0.000000 0.000000
v 5.842102 0.597427 -2.419876
v 4.471355 0.597427 -4.471348
v 2.419880 0.597427 -5.842102
v 0.000003 0.597427 -6.323448
v -2.419876 0.597427 -5.842102
v -4.471352 0.597427 -4.471355
v -5.842102 0.597427 -2.419880
v -6.323448 0.597427 -0.000002
v -5.842102 0.597427 2.419876
v -4.471352 0.597427 4.471352
v -2.419880 0.597427 5.842102
v -0.000001 0.597427 6.323448
v 2.419876 0.597427 5.842102
v 4.471352 0.597427 4.471352
v 5.842102 0.597427 2.419880
v 6.323448 0.597427 -0.000000
v -0.000000 0.897423 0.000000
v 6.680053 50.192825 -2.766964
v 6.563281 50.312729 -2.718596
v 5.112692 50.192825 -5.112685
v 5.023319 50.312729 -5.023311
v 2.766968 50.192825 -6.680045
v 2.718600 50.312729 -6.563273
v 0.000004 50.192825 -7.230429
v 0.000003 50.312729 -7.104035
v -2.766964 50.192825 -6.680053
v -2.718596 50.312729 -6.563281
v -5.112685 50.192825 -5.112692
v -5.023311 50.312729 -5.023319
v -6.680045 50.192825 -2.766968
v -6.563273 50.312729 -2.718600
v -7.230429 50.192825 -0.000003
v -7.104035 50.312729 -0.000003
v -6.680045 50.192825 2.766964
v -6.563273 50.312729 2.718596
v -5.112692 50.192825 5.112685
v -5.023319 50.312729 5.023311
v -2.766968 50.192825 6.680045
v -2.718600 50.312729 6.563273
v -0.000001 50.192825 7.230429
v -0.000001 50.312729 7.104035
v 2.766964 50.192825 6.680045
v 2.718596 50.312729 6.563273
v 5.112685 50.192825 5.112685
v 5.023311 50.312729 5.023311
v 6.680045 50.192825 2.766968
v 6.563273 50.312729 2.718600
v 7.230429 50.192825 0.000000
v 7.104035 50.312729 -0.000000
v 4.469559 50.192825 -4.469551
v 4.558561 50.312729 -4.558553
v 5.956041 50.312729 -2.467070
v 5.839755 50.192825 -2.418902
v 2.418910 50.192825 -5.839755
v 2.467078 50.312729 -5.956041
v 0.000003 50.192825 -6.320903
v 0.000003 50.312729 -6.446771
v -2.418904 50.192825 -5.839755
v -2.467072 50.312729 -5.956041
v -4.469555 50.192825 -4.469559
v -4.558557 50.312729 -4.558561
v -5.839755 50.192825 -2.418908
v -5.956041 50.312729 -2.467076
v -6.320910 50.192825 -0.000002
v -6.446779 50.312729 -0.000002
v -5.839755 50.192825 2.418904
v -5.956041 50.312729 2.467072
v -4.469559 50.192825 4.469555
v -4.558561 50.312729 4.558557
v -2.418908 50.192825 5.839755
v -2.467076 50.312729 5.956041
v -0.000001 50.192825 6.320903
v -0.000001 50.312729 6.446771
v 2.418906 50.192825 5.839755
v 2.467074 50.312729 5.956041
v 4.469555 50.192825 4.469555
v 4.558557 50.312729 4.558557
v 5.839755 50.192825 2.418906
v 5.956041 50.312729 2.467074
v 6.320903 50.192825 -0.000000
v 6.446771 50.312729 -0.000000
v 6.416352 0.000000 -2.657736
v 6.754015 0.342899 -2.797601
v 4.910864 0.000000 -4.910856
v 5.169301 0.342899 -5.169293
v 2.657740 0.000000 -6.416344
v 2.797605 0.342899 -6.754008
v 0.000003 0.000000 -6.945001
v 0.000004 0.342899 -7.310485
v -2.657736 0.000000 -6.416352
v -2.797601 0.342899 -6.754015
v -4.910856 0.000000 -4.910864
v -5.169293 0.342899 -5.169301
v -6.416344 0.000000 -2.657740
v -6.754008 0.342899 -2.797605
v -6.945001 0.000000 -0.000003
v -7.310485 0.342899 -0.000003
v -6.416344 0.000000 2.657736
v -6.754008 0.342899 2.797601
v -4.910864 0.000000 4.910856
v -5.169301 0.342899 5.169293
v -2.657740 0.000000 6.416344
v -2.797605 0.342899 6.754008
v -0.000001 0.000000 6.945001
v -0.000001 0.342899 7.310485
v 2.657736 0.000000 6.416344
v 2.797601 0.342899 6.754008
v 4.910856 0.000000 4.910856
v 5.169293 0.342899 5.169293
v 6.416344 0.000000 2.657739
v 6.754008 0.342899 2.797605
v 6.945001 0.000000 -0.000000
v 7.310485 0.342899 0.000000
vt 0.491899 0.983598
vt 0.490216 0.980918
vt 0.487698 0.979127
vt 0.484727 0.978498
vt 0.481756 0.979127
vt 0.479238 0.980918
vt 0.477555 0.983598
vt 0.476964 0.986760
vt 0.477555 0.989922
vt 0.479238 0.992602
vt 0.481756 0.994394
vt 0.484727 0.995022
vt 0.487698 0.994394
vt 0.490216 0.992602
vt 0.491899 0.989922
vt 0.492490 0.986760
vt 0.484727 0.986430
vt 0.492395 0.995165
vt 0.492386 0.995206
vt 0.491410 0.995206
vt 0.476508 0.995206
vt 0.477484 0.995206
vt 0.477501 0.995206
vt 0.478477 0.995206
vt 0.478495 0.995206
vt 0.479471 0.995206
vt 0.479488 0.995206
vt 0.480464 0.995206
vt 0.480482 0.995206
vt 0.481458 0.995206
vt 0.481475 0.995206
vt 0.482451 0.995206
vt 0.482469 0.995206
vt 0.483445 0.995206
vt 0.483462 0.995206
vt 0.484438 0.995206
vt 0.484455 0.995206
vt 0.485432 0.995206
vt 0.485449 0.995206
vt 0.486425 0.995206
vt 0.486442 0.995206
vt 0.487419 0.995206
vt 0.487436 0.995206
vt 0.488412 0.995206
vt 0.488429 0.995206
vt 0.489405 0.995206
vt 0.489423 0.995206
vt 0.490399 0.995206
vt 0.490416 0.995206
vt 0.491392 0.995206
vt 0.476499 0.995164
vt 0.492395 0.995206
vt 0.476499 0.977817
vt 0.477492 0.995164
vt 0.477492 0.977817
vt 0.478486 0.995164
vt 0.478486 0.977817
vt 0.479479 0.995164
vt 0.479479 0.977817
vt 0.480473 0.995164
vt 0.480473 0.977817
vt 0.481466 0.995164
vt 0.481466 0.977817
vt 0.482460 0.995164
vt 0.482460 0.977817
vt 0.483453 0.995164
vt 0.483453 0.977817
vt 0.484447 0.995164
vt 0.484447 0.977817
vt 0.485440 0.995164
vt 0.485440 0.977817
vt 0.486434 0.995164
vt 0.486434 0.977817
vt 0.487427 0.995164
vt 0.487427 0.977817
vt 0.488421 0.995164
vt 0.488421 0.977817
vt 0.489414 0.995164
vt 0.489414 0.977817
vt 0.490408 0.995164
vt 0.490408 0.977817
vt 0.491401 0.995164
vt 0.491401 0.977817
vt 0.492395 0.995164
vt 0.492395 0.977817
vt 0.477492 0.995206
vt 0.476499 0.995206
vt 0.476499 0.995206
vt 0.478486 0.995206
vt 0.477492 0.995206
vt 0.479479 0.995206
vt 0.478486 0.995206
vt 0.480473 0.995206
vt 0.479479 0.995206
vt 0.481466 0.995206
vt 0.480473 0.995206
vt 0.482460 0.995206
vt 0.481466 0.995206
vt 0.483453 0.995206
vt 0.482460 0.995206
vt 0.484447 0.995206
vt 0.483453 0.995206
vt 0.485440 0.995206
vt 0.484447 0.995206
vt 0.486434 0.995206
vt 0.485440 0.995206
vt 0.487427 0.995206
vt 0.486434 0.995206
vt 0.488421 0.995206
vt 0.487427 0.995206
vt 0.489414 0.995206
vt 0.488421 0.995206
vt 0.490408 0.995206
vt 0.489414 0.995206
vt 0.491401 0.995206
vt 0.490408 0.995206
vt 0.492395 0.995206
vt 0.491401 0.995206
vt 0.491899 0.983598
vt 0.490216 0.980918
vt 0.487698 0.979127
vt 0.484727 0.978498
vt 0.481756 0.979127
vt 0.479238 0.980918
vt 0.477555 0.983598
vt 0.476964 0.986760
vt 0.477555 0.989922
vt 0.479238 0.992602
vt 0.481756 0.994394
vt 0.484727 0.995022
vt 0.487698 0.994394
vt 0.490216 0.992602
vt 0.491899 0.989922
vt 0.492490 0.986760
vt 0.491540 0.983740
vt 0.489942 0.981193
vt 0.487549 0.979492
vt 0.484727 0.978894
vt 0.481905 0.979492
vt 0.479512 0.981193
vt 0.477914 0.983740
vt 0.477352 0.986744
vt 0.477914 0.989747
vt 0.479512 0.992294
vt 0.481905 0.993995
vt 0.484727 0.994593
vt 0.487549 0.993995
vt 0.489942 0.992294
vt 0.491540 0.989747
vt 0.484727 0.986430
vt 0.492102 0.986744
vt 0.476499 0.977935
vt 0.477492 0.977935
vt 0.476499 0.995165
vt 0.478486 0.977935
vt 0.477492 0.995165
vt 0.479479 0.977935
vt 0.478486 0.995165
vt 0.480473 0.977935
vt 0.479479 0.995165
vt 0.481466 0.977935
vt 0.480473 0.995165
vt 0.482460 0.977935
vt 0.481466 0.995165
vt 0.483453 0.977935
vt 0.482460 0.995165
vt 0.484447 0.977935
vt 0.483453 0.995165
vt 0.485440 0.977935
vt 0.484447 0.995165
vt 0.486434 0.977935
vt 0.485440 0.995165
vt 0.487427 0.977935
vt 0.486434 0.995165
vt 0.488421 0.977935
vt 0.487427 0.995165
vt 0.489414 0.977935
vt 0.488421 0.995165
vt 0.490408 0.977935
vt 0.489414 0.995165
vt 0.491401 0.977935
vt 0.490408 0.995165
vt 0.492395 0.977935
vt 0.491401 0.995165
vn 0.033509 0.998877 -0.033509
vn -0.000000 1.000000 -0.000000
vn 0.043781 0.998877 -0.018135
vn 0.018135 0.998877 -0.043781
vn 0.000000 0.998877 -0.047388
vn -0.018135 0.998877 -0.043781
vn -0.033509 0.998877 -0.033509
vn -0.043781 0.998877 -0.018135
vn -0.047388 0.998877 -0.000000
vn -0.043781 0.998877 0.018135
vn -0.033509 0.998877 0.033509
vn -0.018135 0.998877 0.043781
vn -0.000000 0.998877 0.047388
vn 0.018135 0.998877 0.043781
vn 0.033509 0.998877 0.033509
vn 0.043781 0.998877 0.018135
vn 0.047388 0.998877 0.000000
vn 0.635848 0.725487 -0.263375
vn 0.635848 0.725487 -0.263374
vn 0.688237 0.725486 0.000002
vn 0.688237 0.725486 0.000002
vn 0.486657 0.725488 -0.486654
vn 0.486657 0.725488 -0.486654
vn 0.263379 0.725493 -0.635840
vn 0.263379 0.725493 -0.635840
vn 0.000001 0.725483 -0.688240
vn 0.000001 0.725483 -0.688240
vn -0.263372 0.725479 -0.635858
vn -0.263372 0.725479 -0.635858
vn -0.486657 0.725489 -0.486652
vn -0.486657 0.725489 -0.486652
vn -0.635846 0.725488 -0.263376
vn -0.635846 0.725488 -0.263376
vn -0.688236 0.725487 -0.000002
vn -0.688236 0.725487 -0.000002
vn -0.635848 0.725487 0.263374
vn -0.635848 0.725487 0.263374
vn -0.486657 0.725488 0.486654
vn -0.486657 0.725488 0.486654
vn -0.263376 0.725486 0.635849
vn -0.263376 0.725486 0.635849
vn -0.000000 0.725483 0.688240
vn -0.000000 0.725483 0.688240
vn 0.263376 0.725486 0.635849
vn 0.263376 0.725486 0.635849
vn 0.486657 0.725488 0.486654
vn 0.486657 0.725488 0.486654
vn 0.635848 0.725486 0.263376
vn 0.635848 0.725486 0.263376
vn -0.487723 0.724056 0.487719
vn -0.487723 0.724056 0.487719
vn -0.263952 0.724050 0.637245
vn -0.263952 0.724050 0.637245
vn -0.637240 0.724055 0.263949
vn -0.637240 0.724055 0.263950
vn -0.689744 0.724054 -0.000002
vn -0.689744 0.724054 -0.000002
vn -0.000000 0.724046 0.689752
vn -0.000000 0.724046 0.689752
vn 0.263951 0.724050 0.637246
vn 0.263951 0.724050 0.637246
vn 0.487722 0.724056 0.487720
vn 0.487723 0.724056 0.487719
vn 0.637239 0.724055 0.263951
vn 0.637239 0.724055 0.263951
vn 0.689743 0.724055 0.000000
vn 0.689743 0.724055 0.000000
vn 0.637239 0.724055 -0.263951
vn 0.637239 0.724055 -0.263951
vn 0.487721 0.724052 -0.487726
vn 0.487721 0.724052 -0.487726
vn 0.263951 0.724050 -0.637245
vn 0.263951 0.724050 -0.637246
vn -0.000000 0.724055 -0.689743
vn -0.000000 0.724054 -0.689743
vn -0.263953 0.724054 -0.637240
vn -0.263952 0.724054 -0.637240
vn -0.487723 0.724055 -0.487720
vn -0.487723 0.724055 -0.487720
vn -0.637240 0.724054 -0.263951
vn -0.637240 0.724054 -0.263951
vn -0.923880 -0.000051 0.382683
vn -0.923880 -0.000051 0.382683
vn -0.707107 -0.000051 0.707106
vn -0.707107 -0.000051 0.707106
vn -0.382684 -0.000051 0.923879
vn -0.382684 -0.000051 0.923879
vn 0.000000 -0.000051 1.000000
vn 0.000000 -0.000051 1.000000
vn 0.382682 -0.000051 0.923880
vn 0.382682 -0.000051 0.923880
vn 0.707106 -0.000051 0.707107
vn 0.707106 -0.000051 0.707107
vn 0.923879 -0.000051 0.382684
vn 0.923879 -0.000051 0.382684
vn 1.000000 -0.000051 0.000000
vn 1.000000 -0.000051 0.000000
vn 0.923880 -0.000051 -0.382684
vn 0.923880 -0.000051 -0.382683
vn 0.707107 -0.000051 -0.707106
vn 0.707107 -0.000051 -0.707106
vn 0.382683 -0.000051 -0.923880
vn 0.382683 -0.000051 -0.923880
vn 0.000000 -0.000051 -1.000000
vn 0.000000 -0.000051 -1.000000
vn -0.382683 -0.000051 -0.923880
vn -0.382683 -0.000051 -0.923880
vn -0.707107 -0.000051 -0.707107
vn -0.707107 -0.000051 -0.707107
vn -0.923880 -0.000051 -0.382683
vn -0.923880 -0.000051 -0.382683
vn -1.000000 -0.000051 -0.000000
vn -1.000000 -0.000051 -0.000000
vn 0.000000 1.000000 -0.000002
vn 0.000000 1.000000 -0.000002
vn 0.000000 1.000000 0.000000
vn 0.000000 1.000000 0.000000
vn 0.000000 1.000000 -0.000007
vn 0.000000 1.000000 -0.000007
vn 0.000000 1.000000 0.000000
vn 0.000000 1.000000 0.000000
vn 0.000000 1.000000 0.000004
vn 0.000000 1.000000 0.000004
vn 0.000000 1.000000 0.000000
vn 0.000000 1.000000 0.000000
vn 0.000000 1.000000 0.000000
vn 0.000000 1.000000 0.000000
vn 0.000000 1.000000 -0.000001
vn 0.000000 1.000000 -0.000001
vn 0.000000 1.000000 -0.000001
vn 0.000000 1.000000 -0.000001
vn 0.000000 1.000000 0.000002
vn 0.000000 1.000000 0.000002
vn 0.000000 1.000000 0.000002
vn 0.000000 1.000000 0.000002
vn 0.000000 1.000000 0.000000
vn 0.000000 1.000000 0.000000
vn 0.000000 1.000000 0.000000
vn 0.000000 1.000000 0.000000
vn 0.000000 1.000000 0.000000
vn 0.000000 1.000000 0.000000
vn 0.000000 1.000000 0.000000
vn 0.000000 1.000000 0.000000
vn 0.000000 1.000000 0.000000
vn 0.000000 1.000000 0.000000
vn 0.632132 -0.729281 -0.261837
vn 0.632132 -0.729281 -0.261837
vn 0.684215 -0.729281 0.000001
vn 0.684215 -0.729281 0.000001
vn 0.483812 -0.729281 -0.483813
vn 0.483813 -0.729281 -0.483813
vn 0.261838 -0.729281 -0.632132
vn 0.261838 -0.729281 -0.632132
vn 0.000001 -0.729280 -0.684215
vn 0.000001 -0.729280 -0.684215
vn -0.261837 -0.729281 -0.632132
vn -0.261837 -0.729281 -0.632132
vn -0.483813 -0.729281 -0.483813
vn -0.483813 -0.729281 -0.483813
vn -0.632132 -0.729281 -0.261837
vn -0.632132 -0.729281 -0.261837
vn -0.684215 -0.729281 0.000000
vn -0.684215 -0.729281 0.000000
vn -0.632132 -0.729281 0.261837
vn -0.632132 -0.729281 0.261837
vn -0.483813 -0.729281 0.483812
vn -0.483813 -0.729281 0.483813
vn -0.261837 -0.729281 0.632132
vn -0.261838 -0.729281 0.632132
vn 0.000000 -0.729281 0.684215
vn 0.000000 -0.729281 0.684215
vn 0.261838 -0.729281 0.632132
vn 0.261838 -0.729281 0.632132
vn 0.483813 -0.729281 0.483813
vn 0.483813 -0.729281 0.483813
vn 0.632131 -0.729281 0.261838
vn 0.632131 -0.729281 0.261838
vn 0.000000 -1.000000 0.000000
vn 0.000000 -1.000000 0.000000
vn 0.000000 -1.000000 0.000000
vn 0.000000 -1.000000 0.000000
vn 0.000000 -1.000000 0.000000
vn 0.000000 -1.000000 0.000000
vn 0.000000 -1.000000 0.000000
vn 0.000000 -1.000000 0.000000
vn 0.000000 -1.000000 0.000000
vn 0.000000 -1.000000 0.000000
vn 0.000000 -1.000000 0.000000
vn 0.000000 -1.000000 0.000000
vn 0.000000 -1.000000 0.000000
vn 0.000000 -1.000000 0.000000
vn 0.000000 -1.000000 0.000000
vn 0.000000 -1.000000 0.000000
vn 0.000000 -1.000000 0.000000
vn 0.923879 0.001606 -0.382682
vn 0.707106 0.001606 -0.707106
vn 0.707106 0.001606 -0.707106
vn 0.923879 0.001606 -0.382682
vn 0.382683 0.001606 -0.923878
vn 0.382683 0.001606 -0.923878
vn 0.000001 0.001606 -0.999999
vn 0.000001 0.001606 -0.999999
vn -0.382682 0.001606 -0.923879
vn -0.382682 0.001606 -0.923879
vn -0.707106 0.001606 -0.707106
vn -0.707106 0.001606 -0.707106
vn -0.923878 0.001606 -0.382683
vn -0.923878 0.001606 -0.382683
vn -0.999999 0.001606 0.000000
vn -0.999999 0.001606 0.000000
vn -0.923879 0.001606 0.382682
vn -0.923879 0.001606 0.382682
vn -0.707106 0.001606 0.707105
vn -0.707106 0.001606 0.707105
vn -0.382683 0.001606 0.923879
vn -0.382683 0.001606 0.923879
vn 0.000000 0.001606 0.999999
vn 0.000000 0.001606 0.999999
vn 0.382683 0.001606 0.923878
vn 0.382683 0.001606 0.923878
vn 0.707106 0.001606 0.707106
vn 0.707106 0.001606 0.707106
vn 0.923878 0.001606 0.382683
vn 0.923878 0.001606 0.382683
vn 0.999999 0.001606 0.000001
vn 0.999999 0.001606 0.000001
f 3/2/1 18/17/2 2/1/3
f 4/3/4 18/17/2 3/2/1
f 5/4/5 18/17/2 4/3/4
f 6/5/6 18/17/2 5/4/5
f 7/6/7 18/17/2 6/5/6
f 8/7/8 18/17/2 7/6/7
f 9/8/9 18/17/2 8/7/8
f 10/9/10 18/17/2 9/8/9
f 11/10/11 18/17/2 10/9/10
f 12/11/12 18/17/2 11/10/11
f 13/12/13 18/17/2 12/11/12
f 14/13/14 18/17/2 13/12/13
f 15/14/15 18/17/2 14/13/14
f 16/15/16 18/17/2 15/14/15
f 17/16/17 18/17/2 16/15/16
f 2/1/3 18/17/2 17/16/17
f 19/18/18 20/19/19 50/20/20 49/184/21
f 20/21/19 19/154/18 21/156/22 22/22/23
f 22/23/23 21/156/22 23/158/24 24/24/25
f 24/25/25 23/158/24 25/160/26 26/26/27
f 26/27/27 25/160/26 27/162/28 28/28/29
f 28/29/29 27/162/28 29/164/30 30/30/31
f 30/31/31 29/164/30 31/166/32 32/32/33
f 32/33/33 31/166/32 33/168/34 34/34/35
f 34/35/35 33/168/34 35/170/36 36/36/37
f 36/37/37 35/170/36 37/172/38 38/38/39
f 38/39/39 37/172/38 39/174/40 40/40/41
f 40/41/41 39/174/40 41/176/42 42/42/43
f 42/43/43 41/176/42 43/178/44 44/44/45
f 44/45/45 43/178/44 45/180/46 46/46/47
f 46/47/47 45/180/46 47/182/48 48/48/49
f 48/49/49 47/182/48 49/184/21 50/50/20
f 51/54/50 52/90/51 56/92/52 55/56/53
f 52/90/51 51/54/50 54/51/54 53/87/55
f 53/52/55 54/84/54 81/82/56 82/118/57
f 55/56/53 56/92/52 58/94/58 57/58/59
f 57/58/59 58/94/58 60/96/60 59/60/61
f 59/60/61 60/96/60 62/98/62 61/62/63
f 61/62/63 62/98/62 64/100/64 63/64/65
f 63/64/65 64/100/64 66/102/66 65/66/67
f 65/66/67 66/102/66 68/104/68 67/68/69
f 67/68/69 68/104/68 70/106/70 69/70/71
f 69/70/71 70/106/70 72/108/72 71/72/73
f 71/72/73 72/108/72 74/110/74 73/74/75
f 73/74/75 74/110/74 76/112/76 75/76/77
f 75/76/77 76/112/76 78/114/78 77/78/79
f 77/78/79 78/114/78 80/116/80 79/80/81
f 79/80/81 80/116/80 82/118/57 81/82/56
f 2/53/82 54/51/83 51/54/84 3/55/85
f 3/55/85 51/54/84 55/56/86 4/57/87
f 4/57/87 55/56/86 57/58/88 5/59/89
f 5/59/89 57/58/88 59/60/90 6/61/91
f 6/61/91 59/60/90 61/62/92 7/63/93
f 7/63/93 61/62/92 63/64/94 8/65/95
f 8/65/95 63/64/94 65/66/96 9/67/97
f 9/67/97 65/66/96 67/68/98 10/69/99
f 10/69/99 67/68/98 69/70/100 11/71/101
f 11/71/101 69/70/100 71/72/102 12/73/103
f 12/73/103 71/72/102 73/74/104 13/75/105
f 13/75/105 73/74/104 75/76/106 14/77/107
f 14/77/107 75/76/106 77/78/108 15/79/109
f 15/79/109 77/78/108 79/80/110 16/81/111
f 16/81/111 79/80/110 81/82/112 17/83/113
f 17/83/113 81/82/112 54/84/83 2/85/82
f 22/86/114 52/90/115 53/87/116 20/88/117
f 24/89/118 56/92/119 52/90/115 22/86/114
f 26/91/120 58/94/121 56/92/119 24/89/118
f 28/93/122 60/96/123 58/94/121 26/91/120
f 30/95/124 62/98/125 60/96/123 28/93/122
f 32/97/126 64/100/127 62/98/125 30/95/124
f 34/99/128 66/102/129 64/100/127 32/97/126
f 36/101/130 68/104/131 66/102/129 34/99/128
f 38/103/132 70/106/133 68/104/131 36/101/130
f 40/105/134 72/108/135 70/106/133 38/103/132
f 42/107/136 74/110/137 72/108/135 40/105/134
f 44/109/138 76/112/139 74/110/137 42/107/136
f 46/111/140 78/114/141 76/112/139 44/109/138
f 48/113/142 80/116/143 78/114/141 46/111/140
f 50/115/144 82/118/145 80/116/143 48/113/142
f 20/117/117 53/52/116 82/118/145 50/115/144
f 83/135/146 84/119/147 114/134/148 113/151/149
f 84/119/147 83/135/146 85/136/150 86/120/151
f 86/120/151 85/136/150 87/137/152 88/121/153
f 88/121/153 87/137/152 89/138/154 90/122/155
f 90/122/155 89/138/154 91/139/156 92/123/157
f 92/123/157 91/139/156 93/140/158 94/124/159
f 94/124/159 93/140/158 95/141/160 96/125/161
f 96/125/161 95/141/160 97/142/162 98/126/163
f 98/126/163 97/142/162 99/143/164 100/127/165
f 100/127/165 99/143/164 101/144/166 102/128/167
f 102/128/167 101/144/166 103/145/168 104/129/169
f 104/129/169 103/145/168 105/146/170 106/130/171
f 106/130/171 105/146/170 107/147/172 108/131/173
f 108/131/173 107/147/172 109/148/174 110/132/175
f 110/132/175 109/148/174 111/149/176 112/133/177
f 112/133/177 111/149/176 113/151/149 114/134/148
f 85/136/178 83/135/179 1/150/180
f 87/137/181 85/136/178 1/150/180
f 89/138/182 87/137/181 1/150/180
f 91/139/183 89/138/182 1/150/180
f 93/140/184 91/139/183 1/150/180
f 95/141/185 93/140/184 1/150/180
f 97/142/186 95/141/185 1/150/180
f 99/143/187 97/142/186 1/150/180
f 101/144/188 99/143/187 1/150/180
f 103/145/189 101/144/188 1/150/180
f 105/146/190 103/145/189 1/150/180
f 107/147/191 105/146/190 1/150/180
f 109/148/192 107/147/191 1/150/180
f 111/149/193 109/148/192 1/150/180
f 113/151/194 111/149/193 1/150/180
f 83/135/179 113/151/194 1/150/180
f 84/152/195 86/153/196 21/156/197 19/154/198
f 86/153/196 88/155/199 23/158/200 21/156/197
f 88/155/199 90/157/201 25/160/202 23/158/200
f 90/157/201 92/159/203 27/162/204 25/160/202
f 92/159/203 94/161/205 29/164/206 27/162/204
f 94/161/205 96/163/207 31/166/208 29/164/206
f 96/163/207 98/165/209 33/168/210 31/166/208
f 98/165/209 100/167/211 35/170/212 33/168/210
f 100/167/211 102/169/213 37/172/214 35/170/212
f 37/172/214 102/169/213 104/171/215 39/174/216
f 104/171/215 106/173/217 41/176/218 39/174/216
f 106/173/217 108/175/219 43/178/220 41/176/218
f 108/175/219 110/177/221 45/180/222 43/178/220
f 110/177/221 112/179/223 47/182/224 45/180/222
f 112/179/223 114/181/225 49/184/226 47/182/224
f 114/181/225 84/183/195 19/18/198 49/184/226
