# This file uses meters as units for non-parametric coordinates.

v -89.085304 -115.941666 5.596300
v 89.085297 -115.941666 5.596300
v 89.085297 -173.681244 5.596300
v -89.085304 -173.681244 5.596300
v 89.085297 -231.883331 5.596300
v -89.085304 -231.883331 5.596300
v -89.085304 -301.732605 -4.898096
v 89.085297 -301.732605 -4.898096
v -89.085304 -288.390289 5.596300
v 89.085297 -288.390289 5.596300
v -89.085304 -231.883331 -4.898096
v -89.085304 -288.390289 -4.898096
v 89.085297 -288.390289 -4.898096
v 89.085297 -231.883331 -4.898096
v -89.085304 -115.941666 -4.898096
v -89.085304 -173.681244 -4.898096
v 89.085297 -173.681244 -4.898096
v 89.085297 -115.941666 -4.898096
v -89.085304 -301.732605 5.596300
v 89.085297 -301.732605 5.596300
v 89.085297 -307.635986 -0.249346
v -89.085304 -307.635986 -0.249346
v -89.085304 0.000000 5.596300
v -89.085304 -57.739567 5.596300
v 89.085297 -57.739567 5.596300
v 89.085297 0.000000 5.596300
v -89.085304 -0.000000 -4.898096
v 89.085297 -0.000000 -4.898096
v 89.085297 -57.739567 -4.898096
v -89.085304 -57.739567 -4.898096
v -89.085304 -115.941666 5.596300
v 89.085297 -115.941666 5.596300
v 89.085297 -173.681244 5.596300
v -89.085304 -173.681244 5.596300
v 89.085297 -231.883331 5.596300
v -89.085304 -231.883331 5.596300
v -89.085304 -301.732605 -4.898096
v 89.085297 -301.732605 -4.898096
v -89.085304 -288.390289 5.596300
v 89.085297 -288.390289 5.596300
v -89.085304 -231.883331 -4.898096
v -89.085304 -288.390289 -4.898096
v 89.085297 -288.390289 -4.898096
v 89.085297 -231.883331 -4.898096
v -89.085304 -115.941666 -4.898096
v -89.085304 -173.681244 -4.898096
v 89.085297 -173.681244 -4.898096
v 89.085297 -115.941666 -4.898096
v -89.085304 -301.732605 5.596300
v 89.085297 -301.732605 5.596300
v 89.085297 -307.635986 -0.249346
v -89.085304 -307.635986 -0.249346
v -89.085304 0.000000 5.596300
v -89.085304 -57.739567 5.596300
v 89.085297 -57.739567 5.596300
v 89.085297 0.000000 5.596300
v -89.085304 -0.000000 -4.898096
v 89.085297 -0.000000 -4.898096
v 89.085297 -57.739567 -4.898096
v -89.085304 -57.739567 -4.898096
vt 0.389747 0.860368
vt 0.389747 0.767128
vt 0.485667 0.767128
vt 0.485667 0.860368
vt 0.389747 0.860368
vt 0.389747 0.766790
vt 0.485667 0.766790
vt 0.485667 0.860368
vt 0.389747 0.766790
vt 0.485667 0.766790
vt 0.485667 0.860030
vt 0.389747 0.860030
vt 0.389747 0.766790
vt 0.485667 0.766790
vt 0.485667 0.860368
vt 0.389747 0.860368
vt 0.485667 0.834487
vt 0.389747 0.834487
vt 0.389747 0.793560
vt 0.485667 0.793560
vt 0.485667 0.816358
vt 0.389747 0.816358
vt 0.389747 0.860368
vt 0.389747 0.766790
vt 0.485667 0.766790
vt 0.485667 0.860368
vt 0.389747 0.860368
vt 0.485667 0.860368
vt 0.389747 0.766790
vt 0.485667 0.766790
vt 0.389747 0.860368
vt 0.485667 0.860368
vt 0.485667 0.767128
vt 0.389747 0.767128
vt 0.389747 0.860368
vt 0.485667 0.860368
vt 0.485667 0.766790
vt 0.389747 0.766790
vt 0.389747 0.766790
vt 0.389747 0.860030
vt 0.485667 0.860030
vt 0.485667 0.766790
vt 0.389747 0.766790
vt 0.389747 0.860368
vt 0.485667 0.860368
vt 0.485667 0.766790
vt 0.485667 0.834487
vt 0.389747 0.834487
vt 0.389747 0.793560
vt 0.485667 0.793560
vt 0.389747 0.816358
vt 0.485667 0.816358
vt 0.389747 0.860368
vt 0.485667 0.860368
vt 0.485667 0.766790
vt 0.389747 0.766790
vt 0.389747 0.766790
vt 0.389747 0.860368
vt 0.485667 0.860368
vt 0.485667 0.766790
vn 0.000000 0.000000 1.000000
vn 0.000000 0.000000 1.000000
vn 0.000000 0.000000 1.000000
vn 0.000000 0.000000 1.000000
vn 0.000000 0.000000 1.000000
vn 0.000000 0.000000 1.000000
vn 0.000000 0.000000 1.000000
vn 0.000000 0.000000 1.000000
vn 0.000000 0.000000 -1.000000
vn 0.000000 0.000000 -1.000000
vn 0.000000 0.000000 -1.000000
vn 0.000000 0.000000 -1.000000
vn 0.000000 0.000000 -1.000000
vn 0.000000 0.000000 -1.000000
vn 0.000000 0.000000 -1.000000
vn 0.000000 0.000000 -1.000000
vn 0.000000 0.000000 -1.000000
vn 0.000000 0.000000 -1.000000
vn 0.000000 -0.290627 0.956836
vn 0.000000 -0.290627 0.956836
vn 0.000000 0.000000 1.000000
vn 0.000000 0.000000 1.000000
vn 0.000000 -0.618675 -0.785647
vn 0.000000 -0.618675 -0.785647
vn 0.000000 -1.000000 0.000000
vn 0.000000 -1.000000 0.000000
vn 0.000000 0.000000 1.000000
vn 0.000000 0.000000 1.000000
vn 0.000000 0.000000 1.000000
vn 0.000000 0.000000 1.000000
vn 0.000000 0.000000 1.000000
vn 0.000000 0.000000 1.000000
vn 0.000000 0.000000 -1.000000
vn 0.000000 0.000000 -1.000000
vn 0.000000 0.000000 -1.000000
vn 0.000000 0.000000 -1.000000
vn 0.000000 0.000000 -1.000000
vn 0.000000 0.000000 -1.000000
vn 0.000000 0.000000 -1.000000
vn 0.000000 0.000000 -1.000000
vn 0.000000 0.000000 -1.000000
vn 0.000000 0.000000 -1.000000
vn 0.000000 0.000000 -1.000000
vn 0.000000 0.000000 -1.000000
vn 0.000000 0.000000 -1.000000
vn 0.000000 0.000000 -1.000000
vn 0.000000 0.000000 1.000000
vn 0.000000 0.000000 1.000000
vn 0.000000 0.000000 1.000000
vn 0.000000 0.000000 1.000000
vn 0.000000 0.000000 1.000000
vn 0.000000 0.000000 1.000000
vn 0.000000 0.000000 1.000000
vn 0.000000 0.000000 1.000000
vn 0.000000 0.000000 1.000000
vn 0.000000 0.000000 1.000000
vn 0.000000 0.290627 -0.956836
vn 0.000000 0.000000 -1.000000
vn 0.000000 0.000000 -1.000000
vn 0.000000 0.290627 -0.956836
vn 0.000000 0.618675 0.785647
vn 0.000000 1.000000 -0.000000
vn 0.000000 1.000000 -0.000000
vn 0.000000 0.618675 0.785647
vn 0.000000 0.000000 -1.000000
vn 0.000000 0.000000 -1.000000
vn 0.000000 0.000000 -1.000000
vn 0.000000 0.000000 -1.000000
vn 0.000000 0.000000 -1.000000
vn 0.000000 0.000000 -1.000000
vn 0.000000 0.000000 1.000000
vn 0.000000 0.000000 1.000000
vn 0.000000 0.000000 1.000000
vn 0.000000 0.000000 1.000000
vn 0.000000 0.000000 1.000000
vn 0.000000 0.000000 1.000000
f 6/1/1 9/2/2 10/3/3 5/4/4
f 1/5/5 4/6/6 3/7/7 2/8/8
f 4/6/6 6/1/1 5/4/4 3/7/7
f 11/9/9 14/10/10 13/11/11 12/12/12
f 15/13/13 18/14/14 17/15/15 16/16/16
f 16/16/16 17/15/15 14/10/10 11/9/9
f 8/17/17 7/18/18 12/12/12 13/11/11
f 19/19/19 20/20/20 10/3/21 9/2/22
f 7/18/23 8/17/24 21/21/25 22/22/26
f 22/22/26 21/21/25 20/20/20 19/19/19
f 23/23/27 24/24/28 25/25/29 26/26/30
f 24/24/28 1/5/31 2/8/32 25/25/29
f 27/29/33 28/30/34 29/28/35 30/27/36
f 30/27/36 29/28/35 18/14/37 15/13/38
f 36/31/39 35/32/40 40/33/41 39/34/42
f 31/35/43 32/36/44 33/37/45 34/38/46
f 34/38/46 33/37/45 35/32/40 36/31/39
f 41/39/47 42/40/48 43/41/49 44/42/50
f 45/43/51 46/44/52 47/45/53 48/46/54
f 46/44/52 41/39/47 44/42/50 47/45/53
f 38/47/55 43/41/49 42/40/48 37/48/56
f 49/49/57 39/34/58 40/33/59 50/50/60
f 37/48/61 52/51/62 51/52/63 38/47/64
f 52/51/62 49/49/57 50/50/60 51/52/63
f 53/53/65 56/54/66 55/55/67 54/56/68
f 54/56/68 55/55/67 32/36/69 31/35/70
f 57/57/71 60/58/72 59/59/73 58/60/74
f 60/58/72 45/43/75 48/46/76 59/59/73
