# This file uses meters as units for non-parametric coordinates.

v -89.085304 -231.451202 5.596300
v 89.085304 -231.451202 5.596300
v -89.085304 -231.451202 -4.898096
v 89.085304 -231.451202 -4.898096
v 89.085304 -235.906281 0.366299
v -89.085304 -235.906281 0.366299
v -89.085304 -173.588409 5.596300
v 89.085304 -173.588409 5.596300
v -89.085304 -173.588409 -4.898096
v 89.085304 -173.588409 -4.898096
v -89.085304 0.000000 5.596300
v 89.085304 0.000000 5.596300
v 89.085304 -57.862812 5.596300
v -89.085304 -57.862812 5.596300
v 89.085304 -115.725609 5.596300
v -89.085304 -115.725609 5.596300
v -89.085304 0.000000 -4.898096
v 89.085304 0.000000 -4.898096
v 89.085304 -57.862812 -4.898096
v -89.085304 -57.862812 -4.898096
v 89.085304 -115.725609 -4.898096
v -89.085304 -115.725609 -4.898096
v -89.085304 -231.451202 5.596300
v 89.085304 -231.451202 5.596300
v -89.085304 -231.451202 -4.898096
v 89.085304 -231.451202 -4.898096
v 89.085304 -235.906296 0.366299
v -89.085304 -235.906296 0.366299
v -89.085304 -173.588409 5.596300
v 89.085304 -173.588409 5.596300
v -89.085304 -173.588409 -4.898096
v 89.085304 -173.588409 -4.898096
v -89.085304 0.000000 5.596300
v 89.085304 0.000000 5.596300
v 89.085304 -57.862812 5.596300
v -89.085304 -57.862812 5.596300
v 89.085304 -115.725616 5.596300
v -89.085304 -115.725616 5.596300
v -89.085304 0.000000 -4.898096
v 89.085304 0.000000 -4.898096
v 89.085304 -57.862812 -4.898096
v -89.085304 -57.862812 -4.898096
v 89.085304 -115.725616 -4.898096
v -89.085304 -115.725616 -4.898096
vt 0.264747 0.985368
vt 0.360667 0.985368
vt 0.264747 0.978110
vt 0.360667 0.978110
vt 0.360667 0.985368
vt 0.264747 0.985368
vt 0.360667 0.978110
vt 0.264747 0.978110
vt 0.264747 0.891790
vt 0.360667 0.891790
vt 0.264747 0.891790
vt 0.360667 0.891790
vt 0.360667 0.891790
vt 0.264747 0.891790
vt 0.264747 0.985368
vt 0.360667 0.985368
vt 0.264747 0.985368
vt 0.360667 0.985368
vt 0.264747 0.985368
vt 0.264747 0.891790
vt 0.360667 0.891790
vt 0.360667 0.985368
vt 0.360667 0.985368
vt 0.264747 0.985368
vt 0.264747 0.978110
vt 0.264747 0.985368
vt 0.360667 0.985368
vt 0.360667 0.978110
vt 0.360667 0.985368
vt 0.360667 0.978110
vt 0.264747 0.978110
vt 0.264747 0.985368
vt 0.264747 0.891790
vt 0.360667 0.891790
vt 0.360667 0.891790
vt 0.264747 0.891790
vt 0.264747 0.985368
vt 0.360667 0.985368
vt 0.264747 0.985368
vt 0.360667 0.985368
vt 0.360667 0.891790
vt 0.264747 0.891790
vt 0.360667 0.985368
vt 0.264747 0.985368
vt 0.360667 0.985368
vt 0.360667 0.891790
vt 0.264747 0.891790
vt 0.264747 0.985368
vn 0.000000 -1.000000 0.000000
vn 0.000000 -1.000000 0.000000
vn 0.000000 -0.763343 -0.645993
vn 0.000000 -0.763343 -0.645993
vn 0.000000 -0.761250 0.648458
vn 0.000000 -0.761250 0.648458
vn 0.000000 0.000000 1.000000
vn 0.000000 0.000000 1.000000
vn 0.000000 0.000000 1.000000
vn 0.000000 0.000000 1.000000
vn 0.000000 0.000000 -1.000000
vn 0.000000 0.000000 -1.000000
vn 0.000000 0.000000 -1.000000
vn 0.000000 0.000000 -1.000000
vn 0.000000 0.000000 1.000000
vn 0.000000 0.000000 1.000000
vn 0.000000 0.000000 1.000000
vn 0.000000 0.000000 1.000000
vn 0.000000 0.000000 1.000000
vn 0.000000 0.000000 1.000000
vn 0.000000 0.000000 1.000000
vn 0.000000 0.000000 1.000000
vn 0.000000 0.000000 -1.000000
vn 0.000000 0.000000 -1.000000
vn 0.000000 0.000000 -1.000000
vn 0.000000 0.000000 -1.000000
vn 0.000000 0.000000 -1.000000
vn 0.000000 0.000000 -1.000000
vn 0.000000 0.000000 -1.000000
vn 0.000000 0.000000 -1.000000
vn 0.000000 1.000000 -0.000000
vn 0.000000 0.763343 0.645993
vn 0.000000 0.763343 0.645993
vn 0.000000 1.000000 -0.000000
vn 0.000000 0.761250 -0.648458
vn 0.000000 0.761250 -0.648458
vn 0.000000 0.000000 -1.000000
vn 0.000000 0.000000 -1.000000
vn 0.000000 0.000000 -1.000000
vn 0.000000 0.000000 -1.000000
vn 0.000000 0.000000 1.000000
vn 0.000000 0.000000 1.000000
vn 0.000000 0.000000 1.000000
vn 0.000000 0.000000 1.000000
vn 0.000000 0.000000 -1.000000
vn 0.000000 0.000000 -1.000000
vn 0.000000 0.000000 -1.000000
vn 0.000000 0.000000 -1.000000
vn 0.000000 0.000000 -1.000000
vn 0.000000 0.000000 -1.000000
vn 0.000000 0.000000 -1.000000
vn 0.000000 0.000000 -1.000000
vn 0.000000 0.000000 1.000000
vn 0.000000 0.000000 1.000000
vn 0.000000 0.000000 1.000000
vn 0.000000 0.000000 1.000000
vn 0.000000 0.000000 1.000000
vn 0.000000 0.000000 1.000000
vn 0.000000 0.000000 1.000000
vn 0.000000 0.000000 1.000000
f 5/8/1 6/7/2 3/5/3 4/6/4
f 2/2/5 1/1/6 6/3/2 5/4/1
f 7/9/7 1/1/8 2/2/9 8/12/10
f 9/13/11 10/14/12 4/6/13 3/5/14
f 16/17/15 7/9/16 8/12/17 15/18/18
f 11/19/19 14/20/20 13/21/21 12/22/22
f 14/20/20 16/17/15 15/18/18 13/21/21
f 22/23/23 21/24/24 10/14/25 9/13/26
f 17/16/27 18/15/28 19/11/29 20/10/30
f 20/10/30 19/11/29 21/24/24 22/23/23
f 27/25/31 26/26/32 25/27/33 28/28/34
f 24/29/35 27/30/31 28/31/34 23/32/36
f 29/33/37 30/34/38 24/29/39 23/32/40
f 31/35/41 25/27/42 26/26/43 32/36/44
f 38/37/45 37/38/46 30/34/47 29/33/48
f 33/39/49 34/40/50 35/41/51 36/42/52
f 36/42/52 35/41/51 37/38/46 38/37/45
f 44/43/53 31/35/54 32/36/55 43/44/56
f 39/45/57 42/46/58 41/47/59 40/48/60
f 42/46/58 44/43/53 43/44/56 41/47/59
