# This file uses meters as units for non-parametric coordinates.

v -89.085304 0.000000 5.596300
v 89.085297 0.000000 5.596300
v 89.085297 -57.739567 5.596300
v -89.085304 -57.739567 5.596300
v 89.085297 -115.941666 5.596300
v -89.085304 -115.941666 5.596300
v -89.085304 -185.790924 -4.898096
v 89.085297 -185.790924 -4.898096
v -89.085304 -172.448608 5.596300
v 89.085297 -172.448608 5.596300
v -89.085304 -115.941666 -4.898096
v -89.085304 -172.448608 -4.898096
v 89.085297 -172.448608 -4.898096
v 89.085297 -115.941666 -4.898096
v -89.085304 -0.000000 -4.898096
v -89.085304 -57.739567 -4.898096
v 89.085297 -57.739567 -4.898096
v 89.085297 -0.000000 -4.898096
v -89.085304 -185.790924 5.596300
v 89.085297 -185.790924 5.596300
v 89.085297 -191.694305 -0.249346
v -89.085304 -191.694305 -0.249346
v -89.085304 0.000000 5.596300
v 89.085297 0.000000 5.596300
v 89.085297 -57.739567 5.596300
v -89.085304 -57.739567 5.596300
v 89.085297 -115.941666 5.596300
v -89.085304 -115.941666 5.596300
v -89.085304 -185.790924 -4.898096
v 89.085297 -185.790924 -4.898096
v -89.085304 -172.448608 5.596300
v 89.085297 -172.448608 5.596300
v -89.085304 -115.941666 -4.898096
v -89.085304 -172.448608 -4.898096
v 89.085297 -172.448608 -4.898096
v 89.085297 -115.941666 -4.898096
v -89.085304 -0.000000 -4.898096
v -89.085304 -57.739567 -4.898096
v 89.085297 -57.739567 -4.898096
v 89.085297 -0.000000 -4.898096
v -89.085304 -185.790924 5.596300
v 89.085297 -185.790924 5.596300
v 89.085297 -191.694305 -0.249346
v -89.085304 -191.694305 -0.249346
vt 0.389747 0.985368
vt 0.389747 0.892128
vt 0.485667 0.892128
vt 0.485667 0.985368
vt 0.389747 0.985368
vt 0.389747 0.891790
vt 0.485667 0.891790
vt 0.485667 0.985368
vt 0.485667 0.959487
vt 0.389747 0.959487
vt 0.389747 0.891790
vt 0.485667 0.891790
vt 0.485667 0.985030
vt 0.389747 0.985030
vt 0.389747 0.891790
vt 0.485667 0.891790
vt 0.485667 0.985368
vt 0.389747 0.985368
vt 0.389747 0.918560
vt 0.485667 0.918560
vt 0.485667 0.941358
vt 0.389747 0.941358
vt 0.389747 0.985368
vt 0.485667 0.985368
vt 0.485667 0.892128
vt 0.389747 0.892128
vt 0.389747 0.985368
vt 0.485667 0.985368
vt 0.485667 0.891790
vt 0.389747 0.891790
vt 0.389747 0.891790
vt 0.389747 0.985030
vt 0.485667 0.985030
vt 0.485667 0.891790
vt 0.389747 0.891790
vt 0.389747 0.985368
vt 0.485667 0.985368
vt 0.485667 0.891790
vt 0.485667 0.959487
vt 0.389747 0.959487
vt 0.389747 0.918560
vt 0.485667 0.918560
vt 0.389747 0.941358
vt 0.485667 0.941358
vn 0.000000 0.000000 1.000000
vn 0.000000 0.000000 1.000000
vn 0.000000 0.000000 1.000000
vn 0.000000 0.000000 1.000000
vn 0.000000 0.000000 1.000000
vn 0.000000 0.000000 1.000000
vn 0.000000 0.000000 1.000000
vn 0.000000 0.000000 1.000000
vn 0.000000 0.000000 -1.000000
vn 0.000000 0.000000 -1.000000
vn 0.000000 0.000000 -1.000000
vn 0.000000 0.000000 -1.000000
vn 0.000000 0.000000 -1.000000
vn 0.000000 0.000000 -1.000000
vn 0.000000 0.000000 -1.000000
vn 0.000000 0.000000 -1.000000
vn 0.000000 0.000000 -1.000000
vn 0.000000 0.000000 -1.000000
vn 0.000000 -0.290627 0.956836
vn 0.000000 -0.290627 0.956836
vn 0.000000 0.000000 1.000000
vn 0.000000 0.000000 1.000000
vn 0.000000 -0.618675 -0.785647
vn 0.000000 -0.618675 -0.785647
vn 0.000000 -1.000000 0.000000
vn 0.000000 -1.000000 0.000000
vn 0.000000 0.000000 -1.000000
vn 0.000000 0.000000 -1.000000
vn 0.000000 0.000000 -1.000000
vn 0.000000 0.000000 -1.000000
vn 0.000000 0.000000 -1.000000
vn 0.000000 0.000000 -1.000000
vn 0.000000 0.000000 -1.000000
vn 0.000000 0.000000 -1.000000
vn 0.000000 0.000000 1.000000
vn 0.000000 0.000000 1.000000
vn 0.000000 0.000000 1.000000
vn 0.000000 0.000000 1.000000
vn 0.000000 0.000000 1.000000
vn 0.000000 0.000000 1.000000
vn 0.000000 0.000000 1.000000
vn 0.000000 0.000000 1.000000
vn 0.000000 0.000000 1.000000
vn 0.000000 0.000000 1.000000
vn 0.000000 0.290627 -0.956836
vn 0.000000 0.000000 -1.000000
vn 0.000000 0.000000 -1.000000
vn 0.000000 0.290627 -0.956836
vn 0.000000 0.618675 0.785647
vn 0.000000 1.000000 -0.000000
vn 0.000000 1.000000 -0.000000
vn 0.000000 0.618675 0.785647
f 6/1/1 9/2/2 10/3/3 5/4/4
f 1/5/5 4/6/6 3/7/7 2/8/8
f 4/6/6 6/1/1 5/4/4 3/7/7
f 11/11/9 14/12/10 13/13/11 12/14/12
f 15/15/13 18/16/14 17/17/15 16/18/16
f 16/18/16 17/17/15 14/12/10 11/11/9
f 8/9/17 7/10/18 12/14/12 13/13/11
f 19/19/19 20/20/20 10/3/21 9/2/22
f 7/10/23 8/9/24 21/21/25 22/22/26
f 22/22/26 21/21/25 20/20/20 19/19/19
f 28/23/27 27/24/28 32/25/29 31/26/30
f 23/27/31 24/28/32 25/29/33 26/30/34
f 26/30/34 25/29/33 27/24/28 28/23/27
f 33/31/35 34/32/36 35/33/37 36/34/38
f 37/35/39 38/36/40 39/37/41 40/38/42
f 38/36/40 33/31/35 36/34/38 39/37/41
f 30/39/43 35/33/37 34/32/36 29/40/44
f 41/41/45 31/26/46 32/25/47 42/42/48
f 29/40/49 44/43/50 43/44/51 30/39/52
f 44/43/50 41/41/45 42/42/48 43/44/51
