# This file uses meters as units for non-parametric coordinates.

v -89.085304 -0.000000 -4.898096
v 89.085304 -0.000000 -4.898096
v 89.085304 -57.862812 -4.898096
v -89.085304 -57.862812 -4.898096
v 89.085304 -115.725594 -4.898096
v -89.085304 -115.725594 -4.898096
v -89.085304 -0.000000 5.596300
v -89.085304 -57.862812 5.596300
v 89.085304 -57.862812 5.596300
v 89.085304 -0.000000 5.596300
v -89.085304 -115.725594 5.596300
v 89.085304 -115.725594 5.596300
v -89.085304 -289.314026 5.596300
v 89.085304 -289.314026 5.596300
v 89.085304 -173.588409 5.596300
v -89.085304 -173.588409 5.596300
v 89.085304 -231.451202 5.596300
v -89.085304 -231.451202 5.596300
v -89.085304 -289.314026 -4.898096
v 89.085304 -289.314026 -4.898096
v 89.085304 -173.588409 -4.898096
v -89.085304 -173.588409 -4.898096
v 89.085304 -231.451202 -4.898096
v -89.085304 -231.451202 -4.898096
v 89.085304 -293.769104 0.366299
v -89.085304 -293.769104 0.366299
v -89.085304 -0.000000 -4.898096
v 89.085304 -0.000000 -4.898096
v 89.085304 -57.862812 -4.898096
v -89.085304 -57.862812 -4.898096
v 89.085304 -115.725578 -4.898096
v -89.085304 -115.725578 -4.898096
v -89.085304 -0.000000 5.596300
v -89.085304 -57.862812 5.596300
v 89.085304 -57.862812 5.596300
v 89.085304 -0.000000 5.596300
v -89.085304 -115.725578 5.596300
v 89.085304 -115.725578 5.596300
v -89.085304 -289.314026 5.596300
v 89.085304 -289.314026 5.596300
v 89.085304 -173.588409 5.596300
v -89.085304 -173.588409 5.596300
v 89.085304 -231.451202 5.596300
v -89.085304 -231.451202 5.596300
v -89.085304 -289.314026 -4.898096
v 89.085304 -289.314026 -4.898096
v 89.085304 -173.588409 -4.898096
v -89.085304 -173.588409 -4.898096
v 89.085304 -231.451202 -4.898096
v -89.085304 -231.451202 -4.898096
v 89.085304 -293.769104 0.366299
v -89.085304 -293.769104 0.366299
vt 0.485667 0.985368
vt 0.389747 0.985368
vt 0.389747 0.891790
vt 0.485667 0.891790
vt 0.389747 0.985368
vt 0.485667 0.985368
vt 0.389747 0.985368
vt 0.389747 0.891790
vt 0.485667 0.891790
vt 0.485667 0.985368
vt 0.389747 0.985368
vt 0.485667 0.985368
vt 0.389747 0.985368
vt 0.389747 0.891790
vt 0.485667 0.891790
vt 0.485667 0.985368
vt 0.485667 0.899048
vt 0.389747 0.891790
vt 0.485667 0.891790
vt 0.389747 0.899048
vt 0.485667 0.985368
vt 0.389747 0.985368
vt 0.389747 0.891790
vt 0.485667 0.891790
vt 0.485667 0.899048
vt 0.389747 0.899048
vt 0.389747 0.891790
vt 0.485667 0.891790
vt 0.485667 0.985368
vt 0.485667 0.891790
vt 0.389747 0.891790
vt 0.389747 0.985368
vt 0.485667 0.985368
vt 0.389747 0.985368
vt 0.389747 0.985368
vt 0.485667 0.985368
vt 0.485667 0.891790
vt 0.389747 0.891790
vt 0.485667 0.985368
vt 0.389747 0.985368
vt 0.389747 0.985368
vt 0.485667 0.985368
vt 0.485667 0.891790
vt 0.389747 0.891790
vt 0.485667 0.891790
vt 0.389747 0.891790
vt 0.485667 0.985368
vt 0.485667 0.891790
vt 0.389747 0.891790
vt 0.389747 0.985368
vt 0.485667 0.891790
vt 0.389747 0.891790
vt 0.389747 0.899048
vt 0.485667 0.899048
vt 0.485667 0.899048
vt 0.389747 0.899048
vn 0.000000 0.000000 -1.000000
vn 0.000000 0.000000 -1.000000
vn 0.000000 0.000000 -1.000000
vn 0.000000 0.000000 -1.000000
vn 0.000000 0.000000 -1.000000
vn 0.000000 0.000000 -1.000000
vn 0.000000 0.000000 1.000000
vn 0.000000 0.000000 1.000000
vn 0.000000 0.000000 1.000000
vn 0.000000 0.000000 1.000000
vn 0.000000 0.000000 1.000000
vn 0.000000 0.000000 1.000000
vn 0.000000 0.000000 1.000000
vn 0.000000 -0.083631 0.996497
vn 0.000000 -0.083631 0.996497
vn 0.000000 0.000000 1.000000
vn 0.000000 0.000000 1.000000
vn 0.000000 0.000000 1.000000
vn 0.000000 0.000000 1.000000
vn 0.000000 0.000000 1.000000
vn 0.000000 0.000000 -1.000000
vn 0.000000 0.000000 -1.000000
vn 0.000000 -0.084177 -0.996451
vn 0.000000 -0.084177 -0.996451
vn 0.000000 0.000000 -1.000000
vn 0.000000 0.000000 -1.000000
vn 0.000000 0.000000 -1.000000
vn 0.000000 0.000000 -1.000000
vn 0.000000 -1.000000 0.000000
vn 0.000000 -1.000000 0.000000
vn 0.000000 0.000000 1.000000
vn 0.000000 0.000000 1.000000
vn 0.000000 0.000000 1.000000
vn 0.000000 0.000000 1.000000
vn 0.000000 0.000000 1.000000
vn 0.000000 0.000000 1.000000
vn 0.000000 0.000000 -1.000000
vn 0.000000 0.000000 -1.000000
vn 0.000000 0.000000 -1.000000
vn 0.000000 0.000000 -1.000000
vn 0.000000 0.000000 -1.000000
vn 0.000000 0.000000 -1.000000
vn 0.000000 0.000000 -1.000000
vn 0.000000 0.000000 -1.000000
vn 0.000000 0.083631 -0.996497
vn 0.000000 0.083631 -0.996497
vn 0.000000 0.000000 -1.000000
vn 0.000000 0.000000 -1.000000
vn 0.000000 0.000000 -1.000000
vn 0.000000 0.000000 -1.000000
vn 0.000000 0.000000 1.000000
vn 0.000000 0.084177 0.996451
vn 0.000000 0.084177 0.996451
vn 0.000000 0.000000 1.000000
vn 0.000000 0.000000 1.000000
vn 0.000000 0.000000 1.000000
vn 0.000000 0.000000 1.000000
vn 0.000000 0.000000 1.000000
vn 0.000000 1.000000 0.000000
vn 0.000000 1.000000 0.000000
f 1/1/1 2/2/2 3/3/3 4/4/4
f 4/4/4 3/3/3 5/5/5 6/6/6
f 7/7/7 8/8/8 9/9/9 10/10/10
f 8/8/8 11/11/11 12/12/12 9/9/9
f 18/13/13 13/14/14 14/15/15 17/16/16
f 11/11/17 16/18/18 15/19/19 12/12/20
f 16/18/18 18/13/13 17/16/16 15/19/19
f 24/21/21 23/22/22 20/23/23 19/24/24
f 6/6/25 5/5/26 21/27/27 22/28/28
f 22/28/28 21/27/27 23/22/22 24/21/21
f 25/26/29 26/25/30 19/24/24 20/23/23
f 14/15/15 13/14/14 26/20/30 25/17/29
f 27/29/31 30/30/32 29/31/33 28/32/34
f 30/30/32 32/33/35 31/34/36 29/31/33
f 33/35/37 36/36/38 35/37/39 34/38/40
f 34/38/40 35/37/39 38/39/41 37/40/42
f 44/41/43 43/42/44 40/43/45 39/44/46
f 37/40/47 38/39/48 41/45/49 42/46/50
f 42/46/50 41/45/49 43/42/44 44/41/43
f 50/47/51 45/48/52 46/49/53 49/50/54
f 32/33/55 48/51/56 47/52/57 31/34/58
f 48/51/56 50/47/51 49/50/54 47/52/57
f 51/53/59 46/49/53 45/48/52 52/54/60
f 40/43/45 51/55/59 52/56/60 39/44/46
