# This file uses meters as units for non-parametric coordinates.

v 89.085297 0.000004 5.596300
v -89.085304 0.000004 5.596300
v -89.085304 -13.342315 -4.898096
v 89.085297 -13.342315 -4.898096
v -89.085304 0.000004 -4.898096
v 89.085297 0.000004 -4.898096
v -89.085304 -13.342315 5.596300
v 89.085297 -13.342315 5.596300
v 89.085297 -19.245699 -0.249346
v -89.085304 -19.245699 -0.249346
v 89.085297 0.000004 5.596300
v -89.085304 0.000004 5.596300
v -89.085304 -13.342315 -4.898096
v 89.085297 -13.342315 -4.898096
v -89.085304 0.000004 -4.898096
v 89.085297 0.000004 -4.898096
v -89.085304 -13.342315 5.596300
v 89.085297 -13.342315 5.596300
v 89.085297 -19.245699 -0.249346
v -89.085304 -19.245699 -0.249346
vt 0.389747 0.892128
vt 0.485667 0.892128
vt 0.389747 0.941358
vt 0.485667 0.941358
vt 0.485667 0.959487
vt 0.389747 0.959487
vt 0.485667 0.985030
vt 0.389747 0.985030
vt 0.485667 0.918560
vt 0.389747 0.918560
vt 0.485667 0.959487
vt 0.485667 0.985030
vt 0.389747 0.985030
vt 0.389747 0.959487
vt 0.389747 0.918560
vt 0.389747 0.892128
vt 0.485667 0.892128
vt 0.485667 0.918560
vt 0.389747 0.941358
vt 0.485667 0.941358
vn 0.000000 0.000000 -1.000000
vn 0.000000 0.000000 -1.000000
vn 0.000000 0.000000 -1.000000
vn 0.000000 0.000000 -1.000000
vn 0.000000 -0.290627 0.956836
vn 0.000000 -0.290627 0.956836
vn 0.000000 0.000000 1.000000
vn 0.000000 0.000000 1.000000
vn 0.000000 -0.618675 -0.785647
vn 0.000000 -0.618675 -0.785647
vn 0.000000 -1.000000 0.000000
vn 0.000000 -1.000000 0.000000
vn 0.000000 0.000000 1.000000
vn 0.000000 0.000000 1.000000
vn 0.000000 0.000000 1.000000
vn 0.000000 0.000000 1.000000
vn 0.000000 0.290627 -0.956836
vn 0.000000 0.000000 -1.000000
vn 0.000000 0.000000 -1.000000
vn 0.000000 0.290627 -0.956836
vn 0.000000 0.618675 0.785647
vn 0.000000 1.000000 -0.000000
vn 0.000000 1.000000 -0.000000
vn 0.000000 0.618675 0.785647
f 4/5/1 3/6/2 5/8/3 6/7/4
f 7/10/5 8/9/6 1/2/7 2/1/8
f 3/6/9 4/5/10 9/4/11 10/3/12
f 10/3/12 9/4/11 8/9/6 7/10/5
f 14/11/13 16/12/14 15/13/15 13/14/16
f 17/15/17 12/16/18 11/17/19 18/18/20
f 13/14/21 20/19/22 19/20/23 14/11/24
f 20/19/22 17/15/17 18/18/20 19/20/23
