# This file uses meters as units for non-parametric coordinates.

v -89.085304 -288.390289 5.596300
v -89.085304 -346.592377 5.596300
v 89.085297 -346.592377 5.596300
v 89.085297 -288.390289 5.596300
v -89.085304 -115.941681 5.596300
v 89.085297 -115.941681 5.596300
v 89.085297 -173.681244 5.596300
v -89.085304 -173.681244 5.596300
v 89.085297 -231.883362 5.596300
v -89.085304 -231.883362 5.596300
v -89.085304 -231.883362 -4.898096
v -89.085304 -288.390289 -4.898096
v 89.085297 -288.390289 -4.898096
v 89.085297 -231.883362 -4.898096
v -89.085304 -115.941681 -4.898096
v -89.085304 -173.681244 -4.898096
v 89.085297 -173.681244 -4.898096
v 89.085297 -115.941681 -4.898096
v 89.085297 -346.592377 -4.898096
v -89.085304 -346.592377 -4.898096
v -89.085304 -359.934723 -4.898096
v 89.085297 -359.934723 -4.898096
v -89.085304 -359.934723 5.596300
v 89.085297 -359.934723 5.596300
v 89.085297 -365.838104 -0.249346
v -89.085304 -365.838104 -0.249346
v -89.085304 0.000000 5.596300
v -89.085304 -57.739563 5.596300
v 89.085297 -57.739563 5.596300
v 89.085297 0.000000 5.596300
v -89.085304 0.000000 -4.898096
v 89.085297 0.000000 -4.898096
v 89.085297 -57.739563 -4.898096
v -89.085304 -57.739563 -4.898096
v -89.085304 -288.390289 5.596300
v -89.085304 -346.592377 5.596300
v 89.085297 -346.592377 5.596300
v 89.085297 -288.390289 5.596300
v -89.085304 -115.941681 5.596300
v 89.085297 -115.941681 5.596300
v 89.085297 -173.681244 5.596300
v -89.085304 -173.681244 5.596300
v 89.085297 -231.883362 5.596300
v -89.085304 -231.883362 5.596300
v -89.085304 -231.883362 -4.898096
v -89.085304 -288.390289 -4.898096
v 89.085297 -288.390289 -4.898096
v 89.085297 -231.883362 -4.898096
v -89.085304 -115.941681 -4.898096
v -89.085304 -173.681244 -4.898096
v 89.085297 -173.681244 -4.898096
v 89.085297 -115.941681 -4.898096
v 89.085297 -346.592377 -4.898096
v -89.085304 -346.592377 -4.898096
v -89.085304 -359.934723 -4.898096
v 89.085297 -359.934723 -4.898096
v -89.085304 -359.934723 5.596300
v 89.085297 -359.934723 5.596300
v 89.085297 -365.838104 -0.249346
v -89.085304 -365.838104 -0.249346
v -89.085304 0.000000 5.596300
v -89.085304 -57.739563 5.596300
v 89.085297 -57.739563 5.596300
v 89.085297 0.000000 5.596300
v -89.085304 0.000000 -4.898096
v 89.085297 0.000000 -4.898096
v 89.085297 -57.739563 -4.898096
v -89.085304 -57.739563 -4.898096
vt 0.264747 0.767128
vt 0.264747 0.860707
vt 0.360667 0.860707
vt 0.360667 0.767128
vt 0.264747 0.860368
vt 0.360667 0.860368
vt 0.264747 0.860368
vt 0.264747 0.766790
vt 0.360667 0.766790
vt 0.360667 0.860368
vt 0.264747 0.768142
vt 0.360667 0.768142
vt 0.360667 0.861382
vt 0.264748 0.861383
vt 0.264747 0.768143
vt 0.360667 0.768142
vt 0.360667 0.861721
vt 0.264748 0.861721
vt 0.360667 0.767804
vt 0.264747 0.767804
vt 0.360667 0.793348
vt 0.264747 0.793348
vt 0.264747 0.834275
vt 0.360667 0.834275
vt 0.360667 0.811477
vt 0.264747 0.811477
vt 0.264747 0.860368
vt 0.264747 0.766790
vt 0.360667 0.766790
vt 0.360667 0.860368
vt 0.264748 0.861721
vt 0.360668 0.861721
vt 0.264747 0.768143
vt 0.360667 0.768142
vt 0.264747 0.767128
vt 0.360667 0.767128
vt 0.360667 0.860707
vt 0.264747 0.860707
vt 0.264747 0.860368
vt 0.360667 0.860368
vt 0.264747 0.860368
vt 0.360667 0.860368
vt 0.360667 0.766790
vt 0.264747 0.766790
vt 0.264747 0.768142
vt 0.264748 0.861383
vt 0.360667 0.861382
vt 0.360667 0.768142
vt 0.264747 0.768143
vt 0.264748 0.861721
vt 0.360667 0.861721
vt 0.360667 0.768142
vt 0.264747 0.767804
vt 0.360667 0.767804
vt 0.360667 0.793348
vt 0.264747 0.793348
vt 0.264747 0.834275
vt 0.360667 0.834275
vt 0.264747 0.811477
vt 0.360667 0.811477
vt 0.264747 0.860368
vt 0.360667 0.860368
vt 0.360667 0.766790
vt 0.264747 0.766790
vt 0.264747 0.768143
vt 0.264748 0.861721
vt 0.360668 0.861721
vt 0.360667 0.768142
vn 0.000000 0.000000 1.000000
vn 0.000000 0.000000 1.000000
vn 0.000000 0.000000 1.000000
vn 0.000000 0.000000 1.000000
vn 0.000000 0.000000 1.000000
vn 0.000000 0.000000 1.000000
vn 0.000000 0.000000 1.000000
vn 0.000000 0.000000 1.000000
vn 0.000000 0.000000 1.000000
vn 0.000000 0.000000 1.000000
vn 0.000000 0.000000 1.000000
vn 0.000000 0.000000 1.000000
vn 0.000000 0.000000 -1.000000
vn 0.000000 0.000000 -1.000000
vn 0.000000 0.000000 -1.000000
vn 0.000000 0.000000 -1.000000
vn 0.000000 0.000000 -1.000000
vn 0.000000 0.000000 -1.000000
vn 0.000000 0.000000 -1.000000
vn 0.000000 0.000000 -1.000000
vn 0.000000 0.000000 -1.000000
vn 0.000000 0.000000 -1.000000
vn 0.000000 0.000000 -1.000000
vn 0.000000 0.000000 -1.000000
vn 0.000000 0.000000 -1.000000
vn 0.000000 0.000000 -1.000000
vn 0.000000 0.000000 -1.000000
vn 0.000000 0.000000 -1.000000
vn 0.000000 -0.290627 0.956836
vn 0.000000 -0.290627 0.956836
vn 0.000000 0.000000 1.000000
vn 0.000000 0.000000 1.000000
vn 0.000000 -0.618674 -0.785648
vn 0.000000 -0.618674 -0.785648
vn 0.000000 -1.000000 -0.000000
vn 0.000000 -1.000000 -0.000000
vn 0.000000 0.000000 1.000000
vn 0.000000 0.000000 1.000000
vn 0.000000 0.000000 1.000000
vn 0.000000 0.000000 1.000000
vn 0.000000 0.000000 1.000000
vn 0.000000 0.000000 1.000000
vn 0.000000 0.000000 -1.000000
vn 0.000000 0.000000 -1.000000
vn 0.000000 0.000000 -1.000000
vn 0.000000 0.000000 -1.000000
vn 0.000000 0.000000 -1.000000
vn 0.000000 0.000000 -1.000000
vn 0.000000 0.000000 -1.000000
vn 0.000000 0.000000 -1.000000
vn 0.000000 0.000000 -1.000000
vn 0.000000 0.000000 -1.000000
vn 0.000000 0.000000 -1.000000
vn 0.000000 0.000000 -1.000000
vn 0.000000 0.000000 -1.000000
vn 0.000000 0.000000 -1.000000
vn 0.000000 0.000000 -1.000000
vn 0.000000 0.000000 -1.000000
vn 0.000000 0.000000 -1.000000
vn 0.000000 0.000000 -1.000000
vn 0.000000 0.000000 1.000000
vn 0.000000 0.000000 1.000000
vn 0.000000 0.000000 1.000000
vn 0.000000 0.000000 1.000000
vn 0.000000 0.000000 1.000000
vn 0.000000 0.000000 1.000000
vn 0.000000 0.000000 1.000000
vn 0.000000 0.000000 1.000000
vn 0.000000 0.000000 1.000000
vn 0.000000 0.000000 1.000000
vn 0.000000 0.000000 1.000000
vn 0.000000 0.000000 1.000000
vn 0.000000 0.000000 1.000000
vn 0.000000 0.000000 1.000000
vn 0.000000 0.000000 1.000000
vn 0.000000 0.000000 1.000000
vn 0.000000 0.290627 -0.956836
vn 0.000000 0.000000 -1.000000
vn 0.000000 0.000000 -1.000000
vn 0.000000 0.290627 -0.956836
vn 0.000000 0.618674 0.785648
vn 0.000000 1.000000 0.000000
vn 0.000000 1.000000 0.000000
vn 0.000000 0.618674 0.785648
vn 0.000000 0.000000 -1.000000
vn 0.000000 0.000000 -1.000000
vn 0.000000 0.000000 -1.000000
vn 0.000000 0.000000 -1.000000
vn 0.000000 0.000000 -1.000000
vn 0.000000 0.000000 -1.000000
vn 0.000000 0.000000 1.000000
vn 0.000000 0.000000 1.000000
vn 0.000000 0.000000 1.000000
vn 0.000000 0.000000 1.000000
vn 0.000000 0.000000 1.000000
vn 0.000000 0.000000 1.000000
f 1/1/1 2/2/2 3/3/3 4/4/4
f 10/5/5 1/1/6 4/4/7 9/6/8
f 5/7/9 8/8/10 7/9/11 6/10/12
f 8/8/10 10/5/5 9/6/8 7/9/11
f 11/11/13 14/12/14 13/13/15 12/14/16
f 15/15/17 18/16/18 17/17/19 16/18/20
f 16/18/20 17/17/19 14/12/14 11/11/13
f 12/14/21 13/13/22 19/19/23 20/20/24
f 22/21/25 21/22/26 20/20/27 19/19/28
f 23/23/29 24/24/30 3/3/31 2/2/32
f 21/22/33 22/21/34 25/25/35 26/26/36
f 26/26/36 25/25/35 24/24/30 23/23/29
f 27/27/37 28/28/38 29/29/39 30/30/40
f 28/28/38 5/7/41 6/10/42 29/29/39
f 31/33/43 32/34/44 33/32/45 34/31/46
f 34/31/46 33/32/45 18/16/47 15/15/48
f 35/35/49 38/36/50 37/37/51 36/38/52
f 44/39/53 43/40/54 38/36/55 35/35/56
f 39/41/57 40/42/58 41/43/59 42/44/60
f 42/44/60 41/43/59 43/40/54 44/39/53
f 45/45/61 46/46/62 47/47/63 48/48/64
f 49/49/65 50/50/66 51/51/67 52/52/68
f 50/50/66 45/45/61 48/48/64 51/51/67
f 46/46/69 54/53/70 53/54/71 47/47/72
f 56/55/73 53/54/74 54/53/75 55/56/76
f 57/57/77 36/38/78 37/37/79 58/58/80
f 55/56/81 60/59/82 59/60/83 56/55/84
f 60/59/82 57/57/77 58/58/80 59/60/83
f 61/61/85 64/62/86 63/63/87 62/64/88
f 62/64/88 63/63/87 40/42/89 39/41/90
f 65/65/91 68/66/92 67/67/93 66/68/94
f 68/66/92 49/49/95 52/52/96 67/67/93
