# This file uses meters as units for non-parametric coordinates.

v -89.085304 0.000000 5.596300
v 89.085304 0.000000 5.596300
v -89.085304 -57.862812 5.596300
v 89.085304 -57.862812 5.596300
v -89.085304 0.000000 -4.898096
v 89.085304 0.000000 -4.898096
v -89.085304 -57.862812 -4.898096
v 89.085304 -57.862812 -4.898096
v 89.085304 -62.317890 0.366299
v -89.085304 -62.317890 0.366299
vt 0.264747 0.891790
vt 0.360667 0.891790
vt 0.264747 0.899048
vt 0.360667 0.899048
vt 0.264747 0.985368
vt 0.360667 0.985368
vt 0.264747 0.985368
vt 0.360667 0.985368
vt 0.264747 0.891790
vt 0.360667 0.891790
vt 0.360667 0.899048
vt 0.264747 0.899048
vn 0.000000 0.000000 -1.000000
vn 0.000000 0.000000 -1.000000
vn 0.000000 0.000000 -1.000000
vn 0.000000 0.000000 -1.000000
vn 0.000000 0.000000 1.000000
vn 0.000000 0.000000 1.000000
vn 0.000000 0.000000 1.000000
vn 0.000000 0.000000 1.000000
vn 0.000000 1.000000 0.000000
vn 0.000000 0.763344 0.645992
vn 0.000000 0.763344 0.645992
vn 0.000000 1.000000 0.000000
vn 0.000000 0.761251 -0.648458
vn 0.000000 0.761251 -0.648458
f 1/7/1 2/8/2 4/2/3 3/1/4
f 5/6/5 7/10/6 8/9/7 6/5/8
f 9/12/9 8/9/10 7/10/11 10/11/12
f 4/2/13 9/4/9 10/3/12 3/1/14
