# This file uses meters as units for non-parametric coordinates.

v -89.085304 -231.883331 5.596300
v 89.085297 -231.883331 5.596300
v 89.085297 -289.622925 5.596300
v -89.085304 -289.622925 5.596300
v 89.085297 -347.825043 5.596300
v -89.085304 -347.825043 5.596300
v -89.085304 -417.674316 -4.898096
v 89.085297 -417.674316 -4.898096
v -89.085304 -404.331970 5.596300
v 89.085297 -404.331970 5.596300
v -89.085304 -347.825043 -4.898096
v -89.085304 -404.331970 -4.898096
v 89.085297 -404.331970 -4.898096
v 89.085297 -347.825043 -4.898096
v -89.085304 -231.883331 -4.898096
v -89.085304 -289.622925 -4.898096
v 89.085297 -289.622925 -4.898096
v 89.085297 -231.883331 -4.898096
v -89.085304 -417.674316 5.596300
v 89.085297 -417.674316 5.596300
v 89.085297 -423.577698 -0.249346
v -89.085304 -423.577698 -0.249346
v -89.085304 -115.941666 5.596300
v -89.085304 -173.681244 5.596300
v 89.085297 -173.681244 5.596300
v 89.085297 -115.941666 5.596300
v -89.085304 -115.941666 -4.898096
v 89.085297 -115.941666 -4.898096
v 89.085297 -173.681244 -4.898096
v -89.085304 -173.681244 -4.898096
v -89.085304 0.000000 5.596300
v -89.085304 -57.739567 5.596300
v 89.085297 -57.739567 5.596300
v 89.085297 0.000000 5.596300
v -89.085304 0.000000 -4.898096
v 89.085297 0.000000 -4.898096
v 89.085297 -57.739567 -4.898096
v -89.085304 -57.739567 -4.898096
v -89.085304 -231.883331 5.596300
v 89.085297 -231.883331 5.596300
v 89.085297 -289.622925 5.596300
v -89.085304 -289.622925 5.596300
v 89.085297 -347.825043 5.596300
v -89.085304 -347.825043 5.596300
v -89.085304 -417.674316 -4.898096
v 89.085297 -417.674316 -4.898096
v -89.085304 -404.331970 5.596300
v 89.085297 -404.331970 5.596300
v -89.085304 -347.825043 -4.898096
v -89.085304 -404.331970 -4.898096
v 89.085297 -404.331970 -4.898096
v 89.085297 -347.825043 -4.898096
v -89.085304 -231.883331 -4.898096
v -89.085304 -289.622925 -4.898096
v 89.085297 -289.622925 -4.898096
v 89.085297 -231.883331 -4.898096
v -89.085304 -417.674316 5.596300
v 89.085297 -417.674316 5.596300
v 89.085297 -423.577698 -0.249346
v -89.085304 -423.577698 -0.249346
v -89.085304 -115.941666 5.596300
v -89.085304 -173.681244 5.596300
v 89.085297 -173.681244 5.596300
v 89.085297 -115.941666 5.596300
v -89.085304 -115.941666 -4.898096
v 89.085297 -115.941666 -4.898096
v 89.085297 -173.681244 -4.898096
v -89.085304 -173.681244 -4.898096
v -89.085304 0.000000 5.596300
v -89.085304 -57.739567 5.596300
v 89.085297 -57.739567 5.596300
v 89.085297 0.000000 5.596300
v -89.085304 0.000000 -4.898096
v 89.085297 0.000000 -4.898096
v 89.085297 -57.739567 -4.898096
v -89.085304 -57.739567 -4.898096
vt 0.389747 0.985368
vt 0.389747 0.892128
vt 0.485667 0.892128
vt 0.485667 0.985368
vt 0.389747 0.985368
vt 0.389747 0.891790
vt 0.485667 0.891790
vt 0.485667 0.985368
vt 0.389747 0.891790
vt 0.485667 0.891790
vt 0.485667 0.985030
vt 0.389747 0.985030
vt 0.389747 0.891790
vt 0.485667 0.891790
vt 0.485667 0.985368
vt 0.389747 0.985368
vt 0.485667 0.959487
vt 0.389747 0.959487
vt 0.389747 0.918560
vt 0.485667 0.918560
vt 0.485667 0.941358
vt 0.389747 0.941358
vt 0.389747 0.985368
vt 0.389747 0.891790
vt 0.485667 0.891790
vt 0.485667 0.985368
vt 0.389747 0.891790
vt 0.485667 0.891790
vt 0.485667 0.985368
vt 0.389747 0.985368
vt 0.389747 0.985368
vt 0.389747 0.891790
vt 0.485667 0.891790
vt 0.485667 0.985368
vt 0.389747 0.985368
vt 0.485667 0.985368
vt 0.389747 0.891790
vt 0.485667 0.891790
vt 0.389747 0.985368
vt 0.485667 0.985368
vt 0.485667 0.892128
vt 0.389747 0.892128
vt 0.389747 0.985368
vt 0.485667 0.985368
vt 0.485667 0.891790
vt 0.389747 0.891790
vt 0.389747 0.891790
vt 0.389747 0.985030
vt 0.485667 0.985030
vt 0.485667 0.891790
vt 0.389747 0.891790
vt 0.389747 0.985368
vt 0.485667 0.985368
vt 0.485667 0.891790
vt 0.485667 0.959487
vt 0.389747 0.959487
vt 0.389747 0.918560
vt 0.485667 0.918560
vt 0.389747 0.941358
vt 0.485667 0.941358
vt 0.389747 0.985368
vt 0.485667 0.985368
vt 0.485667 0.891790
vt 0.389747 0.891790
vt 0.389747 0.891790
vt 0.389747 0.985368
vt 0.485667 0.985368
vt 0.485667 0.891790
vt 0.389747 0.985368
vt 0.485667 0.985368
vt 0.485667 0.891790
vt 0.389747 0.891790
vt 0.389747 0.891790
vt 0.389747 0.985368
vt 0.485667 0.985368
vt 0.485667 0.891790
vn 0.000000 0.000000 1.000000
vn 0.000000 0.000000 1.000000
vn 0.000000 0.000000 1.000000
vn 0.000000 0.000000 1.000000
vn 0.000000 0.000000 1.000000
vn 0.000000 0.000000 1.000000
vn 0.000000 0.000000 1.000000
vn 0.000000 0.000000 1.000000
vn 0.000000 0.000000 -1.000000
vn 0.000000 0.000000 -1.000000
vn 0.000000 0.000000 -1.000000
vn 0.000000 0.000000 -1.000000
vn 0.000000 0.000000 -1.000000
vn 0.000000 0.000000 -1.000000
vn 0.000000 0.000000 -1.000000
vn 0.000000 0.000000 -1.000000
vn 0.000000 0.000000 -1.000000
vn 0.000000 0.000000 -1.000000
vn 0.000000 -0.290628 0.956836
vn 0.000000 -0.290628 0.956836
vn 0.000000 0.000000 1.000000
vn 0.000000 0.000000 1.000000
vn 0.000000 -0.618677 -0.785646
vn 0.000000 -0.618677 -0.785646
vn 0.000000 -1.000000 0.000000
vn 0.000000 -1.000000 0.000000
vn 0.000000 0.000000 1.000000
vn 0.000000 0.000000 1.000000
vn 0.000000 0.000000 1.000000
vn 0.000000 0.000000 1.000000
vn 0.000000 0.000000 1.000000
vn 0.000000 0.000000 1.000000
vn 0.000000 0.000000 -1.000000
vn 0.000000 0.000000 -1.000000
vn 0.000000 0.000000 -1.000000
vn 0.000000 0.000000 -1.000000
vn 0.000000 0.000000 -1.000000
vn 0.000000 0.000000 -1.000000
vn 0.000000 0.000000 1.000000
vn 0.000000 0.000000 1.000000
vn 0.000000 0.000000 1.000000
vn 0.000000 0.000000 1.000000
vn 0.000000 0.000000 1.000000
vn 0.000000 0.000000 1.000000
vn 0.000000 0.000000 -1.000000
vn 0.000000 0.000000 -1.000000
vn 0.000000 0.000000 -1.000000
vn 0.000000 0.000000 -1.000000
vn 0.000000 0.000000 -1.000000
vn 0.000000 0.000000 -1.000000
vn 0.000000 0.000000 -1.000000
vn 0.000000 0.000000 -1.000000
vn 0.000000 0.000000 -1.000000
vn 0.000000 0.000000 -1.000000
vn 0.000000 0.000000 -1.000000
vn 0.000000 0.000000 -1.000000
vn 0.000000 0.000000 -1.000000
vn 0.000000 0.000000 -1.000000
vn 0.000000 0.000000 1.000000
vn 0.000000 0.000000 1.000000
vn 0.000000 0.000000 1.000000
vn 0.000000 0.000000 1.000000
vn 0.000000 0.000000 1.000000
vn 0.000000 0.000000 1.000000
vn 0.000000 0.000000 1.000000
vn 0.000000 0.000000 1.000000
vn 0.000000 0.000000 1.000000
vn 0.000000 0.000000 1.000000
vn 0.000000 0.290628 -0.956836
vn 0.000000 0.000000 -1.000000
vn 0.000000 0.000000 -1.000000
vn 0.000000 0.290628 -0.956836
vn 0.000000 0.618677 0.785646
vn 0.000000 1.000000 -0.000000
vn 0.000000 1.000000 -0.000000
vn 0.000000 0.618677 0.785646
vn 0.000000 0.000000 -1.000000
vn 0.000000 0.000000 -1.000000
vn 0.000000 0.000000 -1.000000
vn 0.000000 0.000000 -1.000000
vn 0.000000 0.000000 -1.000000
vn 0.000000 0.000000 -1.000000
vn 0.000000 0.000000 1.000000
vn 0.000000 0.000000 1.000000
vn 0.000000 0.000000 1.000000
vn 0.000000 0.000000 1.000000
vn 0.000000 0.000000 1.000000
vn 0.000000 0.000000 1.000000
vn 0.000000 0.000000 -1.000000
vn 0.000000 0.000000 -1.000000
vn 0.000000 0.000000 -1.000000
vn 0.000000 0.000000 -1.000000
vn 0.000000 0.000000 -1.000000
vn 0.000000 0.000000 -1.000000
vn 0.000000 0.000000 1.000000
vn 0.000000 0.000000 1.000000
vn 0.000000 0.000000 1.000000
vn 0.000000 0.000000 1.000000
vn 0.000000 0.000000 1.000000
vn 0.000000 0.000000 1.000000
f 6/1/1 9/2/2 10/3/3 5/4/4
f 1/5/5 4/6/6 3/7/7 2/8/8
f 4/6/6 6/1/1 5/4/4 3/7/7
f 11/9/9 14/10/10 13/11/11 12/12/12
f 15/13/13 18/14/14 17/15/15 16/16/16
f 16/16/16 17/15/15 14/10/10 11/9/9
f 8/17/17 7/18/18 12/12/12 13/11/11
f 19/19/19 20/20/20 10/3/21 9/2/22
f 7/18/23 8/17/24 21/21/25 22/22/26
f 22/22/26 21/21/25 20/20/20 19/19/19
f 23/23/27 24/24/28 25/25/29 26/26/30
f 24/24/28 1/5/31 2/8/32 25/25/29
f 27/27/33 28/28/34 29/29/35 30/30/36
f 30/30/36 29/29/35 18/14/37 15/13/38
f 31/31/39 32/32/40 33/33/41 34/34/42
f 32/32/40 23/23/43 26/26/44 33/33/41
f 35/37/45 36/38/46 37/36/47 38/35/48
f 38/35/48 37/36/47 28/28/49 27/27/50
f 44/39/51 43/40/52 48/41/53 47/42/54
f 39/43/55 40/44/56 41/45/57 42/46/58
f 42/46/58 41/45/57 43/40/52 44/39/51
f 49/47/59 50/48/60 51/49/61 52/50/62
f 53/51/63 54/52/64 55/53/65 56/54/66
f 54/52/64 49/47/59 52/50/62 55/53/65
f 46/55/67 51/49/61 50/48/60 45/56/68
f 57/57/69 47/42/70 48/41/71 58/58/72
f 45/56/73 60/59/74 59/60/75 46/55/76
f 60/59/74 57/57/69 58/58/72 59/60/75
f 61/61/77 64/62/78 63/63/79 62/64/80
f 62/64/80 63/63/79 40/44/81 39/43/82
f 65/65/83 68/66/84 67/67/85 66/68/86
f 68/66/84 53/51/87 56/54/88 67/67/85
f 69/69/89 72/70/90 71/71/91 70/72/92
f 70/72/92 71/71/91 64/62/93 61/61/94
f 73/73/95 76/74/96 75/75/97 74/76/98
f 76/74/96 65/65/99 66/68/100 75/75/97
