# This file uses meters as units for non-parametric coordinates.

v -100.000000 162.393158 0.000000
v 100.000000 162.393158 0.000000
v -100.000000 0.000000 0.000000
v 100.000000 0.000000 0.000000
v -69.744537 0.000000 0.000000
v -69.744537 162.393143 0.000000
v 69.744537 0.000000 0.000000
v 69.744537 162.393158 0.000000
vt 0.252266 0.377395
vt 0.372453 0.377395
vt 0.372453 0.497582
vt 0.252266 0.497582
vt 0.270448 0.377395
vt 0.270448 0.497582
vt 0.353935 0.377395
vt 0.353935 0.497582
vn 0.000000 0.000000 1.000000
vn 0.000000 0.000000 1.000000
vn 0.000000 0.000000 1.000000
vn 0.000000 0.000000 1.000000
vn 0.000000 0.000000 1.000000
vn 0.000000 0.000000 1.000000
vn 0.000000 0.000000 1.000000
vn 0.000000 0.000000 1.000000
f 3/1/1 5/5/2 6/6/3 1/4/4
f 7/7/5 4/2/6 2/3/7 8/8/8
