# This file uses meters as units for non-parametric coordinates.

v 100.000000 162.393158 0.000000
v 100.000000 0.000000 0.000000
v -100.000000 0.000000 0.000000
v -14.771821 0.000000 0.000000
v -14.771821 162.393158 0.000000
v -100.000000 10.651128 0.000000
v -14.771821 10.651128 0.000000
v 100.000000 10.651128 0.000000
vt 0.377266 0.127395
vt 0.377266 0.135278
vt 0.446236 0.135278
vt 0.446236 0.127395
vt 0.497453 0.135278
vt 0.497453 0.127395
vt 0.377266 0.247582
vt 0.446236 0.247582
vn 0.000000 0.000000 1.000000
vn 0.000000 0.000000 1.000000
vn 0.000000 0.000000 1.000000
vn 0.000000 0.000000 1.000000
vn 0.000000 0.000000 1.000000
vn 0.000000 0.000000 1.000000
vn 0.000000 0.000000 1.000000
vn 0.000000 0.000000 1.000000
f 2/1/1 8/2/2 7/3/3 4/4/4
f 4/4/4 7/3/3 6/5/5 3/6/6
f 8/2/2 1/7/7 5/8/8 7/3/3
