# This file uses meters as units for non-parametric coordinates.

v 100.000000 400.000000 0.000000
v -100.000000 400.000000 0.000000
v -15.419600 400.000000 0.000000
v -100.000000 336.847321 0.000000
v -15.419600 336.847321 0.000000
v 100.000000 336.847321 0.000000
v -15.419600 162.393158 0.000000
v 100.000000 162.393158 0.000000
vt 0.252266 0.002395
vt 0.252266 0.090638
vt 0.321626 0.090638
vt 0.321626 0.002395
vt 0.321626 0.122582
vt 0.372453 0.122582
vt 0.372453 0.090638
vt 0.252266 0.122582
vn 0.000000 0.000000 1.000000
vn 0.000000 0.000000 1.000000
vn 0.000000 0.000000 1.000000
vn 0.000000 0.000000 1.000000
vn 0.000000 0.000000 1.000000
vn 0.000000 0.000000 1.000000
vn 0.000000 0.000000 1.000000
vn 0.000000 0.000000 1.000000
f 8/1/1 6/2/2 5/3/3 7/4/4
f 3/5/5 2/6/6 4/7/7 5/3/3
f 6/2/2 1/8/8 3/5/5 5/3/3
