# This file uses meters as units for non-parametric coordinates.

v -100.000000 162.393158 0.000000
v -100.000000 0.000000 0.000000
v 100.000000 0.000000 0.000000
v 15.419601 0.000000 0.000000
v 15.419601 162.393158 0.000000
v 100.000000 153.727142 0.000000
v 15.419601 153.727142 0.000000
v -100.000000 153.727142 0.000000
vt 0.377266 0.122582
vt 0.446626 0.122582
vt 0.446626 0.008809
vt 0.377266 0.008809
vt 0.497453 0.122582
vt 0.497453 0.008809
vt 0.446626 0.002395
vt 0.377266 0.002395
vn 0.000000 0.000000 1.000000
vn 0.000000 0.000000 1.000000
vn 0.000000 0.000000 1.000000
vn 0.000000 0.000000 1.000000
vn 0.000000 0.000000 1.000000
vn 0.000000 0.000000 1.000000
vn 0.000000 0.000000 1.000000
vn 0.000000 0.000000 1.000000
f 2/1/1 4/2/2 7/3/3 8/4/4
f 4/2/2 3/5/5 6/6/6 7/3/3
f 8/4/4 7/3/3 5/7/7 1/8/8
