# This file uses meters as units for non-parametric coordinates.

v -100.000000 162.393158 0.000000
v 100.000000 162.393158 0.000000
v -100.000000 0.000000 0.000000
v 100.000000 0.000000 0.000000
v -69.744537 0.000000 0.000000
v -69.744537 162.393143 0.000000
v 69.744537 0.000000 0.000000
v 69.744537 162.393158 0.000000
vt 0.127266 0.247582
vt 0.247453 0.247582
vt 0.247453 0.127395
vt 0.127266 0.127395
vt 0.145448 0.247582
vt 0.145448 0.127395
vt 0.228935 0.247582
vt 0.228935 0.127395
vn 0.000000 0.000000 1.000000
vn 0.000000 0.000000 1.000000
vn 0.000000 0.000000 1.000000
vn 0.000000 0.000000 1.000000
vn 0.000000 0.000000 1.000000
vn 0.000000 0.000000 1.000000
vn 0.000000 0.000000 1.000000
vn 0.000000 0.000000 1.000000
f 3/1/1 5/5/2 6/6/3 1/4/4
f 7/7/5 4/2/6 2/3/7 8/8/8
