# This file uses meters as units for non-parametric coordinates.

v -100.000000 400.000000 0.000000
v 100.000000 400.000000 0.000000
v 14.771821 400.000000 0.000000
v 100.000000 389.385559 0.000000
v 14.771821 389.385559 0.000000
v -100.000000 389.385559 0.000000
v -100.000000 162.393158 0.000000
v 14.771821 162.393158 0.000000
vt 0.377266 0.247582
vt 0.446236 0.247582
vt 0.446236 0.132764
vt 0.377266 0.132764
vt 0.446236 0.127395
vt 0.497453 0.132764
vt 0.497453 0.127395
vt 0.377266 0.127395
vn 0.000000 0.000000 1.000000
vn 0.000000 0.000000 1.000000
vn 0.000000 0.000000 1.000000
vn 0.000000 0.000000 1.000000
vn 0.000000 0.000000 1.000000
vn 0.000000 0.000000 1.000000
vn 0.000000 0.000000 1.000000
vn 0.000000 0.000000 1.000000
f 7/1/1 8/2/2 5/3/3 6/4/4
f 3/5/5 5/3/3 4/6/6 2/7/7
f 6/4/4 5/3/3 3/5/5 1/8/8
