# This file uses meters as units for non-parametric coordinates.

v 100.000000 162.393158 0.000000
v 100.000000 400.000000 0.000000
v -100.000000 400.000000 0.000000
v 35.586578 162.393158 0.000000
v 35.586578 400.000000 0.000000
v -100.000000 339.463806 0.000000
v 35.586578 339.463806 0.000000
v 100.000000 339.463806 0.000000
vt 0.127266 0.497582
vt 0.127266 0.408016
vt 0.165974 0.408016
vt 0.165974 0.497582
vt 0.165974 0.377395
vt 0.247453 0.377395
vt 0.247453 0.408016
vt 0.127266 0.377395
vn 0.000000 0.000000 1.000000
vn 0.000000 0.000000 1.000000
vn 0.000000 0.000000 1.000000
vn 0.000000 0.000000 1.000000
vn 0.000000 0.000000 1.000000
vn 0.000000 0.000000 1.000000
vn 0.000000 0.000000 1.000000
vn 0.000000 0.000000 1.000000
f 1/1/1 8/2/2 7/3/3 4/4/4
f 5/5/5 3/6/6 6/7/7 7/3/3
f 8/2/2 2/8/8 5/5/5 7/3/3
