# This file uses meters as units for non-parametric coordinates.

v -100.000000 162.393158 0.000000
v 100.000000 162.393158 0.000000
v -100.000000 0.000000 0.000000
v 100.000000 0.000000 0.000000
v -85.838249 0.000000 0.000000
v -85.838249 162.393158 0.000000
v 84.516319 0.000000 0.000000
v 84.516319 162.393158 0.000000
v 100.000000 152.793976 0.000000
v 84.516319 152.793976 0.000000
v -85.838249 152.793976 0.000000
v -100.000000 152.793976 0.000000
vt 0.127266 0.127395
vt 0.135776 0.127395
vt 0.135776 0.240478
vt 0.127266 0.240478
vt 0.238148 0.127395
vt 0.238148 0.240478
vt 0.247453 0.127395
vt 0.247453 0.240478
vt 0.247453 0.247582
vt 0.238148 0.247582
vt 0.135776 0.247582
vt 0.127266 0.247582
vn 0.000000 0.000000 1.000000
vn 0.000000 0.000000 1.000000
vn 0.000000 0.000000 1.000000
vn 0.000000 0.000000 1.000000
vn 0.000000 0.000000 1.000000
vn 0.000000 0.000000 1.000000
vn 0.000000 0.000000 1.000000
vn 0.000000 0.000000 1.000000
vn 0.000000 0.000000 1.000000
vn 0.000000 0.000000 1.000000
vn 0.000000 0.000000 1.000000
vn 0.000000 0.000000 1.000000
f 3/1/1 5/2/2 11/3/3 12/4/4
f 5/2/2 7/5/5 10/6/6 11/3/3
f 7/5/5 4/7/7 9/8/8 10/6/6
f 10/6/6 9/8/8 2/9/9 8/10/10
f 12/4/4 11/3/3 6/11/11 1/12/12
