# This file uses meters as units for non-parametric coordinates.

v -43.720860 152.798721 -4.412697
v -43.720860 100.000000 -4.412697
v 43.720860 100.000000 -4.412697
v 43.720860 152.798721 -4.412697
v -43.720860 100.000000 -11.450634
v -43.720860 152.798721 -11.450634
v 43.720860 152.798721 -11.450634
v 43.720860 100.000000 -11.450634
v -43.720860 300.000000 -3.015679
v -43.720860 335.699280 -3.015679
v 43.720860 335.699280 -3.015679
v 43.720860 300.000000 -3.015679
v -43.720860 300.000000 -12.847653
v -43.720860 335.699280 -12.847653
v 43.720860 335.699280 -12.847653
v 43.720860 300.000000 -12.847653
v -43.720860 251.774460 -4.412697
v -43.720860 200.000000 -4.412697
v -43.720860 200.000000 -11.450634
v -43.720860 251.774460 -11.450634
v 43.720860 251.774460 -11.450634
v 43.720860 200.000000 -11.450634
v 43.720860 200.000000 -4.412697
v 43.720860 251.774460 -4.412697
v -43.720860 50.684284 -3.015679
v -43.720860 0.000000 -3.015679
v 43.720860 0.000000 -3.015679
v 43.720860 50.684284 -3.015679
v -43.720860 0.000000 -12.847653
v -43.720860 50.684284 -12.847653
v 43.720860 50.684284 -12.847653
v 43.720860 0.000000 -12.847653
v -44.878624 151.946381 -6.231845
v -17.014277 151.946381 -6.231845
v -17.014277 200.171921 -6.231845
v -44.878624 200.171921 -6.231845
v -44.878624 200.171921 -9.631486
v -17.014277 200.171921 -9.631486
v -17.014277 151.946381 -9.631486
v -44.878624 151.946381 -9.631486
v 16.348368 49.285591 -6.231845
v 44.212715 49.285591 -6.231845
v 44.212715 101.650085 -6.231845
v 16.348368 101.650085 -6.231845
v 16.348368 101.650085 -9.631486
v 44.212715 101.650085 -9.631486
v 44.212715 49.285591 -9.631486
v 16.348368 49.285591 -9.631486
v 16.348368 251.774460 -6.231845
v 44.212715 251.774460 -6.231845
v 44.212715 300.000000 -6.231845
v 16.348368 300.000000 -6.231845
v 16.348368 300.000000 -9.631486
v 44.212715 300.000000 -9.631486
v 44.212715 251.774460 -9.631486
v 16.348368 251.774460 -9.631486
v -65.904900 0.000000 -2.878771
v 65.904900 0.000000 -2.878771
v -65.904900 335.699280 -2.878771
v 65.904900 335.699280 -2.878771
v -65.904900 152.798721 -2.878771
v 65.904900 152.798721 -2.878771
v -65.904900 251.774460 -2.878771
v 65.904900 251.774460 -2.878771
v -43.720860 0.000000 -1.858817
v -43.720860 152.798721 -1.858817
v -43.720860 251.774460 -1.858817
v -43.720860 335.699280 -1.858817
v 43.720860 335.699280 -1.858817
v 43.720860 251.774460 -1.858817
v 43.720860 152.798721 -1.858817
v 43.720860 0.000000 -1.858817
v -43.720860 50.684284 -1.858817
v -65.904900 50.684284 -2.878771
v 65.904900 50.684284 -2.878771
v 43.720860 50.684284 -1.858817
v -65.904900 251.774460 -12.984560
v -43.720860 251.774460 -14.004514
v -65.904900 335.699280 -12.984560
v -43.720860 335.699280 -14.004514
v 65.904900 251.774460 -12.984560
v 43.720860 251.774460 -14.004514
v 43.720860 335.699280 -14.004514
v 65.904900 335.699280 -12.984560
v -65.904900 0.000000 -12.984560
v -65.904900 50.684284 -12.984560
v -43.720860 -0.000000 -14.004514
v -43.720860 50.684284 -14.004514
v 43.720860 -0.000000 -14.004514
v 65.904900 0.000000 -12.984560
v 65.904900 50.684284 -12.984560
v 43.720860 50.684284 -14.004514
v -65.904900 152.798721 -12.984560
v -43.720860 152.798721 -14.004514
v 43.720860 152.798721 -14.004514
v 65.904900 152.798721 -12.984560
vt 0.511340 0.182001
vt 0.511340 0.132319
vt 0.610151 0.132319
vt 0.610151 0.182001
vt 0.616939 0.185427
vt 0.616939 0.128893
vt 0.504498 0.128893
vt 0.504498 0.185427
vt 0.511345 0.182001
vt 0.610157 0.182001
vt 0.610118 0.182001
vt 0.511306 0.182001
vt 0.504492 0.128893
vt 0.616932 0.128893
vt 0.610157 0.132319
vt 0.511345 0.132319
vt 0.511340 0.182001
vt 0.511340 0.132319
vt 0.610151 0.132319
vt 0.610151 0.182001
vt 0.616939 0.185427
vt 0.616939 0.128893
vt 0.504498 0.128893
vt 0.504498 0.185427
vt 0.511345 0.182001
vt 0.511345 0.132319
vt 0.610157 0.132319
vt 0.610157 0.182001
vt 0.616932 0.185427
vt 0.616932 0.128893
vt 0.504492 0.128893
vt 0.504492 0.185427
vt 0.511340 0.182001
vt 0.511340 0.132319
vt 0.610151 0.132319
vt 0.610151 0.182001
vt 0.616939 0.185427
vt 0.616939 0.128893
vt 0.504498 0.128893
vt 0.504498 0.185427
vt 0.511340 0.182001
vt 0.511340 0.132319
vt 0.610151 0.132319
vt 0.610151 0.182001
vt 0.616939 0.185427
vt 0.616939 0.128893
vt 0.504498 0.128893
vt 0.504498 0.185427
vt 0.511340 0.182001
vt 0.511340 0.132319
vt 0.610151 0.132319
vt 0.610151 0.182001
vt 0.616939 0.185427
vt 0.616939 0.128893
vt 0.504498 0.128893
vt 0.504498 0.185427
vt 0.509423 0.176917
vt 0.509423 0.160791
vt 0.605352 0.160761
vt 0.605352 0.176872
vt 0.605352 0.160761
vt 0.605352 0.176872
vt 0.509423 0.160674
vt 0.509423 0.176741
vt 0.605352 0.176696
vt 0.605352 0.160644
vt 0.605352 0.160644
vt 0.605352 0.176696
vt 0.610041 0.177053
vt 0.610041 0.177053
vt 0.539962 0.177041
vt 0.539962 0.177041
vt 0.610041 0.160881
vt 0.539962 0.160873
vt 0.610041 0.160764
vt 0.610041 0.176877
vt 0.539962 0.176865
vt 0.539962 0.160756
vt 0.610041 0.176877
vt 0.539962 0.176865
vt 0.509423 0.176917
vt 0.604884 0.176962
vt 0.604884 0.176962
vt 0.604884 0.160821
vt 0.604884 0.160704
vt 0.604884 0.176787
vt 0.604884 0.176787
vt 0.509423 0.176741
vt 0.539962 0.160873
vt 0.604884 0.160821
vt 0.509423 0.160674
vt 0.604884 0.160704
vt 0.610041 0.160881
vt 0.610041 0.160764
vt 0.539962 0.160756
vt 0.509423 0.160791
vn 0.000000 0.000000 1.000000
vn 0.000000 0.000000 1.000000
vn 0.000000 0.000000 1.000000
vn 0.000000 0.000000 1.000000
vn 0.000000 0.000000 -1.000000
vn 0.000000 0.000000 -1.000000
vn 0.000000 0.000000 -1.000000
vn 0.000000 0.000000 -1.000000
vn 0.000000 1.000000 0.000000
vn 0.000000 1.000000 0.000000
vn 0.000000 1.000000 0.000000
vn 0.000000 1.000000 0.000000
vn 0.000000 -1.000000 0.000000
vn 0.000000 -1.000000 0.000000
vn 0.000000 -1.000000 0.000000
vn 0.000000 -1.000000 0.000000
vn 0.000000 1.000000 0.000000
vn 0.000000 1.000000 0.000000
vn 0.000000 1.000000 0.000000
vn 0.000000 1.000000 0.000000
vn 0.000000 -1.000000 0.000000
vn 0.000000 -1.000000 0.000000
vn 0.000000 -1.000000 0.000000
vn 0.000000 -1.000000 0.000000
vn 0.000000 0.000000 1.000000
vn 0.000000 0.000000 1.000000
vn 0.000000 0.000000 1.000000
vn 0.000000 0.000000 1.000000
vn 0.000000 0.000000 -1.000000
vn 0.000000 0.000000 -1.000000
vn 0.000000 0.000000 -1.000000
vn 0.000000 0.000000 -1.000000
vn 0.000000 0.000000 1.000000
vn 0.000000 0.000000 1.000000
vn 0.000000 0.000000 1.000000
vn 0.000000 0.000000 1.000000
vn 0.000000 0.000000 -1.000000
vn 0.000000 0.000000 -1.000000
vn 0.000000 0.000000 -1.000000
vn 0.000000 0.000000 -1.000000
vn 0.000000 1.000000 0.000000
vn 0.000000 1.000000 0.000000
vn 0.000000 1.000000 0.000000
vn 0.000000 1.000000 0.000000
vn 0.000000 -1.000000 0.000000
vn 0.000000 -1.000000 0.000000
vn 0.000000 -1.000000 0.000000
vn 0.000000 -1.000000 0.000000
vn 0.000000 0.000000 1.000000
vn 0.000000 0.000000 1.000000
vn 0.000000 0.000000 1.000000
vn 0.000000 0.000000 1.000000
vn 0.000000 0.000000 -1.000000
vn 0.000000 0.000000 -1.000000
vn 0.000000 0.000000 -1.000000
vn 0.000000 0.000000 -1.000000
vn 0.000000 1.000000 0.000000
vn 0.000000 1.000000 0.000000
vn 0.000000 1.000000 0.000000
vn 0.000000 1.000000 0.000000
vn 0.000000 0.000000 1.000000
vn 0.000000 0.000000 1.000000
vn 0.000000 0.000000 1.000000
vn 0.000000 0.000000 1.000000
vn 0.000000 0.000000 -1.000000
vn 0.000000 0.000000 -1.000000
vn 0.000000 0.000000 -1.000000
vn 0.000000 0.000000 -1.000000
vn 1.000000 0.000000 0.000000
vn 1.000000 0.000000 0.000000
vn 1.000000 0.000000 0.000000
vn 1.000000 0.000000 0.000000
vn 0.000000 0.000000 1.000000
vn 0.000000 0.000000 1.000000
vn 0.000000 0.000000 1.000000
vn 0.000000 0.000000 1.000000
vn 0.000000 0.000000 -1.000000
vn 0.000000 0.000000 -1.000000
vn 0.000000 0.000000 -1.000000
vn 0.000000 0.000000 -1.000000
vn -1.000000 0.000000 0.000000
vn -1.000000 0.000000 0.000000
vn -1.000000 0.000000 0.000000
vn -1.000000 0.000000 0.000000
vn 0.000000 0.000000 1.000000
vn 0.000000 0.000000 1.000000
vn 0.000000 0.000000 1.000000
vn 0.000000 0.000000 1.000000
vn 0.000000 0.000000 -1.000000
vn 0.000000 0.000000 -1.000000
vn 0.000000 0.000000 -1.000000
vn 0.000000 0.000000 -1.000000
vn -1.000000 0.000000 0.000000
vn -1.000000 0.000000 0.000000
vn -1.000000 0.000000 0.000000
vn -1.000000 0.000000 0.000000
vn -0.045928 0.000000 0.998945
vn -0.045928 0.000000 0.998945
vn -0.045928 0.000000 0.998945
vn -0.045928 0.000000 0.998945
vn 0.000000 1.000000 0.000000
vn 0.000000 1.000000 0.000000
vn 0.000000 1.000000 0.000000
vn 0.000000 1.000000 0.000000
vn 0.045928 0.000000 0.998945
vn 0.045928 0.000000 0.998945
vn 0.045928 0.000000 0.998945
vn 0.045928 0.000000 0.998945
vn 0.000000 1.000000 0.000000
vn 0.000000 1.000000 0.000000
vn 0.000000 1.000000 0.000000
vn 0.000000 1.000000 0.000000
vn -1.000000 0.000000 0.000000
vn -1.000000 0.000000 0.000000
vn -1.000000 0.000000 0.000000
vn -1.000000 0.000000 0.000000
vn -0.045928 0.000000 0.998945
vn -0.045928 0.000000 0.998945
vn -0.045928 0.000000 0.998945
vn -0.045928 0.000000 0.998945
vn 0.045928 0.000000 0.998945
vn 0.045928 0.000000 0.998945
vn 0.045928 0.000000 0.998945
vn 0.045928 0.000000 0.998945
vn 1.000000 0.000000 0.000000
vn 1.000000 0.000000 0.000000
vn 1.000000 0.000000 0.000000
vn 1.000000 0.000000 0.000000
vn -1.000000 0.000000 0.000000
vn -1.000000 0.000000 0.000000
vn -1.000000 0.000000 0.000000
vn -1.000000 0.000000 0.000000
vn -0.045928 0.000000 0.998945
vn -0.045928 0.000000 0.998945
vn -0.045928 0.000000 0.998945
vn -0.045928 0.000000 0.998945
vn 0.045928 0.000000 0.998945
vn 0.045928 0.000000 0.998945
vn 0.045928 0.000000 0.998945
vn 0.045928 0.000000 0.998945
vn 1.000000 0.000000 0.000000
vn 1.000000 0.000000 0.000000
vn 1.000000 0.000000 0.000000
vn 1.000000 0.000000 0.000000
vn -1.000000 0.000000 0.000000
vn -1.000000 0.000000 0.000000
vn -1.000000 0.000000 0.000000
vn -1.000000 0.000000 0.000000
vn 1.000000 0.000000 0.000000
vn 1.000000 0.000000 0.000000
vn 1.000000 0.000000 0.000000
vn 1.000000 0.000000 0.000000
vn 1.000000 0.000000 0.000000
vn 1.000000 0.000000 0.000000
vn 1.000000 0.000000 0.000000
vn 1.000000 0.000000 0.000000
vn -1.000000 0.000000 0.000000
vn -1.000000 0.000000 0.000000
vn -1.000000 0.000000 0.000000
vn -1.000000 0.000000 0.000000
vn -1.000000 0.000000 0.000000
vn -1.000000 0.000000 0.000000
vn -1.000000 0.000000 0.000000
vn -1.000000 0.000000 0.000000
vn 1.000000 0.000000 0.000000
vn 1.000000 0.000000 0.000000
vn 1.000000 0.000000 0.000000
vn 1.000000 0.000000 0.000000
vn -1.000000 0.000000 0.000000
vn -1.000000 0.000000 0.000000
vn -1.000000 0.000000 0.000000
vn -1.000000 0.000000 0.000000
vn -0.045928 0.000000 0.998945
vn -0.045928 0.000000 0.998945
vn -0.045928 0.000000 0.998945
vn -0.045928 0.000000 0.998945
vn 0.045928 0.000000 0.998945
vn 0.045928 0.000000 0.998945
vn 0.045928 0.000000 0.998945
vn 0.045928 0.000000 0.998945
vn -0.045928 0.000000 -0.998945
vn -0.045928 0.000000 -0.998945
vn -0.045928 0.000000 -0.998945
vn -0.045928 0.000000 -0.998945
vn 0.045928 0.000000 -0.998945
vn 0.045928 0.000000 -0.998945
vn 0.045928 0.000000 -0.998945
vn 0.045928 0.000000 -0.998945
vn -0.045928 0.000000 -0.998945
vn -0.045928 0.000000 -0.998945
vn -0.045928 0.000000 -0.998945
vn -0.045928 0.000000 -0.998945
vn 0.045928 0.000000 -0.998945
vn 0.045928 0.000000 -0.998945
vn 0.045928 0.000000 -0.998945
vn 0.045928 0.000000 -0.998945
vn 0.045928 0.000000 -0.998945
vn 0.045928 0.000000 -0.998945
vn 0.045928 0.000000 -0.998945
vn 0.045928 0.000000 -0.998945
vn -0.045928 0.000000 -0.998945
vn -0.045928 0.000000 -0.998945
vn -0.045928 0.000000 -0.998945
vn -0.045928 0.000000 -0.998945
vn -0.045928 0.000000 -0.998945
vn -0.045928 0.000000 -0.998945
vn -0.045928 0.000000 -0.998945
vn -0.045928 0.000000 -0.998945
vn 0.045928 0.000000 -0.998945
vn 0.045928 0.000000 -0.998945
vn 0.045928 0.000000 -0.998945
vn 0.045928 0.000000 -0.998945
vn 1.000000 0.000000 0.000000
vn 1.000000 0.000000 0.000000
vn 1.000000 0.000000 0.000000
vn 1.000000 0.000000 0.000000
vn 1.000000 0.000000 0.000000
vn 1.000000 0.000000 0.000000
vn 1.000000 0.000000 0.000000
vn 1.000000 0.000000 0.000000
vn 1.000000 0.000000 0.000000
vn 1.000000 0.000000 0.000000
vn -1.000000 0.000000 0.000000
vn -1.000000 0.000000 0.000000
vn -1.000000 0.000000 0.000000
vn -1.000000 0.000000 0.000000
vn -1.000000 0.000000 0.000000
vn -1.000000 0.000000 0.000000
f 1/1/1 2/2/2 3/3/3 4/4/4
f 7/5/5 8/6/6 5/7/7 6/8/8
f 7/5/9 6/8/10 1/1/11 4/4/12
f 5/7/13 8/6/14 3/3/15 2/2/16
f 10/9/17 11/10/18 15/11/19 14/12/20
f 13/13/21 16/14/22 12/15/23 9/16/24
f 10/9/25 9/16/26 12/15/27 11/10/28
f 14/12/29 15/11/30 16/14/31 13/13/32
f 17/17/33 18/18/34 23/19/35 24/20/36
f 21/21/37 22/22/38 19/23/39 20/24/40
f 21/21/41 20/24/42 17/17/43 24/20/44
f 19/23/45 22/22/46 23/19/47 18/18/48
f 25/25/49 26/26/50 27/27/51 28/28/52
f 31/29/53 32/30/54 29/31/55 30/32/56
f 31/29/57 30/32/58 25/25/59 28/28/60
f 33/33/61 34/34/62 35/35/63 36/36/64
f 37/37/65 38/38/66 39/39/67 40/40/68
f 39/39/69 38/38/70 35/35/71 34/34/72
f 41/41/73 42/42/74 43/43/75 44/44/76
f 45/45/77 46/46/78 47/47/79 48/48/80
f 45/45/81 48/48/82 41/41/83 44/44/84
f 49/49/85 50/50/86 51/51/87 52/52/88
f 53/53/89 54/54/90 55/55/91 56/56/92
f 53/53/93 56/56/94 49/49/95 52/52/96
f 63/57/97 67/58/98 68/59/99 59/60/100
f 59/60/101 68/59/102 80/61/103 79/62/104
f 70/63/105 64/64/106 60/65/107 69/66/108
f 83/67/109 69/66/110 60/65/111 84/68/112
f 85/69/113 57/70/114 74/71/115 86/72/116
f 57/70/117 65/73/118 73/74/119 74/71/120
f 72/75/121 58/76/122 75/77/123 76/78/124
f 75/77/125 58/76/126 90/79/127 91/80/128
f 77/81/129 93/82/130 61/83/131 63/57/132
f 63/57/133 61/83/134 66/84/135 67/58/136
f 71/85/137 62/86/138 64/64/139 70/63/140
f 64/64/141 62/86/142 96/87/143 81/88/144
f 74/71/145 61/83/146 93/82/147 86/72/148
f 96/87/149 62/86/150 75/77/151 91/80/152
f 88/89/153 94/90/154 66/84/155 73/74/156
f 82/91/157 95/92/158 71/85/159 70/63/160
f 63/57/161 59/60/162 79/62/163 77/81/164
f 81/88/165 84/68/166 60/65/167 64/64/168
f 83/67/169 82/91/170 70/63/171 69/66/172
f 74/71/173 73/74/174 66/84/175 61/83/176
f 76/78/177 75/77/178 62/86/179 71/85/180
f 85/69/181 86/72/182 88/89/183 87/93/184
f 89/94/185 92/95/186 91/80/187 90/79/188
f 94/90/189 93/82/190 77/81/191 78/96/192
f 81/88/193 96/87/194 95/92/195 82/91/196
f 95/92/197 96/87/198 91/80/199 92/95/200
f 93/82/201 94/90/202 88/89/203 86/72/204
f 77/81/205 79/62/206 80/61/207 78/96/208
f 83/67/209 84/68/210 81/88/211 82/91/212
f 94/90/213 78/96/214 67/58/215 66/84/216
f 78/96/217 80/61/218 68/59/219 67/58/220
f 73/74/156 65/73/221 87/93/222 88/89/153
f 72/75/223 76/78/224 92/95/225 89/94/226
f 95/92/227 92/95/225 76/78/224 71/85/228
