# This file uses meters as units for non-parametric coordinates.

v 60.827084 137.260910 -13.712887
v 58.888817 139.199173 -13.712883
v 56.241100 139.908630 -13.712883
v 53.593384 139.199173 -13.712883
v 51.655121 137.260910 -13.712887
v 50.945663 134.613190 -13.712886
v 51.655121 131.965485 -13.712887
v 53.593384 130.027206 -13.712883
v 56.241100 129.317764 -13.712883
v 58.888817 130.027206 -13.712883
v 60.827084 131.965485 -13.712887
v 61.536537 134.613190 -13.712886
v 60.827084 137.260910 -2.945152
v 58.888817 139.199188 -2.945152
v 56.241100 139.908630 -2.945152
v 53.593384 139.199188 -2.945152
v 51.655121 137.260910 -2.945152
v 50.945663 134.613190 -2.945152
v 51.655121 131.965485 -2.945152
v 53.593384 130.027222 -2.945152
v 56.241100 129.317764 -2.945152
v 58.888817 130.027222 -2.945152
v 60.827084 131.965485 -2.945152
v 61.536537 134.613190 -2.945152
v 56.241100 134.613190 -13.712886
v 56.241100 134.613190 -2.945152
vt 0.686436 0.080488
vt 0.677101 0.071153
vt 0.664350 0.067736
vt 0.651598 0.071153
vt 0.642263 0.080488
vt 0.638847 0.093239
vt 0.642263 0.105991
vt 0.651598 0.115325
vt 0.664350 0.118742
vt 0.677101 0.115325
vt 0.686436 0.105991
vt 0.689852 0.093239
vt 0.715113 0.070215
vt 0.715113 0.074164
vt 0.715113 0.078113
vt 0.715113 0.082062
vt 0.715113 0.086012
vt 0.715113 0.089961
vt 0.715113 0.093910
vt 0.715113 0.097859
vt 0.715113 0.101808
vt 0.715113 0.105757
vt 0.715113 0.109706
vt 0.715113 0.113655
vt 0.715113 0.117604
vt 0.643851 0.070215
vt 0.643851 0.074164
vt 0.643851 0.078113
vt 0.643851 0.082062
vt 0.643852 0.086012
vt 0.643851 0.089961
vt 0.643851 0.093910
vt 0.643851 0.097859
vt 0.643851 0.101808
vt 0.643851 0.105757
vt 0.643851 0.109706
vt 0.643851 0.113655
vt 0.643851 0.117604
vt 0.693209 0.079636
vt 0.683669 0.070096
vt 0.670636 0.066604
vt 0.657604 0.070096
vt 0.648064 0.079636
vt 0.644572 0.092668
vt 0.648064 0.105701
vt 0.657604 0.115241
vt 0.670636 0.118733
vt 0.683669 0.115241
vt 0.693209 0.105701
vt 0.696701 0.092668
vt 0.664350 0.092219
vt 0.670636 0.091626
vn 0.866026 0.499999 0.000000
vn 0.500001 0.866025 -0.000001
vn 0.500000 0.866025 -0.000001
vn 0.866026 0.499999 0.000000
vn -0.000000 1.000000 -0.000002
vn -0.000000 1.000000 -0.000002
vn -0.500001 0.866025 -0.000001
vn -0.500000 0.866025 -0.000001
vn -0.866026 0.499999 0.000000
vn -0.866026 0.499999 0.000000
vn -1.000000 -0.000000 0.000000
vn -1.000000 -0.000000 0.000000
vn -0.866025 -0.500000 0.000001
vn -0.866025 -0.500000 0.000001
vn -0.500000 -0.866025 0.000001
vn -0.500001 -0.866025 0.000001
vn -0.000000 -1.000000 0.000000
vn -0.000000 -1.000000 0.000000
vn 0.500000 -0.866025 0.000001
vn 0.500001 -0.866025 0.000001
vn 0.866025 -0.500000 0.000001
vn 0.866025 -0.500000 0.000001
vn 1.000000 0.000000 0.000000
vn 1.000000 0.000000 0.000000
vn 0.000000 0.000001 -1.000000
vn 0.000000 0.000000 -1.000000
vn 0.000000 -0.000000 -1.000000
vn 0.000000 0.000001 -1.000000
vn 0.000000 0.000001 -1.000000
vn 0.000000 0.000000 -1.000000
vn 0.000000 -0.000000 -1.000000
vn 0.000000 -0.000000 -1.000000
vn 0.000000 -0.000001 -1.000000
vn 0.000000 -0.000001 -1.000000
vn 0.000000 -0.000001 -1.000000
vn 0.000000 -0.000000 -1.000000
vn 0.000000 -0.000000 -1.000000
vn 0.000000 0.000000 1.000000
vn 0.000000 0.000000 1.000000
vn 0.000000 0.000000 1.000000
vn 0.000000 0.000000 1.000000
vn 0.000000 0.000000 1.000000
vn 0.000000 0.000000 1.000000
vn 0.000000 0.000000 1.000000
vn -0.000000 -0.000000 1.000000
vn -0.000000 -0.000000 1.000000
vn 0.000000 -0.000000 1.000000
vn 0.000000 -0.000000 1.000000
vn 0.000000 -0.000000 1.000000
vn 0.000000 0.000000 1.000000
f 1/13/1 2/14/2 14/27/3 13/26/4
f 2/14/2 3/15/5 15/28/6 14/27/3
f 3/15/5 4/16/7 16/29/8 15/28/6
f 4/16/7 5/17/9 17/30/10 16/29/8
f 5/17/9 6/18/11 18/31/12 17/30/10
f 6/18/11 7/19/13 19/32/14 18/31/12
f 7/19/13 8/20/15 20/33/16 19/32/14
f 8/20/15 9/21/17 21/34/18 20/33/16
f 9/21/17 10/22/19 22/35/20 21/34/18
f 10/22/19 11/23/21 23/36/22 22/35/20
f 11/23/21 12/24/23 24/37/24 23/36/22
f 12/24/23 1/25/1 13/38/4 24/37/24
f 2/2/25 1/1/26 25/51/27
f 3/3/28 2/2/25 25/51/27
f 4/4/29 3/3/28 25/51/27
f 5/5/30 4/4/29 25/51/27
f 6/6/31 5/5/30 25/51/27
f 7/7/32 6/6/31 25/51/27
f 8/8/33 7/7/32 25/51/27
f 9/9/34 8/8/33 25/51/27
f 10/10/35 9/9/34 25/51/27
f 11/11/36 10/10/35 25/51/27
f 12/12/37 11/11/36 25/51/27
f 1/1/26 12/12/37 25/51/27
f 13/49/38 14/48/39 26/52/40
f 14/48/39 15/47/41 26/52/40
f 15/47/41 16/46/42 26/52/40
f 16/46/42 17/45/43 26/52/40
f 17/45/43 18/44/44 26/52/40
f 18/44/44 19/43/45 26/52/40
f 19/43/45 20/42/46 26/52/40
f 20/42/46 21/41/47 26/52/40
f 21/41/47 22/40/48 26/52/40
f 22/40/48 23/39/49 26/52/40
f 23/39/49 24/50/50 26/52/40
f 24/50/50 13/49/38 26/52/40
