# This file uses meters as units for non-parametric coordinates.

v -43.720860 164.679123 -3.015679
v 43.720860 164.679123 -3.015679
v 43.720860 164.679123 -12.847653
v -43.720860 164.679123 -12.847653
v -43.720860 131.794846 -12.847653
v 43.720860 131.794846 -12.847653
v 43.720860 131.794846 -3.015679
v -43.720860 131.794846 -3.015679
v -43.720860 312.301392 -3.015679
v -43.720860 335.699280 -3.015679
v 43.720860 335.699280 -3.015679
v 43.720860 312.301392 -3.015679
v -43.720860 312.301392 -12.847653
v -43.720860 335.699280 -12.847653
v 43.720860 335.699280 -12.847653
v 43.720860 312.301392 -12.847653
v -43.720860 26.382904 -3.015679
v -43.720860 0.000000 -3.015679
v 43.720860 0.000000 -3.015679
v 43.720860 26.382904 -3.015679
v -43.720860 0.000000 -12.847653
v -43.720860 26.382904 -12.847653
v 43.720860 26.382904 -12.847653
v 43.720860 0.000000 -12.847653
v -65.904900 0.000000 -1.858817
v 65.904900 0.000000 -3.015679
v -65.904900 335.699280 -1.858817
v 65.904900 335.699280 -3.015679
v -65.904900 152.798721 -1.858817
v 65.904900 152.798721 -3.015679
v -65.904900 251.774460 -1.858817
v 65.904900 251.774460 -3.015679
v -43.720860 0.000000 -1.858817
v -43.720860 152.798721 -1.858817
v -43.720860 251.774460 -1.858817
v -43.720860 335.699280 -1.858817
v 43.720860 335.699280 -1.858817
v 43.720860 251.774460 -1.858817
v 43.720860 152.798721 -1.858817
v 43.720860 0.000000 -1.858817
v -43.720860 50.684284 -1.858817
v -65.904900 50.684284 -1.858817
v 65.904900 50.684284 -3.015679
v 43.720860 50.684284 -1.858817
v -65.904900 251.774460 -14.004514
v -43.720860 251.774460 -14.004514
v -65.904900 335.699280 -14.004514
v -43.720860 335.699280 -14.004514
v 65.904900 251.774460 -14.004514
v 43.720860 251.774460 -14.004514
v 43.720860 335.699280 -14.004514
v 65.904900 335.699280 -14.004514
v -65.904900 0.000000 -14.004514
v -65.904900 50.684284 -14.004514
v -43.720860 -0.000000 -14.004514
v -43.720860 50.684284 -14.004514
v 43.720860 -0.000000 -14.004514
v 65.904900 0.000000 -14.004514
v 65.904900 50.684284 -14.004514
v 43.720860 50.684284 -14.004514
v -65.904900 152.798721 -14.004514
v -43.720860 152.798721 -14.004514
v 43.720860 152.798721 -14.004514
v 65.904900 152.798721 -14.004514
v -43.720860 80.824600 -3.015679
v 43.720860 80.824600 -3.015679
v 43.720860 80.824600 -12.847653
v -43.720860 80.824600 -12.847653
v -43.720860 78.764977 -12.847653
v 43.720860 78.764977 -12.847653
v 43.720860 78.764977 -3.015679
v -43.720860 78.764977 -3.015679
v -1.029812 25.172028 -3.778617
v -1.029812 313.501587 -3.778617
v -1.029812 313.501587 -12.084715
v -1.029812 25.172028 -12.084715
v 1.029810 25.172028 -12.084715
v 1.029810 313.501587 -12.084715
v 1.029810 313.501587 -3.778617
v 1.029810 25.172028 -3.778617
v -43.720860 215.150101 -3.015679
v 43.720860 215.150101 -3.015679
v 43.720860 215.150101 -12.847653
v -43.720860 215.150101 -12.847653
v -43.720860 213.090469 -12.847653
v 43.720860 213.090469 -12.847653
v 43.720860 213.090469 -3.015679
v -43.720860 213.090469 -3.015679
v -43.720860 265.386108 -3.015679
v 43.720860 265.386108 -3.015679
v 43.720860 265.386108 -12.847653
v -43.720860 265.386108 -12.847653
v -43.720860 263.326477 -12.847653
v 43.720860 263.326477 -12.847653
v 43.720860 263.326477 -3.015679
v -43.720860 263.326477 -3.015679
vt 0.636345 0.119501
vt 0.735157 0.119501
vt 0.735118 0.119501
vt 0.636306 0.119501
vt 0.629492 0.066393
vt 0.741932 0.066393
vt 0.735157 0.069819
vt 0.636345 0.069819
vt 0.636345 0.119501
vt 0.735157 0.119501
vt 0.735118 0.119501
vt 0.636306 0.119501
vt 0.629492 0.066393
vt 0.741932 0.066393
vt 0.735157 0.069819
vt 0.636345 0.069819
vt 0.636345 0.119501
vt 0.636345 0.069819
vt 0.735157 0.069819
vt 0.735157 0.119501
vt 0.741932 0.122927
vt 0.741932 0.066393
vt 0.629492 0.066393
vt 0.629492 0.122927
vt 0.634423 0.114417
vt 0.634423 0.098291
vt 0.730352 0.098261
vt 0.730352 0.114372
vt 0.730352 0.098261
vt 0.730352 0.114372
vt 0.634423 0.098174
vt 0.634423 0.114241
vt 0.730352 0.114196
vt 0.730352 0.098144
vt 0.730352 0.098144
vt 0.730352 0.114196
vt 0.735041 0.114553
vt 0.735041 0.114553
vt 0.664962 0.114541
vt 0.664962 0.114541
vt 0.735041 0.098381
vt 0.664962 0.098373
vt 0.735041 0.098264
vt 0.735041 0.114377
vt 0.664962 0.114365
vt 0.664962 0.098256
vt 0.735041 0.114377
vt 0.664962 0.114365
vt 0.634423 0.114417
vt 0.729884 0.114462
vt 0.729884 0.114462
vt 0.729884 0.098321
vt 0.729884 0.098204
vt 0.729884 0.114287
vt 0.729884 0.114287
vt 0.634423 0.114241
vt 0.664962 0.098373
vt 0.729884 0.098321
vt 0.634423 0.098174
vt 0.729884 0.098204
vt 0.735041 0.098381
vt 0.735041 0.098264
vt 0.664962 0.098256
vt 0.634423 0.098291
vt 0.636345 0.119501
vt 0.735157 0.119501
vt 0.735118 0.119501
vt 0.636306 0.119501
vt 0.629492 0.066393
vt 0.741932 0.066393
vt 0.735157 0.069819
vt 0.636345 0.069819
vt 0.636345 0.119501
vt 0.735157 0.119501
vt 0.735118 0.119501
vt 0.636306 0.119501
vt 0.629492 0.066393
vt 0.741932 0.066393
vt 0.735157 0.069819
vt 0.636345 0.069819
vt 0.636345 0.119501
vt 0.735157 0.119501
vt 0.735118 0.119501
vt 0.636306 0.119501
vt 0.629492 0.066393
vt 0.741932 0.066393
vt 0.735157 0.069819
vt 0.636345 0.069819
vt 0.636345 0.119501
vt 0.735157 0.119501
vt 0.735118 0.119501
vt 0.636306 0.119501
vt 0.629492 0.066393
vt 0.741932 0.066393
vt 0.735157 0.069819
vt 0.636345 0.069819
vn 0.000000 1.000000 0.000000
vn 0.000000 1.000000 0.000000
vn 0.000000 1.000000 0.000000
vn 0.000000 1.000000 0.000000
vn 0.000000 -1.000000 0.000000
vn 0.000000 -1.000000 0.000000
vn 0.000000 -1.000000 0.000000
vn 0.000000 -1.000000 0.000000
vn 0.000000 0.000000 1.000000
vn 0.000000 0.000000 1.000000
vn 0.000000 0.000000 1.000000
vn 0.000000 0.000000 1.000000
vn 0.000000 0.000000 -1.000000
vn 0.000000 0.000000 -1.000000
vn 0.000000 0.000000 -1.000000
vn 0.000000 0.000000 -1.000000
vn 0.000000 1.000000 0.000000
vn 0.000000 1.000000 0.000000
vn 0.000000 1.000000 0.000000
vn 0.000000 1.000000 0.000000
vn 0.000000 -1.000000 0.000000
vn 0.000000 -1.000000 0.000000
vn 0.000000 -1.000000 0.000000
vn 0.000000 -1.000000 0.000000
vn 0.000000 0.000000 1.000000
vn 0.000000 0.000000 1.000000
vn 0.000000 0.000000 1.000000
vn 0.000000 0.000000 1.000000
vn 0.000000 0.000000 -1.000000
vn 0.000000 0.000000 -1.000000
vn 0.000000 0.000000 -1.000000
vn 0.000000 0.000000 -1.000000
vn 0.000000 0.000000 1.000000
vn 0.000000 0.000000 1.000000
vn 0.000000 0.000000 1.000000
vn 0.000000 0.000000 1.000000
vn 0.000000 0.000000 -1.000000
vn 0.000000 0.000000 -1.000000
vn 0.000000 0.000000 -1.000000
vn 0.000000 0.000000 -1.000000
vn 0.000000 1.000000 0.000000
vn 0.000000 1.000000 0.000000
vn 0.000000 1.000000 0.000000
vn 0.000000 1.000000 0.000000
vn 0.000000 0.000000 1.000000
vn 0.000000 0.000000 1.000000
vn 0.000000 0.000000 1.000000
vn 0.000000 0.000000 1.000000
vn 0.000000 1.000000 0.000000
vn 0.000000 1.000000 0.000000
vn 0.000000 1.000000 0.000000
vn 0.000000 1.000000 0.000000
vn 0.052078 0.000000 0.998643
vn 0.052078 0.000000 0.998643
vn 0.052078 0.000000 0.998643
vn 0.052078 0.000000 0.998643
vn 0.000000 1.000000 0.000000
vn 0.000000 1.000000 0.000000
vn 0.000000 1.000000 0.000000
vn 0.000000 1.000000 0.000000
vn -1.000000 0.000000 0.000000
vn -1.000000 0.000000 0.000000
vn -1.000000 0.000000 0.000000
vn -1.000000 0.000000 0.000000
vn 0.000000 0.000000 1.000000
vn 0.000000 0.000000 1.000000
vn 0.000000 0.000000 1.000000
vn 0.000000 0.000000 1.000000
vn 0.052078 0.000000 0.998643
vn 0.052078 0.000000 0.998643
vn 0.052078 0.000000 0.998643
vn 0.052078 0.000000 0.998643
vn 1.000000 0.000000 0.000000
vn 1.000000 0.000000 0.000000
vn 1.000000 0.000000 0.000000
vn 1.000000 0.000000 0.000000
vn -1.000000 0.000000 0.000000
vn -1.000000 0.000000 0.000000
vn -1.000000 0.000000 0.000000
vn -1.000000 0.000000 0.000000
vn 0.000000 0.000000 1.000000
vn 0.000000 0.000000 1.000000
vn 0.000000 0.000000 1.000000
vn 0.000000 0.000000 1.000000
vn 0.052078 0.000000 0.998643
vn 0.052078 0.000000 0.998643
vn 0.052078 0.000000 0.998643
vn 0.052078 0.000000 0.998643
vn 1.000000 0.000000 0.000000
vn 1.000000 0.000000 0.000000
vn 1.000000 0.000000 0.000000
vn 1.000000 0.000000 0.000000
vn -1.000000 0.000000 0.000000
vn -1.000000 0.000000 0.000000
vn -1.000000 0.000000 0.000000
vn -1.000000 0.000000 0.000000
vn 1.000000 0.000000 0.000000
vn 1.000000 0.000000 0.000000
vn 1.000000 0.000000 0.000000
vn 1.000000 0.000000 0.000000
vn 1.000000 0.000000 0.000000
vn 1.000000 0.000000 0.000000
vn 1.000000 0.000000 0.000000
vn 1.000000 0.000000 0.000000
vn -1.000000 0.000000 0.000000
vn -1.000000 0.000000 0.000000
vn -1.000000 0.000000 0.000000
vn -1.000000 0.000000 0.000000
vn -1.000000 0.000000 0.000000
vn -1.000000 0.000000 0.000000
vn -1.000000 0.000000 0.000000
vn -1.000000 0.000000 0.000000
vn 1.000000 0.000000 0.000000
vn 1.000000 0.000000 0.000000
vn 1.000000 0.000000 0.000000
vn 1.000000 0.000000 0.000000
vn -1.000000 0.000000 0.000000
vn -1.000000 0.000000 0.000000
vn -1.000000 0.000000 0.000000
vn -1.000000 0.000000 0.000000
vn 0.000000 0.000000 1.000000
vn 0.000000 0.000000 1.000000
vn 0.000000 0.000000 1.000000
vn 0.000000 0.000000 1.000000
vn 0.052078 0.000000 0.998643
vn 0.052078 0.000000 0.998643
vn 0.052078 0.000000 0.998643
vn 0.052078 0.000000 0.998643
vn 0.000000 0.000000 -1.000000
vn 0.000000 0.000000 -1.000000
vn 0.000000 0.000000 -1.000000
vn 0.000000 0.000000 -1.000000
vn -0.000000 0.000000 -1.000000
vn -0.000000 0.000000 -1.000000
vn -0.000000 0.000000 -1.000000
vn -0.000000 0.000000 -1.000000
vn 0.000000 0.000000 -1.000000
vn 0.000000 0.000000 -1.000000
vn 0.000000 0.000000 -1.000000
vn 0.000000 0.000000 -1.000000
vn 0.000000 0.000000 -1.000000
vn 0.000000 0.000000 -1.000000
vn 0.000000 0.000000 -1.000000
vn 0.000000 0.000000 -1.000000
vn 0.000000 0.000000 -1.000000
vn 0.000000 0.000000 -1.000000
vn 0.000000 0.000000 -1.000000
vn 0.000000 0.000000 -1.000000
vn 0.000000 0.000000 -1.000000
vn 0.000000 0.000000 -1.000000
vn 0.000000 0.000000 -1.000000
vn 0.000000 0.000000 -1.000000
vn 0.000000 0.000000 -1.000000
vn 0.000000 0.000000 -1.000000
vn 0.000000 0.000000 -1.000000
vn 0.000000 0.000000 -1.000000
vn 0.000000 0.000000 -1.000000
vn 0.000000 0.000000 -1.000000
vn 0.000000 0.000000 -1.000000
vn 0.000000 0.000000 -1.000000
vn 1.000000 0.000000 0.000000
vn 1.000000 0.000000 0.000000
vn 1.000000 0.000000 0.000000
vn 1.000000 0.000000 0.000000
vn 1.000000 0.000000 0.000000
vn 1.000000 0.000000 0.000000
vn 1.000000 0.000000 0.000000
vn 1.000000 0.000000 0.000000
vn 1.000000 0.000000 0.000000
vn 1.000000 0.000000 0.000000
vn -1.000000 0.000000 0.000000
vn -1.000000 0.000000 0.000000
vn -1.000000 0.000000 0.000000
vn -1.000000 0.000000 0.000000
vn -1.000000 0.000000 0.000000
vn -1.000000 0.000000 0.000000
vn 0.000000 1.000000 0.000000
vn 0.000000 1.000000 0.000000
vn 0.000000 1.000000 0.000000
vn 0.000000 1.000000 0.000000
vn 0.000000 -1.000000 0.000000
vn 0.000000 -1.000000 0.000000
vn 0.000000 -1.000000 0.000000
vn 0.000000 -1.000000 0.000000
vn 0.000000 0.000000 1.000000
vn 0.000000 0.000000 1.000000
vn 0.000000 0.000000 1.000000
vn 0.000000 0.000000 1.000000
vn 0.000000 0.000000 -1.000000
vn 0.000000 0.000000 -1.000000
vn 0.000000 0.000000 -1.000000
vn 0.000000 0.000000 -1.000000
vn -1.000000 0.000000 0.000000
vn -1.000000 0.000000 0.000000
vn -1.000000 0.000000 0.000000
vn -1.000000 0.000000 0.000000
vn 1.000000 0.000000 0.000000
vn 1.000000 0.000000 0.000000
vn 1.000000 0.000000 0.000000
vn 1.000000 0.000000 0.000000
vn 0.000000 0.000000 1.000000
vn 0.000000 0.000000 1.000000
vn 0.000000 0.000000 1.000000
vn 0.000000 0.000000 1.000000
vn 0.000000 0.000000 -1.000000
vn 0.000000 0.000000 -1.000000
vn 0.000000 0.000000 -1.000000
vn 0.000000 0.000000 -1.000000
vn 0.000000 1.000000 0.000000
vn 0.000000 1.000000 0.000000
vn 0.000000 1.000000 0.000000
vn 0.000000 1.000000 0.000000
vn 0.000000 -1.000000 0.000000
vn 0.000000 -1.000000 0.000000
vn 0.000000 -1.000000 0.000000
vn 0.000000 -1.000000 0.000000
vn 0.000000 0.000000 1.000000
vn 0.000000 0.000000 1.000000
vn 0.000000 0.000000 1.000000
vn 0.000000 0.000000 1.000000
vn 0.000000 0.000000 -1.000000
vn 0.000000 0.000000 -1.000000
vn 0.000000 0.000000 -1.000000
vn 0.000000 0.000000 -1.000000
vn 0.000000 1.000000 0.000000
vn 0.000000 1.000000 0.000000
vn 0.000000 1.000000 0.000000
vn 0.000000 1.000000 0.000000
vn 0.000000 -1.000000 0.000000
vn 0.000000 -1.000000 0.000000
vn 0.000000 -1.000000 0.000000
vn 0.000000 -1.000000 0.000000
vn 0.000000 0.000000 1.000000
vn 0.000000 0.000000 1.000000
vn 0.000000 0.000000 1.000000
vn 0.000000 0.000000 1.000000
vn 0.000000 0.000000 -1.000000
vn 0.000000 0.000000 -1.000000
vn 0.000000 0.000000 -1.000000
vn 0.000000 0.000000 -1.000000
f 1/1/1 2/2/2 3/3/3 4/4/4
f 5/5/5 6/6/6 7/7/7 8/8/8
f 1/1/9 8/8/10 7/7/11 2/2/12
f 4/4/13 3/3/14 6/6/15 5/5/16
f 10/9/17 11/10/18 15/11/19 14/12/20
f 13/13/21 16/14/22 12/15/23 9/16/24
f 10/9/25 9/16/26 12/15/27 11/10/28
f 14/12/29 15/11/30 16/14/31 13/13/32
f 17/17/33 18/18/34 19/19/35 20/20/36
f 23/21/37 24/22/38 21/23/39 22/24/40
f 23/21/41 22/24/42 17/17/43 20/20/44
f 31/25/45 35/26/46 36/27/47 27/28/48
f 27/28/49 36/27/50 48/29/51 47/30/52
f 38/31/53 32/32/54 28/33/55 37/34/56
f 51/35/57 37/34/58 28/33/59 52/36/60
f 53/37/61 25/38/62 42/39/63 54/40/64
f 25/38/65 33/41/66 41/42/67 42/39/68
f 40/43/69 26/44/70 43/45/71 44/46/72
f 43/45/73 26/44/74 58/47/75 59/48/76
f 45/49/77 61/50/78 29/51/79 31/25/80
f 31/25/81 29/51/82 34/52/83 35/26/84
f 39/53/85 30/54/86 32/32/87 38/31/88
f 32/32/89 30/54/90 64/55/91 49/56/92
f 42/39/93 29/51/94 61/50/95 54/40/96
f 64/55/97 30/54/98 43/45/99 59/48/100
f 56/57/101 62/58/102 34/52/103 41/42/104
f 50/59/105 63/60/106 39/53/107 38/31/108
f 31/25/109 27/28/110 47/30/111 45/49/112
f 49/56/113 52/36/114 28/33/115 32/32/116
f 51/35/117 50/59/118 38/31/119 37/34/120
f 42/39/121 41/42/122 34/52/123 29/51/124
f 44/46/125 43/45/126 30/54/127 39/53/128
f 53/37/129 54/40/130 56/57/131 55/61/132
f 57/62/133 60/63/134 59/48/135 58/47/136
f 62/58/137 61/50/138 45/49/139 46/64/140
f 49/56/141 64/55/142 63/60/143 50/59/144
f 63/60/145 64/55/146 59/48/147 60/63/148
f 61/50/149 62/58/150 56/57/151 54/40/152
f 45/49/153 47/30/154 48/29/155 46/64/156
f 51/35/157 52/36/158 49/56/159 50/59/160
f 62/58/161 46/64/162 35/26/163 34/52/164
f 46/64/165 48/29/166 36/27/167 35/26/168
f 41/42/104 33/41/169 55/61/170 56/57/101
f 40/43/171 44/46/172 60/63/173 57/62/174
f 63/60/175 60/63/173 44/46/172 39/53/176
f 65/65/177 66/66/178 67/67/179 68/68/180
f 69/69/181 70/70/182 71/71/183 72/72/184
f 65/65/185 72/72/186 71/71/187 66/66/188
f 68/68/189 67/67/190 70/70/191 69/69/192
f 73/73/193 74/74/194 75/75/195 76/76/196
f 77/77/197 78/78/198 79/79/199 80/80/200
f 73/73/201 80/80/202 79/79/203 74/74/204
f 76/76/205 75/75/206 78/78/207 77/77/208
f 81/81/209 82/82/210 83/83/211 84/84/212
f 85/85/213 86/86/214 87/87/215 88/88/216
f 81/81/217 88/88/218 87/87/219 82/82/220
f 84/84/221 83/83/222 86/86/223 85/85/224
f 89/89/225 90/90/226 91/91/227 92/92/228
f 93/93/229 94/94/230 95/95/231 96/96/232
f 89/89/233 96/96/234 95/95/235 90/90/236
f 92/92/237 91/91/238 94/94/239 93/93/240
