# This file uses meters as units for non-parametric coordinates.

v 60.647495 123.026176 1.682533
v 63.352505 123.026176 1.682533
v 60.647495 125.747551 1.682533
v 63.352505 125.747551 1.682533
v 60.647495 125.747551 -3.165919
v 63.352505 125.747551 -3.165919
v 60.647495 123.026176 -3.165919
v 63.352505 123.026176 -3.165919
v 60.647495 147.314301 1.682533
v 63.352505 147.314301 1.682533
v 60.647495 150.035675 1.682533
v 63.352505 150.035675 1.682533
v 60.647495 150.035675 -3.165919
v 63.352505 150.035675 -3.165919
v 60.647495 147.314301 -3.165919
v 63.352505 147.314301 -3.165919
v 60.107849 119.195724 4.517180
v 63.892151 119.195724 4.517180
v 60.107849 154.701630 4.517180
v 63.892151 154.701630 4.517180
v 60.107849 154.701630 1.115239
v 63.892151 154.701630 1.115239
v 60.107849 119.195724 1.115239
v 63.892151 119.195724 1.115239
vt 0.739994 0.144574
vt 0.739994 0.178730
vt 0.636214 0.144574
vt 0.636214 0.178730
vt 0.739994 0.144574
vt 0.739994 0.178730
vt 0.636214 0.144574
vt 0.636214 0.178730
vt 0.739994 0.144574
vt 0.739994 0.178730
vt 0.739994 0.144574
vt 0.636214 0.144574
vt 0.739994 0.178730
vt 0.636214 0.178730
vt 0.636214 0.144574
vt 0.636214 0.178730
vt 0.739994 0.178730
vt 0.739994 0.144574
vt 0.636214 0.144574
vt 0.636214 0.178730
vt 0.739994 0.178730
vt 0.739994 0.144574
vt 0.739994 0.178730
vt 0.739994 0.144574
vt 0.636214 0.144574
vt 0.739994 0.178730
vt 0.739994 0.144574
vt 0.636214 0.178730
vt 0.739994 0.144574
vt 0.739994 0.178730
vt 0.636214 0.178730
vt 0.636214 0.144574
vt 0.739994 0.178730
vt 0.739994 0.144574
vt 0.636214 0.178730
vt 0.636214 0.144574
vt 0.739994 0.178730
vt 0.739994 0.144574
vt 0.739994 0.144574
vt 0.636214 0.144574
vt 0.739994 0.178730
vt 0.636214 0.178730
vn 0.000000 1.000000 0.000000
vn 0.000000 1.000000 0.000000
vn 0.000000 1.000000 0.000000
vn 0.000000 1.000000 0.000000
vn 0.000000 -1.000000 0.000000
vn 0.000000 -1.000000 0.000000
vn 0.000000 -1.000000 0.000000
vn 0.000000 -1.000000 0.000000
vn 1.000000 0.000000 0.000000
vn 1.000000 0.000000 0.000000
vn 1.000000 0.000000 0.000000
vn 1.000000 0.000000 0.000000
vn -1.000000 0.000000 0.000000
vn -1.000000 0.000000 0.000000
vn -1.000000 0.000000 0.000000
vn -1.000000 0.000000 0.000000
vn 0.000000 1.000000 0.000000
vn 0.000000 1.000000 0.000000
vn 0.000000 1.000000 0.000000
vn 0.000000 1.000000 0.000000
vn 0.000000 -1.000000 0.000000
vn 0.000000 -1.000000 0.000000
vn 0.000000 -1.000000 0.000000
vn 0.000000 -1.000000 0.000000
vn 1.000000 0.000000 0.000000
vn 1.000000 0.000000 0.000000
vn 1.000000 0.000000 0.000000
vn 1.000000 0.000000 0.000000
vn -1.000000 0.000000 0.000000
vn -1.000000 0.000000 0.000000
vn -1.000000 0.000000 0.000000
vn -1.000000 0.000000 0.000000
vn 0.000000 0.000000 1.000000
vn 0.000000 0.000000 1.000000
vn 0.000000 0.000000 1.000000
vn 0.000000 0.000000 1.000000
vn 0.000000 1.000000 0.000000
vn 0.000000 1.000000 0.000000
vn 0.000000 1.000000 0.000000
vn 0.000000 1.000000 0.000000
vn 0.000000 0.000000 -1.000000
vn 0.000000 0.000000 -1.000000
vn 0.000000 0.000000 -1.000000
vn 0.000000 0.000000 -1.000000
vn 0.000000 -1.000000 0.000000
vn 0.000000 -1.000000 0.000000
vn 0.000000 -1.000000 0.000000
vn 0.000000 -1.000000 0.000000
vn 1.000000 0.000000 0.000000
vn 1.000000 0.000000 0.000000
vn 1.000000 0.000000 0.000000
vn 1.000000 0.000000 0.000000
vn -1.000000 0.000000 0.000000
vn -1.000000 0.000000 0.000000
vn -1.000000 0.000000 0.000000
vn -1.000000 0.000000 0.000000
f 3/3/1 4/4/2 6/6/3 5/5/4
f 7/7/5 8/8/6 2/10/7 1/9/8
f 2/2/9 8/11/10 6/12/11 4/4/12
f 7/13/13 1/1/14 3/3/15 5/14/16
f 11/15/17 12/16/18 14/17/19 13/18/20
f 15/19/21 16/20/22 10/21/23 9/22/24
f 10/23/25 16/24/26 14/25/27 12/16/28
f 15/26/29 9/27/30 11/15/31 13/28/32
f 17/29/33 18/30/34 20/31/35 19/32/36
f 19/32/37 20/31/38 22/33/39 21/34/40
f 21/34/41 22/33/42 24/35/43 23/36/44
f 23/36/45 24/35/46 18/37/47 17/38/48
f 18/30/49 24/39/50 22/40/51 20/31/52
f 23/41/53 17/29/54 19/32/55 21/42/56
