# This file uses meters as units for non-parametric coordinates.

v 0.000000 0.000000 -1.858817
v 0.000000 0.000000 -14.004515
v 0.000000 71.858780 -14.004515
v -0.000000 71.858780 -1.858817
v -0.000000 71.858780 -7.931666
v -41.408352 71.858780 -1.858809
v -41.408352 -0.000000 -1.858809
v -41.408352 -0.000000 -14.004508
v -41.408352 71.858780 -14.004508
v 41.408352 71.858780 -14.004508
v 41.408352 0.000000 -14.004508
v 41.408352 -0.000000 -1.858809
v 41.408352 71.858780 -1.858809
v 41.408352 71.858780 -7.931666
v -41.408352 71.858780 -7.931666
v 0.000000 146.868439 -1.858817
v 0.000000 146.868439 -14.004515
v 0.000000 188.830841 -1.858817
v 0.000000 188.830841 -14.004515
v 0.000000 146.868439 -7.931666
v -41.408352 188.830841 -1.858809
v -41.408352 146.868439 -1.858809
v -41.408352 146.868439 -14.004508
v -41.408352 188.830841 -14.004508
v 41.408352 188.830841 -14.004508
v 41.408352 146.868439 -14.004508
v 41.408352 146.868439 -1.858809
v 41.408352 188.830841 -1.858809
v -41.408352 146.868439 -7.931666
v 41.408352 146.868439 -7.931666
v -0.000000 335.699280 -1.858817
v 0.000000 335.699280 -7.931665
v 0.000000 335.699280 -14.004515
v 0.000000 263.840515 -1.858817
v 0.000000 263.840515 -14.004515
v -41.408352 335.699280 -1.858809
v -41.408352 263.840515 -1.858809
v -41.408352 335.699280 -7.931665
v -41.408352 335.699280 -14.004508
v -41.408352 263.840515 -14.004508
v 41.408352 335.699280 -14.004508
v 41.408352 263.840515 -14.004503
v 41.408352 335.699280 -7.931665
v 41.408352 335.699280 -1.858809
v 41.408352 263.840515 -1.858809
v -65.904900 0.000000 -1.858809
v 65.904900 0.000000 -1.858809
v -65.904900 335.699280 -1.858809
v 65.904900 335.699280 -1.858809
v -65.904900 335.699280 -14.004508
v 65.904900 335.699280 -14.004508
v -65.904900 0.000000 -14.004508
v 65.904900 0.000000 -14.004508
v -65.904900 335.699280 -7.931665
v -65.904900 0.000000 -7.931665
v 65.904900 0.000000 -7.931665
v 65.904900 335.699280 -7.931665
v -65.904900 263.840515 -14.004508
v -65.904900 263.840515 -7.931658
v -65.904900 263.840515 -1.858809
v 65.904900 263.840515 -1.858809
v 65.904900 263.840515 -7.931665
v 65.904900 263.840515 -14.004508
v -65.904900 71.858780 -1.858809
v -65.904900 71.858780 -7.931665
v -65.904900 71.858780 -14.004508
v 65.904900 71.858780 -14.004508
v 65.904900 71.858780 -7.931665
v 65.904900 71.858780 -1.858809
v -65.904900 146.868439 -1.858809
v -65.904900 146.868439 -7.931665
v -65.904900 146.868439 -14.004508
v 65.904900 146.868439 -14.004508
v 65.904900 146.868439 -7.931665
v 65.904900 146.868439 -1.858809
v -65.904900 188.830841 -1.858809
v -65.904900 188.830841 -7.931658
v -65.904900 188.830841 -14.004508
v 65.904900 188.830841 -14.004508
v 65.904900 188.830841 -7.931665
v 65.904900 188.830841 -1.858809
v -41.408352 263.840515 -0.208920
v -41.408352 335.699280 -0.208920
v -41.408352 -0.000000 -0.208920
v -41.408352 71.858780 -0.208920
v -41.408352 188.830841 -0.208920
v -41.408352 146.868439 -0.208920
v -41.408352 335.699280 -15.654412
v -41.408352 263.840515 -15.654412
v -41.408352 71.858780 -15.654412
v -41.408352 -0.000000 -15.654412
v -41.408352 188.830841 -15.654412
v -41.408352 146.868439 -15.654412
v 41.408352 263.840515 -0.208920
v 41.408352 335.699280 -0.208920
v 41.408352 -0.000000 -0.208920
v 41.408352 71.858780 -0.208920
v 41.408352 188.830841 -0.208920
v 41.408352 146.868439 -0.208920
v 41.408352 263.840515 -15.654412
v 41.408352 335.699280 -15.654412
v 41.408352 -0.000000 -15.654412
v 41.408352 71.858780 -15.654412
v 41.408352 146.868439 -15.654412
v 41.408352 188.830841 -15.654412
vt 0.526894 0.120303
vt 0.598703 0.120303
vt 0.598703 0.068614
vt 0.526961 0.068614
vt 0.519138 0.119369
vt 0.520032 0.069362
vt 0.598703 0.069362
vt 0.598703 0.119369
vt 0.520321 0.069362
vt 0.519430 0.119370
vt 0.527157 0.120303
vt 0.527224 0.068614
vt 0.532572 0.073269
vt 0.597711 0.073269
vt 0.532361 0.073269
vt 0.519638 0.083283
vt 0.597229 0.083283
vt 0.597229 0.119474
vt 0.519638 0.119474
vt 0.597229 0.111345
vt 0.597229 0.083257
vt 0.519638 0.083257
vt 0.519638 0.111345
vt 0.597229 0.083257
vt 0.597229 0.111345
vt 0.597229 0.119474
vt 0.597229 0.083283
vt 0.519638 0.072807
vt 0.597229 0.072807
vt 0.597229 0.072807
vt 0.597229 0.115410
vt 0.519638 0.115410
vt 0.597229 0.115410
vt 0.527165 0.117946
vt 0.527097 0.069733
vt 0.598703 0.069734
vt 0.598703 0.117947
vt 0.524656 0.122259
vt 0.598703 0.122259
vt 0.522716 0.118287
vt 0.598703 0.118287
vt 0.521822 0.069274
vt 0.598703 0.069274
vt 0.522995 0.118287
vt 0.522104 0.069274
vt 0.524928 0.122260
vt 0.527427 0.117947
vt 0.527359 0.069734
vt 0.593450 0.090815
vt 0.595388 0.111122
vt 0.602519 0.110783
vt 0.600581 0.090465
vt 0.593450 0.111203
vt 0.609650 0.110443
vt 0.607712 0.090125
vt 0.611587 0.110351
vt 0.508879 0.080290
vt 0.508879 0.085779
vt 0.593450 0.085779
vt 0.593450 0.080730
vt 0.608929 0.080290
vt 0.608929 0.085779
vt 0.508879 0.090827
vt 0.593450 0.090815
vt 0.560717 0.080290
vt 0.560717 0.085779
vt 0.608929 0.090827
vt 0.539183 0.080290
vt 0.539183 0.085779
vt 0.560717 0.090827
vt 0.612031 0.080278
vt 0.612031 0.085779
vt 0.539183 0.090827
vt 0.612031 0.090815
vt 0.508879 0.085779
vt 0.508879 0.090827
vt 0.613700 0.100866
vt 0.593450 0.085779
vt 0.608929 0.085779
vt 0.608929 0.090827
vt 0.508879 0.080730
vt 0.593450 0.080730
vt 0.560717 0.085779
vt 0.560717 0.090827
vt 0.608929 0.080730
vt 0.560717 0.080730
vt 0.539183 0.085779
vt 0.539183 0.090827
vt 0.539183 0.080730
vt 0.612031 0.085779
vt 0.612031 0.090815
vt 0.612031 0.080730
vt 0.613700 0.111122
vt 0.593450 0.100936
vt 0.508879 0.100936
vt 0.612031 0.111203
vt 0.608929 0.100936
vt 0.593450 0.080290
vt 0.560717 0.100936
vt 0.508879 0.080290
vt 0.539183 0.100936
vt 0.612031 0.111203
vt 0.612031 0.100947
vt 0.613700 0.111122
vt 0.602519 0.110783
vt 0.609650 0.110443
vt 0.607712 0.090125
vt 0.600581 0.090465
vt 0.611587 0.110351
vt 0.595388 0.111122
vt 0.613700 0.100865
vt 0.593450 0.111203
vt 0.508879 0.111191
vt 0.612031 0.112563
vt 0.612031 0.080730
vt 0.593450 0.080290
vt 0.539183 0.080730
vt 0.608929 0.111191
vt 0.560717 0.111191
vt 0.560717 0.080730
vt 0.508879 0.080730
vt 0.539183 0.111191
vt 0.608929 0.080730
vt 0.612031 0.102326
vt 0.508879 0.112563
vt 0.608929 0.112563
vt 0.608929 0.102326
vt 0.508879 0.102326
vt 0.508879 0.111191
vt 0.608929 0.111191
vt 0.608929 0.100936
vt 0.508879 0.100936
vt 0.593450 0.112563
vt 0.539183 0.080290
vt 0.560717 0.112563
vt 0.560717 0.111191
vt 0.560717 0.102326
vt 0.560717 0.100936
vt 0.593450 0.102326
vt 0.593450 0.100936
vt 0.539183 0.112563
vt 0.539183 0.111191
vt 0.539183 0.102326
vt 0.539183 0.100936
vt 0.539183 0.107444
vt 0.560717 0.107444
vt 0.612031 0.112563
vt 0.539183 0.107444
vt 0.612031 0.102326
vt 0.612031 0.100936
vt 0.608929 0.102326
vt 0.508879 0.102326
vt 0.508879 0.112563
vt 0.608929 0.112563
vt 0.560717 0.080290
vt 0.612031 0.080278
vt 0.560717 0.107444
vt 0.612031 0.100947
vt 0.560717 0.102326
vt 0.608929 0.080290
vt 0.593450 0.102326
vt 0.539183 0.112563
vt 0.593450 0.112563
vt 0.539183 0.102326
vt 0.560717 0.112563
vn 0.000000 0.000000 1.000000
vn 0.000000 0.000000 1.000000
vn 0.000000 0.000000 1.000000
vn 0.000000 0.000000 1.000000
vn -0.000000 0.000000 -1.000000
vn -0.000000 0.000000 -1.000000
vn 0.000000 0.000000 -1.000000
vn 0.000000 0.000000 -1.000000
vn 0.000000 0.000000 -1.000000
vn 0.000000 0.000000 -1.000000
vn -0.000000 0.000000 1.000000
vn -0.000000 0.000000 1.000000
vn 0.000000 1.000000 0.000000
vn 0.000000 1.000000 -0.000000
vn 0.000000 1.000000 0.000000
vn 0.000000 1.000000 0.000000
vn 0.000000 1.000000 -0.000000
vn 0.000000 1.000000 0.000000
vn 0.000000 1.000000 0.000000
vn 0.000000 1.000000 -0.000000
vn 0.000000 1.000000 -0.000000
vn 0.000000 0.000000 1.000000
vn 0.000000 0.000000 1.000000
vn 0.000000 0.000000 1.000000
vn 0.000000 0.000000 1.000000
vn -0.000000 0.000000 -1.000000
vn -0.000000 0.000000 -1.000000
vn 0.000000 0.000000 -1.000000
vn 0.000000 0.000000 -1.000000
vn 0.000000 0.000000 -1.000000
vn 0.000000 0.000000 -1.000000
vn -0.000000 0.000000 1.000000
vn -0.000000 0.000000 1.000000
vn 0.000000 1.000000 0.000000
vn 0.000000 1.000000 -0.000000
vn 0.000000 1.000000 -0.000000
vn 0.000000 1.000000 0.000000
vn 0.000000 1.000000 -0.000000
vn 0.000000 1.000000 -0.000000
vn 0.000000 -1.000000 0.000000
vn 0.000000 -1.000000 0.000000
vn 0.000000 -1.000000 0.000000
vn 0.000000 -1.000000 0.000000
vn 0.000000 -1.000000 0.000000
vn 0.000000 -1.000000 0.000000
vn 0.000000 -1.000000 0.000000
vn 0.000000 -1.000000 0.000000
vn 0.000000 -1.000000 0.000000
vn 0.000000 0.000000 1.000000
vn 0.000000 0.000000 1.000000
vn 0.000000 0.000000 1.000000
vn 0.000000 0.000000 1.000000
vn 0.000000 1.000000 0.000000
vn 0.000000 1.000000 0.000000
vn 0.000000 1.000000 0.000000
vn 0.000000 1.000000 0.000000
vn 0.000000 1.000000 0.000000
vn 0.000000 1.000000 0.000000
vn -0.000000 0.000000 -1.000000
vn -0.000000 0.000000 -1.000000
vn 0.000000 -0.000000 -1.000000
vn 0.000000 -0.000000 -1.000000
vn 0.000000 -0.000000 -1.000000
vn 0.000000 -0.000000 -1.000000
vn 0.000000 1.000000 0.000000
vn 0.000000 1.000000 0.000000
vn 0.000000 1.000000 0.000000
vn -0.000000 0.000000 1.000000
vn -0.000000 0.000000 1.000000
vn 0.000000 -1.000000 0.000000
vn 0.000000 -1.000000 -0.000000
vn 0.000000 -1.000000 -0.000000
vn 0.000000 -1.000000 0.000000
vn 0.000000 -1.000000 -0.000000
vn 0.000000 -1.000000 -0.000000
vn 0.000000 1.000000 0.000000
vn 0.000000 1.000000 0.000000
vn 0.000000 1.000000 0.000000
vn 0.000000 1.000000 0.000000
vn 0.300671 0.000000 0.953728
vn 1.000000 0.000000 0.000000
vn 1.000000 0.000000 0.000000
vn 0.300671 0.000000 0.953728
vn -1.000000 0.000000 0.000000
vn -0.300671 0.000000 0.953728
vn -0.300671 0.000000 0.953728
vn -1.000000 0.000000 0.000000
vn -0.300671 0.000000 -0.953728
vn -0.300671 0.000000 -0.953728
vn 0.300671 0.000000 -0.953728
vn 0.300671 0.000000 -0.953728
vn 0.000000 1.000000 0.000000
vn 0.000000 1.000000 0.000000
vn 0.067200 0.000000 0.997740
vn 0.067200 0.000000 0.997740
vn 0.000000 1.000000 0.000000
vn 0.000000 1.000000 0.000000
vn 0.000000 1.000000 0.000000
vn 0.000000 1.000000 0.000000
vn 0.000000 1.000000 0.000000
vn 0.000000 1.000000 0.000000
vn 0.067200 0.000000 -0.997739
vn 0.067200 0.000000 -0.997740
vn -0.300671 0.000000 -0.953728
vn -1.000000 0.000000 0.000000
vn -1.000000 0.000000 0.000000
vn -0.300671 0.000000 -0.953728
vn -0.300671 -0.000000 0.953728
vn -0.300671 -0.000000 0.953728
vn 0.067200 -0.000000 0.997740
vn 0.067200 -0.000000 0.997740
vn 0.300671 -0.000000 0.953728
vn 0.300671 -0.000000 0.953728
vn 1.000000 0.000000 0.000000
vn 1.000000 0.000000 0.000000
vn 0.300671 0.000000 -0.953728
vn 0.300671 0.000000 -0.953728
vn 0.067200 0.000000 -0.997740
vn 0.067200 0.000000 -0.997739
vn -1.000000 -0.000000 0.000000
vn -1.000000 -0.000000 0.000000
vn -0.300671 -0.000000 -0.953728
vn -0.300671 -0.000000 -0.953728
vn -0.300671 0.000000 0.953728
vn -0.300671 0.000000 0.953728
vn 0.067200 0.000000 0.997740
vn 0.067200 0.000000 0.997740
vn 0.300671 0.000000 0.953728
vn 0.300671 0.000000 0.953728
vn 1.000000 0.000000 0.000000
vn 1.000000 0.000000 0.000000
vn 0.300671 0.000000 -0.953728
vn 0.300671 0.000000 -0.953728
vn 0.067200 0.000000 -0.997739
vn 0.067200 0.000000 -0.997739
vn 1.000000 0.000000 0.000000
vn 1.000000 -0.000000 0.000000
vn 1.000000 0.000000 0.000000
vn 1.000000 0.000000 0.000000
vn -1.000000 -0.000000 0.000000
vn -1.000000 0.000000 0.000000
vn -1.000000 0.000000 0.000000
vn -1.000000 0.000000 0.000000
vn 1.000000 0.000000 0.000000
vn 1.000000 0.000000 0.000000
vn 1.000000 -0.000000 0.000000
vn 1.000000 0.000000 0.000000
vn -1.000000 0.000000 0.000000
vn -1.000000 0.000000 0.000000
vn -1.000000 0.000000 0.000000
vn -1.000000 -0.000000 0.000000
vn 1.000000 0.000000 0.000000
vn 1.000000 0.000000 0.000000
vn -1.000000 0.000000 0.000000
vn -1.000000 0.000000 0.000000
vn 1.000000 0.000000 0.000000
vn 1.000000 0.000000 0.000000
vn 1.000000 0.000000 0.000000
vn 0.000000 1.000000 0.000000
vn -0.067200 0.000000 0.997740
vn -0.067200 0.000000 0.997740
vn -0.000000 -1.000000 -0.000000
vn -0.000000 -1.000000 -0.000000
vn -0.000000 -1.000000 -0.000000
vn 1.000000 0.000000 0.000000
vn 1.000000 0.000000 0.000000
vn 1.000000 0.000000 0.000000
vn -0.067200 -0.000000 0.997740
vn -0.067200 -0.000000 0.997740
vn -0.067200 0.000000 0.997740
vn -0.067200 0.000000 0.997740
vn 1.000000 -0.000000 0.000000
vn 1.000000 -0.000000 0.000000
vn 0.000000 1.000000 0.000000
vn 1.000000 0.000000 0.000000
vn 1.000000 0.000000 0.000000
vn 1.000000 0.000000 0.000000
vn -0.067200 0.000000 -0.997740
vn -0.067200 0.000000 -0.997739
vn 1.000000 0.000000 0.000000
vn 1.000000 0.000000 0.000000
vn 1.000000 0.000000 0.000000
vn -0.000000 -1.000000 0.000000
vn -0.000000 -1.000000 0.000000
vn -0.000000 -1.000000 0.000000
vn -0.067200 0.000000 -0.997740
vn -0.067200 0.000000 -0.997739
vn -0.067200 0.000000 -0.997739
vn -0.067200 0.000000 -0.997739
vn 1.000000 0.000000 0.000000
vn 1.000000 0.000000 0.000000
vn 0.000000 1.000000 0.000000
vn -1.000000 0.000000 0.000000
vn -1.000000 0.000000 0.000000
vn -1.000000 0.000000 0.000000
vn 0.000000 -1.000000 -0.000000
vn 0.000000 -1.000000 -0.000000
vn 0.000000 -1.000000 -0.000000
vn -1.000000 0.000000 0.000000
vn -1.000000 0.000000 0.000000
vn -1.000000 0.000000 0.000000
vn -1.000000 -0.000000 0.000000
vn -1.000000 -0.000000 0.000000
vn -1.000000 0.000000 0.000000
vn -1.000000 0.000000 0.000000
vn -1.000000 0.000000 0.000000
vn 0.000000 1.000000 0.000000
vn -1.000000 0.000000 0.000000
vn -1.000000 0.000000 0.000000
vn -1.000000 0.000000 0.000000
vn 0.000000 -1.000000 0.000000
vn 0.000000 -1.000000 0.000000
vn 0.000000 -1.000000 0.000000
vn -1.000000 0.000000 0.000000
vn -1.000000 0.000000 0.000000
f 7/1/1 1/2/2 4/3/3 6/4/4
f 8/5/5 9/6/6 3/7/7 2/8/8
f 2/8/8 3/7/7 10/9/9 11/10/10
f 1/2/2 12/11/11 13/12/12 4/3/3
f 14/13/13 5/14/14 4/3/15 13/12/16
f 5/14/14 15/15/17 6/4/18 4/3/15
f 10/9/19 3/7/20 5/14/14 14/13/13
f 3/7/20 9/6/21 15/15/17 5/14/14
f 18/16/22 21/17/23 22/18/24 16/19/25
f 23/20/26 24/21/27 19/22/28 17/23/29
f 17/23/29 19/22/28 25/24/30 26/25/31
f 27/26/32 28/27/33 18/16/22 16/19/25
f 21/17/34 18/16/35 19/28/36 24/29/37
f 18/16/35 28/27/38 25/30/39 19/28/36
f 29/31/40 20/32/41 16/19/42 22/18/43
f 20/32/41 30/33/44 27/26/45 16/19/42
f 23/20/46 17/23/47 20/32/41 29/31/40
f 17/23/47 26/25/48 30/33/44 20/32/41
f 36/34/49 37/35/50 34/36/51 31/37/52
f 38/38/53 36/34/54 31/37/55 32/39/56
f 39/40/57 38/38/53 32/39/56 33/41/58
f 40/42/59 39/40/60 33/41/61 35/43/62
f 35/43/62 33/41/61 41/44/63 42/45/64
f 33/41/58 32/39/56 43/46/65 41/44/66
f 32/39/56 31/37/55 44/47/67 43/46/65
f 34/36/51 45/48/68 44/47/69 31/37/52
f 45/48/70 34/36/71 35/43/72 42/45/73
f 34/36/71 37/35/74 40/42/75 35/43/72
f 48/49/76 36/50/77 38/51/78 54/52/79
f 61/121/80 62/58/81 57/59/82 49/60/83
f 59/75/84 60/76/85 48/49/86 54/78/87
f 58/81/88 59/75/84 54/78/87 50/82/89
f 57/59/82 62/58/81 63/63/90 51/64/91
f 54/52/79 38/51/78 39/54/92 50/55/93
f 49/116/83 95/94/94 94/95/95 61/57/80
f 43/105/96 44/106/97 49/107/98 57/108/99
f 41/110/100 43/105/96 57/108/99 51/64/101
f 100/113/102 101/112/103 51/64/91 63/63/90
f 52/92/104 55/90/105 65/87/106 66/89/107
f 55/90/105 46/91/108 64/88/109 65/87/106
f 97/101/110 96/103/111 47/71/112 69/68/113
f 47/115/112 56/72/114 68/69/115 69/117/113
f 67/73/116 68/69/115 56/72/114 53/74/117
f 53/74/117 102/96/118 103/122/119 67/73/116
f 71/83/120 77/79/121 78/85/122 72/86/123
f 76/80/124 77/79/121 71/83/120 70/84/125
f 98/97/126 99/99/127 75/65/128 81/61/129
f 80/62/130 81/123/129 75/120/128 74/66/131
f 73/70/132 79/67/133 80/62/130 74/66/131
f 104/119/134 105/118/135 79/67/133 73/70/132
f 65/87/106 64/88/109 70/84/125 71/83/120
f 66/89/107 65/87/106 71/83/120 72/86/123
f 67/73/116 103/122/119 104/119/134 73/70/132
f 68/69/115 67/73/116 73/70/132 74/66/131
f 69/117/113 68/69/115 74/66/131 75/120/128
f 75/65/128 99/99/127 97/101/110 69/68/113
f 77/79/121 76/80/124 60/76/85 59/75/84
f 78/85/122 77/79/121 59/75/84 58/81/88
f 79/67/133 105/118/135 100/113/102 63/63/90
f 62/58/81 80/62/130 79/67/133 63/63/90
f 61/121/80 81/123/129 80/62/130 62/58/81
f 61/57/80 94/95/95 98/97/126 81/61/129
f 37/125/136 21/126/137 24/127/138 40/128/139
f 28/151/140 45/152/141 42/153/142 25/154/143
f 15/145/144 29/146/145 22/135/146 6/141/147
f 30/157/148 14/148/149 13/164/150 27/159/151
f 9/143/152 23/137/153 29/146/145 15/145/144
f 26/165/154 10/162/155 14/148/149 30/157/148
f 37/125/136 36/133/156 83/53/157 82/129/158
f 36/50/77 48/49/76 83/53/159
f 83/53/160 48/49/86 60/76/85 82/129/161
f 46/91/162 7/104/163 84/102/164
f 7/147/165 6/141/147 85/142/166 84/102/167
f 64/88/109 46/91/108 84/102/168 85/142/169
f 76/80/124 70/84/125 87/136/170 86/130/171
f 22/135/146 21/126/137 86/130/172 87/136/173
f 6/141/147 22/135/146 87/136/173 85/142/166
f 87/136/170 70/84/125 64/88/109 85/142/169
f 82/129/161 60/76/85 76/80/124 86/130/171
f 21/126/137 37/125/136 82/129/158 86/130/172
f 50/55/93 39/54/92 88/56/174
f 39/139/175 40/128/139 89/132/176 88/140/177
f 58/100/88 50/98/89 88/140/178 89/132/179
f 9/143/152 8/149/180 91/150/181 90/144/182
f 8/111/183 52/156/184 91/158/185
f 91/158/186 52/156/104 66/134/107 90/144/187
f 72/155/123 78/160/122 92/131/188 93/138/189
f 24/127/138 23/137/153 93/138/190 92/131/191
f 90/144/187 66/134/107 72/155/123 93/138/189
f 23/137/153 9/143/152 90/144/182 93/138/190
f 92/131/188 78/160/122 58/100/88 89/132/179
f 40/128/139 24/127/138 92/131/191 89/132/176
f 49/107/98 44/106/97 95/109/192
f 44/161/193 45/152/141 94/95/194 95/94/195
f 12/77/196 47/71/197 96/103/198
f 13/164/150 12/124/199 96/103/200 97/101/201
f 28/151/140 27/159/151 99/99/202 98/97/203
f 27/159/151 13/164/150 97/101/201 99/99/202
f 45/152/141 28/151/140 98/97/203 94/95/194
f 42/153/142 41/163/204 101/112/205 100/113/206
f 41/110/100 51/64/101 101/112/207
f 11/114/208 10/162/155 103/122/209 102/96/210
f 53/74/211 11/93/212 102/96/213
f 26/165/154 25/154/143 105/118/214 104/119/215
f 10/162/155 26/165/154 104/119/215 103/122/209
f 25/154/143 42/153/142 100/113/206 105/118/214
