# This file uses meters as units for non-parametric coordinates.

v 51.281921 121.922043 -0.176096
v 61.744202 121.922043 -0.176096
v 51.281921 153.014084 -0.176096
v 61.744202 153.014084 -0.176096
v 51.281921 153.014084 -1.970355
v 61.744202 153.014084 -1.970355
v 51.281921 121.922043 -1.970355
v 61.744202 121.922043 -1.970355
v 59.651749 153.014084 -1.970355
v 59.651749 153.014084 1.891006
v 59.651749 121.922043 1.891006
v 59.651749 121.922043 -1.970355
v 53.374374 153.014084 -1.970355
v 53.374374 153.014084 1.891006
v 53.374374 121.922043 1.891006
v 53.374374 121.922043 -1.970355
v 58.102165 138.858521 6.294069
v 37.650764 138.858521 6.294069
v 58.102165 136.077591 6.294069
v 37.650764 136.077591 6.294069
v 58.102165 136.077591 4.727433
v 37.650764 136.077591 4.727433
v 58.102165 138.858521 4.727433
v 37.650764 138.858521 4.727433
v 54.011887 136.077591 6.294069
v 54.011887 136.077591 4.727433
v 54.011887 138.858521 4.727433
v 54.011887 138.858521 6.294069
v 54.011887 136.077591 -0.999428
v 54.011887 138.858521 -0.999428
v 58.102165 138.858521 -0.999428
v 58.102165 136.077591 -0.999428
vt 0.705860 0.039167
vt 0.707270 0.045681
vt 0.639399 0.045728
vt 0.640578 0.039180
vt 0.638544 0.048883
vt 0.634081 0.043084
vt 0.712539 0.042965
vt 0.708271 0.048874
vt 0.708242 0.017287
vt 0.707207 0.020664
vt 0.639118 0.020654
vt 0.638168 0.017280
vt 0.634021 0.023419
vt 0.640378 0.027413
vt 0.705865 0.027421
vt 0.712254 0.023410
vt 0.675365 0.027737
vt 0.695280 0.027543
vt 0.695280 0.038373
vt 0.675365 0.038567
vt 0.694235 0.037829
vt 0.674320 0.038024
vt 0.674320 0.027194
vt 0.694236 0.026999
vt 0.640059 0.026765
vt 0.639014 0.026222
vt 0.639014 0.037052
vt 0.640059 0.037595
vt 0.702270 0.023323
vt 0.702270 0.043089
vt 0.665923 0.023678
vt 0.665923 0.043443
vn 0.702784 0.000000 0.711403
vn 0.879208 0.000000 0.476439
vn 0.879208 0.000000 0.476439
vn 0.702784 0.000000 0.711403
vn 0.000000 1.000000 0.000000
vn 0.000000 1.000000 0.000000
vn 0.000000 1.000000 0.000000
vn 0.000000 1.000000 0.000000
vn 0.000000 -1.000000 0.000000
vn 0.000000 -1.000000 0.000000
vn 0.000000 -1.000000 0.000000
vn 0.000000 -1.000000 0.000000
vn 1.000000 0.000000 0.000000
vn 1.000000 0.000000 0.000000
vn -1.000000 0.000000 0.000000
vn -0.879208 0.000000 0.476439
vn -0.879208 0.000000 0.476439
vn -1.000000 0.000000 0.000000
vn 0.000000 1.000000 0.000000
vn 0.000000 1.000000 0.000000
vn 0.000000 0.000000 1.000000
vn 0.000000 0.000000 1.000000
vn 0.000000 0.000000 1.000000
vn 0.000000 0.000000 1.000000
vn 0.000000 -1.000000 0.000000
vn 0.000000 -1.000000 0.000000
vn 0.000000 1.000000 0.000000
vn 0.000000 1.000000 0.000000
vn -0.702784 0.000000 0.711403
vn -0.702784 0.000000 0.711403
vn 0.000000 -1.000000 0.000000
vn 0.000000 -1.000000 0.000000
vn 0.000000 0.000000 1.000000
vn 0.000000 0.000000 1.000000
vn 0.000000 0.000000 1.000000
vn 0.000000 0.000000 1.000000
vn 0.000000 -1.000000 0.000000
vn 0.000000 -1.000000 0.000000
vn 0.000000 -1.000000 0.000000
vn 0.000000 -1.000000 0.000000
vn 0.000000 1.000000 0.000000
vn 0.000000 1.000000 0.000000
vn 0.000000 1.000000 0.000000
vn 0.000000 1.000000 0.000000
vn -1.000000 0.000000 0.000000
vn -1.000000 0.000000 0.000000
vn -1.000000 0.000000 0.000000
vn -1.000000 0.000000 0.000000
vn 1.000000 0.000000 0.000000
vn 1.000000 0.000000 0.000000
vn 1.000000 0.000000 0.000000
vn 1.000000 0.000000 0.000000
vn 0.000000 -1.000000 0.000000
vn 0.000000 -1.000000 0.000000
vn 0.000000 0.000000 -1.000000
vn 0.000000 0.000000 -1.000000
vn 0.000000 0.000000 -1.000000
vn 0.000000 0.000000 -1.000000
vn 0.000000 1.000000 0.000000
vn 0.000000 1.000000 0.000000
vn 0.000000 0.000000 1.000000
vn 0.000000 0.000000 1.000000
vn -1.000000 0.000000 0.000000
vn -1.000000 0.000000 0.000000
vn -1.000000 0.000000 0.000000
vn -1.000000 0.000000 0.000000
vn 0.000000 1.000000 0.000000
vn 0.000000 1.000000 0.000000
vn 0.000000 1.000000 0.000000
vn 0.000000 1.000000 0.000000
vn 1.000000 0.000000 0.000000
vn 1.000000 0.000000 0.000000
vn 1.000000 0.000000 0.000000
vn 1.000000 0.000000 0.000000
vn 0.000000 -1.000000 0.000000
vn 0.000000 -1.000000 0.000000
vn 0.000000 -1.000000 0.000000
vn 0.000000 -1.000000 0.000000
f 11/1/1 2/2/2 4/3/3 10/4/4
f 10/4/5 4/3/6 6/5/7 9/6/8
f 12/7/9 8/8/10 2/2/11 11/1/12
f 2/2/2 8/8/13 6/5/14 4/3/3
f 7/9/15 1/10/16 3/11/17 5/12/18
f 10/4/5 9/6/8 13/13/19 14/14/20
f 11/1/21 10/4/22 14/14/23 15/15/24
f 16/16/25 12/7/9 11/1/12 15/15/26
f 3/11/27 14/14/20 13/13/19 5/12/28
f 1/10/16 15/15/29 14/14/30 3/11/17
f 7/9/31 16/16/25 15/15/26 1/10/32
f 17/17/33 28/18/34 25/19/35 19/20/36
f 19/20/37 25/19/38 26/21/39 21/22/40
f 23/23/41 27/24/42 28/18/43 17/17/44
f 18/25/45 24/26/46 22/27/47 20/28/48
f 23/23/49 17/17/50 19/20/51 21/22/52
f 22/27/53 26/21/39 25/19/38 20/28/54
f 24/26/55 27/24/56 26/21/57 22/27/58
f 18/25/59 28/18/43 27/24/42 24/26/60
f 20/28/61 25/19/35 28/18/34 18/25/62
f 26/21/63 27/24/64 30/29/65 29/30/66
f 27/24/67 23/23/68 31/31/69 30/29/70
f 23/23/71 21/22/72 32/32/73 31/31/74
f 21/22/75 26/21/76 29/30/77 32/32/78
