# This file uses meters as units for non-parametric coordinates.

v -34.151108 335.699280 -1.858817
v -34.151108 167.849640 -1.858817
v -34.151108 335.699280 -7.931666
v -34.151108 167.849640 -7.931666
v -34.151108 0.000000 -7.931666
v -34.151108 0.000000 -1.858817
v 34.151108 335.699280 -1.858817
v 34.151108 335.699280 -7.931666
v 34.151108 -0.000000 -1.858817
v 34.151108 0.000000 -7.931666
v 34.151108 167.849640 -7.931666
v 34.151108 167.849640 -1.858817
v 23.914520 167.849640 -1.858817
v 23.914520 323.569946 -1.858817
v -23.914536 323.569946 -1.858817
v -23.914536 167.849640 -1.858817
v -23.914536 12.129318 -1.858817
v 23.914520 12.129318 -1.858817
v -34.151108 335.699280 -14.004515
v -34.151108 167.849640 -14.004515
v -34.151108 0.000000 -14.004515
v 34.151108 335.699280 -14.004515
v 34.151108 -0.000000 -14.004515
v 34.151108 167.849640 -14.004515
v 23.914520 167.849640 -14.004515
v 23.914520 323.569946 -14.004515
v -23.914536 323.569946 -14.004515
v -23.914536 167.849640 -14.004515
v -23.914536 12.129318 -14.004515
v 23.914520 12.129318 -14.004515
vt 0.589241 0.092527
vt 0.510175 0.092527
vt 0.515465 0.081509
vt 0.510175 0.077409
vt 0.593241 0.077409
vt 0.585396 0.092527
vt 0.593446 0.091709
vt 0.592656 0.082210
vt 0.523623 0.077696
vt 0.598830 0.078867
vt 0.522835 0.077696
vt 0.600389 0.075441
vt 0.600389 0.077967
vt 0.595741 0.099128
vt 0.581401 0.101536
vt 0.583114 0.103202
vt 0.514823 0.103202
vt 0.531929 0.094785
vt 0.530423 0.097571
vt 0.595741 0.099128
vt 0.514823 0.103202
vt 0.544566 0.100982
vt 0.527792 0.097571
vt 0.515465 0.081509
vt 0.592656 0.082210
vt 0.521719 0.075390
vt 0.532521 0.091067
vt 0.510175 0.092527
vt 0.510175 0.077409
vt 0.515444 0.079934
vt 0.593241 0.077409
vt 0.582344 0.093864
vt 0.579793 0.103202
vt 0.523623 0.077696
vt 0.600389 0.075441
vt 0.600389 0.077967
vt 0.522835 0.077696
vt 0.524765 0.075390
vt 0.582344 0.093864
vt 0.530423 0.097571
vt 0.579793 0.103202
vt 0.531929 0.094785
vt 0.544566 0.100982
vt 0.583114 0.103202
vt 0.527792 0.097571
vt 0.581401 0.101536
vt 0.598830 0.078867
vt 0.585396 0.092527
vt 0.589241 0.092527
vt 0.593446 0.091709
vt 0.595147 0.077409
vt 0.595147 0.077409
vt 0.524765 0.075390
vt 0.515444 0.079934
vt 0.532521 0.091067
vt 0.521719 0.075390
vn 0.000000 1.000000 0.000000
vn 0.000000 1.000000 0.000000
vn 0.000000 1.000000 0.000000
vn 0.000000 1.000000 0.000000
vn -1.000000 0.000000 0.000000
vn -1.000000 0.000000 0.000000
vn -1.000000 0.000000 0.000000
vn -1.000000 0.000000 0.000000
vn -1.000000 0.000000 0.000000
vn -1.000000 0.000000 0.000000
vn 1.000000 0.000000 0.000000
vn 1.000000 0.000000 0.000000
vn 1.000000 0.000000 0.000000
vn 1.000000 0.000000 0.000000
vn 1.000000 -0.000000 0.000000
vn 1.000000 -0.000000 0.000000
vn 0.000000 0.000000 1.000000
vn 0.000000 0.000000 1.000000
vn 0.000000 0.000000 1.000000
vn 0.000000 0.000000 1.000000
vn 0.000000 0.000000 1.000000
vn 0.000000 0.000000 1.000000
vn 0.000000 0.000000 1.000000
vn 0.000000 0.000000 1.000000
vn -0.000000 0.000000 1.000000
vn -0.000000 0.000000 1.000000
vn -0.000000 0.000000 1.000000
vn -0.000000 0.000000 1.000000
vn -0.000000 0.000000 1.000000
vn -0.000000 0.000000 1.000000
vn -0.000000 0.000000 1.000000
vn -0.000000 0.000000 1.000000
vn 0.000000 0.000000 1.000000
vn 0.000000 0.000000 1.000000
vn 0.000000 0.000000 1.000000
vn 0.000000 0.000000 1.000000
vn -0.000000 -0.000000 1.000000
vn -0.000000 -0.000000 1.000000
vn -0.000000 -0.000000 1.000000
vn -0.000000 -0.000000 1.000000
vn 0.000000 1.000000 0.000000
vn 0.000000 1.000000 0.000000
vn 0.000000 1.000000 0.000000
vn 0.000000 1.000000 0.000000
vn -1.000000 0.000000 0.000000
vn -1.000000 0.000000 0.000000
vn -1.000000 0.000000 0.000000
vn -1.000000 0.000000 0.000000
vn -1.000000 0.000000 0.000000
vn -1.000000 0.000000 0.000000
vn 1.000000 0.000000 0.000000
vn 1.000000 0.000000 0.000000
vn 1.000000 0.000000 0.000000
vn 1.000000 0.000000 0.000000
vn 1.000000 0.000000 0.000000
vn 1.000000 0.000000 0.000000
vn 0.000000 0.000000 -1.000000
vn 0.000000 0.000000 -1.000000
vn 0.000000 0.000000 -1.000000
vn 0.000000 0.000000 -1.000000
vn 0.000000 0.000000 -1.000000
vn 0.000000 0.000000 -1.000000
vn 0.000000 0.000000 -1.000000
vn 0.000000 0.000000 -1.000000
vn 0.000000 0.000000 -1.000000
vn 0.000000 0.000000 -1.000000
vn 0.000000 0.000000 -1.000000
vn 0.000000 0.000000 -1.000000
vn 0.000000 0.000000 -1.000000
vn 0.000000 0.000000 -1.000000
vn 0.000000 0.000000 -1.000000
vn 0.000000 0.000000 -1.000000
vn 0.000000 0.000000 -1.000000
vn 0.000000 0.000000 -1.000000
vn 0.000000 0.000000 -1.000000
vn 0.000000 0.000000 -1.000000
vn 0.000000 0.000000 -1.000000
vn 0.000000 0.000000 -1.000000
vn 0.000000 0.000000 -1.000000
vn 0.000000 0.000000 -1.000000
vn 0.000000 -1.000000 0.000000
vn 0.000000 -1.000000 0.000000
vn 0.000000 -1.000000 0.000000
vn 0.000000 -1.000000 0.000000
vn 1.000000 0.000000 0.000000
vn 1.000000 0.000000 0.000000
vn 1.000000 0.000000 0.000000
vn 1.000000 0.000000 0.000000
vn 1.000000 0.000000 0.000000
vn 1.000000 0.000000 0.000000
vn 0.000000 1.000000 0.000000
vn 0.000000 1.000000 0.000000
vn 0.000000 1.000000 0.000000
vn 0.000000 1.000000 0.000000
vn -1.000000 0.000000 0.000000
vn -1.000000 0.000000 0.000000
vn -1.000000 0.000000 0.000000
vn -1.000000 0.000000 0.000000
vn -1.000000 0.000000 0.000000
vn -1.000000 0.000000 0.000000
f 3/3/1 1/55/2 7/7/3 8/8/4
f 2/2/5 1/1/6 3/51/7 4/4/8
f 4/4/8 5/5/9 6/6/10 2/2/5
f 7/56/11 12/13/12 11/12/13 8/9/14
f 12/13/12 9/53/15 10/11/16 11/12/13
f 12/13/17 7/56/18 14/45/19 13/14/20
f 7/7/21 1/55/22 15/43/23 14/15/24
f 1/1/25 2/2/26 16/17/27 15/16/28
f 2/2/29 6/6/30 17/41/31 16/17/32
f 6/54/33 9/10/34 18/39/35 17/18/36
f 9/53/37 12/13/38 13/14/39 18/19/40
f 3/24/41 8/25/42 22/50/43 19/27/44
f 20/28/45 4/29/46 3/52/47 19/49/48
f 4/29/46 20/28/45 21/48/49 5/31/50
f 22/26/51 8/34/52 11/35/53 24/36/54
f 24/36/54 11/35/53 10/37/55 23/38/56
f 24/36/57 25/20/58 26/23/59 22/26/60
f 22/50/61 26/46/62 27/22/63 19/27/64
f 19/49/65 27/44/66 28/21/67 20/28/68
f 20/28/69 28/21/70 29/33/71 21/48/72
f 21/30/73 29/42/74 30/32/75 23/47/76
f 23/38/77 30/40/78 25/20/79 24/36/80
f 14/15/81 15/43/82 27/22/83 26/46/84
f 15/16/85 16/17/86 28/21/87 27/44/88
f 16/17/86 17/41/89 29/33/90 28/21/87
f 17/18/91 18/39/92 30/32/93 29/42/94
f 18/19/95 13/14/96 25/20/97 30/40/98
f 13/14/96 14/45/99 26/23/100 25/20/97
