# This file uses meters as units for non-parametric coordinates.

v -65.904900 87.633240 -14.004514
v 65.904900 87.633240 -14.004514
v 65.904900 80.216400 -14.004514
v -65.904900 80.216400 -14.004514
v -65.904900 87.633240 -14.770131
v -65.904900 80.216400 -14.770131
v 65.904900 80.216400 -14.770131
v 65.904900 87.633240 -14.770131
v -65.904900 171.558060 -14.004514
v 65.904900 171.558060 -14.004514
v 65.904900 164.141220 -14.004514
v -65.904900 164.141220 -14.004514
v -65.904900 171.558060 -14.770131
v -65.904900 164.141220 -14.770131
v 65.904900 164.141220 -14.770131
v 65.904900 171.558060 -14.770131
v -65.904900 255.482895 -14.004514
v 65.904900 255.482895 -14.004514
v 65.904900 248.066040 -14.004514
v -65.904900 248.066040 -14.004514
v -65.904900 255.482895 -14.770131
v -65.904900 248.066040 -14.770131
v 65.904900 248.066040 -14.770131
v 65.904900 255.482895 -14.770131
v -65.904900 87.633240 -1.858817
v 65.904900 87.633240 -1.858817
v 65.904900 80.216400 -1.858817
v -65.904900 80.216400 -1.858817
v -65.904900 87.633240 -1.093200
v -65.904900 80.216400 -1.093200
v 65.904900 80.216400 -1.093200
v 65.904900 87.633240 -1.093200
v -65.904900 171.558060 -1.858817
v 65.904900 171.558060 -1.858817
v 65.904900 164.141220 -1.858817
v -65.904900 164.141220 -1.858817
v -65.904900 171.558060 -1.093200
v -65.904900 164.141220 -1.093200
v 65.904900 164.141220 -1.093200
v 65.904900 171.558060 -1.093200
v -65.904900 255.482895 -1.858817
v 65.904900 255.482895 -1.858817
v 65.904900 248.066040 -1.858817
v -65.904900 248.066040 -1.858817
v -65.904900 255.482895 -1.093200
v -65.904900 248.066040 -1.093200
v 65.904900 248.066040 -1.093200
v 65.904900 255.482895 -1.093200
vt 0.640718 0.046567
vt 0.640718 0.014406
vt 0.724033 0.014775
vt 0.724033 0.046935
vt 0.637828 0.049775
vt 0.637828 0.011996
vt 0.726900 0.012430
vt 0.726900 0.050209
vt 0.640718 0.046567
vt 0.640718 0.014406
vt 0.724033 0.014775
vt 0.724033 0.046935
vt 0.637828 0.049775
vt 0.637828 0.011996
vt 0.726900 0.012430
vt 0.726900 0.050209
vt 0.640718 0.046567
vt 0.640718 0.014406
vt 0.724033 0.014775
vt 0.724033 0.046935
vt 0.637828 0.049775
vt 0.637828 0.011996
vt 0.726900 0.012430
vt 0.726900 0.050209
vt 0.640718 0.046567
vt 0.640718 0.014406
vt 0.724033 0.014775
vt 0.724033 0.046935
vt 0.637828 0.049775
vt 0.637828 0.011996
vt 0.726900 0.012430
vt 0.726900 0.050209
vt 0.640718 0.046567
vt 0.640718 0.014406
vt 0.724033 0.014775
vt 0.724033 0.046935
vt 0.637828 0.049775
vt 0.637828 0.011996
vt 0.726900 0.012430
vt 0.726900 0.050209
vt 0.640718 0.046567
vt 0.640718 0.014406
vt 0.724033 0.014775
vt 0.724033 0.046935
vt 0.637828 0.049775
vt 0.637828 0.011996
vt 0.726900 0.012430
vt 0.726900 0.050209
vn 0.000000 0.000000 -1.000000
vn 0.000000 0.000000 -1.000000
vn 0.000000 0.000000 -1.000000
vn 0.000000 0.000000 -1.000000
vn -1.000000 0.000000 0.000000
vn -1.000000 0.000000 0.000000
vn -1.000000 0.000000 0.000000
vn -1.000000 0.000000 0.000000
vn 0.000000 -1.000000 0.000000
vn 0.000000 -1.000000 0.000000
vn 0.000000 -1.000000 0.000000
vn 0.000000 -1.000000 0.000000
vn 1.000000 0.000000 0.000000
vn 1.000000 0.000000 0.000000
vn 1.000000 0.000000 0.000000
vn 1.000000 0.000000 0.000000
vn 0.000000 1.000000 0.000000
vn 0.000000 1.000000 0.000000
vn 0.000000 1.000000 0.000000
vn 0.000000 1.000000 0.000000
vn 0.000000 0.000000 -1.000000
vn 0.000000 0.000000 -1.000000
vn 0.000000 0.000000 -1.000000
vn 0.000000 0.000000 -1.000000
vn -1.000000 0.000000 0.000000
vn -1.000000 0.000000 0.000000
vn -1.000000 0.000000 0.000000
vn -1.000000 0.000000 0.000000
vn 0.000000 -1.000000 0.000000
vn 0.000000 -1.000000 0.000000
vn 0.000000 -1.000000 0.000000
vn 0.000000 -1.000000 0.000000
vn 1.000000 0.000000 0.000000
vn 1.000000 0.000000 0.000000
vn 1.000000 0.000000 0.000000
vn 1.000000 0.000000 0.000000
vn 0.000000 1.000000 0.000000
vn 0.000000 1.000000 0.000000
vn 0.000000 1.000000 0.000000
vn 0.000000 1.000000 0.000000
vn 0.000000 0.000000 -1.000000
vn 0.000000 0.000000 -1.000000
vn 0.000000 0.000000 -1.000000
vn 0.000000 0.000000 -1.000000
vn -1.000000 0.000000 0.000000
vn -1.000000 0.000000 0.000000
vn -1.000000 0.000000 0.000000
vn -1.000000 0.000000 0.000000
vn 0.000000 -1.000000 0.000000
vn 0.000000 -1.000000 0.000000
vn 0.000000 -1.000000 0.000000
vn 0.000000 -1.000000 0.000000
vn 1.000000 0.000000 0.000000
vn 1.000000 0.000000 0.000000
vn 1.000000 0.000000 0.000000
vn 1.000000 0.000000 0.000000
vn 0.000000 1.000000 0.000000
vn 0.000000 1.000000 0.000000
vn 0.000000 1.000000 0.000000
vn 0.000000 1.000000 0.000000
vn 0.000000 0.000000 1.000000
vn 0.000000 0.000000 1.000000
vn 0.000000 0.000000 1.000000
vn 0.000000 0.000000 1.000000
vn -1.000000 0.000000 0.000000
vn -1.000000 0.000000 0.000000
vn -1.000000 0.000000 0.000000
vn -1.000000 0.000000 0.000000
vn 0.000000 -1.000000 0.000000
vn 0.000000 -1.000000 0.000000
vn 0.000000 -1.000000 0.000000
vn 0.000000 -1.000000 0.000000
vn 1.000000 0.000000 0.000000
vn 1.000000 0.000000 0.000000
vn 1.000000 0.000000 0.000000
vn 1.000000 0.000000 0.000000
vn 0.000000 1.000000 0.000000
vn 0.000000 1.000000 0.000000
vn 0.000000 1.000000 0.000000
vn 0.000000 1.000000 0.000000
vn 0.000000 0.000000 1.000000
vn 0.000000 0.000000 1.000000
vn 0.000000 0.000000 1.000000
vn 0.000000 0.000000 1.000000
vn -1.000000 0.000000 0.000000
vn -1.000000 0.000000 0.000000
vn -1.000000 0.000000 0.000000
vn -1.000000 0.000000 0.000000
vn 0.000000 -1.000000 0.000000
vn 0.000000 -1.000000 0.000000
vn 0.000000 -1.000000 0.000000
vn 0.000000 -1.000000 0.000000
vn 1.000000 0.000000 0.000000
vn 1.000000 0.000000 0.000000
vn 1.000000 0.000000 0.000000
vn 1.000000 0.000000 0.000000
vn 0.000000 1.000000 0.000000
vn 0.000000 1.000000 0.000000
vn 0.000000 1.000000 0.000000
vn 0.000000 1.000000 0.000000
vn 0.000000 0.000000 1.000000
vn 0.000000 0.000000 1.000000
vn 0.000000 0.000000 1.000000
vn 0.000000 0.000000 1.000000
vn -1.000000 0.000000 0.000000
vn -1.000000 0.000000 0.000000
vn -1.000000 0.000000 0.000000
vn -1.000000 0.000000 0.000000
vn 0.000000 -1.000000 0.000000
vn 0.000000 -1.000000 0.000000
vn 0.000000 -1.000000 0.000000
vn 0.000000 -1.000000 0.000000
vn 1.000000 0.000000 0.000000
vn 1.000000 0.000000 0.000000
vn 1.000000 0.000000 0.000000
vn 1.000000 0.000000 0.000000
vn 0.000000 1.000000 0.000000
vn 0.000000 1.000000 0.000000
vn 0.000000 1.000000 0.000000
vn 0.000000 1.000000 0.000000
f 5/1/1 8/4/2 7/3/3 6/2/4
f 1/5/5 5/1/6 6/2/7 4/6/8
f 6/2/9 7/3/10 3/7/11 4/6/12
f 3/7/13 7/3/14 8/4/15 2/8/16
f 5/1/17 1/5/18 2/8/19 8/4/20
f 13/9/21 16/12/22 15/11/23 14/10/24
f 9/13/25 13/9/26 14/10/27 12/14/28
f 14/10/29 15/11/30 11/15/31 12/14/32
f 11/15/33 15/11/34 16/12/35 10/16/36
f 13/9/37 9/13/38 10/16/39 16/12/40
f 21/17/41 24/20/42 23/19/43 22/18/44
f 17/21/45 21/17/46 22/18/47 20/22/48
f 22/18/49 23/19/50 19/23/51 20/22/52
f 19/23/53 23/19/54 24/20/55 18/24/56
f 21/17/57 17/21/58 18/24/59 24/20/60
f 29/25/61 30/26/62 31/27/63 32/28/64
f 25/29/65 28/30/66 30/26/67 29/25/68
f 30/26/69 28/30/70 27/31/71 31/27/72
f 27/31/73 26/32/74 32/28/75 31/27/76
f 29/25/77 32/28/78 26/32/79 25/29/80
f 37/33/81 38/34/82 39/35/83 40/36/84
f 33/37/85 36/38/86 38/34/87 37/33/88
f 38/34/89 36/38/90 35/39/91 39/35/92
f 35/39/93 34/40/94 40/36/95 39/35/96
f 37/33/97 40/36/98 34/40/99 33/37/100
f 45/41/101 46/42/102 47/43/103 48/44/104
f 41/45/105 44/46/106 46/42/107 45/41/108
f 46/42/109 44/46/110 43/47/111 47/43/112
f 43/47/113 42/48/114 48/44/115 47/43/116
f 45/41/117 48/44/118 42/48/119 41/45/120
