# This file uses meters as units for non-parametric coordinates.

v 51.281921 121.922043 -0.176096
v 61.744202 121.922043 -0.176096
v 51.281921 153.014084 -0.176096
v 61.744202 153.014084 -0.176096
v 51.281921 153.014084 -1.970355
v 61.744202 153.014084 -1.970355
v 51.281921 121.922043 -1.970355
v 61.744202 121.922043 -1.970355
v 59.651749 153.014084 -1.970355
v 59.651749 153.014084 1.891006
v 59.651749 121.922043 1.891006
v 59.651749 121.922043 -1.970355
v 53.374374 153.014084 -1.970355
v 53.374374 153.014084 1.891006
v 53.374374 121.922043 1.891006
v 53.374374 121.922043 -1.970355
v 58.102165 138.858521 6.294069
v 37.650764 138.858521 6.294069
v 58.102165 136.077591 6.294069
v 37.650764 136.077591 6.294069
v 58.102165 136.077591 4.727433
v 37.650764 136.077591 4.727433
v 58.102165 138.858521 4.727433
v 37.650764 138.858521 4.727433
v 54.011887 136.077591 6.294069
v 54.011887 136.077591 4.727433
v 54.011887 138.858521 4.727433
v 54.011887 138.858521 6.294069
v 54.011887 136.077591 -0.999428
v 54.011887 138.858521 -0.999428
v 58.102165 138.858521 -0.999428
v 58.102165 136.077591 -0.999428
vt 0.580860 0.101667
vt 0.582270 0.108181
vt 0.514399 0.108228
vt 0.515578 0.101680
vt 0.513544 0.111383
vt 0.509081 0.105584
vt 0.587539 0.105465
vt 0.583271 0.111374
vt 0.583242 0.079787
vt 0.582207 0.083164
vt 0.514118 0.083154
vt 0.513168 0.079780
vt 0.509021 0.085919
vt 0.515378 0.089913
vt 0.580865 0.089921
vt 0.587254 0.085910
vt 0.550365 0.090237
vt 0.570280 0.090043
vt 0.570280 0.100873
vt 0.550365 0.101067
vt 0.569235 0.100329
vt 0.549320 0.100524
vt 0.549320 0.089694
vt 0.569236 0.089499
vt 0.515059 0.089265
vt 0.514014 0.088722
vt 0.514014 0.099552
vt 0.515059 0.100095
vt 0.577270 0.085823
vt 0.577270 0.105589
vt 0.540923 0.086178
vt 0.540923 0.105943
vn 0.702784 0.000000 0.711403
vn 0.879208 0.000000 0.476439
vn 0.879208 0.000000 0.476439
vn 0.702784 0.000000 0.711403
vn 0.000000 1.000000 0.000000
vn 0.000000 1.000000 0.000000
vn 0.000000 1.000000 0.000000
vn 0.000000 1.000000 0.000000
vn 0.000000 -1.000000 0.000000
vn 0.000000 -1.000000 0.000000
vn 0.000000 -1.000000 0.000000
vn 0.000000 -1.000000 0.000000
vn 1.000000 0.000000 0.000000
vn 1.000000 0.000000 0.000000
vn -1.000000 0.000000 0.000000
vn -0.879208 0.000000 0.476439
vn -0.879208 0.000000 0.476439
vn -1.000000 0.000000 0.000000
vn 0.000000 1.000000 0.000000
vn 0.000000 1.000000 0.000000
vn 0.000000 0.000000 1.000000
vn 0.000000 0.000000 1.000000
vn 0.000000 0.000000 1.000000
vn 0.000000 0.000000 1.000000
vn 0.000000 -1.000000 0.000000
vn 0.000000 -1.000000 0.000000
vn 0.000000 1.000000 0.000000
vn 0.000000 1.000000 0.000000
vn -0.702784 0.000000 0.711403
vn -0.702784 0.000000 0.711403
vn 0.000000 -1.000000 0.000000
vn 0.000000 -1.000000 0.000000
vn 0.000000 0.000000 1.000000
vn 0.000000 0.000000 1.000000
vn 0.000000 0.000000 1.000000
vn 0.000000 0.000000 1.000000
vn 0.000000 -1.000000 0.000000
vn 0.000000 -1.000000 0.000000
vn 0.000000 -1.000000 0.000000
vn 0.000000 -1.000000 0.000000
vn 0.000000 1.000000 0.000000
vn 0.000000 1.000000 0.000000
vn 0.000000 1.000000 0.000000
vn 0.000000 1.000000 0.000000
vn -1.000000 0.000000 0.000000
vn -1.000000 0.000000 0.000000
vn -1.000000 0.000000 0.000000
vn -1.000000 0.000000 0.000000
vn 1.000000 0.000000 0.000000
vn 1.000000 0.000000 0.000000
vn 1.000000 0.000000 0.000000
vn 1.000000 0.000000 0.000000
vn 0.000000 -1.000000 0.000000
vn 0.000000 -1.000000 0.000000
vn 0.000000 0.000000 -1.000000
vn 0.000000 0.000000 -1.000000
vn 0.000000 0.000000 -1.000000
vn 0.000000 0.000000 -1.000000
vn 0.000000 1.000000 0.000000
vn 0.000000 1.000000 0.000000
vn 0.000000 0.000000 1.000000
vn 0.000000 0.000000 1.000000
vn -1.000000 0.000000 0.000000
vn -1.000000 0.000000 0.000000
vn -1.000000 0.000000 0.000000
vn -1.000000 0.000000 0.000000
vn 0.000000 1.000000 0.000000
vn 0.000000 1.000000 0.000000
vn 0.000000 1.000000 0.000000
vn 0.000000 1.000000 0.000000
vn 1.000000 0.000000 0.000000
vn 1.000000 0.000000 0.000000
vn 1.000000 0.000000 0.000000
vn 1.000000 0.000000 0.000000
vn 0.000000 -1.000000 0.000000
vn 0.000000 -1.000000 0.000000
vn 0.000000 -1.000000 0.000000
vn 0.000000 -1.000000 0.000000
f 11/1/1 2/2/2 4/3/3 10/4/4
f 10/4/5 4/3/6 6/5/7 9/6/8
f 12/7/9 8/8/10 2/2/11 11/1/12
f 2/2/2 8/8/13 6/5/14 4/3/3
f 7/9/15 1/10/16 3/11/17 5/12/18
f 10/4/5 9/6/8 13/13/19 14/14/20
f 11/1/21 10/4/22 14/14/23 15/15/24
f 16/16/25 12/7/9 11/1/12 15/15/26
f 3/11/27 14/14/20 13/13/19 5/12/28
f 1/10/16 15/15/29 14/14/30 3/11/17
f 7/9/31 16/16/25 15/15/26 1/10/32
f 17/17/33 28/18/34 25/19/35 19/20/36
f 19/20/37 25/19/38 26/21/39 21/22/40
f 23/23/41 27/24/42 28/18/43 17/17/44
f 18/25/45 24/26/46 22/27/47 20/28/48
f 23/23/49 17/17/50 19/20/51 21/22/52
f 22/27/53 26/21/39 25/19/38 20/28/54
f 24/26/55 27/24/56 26/21/57 22/27/58
f 18/25/59 28/18/43 27/24/42 24/26/60
f 20/28/61 25/19/35 28/18/34 18/25/62
f 26/21/63 27/24/64 30/29/65 29/30/66
f 27/24/67 23/23/68 31/31/69 30/29/70
f 23/23/71 21/22/72 32/32/73 31/31/74
f 21/22/75 26/21/76 29/30/77 32/32/78
