# This file uses meters as units for non-parametric coordinates.

v -20.610420 292.518036 -14.004515
v -65.904900 335.699280 -14.004515
v 65.904900 335.699280 -14.004515
v 20.610413 292.518066 -14.004515
v -20.610420 167.849640 -14.004515
v -65.904900 167.849640 -14.004515
v -65.904900 0.000000 -14.004515
v -20.610420 45.393543 -14.004515
v -20.610420 292.518036 -1.858817
v -65.904900 335.699280 -1.858817
v -65.904900 167.849640 -1.858817
v -20.610420 167.849640 -1.858817
v 65.904900 335.699280 -1.858817
v 65.904900 167.849640 -1.858817
v -65.904900 0.000000 -1.858817
v -20.610420 45.393543 -1.858817
v 65.904900 0.000000 -1.858817
v 20.610413 45.393543 -1.858817
v 65.904900 0.000000 -14.004515
v 65.904900 167.849640 -14.004515
v 20.610413 167.849640 -1.858817
v 20.610413 167.849640 -14.004515
v 20.610413 45.393543 -14.004515
v 20.610413 292.518066 -1.858817
vt 0.640339 0.017836
vt 0.640339 0.038120
vt 0.640339 0.038120
vt 0.640339 0.052787
vt 0.741787 0.052787
vt 0.741787 0.038120
vt 0.741787 0.053204
vt 0.640339 0.052787
vt 0.640339 0.052787
vt 0.640339 0.053204
vt 0.741787 0.018077
vt 0.741787 0.052787
vt 0.741787 0.053204
vt 0.741787 0.018077
vt 0.640339 0.018077
vt 0.741787 0.017836
vt 0.640339 0.053204
vt 0.640339 0.052787
vt 0.640339 0.038120
vt 0.741787 0.038120
vt 0.741787 0.052787
vt 0.741787 0.052787
vt 0.640339 0.017836
vt 0.741787 0.017836
vt 0.640339 0.052787
vt 0.640339 0.018077
vt 0.640339 0.052787
vt 0.640339 0.053204
vt 0.640339 0.038120
vt 0.640338 0.038216
vt 0.741787 0.038216
vt 0.640339 0.018077
vt 0.640339 0.017836
vt 0.640339 0.052787
vt 0.741787 0.053204
vt 0.640339 0.018077
vt 0.640339 0.017836
vt 0.741787 0.017836
vt 0.741787 0.017836
vt 0.640339 0.052787
vn 0.000000 0.000000 -1.000000
vn 0.000000 0.000000 -1.000000
vn -0.000000 0.000000 -1.000000
vn -0.000000 0.000000 -1.000000
vn 0.000000 0.000000 -1.000000
vn 0.000000 0.000000 -1.000000
vn 0.000000 0.000000 -1.000000
vn 0.000000 0.000000 -1.000000
vn -0.000000 0.000000 1.000000
vn -0.000000 0.000000 1.000000
vn -0.000000 0.000000 1.000000
vn -0.000000 0.000000 1.000000
vn 0.000000 1.000000 0.000000
vn 0.000000 1.000000 0.000000
vn 0.000000 1.000000 0.000000
vn 0.000000 1.000000 0.000000
vn 1.000000 0.000000 0.000000
vn 1.000000 0.000000 0.000000
vn 1.000000 0.000000 0.000000
vn 1.000000 0.000000 0.000000
vn -1.000000 0.000000 0.000000
vn -1.000000 0.000000 0.000000
vn -1.000000 0.000000 0.000000
vn -1.000000 0.000000 0.000000
vn -1.000000 0.000000 0.000000
vn -1.000000 0.000000 0.000000
vn -0.000000 -0.000000 1.000000
vn -0.000000 -0.000000 1.000000
vn 0.000000 -0.000000 1.000000
vn 0.000000 -0.000000 1.000000
vn 1.000000 0.000000 0.000000
vn 1.000000 0.000000 0.000000
vn 0.000000 0.000000 1.000000
vn 0.000000 0.000000 1.000000
vn -0.000000 0.000000 -1.000000
vn -0.000000 0.000000 -1.000000
vn -0.000000 0.000000 -1.000000
vn -0.000000 0.000000 -1.000000
vn 0.000000 0.000000 1.000000
vn 0.000000 0.000000 1.000000
f 1/1/1 2/30/2 3/31/3 4/39/4
f 1/40/1 5/5/5 6/6/6 2/2/2
f 7/29/7 6/6/6 5/5/5 8/8/8
f 9/9/9 10/36/10 11/11/11 12/12/12
f 10/10/13 13/13/14 3/31/15 2/30/16
f 13/26/17 14/14/18 20/20/19 3/3/20
f 11/11/21 10/36/22 2/2/23 6/6/24
f 7/29/25 15/15/26 11/11/21 6/6/24
f 16/16/27 15/35/28 17/17/29 18/33/30
f 14/14/18 17/32/31 19/19/32 20/20/19
f 18/18/30 17/32/29 14/14/33 21/21/34
f 3/3/3 20/20/35 22/22/36 4/4/4
f 23/27/37 22/22/36 20/20/35 19/19/38
f 19/28/38 7/7/7 8/38/8 23/23/37
f 11/11/11 15/15/28 16/34/27 12/12/12
f 10/10/10 9/37/9 24/24/39 13/13/40
f 14/14/33 13/26/40 24/25/39 21/21/34
