# This file uses meters as units for non-parametric coordinates.

v 60.827084 137.260910 -13.712887
v 58.888817 139.199173 -13.712883
v 56.241100 139.908630 -13.712883
v 53.593384 139.199173 -13.712883
v 51.655121 137.260910 -13.712887
v 50.945663 134.613190 -13.712886
v 51.655121 131.965485 -13.712887
v 53.593384 130.027206 -13.712883
v 56.241100 129.317764 -13.712883
v 58.888817 130.027206 -13.712883
v 60.827084 131.965485 -13.712887
v 61.536537 134.613190 -13.712886
v 60.827084 137.260910 -2.945152
v 58.888817 139.199188 -2.945152
v 56.241100 139.908630 -2.945152
v 53.593384 139.199188 -2.945152
v 51.655121 137.260910 -2.945152
v 50.945663 134.613190 -2.945152
v 51.655121 131.965485 -2.945152
v 53.593384 130.027222 -2.945152
v 56.241100 129.317764 -2.945152
v 58.888817 130.027222 -2.945152
v 60.827084 131.965485 -2.945152
v 61.536537 134.613190 -2.945152
v 56.241100 134.613190 -13.712886
v 56.241100 134.613190 -2.945152
vt 0.686436 0.142988
vt 0.677101 0.133653
vt 0.664350 0.130236
vt 0.651598 0.133653
vt 0.642263 0.142988
vt 0.638847 0.155739
vt 0.642263 0.168491
vt 0.651598 0.177825
vt 0.664350 0.181242
vt 0.677101 0.177825
vt 0.686436 0.168491
vt 0.689852 0.155739
vt 0.715113 0.132715
vt 0.715113 0.136664
vt 0.715113 0.140613
vt 0.715113 0.144562
vt 0.715113 0.148512
vt 0.715113 0.152461
vt 0.715113 0.156410
vt 0.715113 0.160359
vt 0.715113 0.164308
vt 0.715113 0.168257
vt 0.715113 0.172206
vt 0.715113 0.176155
vt 0.715113 0.180104
vt 0.643851 0.132715
vt 0.643851 0.136664
vt 0.643851 0.140613
vt 0.643851 0.144562
vt 0.643852 0.148512
vt 0.643851 0.152461
vt 0.643851 0.156410
vt 0.643851 0.160359
vt 0.643851 0.164308
vt 0.643851 0.168257
vt 0.643851 0.172206
vt 0.643851 0.176155
vt 0.643851 0.180104
vt 0.693209 0.142136
vt 0.683669 0.132596
vt 0.670636 0.129104
vt 0.657604 0.132596
vt 0.648064 0.142136
vt 0.644572 0.155168
vt 0.648064 0.168201
vt 0.657604 0.177741
vt 0.670636 0.181233
vt 0.683669 0.177741
vt 0.693209 0.168201
vt 0.696701 0.155168
vt 0.664350 0.154719
vt 0.670636 0.154126
vn 0.866026 0.499999 0.000000
vn 0.500001 0.866025 -0.000001
vn 0.500000 0.866025 -0.000001
vn 0.866026 0.499999 0.000000
vn -0.000000 1.000000 -0.000002
vn -0.000000 1.000000 -0.000002
vn -0.500001 0.866025 -0.000001
vn -0.500000 0.866025 -0.000001
vn -0.866026 0.499999 0.000000
vn -0.866026 0.499999 0.000000
vn -1.000000 -0.000000 0.000000
vn -1.000000 -0.000000 0.000000
vn -0.866025 -0.500000 0.000001
vn -0.866025 -0.500000 0.000001
vn -0.500000 -0.866025 0.000001
vn -0.500001 -0.866025 0.000001
vn -0.000000 -1.000000 0.000000
vn -0.000000 -1.000000 0.000000
vn 0.500000 -0.866025 0.000001
vn 0.500001 -0.866025 0.000001
vn 0.866025 -0.500000 0.000001
vn 0.866025 -0.500000 0.000001
vn 1.000000 0.000000 0.000000
vn 1.000000 0.000000 0.000000
vn 0.000000 0.000001 -1.000000
vn 0.000000 0.000000 -1.000000
vn 0.000000 -0.000000 -1.000000
vn 0.000000 0.000001 -1.000000
vn 0.000000 0.000001 -1.000000
vn 0.000000 0.000000 -1.000000
vn 0.000000 -0.000000 -1.000000
vn 0.000000 -0.000000 -1.000000
vn 0.000000 -0.000001 -1.000000
vn 0.000000 -0.000001 -1.000000
vn 0.000000 -0.000001 -1.000000
vn 0.000000 -0.000000 -1.000000
vn 0.000000 -0.000000 -1.000000
vn 0.000000 0.000000 1.000000
vn 0.000000 0.000000 1.000000
vn 0.000000 0.000000 1.000000
vn 0.000000 0.000000 1.000000
vn 0.000000 0.000000 1.000000
vn 0.000000 0.000000 1.000000
vn 0.000000 0.000000 1.000000
vn -0.000000 -0.000000 1.000000
vn -0.000000 -0.000000 1.000000
vn 0.000000 -0.000000 1.000000
vn 0.000000 -0.000000 1.000000
vn 0.000000 -0.000000 1.000000
vn 0.000000 0.000000 1.000000
f 1/13/1 2/14/2 14/27/3 13/26/4
f 2/14/2 3/15/5 15/28/6 14/27/3
f 3/15/5 4/16/7 16/29/8 15/28/6
f 4/16/7 5/17/9 17/30/10 16/29/8
f 5/17/9 6/18/11 18/31/12 17/30/10
f 6/18/11 7/19/13 19/32/14 18/31/12
f 7/19/13 8/20/15 20/33/16 19/32/14
f 8/20/15 9/21/17 21/34/18 20/33/16
f 9/21/17 10/22/19 22/35/20 21/34/18
f 10/22/19 11/23/21 23/36/22 22/35/20
f 11/23/21 12/24/23 24/37/24 23/36/22
f 12/24/23 1/25/1 13/38/4 24/37/24
f 2/2/25 1/1/26 25/51/27
f 3/3/28 2/2/25 25/51/27
f 4/4/29 3/3/28 25/51/27
f 5/5/30 4/4/29 25/51/27
f 6/6/31 5/5/30 25/51/27
f 7/7/32 6/6/31 25/51/27
f 8/8/33 7/7/32 25/51/27
f 9/9/34 8/8/33 25/51/27
f 10/10/35 9/9/34 25/51/27
f 11/11/36 10/10/35 25/51/27
f 12/12/37 11/11/36 25/51/27
f 1/1/26 12/12/37 25/51/27
f 13/49/38 14/48/39 26/52/40
f 14/48/39 15/47/41 26/52/40
f 15/47/41 16/46/42 26/52/40
f 16/46/42 17/45/43 26/52/40
f 17/45/43 18/44/44 26/52/40
f 18/44/44 19/43/45 26/52/40
f 19/43/45 20/42/46 26/52/40
f 20/42/46 21/41/47 26/52/40
f 21/41/47 22/40/48 26/52/40
f 22/40/48 23/39/49 26/52/40
f 23/39/49 24/50/50 26/52/40
f 24/50/50 13/49/38 26/52/40
