# This file uses meters as units for non-parametric coordinates.

v -34.151108 26.461382 -3.015679
v -34.151108 0.000000 -3.015679
v 34.151108 0.000000 -3.015679
v 34.151108 26.461382 -3.015679
v -34.151108 0.000000 -12.847653
v -34.151108 26.461382 -12.847653
v 34.151108 26.461382 -12.847653
v 34.151108 0.000000 -12.847653
v -34.151108 311.301392 -3.015679
v -34.151108 335.699280 -3.015679
v 34.151108 335.699280 -3.015679
v 34.151108 311.301392 -3.015679
v -34.151108 311.301392 -12.847653
v -34.151108 335.699280 -12.847653
v 34.151108 335.699280 -12.847653
v 34.151108 311.301392 -12.847653
vt 0.511345 0.119601
vt 0.511345 0.069809
vt 0.610157 0.069809
vt 0.610157 0.119601
vt 0.616932 0.123035
vt 0.616932 0.066375
vt 0.504492 0.066375
vt 0.504492 0.123035
vt 0.511345 0.119601
vt 0.610157 0.119601
vt 0.610118 0.119601
vt 0.511306 0.119601
vt 0.504492 0.066375
vt 0.616932 0.066375
vt 0.610157 0.069809
vt 0.511345 0.069809
vn 0.000000 0.000000 1.000000
vn 0.000000 0.000000 1.000000
vn 0.000000 0.000000 1.000000
vn 0.000000 0.000000 1.000000
vn 0.000000 0.000000 -1.000000
vn 0.000000 0.000000 -1.000000
vn 0.000000 0.000000 -1.000000
vn 0.000000 0.000000 -1.000000
vn 0.000000 1.000000 0.000000
vn 0.000000 1.000000 0.000000
vn 0.000000 1.000000 0.000000
vn 0.000000 1.000000 0.000000
vn -1.000000 0.000000 0.000000
vn -1.000000 0.000000 0.000000
vn -1.000000 0.000000 0.000000
vn -1.000000 0.000000 0.000000
vn 1.000000 0.000000 0.000000
vn 1.000000 0.000000 0.000000
vn 1.000000 0.000000 0.000000
vn 1.000000 0.000000 0.000000
vn 0.000000 1.000000 0.000000
vn 0.000000 1.000000 0.000000
vn 0.000000 1.000000 0.000000
vn 0.000000 1.000000 0.000000
vn 0.000000 -1.000000 0.000000
vn 0.000000 -1.000000 0.000000
vn 0.000000 -1.000000 0.000000
vn 0.000000 -1.000000 0.000000
vn 0.000000 0.000000 1.000000
vn 0.000000 0.000000 1.000000
vn 0.000000 0.000000 1.000000
vn 0.000000 0.000000 1.000000
vn 0.000000 0.000000 -1.000000
vn 0.000000 0.000000 -1.000000
vn 0.000000 0.000000 -1.000000
vn 0.000000 0.000000 -1.000000
vn 1.000000 0.000000 0.000000
vn 1.000000 0.000000 0.000000
vn 1.000000 0.000000 0.000000
vn 1.000000 0.000000 0.000000
vn -1.000000 0.000000 0.000000
vn -1.000000 0.000000 0.000000
vn -1.000000 0.000000 0.000000
vn -1.000000 0.000000 0.000000
f 1/1/1 2/2/2 3/3/3 4/4/4
f 7/5/5 8/6/6 5/7/7 6/8/8
f 7/5/9 6/8/10 1/1/11 4/4/12
f 2/2/13 1/1/14 6/8/15 5/7/16
f 4/4/17 3/3/18 8/6/19 7/5/20
f 10/9/21 11/10/22 15/11/23 14/12/24
f 13/13/25 16/14/26 12/15/27 9/16/28
f 10/9/29 9/16/30 12/15/31 11/10/32
f 14/12/33 15/11/34 16/14/35 13/13/36
f 15/11/37 11/10/38 12/15/39 16/14/40
f 10/9/41 14/12/42 13/13/43 9/16/44
