# This file uses meters as units for non-parametric coordinates.

v -24.219604 41.424824 -3.742338
v 23.719467 41.424824 -3.742338
v -24.219604 44.613544 -3.742338
v 23.719467 44.613544 -3.742338
v -24.219604 44.613544 -11.692719
v 23.719467 44.613544 -11.692719
v -24.219604 41.424824 -11.692719
v 23.719467 41.424824 -11.692719
v -24.219604 91.424820 -3.742338
v 23.719467 91.424820 -3.742338
v -24.219604 94.613541 -3.742338
v 23.719467 94.613541 -3.742338
v -24.219604 94.613541 -11.692719
v 23.719467 94.613541 -11.692719
v -24.219604 91.424820 -11.692719
v 23.719467 91.424820 -11.692719
v -24.219604 141.424820 -3.742338
v 23.719467 141.424820 -3.742338
v -24.219604 144.613541 -3.742338
v 23.719467 144.613541 -3.742338
v -24.219604 144.613541 -11.692719
v 23.719467 144.613541 -11.692719
v -24.219604 141.424820 -11.692719
v 23.719467 141.424820 -11.692719
v -24.219604 191.424820 -3.742338
v 23.719467 191.424820 -3.742338
v -24.219604 194.613541 -3.742338
v 23.719467 194.613541 -3.742338
v -24.219604 194.613541 -11.692719
v 23.719467 194.613541 -11.692719
v -24.219604 191.424820 -11.692719
v 23.719467 191.424820 -11.692719
v -24.219604 241.424820 -3.742338
v 23.719467 241.424820 -3.742338
v -24.219604 244.613541 -3.742338
v 23.719467 244.613541 -3.742338
v -24.219604 244.613541 -11.692719
v 23.719467 244.613541 -11.692719
v -24.219604 241.424820 -11.692719
v 23.719467 241.424820 -11.692719
v -24.219604 291.424835 -3.742338
v 23.719467 291.424835 -3.742338
v -24.219604 294.613556 -3.742338
v 23.719467 294.613556 -3.742338
v -24.219604 294.613556 -11.692719
v 23.719467 294.613556 -11.692719
v -24.219604 291.424835 -11.692719
v 23.719467 291.424835 -11.692719
vt 0.511818 0.077561
vt 0.569342 0.077561
vt 0.569157 0.089256
vt 0.512004 0.089256
vt 0.569147 0.112316
vt 0.512014 0.112316
vt 0.569142 0.100537
vt 0.512019 0.100537
vt 0.569052 0.077498
vt 0.512109 0.077498
vt 0.511818 0.077561
vt 0.569342 0.077561
vt 0.569157 0.089256
vt 0.512004 0.089256
vt 0.569147 0.112316
vt 0.512014 0.112316
vt 0.569142 0.100537
vt 0.512019 0.100537
vt 0.569052 0.077498
vt 0.512109 0.077498
vt 0.511818 0.077561
vt 0.569342 0.077561
vt 0.569157 0.089256
vt 0.512004 0.089256
vt 0.569147 0.112316
vt 0.512014 0.112316
vt 0.569142 0.100537
vt 0.512019 0.100537
vt 0.569052 0.077498
vt 0.512109 0.077498
vt 0.511818 0.077561
vt 0.569342 0.077561
vt 0.569157 0.089256
vt 0.512004 0.089256
vt 0.569147 0.112316
vt 0.512014 0.112316
vt 0.569142 0.100537
vt 0.512019 0.100537
vt 0.569052 0.077498
vt 0.512109 0.077498
vt 0.511818 0.077561
vt 0.569342 0.077561
vt 0.569157 0.089256
vt 0.512004 0.089256
vt 0.569147 0.112316
vt 0.512014 0.112316
vt 0.569142 0.100537
vt 0.512019 0.100537
vt 0.569052 0.077498
vt 0.512109 0.077498
vt 0.511818 0.077561
vt 0.569342 0.077561
vt 0.569157 0.089256
vt 0.512004 0.089256
vt 0.569147 0.112316
vt 0.512014 0.112316
vt 0.569142 0.100537
vt 0.512019 0.100537
vt 0.569052 0.077498
vt 0.512109 0.077498
vn 0.000000 0.000000 1.000000
vn 0.000000 0.000000 1.000000
vn 0.000000 0.000000 1.000000
vn 0.000000 0.000000 1.000000
vn 0.000000 1.000000 0.000000
vn 0.000000 1.000000 0.000000
vn 0.000000 1.000000 0.000000
vn 0.000000 1.000000 0.000000
vn 0.000000 0.000000 -1.000000
vn 0.000000 0.000000 -1.000000
vn 0.000000 0.000000 -1.000000
vn 0.000000 0.000000 -1.000000
vn 0.000000 -1.000000 0.000000
vn 0.000000 -1.000000 0.000000
vn 0.000000 -1.000000 0.000000
vn 0.000000 -1.000000 0.000000
vn 0.000000 0.000000 1.000000
vn 0.000000 0.000000 1.000000
vn 0.000000 0.000000 1.000000
vn 0.000000 0.000000 1.000000
vn 0.000000 1.000000 0.000000
vn 0.000000 1.000000 0.000000
vn 0.000000 1.000000 0.000000
vn 0.000000 1.000000 0.000000
vn 0.000000 0.000000 -1.000000
vn 0.000000 0.000000 -1.000000
vn 0.000000 0.000000 -1.000000
vn 0.000000 0.000000 -1.000000
vn 0.000000 -1.000000 0.000000
vn 0.000000 -1.000000 0.000000
vn 0.000000 -1.000000 0.000000
vn 0.000000 -1.000000 0.000000
vn 0.000000 0.000000 1.000000
vn 0.000000 0.000000 1.000000
vn 0.000000 0.000000 1.000000
vn 0.000000 0.000000 1.000000
vn 0.000000 1.000000 0.000000
vn 0.000000 1.000000 0.000000
vn 0.000000 1.000000 0.000000
vn 0.000000 1.000000 0.000000
vn 0.000000 0.000000 -1.000000
vn 0.000000 0.000000 -1.000000
vn 0.000000 0.000000 -1.000000
vn 0.000000 0.000000 -1.000000
vn 0.000000 -1.000000 0.000000
vn 0.000000 -1.000000 0.000000
vn 0.000000 -1.000000 0.000000
vn 0.000000 -1.000000 0.000000
vn 0.000000 0.000000 1.000000
vn 0.000000 0.000000 1.000000
vn 0.000000 0.000000 1.000000
vn 0.000000 0.000000 1.000000
vn 0.000000 1.000000 0.000000
vn 0.000000 1.000000 0.000000
vn 0.000000 1.000000 0.000000
vn 0.000000 1.000000 0.000000
vn 0.000000 0.000000 -1.000000
vn 0.000000 0.000000 -1.000000
vn 0.000000 0.000000 -1.000000
vn 0.000000 0.000000 -1.000000
vn 0.000000 -1.000000 0.000000
vn 0.000000 -1.000000 0.000000
vn 0.000000 -1.000000 0.000000
vn 0.000000 -1.000000 0.000000
vn 0.000000 0.000000 1.000000
vn 0.000000 0.000000 1.000000
vn 0.000000 0.000000 1.000000
vn 0.000000 0.000000 1.000000
vn 0.000000 1.000000 0.000000
vn 0.000000 1.000000 0.000000
vn 0.000000 1.000000 0.000000
vn 0.000000 1.000000 0.000000
vn 0.000000 0.000000 -1.000000
vn 0.000000 0.000000 -1.000000
vn 0.000000 0.000000 -1.000000
vn 0.000000 0.000000 -1.000000
vn 0.000000 -1.000000 0.000000
vn 0.000000 -1.000000 0.000000
vn 0.000000 -1.000000 0.000000
vn 0.000000 -1.000000 0.000000
vn 0.000000 0.000000 1.000000
vn 0.000000 0.000000 1.000000
vn 0.000000 0.000000 1.000000
vn 0.000000 0.000000 1.000000
vn 0.000000 1.000000 0.000000
vn 0.000000 1.000000 0.000000
vn 0.000000 1.000000 0.000000
vn 0.000000 1.000000 0.000000
vn 0.000000 0.000000 -1.000000
vn 0.000000 0.000000 -1.000000
vn 0.000000 0.000000 -1.000000
vn 0.000000 0.000000 -1.000000
vn 0.000000 -1.000000 0.000000
vn 0.000000 -1.000000 0.000000
vn 0.000000 -1.000000 0.000000
vn 0.000000 -1.000000 0.000000
f 1/1/1 2/2/2 4/3/3 3/4/4
f 3/4/5 4/3/6 6/5/7 5/6/8
f 5/6/9 6/5/10 8/7/11 7/8/12
f 7/8/13 8/7/14 2/9/15 1/10/16
f 9/11/17 10/12/18 12/13/19 11/14/20
f 11/14/21 12/13/22 14/15/23 13/16/24
f 13/16/25 14/15/26 16/17/27 15/18/28
f 15/18/29 16/17/30 10/19/31 9/20/32
f 17/21/33 18/22/34 20/23/35 19/24/36
f 19/24/37 20/23/38 22/25/39 21/26/40
f 21/26/41 22/25/42 24/27/43 23/28/44
f 23/28/45 24/27/46 18/29/47 17/30/48
f 25/31/49 26/32/50 28/33/51 27/34/52
f 27/34/53 28/33/54 30/35/55 29/36/56
f 29/36/57 30/35/58 32/37/59 31/38/60
f 31/38/61 32/37/62 26/39/63 25/40/64
f 33/41/65 34/42/66 36/43/67 35/44/68
f 35/44/69 36/43/70 38/45/71 37/46/72
f 37/46/73 38/45/74 40/47/75 39/48/76
f 39/48/77 40/47/78 34/49/79 33/50/80
f 41/51/81 42/52/82 44/53/83 43/54/84
f 43/54/85 44/53/86 46/55/87 45/56/88
f 45/56/89 46/55/90 48/57/91 47/58/92
f 47/58/93 48/57/94 42/59/95 41/60/96
