# This file uses meters as units for non-parametric coordinates.

v -19.751282 95.155113 -3.742338
v 19.751282 95.155113 -3.742338
v -19.751282 98.343834 -3.742338
v 19.751282 98.343834 -3.742338
v -19.751282 98.343834 -11.692719
v 19.751282 98.343834 -11.692719
v -19.751282 95.155113 -11.692719
v 19.751282 95.155113 -11.692719
v -19.751282 145.155121 -3.742338
v 19.751282 145.155121 -3.742338
v -19.751282 148.343842 -3.742338
v 19.751282 148.343842 -3.742338
v -19.751282 148.343842 -11.692719
v 19.751282 148.343842 -11.692719
v -19.751282 145.155121 -11.692719
v 19.751282 145.155121 -11.692719
v -19.751282 195.155121 -3.742338
v 19.751282 195.155121 -3.742338
v -19.751282 198.343842 -3.742338
v 19.751282 198.343842 -3.742338
v -19.751282 198.343842 -11.692719
v 19.751282 198.343842 -11.692719
v -19.751282 195.155121 -11.692719
v 19.751282 195.155121 -11.692719
v -19.751282 245.155121 -3.742338
v 19.751282 245.155121 -3.742338
v -19.751282 248.343842 -3.742338
v 19.751282 248.343842 -3.742338
v -19.751282 248.343842 -11.692719
v 19.751282 248.343842 -11.692719
v -19.751282 245.155121 -11.692719
v 19.751282 245.155121 -11.692719
v -19.994667 291.902283 -15.851772
v -25.559904 298.350983 -16.046734
v 25.559902 298.350983 -16.046734
v 19.994661 291.902313 -15.851772
v -19.166353 167.849640 -15.448582
v -25.559904 167.849640 -16.046734
v -25.559904 38.582085 -16.046734
v -19.994667 46.009296 -15.851772
v -19.994667 291.902283 -0.011560
v -25.559904 298.350983 0.183403
v -25.559904 167.849640 0.183403
v -19.166353 167.849640 -0.414750
v -19.994667 46.009296 -0.011560
v -25.559904 38.582085 0.183403
v 25.559902 38.582085 0.183403
v 19.994659 46.009296 -0.011560
v 25.559902 167.849640 0.183403
v 19.166346 167.849640 -0.414750
v 25.559902 167.849640 -16.046734
v 19.166346 167.849640 -15.448582
v 19.994659 46.009296 -15.851772
v 25.559902 38.582085 -16.046734
v 19.994661 291.902313 -0.011560
v 25.559902 298.350983 0.183403
v -25.559904 298.350983 -14.004515
v 25.559902 298.350983 -14.004515
v -25.559904 167.849640 -14.004515
v -25.559904 38.582085 -14.004515
v -25.559904 298.350983 -1.858817
v -25.559904 167.849640 -1.858817
v -25.559904 38.582085 -1.858817
v 25.559902 38.582085 -1.858817
v 25.559902 167.849640 -1.858817
v 25.559902 167.849640 -14.004515
v 25.559902 38.582085 -14.004515
v 25.559902 298.350983 -1.858817
vt 0.636818 0.009876
vt 0.694342 0.009875
vt 0.637004 0.024084
vt 0.694157 0.024085
vt 0.637014 0.052101
vt 0.694147 0.052101
vt 0.637019 0.037791
vt 0.694142 0.037791
vt 0.637109 0.009799
vt 0.694052 0.009799
vt 0.636818 0.009876
vt 0.694342 0.009875
vt 0.694157 0.024085
vt 0.637004 0.024084
vt 0.694147 0.052101
vt 0.637014 0.052101
vt 0.694142 0.037791
vt 0.637019 0.037791
vt 0.694052 0.009799
vt 0.637109 0.009799
vt 0.636818 0.009876
vt 0.694342 0.009875
vt 0.694157 0.024085
vt 0.637004 0.024084
vt 0.694147 0.052101
vt 0.637014 0.052101
vt 0.694142 0.037791
vt 0.637019 0.037791
vt 0.694052 0.009799
vt 0.637109 0.009799
vt 0.636818 0.009876
vt 0.694342 0.009875
vt 0.694157 0.024085
vt 0.637004 0.024084
vt 0.694147 0.052101
vt 0.637014 0.052101
vt 0.694142 0.037791
vt 0.637019 0.037791
vt 0.694052 0.009799
vt 0.637109 0.009799
vt 0.652360 0.041114
vt 0.641549 0.016207
vt 0.640531 0.015779
vt 0.661352 0.038946
vt 0.726196 0.042786
vt 0.725817 0.016207
vt 0.730988 0.011945
vt 0.661011 0.039357
vt 0.661316 0.038667
vt 0.642593 0.013840
vt 0.727489 0.015500
vt 0.727432 0.042131
vt 0.662313 0.038667
vt 0.640837 0.015500
vt 0.641858 0.016487
vt 0.663610 0.039637
vt 0.726339 0.016487
vt 0.726418 0.043066
vt 0.728011 0.015779
vt 0.727654 0.042411
vt 0.653385 0.038501
vt 0.643901 0.012011
vt 0.660050 0.039637
vt 0.638859 0.016486
vt 0.641336 0.016118
vt 0.729932 0.015548
vt 0.726027 0.016118
vt 0.731024 0.012200
vt 0.642629 0.014096
vt 0.727279 0.015589
vt 0.640626 0.015589
vt 0.644154 0.013785
vt 0.726549 0.016397
vt 0.727801 0.015868
vt 0.640376 0.015868
vt 0.639069 0.016397
vt 0.720202 0.039492
vt 0.729679 0.013774
vt 0.729716 0.014029
vt 0.652077 0.039534
vt 0.662636 0.039357
vt 0.720485 0.041072
vt 0.721793 0.040039
vt 0.721510 0.038459
vt 0.653668 0.040081
vt 0.662290 0.038947
vt 0.640163 0.015779
vt 0.643937 0.012267
vt 0.644190 0.014041
vt 0.641645 0.016398
vt 0.731277 0.013974
vt 0.731241 0.013719
vt 0.639854 0.015500
vt 0.640067 0.015589
vt 0.639164 0.016207
vt 0.639375 0.016118
vt 0.729969 0.015803
vt 0.640321 0.015868
vt 0.642882 0.015870
vt 0.642846 0.015615
vn 0.000000 0.000000 1.000000
vn 0.000000 0.000000 1.000000
vn 0.000000 0.000000 1.000000
vn 0.000000 0.000000 1.000000
vn 0.000000 1.000000 0.000000
vn 0.000000 1.000000 0.000000
vn 0.000000 1.000000 0.000000
vn 0.000000 1.000000 0.000000
vn 0.000000 0.000000 -1.000000
vn 0.000000 0.000000 -1.000000
vn 0.000000 0.000000 -1.000000
vn 0.000000 0.000000 -1.000000
vn 0.000000 -1.000000 0.000000
vn 0.000000 -1.000000 0.000000
vn 0.000000 -1.000000 0.000000
vn 0.000000 -1.000000 0.000000
vn 0.000000 0.000000 1.000000
vn 0.000000 0.000000 1.000000
vn 0.000000 0.000000 1.000000
vn 0.000000 0.000000 1.000000
vn 0.000000 1.000000 0.000000
vn 0.000000 1.000000 0.000000
vn 0.000000 1.000000 0.000000
vn 0.000000 1.000000 0.000000
vn 0.000000 0.000000 -1.000000
vn 0.000000 0.000000 -1.000000
vn 0.000000 0.000000 -1.000000
vn 0.000000 0.000000 -1.000000
vn 0.000000 -1.000000 0.000000
vn 0.000000 -1.000000 0.000000
vn 0.000000 -1.000000 0.000000
vn 0.000000 -1.000000 0.000000
vn 0.000000 0.000000 1.000000
vn 0.000000 0.000000 1.000000
vn 0.000000 0.000000 1.000000
vn 0.000000 0.000000 1.000000
vn 0.000000 1.000000 0.000000
vn 0.000000 1.000000 0.000000
vn 0.000000 1.000000 0.000000
vn 0.000000 1.000000 0.000000
vn 0.000000 0.000000 -1.000000
vn 0.000000 0.000000 -1.000000
vn 0.000000 0.000000 -1.000000
vn 0.000000 0.000000 -1.000000
vn 0.000000 -1.000000 0.000000
vn 0.000000 -1.000000 0.000000
vn 0.000000 -1.000000 0.000000
vn 0.000000 -1.000000 0.000000
vn 0.000000 0.000000 1.000000
vn 0.000000 0.000000 1.000000
vn 0.000000 0.000000 1.000000
vn 0.000000 0.000000 1.000000
vn 0.000000 1.000000 0.000000
vn 0.000000 1.000000 0.000000
vn 0.000000 1.000000 0.000000
vn 0.000000 1.000000 0.000000
vn 0.000000 0.000000 -1.000000
vn 0.000000 0.000000 -1.000000
vn 0.000000 0.000000 -1.000000
vn 0.000000 0.000000 -1.000000
vn 0.000000 -1.000000 0.000000
vn 0.000000 -1.000000 0.000000
vn 0.000000 -1.000000 0.000000
vn 0.000000 -1.000000 0.000000
vn 0.048082 -0.009036 -0.998803
vn 0.044677 -0.010538 -0.998946
vn -0.044678 -0.010538 -0.998946
vn -0.048082 -0.009036 -0.998803
vn 0.065380 -0.000000 -0.997860
vn 0.065380 -0.000000 -0.997861
vn 0.039605 0.011186 -0.999153
vn 0.046734 0.008471 -0.998872
vn 0.048082 -0.009036 0.998803
vn 0.044677 -0.010539 0.998946
vn 0.065380 0.000000 0.997860
vn 0.065380 -0.000000 0.997860
vn 0.046734 0.008471 0.998871
vn 0.039605 0.011186 0.999153
vn -0.039605 0.011186 0.999153
vn -0.046734 0.008471 0.998872
vn -0.065380 0.000000 0.997861
vn -0.065380 -0.000000 0.997861
vn -0.065380 0.000000 -0.997861
vn -0.065380 -0.000000 -0.997861
vn -0.046734 0.008471 -0.998872
vn -0.039605 0.011186 -0.999153
vn 0.000000 1.000000 0.000000
vn 0.000000 1.000000 0.000000
vn 0.000000 1.000000 0.000000
vn 0.000000 1.000000 0.000000
vn -0.999977 -0.006798 0.000000
vn -1.000000 -0.000000 0.000000
vn -1.000000 -0.000000 0.000000
vn -0.999977 -0.006798 0.000000
vn -0.999978 0.006677 0.000000
vn -0.999978 0.006677 0.000000
vn 0.000001 -1.000000 0.000000
vn 0.000001 -1.000000 0.000000
vn 0.000001 -1.000000 0.000000
vn 0.000001 -1.000000 0.000000
vn 0.999978 0.006677 0.000000
vn 1.000000 -0.000000 0.000000
vn 1.000000 -0.000000 0.000000
vn 0.999978 0.006677 0.000000
vn 0.999977 -0.006798 0.000000
vn 0.999977 -0.006798 0.000000
vn -0.048082 -0.009036 0.998803
vn -0.044678 -0.010538 0.998946
vn 0.000000 1.000000 0.000000
vn 0.000000 1.000000 0.000000
vn 0.000000 1.000000 0.000000
vn 0.000000 1.000000 0.000000
vn -1.000000 0.000000 0.000000
vn -1.000000 0.000000 0.000000
vn -1.000000 0.000000 0.000000
vn -1.000000 0.000000 0.000000
vn -1.000000 0.000000 0.000000
vn -1.000000 0.000000 0.000000
vn -1.000000 0.000000 0.000000
vn -1.000000 -0.000000 0.000000
vn -1.000000 -0.000000 0.000000
vn -1.000000 0.000000 0.000000
vn 0.000000 -1.000000 0.000000
vn 0.000000 -1.000000 0.000000
vn 0.000000 -1.000000 0.000000
vn 0.000000 -1.000000 0.000000
vn 1.000000 -0.000000 0.000000
vn 1.000000 -0.000000 0.000000
vn 1.000000 -0.000000 0.000000
vn 1.000000 -0.000000 0.000000
vn 1.000000 0.000000 0.000000
vn 1.000000 0.000000 0.000000
vn 1.000000 0.000000 0.000000
vn 1.000000 0.000000 0.000000
vn 1.000000 0.000000 0.000000
vn 1.000000 0.000000 0.000000
vn 0.000000 -1.000000 0.000000
vn 0.000000 -1.000000 0.000000
vn 0.000000 -1.000000 0.000000
vn 0.000000 -1.000000 0.000000
vn -1.000000 -0.000000 0.000000
vn -1.000000 -0.000000 0.000000
vn 0.000000 1.000000 0.000000
vn 0.000000 1.000000 0.000000
vn 0.000000 1.000000 0.000000
vn 0.000000 1.000000 0.000000
vn 1.000000 0.000000 0.000000
vn 1.000000 0.000000 0.000000
f 1/1/1 2/2/2 4/4/3 3/3/4
f 3/3/5 4/4/6 6/6/7 5/5/8
f 5/5/9 6/6/10 8/8/11 7/7/12
f 7/7/13 8/8/14 2/10/15 1/9/16
f 9/11/17 10/12/18 12/13/19 11/14/20
f 11/14/21 12/13/22 14/15/23 13/16/24
f 13/16/25 14/15/26 16/17/27 15/18/28
f 15/18/29 16/17/30 10/19/31 9/20/32
f 17/21/33 18/22/34 20/23/35 19/24/36
f 19/24/37 20/23/38 22/25/39 21/26/40
f 21/26/41 22/25/42 24/27/43 23/28/44
f 23/28/45 24/27/46 18/29/47 17/30/48
f 25/31/49 26/32/50 28/33/51 27/34/52
f 27/34/53 28/33/54 30/35/55 29/36/56
f 29/36/57 30/35/58 32/37/59 31/38/60
f 31/38/61 32/37/62 26/39/63 25/40/64
f 33/41/65 34/99/66 35/97/67 36/82/68
f 33/81/65 37/45/69 38/46/70 34/42/66
f 39/95/71 38/46/70 37/45/69 40/48/72
f 41/49/73 42/93/74 43/51/75 44/52/76
f 45/83/77 46/91/78 47/89/79 48/85/80
f 48/56/80 47/55/79 49/57/81 50/58/82
f 35/43/67 51/59/83 52/60/84 36/44/68
f 53/86/85 52/60/84 51/59/83 54/87/86
f 45/83/87 48/85/88 53/61/89 40/84/90
f 48/56/91 50/58/92 52/60/93 53/86/94
f 50/58/92 55/63/95 36/44/96 52/60/93
f 55/77/97 41/80/98 33/41/99 36/82/100
f 41/49/101 44/52/102 37/45/103 33/81/104
f 44/52/102 45/53/105 40/48/106 37/45/103
f 54/62/86 39/47/71 40/84/72 53/61/85
f 43/51/75 46/54/78 45/53/77 44/52/76
f 42/50/74 41/80/73 55/77/107 56/78/108
f 49/57/81 56/64/108 55/63/107 50/58/82
f 57/100/109 58/66/110 35/97/111 34/99/112
f 59/67/113 57/65/114 34/42/115 38/46/116
f 60/96/117 59/67/113 38/46/116 39/95/118
f 61/94/119 62/70/120 43/51/121 42/93/122
f 63/92/123 64/72/124 47/89/125 46/91/126
f 64/90/127 65/73/128 49/57/129 47/55/130
f 58/98/131 66/74/132 51/59/133 35/43/134
f 66/74/132 67/75/135 54/87/136 51/59/133
f 67/88/137 60/68/138 39/47/139 54/62/140
f 62/70/120 63/71/141 46/54/142 43/51/121
f 68/79/143 61/69/144 42/50/145 56/78/146
f 65/73/128 68/76/147 56/64/148 49/57/129
