# This file uses meters as units for non-parametric coordinates.

v -81.775928 -0.000000 5.757105
v 81.775928 -0.000000 5.757105
v 76.690806 5.459356 5.757105
v -76.690806 5.459356 5.757105
v 81.775928 175.588227 5.757105
v 76.690806 170.128871 5.757105
v -81.775928 175.588227 5.757105
v -76.690806 170.128871 5.757105
v -81.775928 175.588227 -5.757105
v 81.775928 175.588227 -5.757105
v 76.690806 170.128871 -5.757105
v -76.690806 170.128871 -5.757105
v 81.775928 -0.000000 -5.757105
v 76.690806 5.459356 -5.757105
v -81.775928 -0.000000 -5.757105
v -76.690806 5.459356 -5.757105
vt 0.649869 0.032503
vt 0.647979 0.032975
vt 0.739135 0.036348
vt 0.642836 0.036348
vt 0.648678 0.032072
vt 0.713122 0.025017
vt 0.714967 0.024278
vt 0.646763 0.032897
vt 0.714096 0.025206
vt 0.716277 0.024710
vt 0.639442 0.036235
vt 0.673055 0.019471
vt 0.673857 0.019819
vt 0.642037 0.035591
vt 0.675393 0.018795
vt 0.676401 0.019497
vt 0.665555 0.024710
vt 0.704595 0.018827
vt 0.663486 0.025151
vt 0.705668 0.019497
vt 0.662399 0.025017
vt 0.703060 0.019851
vt 0.664357 0.024223
vt 0.702323 0.019471
vt 0.738123 0.035696
vt 0.730474 0.032162
vt 0.735741 0.036235
vt 0.728739 0.032897
vt 0.640330 0.036639
vt 0.736415 0.036745
vt 0.729774 0.033065
vt 0.731846 0.032503
vn -1.000000 0.000000 0.000000
vn -1.000000 0.000000 0.000000
vn -1.000000 0.000000 0.000000
vn -1.000000 0.000000 0.000000
vn 0.000000 0.000000 1.000000
vn 0.000000 0.000000 1.000000
vn 0.000000 0.000000 1.000000
vn 0.000000 0.000000 1.000000
vn 0.000000 0.000000 1.000000
vn 0.000000 0.000000 1.000000
vn 0.000000 0.000000 1.000000
vn 0.000000 0.000000 1.000000
vn 0.000000 0.000000 1.000000
vn 0.000000 0.000000 1.000000
vn 0.000000 0.000000 1.000000
vn 0.000000 0.000000 1.000000
vn -0.000000 0.000000 1.000000
vn -0.000000 0.000000 1.000000
vn -0.000000 0.000000 1.000000
vn -0.000000 0.000000 1.000000
vn 0.000000 0.000000 -1.000000
vn 0.000000 0.000000 -1.000000
vn 0.000000 0.000000 -1.000000
vn 0.000000 0.000000 -1.000000
vn 0.000000 0.000000 -1.000000
vn 0.000000 0.000000 -1.000000
vn 0.000000 0.000000 -1.000000
vn 0.000000 0.000000 -1.000000
vn 0.000000 0.000000 -1.000000
vn 0.000000 0.000000 -1.000000
vn 0.000000 0.000000 -1.000000
vn 0.000000 0.000000 -1.000000
vn -0.000000 0.000000 -1.000000
vn -0.000000 0.000000 -1.000000
vn -0.000000 0.000000 -1.000000
vn -0.000000 0.000000 -1.000000
vn 0.000000 -1.000000 0.000000
vn 0.000000 -1.000000 0.000000
vn 0.000000 -1.000000 0.000000
vn 0.000000 -1.000000 0.000000
vn 0.000000 -1.000000 0.000000
vn 0.000000 -1.000000 0.000000
vn 0.000000 -1.000000 0.000000
vn 0.000000 -1.000000 0.000000
vn 0.000000 1.000000 0.000000
vn 0.000000 1.000000 0.000000
vn 0.000000 1.000000 0.000000
vn 0.000000 1.000000 0.000000
vn 1.000000 0.000000 0.000000
vn 1.000000 0.000000 0.000000
vn 1.000000 0.000000 0.000000
vn 1.000000 0.000000 0.000000
vn 0.000000 1.000000 0.000000
vn 0.000000 1.000000 0.000000
vn 0.000000 1.000000 0.000000
vn 0.000000 1.000000 0.000000
vn 1.000000 0.000000 0.000000
vn 1.000000 0.000000 0.000000
vn 1.000000 0.000000 0.000000
vn 1.000000 0.000000 0.000000
vn -1.000000 0.000000 0.000000
vn -1.000000 0.000000 0.000000
vn -1.000000 0.000000 0.000000
vn -1.000000 0.000000 0.000000
f 1/1/1 7/32/2 9/3/3 15/4/4
f 1/26/5 2/5/6 3/23/7 4/7/8
f 2/28/9 5/8/10 6/21/11 3/6/12
f 5/31/13 7/2/14 8/19/15 6/9/16
f 7/32/17 1/1/18 4/17/19 8/10/20
f 9/29/21 10/30/22 11/22/23 12/13/24
f 10/11/25 13/27/26 14/24/27 11/12/28
f 13/14/29 15/25/30 16/18/31 14/15/32
f 15/4/33 9/3/34 12/20/35 16/16/36
f 2/5/37 1/26/38 15/25/39 13/14/40
f 11/22/41 6/9/42 8/19/43 12/13/44
f 5/31/45 10/30/46 9/29/47 7/2/48
f 2/28/49 13/27/50 10/11/51 5/8/52
f 14/15/53 16/18/54 4/7/55 3/23/56
f 16/16/57 12/20/58 8/10/59 4/17/60
f 14/24/61 3/6/62 6/21/63 11/12/64
