# This file uses meters as units for non-parametric coordinates.

v 18.224083 0.000000 5.757105
v 23.309204 5.459356 5.757105
v 18.224083 175.588227 5.757105
v 23.309204 170.128871 5.757105
v 18.224083 175.588227 -5.757105
v 23.309204 170.128871 -5.757105
v 18.224083 0.000000 -5.757105
v 23.309204 5.459356 -5.757105
v 100.000011 5.459356 5.757105
v 100.000011 5.459356 -5.757105
v 100.000011 0.000000 -5.757105
v 100.000011 0.000000 5.757105
v 100.000011 170.128871 5.757105
v 100.000011 175.588227 5.757105
v 100.000011 175.588227 -5.757105
v 100.000011 170.128871 -5.757105
vt 0.524869 0.220003
vt 0.522979 0.220475
vt 0.614135 0.223848
vt 0.517836 0.223848
vt 0.589967 0.211778
vt 0.591277 0.212210
vt 0.548857 0.207319
vt 0.551401 0.206997
vt 0.540555 0.212210
vt 0.579595 0.206327
vt 0.538486 0.212651
vt 0.580668 0.206997
vt 0.613123 0.223196
vt 0.605474 0.219662
vt 0.515330 0.224139
vt 0.606846 0.220003
vt 0.564662 0.211750
vt 0.564994 0.206311
vt 0.565080 0.223143
vt 0.564576 0.219617
vt 0.563791 0.212679
vt 0.563876 0.220520
vt 0.563373 0.224192
vt 0.563458 0.207335
vn -1.000000 0.000000 0.000000
vn -1.000000 0.000000 0.000000
vn -1.000000 0.000000 0.000000
vn -1.000000 0.000000 0.000000
vn 0.000000 0.000000 1.000000
vn 0.000000 0.000000 1.000000
vn 0.000000 0.000000 1.000000
vn 0.000000 0.000000 1.000000
vn 0.000000 0.000000 1.000000
vn 0.000000 0.000000 1.000000
vn 0.000000 0.000000 1.000000
vn 0.000000 0.000000 1.000000
vn -0.000000 0.000000 1.000000
vn -0.000000 0.000000 1.000000
vn -0.000000 0.000000 1.000000
vn -0.000000 0.000000 1.000000
vn 0.000000 0.000000 -1.000000
vn 0.000000 0.000000 -1.000000
vn 0.000000 0.000000 -1.000000
vn 0.000000 0.000000 -1.000000
vn 0.000000 0.000000 -1.000000
vn 0.000000 0.000000 -1.000000
vn 0.000000 0.000000 -1.000000
vn 0.000000 0.000000 -1.000000
vn -0.000000 0.000000 -1.000000
vn -0.000000 0.000000 -1.000000
vn -0.000000 0.000000 -1.000000
vn -0.000000 0.000000 -1.000000
vn 0.000000 -1.000000 0.000000
vn 0.000000 -1.000000 0.000000
vn 0.000000 -1.000000 0.000000
vn 0.000000 -1.000000 0.000000
vn 0.000000 -1.000000 0.000000
vn 0.000000 -1.000000 0.000000
vn 0.000000 -1.000000 0.000000
vn 0.000000 -1.000000 0.000000
vn 0.000000 1.000000 0.000000
vn 0.000000 1.000000 0.000000
vn 0.000000 1.000000 0.000000
vn 0.000000 1.000000 0.000000
vn 0.000000 1.000000 0.000000
vn 0.000000 1.000000 0.000000
vn 0.000000 1.000000 0.000000
vn 0.000000 1.000000 0.000000
vn 1.000000 0.000000 0.000000
vn 1.000000 0.000000 0.000000
vn 1.000000 0.000000 0.000000
vn 1.000000 0.000000 0.000000
f 1/1/1 3/16/2 5/3/3 7/4/4
f 1/14/5 12/20/6 9/17/7 2/5/8
f 14/22/9 3/2/10 4/11/11 13/21/12
f 3/16/13 1/1/14 2/9/15 4/6/16
f 5/15/17 15/23/18 16/24/19 6/7/20
f 11/19/21 7/13/22 8/10/23 10/18/24
f 7/4/25 5/3/26 6/12/27 8/8/28
f 12/20/29 1/14/30 7/13/31 11/19/32
f 16/24/33 13/21/34 4/11/35 6/7/36
f 14/22/37 15/23/38 5/15/39 3/2/40
f 10/18/41 8/10/42 2/5/43 9/17/44
f 8/8/45 6/12/46 4/6/47 2/9/48
