# This file uses meters as units for non-parametric coordinates.

v -100.000127 -0.000000 5.757105
v -100.000114 5.459356 5.757105
v -100.000127 175.588227 5.757105
v -100.000114 170.128871 5.757105
v -100.000127 175.588227 -5.757105
v -100.000114 170.128871 -5.757105
v -100.000127 -0.000000 -5.757105
v -100.000114 5.459356 -5.757105
v 100.000012 5.459356 5.757105
v 100.000012 5.459356 -5.757105
v 100.000012 -0.000000 -5.757105
v 100.000012 -0.000000 5.757105
v 100.000012 170.128871 5.757105
v 100.000012 175.588227 5.757105
v 100.000012 175.588227 -5.757105
v 100.000012 170.128871 -5.757105
vt 0.647979 0.032975
vt 0.714967 0.024278
vt 0.673857 0.019819
vt 0.704595 0.018827
vt 0.663486 0.025151
vt 0.738123 0.035696
vt 0.730474 0.032162
vt 0.640330 0.036639
vt 0.689662 0.024250
vt 0.689994 0.018811
vt 0.690080 0.035643
vt 0.689576 0.032117
vt 0.688791 0.025179
vt 0.688876 0.033020
vt 0.688373 0.036692
vt 0.688458 0.019835
vn 0.000000 0.000000 1.000000
vn 0.000000 0.000000 1.000000
vn 0.000000 0.000000 1.000000
vn 0.000000 0.000000 1.000000
vn 0.000000 0.000000 1.000000
vn 0.000000 0.000000 1.000000
vn 0.000000 0.000000 1.000000
vn 0.000000 0.000000 1.000000
vn 0.000000 0.000000 -1.000000
vn 0.000000 0.000000 -1.000000
vn 0.000000 0.000000 -1.000000
vn 0.000000 0.000000 -1.000000
vn 0.000000 0.000000 -1.000000
vn 0.000000 0.000000 -1.000000
vn 0.000000 0.000000 -1.000000
vn 0.000000 0.000000 -1.000000
vn 0.000000 -1.000000 0.000000
vn 0.000000 -1.000000 0.000000
vn 0.000000 -1.000000 0.000000
vn 0.000000 -1.000000 0.000000
vn 0.000000 -1.000000 0.000000
vn 0.000000 -1.000000 0.000000
vn 0.000000 -1.000000 0.000000
vn 0.000000 -1.000000 0.000000
vn 0.000000 1.000000 0.000000
vn 0.000000 1.000000 0.000000
vn 0.000000 1.000000 0.000000
vn 0.000000 1.000000 0.000000
vn 0.000000 1.000000 0.000000
vn 0.000000 1.000000 0.000000
vn 0.000000 1.000000 0.000000
vn 0.000000 1.000000 0.000000
f 1/7/1 12/12/2 9/9/3 2/2/4
f 14/14/5 3/1/6 4/5/7 13/13/8
f 5/8/9 15/15/10 16/16/11 6/3/12
f 11/11/13 7/6/14 8/4/15 10/10/16
f 12/12/17 1/7/18 7/6/19 11/11/20
f 16/16/21 13/13/22 4/5/23 6/3/24
f 14/14/25 15/15/26 5/8/27 3/1/28
f 10/10/29 8/4/30 2/2/31 9/9/32
