# This file uses meters as units for non-parametric coordinates.

v -18.224083 -0.000005 5.757105
v -23.309189 5.459346 5.757105
v -18.224083 175.588222 5.757105
v -23.309189 170.128871 5.757105
v -18.224083 175.588222 -5.757105
v -23.309189 170.128871 -5.757105
v -18.224083 -0.000005 -5.757105
v -23.309189 5.459346 -5.757105
v -100.000122 5.459346 5.757105
v -100.000122 5.459346 -5.757105
v -100.000122 -0.000005 -5.757105
v -100.000122 -0.000005 5.757105
v -100.000122 170.128871 5.757105
v -100.000122 175.588222 5.757105
v -100.000122 175.588222 -5.757105
v -100.000122 170.128871 -5.757105
vt 0.649869 0.157503
vt 0.647979 0.157975
vt 0.739135 0.161348
vt 0.642836 0.161348
vt 0.714967 0.149278
vt 0.716277 0.149710
vt 0.673857 0.144819
vt 0.676401 0.144497
vt 0.665555 0.149710
vt 0.704595 0.143827
vt 0.663486 0.150151
vt 0.705668 0.144497
vt 0.738123 0.160696
vt 0.730474 0.157162
vt 0.640330 0.161639
vt 0.731846 0.157503
vt 0.689662 0.149250
vt 0.689994 0.143811
vt 0.690080 0.160643
vt 0.689576 0.157117
vt 0.688791 0.150179
vt 0.688876 0.158020
vt 0.688373 0.161692
vt 0.688458 0.144835
vn 1.000000 0.000000 0.000000
vn 1.000000 0.000000 0.000000
vn 1.000000 0.000000 0.000000
vn 1.000000 0.000000 0.000000
vn 0.000000 0.000000 1.000000
vn 0.000000 0.000000 1.000000
vn 0.000000 0.000000 1.000000
vn 0.000000 0.000000 1.000000
vn 0.000000 0.000000 1.000000
vn 0.000000 0.000000 1.000000
vn 0.000000 0.000000 1.000000
vn 0.000000 0.000000 1.000000
vn 0.000000 0.000000 1.000000
vn 0.000000 0.000000 1.000000
vn 0.000000 0.000000 1.000000
vn 0.000000 0.000000 1.000000
vn 0.000000 0.000000 -1.000000
vn 0.000000 0.000000 -1.000000
vn 0.000000 0.000000 -1.000000
vn 0.000000 0.000000 -1.000000
vn 0.000000 0.000000 -1.000000
vn 0.000000 0.000000 -1.000000
vn 0.000000 0.000000 -1.000000
vn 0.000000 0.000000 -1.000000
vn 0.000000 0.000000 -1.000000
vn 0.000000 0.000000 -1.000000
vn 0.000000 0.000000 -1.000000
vn 0.000000 0.000000 -1.000000
vn 0.000000 -1.000000 0.000000
vn 0.000000 -1.000000 0.000000
vn 0.000000 -1.000000 0.000000
vn 0.000000 -1.000000 0.000000
vn 0.000000 -1.000000 0.000000
vn 0.000000 -1.000000 0.000000
vn 0.000000 -1.000000 0.000000
vn 0.000000 -1.000000 0.000000
vn 0.000000 1.000000 0.000000
vn 0.000000 1.000000 0.000000
vn 0.000000 1.000000 0.000000
vn 0.000000 1.000000 0.000000
vn 0.000000 1.000000 0.000000
vn 0.000000 1.000000 0.000000
vn 0.000000 1.000000 0.000000
vn 0.000000 1.000000 0.000000
vn -1.000000 0.000000 0.000000
vn -1.000000 0.000000 0.000000
vn -1.000000 0.000000 0.000000
vn -1.000000 0.000000 0.000000
f 1/1/1 7/4/2 5/3/3 3/16/4
f 1/14/5 2/5/6 9/17/7 12/20/8
f 14/22/9 13/21/10 4/11/11 3/2/12
f 3/16/13 4/6/14 2/9/15 1/1/16
f 5/15/17 6/7/18 16/24/19 15/23/20
f 11/19/21 10/18/22 8/10/23 7/13/24
f 7/4/25 8/8/26 6/12/27 5/3/28
f 12/20/29 11/19/30 7/13/31 1/14/32
f 16/24/33 6/7/34 4/11/35 13/21/36
f 14/22/37 3/2/38 5/15/39 15/23/40
f 10/18/41 9/17/42 2/5/43 8/10/44
f 8/8/45 2/9/46 4/6/47 6/12/48
