# This file uses meters as units for non-parametric coordinates.

v 100.000015 170.128876 4.013205
v -100.000114 170.128876 4.013205
v -95.230324 165.008087 4.013205
v 95.230225 165.008087 4.013205
v -100.000114 49.823883 4.013205
v -95.230324 54.944702 4.013205
v 100.000015 49.823883 4.013205
v 95.230225 54.944702 4.013205
v 100.000015 49.823883 0.000000
v -100.000114 49.823883 0.000000
v -95.230324 54.944702 0.000000
v 95.230225 54.944702 0.000000
v -100.000114 170.128876 0.000000
v -95.230324 165.008087 0.000000
v 100.000015 170.128876 0.000000
v 95.230225 165.008087 0.000000
vt 0.614109 0.205231
vt 0.613809 0.204524
vt 0.509329 0.206202
vt 0.614424 0.206202
vt 0.614186 0.208178
vt 0.514689 0.223298
vt 0.511465 0.222523
vt 0.615336 0.202738
vt 0.511087 0.218869
vt 0.513463 0.222614
vt 0.615021 0.201589
vt 0.610523 0.222150
vt 0.610324 0.222987
vt 0.614371 0.206959
vt 0.611070 0.224202
vt 0.609926 0.223586
vt 0.609611 0.222614
vt 0.511649 0.221303
vt 0.610508 0.221768
vt 0.513778 0.223586
vt 0.610837 0.223298
vt 0.510903 0.220088
vt 0.610886 0.225422
vt 0.514375 0.222150
vt 0.508348 0.203867
vt 0.508164 0.205086
vt 0.509926 0.201589
vt 0.510241 0.202738
vt 0.613625 0.205743
vt 0.507602 0.202651
vt 0.507787 0.201432
vt 0.509015 0.205231
vn 1.000000 0.000000 0.000000
vn 1.000000 0.000000 0.000000
vn 1.000000 0.000000 0.000000
vn 1.000000 0.000000 0.000000
vn 0.000000 0.000000 1.000000
vn 0.000000 0.000000 1.000000
vn 0.000000 0.000000 1.000000
vn 0.000000 0.000000 1.000000
vn -0.000000 0.000000 1.000000
vn -0.000000 0.000000 1.000000
vn -0.000000 0.000000 1.000000
vn -0.000000 0.000000 1.000000
vn 0.000000 0.000000 1.000000
vn 0.000000 0.000000 1.000000
vn 0.000000 0.000000 1.000000
vn 0.000000 0.000000 1.000000
vn 0.000000 0.000000 1.000000
vn 0.000000 0.000000 1.000000
vn 0.000000 0.000000 1.000000
vn 0.000000 0.000000 1.000000
vn 0.000000 0.000000 -1.000000
vn 0.000000 0.000000 -1.000000
vn 0.000000 0.000000 -1.000000
vn 0.000000 0.000000 -1.000000
vn 0.000000 0.000000 -1.000000
vn 0.000000 0.000000 -1.000000
vn 0.000000 0.000000 -1.000000
vn 0.000000 0.000000 -1.000000
vn 0.000000 0.000000 -1.000000
vn 0.000000 0.000000 -1.000000
vn 0.000000 0.000000 -1.000000
vn 0.000000 0.000000 -1.000000
vn 0.000000 0.000000 -1.000000
vn 0.000000 0.000000 -1.000000
vn 0.000000 0.000000 -1.000000
vn 0.000000 0.000000 -1.000000
vn 0.000000 1.000000 0.000000
vn 0.000000 1.000000 0.000000
vn 0.000000 1.000000 0.000000
vn 0.000000 1.000000 0.000000
vn 0.000000 1.000000 0.000000
vn 0.000000 1.000000 0.000000
vn 0.000000 1.000000 0.000000
vn 0.000000 1.000000 0.000000
vn 0.000000 -1.000000 0.000000
vn 0.000000 -1.000000 0.000000
vn 0.000000 -1.000000 0.000000
vn 0.000000 -1.000000 0.000000
vn -1.000000 0.000000 0.000000
vn -1.000000 0.000000 0.000000
vn -1.000000 0.000000 0.000000
vn -1.000000 0.000000 0.000000
vn 0.000000 -1.000000 0.000000
vn 0.000000 -1.000000 0.000000
vn 0.000000 -1.000000 0.000000
vn 0.000000 -1.000000 0.000000
vn -1.000000 0.000000 0.000000
vn -1.000000 0.000000 0.000000
vn -1.000000 0.000000 0.000000
vn -1.000000 0.000000 0.000000
vn 1.000000 0.000000 0.000000
vn 1.000000 0.000000 0.000000
vn 1.000000 0.000000 0.000000
vn 1.000000 0.000000 0.000000
f 1/1/1 7/32/2 9/3/3 15/4/4
f 1/26/5 2/5/6 3/23/7 4/7/8
f 2/28/9 5/8/10 6/21/11 3/6/12
f 5/31/13 7/2/14 8/19/15 6/9/16
f 7/32/17 1/1/18 4/17/19 8/10/20
f 9/29/21 10/30/22 11/22/23 12/13/24
f 10/11/25 13/27/26 14/24/27 11/12/28
f 13/14/29 15/25/30 16/18/31 14/15/32
f 15/4/33 9/3/34 12/20/35 16/16/36
f 2/5/37 1/26/38 15/25/39 13/14/40
f 11/22/41 6/9/42 8/19/43 12/13/44
f 5/31/45 10/30/46 9/29/47 7/2/48
f 2/28/49 13/27/50 10/11/51 5/8/52
f 14/15/53 16/18/54 4/7/55 3/23/56
f 16/16/57 12/20/58 8/10/59 4/17/60
f 14/24/61 3/6/62 6/21/63 11/12/64
