# This file uses meters as units for non-parametric coordinates.

v 100.000015 170.128876 4.013205
v -100.000114 170.128876 4.013205
v -95.230324 165.008087 4.013205
v 95.230225 165.008087 4.013205
v -100.000114 49.823883 4.013205
v -95.230324 54.944702 4.013205
v 100.000015 49.823883 4.013205
v 95.230225 54.944702 4.013205
v 100.000015 49.823883 0.000000
v -100.000114 49.823883 0.000000
v -95.230324 54.944702 0.000000
v 95.230225 54.944702 0.000000
v -100.000114 170.128876 0.000000
v -95.230324 165.008087 0.000000
v 100.000015 170.128876 0.000000
v 95.230225 165.008087 0.000000
vt 0.739109 0.142731
vt 0.738809 0.142024
vt 0.634329 0.143702
vt 0.739424 0.143702
vt 0.739186 0.145678
vt 0.639689 0.160798
vt 0.636465 0.160023
vt 0.740336 0.140238
vt 0.636087 0.156369
vt 0.638463 0.160114
vt 0.740021 0.139089
vt 0.735523 0.159650
vt 0.735324 0.160487
vt 0.739371 0.144459
vt 0.736070 0.161702
vt 0.734926 0.161086
vt 0.734611 0.160114
vt 0.636649 0.158803
vt 0.735508 0.159268
vt 0.638778 0.161086
vt 0.735837 0.160798
vt 0.635903 0.157588
vt 0.735886 0.162922
vt 0.639375 0.159650
vt 0.633348 0.141367
vt 0.633164 0.142586
vt 0.634926 0.139089
vt 0.635241 0.140238
vt 0.738625 0.143243
vt 0.632602 0.140151
vt 0.632787 0.138932
vt 0.634015 0.142731
vn 1.000000 0.000000 0.000000
vn 1.000000 0.000000 0.000000
vn 1.000000 0.000000 0.000000
vn 1.000000 0.000000 0.000000
vn 0.000000 0.000000 1.000000
vn 0.000000 0.000000 1.000000
vn 0.000000 0.000000 1.000000
vn 0.000000 0.000000 1.000000
vn -0.000000 0.000000 1.000000
vn -0.000000 0.000000 1.000000
vn -0.000000 0.000000 1.000000
vn -0.000000 0.000000 1.000000
vn 0.000000 0.000000 1.000000
vn 0.000000 0.000000 1.000000
vn 0.000000 0.000000 1.000000
vn 0.000000 0.000000 1.000000
vn 0.000000 0.000000 1.000000
vn 0.000000 0.000000 1.000000
vn 0.000000 0.000000 1.000000
vn 0.000000 0.000000 1.000000
vn 0.000000 0.000000 -1.000000
vn 0.000000 0.000000 -1.000000
vn 0.000000 0.000000 -1.000000
vn 0.000000 0.000000 -1.000000
vn 0.000000 0.000000 -1.000000
vn 0.000000 0.000000 -1.000000
vn 0.000000 0.000000 -1.000000
vn 0.000000 0.000000 -1.000000
vn 0.000000 0.000000 -1.000000
vn 0.000000 0.000000 -1.000000
vn 0.000000 0.000000 -1.000000
vn 0.000000 0.000000 -1.000000
vn 0.000000 0.000000 -1.000000
vn 0.000000 0.000000 -1.000000
vn 0.000000 0.000000 -1.000000
vn 0.000000 0.000000 -1.000000
vn 0.000000 1.000000 0.000000
vn 0.000000 1.000000 0.000000
vn 0.000000 1.000000 0.000000
vn 0.000000 1.000000 0.000000
vn 0.000000 1.000000 0.000000
vn 0.000000 1.000000 0.000000
vn 0.000000 1.000000 0.000000
vn 0.000000 1.000000 0.000000
vn 0.000000 -1.000000 0.000000
vn 0.000000 -1.000000 0.000000
vn 0.000000 -1.000000 0.000000
vn 0.000000 -1.000000 0.000000
vn -1.000000 0.000000 0.000000
vn -1.000000 0.000000 0.000000
vn -1.000000 0.000000 0.000000
vn -1.000000 0.000000 0.000000
vn 0.000000 -1.000000 0.000000
vn 0.000000 -1.000000 0.000000
vn 0.000000 -1.000000 0.000000
vn 0.000000 -1.000000 0.000000
vn -1.000000 0.000000 0.000000
vn -1.000000 0.000000 0.000000
vn -1.000000 0.000000 0.000000
vn -1.000000 0.000000 0.000000
vn 1.000000 0.000000 0.000000
vn 1.000000 0.000000 0.000000
vn 1.000000 0.000000 0.000000
vn 1.000000 0.000000 0.000000
f 1/1/1 7/32/2 9/3/3 15/4/4
f 1/26/5 2/5/6 3/23/7 4/7/8
f 2/28/9 5/8/10 6/21/11 3/6/12
f 5/31/13 7/2/14 8/19/15 6/9/16
f 7/32/17 1/1/18 4/17/19 8/10/20
f 9/29/21 10/30/22 11/22/23 12/13/24
f 10/11/25 13/27/26 14/24/27 11/12/28
f 13/14/29 15/25/30 16/18/31 14/15/32
f 15/4/33 9/3/34 12/20/35 16/16/36
f 2/5/37 1/26/38 15/25/39 13/14/40
f 11/22/41 6/9/42 8/19/43 12/13/44
f 5/31/45 10/30/46 9/29/47 7/2/48
f 2/28/49 13/27/50 10/11/51 5/8/52
f 14/15/53 16/18/54 4/7/55 3/23/56
f 16/16/57 12/20/58 8/10/59 4/17/60
f 14/24/61 3/6/62 6/21/63 11/12/64
