# This file uses meters as units for non-parametric coordinates.

v 100.000015 50.272263 4.013205
v -1.810860 50.272263 4.013205
v 2.958931 45.151474 4.013205
v 95.230225 45.151474 4.013205
v -1.810860 4.710876 4.013205
v 2.958931 9.831696 4.013205
v 100.000015 4.710876 4.013205
v 95.230225 9.831696 4.013205
v 100.000015 4.710876 0.000000
v -1.810860 4.710876 0.000000
v 2.958931 9.831696 0.000000
v 95.230225 9.831696 0.000000
v -1.810860 50.272263 0.000000
v 2.958931 45.151474 0.000000
v 100.000015 50.272263 0.000000
v 95.230225 45.151474 0.000000
vt 0.737171 0.077766
vt 0.736170 0.079063
vt 0.644777 0.078648
vt 0.737907 0.078648
vt 0.739482 0.080553
vt 0.653981 0.096303
vt 0.650705 0.094698
vt 0.736702 0.078179
vt 0.647393 0.093208
vt 0.654450 0.093555
vt 0.735966 0.077166
vt 0.725441 0.095290
vt 0.730123 0.095542
vt 0.739802 0.079465
vt 0.734074 0.094855
vt 0.727382 0.094437
vt 0.726646 0.093555
vt 0.651025 0.093609
vt 0.730443 0.094453
vt 0.655186 0.094437
vt 0.726177 0.096303
vt 0.647073 0.094296
vt 0.733754 0.095943
vt 0.653245 0.095290
vt 0.645297 0.078047
vt 0.644977 0.079135
vt 0.642836 0.077166
vt 0.643572 0.078179
vt 0.735850 0.080151
vt 0.641346 0.078733
vt 0.641666 0.077645
vt 0.644041 0.077766
vn 1.000000 0.000000 0.000000
vn 1.000000 0.000000 0.000000
vn 1.000000 0.000000 0.000000
vn 1.000000 0.000000 0.000000
vn 0.000000 0.000000 1.000000
vn 0.000000 0.000000 1.000000
vn 0.000000 0.000000 1.000000
vn 0.000000 0.000000 1.000000
vn 0.000000 0.000000 1.000000
vn 0.000000 0.000000 1.000000
vn 0.000000 0.000000 1.000000
vn 0.000000 0.000000 1.000000
vn 0.000000 0.000000 1.000000
vn 0.000000 0.000000 1.000000
vn 0.000000 0.000000 1.000000
vn 0.000000 0.000000 1.000000
vn -0.000000 0.000000 1.000000
vn -0.000000 0.000000 1.000000
vn -0.000000 0.000000 1.000000
vn -0.000000 0.000000 1.000000
vn 0.000000 0.000000 -1.000000
vn 0.000000 0.000000 -1.000000
vn 0.000000 0.000000 -1.000000
vn 0.000000 0.000000 -1.000000
vn 0.000000 0.000000 -1.000000
vn 0.000000 0.000000 -1.000000
vn 0.000000 0.000000 -1.000000
vn 0.000000 0.000000 -1.000000
vn 0.000000 0.000000 -1.000000
vn 0.000000 0.000000 -1.000000
vn 0.000000 0.000000 -1.000000
vn 0.000000 0.000000 -1.000000
vn 0.000000 0.000000 -1.000000
vn 0.000000 0.000000 -1.000000
vn 0.000000 0.000000 -1.000000
vn 0.000000 0.000000 -1.000000
vn 0.000000 1.000000 0.000000
vn 0.000000 1.000000 0.000000
vn 0.000000 1.000000 0.000000
vn 0.000000 1.000000 0.000000
vn 0.000000 1.000000 0.000000
vn 0.000000 1.000000 0.000000
vn 0.000000 1.000000 0.000000
vn 0.000000 1.000000 0.000000
vn 0.000000 -1.000000 0.000000
vn 0.000000 -1.000000 0.000000
vn 0.000000 -1.000000 0.000000
vn 0.000000 -1.000000 0.000000
vn -1.000000 0.000000 0.000000
vn -1.000000 0.000000 0.000000
vn -1.000000 0.000000 0.000000
vn -1.000000 0.000000 0.000000
vn 0.000000 -1.000000 0.000000
vn 0.000000 -1.000000 0.000000
vn 0.000000 -1.000000 0.000000
vn 0.000000 -1.000000 0.000000
vn -1.000000 0.000000 0.000000
vn -1.000000 0.000000 0.000000
vn -1.000000 0.000000 0.000000
vn -1.000000 0.000000 0.000000
vn 1.000000 0.000000 0.000000
vn 1.000000 0.000000 0.000000
vn 1.000000 0.000000 0.000000
vn 1.000000 0.000000 0.000000
f 1/1/1 7/32/2 9/3/3 15/4/4
f 1/26/5 2/5/6 3/23/7 4/7/8
f 2/28/9 5/8/10 6/21/11 3/6/12
f 5/31/13 7/2/14 8/19/15 6/9/16
f 7/32/17 1/1/18 4/17/19 8/10/20
f 9/29/21 10/30/22 11/22/23 12/13/24
f 10/11/25 13/27/26 14/24/27 11/12/28
f 13/14/29 15/25/30 16/18/31 14/15/32
f 15/4/33 9/3/34 12/20/35 16/16/36
f 2/5/37 1/26/38 15/25/39 13/14/40
f 11/22/41 6/9/42 8/19/43 12/13/44
f 5/31/45 10/30/46 9/29/47 7/2/48
f 2/28/49 13/27/50 10/11/51 5/8/52
f 14/15/53 16/18/54 4/7/55 3/23/56
f 16/16/57 12/20/58 8/10/59 4/17/60
f 14/24/61 3/6/62 6/21/63 11/12/64
