# This file uses meters as units for non-parametric coordinates.

v -5.680926 89.973679 2.373636
v 5.680926 89.973679 2.373636
v -5.680926 91.989578 2.373636
v 5.680926 91.989578 2.373636
v -5.680926 91.989578 0.963501
v 5.680926 91.989578 0.963501
v -5.680926 89.973679 0.963501
v 5.680926 89.973679 0.963501
v -2.115515 91.989578 2.373636
v -2.115515 91.989578 0.963501
v -2.115515 89.973679 0.963501
v -2.115515 89.973679 2.373636
v -5.117340 93.806183 2.373636
v -2.608860 93.806183 2.373636
v -2.608860 93.806183 0.963501
v -5.117340 93.806183 0.963501
vt 0.733718 0.241965
vt 0.684329 0.241965
vt 0.684329 0.199103
vt 0.733718 0.199103
vt 0.721002 0.210139
vt 0.697046 0.210139
vt 0.697046 0.230929
vt 0.721002 0.230929
vt 0.733718 0.241965
vt 0.684329 0.241965
vt 0.684329 0.199103
vt 0.733718 0.199103
vt 0.684329 0.241965
vt 0.733718 0.241965
vt 0.634940 0.241965
vt 0.733718 0.241965
vt 0.733718 0.199103
vt 0.634940 0.199103
vt 0.634940 0.241965
vt 0.634940 0.199103
vt 0.634940 0.241965
vt 0.634940 0.199103
vt 0.634940 0.241965
vn 0.000000 0.000000 1.000000
vn 0.000000 0.000000 1.000000
vn 0.000000 0.000000 1.000000
vn 0.000000 0.000000 1.000000
vn 0.000000 1.000000 0.000000
vn 0.000000 1.000000 0.000000
vn 0.000000 1.000000 0.000000
vn 0.000000 1.000000 0.000000
vn 0.000000 0.000000 -1.000000
vn 0.000000 0.000000 -1.000000
vn 0.000000 0.000000 -1.000000
vn 0.000000 0.000000 -1.000000
vn 0.000000 -1.000000 0.000000
vn 0.000000 -1.000000 0.000000
vn 0.000000 -1.000000 0.000000
vn 0.000000 -1.000000 0.000000
vn 1.000000 0.000000 0.000000
vn 1.000000 0.000000 0.000000
vn 1.000000 0.000000 0.000000
vn 1.000000 0.000000 0.000000
vn -1.000000 0.000000 0.000000
vn -1.000000 0.000000 0.000000
vn -1.000000 0.000000 0.000000
vn -1.000000 0.000000 0.000000
vn 0.000000 1.000000 0.000000
vn 0.000000 1.000000 0.000000
vn 0.000000 1.000000 0.000000
vn 0.000000 1.000000 0.000000
vn 0.000000 0.000000 -1.000000
vn 0.000000 0.000000 -1.000000
vn 0.000000 -1.000000 0.000000
vn 0.000000 -1.000000 0.000000
vn 0.000000 0.000000 1.000000
vn 0.000000 0.000000 1.000000
vn 0.000000 0.000000 1.000000
vn 0.000000 0.000000 1.000000
vn 0.000000 0.000000 1.000000
vn 0.000000 0.000000 1.000000
vn 0.965046 0.262083 0.000000
vn 0.965046 0.262083 0.000000
vn 0.965046 0.262083 0.000000
vn 0.965046 0.262083 0.000000
vn 0.000000 0.000000 -1.000000
vn 0.000000 0.000000 -1.000000
vn 0.000000 0.000000 -1.000000
vn 0.000000 0.000000 -1.000000
vn -0.955092 0.296309 0.000000
vn -0.955092 0.296309 0.000000
vn -0.955092 0.296309 0.000000
vn -0.955092 0.296309 0.000000
f 1/1/1 12/2/2 9/3/3 3/4/4
f 13/5/5 14/6/6 15/7/7 16/8/8
f 5/9/9 10/10/10 11/11/11 7/12/12
f 7/12/13 11/11/14 12/13/15 1/14/16
f 2/15/17 8/16/18 6/17/19 4/18/20
f 7/19/21 1/1/22 3/4/23 5/20/24
f 9/3/25 4/18/26 6/21/27 10/10/28
f 11/11/11 10/10/10 6/21/29 8/22/30
f 12/13/15 11/11/14 8/22/31 2/23/32
f 9/3/3 12/2/2 2/15/33 4/18/34
f 3/4/35 9/3/36 14/6/37 13/5/38
f 9/3/39 10/10/40 15/7/41 14/6/42
f 10/10/43 5/9/44 16/8/45 15/7/46
f 5/9/47 3/4/48 13/5/49 16/8/50
