# This file uses centimeters as units for non-parametric coordinates.

v -76.704948 5.428986 3.666757
v 76.704948 5.428986 3.666757
v 71.935158 10.549789 3.666757
v -71.935158 10.549789 3.666757
v 76.704948 90.051468 3.666757
v 71.935158 84.930649 3.666757
v -76.704948 90.051468 3.666757
v -71.935158 84.930649 3.666757
v -76.704948 90.051468 -0.346448
v 76.704948 90.051468 -0.346448
v 71.935158 84.930649 -0.346448
v -71.935158 84.930649 -0.346448
v 76.704948 5.428986 -0.346448
v 71.935158 10.549789 -0.346448
v -76.704948 5.428986 -0.346448
v -71.935158 10.549789 -0.346448
vt 0.606441 0.205111
vt 0.511454 0.205111
vt 0.511334 0.204612
vt 0.606320 0.204612
vt 0.510850 0.205556
vt 0.603135 0.206033
vt 0.600265 0.230138
vt 0.513719 0.229691
vt 0.511614 0.204797
vt 0.599018 0.204797
vt 0.593719 0.228913
vt 0.516893 0.228913
vt 0.510430 0.202899
vt 0.602714 0.203376
vt 0.599845 0.227481
vt 0.513299 0.227035
vt 0.602892 0.203206
vt 0.510607 0.202730
vt 0.513476 0.226865
vt 0.600022 0.227312
vt 0.599129 0.205296
vt 0.511725 0.205296
vt 0.517004 0.229413
vt 0.593830 0.229413
vt 0.602957 0.206202
vt 0.510673 0.205726
vt 0.513542 0.229861
vt 0.600088 0.230308
vt 0.517071 0.228729
vt 0.600562 0.228729
vt 0.517192 0.229228
vt 0.600682 0.229228
vt 0.512245 0.202573
vt 0.604184 0.202573
vt 0.598328 0.229303
vt 0.517517 0.229303
vn -1.000000 0.000000 0.000000
vn -1.000000 0.000000 0.000000
vn -1.000000 0.000000 0.000000
vn -1.000000 0.000000 0.000000
vn 0.000000 0.000000 1.000000
vn 0.000000 0.000000 1.000000
vn 0.000000 0.000000 1.000000
vn 0.000000 0.000000 1.000000
vn 0.000000 0.000000 1.000000
vn 0.000000 0.000000 1.000000
vn 0.000000 0.000000 1.000000
vn 0.000000 0.000000 1.000000
vn 0.000000 0.000000 1.000000
vn 0.000000 0.000000 1.000000
vn 0.000000 0.000000 1.000000
vn 0.000000 0.000000 1.000000
vn 0.000000 0.000000 -1.000000
vn 0.000000 0.000000 -1.000000
vn 0.000000 0.000000 -1.000000
vn 0.000000 0.000000 -1.000000
vn -0.000000 0.000000 -1.000000
vn -0.000000 0.000000 -1.000000
vn -0.000000 0.000000 -1.000000
vn -0.000000 0.000000 -1.000000
vn 0.000000 0.000000 -1.000000
vn 0.000000 0.000000 -1.000000
vn 0.000000 0.000000 -1.000000
vn 0.000000 0.000000 -1.000000
vn -0.000000 0.000000 -1.000000
vn -0.000000 0.000000 -1.000000
vn -0.000000 0.000000 -1.000000
vn -0.000000 0.000000 -1.000000
vn 0.000000 -1.000000 0.000000
vn 0.000000 -1.000000 0.000000
vn 0.000000 -1.000000 0.000000
vn 0.000000 -1.000000 0.000000
vn 0.000000 -1.000000 0.000000
vn 0.000000 -1.000000 0.000000
vn 0.000000 -1.000000 0.000000
vn 0.000000 -1.000000 0.000000
vn 0.000000 1.000000 0.000000
vn 0.000000 1.000000 0.000000
vn 0.000000 1.000000 0.000000
vn 0.000000 1.000000 0.000000
vn 1.000000 0.000000 0.000000
vn 1.000000 0.000000 0.000000
vn 1.000000 0.000000 0.000000
vn 1.000000 0.000000 0.000000
vn 0.000000 1.000000 0.000000
vn 0.000000 1.000000 0.000000
vn 0.000000 1.000000 0.000000
vn 0.000000 1.000000 0.000000
vn 1.000000 0.000000 0.000000
vn 1.000000 0.000000 0.000000
vn 1.000000 0.000000 0.000000
vn 1.000000 0.000000 0.000000
vn -1.000000 0.000000 0.000000
vn -1.000000 0.000000 0.000000
vn -1.000000 0.000000 0.000000
vn -1.000000 0.000000 0.000000
vn 0.000000 0.000000 1.000000
vn 0.000000 0.000000 1.000000
vn 0.000000 0.000000 1.000000
vn 0.000000 0.000000 1.000000
f 1/1/1 7/2/2 9/3/3 15/4/4
f 1/5/5 2/6/6 3/7/7 4/8/8
f 2/9/9 5/10/10 6/11/11 3/12/12
f 5/13/13 7/14/14 8/15/15 6/16/16
f 9/17/17 10/18/18 11/19/19 12/20/20
f 10/21/21 13/22/22 14/23/23 11/24/24
f 13/25/25 15/26/26 16/27/27 14/28/28
f 15/4/29 9/3/30 12/29/31 16/30/32
f 2/6/33 1/5/34 15/26/35 13/25/36
f 11/19/37 6/16/38 8/15/39 12/20/40
f 5/13/41 10/18/42 9/17/43 7/14/44
f 2/9/45 13/22/46 10/21/47 5/10/48
f 14/28/49 16/27/50 4/8/51 3/7/52
f 16/30/53 12/29/54 8/31/55 4/32/56
f 14/23/57 3/12/58 6/11/59 11/24/60
f 7/33/61 1/34/62 4/35/63 8/36/64
