# This file uses meters as units for non-parametric coordinates.

v 71.241882 55.307785 0.441487
v 71.241882 64.855759 0.441487
v 4.981979 55.307785 0.441487
v 4.981979 64.855759 0.441487
v 4.981979 55.307785 -1.708852
v 4.981979 64.855759 -1.708852
v 71.241882 55.307785 -1.708852
v 71.241882 64.855759 -1.708852
v 71.241882 105.095764 0.441487
v 71.241882 114.643738 0.441487
v 4.981979 105.095764 0.441487
v 4.981979 114.643738 0.441487
v 4.981979 105.095764 -1.708852
v 4.981979 114.643738 -1.708852
v 71.241882 105.095764 -1.708852
v 71.241882 114.643738 -1.708852
v 35.402023 159.963470 -0.128486
v 41.725143 159.963470 -0.128486
v 35.402023 14.693665 -0.128486
v 41.725143 14.693665 -0.128486
v 35.402023 14.693665 -1.138881
v 41.725143 14.693665 -1.138881
v 35.402023 159.963470 -1.138881
v 41.725143 159.963470 -1.138881
v 76.690796 5.459366 0.979588
v 76.690796 170.128876 0.979588
v 70.436249 146.656036 0.979588
v 70.436249 15.858978 0.979588
v -0.000015 170.128876 0.979588
v 6.690903 146.656036 0.979588
v -0.000015 5.459366 0.979588
v 6.690903 15.858978 0.979588
v -0.000015 5.459366 -2.340721
v -0.000015 170.128876 -2.340721
v 6.690903 146.656036 -2.340721
v 6.690903 15.858978 -2.340721
v 76.690796 170.128876 -2.340721
v 70.436249 146.656036 -2.340721
v 76.690796 5.459366 -2.340721
v 70.436249 15.858978 -2.340721
v 21.764572 157.988617 0.979588
v 21.764572 157.988617 -2.340721
v 19.281788 170.128876 -2.340721
v 19.281788 170.128876 0.979588
v 38.563583 159.729279 0.979588
v 38.563583 159.729279 -2.340721
v 38.563583 170.128876 -2.340721
v 38.563583 170.128876 0.979588
v 55.362595 157.988617 0.979588
v 55.362595 157.988617 -2.340721
v 57.845322 170.128876 -2.340721
v 57.845322 170.128876 0.979588
vt 0.635151 0.118645
vt 0.635151 0.069000
vt 0.742688 0.069000
vt 0.742688 0.118645
vt 0.635151 0.118645
vt 0.635151 0.069000
vt 0.742688 0.069000
vt 0.742688 0.118645
vt 0.635151 0.118645
vt 0.742688 0.118645
vt 0.635151 0.069000
vt 0.742688 0.069000
vt 0.635151 0.118645
vt 0.635151 0.069000
vt 0.742688 0.069000
vt 0.742688 0.118645
vt 0.635151 0.118645
vt 0.635151 0.069000
vt 0.742688 0.069000
vt 0.742688 0.118645
vt 0.635151 0.118645
vt 0.742688 0.118645
vt 0.635151 0.069000
vt 0.742688 0.069000
vt 0.733718 0.110021
vt 0.733718 0.086853
vt 0.634940 0.086853
vt 0.634940 0.110021
vt 0.733718 0.110021
vt 0.733718 0.086853
vt 0.634940 0.086853
vt 0.634940 0.110021
vt 0.733718 0.086853
vt 0.733718 0.110021
vt 0.634940 0.110021
vt 0.634940 0.086853
vt 0.728363 0.093483
vt 0.652793 0.093268
vt 0.643286 0.071819
vt 0.737618 0.072087
vt 0.650624 0.096654
vt 0.729832 0.096654
vt 0.714107 0.116207
vt 0.661027 0.116207
vt 0.730334 0.101709
vt 0.709544 0.101681
vt 0.703897 0.088899
vt 0.717927 0.083630
vt 0.649497 0.091481
vt 0.728705 0.091481
vt 0.718274 0.117069
vt 0.665194 0.117069
vt 0.717281 0.116403
vt 0.664286 0.116252
vt 0.738441 0.070315
vt 0.639567 0.070315
vt 0.665101 0.116833
vt 0.718181 0.116833
vt 0.714745 0.113118
vt 0.740696 0.113153
vt 0.717808 0.083737
vt 0.703779 0.089005
vt 0.739787 0.080325
vt 0.640913 0.080325
vt 0.661119 0.116394
vt 0.714199 0.116394
vt 0.664180 0.116457
vt 0.717174 0.116607
vt 0.672508 0.088964
vt 0.672627 0.088857
vt 0.658597 0.083552
vt 0.658478 0.083659
vt 0.635087 0.113013
vt 0.661640 0.113048
vt 0.667002 0.101625
vt 0.645731 0.101597
vt 0.688143 0.089797
vt 0.688262 0.089690
vt 0.688192 0.113083
vt 0.688273 0.101653
vn 0.000000 0.000000 1.000000
vn 0.000000 0.000000 1.000000
vn 0.000000 0.000000 1.000000
vn 0.000000 0.000000 1.000000
vn 0.000000 0.000000 -1.000000
vn 0.000000 0.000000 -1.000000
vn 0.000000 0.000000 -1.000000
vn 0.000000 0.000000 -1.000000
vn 0.000000 1.000000 0.000000
vn 0.000000 1.000000 0.000000
vn 0.000000 1.000000 0.000000
vn 0.000000 1.000000 0.000000
vn 0.000000 -1.000000 0.000000
vn 0.000000 -1.000000 0.000000
vn 0.000000 -1.000000 0.000000
vn 0.000000 -1.000000 0.000000
vn 0.000000 0.000000 1.000000
vn 0.000000 0.000000 1.000000
vn 0.000000 0.000000 1.000000
vn 0.000000 0.000000 1.000000
vn 0.000000 0.000000 -1.000000
vn 0.000000 0.000000 -1.000000
vn 0.000000 0.000000 -1.000000
vn 0.000000 0.000000 -1.000000
vn 0.000000 1.000000 0.000000
vn 0.000000 1.000000 0.000000
vn 0.000000 1.000000 0.000000
vn 0.000000 1.000000 0.000000
vn 0.000000 -1.000000 0.000000
vn 0.000000 -1.000000 0.000000
vn 0.000000 -1.000000 0.000000
vn 0.000000 -1.000000 0.000000
vn 0.000000 0.000000 1.000000
vn 0.000000 0.000000 1.000000
vn 0.000000 0.000000 1.000000
vn 0.000000 0.000000 1.000000
vn 0.000000 0.000000 -1.000000
vn 0.000000 0.000000 -1.000000
vn 0.000000 0.000000 -1.000000
vn 0.000000 0.000000 -1.000000
vn 1.000000 0.000000 0.000000
vn 1.000000 0.000000 0.000000
vn 1.000000 0.000000 0.000000
vn 1.000000 0.000000 0.000000
vn -1.000000 0.000000 0.000000
vn -1.000000 0.000000 0.000000
vn -1.000000 0.000000 0.000000
vn -1.000000 0.000000 0.000000
vn 0.000000 -1.000000 0.000000
vn 0.000000 -1.000000 0.000000
vn 0.000000 -1.000000 0.000000
vn 0.000000 -1.000000 0.000000
vn -0.000000 0.000000 1.000000
vn -0.000000 0.000000 1.000000
vn -0.000000 0.000000 1.000000
vn -0.000000 0.000000 1.000000
vn 0.000000 0.000000 1.000000
vn -0.000000 0.000000 1.000000
vn -0.000000 0.000000 1.000000
vn 0.000000 0.000000 1.000000
vn -0.000000 0.000000 1.000000
vn -0.000000 0.000000 1.000000
vn -0.000000 0.000000 1.000000
vn -0.000000 0.000000 1.000000
vn 0.000000 0.000000 1.000000
vn 0.000000 0.000000 1.000000
vn 0.000000 0.000000 1.000000
vn 0.000000 0.000000 1.000000
vn 0.000000 0.000000 -1.000000
vn 0.000000 0.000000 -1.000000
vn 0.000000 0.000000 -1.000000
vn 0.000000 0.000000 -1.000000
vn 0.000000 0.000000 -1.000000
vn 0.000000 0.000000 -1.000000
vn 0.000000 0.000000 -1.000000
vn 0.000000 0.000000 -1.000000
vn -0.000000 0.000000 -1.000000
vn -0.000000 0.000000 -1.000000
vn -0.000000 0.000000 -1.000000
vn -0.000000 0.000000 -1.000000
vn 0.000000 0.000000 -1.000000
vn 0.000000 0.000000 -1.000000
vn 0.000000 0.000000 -1.000000
vn 0.000000 0.000000 -1.000000
vn 1.000000 0.000000 0.000000
vn 1.000000 0.000000 0.000000
vn 1.000000 0.000000 0.000000
vn 1.000000 0.000000 0.000000
vn 1.000000 0.000000 0.000000
vn 1.000000 0.000000 0.000000
vn 1.000000 0.000000 0.000000
vn 1.000000 0.000000 0.000000
vn -1.000000 0.000000 0.000000
vn -1.000000 0.000000 0.000000
vn -1.000000 0.000000 0.000000
vn -1.000000 0.000000 0.000000
vn 0.000000 1.000000 0.000000
vn 0.000000 1.000000 0.000000
vn 0.000000 1.000000 0.000000
vn 0.000000 1.000000 0.000000
vn -1.000000 0.000000 0.000000
vn -1.000000 0.000000 0.000000
vn -1.000000 0.000000 0.000000
vn -1.000000 0.000000 0.000000
vn 0.000000 1.000000 0.000000
vn 0.000000 1.000000 0.000000
vn 0.000000 1.000000 0.000000
vn 0.000000 1.000000 0.000000
vn -0.600927 -0.799304 0.000000
vn -0.600927 -0.799304 0.000000
vn -0.379489 -0.925196 0.000000
vn -0.379489 -0.925196 0.000000
vn 0.379489 -0.925197 0.000000
vn 0.379489 -0.925197 0.000000
vn 0.600927 -0.799304 0.000000
vn 0.600927 -0.799304 0.000000
vn 0.000000 0.000000 -1.000000
vn 0.000000 0.000000 -1.000000
vn 0.000000 0.000000 -1.000000
vn 0.000000 0.000000 -1.000000
vn 0.000000 1.000000 0.000000
vn 0.000000 1.000000 0.000000
vn 0.000000 1.000000 0.000000
vn 0.000000 1.000000 0.000000
vn 0.000000 0.000000 1.000000
vn 0.000000 0.000000 1.000000
vn 0.000000 0.000000 1.000000
vn 0.000000 0.000000 1.000000
vn 0.000000 -1.000000 0.000000
vn 0.000000 -1.000000 0.000000
vn 0.000000 0.000000 -1.000000
vn 0.000000 0.000000 -1.000000
vn 0.000000 1.000000 0.000000
vn 0.000000 1.000000 0.000000
vn 0.000000 0.000000 1.000000
vn 0.000000 0.000000 1.000000
f 1/1/1 2/2/2 4/3/3 3/4/4
f 5/5/5 6/6/6 8/7/7 7/8/8
f 2/2/9 8/9/10 6/10/11 4/3/12
f 7/11/13 1/1/14 3/4/15 5/12/16
f 9/13/17 10/14/18 12/15/19 11/16/20
f 13/17/21 14/18/22 16/19/23 15/20/24
f 10/14/25 16/21/26 14/22/27 12/15/28
f 15/23/29 9/13/30 11/16/31 13/24/32
f 17/25/33 19/26/34 20/27/35 18/28/36
f 21/29/37 23/30/38 24/31/39 22/32/40
f 18/28/41 20/27/42 22/33/43 24/34/44
f 23/35/45 21/36/46 19/26/47 17/25/48
f 25/37/49 31/38/50 33/39/51 39/40/52
f 25/41/53 26/42/54 27/43/55 28/44/56
f 26/45/57 52/46/58 49/47/59 27/48/60
f 29/49/61 31/50/62 32/51/63 30/52/64
f 31/38/65 25/37/66 28/53/67 32/54/68
f 33/55/69 34/56/70 35/57/71 36/58/72
f 51/59/73 37/60/74 38/61/75 50/62/76
f 37/63/77 39/64/78 40/65/79 38/66/80
f 39/40/81 33/39/82 36/67/83 40/68/84
f 26/42/85 25/41/86 39/64/87 37/63/88
f 35/57/89 30/52/90 32/51/91 36/58/92
f 29/49/93 34/56/94 33/55/95 31/50/96
f 26/45/97 37/60/98 51/59/99 52/46/100
f 38/66/101 40/65/102 28/44/103 27/43/104
f 40/68/105 36/67/106 32/54/107 28/53/108
f 38/61/109 27/48/110 49/47/111 50/62/112
f 42/69/113 41/70/114 30/71/115 35/72/116
f 34/73/117 43/74/118 42/69/119 35/72/120
f 44/75/121 43/74/122 34/73/123 29/76/124
f 41/70/125 44/75/126 29/76/127 30/71/128
f 46/77/129 45/78/130 41/70/114 42/69/113
f 43/74/118 47/79/131 46/77/132 42/69/119
f 48/80/133 47/79/134 43/74/122 44/75/121
f 45/78/135 48/80/136 44/75/126 41/70/125
f 50/62/112 49/47/111 45/78/130 46/77/129
f 47/79/131 51/59/73 50/62/76 46/77/132
f 52/46/100 51/59/99 47/79/134 48/80/133
f 49/47/59 52/46/58 48/80/136 45/78/135
