# This file uses meters as units for non-parametric coordinates.

v -2.519379 5.459351 2.340721
v 3.234131 5.459351 2.340721
v 3.234131 170.128876 2.340721
v -2.519379 170.128876 2.340721
v -4.535736 170.128876 0.190382
v 5.012238 170.128876 0.190382
v 5.012238 5.459351 0.190382
v -4.535736 5.459351 0.190382
v -0.000015 5.459366 0.979588
v -0.000015 170.128876 0.979588
v -6.254563 159.729279 0.979588
v -6.254563 15.858978 0.979588
v -76.690826 170.128876 0.979588
v -69.999908 159.729279 0.979588
v -76.690826 5.459366 0.979588
v -69.999908 15.858978 0.979588
v -76.690826 5.459366 -2.340721
v -76.690826 170.128876 -2.340721
v -69.999908 159.729279 -2.340721
v -69.999908 15.858978 -2.340721
v -0.000015 170.128876 -2.340721
v -6.254563 159.729279 -2.340721
v -0.000015 5.459366 -2.340721
v -6.254563 15.858978 -2.340721
vt 0.510151 0.243645
vt 0.510151 0.194000
vt 0.617688 0.194000
vt 0.617688 0.243645
vt 0.510151 0.243645
vt 0.510151 0.194000
vt 0.617688 0.194000
vt 0.617688 0.243645
vt 0.510151 0.243645
vt 0.617688 0.243645
vt 0.510151 0.194000
vt 0.617688 0.194000
vt 0.603363 0.218483
vt 0.527793 0.218268
vt 0.518286 0.196819
vt 0.612618 0.197087
vt 0.525624 0.221654
vt 0.604832 0.221654
vt 0.589107 0.241207
vt 0.536027 0.241207
vt 0.533597 0.208552
vt 0.592927 0.208630
vt 0.605334 0.226709
vt 0.520731 0.226597
vt 0.524497 0.216481
vt 0.603705 0.216481
vt 0.593274 0.242069
vt 0.540194 0.242069
vt 0.592281 0.241403
vt 0.539286 0.241252
vt 0.613441 0.195315
vt 0.514567 0.195315
vt 0.540101 0.241833
vt 0.593181 0.241833
vt 0.615696 0.238153
vt 0.592808 0.208737
vt 0.533478 0.208659
vt 0.510087 0.238013
vt 0.614787 0.205325
vt 0.515913 0.205325
vt 0.536119 0.241394
vt 0.589199 0.241394
vt 0.539180 0.241457
vt 0.592174 0.241607
vn 0.000000 0.000000 1.000000
vn 0.000000 0.000000 1.000000
vn 0.000000 0.000000 1.000000
vn 0.000000 0.000000 1.000000
vn 0.000000 0.000000 -1.000000
vn 0.000000 0.000000 -1.000000
vn 0.000000 0.000000 -1.000000
vn 0.000000 0.000000 -1.000000
vn 0.770656 0.000000 0.637252
vn 0.770656 0.000000 0.637252
vn 0.770656 0.000000 0.637252
vn 0.770656 0.000000 0.637252
vn -0.729467 0.000000 0.684016
vn -0.729467 0.000000 0.684016
vn -0.729467 0.000000 0.684016
vn -0.729467 0.000000 0.684016
vn 0.000000 1.000000 -0.000007
vn 0.000000 1.000000 -0.000007
vn 0.000000 1.000000 -0.000007
vn 0.000000 1.000000 -0.000007
vn 0.000000 -1.000000 -0.000000
vn 0.000000 -1.000000 -0.000000
vn 0.000000 -1.000000 -0.000000
vn 0.000000 -1.000000 -0.000000
vn 0.000000 -1.000000 0.000000
vn 0.000000 -1.000000 0.000000
vn 0.000000 -1.000000 0.000000
vn 0.000000 -1.000000 0.000000
vn 0.000000 0.000000 1.000000
vn 0.000000 0.000000 1.000000
vn 0.000000 0.000000 1.000000
vn 0.000000 0.000000 1.000000
vn 0.000000 0.000000 1.000000
vn 0.000000 0.000000 1.000000
vn 0.000000 0.000000 1.000000
vn 0.000000 0.000000 1.000000
vn -0.000000 0.000000 1.000000
vn -0.000000 0.000000 1.000000
vn -0.000000 0.000000 1.000000
vn -0.000000 0.000000 1.000000
vn 0.000000 0.000000 1.000000
vn 0.000000 0.000000 1.000000
vn 0.000000 0.000000 1.000000
vn 0.000000 0.000000 1.000000
vn -0.000000 0.000000 -1.000000
vn -0.000000 0.000000 -1.000000
vn -0.000000 0.000000 -1.000000
vn -0.000000 0.000000 -1.000000
vn 0.000000 0.000000 -1.000000
vn 0.000000 0.000000 -1.000000
vn 0.000000 0.000000 -1.000000
vn 0.000000 0.000000 -1.000000
vn -0.000000 0.000000 -1.000000
vn -0.000000 0.000000 -1.000000
vn -0.000000 0.000000 -1.000000
vn -0.000000 0.000000 -1.000000
vn 0.000000 0.000000 -1.000000
vn 0.000000 0.000000 -1.000000
vn 0.000000 0.000000 -1.000000
vn 0.000000 0.000000 -1.000000
vn 1.000000 0.000000 0.000000
vn 1.000000 0.000000 0.000000
vn 1.000000 0.000000 0.000000
vn 1.000000 0.000000 0.000000
vn 1.000000 0.000000 0.000000
vn 1.000000 0.000000 0.000000
vn 1.000000 0.000000 0.000000
vn 1.000000 0.000000 0.000000
vn -1.000000 0.000000 0.000000
vn -1.000000 0.000000 0.000000
vn -1.000000 0.000000 0.000000
vn -1.000000 0.000000 0.000000
vn 0.000000 1.000000 0.000000
vn 0.000000 1.000000 0.000000
vn 0.000000 1.000000 0.000000
vn 0.000000 1.000000 0.000000
vn -1.000000 0.000000 0.000000
vn -1.000000 0.000000 0.000000
vn -1.000000 0.000000 0.000000
vn -1.000000 0.000000 0.000000
vn 0.000000 1.000000 0.000000
vn 0.000000 1.000000 0.000000
vn 0.000000 1.000000 0.000000
vn 0.000000 1.000000 0.000000
vn 0.000000 -1.000000 0.000000
vn 0.000000 -1.000000 0.000000
vn 0.000000 -1.000000 0.000000
vn 0.000000 -1.000000 0.000000
f 1/1/1 2/2/2 3/3/3 4/4/4
f 5/5/5 6/6/6 7/7/7 8/8/8
f 2/2/9 7/9/10 6/10/11 3/3/12
f 8/11/13 1/1/14 4/4/15 5/12/16
f 3/3/17 6/6/18 5/12/19 4/4/20
f 2/2/21 1/1/22 8/8/23 7/9/24
f 9/13/25 15/14/26 17/15/27 23/16/28
f 9/17/29 10/18/30 11/19/31 12/20/32
f 14/21/33 11/22/34 10/23/35 13/24/36
f 13/25/37 15/26/38 16/27/39 14/28/40
f 15/14/41 9/13/42 12/29/43 16/30/44
f 17/31/45 18/32/46 19/33/47 20/34/48
f 21/35/49 22/36/50 19/37/51 18/38/52
f 21/39/53 23/40/54 24/41/55 22/42/56
f 23/16/57 17/15/58 20/43/59 24/44/60
f 10/18/61 9/17/62 23/40/63 21/39/64
f 19/33/65 14/28/66 16/27/67 20/34/68
f 13/25/69 18/32/70 17/31/71 15/26/72
f 10/23/73 21/35/74 18/38/75 13/24/76
f 22/42/77 24/41/78 12/20/79 11/19/80
f 24/44/81 20/43/82 16/30/83 12/29/84
f 22/36/85 11/22/86 14/21/87 19/37/88
