# This file uses meters as units for non-parametric coordinates.

v 2.384895 50.272263 0.000000
v -76.316551 50.272263 0.000000
v -71.546761 45.151474 0.000000
v -2.384895 45.151474 0.000000
v -76.316551 4.710876 0.000000
v -71.546761 9.831696 0.000000
v 2.384895 4.710876 0.000000
v -2.384895 9.831696 0.000000
v 2.384895 4.710876 -4.013205
v -76.316551 4.710876 -4.013205
v -71.546761 9.831696 -4.013205
v -2.384895 9.831696 -4.013205
v -76.316551 50.272263 -4.013205
v -71.546761 45.151474 -4.013205
v 2.384895 50.272263 -4.013205
v -2.384895 45.151474 -4.013205
vt 0.611913 0.202872
vt 0.611638 0.204364
vt 0.518349 0.203738
vt 0.612658 0.203738
vt 0.611381 0.205968
vt 0.527004 0.219700
vt 0.521481 0.219995
vt 0.610772 0.202731
vt 0.521737 0.218390
vt 0.528145 0.218374
vt 0.610026 0.201783
vt 0.599368 0.218752
vt 0.605514 0.220705
vt 0.611705 0.204889
vt 0.605905 0.220151
vt 0.602000 0.219240
vt 0.601254 0.218374
vt 0.521805 0.218916
vt 0.605838 0.219626
vt 0.528890 0.219240
vt 0.600113 0.219700
vt 0.521413 0.219469
vt 0.605581 0.221230
vt 0.526258 0.218752
vt 0.516005 0.203484
vt 0.515680 0.204563
vt 0.515718 0.201783
vt 0.516463 0.202731
vt 0.611314 0.205443
vt 0.515613 0.204037
vt 0.515937 0.202958
vt 0.517604 0.202872
vn 1.000000 0.000000 0.000000
vn 1.000000 0.000000 0.000000
vn 1.000000 0.000000 0.000000
vn 1.000000 0.000000 0.000000
vn 0.000000 0.000000 1.000000
vn 0.000000 0.000000 1.000000
vn 0.000000 0.000000 1.000000
vn 0.000000 0.000000 1.000000
vn 0.000000 0.000000 1.000000
vn 0.000000 0.000000 1.000000
vn 0.000000 0.000000 1.000000
vn 0.000000 0.000000 1.000000
vn 0.000000 0.000000 1.000000
vn 0.000000 0.000000 1.000000
vn 0.000000 0.000000 1.000000
vn 0.000000 0.000000 1.000000
vn 0.000000 0.000000 1.000000
vn 0.000000 0.000000 1.000000
vn 0.000000 0.000000 1.000000
vn 0.000000 0.000000 1.000000
vn 0.000000 0.000000 -1.000000
vn 0.000000 0.000000 -1.000000
vn 0.000000 0.000000 -1.000000
vn 0.000000 0.000000 -1.000000
vn 0.000000 0.000000 -1.000000
vn 0.000000 0.000000 -1.000000
vn 0.000000 0.000000 -1.000000
vn 0.000000 0.000000 -1.000000
vn 0.000000 0.000000 -1.000000
vn 0.000000 0.000000 -1.000000
vn 0.000000 0.000000 -1.000000
vn 0.000000 0.000000 -1.000000
vn -0.000000 0.000000 -1.000000
vn -0.000000 0.000000 -1.000000
vn -0.000000 0.000000 -1.000000
vn -0.000000 0.000000 -1.000000
vn 0.000000 1.000000 0.000000
vn 0.000000 1.000000 0.000000
vn 0.000000 1.000000 0.000000
vn 0.000000 1.000000 0.000000
vn 0.000000 1.000000 0.000000
vn 0.000000 1.000000 0.000000
vn 0.000000 1.000000 0.000000
vn 0.000000 1.000000 0.000000
vn 0.000000 -1.000000 0.000000
vn 0.000000 -1.000000 0.000000
vn 0.000000 -1.000000 0.000000
vn 0.000000 -1.000000 0.000000
vn -1.000000 0.000000 0.000000
vn -1.000000 0.000000 0.000000
vn -1.000000 0.000000 0.000000
vn -1.000000 0.000000 0.000000
vn 0.000000 -1.000000 0.000000
vn 0.000000 -1.000000 0.000000
vn 0.000000 -1.000000 0.000000
vn 0.000000 -1.000000 0.000000
vn -1.000000 0.000000 0.000000
vn -1.000000 0.000000 0.000000
vn -1.000000 0.000000 0.000000
vn -1.000000 0.000000 0.000000
vn 1.000000 0.000000 0.000000
vn 1.000000 0.000000 0.000000
vn 1.000000 0.000000 0.000000
vn 1.000000 0.000000 0.000000
f 1/1/1 7/32/2 9/3/3 15/4/4
f 1/26/5 2/5/6 3/23/7 4/7/8
f 2/28/9 5/8/10 6/21/11 3/6/12
f 5/31/13 7/2/14 8/19/15 6/9/16
f 7/32/17 1/1/18 4/17/19 8/10/20
f 9/29/21 10/30/22 11/22/23 12/13/24
f 10/11/25 13/27/26 14/24/27 11/12/28
f 13/14/29 15/25/30 16/18/31 14/15/32
f 15/4/33 9/3/34 12/20/35 16/16/36
f 2/5/37 1/26/38 15/25/39 13/14/40
f 11/22/41 6/9/42 8/19/43 12/13/44
f 5/31/45 10/30/46 9/29/47 7/2/48
f 2/28/49 13/27/50 10/11/51 5/8/52
f 14/15/53 16/18/54 4/7/55 3/23/56
f 16/16/57 12/20/58 8/10/59 4/17/60
f 14/24/61 3/6/62 6/21/63 11/12/64
