# This file uses meters as units for non-parametric coordinates.

v -29.668507 89.175690 -0.884548
v -27.518167 89.175690 -0.884548
v -27.518167 166.865784 -0.884548
v -29.668507 166.865784 -0.884548
v 29.668507 89.175690 -0.884548
v 27.518167 89.175690 -0.884548
v 27.518167 166.865784 -0.884548
v 29.668507 166.865784 -0.884548
v -58.165264 89.175690 -0.884548
v -56.014923 89.175690 -0.884548
v -58.165264 166.865784 -0.884548
v -56.014923 166.865784 -0.884548
v -58.165264 166.865784 -3.034887
v -56.014923 166.865784 -3.034887
v -58.165264 89.175690 -3.034887
v -56.014923 89.175690 -3.034887
v -1.075169 89.175690 -0.884548
v 1.075169 89.175690 -0.884548
v -1.075169 166.865784 -0.884548
v 1.075169 166.865784 -0.884548
v -1.075169 166.865784 -3.034887
v 1.075169 166.865784 -3.034887
v -1.075169 89.175690 -3.034887
v 1.075169 89.175690 -3.034887
v 58.165272 89.175690 -0.884552
v 56.014923 89.175690 -0.884552
v 58.165272 166.865784 -0.884552
v 56.014923 166.865784 -0.884552
v 58.165272 166.865784 -3.034887
v 56.014923 166.865784 -3.034887
v 58.165272 89.175690 -3.034887
v 56.014923 89.175690 -3.034887
v -76.704948 84.930664 -0.346448
v 76.704948 84.930664 -0.346448
v 71.935158 90.051468 -0.346448
v -71.935158 90.051468 -0.346448
v 76.704948 170.128876 -0.346448
v 71.935158 165.008026 -0.346448
v -76.704948 170.128876 -0.346448
v -71.935158 165.008026 -0.346448
v -76.704948 170.128876 -3.666757
v 76.704948 170.128876 -3.666757
v 71.935158 165.008026 -3.666757
v -71.935158 165.008026 -3.666757
v 76.704948 84.930664 -3.666757
v 71.935158 90.051468 -3.666757
v -76.704948 84.930664 -3.666757
v -71.935158 90.051468 -3.666757
vt 0.733718 0.058261
vt 0.634940 0.058261
vt 0.634940 0.004577
vt 0.733718 0.004577
vt 0.733718 0.058261
vt 0.733718 0.004577
vt 0.634940 0.004577
vt 0.634940 0.058261
vt 0.733718 0.058261
vt 0.634940 0.058261
vt 0.634940 0.004577
vt 0.733718 0.004577
vt 0.733718 0.058261
vt 0.634940 0.058261
vt 0.634940 0.004577
vt 0.733718 0.004577
vt 0.733718 0.058261
vt 0.733718 0.004577
vt 0.634940 0.058261
vt 0.634940 0.004577
vt 0.733718 0.058261
vt 0.634940 0.058261
vt 0.634940 0.004577
vt 0.733718 0.004577
vt 0.733718 0.058261
vt 0.634940 0.058261
vt 0.634940 0.004577
vt 0.733718 0.004577
vt 0.733718 0.058261
vt 0.733718 0.004577
vt 0.634940 0.058261
vt 0.634940 0.004577
vt 0.733718 0.058261
vt 0.733718 0.004577
vt 0.634940 0.004577
vt 0.634940 0.058261
vt 0.733718 0.058261
vt 0.733718 0.004577
vt 0.634940 0.004577
vt 0.634940 0.058261
vt 0.733718 0.004577
vt 0.733718 0.058261
vt 0.634940 0.058261
vt 0.634940 0.004577
vt 0.730374 0.023596
vt 0.731393 0.024856
vt 0.636278 0.022575
vt 0.730125 0.022575
vt 0.730560 0.022684
vt 0.642557 0.042832
vt 0.638197 0.038638
vt 0.730809 0.023228
vt 0.639065 0.043507
vt 0.642122 0.043200
vt 0.731059 0.024248
vt 0.725372 0.043852
vt 0.728738 0.045289
vt 0.730292 0.023635
vt 0.727328 0.053257
vt 0.724437 0.042179
vt 0.724687 0.043200
vt 0.637929 0.039589
vt 0.728472 0.046248
vt 0.641872 0.042179
vt 0.725122 0.042832
vt 0.639331 0.042548
vt 0.727596 0.043990
vt 0.642806 0.043852
vt 0.634965 0.017929
vt 0.635233 0.016978
vt 0.637212 0.024248
vt 0.636963 0.023228
vt 0.731659 0.023898
vt 0.636323 0.020975
vt 0.636057 0.021934
vt 0.636528 0.023596
vn 0.000000 0.000000 1.000000
vn 0.000000 0.000000 1.000000
vn 0.000000 0.000000 1.000000
vn 0.000000 0.000000 1.000000
vn 0.000000 0.000000 1.000000
vn 0.000000 0.000000 1.000000
vn 0.000000 0.000000 1.000000
vn 0.000000 0.000000 1.000000
vn 0.000000 0.000000 1.000000
vn 0.000000 0.000000 1.000000
vn 0.000000 0.000000 1.000000
vn 0.000000 0.000000 1.000000
vn 0.000000 0.000000 -1.000000
vn 0.000000 0.000000 -1.000000
vn 0.000000 0.000000 -1.000000
vn 0.000000 0.000000 -1.000000
vn 1.000000 0.000000 0.000000
vn 1.000000 0.000000 0.000000
vn 1.000000 0.000000 0.000000
vn 1.000000 0.000000 0.000000
vn -1.000000 0.000000 0.000000
vn -1.000000 0.000000 0.000000
vn -1.000000 0.000000 0.000000
vn -1.000000 0.000000 0.000000
vn 0.000000 0.000000 1.000000
vn 0.000000 0.000000 1.000000
vn 0.000000 0.000000 1.000000
vn 0.000000 0.000000 1.000000
vn 0.000000 0.000000 -1.000000
vn 0.000000 0.000000 -1.000000
vn 0.000000 0.000000 -1.000000
vn 0.000000 0.000000 -1.000000
vn 1.000000 0.000000 0.000000
vn 1.000000 0.000000 0.000000
vn 1.000000 0.000000 0.000000
vn 1.000000 0.000000 0.000000
vn -1.000000 0.000000 0.000000
vn -1.000000 0.000000 0.000000
vn -1.000000 0.000000 0.000000
vn -1.000000 0.000000 0.000000
vn 0.000000 0.000000 1.000000
vn 0.000000 0.000000 1.000000
vn 0.000000 0.000000 1.000000
vn 0.000000 0.000000 1.000000
vn 0.000000 0.000000 -1.000000
vn 0.000000 0.000000 -1.000000
vn 0.000000 0.000000 -1.000000
vn 0.000000 0.000000 -1.000000
vn -1.000000 0.000000 0.000000
vn -1.000000 0.000000 0.000000
vn -1.000000 0.000000 0.000000
vn -1.000000 0.000000 0.000000
vn 1.000000 0.000000 0.000000
vn 1.000000 0.000000 0.000000
vn 1.000000 0.000000 0.000000
vn 1.000000 0.000000 0.000000
vn -1.000000 0.000000 0.000000
vn -1.000000 0.000000 0.000000
vn -1.000000 0.000000 0.000000
vn -1.000000 0.000000 0.000000
vn 0.000000 0.000000 1.000000
vn 0.000000 0.000000 1.000000
vn 0.000000 0.000000 1.000000
vn 0.000000 0.000000 1.000000
vn -0.000000 0.000000 1.000000
vn -0.000000 0.000000 1.000000
vn -0.000000 0.000000 1.000000
vn -0.000000 0.000000 1.000000
vn 0.000000 0.000000 1.000000
vn 0.000000 0.000000 1.000000
vn 0.000000 0.000000 1.000000
vn 0.000000 0.000000 1.000000
vn 0.000000 0.000000 1.000000
vn 0.000000 0.000000 1.000000
vn 0.000000 0.000000 1.000000
vn 0.000000 0.000000 1.000000
vn 0.000000 0.000000 -1.000000
vn 0.000000 0.000000 -1.000000
vn 0.000000 0.000000 -1.000000
vn 0.000000 0.000000 -1.000000
vn -0.000000 0.000000 -1.000000
vn -0.000000 0.000000 -1.000000
vn -0.000000 0.000000 -1.000000
vn -0.000000 0.000000 -1.000000
vn 0.000000 0.000000 -1.000000
vn 0.000000 0.000000 -1.000000
vn 0.000000 0.000000 -1.000000
vn 0.000000 0.000000 -1.000000
vn -0.000000 0.000000 -1.000000
vn -0.000000 0.000000 -1.000000
vn -0.000000 0.000000 -1.000000
vn -0.000000 0.000000 -1.000000
vn 0.000000 -1.000000 0.000000
vn 0.000000 -1.000000 0.000000
vn 0.000000 -1.000000 0.000000
vn 0.000000 -1.000000 0.000000
vn 0.000000 -1.000000 0.000000
vn 0.000000 -1.000000 0.000000
vn 0.000000 -1.000000 0.000000
vn 0.000000 -1.000000 0.000000
vn 0.000000 1.000000 0.000000
vn 0.000000 1.000000 0.000000
vn 0.000000 1.000000 0.000000
vn 0.000000 1.000000 0.000000
vn 1.000000 0.000000 0.000000
vn 1.000000 0.000000 0.000000
vn 1.000000 0.000000 0.000000
vn 1.000000 0.000000 0.000000
vn 0.000000 1.000000 0.000000
vn 0.000000 1.000000 0.000000
vn 0.000000 1.000000 0.000000
vn 0.000000 1.000000 0.000000
vn 1.000000 0.000000 0.000000
vn 1.000000 0.000000 0.000000
vn 1.000000 0.000000 0.000000
vn 1.000000 0.000000 0.000000
vn -1.000000 0.000000 0.000000
vn -1.000000 0.000000 0.000000
vn -1.000000 0.000000 0.000000
vn -1.000000 0.000000 0.000000
f 1/1/1 2/2/2 3/3/3 4/4/4
f 5/5/5 8/6/6 7/7/7 6/8/8
f 9/9/9 10/10/10 12/11/11 11/12/12
f 13/13/13 14/14/14 16/15/15 15/16/16
f 10/10/17 16/17/18 14/18/19 12/11/20
f 15/19/21 9/9/22 11/12/23 13/20/24
f 17/21/25 18/22/26 20/23/27 19/24/28
f 21/25/29 22/26/30 24/27/31 23/28/32
f 18/22/33 24/29/34 22/30/35 20/23/36
f 23/31/37 17/21/38 19/24/39 21/32/40
f 25/33/41 27/34/42 28/35/43 26/36/44
f 29/37/45 31/38/46 32/39/47 30/40/48
f 26/36/49 28/35/50 30/41/51 32/42/52
f 31/43/53 29/44/54 27/34/55 25/33/56
f 33/45/57 39/76/58 41/47/59 47/48/60
f 33/70/61 34/49/62 35/67/63 36/51/64
f 34/72/65 37/52/66 38/65/67 35/50/68
f 37/75/69 39/46/70 40/63/71 38/53/72
f 39/76/73 33/45/74 36/61/75 40/54/76
f 41/73/77 42/74/78 43/66/79 44/57/80
f 42/55/81 45/71/82 46/68/83 43/56/84
f 45/58/85 47/69/86 48/62/87 46/59/88
f 47/48/89 41/47/90 44/64/91 48/60/92
f 34/49/93 33/70/94 47/69/95 45/58/96
f 43/66/97 38/53/98 40/63/99 44/57/100
f 37/75/101 42/74/102 41/73/103 39/46/104
f 34/72/105 45/71/106 42/55/107 37/52/108
f 46/59/109 48/62/110 36/51/111 35/67/112
f 48/60/113 44/64/114 40/54/115 36/61/116
f 46/68/117 35/50/118 38/65/119 43/56/120
