# This file uses meters as units for non-parametric coordinates.

v 25.731382 9.696442 2.777919
v 25.731382 87.386566 2.777919
v 23.581045 87.386566 2.777919
v 23.581045 9.696442 2.777919
v 25.731382 87.386566 0.627581
v 25.731382 9.696442 0.627581
v 23.581045 9.696442 0.627581
v 23.581045 87.386566 0.627581
v 51.498043 9.696442 2.777919
v 51.498043 87.386566 2.777919
v 49.347706 87.386566 2.777919
v 49.347706 9.696442 2.777919
v 51.498043 87.386566 0.627581
v 51.498043 9.696442 0.627581
v 49.347706 9.696442 0.627581
v 49.347706 87.386566 0.627581
v -25.731382 9.696442 2.777919
v -23.581045 9.696442 2.777919
v -23.581045 87.386566 2.777919
v -25.731382 87.386566 2.777919
v -25.731382 87.386566 0.627581
v -23.581045 87.386566 0.627581
v -23.581045 9.696442 0.627581
v -25.731382 9.696442 0.627581
v -51.498043 9.696442 2.777919
v -49.347706 9.696442 2.777919
v -49.347706 87.386566 2.777919
v -51.498043 87.386566 2.777919
v -51.498043 87.386566 0.627581
v -49.347706 87.386566 0.627581
v -49.347706 9.696442 0.627581
v -51.498043 9.696442 0.627581
v 72.169327 35.719818 2.207946
v -73.100464 35.719818 2.207946
v -73.100464 33.569458 2.207946
v 72.169327 33.569458 2.207946
v -73.100464 35.719818 1.197551
v 72.169327 35.719818 1.197551
v 72.169327 33.569458 1.197551
v -73.100464 33.569458 1.197551
v -1.075169 9.696442 2.777919
v 1.075169 9.696442 2.777919
v 1.075169 87.386566 2.777919
v -1.075169 87.386566 2.777919
v -1.075169 87.386566 0.627581
v 1.075169 87.386566 0.627581
v 1.075169 9.696442 0.627581
v -1.075169 9.696442 0.627581
v 72.169327 62.035385 2.207946
v -73.100464 62.035385 2.207946
v -73.100464 59.885010 2.207946
v 72.169327 59.885010 2.207946
v -73.100464 62.035385 1.197551
v 72.169327 62.035385 1.197551
v 72.169327 59.885010 1.197551
v -73.100464 59.885010 1.197551
v -76.704948 5.428986 3.666757
v 76.704948 5.428986 3.666757
v 71.935158 10.549789 3.666757
v -71.935158 10.549789 3.666757
v 76.704948 90.051468 3.666757
v 71.935158 84.930649 3.666757
v -76.704948 90.051468 3.666757
v -71.935158 84.930649 3.666757
v -76.704948 90.051468 -0.346448
v 76.704948 90.051468 -0.346448
v 71.935158 84.930649 -0.346448
v -71.935158 84.930649 -0.346448
v 76.704948 5.428986 -0.346448
v 71.935158 10.549789 -0.346448
v -76.704948 5.428986 -0.346448
v -71.935158 10.549789 -0.346448
vt 0.608718 0.120761
vt 0.608718 0.067077
vt 0.509940 0.067077
vt 0.509940 0.120761
vt 0.608718 0.120761
vt 0.608718 0.067077
vt 0.509940 0.067077
vt 0.509940 0.120761
vt 0.608718 0.067077
vt 0.608718 0.120761
vt 0.509940 0.120761
vt 0.509940 0.067077
vt 0.608718 0.120761
vt 0.608718 0.067077
vt 0.509940 0.067077
vt 0.509940 0.120761
vt 0.608718 0.120761
vt 0.608718 0.067077
vt 0.509940 0.067077
vt 0.509940 0.120761
vt 0.608718 0.067077
vt 0.608718 0.120761
vt 0.509940 0.120761
vt 0.509940 0.067077
vt 0.608718 0.120761
vt 0.509940 0.120761
vt 0.509940 0.067077
vt 0.608718 0.067077
vt 0.608718 0.120761
vt 0.509940 0.120761
vt 0.509940 0.067077
vt 0.608718 0.067077
vt 0.608718 0.120761
vt 0.608718 0.067077
vt 0.509940 0.120761
vt 0.509940 0.067077
vt 0.608718 0.120761
vt 0.509940 0.120761
vt 0.509940 0.067077
vt 0.608718 0.067077
vt 0.608718 0.120761
vt 0.509940 0.120761
vt 0.509940 0.067077
vt 0.608718 0.067077
vt 0.608718 0.120761
vt 0.608718 0.067077
vt 0.509940 0.120761
vt 0.509940 0.067077
vt 0.608718 0.120761
vt 0.608718 0.067077
vt 0.509940 0.067077
vt 0.509940 0.120761
vt 0.608718 0.120761
vt 0.608718 0.067077
vt 0.509940 0.067077
vt 0.509940 0.120761
vt 0.608718 0.067077
vt 0.608718 0.120761
vt 0.509940 0.120761
vt 0.509940 0.067077
vt 0.608718 0.120761
vt 0.509940 0.120761
vt 0.509940 0.067077
vt 0.608718 0.067077
vt 0.608718 0.120761
vt 0.509940 0.120761
vt 0.509940 0.067077
vt 0.608718 0.067077
vt 0.608718 0.120761
vt 0.608718 0.067077
vt 0.509940 0.120761
vt 0.509940 0.067077
vt 0.608718 0.120761
vt 0.608718 0.067077
vt 0.509940 0.067077
vt 0.509940 0.120761
vt 0.608718 0.120761
vt 0.608718 0.067077
vt 0.509940 0.067077
vt 0.509940 0.120761
vt 0.608718 0.067077
vt 0.608718 0.120761
vt 0.509940 0.120761
vt 0.509940 0.067077
vt 0.603091 0.081576
vt 0.605073 0.083205
vt 0.510037 0.081561
vt 0.602417 0.081561
vt 0.608830 0.079272
vt 0.535185 0.114614
vt 0.533850 0.113437
vt 0.607688 0.083318
vt 0.530096 0.116965
vt 0.530353 0.112867
vt 0.608362 0.083332
vt 0.588450 0.114623
vt 0.586925 0.116305
vt 0.608822 0.080432
vt 0.590668 0.114287
vt 0.582741 0.112857
vt 0.583179 0.112867
vt 0.533845 0.114192
vt 0.586919 0.117060
vt 0.529914 0.112857
vt 0.588012 0.114614
vt 0.530102 0.116210
vt 0.590673 0.113532
vt 0.535624 0.114623
vt 0.515687 0.080277
vt 0.515696 0.079117
vt 0.515982 0.083332
vt 0.515308 0.083318
vt 0.605082 0.082044
vt 0.511947 0.081889
vt 0.511939 0.083050
vt 0.510711 0.081576
vn 0.000000 0.000000 1.000000
vn 0.000000 0.000000 1.000000
vn 0.000000 0.000000 1.000000
vn 0.000000 0.000000 1.000000
vn 0.000000 0.000000 -1.000000
vn 0.000000 0.000000 -1.000000
vn 0.000000 0.000000 -1.000000
vn 0.000000 0.000000 -1.000000
vn -1.000000 0.000000 0.000000
vn -1.000000 0.000000 0.000000
vn -1.000000 0.000000 0.000000
vn -1.000000 0.000000 0.000000
vn 1.000000 0.000000 0.000000
vn 1.000000 0.000000 0.000000
vn 1.000000 0.000000 0.000000
vn 1.000000 0.000000 0.000000
vn 0.000000 0.000000 1.000000
vn 0.000000 0.000000 1.000000
vn 0.000000 0.000000 1.000000
vn 0.000000 0.000000 1.000000
vn 0.000000 0.000000 -1.000000
vn 0.000000 0.000000 -1.000000
vn 0.000000 0.000000 -1.000000
vn 0.000000 0.000000 -1.000000
vn -1.000000 0.000000 0.000000
vn -1.000000 0.000000 0.000000
vn -1.000000 0.000000 0.000000
vn -1.000000 0.000000 0.000000
vn 1.000000 0.000000 0.000000
vn 1.000000 0.000000 0.000000
vn 1.000000 0.000000 0.000000
vn 1.000000 0.000000 0.000000
vn 0.000000 0.000000 1.000000
vn 0.000000 0.000000 1.000000
vn 0.000000 0.000000 1.000000
vn 0.000000 0.000000 1.000000
vn 0.000000 0.000000 -1.000000
vn 0.000000 0.000000 -1.000000
vn 0.000000 0.000000 -1.000000
vn 0.000000 0.000000 -1.000000
vn 1.000000 0.000000 0.000000
vn 1.000000 0.000000 0.000000
vn 1.000000 0.000000 0.000000
vn 1.000000 0.000000 0.000000
vn -1.000000 0.000000 0.000000
vn -1.000000 0.000000 0.000000
vn -1.000000 0.000000 0.000000
vn -1.000000 0.000000 0.000000
vn 0.000000 0.000000 1.000000
vn 0.000000 0.000000 1.000000
vn 0.000000 0.000000 1.000000
vn 0.000000 0.000000 1.000000
vn 0.000000 0.000000 -1.000000
vn 0.000000 0.000000 -1.000000
vn 0.000000 0.000000 -1.000000
vn 0.000000 0.000000 -1.000000
vn 1.000000 0.000000 0.000000
vn 1.000000 0.000000 0.000000
vn 1.000000 0.000000 0.000000
vn 1.000000 0.000000 0.000000
vn -1.000000 0.000000 0.000000
vn -1.000000 0.000000 0.000000
vn -1.000000 0.000000 0.000000
vn -1.000000 0.000000 0.000000
vn 0.000000 0.000000 1.000000
vn 0.000000 0.000000 1.000000
vn 0.000000 0.000000 1.000000
vn 0.000000 0.000000 1.000000
vn 0.000000 0.000000 -1.000000
vn 0.000000 0.000000 -1.000000
vn 0.000000 0.000000 -1.000000
vn 0.000000 0.000000 -1.000000
vn 0.000000 -1.000000 0.000000
vn 0.000000 -1.000000 0.000000
vn 0.000000 -1.000000 0.000000
vn 0.000000 -1.000000 0.000000
vn 0.000000 1.000000 0.000000
vn 0.000000 1.000000 0.000000
vn 0.000000 1.000000 0.000000
vn 0.000000 1.000000 0.000000
vn 0.000000 0.000000 1.000000
vn 0.000000 0.000000 1.000000
vn 0.000000 0.000000 1.000000
vn 0.000000 0.000000 1.000000
vn 0.000000 0.000000 -1.000000
vn 0.000000 0.000000 -1.000000
vn 0.000000 0.000000 -1.000000
vn 0.000000 0.000000 -1.000000
vn 1.000000 0.000000 0.000000
vn 1.000000 0.000000 0.000000
vn 1.000000 0.000000 0.000000
vn 1.000000 0.000000 0.000000
vn -1.000000 0.000000 0.000000
vn -1.000000 0.000000 0.000000
vn -1.000000 0.000000 0.000000
vn -1.000000 0.000000 0.000000
vn 0.000000 0.000000 1.000000
vn 0.000000 0.000000 1.000000
vn 0.000000 0.000000 1.000000
vn 0.000000 0.000000 1.000000
vn 0.000000 0.000000 -1.000000
vn 0.000000 0.000000 -1.000000
vn 0.000000 0.000000 -1.000000
vn 0.000000 0.000000 -1.000000
vn 0.000000 -1.000000 0.000000
vn 0.000000 -1.000000 0.000000
vn 0.000000 -1.000000 0.000000
vn 0.000000 -1.000000 0.000000
vn 0.000000 1.000000 0.000000
vn 0.000000 1.000000 0.000000
vn 0.000000 1.000000 0.000000
vn 0.000000 1.000000 0.000000
vn -1.000000 0.000000 0.000000
vn -1.000000 0.000000 0.000000
vn -1.000000 0.000000 0.000000
vn -1.000000 0.000000 0.000000
vn 0.000000 0.000000 1.000000
vn 0.000000 0.000000 1.000000
vn 0.000000 0.000000 1.000000
vn 0.000000 0.000000 1.000000
vn 0.000000 0.000000 1.000000
vn 0.000000 0.000000 1.000000
vn 0.000000 0.000000 1.000000
vn 0.000000 0.000000 1.000000
vn 0.000000 0.000000 1.000000
vn 0.000000 0.000000 1.000000
vn 0.000000 0.000000 1.000000
vn 0.000000 0.000000 1.000000
vn -0.000000 0.000000 1.000000
vn -0.000000 0.000000 1.000000
vn -0.000000 0.000000 1.000000
vn -0.000000 0.000000 1.000000
vn 0.000000 0.000000 -1.000000
vn 0.000000 0.000000 -1.000000
vn 0.000000 0.000000 -1.000000
vn 0.000000 0.000000 -1.000000
vn -0.000000 0.000000 -1.000000
vn -0.000000 0.000000 -1.000000
vn -0.000000 0.000000 -1.000000
vn -0.000000 0.000000 -1.000000
vn 0.000000 0.000000 -1.000000
vn 0.000000 0.000000 -1.000000
vn 0.000000 0.000000 -1.000000
vn 0.000000 0.000000 -1.000000
vn -0.000000 0.000000 -1.000000
vn -0.000000 0.000000 -1.000000
vn -0.000000 0.000000 -1.000000
vn -0.000000 0.000000 -1.000000
vn 0.000000 -1.000000 0.000000
vn 0.000000 -1.000000 0.000000
vn 0.000000 -1.000000 0.000000
vn 0.000000 -1.000000 0.000000
vn 0.000000 -1.000000 0.000000
vn 0.000000 -1.000000 0.000000
vn 0.000000 -1.000000 0.000000
vn 0.000000 -1.000000 0.000000
vn 0.000000 1.000000 0.000000
vn 0.000000 1.000000 0.000000
vn 0.000000 1.000000 0.000000
vn 0.000000 1.000000 0.000000
vn 1.000000 0.000000 0.000000
vn 1.000000 0.000000 0.000000
vn 1.000000 0.000000 0.000000
vn 1.000000 0.000000 0.000000
vn 0.000000 1.000000 0.000000
vn 0.000000 1.000000 0.000000
vn 0.000000 1.000000 0.000000
vn 0.000000 1.000000 0.000000
vn 1.000000 0.000000 0.000000
vn 1.000000 0.000000 0.000000
vn 1.000000 0.000000 0.000000
vn 1.000000 0.000000 0.000000
vn -1.000000 0.000000 0.000000
vn -1.000000 0.000000 0.000000
vn -1.000000 0.000000 0.000000
vn -1.000000 0.000000 0.000000
f 1/1/1 2/2/2 3/3/3 4/4/4
f 5/5/5 6/6/6 7/7/7 8/8/8
f 4/4/9 3/3/10 8/9/11 7/10/12
f 6/11/13 5/12/14 2/2/15 1/1/16
f 9/13/17 10/14/18 11/15/19 12/16/20
f 13/17/21 14/18/22 15/19/23 16/20/24
f 12/16/25 11/15/26 16/21/27 15/22/28
f 14/23/29 13/24/30 10/14/31 9/13/32
f 17/25/33 18/26/34 19/27/35 20/28/36
f 21/29/37 22/30/38 23/31/39 24/32/40
f 18/26/41 23/33/42 22/34/43 19/27/44
f 24/35/45 17/25/46 20/28/47 21/36/48
f 25/37/49 26/38/50 27/39/51 28/40/52
f 29/41/53 30/42/54 31/43/55 32/44/56
f 26/38/57 31/45/58 30/46/59 27/39/60
f 32/47/61 25/37/62 28/40/63 29/48/64
f 33/49/65 34/50/66 35/51/67 36/52/68
f 37/53/69 38/54/70 39/55/71 40/56/72
f 36/52/73 35/51/74 40/57/75 39/58/76
f 38/59/77 37/60/78 34/50/79 33/49/80
f 41/61/81 42/62/82 43/63/83 44/64/84
f 45/65/85 46/66/86 47/67/87 48/68/88
f 42/62/89 47/69/90 46/70/91 43/63/92
f 48/71/93 41/61/94 44/64/95 45/72/96
f 49/73/97 50/74/98 51/75/99 52/76/100
f 53/77/101 54/78/102 55/79/103 56/80/104
f 52/76/105 51/75/106 56/81/107 55/82/108
f 54/83/109 53/84/110 50/74/111 49/73/112
f 57/85/113 63/116/114 65/87/115 71/88/116
f 57/110/117 58/89/118 59/107/119 60/91/120
f 58/112/121 61/92/122 62/105/123 59/90/124
f 61/115/125 63/86/126 64/103/127 62/93/128
f 63/116/129 57/85/130 60/101/131 64/94/132
f 65/113/133 66/114/134 67/106/135 68/97/136
f 66/95/137 69/111/138 70/108/139 67/96/140
f 69/98/141 71/109/142 72/102/143 70/99/144
f 71/88/145 65/87/146 68/104/147 72/100/148
f 58/89/149 57/110/150 71/109/151 69/98/152
f 67/106/153 62/93/154 64/103/155 68/97/156
f 61/115/157 66/114/158 65/113/159 63/86/160
f 58/112/161 69/111/162 66/95/163 61/92/164
f 70/99/165 72/102/166 60/91/167 59/107/168
f 72/100/169 68/104/170 64/94/171 60/101/172
f 70/108/173 59/90/174 62/105/175 67/96/176
