# This file uses meters as units for non-parametric coordinates.

v -38.165264 89.175690 -0.884548
v -36.014927 89.175690 -0.884548
v -38.165264 166.865784 -0.884548
v -36.014927 166.865784 -0.884548
v -38.165264 166.865784 -3.034887
v -36.014927 166.865784 -3.034887
v -38.165264 89.175690 -3.034887
v -36.014927 89.175690 -3.034887
v 72.169327 126.185028 -1.454521
v 72.169327 124.034668 -1.454521
v -73.100464 126.185028 -1.454521
v -73.100464 124.034668 -1.454521
v -73.100464 126.185028 -2.464916
v -73.100464 124.034668 -2.464916
v 72.169327 126.185028 -2.464916
v 72.169327 124.034668 -2.464916
v -1.075169 89.175690 -0.884548
v 1.075169 89.175690 -0.884548
v -1.075169 166.865784 -0.884548
v 1.075169 166.865784 -0.884548
v -1.075169 166.865784 -3.034887
v 1.075169 166.865784 -3.034887
v -1.075169 89.175690 -3.034887
v 1.075169 89.175690 -3.034887
v 38.165268 89.175690 -0.884552
v 36.014927 89.175690 -0.884552
v 38.165268 166.865784 -0.884552
v 36.014927 166.865784 -0.884552
v 38.165268 166.865784 -3.034887
v 36.014927 166.865784 -3.034887
v 38.165268 89.175690 -3.034887
v 36.014927 89.175690 -3.034887
v -76.704948 84.930664 -0.346448
v 76.704948 84.930664 -0.346448
v 71.935158 90.051468 -0.346448
v -71.935158 90.051468 -0.346448
v 76.704948 170.128876 -0.346448
v 71.935158 165.008026 -0.346448
v -76.704948 170.128876 -0.346448
v -71.935158 165.008026 -0.346448
v -76.704948 170.128876 -3.666757
v 76.704948 170.128876 -3.666757
v 71.935158 165.008026 -3.666757
v -71.935158 165.008026 -3.666757
v 76.704948 84.930664 -3.666757
v 71.935158 90.051468 -3.666757
v -76.704948 84.930664 -3.666757
v -71.935158 90.051468 -3.666757
vt 0.733718 0.183261
vt 0.634940 0.183261
vt 0.733718 0.129577
vt 0.634940 0.129577
vt 0.733718 0.183261
vt 0.634940 0.183261
vt 0.733718 0.129577
vt 0.634940 0.129577
vt 0.733718 0.183261
vt 0.733718 0.129577
vt 0.634940 0.183261
vt 0.634940 0.129577
vt 0.733718 0.183261
vt 0.733718 0.129577
vt 0.634940 0.129577
vt 0.634940 0.183261
vt 0.733718 0.183261
vt 0.733718 0.129577
vt 0.634940 0.129577
vt 0.634940 0.183261
vt 0.733718 0.129577
vt 0.733718 0.183261
vt 0.634940 0.183261
vt 0.634940 0.129577
vt 0.733718 0.183261
vt 0.634940 0.183261
vt 0.634940 0.129577
vt 0.733718 0.129577
vt 0.733718 0.183261
vt 0.634940 0.183261
vt 0.634940 0.129577
vt 0.733718 0.129577
vt 0.733718 0.183261
vt 0.733718 0.129577
vt 0.634940 0.183261
vt 0.634940 0.129577
vt 0.733718 0.183261
vt 0.733718 0.129577
vt 0.634940 0.129577
vt 0.634940 0.183261
vt 0.733718 0.183261
vt 0.733718 0.129577
vt 0.634940 0.129577
vt 0.634940 0.183261
vt 0.733718 0.129577
vt 0.733718 0.183261
vt 0.634940 0.183261
vt 0.634940 0.129577
vt 0.739955 0.144019
vt 0.740955 0.145080
vt 0.641669 0.144169
vt 0.740377 0.144169
vt 0.737673 0.143390
vt 0.660805 0.168489
vt 0.658360 0.168205
vt 0.737530 0.144270
vt 0.661594 0.170080
vt 0.663390 0.168295
vt 0.737109 0.144120
vt 0.714644 0.168396
vt 0.720030 0.171172
vt 0.737802 0.142900
vt 0.716957 0.168686
vt 0.717754 0.168389
vt 0.717491 0.168295
vt 0.658440 0.167900
vt 0.720110 0.170867
vt 0.663652 0.168388
vt 0.714907 0.168489
vt 0.661514 0.170385
vt 0.716877 0.168992
vt 0.660543 0.168396
vt 0.637645 0.141553
vt 0.637516 0.142043
vt 0.638401 0.144120
vt 0.638822 0.144270
vt 0.740826 0.145570
vt 0.640669 0.144223
vt 0.640798 0.143732
vt 0.641247 0.144019
vn 0.000000 0.000000 1.000000
vn 0.000000 0.000000 1.000000
vn 0.000000 0.000000 1.000000
vn 0.000000 0.000000 1.000000
vn 0.000000 0.000000 -1.000000
vn 0.000000 0.000000 -1.000000
vn 0.000000 0.000000 -1.000000
vn 0.000000 0.000000 -1.000000
vn 1.000000 0.000000 0.000000
vn 1.000000 0.000000 0.000000
vn 1.000000 0.000000 0.000000
vn 1.000000 0.000000 0.000000
vn -1.000000 0.000000 0.000000
vn -1.000000 0.000000 0.000000
vn -1.000000 0.000000 0.000000
vn -1.000000 0.000000 0.000000
vn 0.000000 0.000000 1.000000
vn 0.000000 0.000000 1.000000
vn 0.000000 0.000000 1.000000
vn 0.000000 0.000000 1.000000
vn 0.000000 0.000000 -1.000000
vn 0.000000 0.000000 -1.000000
vn 0.000000 0.000000 -1.000000
vn 0.000000 0.000000 -1.000000
vn 0.000000 -1.000000 0.000000
vn 0.000000 -1.000000 0.000000
vn 0.000000 -1.000000 0.000000
vn 0.000000 -1.000000 0.000000
vn 0.000000 1.000000 0.000000
vn 0.000000 1.000000 0.000000
vn 0.000000 1.000000 0.000000
vn 0.000000 1.000000 0.000000
vn 0.000000 0.000000 1.000000
vn 0.000000 0.000000 1.000000
vn 0.000000 0.000000 1.000000
vn 0.000000 0.000000 1.000000
vn 0.000000 0.000000 -1.000000
vn 0.000000 0.000000 -1.000000
vn 0.000000 0.000000 -1.000000
vn 0.000000 0.000000 -1.000000
vn 1.000000 0.000000 0.000000
vn 1.000000 0.000000 0.000000
vn 1.000000 0.000000 0.000000
vn 1.000000 0.000000 0.000000
vn -1.000000 0.000000 0.000000
vn -1.000000 0.000000 0.000000
vn -1.000000 0.000000 0.000000
vn -1.000000 0.000000 0.000000
vn 0.000000 0.000000 1.000000
vn 0.000000 0.000000 1.000000
vn 0.000000 0.000000 1.000000
vn 0.000000 0.000000 1.000000
vn 0.000000 0.000000 -1.000000
vn 0.000000 0.000000 -1.000000
vn 0.000000 0.000000 -1.000000
vn 0.000000 0.000000 -1.000000
vn -1.000000 0.000000 0.000000
vn -1.000000 0.000000 0.000000
vn -1.000000 0.000000 0.000000
vn -1.000000 0.000000 0.000000
vn 1.000000 0.000000 0.000000
vn 1.000000 0.000000 0.000000
vn 1.000000 0.000000 0.000000
vn 1.000000 0.000000 0.000000
vn -1.000000 0.000000 0.000000
vn -1.000000 0.000000 0.000000
vn -1.000000 0.000000 0.000000
vn -1.000000 0.000000 0.000000
vn 0.000000 0.000000 1.000000
vn 0.000000 0.000000 1.000000
vn 0.000000 0.000000 1.000000
vn 0.000000 0.000000 1.000000
vn -0.000000 0.000000 1.000000
vn -0.000000 0.000000 1.000000
vn -0.000000 0.000000 1.000000
vn -0.000000 0.000000 1.000000
vn 0.000000 0.000000 1.000000
vn 0.000000 0.000000 1.000000
vn 0.000000 0.000000 1.000000
vn 0.000000 0.000000 1.000000
vn 0.000000 0.000000 1.000000
vn 0.000000 0.000000 1.000000
vn 0.000000 0.000000 1.000000
vn 0.000000 0.000000 1.000000
vn 0.000000 0.000000 -1.000000
vn 0.000000 0.000000 -1.000000
vn 0.000000 0.000000 -1.000000
vn 0.000000 0.000000 -1.000000
vn -0.000000 0.000000 -1.000000
vn -0.000000 0.000000 -1.000000
vn -0.000000 0.000000 -1.000000
vn -0.000000 0.000000 -1.000000
vn 0.000000 0.000000 -1.000000
vn 0.000000 0.000000 -1.000000
vn 0.000000 0.000000 -1.000000
vn 0.000000 0.000000 -1.000000
vn -0.000000 0.000000 -1.000000
vn -0.000000 0.000000 -1.000000
vn -0.000000 0.000000 -1.000000
vn -0.000000 0.000000 -1.000000
vn 0.000000 -1.000000 0.000000
vn 0.000000 -1.000000 0.000000
vn 0.000000 -1.000000 0.000000
vn 0.000000 -1.000000 0.000000
vn 0.000000 -1.000000 0.000000
vn 0.000000 -1.000000 0.000000
vn 0.000000 -1.000000 0.000000
vn 0.000000 -1.000000 0.000000
vn 0.000000 1.000000 0.000000
vn 0.000000 1.000000 0.000000
vn 0.000000 1.000000 0.000000
vn 0.000000 1.000000 0.000000
vn 1.000000 0.000000 0.000000
vn 1.000000 0.000000 0.000000
vn 1.000000 0.000000 0.000000
vn 1.000000 0.000000 0.000000
vn 0.000000 1.000000 0.000000
vn 0.000000 1.000000 0.000000
vn 0.000000 1.000000 0.000000
vn 0.000000 1.000000 0.000000
vn 1.000000 0.000000 0.000000
vn 1.000000 0.000000 0.000000
vn 1.000000 0.000000 0.000000
vn 1.000000 0.000000 0.000000
vn -1.000000 0.000000 0.000000
vn -1.000000 0.000000 0.000000
vn -1.000000 0.000000 0.000000
vn -1.000000 0.000000 0.000000
f 1/1/1 2/2/2 4/4/3 3/3/4
f 5/5/5 6/6/6 8/8/7 7/7/8
f 2/2/9 8/9/10 6/10/11 4/4/12
f 7/11/13 1/1/14 3/3/15 5/12/16
f 9/13/17 11/14/18 12/15/19 10/16/20
f 13/17/21 15/18/22 16/19/23 14/20/24
f 10/16/25 12/15/26 14/21/27 16/22/28
f 15/23/29 13/24/30 11/14/31 9/13/32
f 17/25/33 18/26/34 20/27/35 19/28/36
f 21/29/37 22/30/38 24/31/39 23/32/40
f 18/26/41 24/33/42 22/34/43 20/27/44
f 23/35/45 17/25/46 19/28/47 21/36/48
f 25/37/49 27/38/50 28/39/51 26/40/52
f 29/41/53 31/42/54 32/43/55 30/44/56
f 26/40/57 28/39/58 30/45/59 32/46/60
f 31/47/61 29/48/62 27/38/63 25/37/64
f 33/49/65 39/80/66 41/51/67 47/52/68
f 33/74/69 34/53/70 35/71/71 36/55/72
f 34/76/73 37/56/74 38/69/75 35/54/76
f 37/79/77 39/50/78 40/67/79 38/57/80
f 39/80/81 33/49/82 36/65/83 40/58/84
f 41/77/85 42/78/86 43/70/87 44/61/88
f 42/59/89 45/75/90 46/72/91 43/60/92
f 45/62/93 47/73/94 48/66/95 46/63/96
f 47/52/97 41/51/98 44/68/99 48/64/100
f 34/53/101 33/74/102 47/73/103 45/62/104
f 43/70/105 38/57/106 40/67/107 44/61/108
f 37/79/109 42/78/110 41/77/111 39/50/112
f 34/76/113 45/75/114 42/59/115 37/56/116
f 46/63/117 48/66/118 36/55/119 35/71/120
f 48/64/121 44/68/122 40/58/123 36/65/124
f 46/72/125 35/54/126 38/69/127 43/60/128
