# This file uses meters as units for non-parametric coordinates.

v -76.704948 84.930664 -0.346448
v 76.704948 84.930664 -0.346448
v 71.935158 90.051468 -0.346448
v -71.935158 90.051468 -0.346448
v 76.704948 170.128876 -0.346448
v 71.935158 165.008026 -0.346448
v -76.704948 170.128876 -0.346448
v -71.935158 165.008026 -0.346448
v -76.704948 170.128876 -3.666757
v 76.704948 170.128876 -3.666757
v 71.935158 165.008026 -3.666757
v -71.935158 165.008026 -3.666757
v 76.704948 84.930664 -3.666757
v 71.935158 90.051468 -3.666757
v -76.704948 84.930664 -3.666757
v -71.935158 90.051468 -3.666757
vt 0.734612 0.010200
vt 0.734136 0.011717
vt 0.646103 0.007964
vt 0.734440 0.007964
vt 0.734623 0.013287
vt 0.651772 0.048569
vt 0.653613 0.054560
vt 0.734495 0.004818
vt 0.653126 0.052991
vt 0.656175 0.053952
vt 0.734688 0.007055
vt 0.723585 0.050806
vt 0.728910 0.054649
vt 0.734341 0.014047
vt 0.728834 0.057739
vt 0.724505 0.051715
vt 0.724677 0.053952
vt 0.653331 0.055320
vt 0.728629 0.055409
vt 0.656002 0.051715
vt 0.723392 0.048569
vt 0.653408 0.052230
vt 0.729116 0.056979
vt 0.651965 0.050806
vt 0.647824 0.011468
vt 0.648106 0.010708
vt 0.640903 0.007055
vt 0.640710 0.004818
vt 0.734417 0.010957
vt 0.647901 0.008378
vt 0.647619 0.009138
vt 0.646275 0.010200
vn -1.000000 0.000000 0.000000
vn -1.000000 0.000000 0.000000
vn -1.000000 0.000000 0.000000
vn -1.000000 0.000000 0.000000
vn 0.000000 0.000000 1.000000
vn 0.000000 0.000000 1.000000
vn 0.000000 0.000000 1.000000
vn 0.000000 0.000000 1.000000
vn -0.000000 0.000000 1.000000
vn -0.000000 0.000000 1.000000
vn -0.000000 0.000000 1.000000
vn -0.000000 0.000000 1.000000
vn 0.000000 0.000000 1.000000
vn 0.000000 0.000000 1.000000
vn 0.000000 0.000000 1.000000
vn 0.000000 0.000000 1.000000
vn 0.000000 0.000000 1.000000
vn 0.000000 0.000000 1.000000
vn 0.000000 0.000000 1.000000
vn 0.000000 0.000000 1.000000
vn 0.000000 0.000000 -1.000000
vn 0.000000 0.000000 -1.000000
vn 0.000000 0.000000 -1.000000
vn 0.000000 0.000000 -1.000000
vn -0.000000 0.000000 -1.000000
vn -0.000000 0.000000 -1.000000
vn -0.000000 0.000000 -1.000000
vn -0.000000 0.000000 -1.000000
vn 0.000000 0.000000 -1.000000
vn 0.000000 0.000000 -1.000000
vn 0.000000 0.000000 -1.000000
vn 0.000000 0.000000 -1.000000
vn -0.000000 0.000000 -1.000000
vn -0.000000 0.000000 -1.000000
vn -0.000000 0.000000 -1.000000
vn -0.000000 0.000000 -1.000000
vn 0.000000 -1.000000 0.000000
vn 0.000000 -1.000000 0.000000
vn 0.000000 -1.000000 0.000000
vn 0.000000 -1.000000 0.000000
vn 0.000000 -1.000000 0.000000
vn 0.000000 -1.000000 0.000000
vn 0.000000 -1.000000 0.000000
vn 0.000000 -1.000000 0.000000
vn 0.000000 1.000000 0.000000
vn 0.000000 1.000000 0.000000
vn 0.000000 1.000000 0.000000
vn 0.000000 1.000000 0.000000
vn 1.000000 0.000000 0.000000
vn 1.000000 0.000000 0.000000
vn 1.000000 0.000000 0.000000
vn 1.000000 0.000000 0.000000
vn 0.000000 1.000000 0.000000
vn 0.000000 1.000000 0.000000
vn 0.000000 1.000000 0.000000
vn 0.000000 1.000000 0.000000
vn 1.000000 0.000000 0.000000
vn 1.000000 0.000000 0.000000
vn 1.000000 0.000000 0.000000
vn 1.000000 0.000000 0.000000
vn -1.000000 0.000000 0.000000
vn -1.000000 0.000000 0.000000
vn -1.000000 0.000000 0.000000
vn -1.000000 0.000000 0.000000
f 1/1/1 7/32/2 9/3/3 15/4/4
f 1/26/5 2/5/6 3/23/7 4/7/8
f 2/28/9 5/8/10 6/21/11 3/6/12
f 5/31/13 7/2/14 8/19/15 6/9/16
f 7/32/17 1/1/18 4/17/19 8/10/20
f 9/29/21 10/30/22 11/22/23 12/13/24
f 10/11/25 13/27/26 14/24/27 11/12/28
f 13/14/29 15/25/30 16/18/31 14/15/32
f 15/4/33 9/3/34 12/20/35 16/16/36
f 2/5/37 1/26/38 15/25/39 13/14/40
f 11/22/41 6/9/42 8/19/43 12/13/44
f 5/31/45 10/30/46 9/29/47 7/2/48
f 2/28/49 13/27/50 10/11/51 5/8/52
f 14/15/53 16/18/54 4/7/55 3/23/56
f 16/16/57 12/20/58 8/10/59 4/17/60
f 14/24/61 3/6/62 6/21/63 11/12/64
