# This file uses meters as units for non-parametric coordinates.

v -76.704948 84.930664 -0.346448
v 76.704948 84.930664 -0.346448
v 71.935158 90.051468 -0.346448
v -71.935158 90.051468 -0.346448
v 76.704948 170.128876 -0.346448
v 71.935158 165.008026 -0.346448
v -76.704948 170.128876 -0.346448
v -71.935158 165.008026 -0.346448
v -76.704948 170.128876 -3.666757
v 76.704948 170.128876 -3.666757
v 71.935158 165.008026 -3.666757
v -71.935158 165.008026 -3.666757
v 76.704948 84.930664 -3.666757
v 71.935158 90.051468 -3.666757
v -76.704948 84.930664 -3.666757
v -71.935158 90.051468 -3.666757
vt 0.609612 0.072700
vt 0.609136 0.074217
vt 0.521103 0.070464
vt 0.609440 0.070464
vt 0.609623 0.075787
vt 0.526772 0.111069
vt 0.528613 0.117060
vt 0.609495 0.067318
vt 0.528126 0.115491
vt 0.531175 0.116452
vt 0.609688 0.069555
vt 0.598585 0.113306
vt 0.603910 0.117149
vt 0.609341 0.076547
vt 0.603834 0.120239
vt 0.599505 0.114215
vt 0.599677 0.116452
vt 0.528331 0.117820
vt 0.603629 0.117909
vt 0.531002 0.114215
vt 0.598392 0.111069
vt 0.528408 0.114730
vt 0.604116 0.119479
vt 0.526965 0.113306
vt 0.522824 0.073968
vt 0.523106 0.073208
vt 0.515903 0.069555
vt 0.515710 0.067318
vt 0.609417 0.073457
vt 0.522901 0.070878
vt 0.522619 0.071638
vt 0.521275 0.072700
vn -1.000000 0.000000 0.000000
vn -1.000000 0.000000 0.000000
vn -1.000000 0.000000 0.000000
vn -1.000000 0.000000 0.000000
vn 0.000000 0.000000 1.000000
vn 0.000000 0.000000 1.000000
vn 0.000000 0.000000 1.000000
vn 0.000000 0.000000 1.000000
vn -0.000000 0.000000 1.000000
vn -0.000000 0.000000 1.000000
vn -0.000000 0.000000 1.000000
vn -0.000000 0.000000 1.000000
vn 0.000000 0.000000 1.000000
vn 0.000000 0.000000 1.000000
vn 0.000000 0.000000 1.000000
vn 0.000000 0.000000 1.000000
vn 0.000000 0.000000 1.000000
vn 0.000000 0.000000 1.000000
vn 0.000000 0.000000 1.000000
vn 0.000000 0.000000 1.000000
vn 0.000000 0.000000 -1.000000
vn 0.000000 0.000000 -1.000000
vn 0.000000 0.000000 -1.000000
vn 0.000000 0.000000 -1.000000
vn -0.000000 0.000000 -1.000000
vn -0.000000 0.000000 -1.000000
vn -0.000000 0.000000 -1.000000
vn -0.000000 0.000000 -1.000000
vn 0.000000 0.000000 -1.000000
vn 0.000000 0.000000 -1.000000
vn 0.000000 0.000000 -1.000000
vn 0.000000 0.000000 -1.000000
vn -0.000000 0.000000 -1.000000
vn -0.000000 0.000000 -1.000000
vn -0.000000 0.000000 -1.000000
vn -0.000000 0.000000 -1.000000
vn 0.000000 -1.000000 0.000000
vn 0.000000 -1.000000 0.000000
vn 0.000000 -1.000000 0.000000
vn 0.000000 -1.000000 0.000000
vn 0.000000 -1.000000 0.000000
vn 0.000000 -1.000000 0.000000
vn 0.000000 -1.000000 0.000000
vn 0.000000 -1.000000 0.000000
vn 0.000000 1.000000 0.000000
vn 0.000000 1.000000 0.000000
vn 0.000000 1.000000 0.000000
vn 0.000000 1.000000 0.000000
vn 1.000000 0.000000 0.000000
vn 1.000000 0.000000 0.000000
vn 1.000000 0.000000 0.000000
vn 1.000000 0.000000 0.000000
vn 0.000000 1.000000 0.000000
vn 0.000000 1.000000 0.000000
vn 0.000000 1.000000 0.000000
vn 0.000000 1.000000 0.000000
vn 1.000000 0.000000 0.000000
vn 1.000000 0.000000 0.000000
vn 1.000000 0.000000 0.000000
vn 1.000000 0.000000 0.000000
vn -1.000000 0.000000 0.000000
vn -1.000000 0.000000 0.000000
vn -1.000000 0.000000 0.000000
vn -1.000000 0.000000 0.000000
f 1/1/1 7/32/2 9/3/3 15/4/4
f 1/26/5 2/5/6 3/23/7 4/7/8
f 2/28/9 5/8/10 6/21/11 3/6/12
f 5/31/13 7/2/14 8/19/15 6/9/16
f 7/32/17 1/1/18 4/17/19 8/10/20
f 9/29/21 10/30/22 11/22/23 12/13/24
f 10/11/25 13/27/26 14/24/27 11/12/28
f 13/14/29 15/25/30 16/18/31 14/15/32
f 15/4/33 9/3/34 12/20/35 16/16/36
f 2/5/37 1/26/38 15/25/39 13/14/40
f 11/22/41 6/9/42 8/19/43 12/13/44
f 5/31/45 10/30/46 9/29/47 7/2/48
f 2/28/49 13/27/50 10/11/51 5/8/52
f 14/15/53 16/18/54 4/7/55 3/23/56
f 16/16/57 12/20/58 8/10/59 4/17/60
f 14/24/61 3/6/62 6/21/63 11/12/64
