# This file uses meters as units for non-parametric coordinates.

v 0.813584 0.000000 -1.282424
v -0.667232 0.000000 -1.282425
v -1.407640 0.000000 -0.000000
v -0.667232 0.000000 1.282424
v 0.813584 0.000000 1.282425
v 1.553992 0.000000 0.000000
v 9.501990 32.373039 -0.261996
v 9.246055 32.534355 -0.261996
v 9.118088 32.615005 -0.000000
v 9.246055 32.534351 0.261996
v 9.501990 32.373039 0.261996
v 9.629961 32.292385 -0.000000
v 0.073176 0.000000 0.000000
v 9.374027 32.453697 0.000000
v 5.970018 27.549799 -0.259947
v 6.096985 27.469772 -0.000000
v 5.970019 27.549797 0.259947
v 5.716086 27.709845 0.259947
v 5.589122 27.789864 -0.000000
v 5.716087 27.709845 -0.259947
v 3.414196 22.111322 -0.577601
v 3.696315 21.933512 0.000000
v 3.414196 22.111322 0.577601
v 2.849959 22.466946 0.577601
v 2.567840 22.644753 -0.000000
v 2.849959 22.466946 -0.577601
v -0.134629 17.890974 -0.813817
v 0.335228 17.890974 0.000000
v -0.134629 17.890974 0.813817
v -1.074344 17.890974 0.813817
v -1.544201 17.890974 -0.000000
v -1.074344 17.890974 -0.813817
v 0.465072 11.927315 -0.813817
v 0.934928 11.927315 0.000000
v 0.465071 11.927315 0.813817
v -0.474643 11.927315 0.813817
v -0.944501 11.927315 -0.000000
v -0.474643 11.927315 -0.813817
v -0.054118 5.360894 -1.099624
v 0.580391 5.346202 0.000000
v -0.054118 5.360894 1.099624
v -1.323137 5.390275 1.099624
v -1.957646 5.404963 -0.000000
v -1.323136 5.390275 -1.099624
v -10.526297 27.113918 -0.261996
v -10.765650 26.928890 -0.261996
v -10.645973 27.021408 0.000000
v -10.885321 26.836376 -0.000000
v -10.765646 26.928888 0.261996
v -10.526297 27.113918 0.261996
v -10.406624 27.206436 -0.000000
v -7.089420 22.232939 -0.000000
v -7.208158 22.141148 -0.259947
v -7.208157 22.141148 0.259947
v -7.445633 21.957565 0.259947
v -7.564365 21.865774 -0.000000
v -7.445633 21.957567 -0.259947
v -2.713312 18.078053 0.000000
v -2.977142 17.874092 -0.577601
v -2.977142 17.874092 0.577601
v -3.504812 17.466173 0.577601
v -3.768642 17.262213 -0.000000
v -3.504812 17.466173 -0.577601
v -0.069813 13.533722 -0.000000
v -0.231066 13.092402 -0.541048
v -0.231066 13.092402 0.541048
v -0.553574 12.209763 0.541048
v -0.714827 11.768442 -0.000000
v -0.553572 12.209763 -0.541048
v -13.841652 10.721357 -5.433868
v -14.792538 11.282944 -3.699940
v -2.533531 15.424675 -0.282260
v -3.568421 16.682941 1.108291
v -5.175659 14.520472 -2.599222
v -7.190388 15.710354 1.074611
v -7.595512 13.715193 -5.498158
v -10.512734 15.438079 -0.178637
v -9.900433 11.795927 -6.140564
v -12.817656 13.518814 -0.821042
v -14.317095 11.002151 -4.566904
v -12.315777 14.062365 -4.460525
v -9.336148 16.373083 -3.574895
v -6.201282 16.756081 -1.979781
v -2.999759 16.714491 -0.210596
v -13.841652 10.657137 -5.433868
v -14.792538 11.218723 -3.699940
v -2.533531 15.360455 -0.282260
v -3.568421 16.618721 1.108291
v -5.175659 14.456251 -2.599222
v -7.190388 15.646133 1.074611
v -7.595512 13.650972 -5.498158
v -10.512734 15.373858 -0.178637
v -9.900433 11.731707 -6.140564
v -12.817656 13.454594 -0.821042
v -14.317095 10.937930 -4.566904
v -12.315777 13.998144 -4.460525
v -9.336148 16.308863 -3.574895
v -6.201282 16.691860 -1.979781
v -2.999759 16.650270 -0.210596
v 12.623731 18.414028 -8.772510
v 11.235497 18.758339 -10.249104
v 3.028834 20.499931 0.178515
v 1.826171 21.598282 -1.212560
v 6.244022 20.413227 -1.501302
v 3.302648 21.142746 -4.629899
v 9.893370 20.503471 -2.759123
v 5.634409 21.559772 -7.289170
v 11.692589 19.066589 -4.785721
v 7.433629 20.122894 -9.315769
v 11.929614 18.586184 -9.510806
v 10.466502 21.275150 -7.508242
v 8.128492 22.956463 -4.918098
v 5.523022 22.607319 -2.549958
v 2.831378 21.803238 -0.206883
v 12.638166 18.351563 -8.776223
v 11.249933 18.695873 -10.252817
v 3.043270 20.437466 0.174802
v 1.840607 21.535816 -1.216273
v 6.258458 20.350761 -1.505015
v 3.317084 21.080280 -4.633613
v 9.907805 20.441006 -2.762836
v 5.648846 21.497307 -7.292882
v 11.707025 19.004124 -4.789435
v 7.448065 20.060427 -9.319483
v 11.944050 18.523716 -9.514520
v 10.480938 21.212685 -7.511955
v 8.142928 22.893993 -4.921812
v 5.537458 22.544849 -2.553671
v 2.845814 21.740772 -0.210596
v 5.664638 20.218327 -9.774112
v 4.193026 19.815922 -10.021059
v 3.499861 21.017651 -0.055530
v 1.924628 21.192106 -0.340562
v 4.575882 21.427427 -2.528592
v 1.457845 20.574814 -3.051821
v 6.005290 22.149137 -4.949717
v 1.490532 20.914598 -5.707325
v 6.599590 21.218006 -6.973989
v 2.084832 19.983467 -7.731597
v 4.928832 20.017124 -9.897585
v 4.109038 21.880323 -8.048374
v 3.377903 22.955101 -5.442742
v 3.055068 22.535976 -2.835927
v 2.819683 21.780476 -0.202116
v 5.690768 20.178623 -9.782592
v 4.219156 19.776220 -10.029539
v 3.525992 20.977949 -0.064009
v 1.950759 21.152405 -0.349042
v 4.602013 21.387726 -2.537072
v 1.483975 20.535114 -3.060301
v 6.031421 22.109436 -4.958197
v 1.516663 20.874897 -5.715806
v 6.625721 21.178303 -6.982469
v 2.110963 19.943764 -7.740077
v 4.954962 19.977421 -9.906065
v 4.135169 21.840622 -8.056854
v 3.404034 22.915398 -5.451222
v 3.081199 22.496275 -2.844407
v 2.845814 21.740772 -0.210596
vt 0.558826 0.747766
vt 0.562306 0.747766
vt 0.562307 0.755998
vt 0.558826 0.755998
vt 0.565787 0.747767
vt 0.565787 0.755999
vt 0.569268 0.747766
vt 0.569268 0.755998
vt 0.572748 0.747766
vt 0.572748 0.755998
vt 0.576229 0.747766
vt 0.576229 0.755998
vt 0.579709 0.747766
vt 0.579709 0.755998
vt 0.570083 0.747862
vt 0.571384 0.747862
vt 0.570734 0.748937
vt 0.569432 0.748989
vt 0.570083 0.750116
vt 0.571384 0.750116
vt 0.572035 0.748989
vt 0.571089 0.796720
vt 0.570012 0.796720
vt 0.570550 0.795744
vt 0.569473 0.795787
vt 0.570012 0.794854
vt 0.571089 0.794854
vt 0.571627 0.795787
vt 0.576228 0.788927
vt 0.579709 0.788927
vt 0.579709 0.797159
vt 0.576228 0.797159
vt 0.572748 0.788927
vt 0.572748 0.797159
vt 0.569267 0.788927
vt 0.569267 0.797159
vt 0.565787 0.788927
vt 0.565787 0.797159
vt 0.562307 0.788927
vt 0.562307 0.797159
vt 0.558826 0.788927
vt 0.558826 0.797159
vt 0.576228 0.780695
vt 0.579709 0.780695
vt 0.572748 0.780695
vt 0.569267 0.780695
vt 0.565787 0.780695
vt 0.562307 0.780695
vt 0.558826 0.780695
vt 0.576228 0.772463
vt 0.579709 0.772462
vt 0.572748 0.772463
vt 0.569267 0.772463
vt 0.565787 0.772463
vt 0.562307 0.772463
vt 0.558826 0.772463
vt 0.576229 0.764231
vt 0.579709 0.764230
vt 0.572748 0.764230
vt 0.569268 0.764231
vt 0.565787 0.764231
vt 0.562307 0.764230
vt 0.558826 0.764230
vt 0.571089 0.796720
vt 0.570012 0.796720
vt 0.570550 0.795744
vt 0.569473 0.795787
vt 0.570012 0.794854
vt 0.571089 0.794854
vt 0.571627 0.795787
vt 0.576228 0.788927
vt 0.579709 0.788927
vt 0.579709 0.797159
vt 0.576228 0.797159
vt 0.572748 0.788927
vt 0.572748 0.797159
vt 0.569267 0.788927
vt 0.569267 0.797159
vt 0.565787 0.788927
vt 0.565787 0.797159
vt 0.562307 0.788927
vt 0.562307 0.797159
vt 0.558826 0.788927
vt 0.558826 0.797159
vt 0.576228 0.780695
vt 0.579709 0.780695
vt 0.572748 0.780695
vt 0.569267 0.780695
vt 0.565787 0.780695
vt 0.562307 0.780695
vt 0.558826 0.780695
vt 0.576228 0.772463
vt 0.579709 0.772462
vt 0.572748 0.772463
vt 0.569267 0.772463
vt 0.565787 0.772463
vt 0.562307 0.772463
vt 0.558826 0.772463
vt 0.561153 0.720872
vt 0.568241 0.720872
vt 0.562442 0.735015
vt 0.559993 0.735015
vt 0.554029 0.704574
vt 0.568241 0.704574
vt 0.554029 0.688277
vt 0.568241 0.688277
vt 0.563412 0.671980
vt 0.568241 0.671980
vt 0.573069 0.671980
vt 0.582453 0.688277
vt 0.582453 0.704574
vt 0.577151 0.720872
vt 0.566879 0.735015
vt 0.561153 0.720872
vt 0.559993 0.735015
vt 0.562442 0.735015
vt 0.568241 0.720872
vt 0.554029 0.704574
vt 0.568241 0.704574
vt 0.554029 0.688277
vt 0.568241 0.688277
vt 0.563412 0.671980
vt 0.568241 0.671980
vt 0.582453 0.688277
vt 0.573069 0.671980
vt 0.582453 0.704574
vt 0.577151 0.720872
vt 0.566879 0.735015
vt 0.561153 0.720872
vt 0.568241 0.720872
vt 0.562442 0.735015
vt 0.559993 0.735015
vt 0.554029 0.704574
vt 0.568241 0.704574
vt 0.554029 0.688277
vt 0.568241 0.688277
vt 0.563412 0.671980
vt 0.568241 0.671980
vt 0.573069 0.671980
vt 0.582453 0.688277
vt 0.582453 0.704574
vt 0.577151 0.720872
vt 0.566879 0.735015
vt 0.561153 0.720872
vt 0.559993 0.735015
vt 0.562442 0.735015
vt 0.568241 0.720872
vt 0.554029 0.704574
vt 0.568241 0.704574
vt 0.554029 0.688277
vt 0.568241 0.688277
vt 0.563412 0.671980
vt 0.568241 0.671980
vt 0.582453 0.688277
vt 0.573069 0.671980
vt 0.582453 0.704574
vt 0.577151 0.720872
vt 0.566879 0.735015
vt 0.561153 0.720872
vt 0.568241 0.720872
vt 0.562442 0.735015
vt 0.559993 0.735015
vt 0.554029 0.704574
vt 0.568241 0.704574
vt 0.554029 0.688277
vt 0.568241 0.688277
vt 0.563412 0.671980
vt 0.568241 0.671980
vt 0.573069 0.671980
vt 0.582453 0.688277
vt 0.582453 0.704574
vt 0.577151 0.720872
vt 0.566879 0.735015
vt 0.561153 0.720872
vt 0.559993 0.735015
vt 0.562442 0.735015
vt 0.568241 0.720872
vt 0.554029 0.704574
vt 0.568241 0.704574
vt 0.554029 0.688277
vt 0.568241 0.688277
vt 0.563412 0.671980
vt 0.568241 0.671980
vt 0.582453 0.688277
vt 0.573069 0.671980
vt 0.582453 0.704574
vt 0.577151 0.720872
vt 0.566879 0.735015
vn 0.530766 0.114650 -0.839728
vn -0.467736 -0.026806 -0.883462
vn -0.529275 0.032381 -0.847832
vn 0.470642 0.054033 -0.880668
vn -0.994844 -0.101419 -0.000000
vn -0.999696 0.024643 -0.000000
vn -0.467736 -0.026807 0.883462
vn -0.529275 0.032381 0.847832
vn 0.530766 0.114650 0.839728
vn 0.470642 0.054033 0.880669
vn 0.983872 0.178873 0.000000
vn 0.997706 0.067704 0.000000
vn 0.000000 -1.000000 0.000000
vn 0.000000 -1.000000 0.000000
vn 0.000000 -1.000000 0.000000
vn 0.000000 -1.000000 0.000000
vn 0.000000 -1.000000 0.000000
vn 0.000000 -1.000000 0.000000
vn 0.000000 -1.000000 0.000000
vn 0.533214 0.845980 -0.000006
vn 0.533207 0.845985 0.000000
vn 0.533208 0.845984 0.000002
vn 0.533196 0.845992 0.000006
vn 0.533202 0.845988 0.000006
vn 0.533213 0.845981 0.000006
vn 0.533214 0.845981 0.000000
vn 0.880978 -0.473158 -0.000002
vn 0.434060 -0.211071 -0.875809
vn 0.417434 -0.306043 -0.855621
vn 0.806693 -0.590971 -0.000002
vn 0.434061 -0.211072 0.875808
vn 0.417437 -0.306045 0.855618
vn -0.428218 0.295385 0.854036
vn -0.391094 0.285782 0.874856
vn -0.842280 0.539041 0.000001
vn -0.807160 0.590333 0.000003
vn -0.428218 0.295385 -0.854036
vn -0.391095 0.285782 -0.874856
vn 0.839469 -0.543407 -0.000001
vn 0.474884 -0.278984 -0.834658
vn 0.474883 -0.278984 0.834658
vn -0.400743 0.339857 0.850825
vn -0.794536 0.607217 -0.000001
vn -0.400743 0.339857 -0.850824
vn 0.963929 -0.266159 0.000000
vn 0.402045 -0.062252 -0.913501
vn 0.402045 -0.062252 0.913501
vn -0.556926 0.187246 0.809180
vn -0.971604 0.236612 -0.000000
vn -0.556926 0.187246 -0.809180
vn 0.999918 0.012797 0.000000
vn 0.524718 0.020234 -0.851035
vn 0.524718 0.020234 0.851036
vn -0.474780 0.036022 0.879367
vn -0.999016 0.044358 -0.000000
vn -0.474779 0.036022 -0.879367
vn -0.611604 0.791164 -0.000012
vn -0.611608 0.791161 -0.000009
vn -0.611609 0.791160 0.000002
vn -0.611615 0.791156 0.000009
vn -0.611613 0.791157 0.000015
vn -0.611607 0.791162 0.000009
vn -0.611606 0.791163 -0.000000
vn 0.746768 0.665084 -0.000002
vn 0.347220 0.335259 -0.875808
vn 0.430720 0.287050 -0.855618
vn 0.831931 0.554878 -0.000002
vn 0.347220 0.335259 0.875808
vn 0.430720 0.287050 0.855618
vn -0.424406 -0.300834 0.854036
vn -0.402647 -0.269262 0.874857
vn -0.795369 -0.606126 -0.000002
vn -0.831492 -0.555536 -0.000004
vn -0.424407 -0.300834 -0.854036
vn -0.402648 -0.269262 -0.874856
vn 0.794109 0.607775 -0.000000
vn 0.393855 0.313624 -0.864013
vn 0.393854 0.313623 0.864013
vn -0.392971 -0.248007 0.885476
vn -0.833927 -0.551874 -0.000001
vn -0.392971 -0.248007 -0.885476
vn 0.866862 0.498548 0.000001
vn 0.260193 0.143979 -0.954762
vn 0.260193 0.143978 0.954762
vn -0.583081 -0.329501 0.742594
vn -0.872137 -0.489262 -0.000002
vn -0.583080 -0.329501 -0.742594
vn 0.454041 0.517192 -0.725507
vn 0.133671 0.951148 -0.278297
vn 0.192655 0.904638 -0.380150
vn 0.496845 0.364631 -0.787521
vn 0.079776 0.561307 -0.823754
vn -0.188165 0.899426 -0.394496
vn -0.215598 0.475537 -0.852867
vn -0.521129 0.685881 -0.507930
vn -0.370630 0.411804 -0.832497
vn -0.621014 0.579147 -0.528138
vn -0.757548 0.640315 -0.126956
vn -0.668644 0.743102 -0.026743
vn -0.441322 0.889687 0.117010
vn -0.190549 0.959159 0.209058
vn -0.178348 0.968282 0.174992
vn -0.454041 -0.517192 0.725507
vn -0.496845 -0.364630 0.787521
vn -0.192655 -0.904638 0.380150
vn -0.133671 -0.951148 0.278298
vn -0.079776 -0.561307 0.823754
vn 0.188165 -0.899426 0.394496
vn 0.215598 -0.475537 0.852867
vn 0.521129 -0.685881 0.507930
vn 0.370630 -0.411804 0.832497
vn 0.621014 -0.579147 0.528138
vn 0.668644 -0.743102 0.026744
vn 0.757548 -0.640315 0.126956
vn 0.441322 -0.889687 -0.117010
vn 0.190549 -0.959159 -0.209057
vn 0.178348 -0.968282 -0.174991
vn 0.392751 0.580055 0.713640
vn -0.004837 0.960117 0.279558
vn 0.078689 0.926321 0.368426
vn 0.469201 0.437707 0.766983
vn 0.599391 0.691632 0.402959
vn 0.221985 0.974872 0.018617
vn 0.745340 0.653206 0.133379
vn 0.486427 0.833187 -0.263038
vn 0.793579 0.608070 -0.022015
vn 0.562723 0.746553 -0.354968
vn 0.228703 0.748170 -0.622845
vn 0.083922 0.817251 -0.570138
vn -0.157378 0.902172 -0.401645
vn -0.342050 0.918762 -0.197176
vn -0.317111 0.932470 -0.173034
vn -0.392751 -0.580056 -0.713640
vn -0.469201 -0.437708 -0.766983
vn -0.078690 -0.926321 -0.368425
vn 0.004836 -0.960117 -0.279557
vn -0.599391 -0.691632 -0.402959
vn -0.221985 -0.974872 -0.018617
vn -0.745339 -0.653207 -0.133379
vn -0.486427 -0.833187 0.263038
vn -0.793578 -0.608070 0.022015
vn -0.562722 -0.746553 0.354968
vn -0.083922 -0.817252 0.570138
vn -0.228703 -0.748171 0.622844
vn 0.157378 -0.902172 0.401644
vn 0.342049 -0.918762 0.197175
vn 0.317110 -0.932470 0.173034
vn 0.430141 0.843118 0.322692
vn -0.255536 0.941973 0.217689
vn -0.132221 0.962330 0.237568
vn 0.574700 0.753422 0.319493
vn 0.361249 0.931107 -0.050382
vn -0.241644 0.961951 -0.127512
vn 0.334568 0.873839 -0.352804
vn -0.145918 0.847160 -0.510909
vn 0.303029 0.808109 -0.505107
vn -0.104830 0.769771 -0.629654
vn -0.493469 0.590311 -0.638765
vn -0.598059 0.618817 -0.509305
vn -0.715296 0.660115 -0.229345
vn -0.743078 0.667679 0.045168
vn -0.717628 0.694698 0.049031
vn -0.430141 -0.843119 -0.322692
vn -0.574699 -0.753422 -0.319493
vn 0.132220 -0.962330 -0.237568
vn 0.255536 -0.941973 -0.217689
vn -0.361248 -0.931108 0.050382
vn 0.241643 -0.961951 0.127512
vn -0.334568 -0.873839 0.352804
vn 0.145917 -0.847160 0.510909
vn -0.303029 -0.808108 0.505108
vn 0.104829 -0.769771 0.629654
vn 0.598059 -0.618817 0.509305
vn 0.493470 -0.590311 0.638765
vn 0.715296 -0.660116 0.229345
vn 0.743077 -0.667680 -0.045168
vn 0.717628 -0.694699 -0.049031
f 1/1/1 2/2/2 44/3/3 39/4/4
f 2/2/2 3/5/5 43/6/6 44/3/3
f 3/5/5 4/7/7 42/8/8 43/6/6
f 4/7/7 5/9/9 41/10/10 42/8/8
f 5/9/9 6/11/11 40/12/12 41/10/10
f 6/11/11 1/13/1 39/14/4 40/12/12
f 2/15/13 1/16/14 13/17/15
f 3/18/16 2/15/13 13/17/15
f 4/19/17 3/18/16 13/17/15
f 5/20/18 4/19/17 13/17/15
f 6/21/19 5/20/18 13/17/15
f 1/16/14 6/21/19 13/17/15
f 7/22/20 8/23/21 14/24/22
f 8/23/21 9/25/23 14/24/22
f 9/25/23 10/26/24 14/24/22
f 10/26/24 11/27/25 14/24/22
f 11/27/25 12/28/26 14/24/22
f 12/28/26 7/22/20 14/24/22
f 16/29/27 15/30/28 7/31/29 12/32/30
f 17/33/31 16/29/27 12/32/30 11/34/32
f 18/35/33 17/33/31 11/34/32 10/36/34
f 19/37/35 18/35/33 10/36/34 9/38/36
f 20/39/37 19/37/35 9/38/36 8/40/38
f 15/41/28 20/39/37 8/40/38 7/42/29
f 22/43/39 21/44/40 15/30/28 16/29/27
f 23/45/41 22/43/39 16/29/27 17/33/31
f 24/46/42 23/45/41 17/33/31 18/35/33
f 25/47/43 24/46/42 18/35/33 19/37/35
f 26/48/44 25/47/43 19/37/35 20/39/37
f 21/49/40 26/48/44 20/39/37 15/41/28
f 28/50/45 27/51/46 21/44/40 22/43/39
f 29/52/47 28/50/45 22/43/39 23/45/41
f 30/53/48 29/52/47 23/45/41 24/46/42
f 31/54/49 30/53/48 24/46/42 25/47/43
f 32/55/50 31/54/49 25/47/43 26/48/44
f 27/56/46 32/55/50 26/48/44 21/49/40
f 34/57/51 33/58/52 27/51/46 28/50/45
f 35/59/53 34/57/51 28/50/45 29/52/47
f 36/60/54 35/59/53 29/52/47 30/53/48
f 37/61/55 36/60/54 30/53/48 31/54/49
f 38/62/56 37/61/55 31/54/49 32/55/50
f 33/63/52 38/62/56 32/55/50 27/56/46
f 40/12/12 39/14/4 33/58/52 34/57/51
f 41/10/10 40/12/12 34/57/51 35/59/53
f 42/8/8 41/10/10 35/59/53 36/60/54
f 43/6/6 42/8/8 36/60/54 37/61/55
f 44/3/3 43/6/6 37/61/55 38/62/56
f 39/4/4 44/3/3 38/62/56 33/63/52
f 45/64/57 46/65/58 47/66/59
f 46/65/58 48/67/60 47/66/59
f 48/67/60 49/68/61 47/66/59
f 49/68/61 50/69/62 47/66/59
f 50/69/62 51/70/63 47/66/59
f 51/70/63 45/64/57 47/66/59
f 52/71/64 53/72/65 45/73/66 51/74/67
f 54/75/68 52/71/64 51/74/67 50/76/69
f 55/77/70 54/75/68 50/76/69 49/78/71
f 56/79/72 55/77/70 49/78/71 48/80/73
f 57/81/74 56/79/72 48/80/73 46/82/75
f 53/83/65 57/81/74 46/82/75 45/84/66
f 58/85/76 59/86/77 53/72/65 52/71/64
f 60/87/78 58/85/76 52/71/64 54/75/68
f 61/88/79 60/87/78 54/75/68 55/77/70
f 62/89/80 61/88/79 55/77/70 56/79/72
f 63/90/81 62/89/80 56/79/72 57/81/74
f 59/91/77 63/90/81 57/81/74 53/83/65
f 64/92/82 65/93/83 59/86/77 58/85/76
f 66/94/84 64/92/82 58/85/76 60/87/78
f 67/95/85 66/94/84 60/87/78 61/88/79
f 68/96/86 67/95/85 61/88/79 62/89/80
f 69/97/87 68/96/86 62/89/80 63/90/81
f 65/98/83 69/97/87 63/90/81 59/91/77
f 74/99/88 83/100/89 84/101/90 72/102/91
f 76/103/92 82/104/93 83/100/89 74/99/88
f 78/105/94 81/106/95 82/104/93 76/103/92
f 70/107/96 80/108/97 81/106/95 78/105/94
f 80/108/97 71/109/98 79/110/99 81/106/95
f 82/104/93 81/106/95 79/110/99 77/111/100
f 83/100/89 82/104/93 77/111/100 75/112/101
f 84/101/90 83/100/89 75/112/101 73/113/102
f 89/114/103 87/115/104 99/116/105 98/117/106
f 91/118/107 89/114/103 98/117/106 97/119/108
f 93/120/109 91/118/107 97/119/108 96/121/110
f 85/122/111 93/120/109 96/121/110 95/123/112
f 95/123/112 96/121/110 94/124/113 86/125/114
f 97/119/108 92/126/115 94/124/113 96/121/110
f 98/117/106 90/127/116 92/126/115 97/119/108
f 99/116/105 88/128/117 90/127/116 98/117/106
f 104/129/118 113/130/119 114/131/120 102/132/121
f 106/133/122 112/134/123 113/130/119 104/129/118
f 108/135/124 111/136/125 112/134/123 106/133/122
f 100/137/126 110/138/127 111/136/125 108/135/124
f 110/138/127 101/139/128 109/140/129 111/136/125
f 112/134/123 111/136/125 109/140/129 107/141/130
f 113/130/119 112/134/123 107/141/130 105/142/131
f 114/131/120 113/130/119 105/142/131 103/143/132
f 119/144/133 117/145/134 129/146/135 128/147/136
f 121/148/137 119/144/133 128/147/136 127/149/138
f 123/150/139 121/148/137 127/149/138 126/151/140
f 115/152/141 123/150/139 126/151/140 125/153/142
f 125/153/142 126/151/140 124/154/143 116/155/144
f 127/149/138 122/156/145 124/154/143 126/151/140
f 128/147/136 120/157/146 122/156/145 127/149/138
f 129/146/135 118/158/147 120/157/146 128/147/136
f 134/159/148 143/160/149 144/161/150 132/162/151
f 136/163/152 142/164/153 143/160/149 134/159/148
f 138/165/154 141/166/155 142/164/153 136/163/152
f 130/167/156 140/168/157 141/166/155 138/165/154
f 140/168/157 131/169/158 139/170/159 141/166/155
f 142/164/153 141/166/155 139/170/159 137/171/160
f 143/160/149 142/164/153 137/171/160 135/172/161
f 144/161/150 143/160/149 135/172/161 133/173/162
f 149/174/163 147/175/164 159/176/165 158/177/166
f 151/178/167 149/174/163 158/177/166 157/179/168
f 153/180/169 151/178/167 157/179/168 156/181/170
f 145/182/171 153/180/169 156/181/170 155/183/172
f 155/183/172 156/181/170 154/184/173 146/185/174
f 157/179/168 152/186/175 154/184/173 156/181/170
f 158/177/166 150/187/176 152/186/175 157/179/168
f 159/176/165 148/188/177 150/187/176 158/177/166
