# This file uses centimeters as units for non-parametric coordinates.

v 85.429115 -382.582703 0.625885
v 86.680885 -382.582703 0.625885
v 85.429115 -3.059647 0.625885
v 86.680885 -3.059647 0.625885
v 85.429115 -3.059647 -0.625885
v 86.680885 -3.059647 -0.625885
v 85.429115 -382.582703 -0.625885
v 86.680885 -382.582703 -0.625885
v -85.658501 -382.582703 0.625885
v -84.406731 -382.582703 0.625885
v -85.658501 -3.059647 0.625885
v -84.406731 -3.059647 0.625885
v -85.658501 -3.059647 -0.625885
v -84.406731 -3.059647 -0.625885
v -85.658501 -382.582703 -0.625885
v -84.406731 -382.582703 -0.625885
vt 0.262819 0.980662
vt 0.266509 0.980662
vt 0.262819 0.984352
vt 0.266509 0.984352
vt 0.262819 0.988042
vt 0.266509 0.988042
vt 0.262819 0.991732
vt 0.266509 0.991732
vt 0.262819 0.995422
vt 0.266509 0.995422
vt 0.270199 0.980662
vt 0.270199 0.984352
vt 0.259129 0.980662
vt 0.259129 0.984352
vt 0.262819 0.980662
vt 0.266509 0.980662
vt 0.266509 0.984352
vt 0.262819 0.984352
vt 0.262819 0.988042
vt 0.266509 0.988042
vt 0.266509 0.991732
vt 0.262819 0.991732
vt 0.266509 0.995422
vt 0.262819 0.995422
vt 0.270199 0.980662
vt 0.270199 0.984352
vt 0.259129 0.980662
vt 0.259129 0.984352
vn 0.000000 0.000000 1.000000
vn 0.000000 0.000000 1.000000
vn 0.000000 0.000000 1.000000
vn 0.000000 0.000000 1.000000
vn 0.000000 0.000000 -1.000000
vn 0.000000 0.000000 -1.000000
vn 0.000000 0.000000 -1.000000
vn 0.000000 0.000000 -1.000000
vn 0.000000 -1.000000 0.000000
vn 0.000000 -1.000000 0.000000
vn 0.000000 -1.000000 0.000000
vn 0.000000 -1.000000 0.000000
vn 1.000000 0.000000 0.000000
vn 1.000000 0.000000 0.000000
vn 1.000000 0.000000 0.000000
vn 1.000000 0.000000 0.000000
vn -1.000000 0.000000 0.000000
vn -1.000000 0.000000 0.000000
vn -1.000000 0.000000 0.000000
vn -1.000000 0.000000 0.000000
vn 0.000000 0.000000 1.000000
vn 0.000000 0.000000 1.000000
vn 0.000000 0.000000 1.000000
vn 0.000000 0.000000 1.000000
vn 0.000000 0.000000 -1.000000
vn 0.000000 0.000000 -1.000000
vn 0.000000 0.000000 -1.000000
vn 0.000000 0.000000 -1.000000
vn 0.000000 -1.000000 0.000000
vn 0.000000 -1.000000 0.000000
vn 0.000000 -1.000000 0.000000
vn 0.000000 -1.000000 0.000000
vn 1.000000 0.000000 0.000000
vn 1.000000 0.000000 0.000000
vn 1.000000 0.000000 0.000000
vn 1.000000 0.000000 0.000000
vn -1.000000 0.000000 0.000000
vn -1.000000 0.000000 0.000000
vn -1.000000 0.000000 0.000000
vn -1.000000 0.000000 0.000000
f 1/1/1 2/2/2 4/4/3 3/3/4
f 5/5/5 6/6/6 8/8/7 7/7/8
f 7/7/9 8/8/10 2/10/11 1/9/12
f 2/2/13 8/11/14 6/12/15 4/4/16
f 7/13/17 1/1/18 3/3/19 5/14/20
f 9/15/21 10/16/22 12/17/23 11/18/24
f 13/19/25 14/20/26 16/21/27 15/22/28
f 15/22/29 16/21/30 10/23/31 9/24/32
f 10/16/33 16/25/34 14/26/35 12/17/36
f 15/27/37 9/15/38 11/18/39 13/28/40
