# This file uses centimeters as units for non-parametric coordinates.

v 92.288155 -220.611053 -1.481651
v 93.219444 -220.611053 -1.481651
v 92.288155 -3.011623 -0.715500
v 93.219444 -3.011623 -0.715500
v 92.288155 -3.011623 -1.646786
v 93.219444 -3.011623 -1.646786
v 92.288155 -220.611053 -2.412937
v 93.219444 -220.611053 -2.412937
v 92.288155 -220.611053 4.668843
v 93.219444 -220.611053 4.668843
v 92.288155 -3.011623 3.299231
v 93.219444 -3.011623 3.299231
v 92.288155 -3.011623 2.367945
v 93.219444 -3.011623 2.367945
v 92.288155 -220.611053 3.737557
v 93.219444 -220.611053 3.737557
v 93.219444 -221.655640 -0.840647
v 92.288155 -221.655640 -0.840647
v 92.288155 -222.292526 -1.368744
v 93.219444 -222.292526 -1.368744
v 93.219444 -221.655640 3.096553
v 92.288155 -221.655640 3.096553
v 92.288155 -222.292526 3.624652
v 93.219444 -222.292526 3.624652
v 93.219444 -195.287231 2.367945
v 92.288155 -195.287231 2.367945
v 92.288155 -195.287231 3.299231
v 93.219444 -195.287231 3.299231
v 93.219444 -195.237213 -0.715500
v 92.288155 -195.237213 -0.715500
v 92.288155 -195.237213 -1.646786
v 93.219444 -195.237213 -1.646786
v 93.219444 -213.050949 4.582650
v 92.288162 -213.050949 4.582650
v 92.288155 -213.050949 5.513935
v 93.219444 -213.050949 5.513935
v 93.219444 -212.968369 -2.552707
v 92.288155 -212.968369 -2.552707
v 92.288155 -212.968369 -3.483993
v 93.219444 -212.968369 -3.483993
v 93.219444 -222.332703 1.173577
v 93.219444 -222.969589 1.185817
v 92.288155 -222.969589 1.185817
v 92.288155 -222.332703 1.173577
vt 0.262666 0.941435
vt 0.267115 0.941435
vt 0.267350 0.942116
vt 0.262898 0.942116
vt 0.263102 0.942124
vt 0.267548 0.942122
vt 0.267319 0.941441
vt 0.262868 0.941441
vt 0.261629 0.943627
vt 0.266076 0.943625
vt 0.266068 0.960559
vt 0.261619 0.960561
vt 0.261821 0.960567
vt 0.266270 0.960567
vt 0.266279 0.943633
vt 0.261829 0.943633
vt 0.266121 0.941306
vt 0.261675 0.941306
vt 0.261536 0.941393
vt 0.265981 0.941393
vt 0.261558 0.941245
vt 0.261334 0.941387
vt 0.266008 0.941245
vt 0.265779 0.941384
vt 0.262526 0.941338
vt 0.266978 0.941336
vt 0.262643 0.941285
vt 0.267089 0.941285
vt 0.262092 0.941261
vt 0.266537 0.941261
vt 0.262088 0.941205
vt 0.266537 0.941205
vt 0.265798 0.942051
vt 0.261352 0.942051
vt 0.261150 0.942045
vt 0.265600 0.942045
vt 0.262500 0.943662
vt 0.266947 0.943662
vt 0.266939 0.960591
vt 0.262490 0.960591
vt 0.262700 0.943670
vt 0.262692 0.960599
vt 0.267141 0.960599
vt 0.267149 0.943670
vn -0.704783 0.137172 0.696035
vn 0.704783 0.137172 0.696035
vn 0.731280 -0.020586 0.681766
vn -0.731280 -0.020586 0.681766
vn -0.679810 0.022135 -0.733054
vn 0.679810 0.022134 -0.733054
vn 0.693229 -0.159449 -0.702858
vn -0.693229 -0.159448 -0.702858
vn 0.704783 0.137172 0.696035
vn 0.693229 -0.159449 -0.702858
vn 0.679810 0.022134 -0.733054
vn 0.731280 -0.020586 0.681766
vn -0.693229 -0.159448 -0.702858
vn -0.704783 0.137172 0.696035
vn -0.731280 -0.020586 0.681766
vn -0.679810 0.022135 -0.733054
vn -0.709435 0.007431 0.704732
vn 0.709435 0.007431 0.704732
vn 0.707105 0.000000 0.707108
vn -0.707105 0.000000 0.707108
vn -0.707105 0.000000 -0.707108
vn 0.707105 0.000000 -0.707108
vn 0.704713 -0.007481 -0.709453
vn -0.704713 -0.007481 -0.709453
vn 0.709435 0.007431 0.704732
vn 0.704713 -0.007481 -0.709453
vn 0.707105 0.000000 -0.707108
vn 0.707105 0.000000 0.707108
vn -0.704713 -0.007481 -0.709453
vn -0.709435 0.007431 0.704732
vn -0.707105 0.000000 0.707108
vn -0.707105 0.000000 -0.707108
vn 0.768332 0.531371 -0.356805
vn -0.768332 0.531372 -0.356805
vn -0.712053 0.119494 -0.691883
vn 0.712054 0.119493 -0.691882
vn -0.768332 0.531372 -0.356805
vn -0.481735 -0.725609 0.491348
vn -0.689199 -0.145124 0.709890
vn -0.712053 0.119494 -0.691883
vn -0.481735 -0.725609 0.491348
vn 0.481734 -0.725610 0.491348
vn 0.689197 -0.145125 0.709891
vn -0.689199 -0.145124 0.709890
vn 0.481734 -0.725610 0.491348
vn 0.768332 0.531371 -0.356805
vn 0.712054 0.119493 -0.691882
vn 0.689197 -0.145125 0.709891
vn 0.704783 0.137172 0.696035
vn -0.704783 0.137172 0.696035
vn -0.768354 0.537016 0.348203
vn 0.768353 0.537019 0.348203
vn -0.704783 0.137172 0.696035
vn -0.693229 -0.159448 -0.702858
vn -0.478483 -0.734426 -0.481325
vn -0.768354 0.537016 0.348203
vn -0.693229 -0.159448 -0.702858
vn 0.693229 -0.159449 -0.702858
vn 0.478484 -0.734424 -0.481325
vn -0.478483 -0.734426 -0.481325
vn 0.693229 -0.159449 -0.702858
vn 0.704783 0.137172 0.696035
vn 0.768353 0.537019 0.348203
vn 0.478484 -0.734424 -0.481325
vn 0.768353 0.537019 0.348203
vn -0.768354 0.537016 0.348203
vn -0.726569 0.687094 0.000000
vn 0.726567 0.687096 0.000000
vn -0.768354 0.537016 0.348203
vn -0.478483 -0.734426 -0.481325
vn -0.496653 -0.867949 0.000000
vn -0.726569 0.687094 0.000000
vn -0.478483 -0.734426 -0.481325
vn 0.478484 -0.734424 -0.481325
vn 0.496654 -0.867949 0.000000
vn -0.496653 -0.867949 0.000000
vn 0.478484 -0.734424 -0.481325
vn 0.768353 0.537019 0.348203
vn 0.726567 0.687096 0.000000
vn 0.496654 -0.867949 0.000000
vn -0.704713 -0.007481 -0.709453
vn 0.704713 -0.007481 -0.709453
vn 0.732179 -0.036783 -0.680118
vn -0.732177 -0.036783 -0.680120
vn -0.732177 -0.036783 -0.680120
vn -0.677894 0.039702 0.734087
vn -0.709435 0.007431 0.704732
vn -0.704713 -0.007481 -0.709453
vn -0.677894 0.039702 0.734087
vn 0.677893 0.039702 0.734088
vn 0.709435 0.007431 0.704732
vn -0.709435 0.007431 0.704732
vn 0.677893 0.039702 0.734088
vn 0.732179 -0.036783 -0.680118
vn 0.704713 -0.007481 -0.709453
vn 0.709435 0.007431 0.704732
vn -0.705121 -0.006205 0.709060
vn 0.705121 -0.006205 0.709060
vn 0.707105 0.000000 0.707108
vn -0.707105 0.000000 0.707108
vn -0.709046 0.006170 -0.705135
vn -0.705121 -0.006205 0.709060
vn -0.707105 0.000000 0.707108
vn -0.707105 0.000000 -0.707108
vn -0.707105 0.000000 -0.707108
vn 0.707105 0.000000 -0.707108
vn 0.709046 0.006170 -0.705135
vn -0.709046 0.006170 -0.705135
vn 0.705121 -0.006205 0.709060
vn 0.709046 0.006170 -0.705135
vn 0.707105 0.000000 -0.707108
vn 0.707105 0.000000 0.707108
vn -0.732177 -0.036783 -0.680120
vn 0.732179 -0.036783 -0.680118
vn 0.712054 0.119493 -0.691882
vn -0.712053 0.119494 -0.691883
vn -0.712053 0.119494 -0.691883
vn -0.689199 -0.145124 0.709890
vn -0.677894 0.039702 0.734087
vn -0.732177 -0.036783 -0.680120
vn -0.689199 -0.145124 0.709890
vn 0.689197 -0.145125 0.709891
vn 0.677893 0.039702 0.734088
vn -0.677894 0.039702 0.734087
vn 0.689197 -0.145125 0.709891
vn 0.712054 0.119493 -0.691882
vn 0.732179 -0.036783 -0.680118
vn 0.677893 0.039702 0.734088
vn -0.731280 -0.020586 0.681766
vn 0.731280 -0.020586 0.681766
vn 0.705121 -0.006205 0.709060
vn -0.705121 -0.006205 0.709060
vn -0.679810 0.022135 -0.733054
vn -0.731280 -0.020586 0.681766
vn -0.705121 -0.006205 0.709060
vn -0.709046 0.006170 -0.705135
vn -0.709046 0.006170 -0.705135
vn 0.709046 0.006170 -0.705135
vn 0.679810 0.022134 -0.733054
vn -0.679810 0.022135 -0.733054
vn 0.731280 -0.020586 0.681766
vn 0.679810 0.022134 -0.733054
vn 0.709046 0.006170 -0.705135
vn 0.705121 -0.006205 0.709060
vn 0.496654 -0.867949 0.000000
vn 0.726567 0.687096 0.000000
vn 0.768332 0.531371 -0.356805
vn 0.481734 -0.725610 0.491348
vn -0.496653 -0.867949 0.000000
vn 0.496654 -0.867949 0.000000
vn 0.481734 -0.725610 0.491348
vn -0.481735 -0.725609 0.491348
vn -0.726569 0.687094 0.000000
vn -0.496653 -0.867949 0.000000
vn -0.481735 -0.725609 0.491348
vn -0.768332 0.531372 -0.356805
vn 0.726567 0.687096 0.000000
vn -0.726569 0.687094 0.000000
vn -0.768332 0.531372 -0.356805
vn 0.768332 0.531371 -0.356805
f 1/1/1 2/2/2 37/3/3 38/4/4
f 39/5/5 40/6/6 8/7/7 7/8/8
f 2/2/9 8/7/10 40/6/11 37/3/12
f 7/8/13 1/1/14 38/4/15 39/5/16
f 27/9/17 28/10/18 12/11/19 11/12/20
f 13/13/21 14/14/22 25/15/23 26/16/24
f 28/10/25 25/15/26 14/14/27 12/11/28
f 26/16/29 27/9/30 11/12/31 13/13/32
f 21/17/33 22/18/34 15/19/35 16/20/36
f 22/18/37 23/21/38 9/22/39 15/19/40
f 23/21/41 24/23/42 10/24/43 9/22/44
f 24/23/45 21/17/46 16/20/47 10/24/48
f 2/2/49 1/1/50 18/25/51 17/26/52
f 1/1/53 7/8/54 19/27/55 18/25/56
f 7/8/57 8/7/58 20/28/59 19/27/60
f 8/7/61 2/2/62 17/26/63 20/28/64
f 17/26/65 18/25/66 44/29/67 41/30/68
f 18/25/69 19/27/70 43/31/71 44/29/72
f 19/27/73 20/28/74 42/32/75 43/31/76
f 20/28/77 17/26/78 41/30/79 42/32/80
f 26/16/81 25/15/82 33/33/83 34/34/84
f 34/34/85 35/35/86 27/9/87 26/16/88
f 35/35/89 36/36/90 28/10/91 27/9/92
f 36/36/93 33/33/94 25/15/95 28/10/96
f 30/37/97 29/38/98 4/39/99 3/40/100
f 31/41/101 30/37/102 3/40/103 5/42/104
f 5/42/105 6/43/106 32/44/107 31/41/108
f 29/38/109 32/44/110 6/43/111 4/39/112
f 34/34/113 33/33/114 16/20/115 15/19/116
f 15/19/117 9/22/118 35/35/119 34/34/120
f 9/22/121 10/24/122 36/36/123 35/35/124
f 10/24/125 16/20/126 33/33/127 36/36/128
f 38/4/129 37/3/130 29/38/131 30/37/132
f 39/5/133 38/4/134 30/37/135 31/41/136
f 31/41/137 32/44/138 40/6/139 39/5/140
f 37/3/141 40/6/142 32/44/143 29/38/144
f 42/32/145 41/30/146 21/17/147 24/23/148
f 43/31/149 42/32/150 24/23/151 23/21/152
f 44/29/153 43/31/154 23/21/155 22/18/156
f 41/30/157 44/29/158 22/18/159 21/17/160
