# This file uses meters as units for non-parametric coordinates.

v 3.000979 0.000000 -3.000979
v 0.000000 0.000000 -4.244027
v -3.000979 0.000000 -3.000979
v -4.244027 0.000000 0.000000
v -3.000979 0.000000 3.000979
v 0.000000 0.000000 4.244027
v 3.000979 0.000000 3.000979
v 4.244027 0.000000 0.000000
v 5.545086 2.404052 -5.545086
v 0.000000 2.404052 -7.841926
v -5.545086 2.404052 -5.545086
v -7.841926 2.404052 0.000000
v -5.545086 2.404052 5.545086
v 0.000000 2.404052 7.841926
v 5.545086 2.404052 5.545086
v 7.841926 2.404052 0.000000
v 7.244999 6.001959 -7.244999
v 0.000000 6.001959 -10.245978
v -7.244999 6.001959 -7.244999
v -10.245978 6.001959 0.000000
v -7.244999 6.001959 7.244999
v 0.000000 6.001959 10.245978
v 7.244999 6.001959 7.244999
v 10.245978 6.001959 0.000000
v 7.841926 10.245979 -7.841926
v 0.000000 10.245979 -11.090172
v -7.841926 10.245979 -7.841926
v -11.090172 10.245979 0.000000
v -7.841926 10.245979 7.841926
v 0.000000 10.245979 11.090172
v 7.841926 10.245979 7.841926
v 11.090172 10.245979 0.000000
v 7.244999 14.490001 -7.244999
v 0.000000 14.490001 -10.245978
v -7.244999 14.490001 -7.244999
v -10.245978 14.490001 0.000000
v -7.244999 14.490001 7.244999
v 0.000000 14.490001 10.245978
v 7.244999 14.490001 7.244999
v 10.245978 14.490001 0.000000
v 5.545086 18.087912 -5.545086
v 0.000000 18.087912 -7.841926
v -5.545086 18.087912 -5.545086
v -7.841926 18.087912 0.000000
v -5.545086 18.087912 5.545086
v 0.000000 18.087912 7.841926
v 5.545086 18.087912 5.545086
v 7.841926 18.087912 0.000000
v 3.000979 20.491956 -3.000979
v 0.000000 20.491956 -4.244027
v -3.000979 20.491956 -3.000979
v -4.244027 20.491956 0.000000
v -3.000979 20.491956 3.000979
v 0.000000 20.491956 4.244027
v 3.000979 20.491956 3.000979
v 4.244027 20.491956 0.000000
v 0.000000 0.000000 0.000000
v 0.000000 21.336150 0.000000
vt 0.445953 0.794086
vt 0.447544 0.794086
vt 0.449136 0.794086
vt 0.450727 0.794086
vt 0.452318 0.794086
vt 0.453909 0.794086
vt 0.455501 0.794086
vt 0.457092 0.794086
vt 0.458683 0.794086
vt 0.445953 0.795799
vt 0.447544 0.795799
vt 0.449136 0.795799
vt 0.450727 0.795799
vt 0.452318 0.795799
vt 0.453909 0.795799
vt 0.455501 0.795799
vt 0.457092 0.795799
vt 0.458683 0.795799
vt 0.445953 0.797513
vt 0.447544 0.797513
vt 0.449136 0.797513
vt 0.450727 0.797513
vt 0.452318 0.797513
vt 0.453909 0.797513
vt 0.455501 0.797513
vt 0.457092 0.797513
vt 0.458683 0.797513
vt 0.445953 0.799226
vt 0.447544 0.799226
vt 0.449136 0.799226
vt 0.450727 0.799226
vt 0.452318 0.799226
vt 0.453909 0.799226
vt 0.455501 0.799226
vt 0.457092 0.799226
vt 0.458683 0.799226
vt 0.445953 0.800940
vt 0.447544 0.800940
vt 0.449136 0.800940
vt 0.450727 0.800940
vt 0.452318 0.800940
vt 0.453909 0.800940
vt 0.455501 0.800940
vt 0.457092 0.800940
vt 0.458683 0.800940
vt 0.445953 0.802653
vt 0.447544 0.802653
vt 0.449136 0.802653
vt 0.450727 0.802653
vt 0.452318 0.802653
vt 0.453909 0.802653
vt 0.455501 0.802653
vt 0.457092 0.802653
vt 0.458683 0.802653
vt 0.445953 0.804367
vt 0.447544 0.804367
vt 0.449136 0.804367
vt 0.450727 0.804367
vt 0.452318 0.804367
vt 0.453909 0.804367
vt 0.455501 0.804367
vt 0.457092 0.804367
vt 0.458683 0.804367
vt 0.446749 0.792372
vt 0.448340 0.792372
vt 0.449931 0.792372
vt 0.451523 0.792372
vt 0.453114 0.792372
vt 0.454705 0.792372
vt 0.456296 0.792372
vt 0.457888 0.792372
vt 0.446749 0.806080
vt 0.448340 0.806080
vt 0.449931 0.806080
vt 0.451523 0.806080
vt 0.453114 0.806080
vt 0.454705 0.806080
vt 0.456296 0.806080
vt 0.457888 0.806080
vn 0.331781 -0.883087 -0.331781
vn 0.000000 -0.883087 -0.469210
vn 0.000000 -0.654266 -0.756265
vn 0.534760 -0.654265 -0.534760
vn -0.331781 -0.883087 -0.331781
vn -0.534760 -0.654265 -0.534760
vn -0.469210 -0.883087 0.000000
vn -0.756265 -0.654265 0.000000
vn -0.331781 -0.883087 0.331781
vn -0.534760 -0.654265 0.534760
vn 0.000000 -0.883087 0.469210
vn 0.000000 -0.654266 0.756265
vn 0.331781 -0.883087 0.331781
vn 0.534760 -0.654265 0.534760
vn 0.469210 -0.883087 -0.000000
vn 0.756265 -0.654265 0.000000
vn 0.000000 -0.349894 -0.936789
vn 0.662410 -0.349894 -0.662410
vn -0.662410 -0.349894 -0.662410
vn -0.936789 -0.349894 0.000000
vn -0.662410 -0.349894 0.662410
vn 0.000000 -0.349894 0.936789
vn 0.662410 -0.349894 0.662410
vn 0.936789 -0.349894 0.000000
vn 0.000000 0.000000 -1.000000
vn 0.707107 0.000000 -0.707107
vn -0.707107 0.000000 -0.707107
vn -1.000000 0.000000 -0.000000
vn -0.707107 0.000000 0.707107
vn 0.000000 0.000000 1.000000
vn 0.707107 0.000000 0.707107
vn 1.000000 0.000000 0.000000
vn 0.000000 0.349894 -0.936789
vn 0.662410 0.349894 -0.662410
vn -0.662410 0.349894 -0.662410
vn -0.936789 0.349894 -0.000000
vn -0.662410 0.349894 0.662410
vn -0.000000 0.349894 0.936789
vn 0.662410 0.349894 0.662410
vn 0.936789 0.349894 0.000000
vn 0.000000 0.654265 -0.756265
vn 0.534760 0.654265 -0.534760
vn -0.534760 0.654265 -0.534760
vn -0.756265 0.654265 0.000000
vn -0.534760 0.654265 0.534760
vn -0.000000 0.654265 0.756265
vn 0.534760 0.654265 0.534760
vn 0.756265 0.654265 -0.000000
vn 0.000000 0.868196 -0.496221
vn 0.350881 0.868197 -0.350881
vn -0.350881 0.868197 -0.350881
vn -0.496221 0.868197 0.000000
vn -0.350881 0.868197 0.350881
vn 0.000000 0.868196 0.496221
vn 0.350881 0.868197 0.350881
vn 0.496221 0.868197 -0.000000
vn 0.000000 -1.000000 0.000000
vn 0.000000 1.000000 0.000000
f 1/1/1 2/2/2 10/11/3 9/10/4
f 2/2/2 3/3/5 11/12/6 10/11/3
f 3/3/5 4/4/7 12/13/8 11/12/6
f 4/4/7 5/5/9 13/14/10 12/13/8
f 5/5/9 6/6/11 14/15/12 13/14/10
f 6/6/11 7/7/13 15/16/14 14/15/12
f 7/7/13 8/8/15 16/17/16 15/16/14
f 8/8/15 1/9/1 9/18/4 16/17/16
f 9/10/4 10/11/3 18/20/17 17/19/18
f 10/11/3 11/12/6 19/21/19 18/20/17
f 11/12/6 12/13/8 20/22/20 19/21/19
f 12/13/8 13/14/10 21/23/21 20/22/20
f 13/14/10 14/15/12 22/24/22 21/23/21
f 14/15/12 15/16/14 23/25/23 22/24/22
f 15/16/14 16/17/16 24/26/24 23/25/23
f 16/17/16 9/18/4 17/27/18 24/26/24
f 17/19/18 18/20/17 26/29/25 25/28/26
f 18/20/17 19/21/19 27/30/27 26/29/25
f 19/21/19 20/22/20 28/31/28 27/30/27
f 20/22/20 21/23/21 29/32/29 28/31/28
f 21/23/21 22/24/22 30/33/30 29/32/29
f 22/24/22 23/25/23 31/34/31 30/33/30
f 23/25/23 24/26/24 32/35/32 31/34/31
f 24/26/24 17/27/18 25/36/26 32/35/32
f 25/28/26 26/29/25 34/38/33 33/37/34
f 26/29/25 27/30/27 35/39/35 34/38/33
f 27/30/27 28/31/28 36/40/36 35/39/35
f 28/31/28 29/32/29 37/41/37 36/40/36
f 29/32/29 30/33/30 38/42/38 37/41/37
f 30/33/30 31/34/31 39/43/39 38/42/38
f 31/34/31 32/35/32 40/44/40 39/43/39
f 32/35/32 25/36/26 33/45/34 40/44/40
f 33/37/34 34/38/33 42/47/41 41/46/42
f 34/38/33 35/39/35 43/48/43 42/47/41
f 35/39/35 36/40/36 44/49/44 43/48/43
f 36/40/36 37/41/37 45/50/45 44/49/44
f 37/41/37 38/42/38 46/51/46 45/50/45
f 38/42/38 39/43/39 47/52/47 46/51/46
f 39/43/39 40/44/40 48/53/48 47/52/47
f 40/44/40 33/45/34 41/54/42 48/53/48
f 41/46/42 42/47/41 50/56/49 49/55/50
f 42/47/41 43/48/43 51/57/51 50/56/49
f 43/48/43 44/49/44 52/58/52 51/57/51
f 44/49/44 45/50/45 53/59/53 52/58/52
f 45/50/45 46/51/46 54/60/54 53/59/53
f 46/51/46 47/52/47 55/61/55 54/60/54
f 47/52/47 48/53/48 56/62/56 55/61/55
f 48/53/48 41/54/42 49/63/50 56/62/56
f 2/2/2 1/1/1 57/64/57
f 3/3/5 2/2/2 57/65/57
f 4/4/7 3/3/5 57/66/57
f 5/5/9 4/4/7 57/67/57
f 6/6/11 5/5/9 57/68/57
f 7/7/13 6/6/11 57/69/57
f 8/8/15 7/7/13 57/70/57
f 1/9/1 8/8/15 57/71/57
f 49/55/50 50/56/49 58/72/58
f 50/56/49 51/57/51 58/73/58
f 51/57/51 52/58/52 58/74/58
f 52/58/52 53/59/53 58/75/58
f 53/59/53 54/60/54 58/76/58
f 54/60/54 55/61/55 58/77/58
f 55/61/55 56/62/56 58/78/58
f 56/62/56 49/63/50 58/79/58
