# This file uses meters as units for non-parametric coordinates.

mtllib Long_Stick.mtl
g default
v 0.899770 -0.139179 -2.067676
v -1.214000 -0.136364 -2.122485
v -2.318309 -0.137945 -0.319324
v -1.308910 -0.142342 1.538647
v 0.804860 -0.145158 1.593457
v 1.909169 -0.143576 -0.209705
v 1.308919 317.323349 -1.538654
v -0.804851 317.326187 -1.593463
v -1.909190 317.324600 0.209683
v -0.899791 317.320175 2.067670
v 1.213979 317.317367 2.122479
v 2.318318 317.318985 0.319318
v 0.204579 317.321792 0.264508
vt 0.001658 0.751097
vt 0.011332 0.751097
vt 0.021007 0.751097
vt 0.030682 0.751097
vt 0.040356 0.751097
vt 0.050031 0.751097
vt 0.059706 0.751097
vt 0.001658 0.811374
vt 0.011332 0.811374
vt 0.021007 0.811374
vt 0.030682 0.811374
vt 0.040356 0.811374
vt 0.050031 0.811374
vt 0.059706 0.811374
vt 0.028030 0.801177
vt 0.023099 0.801177
vt 0.020633 0.805447
vt 0.023099 0.809718
vt 0.028030 0.809718
vt 0.030495 0.805447
vt 0.025564 0.805250
vn 0.025919 0.001632 -0.999663
vn 0.025919 0.001632 -0.999663
vn 0.025919 0.001632 -0.999663
vn 0.025919 0.001632 -0.999663
vn -0.852774 0.001969 -0.522276
vn -0.852774 0.001969 -0.522276
vn -0.852774 0.001969 -0.522276
vn -0.852774 0.001969 -0.522276
vn -0.878696 0.000337 0.477381
vn -0.878696 0.000337 0.477381
vn -0.878696 0.000337 0.477381
vn -0.878696 0.000337 0.477381
vn -0.025930 -0.001632 0.999663
vn -0.025930 -0.001632 0.999663
vn -0.025930 -0.001632 0.999663
vn -0.025930 -0.001632 0.999663
vn 0.852781 -0.001969 0.522266
vn 0.852780 -0.001969 0.522266
vn 0.852780 -0.001969 0.522266
vn 0.852780 -0.001969 0.522266
vn 0.878696 -0.000337 -0.477381
vn 0.878696 -0.000337 -0.477381
vn 0.878696 -0.000337 -0.477381
vn 0.878696 -0.000337 -0.477381
vn 0.001293 0.999998 0.001639
vn 0.001292 0.999998 0.001655
vn 0.001287 0.999998 0.001668
vn 0.001285 0.999998 0.001687
vn 0.001285 0.999998 0.001687
vn 0.001285 0.999998 0.001679
vn 0.001285 0.999998 0.001663
s off
g pCylinder4 group42
usemtl lambert2SG
f 1/1/1 2/2/2 8/9/3 7/8/4
f 2/2/5 3/3/6 9/10/7 8/9/8
f 3/3/9 4/4/10 10/11/11 9/10/12
f 4/4/13 5/5/14 11/12/15 10/11/16
f 5/5/17 6/6/18 12/13/19 11/12/20
f 6/6/21 1/7/22 7/14/23 12/13/24
s 1
f 7/19/25 8/18/26 13/21/27
f 8/18/26 9/17/28 13/21/27
f 9/17/28 10/16/29 13/21/27
f 10/16/29 11/15/30 13/21/27
f 11/15/30 12/20/31 13/21/27
f 12/20/31 7/19/25 13/21/27
