# This file uses meters as units for non-parametric coordinates.

v 6.666854 74.106624 33.744936
v 6.863108 74.302884 33.941191
v -6.666854 74.106624 33.744936
v -6.863108 74.302884 33.941191
v 6.666854 71.535878 33.744936
v 6.863108 71.339628 33.941191
v -6.666854 71.535878 33.744936
v -6.863108 71.339628 33.941191
v -8.631139 71.535878 35.889372
v -8.434885 71.339628 35.693117
v 8.631139 71.535878 35.889372
v 8.434885 71.339628 35.693117
v -8.631139 74.106624 35.889372
v -8.434885 74.302884 35.693117
v 8.631139 74.106624 35.889372
v 8.434885 74.302884 35.693117
v -8.631139 74.106624 31.782200
v -8.434885 74.302884 31.782200
v -6.863108 74.302884 31.782200
v -6.666854 74.106624 31.782200
v -6.666854 71.535878 31.782200
v -6.863108 71.339628 31.782200
v -8.434885 71.339628 31.782200
v -8.631139 71.535878 31.782200
v 6.863108 71.339628 31.782200
v 6.666854 71.535878 31.782200
v 6.666854 74.106624 31.782200
v 6.863108 74.302884 31.782200
v 8.434885 74.302884 31.782200
v 8.631139 74.106624 31.782200
v 8.631139 71.535878 31.782200
v 8.434885 71.339628 31.782200
vt 0.460900 0.885296
vt 0.446222 0.885790
vt 0.459841 0.885717
vt 0.448003 0.885321
vt 0.460835 0.885790
vt 0.446222 0.885296
vt 0.459682 0.898438
vt 0.447844 0.898043
vt 0.460835 0.897535
vt 0.446222 0.898029
vt 0.460900 0.898029
vt 0.446222 0.897535
vt 0.446282 0.885321
vt 0.446454 0.884320
vt 0.461230 0.884320
vt 0.460198 0.884324
vt 0.446222 0.885296
vt 0.460900 0.885296
vt 0.460198 0.884324
vt 0.446222 0.885791
vt 0.460900 0.898029
vt 0.460198 0.899001
vt 0.446222 0.897535
vt 0.446454 0.898056
vt 0.461402 0.898438
vt 0.460900 0.897541
vt 0.446222 0.898029
vt 0.446282 0.898438
vt 0.461402 0.885321
vt 0.447846 0.885702
vt 0.461230 0.898056
vt 0.446454 0.885703
vt 0.459839 0.898058
vt 0.461230 0.885704
vt 0.460900 0.885296
vt 0.446222 0.898029
vt 0.448003 0.898438
vt 0.459682 0.885321
vt 0.446222 0.885790
vt 0.460900 0.897541
vt 0.460900 0.885296
vt 0.446222 0.898029
vt 0.460900 0.898029
vt 0.446222 0.885296
vt 0.446222 0.897535
vt 0.460835 0.885790
vt 0.446222 0.885296
vt 0.460900 0.898029
vt 0.460835 0.897535
vt 0.460900 0.885784
vt 0.446222 0.885791
vt 0.460900 0.885784
vt 0.446222 0.897535
vn -0.707119 0.707095 0.000000
vn -0.707119 0.707095 0.000000
vn -0.707119 0.707095 0.000000
vn -0.707119 0.707095 0.000000
vn 0.000000 0.707097 -0.707116
vn 0.000000 0.707097 -0.707116
vn 0.000000 0.707097 -0.707116
vn 0.000000 0.707097 -0.707116
vn 0.707119 0.707095 0.000000
vn 0.707119 0.707095 0.000000
vn 0.707119 0.707095 0.000000
vn 0.707119 0.707095 0.000000
vn 0.000000 -0.707116 -0.707097
vn 0.000000 -0.707116 -0.707097
vn 0.000000 -0.707116 -0.707097
vn 0.000000 -0.707116 -0.707097
vn -0.707100 -0.707114 0.000000
vn -0.707100 -0.707114 0.000000
vn -0.707100 -0.707114 0.000000
vn -0.707100 -0.707114 0.000000
vn 0.707100 -0.707114 0.000000
vn 0.707100 -0.707114 0.000000
vn 0.707100 -0.707114 0.000000
vn 0.707100 -0.707114 0.000000
vn 0.000000 -0.707116 0.707097
vn 0.000000 -0.707116 0.707097
vn 0.000000 -0.707116 0.707097
vn 0.000000 -0.707116 0.707097
vn -0.707098 -0.707115 0.000000
vn -0.707098 -0.707115 0.000000
vn -0.707098 -0.707115 0.000000
vn -0.707098 -0.707115 0.000000
vn 0.707098 -0.707115 0.000000
vn 0.707098 -0.707115 0.000000
vn 0.707098 -0.707115 0.000000
vn 0.707098 -0.707115 0.000000
vn -0.707117 0.707096 0.000000
vn -0.707117 0.707096 0.000000
vn -0.707117 0.707096 0.000000
vn -0.707117 0.707096 0.000000
vn 0.000000 0.707097 0.707116
vn 0.000000 0.707097 0.707116
vn 0.000000 0.707097 0.707116
vn 0.000000 0.707097 0.707116
vn 0.707117 0.707096 0.000000
vn 0.707117 0.707096 0.000000
vn 0.707117 0.707096 0.000000
vn 0.707117 0.707096 0.000000
vn 0.000000 0.000000 1.000000
vn 0.000000 0.000000 1.000000
vn 0.000000 0.000000 1.000000
vn 0.000000 0.000000 1.000000
vn 0.000000 1.000000 0.000000
vn 0.000000 1.000000 0.000000
vn 0.000000 1.000000 0.000000
vn 0.000000 1.000000 0.000000
vn 0.000000 -1.000000 0.000000
vn 0.000000 -1.000000 0.000000
vn 0.000000 -1.000000 0.000000
vn 0.000000 -1.000000 0.000000
vn -1.000000 0.000000 0.000000
vn -1.000000 0.000000 0.000000
vn -1.000000 0.000000 0.000000
vn -1.000000 0.000000 0.000000
vn 0.000000 0.000000 -1.000000
vn 0.000000 0.000000 -1.000000
vn 0.000000 0.000000 -1.000000
vn 0.000000 0.000000 -1.000000
vn 0.000000 1.000000 0.000000
vn 0.000000 1.000000 0.000000
vn 1.000000 0.000000 0.000000
vn 1.000000 0.000000 0.000000
vn 1.000000 0.000000 0.000000
vn 1.000000 0.000000 0.000000
vn -1.000000 0.000000 0.000000
vn -1.000000 0.000000 0.000000
vn -1.000000 0.000000 0.000000
vn -1.000000 0.000000 0.000000
vn 0.000000 1.000000 0.000000
vn 0.000000 1.000000 0.000000
vn 1.000000 0.000000 0.000000
vn 1.000000 0.000000 0.000000
vn 1.000000 0.000000 0.000000
vn 1.000000 0.000000 0.000000
vn 0.000000 -1.000000 0.000000
vn 0.000000 -1.000000 0.000000
vn 0.000000 -1.000000 0.000000
vn 0.000000 -1.000000 0.000000
f 1/1/1 2/46/2 28/2/3 27/44/4
f 2/3/5 1/38/6 3/4/7 4/30/8
f 4/5/9 3/41/10 20/6/11 19/39/12
f 5/7/13 6/33/14 8/8/15 7/37/16
f 6/9/17 5/43/18 26/10/19 25/53/20
f 7/11/21 8/49/22 22/12/23 21/42/24
f 9/13/25 10/14/26 12/15/27 11/29/28
f 10/16/29 9/35/30 24/17/31 23/51/32
f 11/18/33 12/19/34 32/20/35 31/47/36
f 13/21/37 14/22/38 18/23/39 17/36/40
f 14/24/41 13/28/42 15/25/43 16/31/44
f 16/26/45 15/48/46 30/27/47 29/45/48
f 13/28/49 9/13/50 11/29/51 15/25/52
f 4/30/53 14/24/54 16/31/55 2/3/56
f 10/32/57 8/8/58 6/33/59 12/34/60
f 9/35/61 13/21/62 17/36/63 24/17/64
f 5/7/65 7/37/66 3/4/67 1/38/68
f 4/5/53 19/39/69 18/23/70 14/40/54
f 3/41/71 7/11/72 21/42/73 20/6/74
f 5/43/75 1/1/76 27/44/77 26/10/78
f 16/26/55 29/45/79 28/2/80 2/46/56
f 11/18/81 31/47/82 30/27/83 15/48/84
f 8/49/58 10/50/57 23/51/85 22/12/86
f 12/52/60 6/9/59 25/53/87 32/20/88
