# This file uses meters as units for non-parametric coordinates.

v -6.657649 79.557323 37.182743
v -5.624413 79.557323 37.182743
v -6.657649 80.590557 37.182743
v -5.624413 80.590557 37.182743
v -6.657649 80.590557 34.516679
v -5.624413 80.590557 34.516679
v -6.657649 79.557323 34.516679
v -5.624413 79.557323 34.516679
v 10.256907 80.737636 37.147302
v 10.256907 80.073940 36.872339
v 10.256907 79.410244 37.147302
v 10.256907 79.135280 37.810998
v 10.256907 79.410244 38.474695
v 10.256907 80.073940 38.749656
v 10.256907 80.737636 38.474695
v 10.256907 81.012600 37.810998
v -10.256907 80.737636 37.147302
v -10.256907 80.073940 36.872339
v -10.256907 79.410244 37.147302
v -10.256907 79.135280 37.810998
v -10.256907 79.410244 38.474695
v -10.256907 80.073940 38.749656
v -10.256907 80.737636 38.474695
v -10.256907 81.012600 37.810998
v 10.256907 80.073940 37.810998
v -10.256907 80.073940 37.810998
v 6.657649 79.557316 37.182746
v 5.624412 79.557316 37.182746
v 6.657649 80.590557 37.182746
v 5.624412 80.590557 37.182746
v 6.657649 80.590557 34.516685
v 5.624412 80.590557 34.516685
v 6.657649 79.557316 34.516685
v 5.624412 79.557316 34.516685
vt 0.476193 0.761057
vt 0.490389 0.761057
vt 0.476193 0.775253
vt 0.490389 0.775253
vt 0.476193 0.761057
vt 0.490389 0.761057
vt 0.476193 0.775253
vt 0.490389 0.775253
vt 0.476193 0.761057
vt 0.490389 0.761057
vt 0.476193 0.761057
vt 0.476193 0.775253
vt 0.490389 0.761057
vt 0.490389 0.775253
vt 0.489544 0.762017
vt 0.489544 0.763643
vt 0.476508 0.763643
vt 0.476508 0.762017
vt 0.489544 0.765269
vt 0.476508 0.765269
vt 0.489544 0.766895
vt 0.476508 0.766895
vt 0.489544 0.768521
vt 0.476508 0.768521
vt 0.489544 0.770147
vt 0.476508 0.770147
vt 0.489544 0.771773
vt 0.476508 0.771773
vt 0.489544 0.773399
vt 0.476508 0.773399
vt 0.489544 0.775025
vt 0.476508 0.775025
vt 0.483242 0.763189
vt 0.487241 0.764845
vt 0.483242 0.768618
vt 0.479244 0.764845
vt 0.477587 0.768844
vt 0.479244 0.772843
vt 0.483242 0.774499
vt 0.487241 0.772843
vt 0.488897 0.768844
vt 0.487241 0.772853
vt 0.483242 0.774510
vt 0.483242 0.768628
vt 0.479244 0.772853
vt 0.477587 0.768855
vt 0.479244 0.764856
vt 0.483242 0.763200
vt 0.487241 0.764856
vt 0.488897 0.768855
vt 0.476193 0.775253
vt 0.476193 0.761057
vt 0.490389 0.761057
vt 0.490389 0.775253
vt 0.476193 0.775253
vt 0.476193 0.761057
vt 0.490389 0.761057
vt 0.490389 0.775253
vt 0.490389 0.761057
vt 0.476193 0.775253
vt 0.476193 0.761057
vt 0.490389 0.761057
vt 0.490389 0.775253
vt 0.476193 0.761057
vn 0.000000 1.000000 0.000000
vn 0.000000 1.000000 0.000000
vn 0.000000 1.000000 0.000000
vn 0.000000 1.000000 0.000000
vn 0.000000 -1.000000 0.000000
vn 0.000000 -1.000000 0.000000
vn 0.000000 -1.000000 0.000000
vn 0.000000 -1.000000 0.000000
vn 1.000000 0.000000 0.000000
vn 1.000000 0.000000 0.000000
vn 1.000000 0.000000 0.000000
vn 1.000000 0.000000 0.000000
vn -1.000000 0.000000 0.000000
vn -1.000000 0.000000 0.000000
vn -1.000000 0.000000 0.000000
vn -1.000000 0.000000 0.000000
vn 0.000000 0.707107 -0.707107
vn 0.000000 0.000000 -1.000000
vn 0.000000 0.000000 -1.000000
vn 0.000000 0.707107 -0.707107
vn 0.000000 -0.707107 -0.707107
vn 0.000000 -0.707107 -0.707107
vn 0.000000 -1.000000 0.000000
vn 0.000000 -1.000000 0.000000
vn 0.000000 -0.707106 0.707108
vn 0.000000 -0.707106 0.707108
vn 0.000000 0.000000 1.000000
vn 0.000000 0.000000 1.000000
vn 0.000000 0.707106 0.707108
vn 0.000000 0.707106 0.707108
vn 0.000000 1.000000 0.000000
vn 0.000000 1.000000 0.000000
vn 1.000000 0.000001 0.000000
vn 1.000000 0.000002 0.000000
vn 1.000000 0.000000 0.000000
vn 1.000000 -0.000001 0.000000
vn 1.000000 0.000000 0.000000
vn 1.000000 0.000000 0.000000
vn 1.000000 0.000000 0.000000
vn 1.000000 0.000000 0.000000
vn 1.000000 0.000000 0.000000
vn -1.000000 0.000001 0.000000
vn -1.000000 -0.000001 0.000000
vn -1.000000 -0.000000 0.000000
vn -1.000000 -0.000002 0.000000
vn -1.000000 0.000000 0.000000
vn -1.000000 0.000000 0.000000
vn -1.000000 0.000000 0.000000
vn -1.000000 0.000000 0.000000
vn -1.000000 0.000000 0.000000
vn 0.000000 1.000000 0.000000
vn 0.000000 1.000000 0.000000
vn 0.000000 1.000000 0.000000
vn 0.000000 1.000000 0.000000
vn 0.000000 -1.000000 0.000000
vn 0.000000 -1.000000 0.000000
vn 0.000000 -1.000000 0.000000
vn 0.000000 -1.000000 0.000000
vn -1.000000 0.000000 0.000000
vn -1.000000 0.000000 0.000000
vn -1.000000 0.000000 0.000000
vn -1.000000 0.000000 0.000000
vn 1.000000 0.000000 0.000000
vn 1.000000 0.000000 0.000000
vn 1.000000 0.000000 0.000000
vn 1.000000 0.000000 0.000000
f 3/3/1 4/4/2 6/6/3 5/5/4
f 7/7/5 8/8/6 2/10/7 1/9/8
f 2/2/9 8/11/10 6/12/11 4/4/12
f 7/13/13 1/1/14 3/3/15 5/14/16
f 9/15/17 10/16/18 18/17/19 17/18/20
f 10/16/18 11/19/21 19/20/22 18/17/19
f 11/19/21 12/21/23 20/22/24 19/20/22
f 12/21/23 13/23/25 21/24/26 20/22/24
f 13/23/25 14/25/27 22/26/28 21/24/26
f 14/25/27 15/27/29 23/28/30 22/26/28
f 15/27/29 16/29/31 24/30/32 23/28/30
f 16/29/31 9/31/17 17/32/20 24/30/32
f 10/33/33 9/34/34 25/35/35
f 11/36/36 10/33/33 25/35/35
f 12/37/37 11/36/36 25/35/35
f 13/38/38 12/37/37 25/35/35
f 14/39/39 13/38/38 25/35/35
f 15/40/40 14/39/39 25/35/35
f 16/41/41 15/40/40 25/35/35
f 9/34/34 16/41/41 25/35/35
f 17/42/42 18/43/43 26/44/44
f 18/43/43 19/45/45 26/44/44
f 19/45/45 20/46/46 26/44/44
f 20/46/46 21/47/47 26/44/44
f 21/47/47 22/48/48 26/44/44
f 22/48/48 23/49/49 26/44/44
f 23/49/49 24/50/50 26/44/44
f 24/50/50 17/42/42 26/44/44
f 29/51/51 31/52/52 32/53/53 30/54/54
f 33/55/55 27/56/56 28/57/57 34/58/58
f 28/59/59 30/54/60 32/60/61 34/61/62
f 33/62/63 31/63/64 29/51/65 27/64/66
