# This file uses meters as units for non-parametric coordinates.

v -10.490097 77.009895 30.531841
v -9.456861 77.009895 30.531841
v -10.490097 78.043129 30.531841
v -9.456861 78.043129 30.531841
v -10.490097 78.043129 27.865778
v -9.456861 78.043129 27.865778
v -10.490097 77.009895 27.865778
v -9.456861 77.009895 27.865778
v 14.089355 78.190208 30.496401
v 14.089355 77.526512 30.221437
v 14.089355 76.862816 30.496401
v 14.089355 76.587852 31.160097
v 14.089355 76.862816 31.823793
v 14.089355 77.526512 32.098755
v 14.089355 78.190208 31.823793
v 14.089355 78.465172 31.160097
v -14.089355 78.190208 30.496401
v -14.089355 77.526512 30.221437
v -14.089355 76.862816 30.496401
v -14.089355 76.587852 31.160097
v -14.089355 76.862816 31.823793
v -14.089355 77.526512 32.098755
v -14.089355 78.190208 31.823793
v -14.089355 78.465172 31.160097
v 14.089355 77.526512 31.160097
v -14.089355 77.526512 31.160097
v 10.490097 77.009888 30.531845
v 9.456860 77.009888 30.531845
v 10.490097 78.043129 30.531845
v 9.456860 78.043129 30.531845
v 10.490097 78.043129 27.865784
v 9.456860 78.043129 27.865784
v 10.490097 77.009888 27.865784
v 9.456860 77.009888 27.865784
vt 0.476572 0.946692
vt 0.493508 0.946692
vt 0.476572 0.963627
vt 0.493508 0.963627
vt 0.476572 0.946692
vt 0.493508 0.946692
vt 0.476572 0.963627
vt 0.493508 0.963627
vt 0.476572 0.946692
vt 0.493508 0.946692
vt 0.476572 0.946692
vt 0.476572 0.963627
vt 0.493508 0.946692
vt 0.493508 0.963627
vt 0.492499 0.947837
vt 0.492499 0.949777
vt 0.476948 0.949777
vt 0.476948 0.947837
vt 0.492499 0.951716
vt 0.476948 0.951716
vt 0.492499 0.953656
vt 0.476948 0.953656
vt 0.492499 0.955596
vt 0.476948 0.955596
vt 0.492499 0.957535
vt 0.476948 0.957535
vt 0.492499 0.959475
vt 0.476948 0.959475
vt 0.492499 0.961415
vt 0.476948 0.961415
vt 0.492499 0.963355
vt 0.476948 0.963355
vt 0.484982 0.949235
vt 0.489753 0.951211
vt 0.484982 0.955712
vt 0.480212 0.951211
vt 0.478236 0.955981
vt 0.480212 0.960752
vt 0.484982 0.962728
vt 0.489753 0.960752
vt 0.491729 0.955981
vt 0.489753 0.960764
vt 0.484982 0.962740
vt 0.484982 0.955724
vt 0.480212 0.960764
vt 0.478236 0.955994
vt 0.480212 0.951224
vt 0.484982 0.949248
vt 0.489753 0.951224
vt 0.491728 0.955994
vt 0.476572 0.963627
vt 0.476572 0.946692
vt 0.493508 0.946692
vt 0.493508 0.963627
vt 0.476572 0.963627
vt 0.476572 0.946692
vt 0.493508 0.946692
vt 0.493508 0.963627
vt 0.493508 0.946692
vt 0.476572 0.963627
vt 0.476572 0.946692
vt 0.493508 0.946692
vt 0.493508 0.963627
vt 0.476572 0.946692
vn 0.000000 1.000000 0.000000
vn 0.000000 1.000000 0.000000
vn 0.000000 1.000000 0.000000
vn 0.000000 1.000000 0.000000
vn 0.000000 -1.000000 0.000000
vn 0.000000 -1.000000 0.000000
vn 0.000000 -1.000000 0.000000
vn 0.000000 -1.000000 0.000000
vn 1.000000 0.000000 0.000000
vn 1.000000 0.000000 0.000000
vn 1.000000 0.000000 0.000000
vn 1.000000 0.000000 0.000000
vn -1.000000 0.000000 0.000000
vn -1.000000 0.000000 0.000000
vn -1.000000 0.000000 0.000000
vn -1.000000 0.000000 0.000000
vn 0.000000 0.707107 -0.707106
vn 0.000000 0.000000 -1.000000
vn 0.000000 0.000000 -1.000000
vn 0.000000 0.707107 -0.707106
vn 0.000000 -0.707107 -0.707106
vn 0.000000 -0.707107 -0.707106
vn 0.000000 -1.000000 0.000000
vn 0.000000 -1.000000 0.000000
vn 0.000000 -0.707106 0.707107
vn 0.000000 -0.707106 0.707107
vn 0.000000 0.000000 1.000000
vn 0.000000 0.000000 1.000000
vn 0.000000 0.707106 0.707107
vn 0.000000 0.707106 0.707107
vn 0.000000 1.000000 0.000000
vn 0.000000 1.000000 0.000000
vn 1.000000 0.000000 0.000000
vn 1.000000 0.000000 0.000000
vn 1.000000 0.000000 0.000000
vn 1.000000 0.000000 0.000000
vn 1.000000 0.000000 0.000000
vn 1.000000 0.000002 0.000000
vn 1.000000 0.000000 0.000000
vn 1.000000 -0.000002 0.000000
vn 1.000000 0.000000 0.000000
vn -1.000000 0.000000 0.000000
vn -1.000000 0.000000 0.000000
vn -1.000000 0.000000 0.000000
vn -1.000000 0.000000 0.000000
vn -1.000000 0.000000 0.000000
vn -1.000000 0.000002 0.000000
vn -1.000000 0.000000 0.000000
vn -1.000000 -0.000002 0.000000
vn -1.000000 0.000000 0.000000
vn 0.000000 1.000000 0.000000
vn 0.000000 1.000000 0.000000
vn 0.000000 1.000000 0.000000
vn 0.000000 1.000000 0.000000
vn 0.000000 -1.000000 0.000000
vn 0.000000 -1.000000 0.000000
vn 0.000000 -1.000000 0.000000
vn 0.000000 -1.000000 0.000000
vn -1.000000 0.000000 0.000000
vn -1.000000 0.000000 0.000000
vn -1.000000 0.000000 0.000000
vn -1.000000 0.000000 0.000000
vn 1.000000 0.000000 0.000000
vn 1.000000 0.000000 0.000000
vn 1.000000 0.000000 0.000000
vn 1.000000 0.000000 0.000000
f 3/3/1 4/4/2 6/6/3 5/5/4
f 7/7/5 8/8/6 2/10/7 1/9/8
f 2/2/9 8/11/10 6/12/11 4/4/12
f 7/13/13 1/1/14 3/3/15 5/14/16
f 9/15/17 10/16/18 18/17/19 17/18/20
f 10/16/18 11/19/21 19/20/22 18/17/19
f 11/19/21 12/21/23 20/22/24 19/20/22
f 12/21/23 13/23/25 21/24/26 20/22/24
f 13/23/25 14/25/27 22/26/28 21/24/26
f 14/25/27 15/27/29 23/28/30 22/26/28
f 15/27/29 16/29/31 24/30/32 23/28/30
f 16/29/31 9/31/17 17/32/20 24/30/32
f 10/33/33 9/34/34 25/35/35
f 11/36/36 10/33/33 25/35/35
f 12/37/37 11/36/36 25/35/35
f 13/38/38 12/37/37 25/35/35
f 14/39/39 13/38/38 25/35/35
f 15/40/40 14/39/39 25/35/35
f 16/41/41 15/40/40 25/35/35
f 9/34/34 16/41/41 25/35/35
f 17/42/42 18/43/43 26/44/44
f 18/43/43 19/45/45 26/44/44
f 19/45/45 20/46/46 26/44/44
f 20/46/46 21/47/47 26/44/44
f 21/47/47 22/48/48 26/44/44
f 22/48/48 23/49/49 26/44/44
f 23/49/49 24/50/50 26/44/44
f 24/50/50 17/42/42 26/44/44
f 29/51/51 31/52/52 32/53/53 30/54/54
f 33/55/55 27/56/56 28/57/57 34/58/58
f 28/59/59 30/54/60 32/60/61 34/61/62
f 33/62/63 31/63/64 29/51/65 27/64/66
