# This file uses meters as units for non-parametric coordinates.

v 6.666854 45.554099 32.020854
v 6.863108 45.750359 32.217109
v -6.666854 45.554099 32.020854
v -6.863108 45.750359 32.217109
v 6.666854 44.294861 32.020854
v 6.863108 44.098612 32.217109
v -6.666854 44.294861 32.020854
v -6.863108 44.098612 32.217109
v -8.631139 44.294861 34.165289
v -8.434885 44.098612 33.969034
v 8.631139 44.294861 34.165289
v 8.434885 44.098612 33.969034
v -8.631139 45.554099 34.165289
v -8.434885 45.750359 33.969034
v 8.631139 45.554099 34.165289
v 8.434885 45.750359 33.969034
v -8.631139 45.554099 30.058117
v -8.434885 45.750359 30.058117
v -6.863108 45.750359 30.058117
v -6.666854 45.554099 30.058117
v -6.666854 44.294861 30.058117
v -6.863108 44.098612 30.058117
v -8.434885 44.098612 30.058117
v -8.631139 44.294861 30.058117
v 6.863108 44.098612 30.058117
v 6.666854 44.294861 30.058117
v 6.666854 45.554099 30.058117
v 6.863108 45.750359 30.058117
v 8.434885 45.750359 30.058117
v 8.631139 45.554099 30.058117
v 8.631139 44.294861 30.058117
v 8.434885 44.098612 30.058117
vt 0.989691 0.516130
vt 0.881130 0.519786
vt 0.981860 0.519240
vt 0.894302 0.516315
vt 0.989215 0.519786
vt 0.881130 0.516130
vt 0.980684 0.613335
vt 0.893127 0.610410
vt 0.989215 0.606654
vt 0.881130 0.610311
vt 0.989691 0.610311
vt 0.881130 0.606654
vt 0.881577 0.516315
vt 0.882848 0.508908
vt 0.992138 0.508908
vt 0.984504 0.508940
vt 0.881130 0.516130
vt 0.989691 0.516130
vt 0.984504 0.508940
vt 0.881130 0.519787
vt 0.989691 0.610311
vt 0.984504 0.617501
vt 0.881130 0.606654
vt 0.882848 0.610507
vt 0.993410 0.613334
vt 0.989691 0.606702
vt 0.881130 0.610311
vt 0.881577 0.613334
vt 0.993410 0.516315
vt 0.893139 0.519130
vt 0.992138 0.610507
vt 0.882848 0.519142
vt 0.981847 0.610519
vt 0.992138 0.519143
vt 0.989691 0.516130
vt 0.881130 0.610311
vt 0.894302 0.613335
vt 0.980684 0.516315
vt 0.881130 0.519786
vt 0.989691 0.606702
vt 0.989691 0.516130
vt 0.881130 0.610311
vt 0.989691 0.610311
vt 0.881130 0.516130
vt 0.881130 0.606654
vt 0.989215 0.519786
vt 0.881130 0.516130
vt 0.989691 0.610311
vt 0.989215 0.606654
vt 0.989691 0.519739
vt 0.881130 0.519787
vt 0.989691 0.519739
vt 0.881130 0.606654
vn -0.707119 0.707095 0.000000
vn -0.707119 0.707095 0.000000
vn -0.707119 0.707095 0.000000
vn -0.707119 0.707095 0.000000
vn 0.000000 0.707097 -0.707116
vn 0.000000 0.707097 -0.707116
vn 0.000000 0.707097 -0.707116
vn 0.000000 0.707097 -0.707116
vn 0.707119 0.707095 0.000000
vn 0.707119 0.707095 0.000000
vn 0.707119 0.707095 0.000000
vn 0.707119 0.707095 0.000000
vn 0.000000 -0.707116 -0.707097
vn 0.000000 -0.707116 -0.707097
vn 0.000000 -0.707116 -0.707097
vn 0.000000 -0.707116 -0.707097
vn -0.707100 -0.707114 0.000000
vn -0.707100 -0.707114 0.000000
vn -0.707100 -0.707114 0.000000
vn -0.707100 -0.707114 0.000000
vn 0.707100 -0.707114 0.000000
vn 0.707100 -0.707114 0.000000
vn 0.707100 -0.707114 0.000000
vn 0.707100 -0.707114 0.000000
vn 0.000000 -0.707116 0.707097
vn 0.000000 -0.707116 0.707097
vn 0.000000 -0.707116 0.707097
vn 0.000000 -0.707116 0.707097
vn -0.707098 -0.707115 0.000000
vn -0.707098 -0.707115 0.000000
vn -0.707098 -0.707115 0.000000
vn -0.707098 -0.707115 0.000000
vn 0.707098 -0.707115 0.000000
vn 0.707098 -0.707115 0.000000
vn 0.707098 -0.707115 0.000000
vn 0.707098 -0.707115 0.000000
vn -0.707117 0.707096 0.000000
vn -0.707117 0.707096 0.000000
vn -0.707117 0.707096 0.000000
vn -0.707117 0.707096 0.000000
vn 0.000000 0.707097 0.707116
vn 0.000000 0.707097 0.707116
vn 0.000000 0.707097 0.707116
vn 0.000000 0.707097 0.707116
vn 0.707117 0.707096 0.000000
vn 0.707117 0.707096 0.000000
vn 0.707117 0.707096 0.000000
vn 0.707117 0.707096 0.000000
vn 0.000000 0.000000 1.000000
vn 0.000000 0.000000 1.000000
vn 0.000000 0.000000 1.000000
vn 0.000000 0.000000 1.000000
vn 0.000000 1.000000 0.000000
vn 0.000000 1.000000 0.000000
vn 0.000000 1.000000 0.000000
vn 0.000000 1.000000 0.000000
vn 0.000000 -1.000000 0.000000
vn 0.000000 -1.000000 0.000000
vn 0.000000 -1.000000 0.000000
vn 0.000000 -1.000000 0.000000
vn -1.000000 0.000000 0.000000
vn -1.000000 0.000000 0.000000
vn -1.000000 0.000000 0.000000
vn -1.000000 0.000000 0.000000
vn 0.000000 0.000000 -1.000000
vn 0.000000 0.000000 -1.000000
vn 0.000000 0.000000 -1.000000
vn 0.000000 0.000000 -1.000000
vn 0.000000 1.000000 0.000000
vn 0.000000 1.000000 0.000000
vn 1.000000 0.000000 0.000000
vn 1.000000 0.000000 0.000000
vn 1.000000 0.000000 0.000000
vn 1.000000 0.000000 0.000000
vn -1.000000 0.000000 0.000000
vn -1.000000 0.000000 0.000000
vn -1.000000 0.000000 0.000000
vn -1.000000 0.000000 0.000000
vn 0.000000 1.000000 0.000000
vn 0.000000 1.000000 0.000000
vn 1.000000 0.000000 0.000000
vn 1.000000 0.000000 0.000000
vn 1.000000 0.000000 0.000000
vn 1.000000 0.000000 0.000000
vn 0.000000 -1.000000 0.000000
vn 0.000000 -1.000000 0.000000
vn 0.000000 -1.000000 0.000000
vn 0.000000 -1.000000 0.000000
f 1/1/1 2/46/2 28/2/3 27/44/4
f 2/3/5 1/38/6 3/4/7 4/30/8
f 4/5/9 3/41/10 20/6/11 19/39/12
f 5/7/13 6/33/14 8/8/15 7/37/16
f 6/9/17 5/43/18 26/10/19 25/53/20
f 7/11/21 8/49/22 22/12/23 21/42/24
f 9/13/25 10/14/26 12/15/27 11/29/28
f 10/16/29 9/35/30 24/17/31 23/51/32
f 11/18/33 12/19/34 32/20/35 31/47/36
f 13/21/37 14/22/38 18/23/39 17/36/40
f 14/24/41 13/28/42 15/25/43 16/31/44
f 16/26/45 15/48/46 30/27/47 29/45/48
f 13/28/49 9/13/50 11/29/51 15/25/52
f 4/30/53 14/24/54 16/31/55 2/3/56
f 10/32/57 8/8/58 6/33/59 12/34/60
f 9/35/61 13/21/62 17/36/63 24/17/64
f 5/7/65 7/37/66 3/4/67 1/38/68
f 4/5/53 19/39/69 18/23/70 14/40/54
f 3/41/71 7/11/72 21/42/73 20/6/74
f 5/43/75 1/1/76 27/44/77 26/10/78
f 16/26/55 29/45/79 28/2/80 2/46/56
f 11/18/81 31/47/82 30/27/83 15/48/84
f 8/49/58 10/50/57 23/51/85 22/12/86
f 12/52/60 6/9/59 25/53/87 32/20/88
