# This file uses meters as units for non-parametric coordinates.

v 12.146977 69.474615 31.807516
v 10.180242 69.474615 31.807516
v 12.146977 70.818624 31.807516
v 10.180242 70.818624 31.807516
v 12.146977 70.818624 30.187141
v 10.180242 70.818624 30.187141
v 12.146977 69.474615 30.187141
v 10.180242 69.474615 30.187141
v -3.441159 69.474615 31.807516
v -1.474422 69.474615 31.807516
v -3.441159 70.818624 31.807516
v -1.474422 70.818624 31.807516
v -3.441159 70.818624 30.187137
v -1.474422 70.818624 30.187137
v -3.441159 69.474615 30.187137
v -1.474422 69.474615 30.187137
v -6.029050 69.393674 33.199804
v -5.717390 69.082014 33.199804
v -5.717390 69.393674 33.511463
v 14.423210 69.082014 33.199804
v 14.734870 69.393674 33.199804
v 14.423210 69.393674 33.511463
v -5.717390 71.563032 33.199804
v -6.029050 71.251371 33.199804
v -5.717390 71.251371 33.511463
v 14.734870 71.251371 33.199804
v 14.423210 71.563032 33.199804
v 14.423210 71.251371 33.511463
v -5.717390 71.251371 31.600059
v -6.029050 71.251371 31.911718
v -5.717390 71.563032 31.911718
v 14.734870 71.251371 31.911718
v 14.423210 71.251371 31.600059
v 14.423210 71.563032 31.911718
v -5.717390 69.082014 31.911718
v -6.029050 69.393674 31.911718
v -5.717390 69.393674 31.600059
v 14.734870 69.393674 31.911718
v 14.423210 69.082014 31.911718
v 14.423210 69.393674 31.600059
vt 0.443830 0.761431
vt 0.457705 0.761431
vt 0.443830 0.775306
vt 0.457705 0.775306
vt 0.443830 0.761431
vt 0.457705 0.761431
vt 0.443830 0.775306
vt 0.457705 0.775306
vt 0.443830 0.761431
vt 0.457705 0.761431
vt 0.443830 0.761431
vt 0.443830 0.775306
vt 0.457705 0.761431
vt 0.457705 0.775306
vt 0.443830 0.775306
vt 0.457705 0.775306
vt 0.457705 0.761431
vt 0.443830 0.761431
vt 0.443830 0.775306
vt 0.457705 0.775306
vt 0.457705 0.761431
vt 0.443830 0.761431
vt 0.457705 0.761431
vt 0.443830 0.761431
vt 0.443830 0.775306
vt 0.457705 0.761431
vt 0.443830 0.761431
vt 0.457705 0.775306
vt 0.445414 0.773012
vt 0.456394 0.773012
vt 0.456394 0.763956
vt 0.445414 0.763956
vt 0.456394 0.763956
vt 0.456394 0.773012
vt 0.445414 0.773012
vt 0.445414 0.763956
vt 0.446376 0.773012
vt 0.455432 0.773012
vt 0.455432 0.763956
vt 0.446376 0.763956
vt 0.446376 0.763956
vt 0.446376 0.773012
vt 0.455432 0.773012
vt 0.455432 0.763956
vt 0.456394 0.773012
vt 0.456394 0.763956
vt 0.445414 0.763956
vt 0.445414 0.773012
vt 0.456394 0.763956
vt 0.456394 0.773012
vt 0.445414 0.773012
vt 0.445414 0.763956
vt 0.445244 0.763956
vt 0.445244 0.773012
vt 0.445414 0.762824
vt 0.456394 0.762824
vt 0.456564 0.763956
vt 0.456564 0.773012
vt 0.445244 0.773012
vt 0.445244 0.763956
vt 0.456564 0.773012
vt 0.456564 0.763956
vn 0.000000 1.000000 0.000000
vn 0.000000 1.000000 0.000000
vn 0.000000 1.000000 0.000000
vn 0.000000 1.000000 0.000000
vn 0.000000 -1.000000 0.000000
vn 0.000000 -1.000000 0.000000
vn 0.000000 -1.000000 0.000000
vn 0.000000 -1.000000 0.000000
vn -1.000000 0.000000 0.000000
vn -1.000000 0.000000 0.000000
vn -1.000000 0.000000 0.000000
vn -1.000000 0.000000 0.000000
vn 1.000000 0.000000 0.000000
vn 1.000000 0.000000 0.000000
vn 1.000000 0.000000 0.000000
vn 1.000000 0.000000 0.000000
vn 0.000000 1.000000 0.000000
vn 0.000000 1.000000 0.000000
vn 0.000000 1.000000 0.000000
vn 0.000000 1.000000 0.000000
vn 0.000000 -1.000000 0.000000
vn 0.000000 -1.000000 0.000000
vn 0.000000 -1.000000 0.000000
vn 0.000000 -1.000000 0.000000
vn 1.000000 0.000000 0.000000
vn 1.000000 0.000000 0.000000
vn 1.000000 0.000000 0.000000
vn 1.000000 0.000000 0.000000
vn -1.000000 0.000000 0.000000
vn -1.000000 0.000000 0.000000
vn -1.000000 0.000000 0.000000
vn -1.000000 0.000000 0.000000
vn 0.000000 -1.000000 0.000000
vn 0.000000 -1.000000 0.000000
vn 0.000000 -1.000000 0.000000
vn 0.000000 -1.000000 0.000000
vn 0.000000 0.000000 1.000000
vn 0.000000 0.000000 1.000000
vn 0.000000 0.000000 1.000000
vn 0.000000 0.000000 1.000000
vn -1.000000 0.000000 0.000000
vn -1.000000 0.000000 0.000000
vn -1.000000 0.000000 0.000000
vn -1.000000 0.000000 0.000000
vn 1.000000 0.000000 0.000000
vn 1.000000 0.000000 0.000000
vn 1.000000 0.000000 0.000000
vn 1.000000 0.000000 0.000000
vn 0.000000 1.000000 0.000000
vn 0.000000 1.000000 0.000000
vn 0.000000 1.000000 0.000000
vn 0.000000 1.000000 0.000000
vn 0.000000 0.000000 -1.000000
vn 0.000000 0.000000 -1.000000
vn 0.000000 0.000000 -1.000000
vn 0.000000 0.000000 -1.000000
vn -0.707108 -0.707106 0.000000
vn -0.707108 -0.707106 0.000000
vn -0.707108 -0.707106 0.000000
vn -0.707108 -0.707106 0.000000
vn 0.000000 -0.707101 0.707113
vn 0.000000 -0.707101 0.707113
vn 0.000000 -0.707101 0.707113
vn 0.000000 -0.707101 0.707113
vn -0.707106 0.000000 0.707108
vn -0.707106 0.000000 0.707108
vn -0.707106 0.000000 0.707108
vn -0.707106 0.000000 0.707108
vn 0.707108 -0.707106 0.000000
vn 0.707108 -0.707106 0.000000
vn 0.707108 -0.707106 0.000000
vn 0.707108 -0.707106 0.000000
vn 0.707106 0.000000 0.707108
vn 0.707106 0.000000 0.707108
vn 0.707106 0.000000 0.707108
vn 0.707106 0.000000 0.707108
vn -0.707108 0.707106 0.000000
vn -0.707108 0.707106 0.000000
vn -0.707108 0.707106 0.000000
vn -0.707108 0.707106 0.000000
vn 0.000000 0.707101 0.707113
vn 0.000000 0.707101 0.707113
vn 0.000000 0.707101 0.707113
vn 0.000000 0.707101 0.707113
vn 0.707108 0.707106 0.000000
vn 0.707108 0.707106 0.000000
vn 0.707108 0.707106 0.000000
vn 0.707108 0.707106 0.000000
vn -0.707106 0.000000 -0.707108
vn -0.707106 0.000000 -0.707108
vn -0.707106 0.000000 -0.707108
vn -0.707106 0.000000 -0.707108
vn 0.000000 0.707101 -0.707113
vn 0.000000 0.707101 -0.707113
vn 0.000000 0.707101 -0.707113
vn 0.000000 0.707101 -0.707113
vn 0.707106 0.000000 -0.707108
vn 0.707106 0.000000 -0.707108
vn 0.707106 0.000000 -0.707108
vn 0.707106 0.000000 -0.707108
vn 0.000000 -0.707101 -0.707113
vn 0.000000 -0.707101 -0.707113
vn 0.000000 -0.707101 -0.707113
vn 0.000000 -0.707101 -0.707113
vn -0.577347 -0.577345 0.577359
vn -0.577347 -0.577345 0.577359
vn -0.577348 -0.577345 0.577359
vn 0.577347 -0.577345 0.577359
vn 0.577347 -0.577345 0.577359
vn 0.577348 -0.577345 0.577359
vn -0.577355 0.577352 0.577344
vn -0.577355 0.577352 0.577344
vn -0.577355 0.577352 0.577344
vn 0.577355 0.577352 0.577344
vn 0.577355 0.577352 0.577344
vn 0.577355 0.577352 0.577344
vn -0.577355 0.577352 -0.577344
vn -0.577355 0.577352 -0.577344
vn -0.577355 0.577352 -0.577344
vn 0.577355 0.577352 -0.577344
vn 0.577355 0.577352 -0.577344
vn 0.577355 0.577352 -0.577344
vn -0.577347 -0.577345 -0.577359
vn -0.577347 -0.577345 -0.577359
vn -0.577348 -0.577345 -0.577359
vn 0.577347 -0.577345 -0.577359
vn 0.577347 -0.577345 -0.577359
vn 0.577348 -0.577345 -0.577359
f 3/3/1 5/5/2 6/6/3 4/4/4
f 7/7/5 1/9/6 2/10/7 8/8/8
f 2/2/9 4/4/10 6/12/11 8/11/12
f 7/13/13 5/14/14 3/3/15 1/1/16
f 11/15/17 12/16/18 14/17/19 13/18/20
f 15/19/21 16/20/22 10/21/23 9/22/24
f 10/23/25 16/24/26 14/25/27 12/16/28
f 15/26/29 9/27/30 11/15/31 13/28/32
f 35/29/33 39/30/34 20/31/35 18/32/36
f 22/33/37 28/34/38 25/35/39 19/36/40
f 24/37/41 30/38/42 36/39/43 17/40/44
f 38/41/45 32/42/46 26/43/47 21/44/48
f 27/45/49 34/46/50 31/47/51 23/48/52
f 33/49/53 40/50/54 37/51/55 29/52/56
f 18/32/57 17/53/58 36/54/59 35/29/60
f 19/36/61 18/55/62 20/56/63 22/33/64
f 17/40/65 19/36/66 25/35/67 24/37/68
f 21/57/69 20/31/70 39/30/71 38/58/72
f 22/33/73 21/44/74 26/43/75 28/34/76
f 24/59/77 23/48/78 31/47/79 30/60/80
f 23/48/81 25/35/82 28/34/83 27/45/84
f 27/45/85 26/61/86 32/62/87 34/46/88
f 30/60/89 29/52/90 37/51/91 36/54/92
f 29/52/93 31/47/94 34/46/95 33/49/96
f 33/49/97 32/62/98 38/58/99 40/50/100
f 35/29/101 37/51/102 40/50/103 39/30/104
f 17/40/105 18/55/106 19/36/107
f 20/56/108 21/44/109 22/33/110
f 23/48/111 24/37/112 25/35/113
f 26/43/114 27/45/115 28/34/116
f 29/52/117 30/60/118 31/47/119
f 32/62/120 33/49/121 34/46/122
f 35/29/123 36/54/124 37/51/125
f 38/58/126 39/30/127 40/50/128
