# This file uses meters as units for non-parametric coordinates.

v -57.108879 29.878281 30.617420
v -56.836330 29.605736 30.617420
v -56.836330 29.878281 30.889969
v 56.836330 29.605736 30.617420
v 57.108879 29.878281 30.617420
v 56.836330 29.878281 30.889969
v -56.836330 49.481857 30.617420
v -57.108879 49.209305 30.617420
v -56.836330 49.209305 30.889969
v 57.108879 49.209305 30.617420
v 56.836330 49.481857 30.617420
v 56.836330 49.209305 30.889969
v -56.836330 49.209305 25.438438
v -57.108879 49.209305 25.710987
v -56.836330 49.481857 25.710987
v 57.108879 49.209305 25.710987
v 56.836330 49.209305 25.438438
v 56.836330 49.481857 25.710987
v -56.836330 29.605736 25.710987
v -57.108879 29.878281 25.710987
v -56.836330 29.878281 25.438438
v 57.108879 29.878281 25.710987
v 56.836330 29.605736 25.710987
v 56.836330 29.878281 25.438438
v -52.483429 33.360245 25.438438
v 52.483448 33.360245 25.438438
v 52.483448 33.360245 -22.066465
v -52.483429 33.360245 -22.066465
v -54.538742 46.283188 25.438438
v -54.767086 46.054840 25.438438
v -54.767086 46.054840 -24.793043
v -54.538742 46.283188 -24.564699
v -54.767086 30.254089 25.438438
v -54.538742 30.025749 25.438438
v -54.538742 30.025749 -24.564699
v -54.767086 30.254089 -24.793043
v 54.538761 30.025749 25.438438
v 54.767105 30.254089 25.438438
v 54.767105 30.254089 -24.793043
v 54.538761 30.025749 -24.564699
v 54.767105 46.054840 25.438438
v 54.538761 46.283188 25.438438
v 54.767105 46.054840 -24.793043
v 54.538761 46.283188 -24.564699
v 52.711792 46.283188 -22.294809
v 52.483448 46.054840 -22.066465
v -52.711769 46.283188 -22.294809
v -52.483429 46.054840 -22.066465
v 52.711792 46.283188 25.438438
v 52.483448 46.054840 25.438438
v -52.483429 46.054840 25.438438
v -52.711769 46.283188 25.438438
v 0.000000 29.878281 30.889969
v 0.000000 47.879982 30.889969
v 0.000000 48.152534 30.617420
v 0.000000 48.152534 25.710987
v 0.000000 47.879982 25.438438
v 0.000000 29.878281 25.438438
v 0.000000 29.605736 25.710987
v 0.000000 29.605736 30.617420
v 1.187135 29.878281 30.889969
v 1.187135 29.605736 30.617420
v 1.187135 29.605736 25.710987
v 1.187135 29.878281 25.438438
v 1.187135 49.209305 25.438438
v 1.187135 49.481857 25.710987
v 1.187135 49.481857 30.617420
v 1.187135 49.209305 30.889969
v -1.187135 49.209305 30.889969
v -1.187135 49.481857 30.617420
v -1.187135 49.481857 25.710987
v -1.187135 49.209305 25.438438
v -1.187135 29.878281 25.438438
v -1.187135 29.605736 25.710987
v -1.187135 29.605736 30.617420
v -1.187135 29.878281 30.889969
v 0.000000 47.276207 30.889969
v 0.000000 47.276207 25.438437
vt 0.427900 0.949065
vt 0.416035 0.960830
vt 0.427326 0.960830
vt 0.427326 0.948591
vt 0.416035 0.948591
vt 0.416035 0.960830
vt 0.415461 0.949065
vt 0.415408 0.949065
vt 0.415408 0.960356
vt 0.416035 0.948591
vt 0.427953 0.949065
vt 0.427953 0.960356
vt 0.427900 0.948591
vt 0.415408 0.960356
vt 0.415408 0.949065
vt 0.415461 0.960356
vt 0.427900 0.960830
vt 0.427900 0.960356
vt 0.427953 0.960356
vt 0.415408 0.948591
vt 0.415461 0.948591
vt 0.427900 0.949065
vt 0.427900 0.948591
vt 0.427953 0.948591
vt 0.427953 0.960830
vt 0.415461 0.960356
vt 0.427900 0.960830
vt 0.415461 0.948438
vt 0.415461 0.948591
vt 0.427900 0.948438
vt 0.427326 0.948591
vt 0.415461 0.960830
vt 0.427326 0.960830
vt 0.415461 0.949065
vt 0.427953 0.949065
vt 0.415408 0.960830
vt 0.415461 0.960830
vt 0.427900 0.960356
vt 0.415727 0.960815
vt 0.427359 0.960815
vt 0.427359 0.949302
vt 0.415727 0.949302
vt 0.415448 0.960680
vt 0.415448 0.960815
vt 0.427581 0.960815
vt 0.427637 0.960680
vt 0.415448 0.948760
vt 0.415476 0.948682
vt 0.427610 0.948682
vt 0.427637 0.948760
vt 0.415448 0.948626
vt 0.415448 0.948760
vt 0.427637 0.948760
vt 0.427581 0.948626
vt 0.415476 0.960758
vt 0.415448 0.960680
vt 0.427637 0.960680
vt 0.427610 0.960758
vt 0.427637 0.948760
vt 0.427637 0.948626
vt 0.415505 0.948626
vt 0.415448 0.948760
vt 0.427610 0.960815
vt 0.427637 0.960815
vt 0.427637 0.948626
vt 0.427387 0.949245
vt 0.427359 0.949302
vt 0.427359 0.960815
vt 0.427387 0.960815
vt 0.415699 0.949245
vt 0.415727 0.949302
vt 0.415699 0.960815
vt 0.415727 0.960815
vt 0.415448 0.960680
vt 0.427637 0.960680
vt 0.427610 0.948626
vt 0.415476 0.948626
vt 0.415476 0.960815
vt 0.427374 0.949204
vt 0.415708 0.949204
vt 0.415708 0.960717
vt 0.427374 0.960717
vt 0.427374 0.949204
vt 0.427374 0.960717
vt 0.415708 0.949204
vt 0.415708 0.960717
vt 0.421680 0.948591
vt 0.421680 0.960830
vt 0.421680 0.960356
vt 0.421680 0.949065
vt 0.421680 0.948591
vt 0.421680 0.960830
vt 0.421680 0.960356
vt 0.421680 0.949065
vt 0.421680 0.948438
vt 0.421810 0.948591
vt 0.421810 0.949065
vt 0.421810 0.948438
vt 0.421810 0.960356
vt 0.421810 0.960830
vt 0.421810 0.948591
vt 0.421810 0.949065
vt 0.421810 0.960356
vt 0.421810 0.960830
vt 0.421551 0.960830
vt 0.421551 0.960356
vt 0.421551 0.949065
vt 0.421551 0.948591
vt 0.421551 0.960830
vt 0.421551 0.960356
vt 0.421551 0.949065
vt 0.421551 0.948438
vt 0.421551 0.948591
vt 0.421680 0.959606
vt 0.421680 0.949815
vn 0.000000 -1.000000 0.000000
vn 0.000000 -1.000000 0.000000
vn 0.000000 -1.000000 0.000000
vn 0.000000 -1.000000 0.000000
vn 0.000000 0.000000 1.000000
vn 0.000000 0.000000 1.000000
vn 0.000000 0.000000 1.000000
vn 0.000000 0.000000 1.000000
vn -1.000000 0.000000 0.000000
vn -1.000000 0.000000 0.000000
vn -1.000000 0.000000 0.000000
vn -1.000000 0.000000 0.000000
vn 1.000000 0.000000 0.000000
vn 1.000000 0.000000 0.000000
vn 1.000000 0.000000 0.000000
vn 1.000000 0.000000 0.000000
vn 0.023382 0.999727 -0.000000
vn 0.023382 0.999727 -0.000000
vn 0.000000 1.000000 0.000000
vn 0.000000 1.000000 0.000000
vn -0.000000 -0.000000 -1.000000
vn -0.000000 -0.000000 -1.000000
vn 0.000000 0.000000 -1.000000
vn 0.000000 0.000000 -1.000000
vn -0.707100 -0.707114 0.000000
vn -0.707100 -0.707114 0.000000
vn -0.707100 -0.707114 0.000000
vn -0.707100 -0.707114 0.000000
vn 0.000000 -0.707110 0.707104
vn 0.000000 -0.707110 0.707104
vn 0.000000 -0.707110 0.707104
vn 0.000000 -0.707110 0.707104
vn -0.707109 0.000000 0.707105
vn -0.707109 0.000000 0.707105
vn -0.707109 0.000000 0.707105
vn -0.707109 0.000000 0.707105
vn 0.707100 -0.707114 0.000000
vn 0.707100 -0.707114 0.000000
vn 0.707100 -0.707114 0.000000
vn 0.707100 -0.707114 0.000000
vn 0.707109 0.000000 0.707105
vn 0.707109 0.000000 0.707105
vn 0.707109 0.000000 0.707105
vn 0.707109 0.000000 0.707105
vn -0.707110 0.707104 0.000000
vn -0.707110 0.707104 0.000000
vn -0.707110 0.707104 0.000000
vn -0.707110 0.707104 0.000000
vn 0.000000 0.707110 0.707104
vn 0.022218 0.706935 0.706930
vn 0.010768 0.707069 0.707063
vn 0.000000 0.707110 0.707104
vn 0.707110 0.707104 0.000000
vn 0.707110 0.707104 0.000000
vn 0.707110 0.707104 0.000000
vn 0.707110 0.707104 0.000000
vn -0.707105 0.000000 -0.707109
vn -0.707105 0.000000 -0.707109
vn -0.707105 0.000000 -0.707109
vn -0.707105 0.000000 -0.707109
vn 0.010768 0.707069 -0.707063
vn 0.022218 0.706935 -0.706929
vn 0.000000 0.707110 -0.707104
vn 0.000000 0.707110 -0.707104
vn 0.707105 0.000000 -0.707109
vn 0.707105 0.000000 -0.707109
vn 0.707105 0.000000 -0.707109
vn 0.707105 0.000000 -0.707109
vn 0.000000 -0.707110 -0.707104
vn 0.000000 -0.707110 -0.707104
vn 0.000000 -0.707110 -0.707104
vn 0.000000 -0.707110 -0.707104
vn -0.577345 -0.577345 0.577360
vn -0.577345 -0.577345 0.577360
vn -0.577345 -0.577345 0.577360
vn 0.577345 -0.577345 0.577360
vn 0.577345 -0.577345 0.577360
vn 0.577345 -0.577345 0.577360
vn -0.577355 0.577340 0.577355
vn -0.577355 0.577340 0.577355
vn -0.577355 0.577340 0.577355
vn 0.577355 0.577340 0.577355
vn 0.577355 0.577340 0.577355
vn 0.577355 0.577340 0.577355
vn -0.577360 0.577338 -0.577353
vn -0.577360 0.577338 -0.577353
vn -0.577360 0.577338 -0.577353
vn 0.577360 0.577338 -0.577353
vn 0.577360 0.577338 -0.577353
vn 0.577360 0.577338 -0.577353
vn -0.577345 -0.577345 -0.577360
vn -0.577345 -0.577345 -0.577360
vn -0.577345 -0.577345 -0.577360
vn 0.577345 -0.577345 -0.577360
vn 0.577345 -0.577345 -0.577360
vn 0.577345 -0.577345 -0.577360
vn 0.000000 1.000000 0.000000
vn 0.000000 1.000000 0.000000
vn 0.000000 1.000000 0.000000
vn 0.000000 1.000000 0.000000
vn -0.707109 0.707104 0.000000
vn -0.707109 0.707104 0.000000
vn -0.707109 0.707104 0.000000
vn -0.707109 0.707104 0.000000
vn 0.000000 0.707098 -0.707116
vn 0.000000 0.707098 -0.707116
vn 0.000000 0.707098 -0.707116
vn 0.000000 0.707098 -0.707116
vn -0.707098 -0.707116 0.000000
vn -0.707098 -0.707116 0.000000
vn -0.707098 -0.707116 0.000000
vn -0.707098 -0.707116 0.000000
vn 0.000000 -0.707112 -0.707102
vn 0.000000 -0.707112 -0.707102
vn 0.000000 -0.707112 -0.707102
vn 0.000000 -0.707112 -0.707102
vn 0.707098 -0.707116 0.000000
vn 0.707098 -0.707116 0.000000
vn 0.707098 -0.707116 0.000000
vn 0.707098 -0.707116 0.000000
vn 0.707109 0.707104 0.000000
vn 0.707109 0.707104 0.000000
vn 0.707109 0.707104 0.000000
vn 0.707109 0.707104 0.000000
vn -0.707113 0.707101 0.000000
vn -0.707112 0.707101 0.000000
vn -0.707112 0.707101 0.000000
vn -0.707112 0.707101 0.000000
vn 0.000000 0.707095 0.707118
vn 0.000000 0.707095 0.707118
vn 0.000000 0.707095 0.707119
vn 0.000000 0.707095 0.707118
vn 0.707128 0.707085 0.000000
vn 0.707128 0.707085 0.000000
vn 0.707128 0.707085 0.000000
vn 0.707128 0.707085 0.000000
vn 0.000000 1.000000 0.000000
vn 0.000000 1.000000 0.000000
vn 0.000000 1.000000 0.000000
vn 0.000000 1.000000 0.000000
vn 1.000000 0.000000 0.000000
vn 1.000000 0.000000 0.000000
vn 1.000000 0.000000 0.000000
vn 1.000000 0.000000 0.000000
vn -1.000000 0.000000 0.000000
vn -1.000000 0.000000 0.000000
vn -1.000000 0.000000 0.000000
vn -1.000000 0.000000 0.000000
vn 0.000000 -1.000000 0.000000
vn 0.000000 -1.000000 0.000000
vn 0.000000 -1.000000 0.000000
vn 0.000000 -1.000000 0.000000
vn 0.000000 0.000000 -1.000000
vn 0.000000 0.000000 -1.000000
vn 0.000000 0.000000 -1.000000
vn 0.000000 0.000000 -1.000000
vn 0.000000 1.000000 0.000000
vn 0.000000 1.000000 0.000000
vn 0.000000 1.000000 0.000000
vn 0.000000 1.000000 0.000000
vn -1.000000 0.000000 0.000000
vn -1.000000 0.000000 0.000000
vn -1.000000 0.000000 0.000000
vn -1.000000 0.000000 0.000000
vn 0.000000 0.000000 1.000000
vn 0.000000 0.000000 1.000000
vn 0.000000 0.000000 1.000000
vn 0.000000 0.000000 1.000000
vn 1.000000 0.000000 0.000000
vn 1.000000 0.000000 0.000000
vn 1.000000 0.000000 0.000000
vn 1.000000 0.000000 0.000000
vn 0.000000 0.000000 1.000000
vn 0.000000 0.000000 1.000000
vn 0.000000 0.000000 1.000000
vn 0.000000 0.000000 1.000000
vn -0.010768 0.707069 0.707063
vn -0.022218 0.706935 0.706929
vn 0.000000 0.707110 0.707104
vn 0.000000 0.707110 0.707104
vn 0.000000 1.000000 0.000000
vn 0.000000 1.000000 0.000000
vn -0.023382 0.999727 0.000000
vn -0.023382 0.999727 0.000000
vn 0.000000 0.707110 -0.707104
vn 0.000000 0.707110 -0.707104
vn -0.022218 0.706935 -0.706930
vn -0.010768 0.707068 -0.707063
vn 0.000000 0.000000 -1.000000
vn 0.000000 0.000000 -1.000000
vn 0.000000 -0.000000 -1.000000
vn 0.000000 -0.000000 -1.000000
vn 0.000000 -0.707110 -0.707104
vn 0.000000 -0.707110 -0.707104
vn 0.000000 -0.707110 -0.707104
vn 0.000000 -0.707110 -0.707104
vn 0.000000 -1.000000 0.000000
vn 0.000000 -1.000000 0.000000
vn 0.000000 -1.000000 0.000000
vn 0.000000 -1.000000 0.000000
vn 0.000000 -0.707110 0.707104
vn 0.000000 -0.707110 0.707104
vn 0.000000 -0.707110 0.707104
vn 0.000000 -0.707110 0.707104
vn 0.000000 -0.707112 0.707102
vn 0.000000 -0.707112 0.707102
vn 0.000000 -1.000000 0.000000
vn 0.000000 -1.000000 0.000000
vn 0.000000 -0.707112 -0.707102
vn 0.000000 -0.707112 -0.707102
vn -0.000000 -0.000000 -1.000000
vn 0.000000 0.000003 -1.000000
vn 0.000001 0.707104 -0.707110
vn 0.000001 0.707104 -0.707110
vn 0.000000 1.000000 0.000000
vn 0.000000 1.000000 0.000000
vn 0.000000 0.707105 0.707109
vn -0.000000 0.707105 0.707109
vn 0.000000 0.000000 1.000000
vn 0.000000 0.000000 1.000000
vn 0.000000 0.000000 1.000000
vn -0.000000 -0.000000 -1.000000
f 74/110/1 75/111/2 2/7/3 19/26/4
f 76/113/5 69/105/6 9/32/7 3/29/8
f 8/2/9 14/3/10 20/4/11 1/10/12
f 22/5/13 16/6/14 10/33/15 5/31/16
f 70/106/17 71/107/18 15/34/19 7/16/20
f 72/108/21 73/109/22 21/37/23 13/21/24
f 2/7/25 1/8/26 20/9/27 19/26/28
f 75/112/29 76/113/30 3/29/31 2/28/32
f 1/10/33 3/29/34 9/32/35 8/2/36
f 5/11/37 4/1/38 23/38/39 22/12/40
f 6/13/41 5/31/42 10/33/43 12/17/44
f 8/14/45 7/16/46 15/34/47 14/15/48
f 9/32/49 69/105/50 70/106/51 7/16/52
f 11/18/53 10/19/54 16/35/55 18/22/56
f 14/20/57 13/21/58 21/37/59 20/36/60
f 71/107/61 72/108/62 13/21/63 15/34/64
f 17/23/65 16/24/66 22/25/67 24/27/68
f 73/109/69 74/110/70 19/26/71 21/37/72
f 1/10/73 2/28/74 3/29/75
f 4/30/76 5/31/77 6/13/78
f 7/16/79 8/2/80 9/32/81
f 10/33/82 11/18/83 12/17/84
f 13/21/85 14/15/86 15/34/87
f 16/35/88 17/23/89 18/22/90
f 19/26/91 20/36/92 21/37/93
f 22/25/94 23/38/95 24/27/96
f 25/39/97 26/40/98 27/41/99 28/42/100
f 30/43/101 29/44/102 32/45/103 31/46/104
f 31/47/105 32/48/106 44/49/107 43/50/108
f 34/51/109 33/52/110 36/53/111 35/54/112
f 35/55/113 36/56/114 39/57/115 40/58/116
f 38/59/117 37/60/118 40/61/119 39/62/120
f 42/63/121 41/64/122 43/65/123 44/49/124
f 45/66/125 46/67/126 50/68/127 49/69/128
f 46/67/129 45/66/130 47/70/131 48/71/132
f 48/71/133 47/70/134 52/72/135 51/73/136
f 45/66/137 49/69/138 42/63/139 44/49/140
f 43/74/141 41/75/142 38/59/143 39/62/144
f 36/53/145 33/52/146 30/43/147 31/46/148
f 40/58/149 37/76/150 34/77/151 35/55/152
f 36/56/153 31/47/154 43/50/155 39/57/156
f 32/48/157 47/70/158 45/66/137 44/49/140
f 32/48/157 29/78/159 52/72/160 47/70/158
f 50/79/161 46/80/162 27/81/163 26/82/164
f 46/80/165 48/83/166 28/84/167 27/81/168
f 48/83/169 51/85/170 25/86/171 28/84/172
f 6/13/173 12/17/174 68/104/175 61/96/176
f 67/103/177 68/104/178 12/17/179 11/18/180
f 11/18/181 18/22/182 66/102/183 67/103/184
f 18/22/185 17/23/186 65/101/187 66/102/188
f 17/23/189 24/27/190 64/100/191 65/101/192
f 24/27/193 23/38/194 63/99/195 64/100/196
f 23/38/197 4/1/198 62/97/199 63/99/200
f 4/30/201 6/13/202 61/96/203 62/98/204
f 62/98/204 61/96/203 53/87/205 60/95/206
f 63/99/200 62/97/199 60/94/207 59/93/208
f 64/100/196 63/99/195 59/93/209 58/92/210
f 65/101/192 78/115/211 57/91/212
f 66/102/188 65/101/187 57/91/213 56/90/214
f 67/103/184 66/102/183 56/90/215 55/89/216
f 55/89/217 54/88/218 68/104/178 67/103/177
f 77/114/219 68/104/175 54/88/220
f 69/105/50 54/88/218 55/89/217 70/106/51
f 55/89/216 56/90/215 71/107/18 70/106/17
f 56/90/214 57/91/213 72/108/62 71/107/61
f 57/91/212 78/115/211 72/108/21
f 58/92/210 59/93/209 74/110/70 73/109/69
f 59/93/208 60/94/207 75/111/2 74/110/1
f 60/95/206 53/87/205 76/113/30 75/112/29
f 69/105/6 77/114/219 54/88/220
f 53/87/221 77/114/219 69/105/6 76/113/5
f 61/96/176 68/104/175 77/114/219 53/87/221
f 65/101/192 64/100/191 58/92/222 78/115/211
f 72/108/21 78/115/211 58/92/222 73/109/22
