# This file uses meters as units for non-parametric coordinates.

v -39.860161 5.414211 30.480082
v -31.200047 5.414211 30.480082
v -31.200047 80.682449 30.480082
v -39.860161 80.682449 30.480082
v -31.542551 5.756201 30.910124
v -39.517654 5.756201 30.910124
v -31.542551 80.340462 30.910124
v -39.517654 80.340462 30.910124
vt 0.492379 0.916100
vt 0.492379 0.930752
vt 0.478236 0.930752
vt 0.478236 0.916100
vt 0.492379 0.916100
vt 0.492379 0.930752
vt 0.478236 0.930752
vt 0.478236 0.916100
vn 0.000000 0.000000 1.000000
vn 0.000000 0.000000 1.000000
vn 0.000000 0.000000 1.000000
vn 0.000000 0.000000 1.000000
vn 0.000000 -0.782680 0.622425
vn 0.000000 -0.782680 0.622425
vn 0.000000 -0.782680 0.622425
vn 0.000000 -0.782680 0.622425
vn 0.782225 0.000000 0.622996
vn 0.782225 0.000000 0.622996
vn 0.782225 0.000000 0.622996
vn 0.782225 0.000000 0.622996
vn 0.000000 0.782683 0.622420
vn 0.000000 0.782683 0.622420
vn 0.000000 0.782683 0.622420
vn 0.000000 0.782683 0.622420
vn -0.782222 0.000000 0.622999
vn -0.782222 0.000000 0.622999
vn -0.782222 0.000000 0.622999
vn -0.782222 0.000000 0.622999
f 6/5/1 5/6/2 7/7/3 8/8/4
f 1/1/5 2/2/6 5/6/7 6/5/8
f 2/2/9 3/3/10 7/7/11 5/6/12
f 3/3/13 4/4/14 8/8/15 7/7/16
f 4/4/17 1/1/18 6/5/19 8/8/20
