# This file uses meters as units for non-parametric coordinates.

v -32.246479 16.434651 30.140787
v -31.973930 16.162102 30.140787
v -31.973930 16.434651 30.413336
v 31.973930 16.162102 30.140787
v 32.246479 16.434651 30.140787
v 31.973930 16.434651 30.413336
v -31.973930 47.061692 30.140787
v -32.246479 46.789139 30.140787
v -31.973930 46.789139 30.413336
v 32.246479 46.789139 30.140787
v 31.973930 47.061692 30.140787
v 31.973930 46.789139 30.413336
v -31.973930 46.789139 26.330667
v -32.246479 46.789139 26.603216
v -31.973930 47.061692 26.603216
v 32.246479 46.789139 26.603216
v 31.973930 46.789139 26.330667
v 31.973930 47.061692 26.603216
v -31.973930 16.162102 26.603216
v -32.246479 16.434651 26.603216
v -31.973930 16.434651 26.330667
v 32.246479 16.434651 26.603216
v 31.973930 16.162102 26.603216
v 31.973930 16.434651 26.330667
v -29.685690 19.916611 26.330667
v 29.685696 19.916611 26.330667
v 29.685696 19.916611 -27.739384
v -29.685690 19.916611 -27.739384
v -31.741005 46.789139 26.330667
v -31.969347 46.560792 26.330667
v -31.969347 46.560792 -30.465961
v -31.741005 46.789139 -30.237617
v -31.969347 16.810456 26.330667
v -31.741005 16.582116 26.330667
v -31.741005 16.582116 -30.237617
v -31.969347 16.810456 -30.465961
v 31.741009 16.582116 26.330667
v 31.969353 16.810456 26.330667
v 31.969353 16.810456 -30.465961
v 31.741009 16.582116 -30.237617
v 31.969353 46.560792 26.330667
v 31.741009 46.789139 26.330667
v 31.969353 46.560792 -30.465961
v 31.741009 46.789139 -30.237617
v 29.914040 46.789139 -27.967728
v 29.685696 46.560792 -27.739384
v -29.914032 46.789139 -27.967728
v -29.685690 46.560792 -27.739384
v 29.914040 46.789139 26.330667
v 29.685696 46.560792 26.330667
v -29.685690 46.560792 26.330667
v -29.914032 46.789139 26.330667
vt 0.620496 0.196000
vt 0.514726 0.245126
vt 0.615377 0.245126
vt 0.615377 0.194023
vt 0.514726 0.194023
vt 0.514726 0.245126
vt 0.509607 0.196000
vt 0.509135 0.196000
vt 0.509135 0.243148
vt 0.514726 0.194023
vt 0.620968 0.196000
vt 0.620968 0.243148
vt 0.620496 0.194023
vt 0.509135 0.243148
vt 0.509135 0.196000
vt 0.509607 0.243148
vt 0.620496 0.245126
vt 0.620496 0.243148
vt 0.620968 0.243148
vt 0.509135 0.194023
vt 0.509607 0.194023
vt 0.620496 0.196000
vt 0.620496 0.194023
vt 0.620968 0.194023
vt 0.620968 0.245126
vt 0.509607 0.243148
vt 0.620496 0.245126
vt 0.509607 0.193381
vt 0.509607 0.194023
vt 0.620496 0.193381
vt 0.615377 0.194023
vt 0.509607 0.245126
vt 0.615377 0.245126
vt 0.509607 0.196000
vt 0.620968 0.196000
vt 0.509135 0.245126
vt 0.509607 0.245126
vt 0.620496 0.243148
vt 0.511978 0.245064
vt 0.615671 0.245064
vt 0.615671 0.196990
vt 0.511978 0.196990
vt 0.509496 0.244501
vt 0.509496 0.245064
vt 0.617648 0.245064
vt 0.618152 0.244501
vt 0.509496 0.194728
vt 0.509740 0.194403
vt 0.617904 0.194403
vt 0.618152 0.194728
vt 0.509496 0.194166
vt 0.509496 0.194729
vt 0.618152 0.194728
vt 0.617648 0.194166
vt 0.509745 0.244827
vt 0.509496 0.244501
vt 0.618152 0.244501
vt 0.617904 0.244827
vt 0.618152 0.194728
vt 0.618152 0.194166
vt 0.510002 0.194166
vt 0.509496 0.194729
vt 0.617904 0.245064
vt 0.618152 0.245064
vt 0.618152 0.194166
vt 0.615919 0.196754
vt 0.615671 0.196990
vt 0.615671 0.245064
vt 0.615919 0.245064
vt 0.511730 0.196754
vt 0.511978 0.196990
vt 0.511730 0.245064
vt 0.511978 0.245064
vt 0.509496 0.244501
vt 0.618152 0.244501
vt 0.617904 0.194166
vt 0.509745 0.194166
vt 0.509745 0.245064
vt 0.615806 0.196583
vt 0.511813 0.196583
vt 0.511813 0.244655
vt 0.615806 0.244655
vt 0.615806 0.196583
vt 0.615806 0.244655
vt 0.511812 0.196583
vt 0.511812 0.244655
vn 0.000000 -1.000000 0.000000
vn 0.000000 -1.000000 0.000000
vn 0.000000 -1.000000 0.000000
vn 0.000000 -1.000000 0.000000
vn 0.000000 0.000000 1.000000
vn 0.000000 0.000000 1.000000
vn 0.000000 0.000000 1.000000
vn 0.000000 0.000000 1.000000
vn -1.000000 0.000000 0.000000
vn -1.000000 0.000000 0.000000
vn -1.000000 0.000000 0.000000
vn -1.000000 0.000000 0.000000
vn 1.000000 0.000000 0.000000
vn 1.000000 0.000000 0.000000
vn 1.000000 0.000000 0.000000
vn 1.000000 0.000000 0.000000
vn 0.000000 1.000000 0.000000
vn 0.000000 1.000000 0.000000
vn 0.000000 1.000000 0.000000
vn 0.000000 1.000000 0.000000
vn 0.000000 0.000000 -1.000000
vn 0.000000 0.000000 -1.000000
vn 0.000000 0.000000 -1.000000
vn 0.000000 0.000000 -1.000000
vn -0.707105 -0.707109 0.000000
vn -0.707105 -0.707109 0.000000
vn -0.707105 -0.707109 0.000000
vn -0.707105 -0.707109 0.000000
vn 0.000000 -0.707106 0.707108
vn 0.000000 -0.707106 0.707108
vn 0.000000 -0.707106 0.707108
vn 0.000000 -0.707106 0.707108
vn -0.707109 0.000000 0.707104
vn -0.707109 0.000000 0.707104
vn -0.707109 0.000000 0.707104
vn -0.707109 0.000000 0.707104
vn 0.707105 -0.707109 0.000000
vn 0.707105 -0.707109 0.000000
vn 0.707105 -0.707109 0.000000
vn 0.707105 -0.707109 0.000000
vn 0.707109 0.000000 0.707104
vn 0.707109 0.000000 0.707104
vn 0.707109 0.000000 0.707104
vn 0.707109 0.000000 0.707104
vn -0.707110 0.707103 0.000000
vn -0.707110 0.707103 0.000000
vn -0.707110 0.707103 0.000000
vn -0.707110 0.707103 0.000000
vn 0.000000 0.707101 0.707113
vn 0.000000 0.707101 0.707113
vn 0.000000 0.707101 0.707113
vn 0.000000 0.707101 0.707113
vn 0.707110 0.707103 0.000000
vn 0.707110 0.707103 0.000000
vn 0.707110 0.707103 0.000000
vn 0.707110 0.707103 0.000000
vn -0.707107 0.000000 -0.707107
vn -0.707107 0.000000 -0.707107
vn -0.707107 0.000000 -0.707107
vn -0.707107 0.000000 -0.707107
vn 0.000000 0.707101 -0.707113
vn 0.000000 0.707101 -0.707113
vn 0.000000 0.707101 -0.707113
vn 0.000000 0.707101 -0.707113
vn 0.707107 0.000000 -0.707107
vn 0.707107 0.000000 -0.707107
vn 0.707107 0.000000 -0.707107
vn 0.707107 0.000000 -0.707107
vn 0.000000 -0.707106 -0.707108
vn 0.000000 -0.707106 -0.707108
vn 0.000000 -0.707106 -0.707108
vn 0.000000 -0.707106 -0.707108
vn -0.577350 -0.577350 0.577350
vn -0.577350 -0.577350 0.577350
vn -0.577350 -0.577350 0.577350
vn 0.577350 -0.577350 0.577350
vn 0.577350 -0.577350 0.577350
vn 0.577350 -0.577350 0.577350
vn -0.577350 0.577350 0.577350
vn -0.577350 0.577350 0.577350
vn -0.577350 0.577350 0.577350
vn 0.577350 0.577350 0.577350
vn 0.577350 0.577350 0.577350
vn 0.577350 0.577350 0.577350
vn -0.577355 0.577348 -0.577348
vn -0.577355 0.577348 -0.577348
vn -0.577355 0.577348 -0.577348
vn 0.577355 0.577348 -0.577348
vn 0.577355 0.577348 -0.577348
vn 0.577355 0.577348 -0.577348
vn -0.577345 -0.577353 -0.577353
vn -0.577345 -0.577353 -0.577353
vn -0.577345 -0.577353 -0.577353
vn 0.577345 -0.577353 -0.577353
vn 0.577345 -0.577353 -0.577353
vn 0.577345 -0.577353 -0.577353
vn 0.000000 1.000000 0.000000
vn 0.000000 1.000000 0.000000
vn 0.000000 1.000000 0.000000
vn 0.000000 1.000000 0.000000
vn -0.707112 0.707101 0.000000
vn -0.707112 0.707101 0.000000
vn -0.707112 0.707101 0.000000
vn -0.707112 0.707101 0.000000
vn 0.000000 0.707084 -0.707130
vn 0.000000 0.707084 -0.707130
vn 0.000000 0.707084 -0.707130
vn 0.000000 0.707084 -0.707130
vn -0.707100 -0.707113 0.000000
vn -0.707100 -0.707113 0.000000
vn -0.707100 -0.707113 0.000000
vn -0.707100 -0.707113 0.000000
vn 0.000000 -0.707113 -0.707100
vn 0.000000 -0.707113 -0.707100
vn 0.000000 -0.707113 -0.707100
vn 0.000000 -0.707113 -0.707100
vn 0.707100 -0.707113 0.000000
vn 0.707100 -0.707113 0.000000
vn 0.707100 -0.707113 0.000000
vn 0.707100 -0.707113 0.000000
vn 0.707112 0.707101 0.000000
vn 0.707112 0.707101 0.000000
vn 0.707112 0.707101 0.000000
vn 0.707112 0.707101 0.000000
vn -0.707115 0.707099 0.000000
vn -0.707115 0.707099 0.000000
vn -0.707115 0.707099 0.000000
vn -0.707115 0.707099 0.000000
vn 0.000000 0.707103 0.707110
vn 0.000000 0.707103 0.707110
vn 0.000000 0.707103 0.707110
vn 0.000000 0.707103 0.707110
vn 0.707118 0.707095 0.000000
vn 0.707119 0.707095 0.000000
vn 0.707119 0.707095 0.000000
vn 0.707119 0.707095 0.000000
vn 0.000000 1.000000 0.000002
vn 0.000000 1.000000 0.000000
vn 0.000000 1.000000 0.000000
vn 0.000000 1.000000 0.000002
vn 1.000000 0.000000 0.000000
vn 1.000000 0.000000 0.000000
vn 1.000000 0.000000 0.000000
vn 1.000000 0.000000 0.000000
vn -1.000000 0.000000 0.000000
vn -1.000000 0.000000 0.000000
vn -1.000000 0.000000 0.000000
vn -1.000000 0.000000 0.000000
vn 0.000000 -1.000000 0.000000
vn 0.000000 -1.000000 0.000000
vn 0.000000 -1.000000 0.000000
vn 0.000000 -1.000000 0.000000
vn 0.000000 0.000000 -1.000000
vn 0.000000 0.000000 -1.000000
vn 0.000000 0.000000 -1.000000
vn 0.000000 0.000000 -1.000000
vn 0.000000 1.000000 0.000002
vn 0.000000 1.000000 0.000002
vn 0.000000 1.000000 0.000000
vn 0.000000 1.000000 0.000000
vn -1.000000 0.000000 0.000000
vn -1.000000 0.000000 0.000000
vn -1.000000 0.000000 0.000000
vn -1.000000 0.000000 0.000000
vn 0.000000 0.000000 1.000000
vn 0.000000 0.000000 1.000000
vn 0.000000 0.000000 1.000000
vn 0.000000 0.000000 1.000000
vn 1.000000 0.000000 0.000000
vn 1.000000 0.000000 0.000000
vn 1.000000 0.000000 0.000000
vn 1.000000 0.000000 0.000000
f 19/26/1 23/38/2 4/1/3 2/7/4
f 6/13/5 12/17/6 9/32/7 3/29/8
f 8/2/9 14/3/10 20/4/11 1/10/12
f 22/5/13 16/6/14 10/33/15 5/31/16
f 11/18/17 18/22/18 15/34/19 7/16/20
f 17/23/21 24/27/22 21/37/23 13/21/24
f 2/7/25 1/8/26 20/9/27 19/26/28
f 3/29/29 2/28/30 4/30/31 6/13/32
f 1/10/33 3/29/34 9/32/35 8/2/36
f 5/11/37 4/1/38 23/38/39 22/12/40
f 6/13/41 5/31/42 10/33/43 12/17/44
f 8/14/45 7/16/46 15/34/47 14/15/48
f 7/16/49 9/32/50 12/17/51 11/18/52
f 11/18/53 10/19/54 16/35/55 18/22/56
f 14/20/57 13/21/58 21/37/59 20/36/60
f 13/21/61 15/34/62 18/22/63 17/23/64
f 17/23/65 16/24/66 22/25/67 24/27/68
f 19/26/69 21/37/70 24/27/71 23/38/72
f 1/10/73 2/28/74 3/29/75
f 4/30/76 5/31/77 6/13/78
f 7/16/79 8/2/80 9/32/81
f 10/33/82 11/18/83 12/17/84
f 13/21/85 14/15/86 15/34/87
f 16/35/88 17/23/89 18/22/90
f 19/26/91 20/36/92 21/37/93
f 22/25/94 23/38/95 24/27/96
f 25/39/97 26/40/98 27/41/99 28/42/100
f 30/43/101 29/44/102 32/45/103 31/46/104
f 31/47/105 32/48/106 44/49/107 43/50/108
f 34/51/109 33/52/110 36/53/111 35/54/112
f 35/55/113 36/56/114 39/57/115 40/58/116
f 38/59/117 37/60/118 40/61/119 39/62/120
f 42/63/121 41/64/122 43/65/123 44/49/124
f 45/66/125 46/67/126 50/68/127 49/69/128
f 46/67/129 45/66/130 47/70/131 48/71/132
f 48/71/133 47/70/134 52/72/135 51/73/136
f 45/66/137 49/69/138 42/63/139 44/49/140
f 43/74/141 41/75/142 38/59/143 39/62/144
f 36/53/145 33/52/146 30/43/147 31/46/148
f 40/58/149 37/76/150 34/77/151 35/55/152
f 36/56/153 31/47/154 43/50/155 39/57/156
f 32/48/157 47/70/158 45/66/137 44/49/140
f 32/48/157 29/78/159 52/72/160 47/70/158
f 50/79/161 46/80/162 27/81/163 26/82/164
f 46/80/165 48/83/166 28/84/167 27/81/168
f 48/83/169 51/85/170 25/86/171 28/84/172
