# This file uses meters as units for non-parametric coordinates.

v -24.515234 84.572281 31.580406
v 24.515234 84.572281 31.580406
v 24.515234 84.572281 -16.138699
v -24.515234 84.572281 -16.138699
v -26.570547 104.341057 31.580406
v -26.798891 104.112717 31.580406
v -26.798891 104.112717 -18.865276
v -26.570547 104.341057 -18.636932
v -26.798891 81.466129 31.580406
v -26.570547 81.237785 31.580406
v -26.570547 81.237785 -18.636932
v -26.798891 81.466129 -18.865276
v 26.570547 81.237785 31.580406
v 26.798891 81.466129 31.580406
v 26.798891 81.466129 -18.865276
v 26.570547 81.237785 -18.636932
v 26.798891 104.112717 31.580406
v 26.570547 104.341057 31.580406
v 26.798891 104.112717 -18.865276
v 26.570547 104.341057 -18.636932
v 24.743578 104.341057 -16.367041
v 24.515234 104.112717 -16.138699
v -24.743578 104.341057 -16.367041
v -24.515234 104.112717 -16.138699
v 24.743578 104.341057 31.580406
v 24.515234 104.112717 31.580406
v -24.515234 104.112717 31.580406
v -24.743578 104.341057 31.580406
v -28.319025 108.498085 31.580410
v 28.319025 108.498085 31.580410
v -28.319025 81.237793 31.580410
v 28.319025 81.237793 31.580410
v -27.873362 81.683456 34.551834
v -28.319025 81.237793 34.106163
v 27.873362 81.683456 34.551834
v 28.319025 81.237793 34.106163
v -27.873362 108.052414 34.551834
v -28.319025 108.498085 34.106163
v 27.873362 108.052414 34.551834
v 28.319025 108.498085 34.106163
vt 0.414327 0.898466
vt 0.429061 0.898466
vt 0.429061 0.883884
vt 0.414327 0.883884
vt 0.413975 0.898295
vt 0.413975 0.898466
vt 0.429342 0.898466
vt 0.413975 0.883198
vt 0.413975 0.883027
vt 0.429414 0.883198
vt 0.429342 0.883027
vt 0.429414 0.898295
vt 0.429414 0.883198
vt 0.429414 0.883027
vt 0.414047 0.883027
vt 0.429378 0.898466
vt 0.429414 0.898466
vt 0.429414 0.883027
vt 0.429061 0.883884
vt 0.429061 0.898466
vt 0.414327 0.883884
vt 0.414292 0.898466
vt 0.414327 0.898466
vt 0.429096 0.898466
vt 0.429378 0.883099
vt 0.413975 0.898295
vt 0.429414 0.898295
vt 0.413975 0.883198
vt 0.413975 0.883198
vt 0.429414 0.898295
vt 0.429378 0.898394
vt 0.429378 0.883027
vt 0.414010 0.883027
vt 0.414010 0.898394
vt 0.413975 0.898295
vt 0.429414 0.883198
vt 0.414009 0.883099
vt 0.429096 0.883812
vt 0.414010 0.898466
vt 0.414292 0.883812
vt 0.429080 0.883760
vt 0.414304 0.883760
vt 0.429080 0.898342
vt 0.429080 0.883760
vt 0.414304 0.898342
vt 0.414304 0.883760
vt 0.414304 0.898342
vt 0.429080 0.898342
vt 0.413975 0.883027
vt 0.429414 0.883027
vt 0.429414 0.898466
vt 0.413975 0.898466
vt 0.414042 0.883353
vt 0.416290 0.883027
vt 0.427098 0.883027
vt 0.429347 0.883353
vt 0.414042 0.898140
vt 0.413975 0.896150
vt 0.427098 0.898466
vt 0.429347 0.898140
vt 0.429414 0.896150
vt 0.429414 0.885343
vt 0.413975 0.885343
vt 0.413975 0.883027
vt 0.413975 0.898466
vt 0.429414 0.883027
vt 0.416290 0.898466
vt 0.429414 0.898466
vn 0.000000 1.000000 0.000000
vn 0.000000 1.000000 0.000000
vn 0.000000 1.000000 0.000000
vn 0.000000 1.000000 0.000000
vn -0.707100 0.707113 0.000000
vn -0.707100 0.707113 0.000000
vn -0.707100 0.707114 0.000000
vn -0.707100 0.707113 0.000000
vn 0.000000 0.707116 -0.707098
vn 0.000000 0.707116 -0.707098
vn 0.000000 0.707116 -0.707098
vn 0.000000 0.707116 -0.707098
vn -0.707106 -0.707107 0.000000
vn -0.707106 -0.707107 0.000000
vn -0.707106 -0.707107 0.000000
vn -0.707106 -0.707107 0.000000
vn 0.000000 -0.707102 -0.707112
vn 0.000000 -0.707102 -0.707112
vn 0.000000 -0.707102 -0.707112
vn 0.000000 -0.707102 -0.707112
vn 0.707106 -0.707107 0.000000
vn 0.707106 -0.707107 0.000000
vn 0.707106 -0.707107 0.000000
vn 0.707106 -0.707107 0.000000
vn 0.707100 0.707113 0.000000
vn 0.707100 0.707113 0.000000
vn 0.707100 0.707113 0.000000
vn 0.707100 0.707113 0.000000
vn -0.707099 0.707114 0.000000
vn -0.707099 0.707114 0.000000
vn -0.707099 0.707114 0.000000
vn -0.707099 0.707114 0.000000
vn 0.000000 0.707109 0.707105
vn 0.000000 0.707109 0.707105
vn 0.000000 0.707109 0.707105
vn 0.000000 0.707109 0.707105
vn 0.707099 0.707114 0.000000
vn 0.707099 0.707114 0.000000
vn 0.707099 0.707114 0.000000
vn 0.707099 0.707114 0.000000
vn 0.000000 1.000000 0.000001
vn 0.000000 1.000000 0.000000
vn 0.000000 1.000000 0.000000
vn 0.000000 1.000000 0.000001
vn 1.000000 0.000000 0.000000
vn 1.000000 0.000000 0.000000
vn 1.000000 0.000000 0.000000
vn 1.000000 0.000000 0.000000
vn -1.000000 0.000000 0.000000
vn -1.000000 0.000000 0.000000
vn -1.000000 0.000000 0.000000
vn -1.000000 0.000000 0.000000
vn 0.000000 -1.000000 0.000000
vn 0.000000 -1.000000 0.000000
vn 0.000000 -1.000000 0.000000
vn 0.000000 -1.000000 0.000000
vn 0.000000 0.000000 -1.000000
vn 0.000000 0.000000 -1.000000
vn 0.000000 0.000000 -1.000000
vn 0.000000 0.000000 -1.000000
vn 0.000000 1.000000 0.000001
vn 0.000000 1.000000 0.000001
vn 0.000000 1.000000 0.000000
vn 0.000000 1.000000 0.000000
vn -1.000000 0.000000 0.000000
vn -1.000000 0.000000 0.000000
vn -1.000000 0.000000 0.000000
vn -1.000000 0.000000 0.000000
vn 0.000000 0.000000 1.000000
vn 0.000000 0.000000 1.000000
vn 0.000000 0.000000 1.000000
vn 0.000000 0.000000 1.000000
vn 1.000000 0.000000 0.000000
vn 1.000000 0.000000 0.000000
vn 1.000000 0.000000 0.000000
vn 1.000000 0.000000 0.000000
vn 0.000000 0.000000 -1.000000
vn 0.000000 0.000000 -1.000000
vn 0.000000 0.000000 -1.000000
vn 0.000000 0.000000 -1.000000
vn 0.000000 -0.707112 0.707102
vn 0.000000 -0.707112 0.707102
vn 0.000000 -0.707112 0.707102
vn 0.000000 -0.707112 0.707102
vn -0.707111 0.000000 0.707103
vn -0.707111 0.000000 0.707103
vn -0.707111 0.000000 0.707102
vn -0.707111 0.000000 0.707102
vn 0.707111 0.000000 0.707103
vn 0.707111 0.000000 0.707103
vn 0.707111 0.000000 0.707102
vn 0.707111 0.000000 0.707102
vn 0.000000 0.707112 0.707102
vn 0.000000 0.707112 0.707102
vn 0.000000 0.707112 0.707102
vn 0.000000 0.707112 0.707102
vn 0.000000 0.000000 1.000000
vn 0.000000 0.000000 1.000000
vn 0.000000 0.000000 1.000000
vn 0.000000 0.000000 1.000000
vn 0.000000 1.000000 0.000000
vn 0.000000 1.000000 0.000000
vn 0.000000 1.000000 0.000000
vn 0.000000 1.000000 0.000000
vn 0.000000 -1.000000 0.000000
vn 0.000000 -1.000000 0.000000
vn 0.000000 -1.000000 0.000000
vn 0.000000 -1.000000 0.000000
vn 1.000000 0.000000 0.000000
vn 1.000000 0.000000 0.000000
vn 1.000000 0.000000 0.000000
vn 1.000000 0.000000 0.000000
vn -1.000000 0.000000 0.000000
vn -1.000000 0.000000 0.000000
vn -1.000000 0.000000 0.000000
vn -1.000000 0.000000 0.000000
f 1/1/1 2/2/2 3/3/3 4/4/4
f 6/5/5 5/6/6 8/7/7 7/30/8
f 7/8/9 8/37/10 20/25/11 19/36/12
f 10/9/13 9/29/14 12/10/15 11/11/16
f 11/34/17 12/35/18 15/12/19 16/31/20
f 14/13/21 13/14/22 16/15/23 15/28/24
f 18/16/25 17/17/26 19/18/27 20/25/28
f 21/38/29 22/19/30 26/20/31 25/24/32
f 22/19/33 21/38/34 23/40/35 24/21/36
f 24/21/37 23/40/38 28/22/39 27/23/40
f 21/38/41 25/24/42 18/16/43 20/25/44
f 19/26/45 17/27/46 14/13/47 15/28/48
f 12/10/49 9/29/50 6/5/51 7/30/52
f 16/31/53 13/32/54 10/33/55 11/34/56
f 12/35/57 7/8/58 19/36/59 15/12/60
f 8/37/61 23/40/62 21/38/41 20/25/44
f 8/37/61 5/39/63 28/22/64 23/40/62
f 26/41/65 22/42/66 3/45/67 2/43/68
f 22/42/69 24/44/70 4/48/71 3/45/72
f 24/44/73 27/46/74 1/47/75 4/48/76
f 29/49/77 30/50/78 32/51/79 31/52/80
f 33/53/81 34/54/82 36/55/83 35/56/84
f 34/54/85 33/53/86 37/57/87 38/58/88
f 35/56/89 36/55/90 40/59/91 39/60/92
f 38/58/93 37/57/94 39/60/95 40/59/96
f 33/53/97 35/56/98 39/60/99 37/57/100
f 38/58/101 40/61/102 30/50/103 29/49/104
f 31/52/105 32/51/106 36/62/107 34/63/108
f 36/55/109 32/64/110 30/65/111 40/59/112
f 31/66/113 34/54/114 38/67/115 29/68/116
