# This file uses meters as units for non-parametric coordinates.

v -56.020130 0.528084 25.724989
v -55.492046 0.000000 25.724989
v -55.492046 0.528084 26.253073
v 55.492046 0.000000 25.724989
v 56.020130 0.528084 25.724989
v 55.492046 0.528084 26.253073
v -55.492046 0.000000 -25.664286
v -56.020130 0.528084 -25.664286
v -55.492046 0.528084 -26.192369
v 56.020130 0.528084 -25.664286
v 55.492046 0.000000 -25.664286
v 55.492046 0.528084 -26.192369
v -56.020130 5.767456 25.724989
v -55.492046 5.767456 26.253073
v 55.492046 5.767456 26.253073
v 56.020130 5.767456 25.724989
v -55.492046 5.767456 -26.192369
v -56.020130 5.767456 -25.664286
v 56.020130 5.767456 -25.664286
v 55.492046 5.767456 -26.192369
v 57.108879 10.002155 -27.146353
v -57.108879 10.002155 -27.146353
v -60.755615 6.169913 31.282925
v -61.138588 6.160413 30.889969
v -60.745628 5.767457 30.889969
v 60.755615 6.169913 31.282925
v 60.745628 5.767457 30.889969
v 61.138588 6.160413 30.889969
v -60.735657 49.481857 -30.900476
v -60.745628 49.088902 -31.282925
v -61.138588 49.088902 -30.889969
v 60.735657 49.481857 -30.900476
v 61.138588 49.088902 -30.889969
v 60.745628 49.088902 -31.282925
v -60.745628 5.767457 -30.889969
v -61.138588 6.160413 -30.889969
v -60.745628 6.160413 -31.282925
v 61.138588 6.160413 -30.889969
v 60.745628 5.767457 -30.889969
v 60.745628 6.160413 -31.282925
v -60.745628 49.088902 31.282925
v -60.745628 49.481857 30.889969
v -61.138588 49.088902 30.889969
v 60.745628 49.481857 30.889969
v 60.745628 49.088902 31.282925
v 61.138588 49.088902 30.889969
v -57.108879 49.088913 -27.454988
v -57.501831 49.481857 -27.851009
v 57.501831 49.481857 -27.851009
v 57.108879 49.088913 -27.454988
v 57.108879 10.002159 30.889969
v 57.501831 9.609202 31.282925
v -57.501831 9.609202 31.282925
v -57.108879 10.002159 30.889969
v 57.108879 49.088902 30.889969
v 57.501831 49.088902 31.282925
v 57.501831 49.481857 30.889969
v -57.108879 49.088902 30.889969
v -57.501831 49.481857 30.889969
v -57.501831 49.088902 31.282925
v -61.138588 49.931389 30.833387
v -60.689049 49.481853 30.833387
v -60.689049 49.931389 31.282925
v 60.689049 49.481853 30.833387
v 61.138588 49.931389 30.833387
v 60.689049 49.931389 31.282925
v -60.689049 53.977669 30.833387
v -61.138588 53.528133 30.833387
v -60.689049 53.528133 31.282925
v 61.138588 53.528133 30.833387
v 60.689049 53.977669 30.833387
v 60.689049 53.528133 31.282925
v -60.689049 53.528133 -31.282925
v -61.138588 53.528133 -30.833387
v -60.689049 53.977669 -30.833387
v 61.138588 53.528133 -30.833387
v 60.689049 53.528133 -31.282925
v 60.689049 53.977669 -30.833387
v -60.689049 49.481853 -30.833387
v -61.138588 49.931389 -30.833387
v -60.689049 49.931389 -31.282925
v 61.138588 49.931389 -30.833387
v 60.689049 49.481853 -30.833387
v 60.689049 49.931389 -31.282925
vt 0.617892 0.509934
vt 0.617892 0.618004
vt 0.617381 0.618004
vt 0.617381 0.519696
vt 0.510471 0.618003
vt 0.510471 0.519696
vt 0.510471 0.618003
vt 0.509960 0.508774
vt 0.509960 0.509934
vt 0.509311 0.509934
vt 0.509311 0.616844
vt 0.510471 0.519696
vt 0.509960 0.618004
vt 0.618541 0.509934
vt 0.618541 0.616844
vt 0.617892 0.519696
vt 0.617381 0.618004
vt 0.509311 0.508774
vt 0.509960 0.616844
vt 0.618541 0.607082
vt 0.617892 0.508774
vt 0.618541 0.508774
vt 0.509960 0.508774
vt 0.509960 0.519696
vt 0.617892 0.508774
vt 0.617381 0.519696
vt 0.509311 0.607082
vt 0.509960 0.607082
vt 0.617892 0.616844
vt 0.617892 0.607082
vt 0.509997 0.617032
vt 0.617855 0.617032
vt 0.617855 0.509745
vt 0.509997 0.509745
vt 0.509740 0.617317
vt 0.618112 0.617317
vt 0.618112 0.509460
vt 0.509741 0.509460
vt 0.509997 0.509745
vt 0.509997 0.617032
vt 0.617855 0.617032
vt 0.617855 0.509745
vt 0.618112 0.509745
vt 0.618112 0.617032
vt 0.509741 0.617032
vt 0.509741 0.509745
vt 0.510181 0.511600
vt 0.510586 0.511622
vt 0.510596 0.610450
vt 0.510181 0.610450
vt 0.509311 0.509460
vt 0.509311 0.617317
vt 0.510596 0.510695
vt 0.615443 0.510695
vt 0.615454 0.511622
vt 0.618541 0.509460
vt 0.618541 0.617317
vt 0.615858 0.511600
vt 0.615858 0.610450
vt 0.615443 0.610450
vt 0.509751 0.508774
vt 0.618101 0.508774
vt 0.509311 0.509745
vt 0.509311 0.617032
vt 0.617873 0.618004
vt 0.509997 0.618004
vt 0.509979 0.618004
vt 0.617855 0.618004
vt 0.618541 0.509745
vt 0.618541 0.617032
vt 0.510596 0.611355
vt 0.514024 0.610450
vt 0.514024 0.611355
vt 0.615443 0.611355
vt 0.612015 0.611355
vt 0.612015 0.610450
vt 0.618541 0.616930
vt 0.618541 0.618004
vt 0.510042 0.618004
vt 0.510046 0.616930
vt 0.509335 0.508774
vt 0.509311 0.509848
vt 0.618541 0.509848
vt 0.618516 0.508774
vt 0.509311 0.618004
vt 0.509311 0.616930
vt 0.617806 0.616930
vt 0.617810 0.618004
vt 0.611600 0.520446
vt 0.612015 0.519542
vt 0.611600 0.610450
vt 0.514439 0.520446
vt 0.514024 0.519542
vt 0.514439 0.610450
vt 0.509311 0.618004
vt 0.618541 0.618004
vt 0.509311 0.509509
vt 0.618541 0.509509
vt 0.617806 0.508774
vt 0.509311 0.508774
vt 0.618541 0.508774
vt 0.510046 0.508774
vt 0.618541 0.508774
vt 0.509311 0.508774
vt 0.618541 0.618004
vt 0.510042 0.618004
vt 0.617810 0.618004
vt 0.509313 0.618004
vt 0.509802 0.617219
vt 0.618050 0.617219
vt 0.618050 0.509559
vt 0.509802 0.509559
vt 0.618050 0.519696
vt 0.618050 0.607082
vt 0.509802 0.607082
vt 0.509802 0.519696
vt 0.510096 0.607082
vt 0.617756 0.607082
vt 0.617756 0.519696
vt 0.510096 0.519696
vt 0.510096 0.519696
vt 0.510096 0.607082
vt 0.617756 0.607082
vt 0.617756 0.519696
vt 0.618050 0.617219
vt 0.618050 0.509559
vt 0.509802 0.509559
vt 0.509802 0.617219
vt 0.618050 0.519696
vt 0.618050 0.607082
vt 0.509802 0.607082
vt 0.509802 0.519696
vt 0.509311 0.509559
vt 0.509311 0.617219
vt 0.509802 0.508774
vt 0.618050 0.508774
vt 0.618541 0.509559
vt 0.618541 0.617219
vt 0.509311 0.617219
vt 0.509311 0.509559
vt 0.618541 0.617219
vt 0.618541 0.509559
vt 0.509311 0.519696
vt 0.509311 0.607082
vt 0.618541 0.519696
vt 0.618541 0.607082
vn 0.000000 -1.000000 0.000000
vn 0.000000 -1.000000 0.000000
vn 0.000000 -1.000000 0.000000
vn 0.000000 -1.000000 0.000000
vn 0.000000 0.000000 1.000000
vn 0.000000 0.000000 1.000000
vn 0.000000 0.000000 1.000000
vn 0.000000 0.000000 1.000000
vn -1.000000 0.000000 0.000000
vn -1.000000 0.000000 0.000000
vn -1.000000 0.000000 0.000000
vn -1.000000 0.000000 0.000000
vn 1.000000 0.000000 0.000000
vn 1.000000 0.000000 0.000000
vn 1.000000 0.000000 0.000000
vn 1.000000 0.000000 0.000000
vn 0.000000 0.000000 -1.000000
vn 0.000000 0.000000 -1.000000
vn 0.000000 0.000000 -1.000000
vn 0.000000 0.000000 -1.000000
vn -0.707108 -0.707105 0.000000
vn -0.707108 -0.707105 0.000000
vn -0.707108 -0.707105 0.000000
vn -0.707108 -0.707105 0.000000
vn 0.000000 -0.707107 0.707106
vn 0.000000 -0.707107 0.707106
vn 0.000000 -0.707107 0.707106
vn 0.000000 -0.707107 0.707106
vn -0.707107 0.000000 0.707106
vn -0.707107 0.000000 0.707106
vn -0.707107 0.000000 0.707106
vn -0.707107 0.000000 0.707106
vn 0.707108 -0.707105 0.000000
vn 0.707108 -0.707105 0.000000
vn 0.707108 -0.707105 0.000000
vn 0.707108 -0.707105 0.000000
vn 0.707107 0.000000 0.707106
vn 0.707107 0.000000 0.707106
vn 0.707107 0.000000 0.707106
vn 0.707107 0.000000 0.707106
vn -0.707105 0.000000 -0.707108
vn -0.707105 0.000000 -0.707108
vn -0.707105 0.000000 -0.707108
vn -0.707105 0.000000 -0.707108
vn 0.000000 -0.707107 -0.707106
vn 0.000000 -0.707107 -0.707106
vn 0.000000 -0.707107 -0.707106
vn 0.000000 -0.707107 -0.707106
vn 0.707105 0.000000 -0.707108
vn 0.707105 0.000000 -0.707108
vn 0.707105 0.000000 -0.707108
vn 0.707105 0.000000 -0.707108
vn -0.577349 -0.577352 0.577350
vn -0.577348 -0.577352 0.577350
vn -0.577349 -0.577352 0.577350
vn 0.577348 -0.577352 0.577350
vn 0.577349 -0.577352 0.577350
vn 0.577349 -0.577352 0.577350
vn -0.577348 -0.577352 -0.577350
vn -0.577349 -0.577352 -0.577350
vn -0.577349 -0.577352 -0.577350
vn 0.577349 -0.577352 -0.577350
vn 0.577348 -0.577352 -0.577350
vn 0.577349 -0.577352 -0.577350
vn -1.000000 0.000000 0.000000
vn -1.000000 0.000000 0.000000
vn -1.000000 0.000000 0.000000
vn -1.000000 0.000000 0.000000
vn 0.000000 -1.000000 0.000000
vn 0.000000 -1.000000 0.000000
vn 0.000000 -1.000000 0.000000
vn 0.000000 -1.000000 0.000000
vn 1.000000 0.000000 0.000000
vn 1.000000 0.000000 0.000000
vn 1.000000 0.000000 0.000000
vn 1.000000 0.000000 0.000000
vn 0.000000 0.000000 -1.000000
vn 0.000000 0.000000 -1.000000
vn 0.000000 0.000000 -1.000000
vn 0.000000 0.000000 -1.000000
vn -0.711609 0.000083 0.702575
vn -0.711609 0.000083 0.702575
vn -0.711609 0.000083 0.702575
vn -0.711609 0.000083 0.702575
vn -0.707103 -0.707111 0.000000
vn -0.707103 -0.707111 0.000000
vn -0.707103 -0.707111 0.000000
vn -0.707103 -0.707111 0.000000
vn 0.000000 -0.698612 0.715501
vn 0.000000 -0.698612 0.715501
vn 0.000000 -0.698612 0.715501
vn 0.000000 -0.698612 0.715501
vn 0.707103 -0.707111 0.000000
vn 0.707103 -0.707111 0.000000
vn 0.707103 -0.707111 0.000000
vn 0.707103 -0.707111 0.000000
vn 0.711609 0.000083 0.702575
vn 0.711609 0.000083 0.702575
vn 0.711609 0.000083 0.702575
vn 0.711609 0.000083 0.702575
vn 0.000000 0.697468 -0.716616
vn 0.000000 0.697468 -0.716616
vn 0.000000 0.697468 -0.716616
vn 0.000000 0.697468 -0.716616
vn -0.707104 0.000000 -0.707110
vn -0.707104 0.000000 -0.707110
vn -0.707104 0.000000 -0.707110
vn -0.707104 0.000000 -0.707110
vn -0.702628 0.711558 -0.000057
vn -0.702628 0.711558 -0.000057
vn -0.702628 0.711558 -0.000057
vn -0.702628 0.711558 -0.000057
vn 0.702628 0.711558 -0.000057
vn 0.702628 0.711558 -0.000057
vn 0.702628 0.711558 -0.000057
vn 0.702628 0.711558 -0.000057
vn 0.707104 0.000000 -0.707110
vn 0.707104 0.000000 -0.707110
vn 0.707104 0.000000 -0.707110
vn 0.707104 0.000000 -0.707110
vn 0.000000 -0.707106 -0.707107
vn 0.000000 -0.707106 -0.707107
vn 0.000000 -0.707106 -0.707107
vn 0.000000 -0.707106 -0.707107
vn 0.000000 0.707110 0.707104
vn 0.000000 0.707110 0.707104
vn 0.000000 0.707110 0.707104
vn 0.000000 0.707110 0.707104
vn 0.000000 0.707110 0.707104
vn 0.000000 0.707110 0.707104
vn 0.000000 0.707110 0.707104
vn 0.000000 0.707110 0.707104
vn 0.707100 0.707113 0.000000
vn 0.707100 0.707113 0.000000
vn 0.707100 0.707113 0.000000
vn 0.707100 0.707113 0.000000
vn 0.000000 0.709859 0.704344
vn 0.000000 0.709859 0.704344
vn 0.000000 0.709859 0.704344
vn 0.000000 0.709859 0.704344
vn -0.707100 0.707113 0.000000
vn -0.707100 0.707113 0.000000
vn -0.707100 0.707113 0.000000
vn -0.707100 0.707113 0.000000
vn -0.707109 0.000000 0.707104
vn -0.707109 0.000000 0.707104
vn -0.707109 0.000000 0.707104
vn -0.707109 0.000000 0.707104
vn 0.000000 0.707106 0.707107
vn 0.000000 0.707106 0.707107
vn 0.000000 0.707106 0.707107
vn 0.000000 0.707106 0.707107
vn 0.707109 0.000000 0.707104
vn 0.707109 0.000000 0.707104
vn 0.707109 0.000000 0.707104
vn 0.707109 0.000000 0.707104
vn 0.000000 0.007896 0.999969
vn 0.000000 0.007896 0.999969
vn 0.000000 0.007896 0.999969
vn 0.000000 0.007896 0.999969
vn 0.000000 1.000000 -0.000000
vn 0.000000 1.000000 -0.000000
vn 0.000000 1.000000 -0.000000
vn 0.000000 1.000000 -0.000000
vn -1.000000 -0.000000 0.000000
vn -1.000000 -0.000000 0.000000
vn -1.000000 -0.000000 0.000000
vn -1.000000 -0.000000 0.000000
vn 1.000000 -0.000000 0.000000
vn 1.000000 -0.000000 0.000000
vn 1.000000 -0.000000 0.000000
vn 1.000000 -0.000000 0.000000
vn 0.000000 1.000000 -0.000000
vn 0.000000 1.000000 -0.000000
vn 0.000000 1.000000 -0.000000
vn 0.000000 1.000000 -0.000000
vn 0.000000 0.000000 1.000000
vn -0.000000 0.000000 1.000000
vn -0.000000 0.000000 1.000000
vn 0.000000 0.000000 1.000000
vn -0.000000 0.000000 1.000000
vn -0.000000 0.000000 1.000000
vn 0.000000 1.000000 0.000000
vn 0.000000 1.000000 0.000000
vn 0.000000 0.000000 1.000000
vn 0.000000 0.000000 1.000000
vn 0.000000 1.000000 0.000000
vn 0.000000 1.000000 0.000000
vn -0.577588 -0.577588 0.576875
vn -0.577588 -0.577588 0.576875
vn -0.577588 -0.577588 0.576875
vn 0.577588 -0.577588 0.576875
vn 0.577588 -0.577588 0.576875
vn 0.577588 -0.577588 0.576875
vn -0.577610 0.576831 -0.577610
vn -0.577610 0.576831 -0.577610
vn -0.577610 0.576831 -0.577610
vn 0.577612 0.576827 -0.577612
vn 0.577612 0.576827 -0.577612
vn 0.577612 0.576827 -0.577612
vn -0.577349 -0.577349 -0.577353
vn -0.577349 -0.577349 -0.577353
vn -0.577349 -0.577349 -0.577353
vn 0.577349 -0.577349 -0.577353
vn 0.577349 -0.577349 -0.577353
vn 0.577349 -0.577349 -0.577353
vn -0.577350 0.577350 0.577350
vn -0.577350 0.577350 0.577350
vn -0.577350 0.577350 0.577350
vn 0.577350 0.577350 0.577350
vn 0.577350 0.577350 0.577350
vn 0.577350 0.577350 0.577350
vn -0.577360 0.577346 0.577346
vn -0.577360 0.577345 0.577345
vn -0.577360 0.577345 0.577345
vn 0.577360 0.577346 0.577346
vn 0.577360 0.577345 0.577345
vn 0.577360 0.577345 0.577345
vn 0.000000 -1.000000 0.000000
vn 0.000000 -1.000000 0.000000
vn 0.000000 -1.000000 0.000000
vn 0.000000 -1.000000 0.000000
vn 0.000000 0.000000 1.000000
vn 0.000000 0.000000 1.000000
vn 0.000000 0.000000 1.000000
vn 0.000000 0.000000 1.000000
vn -1.000000 0.000000 0.000000
vn -1.000000 0.000000 0.000000
vn -1.000000 0.000000 0.000000
vn -1.000000 0.000000 0.000000
vn 1.000000 0.000000 0.000000
vn 1.000000 0.000000 0.000000
vn 1.000000 0.000000 0.000000
vn 1.000000 0.000000 0.000000
vn 0.000000 1.000000 0.000000
vn 0.000000 1.000000 0.000000
vn 0.000000 1.000000 0.000000
vn 0.000000 1.000000 0.000000
vn 0.000000 0.000000 -1.000000
vn 0.000000 0.000000 -1.000000
vn 0.000000 0.000000 -1.000000
vn 0.000000 0.000000 -1.000000
vn -0.707103 -0.707110 0.000000
vn -0.707103 -0.707110 0.000000
vn -0.707103 -0.707110 0.000000
vn -0.707103 -0.707110 0.000000
vn 0.000000 -0.707107 0.707107
vn 0.000000 -0.707107 0.707107
vn 0.000000 -0.707107 0.707107
vn 0.000000 -0.707107 0.707107
vn -0.707104 0.000000 0.707109
vn -0.707104 0.000000 0.707109
vn -0.707104 0.000000 0.707109
vn -0.707104 0.000000 0.707109
vn 0.707103 -0.707110 0.000000
vn 0.707103 -0.707110 0.000000
vn 0.707103 -0.707110 0.000000
vn 0.707103 -0.707110 0.000000
vn 0.707104 0.000000 0.707109
vn 0.707104 0.000000 0.707109
vn 0.707104 0.000000 0.707109
vn 0.707104 0.000000 0.707109
vn -0.707103 0.707110 0.000000
vn -0.707103 0.707110 0.000000
vn -0.707103 0.707110 0.000000
vn -0.707103 0.707110 0.000000
vn 0.000000 0.707110 0.707104
vn 0.000000 0.707110 0.707104
vn 0.000000 0.707110 0.707104
vn 0.000000 0.707110 0.707104
vn 0.707103 0.707110 0.000000
vn 0.707103 0.707110 0.000000
vn 0.707103 0.707110 0.000000
vn 0.707103 0.707110 0.000000
vn -0.707104 0.000000 -0.707109
vn -0.707104 0.000000 -0.707109
vn -0.707104 0.000000 -0.707109
vn -0.707104 0.000000 -0.707109
vn 0.000000 0.707110 -0.707104
vn 0.000000 0.707110 -0.707104
vn 0.000000 0.707110 -0.707104
vn 0.000000 0.707110 -0.707104
vn 0.707104 0.000000 -0.707109
vn 0.707104 0.000000 -0.707109
vn 0.707104 0.000000 -0.707109
vn 0.707104 0.000000 -0.707109
vn 0.000000 -0.707107 -0.707107
vn 0.000000 -0.707107 -0.707107
vn 0.000000 -0.707107 -0.707107
vn 0.000000 -0.707107 -0.707107
vn -0.577350 -0.577350 0.577350
vn -0.577350 -0.577350 0.577350
vn -0.577350 -0.577350 0.577350
vn 0.577350 -0.577350 0.577350
vn 0.577350 -0.577350 0.577350
vn 0.577350 -0.577350 0.577350
vn -0.577354 0.577354 0.577343
vn -0.577354 0.577354 0.577343
vn -0.577354 0.577354 0.577343
vn 0.577354 0.577354 0.577343
vn 0.577354 0.577354 0.577343
vn 0.577354 0.577354 0.577343
vn -0.577354 0.577354 -0.577343
vn -0.577354 0.577354 -0.577343
vn -0.577354 0.577354 -0.577343
vn 0.577354 0.577354 -0.577343
vn 0.577354 0.577354 -0.577343
vn 0.577354 0.577354 -0.577343
vn -0.577350 -0.577350 -0.577350
vn -0.577350 -0.577350 -0.577350
vn -0.577350 -0.577350 -0.577350
vn 0.577350 -0.577350 -0.577350
vn 0.577350 -0.577350 -0.577350
vn 0.577350 -0.577350 -0.577350
f 7/19/1 11/29/2 4/1/3 2/9/4
f 14/13/5 3/24/6 6/16/7 15/2/8
f 18/3/9 8/4/10 1/12/11 13/5/12
f 16/17/13 5/26/14 10/6/15 19/7/16
f 20/21/17 12/30/18 9/28/19 17/8/20
f 2/9/21 1/10/22 8/11/23 7/19/24
f 3/24/25 2/23/26 4/25/27 6/16/28
f 1/12/29 3/24/30 14/13/31 13/5/32
f 5/14/33 4/1/34 11/29/35 10/15/36
f 6/16/37 5/26/38 16/17/39 15/2/40
f 9/28/41 8/27/42 18/18/43 17/8/44
f 7/19/45 9/28/46 12/30/47 11/29/48
f 10/20/49 12/30/50 20/21/51 19/22/52
f 1/12/53 2/23/54 3/24/55
f 4/25/56 5/26/57 6/16/58
f 7/19/59 8/27/60 9/28/61
f 10/20/62 11/29/63 12/30/64
f 43/31/65 31/32/66 36/33/67 24/34/68
f 35/35/69 39/36/70 27/37/71 25/38/72
f 38/39/73 33/40/74 46/41/75 28/42/76
f 34/43/77 40/44/78 37/45/79 30/46/80
f 24/47/81 23/48/82 41/49/83 43/50/84
f 25/38/85 24/51/86 36/52/87 35/35/88
f 23/48/89 25/53/90 27/54/91 26/55/92
f 28/56/93 27/37/94 39/36/95 38/57/96
f 26/55/97 28/58/98 46/59/99 45/60/100
f 30/46/101 29/61/102 32/62/103 34/43/104
f 31/63/105 30/46/106 37/45/107 36/64/108
f 29/65/109 31/32/110 43/31/111 42/66/112
f 33/40/113 32/67/114 44/68/115 46/41/116
f 34/43/117 33/69/118 38/70/119 40/44/120
f 35/35/121 37/45/122 40/44/123 39/36/124
f 42/71/125 41/49/126 60/72/127 59/73/128
f 45/60/129 44/74/130 57/75/131 56/76/132
f 47/77/133 48/78/134 59/79/135 58/80/136
f 48/81/137 47/82/138 50/83/139 49/84/140
f 49/85/141 50/86/142 55/87/143 57/88/144
f 51/89/145 52/90/146 56/76/147 55/91/148
f 52/90/149 51/89/150 54/92/151 53/93/152
f 53/93/153 54/92/154 58/94/155 60/72/156
f 47/82/157 22/95/158 21/96/159 50/83/160
f 22/95/161 54/97/162 51/98/163 21/96/164
f 51/99/165 55/87/166 50/86/167 21/100/168
f 22/101/169 47/77/170 58/80/171 54/102/172
f 32/103/173 29/104/174 48/81/175 49/84/176
f 23/48/177 26/55/178 52/90/179 53/93/180
f 26/55/178 45/60/181 56/76/182 52/90/179
f 29/105/174 42/106/183 59/79/184 48/78/175
f 53/93/180 60/72/185 41/49/186 23/48/177
f 49/85/176 57/88/187 44/107/188 32/108/173
f 23/48/189 24/47/190 25/53/191
f 26/55/192 27/54/193 28/58/194
f 29/61/195 30/46/196 31/63/197
f 32/62/198 33/69/199 34/43/200
f 35/35/201 36/64/202 37/45/203
f 38/70/204 39/36/205 40/44/206
f 41/49/207 42/71/208 43/50/209
f 44/74/210 45/60/211 46/59/212
f 55/91/213 56/76/214 57/75/215
f 58/94/216 59/73/217 60/72/218
f 79/109/219 83/110/220 64/111/221 62/112/222
f 66/113/223 72/114/224 69/115/225 63/116/226
f 68/117/227 74/118/228 80/119/229 61/120/230
f 82/121/231 76/122/232 70/123/233 65/124/234
f 71/125/235 78/126/236 75/127/237 67/128/238
f 77/129/239 84/130/240 81/131/241 73/132/242
f 62/112/243 61/133/244 80/134/245 79/109/246
f 63/116/247 62/135/248 64/136/249 66/113/250
f 61/120/251 63/116/252 69/115/253 68/117/254
f 65/137/255 64/111/256 83/110/257 82/138/258
f 66/113/259 65/124/260 70/123/261 72/114/262
f 68/139/263 67/128/264 75/127/265 74/140/266
f 67/128/267 69/115/268 72/114/269 71/125/270
f 71/125/271 70/141/272 76/142/273 78/126/274
f 74/143/275 73/132/276 81/131/277 80/144/278
f 73/132/279 75/127/280 78/126/281 77/129/282
f 77/129/283 76/145/284 82/146/285 84/130/286
f 79/109/287 81/131/288 84/130/289 83/110/290
f 61/120/291 62/135/292 63/116/293
f 64/136/294 65/124/295 66/113/296
f 67/128/297 68/117/298 69/115/299
f 70/123/300 71/125/301 72/114/302
f 73/132/303 74/140/304 75/127/305
f 76/142/306 77/129/307 78/126/308
f 79/109/309 80/144/310 81/131/311
f 82/146/312 83/110/313 84/130/314
