# This file uses meters as units for non-parametric coordinates.

v -37.831528 67.079041 22.691061
v 37.831528 67.079041 22.691061
v 37.831528 67.079041 -15.340696
v -37.831528 67.079041 -15.340696
v -39.886841 84.404015 22.691061
v -40.115185 84.175674 22.691061
v -40.115185 84.175674 -18.067272
v -39.886841 84.404015 -17.838930
v -40.115185 63.972889 22.691061
v -39.886841 63.744545 22.691061
v -39.886841 63.744545 -17.838930
v -40.115185 63.972889 -18.067272
v 39.886841 63.744545 22.691061
v 40.115185 63.972889 22.691061
v 40.115185 63.972889 -18.067272
v 39.886841 63.744545 -17.838930
v 40.115185 84.175674 22.691061
v 39.886841 84.404015 22.691061
v 40.115185 84.175674 -18.067272
v 39.886841 84.404015 -17.838930
v 38.059872 84.404015 -15.569038
v 37.831528 84.175674 -15.340696
v -38.059872 84.404015 -15.569038
v -37.831528 84.175674 -15.340696
v 38.059872 84.404015 22.691061
v 37.831528 84.175674 22.691061
v -37.831528 84.175674 22.691061
v -38.059872 84.404015 22.691061
v -41.635319 84.849686 22.691063
v 41.635319 84.849686 22.691063
v -41.635319 63.744549 22.691063
v 41.635319 63.744549 22.691063
v -41.189651 64.190216 25.662487
v -41.635319 63.744549 25.216818
v 41.189651 64.190216 25.662487
v 41.635319 63.744549 25.216818
v -41.189651 84.404015 25.662487
v -41.635319 84.849686 25.216818
v 41.189651 84.404015 25.662487
v 41.635319 84.849686 25.216818
vt 0.413361 0.808527
vt 0.430008 0.808527
vt 0.430008 0.792051
vt 0.413361 0.792051
vt 0.412963 0.808334
vt 0.412963 0.808527
vt 0.430326 0.808527
vt 0.412963 0.791276
vt 0.412963 0.791083
vt 0.430407 0.791276
vt 0.430326 0.791083
vt 0.430407 0.808334
vt 0.430407 0.791276
vt 0.430407 0.791083
vt 0.413044 0.791083
vt 0.430367 0.808527
vt 0.430407 0.808527
vt 0.430407 0.791083
vt 0.430008 0.792051
vt 0.430008 0.808527
vt 0.413361 0.792051
vt 0.413321 0.808527
vt 0.413361 0.808527
vt 0.430048 0.808527
vt 0.430367 0.791164
vt 0.412963 0.808334
vt 0.430407 0.808334
vt 0.412963 0.791276
vt 0.412963 0.791276
vt 0.430407 0.808334
vt 0.430367 0.808446
vt 0.430367 0.791083
vt 0.413003 0.791083
vt 0.413003 0.808446
vt 0.412963 0.808334
vt 0.430407 0.791276
vt 0.413002 0.791164
vt 0.430048 0.791970
vt 0.413003 0.808527
vt 0.413321 0.791970
vt 0.430030 0.791911
vt 0.413335 0.791911
vt 0.430030 0.808387
vt 0.430030 0.791911
vt 0.413335 0.808387
vt 0.413335 0.791911
vt 0.413335 0.808387
vt 0.430030 0.808387
vt 0.412963 0.791083
vt 0.430407 0.791083
vt 0.430407 0.808527
vt 0.412963 0.808527
vt 0.413038 0.791451
vt 0.415579 0.791083
vt 0.427790 0.791083
vt 0.430331 0.791451
vt 0.413038 0.808159
vt 0.412963 0.805911
vt 0.427790 0.808527
vt 0.430331 0.808159
vt 0.430407 0.805911
vt 0.430407 0.793699
vt 0.412963 0.793699
vt 0.412963 0.791083
vt 0.412963 0.808527
vt 0.430407 0.791083
vt 0.415579 0.808527
vt 0.430407 0.808527
vn 0.000000 1.000000 0.000000
vn 0.000000 1.000000 0.000000
vn 0.000000 1.000000 0.000000
vn 0.000000 1.000000 0.000000
vn -0.707104 0.707109 0.000000
vn -0.707104 0.707109 0.000000
vn -0.707104 0.707109 0.000000
vn -0.707104 0.707109 0.000000
vn 0.000000 0.707112 -0.707102
vn 0.000000 0.707112 -0.707102
vn 0.000000 0.707112 -0.707102
vn 0.000000 0.707112 -0.707102
vn -0.707110 -0.707103 0.000000
vn -0.707110 -0.707103 0.000000
vn -0.707110 -0.707103 0.000000
vn -0.707110 -0.707103 0.000000
vn 0.000000 -0.707102 -0.707111
vn 0.000000 -0.707102 -0.707111
vn 0.000000 -0.707102 -0.707111
vn 0.000000 -0.707102 -0.707111
vn 0.707110 -0.707103 0.000000
vn 0.707110 -0.707103 0.000000
vn 0.707110 -0.707103 0.000000
vn 0.707110 -0.707103 0.000000
vn 0.707104 0.707109 0.000000
vn 0.707104 0.707109 0.000000
vn 0.707104 0.707109 0.000000
vn 0.707104 0.707109 0.000000
vn -0.707094 0.707120 0.000000
vn -0.707094 0.707120 0.000000
vn -0.707094 0.707120 0.000000
vn -0.707094 0.707120 0.000000
vn 0.000000 0.707109 0.707105
vn 0.000000 0.707109 0.707105
vn 0.000000 0.707109 0.707105
vn 0.000000 0.707109 0.707105
vn 0.707094 0.707120 0.000000
vn 0.707094 0.707120 0.000000
vn 0.707094 0.707120 0.000000
vn 0.707094 0.707120 0.000000
vn 0.000000 1.000000 -0.000002
vn 0.000000 1.000000 0.000000
vn 0.000000 1.000000 0.000000
vn 0.000000 1.000000 -0.000002
vn 1.000000 0.000000 0.000000
vn 1.000000 0.000000 0.000000
vn 1.000000 0.000000 0.000000
vn 1.000000 0.000000 0.000000
vn -1.000000 0.000000 0.000000
vn -1.000000 0.000000 0.000000
vn -1.000000 0.000000 0.000000
vn -1.000000 0.000000 0.000000
vn 0.000000 -1.000000 0.000000
vn 0.000000 -1.000000 0.000000
vn 0.000000 -1.000000 0.000000
vn 0.000000 -1.000000 0.000000
vn 0.000000 0.000000 -1.000000
vn 0.000000 0.000000 -1.000000
vn 0.000000 0.000000 -1.000000
vn 0.000000 0.000000 -1.000000
vn 0.000000 1.000000 -0.000002
vn 0.000000 1.000000 -0.000002
vn 0.000000 1.000000 0.000000
vn 0.000000 1.000000 0.000000
vn -1.000000 0.000000 0.000000
vn -1.000000 0.000000 0.000000
vn -1.000000 0.000000 0.000000
vn -1.000000 0.000000 0.000000
vn 0.000000 0.000000 1.000000
vn 0.000000 0.000000 1.000000
vn 0.000000 0.000000 1.000000
vn 0.000000 0.000000 1.000000
vn 1.000000 0.000000 0.000000
vn 1.000000 0.000000 0.000000
vn 1.000000 0.000000 0.000000
vn 1.000000 0.000000 0.000000
vn 0.000000 0.000000 -1.000000
vn 0.000000 0.000000 -1.000000
vn 0.000000 0.000000 -1.000000
vn 0.000000 0.000000 -1.000000
vn 0.000000 -0.707106 0.707107
vn 0.000000 -0.707106 0.707107
vn 0.000000 -0.707106 0.707107
vn 0.000000 -0.707106 0.707107
vn -0.707108 0.000000 0.707106
vn -0.707108 0.000000 0.707106
vn -0.707108 0.000000 0.707106
vn -0.707108 0.000000 0.707106
vn 0.707108 0.000000 0.707106
vn 0.707108 0.000000 0.707106
vn 0.707108 0.000000 0.707106
vn 0.707108 0.000000 0.707106
vn 0.000000 0.707106 0.707107
vn 0.000000 0.707106 0.707107
vn 0.000000 0.707106 0.707107
vn 0.000000 0.707106 0.707107
vn 0.000000 0.000000 1.000000
vn 0.000000 0.000000 1.000000
vn 0.000000 0.000000 1.000000
vn 0.000000 0.000000 1.000000
vn 0.000000 1.000000 0.000000
vn 0.000000 1.000000 0.000000
vn 0.000000 1.000000 0.000000
vn 0.000000 1.000000 0.000000
vn 0.000000 -1.000000 0.000000
vn 0.000000 -1.000000 0.000000
vn 0.000000 -1.000000 0.000000
vn 0.000000 -1.000000 0.000000
vn 1.000000 0.000000 0.000000
vn 1.000000 0.000000 0.000000
vn 1.000000 0.000000 0.000000
vn 1.000000 0.000000 0.000000
vn -1.000000 0.000000 0.000000
vn -1.000000 0.000000 0.000000
vn -1.000000 0.000000 0.000000
vn -1.000000 0.000000 0.000000
f 1/1/1 2/2/2 3/3/3 4/4/4
f 6/5/5 5/6/6 8/7/7 7/30/8
f 7/8/9 8/37/10 20/25/11 19/36/12
f 10/9/13 9/29/14 12/10/15 11/11/16
f 11/34/17 12/35/18 15/12/19 16/31/20
f 14/13/21 13/14/22 16/15/23 15/28/24
f 18/16/25 17/17/26 19/18/27 20/25/28
f 21/38/29 22/19/30 26/20/31 25/24/32
f 22/19/33 21/38/34 23/40/35 24/21/36
f 24/21/37 23/40/38 28/22/39 27/23/40
f 21/38/41 25/24/42 18/16/43 20/25/44
f 19/26/45 17/27/46 14/13/47 15/28/48
f 12/10/49 9/29/50 6/5/51 7/30/52
f 16/31/53 13/32/54 10/33/55 11/34/56
f 12/35/57 7/8/58 19/36/59 15/12/60
f 8/37/61 23/40/62 21/38/41 20/25/44
f 8/37/61 5/39/63 28/22/64 23/40/62
f 26/41/65 22/42/66 3/45/67 2/43/68
f 22/42/69 24/44/70 4/48/71 3/45/72
f 24/44/73 27/46/74 1/47/75 4/48/76
f 29/49/77 30/50/78 32/51/79 31/52/80
f 33/53/81 34/54/82 36/55/83 35/56/84
f 34/54/85 33/53/86 37/57/87 38/58/88
f 35/56/89 36/55/90 40/59/91 39/60/92
f 38/58/93 37/57/94 39/60/95 40/59/96
f 33/53/97 35/56/98 39/60/99 37/57/100
f 38/58/101 40/61/102 30/50/103 29/49/104
f 31/52/105 32/51/106 36/62/107 34/63/108
f 36/55/109 32/64/110 30/65/111 40/59/112
f 31/66/113 34/54/114 38/67/115 29/68/116
