# This file uses meters as units for non-parametric coordinates.

v 7.794067 27.642190 35.153584
v 5.827331 27.642190 35.153584
v 7.794067 29.608926 35.153584
v 5.827331 29.608926 35.153584
v 7.794067 29.608926 31.659571
v 5.827331 29.608926 31.659571
v 7.794067 27.642190 31.659571
v 5.827331 27.642190 31.659571
v -7.794069 27.642190 35.153584
v -5.827332 27.642190 35.153584
v -7.794069 29.608926 35.153584
v -5.827332 29.608926 35.153584
v -7.794069 29.608926 31.659568
v -5.827332 29.608926 31.659568
v -7.794069 27.642190 31.659568
v -5.827332 27.642190 31.659568
v -10.381960 27.524339 34.920634
v -10.070300 27.212678 34.920634
v -10.070300 27.524339 35.232293
v 10.070300 27.212678 34.920634
v 10.381960 27.524339 34.920634
v 10.070300 27.524339 35.232293
v -10.070300 30.329591 34.920634
v -10.381960 30.017931 34.920634
v -10.070300 30.017931 35.232293
v 10.381960 30.017931 34.920634
v 10.070300 30.329591 34.920634
v 10.070300 30.017931 35.232293
v -10.070300 30.017931 33.449986
v -10.381960 30.017931 33.761645
v -10.070300 30.329591 33.761645
v 10.381960 30.017931 33.761645
v 10.070300 30.017931 33.449986
v 10.070300 30.329591 33.761645
v -10.070300 27.212678 33.761645
v -10.381960 27.524339 33.761645
v -10.070300 27.524339 33.449986
v 10.381960 27.524339 33.761645
v 10.070300 27.212678 33.761645
v 10.070300 27.524339 33.449986
v 3.356766 29.895944 37.049559
v 3.356766 29.895944 35.890570
v 3.356766 29.671007 35.578912
v 3.356766 27.871263 35.578912
v 3.356766 27.646326 35.890570
v 3.356766 27.646326 37.049559
v 3.356766 27.871263 37.361216
v 3.356766 29.671007 37.361216
v -3.356767 29.895944 37.049559
v -3.356767 29.895944 35.890570
v -3.356767 29.671007 35.578912
v -3.356767 27.871263 35.578912
v -3.356767 27.646326 35.890570
v -3.356767 27.646326 37.049559
v -3.356767 27.871263 37.361216
v -3.356767 29.671007 37.361216
vt 0.415024 0.761543
vt 0.429076 0.761543
vt 0.415024 0.775595
vt 0.429076 0.775595
vt 0.415024 0.761543
vt 0.429076 0.761543
vt 0.415024 0.775595
vt 0.429076 0.775595
vt 0.415024 0.761543
vt 0.429076 0.761543
vt 0.415024 0.761543
vt 0.415024 0.775595
vt 0.429076 0.761543
vt 0.429076 0.775595
vt 0.415024 0.775595
vt 0.429076 0.775595
vt 0.429076 0.761543
vt 0.415024 0.761543
vt 0.415024 0.775595
vt 0.429076 0.775595
vt 0.429076 0.761543
vt 0.415024 0.761543
vt 0.429076 0.761543
vt 0.415024 0.761543
vt 0.415024 0.775595
vt 0.429076 0.761543
vt 0.415024 0.761543
vt 0.429076 0.775595
vt 0.416628 0.773271
vt 0.427748 0.773271
vt 0.427748 0.764100
vt 0.416628 0.764100
vt 0.427748 0.764100
vt 0.427748 0.773271
vt 0.416628 0.773271
vt 0.416628 0.764100
vt 0.417602 0.773271
vt 0.426773 0.773271
vt 0.426773 0.764100
vt 0.417602 0.764100
vt 0.417602 0.764100
vt 0.417602 0.773271
vt 0.426773 0.773271
vt 0.426773 0.764100
vt 0.427748 0.773271
vt 0.427748 0.764100
vt 0.416628 0.764100
vt 0.416628 0.773271
vt 0.427748 0.764100
vt 0.427748 0.773271
vt 0.416628 0.773271
vt 0.416628 0.764100
vt 0.416456 0.764100
vt 0.416456 0.773271
vt 0.416628 0.762953
vt 0.427748 0.762953
vt 0.427920 0.764100
vt 0.427920 0.773271
vt 0.416456 0.773271
vt 0.416456 0.764100
vt 0.427920 0.773271
vt 0.427920 0.764100
vt 0.424041 0.773271
vt 0.424041 0.764100
vt 0.424041 0.764100
vt 0.424041 0.773271
vt 0.424041 0.773271
vt 0.424041 0.764100
vt 0.424041 0.762953
vt 0.424041 0.764100
vt 0.424041 0.773271
vt 0.420334 0.773271
vt 0.420334 0.764100
vt 0.420334 0.764100
vt 0.420334 0.773271
vt 0.420334 0.773271
vt 0.420334 0.764100
vt 0.420334 0.762953
vt 0.420334 0.764100
vt 0.420334 0.773271
vn 0.000000 1.000000 0.000000
vn 0.000000 1.000000 0.000000
vn 0.000000 1.000000 0.000000
vn 0.000000 1.000000 0.000000
vn 0.000000 -1.000000 0.000000
vn 0.000000 -1.000000 0.000000
vn 0.000000 -1.000000 0.000000
vn 0.000000 -1.000000 0.000000
vn -1.000000 0.000000 0.000000
vn -1.000000 0.000000 0.000000
vn -1.000000 0.000000 0.000000
vn -1.000000 0.000000 0.000000
vn 1.000000 0.000000 0.000000
vn 1.000000 0.000000 0.000000
vn 1.000000 0.000000 0.000000
vn 1.000000 0.000000 0.000000
vn 0.000000 1.000000 0.000000
vn 0.000000 1.000000 0.000000
vn 0.000000 1.000000 0.000000
vn 0.000000 1.000000 0.000000
vn 0.000000 -1.000000 0.000000
vn 0.000000 -1.000000 0.000000
vn 0.000000 -1.000000 0.000000
vn 0.000000 -1.000000 0.000000
vn 1.000000 0.000000 0.000000
vn 1.000000 0.000000 0.000000
vn 1.000000 0.000000 0.000000
vn 1.000000 0.000000 0.000000
vn -1.000000 0.000000 0.000000
vn -1.000000 0.000000 0.000000
vn -1.000000 0.000000 0.000000
vn -1.000000 0.000000 0.000000
vn 0.064459 -0.997920 0.000000
vn 0.035145 -0.999382 0.000000
vn 0.028793 -0.999585 0.000000
vn 0.064459 -0.997920 0.000000
vn -0.172301 0.000000 0.985044
vn -0.172301 0.000000 0.985044
vn -0.302275 0.000000 0.953221
vn -0.302275 0.000000 0.953221
vn -1.000000 0.000000 0.000000
vn -1.000000 0.000000 0.000000
vn -1.000000 0.000000 0.000000
vn -1.000000 0.000000 0.000000
vn 1.000000 0.000000 0.000000
vn 1.000000 0.000000 0.000000
vn 1.000000 0.000000 0.000000
vn 1.000000 0.000000 0.000000
vn 0.028793 0.999585 0.000000
vn 0.035145 0.999382 0.000000
vn 0.064459 0.997920 0.000000
vn 0.064459 0.997920 0.000000
vn 0.172301 0.000000 -0.985044
vn 0.172301 0.000000 -0.985044
vn 0.302275 0.000000 -0.953221
vn 0.302275 0.000000 -0.953221
vn -0.707109 -0.707105 0.000000
vn -0.707109 -0.707105 0.000000
vn -0.707109 -0.707105 0.000000
vn -0.707109 -0.707105 0.000000
vn -0.160713 -0.747999 0.643947
vn -0.160713 -0.747999 0.643947
vn -0.090607 -0.778758 0.620746
vn -0.076121 -0.784465 0.615484
vn -0.707107 0.000000 0.707107
vn -0.707107 0.000000 0.707107
vn -0.707107 0.000000 0.707107
vn -0.707107 0.000000 0.707107
vn 0.707109 -0.707105 0.000000
vn 0.707109 -0.707105 0.000000
vn 0.707109 -0.707105 0.000000
vn 0.707109 -0.707105 0.000000
vn 0.707107 0.000000 0.707107
vn 0.707107 0.000000 0.707107
vn 0.707107 0.000000 0.707107
vn 0.707107 0.000000 0.707107
vn -0.707109 0.707105 0.000000
vn -0.707109 0.707105 0.000000
vn -0.707109 0.707105 0.000000
vn -0.707109 0.707105 0.000000
vn -0.160714 0.748004 0.643941
vn -0.160714 0.748004 0.643941
vn -0.076121 0.784470 0.615477
vn -0.090607 0.778764 0.620739
vn 0.707109 0.707105 0.000000
vn 0.707109 0.707105 0.000000
vn 0.707109 0.707105 0.000000
vn 0.707109 0.707105 0.000000
vn -0.707103 0.000000 -0.707110
vn -0.707103 0.000000 -0.707110
vn -0.707103 0.000000 -0.707110
vn -0.707103 0.000000 -0.707110
vn 0.243398 0.735066 -0.632800
vn 0.243398 0.735066 -0.632800
vn 0.119941 0.780414 -0.613651
vn 0.136649 0.775125 -0.616854
vn 0.707103 0.000000 -0.707110
vn 0.707103 0.000000 -0.707110
vn 0.707103 0.000000 -0.707110
vn 0.707103 0.000000 -0.707110
vn 0.243397 -0.735060 -0.632807
vn 0.243397 -0.735060 -0.632807
vn 0.136648 -0.775119 -0.616861
vn 0.119940 -0.780409 -0.613658
vn -0.577347 -0.577345 0.577359
vn -0.577347 -0.577345 0.577359
vn -0.577348 -0.577345 0.577359
vn 0.577347 -0.577345 0.577359
vn 0.577347 -0.577345 0.577359
vn 0.577348 -0.577345 0.577359
vn -0.577355 0.577352 0.577344
vn -0.577355 0.577352 0.577344
vn -0.577355 0.577352 0.577344
vn 0.577355 0.577352 0.577344
vn 0.577355 0.577352 0.577344
vn 0.577355 0.577352 0.577344
vn -0.577355 0.577352 -0.577344
vn -0.577355 0.577352 -0.577344
vn -0.577355 0.577352 -0.577344
vn 0.577355 0.577352 -0.577344
vn 0.577355 0.577352 -0.577344
vn 0.577355 0.577352 -0.577344
vn -0.577347 -0.577345 -0.577359
vn -0.577347 -0.577345 -0.577359
vn -0.577348 -0.577345 -0.577359
vn 0.577347 -0.577345 -0.577359
vn 0.577347 -0.577345 -0.577359
vn 0.577348 -0.577345 -0.577359
vn -0.064459 0.997920 0.000000
vn -0.064459 0.997920 0.000000
vn -0.035145 0.999382 0.000000
vn -0.028793 0.999585 0.000000
vn -0.136649 0.775122 -0.616858
vn -0.119941 0.780412 -0.613654
vn -0.243397 0.735060 -0.632807
vn -0.243397 0.735060 -0.632807
vn -0.302275 0.000000 -0.953221
vn -0.302275 0.000000 -0.953221
vn -0.172301 0.000000 -0.985044
vn -0.172301 0.000000 -0.985044
vn -0.119941 -0.780409 -0.613658
vn -0.136648 -0.775119 -0.616861
vn -0.243397 -0.735060 -0.632807
vn -0.243397 -0.735060 -0.632807
vn -0.028793 -0.999585 0.000000
vn -0.035145 -0.999382 0.000000
vn -0.064459 -0.997920 0.000000
vn -0.064459 -0.997920 0.000000
vn 0.076121 -0.784465 0.615484
vn 0.090607 -0.778758 0.620746
vn 0.160713 -0.747999 0.643948
vn 0.160713 -0.747999 0.643948
vn 0.302275 0.000000 0.953221
vn 0.302275 0.000000 0.953221
vn 0.172300 0.000000 0.985044
vn 0.172300 0.000000 0.985044
vn 0.090607 0.778761 0.620743
vn 0.076121 0.784468 0.615480
vn 0.160713 0.747999 0.643947
vn 0.160713 0.747999 0.643947
f 3/3/1 5/5/2 6/6/3 4/4/4
f 7/7/5 1/9/6 2/10/7 8/8/8
f 2/2/9 4/4/10 6/12/11 8/11/12
f 7/13/13 5/14/14 3/3/15 1/1/16
f 11/15/17 12/16/18 14/17/19 13/18/20
f 15/19/21 16/20/22 10/21/23 9/22/24
f 10/23/25 16/24/26 14/25/27 12/16/28
f 15/26/29 9/27/30 11/15/31 13/28/32
f 35/29/33 53/76/34 54/77/35 18/32/36
f 55/79/37 56/80/38 25/35/39 19/36/40
f 24/37/41 30/38/42 36/39/43 17/40/44
f 38/41/45 32/42/46 26/43/47 21/44/48
f 49/72/49 50/73/50 31/47/51 23/48/52
f 51/74/53 52/75/54 37/51/55 29/52/56
f 18/32/57 17/53/58 36/54/59 35/29/60
f 19/36/61 18/55/62 54/78/63 55/79/64
f 17/40/65 19/36/66 25/35/67 24/37/68
f 21/57/69 20/31/70 39/30/71 38/58/72
f 22/33/73 21/44/74 26/43/75 28/34/76
f 24/59/77 23/48/78 31/47/79 30/60/80
f 23/48/81 25/35/82 56/80/83 49/72/84
f 27/45/85 26/61/86 32/62/87 34/46/88
f 30/60/89 29/52/90 37/51/91 36/54/92
f 29/52/93 31/47/94 50/73/95 51/74/96
f 33/49/97 32/62/98 38/58/99 40/50/100
f 35/29/101 37/51/102 52/75/103 53/76/104
f 17/40/105 18/55/106 19/36/107
f 20/56/108 21/44/109 22/33/110
f 23/48/111 24/37/112 25/35/113
f 26/43/114 27/45/115 28/34/116
f 29/52/117 30/60/118 31/47/119
f 32/62/120 33/49/121 34/46/122
f 35/29/123 36/54/124 37/51/125
f 38/58/126 39/30/127 40/50/128
f 27/45/129 34/46/130 42/64/131 41/63/132
f 43/65/133 42/64/134 34/46/135 33/49/136
f 33/49/137 40/50/138 44/66/139 43/65/140
f 45/67/141 44/66/142 40/50/143 39/30/144
f 46/68/145 45/67/146 39/30/147 20/31/148
f 47/70/149 46/69/150 20/56/151 22/33/152
f 22/33/153 28/34/154 48/71/155 47/70/156
f 41/63/157 48/71/158 28/34/159 27/45/160
f 41/63/132 42/64/131 50/73/50 49/72/49
f 51/74/96 50/73/95 42/64/134 43/65/133
f 43/65/140 44/66/139 52/75/54 51/74/53
f 53/76/104 52/75/103 44/66/142 45/67/141
f 54/77/35 53/76/34 45/67/146 46/68/145
f 55/79/64 54/78/63 46/69/150 47/70/149
f 47/70/156 48/71/155 56/80/38 55/79/37
f 49/72/84 56/80/83 48/71/158 41/63/157
