# This file uses meters as units for non-parametric coordinates.

v 26.972273 0.000000 27.603569
v 27.669895 0.000000 26.905945
v 28.622852 0.000000 26.650614
v 29.575808 0.000000 26.905945
v 30.273432 0.000000 27.603569
v 30.528763 0.000000 28.556524
v 30.273432 0.000000 29.509480
v 29.575808 0.000000 30.207104
v 28.622852 0.000000 30.462435
v 27.669895 0.000000 30.207104
v 26.972273 0.000000 29.509480
v 26.716940 0.000000 28.556524
v 26.520344 4.409149 27.342649
v 27.408978 4.409149 26.454016
v 28.622852 4.409149 26.128775
v 29.836727 4.409149 26.454016
v 30.725361 4.409149 27.342649
v 31.050602 4.409149 28.556524
v 30.725361 4.409149 29.770399
v 29.836727 4.409149 30.659033
v 28.622852 4.409149 30.984274
v 27.408978 4.409149 30.659033
v 26.520344 4.409149 29.770399
v 26.195103 4.409149 28.556524
v 28.622852 0.000000 28.556524
v -26.972273 0.000000 27.603569
v -27.669897 0.000000 26.905945
v -28.622852 0.000000 26.650614
v -29.575808 0.000000 26.905945
v -30.273432 0.000000 27.603569
v -30.528763 0.000000 28.556524
v -30.273432 0.000000 29.509480
v -29.575808 0.000000 30.207104
v -28.622852 0.000000 30.462435
v -27.669897 0.000000 30.207104
v -26.972273 0.000000 29.509480
v -26.716942 0.000000 28.556524
v -26.520344 4.409149 27.342649
v -27.408978 4.409149 26.454016
v -28.622852 4.409149 26.128775
v -29.836727 4.409149 26.454016
v -30.725361 4.409149 27.342649
v -31.050602 4.409149 28.556524
v -30.725361 4.409149 29.770399
v -29.836727 4.409149 30.659033
v -28.622852 4.409149 30.984274
v -27.408978 4.409149 30.659033
v -26.520344 4.409149 29.770399
v -26.195103 4.409149 28.556524
v -28.622852 0.000000 28.556524
v -26.972273 0.000000 -29.724100
v -27.669897 0.000000 -30.421724
v -28.622852 0.000000 -30.677055
v -29.575808 0.000000 -30.421724
v -30.273432 0.000000 -29.724100
v -30.528763 0.000000 -28.771145
v -30.273432 0.000000 -27.818190
v -29.575808 0.000000 -27.120565
v -28.622852 0.000000 -26.865234
v -27.669897 0.000000 -27.120565
v -26.972273 0.000000 -27.818190
v -26.716942 0.000000 -28.771145
v -26.520344 4.409149 -29.985020
v -27.408978 4.409149 -30.873653
v -28.622852 4.409149 -31.198895
v -29.836727 4.409149 -30.873653
v -30.725361 4.409149 -29.985020
v -31.050602 4.409149 -28.771145
v -30.725361 4.409149 -27.557270
v -29.836727 4.409149 -26.668636
v -28.622852 4.409149 -26.343395
v -27.408978 4.409149 -26.668636
v -26.520344 4.409149 -27.557270
v -26.195103 4.409149 -28.771145
v -28.622852 0.000000 -28.771145
v 26.972273 0.000000 -29.724098
v 27.669895 0.000000 -30.421722
v 28.622852 0.000000 -30.677053
v 29.575808 0.000000 -30.421722
v 30.273432 0.000000 -29.724098
v 30.528763 0.000000 -28.771143
v 30.273432 0.000000 -27.818188
v 29.575808 0.000000 -27.120564
v 28.622852 0.000000 -26.865232
v 27.669895 0.000000 -27.120564
v 26.972273 0.000000 -27.818188
v 26.716940 0.000000 -28.771143
v 26.520344 4.409149 -29.985018
v 27.408978 4.409149 -30.873652
v 28.622852 4.409149 -31.198893
v 29.836727 4.409149 -30.873652
v 30.725361 4.409149 -29.985018
v 31.050602 4.409149 -28.771143
v 30.725361 4.409149 -27.557268
v 29.836727 4.409149 -26.668634
v 28.622852 4.409149 -26.343393
v 27.408978 4.409149 -26.668634
v 26.520344 4.409149 -27.557268
v 26.195103 4.409149 -28.771143
v 28.622852 0.000000 -28.771143
vt 0.459867 0.794629
vt 0.457214 0.791975
vt 0.453588 0.791004
vt 0.449963 0.791975
vt 0.447309 0.794629
vt 0.446338 0.798255
vt 0.447309 0.801880
vt 0.449963 0.804534
vt 0.453588 0.805505
vt 0.457214 0.804534
vt 0.459867 0.801880
vt 0.460839 0.798255
vt 0.460626 0.791430
vt 0.460626 0.792519
vt 0.460626 0.793608
vt 0.460626 0.794697
vt 0.460626 0.795786
vt 0.460626 0.796875
vt 0.460626 0.797965
vt 0.460626 0.799054
vt 0.460626 0.800143
vt 0.460626 0.801232
vt 0.460626 0.802321
vt 0.460626 0.803410
vt 0.460626 0.804500
vt 0.446550 0.791430
vt 0.446550 0.792519
vt 0.446550 0.793608
vt 0.446550 0.794697
vt 0.446550 0.795786
vt 0.446550 0.796875
vt 0.446550 0.797965
vt 0.446550 0.799054
vt 0.446550 0.800143
vt 0.446550 0.801232
vt 0.446550 0.802321
vt 0.446550 0.803410
vt 0.446550 0.804500
vt 0.453588 0.797965
vt 0.460626 0.791430
vt 0.460626 0.792519
vt 0.446550 0.792519
vt 0.446550 0.791430
vt 0.460626 0.793608
vt 0.446550 0.793608
vt 0.460626 0.794697
vt 0.446550 0.794697
vt 0.460626 0.795786
vt 0.446550 0.795786
vt 0.460626 0.796875
vt 0.446550 0.796875
vt 0.460626 0.797965
vt 0.446550 0.797965
vt 0.460626 0.799054
vt 0.446550 0.799054
vt 0.460626 0.800143
vt 0.446550 0.800143
vt 0.460626 0.801232
vt 0.446550 0.801232
vt 0.460626 0.802321
vt 0.446550 0.802321
vt 0.460626 0.803410
vt 0.446550 0.803410
vt 0.460626 0.804500
vt 0.446550 0.804500
vt 0.457214 0.791975
vt 0.459867 0.794629
vt 0.453588 0.797965
vt 0.453588 0.791004
vt 0.449963 0.791975
vt 0.447309 0.794629
vt 0.446338 0.798255
vt 0.447309 0.801880
vt 0.449963 0.804534
vt 0.453588 0.805505
vt 0.457214 0.804534
vt 0.459867 0.801880
vt 0.460839 0.798255
vt 0.460626 0.791430
vt 0.460626 0.792519
vt 0.446550 0.792519
vt 0.446550 0.791430
vt 0.460626 0.793608
vt 0.446550 0.793608
vt 0.460626 0.794697
vt 0.446550 0.794697
vt 0.460626 0.795786
vt 0.446550 0.795786
vt 0.460626 0.796875
vt 0.446550 0.796875
vt 0.460626 0.797965
vt 0.446550 0.797965
vt 0.460626 0.799054
vt 0.446550 0.799054
vt 0.460626 0.800143
vt 0.446550 0.800143
vt 0.460626 0.801232
vt 0.446550 0.801232
vt 0.460626 0.802321
vt 0.446550 0.802321
vt 0.460626 0.803410
vt 0.446550 0.803410
vt 0.460626 0.804500
vt 0.446550 0.804500
vt 0.457214 0.791975
vt 0.459867 0.794629
vt 0.453588 0.797965
vt 0.453588 0.791004
vt 0.449963 0.791975
vt 0.447309 0.794629
vt 0.446338 0.798255
vt 0.447309 0.801880
vt 0.449963 0.804534
vt 0.453588 0.805505
vt 0.457214 0.804534
vt 0.459867 0.801880
vt 0.460839 0.798255
vt 0.460626 0.791430
vt 0.446550 0.791430
vt 0.446550 0.792519
vt 0.460626 0.792519
vt 0.446550 0.793608
vt 0.460626 0.793608
vt 0.446550 0.794697
vt 0.460626 0.794697
vt 0.446550 0.795786
vt 0.460626 0.795786
vt 0.446550 0.796875
vt 0.460626 0.796875
vt 0.446550 0.797965
vt 0.460626 0.797965
vt 0.446550 0.799054
vt 0.460626 0.799054
vt 0.446550 0.800143
vt 0.460626 0.800143
vt 0.446550 0.801232
vt 0.460626 0.801232
vt 0.446550 0.802321
vt 0.460626 0.802321
vt 0.446550 0.803410
vt 0.460626 0.803410
vt 0.446550 0.804500
vt 0.460626 0.804500
vt 0.457214 0.791975
vt 0.453588 0.797965
vt 0.459867 0.794629
vt 0.453588 0.791004
vt 0.449963 0.791975
vt 0.447309 0.794629
vt 0.446338 0.798255
vt 0.447309 0.801880
vt 0.449963 0.804534
vt 0.453588 0.805505
vt 0.457214 0.804534
vt 0.459867 0.801880
vt 0.460839 0.798255
vn -0.860024 -0.117534 -0.496532
vn -0.860024 -0.117534 -0.496532
vn -0.496532 -0.117534 -0.860025
vn -0.496532 -0.117534 -0.860025
vn -0.000000 -0.117533 -0.993069
vn 0.000000 -0.117533 -0.993069
vn 0.496532 -0.117534 -0.860024
vn 0.496532 -0.117534 -0.860025
vn 0.860024 -0.117534 -0.496532
vn 0.860024 -0.117534 -0.496532
vn 0.993069 -0.117534 -0.000000
vn 0.993069 -0.117534 -0.000000
vn 0.860024 -0.117534 0.496532
vn 0.860024 -0.117534 0.496532
vn 0.496532 -0.117534 0.860024
vn 0.496532 -0.117534 0.860024
vn -0.000000 -0.117533 0.993069
vn 0.000000 -0.117533 0.993069
vn -0.496532 -0.117534 0.860024
vn -0.496532 -0.117534 0.860024
vn -0.860024 -0.117534 0.496532
vn -0.860024 -0.117534 0.496532
vn -0.993069 -0.117533 0.000000
vn -0.993069 -0.117533 0.000000
vn 0.000000 -1.000000 0.000000
vn 0.000000 -1.000000 0.000000
vn 0.000000 -1.000000 0.000000
vn 0.000000 -1.000000 0.000000
vn 0.000000 -1.000000 0.000000
vn 0.000000 -1.000000 0.000000
vn 0.000000 -1.000000 0.000000
vn 0.000000 -1.000000 0.000000
vn 0.000000 -1.000000 0.000000
vn 0.000000 -1.000000 0.000000
vn 0.000000 -1.000000 0.000000
vn 0.000000 -1.000000 0.000000
vn 0.000000 -1.000000 0.000000
vn 0.860024 -0.117534 -0.496532
vn 0.496532 -0.117534 -0.860025
vn 0.496532 -0.117534 -0.860024
vn 0.860024 -0.117534 -0.496532
vn 0.000000 -0.117533 -0.993069
vn 0.000000 -0.117533 -0.993069
vn -0.496532 -0.117534 -0.860025
vn -0.496532 -0.117534 -0.860025
vn -0.860024 -0.117534 -0.496532
vn -0.860024 -0.117534 -0.496532
vn -0.993069 -0.117534 0.000000
vn -0.993069 -0.117534 0.000000
vn -0.860024 -0.117534 0.496532
vn -0.860024 -0.117534 0.496532
vn -0.496532 -0.117534 0.860024
vn -0.496532 -0.117534 0.860024
vn 0.000000 -0.117533 0.993069
vn 0.000000 -0.117533 0.993069
vn 0.496532 -0.117534 0.860024
vn 0.496532 -0.117534 0.860024
vn 0.860024 -0.117534 0.496532
vn 0.860024 -0.117534 0.496532
vn 0.993069 -0.117534 0.000000
vn 0.993069 -0.117534 0.000000
vn 0.000000 -1.000000 0.000000
vn 0.000000 -1.000000 0.000000
vn 0.000000 -1.000000 0.000000
vn 0.000000 -1.000000 0.000000
vn 0.000000 -1.000000 0.000000
vn 0.000000 -1.000000 0.000000
vn 0.000000 -1.000000 0.000000
vn 0.000000 -1.000000 0.000000
vn 0.000000 -1.000000 0.000000
vn 0.000000 -1.000000 0.000000
vn 0.000000 -1.000000 0.000000
vn 0.000000 -1.000000 0.000000
vn 0.000000 -1.000000 0.000000
vn 0.860025 -0.117534 -0.496532
vn 0.496531 -0.117534 -0.860025
vn 0.496531 -0.117534 -0.860025
vn 0.860024 -0.117534 -0.496532
vn 0.000000 -0.117533 -0.993069
vn 0.000000 -0.117533 -0.993069
vn -0.496531 -0.117534 -0.860025
vn -0.496531 -0.117534 -0.860025
vn -0.860025 -0.117534 -0.496532
vn -0.860025 -0.117534 -0.496532
vn -0.993069 -0.117534 0.000000
vn -0.993069 -0.117534 0.000000
vn -0.860025 -0.117534 0.496532
vn -0.860025 -0.117534 0.496532
vn -0.496532 -0.117534 0.860025
vn -0.496532 -0.117534 0.860025
vn 0.000000 -0.117533 0.993069
vn 0.000000 -0.117533 0.993069
vn 0.496532 -0.117534 0.860025
vn 0.496532 -0.117534 0.860024
vn 0.860025 -0.117534 0.496532
vn 0.860025 -0.117534 0.496532
vn 0.993069 -0.117534 0.000000
vn 0.993069 -0.117534 0.000000
vn 0.000000 -1.000000 0.000000
vn 0.000000 -1.000000 0.000000
vn 0.000000 -1.000000 0.000000
vn 0.000000 -1.000000 0.000000
vn 0.000000 -1.000000 0.000000
vn 0.000000 -1.000000 0.000000
vn 0.000000 -1.000000 0.000000
vn 0.000000 -1.000000 0.000000
vn 0.000000 -1.000000 0.000000
vn 0.000000 -1.000000 0.000000
vn 0.000000 -1.000000 0.000000
vn 0.000000 -1.000000 0.000000
vn 0.000000 -1.000000 0.000000
vn -0.860024 -0.117534 -0.496532
vn -0.860024 -0.117534 -0.496532
vn -0.496532 -0.117534 -0.860024
vn -0.496532 -0.117534 -0.860024
vn -0.000000 -0.117533 -0.993069
vn 0.000000 -0.117533 -0.993069
vn 0.496532 -0.117534 -0.860024
vn 0.496532 -0.117534 -0.860024
vn 0.860024 -0.117534 -0.496532
vn 0.860024 -0.117534 -0.496532
vn 0.993069 -0.117534 -0.000000
vn 0.993069 -0.117534 -0.000000
vn 0.860024 -0.117534 0.496532
vn 0.860024 -0.117534 0.496532
vn 0.496532 -0.117534 0.860024
vn 0.496532 -0.117534 0.860024
vn -0.000000 -0.117533 0.993069
vn 0.000000 -0.117533 0.993069
vn -0.496532 -0.117534 0.860024
vn -0.496532 -0.117534 0.860024
vn -0.860024 -0.117534 0.496532
vn -0.860024 -0.117534 0.496532
vn -0.993069 -0.117533 0.000000
vn -0.993069 -0.117533 0.000000
vn 0.000000 -1.000000 0.000000
vn 0.000000 -1.000000 0.000000
vn 0.000000 -1.000000 0.000000
vn 0.000000 -1.000000 0.000000
vn 0.000000 -1.000000 0.000000
vn 0.000000 -1.000000 0.000000
vn 0.000000 -1.000000 0.000000
vn 0.000000 -1.000000 0.000000
vn 0.000000 -1.000000 0.000000
vn 0.000000 -1.000000 0.000000
vn 0.000000 -1.000000 0.000000
vn 0.000000 -1.000000 0.000000
vn 0.000000 -1.000000 0.000000
f 1/13/1 13/26/2 14/27/3 2/14/4
f 2/14/4 14/27/3 15/28/5 3/15/6
f 3/15/6 15/28/5 16/29/7 4/16/8
f 4/16/8 16/29/7 17/30/9 5/17/10
f 5/17/10 17/30/9 18/31/11 6/18/12
f 6/18/12 18/31/11 19/32/13 7/19/14
f 7/19/14 19/32/13 20/33/15 8/20/16
f 8/20/16 20/33/15 21/34/17 9/21/18
f 9/21/18 21/34/17 22/35/19 10/22/20
f 10/22/20 22/35/19 23/36/21 11/23/22
f 11/23/22 23/36/21 24/37/23 12/24/24
f 12/24/24 24/37/23 13/38/2 1/25/1
f 2/2/25 25/39/26 1/1/27
f 3/3/28 25/39/26 2/2/25
f 4/4/29 25/39/26 3/3/28
f 5/5/30 25/39/26 4/4/29
f 6/6/31 25/39/26 5/5/30
f 7/7/32 25/39/26 6/6/31
f 8/8/33 25/39/26 7/7/32
f 9/9/34 25/39/26 8/8/33
f 10/10/35 25/39/26 9/9/34
f 11/11/36 25/39/26 10/10/35
f 12/12/37 25/39/26 11/11/36
f 1/1/27 25/39/26 12/12/37
f 26/40/38 27/41/39 39/42/40 38/43/41
f 27/41/39 28/44/42 40/45/43 39/42/40
f 28/44/42 29/46/44 41/47/45 40/45/43
f 29/46/44 30/48/46 42/49/47 41/47/45
f 30/48/46 31/50/48 43/51/49 42/49/47
f 31/50/48 32/52/50 44/53/51 43/51/49
f 32/52/50 33/54/52 45/55/53 44/53/51
f 33/54/52 34/56/54 46/57/55 45/55/53
f 34/56/54 35/58/56 47/59/57 46/57/55
f 35/58/56 36/60/58 48/61/59 47/59/57
f 36/60/58 37/62/60 49/63/61 48/61/59
f 37/62/60 26/64/38 38/65/41 49/63/61
f 27/66/62 26/67/63 50/68/64
f 28/69/65 27/66/62 50/68/64
f 29/70/66 28/69/65 50/68/64
f 30/71/67 29/70/66 50/68/64
f 31/72/68 30/71/67 50/68/64
f 32/73/69 31/72/68 50/68/64
f 33/74/70 32/73/69 50/68/64
f 34/75/71 33/74/70 50/68/64
f 35/76/72 34/75/71 50/68/64
f 36/77/73 35/76/72 50/68/64
f 37/78/74 36/77/73 50/68/64
f 26/67/63 37/78/74 50/68/64
f 51/79/75 52/80/76 64/81/77 63/82/78
f 52/80/76 53/83/79 65/84/80 64/81/77
f 53/83/79 54/85/81 66/86/82 65/84/80
f 54/85/81 55/87/83 67/88/84 66/86/82
f 55/87/83 56/89/85 68/90/86 67/88/84
f 56/89/85 57/91/87 69/92/88 68/90/86
f 57/91/87 58/93/89 70/94/90 69/92/88
f 58/93/89 59/95/91 71/96/92 70/94/90
f 59/95/91 60/97/93 72/98/94 71/96/92
f 60/97/93 61/99/95 73/100/96 72/98/94
f 61/99/95 62/101/97 74/102/98 73/100/96
f 62/101/97 51/103/75 63/104/78 74/102/98
f 52/105/99 51/106/100 75/107/101
f 53/108/102 52/105/99 75/107/101
f 54/109/103 53/108/102 75/107/101
f 55/110/104 54/109/103 75/107/101
f 56/111/105 55/110/104 75/107/101
f 57/112/106 56/111/105 75/107/101
f 58/113/107 57/112/106 75/107/101
f 59/114/108 58/113/107 75/107/101
f 60/115/109 59/114/108 75/107/101
f 61/116/110 60/115/109 75/107/101
f 62/117/111 61/116/110 75/107/101
f 51/106/100 62/117/111 75/107/101
f 76/118/112 88/119/113 89/120/114 77/121/115
f 77/121/115 89/120/114 90/122/116 78/123/117
f 78/123/117 90/122/116 91/124/118 79/125/119
f 79/125/119 91/124/118 92/126/120 80/127/121
f 80/127/121 92/126/120 93/128/122 81/129/123
f 81/129/123 93/128/122 94/130/124 82/131/125
f 82/131/125 94/130/124 95/132/126 83/133/127
f 83/133/127 95/132/126 96/134/128 84/135/129
f 84/135/129 96/134/128 97/136/130 85/137/131
f 85/137/131 97/136/130 98/138/132 86/139/133
f 86/139/133 98/138/132 99/140/134 87/141/135
f 87/141/135 99/140/134 88/142/113 76/143/112
f 77/144/136 100/145/137 76/146/138
f 78/147/139 100/145/137 77/144/136
f 79/148/140 100/145/137 78/147/139
f 80/149/141 100/145/137 79/148/140
f 81/150/142 100/145/137 80/149/141
f 82/151/143 100/145/137 81/150/142
f 83/152/144 100/145/137 82/151/143
f 84/153/145 100/145/137 83/152/144
f 85/154/146 100/145/137 84/153/145
f 86/155/147 100/145/137 85/154/146
f 87/156/148 100/145/137 86/155/147
f 76/146/138 100/145/137 87/156/148
