# This file uses meters as units for non-parametric coordinates.

v 28.789255 24.206627 34.106163
v 28.789255 111.416832 34.106163
v -28.789255 111.416832 34.106163
v -28.789255 24.206627 34.106163
v 28.789255 26.717194 -30.855568
v 28.789255 108.498085 -30.169979
v -28.789255 108.498085 -30.169979
v -28.789255 26.717194 -30.855568
v -28.789255 108.498085 33.814537
v -28.789255 108.789711 34.106163
v 28.789255 108.789711 34.106163
v 28.789255 108.498085 33.814537
v -28.789255 26.425570 34.106163
v -28.789255 26.717194 33.814537
v 28.789255 26.717194 33.814537
v 28.789255 26.425570 34.106163
v -28.319025 26.717194 33.133987
v 28.319025 26.717194 33.133987
v -28.319025 108.498085 33.133987
v 28.319025 108.498085 33.133987
v -28.319025 108.498085 -29.457949
v 28.319025 108.498085 -29.457949
v -28.319025 26.717194 -29.457949
v 28.319025 26.717194 -29.457949
v -35.517044 24.275452 35.987274
v -35.987274 24.275452 35.517044
v -35.987274 111.416832 35.517044
v -35.517044 111.416832 35.987274
v 35.987274 24.275452 35.517044
v 35.517044 24.275452 35.987274
v 35.517044 111.416832 35.987274
v 35.987274 111.416832 35.517044
v -35.517044 111.416832 -35.987274
v -35.987274 111.416832 -35.517044
v -35.987274 24.275452 -35.517044
v -35.517044 24.275452 -35.987274
v 35.987274 111.416832 -35.517044
v 35.517044 111.416832 -35.987274
v 35.517044 24.275452 -35.987274
v 35.987274 24.275452 -35.517044
v -28.789255 24.275452 35.517044
v -29.259485 24.275452 35.987274
v -29.259485 111.416832 35.987274
v -28.789255 111.416832 35.517044
v 29.259485 24.275452 35.987274
v 28.789255 24.275452 35.517044
v 28.789255 111.416832 35.517044
v 29.259485 111.416832 35.987274
v -28.789255 111.416832 34.576393
v -28.319025 111.416832 32.845036
v -28.319025 24.275452 32.845036
v -28.789255 24.275452 34.576393
v 28.319025 111.416832 32.845036
v 28.789255 111.416832 34.576393
v 28.789255 24.275452 34.576393
v 28.319025 24.275452 32.845036
v -38.362495 112.289772 37.489559
v -37.489559 111.416832 37.489559
v -37.489559 112.289772 38.362495
v 37.489559 111.416832 37.489559
v 38.362495 112.289772 37.489559
v 37.489559 112.289772 38.362495
v -37.489559 118.178688 37.489559
v -38.362495 117.305748 37.489559
v -37.489559 117.305748 38.362495
v 38.362495 117.305748 37.489559
v 37.489559 118.178688 37.489559
v 37.489559 117.305748 38.362495
v -37.489559 117.305748 -38.362495
v -38.362495 117.305748 -37.489559
v -37.489559 118.178688 -37.489559
v 38.362495 117.305748 -37.489559
v 37.489559 117.305748 -38.362495
v 37.489559 118.178688 -37.489559
v -37.489559 111.416832 -37.489559
v -38.362495 112.289772 -37.489559
v -37.489559 112.289772 -38.362495
v 38.362495 112.289772 -37.489559
v 37.489559 111.416832 -37.489559
v 37.489559 112.289772 -38.362495
v -38.982162 14.608640 38.160194
v -38.109226 13.735700 38.160194
v -38.109226 14.608640 39.064377
v 38.109226 13.735700 38.160194
v 38.982162 14.608640 38.160194
v 38.109226 14.608640 39.064377
v -36.773472 24.275455 36.817970
v -37.646408 23.402515 36.817970
v -36.773472 23.402515 37.690907
v 37.646408 23.402515 36.817970
v 36.773472 24.275455 36.817970
v 36.773472 23.402515 37.690907
v -36.773472 23.402515 -37.565239
v -37.646408 23.402515 -36.692303
v -36.773472 24.275455 -36.692303
v 37.646408 23.402515 -36.692303
v 36.773472 23.402515 -37.565239
v 36.773472 24.275455 -36.692303
v -38.109226 13.735700 -38.034538
v -38.982162 14.608640 -38.034538
v -38.109226 14.608640 -38.938728
v 38.982162 14.608640 -38.034538
v 38.109226 13.735700 -38.034538
v 38.109226 14.608640 -38.938728
v -39.399132 0.686714 38.712414
v -38.712414 -0.000002 38.712414
v -38.712414 0.686714 39.399132
v 38.712414 -0.000002 38.712414
v 39.399132 0.686714 38.712414
v 38.712414 0.686714 39.399132
v -38.712414 13.735701 38.712414
v -39.399132 13.048985 38.712414
v -38.712414 13.048985 39.399132
v 39.399132 13.048985 38.712414
v 38.712414 13.735701 38.712414
v 38.712414 13.048985 39.399132
v -38.712414 13.048985 -39.399132
v -39.399132 13.048985 -38.712414
v -38.712414 13.735701 -38.712414
v 39.399132 13.048985 -38.712414
v 38.712414 13.048985 -39.399132
v 38.712414 13.735701 -38.712414
v -38.712414 -0.000002 -38.712414
v -39.399132 0.686714 -38.712414
v -38.712414 0.686714 -39.399132
v 39.399132 0.686714 -38.712414
v 38.712414 -0.000002 -38.712414
v 38.712414 0.686714 -39.399132
vt 0.869633 0.618637
vt 0.864809 0.613849
vt 0.762604 0.606734
vt 0.759311 0.606734
vt 0.759311 0.520779
vt 0.762970 0.520779
vt 0.763218 0.613849
vt 0.865480 0.606734
vt 0.756904 0.618637
vt 0.868541 0.606734
vt 0.865846 0.520779
vt 0.868541 0.520779
vt 0.762604 0.520779
vt 0.762970 0.606734
vt 0.865480 0.520779
vt 0.865846 0.606734
vt 0.756904 0.505909
vt 0.869633 0.505909
vt 0.763218 0.512258
vt 0.864809 0.512258
vt 0.759311 0.509142
vt 0.759311 0.618371
vt 0.868541 0.618371
vt 0.868541 0.509142
vt 0.868541 0.509142
vt 0.868541 0.618371
vt 0.759311 0.618371
vt 0.759311 0.509142
vt 0.868541 0.509142
vt 0.868541 0.618371
vt 0.759311 0.618371
vt 0.759311 0.509142
vt 0.759311 0.509855
vt 0.868541 0.509855
vt 0.868541 0.519352
vt 0.759311 0.519352
vt 0.759311 0.509855
vt 0.868541 0.509855
vt 0.868541 0.617658
vt 0.759311 0.617658
vt 0.759311 0.617658
vt 0.868541 0.617658
vt 0.868541 0.509855
vt 0.759311 0.509855
vt 0.759311 0.617658
vt 0.868541 0.617658
vt 0.868541 0.509855
vt 0.759311 0.509855
vt 0.759311 0.608161
vt 0.868541 0.608161
vt 0.868541 0.617658
vt 0.759311 0.617658
vt 0.759311 0.520066
vt 0.868541 0.520066
vt 0.868541 0.520066
vt 0.759311 0.520066
vt 0.868541 0.607448
vt 0.759311 0.607448
vt 0.759311 0.607448
vt 0.868541 0.607448
vt 0.868541 0.509142
vt 0.759311 0.509142
vt 0.868541 0.618371
vt 0.759311 0.618371
vt 0.759311 0.520779
vt 0.868541 0.520779
vt 0.759311 0.606734
vt 0.868541 0.606734
vt 0.760554 0.617129
vt 0.867298 0.617129
vt 0.867298 0.510385
vt 0.760554 0.510385
vt 0.867298 0.525525
vt 0.867298 0.601988
vt 0.760554 0.601988
vt 0.760554 0.525525
vt 0.760554 0.601988
vt 0.867298 0.601988
vt 0.867298 0.525525
vt 0.760554 0.525525
vt 0.760554 0.525525
vt 0.760554 0.601988
vt 0.867298 0.601988
vt 0.867298 0.525525
vt 0.867298 0.617129
vt 0.867298 0.510385
vt 0.760554 0.510385
vt 0.760554 0.617129
vt 0.867298 0.525525
vt 0.867298 0.601988
vt 0.760554 0.601988
vt 0.760554 0.525525
vt 0.759311 0.510385
vt 0.759311 0.617129
vt 0.760554 0.509142
vt 0.867298 0.509142
vt 0.868541 0.510385
vt 0.868541 0.617129
vt 0.759311 0.617129
vt 0.759311 0.510385
vt 0.868541 0.617129
vt 0.868541 0.510385
vt 0.759311 0.525525
vt 0.759311 0.601988
vt 0.868541 0.525525
vt 0.868541 0.601988
vt 0.760554 0.617129
vt 0.867298 0.617129
vt 0.867298 0.510385
vt 0.760554 0.510385
vt 0.867298 0.525525
vt 0.867298 0.601988
vt 0.760554 0.601988
vt 0.760554 0.525525
vt 0.760554 0.601988
vt 0.867298 0.601988
vt 0.867298 0.525525
vt 0.760554 0.525525
vt 0.760554 0.525525
vt 0.760554 0.601988
vt 0.867298 0.601988
vt 0.867298 0.525525
vt 0.867298 0.617129
vt 0.867298 0.510385
vt 0.760554 0.510385
vt 0.760554 0.617129
vt 0.867298 0.525525
vt 0.867298 0.601988
vt 0.760554 0.601988
vt 0.760554 0.525525
vt 0.759311 0.510385
vt 0.759311 0.617129
vt 0.760554 0.509142
vt 0.867298 0.509142
vt 0.868541 0.510385
vt 0.868541 0.617129
vt 0.759311 0.617129
vt 0.759311 0.510385
vt 0.868541 0.617129
vt 0.868541 0.510385
vt 0.759311 0.525525
vt 0.759311 0.601988
vt 0.868541 0.525525
vt 0.868541 0.601988
vt 0.760263 0.617419
vt 0.867589 0.617419
vt 0.867589 0.510094
vt 0.760263 0.510094
vt 0.867589 0.514603
vt 0.867589 0.612910
vt 0.760263 0.612910
vt 0.760263 0.514603
vt 0.760263 0.612910
vt 0.867589 0.612910
vt 0.867589 0.514603
vt 0.760263 0.514603
vt 0.760263 0.514603
vt 0.760263 0.612910
vt 0.867589 0.612910
vt 0.867589 0.514603
vt 0.867589 0.617419
vt 0.867589 0.510094
vt 0.760263 0.510094
vt 0.760263 0.617419
vt 0.867589 0.514603
vt 0.867589 0.612910
vt 0.760263 0.612910
vt 0.760263 0.514603
vt 0.759311 0.510094
vt 0.759311 0.617419
vt 0.760263 0.509142
vt 0.867589 0.509142
vt 0.868541 0.510094
vt 0.868541 0.617419
vt 0.759311 0.617419
vt 0.759311 0.510094
vt 0.868541 0.617419
vt 0.868541 0.510094
vt 0.759311 0.514603
vt 0.759311 0.612910
vt 0.868541 0.514603
vt 0.868541 0.612910
vn 0.000000 0.000000 1.000000
vn 0.000000 0.000000 1.000000
vn 0.000000 0.000000 1.000000
vn 0.000000 0.000000 1.000000
vn 0.000000 0.000000 1.000000
vn 0.000000 0.000000 1.000000
vn 0.000000 0.000000 1.000000
vn 0.000000 0.000000 1.000000
vn 0.000000 -1.000000 0.000000
vn 0.000000 -1.000000 0.000000
vn 0.000000 -1.000000 0.000000
vn 0.000000 -1.000000 0.000000
vn 0.000000 1.000000 0.000000
vn 0.000000 1.000000 0.000000
vn 0.000000 1.000000 0.000000
vn 0.000000 1.000000 0.000000
vn 0.000000 -0.707104 0.707109
vn 0.000000 -0.707104 0.707109
vn 0.000000 -0.707104 0.707109
vn 0.000000 -0.707104 0.707109
vn 0.000000 0.707110 0.707104
vn 0.000000 0.707110 0.707104
vn 0.000000 0.707110 0.707104
vn 0.000000 0.707110 0.707104
vn 0.000000 0.000000 1.000000
vn 0.000000 0.000000 1.000000
vn 0.000000 0.000000 1.000000
vn 0.000000 0.000000 1.000000
vn -1.000000 0.000000 0.000000
vn -1.000000 0.000000 0.000000
vn -1.000000 0.000000 0.000000
vn -1.000000 0.000000 0.000000
vn 1.000000 0.000000 0.000000
vn 1.000000 0.000000 0.000000
vn 1.000000 0.000000 0.000000
vn 1.000000 0.000000 0.000000
vn 0.000000 0.000000 1.000000
vn 0.000000 0.000000 1.000000
vn 0.000000 0.000000 1.000000
vn 0.000000 0.000000 1.000000
vn 0.000000 0.000000 -1.000000
vn 0.000000 0.000000 -1.000000
vn 0.000000 0.000000 -1.000000
vn 0.000000 0.000000 -1.000000
vn 1.000000 0.000000 0.000000
vn 1.000000 0.000000 0.000000
vn 1.000000 0.000000 0.000000
vn 1.000000 0.000000 0.000000
vn -1.000000 0.000000 0.000000
vn -1.000000 0.000000 0.000000
vn -1.000000 0.000000 0.000000
vn -1.000000 0.000000 0.000000
vn 0.000000 0.000000 1.000000
vn 0.000000 0.000000 1.000000
vn 0.000000 0.000000 1.000000
vn 0.000000 0.000000 1.000000
vn 1.000000 0.000000 0.000000
vn 1.000000 0.000000 0.000000
vn 1.000000 0.000000 0.000000
vn 1.000000 0.000000 0.000000
vn -1.000000 0.000000 0.000000
vn -1.000000 0.000000 0.000000
vn -1.000000 0.000000 0.000000
vn -1.000000 0.000000 0.000000
vn -0.707107 0.000000 0.707106
vn -0.707107 0.000000 0.707106
vn -0.707107 0.000000 0.707106
vn -0.707107 0.000000 0.707106
vn 0.707107 0.000000 0.707106
vn 0.707107 0.000000 0.707106
vn 0.707107 0.000000 0.707106
vn 0.707107 0.000000 0.707106
vn -0.707107 0.000000 -0.707106
vn -0.707107 0.000000 -0.707106
vn -0.707107 0.000000 -0.707106
vn -0.707107 0.000000 -0.707106
vn 0.707107 0.000000 -0.707106
vn 0.707107 0.000000 -0.707106
vn 0.707107 0.000000 -0.707106
vn 0.707107 0.000000 -0.707106
vn 0.707107 0.000000 0.707106
vn 0.707107 0.000000 0.707106
vn 0.707107 0.000000 0.707106
vn 0.707107 0.000000 0.707106
vn -0.707107 0.000000 0.707106
vn -0.707107 0.000000 0.707106
vn -0.707107 0.000000 0.707106
vn -0.707107 0.000000 0.707106
vn 0.965040 0.000000 0.262101
vn 0.965040 0.000000 0.262101
vn 0.965040 0.000000 0.262101
vn 0.965040 0.000000 0.262101
vn -0.965040 0.000000 0.262101
vn -0.965040 0.000000 0.262101
vn -0.965040 0.000000 0.262101
vn -0.965040 0.000000 0.262101
vn 0.000000 -1.000000 0.000000
vn 0.000000 -1.000000 0.000000
vn 0.000000 -1.000000 0.000000
vn 0.000000 -1.000000 0.000000
vn 0.000000 0.000000 1.000000
vn 0.000000 0.000000 1.000000
vn 0.000000 0.000000 1.000000
vn 0.000000 0.000000 1.000000
vn -1.000000 0.000000 0.000000
vn -1.000000 0.000000 0.000000
vn -1.000000 0.000000 0.000000
vn -1.000000 0.000000 0.000000
vn 1.000000 0.000000 0.000000
vn 1.000000 0.000000 0.000000
vn 1.000000 0.000000 0.000000
vn 1.000000 0.000000 0.000000
vn 0.000000 1.000000 0.000000
vn 0.000000 1.000000 0.000000
vn 0.000000 1.000000 0.000000
vn 0.000000 1.000000 0.000000
vn 0.000000 0.000000 -1.000000
vn 0.000000 0.000000 -1.000000
vn 0.000000 0.000000 -1.000000
vn 0.000000 0.000000 -1.000000
vn -0.707109 -0.707105 0.000000
vn -0.707109 -0.707105 0.000000
vn -0.707109 -0.707105 0.000000
vn -0.707109 -0.707105 0.000000
vn 0.000000 -0.707106 0.707108
vn 0.000000 -0.707106 0.707108
vn 0.000000 -0.707106 0.707108
vn 0.000000 -0.707106 0.707108
vn -0.707107 0.000000 0.707106
vn -0.707107 0.000000 0.707106
vn -0.707107 0.000000 0.707106
vn -0.707107 0.000000 0.707106
vn 0.707109 -0.707105 0.000000
vn 0.707109 -0.707105 0.000000
vn 0.707109 -0.707105 0.000000
vn 0.707109 -0.707105 0.000000
vn 0.707107 0.000000 0.707106
vn 0.707107 0.000000 0.707106
vn 0.707107 0.000000 0.707106
vn 0.707107 0.000000 0.707106
vn -0.707109 0.707105 0.000000
vn -0.707109 0.707105 0.000000
vn -0.707109 0.707105 0.000000
vn -0.707109 0.707105 0.000000
vn 0.000000 0.707106 0.707108
vn 0.000000 0.707106 0.707108
vn 0.000000 0.707106 0.707108
vn 0.000000 0.707106 0.707108
vn 0.707109 0.707105 0.000000
vn 0.707109 0.707105 0.000000
vn 0.707109 0.707105 0.000000
vn 0.707109 0.707105 0.000000
vn -0.707107 0.000000 -0.707106
vn -0.707107 0.000000 -0.707106
vn -0.707107 0.000000 -0.707106
vn -0.707107 0.000000 -0.707106
vn 0.000000 0.707106 -0.707108
vn 0.000000 0.707106 -0.707108
vn 0.000000 0.707106 -0.707108
vn 0.000000 0.707106 -0.707108
vn 0.707107 0.000000 -0.707106
vn 0.707107 0.000000 -0.707106
vn 0.707107 0.000000 -0.707106
vn 0.707107 0.000000 -0.707106
vn 0.000000 -0.707106 -0.707108
vn 0.000000 -0.707106 -0.707108
vn 0.000000 -0.707106 -0.707108
vn 0.000000 -0.707106 -0.707108
vn -0.577348 -0.577348 0.577354
vn -0.577348 -0.577348 0.577354
vn -0.577348 -0.577348 0.577354
vn 0.577348 -0.577348 0.577354
vn 0.577348 -0.577348 0.577354
vn 0.577348 -0.577348 0.577354
vn -0.577348 0.577348 0.577354
vn -0.577348 0.577348 0.577354
vn -0.577348 0.577348 0.577354
vn 0.577348 0.577348 0.577354
vn 0.577348 0.577348 0.577354
vn 0.577348 0.577348 0.577354
vn -0.577348 0.577348 -0.577354
vn -0.577348 0.577348 -0.577354
vn -0.577348 0.577348 -0.577354
vn 0.577348 0.577348 -0.577354
vn 0.577348 0.577348 -0.577354
vn 0.577348 0.577348 -0.577354
vn -0.577348 -0.577348 -0.577354
vn -0.577348 -0.577348 -0.577354
vn -0.577348 -0.577348 -0.577354
vn 0.577348 -0.577348 -0.577354
vn 0.577348 -0.577348 -0.577354
vn 0.577348 -0.577348 -0.577354
vn 0.000000 -1.000000 0.000000
vn 0.000000 -1.000000 0.000000
vn 0.000000 -1.000000 0.000000
vn 0.000000 -1.000000 0.000000
vn 0.000000 0.154314 0.988022
vn 0.000000 0.154314 0.988022
vn 0.000000 0.154314 0.988022
vn 0.000000 0.154314 0.988022
vn -0.988660 0.150173 0.000000
vn -0.988660 0.150173 0.000000
vn -0.988660 0.150173 0.000000
vn -0.988660 0.150173 0.000000
vn 0.988660 0.150174 0.000000
vn 0.988660 0.150174 0.000000
vn 0.988660 0.150174 0.000000
vn 0.988660 0.150174 0.000000
vn 0.000000 1.000000 0.000000
vn 0.000000 1.000000 0.000000
vn 0.000000 1.000000 0.000000
vn 0.000000 1.000000 0.000000
vn 0.000000 0.154316 -0.988022
vn 0.000000 0.154316 -0.988022
vn 0.000000 0.154316 -0.988022
vn 0.000000 0.154316 -0.988022
vn -0.707109 -0.707104 0.000000
vn -0.707109 -0.707104 0.000000
vn -0.707109 -0.707104 0.000000
vn -0.707109 -0.707104 0.000000
vn 0.000000 -0.719427 0.694568
vn 0.000000 -0.719427 0.694568
vn 0.000000 -0.719427 0.694568
vn 0.000000 -0.719427 0.694568
vn -0.697188 0.211659 0.684930
vn -0.697188 0.211659 0.684930
vn -0.697188 0.211659 0.684930
vn -0.697188 0.211659 0.684930
vn 0.707109 -0.707104 0.000000
vn 0.707109 -0.707104 0.000000
vn 0.707109 -0.707104 0.000000
vn 0.707109 -0.707104 0.000000
vn 0.697188 0.211659 0.684930
vn 0.697188 0.211659 0.684930
vn 0.697188 0.211659 0.684930
vn 0.697188 0.211659 0.684930
vn -0.707108 0.707106 0.000000
vn -0.707108 0.707106 0.000000
vn -0.707108 0.707106 0.000000
vn -0.707108 0.707106 0.000000
vn 0.000000 0.707105 0.707108
vn 0.000000 0.707105 0.707108
vn 0.000000 0.707105 0.707108
vn 0.000000 0.707105 0.707108
vn 0.707108 0.707106 0.000000
vn 0.707108 0.707106 0.000000
vn 0.707108 0.707106 0.000000
vn 0.707108 0.707106 0.000000
vn -0.697191 0.211660 -0.684927
vn -0.697191 0.211660 -0.684927
vn -0.697191 0.211660 -0.684927
vn -0.697191 0.211660 -0.684927
vn 0.000000 0.707105 -0.707108
vn 0.000000 0.707105 -0.707108
vn 0.000000 0.707105 -0.707108
vn 0.000000 0.707105 -0.707108
vn 0.697190 0.211660 -0.684928
vn 0.697190 0.211660 -0.684928
vn 0.697190 0.211660 -0.684928
vn 0.697190 0.211660 -0.684928
vn 0.000000 -0.719430 -0.694565
vn 0.000000 -0.719430 -0.694565
vn 0.000000 -0.719430 -0.694565
vn 0.000000 -0.719430 -0.694565
vn -0.584002 -0.583996 0.563818
vn -0.584002 -0.583996 0.563818
vn -0.584002 -0.583996 0.563818
vn 0.584002 -0.583996 0.563818
vn 0.584002 -0.583996 0.563818
vn 0.584002 -0.583996 0.563818
vn -0.577353 0.577347 0.577350
vn -0.577353 0.577347 0.577350
vn -0.577353 0.577347 0.577350
vn 0.577353 0.577347 0.577350
vn 0.577353 0.577347 0.577350
vn 0.577353 0.577347 0.577350
vn -0.577349 0.577349 -0.577352
vn -0.577349 0.577349 -0.577352
vn -0.577349 0.577349 -0.577352
vn 0.577349 0.577349 -0.577352
vn 0.577349 0.577349 -0.577352
vn 0.577349 0.577349 -0.577352
vn -0.584002 -0.583996 -0.563818
vn -0.584002 -0.583996 -0.563818
vn -0.584002 -0.583996 -0.563818
vn 0.584002 -0.583996 -0.563818
vn 0.584002 -0.583996 -0.563818
vn 0.584002 -0.583996 -0.563818
vn 0.000000 -1.000000 0.000000
vn 0.000000 -1.000000 0.000000
vn 0.000000 -1.000000 0.000000
vn 0.000000 -1.000000 0.000000
vn 0.000000 0.000000 1.000000
vn 0.000000 0.000000 1.000000
vn 0.000000 0.000000 1.000000
vn 0.000000 0.000000 1.000000
vn -1.000000 0.000000 0.000000
vn -1.000000 0.000000 0.000000
vn -1.000000 0.000000 0.000000
vn -1.000000 0.000000 0.000000
vn 1.000000 0.000000 0.000000
vn 1.000000 0.000000 0.000000
vn 1.000000 0.000000 0.000000
vn 1.000000 0.000000 0.000000
vn 0.000000 1.000000 0.000000
vn 0.000000 1.000000 0.000000
vn 0.000000 1.000000 0.000000
vn 0.000000 1.000000 0.000000
vn 0.000000 0.000000 -1.000000
vn 0.000000 0.000000 -1.000000
vn 0.000000 0.000000 -1.000000
vn 0.000000 0.000000 -1.000000
vn -0.707106 -0.707107 0.000000
vn -0.707106 -0.707107 0.000000
vn -0.707106 -0.707107 0.000000
vn -0.707106 -0.707107 0.000000
vn 0.000000 -0.707108 0.707106
vn 0.000000 -0.707108 0.707106
vn 0.000000 -0.707108 0.707106
vn 0.000000 -0.707108 0.707106
vn -0.707106 0.000000 0.707107
vn -0.707106 0.000000 0.707107
vn -0.707106 0.000000 0.707107
vn -0.707106 0.000000 0.707107
vn 0.707106 -0.707107 0.000000
vn 0.707106 -0.707107 0.000000
vn 0.707106 -0.707107 0.000000
vn 0.707106 -0.707107 0.000000
vn 0.707106 0.000000 0.707107
vn 0.707106 0.000000 0.707107
vn 0.707106 0.000000 0.707107
vn 0.707106 0.000000 0.707107
vn -0.707106 0.707107 0.000000
vn -0.707106 0.707107 0.000000
vn -0.707106 0.707107 0.000000
vn -0.707106 0.707107 0.000000
vn 0.000000 0.707108 0.707106
vn 0.000000 0.707108 0.707106
vn 0.000000 0.707108 0.707106
vn 0.000000 0.707108 0.707106
vn 0.707106 0.707107 0.000000
vn 0.707106 0.707107 0.000000
vn 0.707106 0.707107 0.000000
vn 0.707106 0.707107 0.000000
vn -0.707106 0.000000 -0.707107
vn -0.707106 0.000000 -0.707107
vn -0.707106 0.000000 -0.707107
vn -0.707106 0.000000 -0.707107
vn 0.000000 0.707108 -0.707106
vn 0.000000 0.707108 -0.707106
vn 0.000000 0.707108 -0.707106
vn 0.000000 0.707108 -0.707106
vn 0.707106 0.000000 -0.707107
vn 0.707106 0.000000 -0.707107
vn 0.707106 0.000000 -0.707107
vn 0.707106 0.000000 -0.707107
vn 0.000000 -0.707108 -0.707106
vn 0.000000 -0.707108 -0.707106
vn 0.000000 -0.707108 -0.707106
vn 0.000000 -0.707108 -0.707106
vn -0.577347 -0.577352 0.577352
vn -0.577347 -0.577352 0.577352
vn -0.577347 -0.577352 0.577352
vn 0.577347 -0.577352 0.577352
vn 0.577347 -0.577352 0.577352
vn 0.577347 -0.577352 0.577352
vn -0.577351 0.577351 0.577349
vn -0.577351 0.577351 0.577349
vn -0.577351 0.577351 0.577349
vn 0.577351 0.577351 0.577349
vn 0.577351 0.577351 0.577349
vn 0.577351 0.577351 0.577349
vn -0.577351 0.577351 -0.577349
vn -0.577351 0.577351 -0.577349
vn -0.577351 0.577351 -0.577349
vn 0.577351 0.577351 -0.577349
vn 0.577351 0.577351 -0.577349
vn 0.577351 0.577351 -0.577349
vn -0.577347 -0.577352 -0.577352
vn -0.577347 -0.577352 -0.577352
vn -0.577347 -0.577352 -0.577352
vn 0.577347 -0.577352 -0.577352
vn 0.577347 -0.577352 -0.577352
vn 0.577347 -0.577352 -0.577352
f 10/13/1 11/3/2 2/4/3 3/5/4
f 1/10/5 16/16/6 13/11/7 4/12/8
f 12/19/9 9/20/10 7/2/11 6/7/12
f 14/17/13 15/18/14 5/1/15 8/9/16
f 10/13/17 9/6/18 12/14/19 11/3/20
f 14/15/21 13/11/22 16/16/23 15/8/24
f 21/21/25 23/22/26 24/23/27 22/24/28
f 18/25/29 20/26/30 22/27/31 24/28/32
f 23/29/33 21/30/34 19/31/35 17/32/36
f 28/33/37 25/34/38 42/35/39 43/36/40
f 36/37/41 33/38/42 38/39/43 39/40/44
f 32/41/45 29/42/46 40/43/47 37/44/48
f 34/45/49 35/46/50 26/47/51 27/48/52
f 48/49/53 45/50/54 30/51/55 31/52/56
f 44/53/57 41/54/58 52/55/59 49/56/60
f 46/57/61 47/58/62 54/59/63 55/60/64
f 26/47/65 25/34/66 28/33/67 27/48/68
f 30/51/69 29/42/70 32/41/71 31/52/72
f 34/61/73 33/38/74 36/37/75 35/62/76
f 38/39/77 37/63/78 40/64/79 39/40/80
f 42/35/81 41/54/82 44/53/83 43/36/84
f 46/57/85 45/50/86 48/49/87 47/58/88
f 50/65/89 49/56/90 52/55/91 51/66/92
f 54/59/93 53/67/94 56/68/95 55/60/96
f 75/69/97 79/70/98 60/71/99 58/72/100
f 62/73/101 68/74/102 65/75/103 59/76/104
f 64/77/105 70/78/106 76/79/107 57/80/108
f 78/81/109 72/82/110 66/83/111 61/84/112
f 67/85/113 74/86/114 71/87/115 63/88/116
f 73/89/117 80/90/118 77/91/119 69/92/120
f 58/72/121 57/93/122 76/94/123 75/69/124
f 59/76/125 58/95/126 60/96/127 62/73/128
f 57/80/129 59/76/130 65/75/131 64/77/132
f 61/97/133 60/71/134 79/70/135 78/98/136
f 62/73/137 61/84/138 66/83/139 68/74/140
f 64/99/141 63/88/142 71/87/143 70/100/144
f 63/88/145 65/75/146 68/74/147 67/85/148
f 67/85/149 66/101/150 72/102/151 74/86/152
f 70/103/153 69/92/154 77/91/155 76/104/156
f 69/92/157 71/87/158 74/86/159 73/89/160
f 73/89/161 72/105/162 78/106/163 80/90/164
f 75/69/165 77/91/166 80/90/167 79/70/168
f 57/80/169 58/95/170 59/76/171
f 60/96/172 61/84/173 62/73/174
f 63/88/175 64/77/176 65/75/177
f 66/83/178 67/85/179 68/74/180
f 69/92/181 70/100/182 71/87/183
f 72/102/184 73/89/185 74/86/186
f 75/69/187 76/104/188 77/91/189
f 78/106/190 79/70/191 80/90/192
f 99/107/193 103/108/194 84/109/195 82/110/196
f 86/111/197 92/112/198 89/113/199 83/114/200
f 88/115/201 94/116/202 100/117/203 81/118/204
f 102/119/205 96/120/206 90/121/207 85/122/208
f 91/123/209 98/124/210 95/125/211 87/126/212
f 97/127/213 104/128/214 101/129/215 93/130/216
f 82/110/217 81/131/218 100/132/219 99/107/220
f 83/114/221 82/133/222 84/134/223 86/111/224
f 81/118/225 83/114/226 89/113/227 88/115/228
f 85/135/229 84/109/230 103/108/231 102/136/232
f 86/111/233 85/122/234 90/121/235 92/112/236
f 88/137/237 87/126/238 95/125/239 94/138/240
f 87/126/241 89/113/242 92/112/243 91/123/244
f 91/123/245 90/139/246 96/140/247 98/124/248
f 94/141/249 93/130/250 101/129/251 100/142/252
f 93/130/253 95/125/254 98/124/255 97/127/256
f 97/127/257 96/143/258 102/144/259 104/128/260
f 99/107/261 101/129/262 104/128/263 103/108/264
f 81/118/265 82/133/266 83/114/267
f 84/134/268 85/122/269 86/111/270
f 87/126/271 88/115/272 89/113/273
f 90/121/274 91/123/275 92/112/276
f 93/130/277 94/138/278 95/125/279
f 96/140/280 97/127/281 98/124/282
f 99/107/283 100/142/284 101/129/285
f 102/144/286 103/108/287 104/128/288
f 123/145/289 127/146/290 108/147/291 106/148/292
f 110/149/293 116/150/294 113/151/295 107/152/296
f 112/153/297 118/154/298 124/155/299 105/156/300
f 126/157/301 120/158/302 114/159/303 109/160/304
f 115/161/305 122/162/306 119/163/307 111/164/308
f 121/165/309 128/166/310 125/167/311 117/168/312
f 106/148/313 105/169/314 124/170/315 123/145/316
f 107/152/317 106/171/318 108/172/319 110/149/320
f 105/156/321 107/152/322 113/151/323 112/153/324
f 109/173/325 108/147/326 127/146/327 126/174/328
f 110/149/329 109/160/330 114/159/331 116/150/332
f 112/175/333 111/164/334 119/163/335 118/176/336
f 111/164/337 113/151/338 116/150/339 115/161/340
f 115/161/341 114/177/342 120/178/343 122/162/344
f 118/179/345 117/168/346 125/167/347 124/180/348
f 117/168/349 119/163/350 122/162/351 121/165/352
f 121/165/353 120/181/354 126/182/355 128/166/356
f 123/145/357 125/167/358 128/166/359 127/146/360
f 105/156/361 106/171/362 107/152/363
f 108/172/364 109/160/365 110/149/366
f 111/164/367 112/153/368 113/151/369
f 114/159/370 115/161/371 116/150/372
f 117/168/373 118/176/374 119/163/375
f 120/178/376 121/165/377 122/162/378
f 123/145/379 124/180/380 125/167/381
f 126/182/382 127/146/383 128/166/384
