# This file uses meters as units for non-parametric coordinates.

v -51.345680 -196.539154 -3.470502
v 2.224243 -197.153656 -3.978354
v -15.556441 -105.978836 -9.221573
v -44.654472 -105.978836 -5.070398
v 8.735909 -85.351639 -2.115802
v -45.741924 -85.351639 -1.607951
v 45.348091 -44.813236 3.662117
v -46.294384 -44.813236 1.276568
v -3.170817 -124.275352 -3.978354
v -47.196465 -124.275352 -3.470502
v 25.346195 0.000000 -4.191024
v 21.841156 -44.813236 9.924199
v -10.373084 -85.351639 7.741624
v -25.674953 -105.978836 -4.154114
v -16.046082 -124.275352 1.089106
v -10.651020 -196.543304 1.089106
v -5.565087 0.000000 -3.600582
v -7.632163 -44.813236 5.724672
v -23.184322 -85.351639 2.840155
v -34.045635 -105.978836 -7.164709
v -31.053104 -124.275352 -1.921490
v -26.794205 -196.535568 -1.921490
v -29.439587 0.000000 -5.485805
v -30.396038 -44.813236 3.839450
v -35.897633 -85.351639 0.954931
v -38.757977 -105.978836 -6.150839
v -39.262482 -124.275352 -0.907620
v -39.262482 -196.556488 -0.907620
v -49.517731 -163.722687 0.175714
v -38.180027 -163.732147 2.738596
v -26.469624 -163.720734 1.724727
v -9.097560 -163.724945 4.735322
v 5.215271 -163.719788 -0.332137
v -23.609537 0.000000 2.296719
v -24.837196 -44.813236 11.621976
v -32.949345 -85.351639 8.737454
v -37.607243 -105.978836 0.923738
v -37.257790 -124.275352 6.166959
v -35.320396 -163.729370 9.813174
v -36.217781 -198.096664 6.166959
v -42.213146 -197.490585 4.725236
v -40.948647 -163.729843 8.371453
v -41.199928 -124.275352 4.725236
v -40.197876 -105.978836 -0.517983
v -38.301563 -85.351639 6.587788
v -34.278343 -44.813240 9.472306
v -33.954491 0.000000 0.147052
v 1.624479 0.000000 3.759606
v -0.777048 -44.813236 14.198947
v -19.368687 -85.351639 11.314427
v -32.098724 -105.978836 0.869771
v -27.562662 -124.275352 6.112990
v -22.429106 -163.721710 9.759204
v -23.039507 -198.389130 6.112990
v -28.986008 -198.084534 6.097754
v -28.528202 -163.722733 9.743970
v -32.496235 -124.275352 6.097754
v -34.874020 -105.978836 0.854535
v -25.854864 -85.351639 10.349767
v -13.126707 -44.813236 13.234284
v -11.958867 0.000000 3.097789
v 29.957031 0.000000 0.520986
v 26.237497 -44.813240 13.740373
v -6.799260 -85.351639 10.855855
v -23.782557 -105.978836 -0.144049
v -13.638109 -124.275352 5.099170
v -6.420729 -163.723984 8.745385
v -8.243048 -197.161316 5.099170
v -12.967955 -198.393951 6.210120
v -11.590868 -163.724335 9.856336
v -18.199949 -124.275352 6.210120
v -26.876345 -105.978836 0.966901
v -12.727623 -85.351639 12.591252
v 16.406124 -44.813236 15.475772
v 19.704784 0.000000 2.048024
v -45.478523 -95.560059 -3.470502
v -40.678047 -95.560059 4.725236
v -39.127041 -95.560059 -0.907620
v -37.160320 -95.560059 6.524542
v -32.488964 -95.560059 7.304667
v -31.073172 -95.560059 -0.457161
v -28.746216 -95.560059 7.799457
v -24.398209 -95.560059 8.492452
v -22.962292 -95.560059 3.508513
v -20.755375 -95.560059 7.066092
v -11.162046 -95.560059 -3.978354
v -45.534138 -63.520164 1.257386
v -34.981781 -63.520164 9.453126
v -31.572388 -63.520164 3.820269
v -26.933426 -63.520164 11.602792
v -14.651421 -63.520164 13.215104
v -11.042458 -63.520164 5.705494
v -5.233320 -63.520164 14.179765
v 7.744095 -63.520164 15.456590
v 11.328775 -63.520164 10.606961
v 15.608278 -63.520164 13.721192
v 36.815933 -63.520164 3.642936
v -48.476143 -20.913826 -1.255099
v -34.638107 -20.913826 6.940639
v -30.167122 -20.913826 1.307783
v -24.123968 -20.913826 9.090306
v -11.967131 -20.913826 9.891377
v -5.419944 -20.913826 3.193005
v 2.032421 -20.913826 11.073125
v 20.817654 -20.913826 10.756198
v 26.621235 -20.913826 4.837987
v 31.400606 -20.913826 9.131921
v 52.176208 -20.913826 1.130449
v -48.838852 -144.115250 -0.088853
v -40.729927 -144.118851 8.106886
v -38.109978 -144.120010 2.474029
v -35.401947 -144.118607 9.548608
v -28.969807 -144.115280 9.479405
v -27.020363 -144.114258 1.460159
v -22.830305 -144.114761 9.494641
v -11.590952 -144.116089 9.591767
v -9.005367 -144.116394 4.470755
v -6.176634 -144.115906 8.480817
v 3.825729 -144.113800 -0.596705
v -48.199684 -197.481995 1.741048
v -46.565834 -163.725159 5.387262
v -46.045467 -144.116486 5.122697
v -45.130764 -124.275352 1.741048
v -43.119255 -105.978836 -3.502172
v -43.824848 -95.560059 1.741048
v -43.178852 -85.351639 3.603599
v -41.899036 -63.520164 6.468937
v -42.155067 -44.813240 6.488119
v -43.709183 -20.913826 6.627700
v -43.114674 0.000000 -2.837137
v 50.231575 -2.225479 -0.849208
v 30.110645 -2.225479 5.528304
v 25.481876 -2.225479 0.860782
v 19.823208 -2.225479 7.065691
v 1.667889 -2.225479 8.628865
v -5.549643 -2.225479 1.213349
v -11.959746 -2.225479 7.911718
v -23.664280 -2.225479 7.110649
v -29.517008 -2.225479 -0.671875
v -34.027237 -2.225479 4.960981
v -43.177937 -2.225479 4.648043
v -47.986740 -2.225479 -3.234757
v 1.190277 -197.154419 0.659449
v 4.065860 -163.720215 4.305665
v 2.837689 -144.114014 4.041099
v -4.204782 -124.275352 0.659449
v -16.369022 -105.978836 -4.583770
v -12.109681 -95.560059 0.853743
v 7.201335 -85.351639 2.906665
v 34.978348 -63.520164 8.665402
v 43.460335 -44.813236 8.684583
v 50.123985 -20.913834 5.947770
v 48.244019 -2.225479 3.807700
v 48.020142 0.000000 -1.025336
vt 0.212421 0.995946
vt 0.212421 0.960874
vt 0.201502 0.960874
vt 0.201502 0.995946
vt 0.185696 0.995946
vt 0.185696 0.960874
vt 0.180077 0.960874
vt 0.180077 0.995946
vt 0.168061 0.995946
vt 0.168061 0.960874
vt 0.157764 0.960874
vt 0.157764 0.995946
vt 0.144609 0.995946
vt 0.144609 0.960874
vt 0.133097 0.960874
vt 0.133097 0.995946
vt 0.191431 0.960874
vt 0.191431 0.995946
vt 0.144609 0.995946
vt 0.144609 0.960874
vt 0.133097 0.960874
vt 0.133097 0.995946
vt 0.168061 0.995946
vt 0.168061 0.960874
vt 0.157764 0.960874
vt 0.157764 0.995946
vt 0.185696 0.995946
vt 0.185696 0.960874
vt 0.180077 0.960874
vt 0.180077 0.995946
vt 0.201502 0.995946
vt 0.201502 0.960874
vt 0.191431 0.960874
vt 0.191431 0.995946
vt 0.212421 0.995946
vt 0.212421 0.960874
vt 0.144609 0.995946
vt 0.144609 0.960874
vt 0.133097 0.960874
vt 0.133097 0.995946
vt 0.168061 0.995946
vt 0.168061 0.960874
vt 0.157764 0.960874
vt 0.157764 0.995946
vt 0.185696 0.995946
vt 0.185696 0.960874
vt 0.180077 0.960874
vt 0.180077 0.995946
vt 0.201502 0.995946
vt 0.201502 0.960874
vt 0.191431 0.960874
vt 0.191431 0.995946
vt 0.212421 0.995946
vt 0.212421 0.960874
vt 0.144609 0.943389
vt 0.144609 0.995946
vt 0.133097 0.995946
vt 0.133097 0.943389
vt 0.168061 0.943389
vt 0.168061 0.995946
vt 0.157764 0.995946
vt 0.157764 0.943389
vt 0.185696 0.943389
vt 0.185696 0.995946
vt 0.180077 0.995946
vt 0.180077 0.943389
vt 0.201502 0.943389
vt 0.201502 0.995946
vt 0.191431 0.995946
vt 0.191431 0.943389
vt 0.212421 0.943389
vt 0.212421 0.995946
vt 0.241274 0.943389
vt 0.241274 0.995946
vt 0.223213 0.995946
vt 0.223213 0.943389
vt 0.241274 0.995946
vt 0.241274 0.960874
vt 0.223213 0.960874
vt 0.223213 0.995946
vt 0.241274 0.995946
vt 0.241274 0.960874
vt 0.223213 0.960874
vt 0.223213 0.995946
vt 0.241274 0.995946
vt 0.241274 0.960874
vt 0.223213 0.960874
vt 0.223213 0.995946
vt 0.144609 0.943389
vt 0.133097 0.943389
vt 0.168061 0.943389
vt 0.157764 0.943389
vt 0.185696 0.943389
vt 0.180077 0.943389
vt 0.201502 0.943389
vt 0.191431 0.943389
vt 0.212421 0.943389
vt 0.241274 0.943389
vt 0.223213 0.943389
vt 0.241274 0.960874
vt 0.223213 0.960874
vt 0.201502 0.960874
vt 0.212421 0.960874
vt 0.191431 0.960874
vt 0.180077 0.960874
vt 0.185696 0.960874
vt 0.157764 0.960874
vt 0.168061 0.960874
vt 0.133097 0.960874
vt 0.144609 0.960874
vt 0.144609 0.943389
vt 0.133097 0.943389
vt 0.168061 0.943389
vt 0.157764 0.943389
vt 0.185696 0.943389
vt 0.180077 0.943389
vt 0.201502 0.943389
vt 0.191431 0.943389
vt 0.212421 0.943389
vt 0.241274 0.943389
vt 0.223213 0.943389
vt 0.144609 0.943389
vt 0.133097 0.943389
vt 0.168061 0.943389
vt 0.157764 0.943389
vt 0.185696 0.943389
vt 0.180077 0.943389
vt 0.201502 0.943389
vt 0.191431 0.943389
vt 0.212421 0.943389
vt 0.241274 0.943389
vt 0.223213 0.943389
vt 0.133097 0.960874
vt 0.133097 0.995946
vt 0.133097 0.943389
vt 0.133097 0.960874
vt 0.133097 0.995946
vt 0.133097 0.943389
vt 0.133097 0.960874
vt 0.133097 0.995946
vt 0.133097 0.943389
vt 0.133097 0.960874
vt 0.133097 0.995946
vt 0.241274 0.943463
vt 0.223213 0.943463
vt 0.212421 0.943463
vt 0.201502 0.943463
vt 0.191431 0.943463
vt 0.185696 0.943463
vt 0.180077 0.943463
vt 0.168061 0.943463
vt 0.157764 0.943463
vt 0.144609 0.943463
vt 0.133097 0.943463
vn 0.095628 0.125610 0.987460
vn 0.645366 0.187122 0.740600
vn 0.614615 0.433392 0.659106
vn 0.055722 0.272913 0.960424
vn 0.111054 -0.498185 0.859929
vn 0.451977 -0.740759 0.496983
vn 0.401358 -0.667248 0.627448
vn 0.129373 -0.441153 0.888058
vn 0.155848 -0.304087 0.939810
vn 0.449277 -0.432266 0.781854
vn 0.421427 -0.062182 0.904728
vn 0.059557 0.043708 0.997268
vn -0.008690 0.151862 0.988364
vn 0.405458 0.081807 0.910446
vn 0.293976 0.336829 0.894497
vn -0.100928 0.329266 0.938828
vn 0.702094 0.174365 0.690407
vn -0.080674 -0.132409 0.987907
vn -0.276890 0.162040 0.947140
vn 0.267642 0.144544 0.952615
vn 0.262451 0.345283 0.901054
vn -0.241334 0.303533 0.921751
vn -0.441160 0.128382 0.888198
vn 0.249134 -0.252969 0.934847
vn 0.218600 0.031915 0.975293
vn -0.346867 0.136246 0.927966
vn -0.753177 0.172885 0.634693
vn 0.316781 -0.601517 0.733367
vn 0.211452 -0.387103 0.897463
vn -0.624689 0.278911 0.729364
vn -0.553037 0.062735 0.830791
vn 0.386663 0.338010 0.858045
vn 0.509329 0.122604 0.851794
vn -0.774438 0.001501 0.632649
vn -0.447580 0.031318 0.893695
vn 0.381895 0.141041 0.913381
vn -0.441286 0.110944 0.890482
vn 0.318193 0.095099 0.943244
vn 0.294012 0.260394 0.919648
vn -0.412727 0.262923 0.872083
vn -0.501799 0.033128 0.864350
vn 0.418539 -0.209048 0.883812
vn 0.316812 0.033366 0.947901
vn -0.450384 0.081417 0.889115
vn -0.778083 -0.040011 0.626886
vn 0.545179 -0.526950 0.652000
vn 0.382086 -0.374396 0.844889
vn -0.634650 0.061914 0.770316
vn -0.717759 0.115964 0.686567
vn 0.752907 0.256245 0.606193
vn 0.870941 -0.027916 0.490594
vn -0.844150 -0.007294 0.536057
vn -0.604327 0.047123 0.795341
vn 0.708539 0.130495 0.693501
vn -0.841167 0.022233 0.540318
vn -0.524970 0.048899 0.849715
vn -0.480916 0.278923 0.831217
vn -0.845956 0.142334 0.513906
vn -0.833303 -0.030657 0.551966
vn -0.621783 -0.033224 0.782485
vn -0.551952 -0.000133 0.833876
vn -0.817350 -0.031291 0.575291
vn -0.910778 -0.120029 0.395066
vn -0.792939 -0.172930 0.584245
vn -0.716571 -0.055699 0.695287
vn -0.883950 -0.042375 0.465657
vn -0.886282 0.155793 0.436158
vn -0.753856 0.181348 0.631517
vn -0.797818 0.050511 0.600779
vn -0.889362 0.058455 0.453451
vn -0.888834 0.082647 0.450715
vn -0.720324 0.083761 0.688562
vn -0.863501 -0.010333 0.504242
vn -0.682265 -0.045934 0.729661
vn -0.678324 -0.021106 0.734460
vn -0.867838 0.004811 0.496824
vn -0.559481 -0.071642 0.825741
vn 0.639390 -0.088935 0.763722
vn 0.659381 -0.046638 0.750361
vn -0.564689 -0.042751 0.824196
vn -0.472929 -0.086230 0.876871
vn 0.313312 -0.113298 0.942867
vn 0.352026 -0.066099 0.933653
vn -0.467035 -0.053700 0.882607
vn 0.035871 -0.117076 0.992475
vn 0.634337 -0.133362 0.761467
vn 0.635089 -0.069810 0.769278
vn 0.050457 -0.065609 0.996569
vn -0.795681 0.082904 0.600015
vn -0.765602 0.270947 0.583473
vn -0.866848 0.118118 0.484379
vn -0.814410 0.076175 0.575269
vn -0.966696 0.054864 0.249977
vn -0.901794 0.199236 0.383500
vn -0.964385 0.027712 0.263049
vn -0.976543 0.009051 0.215133
vn -0.940447 -0.007307 0.339862
vn -0.923332 -0.014440 0.383730
vn -0.925927 -0.007765 0.377624
vn 0.244394 -0.110468 0.963363
vn 0.891462 -0.080260 0.445931
vn 0.895931 -0.052049 0.441133
vn 0.295254 -0.064978 0.953207
vn 0.364658 0.217033 0.905495
vn 0.325958 0.094417 0.940658
vn 0.914199 0.052282 0.401880
vn 0.942218 0.070177 0.327567
vn 0.523886 0.011124 0.851716
vn 0.960808 -0.000444 0.277213
vn 0.297108 -0.223007 0.928437
vn 0.339124 -0.348675 0.873739
vn 0.941157 -0.183987 0.283499
vn 0.881013 -0.241794 0.406635
vn 0.275575 0.026696 0.960909
vn 0.274005 -0.106533 0.955810
vn 0.858581 -0.131872 0.495428
vn 0.818303 0.021126 0.574399
vn 0.345787 0.285104 0.893951
vn 0.325013 0.073334 0.942862
vn 0.792123 0.053026 0.608054
vn 0.758768 0.240388 0.605380
vn -0.733806 0.118355 0.668971
vn -0.692512 0.277649 0.665837
vn -0.798230 0.321303 0.509502
vn -0.764841 0.159863 0.624069
vn -0.911435 0.308312 0.272452
vn -0.789132 0.482456 0.380140
vn -0.922857 -0.112684 0.368289
vn -0.953248 -0.033378 0.300340
vn -0.894191 -0.074721 0.441405
vn -0.900741 -0.034312 0.432999
vn -0.896992 -0.027594 0.441184
vn 0.966829 -0.038669 0.252481
vn 0.968370 -0.015304 0.249050
vn 0.966626 0.127477 0.222226
vn 0.965602 0.198442 0.168026
vn 0.989853 0.022085 0.140369
vn 0.873085 -0.457865 0.167577
vn 0.799116 -0.523445 0.295668
vn 0.847010 -0.309320 0.432315
vn 0.800689 -0.028274 0.598413
vn 0.741516 0.049428 0.669112
vn 0.690392 0.281237 0.666532
vn -0.662477 0.195799 0.723040
vn -0.656075 0.324297 0.681467
vn -0.562762 0.426867 0.707873
vn -0.612948 0.309705 0.726896
vn -0.838578 0.142637 0.525777
vn -0.586439 0.533178 0.609763
vn -0.830102 -0.276744 0.484091
vn -0.850734 -0.258626 0.457564
vn -0.826568 -0.109178 0.552147
vn -0.845006 -0.015779 0.534524
vn -0.837796 -0.004806 0.545962
vn 0.907698 -0.083843 0.411162
vn 0.904412 -0.052590 0.423407
vn 0.885283 0.190588 0.424206
vn 0.840934 0.426265 0.333360
vn 0.919102 0.273605 0.283535
vn 0.754388 -0.612721 0.235525
vn 0.622813 -0.703723 0.341875
vn 0.689351 -0.498815 0.525336
vn 0.722715 -0.108540 0.682570
vn 0.717301 0.096413 0.690061
vn 0.676338 0.372622 0.635390
vn 0.074306 0.909672 0.408626
vn -0.083930 0.907994 0.410492
vn -0.388031 0.838643 0.382242
vn 0.166215 0.901561 0.399450
vn 0.398954 0.842370 0.362281
vn -0.125637 0.903317 0.410164
vn -0.395454 0.833630 0.385588
vn 0.171705 0.894359 0.413085
vn 0.401577 0.831523 0.383805
vn -0.251415 0.879804 0.403405
vn -0.482430 0.797586 0.362101
vn 0.136837 0.920618 0.365703
vn 0.469898 0.798428 0.376442
vn -0.168201 0.932619 0.319265
vn 0.967523 -0.109720 0.227730
vn 0.972721 -0.046651 0.227241
vn 0.951001 0.224077 0.213044
vn 0.857445 0.482568 0.178650
vn 0.936179 0.300553 0.182311
vn 0.636191 -0.759106 0.137912
vn 0.537935 -0.826077 0.167996
vn 0.715855 -0.650815 0.252967
vn 0.892396 -0.288503 0.346980
vn 0.923179 -0.050932 0.380980
vn 0.905744 0.174521 0.386225
f 118/1/1 145/2/2 146/3/3 66/4/4
f 85/5/5 148/6/6 149/7/7 64/8/8
f 96/9/9 150/10/10 151/11/11 63/12/12
f 107/13/13 152/14/14 153/15/15 132/16/16
f 66/4/4 146/3/3 147/17/17 65/18/18
f 104/19/19 105/20/20 134/21/21 135/22/22
f 93/23/23 94/24/24 74/25/25 49/26/26
f 82/27/27 83/28/28 73/29/29 50/30/30
f 52/31/31 71/32/32 72/33/33 51/34/34
f 115/35/35 116/36/36 71/32/32 52/31/31
f 101/37/37 102/38/38 137/39/39 138/40/40
f 90/41/41 91/42/42 60/43/43 35/44/44
f 79/45/45 80/46/46 59/47/47 36/48/48
f 38/49/49 57/50/50 58/51/51 37/52/52
f 112/53/53 113/54/54 57/50/50 38/49/49
f 98/55/55 129/56/56 141/57/57 142/58/58
f 87/59/59 127/60/60 128/61/61 8/62/62
f 76/63/63 125/64/64 126/65/65 6/66/66
f 10/67/67 123/68/68 124/69/69 4/70/70
f 109/71/71 122/72/72 123/68/68 10/67/67
f 1/73/73 120/74/74 121/75/75 29/76/76
f 40/77/77 55/78/78 56/79/79 39/80/80
f 54/81/81 69/82/82 70/83/83 53/84/84
f 68/85/85 143/86/86 144/87/87 67/88/88
f 100/89/89 101/37/37 138/40/40 139/90/90
f 89/91/91 90/41/41 35/44/44 24/92/92
f 78/93/93 79/45/45 36/48/48 25/94/94
f 27/95/95 38/49/49 37/52/52 26/96/96
f 111/97/97 112/53/53 38/49/49 27/95/95
f 28/98/98 40/77/77 39/80/80 30/99/99
f 41/100/100 28/98/101 30/99/102 42/101/103
f 43/102/104 110/103/105 111/97/106 27/95/107
f 44/104/108 43/102/104 27/95/107 26/96/109
f 45/105/110 77/106/111 78/93/112 25/94/113
f 46/107/114 88/108/115 89/91/116 24/92/117
f 140/109/118 99/110/119 100/89/120 139/90/121
f 103/111/122 104/19/19 135/22/22 136/112/123
f 92/113/124 93/23/23 49/26/26 18/114/125
f 81/115/126 82/27/27 50/30/30 19/116/127
f 21/117/128 52/31/31 51/34/34 20/118/129
f 114/119/130 115/35/35 52/31/31 21/117/128
f 22/120/131 54/81/81 53/84/84 31/121/132
f 55/78/78 22/120/133 31/121/134 56/79/79
f 57/50/50 113/54/54 114/119/135 21/117/136
f 58/51/51 57/50/50 21/117/136 20/118/137
f 59/47/47 80/46/46 81/115/138 19/116/139
f 60/43/43 91/42/42 92/113/140 18/114/141
f 137/39/39 102/38/38 103/111/142 136/112/143
f 106/122/144 107/13/13 132/16/16 133/123/145
f 95/124/146 96/9/9 63/12/12 12/125/147
f 84/126/148 85/5/5 64/8/8 13/127/149
f 15/128/150 66/4/4 65/18/18 14/129/151
f 117/130/152 118/1/1 66/4/4 15/128/150
f 16/131/153 68/85/85 67/88/88 32/132/154
f 69/82/82 16/131/155 32/132/156 70/83/83
f 71/32/32 116/36/36 117/130/157 15/128/158
f 72/33/33 71/32/32 15/128/158 14/129/159
f 73/29/29 83/28/28 84/126/160 13/127/161
f 74/25/25 94/24/24 95/124/162 12/125/163
f 134/21/21 105/20/20 106/122/164 133/123/165
f 4/70/70 124/69/69 125/64/64 76/63/63
f 78/93/112 77/106/111 44/104/108 26/96/109
f 26/96/96 37/52/52 79/45/45 78/93/93
f 37/52/52 58/51/51 80/46/46 79/45/45
f 81/115/138 80/46/46 58/51/51 20/118/137
f 20/118/129 51/34/34 82/27/27 81/115/126
f 51/34/34 72/33/33 83/28/28 82/27/27
f 84/126/160 83/28/28 72/33/33 14/129/159
f 14/129/151 65/18/18 85/5/5 84/126/148
f 65/18/18 147/17/17 148/6/6 85/5/5
f 6/66/66 126/65/65 127/60/60 87/59/59
f 89/91/116 88/108/115 45/105/110 25/94/113
f 25/94/94 36/48/48 90/41/41 89/91/91
f 36/48/48 59/47/47 91/42/42 90/41/41
f 92/113/140 91/42/42 59/47/47 19/116/139
f 19/116/127 50/30/30 93/23/23 92/113/124
f 50/30/30 73/29/29 94/24/24 93/23/23
f 95/124/162 94/24/24 73/29/29 13/127/161
f 13/127/149 64/8/8 96/9/9 95/124/146
f 64/8/8 149/7/7 150/10/10 96/9/9
f 8/62/62 128/61/61 129/56/56 98/55/55
f 100/89/120 99/110/119 46/107/114 24/92/117
f 24/92/92 35/44/44 101/37/37 100/89/89
f 35/44/44 60/43/43 102/38/38 101/37/37
f 103/111/142 102/38/38 60/43/43 18/114/141
f 18/114/125 49/26/26 104/19/19 103/111/122
f 49/26/26 74/25/25 105/20/20 104/19/19
f 106/122/164 105/20/20 74/25/25 12/125/163
f 12/125/147 63/12/12 107/13/13 106/122/144
f 63/12/12 151/11/11 152/14/14 107/13/13
f 29/76/76 121/75/75 122/72/72 109/71/71
f 111/97/106 110/103/105 42/101/103 30/99/102
f 30/99/99 39/80/80 112/53/53 111/97/97
f 39/80/80 56/79/79 113/54/54 112/53/53
f 114/119/135 113/54/54 56/79/79 31/121/134
f 31/121/132 53/84/84 115/35/35 114/119/130
f 53/84/84 70/83/83 116/36/36 115/35/35
f 117/130/157 116/36/36 70/83/83 32/132/156
f 32/132/154 67/88/88 118/1/1 117/130/152
f 67/88/88 144/87/87 145/2/2 118/1/1
f 120/74/74 41/100/100 42/101/103 121/75/75
f 122/72/72 121/75/75 42/101/103 110/103/105
f 123/68/68 122/72/72 110/103/105 43/102/104
f 124/69/69 123/68/68 43/102/104 44/104/108
f 125/64/64 124/69/69 44/104/108 77/106/111
f 126/65/65 125/64/64 77/106/111 45/105/110
f 127/60/60 126/65/65 45/105/110 88/108/115
f 128/61/61 127/60/60 88/108/115 46/107/114
f 129/56/56 128/61/61 46/107/114 99/110/119
f 141/57/57 129/56/56 99/110/119 140/109/118
f 132/16/16 153/15/15 154/133/166 62/134/167
f 133/123/145 132/16/16 62/134/167 11/135/168
f 75/136/169 134/21/21 133/123/165 11/135/170
f 135/22/22 134/21/21 75/136/169 48/137/171
f 136/112/123 135/22/22 48/137/171 17/138/172
f 61/139/173 137/39/39 136/112/143 17/138/174
f 138/40/40 137/39/39 61/139/173 34/140/175
f 139/90/90 138/40/40 34/140/175 23/141/176
f 47/142/177 140/109/118 139/90/121 23/141/178
f 130/143/179 141/57/57 140/109/118 47/142/177
f 142/58/58 141/57/57 130/143/179
f 143/86/86 2/144/180 33/145/181 144/87/87
f 145/2/2 144/87/87 33/145/181 119/146/182
f 146/3/3 145/2/2 119/146/182 9/147/183
f 147/17/17 146/3/3 9/147/183 3/148/184
f 148/6/6 147/17/17 3/148/184 86/149/185
f 149/7/7 148/6/6 86/149/185 5/150/186
f 150/10/10 149/7/7 5/150/186 97/151/187
f 151/11/11 150/10/10 97/151/187 7/152/188
f 152/14/14 151/11/11 7/152/188 108/153/189
f 153/15/15 152/14/14 108/153/189 131/154/190
f 154/133/166 153/15/15 131/154/190
