# This file uses meters as units for non-parametric coordinates.

v 130.115265 -0.000001 4.180524
v 132.479736 -0.000002 9.224812
v 134.844238 -0.000002 4.230209
v 137.208710 -0.000004 9.568474
v 139.573181 -0.000004 4.260450
v 141.937683 -0.000004 10.695982
v 144.302170 -0.000004 4.264992
v 146.666656 -0.000004 10.701008
v 149.031128 -0.000004 4.242905
v 151.395630 -0.000004 10.563469
v 153.760117 -0.000006 4.199451
v 156.124603 -0.000006 9.481819
v 155.104523 -0.000006 4.180527
v 121.696014 -11.783102 3.955762
v 123.847145 -13.887432 9.258545
v 125.072289 -15.052074 4.334683
v 127.559616 -17.280060 10.252284
v 130.376007 -19.791071 5.839416
v 132.052521 -21.459778 12.402077
v 133.935120 -23.062180 6.677958
v 136.362915 -25.530708 13.165195
v 138.210678 -28.058640 6.409321
v 139.946182 -30.384834 12.733692
v 141.292313 -32.698322 5.198900
v 142.728302 -34.537853 10.682575
v 143.940521 -36.411087 4.554100
v 95.438354 -19.112095 -2.336189
v 95.438354 -22.748091 2.925358
v 95.438354 -25.877529 -2.131828
v 95.438354 -29.350262 3.344975
v 95.438354 -32.399734 -2.166527
v 95.438354 -36.119877 4.326168
v 95.438354 -38.680191 -2.403816
v 95.438354 -42.110321 4.045963
v 95.438354 -44.873924 -2.588837
v 95.438354 -47.750084 3.563309
v 95.438354 -49.718006 -2.894840
v 95.438354 -52.052883 2.216396
v 95.438354 -54.089546 -3.197304
v 108.767349 -18.027208 1.442657
v 110.665886 -21.053699 6.583151
v 112.115944 -23.188580 1.593710
v 114.000153 -26.150600 7.032207
v 115.708862 -29.289185 1.700708
v 116.508926 -32.120014 7.973003
v 117.364220 -34.446819 1.223956
v 119.654663 -37.971375 7.450063
v 120.809402 -40.698647 0.601330
v 122.010101 -43.129700 6.665329
v 122.877731 -45.650387 0.068965
v 124.103607 -47.197849 5.282171
v 125.083786 -49.007935 -0.103703
v 130.276733 -4.792215 4.675974
v 132.358124 -4.716401 9.726969
v 134.068253 -4.616600 10.421746
v 136.243423 -4.478107 10.070408
v 138.624222 -4.304166 10.443867
v 140.466766 -4.316239 11.193844
v 142.545624 -4.101856 10.434105
v 144.834808 -4.046653 11.171322
v 146.869812 -4.346179 10.450718
v 148.986969 -4.487625 11.088264
v 151.046860 -4.856766 10.462967
v 153.156967 -4.721712 10.016754
v 155.245728 -4.741178 4.667263
v 130.226181 -3.292176 4.485755
v 132.396194 -3.240090 9.536319
v 134.311157 -3.171530 10.234633
v 136.545563 -3.076390 9.883907
v 138.921265 -2.956891 10.262039
v 140.927185 -2.965188 11.005169
v 143.095444 -2.817913 10.257366
v 145.408203 -2.779988 10.998337
v 147.546356 -2.985761 10.257362
v 149.740921 -3.082929 10.885841
v 151.896149 -3.336519 10.239258
v 154.085876 -3.243743 9.804287
v 155.201538 -3.257112 4.482342
v 67.029564 -13.887424 2.074722
v 69.180687 -11.783096 -3.031097
v 60.599968 -4.792206 -2.147270
v 58.518578 -4.716393 2.878090
v 65.804413 -15.052067 -3.337273
v 56.808449 -4.616590 3.556610
v 63.317078 -17.280052 2.001480
v 54.633286 -4.478099 3.183151
v 60.500702 -19.791063 -3.999695
v 52.252480 -4.304155 3.556610
v 58.824192 -21.459772 2.505966
v 50.409943 -4.316227 4.299744
v 56.941586 -23.062172 -4.558838
v 48.331078 -4.101845 3.556610
v 54.513798 -25.530693 1.857117
v 46.041901 -4.046641 4.315689
v 52.666023 -28.058628 -5.386063
v 44.006893 -4.346167 3.556610
v 50.930519 -30.384823 1.076584
v 41.889740 -4.487614 4.207825
v 49.584389 -32.698315 -5.906631
v 39.829838 -4.856755 3.556610
v 48.148396 -34.537846 -0.330017
v 37.719749 -4.721699 3.171265
v 46.936184 -36.411079 -6.062164
v 35.630978 -4.741165 -2.147263
v 82.109360 -18.027203 -3.688545
v 80.210815 -21.053699 0.805725
v 78.760765 -23.188574 -4.593338
v 76.876526 -26.150600 0.359482
v 75.167847 -29.289179 -5.252670
v 74.367783 -32.120003 1.156273
v 73.512474 -34.446812 -5.368248
v 71.222031 -37.971367 0.988083
v 70.067307 -40.698643 -5.591270
v 68.866592 -43.129692 0.709427
v 67.998978 -45.650383 -5.722389
v 66.773102 -47.197838 -0.436722
v 65.792923 -49.007935 -5.779610
v 60.650520 -3.292169 -2.147263
v 58.480507 -3.240083 2.878082
v 56.565552 -3.171522 3.556610
v 54.331127 -3.076381 3.183151
v 51.955441 -2.956881 3.556610
v 49.949516 -2.965177 4.299744
v 47.781254 -2.817901 3.556610
v 45.468506 -2.779977 4.315689
v 43.330360 -2.985747 3.556610
v 41.135792 -3.082916 4.207825
v 38.980553 -3.336507 3.556610
v 36.790833 -3.243731 3.171265
v 35.675171 -3.257097 -2.147263
v 60.761452 0.000005 -2.147270
v 58.396965 0.000005 2.878090
v 56.032471 0.000005 -2.147263
v 53.667992 0.000008 3.183151
v 51.303509 0.000007 -2.147263
v 48.939030 0.000007 4.299744
v 46.574532 0.000007 -2.147263
v 44.210049 0.000008 4.315689
v 41.845566 0.000007 -2.147263
v 39.481087 0.000008 4.207825
v 37.116592 0.000009 -2.147263
v 34.752106 0.000009 3.171265
v 35.772179 0.000009 -2.147263
vt 0.243285 0.944030
vt 0.243285 0.993940
vt 0.243285 0.944030
vt 0.243285 0.993940
vt 0.243285 0.944030
vt 0.243285 0.993940
vt 0.243285 0.944030
vt 0.243285 0.993940
vt 0.243285 0.944030
vt 0.243285 0.993940
vt 0.243285 0.944030
vt 0.243285 0.993940
vt 0.243285 0.944030
vt 0.188166 0.944030
vt 0.188166 0.993940
vt 0.188166 0.944030
vt 0.188166 0.993940
vt 0.188166 0.944030
vt 0.188166 0.993940
vt 0.188166 0.944030
vt 0.188166 0.993940
vt 0.188166 0.944030
vt 0.188166 0.993940
vt 0.188166 0.944030
vt 0.188166 0.993940
vt 0.188166 0.944030
vt 0.131329 0.944030
vt 0.131329 0.993940
vt 0.131329 0.944030
vt 0.131329 0.993940
vt 0.131329 0.944030
vt 0.131329 0.993940
vt 0.131329 0.944030
vt 0.131329 0.993940
vt 0.131329 0.944030
vt 0.131329 0.993940
vt 0.131329 0.944030
vt 0.131329 0.993940
vt 0.131329 0.944030
vt 0.162153 0.944030
vt 0.162153 0.993940
vt 0.162153 0.944030
vt 0.162153 0.993940
vt 0.162153 0.944030
vt 0.162153 0.993940
vt 0.162153 0.944030
vt 0.162153 0.993940
vt 0.162153 0.944030
vt 0.162153 0.993940
vt 0.162153 0.944030
vt 0.162153 0.993940
vt 0.162153 0.944030
vt 0.218616 0.944030
vt 0.218616 0.993940
vt 0.218616 0.944030
vt 0.218616 0.993940
vt 0.218616 0.944030
vt 0.218616 0.993940
vt 0.218616 0.944030
vt 0.218616 0.993940
vt 0.218616 0.944030
vt 0.218616 0.993940
vt 0.218616 0.944030
vt 0.218616 0.993940
vt 0.218616 0.944030
vt 0.226338 0.944030
vt 0.226338 0.993940
vt 0.226338 0.944030
vt 0.226338 0.993940
vt 0.226338 0.944030
vt 0.226338 0.993940
vt 0.226338 0.944030
vt 0.226338 0.993940
vt 0.226338 0.944030
vt 0.226338 0.993940
vt 0.226338 0.944030
vt 0.226338 0.993940
vt 0.226338 0.944030
vt 0.188166 0.993940
vt 0.188166 0.944030
vt 0.218616 0.944030
vt 0.218616 0.993940
vt 0.188166 0.944030
vt 0.218616 0.944030
vt 0.188166 0.993940
vt 0.218616 0.993940
vt 0.188166 0.944030
vt 0.218616 0.944030
vt 0.188166 0.993940
vt 0.218616 0.993940
vt 0.188166 0.944030
vt 0.218616 0.944030
vt 0.188166 0.993940
vt 0.218616 0.993940
vt 0.188166 0.944030
vt 0.218616 0.944030
vt 0.188166 0.993940
vt 0.218616 0.993940
vt 0.188166 0.944030
vt 0.218616 0.944030
vt 0.188166 0.993940
vt 0.218616 0.993940
vt 0.188166 0.944030
vt 0.218616 0.944030
vt 0.131329 0.993940
vt 0.131329 0.944030
vt 0.162153 0.944030
vt 0.162153 0.993940
vt 0.131329 0.944030
vt 0.162153 0.944030
vt 0.131329 0.993940
vt 0.162153 0.993940
vt 0.131329 0.944030
vt 0.162153 0.944030
vt 0.131329 0.993940
vt 0.162153 0.993940
vt 0.131329 0.944030
vt 0.162153 0.944030
vt 0.131329 0.993940
vt 0.162153 0.993940
vt 0.131329 0.944030
vt 0.162153 0.944030
vt 0.131329 0.993940
vt 0.162153 0.993940
vt 0.131329 0.944030
vt 0.162153 0.944030
vt 0.131329 0.993940
vt 0.162153 0.993940
vt 0.131329 0.944030
vt 0.162153 0.944030
vt 0.226338 0.944030
vt 0.226338 0.993940
vt 0.226338 0.944030
vt 0.226338 0.993940
vt 0.226338 0.944030
vt 0.226338 0.993940
vt 0.226338 0.944030
vt 0.226338 0.993940
vt 0.226338 0.944030
vt 0.226338 0.993940
vt 0.226338 0.944030
vt 0.226338 0.993940
vt 0.226338 0.944030
vt 0.243285 0.944030
vt 0.243285 0.993940
vt 0.243285 0.944030
vt 0.243285 0.993940
vt 0.243285 0.944030
vt 0.243285 0.993940
vt 0.243285 0.944030
vt 0.243285 0.993940
vt 0.243285 0.944030
vt 0.243285 0.993940
vt 0.243285 0.944030
vt 0.243285 0.993940
vt 0.243285 0.944030
vn -0.215437 0.043288 0.975558
vn -0.251198 0.015126 0.967817
vn -0.686625 0.607207 0.399808
vn -0.536287 0.692487 0.482553
vn 0.437860 -0.793468 0.422714
vn 0.441153 -0.593876 0.672826
vn -0.089512 -0.153924 0.984020
vn 0.166631 -0.217443 0.961745
vn -0.639755 0.326196 0.695923
vn -0.580400 0.588791 0.562549
vn 0.373123 -0.649190 0.662821
vn 0.401536 -0.350872 0.845966
vn -0.009866 -0.191863 0.981372
vn 0.327276 -0.200964 0.923311
vn -0.797522 0.360357 0.483841
vn -0.668602 0.622013 0.407519
vn 0.561193 -0.708852 0.427307
vn 0.730847 -0.370555 0.573194
vn 0.059624 -0.188908 0.980183
vn 0.309217 -0.130094 0.942051
vn -0.746803 0.292601 0.597218
vn -0.668045 0.504436 0.547047
vn 0.573693 -0.676368 0.461955
vn 0.774640 -0.313148 0.549428
vn 0.147514 -0.221137 0.964022
vn 0.338045 -0.158859 0.927626
vn -0.795538 0.261710 0.546468
vn -0.711657 0.521975 0.470198
vn 0.616242 -0.676703 0.402887
vn 0.821864 -0.314368 0.475093
vn 0.500499 -0.285106 0.817444
vn 0.744691 -0.274264 0.608453
vn -0.752698 0.216764 0.621658
vn -0.691389 0.532122 0.488701
vn 0.729110 -0.588990 0.348553
vn 0.898965 -0.310923 0.308527
vn -0.182515 -0.179632 0.966654
vn -0.136959 -0.207865 0.968522
vn -0.323548 0.770719 0.548916
vn -0.095552 0.820045 0.564266
vn -0.097220 -0.879377 0.466094
vn 0.192009 -0.877819 0.438824
vn -0.169830 -0.194144 0.966160
vn -0.158035 -0.207706 0.965341
vn -0.368282 0.766463 0.526215
vn -0.081502 0.841376 0.534269
vn -0.099348 -0.857838 0.504225
vn 0.165518 -0.823861 0.542085
vn -0.146130 -0.203516 0.968105
vn -0.092311 -0.240514 0.966246
vn -0.383239 0.818948 0.427143
vn -0.060172 0.885265 0.461179
vn -0.067795 -0.933193 0.352923
vn 0.250032 -0.900915 0.354734
vn -0.121585 -0.211720 0.969738
vn -0.093877 -0.319928 0.942779
vn -0.384491 0.765051 0.516589
vn -0.053154 0.864477 0.499854
vn -0.057897 -0.918355 0.391501
vn 0.244482 -0.883917 0.398648
vn -0.102039 -0.208278 0.972732
vn -0.065216 -0.326229 0.943038
vn -0.377118 0.826732 0.417488
vn -0.034021 0.912647 0.407330
vn -0.044274 -0.940859 0.335894
vn 0.261725 -0.901659 0.344254
vn -0.090200 -0.206827 0.974211
vn -0.080683 -0.294910 0.952113
vn -0.347888 0.858112 0.377649
vn -0.026528 0.930250 0.365965
vn -0.041534 -0.936328 0.348663
vn 0.265196 -0.898165 0.350672
vn -0.650379 0.266732 0.711239
vn -0.914392 0.037899 0.403053
vn 0.439179 0.506013 0.742342
vn -0.128161 0.609511 0.782350
vn -0.447462 0.563019 0.694829
vn 0.500109 0.467529 0.728909
vn -0.192412 0.614675 0.764952
vn -0.642691 0.582312 0.497856
vn 0.781685 0.232376 0.578766
vn -0.143869 0.656190 0.740754
vn -0.570878 0.648328 0.503756
vn 0.795935 0.149801 0.586555
vn -0.133034 0.631321 0.764026
vn -0.548870 0.660586 0.512219
vn 0.791574 0.063902 0.607723
vn 0.596868 0.438057 0.672201
vn -0.357323 0.627186 0.692068
vn 0.957501 -0.274248 0.089336
vn -0.518411 0.366534 0.772595
vn -0.911712 0.034825 0.409350
vn 0.594490 0.534557 0.600692
vn 0.004318 0.712272 0.701891
vn -0.574657 0.633772 0.517787
vn 0.618085 0.500221 0.606424
vn 0.051026 0.696295 0.715940
vn -0.668447 0.622077 0.407674
vn 0.815446 0.254075 0.520091
vn 0.127028 0.700288 0.702468
vn -0.600240 0.699694 0.387480
vn 0.837708 0.169682 0.519090
vn 0.178141 0.642968 0.744888
vn -0.583014 0.711394 0.392446
vn 0.839406 0.073590 0.538500
vn 0.731274 0.439731 0.521416
vn -0.499767 0.736756 0.455439
vn 0.958369 -0.285390 0.008982
vn 0.092688 -0.046862 0.994592
vn 0.507690 0.699092 0.503509
vn 0.689348 0.598385 0.408331
vn 0.178641 -0.117283 0.976899
vn -0.470878 -0.789824 0.393004
vn -0.457048 -0.637206 0.620544
vn -0.072925 -0.284338 0.955947
vn 0.546697 0.577001 0.606788
vn 0.630903 0.240359 0.737691
vn -0.277074 -0.395526 0.875665
vn -0.455535 -0.676477 0.578677
vn -0.470793 -0.487956 0.735019
vn -0.129969 -0.277926 0.951770
vn 0.651987 0.635159 0.414108
vn 0.826158 0.287258 0.484712
vn -0.409639 -0.393114 0.823199
vn -0.602551 -0.701040 0.381412
vn -0.734046 -0.466898 0.493136
vn -0.129689 -0.209213 0.969232
vn 0.639007 0.528396 0.558988
vn 0.786516 0.182210 0.590078
vn -0.271185 -0.303110 0.913555
vn -0.613510 -0.654325 0.442114
vn -0.743365 -0.408403 0.529732
vn -0.119530 -0.186867 0.975086
vn 0.699760 0.535782 0.472518
vn 0.833239 0.174362 0.524700
vn -0.183197 -0.271855 0.944740
vn -0.632934 -0.654650 0.413314
vn -0.772446 -0.382936 0.506643
vn -0.476298 -0.262801 0.839092
vn 0.683183 0.539182 0.492487
vn 0.785443 0.142456 0.602317
vn -0.666581 -0.339099 0.663838
vn -0.739654 -0.572134 0.354365
vn -0.881448 -0.346632 0.320773
vn 0.193729 0.795179 0.574595
vn -0.125817 -0.236520 0.963446
vn -0.326400 -0.850534 0.412376
vn 0.254652 0.792208 0.554580
vn -0.112965 -0.234358 0.965565
vn -0.326241 -0.791888 0.516217
vn 0.309362 0.850283 0.425810
vn -0.170203 -0.191358 0.966650
vn -0.371509 -0.861647 0.345754
vn 0.291146 0.807676 0.512732
vn -0.124869 -0.215201 0.968554
vn -0.368711 -0.838176 0.401887
vn 0.317830 0.854720 0.410411
vn -0.119064 -0.190041 0.974530
vn -0.357451 -0.863978 0.354642
vn 0.302133 0.877550 0.372320
vn -0.089426 -0.176910 0.980156
vn -0.351575 -0.864686 0.358766
vn 0.914495 -0.003835 0.404579
vn 0.666021 0.189135 0.721556
vn -0.471213 0.443581 0.762361
vn 0.460563 0.508046 0.727854
vn 0.128007 0.547885 0.826702
vn -0.525818 0.399504 0.750941
vn 0.663226 0.541861 0.516254
vn 0.200621 0.561182 0.803011
vn -0.792164 0.168200 0.586673
vn 0.594011 0.610677 0.523665
vn 0.153712 0.608676 0.778387
vn -0.800791 0.083837 0.593048
vn 0.574230 0.622831 0.531358
vn 0.148258 0.579731 0.801207
vn -0.790079 -0.001678 0.613002
vn 0.387868 0.577470 0.718392
vn -0.625310 0.371856 0.686083
vn -0.953654 -0.284844 0.096992
vn 0.911511 -0.003822 0.411259
vn 0.524200 0.301849 0.796305
vn -0.617893 0.488596 0.616022
vn 0.590659 0.602803 0.536424
vn -0.013202 0.673894 0.738711
vn -0.640181 0.449463 0.623019
vn 0.686387 0.595177 0.417895
vn -0.059847 0.653798 0.754299
vn -0.826779 0.201153 0.525333
vn 0.619012 0.677458 0.397335
vn -0.136654 0.658558 0.740018
vn -0.844357 0.115777 0.523122
vn 0.602731 0.689422 0.401762
vn -0.185547 0.594927 0.782070
vn -0.840483 0.020407 0.541453
vn 0.520941 0.714194 0.467490
vn -0.743570 0.401753 0.534508
vn -0.958133 -0.286182 0.008970
f 15/15/1 54/54/2 53/53/3 14/14/4
f 16/16/5 55/55/6 54/54/2 15/15/1
f 17/17/7 56/56/8 55/55/9 16/16/10
f 18/18/11 57/57/12 56/56/8 17/17/7
f 19/19/13 58/58/14 57/57/15 18/18/16
f 20/20/17 59/59/18 58/58/14 19/19/13
f 21/21/19 60/60/20 59/59/21 20/20/22
f 22/22/23 61/61/24 60/60/20 21/21/19
f 23/23/25 62/62/26 61/61/27 22/22/28
f 24/24/29 63/63/30 62/62/26 23/23/25
f 25/25/31 64/64/32 63/63/33 24/24/34
f 26/26/35 65/65/36 64/64/32 25/25/31
f 28/28/37 41/41/38 40/40/39 27/27/40
f 29/29/41 42/42/42 41/41/38 28/28/37
f 30/30/43 43/43/44 42/42/45 29/29/46
f 31/31/47 44/44/48 43/43/44 30/30/43
f 32/32/49 45/45/50 44/44/51 31/31/52
f 33/33/53 46/46/54 45/45/50 32/32/49
f 34/34/55 47/47/56 46/46/57 33/33/58
f 35/35/59 48/48/60 47/47/56 34/34/55
f 36/36/61 49/49/62 48/48/63 35/35/64
f 37/37/65 50/50/66 49/49/62 36/36/61
f 38/38/67 51/51/68 50/50/69 37/37/70
f 39/39/71 52/52/72 51/51/68 38/38/67
f 41/41/38 15/15/1 14/14/4 40/40/39
f 42/42/42 16/16/5 15/15/1 41/41/38
f 43/43/44 17/17/7 16/16/10 42/42/45
f 44/44/48 18/18/11 17/17/7 43/43/44
f 45/45/50 19/19/13 18/18/16 44/44/51
f 46/46/54 20/20/17 19/19/13 45/45/50
f 47/47/56 21/21/19 20/20/22 46/46/57
f 48/48/60 22/22/23 21/21/19 47/47/56
f 49/49/62 23/23/25 22/22/28 48/48/63
f 50/50/66 24/24/29 23/23/25 49/49/62
f 51/51/68 25/25/31 24/24/34 50/50/69
f 52/52/72 26/26/35 25/25/31 51/51/68
f 54/54/2 67/67/73 66/66/74 53/53/3
f 55/55/6 68/68/75 67/67/73 54/54/2
f 56/56/8 69/69/76 68/68/77 55/55/9
f 57/57/12 70/70/78 69/69/76 56/56/8
f 58/58/14 71/71/79 70/70/80 57/57/15
f 59/59/18 72/72/81 71/71/79 58/58/14
f 60/60/20 73/73/82 72/72/83 59/59/21
f 61/61/24 74/74/84 73/73/82 60/60/20
f 62/62/26 75/75/85 74/74/86 61/61/27
f 63/63/30 76/76/87 75/75/85 62/62/26
f 64/64/32 77/77/88 76/76/89 63/63/33
f 65/65/36 78/78/90 77/77/88 64/64/32
f 67/67/73 2/2/91 1/1/92 66/66/74
f 68/68/75 3/3/93 2/2/91 67/67/73
f 69/69/76 4/4/94 3/3/95 68/68/77
f 70/70/78 5/5/96 4/4/94 69/69/76
f 71/71/79 6/6/97 5/5/98 70/70/80
f 72/72/81 7/7/99 6/6/97 71/71/79
f 73/73/82 8/8/100 7/7/101 72/72/83
f 74/74/84 9/9/102 8/8/100 73/73/82
f 75/75/85 10/10/103 9/9/104 74/74/86
f 76/76/87 11/11/105 10/10/103 75/75/85
f 77/77/88 12/12/106 11/11/107 76/76/89
f 78/78/90 13/13/108 12/12/106 77/77/88
f 79/79/109 80/80/110 81/81/111 82/82/112
f 83/83/113 79/79/109 82/82/112 84/84/114
f 85/85/115 83/83/116 84/84/117 86/86/118
f 87/87/119 85/85/115 86/86/118 88/88/120
f 89/89/121 87/87/122 88/88/123 90/90/124
f 91/91/125 89/89/121 90/90/124 92/92/126
f 93/93/127 91/91/128 92/92/129 94/94/130
f 95/95/131 93/93/127 94/94/130 96/96/132
f 97/97/133 95/95/134 96/96/135 98/98/136
f 99/99/137 97/97/133 98/98/136 100/100/138
f 101/101/139 99/99/140 100/100/141 102/102/142
f 103/103/143 101/101/139 102/102/142 104/104/144
f 28/105/37 27/106/40 105/107/145 106/108/146
f 29/109/41 28/105/37 106/108/146 107/110/147
f 30/111/43 29/109/46 107/110/148 108/112/149
f 31/113/47 30/111/43 108/112/149 109/114/150
f 32/115/49 31/113/52 109/114/151 110/116/152
f 33/117/53 32/115/49 110/116/152 111/118/153
f 34/119/55 33/117/58 111/118/154 112/120/155
f 35/121/59 34/119/55 112/120/155 113/122/156
f 36/123/61 35/121/64 113/122/157 114/124/158
f 37/125/65 36/123/61 114/124/158 115/126/159
f 38/127/67 37/125/70 115/126/160 116/128/161
f 39/129/71 38/127/67 116/128/161 117/130/162
f 106/108/146 105/107/145 80/80/110 79/79/109
f 107/110/147 106/108/146 79/79/109 83/83/113
f 108/112/149 107/110/148 83/83/116 85/85/115
f 109/114/150 108/112/149 85/85/115 87/87/119
f 110/116/152 109/114/151 87/87/122 89/89/121
f 111/118/153 110/116/152 89/89/121 91/91/125
f 112/120/155 111/118/154 91/91/128 93/93/127
f 113/122/156 112/120/155 93/93/127 95/95/131
f 114/124/158 113/122/157 95/95/134 97/97/133
f 115/126/159 114/124/158 97/97/133 99/99/137
f 116/128/161 115/126/160 99/99/140 101/101/139
f 117/130/162 116/128/161 101/101/139 103/103/143
f 82/82/112 81/81/111 118/131/163 119/132/164
f 84/84/114 82/82/112 119/132/164 120/133/165
f 86/86/118 84/84/117 120/133/166 121/134/167
f 88/88/120 86/86/118 121/134/167 122/135/168
f 90/90/124 88/88/123 122/135/169 123/136/170
f 92/92/126 90/90/124 123/136/170 124/137/171
f 94/94/130 92/92/129 124/137/172 125/138/173
f 96/96/132 94/94/130 125/138/173 126/139/174
f 98/98/136 96/96/135 126/139/175 127/140/176
f 100/100/138 98/98/136 127/140/176 128/141/177
f 102/102/142 100/100/141 128/141/178 129/142/179
f 104/104/144 102/102/142 129/142/179 130/143/180
f 119/132/164 118/131/163 131/144/181 132/145/182
f 120/133/165 119/132/164 132/145/182 133/146/183
f 121/134/167 120/133/166 133/146/184 134/147/185
f 122/135/168 121/134/167 134/147/185 135/148/186
f 123/136/170 122/135/169 135/148/187 136/149/188
f 124/137/171 123/136/170 136/149/188 137/150/189
f 125/138/173 124/137/172 137/150/190 138/151/191
f 126/139/174 125/138/173 138/151/191 139/152/192
f 127/140/176 126/139/175 139/152/193 140/153/194
f 128/141/177 127/140/176 140/153/194 141/154/195
f 129/142/179 128/141/178 141/154/196 142/155/197
f 130/143/180 129/142/179 142/155/197 143/156/198
