# This file uses meters as units for non-parametric coordinates.

v -34.676903 -0.000000 0.383461
v -37.041382 -0.000000 5.408819
v -39.405876 -0.000000 0.383461
v -41.770363 -0.000004 5.713886
v -44.134842 -0.000004 0.383459
v -46.499329 -0.000004 6.830473
v -48.863808 -0.000004 0.383461
v -51.228302 -0.000004 6.846420
v -53.592781 -0.000004 0.383461
v -55.957275 -0.000004 6.738556
v -58.321758 -0.000006 0.383461
v -60.686245 -0.000006 5.701996
v -59.666180 -0.000006 0.383461
v -26.257666 -11.783104 7.673564
v -28.408792 -13.887432 12.805264
v -29.633936 -15.052074 7.393283
v -32.121269 -17.280056 12.732017
v -34.937645 -19.791071 6.730851
v -36.614159 -21.459778 13.236517
v -38.496765 -23.062178 6.171722
v -40.924561 -25.530704 12.587666
v -42.772327 -28.058640 5.344496
v -44.507835 -30.384834 11.807140
v -45.853958 -32.698322 4.823919
v -47.289959 -34.537853 10.400539
v -48.502171 -36.411095 4.668388
v 0.000002 -19.112093 4.950947
v 0.000002 -22.748091 9.976303
v 0.000002 -25.877529 4.950947
v 0.000002 -29.350262 10.281368
v 0.000002 -32.399734 4.950947
v 0.000002 -36.119881 11.397957
v 0.000002 -38.680191 4.950947
v 0.000002 -42.110317 11.413906
v 0.000000 -44.873924 4.950947
v 0.000000 -47.750084 11.306042
v 0.000000 -49.718010 4.950947
v 0.000000 -52.052883 10.269478
v 0.000000 -54.089546 4.950947
v -13.328997 -18.027208 6.100449
v -15.227535 -21.053699 10.756811
v -16.677589 -23.188580 5.535429
v -18.561815 -26.150600 10.569290
v -20.270506 -29.289185 5.047938
v -21.070564 -32.120014 11.397955
v -21.925865 -34.446819 4.950945
v -24.216320 -37.971375 11.413906
v -25.371044 -40.698647 4.950946
v -26.571753 -43.129700 11.306040
v -27.439381 -45.650387 4.950946
v -28.665253 -47.197842 10.269480
v -29.645428 -49.007938 4.950946
v -34.838383 -4.792215 0.383461
v -36.919781 -4.716401 5.408819
v -38.629906 -4.616599 6.087344
v -40.805069 -4.478106 5.713884
v -43.185871 -4.304166 6.087343
v -45.028412 -4.316238 6.830471
v -47.107273 -4.101856 6.087345
v -49.396450 -4.046651 6.846420
v -51.431465 -4.346179 6.087345
v -53.548615 -4.487625 6.738556
v -55.608513 -4.856767 6.087349
v -57.718605 -4.721712 5.701992
v -59.807381 -4.741178 0.383461
v -34.787827 -3.292176 0.383461
v -36.957844 -3.240090 5.408820
v -38.872799 -3.171531 6.087344
v -41.107220 -3.076391 5.713886
v -43.482914 -2.956892 6.087343
v -45.488827 -2.965189 6.830471
v -47.657093 -2.817912 6.087345
v -49.969845 -2.779988 6.846420
v -52.107994 -2.985760 6.087345
v -54.302563 -3.082930 6.738556
v -56.457798 -3.336519 6.087341
v -58.647514 -3.243744 5.701992
v -59.763172 -3.257112 0.383461
v 28.408789 -13.887424 12.805267
v 26.257664 -11.783097 7.673561
v 34.838383 -4.792206 0.383461
v 36.919777 -4.716393 5.408821
v 29.633938 -15.052067 7.393280
v 38.629902 -4.616590 6.087349
v 32.121277 -17.280052 12.732018
v 40.805065 -4.478099 5.713882
v 34.937649 -19.791063 6.730850
v 43.185871 -4.304155 6.087341
v 36.614159 -21.459772 13.236519
v 45.028408 -4.316227 6.830475
v 38.496765 -23.062172 6.171730
v 47.107273 -4.101844 6.087341
v 40.924557 -25.530693 12.587662
v 49.396450 -4.046640 6.846420
v 42.772327 -28.058628 5.344498
v 51.431458 -4.346167 6.087341
v 44.507832 -30.384823 11.807144
v 53.548611 -4.487614 6.738556
v 45.853958 -32.698315 4.823914
v 55.608513 -4.856754 6.087341
v 47.289963 -34.537846 10.400543
v 57.718601 -4.721699 5.701996
v 48.502171 -36.411079 4.668396
v 59.807373 -4.741165 0.383469
v 13.328997 -18.027203 6.100449
v 15.227533 -21.053699 10.756813
v 16.677586 -23.188574 5.535431
v 18.561819 -26.150597 10.569290
v 20.270502 -29.289183 5.047935
v 21.070564 -32.120007 11.397957
v 21.925869 -34.446812 4.950943
v 24.216324 -37.971367 11.413902
v 25.371044 -40.698639 4.950943
v 26.571762 -43.129692 11.306038
v 27.439381 -45.650379 4.950943
v 28.665257 -47.197838 10.269470
v 29.645435 -49.007931 4.950943
v 34.787830 -3.292169 0.383461
v 36.957848 -3.240083 5.408829
v 38.872799 -3.171522 6.087334
v 41.107224 -3.076381 5.713882
v 43.482910 -2.956881 6.087341
v 45.488834 -2.965177 6.830475
v 47.657097 -2.817901 6.087341
v 49.969845 -2.779977 6.846420
v 52.107990 -2.985747 6.087341
v 54.302559 -3.082917 6.738556
v 56.457794 -3.336506 6.087341
v 58.647518 -3.243731 5.701996
v 59.763184 -3.257097 0.383469
v 34.676899 0.000005 0.383461
v 37.041382 0.000005 5.408821
v 39.405880 0.000005 0.383469
v 41.770363 0.000009 5.713882
v 44.134846 0.000009 0.383469
v 46.499325 0.000009 6.830475
v 48.863823 0.000009 0.383469
v 51.228306 0.000009 6.846420
v 53.592789 0.000009 0.383469
v 55.957268 0.000009 6.738556
v 58.321758 0.000009 0.383469
v 60.686249 0.000009 5.701996
v 59.666172 0.000009 0.383469
vt 0.119116 0.755786
vt 0.119116 0.806202
vt 0.119116 0.755786
vt 0.119116 0.806202
vt 0.119116 0.755786
vt 0.119116 0.806202
vt 0.119116 0.755786
vt 0.119116 0.806202
vt 0.119116 0.755786
vt 0.119116 0.806202
vt 0.119116 0.755786
vt 0.119116 0.806202
vt 0.119116 0.755786
vt 0.063242 0.755786
vt 0.063242 0.806202
vt 0.063242 0.755786
vt 0.063242 0.806202
vt 0.063242 0.755786
vt 0.063242 0.806202
vt 0.063242 0.755786
vt 0.063242 0.806202
vt 0.063242 0.755786
vt 0.063242 0.806202
vt 0.063242 0.755786
vt 0.063242 0.806202
vt 0.063242 0.755786
vt 0.005627 0.755786
vt 0.005627 0.806202
vt 0.005627 0.755786
vt 0.005627 0.806202
vt 0.005627 0.755786
vt 0.005627 0.806202
vt 0.005627 0.755786
vt 0.005627 0.806202
vt 0.005627 0.755786
vt 0.005627 0.806202
vt 0.005627 0.755786
vt 0.005627 0.806202
vt 0.005627 0.755786
vt 0.036874 0.755786
vt 0.036874 0.806202
vt 0.036874 0.755786
vt 0.036874 0.806202
vt 0.036874 0.755786
vt 0.036874 0.806202
vt 0.036874 0.755786
vt 0.036874 0.806202
vt 0.036874 0.755786
vt 0.036874 0.806202
vt 0.036874 0.755786
vt 0.036874 0.806202
vt 0.036874 0.755786
vt 0.094110 0.755786
vt 0.094110 0.806202
vt 0.094110 0.755786
vt 0.094110 0.806202
vt 0.094110 0.755786
vt 0.094110 0.806202
vt 0.094110 0.755786
vt 0.094110 0.806202
vt 0.094110 0.755786
vt 0.094110 0.806202
vt 0.094110 0.755786
vt 0.094110 0.806202
vt 0.094110 0.755786
vt 0.101937 0.755786
vt 0.101937 0.806202
vt 0.101937 0.755786
vt 0.101937 0.806202
vt 0.101937 0.755786
vt 0.101937 0.806202
vt 0.101937 0.755786
vt 0.101937 0.806202
vt 0.101937 0.755786
vt 0.101937 0.806202
vt 0.101937 0.755786
vt 0.101937 0.806202
vt 0.101937 0.755786
vt 0.063242 0.806202
vt 0.063242 0.755786
vt 0.094110 0.755786
vt 0.094110 0.806202
vt 0.063242 0.755786
vt 0.094110 0.755786
vt 0.063242 0.806202
vt 0.094110 0.806202
vt 0.063242 0.755786
vt 0.094110 0.755786
vt 0.063242 0.806202
vt 0.094110 0.806202
vt 0.063242 0.755786
vt 0.094110 0.755786
vt 0.063242 0.806202
vt 0.094110 0.806202
vt 0.063242 0.755786
vt 0.094110 0.755786
vt 0.063242 0.806202
vt 0.094110 0.806202
vt 0.063242 0.755786
vt 0.094110 0.755786
vt 0.063242 0.806202
vt 0.094110 0.806202
vt 0.063242 0.755786
vt 0.094110 0.755786
vt 0.005627 0.806202
vt 0.005627 0.755786
vt 0.036874 0.755786
vt 0.036874 0.806202
vt 0.005627 0.755786
vt 0.036874 0.755786
vt 0.005627 0.806202
vt 0.036874 0.806202
vt 0.005627 0.755786
vt 0.036874 0.755786
vt 0.005627 0.806202
vt 0.036874 0.806202
vt 0.005627 0.755786
vt 0.036874 0.755786
vt 0.005627 0.806202
vt 0.036874 0.806202
vt 0.005627 0.755786
vt 0.036874 0.755786
vt 0.005627 0.806202
vt 0.036874 0.806202
vt 0.005627 0.755786
vt 0.036874 0.755786
vt 0.005627 0.806202
vt 0.036874 0.806202
vt 0.005627 0.755786
vt 0.036874 0.755786
vt 0.101937 0.755786
vt 0.101937 0.806202
vt 0.101937 0.755786
vt 0.101937 0.806202
vt 0.101937 0.755786
vt 0.101937 0.806202
vt 0.101937 0.755786
vt 0.101937 0.806202
vt 0.101937 0.755786
vt 0.101937 0.806202
vt 0.101937 0.755786
vt 0.101937 0.806202
vt 0.101937 0.755786
vt 0.119116 0.755786
vt 0.119116 0.806202
vt 0.119116 0.755786
vt 0.119116 0.806202
vt 0.119116 0.755786
vt 0.119116 0.806202
vt 0.119116 0.755786
vt 0.119116 0.806202
vt 0.119116 0.755786
vt 0.119116 0.806202
vt 0.119116 0.755786
vt 0.119116 0.806202
vt 0.119116 0.755786
vn 0.007922 0.111167 0.993770
vn 0.453965 0.762869 0.460376
vn 0.542167 0.751079 0.376744
vn 0.192460 0.632396 0.750356
vn -0.533332 -0.728281 0.430306
vn -0.644250 -0.386300 0.660086
vn -0.144290 -0.122116 0.981972
vn 0.491662 0.639652 0.590859
vn 0.439160 0.573454 0.691584
vn -0.450417 -0.002785 0.892814
vn -0.529526 -0.579079 0.619895
vn -0.624203 -0.196777 0.756075
vn -0.195200 -0.134413 0.971509
vn 0.626919 0.660922 0.412499
vn 0.735412 0.473259 0.484970
vn -0.503644 -0.065767 0.861405
vn -0.658579 -0.634986 0.403815
vn -0.808419 -0.298252 0.507449
vn -0.204199 -0.078332 0.975791
vn 0.606136 0.573161 0.551440
vn 0.701842 0.380786 0.602014
vn -0.414797 -0.031262 0.909377
vn -0.668767 -0.588109 0.454839
vn -0.818058 -0.258034 0.514003
vn -0.208237 -0.063014 0.976047
vn 0.668384 0.573149 0.474092
vn 0.773743 0.322872 0.545046
vn -0.331959 -0.042226 0.942348
vn -0.684379 -0.593570 0.423439
vn -0.831549 -0.260479 0.490589
vn -0.519345 -0.148369 0.841586
vn 0.651292 0.576159 0.493821
vn 0.732727 0.291444 0.614957
vn -0.772798 -0.208995 0.599253
vn -0.782351 -0.512367 0.354130
vn -0.908190 -0.274353 0.316104
vn -0.000000 -0.210605 0.977571
vn -0.000000 0.812791 0.582556
vn 0.258569 0.775666 0.575747
vn -0.004561 -0.257162 0.966357
vn 0.000000 -0.883577 0.468286
vn -0.267108 -0.866241 0.422233
vn 0.000000 -0.205216 0.978717
vn -0.000000 0.836841 0.547447
vn 0.305600 0.774362 0.554051
vn -0.014869 -0.257624 0.966131
vn 0.000000 -0.859423 0.511265
vn -0.273730 -0.807620 0.522324
vn 0.000000 -0.164501 0.986377
vn -0.000000 0.886220 0.463265
vn 0.337175 0.839020 0.427034
vn -0.079765 -0.202045 0.976123
vn 0.000000 -0.931110 0.364738
vn -0.337376 -0.872647 0.353079
vn 0.000000 -0.162548 0.986701
vn -0.000000 0.868705 0.495330
vn 0.321779 0.798603 0.508618
vn -0.053195 -0.216276 0.974882
vn 0.000000 -0.915391 0.402566
vn -0.336625 -0.848351 0.408638
vn 0.000000 -0.145515 0.989356
vn -0.000000 0.917482 0.397777
vn 0.333873 0.851365 0.404607
vn -0.057280 -0.181446 0.981731
vn 0.000000 -0.939644 0.342153
vn -0.333355 -0.871989 0.358483
vn 0.000000 -0.155229 0.987879
vn 0.000000 0.933753 0.357917
vn 0.314522 0.875313 0.367292
vn -0.036265 -0.169854 0.984802
vn 0.000000 -0.935608 0.353042
vn -0.331437 -0.871498 0.361443
vn 0.914495 -0.003835 0.404579
vn 0.666021 0.189136 0.721557
vn -0.471214 0.443581 0.762360
vn 0.460563 0.508047 0.727853
vn 0.128007 0.547885 0.826702
vn -0.525818 0.399505 0.750940
vn 0.663225 0.541862 0.516253
vn 0.200624 0.561184 0.803008
vn -0.792164 0.168200 0.586673
vn 0.594011 0.610676 0.523666
vn 0.153712 0.608674 0.778388
vn -0.800790 0.083837 0.593048
vn 0.574230 0.622831 0.531359
vn 0.148259 0.579730 0.801207
vn -0.790081 -0.001680 0.613001
vn 0.387866 0.577471 0.718392
vn -0.625311 0.371857 0.686082
vn -0.953654 -0.284845 0.096992
vn 0.911511 -0.003821 0.411258
vn 0.524200 0.301852 0.796304
vn -0.617893 0.488598 0.616020
vn 0.590659 0.602803 0.536424
vn -0.013202 0.673894 0.738710
vn -0.640181 0.449463 0.623018
vn 0.686386 0.595179 0.417895
vn -0.059847 0.653800 0.754297
vn -0.826779 0.201153 0.525331
vn 0.619012 0.677456 0.397337
vn -0.136654 0.658557 0.740020
vn -0.844357 0.115777 0.523122
vn 0.602731 0.689422 0.401763
vn -0.185548 0.594926 0.782071
vn -0.840484 0.020403 0.541452
vn 0.520941 0.714195 0.467489
vn -0.743572 0.401749 0.534507
vn -0.958132 -0.286185 0.008970
vn -0.007922 0.111167 0.993770
vn -0.192461 0.632397 0.750355
vn -0.542167 0.751079 0.376743
vn -0.453965 0.762869 0.460376
vn 0.533332 -0.728282 0.430305
vn 0.644251 -0.386300 0.660086
vn 0.144290 -0.122117 0.981972
vn 0.450418 -0.002784 0.892814
vn -0.439160 0.573453 0.691585
vn -0.491661 0.639652 0.590859
vn 0.529526 -0.579079 0.619895
vn 0.624203 -0.196776 0.756075
vn 0.195200 -0.134412 0.971510
vn 0.503643 -0.065766 0.861405
vn -0.735412 0.473259 0.484969
vn -0.626919 0.660922 0.412498
vn 0.658579 -0.634986 0.403815
vn 0.808419 -0.298252 0.507449
vn 0.204199 -0.078332 0.975790
vn 0.414798 -0.031261 0.909376
vn -0.701842 0.380786 0.602013
vn -0.606136 0.573161 0.551440
vn 0.668767 -0.588109 0.454839
vn 0.818059 -0.258033 0.514003
vn 0.208237 -0.063014 0.976046
vn 0.331960 -0.042226 0.942348
vn -0.773743 0.322873 0.545046
vn -0.668384 0.573149 0.474092
vn 0.684379 -0.593569 0.423439
vn 0.831549 -0.260479 0.490589
vn 0.519343 -0.148369 0.841587
vn 0.772798 -0.208995 0.599254
vn -0.732728 0.291444 0.614955
vn -0.651293 0.576158 0.493821
vn 0.782351 -0.512366 0.354130
vn 0.908190 -0.274354 0.316103
vn 0.004561 -0.257162 0.966357
vn -0.258569 0.775666 0.575747
vn 0.267109 -0.866241 0.422232
vn 0.014869 -0.257624 0.966131
vn -0.305600 0.774362 0.554051
vn 0.273730 -0.807620 0.522324
vn 0.079764 -0.202045 0.976123
vn -0.337176 0.839020 0.427033
vn 0.337376 -0.872647 0.353079
vn 0.053195 -0.216277 0.974882
vn -0.321779 0.798603 0.508618
vn 0.336625 -0.848350 0.408638
vn 0.057280 -0.181446 0.981731
vn -0.333873 0.851365 0.404606
vn 0.333355 -0.871989 0.358484
vn 0.036265 -0.169854 0.984802
vn -0.314522 0.875313 0.367292
vn 0.331437 -0.871498 0.361442
vn -0.666020 0.189135 0.721558
vn -0.914495 -0.003837 0.404578
vn 0.471217 0.443581 0.762359
vn -0.128008 0.547883 0.826703
vn -0.460564 0.508045 0.727854
vn 0.525818 0.399502 0.750942
vn -0.200621 0.561183 0.803010
vn -0.663225 0.541863 0.516253
vn 0.792163 0.168200 0.586673
vn -0.153712 0.608676 0.778387
vn -0.594010 0.610677 0.523665
vn 0.800791 0.083836 0.593048
vn -0.148258 0.579732 0.801206
vn -0.574230 0.622832 0.531358
vn 0.790080 -0.001678 0.613002
vn 0.625310 0.371855 0.686084
vn -0.387867 0.577470 0.718393
vn 0.953654 -0.284845 0.096992
vn -0.524201 0.301847 0.796305
vn -0.911511 -0.003824 0.411258
vn 0.617894 0.488596 0.616020
vn 0.013201 0.673891 0.738712
vn -0.590660 0.602801 0.536425
vn 0.640181 0.449461 0.623019
vn 0.059847 0.653800 0.754297
vn -0.686386 0.595179 0.417895
vn 0.826779 0.201154 0.525333
vn 0.136654 0.658557 0.740019
vn -0.619012 0.677458 0.397336
vn 0.844357 0.115776 0.523122
vn 0.185546 0.594928 0.782069
vn -0.602730 0.689423 0.401762
vn 0.840484 0.020407 0.541453
vn 0.743570 0.401754 0.534507
vn -0.520941 0.714194 0.467491
vn 0.958134 -0.286181 0.008970
f 15/15/1 14/14/2 53/53/3 54/54/4
f 16/16/5 15/15/1 54/54/4 55/55/6
f 17/17/7 16/16/8 55/55/9 56/56/10
f 18/18/11 17/17/7 56/56/10 57/57/12
f 19/19/13 18/18/14 57/57/15 58/58/16
f 20/20/17 19/19/13 58/58/16 59/59/18
f 21/21/19 20/20/20 59/59/21 60/60/22
f 22/22/23 21/21/19 60/60/22 61/61/24
f 23/23/25 22/22/26 61/61/27 62/62/28
f 24/24/29 23/23/25 62/62/28 63/63/30
f 25/25/31 24/24/32 63/63/33 64/64/34
f 26/26/35 25/25/31 64/64/34 65/65/36
f 28/28/37 27/27/38 40/40/39 41/41/40
f 29/29/41 28/28/37 41/41/40 42/42/42
f 30/30/43 29/29/44 42/42/45 43/43/46
f 31/31/47 30/30/43 43/43/46 44/44/48
f 32/32/49 31/31/50 44/44/51 45/45/52
f 33/33/53 32/32/49 45/45/52 46/46/54
f 34/34/55 33/33/56 46/46/57 47/47/58
f 35/35/59 34/34/55 47/47/58 48/48/60
f 36/36/61 35/35/62 48/48/63 49/49/64
f 37/37/65 36/36/61 49/49/64 50/50/66
f 38/38/67 37/37/68 50/50/69 51/51/70
f 39/39/71 38/38/67 51/51/70 52/52/72
f 41/41/40 40/40/39 14/14/2 15/15/1
f 42/42/42 41/41/40 15/15/1 16/16/5
f 43/43/46 42/42/45 16/16/8 17/17/7
f 44/44/48 43/43/46 17/17/7 18/18/11
f 45/45/52 44/44/51 18/18/14 19/19/13
f 46/46/54 45/45/52 19/19/13 20/20/17
f 47/47/58 46/46/57 20/20/20 21/21/19
f 48/48/60 47/47/58 21/21/19 22/22/23
f 49/49/64 48/48/63 22/22/26 23/23/25
f 50/50/66 49/49/64 23/23/25 24/24/29
f 51/51/70 50/50/69 24/24/32 25/25/31
f 52/52/72 51/51/70 25/25/31 26/26/35
f 54/54/4 53/53/3 66/66/73 67/67/74
f 55/55/6 54/54/4 67/67/74 68/68/75
f 56/56/10 55/55/9 68/68/76 69/69/77
f 57/57/12 56/56/10 69/69/77 70/70/78
f 58/58/16 57/57/15 70/70/79 71/71/80
f 59/59/18 58/58/16 71/71/80 72/72/81
f 60/60/22 59/59/21 72/72/82 73/73/83
f 61/61/24 60/60/22 73/73/83 74/74/84
f 62/62/28 61/61/27 74/74/85 75/75/86
f 63/63/30 62/62/28 75/75/86 76/76/87
f 64/64/34 63/63/33 76/76/88 77/77/89
f 65/65/36 64/64/34 77/77/89 78/78/90
f 67/67/74 66/66/73 1/1/91 2/2/92
f 68/68/75 67/67/74 2/2/92 3/3/93
f 69/69/77 68/68/76 3/3/94 4/4/95
f 70/70/78 69/69/77 4/4/95 5/5/96
f 71/71/80 70/70/79 5/5/97 6/6/98
f 72/72/81 71/71/80 6/6/98 7/7/99
f 73/73/83 72/72/82 7/7/100 8/8/101
f 74/74/84 73/73/83 8/8/101 9/9/102
f 75/75/86 74/74/85 9/9/103 10/10/104
f 76/76/87 75/75/86 10/10/104 11/11/105
f 77/77/89 76/76/88 11/11/106 12/12/107
f 78/78/90 77/77/89 12/12/107 13/13/108
f 79/79/109 82/82/110 81/81/111 80/80/112
f 83/83/113 84/84/114 82/82/110 79/79/109
f 85/85/115 86/86/116 84/84/117 83/83/118
f 87/87/119 88/88/120 86/86/116 85/85/115
f 89/89/121 90/90/122 88/88/123 87/87/124
f 91/91/125 92/92/126 90/90/122 89/89/121
f 93/93/127 94/94/128 92/92/129 91/91/130
f 95/95/131 96/96/132 94/94/128 93/93/127
f 97/97/133 98/98/134 96/96/135 95/95/136
f 99/99/137 100/100/138 98/98/134 97/97/133
f 101/101/139 102/102/140 100/100/141 99/99/142
f 103/103/143 104/104/144 102/102/140 101/101/139
f 28/105/37 106/108/145 105/107/146 27/106/38
f 29/109/41 107/110/147 106/108/145 28/105/37
f 30/111/43 108/112/148 107/110/149 29/109/44
f 31/113/47 109/114/150 108/112/148 30/111/43
f 32/115/49 110/116/151 109/114/152 31/113/50
f 33/117/53 111/118/153 110/116/151 32/115/49
f 34/119/55 112/120/154 111/118/155 33/117/56
f 35/121/59 113/122/156 112/120/154 34/119/55
f 36/123/61 114/124/157 113/122/158 35/121/62
f 37/125/65 115/126/159 114/124/157 36/123/61
f 38/127/67 116/128/160 115/126/161 37/125/68
f 39/129/71 117/130/162 116/128/160 38/127/67
f 106/108/145 79/79/109 80/80/112 105/107/146
f 107/110/147 83/83/113 79/79/109 106/108/145
f 108/112/148 85/85/115 83/83/118 107/110/149
f 109/114/150 87/87/119 85/85/115 108/112/148
f 110/116/151 89/89/121 87/87/124 109/114/152
f 111/118/153 91/91/125 89/89/121 110/116/151
f 112/120/154 93/93/127 91/91/130 111/118/155
f 113/122/156 95/95/131 93/93/127 112/120/154
f 114/124/157 97/97/133 95/95/136 113/122/158
f 115/126/159 99/99/137 97/97/133 114/124/157
f 116/128/160 101/101/139 99/99/142 115/126/161
f 117/130/162 103/103/143 101/101/139 116/128/160
f 82/82/110 119/132/163 118/131/164 81/81/111
f 84/84/114 120/133/165 119/132/163 82/82/110
f 86/86/116 121/134/166 120/133/167 84/84/117
f 88/88/120 122/135/168 121/134/166 86/86/116
f 90/90/122 123/136/169 122/135/170 88/88/123
f 92/92/126 124/137/171 123/136/169 90/90/122
f 94/94/128 125/138/172 124/137/173 92/92/129
f 96/96/132 126/139/174 125/138/172 94/94/128
f 98/98/134 127/140/175 126/139/176 96/96/135
f 100/100/138 128/141/177 127/140/175 98/98/134
f 102/102/140 129/142/178 128/141/179 100/100/141
f 104/104/144 130/143/180 129/142/178 102/102/140
f 119/132/163 132/145/181 131/144/182 118/131/164
f 120/133/165 133/146/183 132/145/181 119/132/163
f 121/134/166 134/147/184 133/146/185 120/133/167
f 122/135/168 135/148/186 134/147/184 121/134/166
f 123/136/169 136/149/187 135/148/188 122/135/170
f 124/137/171 137/150/189 136/149/187 123/136/169
f 125/138/172 138/151/190 137/150/191 124/137/173
f 126/139/174 139/152/192 138/151/190 125/138/172
f 127/140/175 140/153/193 139/152/194 126/139/176
f 128/141/177 141/154/195 140/153/193 127/140/175
f 129/142/178 142/155/196 141/154/197 128/141/179
f 130/143/180 143/156/198 142/155/196 129/142/178
