# This file uses meters as units for non-parametric coordinates.

v -11.151680 -112.393105 -9.109367
v -44.661774 -112.478241 -8.749885
v -47.281368 -112.507126 -5.617679
v -44.661774 -112.248718 -2.485478
v -37.504921 -111.544060 5.513212
v -28.396484 -111.170029 6.352483
v -19.921467 -111.498192 4.307334
v -13.168724 -112.075485 -2.844965
v -8.532085 -112.474487 -5.977167
v -11.556263 -96.507317 -5.517952
v -44.137871 -96.406990 -5.158465
v -46.705482 -96.383484 -2.026261
v -44.137871 -96.632263 1.105940
v -37.123028 -97.289505 9.104630
v -28.208588 -97.630119 9.943902
v -19.927553 -97.332306 7.898754
v -13.316822 -96.799568 0.746452
v -8.988655 -96.432457 -2.385750
v -43.032829 -112.666763 -7.401046
v -45.646729 -112.468376 -5.622394
v -45.070850 -96.523521 -2.030974
v -42.508926 -96.877151 -3.809626
v -43.045532 -111.943291 -3.869834
v -42.521629 -96.462158 -0.278417
v -36.611687 -111.172852 3.764773
v -36.229790 -97.047241 7.356191
v -28.403717 -110.799873 4.267188
v -28.215816 -97.259956 7.858605
v -20.581516 -111.095192 2.369316
v -20.587605 -97.018524 5.960730
v -14.329746 -111.677185 -4.607220
v -14.477843 -96.516884 -1.015802
v -9.952633 -112.379822 -6.168474
v -10.409199 -96.508904 -2.577059
v -12.782051 -112.555931 -7.759350
v -13.186634 -96.974251 -4.167935
vt 0.132895 0.817228
vt 0.145888 0.817228
vt 0.145888 0.869546
vt 0.132895 0.869546
vt 0.158881 0.817228
vt 0.158881 0.869546
vt 0.171873 0.817228
vt 0.171873 0.869546
vt 0.184866 0.817228
vt 0.184866 0.869546
vt 0.197859 0.817228
vt 0.197859 0.869546
vt 0.210852 0.817228
vt 0.210852 0.869546
vt 0.223845 0.817228
vt 0.223845 0.869546
vt 0.236838 0.817228
vt 0.236838 0.869546
vt 0.132895 0.817228
vt 0.132895 0.817228
vt 0.145888 0.817228
vt 0.145888 0.817228
vt 0.145888 0.869546
vt 0.145888 0.869546
vt 0.132895 0.869546
vt 0.132895 0.869546
vt 0.158881 0.817228
vt 0.158881 0.817228
vt 0.158881 0.869546
vt 0.158881 0.869546
vt 0.171873 0.817228
vt 0.171873 0.817228
vt 0.171873 0.869546
vt 0.171873 0.869546
vt 0.184866 0.817228
vt 0.184866 0.817228
vt 0.184866 0.869546
vt 0.184866 0.869546
vt 0.197859 0.817228
vt 0.197859 0.817228
vt 0.197859 0.869546
vt 0.197859 0.869546
vt 0.210852 0.817228
vt 0.210852 0.817228
vt 0.210852 0.869546
vt 0.210852 0.869546
vt 0.223845 0.817228
vt 0.223845 0.817228
vt 0.223845 0.869546
vt 0.223845 0.869546
vt 0.236838 0.817228
vt 0.236838 0.817228
vt 0.236838 0.869546
vt 0.236838 0.869546
vn -0.360740 0.134394 -0.922933
vn -0.993725 -0.008169 -0.111556
vn -0.993925 0.082511 0.072834
vn -0.402123 0.281383 -0.871275
vn -0.725884 -0.250519 0.640572
vn -0.749976 -0.020452 0.661149
vn -0.501796 -0.288978 0.815287
vn -0.468330 -0.094401 0.878496
vn 0.065005 -0.360694 0.930416
vn 0.067913 -0.131382 0.989003
vn 0.523510 -0.307849 0.794460
vn 0.508344 -0.096883 0.855687
vn 0.627054 -0.294614 0.721114
vn 0.674616 -0.049043 0.736538
vn 0.984364 -0.075890 0.158963
vn 0.931336 -0.005257 0.364122
vn 0.364752 0.141622 -0.920271
vn 0.409021 0.272942 -0.870750
vn 0.651573 0.018937 -0.758350
vn 0.038929 -0.999179 0.011204
vn 0.078586 0.995232 0.057774
vn 0.647390 0.268131 -0.713437
vn 0.170668 -0.984172 -0.047731
vn -0.024383 0.995484 0.091744
vn 0.125081 -0.985215 -0.117072
vn -0.008529 0.991323 0.131170
vn -0.015670 -0.984169 -0.176538
vn 0.013287 0.986316 0.164329
vn -0.152476 -0.978652 -0.137812
vn 0.039588 0.988697 0.144604
vn -0.189647 -0.977372 -0.093690
vn 0.046831 0.991811 0.118819
vn -0.078387 -0.996382 -0.032847
vn -0.061480 0.994913 0.079803
vn -0.653220 0.045622 -0.755792
vn -0.646134 0.255899 -0.719046
f 2/1/1 3/2/2 12/3/3 11/4/4
f 3/2/2 4/5/5 13/6/6 12/3/3
f 4/5/5 5/7/7 14/8/8 13/6/6
f 14/8/8 5/7/7 6/9/9 15/10/10
f 6/9/9 7/11/11 16/12/12 15/10/10
f 7/11/11 8/13/13 17/14/14 16/12/12
f 8/13/13 9/15/15 18/16/16 17/14/14
f 9/15/15 1/17/17 10/18/18 18/16/16
f 2/19/1 19/20/19 20/21/20 3/22/2
f 12/23/3 21/24/21 22/25/22 11/26/4
f 11/26/4 22/25/22 19/20/19 2/19/1
f 3/22/2 20/21/20 23/27/23 4/28/5
f 13/29/6 24/30/24 21/24/21 12/23/3
f 4/28/5 23/27/23 25/31/25 5/32/7
f 14/33/8 26/34/26 24/30/24 13/29/6
f 5/32/7 25/31/25 27/35/27 6/36/9
f 15/37/10 28/38/28 26/34/26 14/33/8
f 6/36/9 27/35/27 29/39/29 7/40/11
f 16/41/12 30/42/30 28/38/28 15/37/10
f 7/40/11 29/39/29 31/43/31 8/44/13
f 17/45/14 32/46/32 30/42/30 16/41/12
f 8/44/13 31/43/31 33/47/33 9/48/15
f 18/49/16 34/50/34 32/46/32 17/45/14
f 9/48/15 33/47/33 35/51/35 1/52/17
f 1/52/17 35/51/35 36/53/36 10/54/18
f 10/54/18 36/53/36 34/50/34 18/49/16
