# This file uses meters as units for non-parametric coordinates.

v 14.448250 -110.879204 -1.341216
v 11.071800 0.000000 -1.341216
v -13.220573 -119.818817 -1.341216
v -14.279995 -0.206421 -1.341216
v -10.428947 -130.135712 4.696508
v -11.744812 -0.183772 4.696504
v -7.637329 -136.040649 -1.341216
v -9.209633 -0.183773 -1.341216
v -4.845718 -140.310425 3.657217
v -6.674461 -0.136296 3.657224
v -2.054108 -140.623291 -1.341216
v -4.139275 -0.101627 -1.341216
v 0.737503 -136.579285 4.357419
v -1.604103 -0.050462 4.357416
v 3.529121 -134.788803 -1.341216
v 0.931076 -0.000000 -1.341216
v 6.295425 -126.159370 4.761621
v 3.466263 0.000000 4.761621
v 9.066818 -128.087921 -1.341216
v 6.001427 0.000000 -1.341216
v 11.704948 -110.176628 4.896678
v 8.536613 0.000000 4.896677
v -14.448246 -6.980717 -1.341216
v -12.081314 -6.927549 4.696504
v -9.714363 -6.927551 -1.341216
v -7.349663 -6.834357 3.657224
v -4.986450 -6.770732 -1.341216
v -2.623581 -6.607685 4.357416
v -0.258415 -6.521790 -1.341216
v 2.105011 -6.332981 4.761621
v 4.464539 -6.218488 -1.341216
v 6.828857 -6.096912 4.896677
v 9.189552 -6.011076 -1.341216
v -14.207664 -66.412445 -1.341216
v -11.654884 -67.292023 4.696506
v -8.792175 -69.895897 -1.341216
v -5.869766 -70.141846 3.657224
v -4.307861 -70.442245 -1.341216
v -1.551163 -71.134613 4.357418
v 1.427185 -71.022720 -1.341216
v 3.605240 -69.053772 4.761620
v 6.046524 -68.322189 -1.341216
v 9.004112 -65.853294 4.896677
v 12.079208 -63.344177 -1.341216
vt 0.005441 0.943489
vt 0.118824 0.943489
vt 0.005441 0.943489
vt 0.118824 0.943489
vt 0.005441 0.994856
vt 0.118824 0.994856
vt 0.005441 0.943489
vt 0.118824 0.943489
vt 0.005441 0.994856
vt 0.118824 0.994856
vt 0.005441 0.943489
vt 0.118824 0.943489
vt 0.005441 0.994856
vt 0.118824 0.994856
vt 0.005441 0.943489
vt 0.118824 0.943489
vt 0.005441 0.994856
vt 0.118824 0.994856
vt 0.005441 0.943489
vt 0.118824 0.943489
vt 0.005441 0.994856
vt 0.118824 0.994856
vt 0.112065 0.943489
vt 0.112065 0.994856
vt 0.112065 0.943489
vt 0.112065 0.994856
vt 0.112065 0.943489
vt 0.112065 0.994856
vt 0.112065 0.943489
vt 0.112065 0.994856
vt 0.112065 0.943489
vt 0.112065 0.994856
vt 0.112065 0.943489
vt 0.053373 0.943489
vt 0.053373 0.994856
vt 0.053373 0.943489
vt 0.053373 0.994856
vt 0.053373 0.943489
vt 0.053373 0.994856
vt 0.053373 0.943489
vt 0.053373 0.994856
vt 0.053373 0.943489
vt 0.053373 0.994856
vt 0.053373 0.943489
vn 0.909434 0.043035 0.413616
vn -0.134271 0.004864 0.990933
vn -0.496341 -0.027145 0.867703
vn 0.902378 0.049804 0.428058
vn 0.817333 0.014952 0.575972
vn 0.069047 0.002172 0.997611
vn -0.923549 -0.010723 0.383332
vn -0.920212 -0.017518 0.391029
vn 0.909998 0.016796 0.414271
vn 0.913124 0.014319 0.407431
vn 0.518256 0.016755 0.855062
vn 0.017556 0.003260 0.999841
vn -0.877376 -0.015349 0.479557
vn -0.870798 -0.013919 0.491444
vn 0.917103 0.021419 0.398073
vn 0.923447 0.018897 0.383260
vn -0.458197 -0.015026 0.888724
vn -0.029786 0.002425 0.999553
vn -0.904314 -0.020894 0.426355
vn -0.895218 -0.029983 0.444619
vn 0.889732 0.030233 0.455481
vn 0.897523 0.024832 0.440268
vn -0.333407 -0.004704 0.942771
vn -0.046917 0.006146 0.998880
vn -0.923851 -0.030938 0.381500
vn -0.914877 -0.036272 0.402100
vn 0.920299 0.044967 0.388622
vn 0.925598 0.032988 0.377067
vn -0.896346 -0.039883 0.441558
vn -0.879496 -0.048340 0.473445
vn 0.029727 0.003227 0.999553
vn 0.030200 -0.032315 0.999021
vn -0.926083 0.034579 0.375733
vn -0.926255 -0.001182 0.376895
vn 0.919246 0.003326 0.393670
vn 0.925017 -0.057694 0.375519
vn 0.002540 -0.003677 0.999990
vn 0.062802 -0.032968 0.997481
vn -0.895598 0.078616 0.437862
vn -0.885407 -0.008054 0.464748
vn 0.927887 0.003724 0.372843
vn 0.893724 -0.101786 0.436918
vn 0.012549 0.007010 0.999897
vn 0.091496 -0.046480 0.994720
vn -0.911984 0.128710 0.389511
vn -0.913058 0.000014 0.407829
vn 0.906680 0.002712 0.421810
vn 0.908470 -0.153435 0.388768
vn -0.018271 -0.000484 0.999833
vn 0.098346 -0.061573 0.993246
vn -0.913636 0.181291 0.363873
vn -0.935273 -0.005483 0.353883
vn 0.929942 -0.000159 0.367707
vn 0.908191 -0.209702 0.362234
vn -0.054972 0.012730 0.998407
vn 0.142303 -0.081593 0.986455
vn -0.904752 0.238368 0.352993
vn -0.918889 -0.005120 0.394484
vn 0.915523 0.008564 0.402175
vn 0.897912 -0.266230 0.350536
f 44/44/1 43/43/2 21/21/3 1/1/4
f 5/5/5 35/35/6 34/34/7 3/3/8
f 7/7/9 36/36/10 35/35/6 5/5/5
f 9/9/11 37/37/12 36/36/13 7/7/14
f 11/11/15 38/38/16 37/37/12 9/9/11
f 13/13/17 39/39/18 38/38/19 11/11/20
f 15/15/21 40/40/22 39/39/18 13/13/17
f 17/17/23 41/41/24 40/40/25 15/15/26
f 19/19/27 42/42/28 41/41/24 17/17/23
f 21/21/3 43/43/2 42/42/29 19/19/30
f 24/24/31 6/6/32 4/4/33 23/23/34
f 25/25/35 8/8/36 6/6/32 24/24/31
f 26/26/37 10/10/38 8/8/39 25/25/40
f 27/27/41 12/12/42 10/10/38 26/26/37
f 28/28/43 14/14/44 12/12/45 27/27/46
f 29/29/47 16/16/48 14/14/44 28/28/43
f 30/30/49 18/18/50 16/16/51 29/29/52
f 31/31/53 20/20/54 18/18/50 30/30/49
f 32/32/55 22/22/56 20/20/57 31/31/58
f 33/33/59 2/2/60 22/22/56 32/32/55
f 24/24/31 23/23/34 34/34/7 35/35/6
f 25/25/35 24/24/31 35/35/6 36/36/10
f 26/26/37 25/25/40 36/36/13 37/37/12
f 27/27/41 26/26/37 37/37/12 38/38/16
f 28/28/43 27/27/46 38/38/19 39/39/18
f 29/29/47 28/28/43 39/39/18 40/40/22
f 30/30/49 29/29/52 40/40/25 41/41/24
f 31/31/53 30/30/49 41/41/24 42/42/28
f 32/32/55 31/31/58 42/42/29 43/43/2
f 33/33/59 32/32/55 43/43/2 44/44/1
