# This file uses meters as units for non-parametric coordinates.

v -14.448235 -110.879204 -2.270655
v -11.071793 0.000000 -2.270655
v 13.220566 -119.818817 -2.270655
v 14.279999 -0.206421 -2.270655
v 10.428955 -130.135712 3.767069
v 11.744820 -0.183772 3.767065
v 7.637337 -136.040649 -2.270655
v 9.209641 -0.183773 -2.270655
v 4.845726 -140.310425 2.727777
v 6.674469 -0.136296 2.727781
v 2.054115 -140.623291 -2.270655
v 4.139282 -0.101627 -2.270655
v -0.737495 -136.579285 3.427984
v 1.604111 -0.050462 3.427977
v -3.529114 -134.788803 -2.270655
v -0.931068 -0.000000 -2.270655
v -6.295418 -126.159378 3.832182
v -3.466255 0.000000 3.832182
v -9.066818 -128.087921 -2.270655
v -6.001427 0.000000 -2.270655
v -11.704941 -110.176628 3.967239
v -8.536621 0.000000 3.967241
v 14.448242 -6.980717 -2.270655
v 12.081306 -6.927549 3.767065
v 9.714371 -6.927551 -2.270655
v 7.349670 -6.834357 2.727785
v 4.986465 -6.770732 -2.270655
v 2.623589 -6.607685 3.427977
v 0.258423 -6.521790 -2.270655
v -2.105003 -6.332979 3.832182
v -4.464531 -6.218488 -2.270655
v -6.828850 -6.096912 3.967234
v -9.189537 -6.011076 -2.270655
v 14.207664 -66.412445 -2.270655
v 11.654877 -67.292023 3.767067
v 8.792183 -69.895897 -2.270655
v 5.869774 -70.141846 2.727786
v 4.307869 -70.442245 -2.270655
v 1.551170 -71.134605 3.427979
v -1.427177 -71.022720 -2.270655
v -3.605232 -69.053772 3.832181
v -6.046516 -68.322189 -2.270655
v -9.004112 -65.853294 3.967237
v -12.079201 -63.344177 -2.270656
vt 0.130441 0.755989
vt 0.243824 0.755989
vt 0.130441 0.755989
vt 0.243824 0.755989
vt 0.130441 0.807356
vt 0.243824 0.807356
vt 0.130441 0.755989
vt 0.243824 0.755989
vt 0.130441 0.807356
vt 0.243824 0.807356
vt 0.130441 0.755989
vt 0.243824 0.755989
vt 0.130441 0.807356
vt 0.243824 0.807356
vt 0.130441 0.755989
vt 0.243824 0.755989
vt 0.130441 0.807356
vt 0.243824 0.807356
vt 0.130441 0.755989
vt 0.243824 0.755989
vt 0.130441 0.807356
vt 0.243824 0.807356
vt 0.237065 0.755989
vt 0.237065 0.807356
vt 0.237065 0.755989
vt 0.237065 0.807356
vt 0.237065 0.755989
vt 0.237065 0.807356
vt 0.237065 0.755989
vt 0.237065 0.807356
vt 0.237065 0.755989
vt 0.237065 0.807356
vt 0.237065 0.755989
vt 0.178373 0.755989
vt 0.178373 0.807356
vt 0.178373 0.755989
vt 0.178373 0.807356
vt 0.178373 0.755989
vt 0.178373 0.807356
vt 0.178373 0.755989
vt 0.178373 0.807356
vt 0.178373 0.755989
vt 0.178373 0.807356
vt 0.178373 0.755989
vn -0.909434 0.043036 0.413615
vn -0.902378 0.049804 0.428057
vn 0.496342 -0.027145 0.867703
vn 0.134270 0.004864 0.990933
vn -0.817333 0.014951 0.575971
vn 0.920212 -0.017518 0.391028
vn 0.923548 -0.010723 0.383332
vn -0.069047 0.002173 0.997611
vn -0.909999 0.016796 0.414271
vn -0.913125 0.014318 0.407429
vn -0.518256 0.016755 0.855061
vn 0.870798 -0.013919 0.491444
vn 0.877376 -0.015349 0.479557
vn -0.017556 0.003260 0.999841
vn -0.917103 0.021419 0.398073
vn -0.923448 0.018897 0.383259
vn 0.458196 -0.015026 0.888724
vn 0.895218 -0.029983 0.444619
vn 0.904314 -0.020894 0.426356
vn 0.029786 0.002425 0.999553
vn -0.889732 0.030233 0.455481
vn -0.897523 0.024832 0.440268
vn 0.333407 -0.004704 0.942771
vn 0.914877 -0.036272 0.402100
vn 0.923851 -0.030938 0.381500
vn 0.046917 0.006146 0.998880
vn -0.920299 0.044967 0.388623
vn -0.925598 0.032988 0.377068
vn 0.879496 -0.048340 0.473445
vn 0.896346 -0.039883 0.441559
vn -0.029727 0.003227 0.999553
vn 0.926255 -0.001183 0.376896
vn 0.926083 0.034578 0.375733
vn -0.030198 -0.032315 0.999021
vn -0.919247 0.003326 0.393668
vn -0.925018 -0.057693 0.375518
vn -0.002540 -0.003677 0.999990
vn 0.885406 -0.008054 0.464748
vn 0.895598 0.078616 0.437863
vn -0.062802 -0.032968 0.997481
vn -0.927887 0.003724 0.372842
vn -0.893724 -0.101786 0.436917
vn -0.012549 0.007010 0.999897
vn 0.913058 0.000014 0.407830
vn 0.911984 0.128710 0.389512
vn -0.091496 -0.046479 0.994720
vn -0.906680 0.002712 0.421810
vn -0.908470 -0.153435 0.388768
vn 0.018271 -0.000484 0.999833
vn 0.935273 -0.005483 0.353883
vn 0.913636 0.181291 0.363873
vn -0.098346 -0.061573 0.993246
vn -0.929942 -0.000159 0.367707
vn -0.908191 -0.209702 0.362234
vn 0.054973 0.012730 0.998407
vn 0.918889 -0.005120 0.394484
vn 0.904752 0.238370 0.352993
vn -0.142305 -0.081594 0.986454
vn -0.915523 0.008564 0.402174
vn -0.897912 -0.266232 0.350535
f 44/44/1 1/1/2 21/21/3 43/43/4
f 5/5/5 3/3/6 34/34/7 35/35/8
f 7/7/9 5/5/5 35/35/8 36/36/10
f 9/9/11 7/7/12 36/36/13 37/37/14
f 11/11/15 9/9/11 37/37/14 38/38/16
f 13/13/17 11/11/18 38/38/19 39/39/20
f 15/15/21 13/13/17 39/39/20 40/40/22
f 17/17/23 15/15/24 40/40/25 41/41/26
f 19/19/27 17/17/23 41/41/26 42/42/28
f 21/21/3 19/19/29 42/42/30 43/43/4
f 24/24/31 23/23/32 4/4/33 6/6/34
f 25/25/35 24/24/31 6/6/34 8/8/36
f 26/26/37 25/25/38 8/8/39 10/10/40
f 27/27/41 26/26/37 10/10/40 12/12/42
f 28/28/43 27/27/44 12/12/45 14/14/46
f 29/29/47 28/28/43 14/14/46 16/16/48
f 30/30/49 29/29/50 16/16/51 18/18/52
f 31/31/53 30/30/49 18/18/52 20/20/54
f 32/32/55 31/31/56 20/20/57 22/22/58
f 33/33/59 32/32/55 22/22/58 2/2/60
f 24/24/31 35/35/8 34/34/7 23/23/32
f 25/25/35 36/36/10 35/35/8 24/24/31
f 26/26/37 37/37/14 36/36/13 25/25/38
f 27/27/41 38/38/16 37/37/14 26/26/37
f 28/28/43 39/39/20 38/38/19 27/27/44
f 29/29/47 40/40/22 39/39/20 28/28/43
f 30/30/49 41/41/26 40/40/25 29/29/50
f 31/31/53 42/42/28 41/41/26 30/30/49
f 32/32/55 43/43/4 42/42/30 31/31/56
f 33/33/59 44/44/1 43/43/4 32/32/55
