# This file uses meters as units for non-parametric coordinates.

v -34.133217 -0.000000 -3.223701
v -36.497696 -0.000000 1.778685
v -38.862190 -0.000000 -2.397479
v -41.226677 -0.000004 3.019993
v -43.591156 -0.000004 -1.585140
v -45.955643 -0.000004 5.010332
v -48.320137 -0.000004 -0.851517
v -50.684616 -0.000004 5.747520
v -53.049103 -0.000004 -0.267403
v -55.413589 -0.000004 6.241577
v -57.778072 -0.000006 0.157532
v -60.142567 -0.000006 5.573673
v -59.122486 -0.000006 0.241009
v -25.713980 -11.783104 1.248027
v -27.865107 -13.887432 6.379729
v -29.090261 -15.052074 0.967746
v -31.577583 -17.280056 6.306478
v -34.393963 -19.791071 0.305312
v -36.070480 -21.459778 6.810984
v -37.953083 -23.062178 -0.253808
v -40.380878 -25.530704 6.162130
v -42.228645 -28.058640 -1.081034
v -43.964153 -30.384834 5.381607
v -45.310276 -32.698322 -1.601606
v -46.746277 -34.537853 3.974998
v -47.958488 -36.411095 -1.757160
v 0.543684 -19.112093 -1.474594
v 0.543684 -22.748091 3.550777
v 0.543684 -25.877529 -1.474594
v 0.543684 -29.350262 3.855831
v 0.543684 -32.399734 -1.474594
v 0.543684 -36.119881 4.972431
v 0.543684 -38.680191 -1.474594
v 0.543686 -42.110317 4.988373
v 0.543682 -44.873924 -1.474594
v 0.543682 -47.750084 4.880508
v 0.543682 -49.718010 -1.474594
v 0.543678 -52.052883 3.843948
v 0.543682 -54.089546 -1.474594
v -12.785316 -18.027208 -0.325085
v -14.683853 -21.053699 4.331280
v -16.133907 -23.188580 -0.890097
v -18.018133 -26.150600 4.143755
v -19.726822 -29.289185 -1.377596
v -20.526882 -32.120014 4.972418
v -21.382183 -34.446819 -1.474585
v -23.672638 -37.971375 4.988368
v -24.827360 -40.698647 -1.474590
v -26.028070 -43.129700 4.880504
v -26.895699 -45.650387 -1.474590
v -28.121571 -47.197842 3.843943
v -29.101746 -49.007938 -1.474591
v -34.294697 -4.792215 -4.042986
v -36.376095 -4.716401 0.863100
v -38.086220 -4.616599 1.818225
v -40.261383 -4.478106 1.897058
v -42.642185 -4.304166 2.804096
v -44.484726 -4.316238 3.870701
v -46.563587 -4.101856 3.522640
v -48.852764 -4.046651 4.698936
v -50.887779 -4.346179 4.265377
v -53.004929 -4.487625 5.244816
v -55.064835 -4.856767 4.844879
v -57.174919 -4.721712 4.798141
v -59.263687 -4.741178 -0.141048
v -34.244141 -3.292176 -3.822603
v -36.414158 -3.240090 1.150210
v -38.329113 -3.171531 2.167539
v -40.563534 -3.076391 2.236919
v -42.939228 -2.956892 3.115879
v -44.945141 -2.965189 4.265774
v -47.113407 -2.817912 3.897366
v -49.426159 -2.779988 5.049236
v -51.564308 -2.985760 4.622612
v -53.758877 -3.082930 5.606625
v -55.914104 -3.336519 5.204502
v -58.103844 -3.243744 5.108643
v -59.219494 -3.257112 -0.003319
v 28.952471 -13.887424 6.379745
v 26.801346 -11.783097 1.248032
v 35.382065 -4.792206 -4.042984
v 37.463455 -4.716393 0.863083
v 30.177620 -15.052067 0.967743
v 39.173584 -4.616590 1.818192
v 32.664955 -17.280052 6.306511
v 41.348747 -4.478099 1.897095
v 35.481331 -19.791063 0.305290
v 43.729557 -4.304155 2.804092
v 37.157845 -21.459772 6.810982
v 45.572090 -4.316227 3.870712
v 39.040443 -23.062172 -0.253860
v 47.650955 -4.101844 3.522644
v 41.468239 -25.530693 6.162125
v 49.940132 -4.046640 4.698959
v 43.316010 -28.058628 -1.081070
v 51.975143 -4.346167 4.265366
v 45.051510 -30.384823 5.381622
v 54.092293 -4.487614 5.244781
v 46.397644 -32.698315 -1.601608
v 56.152191 -4.856754 4.844833
v 47.833637 -34.537846 3.974991
v 58.262283 -4.721699 4.798141
v 49.045856 -36.411079 -1.757126
v 60.351059 -4.741165 -0.141037
v 13.872679 -18.027203 -0.325089
v 15.771216 -21.053699 4.331284
v 17.221268 -23.188574 -0.890114
v 19.105501 -26.150597 4.143761
v 20.814186 -29.289183 -1.377594
v 21.614246 -32.120007 4.972420
v 22.469551 -34.446812 -1.474602
v 24.760006 -37.971367 4.988380
v 25.914722 -40.698639 -1.474594
v 27.115440 -43.129692 4.880501
v 27.983067 -45.650379 -1.474594
v 29.208942 -47.197838 3.843948
v 30.189121 -49.007931 -1.474579
v 35.331512 -3.292169 -3.822556
v 37.501526 -3.240083 1.150208
v 39.416481 -3.171522 2.167496
v 41.650906 -3.076381 2.236938
v 44.026596 -2.956881 3.115875
v 46.032516 -2.965177 4.265762
v 48.200779 -2.817901 3.897385
v 50.513527 -2.779977 5.049240
v 52.651672 -2.985747 4.622559
v 54.846241 -3.082917 5.606567
v 57.001480 -3.336506 5.204514
v 59.191200 -3.243731 5.108643
v 60.306866 -3.257097 -0.003281
v 35.220581 0.000005 -3.223701
v 37.585068 0.000005 1.778671
v 39.949562 0.000005 -2.397507
v 42.314045 0.000009 3.020020
v 44.678528 0.000009 -1.585159
v 47.043007 0.000009 5.010376
v 49.407505 0.000009 -0.851532
v 51.771988 0.000009 5.747543
v 54.136471 0.000009 -0.267410
v 56.500950 0.000009 6.241531
v 58.865440 0.000009 0.157471
v 61.229931 0.000009 5.573700
v 60.209854 0.000009 0.241043
vt 0.244116 0.943286
vt 0.244116 0.993702
vt 0.244116 0.943286
vt 0.244116 0.993702
vt 0.244116 0.943286
vt 0.244116 0.993702
vt 0.244116 0.943286
vt 0.244116 0.993702
vt 0.244116 0.943286
vt 0.244116 0.993702
vt 0.244116 0.943286
vt 0.244116 0.993702
vt 0.244116 0.943286
vt 0.188242 0.943286
vt 0.188242 0.993702
vt 0.188242 0.943286
vt 0.188242 0.993702
vt 0.188242 0.943286
vt 0.188242 0.993702
vt 0.188242 0.943286
vt 0.188242 0.993702
vt 0.188242 0.943286
vt 0.188242 0.993702
vt 0.188242 0.943286
vt 0.188242 0.993702
vt 0.188242 0.943286
vt 0.130627 0.943286
vt 0.130627 0.993702
vt 0.130627 0.943286
vt 0.130627 0.993702
vt 0.130627 0.943286
vt 0.130627 0.993702
vt 0.130627 0.943286
vt 0.130627 0.993702
vt 0.130627 0.943286
vt 0.130627 0.993702
vt 0.130627 0.943286
vt 0.130627 0.993702
vt 0.130627 0.943286
vt 0.161874 0.943286
vt 0.161874 0.993702
vt 0.161874 0.943286
vt 0.161874 0.993702
vt 0.161874 0.943286
vt 0.161874 0.993702
vt 0.161874 0.943286
vt 0.161874 0.993702
vt 0.161874 0.943286
vt 0.161874 0.993702
vt 0.161874 0.943286
vt 0.161874 0.993702
vt 0.161874 0.943286
vt 0.219110 0.943286
vt 0.219110 0.993702
vt 0.219110 0.943286
vt 0.219110 0.993702
vt 0.219110 0.943286
vt 0.219110 0.993702
vt 0.219110 0.943286
vt 0.219110 0.993702
vt 0.219110 0.943286
vt 0.219110 0.993702
vt 0.219110 0.943286
vt 0.219110 0.993702
vt 0.219110 0.943286
vt 0.226937 0.943286
vt 0.226937 0.993702
vt 0.226937 0.943286
vt 0.226937 0.993702
vt 0.226937 0.943286
vt 0.226937 0.993702
vt 0.226937 0.943286
vt 0.226937 0.993702
vt 0.226937 0.943286
vt 0.226937 0.993702
vt 0.226937 0.943286
vt 0.226937 0.993702
vt 0.226937 0.943286
vt 0.188242 0.993702
vt 0.188242 0.943286
vt 0.219110 0.943286
vt 0.219110 0.993702
vt 0.188242 0.943286
vt 0.219110 0.943286
vt 0.188242 0.993702
vt 0.219110 0.993702
vt 0.188242 0.943286
vt 0.219110 0.943286
vt 0.188242 0.993702
vt 0.219110 0.993702
vt 0.188242 0.943286
vt 0.219110 0.943286
vt 0.188242 0.993702
vt 0.219110 0.993702
vt 0.188242 0.943286
vt 0.219110 0.943286
vt 0.188242 0.993702
vt 0.219110 0.993702
vt 0.188242 0.943286
vt 0.219110 0.943286
vt 0.188242 0.993702
vt 0.219110 0.993702
vt 0.188242 0.943286
vt 0.219110 0.943286
vt 0.130627 0.993702
vt 0.130627 0.943286
vt 0.161874 0.943286
vt 0.161874 0.993702
vt 0.130627 0.943286
vt 0.161874 0.943286
vt 0.130627 0.993702
vt 0.161874 0.993702
vt 0.130627 0.943286
vt 0.161874 0.943286
vt 0.130627 0.993702
vt 0.161874 0.993702
vt 0.130627 0.943286
vt 0.161874 0.943286
vt 0.130627 0.993702
vt 0.161874 0.993702
vt 0.130627 0.943286
vt 0.161874 0.943286
vt 0.130627 0.993702
vt 0.161874 0.993702
vt 0.130627 0.943286
vt 0.161874 0.943286
vt 0.130627 0.993702
vt 0.161874 0.993702
vt 0.130627 0.943286
vt 0.161874 0.943286
vt 0.226937 0.943286
vt 0.226937 0.993702
vt 0.226937 0.943286
vt 0.226937 0.993702
vt 0.226937 0.943286
vt 0.226937 0.993702
vt 0.226937 0.943286
vt 0.226937 0.993702
vt 0.226937 0.943286
vt 0.226937 0.993702
vt 0.226937 0.943286
vt 0.226937 0.993702
vt 0.226937 0.943286
vt 0.244116 0.943286
vt 0.244116 0.993702
vt 0.244116 0.943286
vt 0.244116 0.993702
vt 0.244116 0.943286
vt 0.244116 0.993702
vt 0.244116 0.943286
vt 0.244116 0.993702
vt 0.244116 0.943286
vt 0.244116 0.993702
vt 0.244116 0.943286
vt 0.244116 0.993702
vt 0.244116 0.943286
vn 0.038830 0.087502 0.995407
vn 0.471796 0.744846 0.471818
vn 0.569752 0.723915 0.389012
vn 0.260074 0.526264 0.809573
vn -0.507064 -0.749266 0.426014
vn -0.556496 -0.471772 0.683918
vn -0.089835 -0.152119 0.984271
vn 0.521829 0.618705 0.587280
vn 0.532885 0.497319 0.684622
vn -0.312781 -0.096616 0.944899
vn -0.485296 -0.620867 0.615639
vn -0.525032 -0.301964 0.795713
vn -0.132750 -0.178233 0.974993
vn 0.645591 0.644998 0.408889
vn 0.786967 0.399911 0.469844
vn -0.391385 -0.192157 0.899941
vn -0.623406 -0.672228 0.399343
vn -0.759914 -0.384508 0.524103
vn -0.133119 -0.130826 0.982428
vn 0.633848 0.547201 0.546633
vn 0.764862 0.286842 0.576808
vn -0.268362 -0.159989 0.949940
vn -0.630567 -0.629560 0.453916
vn -0.767183 -0.344026 0.541366
vn -0.123713 -0.123147 0.984647
vn 0.694864 0.547687 0.466051
vn 0.822530 0.237970 0.516542
vn -0.178157 -0.172196 0.968818
vn -0.646741 -0.635357 0.421956
vn -0.786390 -0.340999 0.515084
vn -0.459538 -0.213786 0.862045
vn 0.682427 0.548120 0.483588
vn 0.787038 0.200259 0.583497
vn -0.683932 -0.295581 0.666985
vn -0.747436 -0.557928 0.360633
vn -0.886100 -0.325573 0.329893
vn 0.000000 -0.210605 0.977571
vn -0.000000 0.812791 0.582555
vn 0.258569 0.775667 0.575746
vn -0.004561 -0.257162 0.966358
vn 0.000000 -0.883577 0.468285
vn -0.267108 -0.866241 0.422233
vn -0.000000 -0.205216 0.978717
vn -0.000000 0.836841 0.547446
vn 0.305600 0.774362 0.554051
vn -0.014869 -0.257625 0.966131
vn 0.000000 -0.859424 0.511264
vn -0.273730 -0.807620 0.522324
vn 0.000000 -0.164501 0.986377
vn -0.000000 0.886220 0.463265
vn 0.337175 0.839020 0.427034
vn -0.079764 -0.202045 0.976123
vn 0.000000 -0.931110 0.364738
vn -0.337376 -0.872647 0.353079
vn -0.000000 -0.162548 0.986701
vn -0.000000 0.868705 0.495330
vn 0.321778 0.798603 0.508618
vn -0.053195 -0.216277 0.974882
vn 0.000000 -0.915391 0.402565
vn -0.336625 -0.848351 0.408638
vn 0.000000 -0.145515 0.989356
vn -0.000000 0.917482 0.397776
vn 0.333873 0.851365 0.404606
vn -0.057280 -0.181446 0.981731
vn 0.000000 -0.939644 0.342154
vn -0.333355 -0.871989 0.358483
vn -0.000000 -0.155228 0.987879
vn -0.000000 0.933754 0.357916
vn 0.314522 0.875313 0.367292
vn -0.036266 -0.169855 0.984802
vn 0.000000 -0.935608 0.353042
vn -0.331437 -0.871498 0.361443
vn 0.910275 -0.077817 0.406624
vn 0.732070 0.025844 0.680739
vn -0.336130 0.308369 0.889902
vn 0.587560 0.342684 0.733035
vn 0.308780 0.362958 0.879156
vn -0.394582 0.262647 0.880523
vn 0.744335 0.419345 0.519726
vn 0.358348 0.406539 0.840424
vn -0.749994 0.039988 0.660235
vn 0.679540 0.501037 0.535898
vn 0.291258 0.485531 0.824275
vn -0.754380 -0.027604 0.655857
vn 0.651533 0.535656 0.537194
vn 0.263055 0.478952 0.837500
vn -0.750259 -0.095838 0.654161
vn 0.481145 0.505918 0.715924
vn -0.605955 0.312708 0.731459
vn -0.948324 -0.299048 0.106072
vn 0.907177 -0.081366 0.412807
vn 0.607799 0.127655 0.783763
vn -0.539533 0.402244 0.739665
vn 0.680285 0.470455 0.562036
vn 0.127532 0.538891 0.832666
vn -0.572119 0.355325 0.739205
vn 0.755418 0.497190 0.426785
vn 0.056292 0.528341 0.847164
vn -0.803607 0.098336 0.586980
vn 0.686357 0.599828 0.411243
vn -0.050369 0.556178 0.829535
vn -0.819730 0.025952 0.572162
vn 0.660410 0.629107 0.409980
vn -0.119819 0.507742 0.853136
vn -0.818194 -0.055145 0.572292
vn 0.569946 0.669620 0.476205
vn -0.728810 0.370610 0.575746
vn -0.957858 -0.287096 0.009132
vn -0.038828 0.087500 0.995408
vn -0.260069 0.526263 0.809575
vn -0.569750 0.723917 0.389011
vn -0.471797 0.744846 0.471818
vn 0.507065 -0.749266 0.426012
vn 0.556501 -0.471772 0.683914
vn 0.089836 -0.152119 0.984271
vn 0.312783 -0.096616 0.944898
vn -0.532890 0.497323 0.684615
vn -0.521831 0.618706 0.587277
vn 0.485298 -0.620869 0.615636
vn 0.525039 -0.301968 0.795707
vn 0.132753 -0.178235 0.974992
vn 0.391388 -0.192158 0.899939
vn -0.786969 0.399912 0.469842
vn -0.645591 0.644998 0.408888
vn 0.623407 -0.672228 0.399341
vn 0.759915 -0.384509 0.524100
vn 0.133119 -0.130825 0.982428
vn 0.268364 -0.159990 0.949939
vn -0.764864 0.286843 0.576804
vn -0.633850 0.547203 0.546630
vn 0.630568 -0.629560 0.453914
vn 0.767185 -0.344026 0.541362
vn 0.123712 -0.123145 0.984647
vn 0.178159 -0.172195 0.968818
vn -0.822531 0.237971 0.516540
vn -0.694864 0.547688 0.466049
vn 0.646742 -0.635357 0.421956
vn 0.786390 -0.340999 0.515083
vn 0.459532 -0.213783 0.862048
vn 0.683928 -0.295581 0.666990
vn -0.787040 0.200260 0.583493
vn -0.682429 0.548119 0.483587
vn 0.747435 -0.557927 0.360635
vn 0.886099 -0.325573 0.329895
vn 0.004561 -0.257164 0.966357
vn -0.258569 0.775667 0.575746
vn 0.267109 -0.866241 0.422231
vn 0.014869 -0.257624 0.966131
vn -0.305601 0.774362 0.554050
vn 0.273731 -0.807620 0.522323
vn 0.079766 -0.202047 0.976122
vn -0.337176 0.839021 0.427033
vn 0.337377 -0.872647 0.353078
vn 0.053195 -0.216276 0.974882
vn -0.321779 0.798604 0.508616
vn 0.336626 -0.848351 0.408637
vn 0.057279 -0.181445 0.981732
vn -0.333874 0.851365 0.404606
vn 0.333355 -0.871988 0.358484
vn 0.036264 -0.169852 0.984802
vn -0.314522 0.875313 0.367292
vn 0.331437 -0.871498 0.361443
vn -0.732064 0.025845 0.680745
vn -0.910274 -0.077816 0.406626
vn 0.336142 0.308368 0.889898
vn -0.308787 0.362961 0.879153
vn -0.587573 0.342685 0.733024
vn 0.394593 0.262649 0.880518
vn -0.358351 0.406536 0.840424
vn -0.744338 0.419342 0.519725
vn 0.749995 0.039985 0.660234
vn -0.291253 0.485530 0.824277
vn -0.679541 0.501037 0.535898
vn 0.754387 -0.027614 0.655849
vn -0.263057 0.478951 0.837500
vn -0.651532 0.535655 0.537196
vn 0.750255 -0.095828 0.654167
vn 0.605947 0.312713 0.731464
vn -0.481153 0.505916 0.715920
vn 0.948324 -0.299049 0.106074
vn -0.607792 0.127657 0.783768
vn -0.907176 -0.081366 0.412809
vn 0.539539 0.402242 0.739661
vn -0.127536 0.538892 0.832664
vn -0.680293 0.470451 0.562030
vn 0.572126 0.355325 0.739200
vn -0.056294 0.528336 0.847167
vn -0.755422 0.497186 0.426784
vn 0.803608 0.098332 0.586979
vn 0.050375 0.556170 0.829540
vn -0.686358 0.599827 0.411242
vn 0.819734 0.025938 0.572156
vn 0.119817 0.507745 0.853135
vn -0.660411 0.629104 0.409982
vn 0.818191 -0.055132 0.572297
vn 0.728801 0.370620 0.575752
vn -0.569951 0.669620 0.476199
vn 0.957858 -0.287097 0.009134
f 15/15/1 14/14/2 53/53/3 54/54/4
f 16/16/5 15/15/1 54/54/4 55/55/6
f 17/17/7 16/16/8 55/55/9 56/56/10
f 18/18/11 17/17/7 56/56/10 57/57/12
f 19/19/13 18/18/14 57/57/15 58/58/16
f 20/20/17 19/19/13 58/58/16 59/59/18
f 21/21/19 20/20/20 59/59/21 60/60/22
f 22/22/23 21/21/19 60/60/22 61/61/24
f 23/23/25 22/22/26 61/61/27 62/62/28
f 24/24/29 23/23/25 62/62/28 63/63/30
f 25/25/31 24/24/32 63/63/33 64/64/34
f 26/26/35 25/25/31 64/64/34 65/65/36
f 28/28/37 27/27/38 40/40/39 41/41/40
f 29/29/41 28/28/37 41/41/40 42/42/42
f 30/30/43 29/29/44 42/42/45 43/43/46
f 31/31/47 30/30/43 43/43/46 44/44/48
f 32/32/49 31/31/50 44/44/51 45/45/52
f 33/33/53 32/32/49 45/45/52 46/46/54
f 34/34/55 33/33/56 46/46/57 47/47/58
f 35/35/59 34/34/55 47/47/58 48/48/60
f 36/36/61 35/35/62 48/48/63 49/49/64
f 37/37/65 36/36/61 49/49/64 50/50/66
f 38/38/67 37/37/68 50/50/69 51/51/70
f 39/39/71 38/38/67 51/51/70 52/52/72
f 41/41/40 40/40/39 14/14/2 15/15/1
f 42/42/42 41/41/40 15/15/1 16/16/5
f 43/43/46 42/42/45 16/16/8 17/17/7
f 44/44/48 43/43/46 17/17/7 18/18/11
f 45/45/52 44/44/51 18/18/14 19/19/13
f 46/46/54 45/45/52 19/19/13 20/20/17
f 47/47/58 46/46/57 20/20/20 21/21/19
f 48/48/60 47/47/58 21/21/19 22/22/23
f 49/49/64 48/48/63 22/22/26 23/23/25
f 50/50/66 49/49/64 23/23/25 24/24/29
f 51/51/70 50/50/69 24/24/32 25/25/31
f 52/52/72 51/51/70 25/25/31 26/26/35
f 54/54/4 53/53/3 66/66/73 67/67/74
f 55/55/6 54/54/4 67/67/74 68/68/75
f 56/56/10 55/55/9 68/68/76 69/69/77
f 57/57/12 56/56/10 69/69/77 70/70/78
f 58/58/16 57/57/15 70/70/79 71/71/80
f 59/59/18 58/58/16 71/71/80 72/72/81
f 60/60/22 59/59/21 72/72/82 73/73/83
f 61/61/24 60/60/22 73/73/83 74/74/84
f 62/62/28 61/61/27 74/74/85 75/75/86
f 63/63/30 62/62/28 75/75/86 76/76/87
f 64/64/34 63/63/33 76/76/88 77/77/89
f 65/65/36 64/64/34 77/77/89 78/78/90
f 67/67/74 66/66/73 1/1/91 2/2/92
f 68/68/75 67/67/74 2/2/92 3/3/93
f 69/69/77 68/68/76 3/3/94 4/4/95
f 70/70/78 69/69/77 4/4/95 5/5/96
f 71/71/80 70/70/79 5/5/97 6/6/98
f 72/72/81 71/71/80 6/6/98 7/7/99
f 73/73/83 72/72/82 7/7/100 8/8/101
f 74/74/84 73/73/83 8/8/101 9/9/102
f 75/75/86 74/74/85 9/9/103 10/10/104
f 76/76/87 75/75/86 10/10/104 11/11/105
f 77/77/89 76/76/88 11/11/106 12/12/107
f 78/78/90 77/77/89 12/12/107 13/13/108
f 79/79/109 82/82/110 81/81/111 80/80/112
f 83/83/113 84/84/114 82/82/110 79/79/109
f 85/85/115 86/86/116 84/84/117 83/83/118
f 87/87/119 88/88/120 86/86/116 85/85/115
f 89/89/121 90/90/122 88/88/123 87/87/124
f 91/91/125 92/92/126 90/90/122 89/89/121
f 93/93/127 94/94/128 92/92/129 91/91/130
f 95/95/131 96/96/132 94/94/128 93/93/127
f 97/97/133 98/98/134 96/96/135 95/95/136
f 99/99/137 100/100/138 98/98/134 97/97/133
f 101/101/139 102/102/140 100/100/141 99/99/142
f 103/103/143 104/104/144 102/102/140 101/101/139
f 28/105/37 106/108/145 105/107/146 27/106/38
f 29/109/41 107/110/147 106/108/145 28/105/37
f 30/111/43 108/112/148 107/110/149 29/109/44
f 31/113/47 109/114/150 108/112/148 30/111/43
f 32/115/49 110/116/151 109/114/152 31/113/50
f 33/117/53 111/118/153 110/116/151 32/115/49
f 34/119/55 112/120/154 111/118/155 33/117/56
f 35/121/59 113/122/156 112/120/154 34/119/55
f 36/123/61 114/124/157 113/122/158 35/121/62
f 37/125/65 115/126/159 114/124/157 36/123/61
f 38/127/67 116/128/160 115/126/161 37/125/68
f 39/129/71 117/130/162 116/128/160 38/127/67
f 106/108/145 79/79/109 80/80/112 105/107/146
f 107/110/147 83/83/113 79/79/109 106/108/145
f 108/112/148 85/85/115 83/83/118 107/110/149
f 109/114/150 87/87/119 85/85/115 108/112/148
f 110/116/151 89/89/121 87/87/124 109/114/152
f 111/118/153 91/91/125 89/89/121 110/116/151
f 112/120/154 93/93/127 91/91/130 111/118/155
f 113/122/156 95/95/131 93/93/127 112/120/154
f 114/124/157 97/97/133 95/95/136 113/122/158
f 115/126/159 99/99/137 97/97/133 114/124/157
f 116/128/160 101/101/139 99/99/142 115/126/161
f 117/130/162 103/103/143 101/101/139 116/128/160
f 82/82/110 119/132/163 118/131/164 81/81/111
f 84/84/114 120/133/165 119/132/163 82/82/110
f 86/86/116 121/134/166 120/133/167 84/84/117
f 88/88/120 122/135/168 121/134/166 86/86/116
f 90/90/122 123/136/169 122/135/170 88/88/123
f 92/92/126 124/137/171 123/136/169 90/90/122
f 94/94/128 125/138/172 124/137/173 92/92/129
f 96/96/132 126/139/174 125/138/172 94/94/128
f 98/98/134 127/140/175 126/139/176 96/96/135
f 100/100/138 128/141/177 127/140/175 98/98/134
f 102/102/140 129/142/178 128/141/179 100/100/141
f 104/104/144 130/143/180 129/142/178 102/102/140
f 119/132/163 132/145/181 131/144/182 118/131/164
f 120/133/165 133/146/183 132/145/181 119/132/163
f 121/134/166 134/147/184 133/146/185 120/133/167
f 122/135/168 135/148/186 134/147/184 121/134/166
f 123/136/169 136/149/187 135/148/188 122/135/170
f 124/137/171 137/150/189 136/149/187 123/136/169
f 125/138/172 138/151/190 137/150/191 124/137/173
f 126/139/174 139/152/192 138/151/190 125/138/172
f 127/140/175 140/153/193 139/152/194 126/139/176
f 128/141/177 141/154/195 140/153/193 127/140/175
f 129/142/178 142/155/196 141/154/197 128/141/179
f 130/143/180 143/156/198 142/155/196 129/142/178
