# This file uses meters as units for non-parametric coordinates.

v -19.867817 -231.390411 7.884521
v 19.867817 -231.395584 6.746487
v -19.867817 -219.170074 7.884521
v 19.867817 -219.164902 6.746487
v -26.490423 -218.965775 -0.647871
v 26.490423 -218.960907 -1.507849
v -26.490423 -231.594727 -0.647871
v 26.490423 -231.599564 -1.507849
v 26.490423 -218.976395 2.871184
v -26.490423 -231.579468 3.856639
v -26.490423 -218.981033 3.856639
v -0.000000 -230.841415 9.897338
v -0.000000 -219.719070 9.897338
v 26.490423 -231.584076 2.871184
v -19.184626 -231.368988 5.848166
v -0.061487 -230.841415 7.714231
v 19.139206 -231.377029 4.708531
v -19.184626 -219.191483 5.848166
v -0.061487 -219.719070 7.714231
v 19.139206 -219.183441 4.708532
v -24.817070 -219.010132 2.915830
v -24.288120 -219.001312 -0.647871
v 24.833138 -219.002777 1.920790
v 24.288120 -218.993195 -1.507849
v -24.288120 -231.559158 -0.647871
v -24.817070 -231.550339 2.915830
v 24.288120 -231.567307 -1.507849
v 24.833138 -231.557709 1.920790
v -9.771167 -231.014709 6.766746
v -10.087789 -231.025833 8.875340
v -10.087789 -219.534653 8.875340
v -9.771167 -219.545792 6.766746
v 9.337470 -231.006866 6.242907
v 9.725521 -231.016403 8.354960
v 9.725521 -219.544083 8.354960
v 9.337470 -219.553619 6.242907
vt 0.148280 0.766854
vt 0.164753 0.765356
vt 0.164861 0.798258
vt 0.148458 0.797471
vt 0.183456 0.765929
vt 0.201742 0.765093
vt 0.201687 0.798299
vt 0.183482 0.797410
vt 0.219559 0.797830
vt 0.219689 0.766060
vt 0.230284 0.768302
vt 0.230147 0.796186
vt 0.237242 0.766646
vt 0.237192 0.797861
vt 0.131395 0.798002
vt 0.131325 0.767132
vt 0.138343 0.769136
vt 0.138512 0.795928
vt 0.147741 0.761019
vt 0.164813 0.759402
vt 0.183424 0.759867
vt 0.201679 0.759061
vt 0.164970 0.804159
vt 0.148018 0.803232
vt 0.201597 0.804284
vt 0.183461 0.803431
vt 0.138696 0.799865
vt 0.134191 0.804258
vt 0.229949 0.800366
vt 0.219897 0.803855
vt 0.234839 0.804528
vt 0.134011 0.761329
vt 0.138403 0.765218
vt 0.230190 0.764128
vt 0.235001 0.760377
vt 0.220099 0.759956
vn -0.301670 0.000000 0.953412
vn -0.100794 0.000000 0.994907
vn -0.100794 0.000000 0.994907
vn -0.301670 0.000000 0.953412
vn 0.026184 0.000000 0.999657
vn 0.156633 -0.000000 0.987657
vn 0.156633 -0.000000 0.987657
vn 0.026184 0.000000 0.999657
vn 0.318458 -0.000000 0.947937
vn 0.318458 -0.000000 0.947937
vn 0.785546 0.000000 0.618803
vn 0.785546 0.000000 0.618803
vn 1.000000 0.000000 0.000000
vn 1.000000 0.000000 0.000000
vn -1.000000 0.000000 0.000000
vn -1.000000 0.000000 0.000000
vn -0.795318 0.000000 0.606192
vn -0.795318 0.000000 0.606192
vn 0.027832 -0.999613 -0.000174
vn 0.033447 -0.999437 0.002579
vn 0.033542 -0.999434 0.002544
vn 0.027224 -0.999629 -0.000259
vn -0.027758 -0.999614 0.001484
vn 0.000391 -0.999999 -0.000945
vn 0.000382 -1.000000 -0.000944
vn -0.027447 -0.999622 0.001426
vn 0.033446 0.999437 0.002590
vn 0.027832 0.999613 -0.000169
vn 0.027224 0.999629 -0.000254
vn 0.033540 0.999434 0.002555
vn 0.000391 0.999999 -0.000940
vn -0.027759 0.999614 0.001479
vn -0.027447 0.999622 0.001421
vn 0.000382 1.000000 -0.000940
vn 0.023880 0.999705 0.004560
vn 0.023796 0.999707 0.004554
vn 0.017680 0.999835 0.004137
vn 0.017680 0.999835 0.004137
vn -0.033083 0.999443 0.004339
vn -0.022885 0.999723 0.005535
vn -0.022795 0.999725 0.005519
vn -0.033193 0.999440 0.004307
vn -0.016269 0.999858 0.004348
vn -0.016269 0.999858 0.004348
vn 0.023890 -0.999704 0.004547
vn 0.017696 -0.999835 0.004137
vn 0.017696 -0.999835 0.004137
vn 0.023806 -0.999706 0.004541
vn -0.016258 -0.999858 0.004348
vn -0.022880 -0.999723 0.005540
vn -0.022791 -0.999725 0.005524
vn -0.016258 -0.999858 0.004348
vn -0.033083 -0.999443 0.004350
vn -0.033193 -0.999440 0.004318
f 1/1/1 30/2/2 31/3/3 3/4/4
f 12/5/5 34/6/6 35/7/7 13/8/8
f 4/9/9 2/10/10 14/11/11 9/12/12
f 14/11/11 8/13/13 6/14/14 9/12/12
f 5/15/15 7/16/16 10/17/17 11/18/18
f 10/17/17 1/1/1 3/4/4 11/18/18
f 30/2/19 1/1/20 15/19/21 29/20/22
f 34/6/23 12/5/24 16/21/25 33/22/26
f 3/4/27 31/3/28 32/23/29 18/24/30
f 13/8/31 35/7/32 36/25/33 19/26/34
f 11/18/35 3/4/27 18/24/30 21/27/36
f 5/15/37 11/18/35 21/27/36 22/28/38
f 4/9/39 9/12/40 23/29/41 20/30/42
f 9/12/40 6/14/43 24/31/44 23/29/41
f 10/17/45 7/16/46 25/32/47 26/33/48
f 1/1/20 10/17/45 26/33/48 15/19/21
f 8/13/49 14/11/50 28/34/51 27/35/52
f 14/11/50 2/10/53 17/36/54 28/34/51
f 12/5/24 30/2/19 29/20/22 16/21/25
f 31/3/3 30/2/2 12/5/5 13/8/8
f 32/23/29 31/3/28 13/8/31 19/26/34
f 2/10/53 34/6/23 33/22/26 17/36/54
f 35/7/7 34/6/6 2/10/10 4/9/9
f 36/25/33 35/7/32 4/9/39 20/30/42
