# This file uses meters as units for non-parametric coordinates.

v -95.404030 -13.558762 15.998947
v 95.404045 -13.558762 15.998947
v -95.404030 2.690693 15.998947
v 95.404045 2.690693 15.998947
v -95.404030 2.690693 -4.545349
v 95.404045 2.690693 -4.545349
v -95.404030 -13.558762 -4.545349
v 95.404045 -13.558762 -4.545349
v -92.050491 2.690693 13.268728
v 92.050507 2.690693 13.268728
v 92.050507 2.690693 -1.815128
v -92.050491 2.690693 -1.815128
v -92.050491 -13.558762 -1.815128
v 92.050507 -13.558762 -1.815128
v 92.050507 -13.558762 13.268728
v -92.050491 -13.558762 13.268728
vt 0.111418 0.833692
vt 0.010335 0.833692
vt 0.029473 0.868897
vt 0.110231 0.868897
vt 0.093840 0.868897
vt 0.029473 0.868897
vt 0.029689 0.820412
vt 0.093841 0.820412
vt 0.029689 0.820412
vt 0.012555 0.820412
vt 0.012617 0.868897
vt 0.110232 0.820412
vt 0.110232 0.820412
vt 0.029473 0.868897
vt 0.093840 0.868897
vt 0.093841 0.820412
vt 0.010335 0.853160
vt 0.111418 0.853160
vt 0.111418 0.866668
vt 0.010335 0.866668
vt 0.010334 0.853170
vt 0.010335 0.866677
vt 0.111417 0.853160
vt 0.111418 0.866667
vt 0.010335 0.833692
vt 0.111418 0.833692
vt 0.111418 0.820185
vt 0.010335 0.820185
vt 0.110231 0.868897
vt 0.010335 0.820185
vt 0.029473 0.820412
vt 0.111418 0.820185
vt 0.012617 0.868897
vt 0.029597 0.868897
vt 0.029689 0.820412
vt 0.012555 0.820412
vt 0.010335 0.820185
vt 0.010335 0.833692
vt 0.010335 0.866668
vt 0.010335 0.853160
vn 0.000000 0.000000 1.000000
vn 0.000000 0.000000 1.000000
vn 0.000000 0.000000 1.000000
vn 0.000000 0.000000 1.000000
vn 0.000000 0.000000 -1.000000
vn 0.000000 0.000000 -1.000000
vn 0.000000 0.000000 -1.000000
vn 0.000000 0.000000 -1.000000
vn 1.000000 0.000000 0.000000
vn 1.000000 0.000000 0.000000
vn 1.000000 0.000000 0.000000
vn 1.000000 0.000000 0.000000
vn -1.000000 0.000000 0.000000
vn -1.000000 0.000000 0.000000
vn -1.000000 0.000000 0.000000
vn -1.000000 0.000000 0.000000
vn 0.000000 1.000000 -0.000000
vn 0.000000 1.000000 -0.000000
vn 0.000000 1.000000 -0.000000
vn 0.000000 1.000000 -0.000000
vn 0.000000 1.000000 0.000000
vn 0.000000 1.000000 0.000000
vn 0.000000 1.000000 0.000000
vn 0.000000 1.000000 0.000000
vn 0.000000 -1.000000 -0.000000
vn 0.000000 -1.000000 -0.000000
vn 0.000000 -1.000000 -0.000000
vn 0.000000 -1.000000 -0.000000
vn 0.000000 -1.000000 0.000000
vn 0.000000 -1.000000 0.000000
vn 0.000000 -1.000000 0.000000
vn 0.000000 -1.000000 0.000000
vn -1.000000 0.000000 0.000000
vn -1.000000 0.000000 0.000000
vn -1.000000 0.000000 0.000000
vn -1.000000 0.000000 0.000000
vn 0.000000 0.000000 1.000000
vn 0.000000 0.000000 1.000000
vn 0.000000 0.000000 1.000000
vn 0.000000 0.000000 1.000000
vn 1.000000 0.000000 0.000000
vn 1.000000 0.000000 0.000000
vn 1.000000 0.000000 0.000000
vn 1.000000 0.000000 0.000000
vn 0.000000 0.000000 -1.000000
vn 0.000000 0.000000 -1.000000
vn 0.000000 0.000000 -1.000000
vn 0.000000 0.000000 -1.000000
f 1/12/1 2/9/2 4/3/3 3/4/4
f 5/5/5 6/6/6 8/7/7 7/8/8
f 2/9/9 8/10/10 6/11/11 4/3/12
f 7/8/13 1/12/14 3/4/15 5/5/16
f 3/17/17 4/18/18 10/19/19 9/20/20
f 4/18/18 6/40/21 11/39/22 10/19/19
f 6/21/21 5/23/23 12/24/24 11/22/22
f 5/23/23 3/17/17 9/20/20 12/24/24
f 7/25/25 8/26/26 14/27/27 13/28/28
f 8/26/26 2/38/29 15/37/30 14/27/27
f 2/2/29 1/1/31 16/32/32 15/30/30
f 1/1/31 7/25/25 13/28/28 16/32/32
f 10/33/33 11/34/34 14/35/35 15/36/36
f 11/34/37 12/29/38 13/13/39 14/35/40
f 12/29/41 9/15/42 16/16/43 13/13/44
f 9/15/45 10/14/46 15/31/47 16/16/48
