# This file uses meters as units for non-parametric coordinates.

v -191.919528 -13.558757 15.998947
v 191.919528 -13.558757 15.998947
v -191.919528 2.690695 15.998947
v 191.919528 2.690695 15.998947
v -191.919528 2.690695 -4.545348
v 191.919528 2.690695 -4.545348
v -191.919528 -13.558757 -4.545348
v 191.919528 -13.558757 -4.545348
v -188.565986 2.690695 13.268728
v 188.565999 2.690695 13.268728
v 188.565999 2.690695 -1.815129
v -188.565986 2.690695 -1.815129
v -188.565986 -13.558757 -1.815129
v 188.565999 -13.558757 -1.815129
v 188.565999 -13.558757 13.268728
v -188.565986 -13.558757 13.268728
vt 0.236418 0.958692
vt 0.135335 0.958692
vt 0.154473 0.993897
vt 0.235231 0.993897
vt 0.218840 0.993897
vt 0.154473 0.993897
vt 0.154689 0.945412
vt 0.218841 0.945412
vt 0.154689 0.945412
vt 0.137555 0.945412
vt 0.137617 0.993897
vt 0.235232 0.945412
vt 0.235232 0.945412
vt 0.154473 0.993897
vt 0.218840 0.993897
vt 0.218841 0.945412
vt 0.135335 0.978160
vt 0.236418 0.978160
vt 0.236418 0.991668
vt 0.135335 0.991668
vt 0.135334 0.978170
vt 0.135335 0.991677
vt 0.236417 0.978160
vt 0.236418 0.991667
vt 0.135335 0.958692
vt 0.236418 0.958692
vt 0.236418 0.945185
vt 0.135335 0.945185
vt 0.235231 0.993897
vt 0.135335 0.945185
vt 0.154473 0.945412
vt 0.236418 0.945185
vt 0.137617 0.993897
vt 0.154597 0.993897
vt 0.154689 0.945412
vt 0.137555 0.945412
vt 0.135335 0.945185
vt 0.135335 0.958692
vt 0.135335 0.991668
vt 0.135335 0.978160
vn 0.000000 0.000000 1.000000
vn 0.000000 0.000000 1.000000
vn 0.000000 0.000000 1.000000
vn 0.000000 0.000000 1.000000
vn 0.000000 0.000000 -1.000000
vn 0.000000 0.000000 -1.000000
vn 0.000000 0.000000 -1.000000
vn 0.000000 0.000000 -1.000000
vn 1.000000 0.000000 0.000000
vn 1.000000 0.000000 0.000000
vn 1.000000 0.000000 0.000000
vn 1.000000 0.000000 0.000000
vn -1.000000 0.000000 0.000000
vn -1.000000 0.000000 0.000000
vn -1.000000 0.000000 0.000000
vn -1.000000 0.000000 0.000000
vn 0.000000 1.000000 0.000000
vn 0.000000 1.000000 0.000000
vn 0.000000 1.000000 0.000000
vn 0.000000 1.000000 0.000000
vn 0.000000 1.000000 -0.000000
vn 0.000000 1.000000 -0.000000
vn 0.000000 1.000000 -0.000000
vn 0.000000 1.000000 -0.000000
vn 0.000000 -1.000000 -0.000000
vn 0.000000 -1.000000 -0.000000
vn 0.000000 -1.000000 -0.000000
vn 0.000000 -1.000000 -0.000000
vn 0.000000 -1.000000 -0.000000
vn 0.000000 -1.000000 -0.000000
vn 0.000000 -1.000000 -0.000000
vn 0.000000 -1.000000 -0.000000
vn -1.000000 0.000000 0.000000
vn -1.000000 0.000000 0.000000
vn -1.000000 0.000000 0.000000
vn -1.000000 0.000000 0.000000
vn 0.000000 0.000000 1.000000
vn 0.000000 0.000000 1.000000
vn 0.000000 0.000000 1.000000
vn 0.000000 0.000000 1.000000
vn 1.000000 0.000000 0.000000
vn 1.000000 0.000000 0.000000
vn 1.000000 0.000000 0.000000
vn 1.000000 0.000000 0.000000
vn 0.000000 0.000000 -1.000000
vn 0.000000 0.000000 -1.000000
vn 0.000000 0.000000 -1.000000
vn 0.000000 0.000000 -1.000000
f 1/12/1 2/9/2 4/3/3 3/4/4
f 5/5/5 6/6/6 8/7/7 7/8/8
f 2/9/9 8/10/10 6/11/11 4/3/12
f 7/8/13 1/12/14 3/4/15 5/5/16
f 3/17/17 4/18/18 10/19/19 9/20/20
f 4/18/18 6/40/21 11/39/22 10/19/19
f 6/21/21 5/23/23 12/24/24 11/22/22
f 5/23/23 3/17/17 9/20/20 12/24/24
f 7/25/25 8/26/26 14/27/27 13/28/28
f 8/26/26 2/38/29 15/37/30 14/27/27
f 2/2/29 1/1/31 16/32/32 15/30/30
f 1/1/31 7/25/25 13/28/28 16/32/32
f 10/33/33 11/34/34 14/35/35 15/36/36
f 11/34/37 12/29/38 13/13/39 14/35/40
f 12/29/41 9/15/42 16/16/43 13/13/44
f 9/15/45 10/14/46 15/31/47 16/16/48
