# This file uses meters as units for non-parametric coordinates.

v -55.192913 101.740325 33.132115
v -56.898670 101.740325 33.132115
v -55.192913 102.774635 33.132115
v -56.898670 102.774635 33.132115
v -55.192913 102.774635 28.243581
v -56.898670 102.774635 28.243581
v -55.192913 101.740325 28.243581
v -56.898670 101.740325 28.243581
v -70.520569 101.740325 33.132115
v -68.814804 101.740325 33.132115
v -70.520569 102.774635 33.132115
v -68.814804 102.774635 33.132115
v -70.520569 102.774635 28.243581
v -68.814804 102.774635 28.243581
v -70.520569 101.740325 28.243581
v -68.814804 101.740325 28.243581
v -51.053097 102.250663 33.865750
v -74.660393 102.250663 33.865750
v -51.392151 103.115783 33.000615
v -51.053097 102.856277 33.260125
v -51.392151 102.250663 32.642266
v -51.053097 102.250663 33.009263
v -51.392151 101.385520 33.000615
v -51.053097 101.645026 33.260125
v -51.392151 101.027152 33.865750
v -51.053097 101.394180 33.865750
v -51.392151 101.385520 34.730886
v -51.053097 101.645026 34.471379
v -51.392151 102.250663 35.089234
v -51.053097 102.250663 34.722238
v -51.392151 103.115783 34.730886
v -51.053097 102.856292 34.471379
v -51.392151 103.474120 33.865750
v -51.053097 103.107131 33.865754
v -74.321335 103.115783 33.000615
v -74.660393 102.856277 33.260125
v -74.321335 102.250663 32.642266
v -74.660393 102.250663 33.009263
v -74.321335 101.385520 33.000615
v -74.660393 101.645026 33.260125
v -74.321335 101.027152 33.865750
v -74.660393 101.394180 33.865750
v -74.321335 101.385520 34.730886
v -74.660393 101.645026 34.471379
v -74.321335 102.250663 35.089234
v -74.660393 102.250663 34.722238
v -74.321335 103.115783 34.730886
v -74.660393 102.856292 34.471379
v -74.321335 103.474120 33.865750
v -74.660393 103.107131 33.865754
v 55.192913 101.740325 33.132115
v 56.898670 101.740325 33.132115
v 55.192913 102.774635 33.132115
v 56.898670 102.774635 33.132115
v 55.192913 102.774635 28.243581
v 56.898670 102.774635 28.243581
v 55.192913 101.740325 28.243581
v 56.898670 101.740325 28.243581
v 70.520569 101.740325 33.132115
v 68.814812 101.740325 33.132115
v 70.520569 102.774635 33.132115
v 68.814812 102.774635 33.132115
v 70.520569 102.774635 28.243581
v 68.814812 102.774635 28.243581
v 70.520569 101.740325 28.243581
v 68.814812 101.740325 28.243581
v 51.053097 102.250663 33.865750
v 74.660385 102.250663 33.865750
v 51.392151 103.115783 33.000615
v 51.053097 102.856277 33.260125
v 51.392151 102.250663 32.642266
v 51.053097 102.250663 33.009263
v 51.392151 101.385520 33.000615
v 51.053097 101.645026 33.260125
v 51.392151 101.027152 33.865750
v 51.053097 101.394180 33.865750
v 51.392151 101.385520 34.730886
v 51.053097 101.645026 34.471379
v 51.392151 102.250663 35.089234
v 51.053097 102.250663 34.722238
v 51.392151 103.115783 34.730886
v 51.053097 102.856292 34.471379
v 51.392151 103.474120 33.865750
v 51.053097 103.107131 33.865754
v 74.321335 103.115783 33.000615
v 74.660385 102.856277 33.260125
v 74.321335 102.250663 32.642266
v 74.660385 102.250663 33.009263
v 74.321335 101.385520 33.000615
v 74.660385 101.645026 33.260125
v 74.321335 101.027152 33.865750
v 74.660385 101.394180 33.865750
v 74.321335 101.385520 34.730886
v 74.660385 101.645026 34.471379
v 74.321335 102.250663 35.089234
v 74.660385 102.250663 34.722238
v 74.321335 103.115783 34.730886
v 74.660385 102.856292 34.471379
v 74.321335 103.474120 33.865750
v 74.660385 103.107131 33.865754
vt 0.461008 0.984425
vt 0.447570 0.984425
vt 0.447570 0.984425
vt 0.461008 0.984425
vt 0.447570 0.993662
vt 0.461008 0.993662
vt 0.461008 0.993662
vt 0.447570 0.993662
vt 0.461008 0.984425
vt 0.461008 0.993662
vt 0.447570 0.984425
vt 0.461008 0.984425
vt 0.461008 0.993662
vt 0.447570 0.993662
vt 0.461008 0.993662
vt 0.447570 0.993662
vt 0.447570 0.984425
vt 0.461008 0.984425
vt 0.461008 0.993662
vt 0.461008 0.984425
vt 0.461307 0.983110
vt 0.461394 0.983289
vt 0.461394 0.984124
vt 0.461307 0.984302
vt 0.461395 0.992468
vt 0.461307 0.992647
vt 0.461307 0.991455
vt 0.461395 0.991633
vt 0.461395 0.984481
vt 0.461395 0.985316
vt 0.461307 0.985494
vt 0.461395 0.985673
vt 0.461395 0.986508
vt 0.461307 0.986686
vt 0.461395 0.986865
vt 0.461395 0.987700
vt 0.461307 0.987879
vt 0.461395 0.988057
vt 0.461395 0.988892
vt 0.461307 0.989071
vt 0.461395 0.989249
vt 0.461395 0.990084
vt 0.461307 0.990263
vt 0.461395 0.990441
vt 0.461395 0.991276
vt 0.447142 0.992647
vt 0.447054 0.992468
vt 0.447054 0.991633
vt 0.447142 0.991455
vt 0.447054 0.983289
vt 0.447142 0.983110
vt 0.447142 0.984302
vt 0.447054 0.984124
vt 0.447054 0.984481
vt 0.447142 0.985494
vt 0.447054 0.985316
vt 0.447054 0.985673
vt 0.447142 0.986686
vt 0.447054 0.986508
vt 0.447054 0.986865
vt 0.447142 0.987879
vt 0.447054 0.987700
vt 0.447054 0.988057
vt 0.447142 0.989071
vt 0.447054 0.988892
vt 0.447054 0.989249
vt 0.447142 0.990263
vt 0.447054 0.990084
vt 0.447054 0.990441
vt 0.447054 0.991276
vt 0.447524 0.985739
vt 0.449681 0.986632
vt 0.447524 0.988667
vt 0.445367 0.986632
vt 0.444474 0.988789
vt 0.445367 0.990946
vt 0.447524 0.991839
vt 0.449681 0.990946
vt 0.450574 0.988789
vt 0.449828 0.991146
vt 0.447805 0.991983
vt 0.447805 0.989009
vt 0.445783 0.991146
vt 0.444945 0.989123
vt 0.445783 0.987101
vt 0.447805 0.986263
vt 0.449828 0.987101
vt 0.450665 0.989123
vt 0.447570 0.984425
vt 0.461008 0.984425
vt 0.461008 0.993662
vt 0.447570 0.993662
vt 0.461008 0.993662
vt 0.447570 0.993662
vt 0.447570 0.984425
vt 0.461008 0.984425
vt 0.461008 0.993662
vt 0.461008 0.984425
vt 0.447570 0.984425
vt 0.447570 0.993662
vt 0.461008 0.993662
vt 0.461008 0.984425
vt 0.461008 0.993662
vt 0.461008 0.984425
vt 0.447570 0.984425
vt 0.447570 0.993662
vt 0.461008 0.993662
vt 0.461008 0.984425
vt 0.461307 0.983110
vt 0.461307 0.984302
vt 0.461394 0.984124
vt 0.461394 0.983289
vt 0.461395 0.992468
vt 0.461395 0.991633
vt 0.461307 0.991455
vt 0.461307 0.992647
vt 0.461307 0.985494
vt 0.461395 0.985316
vt 0.461395 0.984481
vt 0.461307 0.986686
vt 0.461395 0.986508
vt 0.461395 0.985673
vt 0.461307 0.987879
vt 0.461395 0.987700
vt 0.461395 0.986865
vt 0.461307 0.989071
vt 0.461395 0.988892
vt 0.461395 0.988057
vt 0.461307 0.990263
vt 0.461395 0.990084
vt 0.461395 0.989249
vt 0.461395 0.991276
vt 0.461395 0.990441
vt 0.447142 0.992647
vt 0.447142 0.991455
vt 0.447054 0.991633
vt 0.447054 0.992468
vt 0.447054 0.983289
vt 0.447054 0.984124
vt 0.447142 0.984302
vt 0.447142 0.983110
vt 0.447054 0.984481
vt 0.447054 0.985316
vt 0.447142 0.985494
vt 0.447054 0.985673
vt 0.447054 0.986508
vt 0.447142 0.986686
vt 0.447054 0.986865
vt 0.447054 0.987700
vt 0.447142 0.987879
vt 0.447054 0.988057
vt 0.447054 0.988892
vt 0.447142 0.989071
vt 0.447054 0.989249
vt 0.447054 0.990084
vt 0.447142 0.990263
vt 0.447054 0.990441
vt 0.447054 0.991276
vt 0.447524 0.985739
vt 0.447524 0.988667
vt 0.449681 0.986632
vt 0.445367 0.986632
vt 0.444474 0.988789
vt 0.445367 0.990946
vt 0.447524 0.991839
vt 0.449681 0.990946
vt 0.450574 0.988789
vt 0.449828 0.991146
vt 0.447805 0.989009
vt 0.447805 0.991983
vt 0.445783 0.991146
vt 0.444945 0.989123
vt 0.445783 0.987101
vt 0.447805 0.986263
vt 0.449828 0.987101
vt 0.450665 0.989123
vn 0.000000 1.000000 0.000000
vn 0.000000 1.000000 0.000000
vn 0.000000 1.000000 0.000000
vn 0.000000 1.000000 0.000000
vn 0.000000 -1.000000 0.000000
vn 0.000000 -1.000000 0.000000
vn 0.000000 -1.000000 0.000000
vn 0.000000 -1.000000 0.000000
vn -1.000000 0.000000 0.000000
vn -1.000000 0.000000 0.000000
vn -1.000000 0.000000 0.000000
vn -1.000000 0.000000 0.000000
vn 1.000000 0.000000 0.000000
vn 1.000000 0.000000 0.000000
vn 1.000000 0.000000 0.000000
vn 1.000000 0.000000 0.000000
vn 0.000000 1.000000 0.000000
vn 0.000000 1.000000 0.000000
vn 0.000000 1.000000 0.000000
vn 0.000000 1.000000 0.000000
vn 0.000000 -1.000000 0.000000
vn 0.000000 -1.000000 0.000000
vn 0.000000 -1.000000 0.000000
vn 0.000000 -1.000000 0.000000
vn 1.000000 0.000000 0.000000
vn 1.000000 0.000000 0.000000
vn 1.000000 0.000000 0.000000
vn 1.000000 0.000000 0.000000
vn -1.000000 0.000000 0.000000
vn -1.000000 0.000000 0.000000
vn -1.000000 0.000000 0.000000
vn -1.000000 0.000000 0.000000
vn 0.011023 0.707073 -0.707054
vn 0.867356 0.351923 -0.351914
vn 0.867359 -0.000001 -0.497684
vn 0.011023 -0.000000 -0.999939
vn 0.011023 0.999939 -0.000000
vn 0.867353 0.497694 -0.000004
vn 0.867359 -0.351915 -0.351915
vn 0.011023 -0.707055 -0.707073
vn 0.867362 -0.497678 -0.000000
vn 0.011023 -0.999939 0.000000
vn 0.867358 -0.351915 0.351917
vn 0.011023 -0.707055 0.707073
vn 0.867358 0.000001 0.497684
vn 0.011023 -0.000000 0.999939
vn 0.867353 0.351929 0.351914
vn 0.011023 0.707073 0.707054
vn -0.011023 0.707073 -0.707054
vn -0.867355 0.351924 -0.351917
vn -0.867353 0.497693 -0.000002
vn -0.011023 0.999939 -0.000000
vn -0.011023 0.000000 -0.999939
vn -0.867355 0.000002 -0.497689
vn -0.011024 -0.707055 -0.707073
vn -0.867360 -0.351909 -0.351918
vn -0.011024 -0.999939 -0.000000
vn -0.867365 -0.497673 -0.000001
vn -0.011023 -0.707055 0.707073
vn -0.867358 -0.351912 0.351921
vn -0.011023 0.000000 0.999939
vn -0.867354 0.000000 0.497691
vn -0.011023 0.707073 0.707054
vn -0.867353 0.351925 0.351920
vn 1.000000 0.000000 0.000000
vn -1.000000 -0.000001 0.000000
vn 0.000000 1.000000 0.000000
vn 0.000000 1.000000 0.000000
vn 0.000000 1.000000 0.000000
vn 0.000000 1.000000 0.000000
vn 0.000000 -1.000000 0.000000
vn 0.000000 -1.000000 0.000000
vn 0.000000 -1.000000 0.000000
vn 0.000000 -1.000000 0.000000
vn 1.000000 0.000000 0.000000
vn 1.000000 0.000000 0.000000
vn 1.000000 0.000000 0.000000
vn 1.000000 0.000000 0.000000
vn -1.000000 0.000000 0.000000
vn -1.000000 0.000000 0.000000
vn -1.000000 0.000000 0.000000
vn -1.000000 0.000000 0.000000
vn 0.000000 1.000000 0.000000
vn 0.000000 1.000000 0.000000
vn 0.000000 1.000000 0.000000
vn 0.000000 1.000000 0.000000
vn 0.000000 -1.000000 0.000000
vn 0.000000 -1.000000 0.000000
vn 0.000000 -1.000000 0.000000
vn 0.000000 -1.000000 0.000000
vn -1.000000 0.000000 0.000000
vn -1.000000 0.000000 0.000000
vn -1.000000 0.000000 0.000000
vn -1.000000 0.000000 0.000000
vn 1.000000 0.000000 0.000000
vn 1.000000 0.000000 0.000000
vn 1.000000 0.000000 0.000000
vn 1.000000 0.000000 0.000000
vn -0.011023 0.707073 -0.707054
vn -0.011023 -0.000000 -0.999939
vn -0.867359 -0.000000 -0.497684
vn -0.867356 0.351924 -0.351914
vn -0.867353 0.497693 -0.000004
vn -0.011023 0.999939 -0.000000
vn -0.011024 -0.707055 -0.707073
vn -0.867359 -0.351915 -0.351915
vn -0.011024 -0.999939 0.000000
vn -0.867363 -0.497676 -0.000000
vn -0.011023 -0.707055 0.707073
vn -0.867359 -0.351914 0.351917
vn -0.011023 -0.000000 0.999939
vn -0.867358 -0.000001 0.497685
vn -0.011023 0.707073 0.707054
vn -0.867354 0.351927 0.351916
vn 0.011023 0.707073 -0.707054
vn 0.011023 0.999939 -0.000000
vn 0.867359 0.497683 -0.000004
vn 0.867358 0.351922 -0.351911
vn 0.867360 0.000002 -0.497681
vn 0.011023 0.000000 -0.999939
vn 0.867363 -0.351907 -0.351912
vn 0.011024 -0.707055 -0.707073
vn 0.867369 -0.497666 -0.000000
vn 0.011024 -0.999939 0.000000
vn 0.867362 -0.351909 0.351914
vn 0.011023 -0.707055 0.707073
vn 0.867360 0.000000 0.497681
vn 0.011023 0.000000 0.999939
vn 0.867359 0.351918 0.351913
vn 0.011023 0.707073 0.707054
vn -1.000000 -0.000000 0.000000
vn 1.000000 -0.000000 0.000000
f 3/3/1 5/5/2 6/6/3 4/4/4
f 7/7/5 1/9/6 2/2/7 8/8/8
f 2/2/9 4/4/10 6/6/11 8/8/12
f 7/10/13 5/5/14 3/3/15 1/1/16
f 11/11/17 12/12/18 14/13/19 13/14/20
f 15/15/21 16/16/22 10/17/23 9/18/24
f 10/17/25 16/16/26 14/13/27 12/12/28
f 15/19/29 9/20/30 11/11/31 13/14/32
f 19/21/33 20/22/34 22/23/35 21/24/36
f 20/25/34 19/26/33 33/27/37 34/28/38
f 21/24/36 22/29/35 24/30/39 23/31/40
f 23/31/40 24/32/39 26/33/41 25/34/42
f 25/34/42 26/35/41 28/36/43 27/37/44
f 27/37/44 28/38/43 30/39/45 29/40/46
f 29/40/46 30/41/45 32/42/47 31/43/48
f 31/43/48 32/44/47 34/45/38 33/27/37
f 35/46/49 36/47/50 50/48/51 49/49/52
f 36/50/50 35/51/49 37/52/53 38/53/54
f 38/54/54 37/52/53 39/55/55 40/56/56
f 40/57/56 39/55/55 41/58/57 42/59/58
f 42/60/58 41/58/57 43/61/59 44/62/60
f 44/63/60 43/61/59 45/64/61 46/65/62
f 46/66/62 45/64/61 47/67/63 48/68/64
f 48/69/64 47/67/63 49/49/52 50/70/51
f 19/21/33 21/24/36 37/52/53 35/51/49
f 21/24/36 23/31/40 39/55/55 37/52/53
f 23/31/40 25/34/42 41/58/57 39/55/55
f 25/34/42 27/37/44 43/61/59 41/58/57
f 27/37/44 29/40/46 45/64/61 43/61/59
f 29/40/46 31/43/48 47/67/63 45/64/61
f 31/43/48 33/27/37 49/49/52 47/67/63
f 33/27/37 19/26/33 35/46/49 49/49/52
f 22/71/35 20/72/34 17/73/65
f 24/74/39 22/71/35 17/73/65
f 26/75/41 24/74/39 17/73/65
f 28/76/43 26/75/41 17/73/65
f 30/77/45 28/76/43 17/73/65
f 32/78/47 30/77/45 17/73/65
f 34/79/38 32/78/47 17/73/65
f 20/72/34 34/79/38 17/73/65
f 36/80/50 38/81/54 18/82/66
f 38/81/54 40/83/56 18/82/66
f 40/83/56 42/84/58 18/82/66
f 42/84/58 44/85/60 18/82/66
f 44/85/60 46/86/62 18/82/66
f 46/86/62 48/87/64 18/82/66
f 48/87/64 50/88/51 18/82/66
f 50/88/51 36/80/50 18/82/66
f 53/89/67 54/90/68 56/91/69 55/92/70
f 57/93/71 58/94/72 52/95/73 51/96/74
f 52/95/75 58/94/76 56/91/77 54/90/78
f 57/97/79 51/98/80 53/89/81 55/92/82
f 61/99/83 63/100/84 64/101/85 62/102/86
f 65/103/87 59/104/88 60/105/89 66/106/90
f 60/105/91 62/102/92 64/101/93 66/106/94
f 65/107/95 63/100/96 61/99/97 59/108/98
f 69/109/99 71/110/100 72/111/101 70/112/102
f 70/113/102 84/114/103 83/115/104 69/116/99
f 71/110/100 73/117/105 74/118/106 72/119/101
f 73/117/105 75/120/107 76/121/108 74/122/106
f 75/120/107 77/123/109 78/124/110 76/125/108
f 77/123/109 79/126/111 80/127/112 78/128/110
f 79/126/111 81/129/113 82/130/114 80/131/112
f 81/129/113 83/115/104 84/132/103 82/133/114
f 85/134/115 99/135/116 100/136/117 86/137/118
f 86/138/118 88/139/119 87/140/120 85/141/115
f 88/142/119 90/143/121 89/144/122 87/140/120
f 90/145/121 92/146/123 91/147/124 89/144/122
f 92/148/123 94/149/125 93/150/126 91/147/124
f 94/151/125 96/152/127 95/153/128 93/150/126
f 96/154/127 98/155/129 97/156/130 95/153/128
f 98/157/129 100/158/117 99/135/116 97/156/130
f 69/109/99 85/141/115 87/140/120 71/110/100
f 71/110/100 87/140/120 89/144/122 73/117/105
f 73/117/105 89/144/122 91/147/124 75/120/107
f 75/120/107 91/147/124 93/150/126 77/123/109
f 77/123/109 93/150/126 95/153/128 79/126/111
f 79/126/111 95/153/128 97/156/130 81/129/113
f 81/129/113 97/156/130 99/135/116 83/115/104
f 83/115/104 99/135/116 85/134/115 69/116/99
f 72/159/101 67/160/131 70/161/102
f 74/162/106 67/160/131 72/159/101
f 76/163/108 67/160/131 74/162/106
f 78/164/110 67/160/131 76/163/108
f 80/165/112 67/160/131 78/164/110
f 82/166/114 67/160/131 80/165/112
f 84/167/103 67/160/131 82/166/114
f 70/161/102 67/160/131 84/167/103
f 86/168/118 68/169/132 88/170/119
f 88/170/119 68/169/132 90/171/121
f 90/171/121 68/169/132 92/172/123
f 92/172/123 68/169/132 94/173/125
f 94/173/125 68/169/132 96/174/127
f 96/174/127 68/169/132 98/175/129
f 98/175/129 68/169/132 100/176/117
f 100/176/117 68/169/132 86/168/118
