# This file uses meters as units for non-parametric coordinates.

v -43.762806 194.090277 37.492802
v -44.578732 194.867430 38.308735
v 44.578732 194.867430 38.308735
v 43.762806 194.090277 37.492802
v -52.272594 201.057109 37.492802
v -51.384480 201.140911 38.308735
v -51.456661 201.834291 37.492802
v 52.272587 201.057109 37.492802
v 51.456654 201.834291 37.492802
v 51.384472 201.140911 38.308735
v -52.272594 201.057109 -37.492798
v -51.456661 201.834291 -37.492798
v -51.384480 201.140911 -38.308731
v 52.272587 201.057109 -37.492798
v 51.384472 201.140911 -38.308731
v 51.456654 201.834291 -37.492798
v -44.578732 194.867430 -38.308731
v -43.762806 194.090277 -37.492798
v 43.762806 194.090277 -37.492798
v 44.578732 194.867430 -38.308731
v -44.578732 0.000000 37.492802
v -43.762806 0.777165 37.492802
v -44.578732 0.777165 38.308735
v -43.762806 110.210930 37.492802
v -44.578732 110.210930 38.308735
v -52.272594 0.777165 37.492802
v -51.456661 0.000000 37.492802
v -51.456661 0.777165 38.308735
v -52.272594 110.210930 37.492802
v -51.456661 110.210930 38.308735
v -51.456661 0.777165 -38.308735
v -51.456661 0.000000 -37.492802
v -52.272594 0.777165 -37.492802
v -52.272594 110.210930 -37.492802
v -51.456661 110.210930 -38.308735
v -43.762806 0.777165 -37.492802
v -44.578732 0.000000 -37.492802
v -44.578732 0.777165 -38.308735
v -44.578732 110.210930 -38.308735
v -43.762806 110.210930 -37.492802
v 43.762806 0.777165 37.492802
v 44.578732 0.000000 37.492802
v 44.578732 0.777165 38.308735
v 43.762798 110.210930 37.492802
v 44.578724 110.210930 38.308735
v 51.456669 0.000000 37.492802
v 52.272602 0.777165 37.492802
v 51.456669 0.777165 38.308735
v 52.272587 110.210930 37.492802
v 51.456654 110.210930 38.308735
v 51.456669 0.000000 -37.492802
v 51.456669 0.777165 -38.308735
v 52.272602 0.777165 -37.492802
v 52.272587 110.210930 -37.492802
v 51.456654 110.210930 -38.308735
v 44.578732 0.000000 -37.492802
v 43.762806 0.777165 -37.492802
v 44.578732 0.777165 -38.308735
v 44.578724 110.210930 -38.308735
v 43.762798 110.210930 -37.492802
vt 0.860241 0.608678
vt 0.860241 0.512570
vt 0.762837 0.512570
vt 0.762837 0.608678
vt 0.762440 0.605212
vt 0.762440 0.605212
vt 0.762440 0.516035
vt 0.762440 0.516035
vt 0.762440 0.516035
vt 0.762440 0.605213
vt 0.762440 0.605212
vt 0.762440 0.516035
vt 0.762440 0.512570
vt 0.762440 0.511524
vt 0.860639 0.511524
vt 0.860639 0.512570
vt 0.762546 0.517027
vt 0.762440 0.511524
vt 0.860639 0.511524
vt 0.860551 0.517027
vt 0.762440 0.511524
vt 0.762440 0.512570
vt 0.860639 0.512570
vt 0.860639 0.511524
vt 0.762440 0.604814
vt 0.763132 0.608678
vt 0.860639 0.608678
vt 0.860639 0.605212
vt 0.860639 0.604814
vt 0.762440 0.608678
vt 0.762440 0.512570
vt 0.763132 0.608678
vt 0.762440 0.604814
vt 0.860639 0.605212
vt 0.860639 0.608678
vt 0.860639 0.608678
vt 0.860639 0.512570
vt 0.763132 0.512570
vt 0.762440 0.516434
vt 0.860639 0.516035
vt 0.860639 0.512570
vt 0.860639 0.516434
vt 0.762440 0.516433
vt 0.763132 0.512570
vt 0.860639 0.512570
vt 0.860639 0.516035
vt 0.762440 0.605094
vt 0.762440 0.608678
vt 0.860639 0.608678
vt 0.860639 0.605212
vt 0.762527 0.604220
vt 0.860533 0.604220
vt 0.860639 0.608678
vt 0.762440 0.608678
vt 0.762440 0.605094
vt 0.860639 0.605212
vt 0.860639 0.608678
vt 0.763132 0.512570
vt 0.762440 0.512570
vt 0.762440 0.608678
vt 0.763132 0.608678
vt 0.763132 0.516035
vt 0.763132 0.511524
vt 0.860639 0.511524
vt 0.860639 0.516035
vt 0.763132 0.605212
vt 0.762440 0.608678
vt 0.763132 0.608678
vt 0.763132 0.512570
vt 0.762440 0.512570
vt 0.762440 0.516035
vt 0.763132 0.516035
vt 0.763132 0.605212
vt 0.762440 0.605212
vt 0.762440 0.512570
vt 0.763132 0.512570
vt 0.763132 0.608678
vt 0.762440 0.608678
vt 0.763132 0.516035
vt 0.763132 0.605212
vt 0.763132 0.511524
vt 0.860639 0.516035
vt 0.860639 0.511524
vt 0.763132 0.608678
vt 0.762440 0.608678
vt 0.762440 0.512570
vt 0.763132 0.512570
vt 0.763132 0.516035
vt 0.762440 0.516034
vt 0.762440 0.605213
vt 0.763132 0.605213
vt 0.860639 0.512570
vt 0.762440 0.516154
vt 0.762440 0.516154
vt 0.762440 0.603668
vt 0.860639 0.604247
vn 0.000000 1.000000 0.000000
vn 0.000000 1.000000 0.000000
vn 0.000000 1.000000 0.000000
vn 0.000000 1.000000 0.000000
vn 0.000000 -1.000000 0.000000
vn 0.000000 -1.000000 0.000000
vn 0.000000 -1.000000 0.000000
vn 0.000000 -1.000000 0.000000
vn 0.000000 -1.000000 0.000000
vn 0.000000 -1.000000 0.000000
vn 0.000000 -1.000000 0.000000
vn 0.000000 -1.000000 0.000000
vn 0.707111 0.000000 0.707103
vn 0.707111 0.000000 0.707103
vn 0.707110 0.000000 0.707103
vn 0.707110 0.000000 0.707103
vn 0.000000 -0.724102 0.689692
vn 0.000000 -0.724102 0.689692
vn 0.000000 -0.724102 0.689692
vn 0.000000 -0.724102 0.689692
vn -0.707111 0.000000 0.707103
vn -0.707111 0.000000 0.707103
vn -0.707110 0.000000 0.707103
vn -0.707110 0.000000 0.707103
vn -0.691651 0.000275 0.722232
vn -0.691651 0.000275 0.722232
vn -0.700051 0.000126 0.714093
vn -0.700049 0.000126 0.714095
vn 0.000000 0.762022 0.647552
vn 0.000000 0.762022 0.647552
vn 0.000000 0.762022 0.647552
vn 0.000000 0.762022 0.647552
vn -0.689702 0.724093 0.000000
vn -0.689702 0.724093 0.000000
vn -0.689702 0.724093 0.000000
vn -0.689702 0.724093 0.000000
vn 0.691651 0.000275 0.722232
vn 0.691651 0.000275 0.722231
vn 0.700049 0.000126 0.714095
vn 0.700051 0.000126 0.714093
vn 0.689702 0.724093 0.000000
vn 0.689702 0.724093 0.000000
vn 0.689702 0.724093 0.000000
vn 0.689702 0.724093 0.000000
vn -0.691653 0.000275 -0.722230
vn -0.691653 0.000275 -0.722230
vn -0.700050 0.000126 -0.714094
vn -0.700051 0.000126 -0.714093
vn 0.000000 0.762022 -0.647552
vn 0.000000 0.762022 -0.647552
vn 0.000000 0.762022 -0.647552
vn 0.000000 0.762022 -0.647552
vn 0.691653 0.000275 -0.722230
vn 0.691653 0.000275 -0.722230
vn 0.700051 0.000126 -0.714093
vn 0.700050 0.000126 -0.714094
vn 0.707111 0.000000 -0.707103
vn 0.707111 0.000000 -0.707103
vn 0.707110 0.000000 -0.707103
vn 0.707110 0.000000 -0.707103
vn 0.000000 -0.724102 -0.689692
vn 0.000000 -0.724102 -0.689692
vn 0.000000 -0.724102 -0.689692
vn 0.000000 -0.724102 -0.689692
vn -0.707111 0.000000 -0.707103
vn -0.707111 0.000000 -0.707103
vn -0.707110 0.000000 -0.707103
vn -0.707110 0.000000 -0.707103
vn 0.689697 -0.724098 0.000000
vn 0.689697 -0.724098 0.000000
vn 0.689697 -0.724098 0.000000
vn 0.689697 -0.724098 0.000000
vn 0.707110 0.000000 0.707103
vn 0.707110 0.000000 0.707103
vn 0.000000 -0.724100 0.689695
vn 0.000000 -0.724100 0.689695
vn 0.000000 -0.724100 0.689695
vn 0.000000 -0.724100 0.689695
vn -0.689695 -0.724100 0.000000
vn -0.689695 -0.724100 0.000000
vn -0.689695 -0.724100 0.000000
vn -0.689695 -0.724100 0.000000
vn -0.707107 0.000000 0.707107
vn -0.707107 0.000000 0.707107
vn 0.000000 -0.724100 -0.689695
vn 0.000000 -0.724100 -0.689695
vn 0.000000 -0.724100 -0.689695
vn 0.000000 -0.724100 -0.689695
vn -0.707107 0.000000 -0.707107
vn -0.707107 0.000000 -0.707107
vn 0.707110 0.000000 -0.707103
vn 0.707110 0.000000 -0.707103
vn -0.689697 -0.724098 0.000000
vn -0.689697 -0.724098 0.000000
vn -0.689697 -0.724098 0.000000
vn -0.689697 -0.724098 0.000000
vn 0.000000 -0.724100 0.689695
vn 0.000000 -0.724100 0.689695
vn 0.000000 -0.724100 0.689695
vn 0.000000 -0.724100 0.689695
vn -0.707110 -0.000000 0.707103
vn -0.707110 -0.000000 0.707103
vn 0.689695 -0.724100 0.000000
vn 0.689695 -0.724100 0.000000
vn 0.689695 -0.724100 0.000000
vn 0.689695 -0.724100 0.000000
vn 0.707107 0.000000 0.707107
vn 0.707107 0.000000 0.707107
vn 0.000000 -0.724100 -0.689695
vn 0.000000 -0.724100 -0.689695
vn 0.000000 -0.724100 -0.689695
vn 0.000000 -0.724100 -0.689695
vn 0.707107 0.000000 -0.707107
vn 0.707107 0.000000 -0.707107
vn -0.707110 -0.000000 -0.707103
vn -0.707110 -0.000000 -0.707103
vn -0.000000 0.000000 1.000000
vn 0.000000 0.000000 1.000000
vn 0.000000 0.000000 1.000000
vn -0.000000 0.000000 1.000000
vn 0.000000 0.000000 -1.000000
vn 0.000000 0.000000 -1.000000
vn 0.000000 0.000000 -1.000000
vn 0.000000 0.000000 -1.000000
vn 0.000000 -1.000000 0.000000
vn 0.000000 -1.000000 0.000000
vn 0.000000 -1.000000 0.000000
vn 0.000000 -1.000000 0.000000
vn 0.000000 0.000000 -1.000000
vn 0.000000 0.000000 -1.000000
vn 1.000000 0.000000 0.000000
vn 1.000000 0.000000 0.000000
vn 1.000000 0.000000 0.000000
vn 1.000000 0.000000 0.000000
vn -0.000000 0.000000 1.000000
vn -0.000000 0.000000 1.000000
vn 0.000000 0.000000 -1.000000
vn 0.000000 0.000000 -1.000000
vn -1.000000 -0.000000 0.000000
vn -1.000000 0.000000 0.000000
vn -1.000000 0.000000 0.000000
vn -1.000000 -0.000000 0.000000
vn 0.000000 0.000000 1.000000
vn 0.000000 0.000000 1.000000
vn -1.000000 0.000000 0.000000
vn -1.000000 0.000000 0.000000
vn -1.000000 0.000000 0.000000
vn -1.000000 0.000000 0.000000
vn 1.000000 0.000000 0.000000
vn 1.000000 0.000000 0.000000
vn 1.000000 0.000000 0.000000
vn 1.000000 0.000000 0.000000
vn 1.000000 0.000000 0.000000
vn 1.000000 0.000000 0.000000
vn 0.000000 0.000000 1.000000
vn 0.000000 0.000000 1.000000
vn -1.000000 0.000000 0.000000
vn -1.000000 0.000000 0.000000
vn 0.000000 0.000000 -1.000000
vn 0.000000 0.000000 -1.000000
vn 0.000000 0.000000 1.000000
vn 0.000000 0.000000 1.000000
vn -1.000000 -0.000000 0.000000
vn -1.000000 -0.000000 0.000000
vn 1.000000 0.000000 0.000000
vn 1.000000 0.000000 0.000000
vn 0.000000 0.000000 -1.000000
vn 0.000000 0.000000 -1.000000
vn -0.571306 0.599786 0.560238
vn -0.571306 0.599786 0.560238
vn -0.571306 0.599786 0.560238
vn 0.571303 0.599791 0.560236
vn 0.571302 0.599791 0.560236
vn 0.571302 0.599791 0.560236
vn -0.571305 0.599787 -0.560239
vn -0.571305 0.599786 -0.560239
vn -0.571305 0.599786 -0.560239
vn 0.571303 0.599790 -0.560236
vn 0.571303 0.599790 -0.560236
vn 0.571303 0.599790 -0.560236
vn 0.567759 -0.596076 0.567754
vn 0.567759 -0.596076 0.567754
vn 0.567759 -0.596076 0.567754
vn -0.567755 -0.596078 0.567755
vn -0.567755 -0.596078 0.567755
vn -0.567755 -0.596078 0.567755
vn -0.567755 -0.596078 -0.567755
vn -0.567755 -0.596078 -0.567755
vn -0.567755 -0.596078 -0.567755
vn 0.567759 -0.596076 -0.567754
vn 0.567759 -0.596076 -0.567754
vn 0.567759 -0.596076 -0.567754
vn -0.567759 -0.596076 0.567754
vn -0.567759 -0.596076 0.567754
vn -0.567759 -0.596076 0.567754
vn 0.567755 -0.596078 0.567755
vn 0.567755 -0.596078 0.567755
vn 0.567755 -0.596078 0.567755
vn 0.567755 -0.596078 -0.567755
vn 0.567755 -0.596078 -0.567755
vn 0.567755 -0.596078 -0.567755
vn -0.567759 -0.596076 -0.567754
vn -0.567759 -0.596076 -0.567754
vn -0.567759 -0.596076 -0.567754
f 9/1/1 16/2/2 12/3/3 7/4/4
f 27/5/5 32/6/6 37/7/7 21/8/8
f 56/9/9 51/10/10 46/11/11 42/12/12
f 1/13/13 2/14/14 25/15/15 24/16/16
f 2/17/17 1/18/18 4/19/19 3/20/20
f 3/21/21 4/22/22 44/23/23 45/24/24
f 6/25/25 5/26/26 29/27/27 30/28/28
f 7/4/29 6/25/30 10/29/31 9/1/32
f 5/30/33 7/4/34 12/3/35 11/31/36
f 8/32/37 10/33/38 50/34/39 49/35/40
f 9/1/41 8/36/42 14/37/43 16/2/44
f 11/38/45 13/39/46 35/40/47 34/41/48
f 13/39/49 12/3/50 16/2/51 15/42/52
f 15/43/53 14/44/54 54/45/55 55/46/56
f 17/47/57 18/48/58 40/49/59 39/50/60
f 18/48/61 17/51/62 20/52/63 19/53/64
f 19/54/65 20/55/66 59/56/67 60/57/68
f 22/58/69 21/59/70 37/60/71 36/61/72
f 23/62/73 22/63/74 24/64/16 25/65/15
f 21/8/75 23/62/76 28/66/77 27/5/78
f 27/67/79 26/68/80 33/69/81 32/70/82
f 26/68/83 28/66/84 30/28/28 29/27/27
f 32/71/85 31/72/86 38/73/87 37/74/88
f 31/72/89 33/69/90 34/41/48 35/40/47
f 36/61/91 38/73/92 39/50/60 40/49/59
f 42/75/93 41/76/94 57/77/95 56/78/96
f 43/79/97 42/12/98 46/11/99 48/80/100
f 41/81/101 43/79/102 45/82/24 44/83/23
f 47/84/103 46/85/104 51/86/105 53/87/106
f 48/80/107 47/84/108 49/35/40 50/34/39
f 52/88/109 51/89/110 56/90/111 58/91/112
f 53/87/113 52/88/114 55/46/56 54/45/55
f 58/91/115 57/77/116 60/57/68 59/56/67
f 2/17/117 3/20/118 10/29/119 6/25/120
f 13/39/121 15/42/122 20/52/123 17/51/124
f 18/48/125 19/53/126 4/92/127 1/13/128
f 39/50/129 35/40/130 13/39/121 17/47/124
f 24/16/131 40/49/132 18/48/133 1/13/134
f 30/28/135 25/65/136 2/93/117 6/25/120
f 59/56/137 20/55/123 15/43/122 55/46/138
f 44/23/139 4/22/140 19/54/141 60/57/142
f 50/34/143 10/33/119 3/94/118 45/82/144
f 29/27/145 5/26/146 11/38/147 34/41/148
f 54/45/149 14/44/150 8/32/151 49/35/152
f 24/16/131 22/58/153 36/61/154 40/49/132
f 30/28/135 28/66/155 23/62/156 25/65/136
f 34/41/148 33/69/157 26/68/158 29/27/145
f 39/50/129 38/73/159 31/72/160 35/40/130
f 45/82/144 43/79/161 48/80/162 50/34/143
f 60/57/142 57/77/163 41/76/164 44/23/139
f 49/35/152 47/84/165 53/87/166 54/45/149
f 55/46/138 52/88/167 58/91/168 59/56/137
f 5/95/169 6/25/170 7/4/171
f 8/96/172 9/1/173 10/29/174
f 11/31/175 12/3/176 13/39/177
f 14/37/178 15/42/179 16/2/180
f 21/8/181 22/63/182 23/62/183
f 26/68/184 27/5/185 28/66/186
f 31/72/187 32/70/188 33/69/189
f 36/61/190 37/74/191 38/73/192
f 41/81/193 42/12/194 43/79/195
f 46/11/196 47/84/197 48/80/198
f 51/86/199 52/88/200 53/87/201
f 56/90/202 57/77/203 58/91/204
