# This file uses meters as units for non-parametric coordinates.

v -98.109550 55.922462 -25.358896
v 98.109550 55.922462 -25.358896
v -98.109550 53.077065 -25.358896
v 98.109550 53.077065 -25.358896
v -98.109550 87.610695 -25.358896
v 98.109550 87.610695 -25.358896
v -98.109550 84.765297 -25.358896
v 98.109550 84.765297 -25.358896
v 0.000000 24.677555 -25.004112
v 0.000000 116.943214 -25.004112
v 98.109550 24.677555 -25.004112
v 98.109550 116.943214 -25.004112
v -98.109550 24.677555 -25.004112
v -98.109550 116.943214 -25.004112
v -101.569763 119.843689 30.797297
v -101.654877 120.810387 29.729139
v -102.723022 119.742241 29.729139
v 0.000000 120.810387 29.729139
v 0.000000 119.742241 30.797297
v -101.654877 119.742241 -30.797297
v -102.723022 119.742241 -29.729139
v -101.654877 120.810387 -29.729139
v 0.000000 120.810387 -29.729139
v 0.000000 119.742241 -30.797297
v -102.723022 21.878542 -29.729139
v -101.654877 21.878542 -30.797297
v -101.654877 20.810387 -29.729139
v 0.000000 20.810387 -29.729139
v 0.000000 21.878542 -30.797297
v 101.569763 119.843689 30.797297
v 102.723022 119.742241 29.729139
v 101.654877 120.810387 29.729139
v 102.723022 119.742241 -29.729139
v 101.654877 119.742241 -30.797297
v 101.654877 120.810387 -29.729139
v -101.569763 21.777084 30.797297
v -102.723022 21.878542 29.729139
v -101.654877 20.810387 29.729139
v 101.569763 21.777084 30.797297
v 101.654877 20.810387 29.729139
v 102.723022 21.878542 29.729139
v 101.654877 21.878542 -30.797297
v 102.723022 21.878542 -29.729139
v 101.654877 20.810387 -29.729139
v 0.000000 20.810387 29.729139
v 0.000000 21.878542 30.797297
v 99.177704 118.011375 30.797297
v 98.109550 116.943214 29.729139
v 99.177704 23.609406 30.797297
v 98.109550 24.677555 29.729139
v 0.000000 118.011375 30.797297
v 0.000000 116.943214 29.729139
v -99.177704 118.011375 30.797297
v -98.109550 116.943214 29.729139
v -99.177704 23.609406 30.797297
v -98.109550 24.677555 29.729139
v 0.000000 23.609406 30.797297
v 0.000000 24.677555 29.729139
v -98.109550 53.077065 27.038380
v -98.109550 53.788342 27.749659
v 98.109550 53.788342 27.749659
v 98.109550 53.077065 27.038380
v -98.109550 55.211185 27.749659
v -98.109550 55.922462 27.038380
v 98.109550 55.922462 27.038380
v 98.109550 55.211185 27.749659
v -98.109550 84.765297 27.038380
v -98.109550 85.476578 27.749659
v 98.109550 85.476578 27.749659
v 98.109550 84.765297 27.038380
v -98.109550 86.899414 27.749659
v -98.109550 87.610695 27.038380
v 98.109550 87.610695 27.038380
v 98.109550 86.899414 27.749659
vt 0.403277 0.889931
vt 0.379691 0.889931
vt 0.379691 0.889931
vt 0.379247 0.889629
vt 0.402853 0.889629
vt 0.379247 0.889629
vt 0.402853 0.889629
vt 0.379024 0.900108
vt 0.379040 0.900191
vt 0.403277 0.900180
vt 0.403277 0.900108
vt 0.378823 0.900108
vt 0.379024 0.889701
vt 0.378823 0.889701
vt 0.403277 0.889618
vt 0.379040 0.900191
vt 0.379024 0.900108
vt 0.379024 0.900180
vt 0.378823 0.900180
vt 0.379024 0.889629
vt 0.403277 0.889701
vt 0.403277 0.889629
vt 0.379024 0.889701
vt 0.379024 0.889629
vt 0.379024 0.900108
vt 0.403277 0.900180
vt 0.403277 0.900108
vt 0.378823 0.900108
vt 0.379024 0.889701
vt 0.378823 0.889701
vt 0.379024 0.900180
vt 0.379024 0.900108
vt 0.378823 0.889618
vt 0.379247 0.900295
vt 0.379247 0.900180
vt 0.402853 0.900180
vt 0.402853 0.900295
vt 0.403277 0.889629
vt 0.379040 0.889618
vt 0.379024 0.889514
vt 0.403277 0.889514
vt 0.403277 0.889629
vt 0.379024 0.889701
vt 0.379040 0.889514
vt 0.403277 0.889514
vt 0.403277 0.889701
vt 0.379247 0.889514
vt 0.402853 0.889514
vt 0.379691 0.889931
vt 0.379490 0.889816
vt 0.379691 0.899878
vt 0.379491 0.899993
vt 0.403277 0.899993
vt 0.403277 0.899878
vt 0.403277 0.889931
vt 0.403277 0.889816
vt 0.379490 0.899993
vt 0.379691 0.899878
vt 0.379491 0.889815
vt 0.379691 0.889931
vt 0.379040 0.889618
vt 0.379754 0.889817
vt 0.402965 0.889817
vt 0.402965 0.900051
vt 0.379754 0.900051
vt 0.379754 0.889817
vt 0.402965 0.889817
vt 0.402965 0.900051
vt 0.379754 0.900051
vt 0.402965 0.889817
vt 0.402965 0.900051
vt 0.379754 0.889817
vt 0.379754 0.900051
vt 0.378823 0.900191
vt 0.403277 0.900180
vt 0.379061 0.889628
vt 0.379691 0.899878
vt 0.403277 0.899878
vt 0.379754 0.889817
vt 0.379754 0.900051
vt 0.403277 0.900191
vt 0.402853 0.900180
vt 0.379247 0.900180
vt 0.378823 0.889629
vt 0.379691 0.899878
vt 0.378823 0.900295
vt 0.403277 0.900295
vt 0.403277 0.889658
vt 0.378823 0.889658
vt 0.403277 0.900151
vt 0.403277 0.889514
vt 0.378823 0.889514
vt 0.403277 0.892209
vt 0.378823 0.897600
vt 0.378823 0.900295
vt 0.403277 0.900295
vt 0.403277 0.889658
vt 0.378823 0.889658
vt 0.403277 0.900151
vt 0.403277 0.889514
vt 0.378823 0.889514
vt 0.403277 0.892209
vt 0.378823 0.897600
vt 0.378823 0.892209
vt 0.378823 0.889514
vt 0.403277 0.889514
vt 0.378823 0.900151
vt 0.403277 0.897600
vt 0.378823 0.892209
vt 0.378823 0.889514
vt 0.403277 0.889514
vt 0.378823 0.900151
vt 0.403277 0.897600
vn 0.000000 0.000000 1.000000
vn 0.000000 0.000000 1.000000
vn 0.000000 0.000000 1.000000
vn 0.000000 0.000000 1.000000
vn 0.000000 1.000000 0.000000
vn 0.000000 1.000000 0.000000
vn 0.000000 1.000000 0.000000
vn 0.000000 1.000000 0.000000
vn 0.000000 -1.000000 0.000000
vn 0.000000 -1.000000 0.000000
vn 0.000000 -1.000000 0.000000
vn 0.000000 -1.000000 0.000000
vn 0.000000 0.000000 1.000000
vn 0.000000 0.000000 1.000000
vn 0.000000 0.000000 1.000000
vn 0.000000 0.000000 1.000000
vn 0.000000 1.000000 0.000000
vn 0.000000 1.000000 0.000000
vn 0.000000 1.000000 0.000000
vn 0.000000 1.000000 0.000000
vn 0.000000 -1.000000 0.000000
vn 0.000000 -1.000000 0.000000
vn 0.000000 -1.000000 0.000000
vn 0.000000 -1.000000 0.000000
vn 0.000000 0.000000 1.000000
vn 0.000000 0.000000 1.000000
vn 0.000000 0.000000 1.000000
vn 0.000000 0.000000 1.000000
vn 0.000000 0.000000 1.000000
vn 0.000000 0.000000 1.000000
vn -1.000000 0.000000 0.000000
vn -1.000000 0.000000 0.000000
vn -1.000000 0.000000 0.000000
vn -1.000000 0.000000 0.000000
vn 1.000000 0.000000 0.000000
vn 1.000000 0.000000 0.000000
vn 1.000000 0.000000 0.000000
vn 1.000000 0.000000 0.000000
vn 0.000361 0.724103 0.689692
vn 0.000361 0.724103 0.689692
vn -0.000000 0.724103 0.689692
vn -0.000000 0.724103 0.689692
vn -0.707109 0.707105 0.000000
vn -0.707109 0.707105 0.000000
vn -0.707109 0.707105 0.000000
vn -0.707109 0.707105 0.000000
vn -0.679520 0.000000 0.733657
vn -0.679520 0.000000 0.733657
vn -0.679520 0.000000 0.733657
vn -0.679520 0.000000 0.733657
vn -0.000361 0.724103 0.689692
vn -0.000361 0.724103 0.689692
vn -0.707111 0.000000 -0.707103
vn -0.707111 0.000000 -0.707103
vn -0.707111 0.000000 -0.707103
vn -0.707111 0.000000 -0.707103
vn 0.000000 0.707111 -0.707102
vn 0.000000 0.707111 -0.707102
vn 0.000000 0.707111 -0.707102
vn 0.000000 0.707111 -0.707102
vn 0.000000 0.707111 -0.707102
vn 0.000000 0.707111 -0.707102
vn 0.000000 -0.707107 -0.707106
vn 0.000000 -0.707107 -0.707106
vn 0.000000 -0.707107 -0.707106
vn 0.000000 -0.707107 -0.707106
vn -0.707112 -0.707102 0.000000
vn -0.707112 -0.707102 0.000000
vn -0.707112 -0.707102 0.000000
vn -0.707112 -0.707102 0.000000
vn 0.000000 -0.707107 -0.707106
vn 0.000000 -0.707107 -0.707106
vn 0.679520 0.000000 0.733657
vn 0.679520 0.000000 0.733657
vn 0.679520 0.000000 0.733657
vn 0.679520 0.000000 0.733657
vn 0.707109 0.707105 0.000000
vn 0.707109 0.707105 0.000000
vn 0.707109 0.707105 0.000000
vn 0.707109 0.707105 0.000000
vn 0.707111 0.000000 -0.707103
vn 0.707111 0.000000 -0.707103
vn 0.707111 0.000000 -0.707103
vn 0.707111 0.000000 -0.707103
vn 0.000361 -0.724100 0.689695
vn 0.000361 -0.724100 0.689695
vn 0.000000 -0.724100 0.689695
vn 0.000000 -0.724100 0.689695
vn -0.000361 -0.724100 0.689695
vn -0.000361 -0.724100 0.689695
vn 0.707112 -0.707102 0.000000
vn 0.707112 -0.707102 0.000000
vn 0.707112 -0.707102 0.000000
vn 0.707112 -0.707102 0.000000
vn -0.707108 0.000000 0.707105
vn -0.707108 0.000000 0.707105
vn -0.707108 0.000000 0.707105
vn -0.707108 0.000000 0.707105
vn 0.000000 -0.707103 0.707111
vn 0.000000 -0.707103 0.707111
vn 0.000000 -0.707103 0.707111
vn 0.000000 -0.707103 0.707111
vn 0.000000 0.707110 0.707104
vn 0.000000 0.707110 0.707104
vn 0.000000 0.707110 0.707104
vn 0.000000 0.707110 0.707104
vn 0.000000 -0.707103 0.707111
vn 0.000000 -0.707103 0.707111
vn 0.707108 0.000000 0.707105
vn 0.707108 0.000000 0.707105
vn 0.707108 0.000000 0.707105
vn 0.707108 0.000000 0.707105
vn 0.000000 0.707110 0.707104
vn 0.000000 0.707110 0.707104
vn 0.000000 0.000000 1.000000
vn 0.000000 0.000000 1.000000
vn 0.000000 0.000000 1.000000
vn 0.000000 0.000000 1.000000
vn 0.000000 0.000000 1.000000
vn 0.000000 0.000000 1.000000
vn 0.000000 0.000000 1.000000
vn 0.000000 0.000000 1.000000
vn 0.000000 0.000000 1.000000
vn 0.000000 0.000000 1.000000
vn 0.000000 0.000000 1.000000
vn 0.000000 0.000000 1.000000
vn 0.000000 1.000000 0.000000
vn 0.000000 1.000000 0.000000
vn 0.000000 1.000000 0.000000
vn 0.000000 1.000000 0.000000
vn -1.000000 0.000000 0.000000
vn -1.000000 0.000000 0.000000
vn -1.000000 0.000000 0.000000
vn -1.000000 0.000000 0.000000
vn 0.000000 -1.000000 0.000000
vn 0.000000 -1.000000 0.000000
vn 0.000000 -1.000000 0.000000
vn 0.000000 -1.000000 0.000000
vn 1.000000 0.000000 0.000000
vn 1.000000 0.000000 0.000000
vn 1.000000 0.000000 0.000000
vn 1.000000 0.000000 0.000000
vn 0.000000 1.000000 0.000000
vn 0.000000 1.000000 0.000000
vn 0.000000 -1.000000 0.000000
vn 0.000000 -1.000000 0.000000
vn 0.000000 1.000000 0.000000
vn 0.000000 1.000000 0.000000
vn 0.000000 1.000000 0.000000
vn 0.000000 1.000000 0.000000
vn 0.000000 1.000000 0.000000
vn 0.000000 1.000000 0.000000
vn 0.000000 0.000000 -1.000000
vn 0.000000 0.000000 -1.000000
vn 0.000000 0.000000 -1.000000
vn 0.000000 0.000000 -1.000000
vn 0.000000 0.000000 -1.000000
vn 0.000000 0.000000 -1.000000
vn 0.000000 -1.000000 0.000000
vn 0.000000 -1.000000 0.000000
vn 0.000000 -1.000000 0.000000
vn 0.000000 -1.000000 0.000000
vn 0.000000 -1.000000 0.000000
vn 0.000000 -1.000000 0.000000
vn -0.580297 0.580297 0.571411
vn -0.580297 0.580297 0.571411
vn -0.580297 0.580297 0.571411
vn -0.577350 0.577350 -0.577350
vn -0.577350 0.577350 -0.577350
vn -0.577350 0.577350 -0.577350
vn -0.577355 -0.577347 -0.577349
vn -0.577355 -0.577347 -0.577349
vn -0.577355 -0.577347 -0.577349
vn 0.580296 0.580296 0.571414
vn 0.580296 0.580296 0.571414
vn 0.580296 0.580296 0.571414
vn 0.577350 0.577350 -0.577350
vn 0.577350 0.577350 -0.577350
vn 0.577350 0.577350 -0.577350
vn -0.580299 -0.580293 0.571414
vn -0.580299 -0.580293 0.571414
vn -0.580299 -0.580293 0.571414
vn 0.580300 -0.580293 0.571413
vn 0.580300 -0.580293 0.571413
vn 0.580300 -0.580293 0.571413
vn 0.577355 -0.577347 -0.577349
vn 0.577355 -0.577347 -0.577349
vn 0.577355 -0.577347 -0.577349
vn 0.000000 -0.707107 0.707107
vn 0.000000 -0.707107 0.707107
vn 0.000000 -0.707107 0.707107
vn 0.000000 -0.707107 0.707107
vn 0.000000 0.707107 0.707107
vn 0.000000 0.707107 0.707107
vn 0.000000 0.707107 0.707107
vn 0.000000 0.707107 0.707107
vn 0.000000 -0.707107 0.707107
vn 0.000000 -0.707107 0.707107
vn 0.000000 -0.707107 0.707107
vn 0.000000 -0.707107 0.707107
vn 0.000000 0.707102 0.707111
vn 0.000000 0.707102 0.707111
vn 0.000000 0.707102 0.707111
vn 0.000000 0.707102 0.707111
f 60/104/1 61/93/2 66/108/3 63/94/4
f 64/107/5 65/90/6 2/91/7 1/92/8
f 3/86/9 4/87/10 62/88/11 59/89/12
f 68/109/13 69/102/14 74/113/15 71/103/16
f 72/112/17 73/99/18 6/100/19 5/101/20
f 7/95/21 8/96/22 70/97/23 67/98/24
f 10/78/25 9/1/26 11/2/27 12/85/28
f 13/3/29 9/1/26 10/78/25 14/77/30
f 25/4/31 37/5/32 17/82/33 21/83/34
f 41/6/35 43/7/36 33/36/37 31/35/38
f 16/8/39 15/9/40 19/10/41 18/11/42
f 17/12/43 16/8/44 22/13/45 21/14/46
f 37/5/47 36/15/48 15/81/49 17/82/50
f 18/11/42 19/10/41 30/16/51 32/17/52
f 26/18/53 25/19/54 21/84/55 20/20/56
f 20/20/57 22/13/58 23/21/59 24/22/60
f 24/22/60 23/21/59 35/23/61 34/24/62
f 27/25/63 26/18/64 29/26/65 28/27/66
f 25/28/67 27/25/68 38/29/69 37/30/70
f 28/27/66 29/26/65 42/31/71 44/32/72
f 39/33/73 41/6/74 31/35/75 30/74/76
f 32/34/77 31/35/78 33/36/79 35/37/80
f 43/7/81 42/38/82 34/75/83 33/36/84
f 36/39/85 38/40/86 45/41/87 46/42/88
f 40/43/89 39/44/90 46/45/88 45/46/87
f 41/6/91 40/47/92 44/48/93 43/7/94
f 50/49/95 49/50/96 47/52/97 48/51/98
f 48/51/99 47/52/100 51/53/101 52/54/102
f 49/50/103 50/49/104 58/55/105 57/56/106
f 52/54/102 51/53/101 53/57/107 54/58/108
f 55/59/109 56/60/110 54/58/111 53/57/112
f 56/60/113 55/59/114 57/56/106 58/55/105
f 55/59/115 36/39/116 46/42/117 57/56/118
f 49/50/119 39/61/120 30/16/121 47/52/122
f 19/10/123 15/9/124 53/57/125 51/53/126
f 47/52/122 30/16/121 19/10/123 51/53/126
f 46/42/117 39/61/120 49/50/119 57/56/118
f 36/39/116 55/59/115 53/57/125 15/9/124
f 58/62/127 50/63/128 11/64/129 9/65/130
f 11/64/131 50/63/132 48/66/133 12/69/134
f 48/66/135 52/67/136 10/68/137 12/69/138
f 56/70/139 13/71/140 14/80/141 54/79/142
f 56/70/143 58/62/127 9/65/130 13/71/144
f 52/67/136 54/72/145 14/73/146 10/68/137
f 23/21/147 22/13/148 16/8/149 18/11/150
f 18/11/150 32/17/151 35/23/152 23/21/147
f 29/26/153 26/18/154 20/20/155 24/22/156
f 42/31/157 29/26/153 24/22/156 34/24/158
f 45/46/159 38/29/160 27/25/161 28/27/162
f 28/27/162 44/32/163 40/43/164 45/46/159
f 15/9/165 16/8/166 17/12/167
f 20/20/168 21/14/169 22/13/170
f 25/19/171 26/18/172 27/25/173
f 30/74/174 31/35/175 32/34/176
f 33/36/177 34/75/178 35/37/179
f 36/39/180 37/76/181 38/40/182
f 39/33/183 40/47/184 41/6/185
f 42/38/186 43/7/187 44/48/188
f 60/104/189 59/105/190 62/106/191 61/93/192
f 64/107/193 63/94/194 66/108/195 65/90/196
f 68/109/197 67/110/198 70/111/199 69/102/200
f 72/112/201 71/103/202 74/113/203 73/99/204
