# This file uses meters as units for non-parametric coordinates.

v -18.872132 210.322703 41.769289
v 121.316254 210.322703 41.769289
v -18.872132 173.102622 41.769289
v 121.316254 173.102622 41.769289
v 51.222061 210.322703 41.769289
v 51.222061 173.102622 41.769289
v -18.298248 173.676480 45.644464
v -18.872132 173.102622 45.070572
v 51.222061 173.102622 45.070572
v 51.222061 173.676480 45.644464
v -18.298248 209.748812 45.644464
v -18.872132 210.322703 45.070572
v 51.222061 210.322703 45.070572
v 51.222061 209.748812 45.644464
v 121.316254 173.102622 45.070572
v 120.742371 173.676480 45.644464
v 120.742371 209.748812 45.644464
v 121.316254 210.322703 45.070572
v 51.222061 175.856703 42.289508
v 51.222061 177.614607 42.289508
v -16.413325 207.325034 -28.890355
v -16.061762 207.676588 -28.538793
v 51.222061 207.325034 -28.890355
v 51.222061 207.676588 -28.538793
v -16.413325 176.208324 -28.890355
v -16.061762 175.856770 -28.538793
v 51.222061 176.208324 -28.890355
v 51.222061 175.856770 -28.538793
v -16.061762 207.676588 42.289508
v -16.413325 207.325034 42.289508
v 118.505885 207.676588 42.289508
v 118.857447 207.325034 42.289508
v 118.857447 207.325034 -28.890355
v 118.505885 207.676588 -28.538793
v -16.413325 176.208324 42.289508
v -16.061762 175.856770 42.289508
v 118.505885 175.856770 42.289508
v 118.857447 176.208324 42.289508
v 118.857447 176.208324 -28.890355
v 118.505885 175.856770 -28.538793
v -13.608646 207.325118 -26.082353
v -13.952107 207.676588 -26.429144
v 51.222061 207.676588 -26.429144
v 51.222061 207.325152 -26.087286
v 51.222061 178.197238 -26.896601
v 51.222061 177.850212 -26.549862
v -13.244852 177.481550 -25.730455
v -13.608646 177.832181 -26.072811
v -13.244852 177.268001 42.289508
v -13.608646 177.614607 42.289508
v 116.052768 177.614607 42.289508
v 115.688974 177.268001 42.289508
v 115.688974 177.481550 -25.730455
v 116.052768 177.832181 -26.072811
v 116.052768 207.325118 -26.082353
v 116.396229 207.676588 -26.429144
v 116.060907 207.325403 42.289508
v 116.396229 207.676588 42.289508
v -13.952107 207.676588 42.289508
v -13.616785 207.325403 42.289508
vt 0.382431 0.914751
vt 0.382431 0.931739
vt 0.382431 0.914751
vt 0.399796 0.914751
vt 0.382566 0.915013
vt 0.382431 0.930040
vt 0.399796 0.914751
vt 0.382431 0.916450
vt 0.382566 0.914751
vt 0.382566 0.931477
vt 0.382566 0.931477
vt 0.382431 0.915013
vt 0.384167 0.931739
vt 0.382431 0.931477
vt 0.399796 0.915013
vt 0.399796 0.930040
vt 0.382431 0.914751
vt 0.399796 0.931739
vt 0.382431 0.916450
vt 0.384167 0.914751
vt 0.399796 0.914751
vt 0.399796 0.931739
vt 0.382431 0.914751
vt 0.398060 0.914751
vt 0.398060 0.931739
vt 0.382431 0.931739
vt 0.382431 0.930040
vt 0.399796 0.914751
vt 0.399796 0.916450
vt 0.382431 0.931739
vt 0.399796 0.931477
vt 0.382566 0.915013
vt 0.382431 0.914939
vt 0.382523 0.914751
vt 0.399796 0.914751
vt 0.399796 0.914939
vt 0.382523 0.931739
vt 0.382431 0.931551
vt 0.399796 0.931551
vt 0.399796 0.931739
vt 0.382523 0.914751
vt 0.382431 0.914939
vt 0.382431 0.931551
vt 0.382523 0.931649
vt 0.382523 0.914751
vt 0.382431 0.914751
vt 0.399796 0.931551
vt 0.399796 0.931649
vt 0.382431 0.931551
vt 0.382523 0.931649
vt 0.382431 0.931739
vt 0.382431 0.931551
vt 0.399796 0.931551
vt 0.399704 0.931739
vt 0.382431 0.914939
vt 0.382431 0.914751
vt 0.399704 0.914751
vt 0.399796 0.914939
vt 0.382431 0.931541
vt 0.382431 0.931739
vt 0.399796 0.931739
vt 0.399796 0.931543
vt 0.382431 0.914751
vt 0.382431 0.914951
vt 0.399796 0.914951
vt 0.399796 0.914751
vt 0.382431 0.914951
vt 0.382431 0.914751
vt 0.399796 0.931539
vt 0.399796 0.931646
vt 0.382525 0.931646
vt 0.382433 0.931541
vt 0.382433 0.931541
vt 0.382525 0.931646
vt 0.382435 0.914751
vt 0.382525 0.914751
vt 0.382433 0.914763
vt 0.382431 0.914948
vt 0.399795 0.914949
vt 0.399703 0.914761
vt 0.399796 0.931739
vt 0.399796 0.931541
vt 0.382431 0.931543
vt 0.382431 0.931739
vt 0.399796 0.914751
vt 0.382432 0.914949
vt 0.399796 0.914948
vt 0.382525 0.914751
vt 0.399796 0.914751
vt 0.382431 0.914939
vt 0.399796 0.914939
vt 0.382523 0.914751
vt 0.382431 0.914751
vt 0.399796 0.931739
vt 0.382431 0.931739
vt 0.382431 0.914751
vn 0.000000 0.000000 -1.000000
vn 0.000000 0.000000 -1.000000
vn 0.000000 0.000000 -1.000000
vn 0.000000 0.000000 -1.000000
vn 0.000000 0.000000 -1.000000
vn 0.000000 0.000000 -1.000000
vn 0.000000 -0.707131 0.707083
vn 0.000000 -0.707131 0.707083
vn 0.000000 -0.707131 0.707083
vn 0.000000 -0.707131 0.707083
vn -0.707113 0.000000 0.707100
vn -0.707113 0.000000 0.707100
vn -0.707113 0.000000 0.707100
vn -0.707113 0.000000 0.707100
vn 0.000000 -0.707131 0.707083
vn 0.000000 -0.707131 0.707083
vn 0.000000 0.707110 0.707104
vn 0.000000 0.707110 0.707104
vn 0.000000 0.707110 0.707104
vn 0.000000 0.707110 0.707104
vn 0.000000 0.707110 0.707104
vn 0.000000 0.707110 0.707104
vn 0.707111 0.000000 0.707103
vn 0.707111 0.000000 0.707103
vn 0.707111 0.000000 0.707103
vn 0.707111 0.000000 0.707103
vn 0.000000 0.000000 1.000000
vn 0.000000 0.000000 1.000000
vn 0.000000 0.000000 1.000000
vn 0.000000 0.000000 1.000000
vn 0.000000 1.000000 0.000000
vn 0.000000 1.000000 0.000000
vn 0.000000 1.000000 0.000000
vn 0.000000 1.000000 0.000000
vn 0.000000 -1.000000 0.000000
vn 0.000000 -1.000000 0.000000
vn 0.000000 -1.000000 0.000000
vn 0.000000 -1.000000 0.000000
vn 1.000000 0.000000 0.000000
vn 1.000000 0.000000 0.000000
vn 1.000000 0.000000 0.000000
vn 1.000000 0.000000 0.000000
vn -1.000000 0.000000 0.000000
vn -1.000000 0.000000 0.000000
vn -1.000000 0.000000 0.000000
vn -1.000000 0.000000 0.000000
vn 0.000000 1.000000 0.000000
vn 0.000000 1.000000 0.000000
vn 0.000000 -1.000000 0.000000
vn 0.000000 -1.000000 0.000000
vn 0.000000 0.000000 1.000000
vn 0.000000 0.000000 1.000000
vn 0.000000 0.707115 -0.707098
vn 0.000000 0.707115 -0.707098
vn 0.000000 0.707115 -0.707098
vn 0.000000 0.707115 -0.707098
vn -0.707091 0.707123 0.000000
vn -0.707091 0.707123 0.000000
vn -0.707091 0.707123 0.000000
vn -0.707091 0.707123 0.000000
vn 0.000000 0.707115 -0.707098
vn 0.000000 0.707115 -0.707098
vn -0.707091 -0.707123 0.000000
vn -0.707091 -0.707123 0.000000
vn -0.707091 -0.707123 0.000000
vn -0.707091 -0.707123 0.000000
vn 0.000000 -0.707115 -0.707098
vn 0.000000 -0.707115 -0.707098
vn 0.000000 -0.707115 -0.707098
vn 0.000000 -0.707115 -0.707098
vn 0.000000 -0.707115 -0.707098
vn 0.000000 -0.707115 -0.707098
vn 0.707091 0.707123 0.000000
vn 0.707091 0.707123 0.000000
vn 0.707091 0.707123 0.000000
vn 0.707091 0.707123 0.000000
vn 0.707091 -0.707123 0.000000
vn 0.707091 -0.707123 0.000000
vn 0.707091 -0.707123 0.000000
vn 0.707091 -0.707123 0.000000
vn 0.719209 0.694794 0.000041
vn 0.719209 0.694794 0.000041
vn 0.719209 0.694794 0.000041
vn 0.719209 0.694794 0.000041
vn 0.000027 0.699838 0.714302
vn 0.000027 0.699838 0.714302
vn -0.000000 0.699838 0.714302
vn -0.000000 0.699838 0.714302
vn -0.000027 0.699838 0.714302
vn -0.000027 0.699838 0.714302
vn 0.000000 0.704059 0.710142
vn 0.000000 0.704059 0.710142
vn -0.005030 0.704050 0.710133
vn -0.005030 0.704050 0.710133
vn 0.005030 0.704050 0.710133
vn 0.005030 0.704050 0.710133
vn 0.691327 0.722539 0.002284
vn 0.691327 0.722539 0.002284
vn 0.691327 0.722539 0.002284
vn 0.691327 0.722539 0.002284
vn -0.691327 0.722539 0.002284
vn -0.691327 0.722539 0.002284
vn -0.691327 0.722539 0.002284
vn -0.691327 0.722539 0.002284
vn -0.719209 0.694794 0.000041
vn -0.719209 0.694794 0.000041
vn -0.719209 0.694794 0.000041
vn -0.719209 0.694794 0.000041
vn 0.006429 -0.013642 0.999886
vn 0.006429 -0.013642 0.999886
vn -0.000000 -0.013642 0.999907
vn -0.000000 -0.013642 0.999907
vn -0.005527 0.999979 0.003282
vn -0.005527 0.999979 0.003282
vn 0.000000 0.999995 0.003282
vn 0.000000 0.999995 0.003282
vn -1.000000 0.000138 0.000060
vn -1.000000 0.000138 0.000060
vn -1.000000 0.000138 0.000060
vn -1.000000 0.000138 0.000060
vn 1.000000 0.000138 0.000060
vn 1.000000 0.000138 0.000060
vn 1.000000 0.000138 0.000060
vn 1.000000 0.000138 0.000060
vn -0.006429 -0.013642 0.999886
vn -0.006429 -0.013642 0.999886
vn 0.005527 0.999979 0.003282
vn 0.005527 0.999979 0.003282
vn 0.000000 0.000000 -1.000000
vn 0.000000 0.000000 -1.000000
vn 0.000000 0.000000 -1.000000
vn 0.000000 0.000000 -1.000000
vn -0.000000 -1.000000 -0.000000
vn 0.000000 -1.000000 -0.000000
vn 0.000000 -1.000000 -0.000000
vn -0.000000 -1.000000 -0.000000
vn 1.000000 0.000000 0.000000
vn 1.000000 0.000000 0.000000
vn 1.000000 0.000000 0.000000
vn 1.000000 0.000000 0.000000
vn -1.000000 0.000000 0.000000
vn -1.000000 0.000000 0.000000
vn -1.000000 0.000000 0.000000
vn -1.000000 0.000000 0.000000
vn 0.000000 0.000000 -1.000000
vn 0.000000 0.000000 -1.000000
vn 0.000000 -1.000000 -0.000000
vn 0.000000 -1.000000 -0.000000
vn 0.000000 1.000000 0.000000
vn 0.000000 1.000000 0.000000
vn 0.000000 1.000000 0.000000
vn 0.000000 1.000000 0.000000
vn 0.000000 1.000000 0.000000
vn 0.000000 1.000000 0.000000
vn 0.000000 1.000000 0.000000
vn 0.000000 1.000000 0.000000
vn 0.000000 1.000000 0.000000
vn 0.000000 1.000000 0.000000
f 1/17/1 5/28/2 6/18/3 3/2/4
f 6/18/3 5/28/2 2/1/5 4/30/6
f 7/5/7 8/3/8 9/4/9 10/15/10
f 8/3/11 7/5/12 11/10/13 12/6/14
f 10/7/10 9/29/9 15/8/15 16/9/16
f 12/6/17 11/10/18 14/31/19 13/16/20
f 13/16/20 14/31/19 17/11/21 18/27/22
f 16/12/23 15/20/24 18/13/25 17/14/26
f 7/5/27 10/15/28 14/31/29 11/10/30
f 12/6/31 13/16/32 5/28/33 1/17/34
f 3/2/35 6/18/36 9/29/37 8/19/38
f 15/20/39 4/21/40 2/22/41 18/13/42
f 3/23/43 8/24/44 12/25/45 1/26/46
f 13/16/32 18/27/47 2/1/48 5/28/33
f 9/29/37 6/18/36 4/30/49 15/8/50
f 14/31/29 10/15/28 16/32/51 17/11/52
f 21/33/53 22/34/54 24/35/55 23/36/56
f 22/37/57 21/38/58 30/39/59 29/40/60
f 23/36/56 24/35/55 34/41/61 33/42/62
f 25/43/63 26/44/64 36/45/65 35/46/66
f 26/44/67 25/43/68 27/47/69 28/48/70
f 28/48/70 27/47/69 39/49/71 40/50/72
f 31/51/73 32/52/74 33/53/75 34/54/76
f 38/55/77 37/56/78 40/57/79 39/58/80
f 41/59/81 42/60/82 59/61/83 60/62/84
f 42/63/85 41/64/86 44/65/87 43/66/88
f 43/66/88 44/65/87 55/67/89 56/68/90
f 45/69/91 46/70/92 53/71/93 54/72/94
f 46/70/92 45/69/91 48/73/95 47/74/96
f 47/74/97 48/73/98 50/75/99 49/76/100
f 52/77/101 51/78/102 54/79/103 53/80/104
f 56/81/105 55/82/106 57/83/107 58/84/108
f 41/64/109 48/73/110 45/69/111 44/65/112
f 47/74/113 49/76/114 20/85/115 46/70/116
f 51/78/117 57/83/118 55/82/119 54/79/120
f 48/86/121 41/59/122 60/62/123 50/87/124
f 45/69/111 54/72/125 55/67/126 44/65/112
f 20/85/115 52/88/127 53/71/128 46/70/116
f 21/33/129 23/36/130 27/47/131 25/43/132
f 26/44/133 28/48/134 19/89/135 36/45/136
f 38/55/137 39/58/138 33/53/139 32/52/140
f 25/90/141 35/91/142 30/39/143 21/38/144
f 27/47/131 23/36/130 33/42/145 39/49/146
f 19/89/135 28/48/134 40/50/147 37/92/148
f 22/93/149 42/63/150 43/66/151 24/35/152
f 34/94/153 56/81/154 58/84/155 31/51/156
f 22/95/149 29/40/157 59/61/158 42/60/150
f 24/35/152 43/66/151 56/68/154 34/96/153
