# This file uses meters as units for non-parametric coordinates.

v 31.610085 202.563141 -5.915545
v 31.610085 287.635162 -5.915545
v 92.428116 287.635162 -5.915545
v 92.428131 202.563141 -5.915545
v 92.428131 107.947479 -5.915545
v 31.610085 107.947487 -5.915545
vt 0.737179 0.115041
vt 0.636324 0.115041
vt 0.636324 0.076247
vt 0.737179 0.076247
vt 0.636324 0.115041
vt 0.636324 0.076247
vn -0.000000 0.000000 1.000000
vn 0.000000 0.000000 1.000000
vn 0.000000 0.000000 1.000000
vn -0.000000 0.000000 1.000000
vn -0.000000 0.000000 1.000000
vn -0.000000 0.000000 1.000000
f 4/1/1 3/2/2 2/3/3 1/4/4
f 5/5/5 4/1/1 1/4/4 6/6/6
