# This file uses meters as units for non-parametric coordinates.

v 97.959049 15.272390 36.727902
v 97.959041 155.226176 36.727902
v 21.976207 15.272387 36.727893
v 21.976181 155.226164 36.727893
v 97.959041 85.687003 36.727902
v 21.976220 85.686998 36.727893
v 22.462623 15.599156 39.623325
v 21.976207 15.272387 39.136918
v 21.976220 85.687403 39.136918
v 22.462636 85.686998 39.623325
v 97.472633 15.599153 39.623334
v 97.959049 15.272390 39.136918
v 97.959049 85.687403 39.136918
v 97.472633 85.686998 39.623334
v 21.976181 155.226164 39.395926
v 22.462588 154.899406 39.881127
v 97.472633 154.899406 39.881144
v 97.959041 155.226176 39.395935
vt 0.512383 0.136700
vt 0.512383 0.177405
vt 0.512383 0.136700
vt 0.618174 0.136701
vt 0.512873 0.137052
vt 0.512383 0.165668
vt 0.618174 0.136700
vt 0.512383 0.146876
vt 0.512873 0.136700
vt 0.512873 0.177053
vt 0.512383 0.177405
vt 0.512873 0.177053
vt 0.618174 0.137052
vt 0.618173 0.165668
vt 0.512383 0.136700
vt 0.618174 0.177405
vt 0.512383 0.148438
vt 0.512383 0.136700
vt 0.512383 0.136700
vt 0.512383 0.177405
vt 0.512383 0.136700
vt 0.512383 0.177405
vt 0.512383 0.177405
vt 0.512383 0.167230
vt 0.618174 0.136700
vt 0.618173 0.148438
vt 0.512383 0.177405
vt 0.618174 0.177053
vt 0.512873 0.137052
vn 0.000000 0.000000 -1.000000
vn 0.000000 0.000000 -1.000000
vn 0.000000 0.000000 -1.000000
vn 0.000000 0.000000 -1.000000
vn 0.000000 0.000000 -1.000000
vn 0.000000 0.000000 -1.000000
vn -0.707099 0.000000 0.707114
vn -0.707103 -0.001309 0.707110
vn -0.707103 -0.001309 0.707110
vn -0.707099 0.000000 0.707114
vn -0.000000 -0.830082 0.557641
vn -0.000000 -0.830082 0.557641
vn -0.000000 -0.830082 0.557641
vn -0.000000 -0.830082 0.557641
vn -0.707105 -0.002634 0.707104
vn -0.707105 -0.002634 0.707104
vn 0.707104 0.000000 0.707110
vn 0.707108 -0.001309 0.707104
vn 0.707108 -0.001309 0.707104
vn 0.707104 0.000000 0.707110
vn 0.707111 -0.002634 0.707097
vn 0.707111 -0.002634 0.707097
vn -0.000000 0.829445 0.558589
vn -0.000000 0.829445 0.558589
vn -0.000000 0.829445 0.558589
vn -0.000000 0.829445 0.558589
vn -0.000000 0.000000 1.000000
vn -0.000000 0.000000 1.000000
vn -0.000000 -0.001851 0.999998
vn -0.000000 -0.001851 0.999998
vn 1.000000 0.000000 -0.000002
vn 1.000000 0.000000 -0.000002
vn 1.000000 0.000000 -0.000002
vn 1.000000 0.000000 -0.000002
vn -1.000000 0.000000 -0.000000
vn -1.000000 0.000000 -0.000000
vn -1.000000 -0.000000 0.000000
vn -1.000000 -0.000000 0.000000
vn -0.000000 1.000000 0.000000
vn -0.000000 1.000000 0.000000
vn -0.000000 1.000000 0.000000
vn -0.000000 1.000000 0.000000
vn 0.000000 -1.000000 0.000000
vn 0.000000 -1.000000 0.000000
vn 0.000000 -1.000000 0.000000
vn 0.000000 -1.000000 0.000000
vn 1.000000 0.000000 -0.000002
vn 1.000000 0.000000 -0.000002
vn -1.000000 -0.000001 0.000000
vn -1.000000 -0.000001 0.000000
vn -0.000000 -0.003725 0.999993
vn -0.000000 -0.003725 0.999993
f 1/15/1 3/2/2 6/16/3 5/25/4
f 6/16/3 4/27/5 2/1/6 5/25/4
f 7/5/7 10/13/8 9/4/9 8/3/10
f 8/3/11 12/6/12 11/10/13 7/5/14
f 10/7/8 16/9/15 15/8/16 9/26/9
f 12/6/17 13/14/18 14/28/19 11/10/20
f 13/14/18 18/24/21 17/12/22 14/28/19
f 16/29/23 17/12/24 18/11/25 15/18/26
f 7/5/27 11/10/28 14/28/29 10/13/30
f 12/6/31 1/15/32 5/25/33 13/14/34
f 3/2/35 8/17/36 9/26/37 6/16/38
f 15/18/39 18/11/40 2/20/41 4/19/42
f 3/21/43 1/23/44 12/22/45 8/3/46
f 13/14/34 5/25/33 2/1/47 18/24/48
f 9/26/37 15/8/49 4/27/50 6/16/38
f 14/28/29 17/12/51 16/29/52 10/13/30
