# This file uses meters as units for non-parametric coordinates.

v 30.446482 199.713226 -38.828781
v 92.749138 199.713226 -38.828781
v 30.446482 196.619171 -38.828781
v 92.749138 196.619171 -38.828781
v 30.446482 245.107758 -38.828781
v 92.749138 245.107758 -38.828781
v 30.446482 242.013702 -38.828781
v 92.749138 242.013702 -38.828781
v 30.446482 154.318771 -38.828781
v 92.749138 154.318771 -38.828781
v 30.446482 151.224716 -38.828781
v 92.749138 151.224716 -38.828781
v 30.446482 196.619171 -12.843471
v 30.446482 196.928543 -12.534096
v 92.749138 196.928543 -12.534096
v 92.749138 196.619171 -12.843471
v 30.446482 199.403854 -12.534096
v 30.446482 199.713226 -12.843471
v 92.749138 199.713226 -12.843471
v 92.749138 199.403854 -12.534096
v 30.446482 242.013702 -12.843471
v 30.446482 242.323074 -12.534096
v 92.749138 242.323074 -12.534096
v 92.749138 242.013702 -12.843471
v 30.446482 244.798386 -12.534096
v 30.446482 245.107758 -12.843471
v 92.749138 245.107758 -12.843471
v 92.749138 244.798386 -12.534096
v 30.446482 151.224716 -12.843471
v 30.446482 151.534088 -12.534096
v 92.749138 151.534088 -12.534096
v 92.749138 151.224716 -12.843471
v 30.446482 154.009399 -12.534096
v 30.446482 154.318771 -12.843471
v 92.749138 154.318771 -12.843471
v 92.749138 154.009399 -12.534096
v 100.019760 100.280197 -9.073960
v 99.269913 101.030029 -8.324114
v 23.268642 100.280258 -9.073962
v 24.018482 101.030090 -8.324115
v 100.019730 296.052185 -9.073956
v 99.269882 295.302399 -8.324112
v 100.019760 198.166199 -9.073956
v 99.269913 198.166199 -8.324112
v 29.579006 198.166229 -8.324113
v 30.328850 198.166229 -9.073956
v 29.579010 105.877609 -8.324115
v 30.328861 106.627472 -9.073957
v 93.709396 198.166199 -8.324112
v 92.959526 198.166199 -9.073956
v 93.709396 105.877556 -8.324114
v 92.959549 106.627419 -9.073960
v 23.268635 296.052246 -9.073956
v 24.018478 295.302460 -8.324112
v 24.018478 198.166229 -8.324114
v 23.268642 198.166229 -9.073960
v 29.579006 290.454895 -8.324109
v 30.328850 289.705017 -9.073955
v 93.709366 290.454895 -8.324112
v 92.959526 289.704956 -9.073956
v 92.959526 198.166199 -37.571106
v 92.209686 198.166199 -38.320961
v 92.209686 288.955231 -38.320961
v 92.959526 289.704956 -37.571106
v 31.078693 288.955292 -38.320950
v 30.328850 289.705017 -37.571106
v 31.078693 198.166229 -38.320961
v 30.328850 198.166229 -37.571106
v 92.209702 107.377251 -38.320961
v 92.959549 106.627419 -37.571114
v 30.328861 106.627472 -37.571106
v 31.078701 107.377289 -38.320961
v 24.914288 101.925903 -41.990273
v 23.268642 100.280258 -40.344620
v 24.914284 198.166229 -41.990273
v 23.268642 198.166229 -40.344620
v 98.374100 101.925835 -41.990273
v 100.019760 100.280197 -40.344620
v 24.914284 294.406616 -41.990265
v 23.268635 296.052246 -40.344612
v 98.374069 294.406555 -41.990265
v 100.019730 296.052185 -40.344612
v 98.374100 198.166199 -41.990265
v 100.019760 198.166199 -40.344612
vt 0.349491 0.932725
vt 0.369292 0.932725
vt 0.369292 0.913979
vt 0.349491 0.913979
vt 0.369292 0.932502
vt 0.369292 0.913756
vt 0.349491 0.913756
vt 0.369292 0.915653
vt 0.349491 0.930828
vt 0.349491 0.932725
vt 0.369292 0.932725
vt 0.369292 0.913979
vt 0.349491 0.913979
vt 0.369292 0.932502
vt 0.369292 0.913756
vt 0.349491 0.913756
vt 0.369292 0.915653
vt 0.349491 0.930828
vt 0.349491 0.932725
vt 0.369292 0.932725
vt 0.369292 0.913979
vt 0.349491 0.913979
vt 0.369292 0.932502
vt 0.369292 0.913756
vt 0.349491 0.913756
vt 0.369292 0.915653
vt 0.349491 0.930828
vt 0.349491 0.915653
vt 0.349491 0.913756
vt 0.369292 0.913756
vt 0.349491 0.932502
vt 0.369292 0.930828
vt 0.349491 0.915653
vt 0.349491 0.913756
vt 0.369292 0.913756
vt 0.349491 0.932502
vt 0.369292 0.930828
vt 0.349491 0.915653
vt 0.349491 0.913756
vt 0.369292 0.913756
vt 0.349491 0.932502
vt 0.369292 0.930828
vt 0.349491 0.913756
vt 0.349491 0.913942
vt 0.349643 0.932542
vt 0.349491 0.932725
vt 0.349643 0.913939
vt 0.369292 0.913756
vt 0.369292 0.913939
vt 0.349491 0.932302
vt 0.369292 0.932542
vt 0.369292 0.932302
vt 0.349491 0.914179
vt 0.349643 0.913756
vt 0.369292 0.913756
vt 0.369292 0.914179
vt 0.349643 0.913939
vt 0.349491 0.913756
vt 0.349491 0.932725
vt 0.349491 0.932540
vt 0.369292 0.931184
vt 0.369292 0.931000
vt 0.350775 0.931000
vt 0.350624 0.931183
vt 0.350624 0.931183
vt 0.350775 0.931000
vt 0.350624 0.915298
vt 0.350775 0.915481
vt 0.369292 0.915298
vt 0.369292 0.915481
vt 0.350624 0.915297
vt 0.350775 0.915481
vt 0.349643 0.932542
vt 0.349491 0.932302
vt 0.369292 0.915481
vt 0.369292 0.915666
vt 0.350927 0.915666
vt 0.350775 0.915481
vt 0.350775 0.915481
vt 0.350927 0.915666
vt 0.350775 0.931000
vt 0.350927 0.930815
vt 0.369292 0.931000
vt 0.369292 0.930815
vt 0.350775 0.931000
vt 0.350927 0.930815
vt 0.351452 0.914385
vt 0.368658 0.914385
vt 0.368658 0.930045
vt 0.351452 0.930045
vt 0.351452 0.914385
vt 0.351452 0.930044
vt 0.368658 0.914385
vt 0.368658 0.930044
vt 0.351452 0.914385
vt 0.368658 0.914385
vt 0.368658 0.930044
vt 0.351452 0.930044
vt 0.349824 0.914163
vt 0.349491 0.914684
vt 0.369292 0.914684
vt 0.369292 0.914163
vt 0.349824 0.932318
vt 0.349491 0.931798
vt 0.349491 0.914684
vt 0.349824 0.914163
vt 0.369292 0.932318
vt 0.369292 0.931798
vt 0.349491 0.931798
vt 0.349824 0.932318
vt 0.349491 0.914179
vt 0.367554 0.915037
vt 0.367554 0.932491
vt 0.349491 0.913756
vt 0.349491 0.932725
vt 0.349335 0.915037
vt 0.349335 0.932491
vn 0.000000 0.000000 1.000000
vn 0.000000 0.000000 1.000000
vn 0.000000 0.000000 1.000000
vn 0.000000 0.000000 1.000000
vn 0.000000 1.000000 0.000000
vn 0.000000 1.000000 0.000000
vn 0.000000 1.000000 0.000000
vn 0.000000 1.000000 0.000000
vn 0.000000 -1.000000 0.000000
vn 0.000000 -1.000000 0.000000
vn 0.000000 -1.000000 0.000000
vn 0.000000 -1.000000 0.000000
vn 0.000000 0.000000 1.000000
vn 0.000000 0.000000 1.000000
vn 0.000000 0.000000 1.000000
vn 0.000000 0.000000 1.000000
vn 0.000000 1.000000 0.000000
vn 0.000000 1.000000 0.000000
vn 0.000000 1.000000 0.000000
vn 0.000000 1.000000 0.000000
vn 0.000000 -1.000000 0.000000
vn 0.000000 -1.000000 0.000000
vn 0.000000 -1.000000 0.000000
vn 0.000000 -1.000000 0.000000
vn 0.000000 0.000000 1.000000
vn 0.000000 0.000000 1.000000
vn 0.000000 0.000000 1.000000
vn 0.000000 0.000000 1.000000
vn 0.000000 1.000000 0.000000
vn 0.000000 1.000000 0.000000
vn 0.000000 1.000000 0.000000
vn 0.000000 1.000000 0.000000
vn 0.000000 -1.000000 0.000000
vn 0.000000 -1.000000 0.000000
vn 0.000000 -1.000000 0.000000
vn 0.000000 -1.000000 0.000000
vn 0.000000 -0.707115 0.707098
vn 0.000000 -0.707115 0.707098
vn 0.000000 -0.707115 0.707098
vn 0.000000 -0.707115 0.707098
vn 0.000000 0.707115 0.707098
vn 0.000000 0.707115 0.707098
vn 0.000000 0.707115 0.707098
vn 0.000000 0.707115 0.707098
vn 0.000000 -0.707097 0.707116
vn 0.000000 -0.707097 0.707116
vn 0.000000 -0.707097 0.707116
vn 0.000000 -0.707097 0.707116
vn 0.000000 0.707097 0.707116
vn 0.000000 0.707097 0.707116
vn 0.000000 0.707097 0.707116
vn 0.000000 0.707097 0.707116
vn 0.000000 -0.707115 0.707098
vn 0.000000 -0.707115 0.707098
vn 0.000000 -0.707115 0.707098
vn 0.000000 -0.707115 0.707098
vn 0.000000 0.707115 0.707098
vn 0.000000 0.707115 0.707098
vn 0.000000 0.707115 0.707098
vn 0.000000 0.707115 0.707098
vn -0.000001 -0.707110 0.707103
vn -0.000001 -0.707110 0.707103
vn -0.000001 -0.707110 0.707103
vn -0.000001 -0.707110 0.707103
vn 0.707106 -0.000000 0.707108
vn 0.707106 -0.000000 0.707108
vn 0.707106 0.000000 0.707108
vn 0.707106 0.000000 0.707108
vn -0.707111 -0.000000 0.707102
vn -0.707111 -0.000000 0.707102
vn -0.707110 -0.000000 0.707103
vn -0.707110 -0.000000 0.707103
vn 0.707105 0.000000 0.707108
vn 0.707105 0.000000 0.707108
vn 0.000001 0.707124 0.707089
vn 0.000001 0.707124 0.707089
vn 0.000001 0.707124 0.707089
vn 0.000001 0.707124 0.707089
vn 0.707106 0.000000 0.707108
vn 0.707106 0.000000 0.707108
vn 0.707107 0.000000 0.707106
vn 0.707107 0.000000 0.707106
vn 0.707104 0.000000 0.707109
vn 0.707104 0.000000 0.707109
vn 0.000001 0.707097 0.707116
vn 0.000001 0.707097 0.707117
vn 0.000001 0.707097 0.707116
vn 0.000001 0.707097 0.707117
vn -0.707101 -0.000000 0.707112
vn -0.707101 -0.000000 0.707112
vn -0.707101 -0.000000 0.707113
vn -0.707101 -0.000000 0.707113
vn -0.707102 -0.000000 0.707112
vn -0.707102 -0.000000 0.707112
vn -0.707110 -0.000000 0.707104
vn -0.707110 -0.000000 0.707104
vn -0.000000 -0.707079 0.707135
vn -0.000000 -0.707079 0.707135
vn -0.000000 -0.707079 0.707135
vn -0.000000 -0.707079 0.707135
vn -0.707112 -0.000000 0.707101
vn -0.707112 -0.000000 0.707101
vn -0.707109 -0.000000 0.707104
vn -0.707109 -0.000000 0.707104
vn -0.707115 0.000000 0.707099
vn -0.707115 0.000000 0.707099
vn -0.000001 -0.707158 0.707055
vn -0.000001 -0.707158 0.707055
vn -0.000001 -0.707158 0.707055
vn -0.000001 -0.707158 0.707055
vn 0.707110 -0.000000 0.707103
vn 0.707110 -0.000000 0.707103
vn 0.707112 0.000000 0.707102
vn 0.707112 0.000000 0.707102
vn 0.707113 0.000000 0.707101
vn 0.707113 0.000000 0.707101
vn 0.000001 0.707115 0.707099
vn 0.000001 0.707115 0.707099
vn 0.000001 0.707115 0.707099
vn 0.000001 0.707115 0.707099
vn 0.000000 -0.000000 1.000000
vn 0.000000 -0.000000 1.000000
vn 0.000000 -0.000000 1.000000
vn 0.000000 -0.000000 1.000000
vn 0.000000 0.000000 1.000000
vn 0.000000 0.000000 1.000000
vn -0.000000 0.000000 1.000000
vn -0.000000 0.000000 1.000000
vn -0.000000 -0.000000 1.000000
vn -0.000000 -0.000000 1.000000
vn 0.000000 -0.000000 1.000000
vn 0.000000 -0.000000 1.000000
vn 0.000000 -0.000000 1.000000
vn 0.000000 -0.000000 1.000000
vn 0.000000 0.000000 1.000000
vn 0.000000 0.000000 1.000000
vn 0.000000 -0.000000 1.000000
vn 0.000000 -0.000000 1.000000
vn -1.000000 -0.000000 0.000000
vn -1.000000 0.000000 0.000000
vn -1.000000 0.000000 0.000000
vn -1.000000 -0.000000 0.000000
vn -0.000001 -1.000000 0.000000
vn -0.000001 -1.000000 0.000000
vn -0.000001 -1.000000 0.000000
vn -0.000001 -1.000000 0.000000
vn 1.000000 0.000000 0.000000
vn 1.000000 0.000000 0.000000
vn 1.000000 0.000000 0.000000
vn 1.000000 0.000000 0.000000
vn 0.000001 1.000000 0.000000
vn 0.000001 1.000000 0.000000
vn 0.000001 1.000000 0.000000
vn 0.000001 1.000000 0.000000
vn -1.000000 -0.000000 0.000000
vn -1.000000 -0.000000 0.000000
vn 1.000000 0.000000 0.000000
vn 1.000000 0.000000 0.000000
vn -0.707109 -0.000000 -0.707105
vn -0.707109 -0.000000 -0.707105
vn -0.707108 -0.000000 -0.707105
vn -0.707108 -0.000000 -0.707105
vn -0.000001 -0.707108 -0.707106
vn -0.000001 -0.707108 -0.707106
vn -0.000001 -0.707108 -0.707106
vn -0.000001 -0.707108 -0.707106
vn -0.707108 0.000000 -0.707105
vn -0.707108 0.000000 -0.707105
vn 0.707105 0.000000 -0.707109
vn 0.707105 0.000000 -0.707109
vn 0.707105 0.000000 -0.707109
vn 0.707105 0.000000 -0.707109
vn 0.000001 0.707112 -0.707102
vn 0.000001 0.707112 -0.707102
vn 0.000001 0.707112 -0.707102
vn 0.000001 0.707112 -0.707102
vn 0.707105 0.000000 -0.707109
vn 0.707105 0.000000 -0.707109
vn 0.000000 0.000000 -1.000000
vn 0.000000 0.000000 -1.000000
vn 0.000000 0.000000 -1.000000
vn 0.000000 0.000000 -1.000000
vn 0.000000 0.000000 -1.000000
vn 0.000000 0.000000 -1.000000
vn -1.000000 -0.000000 0.000000
vn -1.000000 0.000000 0.000000
vn -1.000000 0.000000 0.000000
vn -1.000000 -0.000000 0.000000
vn 1.000000 -0.000000 0.000000
vn 1.000000 -0.000000 0.000000
vn 1.000000 0.000000 0.000000
vn 1.000000 0.000000 0.000000
vn 0.000001 1.000000 0.000000
vn 0.000001 1.000000 0.000000
vn 0.000001 1.000000 0.000000
vn 0.000001 1.000000 0.000000
vn -0.000001 -1.000000 0.000000
vn -0.000001 -1.000000 0.000000
vn -0.000001 -1.000000 0.000000
vn -0.000001 -1.000000 0.000000
vn -1.000000 -0.000000 0.000000
vn -1.000000 -0.000000 0.000000
vn 1.000000 0.000000 0.000000
vn 1.000000 0.000000 0.000000
f 14/28/1 15/8/2 20/32/3 17/9/4
f 18/31/5 19/5/6 2/6/7 1/7/8
f 3/1/9 4/2/10 16/3/11 13/4/12
f 22/33/13 23/17/14 28/37/15 25/18/16
f 26/36/17 27/14/18 6/15/19 5/16/20
f 7/10/21 8/11/22 24/12/23 21/13/24
f 30/38/25 31/26/26 36/42/27 33/27/28
f 34/41/29 35/23/30 10/24/31 9/25/32
f 11/19/33 12/20/34 32/21/35 29/22/36
f 14/28/37 13/29/38 16/30/39 15/8/40
f 18/31/41 17/9/42 20/32/43 19/5/44
f 22/33/45 21/34/46 24/35/47 23/17/48
f 26/36/49 25/18/50 28/37/51 27/14/52
f 30/38/53 29/39/54 32/40/55 31/26/56
f 34/41/57 33/27/58 36/42/59 35/23/60
f 37/43/61 38/44/62 40/45/63 39/46/64
f 38/47/65 37/43/66 43/48/67 44/49/68
f 39/50/69 40/45/70 55/51/71 56/52/72
f 41/53/73 42/54/74 44/55/68 43/56/67
f 42/57/75 41/58/76 53/59/77 54/60/78
f 45/61/79 46/62/80 58/63/81 57/64/82
f 46/62/80 45/61/79 47/65/83 48/66/84
f 48/66/85 47/65/86 51/67/87 52/68/88
f 49/69/89 50/70/90 52/68/91 51/67/92
f 50/70/90 49/69/89 59/71/93 60/72/94
f 54/73/95 53/74/96 56/52/72 55/51/71
f 57/64/97 58/63/98 60/72/99 59/71/100
f 61/75/101 62/76/102 69/77/103 70/78/104
f 62/76/102 61/75/101 64/79/105 63/80/106
f 63/80/107 64/79/108 66/81/109 65/82/110
f 65/82/111 66/81/112 68/83/113 67/84/114
f 67/84/114 68/83/113 71/85/115 72/86/116
f 70/78/117 69/77/118 72/86/119 71/85/120
f 51/67/121 38/47/122 44/49/123 49/69/124
f 59/71/125 42/57/126 54/73/127 57/64/128
f 57/64/128 54/73/127 55/51/129 45/61/130
f 67/84/131 62/76/132 63/80/133 65/82/134
f 72/86/135 69/77/136 62/76/132 67/84/131
f 42/57/126 59/71/125 49/69/124 44/49/123
f 40/45/137 47/65/138 45/61/130 55/51/129
f 40/45/137 38/47/122 51/67/121 47/65/138
f 50/87/139 60/88/140 64/89/141 61/90/142
f 60/88/143 58/91/144 66/92/145 64/89/146
f 58/91/147 46/93/148 68/94/149 66/92/150
f 48/95/151 52/96/152 70/97/153 71/98/154
f 52/96/155 50/87/139 61/90/142 70/97/156
f 46/93/148 48/95/157 71/98/158 68/94/149
f 73/99/159 74/100/160 76/101/161 75/102/162
f 74/100/163 73/99/164 77/103/165 78/104/166
f 75/102/162 76/101/161 80/105/167 79/106/168
f 78/104/169 77/103/170 83/107/171 84/108/172
f 79/106/173 80/105/174 82/109/175 81/110/176
f 81/110/177 82/109/178 84/108/172 83/107/171
f 77/103/179 73/99/180 75/102/181 83/107/182
f 79/106/183 81/110/184 83/107/182 75/102/181
f 76/101/185 74/100/186 39/50/187 56/52/188
f 37/111/189 78/104/190 84/108/191 43/56/192
f 41/116/193 82/112/194 80/113/195 53/117/196
f 78/114/197 37/43/198 39/46/199 74/115/200
f 56/52/188 53/74/201 80/105/202 76/101/185
f 82/109/203 41/53/204 43/56/192 84/108/191
