# This file uses meters as units for non-parametric coordinates.

v -101.485142 199.388700 32.445742
v -1.456350 199.388700 32.445742
v -101.485142 168.368970 32.445742
v -1.456350 168.368970 32.445742
v -51.470746 199.388700 32.445742
v -51.470746 168.368970 32.445742
v -101.086890 168.931653 35.060029
v -101.485142 168.368970 34.497315
v -51.470746 168.368970 34.497315
v -51.470746 168.931653 35.060029
v -101.086890 198.825986 35.060029
v -101.485142 199.388700 34.497315
v -51.470746 199.388700 34.497315
v -51.470746 198.825986 35.060029
v -1.456350 168.368970 34.497315
v -1.854602 168.931653 35.060029
v -1.854602 198.825986 35.060029
v -1.456350 199.388700 34.497315
v -51.470746 168.612119 32.955830
v -51.470746 170.335798 32.955830
v -99.778822 198.726178 -27.165756
v -99.534854 199.070875 -26.821041
v -51.470746 198.726178 -27.165756
v -51.470746 199.070875 -26.821041
v -99.778822 168.956891 -27.165756
v -99.534854 168.612180 -26.821041
v -51.470746 168.956891 -27.165756
v -51.470746 168.612180 -26.821041
v -99.534854 199.070875 32.955830
v -99.778822 198.726178 32.955830
v -3.406638 199.070875 32.955830
v -3.162671 198.726178 32.955830
v -3.162671 198.726178 -27.165756
v -3.406638 199.070875 -26.821041
v -99.778822 168.956891 32.955830
v -99.534854 168.612180 32.955830
v -3.406638 168.612180 32.955830
v -3.162671 168.956891 32.955830
v -3.162671 168.956891 -27.165756
v -3.406638 168.612180 -26.821041
v -97.832481 198.726255 -24.412435
v -98.070827 199.070875 -24.752471
v -51.470746 199.070875 -24.752471
v -51.470746 198.726285 -24.417272
v -51.470746 170.907056 -25.210826
v -51.470746 170.566800 -24.870840
v -97.580019 170.205304 -24.067388
v -97.832481 170.549131 -24.403080
v -97.580019 169.995923 32.955830
v -97.832481 170.335798 32.955830
v -5.109012 170.335798 32.955830
v -5.361473 169.995923 32.955830
v -5.361473 170.205304 -24.067388
v -5.109012 170.549131 -24.403080
v -5.109012 198.726255 -24.412435
v -4.870665 199.070875 -24.752471
v -5.103364 198.726529 32.955830
v -4.870665 199.070875 32.955830
v -98.070827 199.070875 32.955830
v -97.838129 198.726529 32.955830
vt 0.411379 0.759056
vt 0.430720 0.759056
vt 0.430720 0.776936
vt 0.411379 0.776936
vt 0.411379 0.759056
vt 0.411379 0.776936
vt 0.411530 0.759332
vt 0.411379 0.759056
vt 0.430720 0.759056
vt 0.430720 0.759332
vt 0.411530 0.776660
vt 0.411379 0.775148
vt 0.430720 0.759056
vt 0.430720 0.760844
vt 0.411379 0.760844
vt 0.411530 0.759056
vt 0.430720 0.776660
vt 0.430720 0.775148
vt 0.411530 0.776660
vt 0.411379 0.775148
vt 0.411379 0.759332
vt 0.413313 0.759056
vt 0.413313 0.776936
vt 0.411379 0.776660
vt 0.411379 0.760844
vt 0.430720 0.759056
vt 0.430720 0.776936
vt 0.411379 0.759056
vt 0.428786 0.759056
vt 0.428786 0.776936
vt 0.411379 0.776936
vt 0.411530 0.759332
vt 0.411379 0.759254
vt 0.411482 0.759056
vt 0.430720 0.759056
vt 0.430720 0.759254
vt 0.411482 0.776936
vt 0.411379 0.776738
vt 0.430720 0.776738
vt 0.430720 0.776936
vt 0.411482 0.759056
vt 0.411379 0.759254
vt 0.411379 0.776738
vt 0.411482 0.776841
vt 0.411482 0.759056
vt 0.411379 0.759056
vt 0.430720 0.776738
vt 0.430720 0.776841
vt 0.411379 0.776738
vt 0.411482 0.776841
vt 0.411379 0.776936
vt 0.411379 0.776738
vt 0.430720 0.776738
vt 0.430618 0.776936
vt 0.411379 0.759254
vt 0.411379 0.759056
vt 0.430618 0.759056
vt 0.430720 0.759254
vt 0.411379 0.776728
vt 0.411379 0.776936
vt 0.430720 0.776936
vt 0.430720 0.776730
vt 0.411379 0.759056
vt 0.411379 0.759267
vt 0.430720 0.759267
vt 0.430720 0.759056
vt 0.411379 0.759267
vt 0.411379 0.759056
vt 0.430720 0.776725
vt 0.430720 0.776838
vt 0.411484 0.776838
vt 0.411381 0.776728
vt 0.411381 0.776728
vt 0.411484 0.776838
vt 0.411384 0.759057
vt 0.411484 0.759056
vt 0.411381 0.759069
vt 0.411379 0.759263
vt 0.430719 0.759264
vt 0.430617 0.759067
vt 0.430720 0.776936
vt 0.430720 0.776728
vt 0.411379 0.776730
vt 0.411379 0.776936
vt 0.430720 0.759056
vt 0.411380 0.759264
vt 0.430720 0.759263
vt 0.411484 0.759056
vt 0.430720 0.759056
vt 0.411379 0.759254
vt 0.430720 0.759254
vt 0.411482 0.759056
vt 0.411379 0.759056
vt 0.430720 0.776936
vt 0.411379 0.776936
vt 0.411379 0.759056
vn 0.000000 0.000000 -1.000000
vn 0.000000 0.000000 -1.000000
vn 0.000000 0.000000 -1.000000
vn 0.000000 0.000000 -1.000000
vn 0.000000 0.000000 -1.000000
vn 0.000000 0.000000 -1.000000
vn 0.000000 -0.707130 0.707083
vn 0.000000 -0.707130 0.707083
vn 0.000000 -0.707130 0.707083
vn 0.000000 -0.707130 0.707083
vn -0.816254 0.000000 0.577693
vn -0.816254 0.000000 0.577693
vn -0.816254 0.000000 0.577693
vn -0.816254 0.000000 0.577693
vn 0.000000 -0.707130 0.707083
vn 0.000000 -0.707130 0.707083
vn 0.000000 0.707104 0.707110
vn 0.000000 0.707104 0.707110
vn 0.000000 0.707104 0.707110
vn 0.000000 0.707104 0.707110
vn 0.000000 0.707104 0.707110
vn 0.000000 0.707104 0.707110
vn 0.816254 0.000000 0.577693
vn 0.816254 0.000000 0.577693
vn 0.816254 0.000000 0.577693
vn 0.816254 0.000000 0.577693
vn 0.000000 0.000000 1.000000
vn 0.000000 0.000000 1.000000
vn 0.000000 0.000000 1.000000
vn 0.000000 0.000000 1.000000
vn 0.000000 1.000000 0.000000
vn 0.000000 1.000000 0.000000
vn 0.000000 1.000000 0.000000
vn 0.000000 1.000000 0.000000
vn 0.000000 -1.000000 0.000000
vn 0.000000 -1.000000 0.000000
vn 0.000000 -1.000000 0.000000
vn 0.000000 -1.000000 0.000000
vn 1.000000 0.000000 0.000000
vn 1.000000 0.000000 0.000000
vn 1.000000 0.000000 0.000000
vn 1.000000 0.000000 0.000000
vn -1.000000 0.000000 0.000000
vn -1.000000 0.000000 0.000000
vn -1.000000 0.000000 0.000000
vn -1.000000 0.000000 0.000000
vn 0.000000 1.000000 0.000000
vn 0.000000 1.000000 0.000000
vn 0.000000 -1.000000 0.000000
vn 0.000000 -1.000000 0.000000
vn 0.000000 0.000000 1.000000
vn 0.000000 0.000000 1.000000
vn 0.000000 0.707119 -0.707094
vn 0.000000 0.707119 -0.707094
vn 0.000000 0.707119 -0.707094
vn 0.000000 0.707119 -0.707094
vn -0.816241 0.577712 0.000000
vn -0.816241 0.577712 0.000000
vn -0.816241 0.577712 0.000000
vn -0.816241 0.577712 0.000000
vn 0.000000 0.707119 -0.707094
vn 0.000000 0.707119 -0.707094
vn -0.816253 -0.577695 0.000000
vn -0.816253 -0.577695 0.000000
vn -0.816253 -0.577695 0.000000
vn -0.816253 -0.577695 0.000000
vn 0.000000 -0.707119 -0.707094
vn 0.000000 -0.707119 -0.707094
vn 0.000000 -0.707119 -0.707094
vn 0.000000 -0.707119 -0.707094
vn 0.000000 -0.707119 -0.707094
vn 0.000000 -0.707119 -0.707094
vn 0.816241 0.577712 0.000000
vn 0.816241 0.577712 0.000000
vn 0.816241 0.577712 0.000000
vn 0.816241 0.577712 0.000000
vn 0.816253 -0.577695 0.000000
vn 0.816253 -0.577695 0.000000
vn 0.816253 -0.577695 0.000000
vn 0.816253 -0.577695 0.000000
vn 0.825492 0.564414 0.000039
vn 0.825492 0.564414 0.000039
vn 0.825492 0.564415 0.000039
vn 0.825492 0.564414 0.000039
vn 0.000037 0.699834 0.714305
vn 0.000037 0.699834 0.714305
vn -0.000000 0.699834 0.714305
vn -0.000000 0.699834 0.714305
vn -0.000037 0.699834 0.714305
vn -0.000037 0.699834 0.714305
vn 0.000000 0.704023 0.710177
vn 0.000000 0.704023 0.710177
vn -0.006897 0.704006 0.710160
vn -0.006897 0.704006 0.710160
vn 0.006897 0.704006 0.710160
vn 0.006897 0.704006 0.710160
vn 0.803893 0.594769 0.002198
vn 0.803893 0.594769 0.002198
vn 0.803893 0.594769 0.002198
vn 0.803893 0.594769 0.002198
vn -0.803893 0.594769 0.002198
vn -0.803893 0.594769 0.002198
vn -0.803893 0.594769 0.002198
vn -0.803893 0.594769 0.002198
vn -0.825492 0.564414 0.000039
vn -0.825492 0.564414 0.000039
vn -0.825492 0.564414 0.000039
vn -0.825492 0.564415 0.000039
vn 0.008816 -0.014003 0.999863
vn 0.008816 -0.014003 0.999863
vn -0.000000 -0.014003 0.999902
vn -0.000000 -0.014003 0.999902
vn -0.007572 0.999964 0.003834
vn -0.007572 0.999964 0.003834
vn 0.000000 0.999993 0.003834
vn 0.000000 0.999993 0.003834
vn -1.000000 0.000100 0.000049
vn -1.000000 0.000100 0.000049
vn -1.000000 0.000100 0.000049
vn -1.000000 0.000100 0.000049
vn 1.000000 0.000100 0.000049
vn 1.000000 0.000100 0.000049
vn 1.000000 0.000100 0.000049
vn 1.000000 0.000100 0.000049
vn -0.008816 -0.014003 0.999863
vn -0.008816 -0.014003 0.999863
vn 0.007572 0.999964 0.003834
vn 0.007572 0.999964 0.003834
vn 0.000000 0.000000 -1.000000
vn 0.000000 0.000000 -1.000000
vn 0.000000 0.000000 -1.000000
vn 0.000000 0.000000 -1.000000
vn -0.000001 -1.000000 -0.000000
vn 0.000000 -1.000000 -0.000000
vn 0.000000 -1.000000 -0.000000
vn -0.000001 -1.000000 -0.000000
vn 1.000000 0.000000 0.000000
vn 1.000000 0.000000 0.000000
vn 1.000000 0.000000 0.000000
vn 1.000000 0.000000 0.000000
vn -1.000000 0.000000 0.000000
vn -1.000000 0.000000 0.000000
vn -1.000000 0.000000 0.000000
vn -1.000000 0.000000 0.000000
vn 0.000000 0.000000 -1.000000
vn 0.000000 0.000000 -1.000000
vn 0.000001 -1.000000 -0.000000
vn 0.000001 -1.000000 -0.000000
vn 0.000000 1.000000 0.000000
vn 0.000000 1.000000 0.000000
vn 0.000000 1.000000 0.000000
vn 0.000000 1.000000 0.000000
vn 0.000000 1.000000 0.000000
vn 0.000000 1.000000 0.000000
vn 0.000000 1.000000 0.000000
vn 0.000000 1.000000 0.000000
vn 0.000000 1.000000 0.000000
vn 0.000000 1.000000 0.000000
f 1/1/1 5/2/2 6/3/3 3/4/4
f 6/3/3 5/2/2 2/5/5 4/6/6
f 7/7/7 8/8/8 9/9/9 10/10/10
f 8/8/11 7/7/12 11/11/13 12/12/14
f 10/13/10 9/14/9 15/15/15 16/16/16
f 12/12/17 11/11/18 14/17/19 13/18/20
f 13/18/20 14/17/19 17/19/21 18/20/22
f 16/21/23 15/22/24 18/23/25 17/24/26
f 7/7/27 10/10/28 14/17/29 11/11/30
f 12/12/31 13/18/32 5/2/33 1/1/34
f 3/4/35 6/3/36 9/14/37 8/25/38
f 15/22/39 4/26/40 2/27/41 18/23/42
f 3/28/43 8/29/44 12/30/45 1/31/46
f 13/18/32 18/20/47 2/5/48 5/2/33
f 9/14/37 6/3/36 4/6/49 15/15/50
f 14/17/29 10/10/28 16/32/51 17/19/52
f 21/33/53 22/34/54 24/35/55 23/36/56
f 22/37/57 21/38/58 30/39/59 29/40/60
f 23/36/56 24/35/55 34/41/61 33/42/62
f 25/43/63 26/44/64 36/45/65 35/46/66
f 26/44/67 25/43/68 27/47/69 28/48/70
f 28/48/70 27/47/69 39/49/71 40/50/72
f 31/51/73 32/52/74 33/53/75 34/54/76
f 38/55/77 37/56/78 40/57/79 39/58/80
f 41/59/81 42/60/82 59/61/83 60/62/84
f 42/63/85 41/64/86 44/65/87 43/66/88
f 43/66/88 44/65/87 55/67/89 56/68/90
f 45/69/91 46/70/92 53/71/93 54/72/94
f 46/70/92 45/69/91 48/73/95 47/74/96
f 47/74/97 48/73/98 50/75/99 49/76/100
f 52/77/101 51/78/102 54/79/103 53/80/104
f 56/81/105 55/82/106 57/83/107 58/84/108
f 41/64/109 48/73/110 45/69/111 44/65/112
f 47/74/113 49/76/114 20/85/115 46/70/116
f 51/78/117 57/83/118 55/82/119 54/79/120
f 48/86/121 41/59/122 60/62/123 50/87/124
f 45/69/111 54/72/125 55/67/126 44/65/112
f 20/85/115 52/88/127 53/71/128 46/70/116
f 21/33/129 23/36/130 27/47/131 25/43/132
f 26/44/133 28/48/134 19/89/135 36/45/136
f 38/55/137 39/58/138 33/53/139 32/52/140
f 25/90/141 35/91/142 30/39/143 21/38/144
f 27/47/131 23/36/130 33/42/145 39/49/146
f 19/89/135 28/48/134 40/50/147 37/92/148
f 22/93/149 42/63/150 43/66/151 24/35/152
f 34/94/153 56/81/154 58/84/155 31/51/156
f 22/95/149 29/40/157 59/61/158 42/60/150
f 24/35/152 43/66/151 56/68/154 34/96/153
