# This file uses meters as units for non-parametric coordinates.

v 23.696404 180.349228 42.266426
v 21.990641 180.349228 42.266426
v 23.696404 181.383530 42.266426
v 21.990641 181.383530 42.266426
v 23.696404 181.383530 37.377892
v 21.990641 181.383530 37.377892
v 23.696404 180.349228 37.377892
v 21.990641 180.349228 37.377892
v -23.696400 180.349228 42.266426
v -21.990639 180.349228 42.266426
v -23.696400 181.383530 42.266426
v -21.990639 181.383530 42.266426
v -23.696400 181.383530 37.377892
v -21.990639 181.383530 37.377892
v -23.696400 180.349228 37.377892
v -21.990639 180.349228 37.377892
v 27.836226 180.859558 43.000061
v -27.836226 180.859558 43.000061
v 27.497164 181.724686 42.134926
v 27.836226 181.465179 42.394436
v 27.497164 180.859558 41.776577
v 27.836226 180.859558 42.143574
v 27.497164 179.994431 42.134926
v 27.836226 180.253937 42.394436
v 27.497164 179.636063 43.000061
v 27.836226 180.003082 43.000061
v 27.497164 179.994431 43.865196
v 27.836226 180.253937 43.605690
v 27.497164 180.859558 44.223545
v 27.836226 180.859558 43.856548
v 27.497164 181.724686 43.865196
v 27.836226 181.465195 43.605690
v 27.497164 182.083023 43.000061
v 27.836226 181.716034 43.000065
v -27.497164 181.724686 42.134926
v -27.836226 181.465179 42.394436
v -27.497164 180.859558 41.776577
v -27.836226 180.859558 42.143574
v -27.497164 179.994431 42.134926
v -27.836226 180.253937 42.394436
v -27.497164 179.636063 43.000061
v -27.836226 180.003082 43.000061
v -27.497164 179.994431 43.865196
v -27.836226 180.253937 43.605690
v -27.497164 180.859558 44.223545
v -27.836226 180.859558 43.856548
v -27.497164 181.724686 43.865196
v -27.836226 181.465195 43.605690
v -27.497164 182.083023 43.000061
v -27.836226 181.716034 43.000065
vt 0.714130 0.205099
vt 0.658435 0.205099
vt 0.658435 0.205099
vt 0.714130 0.205099
vt 0.658435 0.243380
vt 0.714130 0.243380
vt 0.714130 0.243380
vt 0.658435 0.243380
vt 0.714130 0.205099
vt 0.714130 0.243380
vt 0.658435 0.205099
vt 0.714130 0.205099
vt 0.714130 0.243380
vt 0.658435 0.243380
vt 0.714130 0.243380
vt 0.658435 0.243380
vt 0.658435 0.205099
vt 0.714130 0.205099
vt 0.714130 0.243380
vt 0.714130 0.205099
vt 0.715368 0.199649
vt 0.715730 0.200390
vt 0.715730 0.203848
vt 0.715368 0.204589
vt 0.715730 0.238431
vt 0.715368 0.239172
vt 0.715368 0.234231
vt 0.715730 0.234972
vt 0.715730 0.205330
vt 0.715730 0.208789
vt 0.715368 0.209530
vt 0.715730 0.210271
vt 0.715730 0.213729
vt 0.715368 0.214470
vt 0.715730 0.215211
vt 0.715730 0.218669
vt 0.715368 0.219410
vt 0.715730 0.220151
vt 0.715730 0.223610
vt 0.715368 0.224351
vt 0.715730 0.225092
vt 0.715730 0.228550
vt 0.715368 0.229291
vt 0.715730 0.230032
vt 0.715730 0.233490
vt 0.656659 0.239172
vt 0.656297 0.238431
vt 0.656298 0.234972
vt 0.656659 0.234231
vt 0.656297 0.200390
vt 0.656659 0.199649
vt 0.656659 0.204589
vt 0.656297 0.203848
vt 0.656297 0.205330
vt 0.656659 0.209530
vt 0.656297 0.208789
vt 0.656297 0.210271
vt 0.656659 0.214470
vt 0.656297 0.213729
vt 0.656297 0.215211
vt 0.656659 0.219410
vt 0.656298 0.218669
vt 0.656297 0.220151
vt 0.656659 0.224351
vt 0.656298 0.223610
vt 0.656298 0.225092
vt 0.656659 0.229291
vt 0.656297 0.228550
vt 0.656298 0.230032
vt 0.656298 0.233490
vt 0.658244 0.210541
vt 0.667184 0.214244
vt 0.658244 0.222678
vt 0.649305 0.214244
vt 0.645603 0.223183
vt 0.649305 0.232122
vt 0.658244 0.235825
vt 0.667184 0.232122
vt 0.670886 0.223183
vt 0.667791 0.232951
vt 0.659409 0.236423
vt 0.659409 0.224095
vt 0.651027 0.232951
vt 0.647555 0.224569
vt 0.651027 0.216187
vt 0.659409 0.212715
vt 0.667791 0.216187
vt 0.671263 0.224569
vn 0.000000 1.000000 0.000000
vn 0.000000 1.000000 0.000000
vn 0.000000 1.000000 0.000000
vn 0.000000 1.000000 0.000000
vn 0.000000 -1.000000 0.000000
vn 0.000000 -1.000000 0.000000
vn 0.000000 -1.000000 0.000000
vn 0.000000 -1.000000 0.000000
vn -1.000000 0.000000 0.000000
vn -1.000000 0.000000 0.000000
vn -1.000000 0.000000 0.000000
vn -1.000000 0.000000 0.000000
vn 1.000000 0.000000 0.000000
vn 1.000000 0.000000 0.000000
vn 1.000000 0.000000 0.000000
vn 1.000000 0.000000 0.000000
vn 0.000000 1.000000 0.000000
vn 0.000000 1.000000 0.000000
vn 0.000000 1.000000 0.000000
vn 0.000000 1.000000 0.000000
vn 0.000000 -1.000000 0.000000
vn 0.000000 -1.000000 0.000000
vn 0.000000 -1.000000 0.000000
vn 0.000000 -1.000000 0.000000
vn 1.000000 0.000000 0.000000
vn 1.000000 0.000000 0.000000
vn 1.000000 0.000000 0.000000
vn 1.000000 0.000000 0.000000
vn -1.000000 0.000000 0.000000
vn -1.000000 0.000000 0.000000
vn -1.000000 0.000000 0.000000
vn -1.000000 0.000000 0.000000
vn 0.004624 0.707107 -0.707092
vn 0.867350 0.351928 -0.351923
vn 0.867348 -0.000001 -0.497701
vn 0.004624 -0.000000 -0.999989
vn 0.004624 0.999989 -0.000000
vn 0.867349 0.497700 0.000000
vn 0.867354 -0.351923 -0.351918
vn 0.004624 -0.707097 -0.707102
vn 0.867357 -0.497687 0.000000
vn 0.004624 -0.999989 0.000000
vn 0.867354 -0.351923 0.351919
vn 0.004624 -0.707097 0.707102
vn 0.867352 -0.000000 0.497696
vn 0.004624 0.000000 0.999989
vn 0.867349 0.351930 0.351924
vn 0.004624 0.707107 0.707092
vn -0.004624 0.707107 -0.707091
vn -0.867351 0.351928 -0.351921
vn -0.867350 0.497699 0.000000
vn -0.004624 0.999989 -0.000000
vn -0.004624 0.000000 -0.999989
vn -0.867350 0.000000 -0.497699
vn -0.004624 -0.707097 -0.707102
vn -0.867355 -0.351922 -0.351918
vn -0.004624 -0.999989 0.000000
vn -0.867357 -0.497687 -0.000000
vn -0.004624 -0.707097 0.707102
vn -0.867354 -0.351923 0.351919
vn -0.004624 0.000000 0.999989
vn -0.867352 0.000000 0.497696
vn -0.004624 0.707107 0.707092
vn -0.867349 0.351930 0.351923
vn 1.000000 0.000000 0.000000
vn -1.000000 -0.000000 0.000000
f 3/3/1 5/5/2 6/6/3 4/4/4
f 7/7/5 1/9/6 2/2/7 8/8/8
f 2/2/9 4/4/10 6/6/11 8/8/12
f 7/10/13 5/5/14 3/3/15 1/1/16
f 11/11/17 12/12/18 14/13/19 13/14/20
f 15/15/21 16/16/22 10/17/23 9/18/24
f 10/17/25 16/16/26 14/13/27 12/12/28
f 15/19/29 9/20/30 11/11/31 13/14/32
f 19/21/33 20/22/34 22/23/35 21/24/36
f 20/25/34 19/26/33 33/27/37 34/28/38
f 21/24/36 22/29/35 24/30/39 23/31/40
f 23/31/40 24/32/39 26/33/41 25/34/42
f 25/34/42 26/35/41 28/36/43 27/37/44
f 27/37/44 28/38/43 30/39/45 29/40/46
f 29/40/46 30/41/45 32/42/47 31/43/48
f 31/43/48 32/44/47 34/45/38 33/27/37
f 35/46/49 36/47/50 50/48/51 49/49/52
f 36/50/50 35/51/49 37/52/53 38/53/54
f 38/54/54 37/52/53 39/55/55 40/56/56
f 40/57/56 39/55/55 41/58/57 42/59/58
f 42/60/58 41/58/57 43/61/59 44/62/60
f 44/63/60 43/61/59 45/64/61 46/65/62
f 46/66/62 45/64/61 47/67/63 48/68/64
f 48/69/64 47/67/63 49/49/52 50/70/51
f 19/21/33 21/24/36 37/52/53 35/51/49
f 21/24/36 23/31/40 39/55/55 37/52/53
f 23/31/40 25/34/42 41/58/57 39/55/55
f 25/34/42 27/37/44 43/61/59 41/58/57
f 27/37/44 29/40/46 45/64/61 43/61/59
f 29/40/46 31/43/48 47/67/63 45/64/61
f 31/43/48 33/27/37 49/49/52 47/67/63
f 33/27/37 19/26/33 35/46/49 49/49/52
f 22/71/35 20/72/34 17/73/65
f 24/74/39 22/71/35 17/73/65
f 26/75/41 24/74/39 17/73/65
f 28/76/43 26/75/41 17/73/65
f 30/77/45 28/76/43 17/73/65
f 32/78/47 30/77/45 17/73/65
f 34/79/38 32/78/47 17/73/65
f 20/72/34 34/79/38 17/73/65
f 36/80/50 38/81/54 18/82/66
f 38/81/54 40/83/56 18/82/66
f 40/83/56 42/84/58 18/82/66
f 42/84/58 44/85/60 18/82/66
f 44/85/60 46/86/62 18/82/66
f 46/86/62 48/87/64 18/82/66
f 48/87/64 50/88/51 18/82/66
f 50/88/51 36/80/50 18/82/66
