# This file uses meters as units for non-parametric coordinates.

v -105.657089 0.502843 34.757191
v -105.103149 -0.000002 34.757191
v -105.103149 0.502843 35.311138
v 105.103149 -0.000002 34.757191
v 105.657089 0.502843 34.757191
v 105.103149 0.502843 35.311138
v -105.103149 13.513531 34.757191
v -105.657089 13.010687 34.757191
v -105.103149 13.010687 35.311138
v 105.657089 13.010687 34.757191
v 105.103149 13.513531 34.757191
v 105.103149 13.010687 35.311138
v -105.103149 13.010687 -35.075321
v -105.657089 13.010687 -34.521378
v -105.103149 13.513531 -34.521378
v 105.657089 13.010687 -34.521378
v 105.103149 13.010687 -35.075321
v 105.103149 13.513531 -34.521378
v -105.103149 -0.000002 -34.521378
v -105.657089 0.502843 -34.521378
v -105.103149 0.502843 -35.075321
v 105.657089 0.502843 -34.521378
v 105.103149 -0.000002 -34.521378
v 105.103149 0.502843 -35.075321
v -105.909637 199.573700 34.757191
v -105.355698 199.070892 34.757191
v -105.355698 199.573700 35.311138
v 105.355698 199.070892 34.757191
v 105.909637 199.573700 34.757191
v 105.355698 199.573700 35.311138
v -105.355698 204.099792 34.757191
v -105.909637 203.596954 34.757191
v -105.355698 203.596954 35.311138
v 105.909637 203.596954 34.757191
v 105.355698 204.099792 34.757191
v 105.355698 203.596954 35.311138
v -105.355698 203.596954 -35.075321
v -105.909637 203.596954 -34.521378
v -105.355698 204.099792 -34.521378
v 105.909637 203.596954 -34.521378
v 105.355698 203.596954 -35.075321
v 105.355698 204.099792 -34.521378
v -105.355698 199.070892 -34.521378
v -105.909637 199.573700 -34.521378
v -105.355698 199.573700 -35.075321
v 105.909637 199.573700 -34.521378
v 105.355698 199.070892 -34.521378
v 105.355698 199.573700 -35.075321
v 2.010061 199.070862 -33.270969
v -2.010061 199.070862 -33.270969
v -2.010061 13.513519 -33.270969
v 2.010061 13.513519 -33.270969
v -100.513084 13.513519 -30.334812
v -2.010061 13.513519 -30.334812
v -2.010061 199.070862 -30.334812
v -100.513084 199.070862 -30.334812
v 2.010061 13.513519 -30.334812
v 2.010061 199.070862 -30.334812
v 100.513084 13.513519 -30.334812
v 100.513084 199.070862 -30.334812
v -103.940903 13.513519 32.498055
v -104.430534 13.513519 32.008423
v -104.430534 199.070862 32.008423
v -103.940903 199.070862 32.498055
v 104.430534 13.513519 32.008423
v 103.940903 13.513519 32.498055
v 103.940903 199.070862 32.498055
v 104.430534 199.070862 32.008423
v -103.940903 199.070862 -33.270969
v -104.430534 199.070862 -32.781338
v -104.430534 13.513519 -32.781338
v -103.940903 13.513519 -33.270969
v 104.430534 199.070862 -32.781338
v 103.940903 199.070862 -33.270969
v 103.940903 13.513519 -33.270969
v 104.430534 13.513519 -32.781338
v -100.513084 13.513519 32.008423
v -101.002716 13.513519 32.498055
v -101.002716 199.070862 32.498055
v -100.513084 199.070862 32.008423
v 100.513084 199.070862 32.008423
v 101.002716 199.070862 32.498055
v 101.002716 13.513519 32.498055
v 100.513084 13.513519 32.008423
v 2.010061 13.513519 32.008423
v 1.520428 13.513519 32.498055
v 1.520428 199.070862 32.498055
v 2.010061 199.070862 32.008423
v -1.520428 13.513519 32.498055
v -2.010061 13.513519 32.008423
v -2.010061 199.070862 32.008423
v -1.520428 199.070862 32.498055
vt 0.509681 0.177730
vt 0.618171 0.177730
vt 0.618171 0.132504
vt 0.509681 0.132504
vt 0.618171 0.136737
vt 0.618171 0.173497
vt 0.509681 0.173497
vt 0.509681 0.136737
vt 0.510171 0.173497
vt 0.617681 0.173497
vt 0.617681 0.136737
vt 0.510171 0.136737
vt 0.510171 0.136737
vt 0.510171 0.173497
vt 0.617681 0.173497
vt 0.617681 0.136737
vt 0.618171 0.177730
vt 0.618171 0.132504
vt 0.509681 0.132504
vt 0.509681 0.177730
vt 0.618171 0.136737
vt 0.618171 0.173497
vt 0.509681 0.173497
vt 0.509681 0.136737
vt 0.509311 0.132504
vt 0.509311 0.177730
vt 0.509681 0.132143
vt 0.618171 0.132143
vt 0.618541 0.132504
vt 0.618541 0.177730
vt 0.509311 0.177730
vt 0.509311 0.132504
vt 0.618541 0.177730
vt 0.618541 0.132504
vt 0.509311 0.136737
vt 0.509311 0.173497
vt 0.618541 0.136737
vt 0.618541 0.173497
vt 0.509681 0.177730
vt 0.618171 0.177730
vt 0.618171 0.132504
vt 0.509681 0.132504
vt 0.618171 0.136737
vt 0.618171 0.173497
vt 0.509681 0.173497
vt 0.509681 0.136737
vt 0.510171 0.173497
vt 0.617681 0.173497
vt 0.617681 0.136737
vt 0.510171 0.136737
vt 0.510171 0.136737
vt 0.510171 0.173497
vt 0.617681 0.173497
vt 0.617681 0.136737
vt 0.618171 0.177730
vt 0.618171 0.132504
vt 0.509681 0.132504
vt 0.509681 0.177730
vt 0.618171 0.136737
vt 0.618171 0.173497
vt 0.509681 0.173497
vt 0.509681 0.136737
vt 0.509311 0.132504
vt 0.509311 0.177730
vt 0.509681 0.132143
vt 0.618171 0.132143
vt 0.618541 0.132504
vt 0.618541 0.177730
vt 0.509311 0.177730
vt 0.509311 0.132504
vt 0.618541 0.177730
vt 0.618541 0.132504
vt 0.509311 0.136737
vt 0.509311 0.173497
vt 0.618541 0.136737
vt 0.618541 0.173497
vt 0.509567 0.178092
vt 0.509567 0.132143
vt 0.511104 0.132143
vt 0.511104 0.178092
vt 0.562875 0.178092
vt 0.509567 0.178092
vt 0.509567 0.132143
vt 0.562875 0.132143
vt 0.617728 0.178092
vt 0.617728 0.132143
vt 0.510124 0.132143
vt 0.510125 0.178092
vt 0.617728 0.178092
vt 0.617728 0.132143
vt 0.510124 0.132143
vt 0.510124 0.178092
vt 0.616748 0.178092
vt 0.616748 0.132143
vt 0.618285 0.132143
vt 0.618285 0.178092
vt 0.564977 0.132143
vt 0.618285 0.132143
vt 0.618285 0.178092
vt 0.564977 0.178092
vt 0.563131 0.178092
vt 0.563131 0.132143
vt 0.564721 0.132143
vt 0.564721 0.178092
vt 0.511360 0.132143
vt 0.562875 0.132143
vt 0.562875 0.178092
vt 0.511360 0.178092
vt 0.564977 0.178092
vt 0.564977 0.132143
vt 0.616492 0.132143
vt 0.616492 0.178092
vt 0.617627 0.132816
vt 0.617627 0.177255
vt 0.512810 0.177255
vt 0.512810 0.132816
vt 0.617627 0.132816
vt 0.617627 0.177255
vt 0.512810 0.177255
vt 0.512810 0.132816
vt 0.617627 0.132816
vt 0.617627 0.177255
vt 0.512810 0.177255
vt 0.512810 0.132816
vt 0.617627 0.132816
vt 0.617627 0.177255
vt 0.512810 0.177255
vt 0.512810 0.132816
vt 0.509311 0.132143
vt 0.509311 0.178092
vt 0.509311 0.178092
vt 0.509311 0.132143
vt 0.511360 0.132143
vt 0.511360 0.178092
vt 0.616492 0.178092
vt 0.616492 0.132143
vt 0.564977 0.132143
vt 0.564977 0.178092
vt 0.562875 0.132143
vt 0.562875 0.178092
vn 0.000000 -1.000000 0.000000
vn 0.000000 -1.000000 0.000000
vn 0.000000 -1.000000 0.000000
vn 0.000000 -1.000000 0.000000
vn 0.000000 0.000000 1.000000
vn 0.000000 0.000000 1.000000
vn 0.000000 0.000000 1.000000
vn 0.000000 0.000000 1.000000
vn -1.000000 0.000000 0.000000
vn -1.000000 0.000000 0.000000
vn -1.000000 0.000000 0.000000
vn -1.000000 0.000000 0.000000
vn 1.000000 0.000000 0.000000
vn 1.000000 0.000000 0.000000
vn 1.000000 0.000000 0.000000
vn 1.000000 0.000000 0.000000
vn 0.000000 1.000000 0.000000
vn 0.000000 1.000000 0.000000
vn 0.000000 1.000000 0.000000
vn 0.000000 1.000000 0.000000
vn 0.000000 0.000000 -1.000000
vn 0.000000 0.000000 -1.000000
vn 0.000000 0.000000 -1.000000
vn 0.000000 0.000000 -1.000000
vn -0.672135 -0.740429 0.000000
vn -0.672135 -0.740429 0.000000
vn -0.672135 -0.740429 0.000000
vn -0.672135 -0.740429 0.000000
vn 0.000000 -0.740435 0.672128
vn 0.000000 -0.740435 0.672128
vn 0.000000 -0.740435 0.672128
vn 0.000000 -0.740435 0.672128
vn -0.707111 0.000000 0.707102
vn -0.707111 0.000000 0.707102
vn -0.707111 0.000000 0.707102
vn -0.707111 0.000000 0.707102
vn 0.672135 -0.740429 0.000000
vn 0.672135 -0.740429 0.000000
vn 0.672135 -0.740429 0.000000
vn 0.672135 -0.740429 0.000000
vn 0.707111 0.000000 0.707102
vn 0.707111 0.000000 0.707102
vn 0.707111 0.000000 0.707102
vn 0.707111 0.000000 0.707102
vn -0.672134 0.740429 0.000000
vn -0.672134 0.740429 0.000000
vn -0.672134 0.740429 0.000000
vn -0.672134 0.740429 0.000000
vn 0.000000 0.740435 0.672128
vn 0.000000 0.740435 0.672128
vn 0.000000 0.740435 0.672128
vn 0.000000 0.740435 0.672128
vn 0.672134 0.740429 0.000000
vn 0.672134 0.740429 0.000000
vn 0.672134 0.740429 0.000000
vn 0.672134 0.740429 0.000000
vn -0.707110 0.000000 -0.707104
vn -0.707110 0.000000 -0.707104
vn -0.707110 0.000000 -0.707104
vn -0.707110 0.000000 -0.707104
vn 0.000000 0.740432 -0.672131
vn 0.000000 0.740432 -0.672131
vn 0.000000 0.740432 -0.672131
vn 0.000000 0.740432 -0.672131
vn 0.707110 0.000000 -0.707104
vn 0.707110 0.000000 -0.707104
vn 0.707110 0.000000 -0.707104
vn 0.707110 0.000000 -0.707104
vn 0.000000 -0.740432 -0.672131
vn 0.000000 -0.740432 -0.672131
vn 0.000000 -0.740432 -0.672131
vn 0.000000 -0.740432 -0.672131
vn -0.557839 -0.614524 0.557832
vn -0.557839 -0.614524 0.557832
vn -0.557839 -0.614524 0.557832
vn 0.557839 -0.614524 0.557832
vn 0.557839 -0.614524 0.557832
vn 0.557839 -0.614524 0.557832
vn -0.557839 0.614524 0.557831
vn -0.557839 0.614524 0.557831
vn -0.557839 0.614524 0.557831
vn 0.557839 0.614524 0.557831
vn 0.557839 0.614524 0.557831
vn 0.557839 0.614524 0.557831
vn -0.557839 0.614517 -0.557839
vn -0.557839 0.614517 -0.557839
vn -0.557839 0.614517 -0.557839
vn 0.557839 0.614517 -0.557839
vn 0.557839 0.614517 -0.557839
vn 0.557839 0.614517 -0.557839
vn -0.557839 -0.614517 -0.557839
vn -0.557839 -0.614517 -0.557839
vn -0.557839 -0.614517 -0.557839
vn 0.557839 -0.614517 -0.557839
vn 0.557839 -0.614517 -0.557839
vn 0.557839 -0.614517 -0.557839
vn 0.000000 -1.000000 0.000000
vn 0.000000 -1.000000 0.000000
vn 0.000000 -1.000000 0.000000
vn 0.000000 -1.000000 0.000000
vn 0.000000 0.000000 1.000000
vn 0.000000 0.000000 1.000000
vn 0.000000 0.000000 1.000000
vn 0.000000 0.000000 1.000000
vn -1.000000 0.000000 0.000000
vn -1.000000 0.000000 0.000000
vn -1.000000 0.000000 0.000000
vn -1.000000 0.000000 0.000000
vn 1.000000 0.000000 0.000000
vn 1.000000 0.000000 0.000000
vn 1.000000 0.000000 0.000000
vn 1.000000 0.000000 0.000000
vn 0.000000 1.000000 0.000000
vn 0.000000 1.000000 0.000000
vn 0.000000 1.000000 0.000000
vn 0.000000 1.000000 0.000000
vn 0.000000 0.000000 -1.000000
vn 0.000000 0.000000 -1.000000
vn 0.000000 0.000000 -1.000000
vn 0.000000 0.000000 -1.000000
vn -0.672108 -0.740453 0.000000
vn -0.672108 -0.740453 0.000000
vn -0.672108 -0.740453 0.000000
vn -0.672108 -0.740453 0.000000
vn 0.000000 -0.740453 0.672108
vn 0.000000 -0.740453 0.672108
vn 0.000000 -0.740453 0.672108
vn 0.000000 -0.740453 0.672108
vn -0.707112 0.000000 0.707102
vn -0.707112 0.000000 0.707102
vn -0.707112 0.000000 0.707102
vn -0.707112 0.000000 0.707102
vn 0.672108 -0.740453 0.000000
vn 0.672108 -0.740453 0.000000
vn 0.672108 -0.740453 0.000000
vn 0.672108 -0.740453 0.000000
vn 0.707112 0.000000 0.707102
vn 0.707112 0.000000 0.707102
vn 0.707112 0.000000 0.707102
vn 0.707112 0.000000 0.707102
vn -0.672130 0.740433 0.000000
vn -0.672130 0.740433 0.000000
vn -0.672130 0.740433 0.000000
vn -0.672130 0.740433 0.000000
vn 0.000000 0.740441 0.672121
vn 0.000000 0.740441 0.672121
vn 0.000000 0.740441 0.672121
vn 0.000000 0.740441 0.672121
vn 0.672130 0.740433 0.000000
vn 0.672130 0.740433 0.000000
vn 0.672130 0.740433 0.000000
vn 0.672130 0.740433 0.000000
vn -0.707109 0.000000 -0.707104
vn -0.707109 0.000000 -0.707104
vn -0.707109 0.000000 -0.707104
vn -0.707109 0.000000 -0.707104
vn 0.000000 0.740439 -0.672124
vn 0.000000 0.740439 -0.672124
vn 0.000000 0.740439 -0.672124
vn 0.000000 0.740439 -0.672124
vn 0.707109 0.000000 -0.707104
vn 0.707109 0.000000 -0.707104
vn 0.707109 0.000000 -0.707104
vn 0.707109 0.000000 -0.707104
vn 0.000000 -0.740451 -0.672110
vn 0.000000 -0.740451 -0.672110
vn 0.000000 -0.740451 -0.672110
vn 0.000000 -0.740451 -0.672110
vn -0.557824 -0.614558 0.557809
vn -0.557824 -0.614558 0.557809
vn -0.557824 -0.614558 0.557809
vn 0.557824 -0.614558 0.557809
vn 0.557824 -0.614558 0.557809
vn 0.557824 -0.614558 0.557809
vn -0.557831 0.614524 0.557839
vn -0.557831 0.614524 0.557839
vn -0.557831 0.614524 0.557839
vn 0.557831 0.614524 0.557839
vn 0.557831 0.614524 0.557839
vn 0.557831 0.614524 0.557839
vn -0.557826 0.614527 -0.557841
vn -0.557826 0.614527 -0.557841
vn -0.557826 0.614527 -0.557841
vn 0.557826 0.614527 -0.557841
vn 0.557826 0.614527 -0.557841
vn 0.557826 0.614527 -0.557841
vn -0.557824 -0.614558 -0.557809
vn -0.557824 -0.614558 -0.557809
vn -0.557824 -0.614558 -0.557809
vn 0.557824 -0.614558 -0.557809
vn 0.557824 -0.614558 -0.557809
vn 0.557824 -0.614558 -0.557809
vn 0.000000 0.000000 1.000000
vn 0.000000 0.000000 1.000000
vn 0.000000 0.000000 1.000000
vn 0.000000 0.000000 1.000000
vn 0.000000 0.000000 -1.000000
vn 0.000000 0.000000 -1.000000
vn 0.000000 0.000000 -1.000000
vn 0.000000 0.000000 -1.000000
vn 1.000000 0.000000 0.000000
vn 1.000000 0.000000 0.000000
vn 1.000000 0.000000 0.000000
vn 1.000000 0.000000 0.000000
vn -1.000000 0.000000 0.000000
vn -1.000000 0.000000 0.000000
vn -1.000000 0.000000 0.000000
vn -1.000000 0.000000 0.000000
vn 0.000000 0.000000 1.000000
vn 0.000000 0.000000 1.000000
vn 0.000000 0.000000 1.000000
vn 0.000000 0.000000 1.000000
vn 0.000000 0.000000 -1.000000
vn 0.000000 0.000000 -1.000000
vn 0.000000 0.000000 -1.000000
vn 0.000000 0.000000 -1.000000
vn 0.000000 0.000000 1.000000
vn 0.000000 0.000000 1.000000
vn 0.000000 0.000000 1.000000
vn 0.000000 0.000000 1.000000
vn 0.000000 0.000000 1.000000
vn 0.000000 0.000000 1.000000
vn 0.000000 0.000000 1.000000
vn 0.000000 0.000000 1.000000
vn 0.000000 0.000000 1.000000
vn 0.000000 0.000000 1.000000
vn 0.000000 0.000000 1.000000
vn 0.000000 0.000000 1.000000
vn -1.000000 0.000000 0.000000
vn -1.000000 0.000000 0.000000
vn -1.000000 0.000000 0.000000
vn -1.000000 0.000000 0.000000
vn 1.000000 0.000000 0.000000
vn 1.000000 0.000000 0.000000
vn 1.000000 0.000000 0.000000
vn 1.000000 0.000000 0.000000
vn 1.000000 0.000000 0.000000
vn 1.000000 0.000000 0.000000
vn 1.000000 0.000000 0.000000
vn 1.000000 0.000000 0.000000
vn -1.000000 0.000000 0.000000
vn -1.000000 0.000000 0.000000
vn -1.000000 0.000000 0.000000
vn -1.000000 0.000000 0.000000
vn -0.707106 0.000000 0.707108
vn -0.707106 0.000000 0.707108
vn -0.707106 0.000000 0.707108
vn -0.707106 0.000000 0.707108
vn 0.707106 0.000000 0.707108
vn 0.707106 0.000000 0.707108
vn 0.707106 0.000000 0.707108
vn 0.707106 0.000000 0.707108
vn -0.707108 0.000000 -0.707106
vn -0.707108 0.000000 -0.707106
vn -0.707108 0.000000 -0.707106
vn -0.707108 0.000000 -0.707106
vn 0.707108 0.000000 -0.707106
vn 0.707108 0.000000 -0.707106
vn 0.707108 0.000000 -0.707106
vn 0.707108 0.000000 -0.707106
vn 0.707106 0.000000 0.707108
vn 0.707106 0.000000 0.707108
vn 0.707106 0.000000 0.707108
vn 0.707106 0.000000 0.707108
vn -0.707106 0.000000 0.707108
vn -0.707106 0.000000 0.707108
vn -0.707106 0.000000 0.707108
vn -0.707106 0.000000 0.707108
vn 0.707105 0.000000 0.707108
vn 0.707105 0.000000 0.707108
vn 0.707105 0.000000 0.707108
vn 0.707105 0.000000 0.707108
vn -0.707105 0.000000 0.707108
vn -0.707105 0.000000 0.707108
vn -0.707105 0.000000 0.707108
vn -0.707105 0.000000 0.707108
f 19/1/1 23/2/2 4/3/3 2/4/4
f 6/5/5 12/6/6 9/7/7 3/8/8
f 8/9/9 14/10/10 20/11/11 1/12/12
f 22/13/13 16/14/14 10/15/15 5/16/16
f 11/17/17 18/18/18 15/19/19 7/20/20
f 17/21/21 24/22/22 21/23/23 13/24/24
f 2/4/25 1/25/26 20/26/27 19/1/28
f 3/8/29 2/27/30 4/28/31 6/5/32
f 1/12/33 3/8/34 9/7/35 8/9/36
f 5/29/37 4/3/38 23/2/39 22/30/40
f 6/5/41 5/16/42 10/15/43 12/6/44
f 8/31/45 7/20/46 15/19/47 14/32/48
f 7/20/49 9/7/50 12/6/51 11/17/52
f 11/17/53 10/33/54 16/34/55 18/18/56
f 14/35/57 13/24/58 21/23/59 20/36/60
f 13/24/61 15/19/62 18/18/63 17/21/64
f 17/21/65 16/37/66 22/38/67 24/22/68
f 19/1/69 21/23/70 24/22/71 23/2/72
f 1/12/73 2/27/74 3/8/75
f 4/28/76 5/16/77 6/5/78
f 7/20/79 8/9/80 9/7/81
f 10/15/82 11/17/83 12/6/84
f 13/24/85 14/32/86 15/19/87
f 16/34/88 17/21/89 18/18/90
f 19/1/91 20/36/92 21/23/93
f 22/38/94 23/2/95 24/22/96
f 43/39/97 47/40/98 28/41/99 26/42/100
f 30/43/101 36/44/102 33/45/103 27/46/104
f 32/47/105 38/48/106 44/49/107 25/50/108
f 46/51/109 40/52/110 34/53/111 29/54/112
f 35/55/113 42/56/114 39/57/115 31/58/116
f 41/59/117 48/60/118 45/61/119 37/62/120
f 26/42/121 25/63/122 44/64/123 43/39/124
f 27/46/125 26/65/126 28/66/127 30/43/128
f 25/50/129 27/46/130 33/45/131 32/47/132
f 29/67/133 28/41/134 47/40/135 46/68/136
f 30/43/137 29/54/138 34/53/139 36/44/140
f 32/69/141 31/58/142 39/57/143 38/70/144
f 31/58/145 33/45/146 36/44/147 35/55/148
f 35/55/149 34/71/150 40/72/151 42/56/152
f 38/73/153 37/62/154 45/61/155 44/74/156
f 37/62/157 39/57/158 42/56/159 41/59/160
f 41/59/161 40/75/162 46/76/163 48/60/164
f 43/39/165 45/61/166 48/60/167 47/40/168
f 25/50/169 26/65/170 27/46/171
f 28/66/172 29/54/173 30/43/174
f 31/58/175 32/47/176 33/45/177
f 34/53/178 35/55/179 36/44/180
f 37/62/181 38/70/182 39/57/183
f 40/72/184 41/59/185 42/56/186
f 43/39/187 44/74/188 45/61/189
f 46/76/190 47/40/191 48/60/192
f 64/77/193 61/78/194 78/79/195 79/80/196
f 51/81/197 72/82/198 69/83/199 50/84/200
f 68/85/201 65/86/202 76/87/203 73/88/204
f 70/89/205 71/90/206 62/91/207 63/92/208
f 82/93/209 83/94/210 66/95/211 67/96/212
f 49/97/213 74/98/214 75/99/215 52/100/216
f 92/101/217 89/102/218 86/103/219 87/104/220
f 50/84/200 49/97/213 52/100/216 51/81/197
f 53/105/221 54/106/222 55/107/223 56/108/224
f 58/109/225 57/110/226 59/111/227 60/112/228
f 90/113/229 91/114/230 55/115/231 54/116/232
f 80/117/233 77/118/234 53/119/235 56/120/236
f 88/121/237 85/122/238 57/123/239 58/124/240
f 84/125/241 81/126/242 60/127/243 59/128/244
f 62/91/245 61/78/246 64/77/247 63/92/248
f 66/95/249 65/86/250 68/85/251 67/96/252
f 70/129/253 69/83/254 72/82/255 71/130/256
f 74/131/257 73/88/258 76/87/259 75/132/260
f 78/79/261 77/133/262 80/134/263 79/80/264
f 82/93/265 81/135/266 84/136/267 83/94/268
f 86/103/269 85/137/270 88/138/271 87/104/272
f 90/139/273 89/102/274 92/101/275 91/140/276
