# This file uses meters as units for non-parametric coordinates.

v -40.548904 200.280296 -39.581712
v -40.548904 292.612984 -39.581712
v -108.873459 292.612984 -39.581712
v -108.873459 200.280296 -39.581712
v -108.873459 107.947571 -39.581712
v -40.548904 107.947578 -39.581712
vt 0.737179 0.115041
vt 0.737179 0.076247
vt 0.636324 0.076247
vt 0.636324 0.115041
vt 0.636324 0.115041
vt 0.636324 0.076247
vn 0.000000 0.000000 1.000000
vn 0.000000 0.000000 1.000000
vn 0.000000 0.000000 1.000000
vn 0.000000 0.000000 1.000000
vn 0.000000 0.000000 1.000000
vn 0.000000 0.000000 1.000000
f 4/1/1 1/2/2 2/3/3 3/4/4
f 5/5/5 6/6/6 1/2/2 4/1/1
