# This file uses meters as units for non-parametric coordinates.

v 21.976181 190.283345 36.668780
v 97.959042 190.283345 36.668780
v 21.976181 155.226182 36.668780
v 97.959042 155.226182 36.668780
v 60.206598 190.283345 36.668780
v 60.206598 155.226182 36.668780
v 22.280600 155.862102 39.623334
v 21.976181 155.226182 38.987380
v 60.206598 155.226182 38.987380
v 60.206598 155.862102 39.623334
v 22.280600 189.647390 39.623334
v 21.976181 190.283345 38.987380
v 60.206598 190.283345 38.987380
v 60.206598 189.647390 39.623334
v 97.959042 155.226182 38.987380
v 97.654622 155.862102 39.623334
v 97.654622 189.647390 39.623334
v 97.959042 190.283345 38.987380
v 60.206598 155.500978 37.245260
v 60.206598 157.449006 37.245260
v 23.280472 189.534591 -30.701565
v 23.466958 189.924152 -30.311985
v 60.206598 189.534591 -30.701565
v 60.206598 189.924152 -30.311985
v 23.280472 155.890625 -30.701565
v 23.466958 155.501047 -30.311985
v 60.206598 155.890625 -30.701565
v 60.206598 155.501047 -30.311985
v 23.466958 189.924152 37.245260
v 23.280472 189.534591 37.245260
v 96.468264 189.924152 37.245260
v 96.654750 189.534591 37.245260
v 96.654750 189.534591 -30.701565
v 96.468264 189.924152 -30.311985
v 23.280472 155.890625 37.245260
v 23.466958 155.501047 37.245260
v 96.468264 155.501047 37.245260
v 96.654750 155.890625 37.245260
v 96.654750 155.890625 -30.701565
v 96.468264 155.501047 -30.311985
v 24.768233 189.534678 -27.589883
v 24.586043 189.924152 -27.974177
v 60.206598 189.924152 -27.974177
v 60.206598 189.534712 -27.595349
v 60.206598 158.094617 -28.492190
v 60.206598 157.710075 -28.107952
v 24.961211 157.301528 -27.199925
v 24.768233 157.690106 -27.579310
v 24.961211 157.064894 37.245260
v 24.768233 157.449006 37.245260
v 95.166990 157.449006 37.245260
v 94.974011 157.064894 37.245260
v 94.974011 157.301528 -27.199925
v 95.166990 157.690106 -27.579310
v 95.166990 189.534678 -27.589883
v 95.349179 189.924152 -27.974177
v 95.171307 189.534988 37.245260
v 95.349179 189.924152 37.245260
v 24.586043 189.924152 37.245260
v 24.763915 189.534988 37.245260
vt 0.509995 0.011581
vt 0.618715 0.011581
vt 0.618715 0.053412
vt 0.509995 0.053412
vt 0.509995 0.011581
vt 0.509995 0.053412
vt 0.510845 0.012225
vt 0.509995 0.011581
vt 0.618715 0.011581
vt 0.618715 0.012225
vt 0.510845 0.052767
vt 0.509995 0.049229
vt 0.618715 0.011581
vt 0.618715 0.015763
vt 0.509995 0.015763
vt 0.510845 0.011581
vt 0.618715 0.052767
vt 0.618715 0.049229
vt 0.510845 0.052767
vt 0.509995 0.049229
vt 0.509995 0.012225
vt 0.520866 0.011581
vt 0.520866 0.053412
vt 0.509995 0.052767
vt 0.509995 0.015763
vt 0.618715 0.011581
vt 0.618715 0.053412
vt 0.509995 0.011581
vt 0.607844 0.011581
vt 0.607844 0.053412
vt 0.509995 0.053412
vt 0.510845 0.012225
vt 0.509995 0.012043
vt 0.510572 0.011581
vt 0.618715 0.011581
vt 0.618715 0.012043
vt 0.510572 0.053412
vt 0.509995 0.052950
vt 0.618715 0.052950
vt 0.618715 0.053412
vt 0.510572 0.011581
vt 0.509995 0.012043
vt 0.509995 0.052950
vt 0.510572 0.053190
vt 0.510572 0.011581
vt 0.509995 0.011581
vt 0.618715 0.052950
vt 0.618715 0.053190
vt 0.509995 0.052950
vt 0.510572 0.053190
vt 0.509995 0.053412
vt 0.509995 0.052950
vt 0.618715 0.052950
vt 0.618139 0.053412
vt 0.509995 0.012043
vt 0.509995 0.011581
vt 0.618139 0.011581
vt 0.618715 0.012043
vt 0.509995 0.052925
vt 0.509995 0.053412
vt 0.618715 0.053412
vt 0.618715 0.052929
vt 0.509995 0.011581
vt 0.509995 0.012073
vt 0.618715 0.012073
vt 0.618715 0.011581
vt 0.509995 0.012073
vt 0.509995 0.011581
vt 0.618715 0.052919
vt 0.618715 0.053183
vt 0.510584 0.053183
vt 0.510009 0.052925
vt 0.510009 0.052925
vt 0.510584 0.053183
vt 0.510022 0.011581
vt 0.510584 0.011581
vt 0.510008 0.011609
vt 0.509995 0.012064
vt 0.618707 0.012067
vt 0.618134 0.011605
vt 0.618715 0.053412
vt 0.618715 0.052925
vt 0.509995 0.052929
vt 0.509995 0.053412
vt 0.618715 0.011581
vt 0.510003 0.012067
vt 0.618715 0.012064
vt 0.510585 0.011581
vt 0.618715 0.011581
vt 0.509995 0.012043
vt 0.618715 0.012043
vt 0.510572 0.011581
vt 0.509995 0.011581
vt 0.618715 0.053412
vt 0.509995 0.053412
vt 0.509995 0.011581
vn 0.000000 0.000000 -1.000000
vn 0.000000 0.000000 -1.000000
vn 0.000000 0.000000 -1.000000
vn 0.000000 0.000000 -1.000000
vn 0.000000 0.000000 -1.000000
vn 0.000000 0.000000 -1.000000
vn 0.000000 -0.707130 0.707083
vn 0.000000 -0.707130 0.707083
vn 0.000000 -0.707126 0.707088
vn 0.000000 -0.707126 0.707088
vn -0.901986 0.000000 0.431764
vn -0.901986 0.000000 0.431764
vn -0.901986 0.000000 0.431764
vn -0.901986 0.000000 0.431764
vn 0.000000 -0.707121 0.707093
vn 0.000000 -0.707121 0.707093
vn 0.000000 0.707104 0.707109
vn 0.000000 0.707104 0.707109
vn 0.000000 0.707104 0.707110
vn 0.000000 0.707104 0.707110
vn 0.000000 0.707103 0.707110
vn 0.000000 0.707103 0.707110
vn 0.901986 0.000000 0.431764
vn 0.901986 0.000000 0.431764
vn 0.901986 0.000000 0.431764
vn 0.901986 0.000000 0.431764
vn 0.000000 0.000000 1.000000
vn 0.000000 0.000000 1.000000
vn 0.000000 0.000000 1.000000
vn 0.000000 0.000000 1.000000
vn 0.000000 1.000000 0.000000
vn 0.000000 1.000000 0.000000
vn 0.000000 1.000000 0.000000
vn 0.000000 1.000000 0.000000
vn 0.000000 -1.000000 0.000000
vn 0.000000 -1.000000 0.000000
vn 0.000000 -1.000000 0.000000
vn 0.000000 -1.000000 0.000000
vn 1.000000 0.000000 0.000000
vn 1.000000 0.000000 0.000000
vn 1.000000 0.000000 0.000000
vn 1.000000 0.000000 0.000000
vn -1.000000 0.000000 0.000000
vn -1.000000 0.000000 0.000000
vn -1.000000 0.000000 0.000000
vn -1.000000 0.000000 0.000000
vn 0.000000 1.000000 0.000000
vn 0.000000 1.000000 0.000000
vn 0.000000 -1.000000 0.000000
vn 0.000000 -1.000000 0.000000
vn 0.000000 0.000000 1.000000
vn 0.000000 0.000000 1.000000
vn 0.000000 0.707117 -0.707096
vn 0.000000 0.707117 -0.707096
vn 0.000000 0.707118 -0.707095
vn 0.000000 0.707118 -0.707095
vn -0.901978 0.431782 0.000000
vn -0.901978 0.431782 0.000000
vn -0.901978 0.431782 0.000000
vn -0.901978 0.431782 0.000000
vn 0.000000 0.707119 -0.707094
vn 0.000000 0.707119 -0.707094
vn -0.901986 -0.431766 0.000000
vn -0.901986 -0.431766 0.000000
vn -0.901986 -0.431766 0.000000
vn -0.901986 -0.431766 0.000000
vn 0.000000 -0.707117 -0.707096
vn 0.000000 -0.707117 -0.707096
vn 0.000000 -0.707118 -0.707095
vn 0.000000 -0.707118 -0.707095
vn 0.000000 -0.707119 -0.707094
vn 0.000000 -0.707119 -0.707094
vn 0.901978 0.431782 0.000000
vn 0.901978 0.431782 0.000000
vn 0.901978 0.431782 0.000000
vn 0.901978 0.431782 0.000000
vn 0.901986 -0.431766 0.000000
vn 0.901986 -0.431766 0.000000
vn 0.901986 -0.431766 0.000000
vn 0.901986 -0.431766 0.000000
vn 0.907646 0.419737 0.000029
vn 0.907646 0.419737 0.000029
vn 0.907646 0.419737 0.000029
vn 0.907646 0.419737 0.000029
vn 0.000055 0.699834 0.714305
vn 0.000055 0.699834 0.714305
vn -0.000000 0.699836 0.714303
vn -0.000000 0.699836 0.714303
vn -0.000055 0.699838 0.714301
vn -0.000055 0.699838 0.714302
vn 0.000001 0.704028 0.710172
vn -0.000001 0.704028 0.710172
vn -0.010336 0.703996 0.710129
vn -0.010336 0.703996 0.710129
vn 0.010197 0.703986 0.710140
vn 0.010197 0.703986 0.710140
vn 0.894279 0.447506 0.001654
vn 0.894279 0.447506 0.001654
vn 0.894279 0.447506 0.001654
vn 0.894279 0.447506 0.001654
vn -0.894282 0.447502 0.001654
vn -0.894282 0.447502 0.001654
vn -0.894282 0.447502 0.001654
vn -0.894282 0.447502 0.001654
vn -0.907646 0.419737 0.000029
vn -0.907646 0.419737 0.000029
vn -0.907646 0.419737 0.000029
vn -0.907646 0.419737 0.000029
vn 0.013035 -0.014002 0.999817
vn 0.013035 -0.014002 0.999817
vn -0.000000 -0.014003 0.999902
vn -0.000000 -0.014003 0.999902
vn -0.011195 0.999930 0.003834
vn -0.011195 0.999930 0.003834
vn 0.000000 0.999993 0.003835
vn -0.000001 0.999993 0.003835
vn -1.000000 0.000068 0.000033
vn -1.000000 0.000068 0.000033
vn -1.000000 0.000068 0.000033
vn -1.000000 0.000068 0.000033
vn 1.000000 0.000067 0.000033
vn 1.000000 0.000067 0.000033
vn 1.000000 0.000067 0.000033
vn 1.000000 0.000067 0.000033
vn -0.013213 -0.014002 0.999815
vn -0.013213 -0.014002 0.999815
vn 0.011349 0.999928 0.003834
vn 0.011349 0.999928 0.003834
vn 0.000000 0.000000 -1.000000
vn 0.000000 0.000000 -1.000000
vn 0.000000 0.000000 -1.000000
vn 0.000000 0.000000 -1.000000
vn -0.000001 -1.000000 -0.000000
vn -0.000000 -1.000000 -0.000001
vn -0.000000 -1.000000 -0.000001
vn -0.000001 -1.000000 -0.000000
vn 1.000000 0.000000 0.000000
vn 1.000000 0.000000 0.000000
vn 1.000000 0.000000 0.000000
vn 1.000000 0.000000 0.000000
vn -1.000000 0.000000 0.000000
vn -1.000000 0.000000 0.000000
vn -1.000000 0.000000 0.000000
vn -1.000000 0.000000 0.000000
vn 0.000000 0.000000 -1.000000
vn 0.000000 0.000000 -1.000000
vn 0.000001 -1.000000 -0.000001
vn 0.000001 -1.000000 -0.000001
vn 0.000000 1.000000 0.000000
vn 0.000000 1.000000 0.000000
vn 0.000000 1.000000 0.000000
vn 0.000000 1.000000 0.000000
vn 0.000000 1.000000 0.000000
vn 0.000000 1.000000 0.000000
vn 0.000000 1.000000 0.000000
vn 0.000000 1.000000 0.000000
vn 0.000000 1.000000 0.000000
vn 0.000000 1.000000 0.000000
f 1/1/1 5/2/2 6/3/3 3/4/4
f 6/3/3 5/2/2 2/5/5 4/6/6
f 7/7/7 8/8/8 9/9/9 10/10/10
f 8/8/11 7/7/12 11/11/13 12/12/14
f 10/13/10 9/14/9 15/15/15 16/16/16
f 12/12/17 11/11/18 14/17/19 13/18/20
f 13/18/20 14/17/19 17/19/21 18/20/22
f 16/21/23 15/22/24 18/23/25 17/24/26
f 7/7/27 10/10/28 14/17/29 11/11/30
f 12/12/31 13/18/32 5/2/33 1/1/34
f 3/4/35 6/3/36 9/14/37 8/25/38
f 15/22/39 4/26/40 2/27/41 18/23/42
f 3/28/43 8/29/44 12/30/45 1/31/46
f 13/18/32 18/20/47 2/5/48 5/2/33
f 9/14/37 6/3/36 4/6/49 15/15/50
f 14/17/29 10/10/28 16/32/51 17/19/52
f 21/33/53 22/34/54 24/35/55 23/36/56
f 22/37/57 21/38/58 30/39/59 29/40/60
f 23/36/56 24/35/55 34/41/61 33/42/62
f 25/43/63 26/44/64 36/45/65 35/46/66
f 26/44/67 25/43/68 27/47/69 28/48/70
f 28/48/70 27/47/69 39/49/71 40/50/72
f 31/51/73 32/52/74 33/53/75 34/54/76
f 38/55/77 37/56/78 40/57/79 39/58/80
f 41/59/81 42/60/82 59/61/83 60/62/84
f 42/63/85 41/64/86 44/65/87 43/66/88
f 43/66/88 44/65/87 55/67/89 56/68/90
f 45/69/91 46/70/92 53/71/93 54/72/94
f 46/70/92 45/69/91 48/73/95 47/74/96
f 47/74/97 48/73/98 50/75/99 49/76/100
f 52/77/101 51/78/102 54/79/103 53/80/104
f 56/81/105 55/82/106 57/83/107 58/84/108
f 41/64/109 48/73/110 45/69/111 44/65/112
f 47/74/113 49/76/114 20/85/115 46/70/116
f 51/78/117 57/83/118 55/82/119 54/79/120
f 48/86/121 41/59/122 60/62/123 50/87/124
f 45/69/111 54/72/125 55/67/126 44/65/112
f 20/85/115 52/88/127 53/71/128 46/70/116
f 21/33/129 23/36/130 27/47/131 25/43/132
f 26/44/133 28/48/134 19/89/135 36/45/136
f 38/55/137 39/58/138 33/53/139 32/52/140
f 25/90/141 35/91/142 30/39/143 21/38/144
f 27/47/131 23/36/130 33/42/145 39/49/146
f 19/89/135 28/48/134 40/50/147 37/92/148
f 22/93/149 42/63/150 43/66/151 24/35/152
f 34/94/153 56/81/154 58/84/155 31/51/156
f 22/95/149 29/40/157 59/61/158 42/60/150
f 24/35/152 43/66/151 56/68/154 34/96/153
