# This file uses meters as units for non-parametric coordinates.

v 47.955879 89.831922 38.316230
v 47.955884 122.688316 38.316234
v 44.697407 89.831922 38.316234
v 44.697407 122.688316 38.316234
v 47.955884 120.978666 36.903950
v 44.697407 120.978666 36.903950
v 44.697407 91.541575 36.903950
v 47.955884 91.541575 36.903950
v 44.697407 89.831922 34.961333
v 44.697407 91.541575 34.961333
v 47.955884 91.541575 34.961333
v 47.955884 89.831922 34.961333
v 47.955884 120.978666 34.961333
v 44.697407 120.978666 34.961333
v 44.697407 122.688314 34.961333
v 47.955884 122.688314 34.961333
vt 0.480262 0.760264
vt 0.485882 0.760264
vt 0.478612 0.771885
vt 0.485882 0.775759
vt 0.492482 0.760264
vt 0.473988 0.765429
vt 0.491993 0.768011
vt 0.491503 0.775759
vt 0.491503 0.760264
vt 0.474641 0.760264
vt 0.474641 0.775759
vt 0.473662 0.760264
vt 0.474641 0.760264
vt 0.474641 0.775759
vt 0.473662 0.775759
vt 0.491503 0.775759
vt 0.491503 0.760264
vt 0.492482 0.760264
vt 0.492482 0.775759
vn 0.000000 0.000000 -1.000000
vn 0.000000 0.000000 -1.000000
vn 0.000000 0.000000 -1.000000
vn 0.000000 0.000000 -1.000000
vn 1.000000 -0.000000 0.000002
vn 1.000000 -0.000000 0.000002
vn 1.000000 -0.000000 0.000002
vn 1.000000 -0.000000 0.000002
vn 0.000001 -0.000000 1.000000
vn 0.000001 -0.000000 1.000000
vn 0.000001 -0.000000 1.000000
vn 0.000001 -0.000000 1.000000
vn -1.000000 0.000000 0.000000
vn -1.000000 0.000000 0.000000
vn -1.000000 0.000000 0.000000
vn -1.000000 0.000000 0.000000
vn -1.000000 0.000000 0.000000
vn -1.000000 0.000000 0.000000
vn -1.000000 0.000000 0.000000
vn -1.000000 0.000000 0.000000
vn 0.000000 1.000000 0.000000
vn 0.000000 1.000000 0.000000
vn 0.000000 1.000000 0.000000
vn 0.000000 1.000000 0.000000
vn 1.000000 -0.000001 0.000001
vn 1.000000 -0.000001 0.000001
vn 1.000000 -0.000001 0.000001
vn 1.000000 -0.000001 0.000001
vn -0.000000 -1.000000 0.000000
vn -0.000000 -1.000000 0.000000
vn -0.000000 -1.000000 0.000000
vn -0.000000 -1.000000 0.000000
vn -0.000000 -1.000000 0.000000
vn -0.000000 -1.000000 0.000000
vn -0.000000 -1.000000 0.000000
vn -0.000000 -1.000000 0.000000
vn -1.000000 0.000000 -0.000000
vn -1.000000 0.000000 -0.000000
vn -1.000000 0.000000 -0.000000
vn -1.000000 0.000000 -0.000000
vn 0.000000 1.000000 -0.000000
vn 0.000000 1.000000 -0.000000
vn 0.000000 1.000000 -0.000000
vn 0.000000 1.000000 -0.000000
vn 1.000000 -0.000000 -0.000000
vn 1.000000 -0.000000 -0.000000
vn 1.000000 -0.000000 -0.000000
vn 1.000000 -0.000000 -0.000000
f 5/8/1 8/11/2 7/10/3 6/9/4
f 2/7/5 1/6/6 8/11/7 5/8/8
f 4/4/9 3/3/10 1/1/11 2/2/12
f 6/9/13 7/10/14 3/3/15 4/4/16
f 3/3/17 7/10/18 10/13/19 9/12/20
f 7/10/21 8/11/22 11/14/23 10/13/24
f 8/11/25 1/6/26 12/15/27 11/14/28
f 1/6/29 3/3/30 9/12/31 12/15/32
f 5/8/33 6/9/34 14/17/35 13/16/36
f 6/9/37 4/5/38 15/18/39 14/17/40
f 4/5/41 2/7/42 16/19/43 15/18/44
f 2/7/45 5/8/46 13/16/47 16/19/48
