# This file uses meters as units for non-parametric coordinates.

v 16.766081 192.994415 41.027046
v -40.655165 192.994415 41.027046
v 16.766081 92.994415 41.027046
v -40.655165 92.994415 41.027046
v 15.797384 93.963112 44.902218
v 16.766081 92.994415 43.933521
v -39.686468 93.963112 44.902222
v -40.655165 92.994415 43.933525
v 15.797384 192.025711 44.902218
v 16.766081 192.994415 43.933521
v -39.686468 192.025711 44.902222
v -40.655165 192.994415 43.933525
vt 0.868541 0.742383
vt 0.759311 0.633153
vt 0.868541 0.660458
vt 0.867483 0.634996
vt 0.786616 0.633153
vt 0.760369 0.634996
vt 0.759311 0.715078
vt 0.867483 0.740540
vt 0.760370 0.740540
vt 0.786616 0.742383
vt 0.868541 0.633153
vt 0.759311 0.742383
vt 0.841236 0.742383
vt 0.841236 0.633153
vt 0.868541 0.715078
vt 0.868541 0.633153
vt 0.759311 0.633153
vt 0.868541 0.742383
vt 0.759311 0.660458
vt 0.759311 0.742383
vn 0.000000 0.000000 -1.000000
vn 0.000000 0.000000 -1.000000
vn 0.000000 0.000000 -1.000000
vn 0.000000 0.000000 -1.000000
vn 0.000000 -0.707104 0.707110
vn 0.000000 -0.707104 0.707110
vn 0.000000 -0.707104 0.707110
vn 0.000000 -0.707104 0.707110
vn 0.707107 0.000000 0.707107
vn 0.707107 0.000000 0.707107
vn 0.707107 0.000000 0.707107
vn 0.707107 0.000000 0.707107
vn -0.707107 0.000000 0.707107
vn -0.707107 0.000000 0.707107
vn -0.707107 0.000000 0.707107
vn -0.707107 0.000000 0.707107
vn 0.000000 0.707102 0.707111
vn 0.000000 0.707102 0.707111
vn 0.000000 0.707102 0.707111
vn 0.000000 0.707102 0.707111
vn 0.000000 0.000000 1.000000
vn 0.000000 0.000000 1.000000
vn 0.000000 0.000000 1.000000
vn 0.000000 0.000000 1.000000
vn 0.000000 1.000000 0.000000
vn 0.000000 1.000000 0.000000
vn 0.000000 1.000000 0.000000
vn 0.000000 1.000000 0.000000
vn 0.000000 -1.000000 0.000000
vn 0.000000 -1.000000 0.000000
vn 0.000000 -1.000000 0.000000
vn 0.000000 -1.000000 0.000000
vn -1.000000 0.000000 0.000000
vn -1.000000 0.000000 0.000000
vn -1.000000 0.000000 0.000000
vn -1.000000 0.000000 0.000000
vn 1.000000 0.000000 0.000000
vn 1.000000 0.000000 0.000000
vn 1.000000 0.000000 0.000000
vn 1.000000 0.000000 0.000000
f 1/11/1 3/2/2 4/12/3 2/1/4
f 5/4/5 7/8/6 8/15/7 6/3/8
f 6/3/9 10/5/10 9/6/11 5/4/12
f 7/8/13 11/9/14 12/7/15 8/15/16
f 10/5/17 12/7/18 11/9/19 9/6/20
f 5/4/21 9/6/22 11/9/23 7/8/24
f 10/5/25 1/11/26 2/1/27 12/10/28
f 3/2/29 6/14/30 8/13/31 4/12/32
f 8/15/33 12/7/34 2/17/35 4/16/36
f 3/18/37 1/20/38 10/19/39 6/3/40
