# This file uses meters as units for non-parametric coordinates.

v 0.794942 13.513507 32.498055
v 0.794942 199.070882 32.498055
v 51.923015 13.513507 32.498049
v 51.923015 199.070882 32.498049
v 0.794942 106.260119 32.498055
v 51.923015 106.260119 32.498049
v 51.492618 13.943905 35.060022
v 51.923015 13.513507 34.629628
v 51.923015 106.260650 34.629628
v 51.492618 106.260119 35.060022
v 1.225335 13.943905 35.060029
v 0.794942 13.513507 34.629635
v 0.794942 106.260650 34.629635
v 1.225335 106.260119 35.060029
v 51.923015 199.070882 34.858808
v 51.492618 198.640491 35.288139
v 1.225335 198.640491 35.288145
v 0.794942 199.070882 34.858815
vt 0.411804 0.821608
vt 0.411804 0.839006
vt 0.411804 0.821608
vt 0.430624 0.821608
vt 0.411891 0.821758
vt 0.411804 0.833989
vt 0.430624 0.821608
vt 0.411804 0.825957
vt 0.411891 0.821608
vt 0.411891 0.838855
vt 0.411804 0.839006
vt 0.411891 0.838855
vt 0.430624 0.821758
vt 0.430624 0.833989
vt 0.411804 0.821608
vt 0.430624 0.839006
vt 0.411804 0.826624
vt 0.411804 0.821608
vt 0.411804 0.821608
vt 0.411804 0.839006
vt 0.411804 0.821608
vt 0.411804 0.839006
vt 0.411804 0.839006
vt 0.411804 0.834657
vt 0.430624 0.821608
vt 0.430624 0.826624
vt 0.411804 0.839006
vt 0.430624 0.838855
vt 0.411891 0.821758
vn -0.000000 0.000000 -1.000000
vn -0.000000 0.000000 -1.000000
vn -0.000000 0.000000 -1.000000
vn -0.000000 0.000000 -1.000000
vn -0.000000 0.000000 -1.000000
vn -0.000000 0.000000 -1.000000
vn 0.707103 -0.000000 0.707110
vn 0.707103 -0.000000 0.707110
vn 0.707105 -0.000821 0.707108
vn 0.707105 -0.000920 0.707108
vn 0.000000 -0.707104 0.707110
vn 0.000000 -0.707104 0.707110
vn 0.000000 -0.707103 0.707110
vn 0.000000 -0.707103 0.707110
vn 0.707105 -0.001746 0.707106
vn 0.707105 -0.001746 0.707106
vn -0.707107 0.000000 0.707106
vn -0.707107 0.000000 0.707106
vn -0.707107 -0.000920 0.707106
vn -0.707107 -0.000821 0.707106
vn -0.707105 -0.001746 0.707106
vn -0.707105 -0.001746 0.707106
vn 0.000000 0.706234 0.707978
vn 0.000000 0.706234 0.707978
vn 0.000000 0.706234 0.707978
vn 0.000000 0.706234 0.707978
vn 0.000000 -0.000000 1.000000
vn 0.000000 -0.001235 0.999999
vn 0.000000 -0.001235 0.999999
vn 0.000000 -0.000000 1.000000
vn -1.000000 0.000000 0.000001
vn -1.000000 0.000000 0.000000
vn -1.000000 0.000000 0.000000
vn -1.000000 0.000000 0.000001
vn 1.000000 -0.000000 0.000000
vn 1.000000 -0.000000 0.000000
vn 1.000000 -0.000000 0.000000
vn 1.000000 -0.000000 0.000000
vn -0.000000 1.000000 0.000000
vn -0.000000 1.000000 0.000000
vn -0.000000 1.000000 0.000000
vn -0.000000 1.000000 0.000000
vn 0.000000 -1.000000 0.000000
vn 0.000000 -1.000000 0.000000
vn 0.000000 -1.000000 0.000000
vn 0.000000 -1.000000 0.000000
vn -1.000000 0.000000 -0.000001
vn -1.000000 0.000000 -0.000001
vn 1.000000 -0.000000 0.000000
vn 1.000000 -0.000000 0.000000
vn 0.000000 -0.002469 0.999997
vn 0.000000 -0.002469 0.999997
f 1/15/1 5/25/2 6/16/3 3/2/4
f 6/16/3 5/25/2 2/1/5 4/27/6
f 7/5/7 8/3/8 9/4/9 10/13/10
f 8/3/11 7/5/12 11/10/13 12/6/14
f 10/7/10 9/26/9 15/8/15 16/9/16
f 12/6/17 11/10/18 14/28/19 13/14/20
f 13/14/20 14/28/19 17/12/21 18/24/22
f 16/29/23 15/18/24 18/11/25 17/12/26
f 7/5/27 10/13/28 14/28/29 11/10/30
f 12/6/31 13/14/32 5/25/33 1/15/34
f 3/2/35 6/16/36 9/26/37 8/17/38
f 15/18/39 4/19/40 2/20/41 18/11/42
f 3/21/43 8/3/44 12/22/45 1/23/46
f 13/14/32 18/24/47 2/1/48 5/25/33
f 9/26/37 6/16/36 4/27/49 15/8/50
f 14/28/29 10/13/28 16/29/51 17/12/52
