# This file uses meters as units for non-parametric coordinates.

v 66.800010 5.732743 -28.462158
v -66.800010 5.732743 -28.462158
v 66.800010 39.593535 -28.462158
v -66.800010 39.593535 -28.462158
v 66.800010 163.929155 -28.462158
v -66.800010 163.929155 -28.462158
v 66.800010 197.789902 -28.462158
v -66.800010 197.789902 -28.462158
v 66.800010 124.380068 -28.462158
v -66.800010 124.380068 -28.462158
v 66.800010 158.240815 -28.462158
v -66.800010 158.240815 -28.462158
v 66.800010 84.830954 -28.462158
v -66.800010 84.830954 -28.462158
v 66.800010 118.691737 -28.462158
v -66.800010 118.691737 -28.462158
v 66.800010 45.281857 -28.462158
v -66.800010 45.281857 -28.462158
v 66.800010 79.142613 -28.462158
v -66.800010 79.142613 -28.462158
v 67.223239 5.309518 38.308733
v 66.800010 5.732743 37.885519
v -67.223239 5.309518 38.308733
v -66.800010 5.732743 37.885519
v 67.223239 40.016723 38.308733
v 66.800010 39.593535 37.885519
v -67.223239 40.016723 38.308733
v -66.800010 39.593535 37.885519
v 67.223239 163.505949 38.308733
v 66.800010 163.929155 37.885519
v -67.223239 163.505949 38.308733
v -66.800010 163.929155 37.885519
v 67.223239 198.213127 38.308733
v 66.800010 197.789902 37.885519
v -67.223239 198.213127 38.308733
v -66.800010 197.789902 37.885519
v 67.223239 123.956843 38.308733
v 66.800010 124.380068 37.885519
v -67.223239 123.956843 38.308733
v -66.800010 124.380068 37.885519
v 67.223239 158.664003 38.308733
v 66.800010 158.240815 37.885519
v -67.223239 158.664003 38.308733
v -66.800010 158.240815 37.885519
v 67.223239 84.407747 38.308733
v 66.800010 84.830954 37.885519
v -67.223239 84.407747 38.308733
v -66.800010 84.830954 37.885519
v 67.223239 119.114962 38.308733
v 66.800010 118.691737 37.885519
v -67.223239 119.114962 38.308733
v -66.800010 118.691737 37.885519
v 67.223239 44.858632 38.308733
v 66.800010 45.281857 37.885519
v -67.223239 44.858632 38.308733
v -66.800010 45.281857 37.885519
v 67.223239 79.565829 38.308733
v 66.800010 79.142613 37.885519
v -67.223239 79.565829 38.308733
v -66.800010 79.142613 37.885519
v 72.172995 0.000000 37.247896
v 71.112179 1.060830 38.308733
v 72.172995 42.437687 37.247896
v 71.112179 42.437687 38.308733
v -72.172995 0.000000 37.247896
v -71.112179 1.060830 38.308733
v 72.172995 203.522644 37.247896
v 71.112179 202.461833 38.308733
v -72.172995 203.522644 37.247896
v -71.112179 202.461833 38.308733
v -72.172995 42.437687 37.247896
v -71.112179 42.437687 38.308733
v 72.172995 161.085022 37.247896
v 71.112179 161.085022 38.308733
v -72.172995 161.085022 37.247896
v -71.112179 161.085022 38.308733
v 72.172995 121.535898 37.247896
v 71.112179 121.535898 38.308733
v -72.172995 121.535898 37.247896
v -71.112179 121.535898 38.308733
v 72.172995 81.986774 37.247896
v 71.112179 81.986774 38.308733
v -72.172995 81.986774 37.247896
v -71.112179 81.986774 38.308733
v -71.112166 1.060830 -38.308733
v -72.172995 0.000000 -37.247905
v 71.112166 1.060830 -38.308733
v 72.172995 0.000000 -37.247905
v -71.112166 202.461815 -38.308733
v -72.172995 203.522644 -37.247905
v 71.112166 202.461815 -38.308733
v 72.172995 203.522644 -37.247905
v -71.112166 42.437687 -38.308733
v -72.172995 42.437687 -37.247905
v 71.112166 42.437687 -38.308733
v 72.172995 42.437687 -37.247905
v -71.112166 161.085022 -38.308733
v -72.172995 161.085022 -37.247905
v 71.112166 161.085022 -38.308733
v 72.172995 161.085022 -37.247905
v -71.112166 121.535898 -38.308733
v -72.172995 121.535898 -37.247905
v 71.112166 121.535898 -38.308733
v 72.172995 121.535898 -37.247905
v -71.112166 81.986774 -38.308733
v -72.172995 81.986774 -37.247905
v 71.112166 81.986774 -38.308733
v 72.172995 81.986774 -37.247905
vt 0.642932 0.760782
vt 0.730155 0.760782
vt 0.730155 0.782889
vt 0.642932 0.782889
vt 0.653337 0.847342
vt 0.724447 0.847342
vt 0.724447 0.865365
vt 0.653337 0.865365
vt 0.642932 0.838243
vt 0.730155 0.838243
vt 0.730155 0.860350
vt 0.642932 0.860350
vt 0.642932 0.812423
vt 0.730155 0.812423
vt 0.730155 0.834529
vt 0.642932 0.834529
vt 0.642932 0.786602
vt 0.730155 0.786602
vt 0.730155 0.808709
vt 0.642932 0.808709
vt 0.724672 0.762916
vt 0.724447 0.763141
vt 0.653337 0.763141
vt 0.653112 0.762916
vt 0.724672 0.781389
vt 0.724447 0.781164
vt 0.653337 0.781164
vt 0.653112 0.781389
vt 0.724672 0.847117
vt 0.724447 0.847342
vt 0.653337 0.847342
vt 0.653112 0.847117
vt 0.724672 0.865590
vt 0.724447 0.865365
vt 0.653337 0.865365
vt 0.653112 0.865590
vt 0.724672 0.826067
vt 0.724447 0.826292
vt 0.653337 0.826292
vt 0.653112 0.826067
vt 0.724672 0.844540
vt 0.724447 0.844315
vt 0.653337 0.844315
vt 0.653112 0.844540
vt 0.724672 0.805017
vt 0.724447 0.805242
vt 0.653337 0.805242
vt 0.653112 0.805017
vt 0.724672 0.823490
vt 0.724447 0.823265
vt 0.653337 0.823265
vt 0.653112 0.823490
vt 0.724672 0.783966
vt 0.724447 0.784192
vt 0.653337 0.784192
vt 0.653112 0.783966
vt 0.724672 0.802439
vt 0.724447 0.802214
vt 0.653337 0.802214
vt 0.653112 0.802439
vt 0.727306 0.760090
vt 0.726742 0.760655
vt 0.651042 0.760655
vt 0.650477 0.760090
vt 0.727306 0.782678
vt 0.726742 0.782678
vt 0.727306 0.803728
vt 0.726742 0.803728
vt 0.651042 0.782678
vt 0.650477 0.782678
vt 0.727306 0.868416
vt 0.726742 0.867852
vt 0.726742 0.845829
vt 0.727306 0.845829
vt 0.650477 0.868416
vt 0.651042 0.867852
vt 0.650477 0.845829
vt 0.651042 0.845829
vt 0.651042 0.803728
vt 0.650477 0.803728
vt 0.726742 0.824778
vt 0.727306 0.824778
vt 0.650477 0.824778
vt 0.651042 0.824778
vt 0.651042 0.760655
vt 0.650477 0.760090
vt 0.650477 0.782678
vt 0.651042 0.782678
vt 0.726742 0.760655
vt 0.727306 0.760090
vt 0.726742 0.782678
vt 0.727306 0.782678
vt 0.651042 0.867852
vt 0.650477 0.868416
vt 0.727306 0.868416
vt 0.726742 0.867852
vt 0.651042 0.845829
vt 0.650477 0.845829
vt 0.727306 0.845829
vt 0.726742 0.845829
vt 0.650477 0.803728
vt 0.651042 0.803728
vt 0.726742 0.803728
vt 0.727306 0.803728
vt 0.651042 0.824778
vt 0.650477 0.824778
vt 0.727306 0.824778
vt 0.726742 0.824778
vt 0.633434 0.760982
vt 0.633434 0.868025
vt 0.740476 0.868025
vt 0.740476 0.760982
vt 0.633434 0.760982
vt 0.633434 0.868025
vt 0.740476 0.868024
vt 0.740476 0.760982
vt 0.633434 0.868025
vt 0.633434 0.760982
vt 0.740476 0.760983
vt 0.740476 0.868025
vt 0.740476 0.760982
vt 0.740476 0.868025
vt 0.633434 0.868025
vt 0.633434 0.760982
vt 0.633434 0.760982
vt 0.633434 0.868025
vt 0.633434 0.760982
vt 0.633434 0.868025
vt 0.740476 0.868025
vt 0.740476 0.868025
vt 0.740476 0.760982
vt 0.740476 0.760982
vt 0.740476 0.760982
vt 0.633433 0.760982
vt 0.633433 0.868024
vt 0.740476 0.868024
vt 0.633433 0.868024
vt 0.740476 0.760982
vt 0.740476 0.868024
vt 0.633433 0.760983
vt 0.633433 0.760982
vt 0.633433 0.760983
vt 0.633433 0.868024
vt 0.740476 0.760982
vt 0.633433 0.868024
vt 0.740476 0.868024
vt 0.740476 0.760982
vt 0.740476 0.868024
vt 0.740476 0.760982
vt 0.633433 0.760982
vt 0.633433 0.868024
vt 0.740476 0.868024
vt 0.740476 0.868024
vt 0.740476 0.760982
vt 0.740476 0.868024
vt 0.633433 0.868024
vt 0.633433 0.760982
vt 0.633433 0.760983
vt 0.633433 0.868024
vt 0.740476 0.760982
vt 0.740476 0.760982
vt 0.633433 0.868024
vt 0.633433 0.760983
vt 0.633433 0.868024
vt 0.740476 0.760982
vt 0.633433 0.760982
vt 0.633433 0.868024
vt 0.740476 0.868024
vt 0.633433 0.760983
vt 0.740476 0.760982
vt 0.740476 0.868024
vt 0.740476 0.868024
vn 0.000000 0.000000 1.000000
vn 0.000000 0.000000 1.000000
vn 0.000000 0.000000 1.000000
vn 0.000000 0.000000 1.000000
vn 0.000000 0.000000 1.000000
vn 0.000000 0.000000 1.000000
vn 0.000000 0.000000 1.000000
vn 0.000000 0.000000 1.000000
vn 0.000000 0.000000 1.000000
vn 0.000000 0.000000 1.000000
vn 0.000000 0.000000 1.000000
vn 0.000000 0.000000 1.000000
vn 0.000000 0.000000 1.000000
vn 0.000000 0.000000 1.000000
vn 0.000000 0.000000 1.000000
vn 0.000000 0.000000 1.000000
vn 0.000000 0.000000 1.000000
vn 0.000000 0.000000 1.000000
vn 0.000000 0.000000 1.000000
vn 0.000000 0.000000 1.000000
vn 0.000000 0.707098 0.707115
vn 0.000000 0.707099 0.707115
vn 0.000000 0.707099 0.707115
vn 0.000000 0.707098 0.707115
vn -0.707096 0.000000 0.707118
vn -0.707096 0.000000 0.707118
vn -0.707096 0.000000 0.707118
vn -0.707096 0.000000 0.707118
vn 0.707096 -0.000000 0.707118
vn 0.707096 -0.000000 0.707118
vn 0.707096 -0.000000 0.707118
vn 0.707096 -0.000000 0.707118
vn -0.000000 -0.707129 0.707084
vn -0.000000 -0.707129 0.707084
vn -0.000000 -0.707129 0.707084
vn -0.000000 -0.707129 0.707084
vn 0.000000 0.707114 0.707100
vn 0.000000 0.707114 0.707100
vn 0.000000 0.707114 0.707100
vn 0.000000 0.707114 0.707100
vn -0.707095 0.000000 0.707118
vn -0.707095 0.000000 0.707118
vn -0.707095 0.000000 0.707118
vn -0.707095 0.000000 0.707118
vn 0.707095 -0.000000 0.707118
vn 0.707095 -0.000000 0.707118
vn 0.707095 -0.000000 0.707118
vn 0.707095 -0.000000 0.707118
vn -0.000000 -0.707099 0.707115
vn -0.000000 -0.707098 0.707115
vn -0.000000 -0.707098 0.707115
vn -0.000000 -0.707099 0.707115
vn 0.000000 0.707098 0.707115
vn 0.000000 0.707099 0.707115
vn 0.000000 0.707099 0.707115
vn 0.000000 0.707098 0.707115
vn -0.707095 0.000000 0.707118
vn -0.707095 0.000000 0.707118
vn -0.707095 0.000000 0.707118
vn -0.707095 0.000000 0.707118
vn 0.707095 -0.000000 0.707118
vn 0.707095 -0.000000 0.707118
vn 0.707095 -0.000000 0.707118
vn 0.707095 -0.000000 0.707118
vn -0.000000 -0.707129 0.707084
vn -0.000000 -0.707129 0.707084
vn -0.000000 -0.707129 0.707084
vn -0.000000 -0.707129 0.707084
vn 0.000000 0.707114 0.707100
vn 0.000000 0.707114 0.707100
vn 0.000000 0.707114 0.707100
vn 0.000000 0.707114 0.707100
vn -0.707096 0.000000 0.707118
vn -0.707096 0.000000 0.707118
vn -0.707096 0.000000 0.707118
vn -0.707096 0.000000 0.707118
vn 0.707096 -0.000000 0.707118
vn 0.707096 -0.000000 0.707118
vn 0.707096 -0.000000 0.707118
vn 0.707096 -0.000000 0.707118
vn -0.000000 -0.707099 0.707115
vn -0.000000 -0.707098 0.707115
vn -0.000000 -0.707098 0.707115
vn -0.000000 -0.707099 0.707115
vn 0.000000 0.707098 0.707115
vn 0.000000 0.707099 0.707115
vn 0.000000 0.707099 0.707115
vn 0.000000 0.707098 0.707115
vn -0.707091 0.000000 0.707122
vn -0.707091 0.000000 0.707122
vn -0.707091 0.000000 0.707122
vn -0.707091 0.000000 0.707122
vn 0.707091 -0.000000 0.707122
vn 0.707091 -0.000000 0.707122
vn 0.707091 -0.000000 0.707122
vn 0.707091 -0.000000 0.707122
vn -0.000000 -0.707106 0.707107
vn -0.000000 -0.707106 0.707107
vn -0.000000 -0.707106 0.707107
vn -0.000000 -0.707106 0.707107
vn 0.000000 1.000000 0.000000
vn 0.000000 1.000000 0.000000
vn 0.000000 1.000000 0.000000
vn 0.000000 1.000000 0.000000
vn -1.000000 0.000000 0.000000
vn -1.000000 0.000000 0.000000
vn -1.000000 0.000000 0.000000
vn -1.000000 0.000000 0.000000
vn -0.000000 -1.000000 0.000000
vn -0.000000 -1.000000 0.000000
vn -0.000000 -1.000000 0.000000
vn -0.000000 -1.000000 0.000000
vn 1.000000 -0.000000 0.000000
vn 1.000000 -0.000000 0.000000
vn 1.000000 -0.000000 0.000000
vn 1.000000 -0.000000 0.000000
vn 0.000000 1.000000 0.000000
vn 0.000000 1.000000 0.000000
vn 0.000000 1.000000 0.000000
vn 0.000000 1.000000 0.000000
vn -1.000000 0.000000 0.000000
vn -1.000000 0.000000 0.000000
vn -1.000000 0.000000 0.000000
vn -1.000000 0.000000 0.000000
vn -0.000000 -1.000000 0.000000
vn -0.000000 -1.000000 0.000000
vn -0.000000 -1.000000 0.000000
vn -0.000000 -1.000000 0.000000
vn 1.000000 -0.000000 0.000000
vn 1.000000 -0.000000 0.000000
vn 1.000000 -0.000000 0.000000
vn 1.000000 -0.000000 0.000000
vn 0.000000 1.000000 0.000000
vn 0.000000 1.000000 0.000000
vn 0.000000 1.000000 0.000000
vn 0.000000 1.000000 0.000000
vn -1.000000 0.000000 0.000000
vn -1.000000 0.000000 0.000000
vn -1.000000 0.000000 0.000000
vn -1.000000 0.000000 0.000000
vn -0.000000 -1.000000 0.000000
vn -0.000000 -1.000000 0.000000
vn -0.000000 -1.000000 0.000000
vn -0.000000 -1.000000 0.000000
vn 1.000000 -0.000000 0.000000
vn 1.000000 -0.000000 0.000000
vn 1.000000 -0.000000 0.000000
vn 1.000000 -0.000000 0.000000
vn 0.000000 1.000000 0.000000
vn 0.000000 1.000000 0.000000
vn 0.000000 1.000000 0.000000
vn 0.000000 1.000000 0.000000
vn -1.000000 0.000000 0.000000
vn -1.000000 0.000000 0.000000
vn -1.000000 0.000000 0.000000
vn -1.000000 0.000000 0.000000
vn -0.000000 -1.000000 0.000000
vn -0.000000 -1.000000 0.000000
vn -0.000000 -1.000000 0.000000
vn -0.000000 -1.000000 0.000000
vn 1.000000 -0.000000 0.000000
vn 1.000000 -0.000000 0.000000
vn 1.000000 -0.000000 0.000000
vn 1.000000 -0.000000 0.000000
vn 0.000000 1.000000 0.000000
vn 0.000000 1.000000 0.000000
vn 0.000000 1.000000 0.000000
vn 0.000000 1.000000 0.000000
vn -1.000000 0.000000 0.000000
vn -1.000000 0.000000 0.000000
vn -1.000000 0.000000 0.000000
vn -1.000000 0.000000 0.000000
vn -0.000000 -1.000000 0.000000
vn -0.000000 -1.000000 0.000000
vn -0.000000 -1.000000 0.000000
vn -0.000000 -1.000000 0.000000
vn 1.000000 -0.000000 0.000000
vn 1.000000 -0.000000 0.000000
vn 1.000000 -0.000000 0.000000
vn 1.000000 -0.000000 0.000000
vn -0.000000 -0.707109 0.707104
vn -0.000000 -0.707109 0.707104
vn -0.000000 -0.707109 0.707104
vn -0.000000 -0.707109 0.707104
vn 0.707114 -0.000000 0.707100
vn 0.707114 -0.000000 0.707100
vn 0.707114 -0.000000 0.707100
vn 0.707114 -0.000000 0.707100
vn 0.707114 -0.000000 0.707100
vn 0.707114 -0.000000 0.707100
vn -0.707114 0.000000 0.707100
vn -0.707114 0.000000 0.707100
vn -0.707114 0.000000 0.707100
vn -0.707114 0.000000 0.707100
vn 0.707113 -0.000000 0.707101
vn 0.707113 -0.000000 0.707101
vn 0.707113 -0.000000 0.707100
vn 0.707113 -0.000000 0.707100
vn 0.000000 0.707115 0.707098
vn 0.000000 0.707115 0.707098
vn 0.000000 0.707115 0.707098
vn 0.000000 0.707115 0.707098
vn -0.707113 0.000000 0.707101
vn -0.707113 0.000000 0.707101
vn -0.707113 0.000000 0.707100
vn -0.707113 0.000000 0.707100
vn -0.707114 0.000000 0.707100
vn -0.707114 0.000000 0.707100
vn 0.707114 -0.000000 0.707100
vn 0.707114 -0.000000 0.707100
vn -0.707114 0.000000 0.707100
vn -0.707114 0.000000 0.707100
vn -0.000000 -0.000000 1.000000
vn -0.000000 -0.000000 1.000000
vn -0.000000 -0.000000 1.000000
vn -0.000000 -0.000000 1.000000
vn 0.000000 0.000000 1.000000
vn 0.000000 0.000001 1.000000
vn 0.000000 0.000000 1.000000
vn 0.000000 0.000001 1.000000
vn 0.000000 0.000000 1.000000
vn 0.000000 0.000000 1.000000
vn -0.000000 -0.000001 1.000000
vn -0.000000 -0.000001 1.000000
vn 0.000000 0.000000 1.000000
vn 0.000000 0.000000 1.000000
vn 0.000000 0.000000 1.000000
vn 0.000000 0.000000 1.000000
vn -0.000000 -0.000000 1.000000
vn -0.000000 -0.000000 1.000000
vn -0.000000 -0.000001 1.000000
vn -0.000000 -0.000001 1.000000
vn 0.000000 0.000001 1.000000
vn 0.000000 0.000001 1.000000
vn -0.000000 -0.000000 1.000000
vn -0.000000 -0.000000 1.000000
vn -0.000000 -0.000001 1.000000
vn -0.000000 -0.000001 1.000000
vn 0.000000 0.000001 1.000000
vn 0.000000 0.000001 1.000000
vn -0.000000 -0.000001 1.000000
vn -0.000000 -0.000001 1.000000
vn 0.000000 0.000001 1.000000
vn 0.000000 0.000001 1.000000
vn -0.707106 0.000000 -0.707107
vn -0.707106 0.000000 -0.707107
vn -0.707106 0.000000 -0.707107
vn -0.707106 0.000000 -0.707107
vn -0.000000 -0.707105 -0.707108
vn -0.000000 -0.707105 -0.707108
vn -0.000000 -0.707105 -0.707108
vn -0.000000 -0.707105 -0.707108
vn 0.707108 -0.000000 -0.707106
vn 0.707108 -0.000000 -0.707106
vn 0.707107 -0.000000 -0.707107
vn 0.707107 -0.000000 -0.707107
vn 0.000000 0.707105 -0.707108
vn 0.000000 0.707105 -0.707108
vn 0.000000 0.707105 -0.707108
vn 0.000000 0.707105 -0.707108
vn -0.707107 0.000000 -0.707107
vn -0.707107 0.000000 -0.707106
vn -0.707107 0.000000 -0.707107
vn -0.707107 0.000000 -0.707107
vn 0.707106 -0.000000 -0.707108
vn 0.707106 -0.000000 -0.707108
vn 0.707106 -0.000000 -0.707108
vn 0.707106 -0.000000 -0.707108
vn -0.707106 0.000000 -0.707107
vn -0.707106 0.000000 -0.707107
vn 0.707106 -0.000000 -0.707107
vn 0.707106 -0.000000 -0.707107
vn -0.707106 0.000000 -0.707107
vn -0.707106 0.000000 -0.707107
vn 0.707106 -0.000000 -0.707107
vn 0.707106 -0.000000 -0.707107
vn 0.000000 0.000000 -1.000000
vn 0.000000 0.000000 -1.000000
vn 0.000000 0.000000 -1.000000
vn 0.000000 0.000000 -1.000000
vn 0.000000 0.000000 -1.000000
vn 0.000000 0.000000 -1.000000
vn 0.000000 0.000000 -1.000000
vn 0.000000 0.000000 -1.000000
vn 0.000000 0.000000 -1.000000
vn 0.000000 0.000000 -1.000000
vn 0.000000 0.000000 -1.000000
vn 0.000000 0.000000 -1.000000
vn -1.000000 0.000000 0.000000
vn -1.000000 0.000000 0.000000
vn -1.000000 0.000000 0.000000
vn -1.000000 0.000000 0.000000
vn 1.000000 -0.000000 0.000000
vn 1.000000 -0.000000 0.000000
vn 1.000000 -0.000000 0.000000
vn 1.000000 -0.000000 0.000000
vn 0.000000 1.000000 0.000000
vn 0.000000 1.000000 0.000000
vn 0.000000 1.000000 0.000000
vn 0.000000 1.000000 0.000000
vn -0.000000 -1.000000 0.000000
vn -0.000000 -1.000000 0.000000
vn -0.000000 -1.000000 0.000000
vn -0.000000 -1.000000 0.000000
vn -1.000000 0.000000 0.000000
vn -1.000000 0.000000 0.000000
vn -1.000000 0.000000 0.000000
vn -1.000000 0.000000 0.000000
vn 1.000000 -0.000000 0.000000
vn 1.000000 -0.000000 0.000000
vn 1.000000 -0.000000 0.000000
vn 1.000000 -0.000000 0.000000
vn -1.000000 0.000000 0.000000
vn -1.000000 0.000000 0.000000
vn 1.000000 -0.000000 0.000000
vn 1.000000 -0.000000 0.000000
vn -1.000000 0.000000 0.000000
vn -1.000000 0.000000 0.000000
vn 1.000000 -0.000000 0.000000
vn 1.000000 -0.000000 0.000000
f 2/1/1 1/2/2 3/3/3 4/4/4
f 6/5/5 5/6/6 7/7/7 8/8/8
f 10/9/9 9/10/10 11/11/11 12/12/12
f 14/13/13 13/14/14 15/15/15 16/16/16
f 18/17/17 17/18/18 19/19/19 20/20/20
f 21/21/21 22/22/22 24/23/23 23/24/24
f 22/22/25 21/21/26 25/25/27 26/26/28
f 23/24/29 24/23/30 28/27/31 27/28/32
f 26/26/33 25/25/34 27/28/35 28/27/36
f 29/29/37 30/30/38 32/31/39 31/32/40
f 30/30/41 29/29/42 33/33/43 34/34/44
f 31/32/45 32/31/46 36/35/47 35/36/48
f 34/34/49 33/33/50 35/36/51 36/35/52
f 37/37/53 38/38/54 40/39/55 39/40/56
f 38/38/57 37/37/58 41/41/59 42/42/60
f 39/40/61 40/39/62 44/43/63 43/44/64
f 42/42/65 41/41/66 43/44/67 44/43/68
f 45/45/69 46/46/70 48/47/71 47/48/72
f 46/46/73 45/45/74 49/49/75 50/50/76
f 47/48/77 48/47/78 52/51/79 51/52/80
f 50/50/81 49/49/82 51/52/83 52/51/84
f 53/53/85 54/54/86 56/55/87 55/56/88
f 54/54/89 53/53/90 57/57/91 58/58/92
f 55/56/93 56/55/94 60/59/95 59/60/96
f 58/58/97 57/57/98 59/60/99 60/59/100
f 24/133/101 22/134/102 1/135/103 2/136/104
f 22/134/105 26/138/106 3/139/107 1/135/108
f 26/138/109 28/142/110 4/143/111 3/139/112
f 28/142/113 24/133/114 2/136/115 4/143/116
f 32/149/117 30/150/118 5/151/119 6/152/120
f 30/150/121 34/154/122 7/155/123 5/151/124
f 34/154/125 36/158/126 8/159/127 7/155/128
f 36/158/129 32/149/130 6/152/131 8/159/132
f 40/165/133 38/166/134 9/167/135 10/168/136
f 38/166/137 42/170/138 11/171/139 9/167/140
f 42/170/141 44/169/142 12/164/143 11/171/144
f 44/169/145 40/165/146 10/168/147 12/164/148
f 48/144/149 46/141/150 13/145/151 14/148/152
f 46/141/153 50/161/154 15/172/155 13/145/156
f 50/161/157 52/163/158 16/162/159 15/172/160
f 52/163/161 48/144/162 14/148/163 16/162/164
f 56/160/165 54/157/166 17/156/167 18/153/168
f 54/157/169 58/147/170 19/146/171 17/156/172
f 58/147/173 60/140/174 20/137/175 19/146/176
f 60/140/177 56/160/178 18/153/179 20/137/180
f 61/61/181 62/62/182 66/63/183 65/64/184
f 62/62/185 61/61/186 63/65/187 64/66/188
f 64/66/188 63/65/187 81/67/189 82/68/190
f 65/64/191 66/63/192 72/69/193 71/70/194
f 67/71/195 68/72/196 74/73/197 73/74/198
f 68/72/199 67/71/200 69/75/201 70/76/202
f 70/76/203 69/75/204 75/77/205 76/78/206
f 71/70/194 72/69/193 84/79/207 83/80/208
f 73/74/198 74/73/197 78/81/209 77/82/210
f 76/78/206 75/77/205 79/83/211 80/84/212
f 77/82/210 78/81/209 82/68/190 81/67/189
f 80/84/212 79/83/211 83/80/208 84/79/207
f 66/63/213 62/62/214 21/21/215 23/24/216
f 62/62/214 64/66/217 25/25/218 21/21/215
f 64/66/217 72/69/219 27/28/220 25/25/218
f 72/69/219 66/63/213 23/24/216 27/28/220
f 76/78/221 74/73/222 29/29/223 31/32/224
f 74/73/222 68/72/225 33/33/226 29/29/223
f 68/72/225 70/76/227 35/36/228 33/33/226
f 70/76/227 76/78/221 31/32/224 35/36/228
f 80/84/229 78/81/230 37/37/231 39/40/232
f 78/81/230 74/73/222 41/41/233 37/37/231
f 74/73/222 76/78/221 43/44/234 41/41/233
f 76/78/221 80/84/229 39/40/232 43/44/234
f 84/79/235 82/68/236 45/45/237 47/48/238
f 82/68/236 78/81/230 49/49/239 45/45/237
f 78/81/230 80/84/229 51/52/240 49/49/239
f 80/84/229 84/79/235 47/48/238 51/52/240
f 72/69/219 64/66/217 53/53/241 55/56/242
f 64/66/217 82/68/236 57/57/243 53/53/241
f 82/68/236 84/79/235 59/60/244 57/57/243
f 84/79/235 72/69/219 55/56/242 59/60/244
f 85/85/245 86/86/246 94/87/247 93/88/248
f 86/86/249 85/85/250 87/89/251 88/90/252
f 88/90/253 87/89/254 95/91/255 96/92/256
f 89/93/257 90/94/258 92/95/259 91/96/260
f 90/94/261 89/93/262 97/97/263 98/98/264
f 91/96/265 92/95/266 100/99/267 99/100/268
f 93/88/248 94/87/247 106/101/269 105/102/270
f 96/92/256 95/91/255 107/103/271 108/104/272
f 98/98/264 97/97/263 101/105/273 102/106/274
f 99/100/268 100/99/267 104/107/275 103/108/276
f 102/106/274 101/105/273 105/102/270 106/101/269
f 103/108/276 104/107/275 108/104/272 107/103/271
f 87/89/277 85/85/278 93/88/279 95/91/280
f 99/100/281 97/97/282 89/93/283 91/96/284
f 103/108/285 101/105/286 97/97/282 99/100/281
f 107/103/287 105/102/288 101/105/286 103/108/285
f 95/91/280 93/88/279 105/102/288 107/103/287
f 86/109/289 65/110/290 71/111/291 94/112/292
f 96/113/293 63/114/294 61/115/295 88/116/296
f 67/117/297 92/118/298 90/119/299 69/120/300
f 88/116/301 61/115/302 65/110/303 86/109/304
f 98/125/305 75/126/306 69/120/307 90/119/308
f 67/117/309 73/130/310 100/131/311 92/118/312
f 102/132/313 79/129/314 75/126/306 98/125/305
f 100/131/311 73/130/310 77/128/315 104/127/316
f 106/124/317 83/123/318 79/129/314 102/132/313
f 104/127/316 77/128/315 81/122/319 108/121/320
f 94/112/292 71/111/291 83/123/318 106/124/317
f 108/121/320 81/122/319 63/114/294 96/113/293
