# This file uses meters as units for non-parametric coordinates.

v 51.985920 190.948816 45.290817
v 50.458202 190.948816 45.290817
v 51.985920 192.476526 45.290817
v 50.458202 192.476526 45.290817
v 51.985920 192.476526 44.480309
v 50.458202 192.476526 44.480309
v 51.985920 190.948816 44.480309
v 50.458202 190.948816 44.480309
v 48.484901 193.292963 46.333454
v 49.641762 194.449823 46.333454
v 51.222061 194.873270 46.333454
v 52.802361 194.449823 46.333454
v 53.959221 193.292963 46.333454
v 54.382660 191.712671 46.333454
v 53.959221 190.132364 46.333454
v 52.802361 188.975519 46.333454
v 51.222061 188.552072 46.333454
v 49.641762 188.975519 46.333454
v 48.484901 190.132364 46.333454
v 48.061462 191.712671 46.333454
v 49.286598 192.830118 47.133492
v 50.104622 193.648126 47.133492
v 51.222061 193.947550 47.133492
v 52.339500 193.648126 47.133492
v 53.157524 192.830118 47.133492
v 53.456944 191.712671 47.133492
v 53.157524 190.595224 47.133492
v 52.339500 189.777201 47.133492
v 51.222061 189.477793 47.133492
v 50.104622 189.777201 47.133492
v 49.286598 190.595224 47.133492
v 48.987179 191.712671 47.133492
v 50.220192 192.291101 47.636421
v 50.643631 192.714548 47.636421
v 51.222061 192.869532 47.636421
v 51.800491 192.714548 47.636421
v 52.223930 192.291101 47.636421
v 52.378922 191.712671 47.636421
v 52.223930 191.134226 47.636421
v 51.800491 190.710794 47.636421
v 51.222061 190.555811 47.636421
v 50.643631 190.710794 47.636421
v 50.220192 191.134226 47.636421
v 50.065201 191.712671 47.636421
v 51.222061 191.712671 47.807957
v 48.126316 193.370401 45.447197
v 48.176216 193.318735 45.290821
v 49.348633 194.589594 45.453556
v 49.350285 194.492807 45.290821
v 51.222061 195.019571 45.465767
v 51.222061 194.925928 45.290821
v 53.095490 194.589594 45.453556
v 53.093838 194.492807 45.290821
v 54.317806 193.370401 45.447197
v 54.267906 193.318735 45.290821
v 54.698250 191.712671 45.290821
v 54.761993 191.712671 45.447197
v 54.317806 190.054926 45.447197
v 54.267906 190.106607 45.290821
v 53.095490 188.835749 45.453556
v 53.093838 188.932520 45.290821
v 51.222061 188.405771 45.465767
v 51.222061 188.499414 45.290821
v 49.348633 188.835749 45.453556
v 49.350285 188.932520 45.290821
v 48.176216 190.106607 45.290821
v 48.126316 190.054926 45.447197
v 47.682129 191.712671 45.447197
v 47.745872 191.712671 45.290821
vt 0.884989 0.616543
vt 0.884989 0.513225
vt 0.988307 0.513225
vt 0.988307 0.616543
vt 0.884989 0.616543
vt 0.884989 0.513225
vt 0.988307 0.513225
vt 0.988307 0.616543
vt 0.988307 0.513225
vt 0.884989 0.616543
vt 0.884989 0.513225
vt 0.988307 0.513225
vt 0.988307 0.616543
vt 0.884989 0.513225
vt 0.885069 0.549057
vt 0.885069 0.566414
vt 0.902426 0.566414
vt 0.902426 0.549057
vt 0.919782 0.566414
vt 0.919782 0.549057
vt 0.937138 0.566414
vt 0.937138 0.549057
vt 0.954495 0.566414
vt 0.954495 0.549057
vt 0.971851 0.566414
vt 0.971851 0.549057
vt 0.989208 0.566414
vt 0.989208 0.549057
vt 0.971677 0.566414
vt 0.971677 0.549057
vt 0.954146 0.566414
vt 0.954146 0.549057
vt 0.936615 0.566414
vt 0.936615 0.549057
vt 0.919084 0.566414
vt 0.919084 0.549057
vt 0.901553 0.566414
vt 0.901553 0.549057
vt 0.884022 0.566414
vt 0.884022 0.549057
vt 0.885069 0.583770
vt 0.902426 0.583770
vt 0.919782 0.583770
vt 0.937138 0.583770
vt 0.954495 0.583770
vt 0.971851 0.583770
vt 0.989208 0.583770
vt 0.971677 0.583770
vt 0.954146 0.583770
vt 0.936615 0.583770
vt 0.919084 0.583770
vt 0.901553 0.583770
vt 0.884022 0.583770
vt 0.893748 0.601127
vt 0.911104 0.601127
vt 0.928461 0.601127
vt 0.945817 0.601127
vt 0.963174 0.601127
vt 0.980530 0.601127
vt 0.980442 0.601127
vt 0.962911 0.601127
vt 0.945381 0.601127
vt 0.927849 0.601127
vt 0.910318 0.601127
vt 0.892788 0.601127
vt 0.885069 0.534304
vt 0.902426 0.534493
vt 0.903662 0.531701
vt 0.885300 0.532505
vt 0.886778 0.531701
vt 0.901804 0.531701
vt 0.901553 0.534304
vt 0.884022 0.534304
vt 0.919796 0.534631
vt 0.920448 0.531701
vt 0.937138 0.534493
vt 0.937810 0.531701
vt 0.954495 0.534304
vt 0.954743 0.531701
vt 0.971851 0.534304
vt 0.971851 0.531701
vt 0.989208 0.534304
vt 0.987059 0.531701
vt 0.971677 0.534493
vt 0.970434 0.531701
vt 0.954131 0.534631
vt 0.953480 0.531701
vt 0.936615 0.534493
vt 0.936427 0.531701
vt 0.919084 0.534304
vt 0.919084 0.531701
vn 0.000000 1.000000 0.000000
vn 0.000000 1.000000 0.000000
vn 0.000000 1.000000 0.000000
vn 0.000000 1.000000 0.000000
vn 0.000000 -1.000000 0.000000
vn 0.000000 -1.000000 0.000000
vn 0.000000 -1.000000 0.000000
vn 0.000000 -1.000000 0.000000
vn -1.000000 0.000000 0.000000
vn -1.000000 0.000000 0.000000
vn -1.000000 0.000000 0.000000
vn -1.000000 0.000000 0.000000
vn 1.000000 0.000000 0.000000
vn 1.000000 0.000000 0.000000
vn 1.000000 0.000000 0.000000
vn 1.000000 0.000000 0.000000
vn -0.709870 0.420534 0.565009
vn -0.507275 0.292878 0.810490
vn -0.292875 0.507277 0.810491
vn -0.404810 0.751929 0.520319
vn 0.000000 0.585751 0.810491
vn -0.000000 0.870430 0.492293
vn 0.292876 0.507278 0.810489
vn 0.404811 0.751931 0.520316
vn 0.507277 0.292879 0.810489
vn 0.709873 0.420535 0.565005
vn 0.585754 0.000000 0.810489
vn 0.816776 0.000000 0.576955
vn 0.507281 -0.292878 0.810487
vn 0.709872 -0.420534 0.565008
vn 0.292876 -0.507282 0.810487
vn 0.404809 -0.751930 0.520318
vn -0.000000 -0.585754 0.810489
vn -0.000000 -0.870431 0.492290
vn -0.292877 -0.507281 0.810487
vn -0.404809 -0.751931 0.520317
vn -0.507282 -0.292878 0.810486
vn -0.709872 -0.420535 0.565007
vn -0.585755 -0.000000 0.810488
vn -0.816776 -0.000000 0.576955
vn -0.321445 0.185587 0.928564
vn -0.185585 0.321447 0.928563
vn 0.000001 0.371174 0.928563
vn 0.185585 0.321447 0.928564
vn 0.321443 0.185586 0.928564
vn 0.371178 -0.000000 0.928562
vn 0.321450 -0.185589 0.928562
vn 0.185583 -0.321446 0.928564
vn -0.000001 -0.371172 0.928564
vn -0.185584 -0.321446 0.928564
vn -0.321451 -0.185589 0.928561
vn -0.371180 0.000000 0.928561
vn 0.000000 0.000001 1.000000
vn -0.782537 0.477662 -0.399343
vn -0.369834 0.802460 -0.468275
vn -0.440306 0.772533 -0.457519
vn -0.801497 0.447620 -0.396534
vn -0.926031 -0.000001 -0.377446
vn -0.926031 -0.000001 -0.377446
vn 0.000001 0.870626 -0.491945
vn 0.000001 0.870626 -0.491945
vn 0.369835 0.802466 -0.468263
vn 0.440307 0.772538 -0.457510
vn 0.782537 0.477662 -0.399343
vn 0.801497 0.447621 -0.396534
vn 0.926032 -0.000000 -0.377446
vn 0.926032 -0.000000 -0.377446
vn 0.782520 -0.477668 -0.399369
vn 0.801492 -0.447608 -0.396558
vn 0.369827 -0.802451 -0.468296
vn 0.440289 -0.772528 -0.457543
vn 0.000002 -0.870604 -0.491985
vn 0.000002 -0.870604 -0.491985
vn -0.369824 -0.802442 -0.468313
vn -0.440287 -0.772522 -0.457555
vn -0.782520 -0.477670 -0.399366
vn -0.801492 -0.447610 -0.396555
vn -0.814653 0.447637 0.368728
vn -0.497804 0.820616 0.280679
vn -0.000000 0.979577 0.201069
vn 0.497805 0.820617 0.280675
vn 0.814655 0.447638 0.368725
vn 0.919330 0.000000 0.393486
vn 0.814653 -0.447636 0.368732
vn 0.497799 -0.820616 0.280686
vn -0.000000 -0.979577 0.201069
vn -0.497799 -0.820617 0.280686
vn -0.814652 -0.447637 0.368732
vn -0.919331 -0.000000 0.393486
vn 0.000000 0.000000 -1.000000
vn 0.000000 0.000000 -1.000000
vn -0.000004 0.000000 -1.000000
vn 0.000001 0.000000 -1.000000
vn 0.000001 0.000000 -1.000000
vn 0.000000 0.000000 -1.000000
vn 0.000000 0.000000 -1.000000
vn 0.000001 0.000000 -1.000000
vn -0.000000 0.000000 -1.000000
vn -0.000000 0.000000 -1.000000
vn -0.000002 0.000000 -1.000000
vn 0.000000 0.000000 -1.000000
f 3/1/1 5/2/2 6/3/3 4/4/4
f 7/5/5 1/6/6 2/7/7 8/8/8
f 2/9/9 4/4/10 6/10/11 8/11/12
f 7/12/13 5/13/14 3/1/15 1/14/16
f 9/15/17 21/16/18 22/17/19 10/18/20
f 10/18/20 22/17/19 23/19/21 11/20/22
f 11/20/22 23/19/21 24/21/23 12/22/24
f 12/22/24 24/21/23 25/23/25 13/24/26
f 13/24/26 25/23/25 26/25/27 14/26/28
f 14/26/28 26/25/27 27/27/29 15/28/30
f 15/28/30 27/27/29 28/29/31 16/30/32
f 16/30/32 28/29/31 29/31/33 17/32/34
f 17/32/34 29/31/33 30/33/35 18/34/36
f 18/34/36 30/33/35 31/35/37 19/36/38
f 19/36/38 31/35/37 32/37/39 20/38/40
f 20/38/40 32/37/39 21/39/18 9/40/17
f 21/16/18 33/41/41 34/42/42 22/17/19
f 22/17/19 34/42/42 35/43/43 23/19/21
f 23/19/21 35/43/43 36/44/44 24/21/23
f 24/21/23 36/44/44 37/45/45 25/23/25
f 25/23/25 37/45/45 38/46/46 26/25/27
f 26/25/27 38/46/46 39/47/47 27/27/29
f 27/27/29 39/47/47 40/48/48 28/29/31
f 28/29/31 40/48/48 41/49/49 29/31/33
f 29/31/33 41/49/49 42/50/50 30/33/35
f 30/33/35 42/50/50 43/51/51 31/35/37
f 31/35/37 43/51/51 44/52/52 32/37/39
f 32/37/39 44/52/52 33/53/41 21/39/18
f 33/41/41 45/54/53 34/42/42
f 34/42/42 45/55/53 35/43/43
f 35/43/43 45/56/53 36/44/44
f 36/44/44 45/57/53 37/45/45
f 37/45/45 45/58/53 38/46/46
f 38/46/46 45/59/53 39/47/47
f 39/47/47 45/60/53 40/48/48
f 40/48/48 45/61/53 41/49/49
f 41/49/49 45/62/53 42/50/50
f 42/50/50 45/63/53 43/51/51
f 43/51/51 45/64/53 44/52/52
f 44/52/52 45/65/53 33/53/41
f 46/66/54 48/67/55 49/68/56 47/69/57
f 47/70/57 69/71/58 68/72/59 46/73/54
f 48/67/55 50/74/60 51/75/61 49/68/56
f 50/74/60 52/76/62 53/77/63 51/75/61
f 52/76/62 54/78/64 55/79/65 53/77/63
f 54/78/64 57/80/66 56/81/67 55/79/65
f 57/80/66 58/82/68 59/83/69 56/81/67
f 58/82/68 60/84/70 61/85/71 59/83/69
f 60/84/70 62/86/72 63/87/73 61/85/71
f 62/86/72 64/88/74 65/89/75 63/87/73
f 64/88/74 67/90/76 66/91/77 65/89/75
f 67/90/76 68/72/59 69/71/58 66/91/77
f 46/66/78 9/15/17 10/18/20 48/67/79
f 48/67/79 10/18/20 11/20/22 50/74/80
f 50/74/80 11/20/22 12/22/24 52/76/81
f 52/76/81 12/22/24 13/24/26 54/78/82
f 54/78/82 13/24/26 14/26/28 57/80/83
f 57/80/83 14/26/28 15/28/30 58/82/84
f 58/82/84 15/28/30 16/30/32 60/84/85
f 60/84/85 16/30/32 17/32/34 62/86/86
f 62/86/86 17/32/34 18/34/36 64/88/87
f 64/88/87 18/34/36 19/36/38 67/90/88
f 67/90/88 19/36/38 20/38/40 68/72/89
f 68/72/89 20/38/40 9/40/17 46/73/78
f 56/81/90 59/83/91 55/79/92
f 55/79/92 59/83/91 53/77/93
f 53/77/93 59/83/91 51/75/94
f 59/83/91 61/85/95 51/75/94
f 61/85/95 63/87/96 51/75/94
f 51/75/94 63/87/96 49/68/97
f 63/87/96 65/89/98 49/68/97
f 49/68/97 65/89/98 47/70/99
f 47/70/99 65/89/98 69/71/100
f 69/71/100 65/89/98 66/91/101
