# This file uses meters as units for non-parametric coordinates.

v -45.310802 189.956238 47.157242
v -45.647438 189.664444 46.820606
v -41.903843 189.664444 46.820606
v -42.018341 189.956238 47.157242
v -45.310802 193.469009 47.157242
v -45.647438 193.760788 46.820606
v -41.903843 193.760788 46.820606
v -42.018341 193.469009 47.157242
v -45.647438 193.760788 45.249416
v -45.310802 193.469009 44.912777
v -42.132839 193.760788 45.249416
v -42.018341 193.469009 44.912777
v -45.310802 189.956238 44.912777
v -45.647438 189.664444 45.249416
v -42.018341 189.956238 44.912777
v -42.132839 189.664444 45.249416
v -23.872862 189.664444 46.820606
v -24.209497 189.956238 47.157242
v -24.209499 193.469009 47.157242
v -23.872864 193.760788 46.820606
v -23.872864 193.760788 45.249416
v -24.209499 193.469009 44.912777
v -24.209497 189.956238 44.912777
v -23.872862 189.664444 45.249416
v -30.284454 193.469009 49.607708
v -30.425247 193.760788 49.271072
v -27.616457 193.760788 46.820606
v -27.501959 193.469009 47.157242
v -31.016560 193.760788 48.041046
v -31.131058 193.469009 47.704418
v -27.387461 193.760788 45.249416
v -27.501959 193.469009 44.912777
v -31.131058 189.956238 47.704418
v -31.016560 189.664444 48.041046
v -27.501957 189.956238 44.912777
v -27.387459 189.664444 45.249416
v -30.425247 189.664444 49.271072
v -30.284454 189.956238 49.607708
v -27.616455 189.664444 46.820606
v -27.501957 189.956238 47.157242
v -39.209557 193.469009 49.607708
v -39.068764 193.760788 49.271072
v -38.503746 193.760788 48.041046
v -38.389248 193.469009 47.704418
v -38.389248 189.956238 47.704418
v -39.350349 189.664444 47.699883
v -39.068764 189.664444 49.271072
v -39.209557 189.956238 49.607708
v -34.747005 193.760788 49.911747
v -34.747005 193.469009 50.248383
v -34.747005 189.956238 50.248383
v -34.747005 189.664444 49.911747
v -35.183453 189.664444 48.511139
v -34.760151 189.956238 48.345089
v -34.760151 193.469009 48.345089
v -34.760151 193.760788 48.681721
v 45.310806 189.956238 47.157242
v 45.647438 189.664444 46.820602
v 41.903847 189.664444 46.820602
v 42.018341 189.956238 47.157242
v 45.310806 193.469009 47.157242
v 45.647438 193.760788 46.820602
v 41.903847 193.760788 46.820602
v 42.018341 193.469009 47.157242
v 45.647438 193.760788 45.249413
v 45.310806 193.469009 44.912781
v 42.132843 193.760788 45.249413
v 42.018341 193.469009 44.912781
v 45.310806 189.956238 44.912781
v 45.647438 189.664444 45.249413
v 42.018341 189.956238 44.912781
v 42.132843 189.664444 45.249413
v 23.872864 189.664444 46.820602
v 24.209499 189.956238 47.157242
v 24.209501 193.469009 47.157242
v 23.872866 193.760788 46.820602
v 23.872866 193.760788 45.249413
v 24.209501 193.469009 44.912781
v 24.209499 189.956238 44.912781
v 23.872864 189.664444 45.249413
v 30.284456 193.469009 49.607712
v 30.425249 193.760788 49.271072
v 27.616459 193.760788 46.820602
v 27.501961 193.469009 47.157242
v 31.016562 193.760788 48.041046
v 31.131058 193.469009 47.704414
v 27.387463 193.760788 45.249413
v 27.501961 193.469009 44.912781
v 31.131058 189.956238 47.704414
v 31.016562 189.664444 48.041046
v 27.501959 189.956238 44.912781
v 27.387461 189.664444 45.249413
v 30.425249 189.664444 49.271072
v 30.284456 189.956238 49.607712
v 27.616457 189.664444 46.820602
v 27.501959 189.956238 47.157242
v 39.209557 193.469009 49.607712
v 39.068764 193.760788 49.271072
v 38.503746 193.760788 48.041046
v 38.389248 193.469009 47.704414
v 38.389248 189.956238 47.704414
v 39.350349 189.664444 47.699883
v 39.068764 189.664444 49.271072
v 39.209557 189.956238 49.607712
v 34.747009 193.760788 49.911743
v 34.747009 193.469009 50.248383
v 34.747009 189.956238 50.248383
v 34.747009 189.664444 49.911743
v 35.183456 189.664444 48.511135
v 34.760155 189.956238 48.345085
v 34.760155 193.469009 48.345085
v 34.760155 193.760788 48.681713
vt 0.381999 0.949349
vt 0.381756 0.948564
vt 0.384428 0.948573
vt 0.384349 0.949357
vt 0.381999 0.959737
vt 0.381756 0.960679
vt 0.386470 0.948005
vt 0.386372 0.948788
vt 0.384349 0.959746
vt 0.384428 0.960688
vt 0.386372 0.959177
vt 0.386470 0.960120
vt 0.381745 0.961047
vt 0.381982 0.960264
vt 0.381982 0.949875
vt 0.381745 0.948933
vt 0.384253 0.961056
vt 0.384332 0.960272
vt 0.386864 0.960410
vt 0.386943 0.959626
vt 0.384332 0.949884
vt 0.384253 0.948941
vt 0.386943 0.949237
vt 0.386257 0.948373
vt 0.397298 0.948617
vt 0.397060 0.949400
vt 0.394710 0.949392
vt 0.394626 0.948608
vt 0.397298 0.960732
vt 0.397060 0.959789
vt 0.394626 0.960723
vt 0.394710 0.959781
vt 0.397286 0.961101
vt 0.397043 0.960316
vt 0.394693 0.960308
vt 0.394777 0.961092
vt 0.397286 0.948986
vt 0.397043 0.949927
vt 0.394777 0.948978
vt 0.394693 0.949919
vt 0.392742 0.959199
vt 0.392639 0.960141
vt 0.389559 0.959980
vt 0.389562 0.959038
vt 0.392208 0.960428
vt 0.392124 0.959644
vt 0.389538 0.959485
vt 0.389541 0.960268
vt 0.392124 0.949255
vt 0.392208 0.948313
vt 0.389238 0.948193
vt 0.389538 0.949096
vt 0.392639 0.948026
vt 0.392742 0.948810
vt 0.389562 0.948649
vt 0.389559 0.947865
vt 0.396768 0.950069
vt 0.394418 0.950061
vt 0.394334 0.949277
vt 0.397006 0.949286
vt 0.397006 0.961401
vt 0.396768 0.960458
vt 0.392432 0.949479
vt 0.392329 0.948694
vt 0.394334 0.961391
vt 0.394418 0.960450
vt 0.392329 0.960809
vt 0.392432 0.959867
vt 0.396994 0.961769
vt 0.396994 0.949655
vt 0.396752 0.950596
vt 0.396752 0.960985
vt 0.394402 0.960976
vt 0.394486 0.961761
vt 0.391832 0.960312
vt 0.391917 0.961096
vt 0.394486 0.949646
vt 0.394402 0.950588
vt 0.392518 0.949064
vt 0.391832 0.949923
vt 0.381465 0.949232
vt 0.384137 0.949241
vt 0.384058 0.950025
vt 0.381708 0.950017
vt 0.381708 0.960406
vt 0.381465 0.961347
vt 0.384058 0.960414
vt 0.384137 0.961356
vt 0.381453 0.961716
vt 0.383962 0.961724
vt 0.384041 0.960941
vt 0.381691 0.960933
vt 0.381691 0.950544
vt 0.381453 0.949601
vt 0.384041 0.950552
vt 0.383962 0.949610
vt 0.386062 0.959845
vt 0.389252 0.959706
vt 0.389249 0.960648
vt 0.386160 0.960788
vt 0.386573 0.961078
vt 0.389249 0.960937
vt 0.389247 0.960153
vt 0.386652 0.960294
vt 0.386652 0.949906
vt 0.389247 0.949764
vt 0.389550 0.948863
vt 0.386573 0.948963
vt 0.386160 0.948673
vt 0.389249 0.948533
vt 0.389252 0.949317
vt 0.386062 0.949457
vn 0.000000 -0.755657 0.654967
vn 0.000000 -0.755657 0.654968
vn -0.223370 -0.776886 0.588689
vn -0.229760 -0.776866 0.586250
vn -0.707105 0.000000 0.707109
vn -0.707105 0.000000 0.707109
vn -0.707105 0.000000 0.707109
vn -0.707105 0.000000 0.707109
vn -0.252548 -0.772550 0.582568
vn -0.246809 -0.772554 0.585017
vn 0.000000 0.755657 0.654967
vn 0.000000 0.755657 0.654967
vn -0.229757 0.776886 0.586225
vn -0.223367 0.776905 0.588664
vn -0.246804 0.772579 0.584986
vn -0.252543 0.772576 0.582536
vn -0.707109 0.000000 -0.707105
vn -0.707109 0.000000 -0.707105
vn -0.707109 0.000000 -0.707105
vn -0.707109 0.000000 -0.707105
vn 0.000000 0.755673 -0.654949
vn 0.000000 0.755673 -0.654949
vn 0.234219 0.772661 -0.590032
vn 0.234218 0.772661 -0.590032
vn 0.265753 0.767231 -0.583722
vn 0.277951 0.766888 -0.578469
vn 0.000000 -0.755633 -0.654995
vn 0.000000 -0.755633 -0.654995
vn 0.205596 -0.830029 -0.518442
vn 0.207776 -0.830540 -0.516752
vn 0.208701 -0.674122 -0.708522
vn 0.322278 -0.834864 -0.446250
vn 0.000000 -0.755657 0.654968
vn 0.000000 -0.755657 0.654968
vn 0.230806 -0.776855 0.585854
vn 0.223867 -0.776880 0.588507
vn 0.707105 0.000001 0.707109
vn 0.707105 0.000001 0.707109
vn 0.707105 0.000001 0.707109
vn 0.707104 0.000001 0.707109
vn 0.000000 0.755657 0.654968
vn 0.000000 0.755657 0.654968
vn 0.223864 0.776899 0.588484
vn 0.230804 0.776874 0.585830
vn 0.000000 0.755673 -0.654949
vn 0.000000 0.755673 -0.654949
vn -0.234216 0.772662 -0.590030
vn -0.234217 0.772662 -0.590030
vn 0.707109 0.000001 -0.707105
vn 0.707109 0.000001 -0.707105
vn 0.707109 0.000001 -0.707105
vn 0.707109 0.000001 -0.707105
vn 0.000000 -0.755633 -0.654995
vn 0.000000 -0.755633 -0.654995
vn -0.234225 -0.772635 -0.590062
vn -0.234224 -0.772635 -0.590063
vn 0.247334 0.772546 0.584806
vn 0.253516 0.772537 0.582165
vn -0.000000 0.765303 0.643670
vn -0.000000 0.765303 0.643670
vn -0.265751 0.767233 -0.583721
vn -0.277948 0.766890 -0.578468
vn -0.000001 0.764988 -0.644045
vn -0.000001 0.764988 -0.644045
vn -0.290731 -0.714141 -0.636772
vn -0.280969 -0.709637 -0.646120
vn 0.094551 -0.588345 -0.803063
vn -0.052259 -0.609414 -0.791129
vn 0.253519 -0.772512 0.582197
vn 0.247338 -0.772522 0.584837
vn 0.000000 -0.765288 0.643688
vn 0.000000 -0.765288 0.643688
vn 0.000000 0.000000 1.000000
vn -0.372697 0.000000 0.927953
vn -0.372697 0.000000 0.927953
vn 0.000000 0.000000 1.000000
vn 0.000000 1.000000 0.000000
vn 0.000000 1.000000 0.000006
vn 0.000000 1.000000 0.000003
vn 0.000000 1.000000 0.000000
vn 0.000000 0.000000 -1.000000
vn 0.374048 0.000000 -0.927409
vn 0.374048 0.000000 -0.927409
vn 0.000000 0.000000 -1.000000
vn 0.000000 -1.000000 0.000011
vn 0.000000 -1.000000 0.000012
vn 0.000000 -1.000000 0.000014
vn 0.000000 -1.000000 0.000011
vn 1.000000 0.000000 0.000000
vn 1.000000 0.000000 0.000000
vn 1.000000 0.000000 0.000000
vn 1.000000 0.000000 0.000000
vn -1.000000 0.000000 0.000000
vn -1.000000 0.000000 0.000000
vn -1.000000 0.000000 0.000000
vn -1.000000 0.000000 0.000000
vn 0.000000 1.000000 0.000008
vn 0.000000 1.000000 0.000004
vn 0.000000 1.000000 0.000003
vn 0.000000 1.000000 0.000008
vn -0.427499 -0.000000 -0.904016
vn -0.427499 -0.000000 -0.904016
vn -0.374048 -0.000000 -0.927409
vn -0.374048 -0.000000 -0.927409
vn 0.000000 -1.000000 -0.000006
vn 0.000000 -1.000000 -0.000005
vn 0.000000 -1.000000 0.000004
vn 0.000000 -1.000000 -0.000003
vn 0.392430 0.000000 0.919782
vn 0.392430 0.000000 0.919782
vn 0.374084 0.000000 0.927395
vn 0.374084 0.000000 0.927395
vn 0.000000 1.000000 0.000006
vn 0.000000 1.000000 0.000006
vn 0.000000 0.000000 -1.000000
vn 0.000000 0.000000 -1.000000
vn 0.000000 -1.000000 0.000000
vn 0.000000 -1.000000 0.000000
vn 0.000000 0.000000 1.000000
vn 0.000000 0.000000 1.000000
vn 0.000000 1.000000 0.000005
vn 0.000000 1.000000 0.000004
vn 0.427499 0.000000 -0.904016
vn 0.427499 0.000000 -0.904016
vn 0.000000 -1.000000 0.000009
vn 0.000000 -1.000000 0.000003
vn -0.391228 0.000000 0.920294
vn -0.391228 0.000000 0.920294
vn 0.000000 1.000000 0.000003
vn 0.000000 1.000000 0.000003
vn 0.000000 0.000000 -1.000000
vn 0.000000 0.000000 -1.000000
vn 0.000000 -1.000000 0.000011
vn 0.000000 -1.000000 0.000011
vn 0.000000 0.000000 1.000000
vn 0.000000 0.000000 1.000000
vn 0.000000 -0.755657 0.654967
vn 0.229759 -0.776864 0.586254
vn 0.223366 -0.776883 0.588694
vn 0.000000 -0.755657 0.654967
vn 0.707115 0.000000 0.707099
vn 0.707115 0.000000 0.707099
vn 0.707115 0.000000 0.707099
vn 0.707115 0.000000 0.707099
vn 0.246803 -0.772546 0.585031
vn 0.252543 -0.772542 0.582581
vn 0.000000 0.755656 0.654969
vn 0.223358 0.776895 0.588681
vn 0.229751 0.776876 0.586241
vn 0.000000 0.755656 0.654969
vn 0.252538 0.772569 0.582547
vn 0.246799 0.772573 0.584997
vn 0.707107 0.000000 -0.707107
vn 0.707107 0.000000 -0.707107
vn 0.707107 0.000000 -0.707107
vn 0.707107 0.000000 -0.707107
vn 0.000000 0.755641 -0.654986
vn -0.234220 0.772652 -0.590042
vn -0.234217 0.772652 -0.590043
vn 0.000000 0.755641 -0.654986
vn -0.277950 0.766893 -0.578463
vn -0.265752 0.767236 -0.583716
vn 0.000000 -0.755622 -0.655008
vn -0.207774 -0.830535 -0.516760
vn -0.205597 -0.830025 -0.518448
vn 0.000000 -0.755622 -0.655008
vn -0.322276 -0.834863 -0.446253
vn -0.208698 -0.674122 -0.708523
vn 0.000000 -0.755661 0.654964
vn -0.223868 -0.776888 0.588497
vn -0.230809 -0.776862 0.585843
vn 0.000000 -0.755660 0.654964
vn -0.707110 0.000000 0.707104
vn -0.707110 0.000000 0.707104
vn -0.707110 0.000000 0.707104
vn -0.707110 0.000000 0.707104
vn 0.000000 0.755658 0.654966
vn -0.230802 0.776878 0.585826
vn -0.223861 0.776903 0.588480
vn 0.000000 0.755658 0.654966
vn 0.000000 0.755663 -0.654960
vn 0.234219 0.772653 -0.590041
vn 0.234219 0.772653 -0.590041
vn 0.000000 0.755663 -0.654960
vn -0.707102 0.000001 -0.707112
vn -0.707101 0.000001 -0.707112
vn -0.707102 0.000001 -0.707112
vn -0.707102 0.000001 -0.707112
vn 0.000000 -0.755626 -0.655003
vn 0.234227 -0.772634 -0.590063
vn 0.234226 -0.772634 -0.590063
vn 0.000000 -0.755626 -0.655003
vn -0.247332 0.772550 0.584802
vn 0.000000 0.765306 0.643667
vn 0.000000 0.765306 0.643667
vn -0.253514 0.772541 0.582161
vn 0.265750 0.767231 -0.583723
vn 0.000001 0.764992 -0.644040
vn 0.000001 0.764992 -0.644040
vn 0.277949 0.766887 -0.578470
vn 0.290732 -0.714141 -0.636771
vn 0.052258 -0.609410 -0.791131
vn -0.094549 -0.588344 -0.803064
vn 0.280968 -0.709637 -0.646121
vn -0.253520 -0.772519 0.582187
vn -0.000000 -0.765284 0.643693
vn -0.000000 -0.765284 0.643693
vn -0.247338 -0.772529 0.584827
vn 0.000000 0.000000 1.000000
vn 0.000000 0.000000 1.000000
vn 0.372697 0.000000 0.927953
vn 0.372697 0.000000 0.927953
vn 0.000000 1.000000 0.000000
vn 0.000000 1.000000 0.000000
vn 0.000000 1.000000 0.000000
vn 0.000000 1.000000 0.000000
vn 0.000000 0.000000 -1.000000
vn 0.000000 0.000000 -1.000000
vn -0.374047 0.000000 -0.927410
vn -0.374047 0.000000 -0.927410
vn 0.000000 -1.000000 0.000011
vn 0.000000 -1.000000 0.000011
vn 0.000000 -1.000000 -0.000001
vn 0.000000 -1.000000 0.000006
vn -1.000000 0.000001 0.000000
vn -1.000000 0.000001 0.000000
vn -1.000000 0.000001 0.000000
vn -1.000000 0.000001 0.000000
vn 1.000000 0.000000 0.000000
vn 1.000000 0.000000 0.000000
vn 1.000000 0.000000 0.000000
vn 1.000000 0.000000 0.000000
vn 0.000000 1.000000 0.000005
vn 0.000000 1.000000 0.000005
vn 0.000000 1.000000 0.000000
vn 0.000000 1.000000 0.000000
vn 0.427498 0.000000 -0.904016
vn 0.374047 0.000000 -0.927410
vn 0.374047 0.000000 -0.927410
vn 0.427498 0.000000 -0.904016
vn 0.000000 -1.000000 -0.000006
vn 0.000000 -1.000000 -0.000004
vn 0.000000 -1.000000 0.000002
vn 0.000000 -1.000000 -0.000005
vn -0.392429 0.000000 0.919782
vn -0.374085 0.000000 0.927394
vn -0.374085 0.000000 0.927395
vn -0.392429 0.000000 0.919782
vn 0.000000 1.000000 0.000005
vn 0.000000 1.000000 0.000005
vn 0.000000 0.000000 -1.000000
vn 0.000000 0.000000 -1.000000
vn 0.000000 -1.000000 -0.000000
vn 0.000000 -1.000000 -0.000000
vn 0.000000 0.000000 1.000000
vn 0.000000 0.000000 1.000000
vn 0.000000 1.000000 0.000000
vn 0.000000 1.000000 0.000000
vn -0.427498 0.000000 -0.904016
vn -0.427498 0.000000 -0.904016
vn 0.000000 -1.000000 -0.000003
vn 0.000000 -1.000000 -0.000007
vn 0.391229 0.000000 0.920293
vn 0.391229 0.000000 0.920293
vn 0.000000 1.000000 0.000000
vn 0.000000 1.000000 0.000000
vn 0.000000 0.000000 -1.000000
vn 0.000000 0.000000 -1.000000
vn 0.000000 -1.000000 0.000007
vn 0.000000 -1.000000 0.000007
vn 0.000000 0.000000 1.000000
vn 0.000000 0.000000 1.000000
f 1/1/1 2/2/2 3/3/3 4/4/4
f 2/2/5 1/1/6 5/5/7 6/6/8
f 4/4/4 3/3/3 47/7/9 48/8/10
f 6/6/11 5/5/12 8/9/13 7/10/14
f 7/10/14 8/9/13 41/11/15 42/12/16
f 9/13/17 10/14/18 13/15/19 14/16/20
f 10/14/21 9/13/22 11/17/23 12/18/24
f 12/18/24 11/17/23 43/19/25 44/20/26
f 14/16/27 13/15/28 15/21/29 16/22/30
f 16/22/30 15/21/29 45/23/31 46/24/32
f 17/25/33 18/26/34 40/27/35 39/28/36
f 18/26/37 17/25/38 20/29/39 19/30/40
f 19/30/41 20/29/42 27/31/43 28/32/44
f 21/33/45 22/34/46 32/35/47 31/36/48
f 22/34/49 21/33/50 24/37/51 23/38/52
f 23/38/53 24/37/54 36/39/55 35/40/56
f 25/41/57 26/42/58 49/43/59 50/44/60
f 26/42/58 25/41/57 28/32/44 27/31/43
f 29/45/61 30/46/62 55/47/63 56/48/64
f 30/46/62 29/45/61 31/36/48 32/35/47
f 33/49/65 34/50/66 53/51/67 54/52/68
f 34/50/66 33/49/65 35/40/56 36/39/55
f 37/53/69 38/54/70 51/55/71 52/56/72
f 38/54/70 37/53/69 39/28/36 40/27/35
f 1/1/73 4/4/74 8/9/75 5/5/76
f 6/6/77 7/10/78 11/17/79 9/13/80
f 10/14/81 12/18/82 15/21/83 13/15/84
f 14/16/85 16/22/86 3/3/87 2/2/88
f 17/25/89 24/37/90 21/33/91 20/29/92
f 14/16/93 2/2/94 6/6/95 9/13/96
f 26/42/97 27/31/98 31/36/99 29/45/100
f 33/49/101 30/46/102 32/35/103 35/40/104
f 37/53/105 34/50/106 36/39/107 39/28/108
f 25/41/109 38/54/110 40/27/111 28/32/112
f 56/48/113 49/43/114 26/42/97 29/45/100
f 54/52/115 55/47/116 30/46/102 33/49/101
f 52/56/117 53/51/118 34/50/106 37/53/105
f 50/44/119 51/55/120 38/54/110 25/41/109
f 7/10/78 42/12/121 43/19/122 11/17/79
f 15/21/83 12/18/82 44/20/123 45/23/124
f 3/3/87 16/22/86 46/24/125 47/7/126
f 8/9/75 4/4/74 48/8/127 41/11/128
f 27/31/98 20/29/129 21/33/130 31/36/99
f 35/40/104 32/35/103 22/34/131 23/38/132
f 39/28/108 36/39/107 24/37/133 17/25/134
f 28/32/112 40/27/111 18/26/135 19/30/136
f 50/44/60 49/43/59 42/12/16 41/11/15
f 41/11/128 48/8/127 51/55/120 50/44/119
f 52/56/72 51/55/71 48/8/10 47/7/9
f 47/7/126 46/24/125 53/51/118 52/56/117
f 54/52/68 53/51/67 46/24/32 45/23/31
f 45/23/124 44/20/123 55/47/116 54/52/115
f 56/48/64 55/47/63 44/20/26 43/19/25
f 42/12/121 49/43/114 56/48/113 43/19/122
f 57/57/137 60/58/138 59/59/139 58/60/140
f 58/60/141 62/61/142 61/62/143 57/57/144
f 60/58/138 104/63/145 103/64/146 59/59/139
f 62/61/147 63/65/148 64/66/149 61/62/150
f 63/65/148 98/67/151 97/68/152 64/66/149
f 65/69/153 70/70/154 69/71/155 66/72/156
f 66/72/157 68/73/158 67/74/159 65/69/160
f 68/73/158 100/75/161 99/76/162 67/74/159
f 70/70/163 72/77/164 71/78/165 69/71/166
f 72/77/164 102/79/167 101/80/168 71/78/165
f 73/81/169 95/82/170 96/83/171 74/84/172
f 74/84/173 75/85/174 76/86/175 73/81/176
f 75/85/177 84/87/178 83/88/179 76/86/180
f 77/89/181 87/90/182 88/91/183 78/92/184
f 78/92/185 79/93/186 80/94/187 77/89/188
f 79/93/189 91/95/190 92/96/191 80/94/192
f 81/97/193 106/98/194 105/99/195 82/100/196
f 82/100/196 83/88/179 84/87/178 81/97/193
f 85/101/197 112/102/198 111/103/199 86/104/200
f 86/104/200 88/91/183 87/90/182 85/101/197
f 89/105/201 110/106/202 109/107/203 90/108/204
f 90/108/204 92/96/191 91/95/190 89/105/201
f 93/109/205 108/110/206 107/111/207 94/112/208
f 94/112/208 96/83/171 95/82/170 93/109/205
f 57/57/209 61/62/210 64/66/211 60/58/212
f 62/61/213 65/69/214 67/74/215 63/65/216
f 66/72/217 69/71/218 71/78/219 68/73/220
f 70/70/221 58/60/222 59/59/223 72/77/224
f 73/81/225 76/86/226 77/89/227 80/94/228
f 70/70/229 65/69/230 62/61/231 58/60/232
f 82/100/233 85/101/234 87/90/235 83/88/236
f 89/105/237 91/95/238 88/91/239 86/104/240
f 93/109/241 95/82/242 92/96/243 90/108/244
f 81/97/245 84/87/246 96/83/247 94/112/248
f 112/102/249 85/101/234 82/100/233 105/99/250
f 110/106/251 89/105/237 86/104/240 111/103/252
f 108/110/253 93/109/241 90/108/244 109/107/254
f 106/98/255 81/97/245 94/112/248 107/111/256
f 63/65/216 67/74/215 99/76/257 98/67/258
f 71/78/219 101/80/259 100/75/260 68/73/220
f 59/59/223 103/64/261 102/79/262 72/77/224
f 64/66/211 97/68/263 104/63/264 60/58/212
f 83/88/236 87/90/235 77/89/265 76/86/266
f 91/95/238 79/93/267 78/92/268 88/91/239
f 95/82/242 73/81/269 80/94/270 92/96/243
f 84/87/246 75/85/271 74/84/272 96/83/247
f 106/98/194 97/68/152 98/67/151 105/99/195
f 97/68/263 106/98/255 107/111/256 104/63/264
f 108/110/206 103/64/146 104/63/145 107/111/207
f 103/64/261 108/110/253 109/107/254 102/79/262
f 110/106/202 101/80/168 102/79/167 109/107/203
f 101/80/259 110/106/251 111/103/252 100/75/260
f 112/102/198 99/76/162 100/75/161 111/103/199
f 98/67/258 99/76/257 112/102/249 105/99/250
