# This file uses meters as units for non-parametric coordinates.

v 103.051094 13.513508 32.498055
v 103.051086 199.070892 32.498055
v 51.923012 13.513504 32.498047
v 51.923016 199.070877 32.498047
v 103.051086 106.260117 32.498055
v 51.923016 106.260117 32.498047
v 52.353409 13.943909 35.060020
v 51.923012 13.513504 34.629631
v 51.923016 106.260651 34.629631
v 52.353413 106.260117 35.060020
v 102.620697 13.943905 35.060028
v 103.051094 13.513508 34.629631
v 103.051086 106.260651 34.629631
v 102.620697 106.260117 35.060028
v 51.923016 199.070877 34.858810
v 52.353413 198.640488 35.288132
v 102.620697 198.640488 35.288147
v 103.051086 199.070892 34.858818
vt 0.509311 0.758153
vt 0.509311 0.867382
vt 0.509311 0.758153
vt 0.618541 0.758154
vt 0.509818 0.759097
vt 0.509311 0.835885
vt 0.618541 0.758153
vt 0.509311 0.785458
vt 0.509818 0.758153
vt 0.509818 0.866438
vt 0.509311 0.867382
vt 0.509818 0.866438
vt 0.618541 0.759097
vt 0.618540 0.835885
vt 0.509311 0.758153
vt 0.618541 0.867382
vt 0.509311 0.789650
vt 0.509311 0.758153
vt 0.509311 0.758153
vt 0.509311 0.867382
vt 0.509311 0.758153
vt 0.509311 0.867382
vt 0.509311 0.867382
vt 0.509311 0.840078
vt 0.618541 0.758153
vt 0.618540 0.789650
vt 0.509311 0.867382
vt 0.618541 0.866438
vt 0.509818 0.759097
vn 0.000000 0.000000 -1.000000
vn 0.000000 0.000000 -1.000000
vn 0.000000 0.000000 -1.000000
vn 0.000000 0.000000 -1.000000
vn 0.000000 0.000000 -1.000000
vn 0.000000 0.000000 -1.000000
vn -0.707099 0.000000 0.707114
vn -0.707099 -0.000873 0.707114
vn -0.707099 -0.000873 0.707114
vn -0.707099 0.000000 0.707114
vn -0.000000 -0.707100 0.707114
vn -0.000000 -0.707100 0.707114
vn -0.000000 -0.707100 0.707114
vn -0.000000 -0.707100 0.707114
vn -0.707099 -0.001746 0.707112
vn -0.707099 -0.001746 0.707112
vn 0.707107 0.000000 0.707107
vn 0.707108 -0.000873 0.707105
vn 0.707108 -0.000873 0.707105
vn 0.707107 0.000000 0.707107
vn 0.707110 -0.001746 0.707102
vn 0.707110 -0.001746 0.707102
vn -0.000000 0.706221 0.707991
vn -0.000000 0.706221 0.707991
vn -0.000000 0.706221 0.707991
vn -0.000000 0.706221 0.707991
vn -0.000000 0.000000 1.000000
vn -0.000000 0.000000 1.000000
vn -0.000000 -0.001235 0.999999
vn -0.000000 -0.001235 0.999999
vn 1.000000 0.000000 -0.000000
vn 1.000000 0.000000 -0.000000
vn 1.000000 0.000000 -0.000000
vn 1.000000 0.000000 -0.000000
vn -1.000000 0.000000 -0.000000
vn -1.000000 0.000000 -0.000000
vn -1.000000 0.000000 -0.000000
vn -1.000000 0.000000 -0.000000
vn -0.000000 1.000000 0.000000
vn -0.000000 1.000000 0.000000
vn -0.000000 1.000000 0.000000
vn -0.000000 1.000000 0.000000
vn 0.000000 -1.000000 0.000000
vn 0.000000 -1.000000 0.000000
vn 0.000000 -1.000000 0.000000
vn 0.000000 -1.000000 0.000000
vn 1.000000 0.000000 0.000000
vn 1.000000 0.000000 0.000000
vn -1.000000 0.000000 0.000000
vn -1.000000 0.000000 0.000000
vn -0.000000 -0.002469 0.999997
vn -0.000000 -0.002469 0.999997
f 1/15/1 3/2/2 6/16/3 5/25/4
f 6/16/3 4/27/5 2/1/6 5/25/4
f 7/5/7 10/13/8 9/4/9 8/3/10
f 8/3/11 12/6/12 11/10/13 7/5/14
f 10/7/8 16/9/15 15/8/16 9/26/9
f 12/6/17 13/14/18 14/28/19 11/10/20
f 13/14/18 18/24/21 17/12/22 14/28/19
f 16/29/23 17/12/24 18/11/25 15/18/26
f 7/5/27 11/10/28 14/28/29 10/13/30
f 12/6/31 1/15/32 5/25/33 13/14/34
f 3/2/35 8/17/36 9/26/37 6/16/38
f 15/18/39 18/11/40 2/20/41 4/19/42
f 3/21/43 1/23/44 12/22/45 8/3/46
f 13/14/34 5/25/33 2/1/47 18/24/48
f 9/26/37 15/8/49 4/27/50 6/16/38
f 14/28/29 17/12/51 16/29/52 10/13/30
