# This file uses meters as units for non-parametric coordinates.

v -98.408907 192.994408 41.027043
v -40.987661 192.994408 41.027046
v -98.408907 92.994408 41.027043
v -40.987661 92.994408 41.027046
v -97.440210 93.963104 44.902218
v -98.408907 92.994408 43.933522
v -41.956358 93.963104 44.902221
v -40.987661 92.994408 43.933525
v -97.440210 192.025703 44.902218
v -98.408907 192.994408 43.933522
v -41.956358 192.025703 44.902221
v -40.987661 192.994408 43.933525
vt 0.432622 0.838975
vt 0.412822 0.820006
vt 0.432622 0.824748
vt 0.432430 0.820326
vt 0.417771 0.820006
vt 0.413014 0.820326
vt 0.412822 0.834233
vt 0.432430 0.838655
vt 0.413014 0.838655
vt 0.417771 0.838975
vt 0.432622 0.820006
vt 0.412822 0.838975
vt 0.427672 0.838975
vt 0.427672 0.820006
vt 0.432622 0.834233
vt 0.432622 0.820006
vt 0.412822 0.820006
vt 0.432622 0.838975
vt 0.412822 0.824748
vt 0.412822 0.838975
vn 0.000000 0.000000 -1.000000
vn 0.000000 0.000000 -1.000000
vn 0.000000 0.000000 -1.000000
vn 0.000000 0.000000 -1.000000
vn -0.000000 -0.707106 0.707108
vn -0.000000 -0.707106 0.707108
vn -0.000000 -0.707106 0.707108
vn -0.000000 -0.707105 0.707108
vn -0.707106 0.000000 0.707107
vn -0.707106 0.000000 0.707107
vn -0.707106 0.000000 0.707107
vn -0.707106 0.000000 0.707107
vn 0.707106 0.000000 0.707107
vn 0.707106 0.000000 0.707107
vn 0.707106 0.000000 0.707107
vn 0.707106 0.000000 0.707107
vn -0.000000 0.707102 0.707111
vn -0.000000 0.707102 0.707111
vn -0.000000 0.707102 0.707111
vn -0.000000 0.707102 0.707111
vn -0.000000 0.000000 1.000000
vn -0.000000 0.000000 1.000000
vn -0.000000 0.000000 1.000000
vn -0.000000 0.000000 1.000000
vn 0.000000 1.000000 0.000000
vn 0.000000 1.000000 0.000000
vn 0.000000 1.000000 0.000000
vn 0.000000 1.000000 0.000000
vn 0.000000 -1.000000 0.000000
vn 0.000000 -1.000000 0.000000
vn 0.000000 -1.000000 0.000000
vn 0.000000 -1.000000 0.000000
vn 1.000000 0.000000 0.000000
vn 1.000000 0.000000 0.000000
vn 1.000000 0.000000 0.000000
vn 1.000000 0.000000 0.000000
vn -1.000000 0.000000 0.000000
vn -1.000000 0.000000 0.000000
vn -1.000000 0.000000 0.000000
vn -1.000000 0.000000 0.000000
f 1/11/1 2/1/2 4/12/3 3/2/4
f 5/4/5 6/3/6 8/15/7 7/8/8
f 6/3/9 5/4/10 9/6/11 10/5/12
f 7/8/13 8/15/14 12/7/15 11/9/16
f 10/5/17 9/6/18 11/9/19 12/7/20
f 5/4/21 7/8/22 11/9/23 9/6/24
f 10/5/25 12/10/26 2/1/27 1/11/28
f 3/2/29 4/12/30 8/13/31 6/14/32
f 8/15/33 4/16/34 2/17/35 12/7/36
f 3/18/37 6/3/38 10/19/39 1/20/40
