# This file uses meters as units for non-parametric coordinates.

v -93.531708 155.226166 -34.858177
v 20.029331 155.226196 -34.858177
v -93.531708 152.923553 -34.858177
v 20.029331 152.923599 -34.858177
v -93.531708 152.923553 36.438541
v -93.531708 153.153793 36.668777
v 20.029331 153.153824 36.668777
v 20.029331 152.923599 36.438541
v -93.531708 154.995926 36.668777
v -93.531708 155.226166 36.438541
v 20.029331 155.226196 36.438541
v 20.029331 154.995956 36.668777
v -99.345230 0.568291 39.281078
v -98.719193 -0.000002 39.281078
v -98.719193 0.568291 39.907127
v 98.719193 -0.000002 39.281078
v 99.345230 0.568291 39.281078
v 98.719193 0.568291 39.907127
v -98.719193 15.272409 39.281078
v -99.345230 14.704117 39.281078
v -98.719193 14.704117 39.907127
v 99.345230 14.704117 39.281078
v 98.719193 15.272409 39.281078
v 98.719193 14.704117 39.907127
v -98.719193 14.704117 -39.640614
v -99.345230 14.704117 -39.014572
v -98.719193 15.272409 -39.014572
v 99.345230 14.704117 -39.014572
v 98.719193 14.704117 -39.640614
v 98.719193 15.272409 -39.014572
v -98.719193 -0.000002 -39.014572
v -99.345230 0.568291 -39.014572
v -98.719193 0.568291 -39.640614
v 99.345230 0.568291 -39.014572
v 98.719193 -0.000002 -39.014572
v 98.719193 0.568291 -39.640614
v -99.630653 190.492401 39.281078
v -99.004608 189.924149 39.281078
v -99.004608 190.492401 39.907127
v 99.004608 189.924149 39.281078
v 99.630653 190.492401 39.281078
v 99.004608 190.492401 39.907127
v -99.004608 195.607590 39.281078
v -99.630653 195.039307 39.281078
v -99.004608 195.039307 39.907127
v 99.630653 195.039307 39.281078
v 99.004608 195.607590 39.281078
v 99.004608 195.039307 39.907127
v -99.004608 195.039307 -39.640614
v -99.630653 195.039307 -39.014572
v -99.004608 195.607590 -39.014572
v 99.630653 195.039307 -39.014572
v 99.004608 195.039307 -39.640614
v 99.004608 195.607590 -39.014572
v -99.004608 189.924149 -39.014572
v -99.630653 190.492401 -39.014572
v -99.004608 190.492401 -39.640614
v 99.630653 190.492401 -39.014572
v 99.004608 189.924149 -39.014572
v 99.004608 190.492401 -39.640614
v 24.572693 189.924103 -37.601414
v 20.029333 189.924103 -37.601414
v 20.029333 15.272397 -37.601414
v 24.572693 15.272397 -37.601414
v -93.531708 15.272397 -34.283096
v 20.029333 15.272397 -34.283096
v 20.029333 189.924103 -34.283096
v -93.531708 189.924103 -34.283096
v 24.572693 15.272397 -34.283096
v 24.572693 189.924103 -34.283096
v 93.531708 15.272397 -34.283096
v 93.531708 189.924103 -34.283096
v -97.405670 15.272397 36.727901
v -97.959038 15.272397 36.174538
v -97.959038 189.924103 36.174538
v -97.405670 189.924103 36.727901
v 97.959038 15.272397 36.174538
v 97.405670 15.272397 36.727901
v 97.405670 189.924103 36.727901
v 97.959038 189.924103 36.174538
v -97.405670 189.924103 -37.601414
v -97.959038 189.924103 -37.048054
v -97.959038 15.272397 -37.048054
v -97.405670 15.272397 -37.601414
v 97.959038 189.924103 -37.048054
v 97.405670 189.924103 -37.601414
v 97.405670 15.272397 -37.601414
v 97.959038 15.272397 -37.048054
v -93.531708 15.272397 36.174538
v -94.085060 15.272397 36.727901
v -94.085060 189.924103 36.727901
v -93.531708 189.924103 36.174538
v 93.531708 189.924103 36.174538
v 94.085060 189.924103 36.727901
v 94.085060 15.272397 36.727901
v 93.531708 15.272397 36.174538
v 24.572693 15.272397 36.174538
v 24.019329 15.272397 36.727901
v 24.019329 189.924103 36.727901
v 24.572693 189.924103 36.174538
v 20.582695 15.272397 36.727901
v 20.029333 15.272397 36.174538
v 20.029333 189.924103 36.174538
v 20.582695 189.924103 36.727901
vt 0.759311 0.742382
vt 0.868541 0.742382
vt 0.868541 0.633505
vt 0.759311 0.633505
vt 0.868541 0.742031
vt 0.868541 0.633153
vt 0.759311 0.633153
vt 0.868541 0.644075
vt 0.759311 0.731461
vt 0.759311 0.644075
vt 0.759311 0.633153
vt 0.868541 0.633153
vt 0.759311 0.742031
vt 0.868541 0.731461
vt 0.764366 0.733468
vt 0.869442 0.733468
vt 0.869442 0.637210
vt 0.764366 0.637211
vt 0.869442 0.646220
vt 0.869442 0.724459
vt 0.764366 0.724459
vt 0.764366 0.646220
vt 0.764841 0.724459
vt 0.868968 0.724459
vt 0.868968 0.646220
vt 0.764841 0.646220
vt 0.764841 0.646220
vt 0.764841 0.724459
vt 0.868968 0.724459
vt 0.868968 0.646220
vt 0.869442 0.733468
vt 0.869442 0.637211
vt 0.764366 0.637211
vt 0.764366 0.733468
vt 0.869442 0.646220
vt 0.869442 0.724459
vt 0.764366 0.724459
vt 0.764366 0.646220
vt 0.764008 0.637210
vt 0.764008 0.733468
vt 0.764366 0.636441
vt 0.869442 0.636441
vt 0.869800 0.637210
vt 0.869800 0.733468
vt 0.764008 0.733468
vt 0.764008 0.637211
vt 0.869800 0.733468
vt 0.869800 0.637211
vt 0.764008 0.646220
vt 0.764008 0.724459
vt 0.869800 0.646220
vt 0.869800 0.724459
vt 0.764366 0.733468
vt 0.869442 0.733468
vt 0.869442 0.637210
vt 0.764366 0.637211
vt 0.869442 0.646220
vt 0.869442 0.724459
vt 0.764366 0.724459
vt 0.764366 0.646220
vt 0.764841 0.724459
vt 0.868968 0.724459
vt 0.868968 0.646220
vt 0.764841 0.646220
vt 0.764841 0.646220
vt 0.764841 0.724459
vt 0.868968 0.724459
vt 0.868968 0.646220
vt 0.869442 0.733468
vt 0.869442 0.637211
vt 0.764366 0.637211
vt 0.764366 0.733468
vt 0.869442 0.646220
vt 0.869442 0.724459
vt 0.764366 0.724459
vt 0.764366 0.646220
vt 0.764008 0.637210
vt 0.764008 0.733468
vt 0.764366 0.636441
vt 0.869442 0.636441
vt 0.869800 0.637210
vt 0.869800 0.733468
vt 0.764008 0.733468
vt 0.764008 0.637211
vt 0.869800 0.733468
vt 0.869800 0.637211
vt 0.764008 0.646220
vt 0.764008 0.724459
vt 0.869800 0.646220
vt 0.869800 0.724459
vt 0.764257 0.734238
vt 0.764257 0.636441
vt 0.765745 0.636441
vt 0.765745 0.734238
vt 0.815886 0.734238
vt 0.764257 0.734238
vt 0.764257 0.636441
vt 0.815886 0.636441
vt 0.869013 0.734238
vt 0.869013 0.636441
vt 0.764796 0.636441
vt 0.764796 0.734238
vt 0.869013 0.734238
vt 0.869013 0.636441
vt 0.764796 0.636441
vt 0.764796 0.734238
vt 0.868064 0.734238
vt 0.868064 0.636441
vt 0.869552 0.636441
vt 0.869552 0.734238
vt 0.817922 0.636441
vt 0.869552 0.636441
vt 0.869552 0.734238
vt 0.817922 0.734238
vt 0.816134 0.734238
vt 0.816134 0.636441
vt 0.817674 0.636441
vt 0.817675 0.734238
vt 0.765993 0.636441
vt 0.815886 0.636441
vt 0.815886 0.734238
vt 0.765993 0.734238
vt 0.817922 0.734238
vt 0.817922 0.636441
vt 0.867816 0.636441
vt 0.867816 0.734238
vt 0.868916 0.637873
vt 0.868916 0.732457
vt 0.767397 0.732457
vt 0.767397 0.637873
vt 0.868916 0.637873
vt 0.868916 0.732457
vt 0.767397 0.732457
vt 0.767397 0.637873
vt 0.868916 0.637873
vt 0.868916 0.732457
vt 0.767397 0.732457
vt 0.767397 0.637873
vt 0.868916 0.637873
vt 0.868916 0.732457
vt 0.767397 0.732457
vt 0.767397 0.637873
vt 0.764008 0.636441
vt 0.764008 0.734238
vt 0.764008 0.734238
vt 0.764008 0.636441
vt 0.765993 0.636441
vt 0.765993 0.734238
vt 0.867816 0.734238
vt 0.867816 0.636441
vt 0.817922 0.636441
vt 0.817922 0.734238
vt 0.815886 0.636441
vt 0.815886 0.734238
vn 0.000000 0.000000 1.000000
vn 0.000000 0.000000 1.000000
vn 0.000000 0.000000 1.000000
vn 0.000000 0.000000 1.000000
vn -0.000000 1.000000 0.000000
vn -0.000000 1.000000 0.000000
vn -0.000000 1.000000 0.000000
vn -0.000000 1.000000 0.000000
vn 0.000000 -1.000000 0.000000
vn 0.000000 -1.000000 0.000000
vn 0.000000 -1.000000 0.000000
vn 0.000000 -1.000000 0.000000
vn 0.000000 -0.707125 0.707089
vn 0.000000 -0.707125 0.707089
vn 0.000000 -0.707125 0.707089
vn 0.000000 -0.707125 0.707089
vn -0.000000 0.707098 0.707116
vn -0.000000 0.707098 0.707115
vn -0.000000 0.707098 0.707116
vn -0.000000 0.707098 0.707115
vn 0.000000 -1.000000 0.000000
vn 0.000000 -1.000000 0.000000
vn 0.000000 -1.000000 0.000000
vn 0.000000 -1.000000 0.000000
vn 0.000000 0.000000 1.000000
vn 0.000000 0.000000 1.000000
vn 0.000000 0.000000 1.000000
vn 0.000000 0.000000 1.000000
vn -1.000000 0.000000 0.000000
vn -1.000000 0.000000 0.000000
vn -1.000000 0.000000 0.000000
vn -1.000000 0.000000 0.000000
vn 1.000000 0.000000 0.000000
vn 1.000000 0.000000 0.000000
vn 1.000000 0.000000 0.000000
vn 1.000000 0.000000 0.000000
vn 0.000000 1.000000 0.000000
vn 0.000000 1.000000 0.000000
vn 0.000000 1.000000 0.000000
vn 0.000000 1.000000 0.000000
vn 0.000000 0.000000 -1.000000
vn 0.000000 0.000000 -1.000000
vn 0.000000 0.000000 -1.000000
vn 0.000000 0.000000 -1.000000
vn -0.672133 -0.740430 0.000000
vn -0.672133 -0.740430 0.000000
vn -0.672133 -0.740430 0.000000
vn -0.672133 -0.740430 0.000000
vn 0.000000 -0.740436 0.672127
vn 0.000000 -0.740436 0.672127
vn 0.000000 -0.740436 0.672127
vn 0.000000 -0.740436 0.672127
vn -0.707114 0.000000 0.707100
vn -0.707114 0.000000 0.707100
vn -0.707114 0.000000 0.707100
vn -0.707114 0.000000 0.707100
vn 0.672133 -0.740430 0.000000
vn 0.672133 -0.740430 0.000000
vn 0.672133 -0.740430 0.000000
vn 0.672133 -0.740430 0.000000
vn 0.707114 0.000000 0.707100
vn 0.707114 0.000000 0.707100
vn 0.707114 0.000000 0.707100
vn 0.707114 0.000000 0.707100
vn -0.672133 0.740431 0.000000
vn -0.672133 0.740431 0.000000
vn -0.672133 0.740431 0.000000
vn -0.672133 0.740431 0.000000
vn 0.000000 0.740436 0.672127
vn 0.000000 0.740436 0.672127
vn 0.000000 0.740436 0.672127
vn 0.000000 0.740436 0.672127
vn 0.672133 0.740431 0.000000
vn 0.672133 0.740431 0.000000
vn 0.672133 0.740431 0.000000
vn 0.672133 0.740431 0.000000
vn -0.707109 0.000000 -0.707105
vn -0.707109 0.000000 -0.707105
vn -0.707109 0.000000 -0.707105
vn -0.707109 0.000000 -0.707105
vn 0.000000 0.740432 -0.672132
vn 0.000000 0.740432 -0.672132
vn 0.000000 0.740432 -0.672132
vn 0.000000 0.740432 -0.672132
vn 0.707109 0.000000 -0.707105
vn 0.707109 0.000000 -0.707105
vn 0.707109 0.000000 -0.707105
vn 0.707109 0.000000 -0.707105
vn 0.000000 -0.740431 -0.672132
vn 0.000000 -0.740431 -0.672132
vn 0.000000 -0.740431 -0.672132
vn 0.000000 -0.740431 -0.672132
vn -0.557839 -0.614523 0.557832
vn -0.557839 -0.614523 0.557832
vn -0.557839 -0.614523 0.557832
vn 0.557839 -0.614523 0.557832
vn 0.557839 -0.614523 0.557832
vn 0.557839 -0.614523 0.557832
vn -0.557840 0.614524 0.557831
vn -0.557840 0.614524 0.557831
vn -0.557840 0.614524 0.557831
vn 0.557840 0.614524 0.557831
vn 0.557840 0.614524 0.557831
vn 0.557840 0.614524 0.557831
vn -0.557836 0.614521 -0.557839
vn -0.557836 0.614521 -0.557839
vn -0.557836 0.614521 -0.557839
vn 0.557836 0.614521 -0.557839
vn 0.557836 0.614521 -0.557839
vn 0.557836 0.614521 -0.557839
vn -0.557839 -0.614518 -0.557838
vn -0.557839 -0.614518 -0.557838
vn -0.557839 -0.614518 -0.557838
vn 0.557839 -0.614518 -0.557838
vn 0.557839 -0.614518 -0.557838
vn 0.557839 -0.614518 -0.557838
vn 0.000000 -1.000000 0.000000
vn 0.000000 -1.000000 0.000000
vn 0.000000 -1.000000 0.000000
vn 0.000000 -1.000000 0.000000
vn 0.000000 0.000000 1.000000
vn 0.000000 0.000000 1.000000
vn 0.000000 0.000000 1.000000
vn 0.000000 0.000000 1.000000
vn -1.000000 0.000000 0.000000
vn -1.000000 0.000000 0.000000
vn -1.000000 0.000000 0.000000
vn -1.000000 0.000000 0.000000
vn 1.000000 0.000000 0.000000
vn 1.000000 0.000000 0.000000
vn 1.000000 0.000000 0.000000
vn 1.000000 0.000000 0.000000
vn 0.000000 1.000000 0.000000
vn 0.000000 1.000000 0.000000
vn 0.000000 1.000000 0.000000
vn 0.000000 1.000000 0.000000
vn 0.000000 0.000000 -1.000000
vn 0.000000 0.000000 -1.000000
vn 0.000000 0.000000 -1.000000
vn 0.000000 0.000000 -1.000000
vn -0.672103 -0.740458 0.000000
vn -0.672103 -0.740458 0.000000
vn -0.672103 -0.740458 0.000000
vn -0.672103 -0.740458 0.000000
vn 0.000000 -0.740459 0.672102
vn 0.000000 -0.740459 0.672102
vn 0.000000 -0.740459 0.672102
vn 0.000000 -0.740459 0.672102
vn -0.707110 0.000000 0.707104
vn -0.707110 0.000000 0.707104
vn -0.707110 0.000000 0.707104
vn -0.707110 0.000000 0.707104
vn 0.672103 -0.740458 0.000000
vn 0.672103 -0.740458 0.000000
vn 0.672103 -0.740458 0.000000
vn 0.672103 -0.740458 0.000000
vn 0.707110 0.000000 0.707104
vn 0.707110 0.000000 0.707104
vn 0.707110 0.000000 0.707104
vn 0.707110 0.000000 0.707104
vn -0.672123 0.740440 0.000000
vn -0.672123 0.740440 0.000000
vn -0.672123 0.740440 0.000000
vn -0.672123 0.740440 0.000000
vn 0.000000 0.740447 0.672115
vn 0.000000 0.740447 0.672115
vn 0.000000 0.740447 0.672115
vn 0.000000 0.740447 0.672115
vn 0.672123 0.740440 0.000000
vn 0.672123 0.740440 0.000000
vn 0.672123 0.740440 0.000000
vn 0.672123 0.740440 0.000000
vn -0.707106 0.000000 -0.707108
vn -0.707106 0.000000 -0.707108
vn -0.707106 0.000000 -0.707108
vn -0.707106 0.000000 -0.707108
vn 0.000000 0.740443 -0.672119
vn 0.000000 0.740443 -0.672119
vn 0.000000 0.740443 -0.672119
vn 0.000000 0.740443 -0.672119
vn 0.707106 0.000000 -0.707108
vn 0.707106 0.000000 -0.707108
vn 0.707106 0.000000 -0.707108
vn 0.707106 0.000000 -0.707108
vn 0.000000 -0.740455 -0.672106
vn 0.000000 -0.740455 -0.672106
vn 0.000000 -0.740455 -0.672106
vn 0.000000 -0.740455 -0.672106
vn -0.557825 -0.614554 0.557813
vn -0.557825 -0.614554 0.557813
vn -0.557825 -0.614554 0.557813
vn 0.557825 -0.614554 0.557813
vn 0.557825 -0.614554 0.557813
vn 0.557825 -0.614554 0.557813
vn -0.557823 0.614519 0.557853
vn -0.557823 0.614519 0.557853
vn -0.557823 0.614519 0.557853
vn 0.557823 0.614519 0.557853
vn 0.557823 0.614519 0.557853
vn 0.557823 0.614519 0.557853
vn -0.557819 0.614521 -0.557855
vn -0.557819 0.614521 -0.557855
vn -0.557819 0.614521 -0.557855
vn 0.557819 0.614521 -0.557855
vn 0.557819 0.614521 -0.557855
vn 0.557819 0.614521 -0.557855
vn -0.557825 -0.614554 -0.557813
vn -0.557825 -0.614554 -0.557813
vn -0.557825 -0.614554 -0.557813
vn 0.557825 -0.614554 -0.557813
vn 0.557825 -0.614554 -0.557813
vn 0.557825 -0.614554 -0.557813
vn 0.000000 0.000000 1.000000
vn 0.000000 0.000000 1.000000
vn 0.000000 0.000000 1.000000
vn 0.000000 0.000000 1.000000
vn 0.000000 0.000000 -1.000000
vn 0.000000 0.000000 -1.000000
vn 0.000000 0.000000 -1.000000
vn 0.000000 0.000000 -1.000000
vn 1.000000 0.000000 0.000000
vn 1.000000 0.000000 0.000000
vn 1.000000 0.000000 0.000000
vn 1.000000 0.000000 0.000000
vn -1.000000 0.000000 0.000000
vn -1.000000 0.000000 0.000000
vn -1.000000 0.000000 0.000000
vn -1.000000 0.000000 0.000000
vn 0.000000 0.000000 1.000000
vn 0.000000 0.000000 1.000000
vn 0.000000 0.000000 1.000000
vn 0.000000 0.000000 1.000000
vn 0.000000 0.000000 -1.000000
vn 0.000000 0.000000 -1.000000
vn 0.000000 0.000000 -1.000000
vn 0.000000 0.000000 -1.000000
vn 0.000000 0.000000 1.000000
vn 0.000000 0.000000 1.000000
vn 0.000000 0.000000 1.000000
vn 0.000000 0.000000 1.000000
vn 0.000000 0.000000 1.000000
vn 0.000000 0.000000 1.000000
vn 0.000000 0.000000 1.000000
vn 0.000000 0.000000 1.000000
vn 0.000000 0.000000 1.000000
vn 0.000000 0.000000 1.000000
vn 0.000000 0.000000 1.000000
vn 0.000000 0.000000 1.000000
vn -1.000000 0.000000 0.000000
vn -1.000000 0.000000 0.000000
vn -1.000000 0.000000 0.000000
vn -1.000000 0.000000 0.000000
vn 1.000000 0.000000 0.000000
vn 1.000000 0.000000 0.000000
vn 1.000000 0.000000 0.000000
vn 1.000000 0.000000 0.000000
vn 1.000000 0.000000 0.000000
vn 1.000000 0.000000 0.000000
vn 1.000000 0.000000 0.000000
vn 1.000000 0.000000 0.000000
vn -1.000000 0.000000 0.000000
vn -1.000000 0.000000 0.000000
vn -1.000000 0.000000 0.000000
vn -1.000000 0.000000 0.000000
vn -0.707103 0.000000 0.707111
vn -0.707103 0.000000 0.707111
vn -0.707103 0.000000 0.707111
vn -0.707103 0.000000 0.707111
vn 0.707103 0.000000 0.707111
vn 0.707103 0.000000 0.707111
vn 0.707103 0.000000 0.707111
vn 0.707103 0.000000 0.707111
vn -0.707101 0.000000 -0.707113
vn -0.707101 0.000000 -0.707113
vn -0.707101 0.000000 -0.707113
vn -0.707101 0.000000 -0.707113
vn 0.707101 0.000000 -0.707113
vn 0.707101 0.000000 -0.707113
vn 0.707101 0.000000 -0.707113
vn 0.707101 0.000000 -0.707113
vn 0.707113 0.000000 0.707101
vn 0.707113 0.000000 0.707101
vn 0.707113 0.000000 0.707101
vn 0.707113 0.000000 0.707101
vn -0.707113 0.000000 0.707101
vn -0.707113 0.000000 0.707101
vn -0.707113 0.000000 0.707101
vn -0.707113 0.000000 0.707101
vn 0.707105 0.000000 0.707108
vn 0.707105 0.000000 0.707108
vn 0.707105 0.000000 0.707108
vn 0.707105 0.000000 0.707108
vn -0.707106 0.000000 0.707107
vn -0.707106 0.000000 0.707107
vn -0.707106 0.000000 0.707107
vn -0.707106 0.000000 0.707107
f 6/10/1 7/8/2 12/14/3 9/9/4
f 10/13/5 11/5/6 2/6/7 1/7/8
f 3/1/9 4/2/10 8/3/11 5/4/12
f 6/10/13 5/11/14 8/12/15 7/8/16
f 10/13/17 9/9/18 12/14/19 11/5/20
f 31/15/21 35/16/22 16/17/23 14/18/24
f 18/19/25 24/20/26 21/21/27 15/22/28
f 20/23/29 26/24/30 32/25/31 13/26/32
f 34/27/33 28/28/34 22/29/35 17/30/36
f 23/31/37 30/32/38 27/33/39 19/34/40
f 29/35/41 36/36/42 33/37/43 25/38/44
f 14/18/45 13/39/46 32/40/47 31/15/48
f 15/22/49 14/41/50 16/42/51 18/19/52
f 13/26/53 15/22/54 21/21/55 20/23/56
f 17/43/57 16/17/58 35/16/59 34/44/60
f 18/19/61 17/30/62 22/29/63 24/20/64
f 20/45/65 19/34/66 27/33/67 26/46/68
f 19/34/69 21/21/70 24/20/71 23/31/72
f 23/31/73 22/47/74 28/48/75 30/32/76
f 26/49/77 25/38/78 33/37/79 32/50/80
f 25/38/81 27/33/82 30/32/83 29/35/84
f 29/35/85 28/51/86 34/52/87 36/36/88
f 31/15/89 33/37/90 36/36/91 35/16/92
f 13/26/93 14/41/94 15/22/95
f 16/42/96 17/30/97 18/19/98
f 19/34/99 20/23/100 21/21/101
f 22/29/102 23/31/103 24/20/104
f 25/38/105 26/46/106 27/33/107
f 28/48/108 29/35/109 30/32/110
f 31/15/111 32/50/112 33/37/113
f 34/52/114 35/16/115 36/36/116
f 55/53/117 59/54/118 40/55/119 38/56/120
f 42/57/121 48/58/122 45/59/123 39/60/124
f 44/61/125 50/62/126 56/63/127 37/64/128
f 58/65/129 52/66/130 46/67/131 41/68/132
f 47/69/133 54/70/134 51/71/135 43/72/136
f 53/73/137 60/74/138 57/75/139 49/76/140
f 38/56/141 37/77/142 56/78/143 55/53/144
f 39/60/145 38/79/146 40/80/147 42/57/148
f 37/64/149 39/60/150 45/59/151 44/61/152
f 41/81/153 40/55/154 59/54/155 58/82/156
f 42/57/157 41/68/158 46/67/159 48/58/160
f 44/83/161 43/72/162 51/71/163 50/84/164
f 43/72/165 45/59/166 48/58/167 47/69/168
f 47/69/169 46/85/170 52/86/171 54/70/172
f 50/87/173 49/76/174 57/75/175 56/88/176
f 49/76/177 51/71/178 54/70/179 53/73/180
f 53/73/181 52/89/182 58/90/183 60/74/184
f 55/53/185 57/75/186 60/74/187 59/54/188
f 37/64/189 38/79/190 39/60/191
f 40/80/192 41/68/193 42/57/194
f 43/72/195 44/61/196 45/59/197
f 46/67/198 47/69/199 48/58/200
f 49/76/201 50/84/202 51/71/203
f 52/86/204 53/73/205 54/70/206
f 55/53/207 56/88/208 57/75/209
f 58/90/210 59/54/211 60/74/212
f 76/91/213 73/92/214 90/93/215 91/94/216
f 63/95/217 84/96/218 81/97/219 62/98/220
f 80/99/221 77/100/222 88/101/223 85/102/224
f 82/103/225 83/104/226 74/105/227 75/106/228
f 94/107/229 95/108/230 78/109/231 79/110/232
f 61/111/233 86/112/234 87/113/235 64/114/236
f 104/115/237 101/116/238 98/117/239 99/118/240
f 62/98/220 61/111/233 64/114/236 63/95/217
f 65/119/241 66/120/242 67/121/243 68/122/244
f 70/123/245 69/124/246 71/125/247 72/126/248
f 102/127/249 103/128/250 67/129/251 66/130/252
f 92/131/253 89/132/254 65/133/255 68/134/256
f 100/135/257 97/136/258 69/137/259 70/138/260
f 96/139/261 93/140/262 72/141/263 71/142/264
f 74/105/265 73/92/266 76/91/267 75/106/268
f 78/109/269 77/100/270 80/99/271 79/110/272
f 82/143/273 81/97/274 84/96/275 83/144/276
f 86/145/277 85/102/278 88/101/279 87/146/280
f 90/93/281 89/147/282 92/148/283 91/94/284
f 94/107/285 93/149/286 96/150/287 95/108/288
f 98/117/289 97/151/290 100/152/291 99/118/292
f 102/153/293 101/116/294 104/115/295 103/154/296
