# This file uses meters as units for non-parametric coordinates.

v -67.898944 182.249587 38.316230
v -35.042550 182.249582 38.316234
v -67.898944 185.508059 38.316234
v -35.042550 185.508059 38.316234
v -36.752200 182.249582 36.903950
v -36.752200 185.508059 36.903950
v -66.189291 185.508059 36.903950
v -66.189291 182.249582 36.903950
v -67.898944 185.508059 34.961333
v -66.189291 185.508059 34.961333
v -66.189291 182.249582 34.961333
v -67.898944 182.249582 34.961333
v -36.752200 182.249582 34.961333
v -36.752200 185.508059 34.961333
v -35.042552 185.508059 34.961333
v -35.042552 182.249582 34.961333
vt 0.449012 0.760264
vt 0.454632 0.760264
vt 0.447362 0.771885
vt 0.454632 0.775759
vt 0.461232 0.760264
vt 0.442738 0.765429
vt 0.460743 0.768011
vt 0.460253 0.775759
vt 0.460253 0.760264
vt 0.443391 0.760264
vt 0.443391 0.775759
vt 0.442412 0.760264
vt 0.443391 0.760264
vt 0.443391 0.775759
vt 0.442412 0.775759
vt 0.460253 0.775759
vt 0.460253 0.760264
vt 0.461232 0.760264
vt 0.461232 0.775759
vn 0.000000 0.000000 -1.000000
vn 0.000000 0.000000 -1.000000
vn 0.000000 0.000000 -1.000000
vn 0.000000 0.000000 -1.000000
vn -0.000000 -1.000000 0.000002
vn -0.000000 -1.000000 0.000002
vn -0.000000 -1.000000 0.000002
vn -0.000000 -1.000000 0.000002
vn -0.000000 -0.000001 1.000000
vn -0.000000 -0.000001 1.000000
vn -0.000000 -0.000001 1.000000
vn -0.000000 -0.000001 1.000000
vn 0.000000 1.000000 0.000000
vn 0.000000 1.000000 0.000000
vn 0.000000 1.000000 0.000000
vn 0.000000 1.000000 0.000000
vn 0.000000 1.000000 0.000000
vn 0.000000 1.000000 0.000000
vn 0.000000 1.000000 0.000000
vn 0.000000 1.000000 0.000000
vn 1.000000 0.000000 0.000000
vn 1.000000 0.000000 0.000000
vn 1.000000 0.000000 0.000000
vn 1.000000 0.000000 0.000000
vn -0.000001 -1.000000 0.000001
vn -0.000001 -1.000000 0.000001
vn -0.000001 -1.000000 0.000001
vn -0.000001 -1.000000 0.000001
vn -1.000000 0.000000 0.000000
vn -1.000000 0.000000 0.000000
vn -1.000000 0.000000 0.000000
vn -1.000000 0.000000 0.000000
vn -1.000000 0.000000 0.000000
vn -1.000000 0.000000 0.000000
vn -1.000000 0.000000 0.000000
vn -1.000000 0.000000 0.000000
vn 0.000000 1.000000 -0.000000
vn 0.000000 1.000000 -0.000000
vn 0.000000 1.000000 -0.000000
vn 0.000000 1.000000 -0.000000
vn 1.000000 0.000000 -0.000000
vn 1.000000 0.000000 -0.000000
vn 1.000000 0.000000 -0.000000
vn 1.000000 0.000000 -0.000000
vn 0.000000 -1.000000 -0.000000
vn 0.000000 -1.000000 -0.000000
vn 0.000000 -1.000000 -0.000000
vn 0.000000 -1.000000 -0.000000
f 5/8/1 8/11/2 7/10/3 6/9/4
f 2/7/5 1/6/6 8/11/7 5/8/8
f 4/4/9 3/3/10 1/1/11 2/2/12
f 6/9/13 7/10/14 3/3/15 4/4/16
f 3/3/17 7/10/18 10/13/19 9/12/20
f 7/10/21 8/11/22 11/14/23 10/13/24
f 8/11/25 1/6/26 12/15/27 11/14/28
f 1/6/29 3/3/30 9/12/31 12/15/32
f 5/8/33 6/9/34 14/17/35 13/16/36
f 6/9/37 4/5/38 15/18/39 14/17/40
f 4/5/41 2/7/42 16/19/43 15/18/44
f 2/7/45 5/8/46 13/16/47 16/19/48
