# This file uses meters as units for non-parametric coordinates.

v -135.671204 2.430046 135.671204
v 135.671204 2.430046 135.671204
v -135.671204 2.430046 -135.671204
v 135.671204 2.430046 -135.671204
v 0.000000 2.430046 191.152069
v 0.000000 2.430046 -191.152069
v 191.152069 2.430046 0.000000
v 0.000000 2.430046 0.000000
v -191.152069 2.430046 0.000000
v -135.671204 0.000000 135.671204
v 0.000000 0.000000 191.152069
v -191.152069 0.000000 0.000000
v 135.671204 0.000000 135.671204
v 191.152069 0.000000 0.000000
v 0.000000 0.000000 -191.152069
v 135.671204 0.000000 -135.671204
v -135.671204 0.000000 -135.671204
vt 0.502101 0.875896
vt 0.502101 0.875896
vt 0.502101 0.875896
vt 0.624131 0.875896
vt 0.624130 0.875896
vt 0.502101 0.999045
vt 0.502101 0.999045
vt 0.502101 0.875896
vt 0.624131 0.875896
vt 0.502101 0.999045
vt 0.502101 0.999045
vt 0.624130 0.875896
vt 0.502101 0.875896
vt 0.624131 0.875896
vt 0.624130 0.999045
vt 0.502101 0.999045
vt 0.624131 0.999045
vt 0.624131 0.875896
vt 0.502101 0.875896
vt 0.502101 0.999045
vt 0.624130 0.875896
vt 0.624131 0.999045
vt 0.502101 0.999045
vt 0.502101 0.875896
vt 0.502101 0.999045
vt 0.624131 0.999045
vt 0.624130 0.875896
vt 0.502101 0.875896
vt 0.502101 0.875896
vt 0.624131 0.875896
vt 0.502101 0.999045
vt 0.624131 0.875896
vt 0.502101 0.875896
vt 0.502101 0.999045
vt 0.502101 0.999045
vt 0.502101 0.875896
vt 0.624130 0.875896
vt 0.624130 0.875896
vt 0.502101 0.875896
vt 0.502101 0.999045
vn 0.000000 1.000000 -0.000000
vn 0.000000 1.000000 -0.000000
vn 0.000000 1.000000 0.000000
vn 0.000000 1.000000 -0.000000
vn 0.000000 1.000000 -0.000000
vn 0.000000 1.000000 0.000000
vn 0.000000 1.000000 0.000000
vn -0.378510 0.000000 0.925597
vn -0.378510 0.000000 0.925597
vn -0.378510 0.000000 0.925597
vn -0.378510 0.000000 0.925597
vn -0.925597 0.000000 0.378510
vn -0.925597 0.000000 0.378510
vn -0.925597 0.000000 0.378510
vn -0.925597 0.000000 0.378510
vn 0.378510 0.000000 0.925597
vn 0.378510 0.000000 0.925597
vn 0.378510 0.000000 0.925597
vn 0.378510 0.000000 0.925597
vn 0.925597 0.000000 0.378510
vn 0.925597 0.000000 0.378510
vn 0.925597 0.000000 0.378510
vn 0.925597 0.000000 0.378510
vn 0.925597 0.000000 -0.378510
vn 0.925597 0.000000 -0.378510
vn 0.925597 0.000000 -0.378510
vn 0.925597 0.000000 -0.378510
vn 0.378510 0.000000 -0.925597
vn 0.378510 0.000000 -0.925597
vn 0.378510 0.000000 -0.925597
vn 0.378510 0.000000 -0.925597
vn -0.378510 0.000000 -0.925597
vn -0.378510 0.000000 -0.925597
vn -0.378510 0.000000 -0.925597
vn -0.378510 0.000000 -0.925597
vn -0.925597 0.000000 -0.378510
vn -0.925597 0.000000 -0.378510
vn -0.925597 0.000000 -0.378510
vn -0.925597 0.000000 -0.378510
vn 0.000000 1.000000 0.000000
vn 0.000000 1.000000 0.000000
f 1/13/1 8/15/2 9/16/3
f 8/17/2 2/19/4 7/20/5
f 4/24/6 8/22/2 7/23/5
f 9/25/3 8/26/2 3/28/7
f 1/8/8 10/29/9 11/30/10 5/9/11
f 9/10/12 12/31/13 10/29/14 1/8/15
f 5/4/16 11/32/17 13/33/18 2/1/19
f 2/1/20 13/33/21 14/34/22 7/11/23
f 7/6/24 14/35/25 16/36/26 4/3/27
f 4/3/28 16/36/29 15/37/30 6/12/31
f 6/5/32 15/38/33 17/39/34 3/2/35
f 3/2/36 17/39/37 12/40/38 9/7/39
f 1/13/1 5/14/40 8/15/2
f 8/17/2 5/18/40 2/19/4
f 6/21/41 8/22/2 4/24/6
f 3/28/7 8/26/2 6/27/41
