# This file uses centimeters as units for non-parametric coordinates.

v 190.183077 0.000000 -30.121993
v 183.129488 0.000000 -59.502331
v 171.566642 0.000000 -87.417521
v 155.779264 0.000000 -113.180200
v 136.156081 0.000000 -136.156012
v 113.180280 0.000000 -155.779206
v 87.417607 0.000000 -171.566596
v 59.502417 0.000000 -183.129454
v 30.122082 0.000000 -190.183054
v 0.000043 0.000000 -192.553716
v -30.121993 0.000000 -190.183054
v -59.502325 0.000000 -183.129465
v -87.417509 0.000000 -171.566619
v -113.180188 0.000000 -155.779241
v -136.155989 0.000000 -136.156058
v -155.779183 0.000000 -113.180257
v -171.566573 0.000000 -87.417578
v -183.129431 0.000000 -59.502394
v -190.183020 0.000000 -30.122065
v -192.553670 0.000000 -0.000032
v -190.183020 0.000000 30.121999
v -183.129431 0.000000 59.502325
v -171.566585 0.000000 87.417504
v -155.779206 0.000000 113.180177
v -136.156024 0.000000 136.155966
v -113.180223 0.000000 155.779160
v -87.417555 0.000000 171.566550
v -59.502377 0.000000 183.129408
v -30.122050 0.000000 190.182997
v -0.000020 0.000000 192.553647
v 30.122007 0.000000 190.182997
v 59.502331 0.000000 183.129408
v 87.417509 0.000000 171.566562
v 113.180177 0.000000 155.779183
v 136.155966 0.000000 136.155989
v 155.779149 0.000000 113.180188
v 171.566527 0.000000 87.417521
v 183.129362 0.000000 59.502342
v 190.182951 0.000000 30.122022
v 192.553601 0.000000 0.000000
v 190.183077 2.201687 -30.121993
v 183.129488 2.201687 -59.502331
v 171.566642 2.201687 -87.417521
v 155.779264 2.201687 -113.180200
v 136.156081 2.201687 -136.156012
v 113.180280 2.201687 -155.779206
v 87.417607 2.201687 -171.566596
v 59.502417 2.201687 -183.129454
v 30.122082 2.201687 -190.183054
v 0.000043 2.201687 -192.553716
v -30.121993 2.201687 -190.183054
v -59.502325 2.201687 -183.129465
v -87.417509 2.201687 -171.566619
v -113.180188 2.201687 -155.779241
v -136.155989 2.201687 -136.156058
v -155.779183 2.201687 -113.180257
v -171.566573 2.201687 -87.417578
v -183.129431 2.201687 -59.502394
v -190.183020 2.201687 -30.122065
v -192.553670 2.201687 -0.000032
v -190.183020 2.201687 30.121999
v -183.129431 2.201687 59.502325
v -171.566585 2.201687 87.417504
v -155.779206 2.201687 113.180177
v -136.156024 2.201687 136.155966
v -113.180223 2.201687 155.779160
v -87.417555 2.201687 171.566550
v -59.502377 2.201687 183.129408
v -30.122050 2.201687 190.182997
v -0.000020 2.201687 192.553647
v 30.122007 2.201687 190.182997
v 59.502331 2.201687 183.129408
v 87.417509 2.201687 171.566562
v 113.180177 2.201687 155.779183
v 136.155966 2.201687 136.155989
v 155.779149 2.201687 113.180188
v 171.566527 2.201687 87.417521
v 183.129362 2.201687 59.502342
v 190.182951 2.201687 30.122022
v 192.553601 2.201687 0.000000
v 0.000000 2.201687 0.000000
vt 0.941680 0.959863
vt 0.941680 0.898796
vt 0.941680 0.959863
vt 0.941680 0.898796
vt 0.941680 0.959863
vt 0.941680 0.898796
vt 0.941680 0.959863
vt 0.941680 0.898796
vt 0.941680 0.959863
vt 0.941680 0.898796
vt 0.941680 0.959863
vt 0.941680 0.898796
vt 0.941680 0.959863
vt 0.941680 0.898796
vt 0.941680 0.959863
vt 0.941680 0.898796
vt 0.941680 0.959863
vt 0.941680 0.898796
vt 0.941680 0.959863
vt 0.941680 0.898796
vt 0.941680 0.959863
vt 0.941680 0.898796
vt 0.941680 0.959863
vt 0.941680 0.898796
vt 0.941680 0.959863
vt 0.941680 0.898796
vt 0.941680 0.959863
vt 0.941680 0.898796
vt 0.941680 0.959863
vt 0.941680 0.898796
vt 0.941680 0.959863
vt 0.941680 0.898796
vt 0.941680 0.959863
vt 0.941680 0.898796
vt 0.941680 0.959863
vt 0.941680 0.898796
vt 0.941680 0.959863
vt 0.941680 0.898796
vt 0.941680 0.959863
vt 0.941680 0.898796
vt 0.941680 0.959864
vt 0.950612 0.959864
vt 0.950612 0.898795
vt 0.950612 0.959863
vt 0.950612 0.898795
vt 0.950612 0.959864
vt 0.950612 0.898795
vt 0.950612 0.959863
vt 0.950612 0.898795
vt 0.950612 0.959863
vt 0.950612 0.898795
vt 0.950612 0.959864
vt 0.950612 0.898795
vt 0.950612 0.959863
vt 0.950612 0.898795
vt 0.950612 0.959863
vt 0.950612 0.898795
vt 0.950612 0.959863
vt 0.950612 0.898795
vt 0.950612 0.959863
vt 0.950612 0.898795
vt 0.950612 0.959863
vt 0.950612 0.898795
vt 0.950612 0.959863
vt 0.950612 0.898795
vt 0.950612 0.959863
vt 0.950612 0.898795
vt 0.950612 0.959863
vt 0.950612 0.898796
vt 0.950612 0.959864
vt 0.950612 0.898795
vt 0.950612 0.959863
vt 0.950612 0.898795
vt 0.950612 0.959863
vt 0.950612 0.898795
vt 0.950612 0.959863
vt 0.950612 0.898795
vt 0.950612 0.959863
vt 0.950612 0.898795
vt 0.950612 0.959863
vt 0.950612 0.898795
vt 0.950612 0.959863
vt 0.890498 0.903356
vt 0.894088 0.918311
vt 0.899973 0.932520
vt 0.908009 0.945633
vt 0.917997 0.957328
vt 0.929692 0.967316
vt 0.942806 0.975352
vt 0.957014 0.981238
vt 0.971969 0.984828
vt 0.987301 0.986035
vt 0.972524 0.989308
vt 0.958110 0.985545
vt 0.944415 0.979375
vt 0.931776 0.970952
vt 0.920505 0.960482
vt 0.910878 0.948223
vt 0.903133 0.934477
vt 0.897460 0.919583
vt 0.894000 0.903907
vt 0.892837 0.887835
vt 0.894000 0.910501
vt 0.897460 0.924915
vt 0.903133 0.938609
vt 0.910878 0.951248
vt 0.920505 0.962520
vt 0.931776 0.972147
vt 0.944415 0.979892
vt 0.958110 0.985565
vt 0.972524 0.989025
vt 0.987301 0.990188
vt 0.972497 0.989025
vt 0.958058 0.985565
vt 0.944339 0.979892
vt 0.931677 0.972147
vt 0.920385 0.962520
vt 0.910741 0.951248
vt 0.902982 0.938609
vt 0.897299 0.924915
vt 0.893833 0.910501
vt 0.892668 0.895723
vt 0.987301 0.891945
vt 0.889291 0.888024
vt 0.987301 0.891945
vt 0.987301 0.891945
vt 0.987301 0.891945
vt 0.987301 0.990573
vt 0.892837 0.895723
vt 0.987302 0.990188
vn 0.987689 0.000000 -0.156432
vn 0.951057 0.000000 -0.309017
vn 0.022887 0.999710 -0.007436
vn 0.023769 0.999710 -0.003765
vn 0.891007 0.000000 -0.453990
vn 0.021442 0.999710 -0.010925
vn 0.809017 0.000000 -0.587785
vn 0.019469 0.999710 -0.014145
vn 0.707107 0.000000 -0.707107
vn 0.017016 0.999710 -0.017016
vn 0.587785 0.000000 -0.809017
vn 0.014145 0.999710 -0.019469
vn 0.453991 0.000000 -0.891006
vn 0.010925 0.999710 -0.021442
vn 0.309017 0.000000 -0.951056
vn 0.007436 0.999710 -0.022887
vn 0.156435 0.000000 -0.987688
vn 0.003765 0.999710 -0.023769
vn 0.000000 0.000000 -1.000000
vn 0.000000 0.999710 -0.024065
vn -0.156434 0.000000 -0.987688
vn -0.003765 0.999710 -0.023769
vn -0.309017 0.000000 -0.951057
vn -0.007436 0.999710 -0.022887
vn -0.453990 0.000000 -0.891007
vn -0.010925 0.999710 -0.021442
vn -0.587785 0.000000 -0.809017
vn -0.014145 0.999710 -0.019469
vn -0.707107 0.000000 -0.707107
vn -0.017016 0.999710 -0.017016
vn -0.809017 0.000000 -0.587785
vn -0.019469 0.999710 -0.014145
vn -0.891006 0.000000 -0.453991
vn -0.021442 0.999710 -0.010925
vn -0.951057 0.000000 -0.309017
vn -0.022887 0.999710 -0.007436
vn -0.987688 0.000000 -0.156434
vn -0.023769 0.999710 -0.003765
vn -1.000000 0.000000 0.000000
vn -0.024065 0.999710 0.000000
vn -0.987688 0.000000 0.156434
vn -0.023769 0.999710 0.003765
vn -0.951057 0.000000 0.309017
vn -0.022887 0.999710 0.007436
vn -0.891007 0.000000 0.453990
vn -0.021442 0.999710 0.010925
vn -0.809017 0.000000 0.587785
vn -0.019469 0.999710 0.014145
vn -0.707107 0.000000 0.707107
vn -0.017016 0.999710 0.017016
vn -0.587785 0.000000 0.809017
vn -0.014145 0.999710 0.019469
vn -0.453991 0.000000 0.891006
vn -0.010925 0.999710 0.021442
vn -0.309017 0.000000 0.951057
vn -0.007436 0.999710 0.022887
vn -0.156434 0.000000 0.987688
vn -0.003765 0.999710 0.023769
vn -0.000000 0.000000 1.000000
vn -0.000000 0.999710 0.024065
vn 0.156434 0.000000 0.987688
vn 0.003765 0.999710 0.023769
vn 0.309017 0.000000 0.951056
vn 0.007436 0.999710 0.022887
vn 0.453990 0.000000 0.891007
vn 0.010925 0.999710 0.021442
vn 0.587785 0.000000 0.809017
vn 0.014145 0.999710 0.019469
vn 0.707107 0.000000 0.707107
vn 0.017016 0.999710 0.017016
vn 0.809017 0.000000 0.587785
vn 0.019469 0.999710 0.014145
vn 0.891007 0.000000 0.453990
vn 0.021442 0.999710 0.010925
vn 0.951057 0.000000 0.309017
vn 0.022887 0.999710 0.007436
vn 0.987688 0.000000 0.156434
vn 0.023769 0.999710 0.003765
vn 1.000000 0.000000 0.000002
vn 0.024065 0.999710 0.000000
vn 0.000000 1.000000 0.000000
f 1/1/1 2/2/2 42/43/3 41/42/4
f 2/2/2 3/3/5 43/44/6 42/43/3
f 3/3/5 4/4/7 44/45/8 43/44/6
f 4/4/7 5/5/9 45/46/10 44/45/8
f 5/5/9 6/6/11 46/47/12 45/46/10
f 6/6/11 7/7/13 47/48/14 46/47/12
f 7/7/13 8/8/15 48/49/16 47/48/14
f 8/8/15 9/9/17 49/50/18 48/49/16
f 9/9/17 10/10/19 50/51/20 49/50/18
f 10/10/19 11/11/21 51/52/22 50/51/20
f 11/11/21 12/12/23 52/53/24 51/52/22
f 12/12/23 13/13/25 53/54/26 52/53/24
f 13/13/25 14/14/27 54/55/28 53/54/26
f 14/14/27 15/15/29 55/56/30 54/55/28
f 15/15/29 16/16/31 56/57/32 55/56/30
f 16/16/31 17/17/33 57/58/34 56/57/32
f 17/17/33 18/18/35 58/59/36 57/58/34
f 18/18/35 19/19/37 59/60/38 58/59/36
f 19/19/37 20/20/39 60/61/40 59/60/38
f 20/20/39 21/21/41 61/62/42 60/61/40
f 21/21/41 22/22/43 62/63/44 61/62/42
f 22/22/43 23/23/45 63/64/46 62/63/44
f 23/23/45 24/24/47 64/65/48 63/64/46
f 24/24/47 25/25/49 65/66/50 64/65/48
f 25/25/49 26/26/51 66/67/52 65/66/50
f 26/26/51 27/27/53 67/68/54 66/67/52
f 27/27/53 28/28/55 68/69/56 67/68/54
f 28/28/55 29/29/57 69/70/58 68/69/56
f 29/29/57 30/30/59 70/71/60 69/70/58
f 30/30/59 31/31/61 71/72/62 70/71/60
f 31/31/61 32/32/63 72/73/64 71/72/62
f 32/32/63 33/33/65 73/74/66 72/73/64
f 33/33/65 34/34/67 74/75/68 73/74/66
f 34/34/67 35/35/69 75/76/70 74/75/68
f 35/35/69 36/36/71 76/77/72 75/76/70
f 36/36/71 37/37/73 77/78/74 76/77/72
f 37/37/73 38/38/75 78/79/76 77/78/74
f 38/38/75 39/39/77 79/80/78 78/79/76
f 39/39/77 40/40/79 80/81/80 79/80/78
f 40/40/79 1/41/1 41/82/4 80/81/80
f 41/121/4 42/120/3 81/127/81
f 42/120/3 43/119/6 81/127/81
f 43/119/6 44/118/8 81/127/81
f 44/118/8 45/117/10 81/127/81
f 45/117/10 46/116/12 81/127/81
f 46/116/12 47/115/14 81/127/81
f 47/115/14 48/114/16 81/127/81
f 48/114/16 49/113/18 81/127/81
f 49/113/18 50/130/20 81/127/81
f 50/112/20 51/111/22 81/126/81
f 51/111/22 52/110/24 81/126/81
f 52/110/24 53/109/26 81/126/81
f 53/109/26 54/108/28 81/126/81
f 54/108/28 55/107/30 81/126/81
f 55/107/30 56/106/32 81/126/81
f 56/106/32 57/105/34 81/126/81
f 57/105/34 58/104/36 81/126/81
f 58/104/36 59/103/38 81/126/81
f 59/103/38 60/129/40 81/126/81
f 60/102/40 61/101/42 81/125/81
f 61/101/42 62/100/44 81/125/81
f 62/100/44 63/99/46 81/125/81
f 63/99/46 64/98/48 81/125/81
f 64/98/48 65/97/50 81/125/81
f 65/97/50 66/96/52 81/125/81
f 66/96/52 67/95/54 81/125/81
f 67/95/54 68/94/56 81/125/81
f 68/94/56 69/93/58 81/125/81
f 69/93/58 70/128/60 81/125/81
f 70/92/60 71/91/62 81/123/81
f 71/91/62 72/90/64 81/123/81
f 72/90/64 73/89/66 81/123/81
f 73/89/66 74/88/68 81/123/81
f 74/88/68 75/87/70 81/123/81
f 75/87/70 76/86/72 81/123/81
f 76/86/72 77/85/74 81/123/81
f 77/85/74 78/84/76 81/123/81
f 78/84/76 79/83/78 81/123/81
f 79/83/78 80/124/80 81/123/81
f 80/122/80 41/121/4 81/127/81
