# This file uses meters as units for non-parametric coordinates.

v -100.000000 -0.000000 100.000000
v 100.000000 -0.000000 100.000000
v -100.000000 0.000000 -100.000000
v 100.000000 0.000000 -100.000000
v 0.000000 -0.000000 100.000000
v 0.000000 0.000000 -100.000000
v -100.000000 0.000000 0.000000
v 0.000000 0.000000 0.000000
v 100.000000 0.000000 0.000000
vt 0.627707 0.377527
vt 0.747474 0.377527
vt 0.627707 0.497293
vt 0.747473 0.497293
vt 0.747473 0.377527
vt 0.627707 0.497293
vt 0.627707 0.377527
vt 0.627707 0.497293
vt 0.747474 0.497293
vt 0.747473 0.497293
vt 0.747473 0.377527
vt 0.627707 0.377527
vt 0.747473 0.377527
vt 0.627707 0.497293
vt 0.747473 0.497293
vt 0.627707 0.377527
vn 0.000000 1.000000 0.000000
vn 0.000000 1.000000 0.000000
vn 0.000000 1.000000 0.000000
vn 0.000000 1.000000 0.000000
vn 0.000000 1.000000 0.000000
vn 0.000000 1.000000 0.000000
vn 0.000000 1.000000 0.000000
vn 0.000000 1.000000 0.000000
vn 0.000000 1.000000 0.000000
f 7/7/1 8/11/2 6/15/3 3/3/4
f 8/12/2 9/13/5 4/4/6 6/6/3
f 1/1/7 5/5/8 8/10/2 7/14/1
f 5/16/8 2/2/9 9/9/5 8/8/2
