# This file uses meters as units for non-parametric coordinates.

v -4.243051 -18.527115 -2.972798
v 4.243051 -18.527115 -2.972798
v -4.243051 2.286051 -2.583910
v 4.243051 2.286051 -2.583910
v -4.243051 -16.185505 -14.881686
v 4.243051 -16.185505 -14.881686
v 12.376122 7.145355 -3.383968
v 7.145355 12.376114 -3.383972
v 0.000000 14.290710 -3.383972
v -7.145355 12.376114 -3.383972
v -12.376122 7.145355 -3.383968
v -14.290710 0.000000 -3.383968
v -12.376122 -7.145355 -3.383968
v -7.145355 -12.376114 -3.383972
v 0.000000 -14.290710 -3.383972
v 7.145355 -12.376114 -3.383972
v 12.376122 -7.145355 -3.383968
v 14.290710 0.000000 -3.383968
v 12.007194 6.932354 3.383968
v 6.932354 12.007186 3.383972
v 0.000000 13.864709 3.383972
v -6.932354 12.007186 3.383972
v -12.007194 6.932354 3.383968
v -13.864709 0.000000 3.383968
v -12.007194 -6.932354 3.383968
v -6.932354 -12.007186 3.383972
v 0.000000 -13.864709 3.383972
v 6.932354 -12.007186 3.383972
v 12.007194 -6.932354 3.383968
v 13.864709 0.000000 3.383968
v 0.000000 0.000000 -3.383968
v -12.376122 -7.145355 0.853580
v -14.290710 0.000000 0.853582
v -12.376122 7.145353 0.853580
v -7.145355 12.376117 0.853584
v 0.000000 14.290713 0.853584
v 7.145355 12.376117 0.853584
v 12.376122 7.145353 0.853580
v 14.290710 0.000000 0.853582
v 12.376122 -7.145355 0.853580
v 7.145355 -12.376118 0.853584
v 0.000000 -14.290707 0.853584
v -7.145355 -12.376118 0.853584
v -14.290710 -17.352852 -3.383972
v -13.812111 -18.032417 -2.875648
v -12.376122 -18.546219 -2.875656
v -12.287918 -18.037910 -3.383965
v -12.287918 -18.615906 0.853584
v -12.376122 -19.124226 0.345261
v -13.812111 -18.610420 0.345268
v -14.290710 -17.930847 0.853584
v -7.145355 -18.546219 -2.875656
v -7.145355 -18.037910 -3.383965
v -7.145355 -18.615906 0.853584
v -7.145355 -19.124226 0.345261
v 0.000000 -18.546219 -2.875656
v 0.000000 -18.037910 -3.383965
v 0.000000 -18.615906 0.853584
v 0.000000 -19.124226 0.345261
v 7.145355 -18.546219 -2.875656
v 7.145355 -18.037910 -3.383965
v 7.145355 -18.615906 0.853584
v 7.145355 -19.124226 0.345261
v 12.376122 -18.546219 -2.875656
v 12.287918 -18.037910 -3.383965
v 12.287918 -18.615906 0.853584
v 12.376122 -19.124226 0.345261
v 13.812111 -18.032417 -2.875648
v 14.290710 -17.352852 -3.383972
v 13.812111 -18.610420 0.345268
v 14.290710 -17.930847 0.853584
v 11.150711 6.437866 3.383968
v 6.437862 11.150711 3.383972
v 0.000000 12.875732 3.383972
v -6.437862 11.150711 3.383972
v -11.150711 6.437866 3.383968
v -12.875725 0.000000 3.383968
v -11.150711 -6.437866 3.383968
v -6.437862 -11.150711 3.383972
v 0.000000 -12.875732 3.383972
v 6.437862 -11.150711 3.383972
v 11.150711 -6.437866 3.383968
v 12.875725 0.000000 3.383968
v 11.150711 6.437866 2.366070
v 6.437862 11.150711 2.366074
v 0.000000 12.875736 2.366074
v -6.437862 11.150711 2.366074
v -11.150711 6.437866 2.366070
v -12.875725 0.000000 2.366070
v -11.150711 -6.437866 2.366070
v -6.437862 -11.150711 2.366074
v 0.000000 -12.875732 2.366074
v 6.437862 -11.150711 2.366074
v 11.150711 -6.437866 2.366070
v 12.875725 0.000000 2.366070
v -12.376122 7.145355 2.958229
v -7.145355 12.376115 2.958233
v 0.000000 14.290711 2.958233
v 7.145355 12.376115 2.958233
v 12.376122 7.145355 2.958229
v 14.290710 0.000000 2.958230
v 12.376122 -7.145355 2.958229
v 7.145355 -12.376115 2.958233
v 0.000000 -14.290710 2.958233
v -7.145355 -12.376115 2.958233
v -12.376122 -7.145355 2.958229
v -14.290710 0.000000 2.958230
vt 0.447598 0.792148
vt 0.461967 0.792148
vt 0.447598 0.792148
vt 0.461967 0.792148
vt 0.447598 0.805900
vt 0.461967 0.805900
vt 0.447598 0.792148
vt 0.461967 0.792148
vt 0.447598 0.792148
vt 0.447598 0.805900
vt 0.461967 0.792148
vt 0.461967 0.805900
vt 0.447700 0.792195
vt 0.461164 0.792195
vt 0.461145 0.806461
vt 0.447682 0.806461
vt 0.447700 0.792195
vt 0.447682 0.806461
vt 0.461164 0.792195
vt 0.461145 0.806461
vt 0.447700 0.792195
vt 0.447682 0.806461
vt 0.461164 0.792195
vt 0.461145 0.806461
vt 0.461163 0.792195
vt 0.461145 0.806461
vt 0.452302 0.799794
vt 0.456777 0.795446
vt 0.463016 0.805734
vt 0.450698 0.805734
vt 0.452394 0.799847
vt 0.456936 0.795537
vt 0.463108 0.793959
vt 0.456811 0.795537
vt 0.452359 0.799847
vt 0.450764 0.805734
vt 0.452451 0.799794
vt 0.456969 0.795446
vt 0.462924 0.793854
vt 0.451219 0.798571
vt 0.455045 0.802257
vt 0.460272 0.803578
vt 0.454979 0.802181
vt 0.451104 0.798439
vt 0.449686 0.793356
vt 0.451104 0.798543
vt 0.454979 0.802209
vt 0.460272 0.803524
vt 0.455045 0.802134
vt 0.451219 0.798413
vt 0.449818 0.793508
vt 0.461701 0.797044
vt 0.447954 0.796345
vt 0.447960 0.802798
vt 0.461707 0.803498
vt 0.447954 0.796345
vt 0.447960 0.802798
vt 0.461701 0.797044
vt 0.461707 0.803498
vt 0.447954 0.796345
vt 0.447960 0.802798
vt 0.461701 0.797044
vt 0.461707 0.803498
vt 0.447954 0.796345
vt 0.447960 0.802798
vt 0.461701 0.797044
vt 0.461707 0.803498
vt 0.447954 0.796345
vt 0.447960 0.802798
vt 0.461701 0.797044
vt 0.461707 0.803498
vt 0.447954 0.796345
vt 0.447960 0.802798
vt 0.461701 0.797044
vt 0.461707 0.803498
vt 0.447700 0.792195
vt 0.461164 0.792195
vt 0.461145 0.806461
vt 0.447682 0.806461
vt 0.447433 0.794393
vt 0.448047 0.793959
vt 0.447472 0.795609
vt 0.447002 0.795576
vt 0.447505 0.799847
vt 0.447035 0.799886
vt 0.461049 0.793600
vt 0.461458 0.793487
vt 0.461424 0.797851
vt 0.461016 0.797891
vt 0.460464 0.791929
vt 0.461019 0.792288
vt 0.447551 0.805734
vt 0.447081 0.805773
vt 0.461378 0.803813
vt 0.460969 0.803853
vt 0.447597 0.799794
vt 0.447126 0.799754
vt 0.461331 0.797921
vt 0.460922 0.797881
vt 0.447630 0.795519
vt 0.447160 0.795406
vt 0.461297 0.793548
vt 0.460889 0.793582
vt 0.448230 0.793854
vt 0.447610 0.794212
vt 0.460839 0.792348
vt 0.460278 0.791908
vt 0.461164 0.792195
vt 0.447700 0.792195
vt 0.447682 0.806461
vt 0.461145 0.806461
vt 0.447700 0.792195
vt 0.447682 0.806461
vt 0.461164 0.792195
vt 0.461145 0.806461
vt 0.461164 0.792195
vt 0.461145 0.806461
vt 0.461164 0.792195
vt 0.461145 0.806461
vt 0.447700 0.792195
vt 0.447682 0.806461
vt 0.451541 0.793527
vt 0.445316 0.791929
vt 0.456073 0.797891
vt 0.457698 0.803853
vt 0.455980 0.797881
vt 0.451380 0.793508
vt 0.445130 0.791908
vt 0.448357 0.800068
vt 0.453354 0.804882
vt 0.454030 0.803741
vt 0.449527 0.799404
vt 0.460365 0.806608
vt 0.460365 0.805296
vt 0.453452 0.804783
vt 0.454137 0.803652
vt 0.448392 0.799897
vt 0.449577 0.799249
vt 0.446540 0.793258
vt 0.447909 0.793268
vt 0.448392 0.800181
vt 0.449577 0.799520
vt 0.453452 0.804969
vt 0.454137 0.803834
vt 0.460365 0.806685
vt 0.460365 0.805380
vt 0.453354 0.804870
vt 0.454030 0.803745
vt 0.448357 0.800011
vt 0.449527 0.799367
vt 0.446528 0.793456
vt 0.447879 0.793447
vt 0.447959 0.801712
vt 0.461706 0.802412
vt 0.447959 0.801712
vt 0.461706 0.802412
vt 0.447959 0.801712
vt 0.461706 0.802412
vt 0.447959 0.801712
vt 0.461706 0.802412
vt 0.447959 0.801712
vt 0.461706 0.802412
vt 0.447959 0.801712
vt 0.461706 0.802412
vn 0.000000 0.554182 -0.832395
vn 0.000000 0.554182 -0.832395
vn 0.000000 0.554182 -0.832395
vn 0.000000 0.554182 -0.832395
vn 0.000000 -0.981212 -0.192933
vn 0.000000 -0.981212 -0.192933
vn 0.000000 -0.981212 -0.192933
vn 0.000000 -0.981212 -0.192933
vn 1.000000 -0.000000 0.000000
vn 1.000000 -0.000000 0.000000
vn 1.000000 -0.000000 0.000000
vn -1.000000 -0.000000 0.000000
vn -1.000000 -0.000000 0.000000
vn -1.000000 -0.000000 0.000000
vn 0.866025 0.500000 0.000000
vn 0.500000 0.866025 -0.000000
vn 0.500000 0.866026 -0.000000
vn 0.866025 0.500000 0.000000
vn 0.000000 1.000000 -0.000001
vn -0.000000 1.000000 -0.000000
vn -0.500000 0.866025 -0.000000
vn -0.500000 0.866026 -0.000000
vn -0.866025 0.500000 0.000000
vn -0.866025 0.500000 0.000000
vn -0.997030 0.077012 0.000000
vn -0.998202 0.059939 -0.000000
vn 0.997030 0.077012 0.000000
vn 0.998202 0.059939 -0.000000
vn 0.000000 -0.000000 -1.000000
vn 0.000000 -0.000000 -1.000000
vn 0.000000 0.000000 -1.000000
vn 0.000000 -0.000000 -1.000000
vn -0.000000 -0.000000 -1.000000
vn -0.000000 -0.000000 -1.000000
vn 0.000000 0.000000 -1.000000
vn 0.000001 0.000000 -1.000000
vn -0.000000 -0.000000 -1.000000
vn 0.000000 -0.000001 -1.000000
vn 0.000000 -0.000000 -1.000000
vn -0.000000 0.000000 -1.000000
vn -0.000000 0.000000 -1.000000
vn -0.866025 -0.500000 0.000000
vn -0.866025 -0.500000 0.000000
vn -1.000000 0.000000 -0.000000
vn -0.866025 0.500000 -0.000000
vn -0.500000 0.866025 0.000001
vn -0.000000 1.000000 0.000001
vn 0.500000 0.866025 0.000001
vn 0.866025 0.500000 -0.000000
vn 1.000000 0.000000 -0.000000
vn 0.866025 -0.500000 0.000000
vn 0.866025 -0.500000 0.000000
vn 0.500000 -0.866026 0.000000
vn 0.500000 -0.866026 0.000000
vn 0.000000 -1.000000 0.000000
vn 0.000000 -1.000000 0.000000
vn -0.500000 -0.866026 0.000000
vn -0.500000 -0.866026 0.000000
vn -0.710630 -0.648440 -0.273002
vn -0.694642 -0.655738 -0.295768
vn -0.702550 -0.684824 0.193492
vn -0.748762 -0.655236 0.100112
vn -0.060732 -0.702785 -0.708805
vn -0.060999 -0.702760 -0.708807
vn 0.000000 -0.707108 -0.707106
vn 0.000000 -0.707108 -0.707106
vn -0.060730 -0.702786 0.708804
vn -0.060997 -0.702761 0.708806
vn 0.000000 -0.707110 0.707104
vn 0.000000 -0.707110 0.707104
vn 0.000000 -0.707108 -0.707106
vn 0.000000 -0.707108 -0.707106
vn 0.000000 -0.707109 0.707104
vn 0.000000 -0.707109 0.707104
vn 0.000000 -0.707108 -0.707106
vn 0.000000 -0.707108 -0.707106
vn 0.000000 -0.707110 0.707104
vn 0.000000 -0.707110 0.707104
vn 0.060731 -0.702785 -0.708805
vn 0.060999 -0.702760 -0.708807
vn 0.060998 -0.702761 0.708806
vn 0.060730 -0.702786 0.708804
vn 0.710630 -0.648440 -0.273002
vn 0.694643 -0.655738 -0.295768
vn 0.702550 -0.684825 0.193492
vn 0.748762 -0.655236 0.100112
vn -0.332181 -0.928385 -0.166602
vn -0.077858 -0.981289 -0.176096
vn -0.073385 -0.981623 -0.176156
vn -0.332181 -0.928385 -0.166602
vn 0.000000 -0.984277 -0.176633
vn 0.000000 -0.984277 -0.176633
vn 0.000000 -0.984277 -0.176633
vn 0.000000 -0.984277 -0.176633
vn 0.000000 -0.984277 -0.176633
vn 0.000000 -0.984277 -0.176633
vn 0.077858 -0.981289 -0.176096
vn 0.073385 -0.981623 -0.176156
vn 0.332181 -0.928385 -0.166602
vn 0.332181 -0.928385 -0.166602
vn 0.000000 -0.000000 -1.000000
vn 0.000002 0.000000 -1.000000
vn 0.000000 0.000000 1.000000
vn 0.000001 0.000000 1.000000
vn 0.000001 0.000000 1.000000
vn 0.000000 0.000000 1.000000
vn -1.000000 0.000000 0.000000
vn -1.000000 0.000000 0.000000
vn -0.000000 -0.000001 -1.000000
vn -0.000000 0.000000 1.000000
vn -0.000000 0.000000 1.000000
vn 0.000000 -0.000002 -1.000000
vn 0.000000 0.000000 1.000000
vn 0.000000 0.000000 1.000000
vn 0.000000 -0.000001 -1.000000
vn 0.000000 0.000000 1.000000
vn 0.000000 0.000000 1.000000
vn -0.000000 -0.000000 -1.000000
vn -0.000000 0.000000 1.000000
vn -0.000000 0.000000 1.000000
vn -0.000002 0.000000 -1.000000
vn 1.000000 0.000000 0.000000
vn 1.000000 0.000000 0.000000
vn -0.000001 0.000000 1.000000
vn -0.000001 0.000000 1.000000
vn 0.000000 -0.000000 1.000000
vn 0.000000 -0.000000 1.000000
vn 0.000000 -0.000000 1.000000
vn 0.000000 -0.000000 1.000000
vn 0.000000 0.000000 1.000000
vn 0.000000 0.000000 1.000000
vn 0.000000 0.000000 1.000000
vn 0.000000 0.000000 1.000000
vn 0.000000 0.000000 1.000000
vn 0.000000 0.000000 1.000000
vn 0.000000 0.000000 1.000000
vn 0.000000 0.000000 1.000000
vn -0.000000 -0.000000 1.000000
vn -0.000000 -0.000000 1.000000
vn -0.000000 -0.000000 1.000000
vn -0.000000 -0.000000 1.000000
vn -0.000000 0.000000 1.000000
vn -0.000000 0.000000 1.000000
vn -0.000000 0.000000 1.000000
vn -0.000000 0.000000 1.000000
vn 0.000000 0.000000 1.000000
vn 0.000000 0.000000 1.000000
vn 0.000000 0.000000 1.000000
vn 0.000000 0.000000 1.000000
vn -0.000000 0.000000 1.000000
vn -0.000000 0.000000 1.000000
vn -0.000000 0.000000 1.000000
vn -0.000000 0.000000 1.000000
vn 0.000000 0.000000 1.000000
vn 0.000000 0.000000 1.000000
vn 0.000000 0.000000 1.000000
vn 0.000000 0.000000 1.000000
vn -0.000000 0.000000 1.000000
vn -0.000000 0.000000 1.000000
vn -0.000000 0.000000 1.000000
vn -0.000000 0.000000 1.000000
vn 0.000000 0.000000 1.000000
vn 0.000000 0.000000 1.000000
vn 0.000000 0.000000 1.000000
vn 0.000000 0.000000 1.000000
vn 0.000000 0.000000 1.000000
vn 0.000000 0.000000 1.000000
vn 0.000000 0.000000 1.000000
vn 0.000000 0.000000 1.000000
vn 0.000000 0.000000 1.000000
vn 0.000000 0.000000 1.000000
vn 0.000000 0.000000 1.000000
vn 0.000000 0.000000 1.000000
vn -0.866026 -0.500000 0.000000
vn -0.500000 -0.866025 -0.000001
vn -0.500000 -0.866025 -0.000001
vn -0.866026 -0.500000 0.000000
vn 0.000000 -1.000000 -0.000001
vn 0.000000 -1.000000 -0.000001
vn 0.500000 -0.866025 -0.000001
vn 0.500000 -0.866025 -0.000001
vn 0.866026 -0.500000 0.000000
vn 0.866026 -0.500000 0.000000
vn 1.000000 0.000000 0.000000
vn 1.000000 0.000000 0.000000
vn 0.866026 0.500000 0.000000
vn 0.866026 0.500000 0.000000
vn 0.500000 0.866026 0.000000
vn 0.500000 0.866025 0.000000
vn 0.000000 1.000000 0.000000
vn 0.000000 1.000000 0.000000
vn -0.500000 0.866026 0.000000
vn -0.500000 0.866025 0.000000
vn -0.866026 0.500000 0.000000
vn -0.866026 0.500000 0.000000
vn -1.000000 0.000000 0.000000
vn -1.000000 0.000000 0.000000
vn -0.353444 0.612184 0.707325
vn -0.612184 0.353444 0.707325
vn -0.612184 0.353445 0.707325
vn -0.353444 0.612184 0.707325
vn 0.000000 0.706889 0.707325
vn 0.000000 0.706889 0.707325
vn 0.353445 0.612184 0.707325
vn 0.353445 0.612184 0.707325
vn 0.612184 0.353444 0.707325
vn 0.612184 0.353444 0.707325
vn 0.706889 -0.000000 0.707325
vn 0.706889 -0.000000 0.707325
vn 0.612184 -0.353444 0.707325
vn 0.612184 -0.353445 0.707325
vn 0.353445 -0.612184 0.707324
vn 0.353445 -0.612184 0.707324
vn 0.000000 -0.706890 0.707324
vn 0.000000 -0.706890 0.707324
vn -0.353445 -0.612184 0.707324
vn -0.353445 -0.612184 0.707324
vn -0.612184 -0.353444 0.707325
vn -0.612184 -0.353444 0.707325
vn -0.706889 0.000000 0.707325
vn -0.706889 0.000000 0.707325
f 3/3/1 4/4/2 6/6/3 5/5/4
f 5/5/5 6/6/6 2/8/7 1/7/8
f 2/2/9 6/9/10 4/10/11
f 5/11/12 1/1/13 3/12/14
f 7/13/15 8/14/16 37/15/17 38/16/18
f 8/14/16 9/17/19 36/18/20 37/15/17
f 9/17/19 10/19/21 35/20/22 36/18/20
f 10/19/21 11/21/23 34/22/24 35/20/22
f 11/21/23 12/23/25 33/24/26 34/22/24
f 18/25/27 7/13/15 38/16/18 39/26/28
f 8/27/29 7/28/30 31/29/31
f 9/30/32 8/27/29 31/29/31
f 10/31/33 9/30/32 31/29/31
f 11/32/34 10/31/33 31/29/31
f 12/33/35 11/32/34 31/29/31
f 13/34/36 12/33/35 31/29/31
f 14/35/37 13/34/36 31/29/31
f 15/36/38 14/35/37 31/29/31
f 16/37/39 15/36/38 31/29/31
f 17/38/40 16/37/39 31/29/31
f 18/39/41 17/38/40 31/29/31
f 7/28/30 18/39/41 31/29/31
f 33/52/26 32/53/42 106/163/43 107/164/44
f 34/56/24 33/52/26 107/164/44 96/153/45
f 35/58/22 34/56/24 96/153/45 97/154/46
f 36/60/20 35/58/22 97/154/46 98/155/47
f 37/62/17 36/60/20 98/155/47 99/156/48
f 38/64/18 37/62/17 99/156/48 100/157/49
f 39/66/28 38/64/18 100/157/49 101/158/50
f 40/68/51 39/66/28 101/158/50 102/159/52
f 41/70/53 40/68/51 102/159/52 103/160/54
f 42/72/55 41/70/53 103/160/54 104/161/56
f 43/74/57 42/72/55 104/161/56 105/162/58
f 32/53/42 43/74/57 105/162/58 106/163/43
f 44/76/59 45/77/60 50/78/61 51/79/62
f 45/80/60 44/81/59 47/82/63 46/83/64
f 46/83/64 47/82/63 53/84/65 52/85/66
f 48/86/67 49/87/68 55/88/69 54/89/70
f 49/87/68 48/86/67 51/90/62 50/91/61
f 52/85/66 53/84/65 57/92/71 56/93/72
f 54/89/70 55/88/69 59/94/73 58/95/74
f 56/93/72 57/92/71 61/96/75 60/97/76
f 58/95/74 59/94/73 63/98/77 62/99/78
f 60/97/76 61/96/75 65/100/79 64/101/80
f 62/99/78 63/98/77 67/102/81 66/103/82
f 64/101/80 65/100/79 69/104/83 68/105/84
f 66/103/82 67/102/81 70/106/85 71/107/86
f 68/108/84 69/109/83 71/110/86 70/111/85
f 45/77/87 46/112/88 49/113/89 50/78/90
f 46/112/88 52/114/91 55/115/92 49/113/89
f 52/114/91 56/116/93 59/117/94 55/115/92
f 56/116/93 60/118/95 63/119/96 59/117/94
f 60/118/95 64/120/97 67/121/98 63/119/96
f 64/120/97 68/108/99 70/111/100 67/121/98
f 12/33/35 13/34/36 47/82/101 44/81/102
f 32/122/103 33/123/104 51/90/105 48/86/106
f 33/24/26 12/23/25 44/76/107 51/79/108
f 13/34/36 14/35/37 53/84/109 47/82/101
f 43/124/110 32/122/103 48/86/106 54/89/111
f 14/35/37 15/36/38 57/92/112 53/84/109
f 42/125/113 43/124/110 54/89/111 58/95/114
f 15/36/38 16/37/39 61/96/115 57/92/112
f 41/126/116 42/125/113 58/95/114 62/99/117
f 16/37/39 17/38/40 65/100/118 61/96/115
f 40/127/119 41/126/116 62/99/117 66/103/120
f 17/38/40 18/39/41 69/104/121 65/100/118
f 18/25/27 39/26/28 71/110/122 69/109/123
f 39/128/124 40/127/119 66/103/120 71/107/125
f 19/129/126 20/130/127 73/131/128 72/132/129
f 20/130/130 21/133/131 74/134/132 73/131/133
f 21/133/134 22/135/135 75/136/136 74/134/137
f 22/135/138 23/137/139 76/138/140 75/136/141
f 23/137/142 24/139/143 77/140/144 76/138/145
f 24/139/146 25/141/147 78/142/148 77/140/149
f 25/141/150 26/143/151 79/144/152 78/142/153
f 26/143/154 27/145/155 80/146/156 79/144/157
f 27/145/158 28/147/159 81/148/160 80/146/161
f 28/147/162 29/149/163 82/150/164 81/148/165
f 29/149/166 30/151/167 83/152/168 82/150/169
f 30/151/170 19/129/171 72/132/172 83/152/173
f 72/132/174 73/131/175 85/41/176 84/40/177
f 73/131/175 74/134/178 86/42/179 85/41/176
f 74/134/178 75/136/180 87/43/181 86/42/179
f 75/136/180 76/138/182 88/44/183 87/43/181
f 76/138/182 77/140/184 89/45/185 88/44/183
f 77/140/184 78/142/186 90/46/187 89/45/185
f 78/142/186 79/144/188 91/47/189 90/46/187
f 79/144/188 80/146/190 92/48/191 91/47/189
f 80/146/190 81/148/192 93/49/193 92/48/191
f 81/148/192 82/150/194 94/50/195 93/49/193
f 82/150/194 83/152/196 95/51/197 94/50/195
f 83/152/196 72/132/174 84/40/177 95/51/197
f 97/154/198 96/153/199 23/57/200 22/59/201
f 98/155/202 97/154/198 22/59/201 21/61/203
f 99/156/204 98/155/202 21/61/203 20/63/205
f 100/157/206 99/156/204 20/63/205 19/65/207
f 101/158/208 100/157/206 19/65/207 30/67/209
f 102/159/210 101/158/208 30/67/209 29/69/211
f 103/160/212 102/159/210 29/69/211 28/71/213
f 104/161/214 103/160/212 28/71/213 27/73/215
f 105/162/216 104/161/214 27/73/215 26/75/217
f 106/163/218 105/162/216 26/75/217 25/54/219
f 107/164/220 106/163/218 25/54/219 24/55/221
f 96/153/199 107/164/220 24/55/221 23/57/200
