# This file uses meters as units for non-parametric coordinates.

v -0.296157 -0.882635 5.309494
v 0.296157 -0.882635 5.309494
v -0.296157 2.468098 5.309494
v 0.296157 2.468098 5.309494
v 0.000000 2.636666 5.309494
v 0.000000 -1.051205 5.309494
vt 0.594558 0.132818
vt 0.594558 0.132818
vt 0.514353 0.132818
vt 0.514353 0.132818
vt 0.514353 0.172920
vt 0.594558 0.172920
vn 0.000000 0.000000 1.000000
vn 0.000000 0.000000 1.000000
vn 0.000000 0.000000 1.000000
vn 0.000000 0.000000 1.000000
vn -0.000000 0.000000 1.000000
vn -0.000000 0.000000 1.000000
f 6/6/1 2/2/2 4/4/3 5/5/4
f 1/1/5 6/6/1 5/5/4 3/3/6
