# This file uses meters as units for non-parametric coordinates.

v -0.189818 -0.603784 0.653120
v 0.189818 -0.603784 0.653120
v -0.189818 2.919859 0.653120
v 0.189818 2.919859 0.653120
v 0.000000 3.035172 0.653120
v 0.000000 -0.719097 0.653120
vt 0.398974 0.916638
vt 0.398974 0.916638
vt 0.381611 0.916638
vt 0.381611 0.916638
vt 0.381611 0.931115
vt 0.398974 0.931115
vn 0.000000 0.000000 1.000000
vn 0.000000 0.000000 1.000000
vn 0.000000 0.000000 1.000000
vn 0.000000 0.000000 1.000000
vn 0.000000 0.000000 1.000000
vn 0.000000 0.000000 1.000000
f 6/6/1 2/2/2 4/4/3 5/5/4
f 1/1/5 6/6/1 5/5/4 3/3/6
