# This file uses meters as units for non-parametric coordinates.

v 6.848362 2.225174 2.151371
v 5.825565 4.232521 2.151371
v 4.232525 5.825569 2.151371
v 2.225170 6.848366 2.151371
v -0.000001 7.200798 2.151371
v -2.225171 6.848366 2.151371
v -4.232523 5.825569 2.151371
v -5.825565 4.232521 2.151371
v -6.848362 2.225174 2.151371
v -7.200798 0.000000 2.151372
v -6.848362 -2.225166 2.151372
v -5.825565 -4.232521 2.151371
v -4.232523 -5.825562 2.151371
v -2.225171 -6.848358 2.151371
v -0.000001 -7.200798 2.151371
v 2.225167 -6.848358 2.151371
v 4.232521 -5.825562 2.151371
v 5.825565 -4.232521 2.151371
v 6.848358 -2.225166 2.151372
v 7.200794 0.000000 2.151372
v 7.254944 2.357277 2.338852
v 6.171425 4.483810 2.338852
v 4.483807 6.171425 2.338852
v 2.357277 7.254944 2.338852
v -0.000001 7.628304 2.338852
v -2.357277 7.254944 2.338852
v -4.483807 6.171425 2.338852
v -6.171425 4.483803 2.338852
v -7.254944 2.357277 2.338852
v -7.628304 0.000000 2.338852
v -7.254944 -2.357277 2.338852
v -6.171425 -4.483803 2.338852
v -4.483805 -6.171425 2.338852
v -2.357277 -7.254944 2.338852
v -0.000001 -7.628304 2.338852
v 2.357275 -7.254944 2.338852
v 4.483803 -6.171425 2.338852
v 6.171425 -4.483803 2.338852
v 7.254944 -2.357277 2.338852
v 7.628300 0.000000 2.338852
v 5.825565 4.232521 0.236313
v 6.848362 2.225174 0.236311
v 4.232525 5.825569 0.236313
v 2.225170 6.848366 0.236313
v -0.000001 7.200798 0.236313
v -2.225171 6.848366 0.236313
v -4.232523 5.825569 0.236313
v -5.825565 4.232521 0.236313
v -6.848362 2.225174 0.236311
v -7.200798 0.000000 0.236311
v -6.848362 -2.225166 0.236311
v -5.825565 -4.232521 0.236313
v -4.232523 -5.825565 0.236313
v -2.225171 -6.848358 0.236313
v -0.000001 -7.200794 0.236313
v 2.225167 -6.848358 0.236313
v 4.232521 -5.825565 0.236313
v 5.825565 -4.232521 0.236313
v 6.848358 -2.225166 0.236311
v 7.200794 0.000000 0.236311
vt 0.696851 0.074754
vt 0.651855 0.074754
vt 0.651855 0.074754
vt 0.696851 0.074754
vt 0.696851 0.074754
vt 0.696851 0.074754
vt 0.651855 0.074754
vt 0.651855 0.074754
vt 0.696851 0.074754
vt 0.696851 0.074754
vt 0.651854 0.074754
vt 0.651854 0.074754
vt 0.696850 0.074754
vt 0.696850 0.074754
vt 0.651855 0.074754
vt 0.651855 0.074754
vt 0.696851 0.074754
vt 0.696851 0.074754
vt 0.651855 0.074754
vt 0.651855 0.074754
vt 0.696851 0.074754
vt 0.696851 0.074754
vt 0.651855 0.074754
vt 0.651855 0.074754
vt 0.696851 0.074754
vt 0.696851 0.074754
vt 0.651855 0.074754
vt 0.651855 0.074754
vt 0.696851 0.074754
vt 0.696851 0.074754
vt 0.651855 0.074754
vt 0.651855 0.074754
vt 0.696851 0.074754
vt 0.696851 0.074754
vt 0.651855 0.074754
vt 0.651855 0.074754
vt 0.696851 0.074754
vt 0.696851 0.074754
vt 0.651855 0.074754
vt 0.651855 0.074754
vt 0.651855 0.119750
vt 0.696851 0.119750
vt 0.696851 0.119750
vt 0.651855 0.119750
vt 0.696851 0.119750
vt 0.651854 0.119750
vt 0.696850 0.119750
vt 0.651855 0.119750
vt 0.696851 0.119750
vt 0.651855 0.119750
vt 0.696851 0.119750
vt 0.651855 0.119750
vt 0.696851 0.119750
vt 0.651855 0.119750
vt 0.696851 0.119750
vt 0.651855 0.119750
vt 0.696851 0.119750
vt 0.651855 0.119750
vt 0.696851 0.119750
vt 0.651855 0.119750
vt 0.651854 0.119750
vt 0.651854 0.074754
vt 0.651855 0.119750
vt 0.696851 0.119750
vt 0.651855 0.119750
vt 0.696851 0.119750
vt 0.696851 0.119750
vt 0.651855 0.119750
vt 0.651855 0.119750
vt 0.696851 0.119750
vt 0.651855 0.119750
vt 0.696851 0.119750
vt 0.696851 0.119750
vt 0.651855 0.119750
vt 0.651854 0.119750
vt 0.696851 0.119750
vt 0.651855 0.119750
vt 0.696850 0.119750
vt 0.696851 0.119750
vt 0.651854 0.074754
vt 0.651854 0.119750
vt 0.651855 0.119750
vt 0.651855 0.119750
vt 0.696851 0.119750
vn -0.381966 -0.124108 0.915806
vn -0.324919 -0.236068 0.915806
vn -0.324919 -0.236067 0.915806
vn -0.381965 -0.124108 0.915806
vn -0.236069 -0.324920 0.915805
vn -0.236068 -0.324920 0.915805
vn -0.124109 -0.381968 0.915804
vn -0.124109 -0.381969 0.915804
vn -0.000000 -0.401625 0.915805
vn -0.000000 -0.401625 0.915805
vn 0.124109 -0.381968 0.915804
vn 0.124109 -0.381968 0.915804
vn 0.236069 -0.324921 0.915805
vn 0.236069 -0.324921 0.915805
vn 0.324920 -0.236068 0.915805
vn 0.324920 -0.236068 0.915805
vn 0.381966 -0.124108 0.915805
vn 0.381966 -0.124109 0.915805
vn 0.401622 0.000000 0.915806
vn 0.401622 0.000000 0.915806
vn 0.381964 0.124108 0.915806
vn 0.381964 0.124108 0.915806
vn 0.324918 0.236067 0.915806
vn 0.324918 0.236067 0.915806
vn 0.236067 0.324918 0.915806
vn 0.236067 0.324918 0.915806
vn 0.124108 0.381964 0.915806
vn 0.124108 0.381964 0.915806
vn 0.000000 0.401621 0.915806
vn 0.000000 0.401621 0.915806
vn -0.124108 0.381964 0.915806
vn -0.124108 0.381964 0.915806
vn -0.236066 0.324918 0.915806
vn -0.236067 0.324918 0.915806
vn -0.324918 0.236067 0.915806
vn -0.324918 0.236067 0.915806
vn -0.381963 0.124108 0.915807
vn -0.381963 0.124107 0.915807
vn -0.401621 0.000000 0.915806
vn -0.401621 0.000000 0.915806
vn -0.951057 -0.309017 0.000000
vn -0.809017 -0.587785 0.000000
vn -0.809017 -0.587785 0.000000
vn -0.951057 -0.309017 0.000000
vn -0.587786 -0.809017 0.000000
vn -0.587786 -0.809017 0.000000
vn -0.309017 -0.951057 0.000000
vn -0.309017 -0.951057 0.000000
vn 0.000000 -1.000000 0.000000
vn 0.000000 -1.000000 0.000000
vn 0.309017 -0.951057 0.000000
vn 0.309017 -0.951057 0.000000
vn 0.587786 -0.809016 0.000000
vn 0.587786 -0.809016 0.000000
vn 0.809017 -0.587785 0.000000
vn 0.809017 -0.587785 0.000000
vn 0.951056 -0.309018 0.000000
vn 0.951056 -0.309018 0.000000
vn 1.000000 0.000000 0.000000
vn 1.000000 0.000000 0.000000
vn 0.951056 0.309018 0.000000
vn 0.951056 0.309018 0.000000
vn 0.809017 0.587785 -0.000000
vn 0.809017 0.587785 -0.000000
vn 0.587785 0.809017 -0.000001
vn 0.587785 0.809017 -0.000001
vn 0.309018 0.951056 0.000000
vn 0.309018 0.951056 0.000000
vn -0.000000 1.000000 0.000001
vn 0.000000 1.000000 0.000001
vn -0.309018 0.951056 0.000000
vn -0.309018 0.951056 0.000000
vn -0.587785 0.809017 -0.000001
vn -0.587784 0.809018 -0.000001
vn -0.809018 0.587785 -0.000000
vn -0.809018 0.587785 -0.000000
vn -0.951057 0.309017 0.000000
vn -0.951057 0.309017 0.000000
vn -1.000000 0.000001 0.000000
vn -1.000000 0.000001 0.000000
f 21/1/1 22/2/2 2/63/3 1/64/4
f 22/2/2 23/5/5 3/66/6 2/63/3
f 23/5/5 24/7/7 4/69/8 3/66/6
f 24/7/7 25/9/9 5/72/10 4/69/8
f 25/9/9 26/11/11 6/75/12 5/72/10
f 26/11/11 27/13/13 7/78/14 6/75/12
f 27/13/13 28/80/15 8/81/16 7/78/14
f 28/15/15 29/17/17 9/84/18 8/83/16
f 29/17/17 30/19/19 10/82/20 9/84/18
f 30/19/19 31/21/21 11/79/22 10/82/20
f 31/21/21 32/23/23 12/77/24 11/79/22
f 32/23/23 33/25/25 13/76/26 12/77/24
f 33/25/25 34/27/27 14/74/28 13/76/26
f 34/27/27 35/29/29 15/73/30 14/74/28
f 35/29/29 36/31/31 16/71/32 15/73/30
f 36/31/31 37/33/33 17/70/34 16/71/32
f 37/33/33 38/35/35 18/68/36 17/70/34
f 38/35/35 39/37/37 19/67/38 18/68/36
f 39/37/37 40/39/39 20/65/40 19/67/38
f 40/39/39 21/1/1 1/64/4 20/65/40
f 1/4/41 2/3/42 41/41/43 42/42/44
f 2/3/42 3/6/45 43/43/46 41/41/43
f 3/6/45 4/8/47 44/44/48 43/43/46
f 4/8/47 5/10/49 45/45/50 44/44/48
f 5/10/49 6/12/51 46/46/52 45/45/50
f 6/12/51 7/14/53 47/47/54 46/46/52
f 7/14/53 8/62/55 48/61/56 47/47/54
f 8/16/55 9/18/57 49/49/58 48/48/56
f 9/18/57 10/20/59 50/50/60 49/49/58
f 10/20/59 11/22/61 51/51/62 50/50/60
f 11/22/61 12/24/63 52/52/64 51/51/62
f 12/24/63 13/26/65 53/53/66 52/52/64
f 13/26/65 14/28/67 54/54/68 53/53/66
f 14/28/67 15/30/69 55/55/70 54/54/68
f 15/30/69 16/32/71 56/56/72 55/55/70
f 16/32/71 17/34/73 57/57/74 56/56/72
f 17/34/73 18/36/75 58/58/76 57/57/74
f 18/36/75 19/38/77 59/59/78 58/58/76
f 19/38/77 20/40/79 60/60/80 59/59/78
f 20/40/79 1/4/41 42/42/44 60/60/80
