# This file uses meters as units for non-parametric coordinates.

v -0.513286 -2.595143 2.834386
v 0.513286 -2.595143 2.834386
v -0.401053 8.898772 2.834386
v 0.401053 8.898772 2.834386
v 0.000000 9.085278 2.834386
v 0.000000 -2.786719 2.834386
vt 0.480927 0.824191
vt 0.487582 0.824191
vt 0.480927 0.834547
vt 0.487582 0.834547
vt 0.484254 0.834547
vt 0.484254 0.824191
vn 0.000000 0.000000 1.000000
vn 0.000000 0.000000 1.000000
vn 0.000000 0.000000 1.000000
vn 0.000000 0.000000 1.000000
vn 0.000000 0.000000 1.000000
vn 0.000000 0.000000 1.000000
f 6/6/1 2/2/2 4/4/3 5/5/4
f 1/1/5 6/6/1 5/5/4 3/3/6
