# This file uses meters as units for non-parametric coordinates.

v -0.513286 -2.595143 2.717281
v 0.513286 -2.595143 2.717281
v -0.401053 5.540104 2.717281
v 0.401053 5.540104 2.717281
v 0.000000 5.726611 2.717281
v 0.000000 -2.786719 2.717281
vt 0.531684 0.075798
vt 0.562588 0.075798
vt 0.531684 0.106702
vt 0.562588 0.106702
vt 0.547136 0.106702
vt 0.547136 0.075798
vn 0.000000 0.000000 1.000000
vn 0.000000 0.000000 1.000000
vn 0.000000 0.000000 1.000000
vn 0.000000 0.000000 1.000000
vn 0.000000 0.000000 1.000000
vn 0.000000 0.000000 1.000000
f 6/6/1 2/2/2 4/4/3 5/5/4
f 1/1/5 6/6/1 5/5/4 3/3/6
