# This file uses meters as units for non-parametric coordinates.

v 0.000000 0.000000 2.366070
v 11.150711 6.437866 2.366070
v 6.437862 11.150711 2.366074
v 0.000000 12.875736 2.366074
v -6.437862 11.150711 2.366074
v -11.150711 6.437866 2.366070
v -12.875725 0.000000 2.366070
v -11.150711 -6.437866 2.366070
v -6.437862 -11.150711 2.366074
v 0.000000 -12.875732 2.366074
v 6.437862 -11.150711 2.366074
v 11.150711 -6.437866 2.366070
v 12.875725 0.000000 2.366070
vt 0.527252 0.153504
vt 0.563037 0.168998
vt 0.611921 0.131903
vt 0.611921 0.174553
vt 0.562418 0.168680
vt 0.526179 0.152952
vt 0.512915 0.131584
vt 0.526179 0.153388
vt 0.562418 0.168800
vt 0.611921 0.174325
vt 0.563037 0.168483
vt 0.527252 0.152839
vt 0.514154 0.132221
vn 0.000000 -0.000000 1.000000
vn 0.000000 -0.000000 1.000000
vn 0.000000 -0.000000 1.000000
vn 0.000000 -0.000000 1.000000
vn -0.000000 -0.000000 1.000000
vn -0.000000 -0.000000 1.000000
vn 0.000000 0.000000 1.000000
vn -0.000000 0.000000 1.000000
vn -0.000000 0.000000 1.000000
vn 0.000000 0.000000 1.000000
vn 0.000000 0.000000 1.000000
vn 0.000000 0.000000 1.000000
vn 0.000000 0.000000 1.000000
f 2/1/1 3/2/2 1/3/3
f 3/2/2 4/4/4 1/3/3
f 4/4/4 5/5/5 1/3/3
f 5/5/5 6/6/6 1/3/3
f 6/6/6 7/7/7 1/3/3
f 7/7/7 8/8/8 1/3/3
f 8/8/8 9/9/9 1/3/3
f 9/9/9 10/10/10 1/3/3
f 10/10/10 11/11/11 1/3/3
f 11/11/11 12/12/12 1/3/3
f 12/12/12 13/13/13 1/3/3
f 13/13/13 2/1/1 1/3/3
