# This file uses meters as units for non-parametric coordinates.

v 6.848362 2.225174 0.236311
v 5.825565 4.232521 0.236313
v -0.000001 0.000000 0.236311
v 4.232525 5.825569 0.236313
v 2.225170 6.848366 0.236313
v -0.000001 7.200798 0.236313
v -2.225171 6.848366 0.236313
v -4.232523 5.825569 0.236313
v -5.825565 4.232521 0.236313
v -6.848362 2.225174 0.236311
v -7.200798 0.000000 0.236311
v -6.848362 -2.225166 0.236311
v -5.825565 -4.232521 0.236313
v -4.232523 -5.825565 0.236313
v -2.225171 -6.848358 0.236313
v -0.000001 -7.200794 0.236313
v 2.225167 -6.848358 0.236313
v 4.232521 -5.825565 0.236313
v 5.825565 -4.232521 0.236313
v 6.848358 -2.225166 0.236311
v 7.200794 0.000000 0.236311
vt 0.400613 0.925458
vt 0.398887 0.928845
vt 0.389059 0.921219
vt 0.396200 0.931532
vt 0.392813 0.933258
vt 0.389059 0.933853
vt 0.385305 0.933258
vt 0.381919 0.931532
vt 0.379231 0.928845
vt 0.377506 0.925458
vt 0.376911 0.921704
vt 0.377506 0.917950
vt 0.379231 0.914564
vt 0.381919 0.911876
vt 0.385305 0.910151
vt 0.389059 0.909556
vt 0.392813 0.910151
vt 0.396200 0.911876
vt 0.398887 0.914564
vt 0.400613 0.917950
vt 0.401207 0.921704
vn 0.000000 -0.000000 1.000000
vn 0.000000 -0.000000 1.000000
vn 0.000000 0.000000 1.000000
vn -0.000000 -0.000000 1.000000
vn -0.000000 -0.000000 1.000000
vn 0.000000 -0.000000 1.000000
vn 0.000000 -0.000000 1.000000
vn 0.000000 -0.000000 1.000000
vn -0.000000 -0.000000 1.000000
vn -0.000000 -0.000000 1.000000
vn 0.000000 0.000000 1.000000
vn -0.000000 0.000000 1.000000
vn -0.000000 0.000000 1.000000
vn 0.000000 0.000000 1.000000
vn 0.000000 0.000000 1.000000
vn 0.000000 0.000000 1.000000
vn -0.000000 0.000000 1.000000
vn -0.000000 0.000000 1.000000
vn 0.000000 0.000000 1.000000
vn 0.000000 0.000000 1.000000
vn 0.000000 0.000000 1.000000
f 1/1/1 2/2/2 3/3/3
f 2/2/2 4/4/4 3/3/3
f 4/4/4 5/5/5 3/3/3
f 5/5/5 6/6/6 3/3/3
f 6/6/6 7/7/7 3/3/3
f 7/7/7 8/8/8 3/3/3
f 8/8/8 9/9/9 3/3/3
f 9/9/9 10/10/10 3/3/3
f 10/10/10 11/11/11 3/3/3
f 11/11/11 12/12/12 3/3/3
f 12/12/12 13/13/13 3/3/3
f 13/13/13 14/14/14 3/3/3
f 14/14/14 15/15/15 3/3/3
f 15/15/15 16/16/16 3/3/3
f 16/16/16 17/17/17 3/3/3
f 17/17/17 18/18/18 3/3/3
f 18/18/18 19/19/19 3/3/3
f 19/19/19 20/20/20 3/3/3
f 20/20/20 21/21/21 3/3/3
f 21/21/21 1/1/1 3/3/3
