# This file uses meters as units for non-parametric coordinates.

v -16.380459 13.742613 6.709252
v -13.955577 16.167494 6.709252
v -16.380459 13.742613 -6.709252
v -13.955577 16.167494 -6.709252
v 13.955577 16.167494 6.709252
v 16.380459 13.742613 6.709252
v 13.955577 16.167494 -6.709252
v 16.380459 13.742613 -6.709252
v -13.955577 0.000000 6.709252
v -16.380459 2.424882 6.709252
v -16.380459 2.424882 -6.709252
v -13.955577 0.000000 -6.709252
v 13.955577 0.000000 6.709252
v 16.380459 2.424882 6.709252
v 13.955577 0.000000 -6.709252
v 16.380459 2.424882 -6.709252
vt 0.763394 0.654298
vt 0.770742 0.639970
vt 0.763394 0.721367
vt 0.855315 0.640167
vt 0.862663 0.654495
vt 0.862663 0.721367
vt 0.770742 0.640167
vt 0.855315 0.735497
vt 0.764287 0.641388
vt 0.862745 0.736136
vt 0.763394 0.721170
vt 0.764287 0.736136
vt 0.862663 0.654298
vt 0.862745 0.736136
vt 0.855315 0.735695
vt 0.862745 0.641388
vt 0.770742 0.735497
vt 0.763394 0.654495
vt 0.862663 0.721170
vt 0.764287 0.736136
vt 0.862745 0.641388
vt 0.770742 0.735695
vt 0.855315 0.639970
vt 0.862745 0.736136
vt 0.764287 0.736136
vt 0.764287 0.736136
vt 0.862745 0.736136
vt 0.862745 0.641388
vt 0.764287 0.641388
vt 0.862745 0.641388
vt 0.764287 0.641388
vt 0.764287 0.641388
vn 0.079680 0.996821 0.000000
vn -0.079680 0.996821 0.000000
vn -0.079680 0.996821 0.000000
vn 0.079680 0.996821 0.000000
vn 0.079680 -0.996821 0.000000
vn -0.079680 -0.996821 0.000000
vn -0.079680 -0.996821 0.000000
vn 0.079680 -0.996821 0.000000
vn 0.984787 -0.173766 0.000000
vn 0.984787 -0.173766 0.000000
vn 0.984787 0.173766 0.000000
vn 0.984787 0.173766 0.000000
vn -0.984787 -0.173766 0.000000
vn -0.984787 -0.173766 0.000000
vn -0.984787 0.173766 0.000000
vn -0.984787 0.173766 0.000000
vn 0.000000 0.000000 -1.000000
vn 0.000000 0.000000 -1.000000
vn 0.000000 0.000000 -1.000000
vn 0.000000 0.000000 -1.000000
vn 0.000000 0.000000 -1.000000
vn 0.000000 0.000000 -1.000000
vn 0.000000 0.000000 -1.000000
vn 0.000000 0.000000 -1.000000
vn 0.000000 0.000000 1.000000
vn 0.000000 0.000000 1.000000
vn 0.000000 0.000000 1.000000
vn 0.000000 0.000000 1.000000
vn 0.000000 0.000000 1.000000
vn 0.000000 0.000000 1.000000
vn 0.000000 0.000000 1.000000
vn 0.000000 0.000000 1.000000
f 7/20/1 4/27/2 2/28/3 5/29/4
f 13/16/5 9/9/6 12/26/7 15/24/8
f 14/31/9 16/25/10 8/14/11 6/30/12
f 11/10/13 10/21/14 1/32/15 3/12/16
f 15/15/17 12/22/18 16/6/19
f 16/6/19 12/22/18 8/5/20
f 12/22/18 11/3/21 8/5/20
f 11/3/21 3/18/22 8/5/20
f 3/18/22 4/7/23 8/5/20
f 4/7/23 7/4/24 8/5/20
f 5/8/25 2/17/26 6/19/27
f 6/19/27 2/17/26 14/13/28
f 2/17/26 1/11/29 14/13/28
f 1/11/29 10/1/30 14/13/28
f 10/1/30 9/2/31 14/13/28
f 9/2/31 13/23/32 14/13/28
f 1/32/15 2/28/3 4/27/2 3/12/16
f 5/29/4 6/30/12 8/14/11 7/20/1
f 9/9/6 10/21/14 11/10/13 12/26/7
f 14/31/9 13/16/5 15/24/8 16/25/10
