# This file uses meters as units for non-parametric coordinates.

v 12.513085 13.969292 -3.059724
v 12.513085 11.882990 -5.819939
v 12.513085 8.633497 -8.010458
v 12.513085 4.538897 -9.416859
v 12.513085 -0.000000 -9.901471
v 12.513085 -0.000000 9.901467
v 12.513085 4.538895 9.416855
v 12.513085 8.633491 8.010455
v 12.513085 11.882983 5.819937
v 12.513085 13.969279 3.059722
v 12.513085 13.969279 0.000000
v -12.513085 13.969292 -3.059724
v -12.513085 11.882990 -5.819939
v -12.513085 8.633497 -8.010458
v -12.513085 4.538897 -9.416859
v -12.513085 0.000000 -9.901471
v -12.513085 -0.000000 9.901467
v -12.513085 4.538895 9.416855
v -12.513085 8.633491 8.010455
v -12.513085 11.882983 5.819937
v -12.513085 13.969279 3.059722
v -12.513085 13.969279 0.000000
v 9.437227 13.969292 2.030677
v 9.437227 13.969279 -0.000000
v -9.437227 13.969279 -0.000000
v -9.437227 13.969292 2.030677
v 9.437227 13.969292 -2.030679
v -9.437227 13.969292 -2.030679
v 9.437227 8.053271 2.030677
v 9.437227 8.058563 -0.000000
v -9.437227 8.058563 -0.000000
v -9.437227 8.053271 2.030677
v 9.437227 8.053271 -2.030679
v -9.437227 8.053271 -2.030679
v 13.116146 -0.000001 9.532232
v 13.116146 -0.000000 -9.532235
v 13.116146 4.538895 9.065694
v 13.116146 8.633491 7.711739
v 13.116146 11.249172 5.602907
v 13.116146 13.335469 2.945622
v 13.116146 13.335469 -0.000000
v 13.116146 13.335480 -2.945624
v 13.116146 4.538897 -9.065697
v 13.116146 8.633496 -7.711743
v 13.116146 11.249177 -5.602909
v -13.116146 -0.000000 9.532232
v -13.116146 -0.000000 -9.532235
v -13.116146 4.538897 -9.065697
v -13.116146 4.538895 9.065694
v -13.116146 8.633491 7.711739
v -13.116146 11.249172 5.602907
v -13.116146 13.335469 2.945622
v -13.116146 13.335469 -0.000000
v -13.116146 13.335481 -2.945624
v -13.116146 11.249178 -5.602909
v -13.116146 8.633494 -7.711743
vt 0.865576 0.659656
vt 0.766384 0.659676
vt 0.863149 0.683232
vt 0.856104 0.704502
vt 0.845132 0.718090
vt 0.831306 0.728930
vt 0.815980 0.728933
vt 0.800654 0.728936
vt 0.768811 0.683251
vt 0.775856 0.704518
vt 0.786828 0.718102
vt 0.765908 0.651728
vt 0.865100 0.651708
vt 0.768335 0.675303
vt 0.862673 0.675284
vt 0.855628 0.696554
vt 0.844656 0.710142
vt 0.830830 0.720982
vt 0.815504 0.720985
vt 0.800178 0.720988
vt 0.768381 0.651960
vt 0.853303 0.651960
vt 0.768381 0.651960
vt 0.853303 0.651960
vt 0.853303 0.651960
vt 0.853303 0.651960
vt 0.786352 0.710154
vt 0.775380 0.696570
vt 0.867486 0.659472
vt 0.764452 0.659493
vt 0.864965 0.683049
vt 0.857647 0.704319
vt 0.846250 0.721199
vt 0.831889 0.732039
vt 0.815969 0.732042
vt 0.800049 0.732045
vt 0.766973 0.683069
vt 0.774291 0.704335
vt 0.785688 0.721212
vt 0.763997 0.651911
vt 0.867032 0.651890
vt 0.766519 0.675486
vt 0.864510 0.675466
vt 0.857193 0.696736
vt 0.845796 0.713617
vt 0.831434 0.724456
vt 0.815515 0.724460
vt 0.799595 0.724463
vt 0.785234 0.713629
vt 0.853303 0.736881
vt 0.768381 0.736881
vt 0.773836 0.696753
vt 0.853303 0.736881
vt 0.768381 0.736881
vt 0.853303 0.736881
vt 0.853303 0.736881
vt 0.855510 0.716123
vt 0.855655 0.653030
vt 0.764990 0.653030
vt 0.765297 0.715901
vt 0.768381 0.651960
vt 0.855574 0.715901
vt 0.764909 0.715901
vt 0.768381 0.736881
vt 0.768381 0.651960
vt 0.855492 0.653030
vt 0.764828 0.653030
vt 0.768381 0.736881
vt 0.853303 0.651960
vt 0.855411 0.715901
vt 0.764746 0.715901
vt 0.768381 0.651960
vt 0.856082 0.655948
vt 0.856001 0.722198
vt 0.765336 0.722198
vt 0.765417 0.655948
vt 0.768381 0.736881
vt 0.855919 0.655948
vt 0.765255 0.655948
vt 0.853303 0.736881
vt 0.853303 0.651960
vt 0.855838 0.722198
vt 0.765174 0.722198
vt 0.768381 0.651960
vt 0.768381 0.736881
vt 0.855531 0.655948
vt 0.765318 0.655726
vt 0.853303 0.736881
vt 0.853303 0.736881
vt 0.768381 0.736881
vt 0.768381 0.651960
vt 0.853303 0.651960
vt 0.853303 0.736881
vt 0.768381 0.736881
vt 0.768381 0.651960
vt 0.853303 0.651960
vt 0.776559 0.705810
vt 0.844256 0.705977
vt 0.776566 0.685842
vt 0.776573 0.665873
vt 0.765534 0.685815
vt 0.844270 0.666040
vt 0.844263 0.686008
vt 0.855295 0.686035
vt 0.764665 0.653030
vt 0.855330 0.653030
vn 0.000000 0.797755 -0.602981
vn 0.000000 0.680161 -0.733063
vn 0.000000 0.680161 -0.733063
vn 0.000000 0.797755 -0.602981
vn 0.000000 0.439849 -0.898072
vn 0.000000 0.439849 -0.898072
vn 0.000000 0.213960 -0.976842
vn 0.000000 0.213960 -0.976842
vn 0.000000 0.106165 -0.994349
vn 0.000000 0.106165 -0.994349
vn 0.000000 0.106165 0.994349
vn 0.000000 0.213960 0.976842
vn 0.000000 0.213960 0.976842
vn 0.000000 0.106165 0.994349
vn 0.000000 0.439849 0.898072
vn 0.000000 0.439849 0.898072
vn 0.000000 0.680161 0.733063
vn 0.000000 0.680161 0.733063
vn 0.000000 0.797756 0.602980
vn 0.000000 0.797756 0.602980
vn 0.000000 0.999997 0.002606
vn 0.000000 1.000000 0.000000
vn 0.000000 1.000000 0.000000
vn 0.000000 0.999997 0.002606
vn 0.000000 0.999997 -0.002606
vn 0.000000 0.999997 -0.002606
vn 1.000000 -0.000000 -0.000000
vn 1.000000 -0.000000 0.000000
vn 1.000000 -0.000000 -0.000000
vn 1.000000 -0.000000 0.000000
vn 1.000000 -0.000000 -0.000000
vn 1.000000 -0.000000 -0.000000
vn 1.000000 -0.000000 -0.000000
vn 1.000000 -0.000000 -0.000000
vn 1.000000 -0.000000 0.000001
vn 1.000000 -0.000000 0.000000
vn 1.000000 -0.000000 0.000000
vn -1.000000 0.000000 0.000000
vn -1.000000 0.000000 0.000000
vn -1.000000 0.000000 0.000000
vn -1.000000 0.000000 -0.000000
vn -1.000000 0.000000 -0.000000
vn -1.000000 0.000000 0.000000
vn -1.000000 0.000000 0.000000
vn -1.000000 0.000000 0.000000
vn -1.000000 0.000000 0.000000
vn -1.000000 0.000000 0.000002
vn -1.000000 0.000000 0.000000
vn -0.000000 -1.000000 -0.000000
vn -0.000000 -1.000000 -0.000000
vn -0.000000 -1.000000 -0.000000
vn -0.000000 -1.000000 -0.000000
vn 0.000002 1.000000 -0.000002
vn 0.000002 1.000000 0.000001
vn 0.000002 1.000000 0.000001
vn 0.000002 1.000000 -0.000002
vn -0.000002 1.000000 0.000001
vn -0.000002 1.000000 -0.000002
vn -0.000002 1.000000 -0.000002
vn -0.000002 1.000000 0.000001
vn 0.000000 1.000000 0.000012
vn 0.000000 1.000000 0.000012
vn 0.000000 1.000000 0.000012
vn 0.000000 1.000000 0.000012
vn 0.000001 1.000000 0.000005
vn 0.000001 1.000000 0.000005
vn 0.000000 1.000000 0.000000
vn 0.000000 1.000000 0.000000
vn 0.000000 1.000000 0.000000
vn 0.000000 1.000000 0.000000
vn -0.000001 1.000000 0.000005
vn -0.000001 1.000000 0.000005
vn -1.000000 0.000000 0.000000
vn -1.000000 0.000000 0.000000
vn -1.000000 0.000000 0.000000
vn -1.000000 0.000000 0.000000
vn 1.000000 -0.000000 0.000000
vn 1.000000 -0.000000 0.000000
vn 1.000000 -0.000000 0.000000
vn 1.000000 -0.000000 0.000000
vn 0.000000 0.000000 -1.000000
vn 0.000000 0.000000 -1.000000
vn 0.000000 0.000000 -1.000000
vn 0.000000 0.000000 -1.000000
vn -1.000000 0.000000 0.000000
vn -1.000000 0.000000 0.000000
vn -1.000000 0.000000 0.000000
vn -1.000000 0.000000 0.000000
vn 0.000000 0.000000 1.000000
vn 0.000000 0.000000 1.000000
vn 0.000000 0.000000 1.000000
vn 0.000000 0.000000 1.000000
vn 1.000000 -0.000000 0.000000
vn 1.000000 -0.000000 0.000000
vn 1.000000 -0.000000 0.000000
vn 1.000000 -0.000000 0.000000
vn -0.000000 -1.000000 -0.000000
vn -0.000000 -1.000000 -0.000000
vn -0.000000 -1.000000 -0.000000
vn -0.000000 -1.000000 -0.000000
vn 0.489874 0.171591 0.854740
vn 0.510718 0.089592 0.855068
vn 0.510718 0.089592 0.855068
vn 0.483485 0.194072 0.853568
vn 0.494005 0.365540 0.788885
vn 0.513368 0.408652 0.754624
vn 0.645010 0.537417 0.543273
vn 0.634859 0.533270 0.559086
vn 0.707168 0.560157 0.431437
vn 0.707168 0.560157 0.431437
vn 0.724462 0.689315 0.000001
vn 0.724462 0.689315 0.000000
vn 0.724462 0.689315 0.000000
vn 0.724462 0.689315 0.000001
vn 0.724462 0.689315 0.000003
vn 0.724462 0.689315 0.000003
vn 0.510717 0.089592 -0.855068
vn 0.489874 0.171591 -0.854740
vn 0.483485 0.194072 -0.853568
vn 0.510717 0.089592 -0.855068
vn 0.494005 0.365540 -0.788885
vn 0.513368 0.408652 -0.754624
vn 0.645010 0.537417 -0.543273
vn 0.634859 0.533270 -0.559086
vn 0.707168 0.560157 -0.431437
vn 0.707168 0.560157 -0.431437
vn 0.000000 -1.000000 -0.000000
vn 0.000000 -1.000000 -0.000000
vn 0.000000 -1.000000 -0.000000
vn 0.000000 -1.000000 -0.000000
vn -0.489875 0.171591 -0.854739
vn -0.510718 0.089592 -0.855068
vn -0.510718 0.089592 -0.855068
vn -0.483486 0.194072 -0.853568
vn -0.510718 0.089592 0.855067
vn -0.489875 0.171591 0.854739
vn -0.483485 0.194072 0.853568
vn -0.510718 0.089592 0.855067
vn -0.494005 0.365540 0.788885
vn -0.513368 0.408652 0.754624
vn -0.645009 0.537417 0.543273
vn -0.634859 0.533270 0.559086
vn -0.707168 0.560157 0.431437
vn -0.707168 0.560157 0.431437
vn -0.724462 0.689315 0.000000
vn -0.724462 0.689315 0.000001
vn -0.724462 0.689315 0.000001
vn -0.724462 0.689315 0.000000
vn -0.724462 0.689315 0.000003
vn -0.724462 0.689315 0.000003
vn -0.707167 0.560157 -0.431438
vn -0.645009 0.537417 -0.543273
vn -0.634859 0.533270 -0.559086
vn -0.707167 0.560157 -0.431438
vn -0.494006 0.365540 -0.788884
vn -0.513369 0.408652 -0.754623
f 1/57/1 2/58/2 13/59/3 12/60/4
f 2/58/2 3/62/5 14/63/6 13/59/3
f 3/62/5 4/66/7 15/67/8 14/63/6
f 4/66/7 5/70/9 16/71/10 15/67/8
f 6/73/11 7/74/12 18/75/13 17/76/14
f 7/74/12 8/78/15 19/79/16 18/75/13
f 8/78/15 9/82/17 20/83/18 19/79/16
f 9/82/17 10/86/19 21/87/20 20/83/18
f 29/89/21 30/90/22 31/91/23 32/92/24
f 30/93/22 33/94/25 34/95/26 31/96/23
f 35/1/27 36/2/28 37/3/29
f 37/3/29 36/2/28 38/4/30
f 38/4/30 36/2/28 39/5/31
f 39/5/31 36/2/28 40/6/32
f 40/6/32 36/2/28 41/7/33
f 41/7/33 36/2/28 42/8/34
f 36/2/28 43/9/35 42/8/34
f 43/9/35 44/10/36 42/8/34
f 44/10/36 45/11/37 42/8/34
f 47/12/38 46/13/39 48/14/40
f 46/13/39 49/15/41 48/14/40
f 49/15/41 50/16/42 48/14/40
f 50/16/42 51/17/43 48/14/40
f 51/17/43 52/18/44 48/14/40
f 52/18/44 53/19/45 48/14/40
f 53/19/45 54/20/46 48/14/40
f 54/20/46 55/27/47 48/14/40
f 55/27/47 56/28/48 48/14/40
f 5/70/49 6/106/50 17/105/51 16/71/52
f 10/86/53 11/104/54 24/103/55 23/102/56
f 22/101/57 21/87/58 26/100/59 25/99/60
f 21/87/61 10/86/62 23/102/63 26/100/64
f 11/104/54 1/57/65 27/98/66 24/103/55
f 1/57/67 12/60/68 28/97/69 27/98/70
f 12/60/71 22/101/57 25/99/60 28/97/72
f 23/88/73 24/85/74 30/84/75 29/81/76
f 25/80/77 26/77/78 32/72/79 31/69/80
f 26/53/81 23/51/82 29/21/83 32/24/84
f 24/50/85 27/68/86 33/65/87 30/22/88
f 27/55/89 28/64/90 34/61/91 33/25/92
f 28/56/93 25/54/94 31/23/95 34/26/96
f 6/29/97 5/30/98 36/2/99 35/1/100
f 7/31/101 6/29/102 35/1/103 37/3/104
f 8/32/105 7/31/101 37/3/104 38/4/106
f 9/33/107 8/32/105 38/4/106 39/5/108
f 10/34/109 9/33/107 39/5/108 40/6/110
f 11/35/111 10/34/112 40/6/113 41/7/114
f 1/36/115 11/35/111 41/7/114 42/8/116
f 5/30/117 4/37/118 43/9/119 36/2/120
f 4/37/118 3/38/121 44/10/122 43/9/119
f 3/38/121 2/39/123 45/11/124 44/10/122
f 2/39/123 1/36/125 42/8/126 45/11/124
f 16/40/127 17/41/128 46/13/129 47/12/130
f 15/42/131 16/40/132 47/12/133 48/14/134
f 17/41/135 18/43/136 49/15/137 46/13/138
f 18/43/136 19/44/139 50/16/140 49/15/137
f 19/44/139 20/45/141 51/17/142 50/16/140
f 20/45/141 21/46/143 52/18/144 51/17/142
f 21/46/145 22/47/146 53/19/147 52/18/148
f 22/47/146 12/48/149 54/20/150 53/19/147
f 12/48/151 13/49/152 55/27/153 54/20/154
f 13/49/152 14/52/155 56/28/156 55/27/153
f 14/52/155 15/42/131 48/14/134 56/28/156
