# This file uses meters as units for non-parametric coordinates.

v 6.848362 2.225174 1.575451
v 5.825565 4.232521 1.575453
v -0.000001 0.000000 1.575452
v 4.232525 5.825569 1.575453
v 2.225170 6.848366 1.575453
v -0.000001 7.200798 1.575453
v -2.225171 6.848366 1.575453
v -4.232523 5.825569 1.575453
v -5.825565 4.232521 1.575453
v -6.848362 2.225174 1.575451
v -7.200798 0.000000 1.575452
v -6.848362 -2.225166 1.575451
v -5.825565 -4.232521 1.575453
v -4.232523 -5.825565 1.575453
v -2.225171 -6.848358 1.575453
v -0.000001 -7.200794 1.575453
v 2.225167 -6.848358 1.575453
v 4.232521 -5.825565 1.575453
v 5.825565 -4.232521 1.575453
v 6.848358 -2.225166 1.575451
v 7.200794 0.000000 1.575452
vt 0.589624 0.957037
vt 0.587899 0.960423
vt 0.578071 0.952797
vt 0.585211 0.963111
vt 0.581825 0.964836
vt 0.578071 0.965431
vt 0.574317 0.964836
vt 0.570930 0.963111
vt 0.568243 0.960423
vt 0.566517 0.957037
vt 0.565923 0.953283
vt 0.566517 0.949529
vt 0.568243 0.946142
vt 0.570930 0.943455
vt 0.574317 0.941729
vt 0.578071 0.941135
vt 0.581825 0.941729
vt 0.585211 0.943455
vt 0.587899 0.946142
vt 0.589624 0.949529
vt 0.590219 0.953283
vn 0.000000 -0.000000 1.000000
vn 0.000000 -0.000000 1.000000
vn 0.000000 0.000000 1.000000
vn -0.000000 -0.000000 1.000000
vn -0.000000 -0.000000 1.000000
vn 0.000000 -0.000000 1.000000
vn 0.000000 -0.000000 1.000000
vn 0.000000 -0.000000 1.000000
vn -0.000000 -0.000000 1.000000
vn -0.000000 -0.000000 1.000000
vn 0.000000 0.000000 1.000000
vn -0.000000 0.000000 1.000000
vn -0.000000 0.000000 1.000000
vn 0.000000 0.000000 1.000000
vn 0.000000 0.000000 1.000000
vn 0.000000 0.000000 1.000000
vn -0.000000 0.000000 1.000000
vn -0.000000 0.000000 1.000000
vn 0.000000 0.000000 1.000000
vn 0.000000 0.000000 1.000000
vn 0.000000 0.000000 1.000000
f 1/1/1 2/2/2 3/3/3
f 2/2/2 4/4/4 3/3/3
f 4/4/4 5/5/5 3/3/3
f 5/5/5 6/6/6 3/3/3
f 6/6/6 7/7/7 3/3/3
f 7/7/7 8/8/8 3/3/3
f 8/8/8 9/9/9 3/3/3
f 9/9/9 10/10/10 3/3/3
f 10/10/10 11/11/11 3/3/3
f 11/11/11 12/12/12 3/3/3
f 12/12/12 13/13/13 3/3/3
f 13/13/13 14/14/14 3/3/3
f 14/14/14 15/15/15 3/3/3
f 15/15/15 16/16/16 3/3/3
f 16/16/16 17/17/17 3/3/3
f 17/17/17 18/18/18 3/3/3
f 18/18/18 19/19/19 3/3/3
f 19/19/19 20/20/20 3/3/3
f 20/20/20 21/21/21 3/3/3
f 21/21/21 1/1/1 3/3/3
