# This file uses meters as units for non-parametric coordinates.

v -9.559289 4.780123 7.806435
v -4.780122 9.559289 7.806435
v -9.559289 4.780123 -0.000000
v -4.780122 9.559289 -0.000000
v 4.780122 9.559289 7.806435
v 9.559289 4.780123 7.806435
v 9.559289 4.780123 -0.000000
v 4.780122 9.559289 -0.000000
v -4.780122 -9.559289 7.806435
v -9.559289 -4.780122 7.806435
v -9.559289 -4.780122 -0.000000
v -4.780122 -9.559289 -0.000000
v 9.559289 -4.780122 7.806435
v 4.780122 -9.559289 7.806435
v 4.780122 -9.559289 -0.000000
v 9.559289 -4.780122 -0.000000
v 8.014256 8.014258 -0.000000
v 8.014256 8.014258 7.806435
v -8.014256 8.014258 -0.000000
v -8.014256 8.014258 7.806435
v -8.014256 -8.014256 7.806435
v -8.014256 -8.014256 -0.000000
v 8.014256 -8.014256 -0.000000
v 8.014256 -8.014256 7.806435
v -5.391963 -5.391963 7.806435
v -6.431455 -3.216048 7.806435
v -3.216048 -6.431455 7.806435
v 3.216048 -6.431455 7.806435
v 5.391963 -5.391963 7.806435
v 6.431455 -3.216048 7.806435
v 6.431455 3.216050 7.806435
v 5.391963 5.391963 7.806435
v 3.216048 6.431454 7.806435
v -3.216048 6.431454 7.806435
v -5.391963 5.391963 7.806435
v -6.431455 3.216050 7.806435
v -5.391963 -5.391963 7.276145
v -6.431455 -3.216048 7.276145
v -3.216048 -6.431455 7.276145
v 3.216048 -6.431455 7.276145
v 5.391963 -5.391963 7.276145
v 6.431455 -3.216048 7.276145
v 6.431455 3.216050 7.276145
v 5.391963 5.391963 7.276145
v 3.216048 6.431454 7.276145
v -3.216048 6.431454 7.276145
v -5.391963 5.391963 7.276145
v -6.431455 3.216050 7.276145
vt 0.731855 0.199876
vt 0.734315 0.197658
vt 0.644497 0.197658
vt 0.643468 0.199876
vt 0.643469 0.238975
vt 0.643468 0.199877
vt 0.731855 0.199876
vt 0.731855 0.238975
vt 0.734315 0.197658
vt 0.731855 0.199876
vt 0.643468 0.199876
vt 0.644497 0.197658
vt 0.643468 0.199876
vt 0.644497 0.197658
vt 0.734315 0.197658
vt 0.731855 0.199876
vt 0.734315 0.230641
vt 0.643468 0.199876
vt 0.731855 0.199876
vt 0.734315 0.237390
vt 0.644498 0.230641
vt 0.643468 0.199877
vt 0.731855 0.199876
vt 0.644498 0.237390
vt 0.644497 0.197658
vt 0.734315 0.197658
vt 0.731855 0.238975
vt 0.643469 0.238975
vt 0.643468 0.238975
vt 0.731855 0.238975
vt 0.734315 0.197658
vt 0.734315 0.237390
vt 0.644497 0.237390
vt 0.644497 0.197658
vt 0.644497 0.237390
vt 0.734315 0.197658
vt 0.734315 0.237390
vt 0.644497 0.197658
vt 0.644497 0.237390
vt 0.734315 0.237390
vt 0.644497 0.237390
vt 0.734315 0.237390
vt 0.644497 0.237390
vt 0.734315 0.237390
vt 0.644497 0.237390
vt 0.731855 0.238975
vt 0.734315 0.230641
vt 0.644497 0.230641
vt 0.644497 0.230641
vt 0.734315 0.230641
vt 0.644497 0.230641
vt 0.734315 0.230641
vt 0.644497 0.230641
vt 0.734315 0.230641
vt 0.644497 0.230641
vt 0.734315 0.230641
vt 0.644497 0.230641
vt 0.643469 0.238975
vt 0.729378 0.235876
vt 0.731855 0.238975
vt 0.643469 0.238975
vt 0.644498 0.197658
vt 0.713896 0.239148
vt 0.736774 0.229028
vt 0.731855 0.199876
vt 0.731855 0.238975
vt 0.736774 0.208782
vt 0.643468 0.238975
vt 0.668130 0.239147
vt 0.731855 0.238975
vt 0.652648 0.235874
vt 0.645252 0.229025
vt 0.645252 0.208779
vt 0.652648 0.201931
vt 0.668130 0.198659
vt 0.729378 0.201933
vt 0.713896 0.198660
vn -0.119888 0.992788 0.000000
vn -0.119888 0.992788 0.000000
vn 0.119888 0.992788 0.000000
vn 0.119888 0.992788 0.000000
vn -0.119888 -0.992787 0.000000
vn -0.119888 -0.992787 0.000000
vn 0.119888 -0.992787 0.000000
vn 0.119888 -0.992787 0.000000
vn 0.992787 -0.119888 0.000000
vn 0.992787 -0.119888 0.000000
vn 0.992787 0.119888 0.000000
vn 0.992787 0.119888 0.000000
vn -0.992787 -0.119888 0.000000
vn -0.992787 -0.119888 0.000000
vn -0.992787 0.119888 0.000000
vn -0.992787 0.119888 0.000000
vn 0.000000 0.000000 -1.000000
vn -0.000000 0.000000 -1.000000
vn -0.000000 0.000000 -1.000000
vn -0.000000 0.000000 -1.000000
vn 0.000000 0.000000 -1.000000
vn 0.000000 0.000000 -1.000000
vn 0.000000 0.000000 -1.000000
vn 0.000000 0.000000 -1.000000
vn 0.000000 0.000000 -1.000000
vn 0.000000 0.000000 -1.000000
vn 0.000000 0.000000 -1.000000
vn 0.000000 0.000000 -1.000000
vn -0.707107 0.707107 0.000000
vn -0.707107 0.707107 0.000000
vn 0.707107 0.707107 0.000000
vn 0.707107 0.707107 0.000000
vn -0.707107 -0.707107 0.000000
vn -0.707107 -0.707107 0.000000
vn 0.707107 -0.707107 0.000000
vn 0.707107 -0.707107 0.000000
vn -0.000000 0.000000 1.000000
vn -0.000000 0.000000 1.000000
vn -0.000000 0.000000 1.000000
vn -0.000000 0.000000 1.000000
vn 0.000000 0.000000 1.000000
vn 0.000000 0.000000 1.000000
vn 0.000000 0.000000 1.000000
vn 0.000000 0.000000 1.000000
vn 0.000000 0.000000 1.000000
vn 0.000000 0.000000 1.000000
vn 0.000000 0.000000 1.000000
vn 0.000000 0.000000 1.000000
vn -0.000000 0.000000 1.000000
vn -0.000000 0.000000 1.000000
vn -0.000000 0.000000 1.000000
vn -0.000000 0.000000 1.000000
vn 0.000000 0.000000 1.000000
vn 0.000000 0.000000 1.000000
vn 0.000000 0.000000 1.000000
vn 0.000000 0.000000 1.000000
vn 0.000000 0.000000 1.000000
vn 0.000000 0.000000 1.000000
vn 0.000000 0.000000 1.000000
vn 0.000000 0.000000 1.000000
vn 0.000000 0.000000 1.000000
vn 0.000000 0.000000 1.000000
vn 0.000000 0.000000 1.000000
vn 0.000000 0.000000 1.000000
vn 0.000000 0.000000 1.000000
vn 0.000000 0.000000 1.000000
vn 0.000000 0.000000 1.000000
vn 0.000000 0.000000 1.000000
vn 0.000000 0.000000 1.000000
vn 0.000000 0.000000 1.000000
vn 0.000000 0.000000 1.000000
vn 0.000000 0.000000 1.000000
vn 0.000000 0.000000 1.000000
vn 0.000000 0.000000 1.000000
vn 0.000000 0.000000 1.000000
vn 0.000000 0.000000 1.000000
vn 0.000000 0.000000 1.000000
vn 0.000000 0.000000 1.000000
vn 0.000000 0.000000 1.000000
vn 0.000000 0.000000 1.000000
vn -0.000000 0.000000 1.000000
vn -0.000000 0.000000 1.000000
vn -0.000000 0.000000 1.000000
vn -0.000000 0.000000 1.000000
vn 0.992787 0.119888 0.000000
vn 0.902322 0.431063 0.000000
vn 0.902322 0.431063 0.000000
vn 0.992787 0.119888 0.000000
vn 0.431063 0.902322 0.000000
vn 0.119888 0.992787 0.000000
vn 0.119888 0.992787 0.000000
vn 0.431063 0.902322 0.000000
vn -0.119888 0.992787 0.000000
vn -0.119888 0.992787 0.000000
vn -0.431063 0.902322 0.000000
vn -0.431063 0.902322 0.000000
vn -0.902322 0.431063 0.000000
vn -0.992787 0.119888 0.000000
vn -0.992787 0.119888 0.000000
vn -0.902322 0.431063 0.000000
vn -0.992787 -0.119888 0.000000
vn -0.992787 -0.119888 0.000000
vn -0.902322 -0.431063 0.000000
vn -0.902322 -0.431063 0.000000
vn -0.431063 -0.902322 0.000000
vn -0.119888 -0.992788 0.000000
vn -0.119888 -0.992788 0.000000
vn -0.431063 -0.902322 0.000000
vn 0.119888 -0.992788 0.000000
vn 0.119888 -0.992788 0.000000
vn 0.431063 -0.902322 0.000000
vn 0.431063 -0.902322 0.000000
vn 0.902322 -0.431063 0.000000
vn 0.992787 -0.119888 0.000000
vn 0.992787 -0.119888 0.000000
vn 0.902322 -0.431063 0.000000
f 4/1/1 2/60/2 5/61/3 8/4/4
f 9/5/5 12/6/6 15/65/7 14/66/8
f 13/30/9 16/10/10 7/11/11 6/68/12
f 11/13/13 10/29/14 1/70/15 3/16/16
f 19/59/17 4/63/18 3/64/19
f 3/64/19 4/63/18 11/67/20
f 4/63/18 8/69/21 11/67/20
f 8/69/21 17/71/22 11/67/20
f 17/71/22 7/72/23 11/67/20
f 7/72/23 16/73/24 11/67/20
f 16/73/24 23/74/25 11/67/20
f 23/74/25 15/75/26 11/67/20
f 11/67/20 15/75/26 22/76/27
f 15/75/26 12/77/28 22/76/27
f 20/58/29 2/60/2 4/1/1 19/18/30
f 18/46/31 6/68/12 7/11/11 17/19/32
f 9/5/5 21/27/33 22/23/34 12/6/6
f 24/28/35 14/8/8 15/7/7 23/22/36
f 5/61/3 18/46/31 17/19/32 8/4/4
f 1/70/15 20/58/29 19/18/30 3/16/16
f 21/27/33 10/29/14 11/13/13 22/23/34
f 13/30/9 24/28/35 23/22/36 16/10/10
f 10/14/37 21/31/38 25/32/39 26/33/40
f 21/31/41 9/34/42 27/35/43 25/32/44
f 9/34/45 14/36/46 28/37/47 27/35/48
f 14/36/49 24/38/50 29/39/51 28/37/52
f 24/38/53 13/9/54 30/40/55 29/39/56
f 13/9/57 6/12/58 31/41/59 30/40/60
f 6/12/61 18/26/62 32/42/63 31/41/64
f 18/26/65 5/3/66 33/43/67 32/42/68
f 5/3/69 2/2/70 34/44/71 33/43/72
f 2/2/73 20/62/74 35/24/75 34/44/76
f 20/25/77 1/15/78 36/20/79 35/45/80
f 1/15/81 10/14/82 26/33/83 36/20/84
f 26/33/85 25/32/86 37/47/87 38/48/88
f 25/32/89 27/35/90 39/49/91 37/47/92
f 27/35/90 28/37/93 40/50/94 39/49/91
f 28/37/93 29/39/95 41/51/96 40/50/94
f 29/39/97 30/40/98 42/52/99 41/51/100
f 30/40/98 31/41/101 43/53/102 42/52/99
f 31/41/101 32/42/103 44/54/104 43/53/102
f 32/42/105 33/43/106 45/55/107 44/54/108
f 33/43/106 34/44/109 46/56/110 45/55/107
f 34/44/109 35/24/111 47/21/112 46/56/110
f 35/45/113 36/20/114 48/17/115 47/57/116
f 36/20/114 26/33/85 38/48/88 48/17/115
