# This file uses meters as units for non-parametric coordinates.

v -0.261823 -2.938783 8.068931
v 0.261823 -2.938783 8.068931
v 0.000000 8.604551 8.068932
v 0.104419 7.497968 8.068931
v -0.104419 7.497968 8.068931
v 0.519614 7.497968 8.068931
v -0.519614 7.497968 8.068931
vt 0.493093 0.859005
vt 0.493087 0.863993
vt 0.476055 0.862494
vt 0.476058 0.860504
vt 0.482592 0.861499
vt 0.476051 0.866449
vt 0.476062 0.856549
vn 0.000000 0.000000 1.000000
vn 0.000000 0.000000 1.000000
vn 0.000000 -0.000000 1.000000
vn 0.000000 -0.000000 1.000000
vn 0.000000 -0.000001 1.000000
vn 0.000000 -0.000001 1.000000
vn 0.000000 -0.000001 1.000000
vn 0.000000 -0.000001 1.000000
vn 0.000000 -0.000001 1.000000
vn 0.000000 -0.000001 1.000000
vn 0.000000 -0.000001 1.000000
f 1/1/1 2/2/2 4/3/3 5/4/4
f 5/4/4 4/3/3 3/5/5
f 3/5/6 4/3/7 6/6/8
f 5/4/9 3/5/10 7/7/11
