# This file uses meters as units for non-parametric coordinates.

v 12.174599 3.955765 -2.338852
v 10.356331 7.524323 -2.338852
v 7.524319 10.356331 -2.338852
v 3.955767 12.174599 -2.338852
v 0.000000 12.801132 -2.338852
v -3.955767 12.174599 -2.338852
v -7.524319 10.356331 -2.338852
v -10.356331 7.524315 -2.338852
v -12.174599 3.955765 -2.338852
v -12.801125 0.000000 -2.338852
v -12.174599 -3.955765 -2.338852
v -10.356331 -7.524315 -2.338852
v -7.524315 -10.356331 -2.338852
v -3.955767 -12.174599 -2.338852
v -0.000000 -12.801125 -2.338852
v 3.955765 -12.174599 -2.338852
v 7.524315 -10.356331 -2.338852
v 10.356331 -7.524315 -2.338852
v 12.174599 -3.955765 -2.338850
v 12.801125 0.000000 -2.338852
v 12.174599 3.955765 2.338852
v 10.356331 7.524323 2.338852
v 7.524319 10.356331 2.338852
v 3.955767 12.174599 2.338852
v 0.000000 12.801132 2.338852
v -3.955767 12.174599 2.338852
v -7.524319 10.356331 2.338852
v -10.356331 7.524315 2.338852
v -12.174599 3.955765 2.338852
v -12.801125 0.000000 2.338852
v -12.174599 -3.955765 2.338852
v -10.356331 -7.524315 2.338852
v -7.524315 -10.356331 2.338852
v -3.955767 -12.174599 2.338852
v -0.000000 -12.801125 2.338852
v 3.955765 -12.174599 2.338852
v 7.524315 -10.356331 2.338852
v 10.356331 -7.524315 2.338852
v 12.174599 -3.955765 2.338852
v 12.801125 0.000000 2.338852
v 0.000000 0.000000 -2.338852
v 7.254944 2.357277 2.338852
v 6.171425 4.483810 2.338852
v 4.483807 6.171425 2.338852
v 2.357277 7.254944 2.338852
v -0.000001 7.628304 2.338852
v -2.357277 7.254944 2.338852
v -4.483807 6.171425 2.338852
v -6.171425 4.483803 2.338852
v -7.254944 2.357277 2.338852
v -7.628304 0.000000 2.338852
v -7.254944 -2.357277 2.338852
v -6.171425 -4.483803 2.338852
v -4.483805 -6.171425 2.338852
v -2.357277 -7.254944 2.338852
v -0.000001 -7.628304 2.338852
v 2.357275 -7.254944 2.338852
v 4.483803 -6.171425 2.338852
v 6.171425 -4.483803 2.338852
v 7.254944 -2.357277 2.338852
v 7.628300 0.000000 2.338852
vt 0.367903 0.950357
vt 0.351542 0.950357
vt 0.351542 0.941428
vt 0.367903 0.941428
vt 0.367903 0.950357
vt 0.367903 0.941428
vt 0.351542 0.950357
vt 0.351542 0.941428
vt 0.367903 0.950357
vt 0.367903 0.941428
vt 0.351540 0.950357
vt 0.351540 0.941428
vt 0.367905 0.950357
vt 0.367905 0.941428
vt 0.351542 0.950357
vt 0.351542 0.941428
vt 0.367903 0.950357
vt 0.367903 0.941428
vt 0.351542 0.950357
vt 0.351542 0.941428
vt 0.367903 0.950357
vt 0.367903 0.941428
vt 0.351542 0.950357
vt 0.351542 0.941428
vt 0.367903 0.950357
vt 0.367903 0.941428
vt 0.351542 0.950357
vt 0.351542 0.941428
vt 0.367903 0.950357
vt 0.367903 0.941428
vt 0.351542 0.950357
vt 0.351542 0.941428
vt 0.367903 0.950357
vt 0.367903 0.941428
vt 0.351542 0.950357
vt 0.351542 0.941428
vt 0.367903 0.950357
vt 0.367903 0.941428
vt 0.351542 0.950357
vt 0.351542 0.941428
vt 0.351540 0.957790
vt 0.351540 0.941428
vt 0.364346 0.951192
vt 0.365232 0.952932
vt 0.359296 0.954612
vt 0.362965 0.949811
vt 0.361225 0.948924
vt 0.359296 0.948619
vt 0.357367 0.948924
vt 0.355626 0.949811
vt 0.354245 0.951192
vt 0.353359 0.952932
vt 0.353053 0.954861
vt 0.353359 0.956790
vt 0.354245 0.958530
vt 0.355626 0.959911
vt 0.357367 0.960798
vt 0.359296 0.961103
vt 0.361225 0.960798
vt 0.362965 0.959911
vt 0.364346 0.958530
vt 0.365232 0.956790
vt 0.365538 0.954861
vt 0.351540 0.950357
vt 0.351542 0.957790
vt 0.351542 0.957790
vt 0.367903 0.957790
vt 0.367903 0.957790
vt 0.367903 0.957790
vt 0.351542 0.957790
vt 0.351542 0.957790
vt 0.367903 0.957790
vt 0.367903 0.957790
vt 0.351542 0.957790
vt 0.351540 0.957790
vt 0.367903 0.957790
vt 0.367905 0.957790
vt 0.351542 0.957790
vt 0.351542 0.957790
vt 0.367903 0.957790
vt 0.367903 0.957790
vt 0.351542 0.957790
vt 0.351542 0.957790
vt 0.367903 0.957790
vn 0.951057 0.309016 0.000000
vn 0.809017 0.587785 0.000000
vn 0.809017 0.587785 0.000000
vn 0.951057 0.309016 0.000000
vn 0.587785 0.809017 0.000000
vn 0.587785 0.809017 0.000000
vn 0.309017 0.951057 0.000000
vn 0.309017 0.951057 0.000000
vn 0.000000 1.000000 0.000000
vn 0.000000 1.000000 0.000000
vn -0.309017 0.951057 0.000000
vn -0.309017 0.951057 0.000000
vn -0.587785 0.809017 0.000000
vn -0.587785 0.809017 0.000000
vn -0.809017 0.587785 0.000000
vn -0.809017 0.587785 0.000000
vn -0.951057 0.309017 0.000000
vn -0.951057 0.309017 0.000000
vn -1.000000 0.000000 0.000000
vn -1.000000 0.000000 0.000000
vn -0.951057 -0.309017 0.000000
vn -0.951057 -0.309017 0.000000
vn -0.809017 -0.587785 0.000000
vn -0.809017 -0.587785 0.000000
vn -0.587785 -0.809017 0.000000
vn -0.587785 -0.809017 0.000000
vn -0.309017 -0.951057 0.000000
vn -0.309017 -0.951057 0.000000
vn 0.000000 -1.000000 0.000000
vn 0.000000 -1.000000 0.000000
vn 0.309016 -0.951057 0.000000
vn 0.309016 -0.951057 0.000000
vn 0.587785 -0.809017 0.000000
vn 0.587785 -0.809017 0.000000
vn 0.809017 -0.587785 0.000000
vn 0.809017 -0.587785 0.000000
vn 0.951057 -0.309017 0.000000
vn 0.951057 -0.309017 0.000000
vn 1.000000 -0.000000 0.000000
vn 1.000000 -0.000000 0.000000
vn 0.000000 -0.000000 -1.000000
vn 0.000000 -0.000000 -1.000000
vn 0.000000 -0.000000 -1.000000
vn 0.000000 -0.000000 -1.000000
vn 0.000000 -0.000000 -1.000000
vn 0.000000 -0.000000 -1.000000
vn -0.000000 -0.000000 -1.000000
vn 0.000000 -0.000000 -1.000000
vn 0.000000 -0.000000 -1.000000
vn 0.000000 -0.000000 -1.000000
vn 0.000000 0.000000 -1.000000
vn 0.000000 0.000000 -1.000000
vn 0.000000 0.000000 -1.000000
vn -0.000000 0.000000 -1.000000
vn -0.000000 0.000000 -1.000000
vn 0.000000 0.000000 -1.000000
vn 0.000000 0.000000 -1.000000
vn 0.000000 0.000000 -1.000000
vn 0.000000 0.000000 -1.000000
vn 0.000000 -0.000000 -1.000000
vn 0.000000 -0.000000 -1.000000
vn 0.000000 0.000000 1.000000
vn 0.000000 0.000000 1.000000
vn 0.000000 0.000000 1.000000
vn 0.000000 0.000000 1.000000
vn -0.000000 0.000000 1.000000
vn -0.000000 0.000000 1.000000
vn -0.000000 0.000000 1.000000
vn -0.000000 0.000000 1.000000
vn 0.000000 0.000000 1.000000
vn 0.000000 0.000000 1.000000
vn 0.000000 0.000000 1.000000
vn 0.000000 0.000000 1.000000
vn 0.000000 0.000000 1.000000
vn 0.000000 0.000000 1.000000
vn 0.000000 0.000000 1.000000
vn 0.000000 0.000000 1.000000
vn 0.000000 0.000000 1.000000
vn 0.000000 0.000000 1.000000
vn 0.000000 0.000000 1.000000
vn 0.000000 0.000000 1.000000
vn 0.000000 0.000000 1.000000
vn 0.000000 0.000000 1.000000
vn 0.000000 0.000000 1.000000
vn 0.000000 0.000000 1.000000
vn 0.000000 0.000000 1.000000
vn 0.000000 0.000000 1.000000
vn 0.000000 0.000000 1.000000
vn 0.000000 0.000000 1.000000
vn 0.000000 0.000000 1.000000
vn 0.000000 0.000000 1.000000
vn 0.000000 0.000000 1.000000
vn 0.000000 0.000000 1.000000
vn 0.000000 -0.000000 1.000000
vn 0.000000 -0.000000 1.000000
vn 0.000000 -0.000000 1.000000
vn 0.000000 -0.000000 1.000000
vn 0.000000 0.000000 1.000000
vn 0.000000 0.000000 1.000000
vn 0.000000 0.000000 1.000000
vn 0.000000 0.000000 1.000000
vn 0.000000 0.000000 1.000000
vn 0.000000 0.000000 1.000000
vn 0.000000 0.000000 1.000000
vn 0.000000 0.000000 1.000000
vn 0.000000 0.000000 1.000000
vn 0.000000 0.000000 1.000000
vn 0.000000 0.000000 1.000000
vn 0.000000 0.000000 1.000000
vn 0.000000 0.000000 1.000000
vn 0.000000 0.000000 1.000000
vn 0.000000 0.000000 1.000000
vn 0.000000 0.000000 1.000000
vn 0.000000 0.000000 1.000000
vn 0.000000 0.000000 1.000000
vn 0.000000 0.000000 1.000000
vn 0.000000 0.000000 1.000000
vn 0.000000 0.000000 1.000000
vn 0.000000 0.000000 1.000000
vn 0.000000 0.000000 1.000000
vn 0.000000 0.000000 1.000000
vn -0.000000 0.000000 1.000000
vn -0.000000 0.000000 1.000000
vn -0.000000 0.000000 1.000000
vn -0.000000 0.000000 1.000000
vn -0.000000 0.000000 1.000000
vn -0.000000 0.000000 1.000000
vn -0.000000 0.000000 1.000000
vn -0.000000 0.000000 1.000000
vn -0.000000 0.000000 1.000000
vn -0.000000 0.000000 1.000000
vn -0.000000 0.000000 1.000000
vn -0.000000 0.000000 1.000000
vn 0.000000 0.000000 1.000000
vn 0.000000 0.000000 1.000000
vn 0.000000 0.000000 1.000000
vn 0.000000 0.000000 1.000000
vn 0.000000 -0.000000 1.000000
vn 0.000000 -0.000000 1.000000
vn 0.000000 -0.000000 1.000000
vn 0.000000 -0.000000 1.000000
f 1/1/1 2/2/2 22/3/3 21/4/4
f 2/2/2 3/5/5 23/6/6 22/3/3
f 3/5/5 4/7/7 24/8/8 23/6/6
f 4/7/7 5/9/9 25/10/10 24/8/8
f 5/9/9 6/11/11 26/12/12 25/10/10
f 6/11/11 7/13/13 27/14/14 26/12/12
f 7/13/13 8/64/15 28/42/16 27/14/14
f 8/15/15 9/17/17 29/18/18 28/16/16
f 9/17/17 10/19/19 30/20/20 29/18/18
f 10/19/19 11/21/21 31/22/22 30/20/20
f 11/21/21 12/23/23 32/24/24 31/22/22
f 12/23/23 13/25/25 33/26/26 32/24/24
f 13/25/25 14/27/27 34/28/28 33/26/26
f 14/27/27 15/29/29 35/30/30 34/28/28
f 15/29/29 16/31/31 36/32/32 35/30/30
f 16/31/31 17/33/33 37/34/34 36/32/32
f 17/33/33 18/35/35 38/36/36 37/34/34
f 18/35/35 19/37/37 39/38/38 38/36/36
f 19/37/37 20/39/39 40/40/40 39/38/38
f 20/39/39 1/1/1 21/4/4 40/40/40
f 2/43/41 1/44/42 41/45/43
f 3/46/44 2/43/41 41/45/43
f 4/47/45 3/46/44 41/45/43
f 5/48/46 4/47/45 41/45/43
f 6/49/47 5/48/46 41/45/43
f 7/50/48 6/49/47 41/45/43
f 8/51/49 7/50/48 41/45/43
f 9/52/50 8/51/49 41/45/43
f 10/53/51 9/52/50 41/45/43
f 11/54/52 10/53/51 41/45/43
f 12/55/53 11/54/52 41/45/43
f 13/56/54 12/55/53 41/45/43
f 14/57/55 13/56/54 41/45/43
f 15/58/56 14/57/55 41/45/43
f 16/59/57 15/58/56 41/45/43
f 17/60/58 16/59/57 41/45/43
f 18/61/59 17/60/58 41/45/43
f 19/62/60 18/61/59 41/45/43
f 20/63/61 19/62/60 41/45/43
f 1/44/42 20/63/61 41/45/43
f 21/4/62 22/3/63 43/66/64 42/67/65
f 22/3/66 23/6/67 44/69/68 43/66/69
f 23/6/70 24/8/71 45/71/72 44/69/73
f 24/8/74 25/10/75 46/73/76 45/71/77
f 25/10/78 26/12/79 47/75/80 46/73/81
f 26/12/82 27/14/83 48/77/84 47/75/85
f 27/14/86 28/42/87 49/41/88 48/77/89
f 28/16/90 29/18/91 50/81/92 49/79/93
f 29/18/94 30/20/95 51/83/96 50/81/97
f 30/20/98 31/22/99 52/84/100 51/83/101
f 31/22/102 32/24/103 53/82/104 52/84/105
f 32/24/106 33/26/107 54/80/108 53/82/109
f 33/26/110 34/28/111 55/78/112 54/80/113
f 34/28/114 35/30/115 56/76/116 55/78/117
f 35/30/118 36/32/119 57/74/120 56/76/121
f 36/32/122 37/34/123 58/72/124 57/74/125
f 37/34/126 38/36/127 59/70/128 58/72/129
f 38/36/130 39/38/131 60/68/132 59/70/133
f 39/38/134 40/40/135 61/65/136 60/68/137
f 40/40/138 21/4/139 42/67/140 61/65/141
