# This file uses meters as units for non-parametric coordinates.

v 0.000000 0.000000 7.825507
v 11.955133 6.902299 7.825507
v 6.902299 11.955133 7.825507
v 0.000000 13.804598 7.825507
v -6.902299 11.955133 7.825507
v -11.955133 6.902299 7.825507
v -13.804598 0.000000 7.825507
v -11.955133 -6.902299 7.825507
v -6.902299 -11.955133 7.825507
v 0.000000 -13.804598 7.825507
v 6.902299 -11.955133 7.825507
v 11.955133 -6.902299 7.825507
v 13.804598 0.000000 7.825507
vt 0.664272 0.033925
vt 0.678548 0.048174
vt 0.698048 0.012902
vt 0.698048 0.053390
vt 0.678582 0.048174
vt 0.664333 0.033925
vt 0.659117 0.014459
vt 0.664333 0.032506
vt 0.678582 0.048106
vt 0.698048 0.053816
vt 0.678548 0.048106
vt 0.664272 0.032506
vt 0.659047 0.014459
vn 0.000000 0.000000 1.000000
vn 0.000000 0.000000 1.000000
vn 0.000000 0.000000 1.000000
vn 0.000000 0.000000 1.000000
vn 0.000000 0.000000 1.000000
vn 0.000000 0.000000 1.000000
vn 0.000000 0.000000 1.000000
vn 0.000000 0.000000 1.000000
vn 0.000000 0.000000 1.000000
vn 0.000000 0.000000 1.000000
vn 0.000000 0.000000 1.000000
vn 0.000000 0.000000 1.000000
vn 0.000000 0.000000 1.000000
f 2/1/1 3/2/2 1/3/3
f 3/2/2 4/4/4 1/3/3
f 4/4/4 5/5/5 1/3/3
f 5/5/5 6/6/6 1/3/3
f 6/6/6 7/7/7 1/3/3
f 7/7/7 8/8/8 1/3/3
f 8/8/8 9/9/9 1/3/3
f 9/9/9 10/10/10 1/3/3
f 10/10/10 11/11/11 1/3/3
f 11/11/11 12/12/12 1/3/3
f 12/12/12 13/13/13 1/3/3
f 13/13/13 2/1/1 1/3/3
