# This file uses meters as units for non-parametric coordinates.

v 0.368797 0.212923 -0.553829
v 0.212925 0.368795 -0.553833
v 0.000000 0.425848 -0.553833
v -0.212925 0.368795 -0.553833
v -0.368797 0.212923 -0.553829
v -0.425850 0.000000 -0.553831
v -0.368797 -0.212923 -0.553829
v -0.212925 -0.368795 -0.553833
v 0.000000 -0.425848 -0.553833
v 0.212925 -0.368795 -0.553833
v 0.368797 -0.212923 -0.553829
v 0.425850 0.000000 -0.553831
v 0.368797 0.212923 0.622322
v 0.212925 0.368795 0.622322
v 0.000000 0.425848 0.622322
v -0.212925 0.368795 0.622322
v -0.368797 0.212923 0.622322
v -0.425850 0.000000 0.622323
v -0.368797 -0.212923 0.622322
v -0.212925 -0.368795 0.622322
v 0.000000 -0.425848 0.622322
v 0.212925 -0.368795 0.622322
v 0.368797 -0.212923 0.622322
v 0.425850 0.000000 0.622323
v 0.000000 0.000000 0.622323
vt 0.444547 0.946735
vt 0.463611 0.946735
vt 0.444547 0.946735
vt 0.463611 0.946735
vt 0.444547 0.946735
vt 0.463611 0.946735
vt 0.444547 0.946735
vt 0.463611 0.946735
vt 0.444547 0.946735
vt 0.463611 0.946735
vt 0.444547 0.946735
vt 0.463611 0.946735
vt 0.444547 0.946735
vt 0.444547 0.965438
vt 0.463611 0.965438
vt 0.444547 0.965438
vt 0.463611 0.965438
vt 0.444547 0.965438
vt 0.463611 0.965438
vt 0.444547 0.965438
vt 0.463611 0.965438
vt 0.444547 0.965438
vt 0.463611 0.965438
vt 0.444547 0.965438
vt 0.463611 0.965438
vt 0.444547 0.965438
vt 0.448869 0.955885
vt 0.453237 0.963084
vt 0.459203 0.965719
vt 0.453290 0.963084
vt 0.448961 0.955885
vt 0.447376 0.947566
vt 0.448961 0.956668
vt 0.453290 0.963331
vt 0.459203 0.965770
vt 0.453237 0.963331
vt 0.448869 0.956668
vt 0.447271 0.947566
vt 0.459203 0.946838
vn 0.866024 0.500002 0.000000
vn 0.499998 0.866027 0.000000
vn 0.499999 0.866026 0.000000
vn 0.866025 0.500001 0.000000
vn 0.000000 1.000000 0.000000
vn 0.000000 1.000000 0.000000
vn -0.499998 0.866027 0.000000
vn -0.499999 0.866026 0.000000
vn -0.866024 0.500002 0.000000
vn -0.866025 0.500001 0.000000
vn -1.000000 0.000000 0.000000
vn -1.000000 0.000000 0.000000
vn -0.866024 -0.500002 0.000000
vn -0.866025 -0.500001 0.000000
vn -0.499998 -0.866027 0.000000
vn -0.499999 -0.866026 0.000000
vn 0.000000 -1.000000 0.000000
vn 0.000000 -1.000000 0.000000
vn 0.499998 -0.866027 0.000000
vn 0.499999 -0.866026 0.000000
vn 0.866024 -0.500002 0.000000
vn 0.866025 -0.500001 0.000000
vn 1.000000 0.000000 0.000000
vn 1.000000 0.000000 0.000000
vn 0.000001 0.000004 1.000000
vn 0.000001 0.000003 1.000000
vn -0.000000 0.000000 1.000000
vn -0.000000 0.000003 1.000000
vn -0.000002 0.000003 1.000000
vn -0.000001 0.000004 1.000000
vn 0.000000 0.000000 1.000000
vn -0.000001 -0.000004 1.000000
vn -0.000001 -0.000003 1.000000
vn 0.000000 -0.000003 1.000000
vn 0.000002 -0.000003 1.000000
vn 0.000001 -0.000004 1.000000
vn 0.000000 0.000000 1.000000
f 1/1/1 2/2/2 14/15/3 13/14/4
f 2/2/2 3/3/5 15/16/6 14/15/3
f 3/3/5 4/4/7 16/17/8 15/16/6
f 4/4/7 5/5/9 17/18/10 16/17/8
f 5/5/9 6/6/11 18/19/12 17/18/10
f 6/6/11 7/7/13 19/20/14 18/19/12
f 7/7/13 8/8/15 20/21/16 19/20/14
f 8/8/15 9/9/17 21/22/18 20/21/16
f 9/9/17 10/10/19 22/23/20 21/22/18
f 10/10/19 11/11/21 23/24/22 22/23/20
f 11/11/21 12/12/23 24/25/24 23/24/22
f 12/12/23 1/13/1 13/26/4 24/25/24
f 13/37/25 14/36/26 25/39/27
f 14/36/26 15/35/28 25/39/27
f 15/35/28 16/34/29 25/39/27
f 16/34/29 17/33/30 25/39/27
f 17/33/30 18/32/31 25/39/27
f 18/32/31 19/31/32 25/39/27
f 19/31/32 20/30/33 25/39/27
f 20/30/33 21/29/34 25/39/27
f 21/29/34 22/28/35 25/39/27
f 22/28/35 23/27/36 25/39/27
f 23/27/36 24/38/37 25/39/27
f 24/38/37 13/37/25 25/39/27
