# This file uses meters as units for non-parametric coordinates.

v -0.192359 -0.603784 0.611366
v 0.192359 -0.603784 0.611366
v -0.192359 1.688349 0.611366
v 0.192359 1.688349 0.611366
v 0.000000 1.803662 0.611366
v 0.000000 -0.719097 0.611366
vt 0.398974 0.947888
vt 0.398974 0.947888
vt 0.381611 0.947888
vt 0.381611 0.947888
vt 0.381611 0.962365
vt 0.398974 0.962365
vn 0.000000 0.000000 1.000000
vn 0.000001 0.000000 1.000000
vn 0.000001 0.000000 1.000000
vn 0.000000 0.000000 1.000000
vn -0.000001 0.000000 1.000000
vn -0.000001 0.000000 1.000000
f 6/6/1 2/2/2 4/4/3 5/5/4
f 1/1/5 6/6/1 5/5/4 3/3/6
