# This file uses meters as units for non-parametric coordinates.

v 0.000000 0.000000 9.454676
v 11.955133 6.902299 9.454676
v 6.902299 11.955133 9.454676
v 0.000000 13.804598 9.454676
v -6.902299 11.955133 9.454676
v -11.955133 6.902299 9.454676
v -13.804598 0.000000 9.454676
v -11.955133 -6.902299 9.454676
v -6.902299 -11.955133 9.454676
v 0.000000 -13.804598 9.454676
v 6.902299 -11.955133 9.454676
v 11.955133 -6.902299 9.454676
v 13.804598 0.000000 9.454676
vt 0.571483 0.951549
vt 0.577509 0.957565
vt 0.585741 0.942675
vt 0.585741 0.959767
vt 0.577524 0.957565
vt 0.571508 0.951549
vt 0.569306 0.943332
vt 0.571508 0.950951
vt 0.577524 0.957536
vt 0.585741 0.959946
vt 0.577509 0.957536
vt 0.571483 0.950951
vt 0.569277 0.943332
vn 0.000000 0.000000 1.000000
vn 0.000000 0.000000 1.000000
vn 0.000000 0.000000 1.000000
vn 0.000000 0.000000 1.000000
vn 0.000000 0.000000 1.000000
vn 0.000000 0.000000 1.000000
vn 0.000000 0.000000 1.000000
vn 0.000000 0.000000 1.000000
vn 0.000000 0.000000 1.000000
vn 0.000000 0.000000 1.000000
vn 0.000000 0.000000 1.000000
vn 0.000000 0.000000 1.000000
vn 0.000000 0.000000 1.000000
f 2/1/1 3/2/2 1/3/3
f 3/2/2 4/4/4 1/3/3
f 4/4/4 5/5/5 1/3/3
f 5/5/5 6/6/6 1/3/3
f 6/6/6 7/7/7 1/3/3
f 7/7/7 8/8/8 1/3/3
f 8/8/8 9/9/9 1/3/3
f 9/9/9 10/10/10 1/3/3
f 10/10/10 11/11/11 1/3/3
f 11/11/11 12/12/12 1/3/3
f 12/12/12 13/13/13 1/3/3
f 13/13/13 2/1/1 1/3/3
