# This file uses meters as units for non-parametric coordinates.

v -0.201003 -0.882635 0.545651
v 0.201003 -0.882635 0.545651
v -0.201003 4.268369 0.545651
v 0.201003 4.268369 0.545651
v 0.000000 4.436938 0.545651
v 0.000000 -1.051205 0.545651
vt 0.398974 0.979138
vt 0.398974 0.979138
vt 0.381611 0.979138
vt 0.381611 0.979138
vt 0.381611 0.993615
vt 0.398974 0.993615
vn 0.000000 0.000000 1.000000
vn 0.000000 0.000000 1.000000
vn 0.000000 0.000000 1.000000
vn 0.000000 0.000000 1.000000
vn 0.000000 0.000000 1.000000
vn 0.000000 0.000000 1.000000
f 6/6/1 2/2/2 4/4/3 5/5/4
f 1/1/5 6/6/1 5/5/4 3/3/6
