# This file uses meters as units for non-parametric coordinates.

v -9.102888 8.536937 1.512466
v 9.102888 8.536937 1.512466
v -9.102888 31.225555 1.512465
v 9.102888 31.225555 1.512465
v -9.102888 31.225555 -1.299058
v 9.102888 31.225555 -1.299058
v -9.102888 8.536937 -1.299057
v 9.102888 8.536937 -1.299057
v -7.947690 9.846064 1.512466
v 7.947690 9.846064 1.512466
v 7.947690 29.916433 1.512465
v -7.947690 29.916433 1.512465
v -7.947690 9.846064 0.480282
v 7.947690 9.846064 0.480282
v 7.947690 29.916433 0.480281
v -7.947690 29.916433 0.480281
vt 0.721821 0.012167
vt 0.636630 0.012167
vt 0.729409 0.010406
vt 0.634871 0.010406
vt 0.729409 0.053826
vt 0.634871 0.053826
vt 0.721821 0.012167
vt 0.717253 0.052406
vt 0.641198 0.052406
vt 0.641198 0.052406
vt 0.636630 0.012167
vt 0.717253 0.052406
vt 0.721821 0.012167
vt 0.636630 0.012167
vt 0.636630 0.012167
vt 0.721821 0.012167
vt 0.717253 0.052406
vt 0.641198 0.052406
vt 0.641198 0.052406
vt 0.717253 0.052406
vt 0.721821 0.012167
vt 0.636630 0.012167
vt 0.717253 0.052406
vt 0.641198 0.052406
vt 0.721821 0.012167
vt 0.641198 0.052406
vt 0.636630 0.012167
vt 0.717253 0.052406
vn 0.000000 1.000000 0.000000
vn 0.000000 1.000000 0.000000
vn 0.000000 1.000000 0.000000
vn 0.000000 1.000000 0.000000
vn 0.000000 -0.000000 -1.000000
vn 0.000000 -0.000000 -1.000000
vn 0.000000 -0.000000 -1.000000
vn 0.000000 -0.000000 -1.000000
vn 1.000000 -0.000000 0.000000
vn 1.000000 -0.000000 0.000000
vn 1.000000 -0.000000 0.000000
vn 1.000000 -0.000000 0.000000
vn -1.000000 0.000000 0.000000
vn -1.000000 0.000000 0.000000
vn -1.000000 0.000000 0.000000
vn -1.000000 0.000000 0.000000
vn 0.000000 0.000000 1.000000
vn 0.000000 0.000000 1.000000
vn 0.000000 0.000000 1.000000
vn 0.000000 0.000000 1.000000
vn 0.000000 0.000000 1.000000
vn 0.000000 0.000000 1.000000
vn 0.000000 0.000000 1.000000
vn 0.000000 0.000000 1.000000
vn 0.000000 0.000001 1.000000
vn 0.000000 0.000001 1.000000
vn 0.000000 0.000001 1.000000
vn 0.000000 0.000001 1.000000
vn -0.000000 0.000000 1.000000
vn -0.000000 0.000000 1.000000
vn -0.000000 0.000000 1.000000
vn -0.000000 0.000000 1.000000
vn 0.000000 1.000000 0.000000
vn 0.000000 1.000000 0.000000
vn 0.000000 1.000000 0.000000
vn 0.000000 1.000000 0.000000
vn -1.000000 -0.000000 0.000000
vn -1.000000 -0.000000 0.000000
vn -1.000000 -0.000000 0.000000
vn -1.000000 -0.000000 0.000000
vn 0.000000 -1.000000 0.000000
vn 0.000000 -1.000000 0.000000
vn 0.000000 -1.000000 0.000000
vn 0.000000 -1.000000 0.000000
vn 1.000000 -0.000000 0.000000
vn 1.000000 -0.000000 0.000000
vn 1.000000 -0.000000 0.000000
vn 1.000000 -0.000000 0.000000
f 3/21/1 4/22/2 6/9/3 5/12/4
f 5/4/5 6/3/6 8/5/7 7/6/8
f 2/25/9 8/8/10 6/9/11 4/22/12
f 7/10/13 1/27/14 3/21/15 5/12/16
f 1/11/17 2/7/18 10/23/19 9/26/20
f 2/7/21 4/2/22 11/24/23 10/23/24
f 4/2/25 3/1/26 12/28/27 11/24/28
f 3/1/29 1/11/30 9/26/31 12/28/32
f 9/14/33 10/13/34 14/17/35 13/18/36
f 10/13/37 11/15/38 15/19/39 14/17/40
f 11/15/41 12/16/42 16/20/43 15/19/44
f 12/16/45 9/14/46 13/18/47 16/20/48
