# This file uses meters as units for non-parametric coordinates.

v -5.204552 -10.820377 2.945747
v -9.585712 -7.321831 3.529419
v -9.585712 -6.272972 -2.757462
v -5.204552 -9.771523 -3.341141
v -9.661854 -12.643456 2.641601
v -10.102648 -12.319949 2.695573
v -10.102648 -11.271091 -3.591315
v -9.661854 -11.594597 -3.645287
v 5.204552 -10.820381 2.945747
v 9.585709 -7.321823 3.529419
v 9.585709 -6.272964 -2.757469
v 5.204552 -9.771523 -3.341141
v 10.102648 -12.319949 2.695573
v 9.661854 -12.643456 2.641601
v 9.661854 -11.594597 -3.645287
v 10.102648 -11.271091 -3.591316
vt 0.695734 0.075020
vt 0.655249 0.115505
vt 0.673339 0.115505
vt 0.677644 0.115506
vt 0.655249 0.075020
vt 0.695734 0.115505
vt 0.695734 0.115505
vt 0.655249 0.075020
vt 0.677644 0.075020
vt 0.655249 0.075020
vt 0.655249 0.115505
vt 0.695734 0.075020
vt 0.655249 0.115505
vt 0.673339 0.075020
vt 0.656097 0.073828
vt 0.656097 0.111881
vt 0.694149 0.111881
vt 0.694149 0.073828
vt 0.673235 0.073828
vt 0.677010 0.073828
vt 0.656097 0.111881
vt 0.656097 0.073828
vt 0.694149 0.073828
vt 0.694149 0.111881
vt 0.656097 0.111881
vt 0.656097 0.073828
vt 0.677146 0.111881
vt 0.673100 0.111881
vt 0.656097 0.073828
vt 0.694149 0.073828
vn 0.629225 0.766628 0.127898
vn 0.629225 0.766628 0.127898
vn 0.629225 0.766628 0.127898
vn 0.629225 0.766628 0.127898
vn -0.000001 0.164559 -0.986367
vn -0.000001 0.164559 -0.986367
vn -0.000001 0.164559 -0.986367
vn -0.000001 0.164559 -0.986367
vn 0.383037 -0.911140 -0.152008
vn 0.383037 -0.911140 -0.152008
vn 0.383037 -0.911140 -0.152008
vn 0.383037 -0.911140 -0.152008
vn -0.994837 0.100106 0.016701
vn -0.994837 0.100106 0.016701
vn -0.994837 0.100106 0.016701
vn -0.994837 0.100106 0.016701
vn 0.000000 -0.164558 0.986367
vn 0.000000 -0.164558 0.986368
vn 0.000000 -0.164558 0.986368
vn 0.000000 -0.164558 0.986368
vn -0.596947 -0.791344 -0.132022
vn -0.596947 -0.791344 -0.132022
vn -0.596947 -0.791344 -0.132022
vn -0.596947 -0.791344 -0.132022
vn -0.629226 0.766627 0.127898
vn -0.629226 0.766627 0.127898
vn -0.629226 0.766627 0.127898
vn -0.629226 0.766627 0.127898
vn 0.000000 0.164558 -0.986368
vn 0.000000 0.164558 -0.986368
vn 0.000000 0.164558 -0.986368
vn 0.000000 0.164558 -0.986368
vn -0.383037 -0.911140 -0.152008
vn -0.383036 -0.911140 -0.152008
vn -0.383037 -0.911140 -0.152008
vn -0.383036 -0.911140 -0.152008
vn 0.994837 0.100106 0.016701
vn 0.994837 0.100106 0.016701
vn 0.994837 0.100106 0.016701
vn 0.994837 0.100106 0.016701
vn -0.000000 -0.164557 0.986368
vn -0.000000 -0.164557 0.986368
vn -0.000000 -0.164557 0.986368
vn -0.000000 -0.164557 0.986368
vn 0.596946 -0.791344 -0.132022
vn 0.596946 -0.791344 -0.132022
vn 0.596946 -0.791344 -0.132022
vn 0.596946 -0.791344 -0.132022
f 2/5/1 1/1/2 4/6/3 3/2/4
f 3/2/5 4/6/6 8/9/7 7/14/8
f 5/8/9 8/13/10 4/6/11 1/1/12
f 7/7/13 6/12/14 2/10/15 3/11/16
f 6/3/17 5/4/18 1/1/19 2/5/20
f 5/8/21 6/12/22 7/7/23 8/13/24
f 10/15/25 11/16/26 12/17/27 9/18/28
f 11/16/29 16/19/30 15/20/31 12/17/32
f 15/21/33 14/22/34 9/18/35 12/17/36
f 13/23/37 16/24/38 11/25/39 10/26/40
f 14/27/41 13/28/42 10/29/43 9/30/44
f 13/23/45 14/22/46 15/21/47 16/24/48
