# This file uses meters as units for non-parametric coordinates.

v 5.399614 -8.954981 2.806893
v 5.055434 -9.153693 2.806893
v 6.664771 -11.146296 2.806893
v 6.320590 -11.345009 2.806893
v 6.664771 -11.146296 2.409468
v 6.320590 -11.345009 2.409468
v 5.399614 -8.954981 2.409468
v 5.055434 -9.153693 2.409468
v 9.153693 -5.055434 2.806893
v 8.954981 -5.399614 2.806893
v 11.345009 -6.320590 2.806893
v 11.146296 -6.664771 2.806893
v 11.345009 -6.320590 2.409468
v 11.146296 -6.664771 2.409468
v 9.153693 -5.055434 2.409468
v 8.954981 -5.399614 2.409468
v 9.174414 0.198713 2.806893
v 9.174414 -0.198713 2.806893
v 12.985360 0.198713 2.806893
v 12.985360 -0.198713 2.806893
v 12.985360 0.198713 2.409468
v 12.985360 -0.198713 2.409468
v 9.174414 0.198713 2.409468
v 9.174414 -0.198713 2.409468
v 8.954981 5.399614 2.806893
v 9.153693 5.055434 2.806893
v 11.146296 6.664771 2.806893
v 11.345009 6.320590 2.806893
v 11.146296 6.664771 2.409468
v 11.345009 6.320590 2.409468
v 8.954981 5.399614 2.409468
v 9.153693 5.055434 2.409468
v 5.055434 9.153693 2.806893
v 5.399614 8.954981 2.806893
v 6.320590 11.345009 2.806893
v 6.664771 11.146296 2.806893
v 6.320590 11.345009 2.409468
v 6.664771 11.146296 2.409468
v 5.055434 9.153693 2.409468
v 5.399614 8.954981 2.409468
v -0.198713 9.174414 2.806893
v 0.198713 9.174414 2.806893
v -0.198713 12.985360 2.806893
v 0.198713 12.985360 2.806893
v -0.198713 12.985360 2.409468
v 0.198713 12.985360 2.409468
v -0.198713 9.174414 2.409468
v 0.198713 9.174414 2.409468
v -5.399614 8.954981 2.806893
v -5.055434 9.153693 2.806893
v -6.664771 11.146296 2.806893
v -6.320590 11.345009 2.806893
v -6.664771 11.146296 2.409468
v -6.320590 11.345009 2.409468
v -5.399614 8.954981 2.409468
v -5.055434 9.153693 2.409468
v -9.153693 5.055434 2.806893
v -8.954981 5.399614 2.806893
v -11.345009 6.320590 2.806893
v -11.146296 6.664771 2.806893
v -11.345009 6.320590 2.409468
v -11.146296 6.664771 2.409468
v -9.153693 5.055434 2.409468
v -8.954981 5.399614 2.409468
v -9.174414 -0.198713 2.806893
v -9.174414 0.198713 2.806893
v -12.985360 -0.198713 2.806893
v -12.985360 0.198713 2.806893
v -12.985360 -0.198713 2.409468
v -12.985360 0.198713 2.409468
v -9.174414 -0.198713 2.409468
v -9.174414 0.198713 2.409468
v -8.954981 -5.399614 2.806893
v -9.153693 -5.055434 2.806893
v -11.146296 -6.664771 2.806893
v -11.345009 -6.320590 2.806893
v -11.146296 -6.664771 2.409468
v -11.345009 -6.320590 2.409468
v -8.954981 -5.399614 2.409468
v -9.153693 -5.055434 2.409468
v -5.055434 -9.153693 2.806893
v -5.399614 -8.954981 2.806893
v -6.320590 -11.345009 2.806893
v -6.664771 -11.146296 2.806893
v -6.320590 -11.345009 2.409468
v -6.664771 -11.146296 2.409468
v -5.055434 -9.153693 2.409468
v -5.399614 -8.954981 2.409468
v 0.198713 -9.174414 2.806893
v -0.198713 -9.174414 2.806893
v 0.198713 -12.985360 2.806893
v -0.198713 -12.985360 2.806893
v 0.198713 -12.985360 2.409468
v -0.198713 -12.985360 2.409468
v 0.198713 -9.174414 2.409468
v -0.198713 -9.174414 2.409468
vt 0.447859 0.884838
vt 0.458587 0.884838
vt 0.447859 0.901534
vt 0.458587 0.901534
vt 0.447859 0.901534
vt 0.458587 0.901534
vt 0.458587 0.901534
vt 0.458587 0.884838
vt 0.447859 0.884838
vt 0.447859 0.901534
vt 0.447859 0.884838
vt 0.458587 0.884838
vt 0.458587 0.901534
vt 0.447859 0.901534
vt 0.447859 0.901534
vt 0.458587 0.901534
vt 0.447859 0.884838
vt 0.447859 0.901534
vt 0.458587 0.884838
vt 0.458587 0.901534
vt 0.447859 0.884838
vt 0.458587 0.884838
vt 0.458587 0.901534
vt 0.447859 0.901534
vt 0.447859 0.901534
vt 0.458587 0.901534
vt 0.447859 0.884838
vt 0.447859 0.901534
vt 0.458587 0.884838
vt 0.458587 0.901534
vt 0.447859 0.884838
vt 0.458587 0.884838
vt 0.458587 0.901534
vt 0.447859 0.901534
vt 0.447859 0.901534
vt 0.458587 0.901534
vt 0.447859 0.884838
vt 0.447859 0.901534
vt 0.458587 0.884838
vt 0.458587 0.901534
vt 0.447859 0.884838
vt 0.458587 0.884838
vt 0.458587 0.901534
vt 0.447859 0.901534
vt 0.447859 0.901534
vt 0.458587 0.901534
vt 0.447859 0.884838
vt 0.447859 0.901534
vt 0.458587 0.884838
vt 0.458587 0.901534
vt 0.447859 0.884838
vt 0.458587 0.884838
vt 0.458587 0.901534
vt 0.447859 0.901534
vt 0.447859 0.901534
vt 0.458587 0.901534
vt 0.447859 0.884838
vt 0.447859 0.901534
vt 0.458587 0.884838
vt 0.458587 0.901534
vt 0.447859 0.884838
vt 0.458587 0.884838
vt 0.458587 0.901534
vt 0.447859 0.901534
vt 0.447859 0.901534
vt 0.458587 0.901534
vt 0.447859 0.884838
vt 0.447859 0.901534
vt 0.458587 0.884838
vt 0.458587 0.901534
vt 0.447859 0.884838
vt 0.458587 0.884838
vt 0.458587 0.901534
vt 0.447859 0.901534
vt 0.447859 0.901534
vt 0.458587 0.901534
vt 0.447859 0.884838
vt 0.447859 0.901534
vt 0.458587 0.884838
vt 0.458587 0.901534
vt 0.447859 0.884838
vt 0.458587 0.884838
vt 0.458587 0.901534
vt 0.447859 0.901534
vt 0.447859 0.901534
vt 0.458587 0.901534
vt 0.447859 0.884838
vt 0.447859 0.901534
vt 0.458587 0.884838
vt 0.458587 0.901534
vt 0.447859 0.884838
vt 0.458587 0.884838
vt 0.458587 0.901534
vt 0.447859 0.901534
vt 0.447859 0.901534
vt 0.458587 0.901534
vt 0.447859 0.884838
vt 0.447859 0.901534
vt 0.458587 0.884838
vt 0.458587 0.901534
vt 0.447859 0.884838
vt 0.458587 0.884838
vt 0.458587 0.901534
vt 0.447859 0.901534
vt 0.447859 0.901534
vt 0.458587 0.901534
vt 0.447859 0.884838
vt 0.447859 0.901534
vt 0.458587 0.884838
vt 0.458587 0.901534
vt 0.447859 0.884838
vt 0.458587 0.884838
vt 0.458587 0.901534
vt 0.447859 0.901534
vt 0.447859 0.901534
vt 0.458587 0.901534
vt 0.447859 0.884838
vt 0.447859 0.901534
vt 0.458587 0.884838
vt 0.458587 0.901534
vn 0.000000 0.000000 1.000000
vn 0.000000 0.000000 1.000000
vn 0.000000 0.000000 1.000000
vn 0.000000 0.000000 1.000000
vn -0.499999 0.866026 0.000000
vn -0.499999 0.866026 0.000000
vn -0.499999 0.866026 0.000000
vn -0.499999 0.866026 0.000000
vn -0.866025 -0.500000 0.000000
vn -0.866025 -0.500000 0.000000
vn -0.866025 -0.500000 0.000000
vn -0.866025 -0.500000 0.000000
vn 0.866025 0.500000 0.000000
vn 0.866025 0.500000 0.000000
vn 0.866025 0.500000 0.000000
vn 0.866025 0.500000 0.000000
vn -0.000000 0.000000 1.000000
vn -0.000000 0.000000 1.000000
vn -0.000000 0.000000 1.000000
vn -0.000000 0.000000 1.000000
vn -0.866026 0.499999 0.000000
vn -0.866026 0.499999 0.000000
vn -0.866026 0.499999 0.000000
vn -0.866026 0.499999 0.000000
vn -0.500000 -0.866025 0.000000
vn -0.500000 -0.866025 0.000000
vn -0.500000 -0.866025 0.000000
vn -0.500000 -0.866025 0.000000
vn 0.500000 0.866025 0.000000
vn 0.500000 0.866025 0.000000
vn 0.500000 0.866025 0.000000
vn 0.500000 0.866025 0.000000
vn 0.000000 0.000000 1.000000
vn 0.000000 0.000000 1.000000
vn 0.000000 0.000000 1.000000
vn 0.000000 0.000000 1.000000
vn -1.000000 0.000000 0.000000
vn -1.000000 0.000000 0.000000
vn -1.000000 0.000000 0.000000
vn -1.000000 0.000000 0.000000
vn 0.000000 -1.000000 0.000000
vn 0.000000 -1.000000 0.000000
vn 0.000000 -1.000000 0.000000
vn 0.000000 -1.000000 0.000000
vn 0.000000 1.000000 0.000000
vn 0.000000 1.000000 0.000000
vn 0.000000 1.000000 0.000000
vn 0.000000 1.000000 0.000000
vn -0.000000 0.000000 1.000000
vn -0.000000 0.000000 1.000000
vn -0.000000 0.000000 1.000000
vn -0.000000 0.000000 1.000000
vn -0.866026 -0.499999 0.000000
vn -0.866026 -0.499999 0.000000
vn -0.866026 -0.499999 0.000000
vn -0.866026 -0.499999 0.000000
vn 0.500000 -0.866025 0.000000
vn 0.500000 -0.866025 0.000000
vn 0.500000 -0.866025 0.000000
vn 0.500000 -0.866025 0.000000
vn -0.500000 0.866025 0.000000
vn -0.500000 0.866025 0.000000
vn -0.500000 0.866025 0.000000
vn -0.500000 0.866025 0.000000
vn 0.000000 0.000000 1.000000
vn 0.000000 0.000000 1.000000
vn 0.000000 0.000000 1.000000
vn 0.000000 0.000000 1.000000
vn -0.499999 -0.866026 0.000000
vn -0.499999 -0.866026 0.000000
vn -0.499999 -0.866026 0.000000
vn -0.499999 -0.866026 0.000000
vn 0.866025 -0.500000 0.000000
vn 0.866025 -0.500000 0.000000
vn 0.866025 -0.500000 0.000000
vn 0.866025 -0.500000 0.000000
vn -0.866025 0.500000 0.000000
vn -0.866025 0.500000 0.000000
vn -0.866025 0.500000 0.000000
vn -0.866025 0.500000 0.000000
vn 0.000000 0.000000 1.000000
vn 0.000000 0.000000 1.000000
vn 0.000000 0.000000 1.000000
vn 0.000000 0.000000 1.000000
vn 0.000000 -1.000000 0.000000
vn 0.000000 -1.000000 0.000000
vn 0.000000 -1.000000 0.000000
vn 0.000000 -1.000000 0.000000
vn 1.000000 0.000000 0.000000
vn 1.000000 0.000000 0.000000
vn 1.000000 0.000000 0.000000
vn 1.000000 0.000000 0.000000
vn -1.000000 0.000000 0.000000
vn -1.000000 0.000000 0.000000
vn -1.000000 0.000000 0.000000
vn -1.000000 0.000000 0.000000
vn 0.000000 0.000000 1.000000
vn 0.000000 0.000000 1.000000
vn 0.000000 0.000000 1.000000
vn 0.000000 0.000000 1.000000
vn 0.499999 -0.866026 0.000000
vn 0.499999 -0.866026 0.000000
vn 0.499999 -0.866026 0.000000
vn 0.499999 -0.866026 0.000000
vn 0.866025 0.500000 0.000000
vn 0.866025 0.500000 0.000000
vn 0.866025 0.500000 0.000000
vn 0.866025 0.500000 0.000000
vn -0.866025 -0.500000 0.000000
vn -0.866025 -0.500000 0.000000
vn -0.866025 -0.500000 0.000000
vn -0.866025 -0.500000 0.000000
vn 0.000000 0.000000 1.000000
vn 0.000000 0.000000 1.000000
vn 0.000000 0.000000 1.000000
vn 0.000000 0.000000 1.000000
vn 0.866026 -0.499999 0.000000
vn 0.866026 -0.499999 0.000000
vn 0.866026 -0.499999 0.000000
vn 0.866026 -0.499999 0.000000
vn 0.500000 0.866025 0.000000
vn 0.500000 0.866025 0.000000
vn 0.500000 0.866025 0.000000
vn 0.500000 0.866025 0.000000
vn -0.500000 -0.866025 0.000000
vn -0.500000 -0.866025 0.000000
vn -0.500000 -0.866025 0.000000
vn -0.500000 -0.866025 0.000000
vn 0.000000 0.000000 1.000000
vn 0.000000 0.000000 1.000000
vn 0.000000 0.000000 1.000000
vn 0.000000 0.000000 1.000000
vn 1.000000 0.000000 0.000000
vn 1.000000 0.000000 0.000000
vn 1.000000 0.000000 0.000000
vn 1.000000 0.000000 0.000000
vn 0.000000 1.000000 0.000000
vn 0.000000 1.000000 0.000000
vn 0.000000 1.000000 0.000000
vn 0.000000 1.000000 0.000000
vn 0.000000 -1.000000 0.000000
vn 0.000000 -1.000000 0.000000
vn 0.000000 -1.000000 0.000000
vn 0.000000 -1.000000 0.000000
vn 0.000000 0.000000 1.000000
vn 0.000000 0.000000 1.000000
vn 0.000000 0.000000 1.000000
vn 0.000000 0.000000 1.000000
vn 0.866026 0.499999 0.000000
vn 0.866026 0.499999 0.000000
vn 0.866026 0.499999 0.000000
vn 0.866026 0.499999 0.000000
vn -0.500000 0.866025 0.000000
vn -0.500000 0.866025 0.000000
vn -0.500000 0.866025 0.000000
vn -0.500000 0.866025 0.000000
vn 0.500000 -0.866025 0.000000
vn 0.500000 -0.866025 0.000000
vn 0.500000 -0.866025 0.000000
vn 0.500000 -0.866025 0.000000
vn 0.000000 0.000000 1.000000
vn 0.000000 0.000000 1.000000
vn 0.000000 0.000000 1.000000
vn 0.000000 0.000000 1.000000
vn 0.499999 0.866026 0.000000
vn 0.499999 0.866026 0.000000
vn 0.499999 0.866026 0.000000
vn 0.499999 0.866026 0.000000
vn -0.866025 0.500000 0.000000
vn -0.866025 0.500000 0.000000
vn -0.866025 0.500000 0.000000
vn -0.866025 0.500000 0.000000
vn 0.866025 -0.500000 0.000000
vn 0.866025 -0.500000 0.000000
vn 0.866025 -0.500000 0.000000
vn 0.866025 -0.500000 0.000000
vn 0.000000 0.000000 1.000000
vn 0.000000 0.000000 1.000000
vn 0.000000 0.000000 1.000000
vn 0.000000 0.000000 1.000000
vn 0.000000 1.000000 0.000000
vn 0.000000 1.000000 0.000000
vn 0.000000 1.000000 0.000000
vn 0.000000 1.000000 0.000000
vn -1.000000 0.000000 0.000000
vn -1.000000 0.000000 0.000000
vn -1.000000 0.000000 0.000000
vn -1.000000 0.000000 0.000000
vn 1.000000 0.000000 0.000000
vn 1.000000 0.000000 0.000000
vn 1.000000 0.000000 0.000000
vn 1.000000 0.000000 0.000000
f 1/1/1 2/2/2 4/4/3 3/3/4
f 7/5/5 8/6/6 2/2/7 1/1/8
f 2/2/9 8/9/10 6/10/11 4/4/12
f 7/8/13 1/1/14 3/3/15 5/7/16
f 9/11/17 10/12/18 12/13/19 11/14/20
f 15/15/21 16/16/22 10/12/23 9/11/24
f 10/12/25 16/17/26 14/18/27 12/13/28
f 15/19/29 9/11/30 11/14/31 13/20/32
f 17/21/33 18/22/34 20/23/35 19/24/36
f 23/25/37 24/26/38 18/22/39 17/21/40
f 18/22/41 24/27/42 22/28/43 20/23/44
f 23/29/45 17/21/46 19/24/47 21/30/48
f 25/31/49 26/32/50 28/33/51 27/34/52
f 31/35/53 32/36/54 26/32/55 25/31/56
f 26/32/57 32/37/58 30/38/59 28/33/60
f 31/39/61 25/31/62 27/34/63 29/40/64
f 33/41/65 34/42/66 36/43/67 35/44/68
f 39/45/69 40/46/70 34/42/71 33/41/72
f 34/42/73 40/47/74 38/48/75 36/43/76
f 39/49/77 33/41/78 35/44/79 37/50/80
f 41/51/81 42/52/82 44/53/83 43/54/84
f 47/55/85 48/56/86 42/52/87 41/51/88
f 42/52/89 48/57/90 46/58/91 44/53/92
f 47/59/93 41/51/94 43/54/95 45/60/96
f 49/61/97 50/62/98 52/63/99 51/64/100
f 55/65/101 56/66/102 50/62/103 49/61/104
f 50/62/105 56/67/106 54/68/107 52/63/108
f 55/69/109 49/61/110 51/64/111 53/70/112
f 57/71/113 58/72/114 60/73/115 59/74/116
f 63/75/117 64/76/118 58/72/119 57/71/120
f 58/72/121 64/77/122 62/78/123 60/73/124
f 63/79/125 57/71/126 59/74/127 61/80/128
f 65/81/129 66/82/130 68/83/131 67/84/132
f 71/85/133 72/86/134 66/82/135 65/81/136
f 66/82/137 72/87/138 70/88/139 68/83/140
f 71/89/141 65/81/142 67/84/143 69/90/144
f 73/91/145 74/92/146 76/93/147 75/94/148
f 79/95/149 80/96/150 74/92/151 73/91/152
f 74/92/153 80/97/154 78/98/155 76/93/156
f 79/99/157 73/91/158 75/94/159 77/100/160
f 81/101/161 82/102/162 84/103/163 83/104/164
f 87/105/165 88/106/166 82/102/167 81/101/168
f 82/102/169 88/107/170 86/108/171 84/103/172
f 87/109/173 81/101/174 83/104/175 85/110/176
f 89/111/177 90/112/178 92/113/179 91/114/180
f 95/115/181 96/116/182 90/112/183 89/111/184
f 90/112/185 96/117/186 94/118/187 92/113/188
f 95/119/189 89/111/190 91/114/191 93/120/192
