# This file uses meters as units for non-parametric coordinates.

v 12.513085 13.969292 -3.059724
v 12.513085 11.882990 -5.819939
v 12.513085 8.633497 -8.010458
v 12.513085 4.538897 -9.416859
v 12.513085 -0.000000 -9.901471
v 12.513085 -0.000000 9.901467
v 12.513085 4.538895 9.416855
v 12.513085 8.633491 8.010455
v 12.513085 11.882983 5.819937
v 12.513085 13.969279 3.059722
v 12.513085 13.969279 0.000000
v -12.513085 13.969292 -3.059724
v -12.513085 11.882990 -5.819939
v -12.513085 8.633497 -8.010458
v -12.513085 4.538897 -9.416859
v -12.513085 0.000000 -9.901471
v -12.513085 -0.000000 9.901467
v -12.513085 4.538895 9.416855
v -12.513085 8.633491 8.010455
v -12.513085 11.882983 5.819937
v -12.513085 13.969279 3.059722
v -12.513085 13.969279 0.000000
v 9.437227 13.969292 2.030677
v 9.437227 13.969279 -0.000000
v -9.437227 13.969279 -0.000000
v -9.437227 13.969292 2.030677
v 9.437227 13.969292 -2.030679
v -9.437227 13.969292 -2.030679
v 9.437227 8.053271 2.030677
v 9.437227 8.058563 -0.000000
v -9.437227 8.058563 -0.000000
v -9.437227 8.053271 2.030677
v 9.437227 8.053271 -2.030679
v -9.437227 8.053271 -2.030679
v 13.116146 -0.000001 9.532232
v 13.116146 -0.000000 -9.532235
v 13.116146 4.538895 9.065694
v 13.116146 8.633491 7.711739
v 13.116146 11.249172 5.602907
v 13.116146 13.335469 2.945622
v 13.116146 13.335469 -0.000000
v 13.116146 13.335480 -2.945624
v 13.116146 4.538897 -9.065697
v 13.116146 8.633496 -7.711743
v 13.116146 11.249177 -5.602909
v -13.116146 -0.000000 9.532232
v -13.116146 -0.000000 -9.532235
v -13.116146 4.538897 -9.065697
v -13.116146 4.538895 9.065694
v -13.116146 8.633491 7.711739
v -13.116146 11.249172 5.602907
v -13.116146 13.335469 2.945622
v -13.116146 13.335469 -0.000000
v -13.116146 13.335481 -2.945624
v -13.116146 11.249178 -5.602909
v -13.116146 8.633494 -7.711743
vt 0.433267 0.917427
vt 0.410340 0.917431
vt 0.432705 0.922291
vt 0.431077 0.926679
vt 0.428541 0.929482
vt 0.425346 0.931718
vt 0.421803 0.931719
vt 0.418261 0.931720
vt 0.410901 0.922295
vt 0.412529 0.926682
vt 0.415065 0.929484
vt 0.410230 0.915791
vt 0.433156 0.915787
vt 0.410791 0.920655
vt 0.432595 0.920651
vt 0.430967 0.925039
vt 0.428431 0.927842
vt 0.425235 0.930079
vt 0.421693 0.930079
vt 0.418151 0.930080
vt 0.410801 0.915839
vt 0.430430 0.915839
vt 0.410801 0.915839
vt 0.430430 0.915839
vt 0.430430 0.915839
vt 0.430430 0.915839
vt 0.414955 0.927845
vt 0.412419 0.925042
vt 0.433708 0.917389
vt 0.409893 0.917393
vt 0.433125 0.922253
vt 0.431434 0.926641
vt 0.428800 0.930124
vt 0.425480 0.932360
vt 0.421801 0.932360
vt 0.418121 0.932361
vt 0.410476 0.922257
vt 0.412167 0.926644
vt 0.414802 0.930126
vt 0.409788 0.915829
vt 0.433603 0.915825
vt 0.410371 0.920693
vt 0.433020 0.920689
vt 0.431329 0.925077
vt 0.428695 0.928559
vt 0.425375 0.930795
vt 0.421696 0.930796
vt 0.418016 0.930797
vt 0.414696 0.928562
vt 0.430430 0.933359
vt 0.410801 0.933359
vt 0.412062 0.925080
vt 0.430430 0.933359
vt 0.410801 0.933359
vt 0.430430 0.933359
vt 0.430430 0.933359
vt 0.430940 0.929076
vt 0.430973 0.916060
vt 0.410017 0.916060
vt 0.410088 0.929030
vt 0.410801 0.915839
vt 0.430955 0.929030
vt 0.409999 0.929030
vt 0.410801 0.933359
vt 0.410801 0.915839
vt 0.430936 0.916060
vt 0.409980 0.916060
vt 0.410801 0.933359
vt 0.430430 0.915839
vt 0.430917 0.929030
vt 0.409961 0.929030
vt 0.410801 0.915839
vt 0.431072 0.916662
vt 0.431053 0.930330
vt 0.410097 0.930330
vt 0.410116 0.916662
vt 0.410801 0.933359
vt 0.431035 0.916662
vt 0.410079 0.916662
vt 0.430430 0.933359
vt 0.430430 0.915839
vt 0.431016 0.930330
vt 0.410060 0.930330
vt 0.410801 0.915839
vt 0.410801 0.933359
vt 0.430945 0.916662
vt 0.410093 0.916616
vt 0.430430 0.933359
vt 0.430430 0.933359
vt 0.410801 0.933359
vt 0.410801 0.915839
vt 0.430430 0.915839
vt 0.430430 0.933359
vt 0.410801 0.933359
vt 0.410801 0.915839
vt 0.430430 0.915839
vt 0.412691 0.926949
vt 0.428339 0.926983
vt 0.412693 0.922829
vt 0.412695 0.918709
vt 0.410143 0.922823
vt 0.428342 0.918744
vt 0.428340 0.922863
vt 0.430890 0.922869
vt 0.409942 0.916060
vt 0.430898 0.916060
vn 0.000000 0.797755 -0.602981
vn 0.000000 0.680161 -0.733063
vn 0.000000 0.680161 -0.733063
vn 0.000000 0.797755 -0.602981
vn 0.000000 0.439849 -0.898072
vn 0.000000 0.439849 -0.898072
vn 0.000000 0.213960 -0.976842
vn 0.000000 0.213960 -0.976842
vn 0.000000 0.106165 -0.994349
vn 0.000000 0.106165 -0.994349
vn 0.000000 0.106165 0.994349
vn 0.000000 0.213960 0.976842
vn 0.000000 0.213960 0.976842
vn 0.000000 0.106165 0.994349
vn 0.000000 0.439849 0.898072
vn 0.000000 0.439849 0.898072
vn 0.000000 0.680161 0.733063
vn 0.000000 0.680161 0.733063
vn 0.000000 0.797756 0.602980
vn 0.000000 0.797756 0.602980
vn 0.000000 0.999997 0.002606
vn 0.000000 1.000000 0.000000
vn 0.000000 1.000000 0.000000
vn 0.000000 0.999997 0.002606
vn 0.000000 0.999997 -0.002606
vn 0.000000 0.999997 -0.002606
vn 1.000000 -0.000000 -0.000000
vn 1.000000 -0.000000 0.000000
vn 1.000000 -0.000000 -0.000000
vn 1.000000 -0.000000 0.000000
vn 1.000000 -0.000000 -0.000000
vn 1.000000 -0.000000 -0.000000
vn 1.000000 -0.000000 -0.000000
vn 1.000000 -0.000000 -0.000000
vn 1.000000 -0.000000 0.000001
vn 1.000000 -0.000000 0.000000
vn 1.000000 -0.000000 0.000000
vn -1.000000 0.000000 0.000000
vn -1.000000 0.000000 0.000000
vn -1.000000 0.000000 0.000000
vn -1.000000 0.000000 -0.000000
vn -1.000000 0.000000 -0.000000
vn -1.000000 0.000000 0.000000
vn -1.000000 0.000000 0.000000
vn -1.000000 0.000000 0.000000
vn -1.000000 0.000000 0.000000
vn -1.000000 0.000000 0.000002
vn -1.000000 0.000000 0.000000
vn -0.000000 -1.000000 -0.000000
vn -0.000000 -1.000000 -0.000000
vn -0.000000 -1.000000 -0.000000
vn -0.000000 -1.000000 -0.000000
vn 0.000002 1.000000 -0.000002
vn 0.000002 1.000000 0.000001
vn 0.000002 1.000000 0.000001
vn 0.000002 1.000000 -0.000002
vn -0.000002 1.000000 0.000001
vn -0.000002 1.000000 -0.000002
vn -0.000002 1.000000 -0.000002
vn -0.000002 1.000000 0.000001
vn 0.000000 1.000000 0.000012
vn 0.000000 1.000000 0.000012
vn 0.000000 1.000000 0.000012
vn 0.000000 1.000000 0.000012
vn 0.000001 1.000000 0.000005
vn 0.000001 1.000000 0.000005
vn 0.000000 1.000000 0.000000
vn 0.000000 1.000000 0.000000
vn 0.000000 1.000000 0.000000
vn 0.000000 1.000000 0.000000
vn -0.000001 1.000000 0.000005
vn -0.000001 1.000000 0.000005
vn -1.000000 0.000000 0.000000
vn -1.000000 0.000000 0.000000
vn -1.000000 0.000000 0.000000
vn -1.000000 0.000000 0.000000
vn 1.000000 -0.000000 0.000000
vn 1.000000 -0.000000 0.000000
vn 1.000000 -0.000000 0.000000
vn 1.000000 -0.000000 0.000000
vn 0.000000 0.000000 -1.000000
vn 0.000000 0.000000 -1.000000
vn 0.000000 0.000000 -1.000000
vn 0.000000 0.000000 -1.000000
vn -1.000000 0.000000 0.000000
vn -1.000000 0.000000 0.000000
vn -1.000000 0.000000 0.000000
vn -1.000000 0.000000 0.000000
vn 0.000000 0.000000 1.000000
vn 0.000000 0.000000 1.000000
vn 0.000000 0.000000 1.000000
vn 0.000000 0.000000 1.000000
vn 1.000000 -0.000000 0.000000
vn 1.000000 -0.000000 0.000000
vn 1.000000 -0.000000 0.000000
vn 1.000000 -0.000000 0.000000
vn -0.000000 -1.000000 -0.000000
vn -0.000000 -1.000000 -0.000000
vn -0.000000 -1.000000 -0.000000
vn -0.000000 -1.000000 -0.000000
vn 0.489874 0.171591 0.854740
vn 0.510718 0.089592 0.855068
vn 0.510718 0.089592 0.855068
vn 0.483485 0.194072 0.853568
vn 0.494005 0.365540 0.788885
vn 0.513368 0.408652 0.754624
vn 0.645010 0.537417 0.543273
vn 0.634859 0.533270 0.559086
vn 0.707168 0.560157 0.431437
vn 0.707168 0.560157 0.431437
vn 0.724462 0.689315 0.000001
vn 0.724462 0.689315 0.000000
vn 0.724462 0.689315 0.000000
vn 0.724462 0.689315 0.000001
vn 0.724462 0.689315 0.000003
vn 0.724462 0.689315 0.000003
vn 0.510717 0.089592 -0.855068
vn 0.489874 0.171591 -0.854740
vn 0.483485 0.194072 -0.853568
vn 0.510717 0.089592 -0.855068
vn 0.494005 0.365540 -0.788885
vn 0.513368 0.408652 -0.754624
vn 0.645010 0.537417 -0.543273
vn 0.634859 0.533270 -0.559086
vn 0.707168 0.560157 -0.431437
vn 0.707168 0.560157 -0.431437
vn 0.000000 -1.000000 -0.000000
vn 0.000000 -1.000000 -0.000000
vn 0.000000 -1.000000 -0.000000
vn 0.000000 -1.000000 -0.000000
vn -0.489875 0.171591 -0.854739
vn -0.510718 0.089592 -0.855068
vn -0.510718 0.089592 -0.855068
vn -0.483486 0.194072 -0.853568
vn -0.510718 0.089592 0.855067
vn -0.489875 0.171591 0.854739
vn -0.483485 0.194072 0.853568
vn -0.510718 0.089592 0.855067
vn -0.494005 0.365540 0.788885
vn -0.513368 0.408652 0.754624
vn -0.645009 0.537417 0.543273
vn -0.634859 0.533270 0.559086
vn -0.707168 0.560157 0.431437
vn -0.707168 0.560157 0.431437
vn -0.724462 0.689315 0.000000
vn -0.724462 0.689315 0.000001
vn -0.724462 0.689315 0.000001
vn -0.724462 0.689315 0.000000
vn -0.724462 0.689315 0.000003
vn -0.724462 0.689315 0.000003
vn -0.707167 0.560157 -0.431438
vn -0.645009 0.537417 -0.543273
vn -0.634859 0.533270 -0.559086
vn -0.707167 0.560157 -0.431438
vn -0.494006 0.365540 -0.788884
vn -0.513369 0.408652 -0.754623
f 1/57/1 2/58/2 13/59/3 12/60/4
f 2/58/2 3/62/5 14/63/6 13/59/3
f 3/62/5 4/66/7 15/67/8 14/63/6
f 4/66/7 5/70/9 16/71/10 15/67/8
f 6/73/11 7/74/12 18/75/13 17/76/14
f 7/74/12 8/78/15 19/79/16 18/75/13
f 8/78/15 9/82/17 20/83/18 19/79/16
f 9/82/17 10/86/19 21/87/20 20/83/18
f 29/89/21 30/90/22 31/91/23 32/92/24
f 30/93/22 33/94/25 34/95/26 31/96/23
f 35/1/27 36/2/28 37/3/29
f 37/3/29 36/2/28 38/4/30
f 38/4/30 36/2/28 39/5/31
f 39/5/31 36/2/28 40/6/32
f 40/6/32 36/2/28 41/7/33
f 41/7/33 36/2/28 42/8/34
f 36/2/28 43/9/35 42/8/34
f 43/9/35 44/10/36 42/8/34
f 44/10/36 45/11/37 42/8/34
f 47/12/38 46/13/39 48/14/40
f 46/13/39 49/15/41 48/14/40
f 49/15/41 50/16/42 48/14/40
f 50/16/42 51/17/43 48/14/40
f 51/17/43 52/18/44 48/14/40
f 52/18/44 53/19/45 48/14/40
f 53/19/45 54/20/46 48/14/40
f 54/20/46 55/27/47 48/14/40
f 55/27/47 56/28/48 48/14/40
f 5/70/49 6/106/50 17/105/51 16/71/52
f 10/86/53 11/104/54 24/103/55 23/102/56
f 22/101/57 21/87/58 26/100/59 25/99/60
f 21/87/61 10/86/62 23/102/63 26/100/64
f 11/104/54 1/57/65 27/98/66 24/103/55
f 1/57/67 12/60/68 28/97/69 27/98/70
f 12/60/71 22/101/57 25/99/60 28/97/72
f 23/88/73 24/85/74 30/84/75 29/81/76
f 25/80/77 26/77/78 32/72/79 31/69/80
f 26/53/81 23/51/82 29/21/83 32/24/84
f 24/50/85 27/68/86 33/65/87 30/22/88
f 27/55/89 28/64/90 34/61/91 33/25/92
f 28/56/93 25/54/94 31/23/95 34/26/96
f 6/29/97 5/30/98 36/2/99 35/1/100
f 7/31/101 6/29/102 35/1/103 37/3/104
f 8/32/105 7/31/101 37/3/104 38/4/106
f 9/33/107 8/32/105 38/4/106 39/5/108
f 10/34/109 9/33/107 39/5/108 40/6/110
f 11/35/111 10/34/112 40/6/113 41/7/114
f 1/36/115 11/35/111 41/7/114 42/8/116
f 5/30/117 4/37/118 43/9/119 36/2/120
f 4/37/118 3/38/121 44/10/122 43/9/119
f 3/38/121 2/39/123 45/11/124 44/10/122
f 2/39/123 1/36/125 42/8/126 45/11/124
f 16/40/127 17/41/128 46/13/129 47/12/130
f 15/42/131 16/40/132 47/12/133 48/14/134
f 17/41/135 18/43/136 49/15/137 46/13/138
f 18/43/136 19/44/139 50/16/140 49/15/137
f 19/44/139 20/45/141 51/17/142 50/16/140
f 20/45/141 21/46/143 52/18/144 51/17/142
f 21/46/145 22/47/146 53/19/147 52/18/148
f 22/47/146 12/48/149 54/20/150 53/19/147
f 12/48/151 13/49/152 55/27/153 54/20/154
f 13/49/152 14/52/155 56/28/156 55/27/153
f 14/52/155 15/42/131 48/14/134 56/28/156
