# This file uses meters as units for non-parametric coordinates.

v -0.074435 -0.882635 0.609511
v 0.074435 -0.882635 0.609511
v -0.074435 4.734285 0.609511
v 0.074435 4.734285 0.609511
v 0.000000 4.902853 0.609511
v 0.000000 -1.051205 0.609511
vt 0.398974 0.853423
vt 0.398974 0.853423
vt 0.381611 0.853423
vt 0.381611 0.853423
vt 0.381611 0.867901
vt 0.398974 0.867901
vn 0.000000 0.000000 1.000000
vn 0.000000 0.000000 1.000000
vn 0.000000 0.000000 1.000000
vn 0.000000 0.000000 1.000000
vn 0.000000 0.000000 1.000000
vn 0.000000 0.000000 1.000000
f 6/6/1 2/2/2 4/4/3 5/5/4
f 1/1/5 6/6/1 5/5/4 3/3/6
