# This file uses meters as units for non-parametric coordinates.

v -9.633377 -15.154419 -1.106136
v 9.633377 -15.154419 -1.106136
v -9.633377 2.566669 1.797123
v 9.633377 2.566669 1.797123
v -9.633377 2.679874 1.106136
v 9.633377 2.679874 1.106136
v -9.633377 -15.041218 -1.797123
v 9.633377 -15.041218 -1.797123
v -6.497005 -11.866955 -0.567547
v 6.497005 -11.866955 -0.567547
v 6.497005 -0.720797 1.258537
v -6.497005 -0.720797 1.258537
v -6.497005 -0.607592 0.567547
v 6.497005 -0.607592 0.567547
v 6.497005 -11.753750 -1.258537
v -6.497005 -11.753750 -1.258537
vt 0.254969 0.994949
vt 0.277106 0.995308
vt 0.277129 0.992346
vt 0.254991 0.991986
vt 0.277118 0.992216
vt 0.255003 0.992116
vt 0.254980 0.995079
vt 0.277095 0.995179
vt 0.258518 0.980014
vt 0.272447 0.980288
vt 0.272436 0.980158
vt 0.258530 0.980144
vt 0.272458 0.980418
vt 0.258552 0.980403
vt 0.258541 0.980273
vt 0.272469 0.980548
vn 0.000000 0.986844 0.161675
vn 0.000000 0.986844 0.161675
vn 0.000000 0.986844 0.161675
vn 0.000000 0.986844 0.161675
vn 0.000000 -0.986845 -0.161671
vn 0.000000 -0.986845 -0.161671
vn 0.000000 -0.986845 -0.161671
vn 0.000000 -0.986845 -0.161671
vn 1.000000 0.000000 0.000000
vn 1.000000 0.000000 0.000000
vn 1.000000 0.000000 0.000000
vn 1.000000 0.000000 0.000000
vn -1.000000 0.000000 0.000000
vn -1.000000 0.000000 0.000000
vn -1.000000 0.000000 0.000000
vn -1.000000 0.000000 0.000000
vn 0.000000 -0.161676 0.986844
vn 0.000000 -0.161676 0.986844
vn 0.000000 -0.161676 0.986844
vn 0.000000 -0.161676 0.986844
vn 0.000001 -0.161675 0.986844
vn 0.000001 -0.161675 0.986844
vn 0.000001 -0.161675 0.986844
vn 0.000001 -0.161675 0.986844
vn 0.000000 -0.161675 0.986844
vn 0.000000 -0.161675 0.986844
vn 0.000000 -0.161675 0.986844
vn 0.000000 -0.161675 0.986844
vn -0.000001 -0.161675 0.986844
vn -0.000001 -0.161675 0.986844
vn -0.000001 -0.161675 0.986844
vn -0.000001 -0.161675 0.986844
vn 0.000000 0.161676 -0.986844
vn 0.000000 0.161676 -0.986844
vn 0.000000 0.161676 -0.986844
vn 0.000000 0.161676 -0.986844
vn 0.000001 0.161675 -0.986844
vn 0.000001 0.161675 -0.986844
vn 0.000001 0.161675 -0.986844
vn 0.000001 0.161675 -0.986844
vn 0.000000 0.161675 -0.986844
vn 0.000000 0.161675 -0.986844
vn 0.000000 0.161675 -0.986844
vn 0.000000 0.161675 -0.986844
vn -0.000001 0.161675 -0.986844
vn -0.000001 0.161675 -0.986844
vn -0.000001 0.161675 -0.986844
vn -0.000001 0.161675 -0.986844
vn -1.000000 0.000000 0.000000
vn -1.000000 0.000000 0.000000
vn -1.000000 0.000000 0.000000
vn -1.000000 0.000000 0.000000
vn 0.000000 -0.986844 -0.161675
vn 0.000000 -0.986844 -0.161675
vn 0.000000 -0.986844 -0.161675
vn 0.000000 -0.986844 -0.161675
vn 1.000000 0.000000 0.000000
vn 1.000000 0.000000 0.000000
vn 1.000000 0.000000 0.000000
vn 1.000000 0.000000 0.000000
vn 0.000000 0.986844 0.161675
vn 0.000000 0.986844 0.161675
vn 0.000000 0.986844 0.161675
vn 0.000000 0.986844 0.161675
f 3/1/1 4/2/2 6/3/3 5/4/4
f 7/5/5 8/6/6 2/7/7 1/8/8
f 2/7/9 8/6/10 6/3/11 4/2/12
f 7/5/13 1/8/14 3/1/15 5/4/16
f 1/8/17 2/7/18 10/9/19 9/10/20
f 2/7/21 4/2/22 11/11/23 10/9/24
f 4/2/25 3/1/26 12/12/27 11/11/28
f 3/1/29 1/8/30 9/10/31 12/12/32
f 5/4/33 6/3/34 14/13/35 13/14/36
f 6/3/37 8/6/38 15/15/39 14/13/40
f 8/6/41 7/5/42 16/16/43 15/15/44
f 7/5/45 5/4/46 13/14/47 16/16/48
f 10/9/49 11/11/50 14/13/51 15/15/52
f 11/11/53 12/12/54 13/14/55 14/13/56
f 12/12/57 9/10/58 16/16/59 13/14/60
f 9/10/61 10/9/62 15/15/63 16/16/64
