# This file uses meters as units for non-parametric coordinates.

v -5.871194 -5.871195 -0.164285
v 5.871194 -5.871195 -0.164285
v 5.871194 5.871195 -0.164285
v -5.871194 5.871195 -0.164285
v -5.454510 -5.454511 -0.164285
v 5.454510 -5.454511 -0.164285
v 5.454510 5.454512 -0.164285
v -5.454510 5.454512 -0.164285
v -0.227396 6.370533 -0.065669
v 0.034673 6.432769 -0.065669
v -0.969162 9.494341 -0.065669
v -0.707092 9.556576 -0.065669
v -0.969162 9.494341 -0.347614
v -0.707092 9.556576 -0.347614
v -0.227396 6.370533 -0.347614
v 0.034673 6.432769 -0.347614
v -0.786705 6.384573 -0.110086
v -0.519157 6.353417 -0.110086
v -0.415331 9.573692 -0.110086
v -0.147783 9.542536 -0.110086
v -0.415331 9.573692 -0.303198
v -0.147783 9.542536 -0.303198
v -0.786705 6.384573 -0.303198
v -0.519157 6.353417 -0.303198
v 0.063922 6.373021 -0.065669
v 0.333148 6.364629 -0.065669
v 0.163963 9.582130 -0.065669
v 0.433189 9.573739 -0.065669
v 0.163963 9.582130 -0.347614
v 0.433189 9.573739 -0.347614
v 0.063922 6.373021 -0.347614
v 0.333148 6.364629 -0.347614
v 0.442741 6.357943 -0.065669
v 0.710991 6.333558 -0.065669
v 0.733415 9.555426 -0.065669
v 1.001665 9.531041 -0.065669
v 0.733415 9.555426 -0.347614
v 1.001665 9.531041 -0.347614
v 0.442741 6.357943 -0.347614
v 0.710991 6.333558 -0.347614
v 6.346994 0.578835 -0.065669
v 6.365783 0.310136 -0.065669
v 9.549842 0.802799 -0.065669
v 9.568630 0.534099 -0.065669
v 9.549842 0.802799 -0.347614
v 9.568630 0.534099 -0.347614
v 6.346994 0.578835 -0.347614
v 6.365783 0.310136 -0.347614
v 6.371910 0.134680 -0.065669
v 6.371910 -0.134676 -0.065669
v 9.582579 0.134680 -0.065669
v 9.582579 -0.134676 -0.065669
v 9.582579 0.134680 -0.347614
v 9.582579 -0.134676 -0.347614
v 6.371910 0.134680 -0.347614
v 6.371910 -0.134676 -0.347614
v 6.365783 -0.310131 -0.065669
v 6.346994 -0.578831 -0.065669
v 9.568630 -0.534095 -0.065669
v 9.549842 -0.802794 -0.065669
v 9.568630 -0.534095 -0.347614
v 9.549842 -0.802794 -0.347614
v 6.365783 -0.310131 -0.347614
v 6.346994 -0.578831 -0.347614
v 0.297175 -7.632658 -0.065669
v 0.117496 -6.447711 -0.065669
v 0.206058 -9.498432 -0.065669
v -0.062980 -9.485330 -0.065669
v 0.206058 -9.498432 -0.347614
v -0.062980 -9.485330 -0.347614
v 0.297175 -7.632658 -0.347614
v 0.117496 -6.447711 -0.347614
v 0.418401 -6.412588 -0.065669
v 0.796093 -9.421688 -0.065669
v 0.528868 -9.455510 -0.065669
v 0.796093 -9.421688 -0.347614
v 0.528868 -9.455510 -0.347614
v 0.418401 -6.412588 -0.347614
v 0.564877 -7.594633 -0.065669
v 0.564877 -7.594633 -0.347614
v -0.148664 -6.371605 -0.065669
v -0.417755 -6.359633 -0.065669
v -0.291364 -9.579101 -0.065669
v -0.560454 -9.567129 -0.065669
v -0.291364 -9.579101 -0.347614
v -0.560454 -9.567129 -0.347614
v -0.148664 -6.371605 -0.347614
v -0.417755 -6.359633 -0.347614
v -6.360979 0.416564 -0.065669
v -6.396446 0.683573 -0.065669
v -9.543686 -0.006220 -0.065669
v -9.579154 0.260791 -0.065669
v -9.543686 -0.006220 -0.347614
v -9.579154 0.260791 -0.347614
v -6.360979 0.416564 -0.347614
v -6.396446 0.683573 -0.347614
v -6.431376 -0.138475 -0.110086
v -6.373384 0.124569 -0.110086
v -9.566749 0.552790 -0.110086
v -9.508756 0.815828 -0.110086
v -9.566749 0.552790 -0.303198
v -9.508756 0.815828 -0.303198
v -6.431376 -0.138475 -0.303198
v -6.373384 0.124569 -0.303198
v -6.355418 -0.477709 -0.065669
v -6.369926 -0.208743 -0.065669
v -9.561424 -0.650650 -0.065669
v -9.575933 -0.381685 -0.065669
v -9.561424 -0.650650 -0.347614
v -9.575933 -0.381685 -0.347614
v -6.355418 -0.477709 -0.347614
v -6.369926 -0.208743 -0.347614
v -10.442421 -10.442423 -0.164285
v 10.442421 -10.442423 -0.164285
v 10.442421 10.442423 -0.164285
v -10.442421 10.442423 -0.164285
v -10.083324 -10.083325 -0.164285
v 10.083324 -10.083325 -0.164285
v 10.083324 10.083326 -0.164285
v -10.083324 10.083326 -0.164285
vt 0.705747 0.208598
vt 0.643415 0.208598
vt 0.705747 0.208598
vt 0.643415 0.208598
vt 0.702628 0.221109
vt 0.646534 0.221109
vt 0.702628 0.221109
vt 0.646534 0.221109
vt 0.700392 0.233432
vt 0.700392 0.204423
vt 0.649520 0.204423
vt 0.649520 0.233432
vt 0.700392 0.233432
vt 0.649520 0.233432
vt 0.700392 0.204423
vt 0.649520 0.204423
vt 0.700392 0.233432
vt 0.700392 0.204423
vt 0.649520 0.204423
vt 0.649520 0.233432
vt 0.700392 0.233432
vt 0.649520 0.233432
vt 0.700392 0.204423
vt 0.649520 0.204423
vt 0.700392 0.233432
vt 0.700392 0.204423
vt 0.649520 0.204423
vt 0.649520 0.233432
vt 0.700392 0.233432
vt 0.649520 0.233432
vt 0.700392 0.204423
vt 0.649520 0.204423
vt 0.700392 0.233432
vt 0.700392 0.204423
vt 0.649520 0.204423
vt 0.649520 0.233432
vt 0.700392 0.233432
vt 0.649520 0.233432
vt 0.700392 0.204423
vt 0.649520 0.204423
vt 0.700392 0.233432
vt 0.700392 0.204423
vt 0.649520 0.204423
vt 0.649520 0.233432
vt 0.700392 0.233432
vt 0.649520 0.233432
vt 0.700392 0.204423
vt 0.649520 0.204423
vt 0.700392 0.233432
vt 0.700392 0.204423
vt 0.649520 0.204423
vt 0.649520 0.233432
vt 0.700392 0.233432
vt 0.649520 0.233432
vt 0.700392 0.204423
vt 0.649520 0.204423
vt 0.700392 0.233432
vt 0.700392 0.204423
vt 0.649520 0.204423
vt 0.649520 0.233432
vt 0.700392 0.233432
vt 0.649520 0.233432
vt 0.700392 0.204423
vt 0.649520 0.204423
vt 0.700392 0.233432
vt 0.700392 0.204423
vt 0.649520 0.204423
vt 0.649520 0.233432
vt 0.700392 0.233432
vt 0.649520 0.233432
vt 0.700392 0.204423
vt 0.649520 0.204423
vt 0.700392 0.233432
vt 0.700392 0.204423
vt 0.675873 0.204423
vt 0.675873 0.233432
vt 0.700392 0.204423
vt 0.675873 0.204423
vt 0.649520 0.204423
vt 0.649520 0.233432
vt 0.649520 0.204423
vt 0.675873 0.233432
vt 0.649520 0.233432
vt 0.700392 0.233432
vt 0.700392 0.204423
vt 0.649520 0.204423
vt 0.649520 0.233432
vt 0.700392 0.233432
vt 0.649520 0.233432
vt 0.700392 0.204423
vt 0.649520 0.204423
vt 0.700392 0.233432
vt 0.700392 0.204423
vt 0.649520 0.204423
vt 0.649520 0.233432
vt 0.700392 0.233432
vt 0.649520 0.233432
vt 0.700392 0.204423
vt 0.649520 0.204423
vt 0.700392 0.233432
vt 0.700392 0.204423
vt 0.649520 0.204423
vt 0.649520 0.233432
vt 0.700392 0.233432
vt 0.649520 0.233432
vt 0.700392 0.204423
vt 0.649520 0.204423
vt 0.700392 0.233432
vt 0.700392 0.204423
vt 0.649520 0.204423
vt 0.649520 0.233432
vt 0.700392 0.233432
vt 0.649520 0.233432
vt 0.700392 0.204423
vt 0.649520 0.204423
vt 0.700392 0.204423
vt 0.700392 0.204423
vt 0.700392 0.204423
vt 0.700392 0.204423
vt 0.700392 0.204423
vt 0.700392 0.204423
vt 0.700392 0.204423
vt 0.700392 0.204423
vt 0.700392 0.204423
vt 0.700392 0.204423
vt 0.700392 0.204423
vt 0.700392 0.204423
vt 0.705747 0.208598
vt 0.643415 0.208598
vt 0.646534 0.221109
vt 0.702628 0.221109
vt 0.705747 0.208598
vt 0.702628 0.221109
vt 0.643415 0.208598
vt 0.646534 0.221109
vn 0.000000 0.000000 1.000000
vn 0.000000 0.000000 1.000000
vn 0.000000 0.000000 1.000000
vn 0.000000 0.000000 1.000000
vn 0.000000 0.000000 1.000000
vn 0.000000 0.000000 1.000000
vn 0.000000 0.000000 1.000000
vn 0.000000 0.000000 1.000000
vn 0.000000 0.000000 1.000000
vn 0.000000 0.000000 1.000000
vn 0.000000 0.000000 1.000000
vn 0.000000 0.000000 1.000000
vn -0.000000 0.000000 1.000000
vn -0.000000 0.000000 1.000000
vn -0.000000 0.000000 1.000000
vn -0.000000 0.000000 1.000000
vn 0.000000 0.000000 1.000000
vn 0.000000 0.000000 1.000000
vn 0.000000 0.000000 1.000000
vn 0.000000 0.000000 1.000000
vn 0.972946 0.231032 0.000000
vn 0.972946 0.231032 0.000000
vn 0.972946 0.231032 0.000000
vn 0.972946 0.231032 0.000000
vn -0.972946 -0.231032 0.000000
vn -0.972946 -0.231032 0.000000
vn -0.972946 -0.231032 0.000000
vn -0.972946 -0.231032 0.000000
vn 0.000000 0.000000 1.000000
vn 0.000000 0.000000 1.000000
vn 0.000000 0.000000 1.000000
vn 0.000000 0.000000 1.000000
vn 0.993288 -0.115669 0.000000
vn 0.993288 -0.115669 0.000000
vn 0.993288 -0.115669 0.000000
vn 0.993288 -0.115669 0.000000
vn -0.993288 0.115669 0.000000
vn -0.993288 0.115669 0.000000
vn -0.993288 0.115669 0.000000
vn -0.993288 0.115669 0.000000
vn 0.000000 0.000000 1.000000
vn 0.000000 0.000000 1.000000
vn 0.000000 0.000000 1.000000
vn 0.000000 0.000000 1.000000
vn 0.999515 -0.031159 0.000000
vn 0.999515 -0.031159 0.000000
vn 0.999515 -0.031159 0.000000
vn 0.999515 -0.031159 0.000000
vn -0.999515 0.031159 0.000000
vn -0.999515 0.031159 0.000000
vn -0.999515 0.031159 0.000000
vn -0.999515 0.031159 0.000000
vn 0.000000 0.000000 1.000000
vn 0.000000 0.000000 1.000000
vn 0.000000 0.000000 1.000000
vn 0.000000 0.000000 1.000000
vn 0.995893 -0.090534 0.000000
vn 0.995893 -0.090534 0.000000
vn 0.995893 -0.090534 0.000000
vn 0.995893 -0.090534 0.000000
vn -0.995893 0.090534 0.000000
vn -0.995893 0.090534 0.000000
vn -0.995893 0.090534 0.000000
vn -0.995893 0.090534 0.000000
vn 0.000000 0.000000 1.000000
vn 0.000000 0.000000 1.000000
vn 0.000000 0.000000 1.000000
vn 0.000000 0.000000 1.000000
vn 0.069756 -0.997564 0.000000
vn 0.069756 -0.997564 0.000000
vn 0.069756 -0.997564 0.000000
vn 0.069756 -0.997564 0.000000
vn -0.069756 0.997564 0.000000
vn -0.069756 0.997564 0.000000
vn -0.069756 0.997564 0.000000
vn -0.069756 0.997564 0.000000
vn 0.000000 0.000000 1.000000
vn 0.000000 0.000000 1.000000
vn 0.000000 0.000000 1.000000
vn 0.000000 0.000000 1.000000
vn 0.000000 -1.000000 0.000000
vn 0.000000 -1.000000 0.000000
vn 0.000000 -1.000000 0.000000
vn 0.000000 -1.000000 0.000000
vn 0.000000 1.000000 0.000000
vn 0.000000 1.000000 0.000000
vn 0.000000 1.000000 0.000000
vn 0.000000 1.000000 0.000000
vn 0.000000 0.000000 1.000000
vn 0.000000 0.000000 1.000000
vn 0.000000 0.000000 1.000000
vn 0.000000 0.000000 1.000000
vn -0.069756 -0.997564 0.000000
vn -0.069756 -0.997564 0.000000
vn -0.069756 -0.997564 0.000000
vn -0.069756 -0.997564 0.000000
vn 0.069756 0.997564 0.000000
vn 0.069756 0.997564 0.000000
vn 0.069756 0.997564 0.000000
vn 0.069756 0.997564 0.000000
vn 0.000000 0.000000 1.000000
vn 0.000000 0.000000 1.000000
vn 0.000000 0.000000 1.000000
vn 0.000000 0.000000 1.000000
vn -0.998240 0.059309 0.000000
vn -0.998240 0.059309 0.000000
vn -0.998240 0.059309 0.000000
vn -0.998240 0.059309 0.000000
vn 0.998810 -0.048778 0.000000
vn 0.998810 -0.048778 0.000000
vn 0.998810 -0.048778 0.000000
vn 0.998810 -0.048778 0.000000
vn 0.000000 0.000000 1.000000
vn 0.000000 0.000000 1.000000
vn 0.000000 0.000000 1.000000
vn 0.000000 0.000000 1.000000
vn 0.992410 0.122977 0.000000
vn 0.992410 0.122977 0.000000
vn 0.992215 0.124539 0.000000
vn 0.992215 0.124539 0.000000
vn 0.000000 0.000000 1.000000
vn 0.000000 0.000000 1.000000
vn 0.992087 0.125550 0.000000
vn 0.992087 0.125550 0.000000
vn -0.992019 -0.126090 0.000000
vn -0.992019 -0.126090 0.000000
vn -0.992019 -0.126090 0.000000
vn -0.992019 -0.126090 0.000000
vn 0.000000 0.000000 1.000000
vn 0.000000 0.000000 1.000000
vn 0.000000 0.000000 1.000000
vn 0.000000 0.000000 1.000000
vn -0.999012 0.044446 0.000000
vn -0.999012 0.044446 0.000000
vn -0.999012 0.044446 0.000000
vn -0.999012 0.044446 0.000000
vn 0.999012 -0.044446 0.000000
vn 0.999012 -0.044446 0.000000
vn 0.999012 -0.044446 0.000000
vn 0.999012 -0.044446 0.000000
vn 0.000000 0.000000 1.000000
vn 0.000000 0.000000 1.000000
vn 0.000000 0.000000 1.000000
vn 0.000000 0.000000 1.000000
vn -0.131681 0.991292 0.000000
vn -0.131681 0.991292 0.000000
vn -0.131681 0.991292 0.000000
vn -0.131681 0.991292 0.000000
vn 0.131681 -0.991292 0.000000
vn 0.131681 -0.991292 0.000000
vn 0.131681 -0.991292 0.000000
vn 0.131681 -0.991292 0.000000
vn 0.000000 0.000000 1.000000
vn 0.000000 0.000000 1.000000
vn 0.000000 0.000000 1.000000
vn 0.000000 0.000000 1.000000
vn 0.215301 0.976548 0.000000
vn 0.215301 0.976548 0.000000
vn 0.215301 0.976548 0.000000
vn 0.215301 0.976548 0.000000
vn -0.215302 -0.976547 0.000000
vn -0.215302 -0.976547 0.000000
vn -0.215302 -0.976547 0.000000
vn -0.215302 -0.976547 0.000000
vn -0.000000 0.000000 1.000000
vn -0.000000 0.000000 1.000000
vn -0.000000 0.000000 1.000000
vn -0.000000 0.000000 1.000000
vn -0.053865 0.998548 0.000000
vn -0.053865 0.998548 0.000000
vn -0.053865 0.998548 0.000000
vn -0.053865 0.998548 0.000000
vn 0.053865 -0.998548 0.000000
vn 0.053865 -0.998548 0.000000
vn 0.053865 -0.998548 0.000000
vn 0.053865 -0.998548 0.000000
vn 0.991293 0.131676 0.000000
vn 0.991293 0.131676 0.000000
vn 0.991293 0.131676 0.000000
vn 0.991293 0.131676 0.000000
vn -0.991293 -0.131676 0.000000
vn -0.991293 -0.131676 0.000000
vn -0.991293 -0.131676 0.000000
vn -0.991293 -0.131676 0.000000
vn 0.976549 -0.215294 0.000000
vn 0.976549 -0.215294 0.000000
vn 0.976549 -0.215294 0.000000
vn 0.976549 -0.215294 0.000000
vn -0.976547 0.215303 0.000000
vn -0.976547 0.215303 0.000000
vn -0.976547 0.215303 0.000000
vn -0.976547 0.215303 0.000000
vn 0.998548 0.053863 0.000000
vn 0.998548 0.053863 0.000000
vn 0.998548 0.053863 0.000000
vn 0.998548 0.053863 0.000000
vn -0.998548 -0.053866 0.000000
vn -0.998548 -0.053866 0.000000
vn -0.998548 -0.053866 0.000000
vn -0.998548 -0.053866 0.000000
vn -0.048644 -0.998816 0.000000
vn -0.048644 -0.998816 0.000000
vn -0.048644 -0.998816 0.000000
vn -0.048644 -0.998816 0.000000
vn -0.115935 0.993257 0.000000
vn -0.115935 0.993257 0.000000
vn -0.115935 0.993257 0.000000
vn -0.115935 0.993257 0.000000
vn 0.125566 -0.992085 0.000000
vn 0.125566 -0.992085 0.000000
vn 0.125566 -0.992085 0.000000
vn 0.125566 -0.992085 0.000000
vn 0.044447 0.999012 0.000000
vn 0.044447 0.999012 0.000000
vn 0.044447 0.999012 0.000000
vn 0.044447 0.999012 0.000000
vn -0.044445 -0.999012 0.000000
vn -0.044445 -0.999012 0.000000
vn -0.044445 -0.999012 0.000000
vn -0.044445 -0.999012 0.000000
vn -0.997564 -0.069757 0.000000
vn -0.997564 -0.069757 0.000000
vn -0.997564 -0.069757 0.000000
vn -0.997564 -0.069757 0.000000
vn 0.997564 0.069752 0.000000
vn 0.997564 0.069752 0.000000
vn 0.997564 0.069752 0.000000
vn 0.997564 0.069752 0.000000
vn -1.000000 0.000000 0.000000
vn -1.000000 0.000000 0.000000
vn -1.000000 0.000000 0.000000
vn -1.000000 0.000000 0.000000
vn 1.000000 0.000000 0.000000
vn 1.000000 0.000000 0.000000
vn 1.000000 0.000000 0.000000
vn 1.000000 0.000000 0.000000
vn -0.997564 0.069756 0.000000
vn -0.997564 0.069756 0.000000
vn -0.997564 0.069756 0.000000
vn -0.997564 0.069756 0.000000
vn 0.997564 -0.069752 0.000000
vn 0.997564 -0.069752 0.000000
vn 0.997564 -0.069752 0.000000
vn 0.997564 -0.069752 0.000000
vn 0.231051 -0.972942 0.000000
vn 0.231051 -0.972942 0.000000
vn 0.231051 -0.972942 0.000000
vn 0.231051 -0.972942 0.000000
vn -0.231049 0.972942 0.000000
vn -0.231049 0.972942 0.000000
vn -0.231049 0.972942 0.000000
vn -0.231049 0.972942 0.000000
vn -0.115669 -0.993288 0.000000
vn -0.115669 -0.993288 0.000000
vn -0.115669 -0.993288 0.000000
vn -0.115669 -0.993288 0.000000
vn 0.115670 0.993288 0.000000
vn 0.115670 0.993288 0.000000
vn 0.115670 0.993288 0.000000
vn 0.115670 0.993288 0.000000
vn -0.031153 -0.999515 0.000000
vn -0.031153 -0.999515 0.000000
vn -0.031153 -0.999515 0.000000
vn -0.031153 -0.999515 0.000000
vn 0.031153 0.999515 0.000000
vn 0.031153 0.999515 0.000000
vn 0.031153 0.999515 0.000000
vn 0.031153 0.999515 0.000000
vn -0.090529 -0.995894 0.000000
vn -0.090529 -0.995894 0.000000
vn -0.090529 -0.995894 0.000000
vn -0.090529 -0.995894 0.000000
vn 0.090529 0.995894 0.000000
vn 0.090529 0.995894 0.000000
vn 0.090529 0.995894 0.000000
vn 0.090529 0.995894 0.000000
vn 0.000000 0.000000 1.000000
vn 0.000000 0.000000 1.000000
vn 0.000000 0.000000 1.000000
vn 0.000000 0.000000 1.000000
vn -0.000000 0.000000 1.000000
vn -0.000000 0.000000 1.000000
vn -0.000000 0.000000 1.000000
vn -0.000000 0.000000 1.000000
vn 0.000000 0.000000 1.000000
vn 0.000000 0.000000 1.000000
vn 0.000000 0.000000 1.000000
vn 0.000000 0.000000 1.000000
vn 0.000000 0.000000 1.000000
vn 0.000000 0.000000 1.000000
vn 0.000000 0.000000 1.000000
vn 0.000000 0.000000 1.000000
f 1/1/1 2/2/2 6/6/3 5/5/4
f 2/2/5 3/3/6 7/7/7 6/6/8
f 3/3/9 4/4/10 8/8/11 7/7/12
f 4/4/13 1/1/14 5/5/15 8/8/16
f 9/9/17 10/10/18 12/11/19 11/12/20
f 10/10/21 16/13/22 14/14/23 12/11/24
f 15/15/25 9/9/26 11/12/27 13/16/28
f 17/17/29 18/18/30 20/19/31 19/20/32
f 18/18/33 24/21/34 22/22/35 20/19/36
f 23/23/37 17/17/38 19/20/39 21/24/40
f 25/25/41 26/26/42 28/27/43 27/28/44
f 26/26/45 32/29/46 30/30/47 28/27/48
f 31/31/49 25/25/50 27/28/51 29/32/52
f 33/33/53 34/34/54 36/35/55 35/36/56
f 34/34/57 40/37/58 38/38/59 36/35/60
f 39/39/61 33/33/62 35/36/63 37/40/64
f 41/41/65 42/42/66 44/43/67 43/44/68
f 42/42/69 48/45/70 46/46/71 44/43/72
f 47/47/73 41/41/74 43/44/75 45/48/76
f 49/49/77 50/50/78 52/51/79 51/52/80
f 50/50/81 56/53/82 54/54/83 52/51/84
f 55/55/85 49/49/86 51/52/87 53/56/88
f 57/57/89 58/58/90 60/59/91 59/60/92
f 58/58/93 64/61/94 62/62/95 60/59/96
f 63/63/97 57/57/98 59/60/99 61/64/100
f 65/65/101 66/66/102 68/67/103 67/68/104
f 66/66/105 72/69/106 70/70/107 68/67/108
f 71/71/109 65/65/110 67/68/111 69/72/112
f 73/73/113 66/74/114 65/75/115 79/76/116
f 78/77/117 73/73/118 79/76/119 80/78/120
f 79/76/116 65/75/115 75/79/121 74/80/122
f 80/78/120 79/76/119 74/80/123 76/81/124
f 65/75/125 71/82/126 77/83/127 75/79/128
f 81/84/129 82/85/130 84/86/131 83/87/132
f 82/85/133 88/88/134 86/89/135 84/86/136
f 87/90/137 81/84/138 83/87/139 85/91/140
f 89/92/141 90/93/142 92/94/143 91/95/144
f 90/93/145 96/96/146 94/97/147 92/94/148
f 95/98/149 89/92/150 91/95/151 93/99/152
f 97/100/153 98/101/154 100/102/155 99/103/156
f 98/101/157 104/104/158 102/105/159 100/102/160
f 103/106/161 97/100/162 99/103/163 101/107/164
f 105/108/165 106/109/166 108/110/167 107/111/168
f 106/109/169 112/112/170 110/113/171 108/110/172
f 111/114/173 105/108/174 107/111/175 109/115/176
f 90/93/177 89/92/178 95/116/179 96/96/180
f 92/94/181 94/97/182 93/99/183 91/95/184
f 98/101/185 97/100/186 103/117/187 104/104/188
f 100/102/189 102/105/190 101/107/191 99/103/192
f 106/109/193 105/108/194 111/118/195 112/112/196
f 108/110/197 110/113/198 109/115/199 107/111/200
f 68/67/201 70/70/202 69/72/203 67/68/204
f 66/74/205 73/73/206 78/119/207 72/69/208
f 75/79/209 77/83/210 76/81/211 74/80/212
f 82/85/213 81/84/214 87/120/215 88/88/216
f 84/86/217 86/89/218 85/91/219 83/87/220
f 42/42/221 41/41/222 47/121/223 48/45/224
f 44/43/225 46/46/226 45/48/227 43/44/228
f 50/50/229 49/49/230 55/122/231 56/53/232
f 52/51/233 54/54/234 53/56/235 51/52/236
f 58/58/237 57/57/238 63/123/239 64/61/240
f 60/59/241 62/62/242 61/64/243 59/60/244
f 10/10/245 9/9/246 15/124/247 16/13/248
f 12/11/249 14/14/250 13/16/251 11/12/252
f 18/18/253 17/17/254 23/125/255 24/21/256
f 20/19/257 22/22/258 21/24/259 19/20/260
f 26/26/261 25/25/262 31/126/263 32/29/264
f 28/27/265 30/30/266 29/32/267 27/28/268
f 34/34/269 33/33/270 39/127/271 40/37/272
f 36/35/273 38/38/274 37/40/275 35/36/276
f 113/128/277 114/129/278 118/130/279 117/131/280
f 114/129/281 115/132/282 119/133/283 118/130/284
f 115/132/285 116/134/286 120/135/287 119/133/288
f 116/134/289 113/128/290 117/131/291 120/135/292
