# This file uses meters as units for non-parametric coordinates.

v -0.261823 -1.881091 7.986897
v 0.261823 -1.881091 7.986897
v 0.000000 5.553929 7.986897
v 0.104419 4.447345 7.986897
v -0.104419 4.447345 7.986897
v 0.519614 4.447345 7.986897
v -0.519614 4.447345 7.986897
vt 0.601766 0.208765
vt 0.601717 0.229361
vt 0.513726 0.223170
vt 0.513746 0.214956
vt 0.543914 0.219063
vt 0.513687 0.239500
vt 0.513785 0.198626
vn 0.000000 0.000000 1.000000
vn 0.000000 0.000000 1.000000
vn 0.000000 0.000000 1.000000
vn 0.000000 0.000000 1.000000
vn 0.000000 0.000000 1.000000
vn 0.000000 0.000000 1.000000
vn 0.000000 0.000000 1.000000
vn 0.000000 0.000000 1.000000
vn 0.000000 0.000000 1.000000
vn 0.000000 0.000000 1.000000
vn 0.000000 0.000000 1.000000
f 1/1/1 2/2/2 4/3/3 5/4/4
f 5/4/4 4/3/3 3/5/5
f 3/5/6 4/3/7 6/6/8
f 5/4/9 3/5/10 7/7/11
