# This file uses meters as units for non-parametric coordinates.

v -9.633377 -15.154419 -1.106136
v 9.633377 -15.154419 -1.106136
v -9.633377 2.566669 1.797123
v 9.633377 2.566669 1.797123
v -9.633377 2.679874 1.106136
v 9.633377 2.679874 1.106136
v -9.633377 -15.041218 -1.797123
v 9.633377 -15.041218 -1.797123
v -6.497005 -11.866955 -0.567547
v 6.497005 -11.866955 -0.567547
v 6.497005 -0.720797 1.258537
v -6.497005 -0.720797 1.258537
v -6.497005 -0.607592 0.567547
v 6.497005 -0.607592 0.567547
v 6.497005 -11.753750 -1.258537
v -6.497005 -11.753750 -1.258537
vt 0.642092 0.240828
vt 0.725934 0.241918
vt 0.726019 0.232921
vt 0.642177 0.231831
vt 0.725977 0.232527
vt 0.642219 0.232225
vt 0.642134 0.241222
vt 0.725892 0.241524
vt 0.655535 0.195476
vt 0.708286 0.196308
vt 0.708244 0.195914
vt 0.655578 0.195870
vt 0.708329 0.196703
vt 0.655663 0.196659
vt 0.655620 0.196265
vt 0.708371 0.197097
vn 0.000000 0.986844 0.161675
vn 0.000000 0.986844 0.161675
vn 0.000000 0.986844 0.161675
vn 0.000000 0.986844 0.161675
vn 0.000000 -0.986845 -0.161671
vn 0.000000 -0.986845 -0.161671
vn 0.000000 -0.986845 -0.161671
vn 0.000000 -0.986845 -0.161671
vn 1.000000 0.000000 0.000000
vn 1.000000 0.000000 0.000000
vn 1.000000 0.000000 0.000000
vn 1.000000 0.000000 0.000000
vn -1.000000 0.000000 0.000000
vn -1.000000 0.000000 0.000000
vn -1.000000 0.000000 0.000000
vn -1.000000 0.000000 0.000000
vn 0.000000 -0.161676 0.986844
vn 0.000000 -0.161676 0.986844
vn 0.000000 -0.161676 0.986844
vn 0.000000 -0.161676 0.986844
vn 0.000001 -0.161675 0.986844
vn 0.000001 -0.161675 0.986844
vn 0.000001 -0.161675 0.986844
vn 0.000001 -0.161675 0.986844
vn 0.000000 -0.161675 0.986844
vn 0.000000 -0.161675 0.986844
vn 0.000000 -0.161675 0.986844
vn 0.000000 -0.161675 0.986844
vn -0.000001 -0.161675 0.986844
vn -0.000001 -0.161675 0.986844
vn -0.000001 -0.161675 0.986844
vn -0.000001 -0.161675 0.986844
vn 0.000000 0.161676 -0.986844
vn 0.000000 0.161676 -0.986844
vn 0.000000 0.161676 -0.986844
vn 0.000000 0.161676 -0.986844
vn 0.000001 0.161675 -0.986844
vn 0.000001 0.161675 -0.986844
vn 0.000001 0.161675 -0.986844
vn 0.000001 0.161675 -0.986844
vn 0.000000 0.161675 -0.986844
vn 0.000000 0.161675 -0.986844
vn 0.000000 0.161675 -0.986844
vn 0.000000 0.161675 -0.986844
vn -0.000001 0.161675 -0.986844
vn -0.000001 0.161675 -0.986844
vn -0.000001 0.161675 -0.986844
vn -0.000001 0.161675 -0.986844
vn -1.000000 0.000000 0.000000
vn -1.000000 0.000000 0.000000
vn -1.000000 0.000000 0.000000
vn -1.000000 0.000000 0.000000
vn 0.000000 -0.986844 -0.161675
vn 0.000000 -0.986844 -0.161675
vn 0.000000 -0.986844 -0.161675
vn 0.000000 -0.986844 -0.161675
vn 1.000000 0.000000 0.000000
vn 1.000000 0.000000 0.000000
vn 1.000000 0.000000 0.000000
vn 1.000000 0.000000 0.000000
vn 0.000000 0.986844 0.161675
vn 0.000000 0.986844 0.161675
vn 0.000000 0.986844 0.161675
vn 0.000000 0.986844 0.161675
f 3/1/1 4/2/2 6/3/3 5/4/4
f 7/5/5 8/6/6 2/7/7 1/8/8
f 2/7/9 8/6/10 6/3/11 4/2/12
f 7/5/13 1/8/14 3/1/15 5/4/16
f 1/8/17 2/7/18 10/9/19 9/10/20
f 2/7/21 4/2/22 11/11/23 10/9/24
f 4/2/25 3/1/26 12/12/27 11/11/28
f 3/1/29 1/8/30 9/10/31 12/12/32
f 5/4/33 6/3/34 14/13/35 13/14/36
f 6/3/37 8/6/38 15/15/39 14/13/40
f 8/6/41 7/5/42 16/16/43 15/15/44
f 7/5/45 5/4/46 13/14/47 16/16/48
f 10/9/49 11/11/50 14/13/51 15/15/52
f 11/11/53 12/12/54 13/14/55 14/13/56
f 12/12/57 9/10/58 16/16/59 13/14/60
f 9/10/61 10/9/62 15/15/63 16/16/64
