# This file uses meters as units for non-parametric coordinates.

v 12.513085 13.969292 -3.059724
v 12.513085 11.882990 -5.819939
v 12.513085 8.633497 -8.010458
v 12.513085 4.538897 -9.416859
v 12.513085 -0.000000 -9.901471
v 12.513085 -0.000000 9.901467
v 12.513085 4.538895 9.416855
v 12.513085 8.633491 8.010455
v 12.513085 11.882983 5.819937
v 12.513085 13.969279 3.059722
v 12.513085 13.969279 0.000000
v -12.513085 13.969292 -3.059724
v -12.513085 11.882990 -5.819939
v -12.513085 8.633497 -8.010458
v -12.513085 4.538897 -9.416859
v -12.513085 0.000000 -9.901471
v -12.513085 -0.000000 9.901467
v -12.513085 4.538895 9.416855
v -12.513085 8.633491 8.010455
v -12.513085 11.882983 5.819937
v -12.513085 13.969279 3.059722
v -12.513085 13.969279 0.000000
v 9.437227 13.969292 2.030677
v 9.437227 13.969279 -0.000000
v -9.437227 13.969279 -0.000000
v -9.437227 13.969292 2.030677
v 9.437227 13.969292 -2.030679
v -9.437227 13.969292 -2.030679
v 9.437227 8.053271 2.030677
v 9.437227 8.058563 -0.000000
v -9.437227 8.058563 -0.000000
v -9.437227 8.053271 2.030677
v 9.437227 8.053271 -2.030679
v -9.437227 8.053271 -2.030679
v 13.116146 -0.000001 9.532232
v 13.116146 -0.000000 -9.532235
v 13.116146 4.538895 9.065694
v 13.116146 8.633491 7.711739
v 13.116146 11.249172 5.602907
v 13.116146 13.335469 2.945622
v 13.116146 13.335469 -0.000000
v 13.116146 13.335480 -2.945624
v 13.116146 4.538897 -9.065697
v 13.116146 8.633496 -7.711743
v 13.116146 11.249177 -5.602909
v -13.116146 -0.000000 9.532232
v -13.116146 -0.000000 -9.532235
v -13.116146 4.538897 -9.065697
v -13.116146 4.538895 9.065694
v -13.116146 8.633491 7.711739
v -13.116146 11.249172 5.602907
v -13.116146 13.335469 2.945622
v -13.116146 13.335469 -0.000000
v -13.116146 13.335481 -2.945624
v -13.116146 11.249178 -5.602909
v -13.116146 8.633494 -7.711743
vt 0.402017 0.948677
vt 0.379090 0.948681
vt 0.401455 0.953541
vt 0.399827 0.957929
vt 0.397291 0.960732
vt 0.394096 0.962968
vt 0.390553 0.962969
vt 0.387011 0.962970
vt 0.379651 0.953545
vt 0.381279 0.957932
vt 0.383815 0.960734
vt 0.378980 0.947041
vt 0.401906 0.947037
vt 0.379541 0.951905
vt 0.401345 0.951901
vt 0.399717 0.956289
vt 0.397181 0.959092
vt 0.393985 0.961329
vt 0.390443 0.961329
vt 0.386901 0.961330
vt 0.379551 0.947089
vt 0.399180 0.947089
vt 0.379551 0.947089
vt 0.399180 0.947089
vt 0.399180 0.947089
vt 0.399180 0.947089
vt 0.383705 0.959095
vt 0.381169 0.956292
vt 0.402458 0.948639
vt 0.378643 0.948643
vt 0.401875 0.953503
vt 0.400184 0.957891
vt 0.397550 0.961374
vt 0.394230 0.963610
vt 0.390551 0.963610
vt 0.386871 0.963611
vt 0.379226 0.953507
vt 0.380917 0.957894
vt 0.383552 0.961376
vt 0.378538 0.947079
vt 0.402353 0.947075
vt 0.379121 0.951943
vt 0.401770 0.951939
vt 0.400079 0.956327
vt 0.397445 0.959809
vt 0.394125 0.962045
vt 0.390446 0.962046
vt 0.386766 0.962047
vt 0.383446 0.959812
vt 0.399180 0.964609
vt 0.379551 0.964609
vt 0.380812 0.956330
vt 0.399180 0.964609
vt 0.379551 0.964609
vt 0.399180 0.964609
vt 0.399180 0.964609
vt 0.399690 0.960326
vt 0.399723 0.947310
vt 0.378767 0.947310
vt 0.378838 0.960280
vt 0.379551 0.947089
vt 0.399705 0.960280
vt 0.378749 0.960280
vt 0.379551 0.964609
vt 0.379551 0.947089
vt 0.399686 0.947310
vt 0.378730 0.947310
vt 0.379551 0.964609
vt 0.399180 0.947089
vt 0.399667 0.960280
vt 0.378711 0.960280
vt 0.379551 0.947089
vt 0.399822 0.947912
vt 0.399803 0.961580
vt 0.378847 0.961580
vt 0.378866 0.947912
vt 0.379551 0.964609
vt 0.399785 0.947912
vt 0.378829 0.947912
vt 0.399180 0.964609
vt 0.399180 0.947089
vt 0.399766 0.961580
vt 0.378810 0.961580
vt 0.379551 0.947089
vt 0.379551 0.964609
vt 0.399695 0.947912
vt 0.378843 0.947866
vt 0.399180 0.964609
vt 0.399180 0.964609
vt 0.379551 0.964609
vt 0.379551 0.947089
vt 0.399180 0.947089
vt 0.399180 0.964609
vt 0.379551 0.964609
vt 0.379551 0.947089
vt 0.399180 0.947089
vt 0.381441 0.958199
vt 0.397089 0.958233
vt 0.381443 0.954079
vt 0.381445 0.949959
vt 0.378893 0.954073
vt 0.397092 0.949994
vt 0.397090 0.954113
vt 0.399640 0.954119
vt 0.378692 0.947310
vt 0.399648 0.947310
vn 0.000000 0.797755 -0.602981
vn 0.000000 0.680161 -0.733063
vn 0.000000 0.680161 -0.733063
vn 0.000000 0.797755 -0.602981
vn 0.000000 0.439849 -0.898072
vn 0.000000 0.439849 -0.898072
vn 0.000000 0.213960 -0.976842
vn 0.000000 0.213960 -0.976842
vn 0.000000 0.106165 -0.994349
vn 0.000000 0.106165 -0.994349
vn 0.000000 0.106165 0.994349
vn 0.000000 0.213960 0.976842
vn 0.000000 0.213960 0.976842
vn 0.000000 0.106165 0.994349
vn 0.000000 0.439849 0.898072
vn 0.000000 0.439849 0.898072
vn 0.000000 0.680161 0.733063
vn 0.000000 0.680161 0.733063
vn 0.000000 0.797756 0.602980
vn 0.000000 0.797756 0.602980
vn 0.000000 0.999997 0.002606
vn 0.000000 1.000000 0.000000
vn 0.000000 1.000000 0.000000
vn 0.000000 0.999997 0.002606
vn 0.000000 0.999997 -0.002606
vn 0.000000 0.999997 -0.002606
vn 1.000000 -0.000000 -0.000000
vn 1.000000 -0.000000 0.000000
vn 1.000000 -0.000000 -0.000000
vn 1.000000 -0.000000 0.000000
vn 1.000000 -0.000000 -0.000000
vn 1.000000 -0.000000 -0.000000
vn 1.000000 -0.000000 -0.000000
vn 1.000000 -0.000000 -0.000000
vn 1.000000 -0.000000 0.000001
vn 1.000000 -0.000000 0.000000
vn 1.000000 -0.000000 0.000000
vn -1.000000 0.000000 0.000000
vn -1.000000 0.000000 0.000000
vn -1.000000 0.000000 0.000000
vn -1.000000 0.000000 -0.000000
vn -1.000000 0.000000 -0.000000
vn -1.000000 0.000000 0.000000
vn -1.000000 0.000000 0.000000
vn -1.000000 0.000000 0.000000
vn -1.000000 0.000000 0.000000
vn -1.000000 0.000000 0.000002
vn -1.000000 0.000000 0.000000
vn -0.000000 -1.000000 -0.000000
vn -0.000000 -1.000000 -0.000000
vn -0.000000 -1.000000 -0.000000
vn -0.000000 -1.000000 -0.000000
vn 0.000002 1.000000 -0.000002
vn 0.000002 1.000000 0.000001
vn 0.000002 1.000000 0.000001
vn 0.000002 1.000000 -0.000002
vn -0.000002 1.000000 0.000001
vn -0.000002 1.000000 -0.000002
vn -0.000002 1.000000 -0.000002
vn -0.000002 1.000000 0.000001
vn 0.000000 1.000000 0.000012
vn 0.000000 1.000000 0.000012
vn 0.000000 1.000000 0.000012
vn 0.000000 1.000000 0.000012
vn 0.000001 1.000000 0.000005
vn 0.000001 1.000000 0.000005
vn 0.000000 1.000000 0.000000
vn 0.000000 1.000000 0.000000
vn 0.000000 1.000000 0.000000
vn 0.000000 1.000000 0.000000
vn -0.000001 1.000000 0.000005
vn -0.000001 1.000000 0.000005
vn -1.000000 0.000000 0.000000
vn -1.000000 0.000000 0.000000
vn -1.000000 0.000000 0.000000
vn -1.000000 0.000000 0.000000
vn 1.000000 -0.000000 0.000000
vn 1.000000 -0.000000 0.000000
vn 1.000000 -0.000000 0.000000
vn 1.000000 -0.000000 0.000000
vn 0.000000 0.000000 -1.000000
vn 0.000000 0.000000 -1.000000
vn 0.000000 0.000000 -1.000000
vn 0.000000 0.000000 -1.000000
vn -1.000000 0.000000 0.000000
vn -1.000000 0.000000 0.000000
vn -1.000000 0.000000 0.000000
vn -1.000000 0.000000 0.000000
vn 0.000000 0.000000 1.000000
vn 0.000000 0.000000 1.000000
vn 0.000000 0.000000 1.000000
vn 0.000000 0.000000 1.000000
vn 1.000000 -0.000000 0.000000
vn 1.000000 -0.000000 0.000000
vn 1.000000 -0.000000 0.000000
vn 1.000000 -0.000000 0.000000
vn -0.000000 -1.000000 -0.000000
vn -0.000000 -1.000000 -0.000000
vn -0.000000 -1.000000 -0.000000
vn -0.000000 -1.000000 -0.000000
vn 0.489874 0.171591 0.854740
vn 0.510718 0.089592 0.855068
vn 0.510718 0.089592 0.855068
vn 0.483485 0.194072 0.853568
vn 0.494005 0.365540 0.788885
vn 0.513368 0.408652 0.754624
vn 0.645010 0.537417 0.543273
vn 0.634859 0.533270 0.559086
vn 0.707168 0.560157 0.431437
vn 0.707168 0.560157 0.431437
vn 0.724462 0.689315 0.000001
vn 0.724462 0.689315 0.000000
vn 0.724462 0.689315 0.000000
vn 0.724462 0.689315 0.000001
vn 0.724462 0.689315 0.000003
vn 0.724462 0.689315 0.000003
vn 0.510717 0.089592 -0.855068
vn 0.489874 0.171591 -0.854740
vn 0.483485 0.194072 -0.853568
vn 0.510717 0.089592 -0.855068
vn 0.494005 0.365540 -0.788885
vn 0.513368 0.408652 -0.754624
vn 0.645010 0.537417 -0.543273
vn 0.634859 0.533270 -0.559086
vn 0.707168 0.560157 -0.431437
vn 0.707168 0.560157 -0.431437
vn 0.000000 -1.000000 -0.000000
vn 0.000000 -1.000000 -0.000000
vn 0.000000 -1.000000 -0.000000
vn 0.000000 -1.000000 -0.000000
vn -0.489875 0.171591 -0.854739
vn -0.510718 0.089592 -0.855068
vn -0.510718 0.089592 -0.855068
vn -0.483486 0.194072 -0.853568
vn -0.510718 0.089592 0.855067
vn -0.489875 0.171591 0.854739
vn -0.483485 0.194072 0.853568
vn -0.510718 0.089592 0.855067
vn -0.494005 0.365540 0.788885
vn -0.513368 0.408652 0.754624
vn -0.645009 0.537417 0.543273
vn -0.634859 0.533270 0.559086
vn -0.707168 0.560157 0.431437
vn -0.707168 0.560157 0.431437
vn -0.724462 0.689315 0.000000
vn -0.724462 0.689315 0.000001
vn -0.724462 0.689315 0.000001
vn -0.724462 0.689315 0.000000
vn -0.724462 0.689315 0.000003
vn -0.724462 0.689315 0.000003
vn -0.707167 0.560157 -0.431438
vn -0.645009 0.537417 -0.543273
vn -0.634859 0.533270 -0.559086
vn -0.707167 0.560157 -0.431438
vn -0.494006 0.365540 -0.788884
vn -0.513369 0.408652 -0.754623
f 1/57/1 2/58/2 13/59/3 12/60/4
f 2/58/2 3/62/5 14/63/6 13/59/3
f 3/62/5 4/66/7 15/67/8 14/63/6
f 4/66/7 5/70/9 16/71/10 15/67/8
f 6/73/11 7/74/12 18/75/13 17/76/14
f 7/74/12 8/78/15 19/79/16 18/75/13
f 8/78/15 9/82/17 20/83/18 19/79/16
f 9/82/17 10/86/19 21/87/20 20/83/18
f 29/89/21 30/90/22 31/91/23 32/92/24
f 30/93/22 33/94/25 34/95/26 31/96/23
f 35/1/27 36/2/28 37/3/29
f 37/3/29 36/2/28 38/4/30
f 38/4/30 36/2/28 39/5/31
f 39/5/31 36/2/28 40/6/32
f 40/6/32 36/2/28 41/7/33
f 41/7/33 36/2/28 42/8/34
f 36/2/28 43/9/35 42/8/34
f 43/9/35 44/10/36 42/8/34
f 44/10/36 45/11/37 42/8/34
f 47/12/38 46/13/39 48/14/40
f 46/13/39 49/15/41 48/14/40
f 49/15/41 50/16/42 48/14/40
f 50/16/42 51/17/43 48/14/40
f 51/17/43 52/18/44 48/14/40
f 52/18/44 53/19/45 48/14/40
f 53/19/45 54/20/46 48/14/40
f 54/20/46 55/27/47 48/14/40
f 55/27/47 56/28/48 48/14/40
f 5/70/49 6/106/50 17/105/51 16/71/52
f 10/86/53 11/104/54 24/103/55 23/102/56
f 22/101/57 21/87/58 26/100/59 25/99/60
f 21/87/61 10/86/62 23/102/63 26/100/64
f 11/104/54 1/57/65 27/98/66 24/103/55
f 1/57/67 12/60/68 28/97/69 27/98/70
f 12/60/71 22/101/57 25/99/60 28/97/72
f 23/88/73 24/85/74 30/84/75 29/81/76
f 25/80/77 26/77/78 32/72/79 31/69/80
f 26/53/81 23/51/82 29/21/83 32/24/84
f 24/50/85 27/68/86 33/65/87 30/22/88
f 27/55/89 28/64/90 34/61/91 33/25/92
f 28/56/93 25/54/94 31/23/95 34/26/96
f 6/29/97 5/30/98 36/2/99 35/1/100
f 7/31/101 6/29/102 35/1/103 37/3/104
f 8/32/105 7/31/101 37/3/104 38/4/106
f 9/33/107 8/32/105 38/4/106 39/5/108
f 10/34/109 9/33/107 39/5/108 40/6/110
f 11/35/111 10/34/112 40/6/113 41/7/114
f 1/36/115 11/35/111 41/7/114 42/8/116
f 5/30/117 4/37/118 43/9/119 36/2/120
f 4/37/118 3/38/121 44/10/122 43/9/119
f 3/38/121 2/39/123 45/11/124 44/10/122
f 2/39/123 1/36/125 42/8/126 45/11/124
f 16/40/127 17/41/128 46/13/129 47/12/130
f 15/42/131 16/40/132 47/12/133 48/14/134
f 17/41/135 18/43/136 49/15/137 46/13/138
f 18/43/136 19/44/139 50/16/140 49/15/137
f 19/44/139 20/45/141 51/17/142 50/16/140
f 20/45/141 21/46/143 52/18/144 51/17/142
f 21/46/145 22/47/146 53/19/147 52/18/148
f 22/47/146 12/48/149 54/20/150 53/19/147
f 12/48/151 13/49/152 55/27/153 54/20/154
f 13/49/152 14/52/155 56/28/156 55/27/153
f 14/52/155 15/42/131 48/14/134 56/28/156
