# This file uses meters as units for non-parametric coordinates.

v 0.000000 0.000000 2.366070
v 11.150711 6.437866 2.366070
v 6.437862 11.150711 2.366074
v 0.000000 12.875736 2.366074
v -6.437862 11.150711 2.366074
v -11.150711 6.437866 2.366070
v -12.875725 0.000000 2.366070
v -11.150711 -6.437866 2.366070
v -6.437862 -11.150711 2.366074
v 0.000000 -12.875732 2.366074
v 6.437862 -11.150711 2.366074
v 11.150711 -6.437866 2.366070
v 12.875725 0.000000 2.366070
vt 0.259635 0.766282
vt 0.265601 0.772029
vt 0.273750 0.758271
vt 0.273750 0.774089
vt 0.265498 0.771911
vt 0.259456 0.766078
vt 0.257245 0.758153
vt 0.259456 0.766239
vt 0.265498 0.771955
vt 0.273750 0.774004
vt 0.265601 0.771838
vt 0.259635 0.766036
vt 0.257452 0.758389
vn 0.000000 -0.000000 1.000000
vn 0.000000 -0.000000 1.000000
vn 0.000000 -0.000000 1.000000
vn 0.000000 -0.000000 1.000000
vn -0.000000 -0.000000 1.000000
vn -0.000000 -0.000000 1.000000
vn 0.000000 0.000000 1.000000
vn -0.000000 0.000000 1.000000
vn -0.000000 0.000000 1.000000
vn 0.000000 0.000000 1.000000
vn 0.000000 0.000000 1.000000
vn 0.000000 0.000000 1.000000
vn 0.000000 0.000000 1.000000
f 2/1/1 3/2/2 1/3/3
f 3/2/2 4/4/4 1/3/3
f 4/4/4 5/5/5 1/3/3
f 5/5/5 6/6/6 1/3/3
f 6/6/6 7/7/7 1/3/3
f 7/7/7 8/8/8 1/3/3
f 8/8/8 9/9/9 1/3/3
f 9/9/9 10/10/10 1/3/3
f 10/10/10 11/11/11 1/3/3
f 11/11/11 12/12/12 1/3/3
f 12/12/12 13/13/13 1/3/3
f 13/13/13 2/1/1 1/3/3
