# This file uses meters as units for non-parametric coordinates.

v -44.208035 55.257806 82.756424
v -48.792782 50.738351 82.756424
v -44.208035 50.738351 87.152470
v 48.792782 50.738351 82.756424
v 44.208035 55.257806 82.756424
v 44.208035 50.738351 87.152470
v -44.208035 50.738351 -87.152470
v -48.792782 50.738351 -82.756413
v -44.208035 55.257806 -82.756413
v 48.792782 50.738351 -82.756413
v 44.208035 50.738351 -87.152470
v 44.208035 55.257806 -82.756413
v -48.792782 37.178189 82.756424
v -44.208035 37.178189 87.152470
v 48.792782 37.178189 82.756424
v 44.208035 37.178189 87.152470
v -48.792782 37.178189 -82.756413
v -44.208035 37.178189 -87.152470
v 48.792782 37.178189 -82.756413
v 44.208035 37.178189 -87.152470
vt 0.259137 0.978025
vt 0.257835 0.976791
vt 0.257835 0.993716
vt 0.259137 0.992482
vt 0.270506 0.977414
vt 0.271704 0.976077
vt 0.258549 0.976077
vt 0.259748 0.977414
vt 0.271704 0.976791
vt 0.271704 0.993716
vt 0.258549 0.993716
vt 0.258549 0.976791
vt 0.271116 0.992482
vt 0.272419 0.993716
vt 0.272419 0.976791
vt 0.271116 0.978025
vt 0.259748 0.993093
vt 0.258549 0.994430
vt 0.271704 0.994430
vt 0.270506 0.993093
vn -0.999636 0.000000 0.026974
vn -0.969850 0.242720 0.021870
vn -0.969850 0.242720 -0.021870
vn -0.999636 0.000000 -0.026974
vn 0.047216 0.000000 0.998885
vn 0.038688 0.230590 0.972282
vn -0.038688 0.230590 0.972282
vn -0.047216 0.000000 0.998885
vn 0.047727 0.998530 0.025708
vn 0.047727 0.998530 -0.025708
vn -0.047727 0.998530 -0.025708
vn -0.047727 0.998530 0.025708
vn 0.999636 0.000000 -0.026974
vn 0.969850 0.242720 -0.021870
vn 0.969850 0.242720 0.021870
vn 0.999636 0.000000 0.026974
vn -0.047216 0.000000 -0.998885
vn -0.038688 0.230591 -0.972281
vn 0.038688 0.230591 -0.972281
vn 0.047216 0.000000 -0.998885
f 13/1/1 2/2/2 8/3/3 17/4/4
f 16/5/5 6/6/6 3/7/7 14/8/8
f 5/9/9 12/10/10 9/11/11 1/12/12
f 19/13/13 10/14/14 4/15/15 15/16/16
f 18/17/17 7/18/18 11/19/19 20/20/20
f 2/2/2 1/12/12 9/11/11 8/3/3
f 3/7/7 2/2/2 13/1/1 14/8/8
f 1/12/12 3/7/7 6/6/6 5/9/9
f 5/9/9 4/15/15 10/14/14 12/10/10
f 4/15/15 6/6/6 16/5/5 15/16/16
f 8/3/3 7/18/18 18/17/17 17/4/4
f 7/18/18 9/11/11 12/10/10 11/19/19
f 11/19/19 10/14/14 19/13/13 20/20/20
f 1/12/12 2/2/2 3/7/7
f 4/15/15 5/9/9 6/6/6
f 7/18/18 8/3/3 9/11/11
f 10/14/14 11/19/19 12/10/10
