# This file uses meters as units for non-parametric coordinates.

v -42.667404 77.619339 82.756424
v -43.652206 82.204086 82.756424
v -43.652206 77.619339 87.152466
v -43.652206 54.994358 82.756424
v -42.667404 59.579105 82.756424
v -43.652206 59.579105 87.152466
v -43.652206 77.619339 -87.152466
v -43.652206 82.204086 -82.756409
v -42.667404 77.619339 -82.756409
v -43.652206 54.994358 -82.756409
v -43.652206 59.579105 -87.152466
v -42.667404 59.579105 -82.756409
v -46.607006 82.204086 82.756424
v -46.607006 77.619339 87.152466
v -46.607006 54.994358 82.756424
v -46.607006 59.579105 87.152466
v -46.607006 82.204086 -82.756409
v -46.607006 77.619339 -87.152466
v -46.607006 54.994358 -82.756409
v -46.607006 59.579105 -87.152466
v -42.667404 104.988022 82.756424
v -43.652206 109.572769 82.756424
v -43.652206 104.988022 87.152466
v -43.652206 82.363037 82.756424
v -42.667404 86.947784 82.756424
v -43.652206 86.947784 87.152466
v -43.652206 104.988022 -87.152466
v -43.652206 109.572769 -82.756409
v -42.667404 104.988022 -82.756409
v -43.652206 82.363037 -82.756409
v -43.652206 86.947784 -87.152466
v -42.667404 86.947784 -82.756409
v -46.607006 109.572769 82.756424
v -46.607006 104.988022 87.152466
v -46.607006 82.363037 82.756424
v -46.607006 86.947784 87.152466
v -46.607006 109.572769 -82.756409
v -46.607006 104.988022 -87.152466
v -46.607006 82.363037 -82.756409
v -46.607006 86.947784 -87.152466
v -42.326962 133.018036 84.675835
v -42.326962 137.602783 85.660622
v -44.451256 133.018036 85.660622
v -42.326962 82.195625 85.660622
v -42.326962 86.780373 84.675835
v -44.451252 86.780373 85.660622
v 48.115860 133.018036 85.660629
v 45.812717 137.602783 85.660629
v 45.812721 133.018036 84.675797
v 45.812717 82.195625 85.660629
v 48.115856 86.780373 85.660629
v 45.812717 86.780373 84.675797
v -42.326962 137.602783 88.615425
v -44.451256 133.018036 88.615425
v -42.326962 82.195625 88.615425
v -44.451252 86.780373 88.615425
v 45.812717 137.602783 88.615402
v 48.115860 133.018036 88.615402
v 45.812717 82.195625 88.615402
v 48.115856 86.780373 88.615402
v -42.326962 133.018036 -80.682426
v -42.326962 137.602783 -81.667229
v -44.451256 133.018036 -81.667229
v -42.326962 82.195618 -81.667229
v -42.326962 86.780365 -80.682426
v -44.451256 86.780365 -81.667229
v 48.115856 133.018036 -81.667229
v 45.812717 137.602783 -81.667229
v 45.812717 133.018036 -80.682426
v 45.812717 82.195618 -81.667229
v 48.115856 86.780365 -81.667229
v 45.812717 86.780365 -80.682426
v -42.326962 137.602783 -84.622025
v -44.451256 133.018036 -84.622025
v -42.326962 82.195618 -84.622025
v -44.451256 86.780365 -84.622025
v 45.812717 137.602783 -84.622025
v 48.115856 133.018036 -84.622025
v 45.812717 82.195618 -84.622025
v 48.115856 86.780365 -84.622025
v -42.326962 77.619339 84.675835
v -42.326962 82.204086 85.660622
v -44.451256 77.619339 85.660622
v -42.326962 52.473782 85.660622
v -42.326962 57.058529 84.675835
v -44.451252 57.058529 85.660622
v 48.115860 77.619339 85.660629
v 45.812717 82.204086 85.660629
v 45.812721 77.619339 84.675797
v 45.812717 52.473782 85.660629
v 48.115856 57.058529 85.660629
v 45.812717 57.058529 84.675797
v -42.326962 82.204086 88.615425
v -44.451256 77.619339 88.615425
v -42.326962 52.473782 88.615425
v -44.451252 57.058529 88.615425
v 45.812717 82.204086 88.615402
v 48.115860 77.619339 88.615402
v 45.812717 52.473782 88.615402
v 48.115856 57.058529 88.615402
v -42.326962 77.619339 -80.682426
v -42.326962 82.204086 -81.667229
v -44.451256 77.619339 -81.667229
v -42.326962 52.473778 -81.667229
v -42.326962 57.058525 -80.682426
v -44.451256 57.058525 -81.667229
v 48.115856 77.619339 -81.667229
v 45.812717 82.204086 -81.667229
v 45.812717 77.619339 -80.682426
v 45.812717 52.473778 -81.667229
v 48.115856 57.058525 -81.667229
v 45.812717 57.058525 -80.682426
v -42.326962 82.204086 -84.622025
v -44.451256 77.619339 -84.622025
v -42.326962 52.473778 -84.622025
v -44.451256 57.058525 -84.622025
v 45.812717 82.204086 -84.622025
v 48.115856 77.619339 -84.622025
v 45.812717 52.473778 -84.622025
v 48.115856 57.058525 -84.622025
vt 0.257898 0.772493
vt 0.256664 0.773795
vt 0.273589 0.773795
vt 0.272356 0.772493
vt 0.257288 0.761124
vt 0.255950 0.759926
vt 0.255950 0.773081
vt 0.257288 0.771883
vt 0.256664 0.759926
vt 0.273589 0.759926
vt 0.273589 0.773081
vt 0.256664 0.773081
vt 0.272356 0.760514
vt 0.273589 0.759212
vt 0.256664 0.759212
vt 0.257898 0.760514
vt 0.272966 0.771883
vt 0.274304 0.773081
vt 0.274304 0.759926
vt 0.272966 0.761124
vt 0.257898 0.772493
vt 0.256664 0.773795
vt 0.273589 0.773795
vt 0.272356 0.772493
vt 0.257288 0.761124
vt 0.255950 0.759926
vt 0.255950 0.773081
vt 0.257288 0.771883
vt 0.256664 0.759926
vt 0.273589 0.759926
vt 0.273589 0.773081
vt 0.256664 0.773081
vt 0.272356 0.760514
vt 0.273589 0.759212
vt 0.256664 0.759212
vt 0.257898 0.760514
vt 0.272966 0.771883
vt 0.274304 0.773081
vt 0.274304 0.759926
vt 0.272966 0.761124
vt 0.257898 0.772493
vt 0.272356 0.772493
vt 0.273589 0.773795
vt 0.256664 0.773795
vt 0.257288 0.761124
vt 0.257288 0.771883
vt 0.255950 0.773081
vt 0.255950 0.759926
vt 0.256664 0.759926
vt 0.256664 0.773081
vt 0.273589 0.773081
vt 0.273589 0.759926
vt 0.272356 0.760514
vt 0.257898 0.760514
vt 0.256664 0.759212
vt 0.273589 0.759212
vt 0.272966 0.771883
vt 0.272966 0.761124
vt 0.274304 0.759926
vt 0.274304 0.773081
vt 0.257898 0.772493
vt 0.256664 0.773795
vt 0.273589 0.773795
vt 0.272356 0.772493
vt 0.257288 0.761124
vt 0.255950 0.759926
vt 0.255950 0.773081
vt 0.257288 0.771883
vt 0.256664 0.759926
vt 0.273589 0.759926
vt 0.273589 0.773081
vt 0.256664 0.773081
vt 0.272356 0.760514
vt 0.273589 0.759212
vt 0.256664 0.759212
vt 0.257898 0.760514
vt 0.272966 0.771883
vt 0.274304 0.773081
vt 0.274304 0.759926
vt 0.272966 0.761124
vt 0.257898 0.772493
vt 0.272356 0.772493
vt 0.273589 0.773795
vt 0.256664 0.773795
vt 0.257288 0.761124
vt 0.257288 0.771883
vt 0.255950 0.773081
vt 0.255950 0.759926
vt 0.256664 0.759926
vt 0.256664 0.773081
vt 0.273589 0.773081
vt 0.273589 0.759926
vt 0.272356 0.760514
vt 0.257898 0.760514
vt 0.256664 0.759212
vt 0.273589 0.759212
vt 0.272966 0.771883
vt 0.272966 0.761124
vt 0.274304 0.759926
vt 0.274304 0.773081
vt 0.257898 0.772493
vt 0.256664 0.773795
vt 0.273589 0.773795
vt 0.272356 0.772493
vt 0.257288 0.761124
vt 0.255950 0.759926
vt 0.255950 0.773081
vt 0.257288 0.771883
vt 0.256664 0.759926
vt 0.273589 0.759926
vt 0.273589 0.773081
vt 0.256664 0.773081
vt 0.272356 0.760514
vt 0.273589 0.759212
vt 0.256664 0.759212
vt 0.257898 0.760514
vt 0.272966 0.771883
vt 0.274304 0.773081
vt 0.274304 0.759926
vt 0.272966 0.761124
vn 0.000000 0.999636 0.026974
vn 0.753607 0.657166 0.014481
vn 0.753607 0.657166 -0.014481
vn 0.000000 0.999636 -0.026974
vn 0.000000 -0.190733 0.981642
vn 0.697399 -0.116463 0.707157
vn 0.697399 0.116463 0.707157
vn 0.000000 0.190733 0.981642
vn 0.999061 -0.043023 0.005201
vn 0.999061 -0.043023 -0.005201
vn 0.999061 0.043023 -0.005201
vn 0.999061 0.043023 0.005201
vn 0.000000 -0.999636 -0.026974
vn 0.753607 -0.657166 -0.014481
vn 0.753607 -0.657166 0.014481
vn 0.000000 -0.999636 0.026974
vn 0.000000 0.190734 -0.981642
vn 0.697401 0.116463 -0.707155
vn 0.697401 -0.116463 -0.707155
vn 0.000000 -0.190734 -0.981642
vn -1.000000 0.000000 0.000000
vn -1.000000 0.000000 0.000000
vn -1.000000 0.000000 0.000000
vn -1.000000 0.000000 0.000000
vn -1.000000 0.000000 0.000000
vn -1.000000 0.000000 0.000000
vn -1.000000 0.000000 0.000000
vn -1.000000 0.000000 0.000000
vn 0.000000 0.999636 0.026974
vn 0.753607 0.657166 0.014481
vn 0.753607 0.657166 -0.014481
vn 0.000000 0.999636 -0.026974
vn 0.000000 -0.190733 0.981642
vn 0.697399 -0.116463 0.707157
vn 0.697399 0.116463 0.707157
vn 0.000000 0.190733 0.981642
vn 0.999061 -0.043023 0.005201
vn 0.999061 -0.043023 -0.005201
vn 0.999061 0.043023 -0.005201
vn 0.999061 0.043023 0.005201
vn 0.000000 -0.999636 -0.026974
vn 0.753607 -0.657166 -0.014481
vn 0.753607 -0.657166 0.014481
vn 0.000000 -0.999636 0.026974
vn 0.000000 0.190734 -0.981642
vn 0.697400 0.116463 -0.707156
vn 0.697400 -0.116463 -0.707156
vn 0.000000 -0.190734 -0.981642
vn -1.000000 0.000000 0.000000
vn -1.000000 0.000000 0.000000
vn -1.000000 0.000000 0.000000
vn -1.000000 0.000000 0.000000
vn -1.000000 0.000000 0.000000
vn -1.000000 0.000000 0.000000
vn -1.000000 0.000000 0.000000
vn -1.000000 0.000000 0.000000
vn -0.050728 0.998713 0.000000
vn 0.050627 0.998718 0.000000
vn 0.026490 0.657565 -0.752932
vn -0.026441 0.657162 -0.753285
vn -0.999128 -0.041762 0.000000
vn -0.999128 0.041762 0.000000
vn -0.888181 0.031776 -0.458394
vn -0.888181 -0.031776 -0.458394
vn -0.010400 -0.019154 -0.999762
vn -0.010400 0.019154 -0.999762
vn 0.010382 0.019136 -0.999763
vn 0.010382 -0.019136 -0.999763
vn 0.050627 -0.998718 0.000000
vn -0.050728 -0.998713 0.000000
vn -0.026441 -0.657163 -0.753285
vn 0.026490 -0.657566 -0.752931
vn 0.998975 0.045271 0.000000
vn 0.998975 -0.045271 0.000000
vn 0.872340 -0.033736 -0.487735
vn 0.872340 0.033736 -0.487735
vn 0.000000 0.000000 1.000000
vn 0.000000 0.000000 1.000000
vn 0.000000 0.000000 1.000000
vn 0.000000 0.000000 1.000000
vn 0.000000 0.000000 1.000000
vn 0.000000 0.000000 1.000000
vn 0.000000 0.000000 1.000000
vn 0.000000 0.000000 1.000000
vn -0.050727 0.998713 0.000000
vn -0.026441 0.657163 0.753284
vn 0.026490 0.657566 0.752931
vn 0.050627 0.998718 0.000000
vn -0.999128 -0.041762 0.000000
vn -0.888181 -0.031776 0.458394
vn -0.888181 0.031776 0.458394
vn -0.999128 0.041762 0.000000
vn -0.010400 -0.019153 0.999763
vn 0.010382 -0.019136 0.999763
vn 0.010382 0.019136 0.999763
vn -0.010400 0.019153 0.999762
vn 0.050627 -0.998718 0.000000
vn 0.026490 -0.657566 0.752931
vn -0.026441 -0.657163 0.753285
vn -0.050727 -0.998713 0.000000
vn 0.998975 0.045271 0.000000
vn 0.872339 0.033736 0.487736
vn 0.872339 -0.033736 0.487736
vn 0.998975 -0.045271 0.000000
vn 0.000000 0.000000 -1.000000
vn 0.000000 0.000000 -1.000000
vn 0.000000 0.000000 -1.000000
vn 0.000000 0.000000 -1.000000
vn 0.000000 0.000000 -1.000000
vn 0.000000 0.000000 -1.000000
vn 0.000000 0.000000 -1.000000
vn 0.000000 0.000000 -1.000000
vn -0.050728 0.998713 0.000000
vn 0.050627 0.998718 0.000000
vn 0.026490 0.657565 -0.752932
vn -0.026441 0.657162 -0.753285
vn -0.996451 -0.084180 0.000000
vn -0.996451 0.084180 0.000000
vn -0.895407 0.065704 -0.440373
vn -0.895407 -0.065705 -0.440373
vn -0.009874 -0.038734 -0.999201
vn -0.009874 0.038734 -0.999201
vn 0.009860 0.038703 -0.999202
vn 0.009860 -0.038703 -0.999202
vn 0.050627 -0.998718 0.000000
vn -0.050728 -0.998713 0.000000
vn -0.026441 -0.657163 -0.753285
vn 0.026490 -0.657566 -0.752931
vn 0.995832 0.091210 0.000000
vn 0.995832 -0.091211 0.000000
vn 0.880576 -0.069866 -0.468727
vn 0.880576 0.069866 -0.468727
vn 0.000000 0.000000 1.000000
vn 0.000000 0.000000 1.000000
vn 0.000000 0.000000 1.000000
vn 0.000000 0.000000 1.000000
vn 0.000000 0.000000 1.000000
vn 0.000000 0.000000 1.000000
vn 0.000000 0.000000 1.000000
vn 0.000000 0.000000 1.000000
vn -0.050727 0.998713 0.000000
vn -0.026441 0.657163 0.753285
vn 0.026490 0.657566 0.752931
vn 0.050627 0.998718 0.000000
vn -0.996451 -0.084180 0.000000
vn -0.895408 -0.065704 0.440373
vn -0.895408 0.065704 0.440373
vn -0.996451 0.084180 0.000000
vn -0.009874 -0.038734 0.999201
vn 0.009860 -0.038703 0.999202
vn 0.009860 0.038703 0.999202
vn -0.009874 0.038734 0.999201
vn 0.050627 -0.998718 0.000000
vn 0.026490 -0.657566 0.752931
vn -0.026441 -0.657163 0.753285
vn -0.050727 -0.998713 0.000000
vn 0.995832 0.091210 0.000000
vn 0.880575 0.069866 0.468728
vn 0.880575 -0.069866 0.468728
vn 0.995832 -0.091210 0.000000
vn -0.000000 0.000000 -1.000000
vn -0.000000 0.000000 -1.000000
vn -0.000000 0.000000 -1.000000
vn -0.000000 0.000000 -1.000000
vn -0.000000 0.000000 -1.000000
vn -0.000000 0.000000 -1.000000
vn -0.000000 0.000000 -1.000000
vn -0.000000 0.000000 -1.000000
f 13/1/1 2/2/2 8/3/3 17/4/4
f 16/5/5 6/6/6 3/7/7 14/8/8
f 5/9/9 12/10/10 9/11/11 1/12/12
f 19/13/13 10/14/14 4/15/15 15/16/16
f 18/17/17 7/18/18 11/19/19 20/20/20
f 2/2/2 1/12/12 9/11/11 8/3/3
f 3/7/7 2/2/2 13/1/1 14/8/8
f 1/12/12 3/7/7 6/6/6 5/9/9
f 5/9/9 4/15/15 10/14/14 12/10/10
f 4/15/15 6/6/6 16/5/5 15/16/16
f 8/3/3 7/18/18 18/17/17 17/4/4
f 7/18/18 9/11/11 12/10/10 11/19/19
f 11/19/19 10/14/14 19/13/13 20/20/20
f 1/12/12 2/2/2 3/7/7
f 4/15/15 5/9/9 6/6/6
f 7/18/18 8/3/3 9/11/11
f 10/14/14 11/19/19 12/10/10
f 13/1/21 17/4/22 18/17/23 20/20/24 19/13/25 15/16/26 16/5/27 14/8/28
f 33/21/29 22/22/30 28/23/31 37/24/32
f 36/25/33 26/26/34 23/27/35 34/28/36
f 25/29/37 32/30/38 29/31/39 21/32/40
f 39/33/41 30/34/42 24/35/43 35/36/44
f 38/37/45 27/38/46 31/39/47 40/40/48
f 22/22/30 21/32/40 29/31/39 28/23/31
f 23/27/35 22/22/30 33/21/29 34/28/36
f 21/32/40 23/27/35 26/26/34 25/29/37
f 25/29/37 24/35/43 30/34/42 32/30/38
f 24/35/43 26/26/34 36/25/33 35/36/44
f 28/23/31 27/38/46 38/37/45 37/24/32
f 27/38/46 29/31/39 32/30/38 31/39/47
f 31/39/47 30/34/42 39/33/41 40/40/48
f 21/32/40 22/22/30 23/27/35
f 24/35/43 25/29/37 26/26/34
f 27/38/46 28/23/31 29/31/39
f 30/34/42 31/39/47 32/30/38
f 33/21/49 37/24/50 38/37/51 40/40/52 39/33/53 35/36/54 36/25/55 34/28/56
f 53/41/57 57/42/58 48/43/59 42/44/60
f 56/45/61 54/46/62 43/47/63 46/48/64
f 45/49/65 41/50/66 49/51/67 52/52/68
f 59/53/69 55/54/70 44/55/71 50/56/72
f 58/57/73 60/58/74 51/59/75 47/60/76
f 42/44/60 48/43/59 49/51/67 41/50/66
f 43/47/63 54/46/62 53/41/57 42/44/60
f 41/50/66 45/49/65 46/48/64 43/47/63
f 45/49/65 52/52/68 50/56/72 44/55/71
f 44/55/71 55/54/70 56/45/61 46/48/64
f 48/43/59 57/42/58 58/57/73 47/60/76
f 47/60/76 51/59/75 52/52/68 49/51/67
f 51/59/75 60/58/74 59/53/69 50/56/72
f 41/50/66 43/47/63 42/44/60
f 44/55/71 46/48/64 45/49/65
f 47/60/76 49/51/67 48/43/59
f 50/56/72 52/52/68 51/59/75
f 53/41/77 54/46/78 56/45/79 55/54/80 59/53/81 60/58/82 58/57/83 57/42/84
f 73/61/85 62/62/86 68/63/87 77/64/88
f 76/65/89 66/66/90 63/67/91 74/68/92
f 65/69/93 72/70/94 69/71/95 61/72/96
f 79/73/97 70/74/98 64/75/99 75/76/100
f 78/77/101 67/78/102 71/79/103 80/80/104
f 62/62/86 61/72/96 69/71/95 68/63/87
f 63/67/91 62/62/86 73/61/85 74/68/92
f 61/72/96 63/67/91 66/66/90 65/69/93
f 65/69/93 64/75/99 70/74/98 72/70/94
f 64/75/99 66/66/90 76/65/89 75/76/100
f 68/63/87 67/78/102 78/77/101 77/64/88
f 67/78/102 69/71/95 72/70/94 71/79/103
f 71/79/103 70/74/98 79/73/97 80/80/104
f 61/72/96 62/62/86 63/67/91
f 64/75/99 65/69/93 66/66/90
f 67/78/102 68/63/87 69/71/95
f 70/74/98 71/79/103 72/70/94
f 73/61/105 77/64/106 78/77/107 80/80/108 79/73/109 75/76/110 76/65/111 74/68/112
f 93/81/113 97/82/114 88/83/115 82/84/116
f 96/85/117 94/86/118 83/87/119 86/88/120
f 85/89/121 81/90/122 89/91/123 92/92/124
f 99/93/125 95/94/126 84/95/127 90/96/128
f 98/97/129 100/98/130 91/99/131 87/100/132
f 82/84/116 88/83/115 89/91/123 81/90/122
f 83/87/119 94/86/118 93/81/113 82/84/116
f 81/90/122 85/89/121 86/88/120 83/87/119
f 85/89/121 92/92/124 90/96/128 84/95/127
f 84/95/127 95/94/126 96/85/117 86/88/120
f 88/83/115 97/82/114 98/97/129 87/100/132
f 87/100/132 91/99/131 92/92/124 89/91/123
f 91/99/131 100/98/130 99/93/125 90/96/128
f 81/90/122 83/87/119 82/84/116
f 84/95/127 86/88/120 85/89/121
f 87/100/132 89/91/123 88/83/115
f 90/96/128 92/92/124 91/99/131
f 93/81/133 94/86/134 96/85/135 95/94/136 99/93/137 100/98/138 98/97/139 97/82/140
f 113/101/141 102/102/142 108/103/143 117/104/144
f 116/105/145 106/106/146 103/107/147 114/108/148
f 105/109/149 112/110/150 109/111/151 101/112/152
f 119/113/153 110/114/154 104/115/155 115/116/156
f 118/117/157 107/118/158 111/119/159 120/120/160
f 102/102/142 101/112/152 109/111/151 108/103/143
f 103/107/147 102/102/142 113/101/141 114/108/148
f 101/112/152 103/107/147 106/106/146 105/109/149
f 105/109/149 104/115/155 110/114/154 112/110/150
f 104/115/155 106/106/146 116/105/145 115/116/156
f 108/103/143 107/118/158 118/117/157 117/104/144
f 107/118/158 109/111/151 112/110/150 111/119/159
f 111/119/159 110/114/154 119/113/153 120/120/160
f 101/112/152 102/102/142 103/107/147
f 104/115/155 105/109/149 106/106/146
f 107/118/158 108/103/143 109/111/151
f 110/114/154 111/119/159 112/110/150
f 113/101/161 117/104/162 118/117/163 120/120/164 119/113/165 115/116/166 116/105/167 114/108/168
