# This file uses meters as units for non-parametric coordinates.

v 31.174234 101.775492 134.811609
v 30.170892 101.775492 134.811609
v 31.174234 102.778834 134.811609
v 30.170892 102.778834 134.811609
v 31.174234 102.778834 133.206811
v 30.170892 102.778834 133.206811
v 31.174234 101.775492 133.206811
v 30.170892 101.775492 133.206811
v 21.000242 101.775492 134.811609
v 22.003584 101.775492 134.811609
v 21.000242 102.778834 134.811609
v 22.003584 102.778834 134.811609
v 21.000242 102.778834 133.206811
v 22.003584 102.778834 133.206811
v 21.000242 101.775492 133.206811
v 22.003584 101.775492 133.206811
v 19.521383 101.310201 135.647516
v 19.741898 101.042599 135.647516
v 19.741898 101.310201 135.868036
v 32.432578 101.042599 135.647516
v 32.653093 101.310201 135.647516
v 32.432578 101.310201 135.868036
v 19.741898 103.751008 135.647516
v 19.521383 103.483406 135.647516
v 19.741898 103.483406 135.868036
v 32.653093 103.483406 135.647516
v 32.432578 103.751008 135.647516
v 32.432578 103.483406 135.868036
v 19.741898 103.483406 134.397790
v 19.521383 103.483406 134.618280
v 19.741898 103.751008 134.618280
v 32.653093 103.483406 134.618280
v 32.432578 103.483406 134.397790
v 32.432578 103.751008 134.618280
v 19.741898 101.042599 134.618280
v 19.521383 101.310201 134.618280
v 19.741898 101.310201 134.397790
v 32.653093 101.310201 134.618280
v 32.432578 101.042599 134.618280
v 32.432578 101.310201 134.397790
vt 0.884311 0.633153
vt 0.993541 0.633153
vt 0.884311 0.742382
vt 0.993541 0.742382
vt 0.884311 0.633153
vt 0.993541 0.633153
vt 0.884311 0.742382
vt 0.993541 0.742382
vt 0.884311 0.633153
vt 0.993541 0.633153
vt 0.884311 0.633153
vt 0.884311 0.742382
vt 0.993541 0.633153
vt 0.993541 0.742382
vt 0.884311 0.742382
vt 0.993541 0.742382
vt 0.993541 0.633153
vt 0.884311 0.633153
vt 0.884311 0.742382
vt 0.993541 0.742382
vt 0.993541 0.633153
vt 0.884311 0.633153
vt 0.993541 0.633153
vt 0.884311 0.633153
vt 0.884311 0.742382
vt 0.993541 0.633153
vt 0.884311 0.633153
vt 0.993541 0.742382
vt 0.886752 0.726000
vt 0.991100 0.725999
vt 0.991100 0.649537
vt 0.886752 0.649537
vt 0.991100 0.643714
vt 0.991100 0.731821
vt 0.886752 0.731821
vt 0.886752 0.643714
vt 0.900696 0.731821
vt 0.977158 0.731821
vt 0.977158 0.643714
vt 0.900696 0.643714
vt 0.900694 0.643714
vt 0.900694 0.731821
vt 0.977156 0.731821
vt 0.977156 0.643714
vt 0.991100 0.725998
vt 0.991100 0.649536
vt 0.886752 0.649536
vt 0.886752 0.725998
vt 0.991100 0.643714
vt 0.991100 0.731821
vt 0.886752 0.731821
vt 0.886752 0.643714
vt 0.884311 0.649537
vt 0.884311 0.726000
vt 0.886752 0.633153
vt 0.991100 0.633153
vt 0.993541 0.649537
vt 0.993541 0.725999
vt 0.884311 0.725998
vt 0.884311 0.649536
vt 0.993541 0.725998
vt 0.993541 0.649536
vt 0.884311 0.643714
vt 0.884311 0.731821
vt 0.993541 0.643714
vt 0.993541 0.731821
vn 0.000000 1.000000 0.000000
vn 0.000000 1.000000 0.000000
vn 0.000000 1.000000 0.000000
vn 0.000000 1.000000 0.000000
vn 0.000000 -1.000000 0.000000
vn 0.000000 -1.000000 0.000000
vn 0.000000 -1.000000 0.000000
vn 0.000000 -1.000000 0.000000
vn -1.000000 0.000000 0.000000
vn -1.000000 0.000000 0.000000
vn -1.000000 0.000000 0.000000
vn -1.000000 0.000000 0.000000
vn 1.000000 0.000000 0.000000
vn 1.000000 0.000000 0.000000
vn 1.000000 0.000000 0.000000
vn 1.000000 0.000000 0.000000
vn 0.000000 1.000000 0.000000
vn 0.000000 1.000000 0.000000
vn 0.000000 1.000000 0.000000
vn 0.000000 1.000000 0.000000
vn 0.000000 -1.000000 0.000000
vn 0.000000 -1.000000 0.000000
vn 0.000000 -1.000000 0.000000
vn 0.000000 -1.000000 0.000000
vn 1.000000 0.000000 0.000000
vn 1.000000 0.000000 0.000000
vn 1.000000 0.000000 0.000000
vn 1.000000 0.000000 0.000000
vn -1.000000 0.000000 0.000000
vn -1.000000 0.000000 0.000000
vn -1.000000 0.000000 0.000000
vn -1.000000 0.000000 0.000000
vn 0.000000 -1.000000 0.000000
vn 0.000000 -1.000000 0.000000
vn 0.000000 -1.000000 0.000000
vn 0.000000 -1.000000 0.000000
vn 0.000000 0.000000 1.000000
vn 0.000000 0.000000 1.000000
vn 0.000000 0.000000 1.000000
vn 0.000000 0.000000 1.000000
vn -1.000000 0.000000 0.000000
vn -1.000000 0.000000 0.000000
vn -1.000000 0.000000 0.000000
vn -1.000000 0.000000 0.000000
vn 1.000000 0.000000 0.000000
vn 1.000000 0.000000 0.000000
vn 1.000000 0.000000 0.000000
vn 1.000000 0.000000 0.000000
vn 0.000000 1.000000 0.000000
vn 0.000000 1.000000 0.000000
vn 0.000000 1.000000 0.000000
vn 0.000000 1.000000 0.000000
vn 0.000000 0.000000 -1.000000
vn 0.000000 0.000000 -1.000000
vn 0.000000 0.000000 -1.000000
vn 0.000000 0.000000 -1.000000
vn -0.771741 -0.635938 0.000000
vn -0.771741 -0.635938 0.000000
vn -0.771741 -0.635938 0.000000
vn -0.771741 -0.635938 0.000000
vn 0.000000 -0.635950 0.771730
vn 0.000000 -0.635950 0.771730
vn 0.000000 -0.635950 0.771730
vn 0.000000 -0.635950 0.771730
vn -0.707125 0.000000 0.707089
vn -0.707125 0.000000 0.707089
vn -0.707125 0.000000 0.707089
vn -0.707125 0.000000 0.707089
vn 0.771741 -0.635938 0.000000
vn 0.771741 -0.635938 0.000000
vn 0.771741 -0.635938 0.000000
vn 0.771741 -0.635938 0.000000
vn 0.707125 0.000000 0.707089
vn 0.707125 0.000000 0.707089
vn 0.707125 0.000000 0.707089
vn 0.707125 0.000000 0.707089
vn -0.771732 0.635948 0.000000
vn -0.771732 0.635948 0.000000
vn -0.771732 0.635948 0.000000
vn -0.771732 0.635948 0.000000
vn 0.000000 0.635949 0.771731
vn 0.000000 0.635949 0.771731
vn 0.000000 0.635949 0.771731
vn 0.000000 0.635949 0.771731
vn 0.771732 0.635948 0.000000
vn 0.771732 0.635948 0.000000
vn 0.771732 0.635948 0.000000
vn 0.771732 0.635948 0.000000
vn -0.707080 0.000000 -0.707134
vn -0.707080 0.000000 -0.707134
vn -0.707080 0.000000 -0.707134
vn -0.707080 0.000000 -0.707134
vn 0.000000 0.635896 -0.771775
vn 0.000000 0.635896 -0.771775
vn 0.000000 0.635896 -0.771775
vn 0.000000 0.635896 -0.771775
vn 0.707080 0.000000 -0.707134
vn 0.707080 0.000000 -0.707134
vn 0.707080 0.000000 -0.707134
vn 0.707080 0.000000 -0.707134
vn 0.000000 -0.635898 -0.771773
vn 0.000000 -0.635898 -0.771773
vn 0.000000 -0.635898 -0.771773
vn 0.000000 -0.635898 -0.771773
vn -0.610925 -0.503476 0.610969
vn -0.610925 -0.503476 0.610969
vn -0.610925 -0.503476 0.610969
vn 0.610925 -0.503476 0.610969
vn 0.610925 -0.503476 0.610969
vn 0.610925 -0.503476 0.610969
vn -0.611022 0.503426 0.610913
vn -0.611022 0.503426 0.610913
vn -0.611022 0.503426 0.610913
vn 0.611022 0.503426 0.610913
vn 0.611022 0.503426 0.610913
vn 0.611022 0.503426 0.610913
vn -0.610943 0.503424 -0.610993
vn -0.610943 0.503424 -0.610993
vn -0.610943 0.503424 -0.610993
vn 0.610943 0.503424 -0.610993
vn 0.610943 0.503424 -0.610993
vn 0.610943 0.503424 -0.610993
vn -0.610945 -0.503426 -0.610990
vn -0.610945 -0.503426 -0.610990
vn -0.610945 -0.503426 -0.610990
vn 0.610945 -0.503426 -0.610990
vn 0.610945 -0.503426 -0.610990
vn 0.610945 -0.503426 -0.610990
f 3/3/1 5/5/2 6/6/3 4/4/4
f 7/7/5 1/9/6 2/10/7 8/8/8
f 2/2/9 4/4/10 6/12/11 8/11/12
f 7/13/13 5/14/14 3/3/15 1/1/16
f 11/15/17 12/16/18 14/17/19 13/18/20
f 15/19/21 16/20/22 10/21/23 9/22/24
f 10/23/25 16/24/26 14/25/27 12/16/28
f 15/26/29 9/27/30 11/15/31 13/28/32
f 35/29/33 39/30/34 20/31/35 18/32/36
f 22/33/37 28/34/38 25/35/39 19/36/40
f 24/37/41 30/38/42 36/39/43 17/40/44
f 38/41/45 32/42/46 26/43/47 21/44/48
f 27/45/49 34/46/50 31/47/51 23/48/52
f 33/49/53 40/50/54 37/51/55 29/52/56
f 18/32/57 17/53/58 36/54/59 35/29/60
f 19/36/61 18/55/62 20/56/63 22/33/64
f 17/40/65 19/36/66 25/35/67 24/37/68
f 21/57/69 20/31/70 39/30/71 38/58/72
f 22/33/73 21/44/74 26/43/75 28/34/76
f 24/59/77 23/48/78 31/47/79 30/60/80
f 23/48/81 25/35/82 28/34/83 27/45/84
f 27/45/85 26/61/86 32/62/87 34/46/88
f 30/63/89 29/52/90 37/51/91 36/64/92
f 29/52/93 31/47/94 34/46/95 33/49/96
f 33/49/97 32/65/98 38/66/99 40/50/100
f 35/29/101 37/51/102 40/50/103 39/30/104
f 17/40/105 18/55/106 19/36/107
f 20/56/108 21/44/109 22/33/110
f 23/48/111 24/37/112 25/35/113
f 26/43/114 27/45/115 28/34/116
f 29/52/117 30/60/118 31/47/119
f 32/62/120 33/49/121 34/46/122
f 35/29/123 36/64/124 37/51/125
f 38/66/126 39/30/127 40/50/128
