# This file uses meters as units for non-parametric coordinates.

v 48.211505 48.500069 62.402622
v 48.211505 43.389756 62.402622
v 48.211505 48.500069 6.406739
v 48.211505 43.389756 6.406739
v 48.211537 27.256324 62.402622
v 48.211537 22.146011 62.402622
v 48.211537 27.256324 6.406739
v 48.211537 22.146011 6.406739
v 48.211505 48.500069 66.814438
v 48.211537 22.146011 66.814438
v 48.211537 22.146011 66.814438
v 48.211537 22.146011 1.994923
v 48.211505 48.500069 66.814438
v 48.211505 48.500069 1.994923
v -3.815157 48.500069 66.814438
v -3.815157 48.500069 1.994923
v -3.815125 22.146011 66.814438
v -3.815125 22.146011 1.994923
v 48.211505 48.500069 1.994923
v 48.211537 22.146011 1.994923
v 49.013467 43.611099 6.572533
v 48.872413 43.389756 6.406739
v 49.013435 48.358995 6.572533
v 48.872413 48.500069 6.406739
v 49.013435 48.358995 62.236828
v 48.872413 48.500069 62.402622
v 49.013467 43.611099 62.236828
v 48.872413 43.389756 62.402622
v 49.013499 22.287087 6.572533
v 48.872445 22.146011 6.406739
v 49.013467 27.034983 6.572533
v 48.872413 27.256324 6.406739
v 49.013467 27.034983 62.236828
v 48.872413 27.256324 62.402622
v 49.013499 22.287087 62.236828
v 48.872445 22.146011 62.402622
v 49.482291 22.287087 66.673356
v 49.341237 22.146011 66.814438
v 49.482291 22.287087 62.568417
v 49.341237 22.146011 62.402622
v 49.482259 48.358995 66.673356
v 49.341206 48.500069 66.814438
v 49.482259 48.358995 62.568417
v 49.341206 48.500069 62.402622
v 49.482291 22.287087 2.136005
v 49.341237 22.146011 1.994923
v 49.482291 22.287087 6.240944
v 49.341237 22.146011 6.406739
v 49.482259 48.358995 2.136005
v 49.341206 48.500069 1.994923
v 49.482259 48.358995 6.240944
v 49.341206 48.500069 6.406739
v 46.838788 48.500069 65.441726
v 46.838788 48.500069 3.367633
v -2.442455 48.500069 3.367633
v -2.442455 48.500069 65.441726
v 46.838788 25.924266 65.441726
v 46.838788 25.924265 3.367633
v -2.442455 25.924265 3.367633
v -2.442455 25.924266 65.441726
vt 0.743541 0.118789
vt 0.634311 0.071115
vt 0.743541 0.118789
vt 0.634311 0.071115
vt 0.743541 0.071115
vt 0.634311 0.118789
vt 0.634311 0.071115
vt 0.743541 0.071115
vt 0.743541 0.118789
vt 0.634311 0.118789
vt 0.743541 0.071115
vt 0.634311 0.071115
vt 0.743541 0.118789
vt 0.634311 0.118789
vt 0.743541 0.071115
vt 0.634311 0.071115
vt 0.634311 0.071115
vt 0.634311 0.118789
vt 0.743541 0.071115
vt 0.743541 0.118789
vt 0.634311 0.071115
vt 0.743541 0.118789
vt 0.743541 0.075878
vt 0.743122 0.071996
vt 0.645232 0.071115
vt 0.634311 0.114023
vt 0.634730 0.071996
vt 0.743541 0.075878
vt 0.743122 0.071996
vt 0.645232 0.071115
vt 0.634311 0.114023
vt 0.634731 0.071996
vt 0.642507 0.071115
vt 0.636330 0.071394
vt 0.634311 0.115211
vt 0.636330 0.118510
vt 0.735344 0.118789
vt 0.636330 0.071394
vt 0.735344 0.071115
vt 0.741522 0.071394
vt 0.743541 0.115211
vt 0.642508 0.118789
vt 0.741522 0.118510
vt 0.743122 0.117908
vt 0.634730 0.117908
vt 0.645232 0.118789
vt 0.743541 0.071115
vt 0.634311 0.118789
vt 0.732621 0.118789
vt 0.732621 0.071115
vt 0.743541 0.114021
vt 0.743541 0.071115
vt 0.634311 0.071115
vt 0.743541 0.118789
vt 0.634311 0.075881
vt 0.634311 0.118789
vt 0.743122 0.117908
vt 0.634730 0.117908
vt 0.645232 0.118789
vt 0.743541 0.071115
vt 0.634311 0.118789
vt 0.732620 0.118789
vt 0.732621 0.071115
vt 0.743541 0.114021
vt 0.743541 0.071115
vt 0.634311 0.071115
vt 0.743541 0.118789
vt 0.634311 0.075881
vt 0.634311 0.118789
vt 0.741522 0.071394
vt 0.741522 0.118510
vt 0.743541 0.115211
vt 0.634311 0.071115
vt 0.743541 0.118789
vt 0.743541 0.074693
vt 0.634311 0.074693
vt 0.735345 0.071115
vt 0.634311 0.071115
vt 0.634311 0.118789
vt 0.743541 0.071115
vt 0.642508 0.118789
vt 0.743541 0.118789
vt 0.636330 0.118510
vt 0.634311 0.115211
vt 0.743541 0.071115
vt 0.634311 0.118789
vt 0.634311 0.074693
vt 0.743541 0.074693
vt 0.735344 0.118789
vt 0.634311 0.118789
vt 0.634311 0.071115
vt 0.743541 0.071115
vt 0.743541 0.118789
vt 0.642508 0.071115
vt 0.634311 0.118789
vt 0.743541 0.118789
vt 0.743541 0.071115
vt 0.634311 0.071115
vt 0.634311 0.118789
vt 0.743541 0.118789
vt 0.743541 0.071115
vt 0.634311 0.071115
vt 0.634349 0.071296
vt 0.742601 0.071296
vt 0.742601 0.118543
vt 0.634349 0.118543
vt 0.742601 0.118543
vt 0.634349 0.071296
vt 0.634349 0.118543
vt 0.742601 0.071296
vn -1.000000 0.000000 -0.000000
vn -1.000000 0.000000 -0.000000
vn -1.000000 0.000000 -0.000000
vn -1.000000 0.000000 -0.000000
vn -1.000000 0.000000 -0.000000
vn -1.000000 0.000000 -0.000000
vn -1.000000 0.000000 -0.000000
vn -1.000000 0.000000 -0.000000
vn -1.000000 -0.000001 -0.000000
vn -1.000000 -0.000001 -0.000000
vn -1.000000 -0.000001 -0.000000
vn -1.000000 -0.000001 -0.000000
vn 1.000000 0.000001 0.000000
vn 1.000000 0.000001 0.000000
vn 1.000000 0.000001 0.000000
vn 1.000000 0.000001 0.000000
vn 0.000000 1.000000 -0.000000
vn 0.000000 1.000000 -0.000000
vn 0.000000 1.000000 -0.000000
vn 0.000000 1.000000 -0.000000
vn -1.000000 -0.000001 -0.000000
vn -1.000000 -0.000001 -0.000000
vn -1.000000 -0.000001 -0.000000
vn -1.000000 -0.000001 -0.000000
vn 0.000000 -1.000000 0.000000
vn 0.000000 -1.000000 0.000000
vn 0.000000 -1.000000 0.000000
vn 0.000000 -1.000000 0.000000
vn 0.000000 -0.000000 -1.000000
vn 0.000000 -0.000000 -1.000000
vn 0.000000 -0.000000 -1.000000
vn 0.000000 -0.000000 -1.000000
vn -0.000000 0.000000 1.000000
vn -0.000000 0.000000 1.000000
vn -0.000000 0.000000 1.000000
vn -0.000000 0.000000 1.000000
vn -1.000000 -0.000001 -0.000000
vn -1.000000 -0.000001 -0.000000
vn -1.000000 -0.000001 -0.000000
vn -1.000000 -0.000001 -0.000000
vn 0.761712 0.000003 -0.647916
vn 0.761712 0.000003 -0.647916
vn 0.761712 0.000003 -0.647916
vn 0.761712 0.000003 -0.647916
vn 0.843318 -0.537416 0.000000
vn 0.843318 -0.537416 0.000000
vn 0.843318 -0.537416 0.000000
vn 0.843318 -0.537416 0.000000
vn 0.707233 0.706981 0.000000
vn 0.707233 0.706981 0.000000
vn 0.707233 0.706981 0.000000
vn 0.707233 0.706981 0.000000
vn 0.761712 0.000002 0.647916
vn 0.761712 0.000002 0.647916
vn 0.761712 0.000002 0.647916
vn 0.761712 0.000002 0.647916
vn 0.761620 0.000005 -0.648023
vn 0.761620 0.000005 -0.648023
vn 0.761620 0.000005 -0.648023
vn 0.761620 0.000005 -0.648023
vn 0.707162 -0.707051 0.000000
vn 0.707162 -0.707051 0.000000
vn 0.707162 -0.707051 0.000000
vn 0.707162 -0.707051 0.000000
vn 0.843316 0.537418 0.000000
vn 0.843316 0.537418 0.000000
vn 0.843316 0.537418 0.000000
vn 0.843316 0.537418 0.000000
vn 0.761620 0.000005 0.648023
vn 0.761620 0.000005 0.648023
vn 0.761620 0.000005 0.648023
vn 0.761620 0.000005 0.648023
vn 0.707161 -0.707053 0.000000
vn 0.707161 -0.707053 0.000000
vn 0.707161 -0.707053 0.000000
vn 0.707161 -0.707053 0.000000
vn 0.707146 0.000001 0.707068
vn 0.707146 0.000001 0.707068
vn 0.707146 0.000001 0.707068
vn 0.707146 0.000001 0.707068
vn 0.761620 0.000001 -0.648023
vn 0.761620 0.000001 -0.648023
vn 0.761620 0.000001 -0.648023
vn 0.761620 0.000001 -0.648023
vn 0.707158 0.707055 0.000000
vn 0.707158 0.707055 0.000000
vn 0.707158 0.707055 0.000000
vn 0.707158 0.707055 0.000000
vn 0.707146 0.000001 -0.707068
vn 0.707146 0.000001 -0.707068
vn 0.707146 0.000001 -0.707068
vn 0.707146 0.000001 -0.707068
vn 0.707160 -0.707053 0.000000
vn 0.707160 -0.707053 0.000000
vn 0.707160 -0.707053 0.000000
vn 0.707160 -0.707053 0.000000
vn 0.761620 0.000001 0.648023
vn 0.761620 0.000001 0.648023
vn 0.761620 0.000001 0.648023
vn 0.761620 0.000001 0.648023
vn 0.707158 0.707056 0.000000
vn 0.707158 0.707056 0.000000
vn 0.707158 0.707056 0.000000
vn 0.707158 0.707056 0.000000
vn 1.000000 0.000007 0.000000
vn 1.000000 0.000007 0.000000
vn 1.000000 0.000007 0.000000
vn 1.000000 0.000007 0.000000
vn -0.000000 0.000000 1.000000
vn -0.000000 0.000000 1.000000
vn -0.000000 0.000000 1.000000
vn -0.000000 0.000000 1.000000
vn 0.000000 0.000000 -1.000000
vn 0.000000 0.000000 -1.000000
vn 0.000000 0.000000 -1.000000
vn 0.000000 0.000000 -1.000000
vn 0.000000 1.000000 0.000000
vn 0.000000 1.000000 0.000000
vn 0.000000 1.000000 0.000000
vn 0.000000 1.000000 0.000000
vn 0.000000 -1.000000 0.000000
vn 0.000000 -1.000000 0.000000
vn 0.000000 -1.000000 0.000000
vn 0.000000 -1.000000 0.000000
vn 1.000000 0.000007 0.000000
vn 1.000000 0.000007 0.000000
vn 1.000000 0.000007 0.000000
vn 1.000000 0.000007 0.000000
vn -0.000000 0.000000 1.000000
vn -0.000000 0.000000 1.000000
vn -0.000000 0.000000 1.000000
vn -0.000000 0.000000 1.000000
vn 0.000000 0.000000 -1.000000
vn 0.000000 0.000000 -1.000000
vn 0.000000 0.000000 -1.000000
vn 0.000000 0.000000 -1.000000
vn 0.000000 1.000000 -0.000000
vn 0.000000 1.000000 -0.000000
vn 0.000000 1.000000 -0.000000
vn 0.000000 1.000000 -0.000000
vn 0.000000 -1.000000 0.000000
vn 0.000000 -1.000000 0.000000
vn 0.000000 -1.000000 0.000000
vn 0.000000 -1.000000 0.000000
vn 1.000000 0.000001 0.000000
vn 1.000000 0.000001 0.000000
vn 1.000000 0.000001 0.000000
vn 1.000000 0.000001 0.000000
vn 0.000000 1.000000 0.000000
vn 0.000000 1.000000 0.000000
vn 0.000000 1.000000 0.000000
vn 0.000000 1.000000 0.000000
vn 0.000000 -1.000000 0.000000
vn 0.000000 -1.000000 0.000000
vn 0.000000 -1.000000 0.000000
vn 0.000000 -1.000000 0.000000
vn 0.000000 0.000000 -1.000000
vn 0.000000 0.000000 -1.000000
vn 0.000000 0.000000 -1.000000
vn 0.000000 0.000000 -1.000000
vn -0.000000 0.000000 1.000000
vn -0.000000 0.000000 1.000000
vn -0.000000 0.000000 1.000000
vn -0.000000 0.000000 1.000000
vn 1.000000 0.000001 0.000000
vn 1.000000 0.000001 0.000000
vn 1.000000 0.000001 0.000000
vn 1.000000 0.000001 0.000000
vn 0.000000 1.000000 0.000000
vn 0.000000 1.000000 0.000000
vn 0.000000 1.000000 0.000000
vn 0.000000 1.000000 0.000000
vn 0.000000 -1.000000 0.000000
vn 0.000000 -1.000000 0.000000
vn 0.000000 -1.000000 0.000000
vn 0.000000 -1.000000 0.000000
vn -0.000000 0.000000 1.000000
vn -0.000000 0.000000 1.000000
vn -0.000000 0.000000 1.000000
vn -0.000000 0.000000 1.000000
vn 0.000000 0.000000 -1.000000
vn 0.000000 0.000000 -1.000000
vn 0.000000 0.000000 -1.000000
vn 0.000000 0.000000 -1.000000
vn 0.000000 1.000000 0.000000
vn 0.000000 1.000000 0.000000
vn 0.000000 1.000000 0.000000
vn 0.000000 1.000000 0.000000
vn 0.000000 1.000000 0.000000
vn 0.000000 1.000000 0.000000
vn 0.000000 1.000000 0.000000
vn 0.000000 1.000000 0.000000
vn 0.000000 1.000000 0.000000
vn 0.000000 1.000000 0.000000
vn 0.000000 1.000000 0.000000
vn 0.000000 1.000000 0.000000
vn 0.000000 1.000000 0.000000
vn 0.000000 1.000000 0.000000
vn 0.000000 1.000000 0.000000
vn 0.000000 1.000000 0.000000
vn -1.000000 0.000000 -0.000000
vn -1.000000 0.000000 -0.000000
vn -1.000000 0.000000 -0.000000
vn -1.000000 0.000000 -0.000000
vn -0.000000 0.000000 1.000000
vn -0.000000 0.000000 1.000000
vn -0.000000 0.000000 1.000000
vn -0.000000 0.000000 1.000000
vn 1.000000 0.000000 0.000000
vn 1.000000 0.000000 0.000000
vn 1.000000 0.000000 0.000000
vn 1.000000 0.000000 0.000000
vn 0.000000 0.000000 -1.000000
vn 0.000000 0.000000 -1.000000
vn 0.000000 0.000000 -1.000000
vn 0.000000 0.000000 -1.000000
f 2/47/1 1/1/2 3/48/3 4/2/4
f 6/60/5 5/3/6 7/61/7 8/4/8
f 9/73/9 1/5/10 6/74/11 10/6/12
f 11/7/13 12/8/14 14/9/15 13/10/16
f 57/99/17 58/100/18 59/101/19 60/102/20
f 15/12/21 16/11/22 18/13/23 17/14/24
f 17/14/25 18/13/26 12/15/27 11/16/28
f 12/8/29 18/17/30 16/18/31 14/9/32
f 17/19/33 11/7/34 13/10/35 15/20/36
f 19/21/37 20/86/38 8/22/39 3/85/40
f 21/24/41 22/23/42 24/51/43 23/44/44
f 22/23/45 21/24/46 27/27/47 28/25/48
f 23/44/49 24/51/50 26/26/51 25/45/52
f 25/45/53 26/26/54 28/25/55 27/27/56
f 29/29/57 30/28/58 32/64/59 31/57/60
f 30/28/61 29/29/62 35/32/63 36/30/64
f 31/57/65 32/64/66 34/31/67 33/58/68
f 33/58/69 34/31/70 36/30/71 35/32/72
f 37/34/73 38/33/74 40/77/75 39/70/76
f 38/33/77 37/34/78 41/36/79 42/35/80
f 39/70/81 40/77/82 44/37/83 43/71/84
f 42/35/85 41/36/86 43/71/87 44/37/88
f 45/38/89 46/94/90 50/42/91 49/83/92
f 46/94/93 45/38/94 47/40/95 48/39/96
f 48/39/97 47/40/98 51/43/99 52/41/100
f 49/83/101 50/42/102 52/41/103 51/43/104
f 21/24/105 23/44/106 25/45/107 27/27/108
f 28/25/109 26/46/110 1/1/111 2/47/112
f 4/2/113 3/48/114 24/49/115 22/50/116
f 24/51/117 3/52/118 1/53/119 26/26/120
f 4/54/121 22/23/122 28/55/123 2/56/124
f 29/29/125 31/57/126 33/58/127 35/32/128
f 36/30/129 34/59/130 5/3/131 6/60/132
f 8/4/133 7/61/134 32/62/135 30/63/136
f 32/64/137 7/65/138 5/66/139 34/31/140
f 8/67/141 30/28/142 36/68/143 6/69/144
f 37/34/145 39/70/146 43/71/147 41/36/148
f 42/35/149 44/72/150 1/5/151 9/73/152
f 10/6/153 6/74/154 40/75/155 38/76/156
f 40/77/157 6/78/158 1/79/159 44/37/160
f 10/80/161 38/33/162 42/81/163 9/82/164
f 45/38/165 49/83/166 51/43/167 47/40/168
f 50/84/169 19/21/170 3/85/171 52/41/172
f 20/86/173 46/87/174 48/88/175 8/22/176
f 48/39/177 52/89/178 3/90/179 8/91/180
f 20/92/181 19/93/182 50/42/183 46/94/184
f 13/10/185 14/9/186 54/96/187 53/95/188
f 14/9/189 16/11/190 55/97/191 54/96/192
f 16/11/193 15/12/194 56/98/195 55/97/196
f 15/12/197 13/10/198 53/95/199 56/98/200
f 53/103/201 54/104/202 58/105/203 57/106/204
f 54/104/205 55/108/206 59/109/207 58/105/208
f 55/108/209 56/110/210 60/107/211 59/109/212
f 56/110/213 53/103/214 57/106/215 60/107/216
