# This file uses centimeters as units for non-parametric coordinates.

v 105.326904 6.626556 21.162657
v 105.326904 6.626556 -3.806395
v -104.883331 6.626556 21.162657
v -104.883331 6.626556 -3.806395
v -104.883331 -6.626575 21.162657
v -104.883331 -6.626575 -3.806395
v 105.326904 -6.626575 21.162657
v 105.326904 -6.626575 -3.806395
vt 0.640033 0.784799
vt 0.640033 0.832379
vt 0.732364 0.831770
vt 0.732175 0.785467
vt 0.733549 0.757745
vt 0.733525 0.868445
vt 0.640701 0.758567
vt 0.640787 0.867573
vt 0.639986 0.839783
vt 0.639925 0.864637
vt 0.640243 0.758405
vt 0.732195 0.758878
vt 0.640243 0.867769
vt 0.732340 0.867305
vn 0.000000 1.000000 0.000000
vn 0.000000 1.000000 0.000000
vn 0.000000 1.000000 0.000000
vn 0.000000 1.000000 0.000000
vn -1.000000 0.000000 0.000000
vn -1.000000 0.000000 0.000000
vn -1.000000 0.000000 0.000000
vn -1.000000 0.000000 0.000000
vn 0.000000 -1.000000 0.000000
vn 0.000000 -1.000000 0.000000
vn 0.000000 -1.000000 0.000000
vn 0.000000 -1.000000 0.000000
vn 1.000000 0.000000 0.000000
vn 1.000000 0.000000 0.000000
vn 1.000000 0.000000 0.000000
vn 1.000000 0.000000 0.000000
vn 0.000000 0.000000 -1.000000
vn 0.000000 0.000000 -1.000000
vn 0.000000 0.000000 -1.000000
vn 0.000000 0.000000 -1.000000
vn 0.000000 0.000000 1.000000
vn 0.000000 0.000000 1.000000
vn 0.000000 0.000000 1.000000
vn 0.000000 0.000000 1.000000
f 1/1/1 2/2/2 4/3/3 3/4/4
f 3/4/5 4/3/6 6/5/7 5/6/8
f 5/6/9 6/5/10 8/7/11 7/8/12
f 7/8/13 8/7/14 2/9/15 1/10/16
f 2/2/17 8/11/18 6/12/19 4/3/20
f 7/13/21 1/1/22 3/4/23 5/14/24
