# This file uses centimeters as units for non-parametric coordinates.

v 105.326904 6.626556 21.162657
v 105.326904 6.626556 -3.806395
v -104.883331 6.626556 21.162657
v -104.883331 6.626556 -3.806395
v -104.883331 -6.626575 21.162657
v -104.883331 -6.626575 -3.806395
v 105.326904 -6.626575 21.162657
v 105.326904 -6.626575 -3.806395
vt 0.765033 0.659799
vt 0.765033 0.707379
vt 0.857364 0.706770
vt 0.857175 0.660467
vt 0.858549 0.632745
vt 0.858525 0.743445
vt 0.765701 0.633567
vt 0.765787 0.742573
vt 0.764986 0.714783
vt 0.764925 0.739637
vt 0.765243 0.633405
vt 0.857195 0.633878
vt 0.765243 0.742769
vt 0.857340 0.742305
vn 0.000000 1.000000 0.000000
vn 0.000000 1.000000 0.000000
vn 0.000000 1.000000 0.000000
vn 0.000000 1.000000 0.000000
vn -1.000000 0.000000 0.000000
vn -1.000000 0.000000 0.000000
vn -1.000000 0.000000 0.000000
vn -1.000000 0.000000 0.000000
vn 0.000000 -1.000000 0.000000
vn 0.000000 -1.000000 0.000000
vn 0.000000 -1.000000 0.000000
vn 0.000000 -1.000000 0.000000
vn 1.000000 0.000000 0.000000
vn 1.000000 0.000000 0.000000
vn 1.000000 0.000000 0.000000
vn 1.000000 0.000000 0.000000
vn 0.000000 0.000000 -1.000000
vn 0.000000 0.000000 -1.000000
vn 0.000000 0.000000 -1.000000
vn 0.000000 0.000000 -1.000000
vn 0.000000 0.000000 1.000000
vn 0.000000 0.000000 1.000000
vn 0.000000 0.000000 1.000000
vn 0.000000 0.000000 1.000000
f 1/1/1 2/2/2 4/3/3 3/4/4
f 3/4/5 4/3/6 6/5/7 5/6/8
f 5/6/9 6/5/10 8/7/11 7/8/12
f 7/8/13 8/7/14 2/9/15 1/10/16
f 2/2/17 8/11/18 6/12/19 4/3/20
f 7/13/21 1/1/22 3/4/23 5/14/24
