# This file uses centimeters as units for non-parametric coordinates.

v -8.773567 -377.572144 9.547550
v 8.773567 -377.572144 9.547550
v -8.773567 -8.765541 9.547550
v 8.773567 -8.765541 9.547550
v -8.773567 -8.765541 7.808708
v 8.773567 -8.765541 7.808708
v -8.773567 -377.572144 7.808708
v 8.773567 -377.572144 7.808708
vt 0.731557 0.739628
vt 0.731558 0.692049
vt 0.639226 0.692658
vt 0.639416 0.738960
vt 0.638042 0.688400
vt 0.638065 0.743226
vt 0.730890 0.687579
vt 0.730804 0.744098
vt 0.731605 0.684644
vt 0.731665 0.747034
vt 0.731348 0.687741
vt 0.639396 0.687268
vt 0.731348 0.743902
vt 0.639251 0.744366
vn 0.000000 0.000000 1.000000
vn 0.000000 0.000000 1.000000
vn 0.000000 0.000000 1.000000
vn 0.000000 0.000000 1.000000
vn 0.000000 1.000000 0.000000
vn 0.000000 1.000000 0.000000
vn 0.000000 1.000000 0.000000
vn 0.000000 1.000000 0.000000
vn 0.000000 0.000000 -1.000000
vn 0.000000 0.000000 -1.000000
vn 0.000000 0.000000 -1.000000
vn 0.000000 0.000000 -1.000000
vn 0.000000 -1.000000 0.000000
vn 0.000000 -1.000000 0.000000
vn 0.000000 -1.000000 0.000000
vn 0.000000 -1.000000 0.000000
vn 1.000000 0.000000 0.000000
vn 1.000000 0.000000 0.000000
vn 1.000000 0.000000 0.000000
vn 1.000000 0.000000 0.000000
vn -1.000000 0.000000 0.000000
vn -1.000000 0.000000 0.000000
vn -1.000000 0.000000 0.000000
vn -1.000000 0.000000 0.000000
f 1/1/1 2/2/2 4/3/3 3/4/4
f 3/4/5 4/3/6 6/5/7 5/6/8
f 5/6/9 6/5/10 8/7/11 7/8/12
f 7/8/13 8/7/14 2/9/15 1/10/16
f 2/2/17 8/11/18 6/12/19 4/3/20
f 7/13/21 1/1/22 3/4/23 5/14/24
