# This file uses centimeters as units for non-parametric coordinates.

v -8.773567 -377.572144 9.547550
v 8.773567 -377.572144 9.547550
v -8.773567 -8.765541 9.547550
v 8.773567 -8.765541 9.547550
v -8.773567 -8.765541 7.808708
v 8.773567 -8.765541 7.808708
v -8.773567 -377.572144 7.808708
v 8.773567 -377.572144 7.808708
vt 0.606557 0.864628
vt 0.606558 0.817049
vt 0.514226 0.817658
vt 0.514416 0.863960
vt 0.513042 0.813400
vt 0.513065 0.868226
vt 0.605890 0.812579
vt 0.605804 0.869098
vt 0.606605 0.809644
vt 0.606665 0.872034
vt 0.606348 0.812741
vt 0.514396 0.812268
vt 0.606348 0.868902
vt 0.514251 0.869366
vn 0.000000 0.000000 1.000000
vn 0.000000 0.000000 1.000000
vn 0.000000 0.000000 1.000000
vn 0.000000 0.000000 1.000000
vn 0.000000 1.000000 0.000000
vn 0.000000 1.000000 0.000000
vn 0.000000 1.000000 0.000000
vn 0.000000 1.000000 0.000000
vn 0.000000 0.000000 -1.000000
vn 0.000000 0.000000 -1.000000
vn 0.000000 0.000000 -1.000000
vn 0.000000 0.000000 -1.000000
vn 0.000000 -1.000000 0.000000
vn 0.000000 -1.000000 0.000000
vn 0.000000 -1.000000 0.000000
vn 0.000000 -1.000000 0.000000
vn 1.000000 0.000000 0.000000
vn 1.000000 0.000000 0.000000
vn 1.000000 0.000000 0.000000
vn 1.000000 0.000000 0.000000
vn -1.000000 0.000000 0.000000
vn -1.000000 0.000000 0.000000
vn -1.000000 0.000000 0.000000
vn -1.000000 0.000000 0.000000
f 1/1/1 2/2/2 4/3/3 3/4/4
f 3/4/5 4/3/6 6/5/7 5/6/8
f 5/6/9 6/5/10 8/7/11 7/8/12
f 7/8/13 8/7/14 2/9/15 1/10/16
f 2/2/17 8/11/18 6/12/19 4/3/20
f 7/13/21 1/1/22 3/4/23 5/14/24
