# This file uses centimeters as units for non-parametric coordinates.

v 89.572739 4.181047 -4.181047
v 89.572739 0.000000 -5.912894
v 89.572739 -4.181047 -4.181047
v 89.572739 -5.912894 0.000000
v 89.572739 -4.181047 4.181047
v 89.572739 0.000000 5.912894
v 89.572739 4.181048 4.181048
v 89.572739 5.912895 0.000000
v -89.572739 4.181047 -4.181047
v -89.572739 0.000000 -5.912894
v -89.572739 -4.181047 -4.181047
v -89.572739 -5.912894 0.000000
v -89.572739 -4.181047 4.181047
v -89.572739 0.000000 5.912894
v -89.572739 4.181048 4.181048
v -89.572739 5.912895 0.000000
vt 0.982088 0.669431
vt 0.982088 0.673799
vt 0.885854 0.673799
vt 0.885854 0.669431
vt 0.982088 0.678167
vt 0.885854 0.678167
vt 0.982088 0.682536
vt 0.885854 0.682536
vt 0.982088 0.686904
vt 0.885854 0.686904
vt 0.982088 0.691272
vt 0.885854 0.691272
vt 0.982088 0.695640
vt 0.885854 0.695640
vt 0.982088 0.700009
vt 0.885854 0.700009
vt 0.982088 0.704377
vt 0.885854 0.704377
vn 0.000000 0.707107 -0.707107
vn 0.000000 0.000000 -1.000000
vn 0.000000 0.000000 -1.000000
vn 0.000000 0.707107 -0.707107
vn 0.000000 0.000000 -1.000000
vn 0.000000 -0.707107 -0.707107
vn 0.000000 -0.707107 -0.707107
vn 0.000000 0.000000 -1.000000
vn 0.000000 -0.707107 -0.707107
vn 0.000000 -1.000000 0.000000
vn 0.000000 -1.000000 0.000000
vn 0.000000 -0.707107 -0.707107
vn 0.000000 -1.000000 0.000000
vn 0.000000 -0.707107 0.707107
vn 0.000000 -0.707107 0.707107
vn 0.000000 -1.000000 0.000000
vn 0.000000 -0.707107 0.707107
vn 0.000000 0.000000 1.000000
vn 0.000000 0.000000 1.000000
vn 0.000000 -0.707107 0.707107
vn 0.000000 0.000000 1.000000
vn 0.000000 0.707107 0.707107
vn 0.000000 0.707107 0.707107
vn 0.000000 0.000000 1.000000
vn 0.000000 0.707107 0.707107
vn 0.000000 1.000000 0.000000
vn 0.000000 1.000000 0.000000
vn 0.000000 0.707107 0.707107
vn 0.000000 1.000000 0.000000
vn 0.000000 0.707107 -0.707107
vn 0.000000 0.707107 -0.707107
vn 0.000000 1.000000 0.000000
f 1/1/1 2/2/2 10/3/3 9/4/4
f 2/2/5 3/5/6 11/6/7 10/3/8
f 3/5/9 4/7/10 12/8/11 11/6/12
f 4/7/13 5/9/14 13/10/15 12/8/16
f 5/9/17 6/11/18 14/12/19 13/10/20
f 6/11/21 7/13/22 15/14/23 14/12/24
f 7/13/25 8/15/26 16/16/27 15/14/28
f 8/15/29 1/17/30 9/18/31 16/16/32
