# This file uses meters as units for non-parametric coordinates.

v -86.883690 0.000000 21.983297
v 86.883705 0.000000 21.983297
v -86.883690 90.144836 21.983303
v 86.883705 90.144836 21.983303
v -86.883690 90.144836 0.000005
v 86.883705 90.144836 0.000005
v -86.883690 0.000000 0.000000
v 86.883705 0.000000 0.000000
v -74.459694 13.753530 21.983297
v 74.459686 13.753530 21.983297
v 74.459686 75.850876 21.983299
v -74.459694 75.850876 21.983299
v -74.459694 13.737073 1.367093
v 74.459686 13.737073 1.367093
v 74.459686 75.834412 1.367094
v -74.459694 75.834412 1.367094
vt 0.475365 0.900655
vt 0.495207 0.900655
vt 0.495207 0.895676
vt 0.475365 0.895676
vt 0.475365 0.895676
vt 0.475365 0.882548
vt 0.495207 0.882548
vt 0.495207 0.895676
vt 0.495207 0.895676
vt 0.475365 0.895676
vt 0.475365 0.900655
vt 0.495207 0.900655
vt 0.475365 0.895676
vt 0.495207 0.895676
vt 0.495207 0.900655
vt 0.479115 0.887350
vt 0.491457 0.887350
vt 0.491457 0.887350
vt 0.479115 0.887350
vt 0.491457 0.887350
vt 0.479115 0.893739
vt 0.491457 0.893739
vt 0.491457 0.893739
vt 0.479115 0.893739
vt 0.479115 0.893739
vt 0.491457 0.893739
vt 0.491457 0.893739
vt 0.479115 0.893739
vn 0.000000 1.000000 0.000000
vn 0.000000 1.000000 0.000000
vn 0.000000 1.000000 0.000000
vn 0.000000 1.000000 0.000000
vn 0.000000 0.000000 -1.000000
vn 0.000000 0.000000 -1.000000
vn 0.000000 0.000000 -1.000000
vn 0.000000 0.000000 -1.000000
vn 0.000000 -1.000000 0.000000
vn 0.000000 -1.000000 0.000000
vn 0.000000 -1.000000 0.000000
vn 0.000000 -1.000000 0.000000
vn 1.000000 0.000000 0.000000
vn 1.000000 0.000000 0.000000
vn 1.000000 0.000000 0.000000
vn 1.000000 0.000000 0.000000
vn -1.000000 0.000000 0.000000
vn -1.000000 0.000000 0.000000
vn -1.000000 0.000000 0.000000
vn -1.000000 0.000000 0.000000
vn -0.000000 -0.000000 1.000000
vn 0.000000 -0.000000 1.000000
vn 0.000000 -0.000000 1.000000
vn -0.000000 -0.000000 1.000000
vn 0.000000 -0.000000 1.000000
vn 0.000000 -0.000000 1.000000
vn -0.000000 -0.000000 1.000000
vn -0.000000 -0.000000 1.000000
vn 0.000000 1.000000 -0.000798
vn 0.000000 1.000000 -0.000798
vn 0.000000 1.000000 -0.000798
vn 0.000000 1.000000 -0.000798
vn -1.000000 0.000000 0.000000
vn -1.000000 0.000000 0.000000
vn -1.000000 0.000000 0.000000
vn -1.000000 0.000000 0.000000
vn 0.000000 -1.000000 0.000799
vn 0.000000 -1.000000 0.000799
vn 0.000000 -1.000000 0.000799
vn 0.000000 -1.000000 0.000799
vn 1.000000 0.000000 0.000000
vn 1.000000 0.000000 0.000000
vn 1.000000 0.000000 0.000000
vn 1.000000 0.000000 0.000000
f 3/1/1 4/2/2 6/3/3 5/4/4
f 5/5/5 6/6/6 8/7/7 7/8/8
f 7/9/9 8/10/10 2/11/11 1/12/12
f 2/11/13 8/13/14 6/14/15 4/2/16
f 7/8/17 1/15/18 3/1/19 5/5/20
f 1/12/21 2/11/22 10/16/23 9/17/24
f 2/11/22 4/2/25 11/18/26 10/16/23
f 4/2/25 3/1/27 12/19/28 11/18/26
f 3/1/27 1/15/21 9/20/24 12/19/28
f 9/17/29 10/16/30 14/21/31 13/22/32
f 10/16/33 11/18/34 15/23/35 14/24/36
f 11/18/37 12/19/38 16/25/39 15/26/40
f 12/19/41 9/20/42 13/27/43 16/28/44
