# This file uses meters as units for non-parametric coordinates.

v -35.221756 1.473236 0.845787
v 35.221756 1.473236 0.845787
v 35.221756 51.916775 0.845787
v -35.221756 51.916775 0.845787
v 24.791405 11.903595 0.845787
v -24.791405 11.903595 0.845787
v 24.791405 41.486416 0.845787
v -24.791405 41.486416 0.845787
vt 0.493895 0.951522
vt 0.474825 0.951522
vt 0.477756 0.962345
vt 0.490964 0.962345
vt 0.493895 0.951522
vt 0.490964 0.962345
vt 0.474825 0.951522
vt 0.477756 0.962345
vt 0.474825 0.951522
vt 0.477756 0.962345
vn 0.000000 0.000000 1.000000
vn 0.000000 0.000000 1.000000
vn 0.000000 0.000000 1.000000
vn 0.000000 0.000000 1.000000
vn -0.000000 0.000000 1.000000
vn -0.000000 0.000000 1.000000
vn -0.000000 0.000000 1.000000
vn -0.000000 0.000000 1.000000
vn 0.000000 0.000000 1.000000
vn 0.000000 0.000000 1.000000
vn 0.000000 0.000000 1.000000
vn 0.000000 0.000000 1.000000
vn 0.000000 0.000000 1.000000
vn 0.000000 0.000000 1.000000
vn 0.000000 0.000000 1.000000
vn 0.000000 0.000000 1.000000
f 1/1/1 2/2/2 5/3/3 6/4/4
f 2/2/5 3/5/6 7/6/7 5/3/8
f 3/5/9 4/7/10 8/8/11 7/6/12
f 4/9/13 1/1/14 6/4/15 8/10/16
