# This file uses meters as units for non-parametric coordinates.

v -1.946335 0.064148 -0.562018
v 1.946335 0.064148 -0.562018
v -1.946335 18.508465 -6.016997
v 1.946335 18.508465 -6.016997
v -1.946335 3.722085 -14.843056
v 1.946335 3.722085 -14.843056
v -1.946335 0.064148 -14.843054
v 1.946335 0.064148 -14.843054
vt 0.445103 0.921639
vt 0.442224 0.920879
vt 0.453696 0.932864
vt 0.452720 0.929597
vt 0.459721 0.932864
vt 0.456721 0.929597
vt 0.459675 0.912419
vt 0.456690 0.916022
vn 0.000000 0.512540 -0.858663
vn 0.000000 0.512540 -0.858663
vn 0.000000 0.512540 -0.858663
vn 0.000000 0.512540 -0.858663
vn 0.000000 -0.000001 -1.000000
vn 0.000000 -0.000001 -1.000000
vn 0.000000 -0.000001 -1.000000
vn 0.000000 -0.000001 -1.000000
vn 0.000000 -1.000000 0.000000
vn 0.000000 -1.000000 0.000000
vn 0.000000 -1.000000 0.000000
vn 0.000000 -1.000000 0.000000
vn 1.000000 0.000000 0.000000
vn 1.000000 0.000000 0.000000
vn 1.000000 0.000000 0.000000
vn 1.000000 0.000000 0.000000
vn -1.000000 -0.000000 0.000000
vn -1.000000 -0.000000 0.000000
vn -1.000000 -0.000000 0.000000
vn -1.000000 -0.000000 0.000000
f 3/1/1 4/2/2 6/3/3 5/4/4
f 5/4/5 6/3/6 8/5/7 7/6/8
f 7/6/9 8/5/10 2/7/11 1/8/12
f 2/7/13 8/5/14 6/3/15 4/2/16
f 7/6/17 1/8/18 3/1/19 5/4/20
