# This file uses meters as units for non-parametric coordinates.

v -26.856256 -0.161252 3.571580
v 26.856256 -0.161252 3.571580
v -26.856256 53.551250 3.571580
v 26.856256 53.551250 3.571580
v -26.856256 53.551250 -0.000002
v 26.856256 53.551250 -0.000002
v -26.856256 -0.161252 -0.000002
v 26.856256 -0.161252 -0.000002
v -25.221756 1.473236 3.571580
v 25.221756 1.473236 3.571580
v 25.221756 51.916775 3.571580
v -25.221756 51.916775 3.571580
v -25.221756 1.473236 0.845784
v 25.221756 1.473236 0.845784
v 25.221756 51.916775 0.845784
v -25.221756 51.916775 0.845784
vt 0.608703 0.738503
vt 0.512463 0.738929
vt 0.512099 0.738503
vt 0.608676 0.738290
vt 0.512814 0.643692
vt 0.609598 0.643478
vt 0.512071 0.738290
vt 0.608703 0.738503
vt 0.608965 0.738929
vt 0.512333 0.738716
vt 0.608834 0.738716
vt 0.598063 0.694434
vt 0.523425 0.694435
vt 0.523425 0.694435
vt 0.598063 0.694434
vt 0.598063 0.694434
vt 0.598063 0.659969
vt 0.523425 0.659969
vt 0.523425 0.659969
vt 0.598063 0.659969
vt 0.598063 0.659969
vn 0.000000 1.000000 0.000000
vn 0.000000 1.000000 0.000000
vn 0.000000 1.000000 0.000000
vn 0.000000 1.000000 0.000000
vn 0.000000 0.000000 -1.000000
vn 0.000000 0.000000 -1.000000
vn 0.000000 0.000000 -1.000000
vn 0.000000 0.000000 -1.000000
vn 0.000000 -1.000000 0.000000
vn 0.000000 -1.000000 0.000000
vn 0.000000 -1.000000 0.000000
vn 0.000000 -1.000000 0.000000
vn 1.000000 0.000000 0.000000
vn 1.000000 0.000000 0.000000
vn 1.000000 0.000000 0.000000
vn 1.000000 0.000000 0.000000
vn -1.000000 0.000000 0.000000
vn -1.000000 0.000000 0.000000
vn -1.000000 0.000000 0.000000
vn -1.000000 0.000000 0.000000
vn 0.000000 0.000000 1.000000
vn 0.000000 0.000000 1.000000
vn 0.000000 0.000000 1.000000
vn 0.000000 0.000000 1.000000
vn 0.000001 0.000000 1.000000
vn 0.000001 0.000000 1.000000
vn 0.000001 0.000000 1.000000
vn 0.000001 0.000000 1.000000
vn 0.000000 0.000000 1.000000
vn 0.000000 0.000000 1.000000
vn 0.000000 0.000000 1.000000
vn 0.000000 0.000000 1.000000
vn -0.000002 0.000000 1.000000
vn -0.000002 0.000000 1.000000
vn -0.000002 0.000000 1.000000
vn -0.000002 0.000000 1.000000
vn 0.000000 1.000000 0.000000
vn 0.000000 1.000000 0.000000
vn 0.000000 1.000000 0.000000
vn 0.000000 1.000000 0.000000
vn -1.000000 0.000000 0.000000
vn -1.000000 0.000000 0.000000
vn -1.000000 0.000000 0.000000
vn -1.000000 0.000000 0.000000
vn 0.000000 -1.000000 0.000000
vn 0.000000 -1.000000 0.000000
vn 0.000000 -1.000000 0.000000
vn 0.000000 -1.000000 0.000000
vn 1.000000 0.000000 0.000000
vn 1.000000 0.000000 0.000000
vn 1.000000 0.000000 0.000000
vn 1.000000 0.000000 0.000000
f 3/1/1 4/2/2 6/3/3 5/4/4
f 5/4/5 6/3/6 8/5/7 7/6/8
f 7/7/9 8/8/10 2/9/11 1/10/12
f 2/9/13 8/8/14 6/3/15 4/2/16
f 7/7/17 1/10/18 3/11/19 5/4/20
f 1/10/21 2/9/22 10/12/23 9/13/24
f 2/9/25 4/2/26 11/14/27 10/12/28
f 4/2/29 3/1/30 12/15/31 11/14/32
f 3/11/33 1/10/34 9/13/35 12/16/36
f 9/13/37 10/12/38 14/17/39 13/18/40
f 10/12/41 11/14/42 15/19/43 14/17/44
f 11/14/45 12/15/46 16/20/47 15/19/48
f 12/16/49 9/13/50 13/18/51 16/21/52
