# This file uses meters as units for non-parametric coordinates.

v 6.833164 0.177253 4.772627
v 31.736237 0.177253 4.772627
v 6.833164 30.515625 4.772619
v 31.736237 30.515625 4.772619
v 6.833164 30.515623 2.397583
v 31.736237 30.515623 2.397583
v 6.833164 0.177252 2.397591
v 31.736237 0.177252 2.397591
v 10.879168 4.223256 4.772627
v 27.690235 4.223256 4.772627
v 27.690235 26.469623 4.772620
v 10.879168 26.469623 4.772620
v 10.879168 4.223256 2.960020
v 27.690235 4.223256 2.960020
v 27.690235 26.469620 2.960014
v 10.879168 26.469620 2.960014
v 28.548573 30.515623 2.397583
v 28.548573 55.418696 2.397575
v -1.139842 30.515623 2.397583
v -1.139842 55.418696 2.397575
v -1.139842 30.515624 0.022547
v -1.139842 55.418698 0.022539
v 28.548573 30.515624 0.022547
v 28.548573 55.418698 0.022539
v 24.502567 34.561629 2.397582
v 24.502567 51.372694 2.397576
v 2.906162 51.372694 2.397576
v 2.906162 34.561629 2.397582
v 24.502567 34.561630 0.584975
v 24.502567 51.372695 0.584971
v 2.906162 51.372695 0.584971
v 2.906162 34.561630 0.584975
v 6.833165 -0.116065 2.397591
v 6.833165 30.515619 2.397583
v -31.736237 -0.116065 2.397591
v -31.736237 30.515619 2.397583
v -31.736237 -0.116066 0.022555
v -31.736237 30.515621 0.022546
v 6.833165 -0.116066 0.022555
v 6.833165 30.515621 0.022546
v -0.347593 6.248251 2.397589
v -0.347593 24.151299 2.397584
v -24.555481 24.151299 2.397584
v -24.555481 6.248251 2.397589
v -0.347593 6.248250 0.584983
v -0.347593 24.151300 0.584978
v -24.555481 24.151300 0.584978
v -24.555481 6.248250 0.584983
v -26.042915 30.515623 2.397583
v -1.139840 30.515623 2.397583
v -26.042915 61.248039 2.397574
v -1.139840 61.248039 2.397574
v -26.042915 61.248040 0.022539
v -1.139840 61.248040 0.022539
v -26.042915 30.515624 0.022547
v -1.139840 30.515624 0.022547
v -21.996910 34.561629 2.397582
v -5.185843 34.561629 2.397582
v -5.185843 57.202040 2.397575
v -21.996910 57.202040 2.397575
v -21.996910 34.561630 0.584975
v -5.185843 34.561630 0.584975
v -5.185843 57.202041 0.584969
v -21.996910 57.202041 0.584969
vt 0.461740 0.870098
vt 0.441518 0.870183
vt 0.441441 0.870098
vt 0.461734 0.870056
vt 0.441591 0.851213
vt 0.461928 0.851170
vt 0.441435 0.870056
vt 0.461740 0.870098
vt 0.461795 0.870183
vt 0.441490 0.870141
vt 0.461768 0.870141
vt 0.459504 0.861320
vt 0.443821 0.861320
vt 0.443821 0.861320
vt 0.459504 0.861320
vt 0.459504 0.861320
vt 0.459504 0.854455
vt 0.443821 0.854455
vt 0.443821 0.854455
vt 0.459504 0.854455
vt 0.459504 0.854455
vt 0.461740 0.870098
vt 0.441518 0.870183
vt 0.441441 0.870098
vt 0.461734 0.870056
vt 0.441591 0.851213
vt 0.461928 0.851170
vt 0.441435 0.870056
vt 0.461740 0.870098
vt 0.461795 0.870183
vt 0.441490 0.870141
vt 0.461768 0.870141
vt 0.459504 0.861320
vt 0.443821 0.861320
vt 0.443821 0.861320
vt 0.459504 0.861320
vt 0.459504 0.861320
vt 0.459504 0.854455
vt 0.443821 0.854455
vt 0.443821 0.854455
vt 0.459504 0.854455
vt 0.459504 0.854455
vt 0.461740 0.870098
vt 0.441518 0.870183
vt 0.441441 0.870098
vt 0.461734 0.870056
vt 0.441591 0.851213
vt 0.461928 0.851170
vt 0.441435 0.870056
vt 0.461740 0.870098
vt 0.461795 0.870183
vt 0.441490 0.870141
vt 0.461768 0.870141
vt 0.459504 0.861320
vt 0.443821 0.861320
vt 0.443821 0.861320
vt 0.459504 0.861320
vt 0.459504 0.861320
vt 0.459504 0.854455
vt 0.443821 0.854455
vt 0.443821 0.854455
vt 0.459504 0.854455
vt 0.459504 0.854455
vt 0.461740 0.870098
vt 0.441518 0.870183
vt 0.441441 0.870098
vt 0.461734 0.870056
vt 0.441591 0.851213
vt 0.461928 0.851170
vt 0.441435 0.870056
vt 0.461740 0.870098
vt 0.461795 0.870183
vt 0.441490 0.870141
vt 0.461768 0.870141
vt 0.459504 0.861320
vt 0.443821 0.861320
vt 0.443821 0.861320
vt 0.459504 0.861320
vt 0.459504 0.861320
vt 0.459504 0.854455
vt 0.443821 0.854455
vt 0.443821 0.854455
vt 0.459504 0.854455
vt 0.459504 0.854455
vn 0.000000 1.000000 -0.000001
vn 0.000000 1.000000 -0.000001
vn 0.000000 1.000000 -0.000001
vn 0.000000 1.000000 -0.000001
vn 0.000000 -0.000000 -1.000000
vn 0.000000 -0.000000 -1.000000
vn 0.000000 -0.000000 -1.000000
vn 0.000000 -0.000000 -1.000000
vn 0.000000 -1.000000 0.000000
vn 0.000000 -1.000000 0.000000
vn 0.000000 -1.000000 0.000000
vn 0.000000 -1.000000 0.000000
vn 1.000000 -0.000000 -0.000000
vn 1.000000 -0.000000 -0.000000
vn 1.000000 -0.000000 -0.000000
vn 1.000000 -0.000000 -0.000000
vn -1.000000 0.000000 0.000000
vn -1.000000 0.000000 0.000000
vn -1.000000 0.000000 0.000000
vn -1.000000 0.000000 0.000000
vn 0.000000 0.000000 1.000000
vn 0.000000 0.000000 1.000000
vn 0.000000 0.000000 1.000000
vn 0.000000 0.000000 1.000000
vn -0.000000 0.000000 1.000000
vn -0.000000 0.000000 1.000000
vn -0.000000 0.000000 1.000000
vn -0.000000 0.000000 1.000000
vn 0.000000 0.000000 1.000000
vn 0.000000 0.000000 1.000000
vn 0.000000 0.000000 1.000000
vn 0.000000 0.000000 1.000000
vn 0.000000 0.000000 1.000000
vn 0.000000 0.000000 1.000000
vn 0.000000 0.000000 1.000000
vn 0.000000 0.000000 1.000000
vn 0.000000 1.000000 -0.000000
vn 0.000000 1.000000 -0.000000
vn 0.000000 1.000000 -0.000000
vn 0.000000 1.000000 -0.000000
vn -1.000000 -0.000000 -0.000000
vn -1.000000 -0.000000 -0.000000
vn -1.000000 -0.000000 -0.000000
vn -1.000000 -0.000000 -0.000000
vn 0.000000 -1.000000 0.000001
vn 0.000000 -1.000000 0.000001
vn 0.000000 -1.000000 0.000001
vn 0.000000 -1.000000 0.000001
vn 1.000000 0.000000 0.000000
vn 1.000000 0.000000 0.000000
vn 1.000000 0.000000 0.000000
vn 1.000000 0.000000 0.000000
vn -1.000000 -0.000000 -0.000000
vn -1.000000 -0.000000 -0.000000
vn -1.000000 -0.000000 -0.000000
vn -1.000000 -0.000000 -0.000000
vn 0.000000 -0.000000 -1.000000
vn 0.000000 -0.000000 -1.000000
vn 0.000000 -0.000000 -1.000000
vn 0.000000 -0.000000 -1.000000
vn 1.000000 0.000000 0.000000
vn 1.000000 0.000000 0.000000
vn 1.000000 0.000000 0.000000
vn 1.000000 0.000000 0.000000
vn 0.000000 1.000000 -0.000000
vn 0.000000 1.000000 -0.000000
vn 0.000000 1.000000 -0.000000
vn 0.000000 1.000000 -0.000000
vn 0.000000 -1.000000 -0.000001
vn 0.000000 -1.000000 -0.000001
vn 0.000000 -1.000000 -0.000001
vn 0.000000 -1.000000 -0.000001
vn 0.000000 0.000000 1.000000
vn 0.000000 0.000000 1.000000
vn 0.000000 0.000000 1.000000
vn 0.000000 0.000000 1.000000
vn 0.000000 0.000000 1.000000
vn 0.000000 0.000000 1.000000
vn 0.000000 0.000000 1.000000
vn 0.000000 0.000000 1.000000
vn -0.000000 0.000000 1.000000
vn -0.000000 0.000000 1.000000
vn -0.000000 0.000000 1.000000
vn -0.000000 0.000000 1.000000
vn 0.000000 0.000000 1.000000
vn 0.000000 0.000000 1.000000
vn 0.000000 0.000000 1.000000
vn 0.000000 0.000000 1.000000
vn -1.000000 0.000000 0.000000
vn -1.000000 0.000000 0.000000
vn -1.000000 0.000000 0.000000
vn -1.000000 0.000000 0.000000
vn 0.000000 -1.000000 0.000002
vn 0.000000 -1.000000 0.000002
vn 0.000000 -1.000000 0.000002
vn 0.000000 -1.000000 0.000002
vn 1.000000 -0.000000 -0.000000
vn 1.000000 -0.000000 -0.000000
vn 1.000000 -0.000000 -0.000000
vn 1.000000 -0.000000 -0.000000
vn 0.000000 1.000000 0.000001
vn 0.000000 1.000000 0.000001
vn 0.000000 1.000000 0.000001
vn 0.000000 1.000000 0.000001
vn -1.000000 -0.000000 -0.000000
vn -1.000000 -0.000000 -0.000000
vn -1.000000 -0.000000 -0.000000
vn -1.000000 -0.000000 -0.000000
vn 0.000000 -0.000000 -1.000000
vn 0.000000 -0.000000 -1.000000
vn 0.000000 -0.000000 -1.000000
vn 0.000000 -0.000000 -1.000000
vn 1.000000 -0.000000 -0.000000
vn 1.000000 -0.000000 -0.000000
vn 1.000000 -0.000000 -0.000000
vn 1.000000 -0.000000 -0.000000
vn 0.000000 1.000000 0.000002
vn 0.000000 1.000000 0.000002
vn 0.000000 1.000000 0.000002
vn 0.000000 1.000000 0.000002
vn 0.000000 -1.000000 0.000000
vn 0.000000 -1.000000 0.000000
vn 0.000000 -1.000000 0.000000
vn 0.000000 -1.000000 0.000000
vn 0.000000 0.000000 1.000000
vn 0.000000 0.000000 1.000000
vn 0.000000 0.000000 1.000000
vn 0.000000 0.000000 1.000000
vn 0.000000 0.000000 1.000000
vn 0.000000 0.000000 1.000000
vn 0.000000 0.000000 1.000000
vn 0.000000 0.000000 1.000000
vn -0.000000 0.000000 1.000000
vn -0.000000 0.000000 1.000000
vn -0.000000 0.000000 1.000000
vn -0.000000 0.000000 1.000000
vn 0.000000 0.000000 1.000000
vn 0.000000 0.000000 1.000000
vn 0.000000 0.000000 1.000000
vn 0.000000 0.000000 1.000000
vn -1.000000 -0.000000 -0.000000
vn -1.000000 -0.000000 -0.000000
vn -1.000000 -0.000000 -0.000000
vn -1.000000 -0.000000 -0.000000
vn 0.000000 -1.000000 -0.000002
vn 0.000000 -1.000000 -0.000002
vn 0.000000 -1.000000 -0.000002
vn 0.000000 -1.000000 -0.000002
vn 1.000000 0.000000 0.000000
vn 1.000000 0.000000 0.000000
vn 1.000000 0.000000 0.000000
vn 1.000000 0.000000 0.000000
vn 0.000000 1.000000 -0.000000
vn 0.000000 1.000000 -0.000000
vn 0.000000 1.000000 -0.000000
vn 0.000000 1.000000 -0.000000
vn 0.000000 1.000000 -0.000000
vn 0.000000 1.000000 -0.000000
vn 0.000000 1.000000 -0.000000
vn 0.000000 1.000000 -0.000000
vn 0.000000 -0.000000 -1.000000
vn 0.000000 -0.000000 -1.000000
vn 0.000000 -0.000000 -1.000000
vn 0.000000 -0.000000 -1.000000
vn 0.000000 -1.000000 -0.000000
vn 0.000000 -1.000000 -0.000000
vn 0.000000 -1.000000 -0.000000
vn 0.000000 -1.000000 -0.000000
vn 1.000000 0.000000 0.000000
vn 1.000000 0.000000 0.000000
vn 1.000000 0.000000 0.000000
vn 1.000000 0.000000 0.000000
vn -1.000000 0.000000 0.000000
vn -1.000000 0.000000 0.000000
vn -1.000000 0.000000 0.000000
vn -1.000000 0.000000 0.000000
vn 0.000000 0.000000 1.000000
vn 0.000000 0.000000 1.000000
vn 0.000000 0.000000 1.000000
vn 0.000000 0.000000 1.000000
vn -0.000000 0.000000 1.000000
vn -0.000000 0.000000 1.000000
vn -0.000000 0.000000 1.000000
vn -0.000000 0.000000 1.000000
vn 0.000000 0.000000 1.000000
vn 0.000000 0.000000 1.000000
vn 0.000000 0.000000 1.000000
vn 0.000000 0.000000 1.000000
vn 0.000000 0.000000 1.000000
vn 0.000000 0.000000 1.000000
vn 0.000000 0.000000 1.000000
vn 0.000000 0.000000 1.000000
vn 0.000000 1.000000 0.000000
vn 0.000000 1.000000 0.000000
vn 0.000000 1.000000 0.000000
vn 0.000000 1.000000 0.000000
vn -1.000000 -0.000000 -0.000000
vn -1.000000 -0.000000 -0.000000
vn -1.000000 -0.000000 -0.000000
vn -1.000000 -0.000000 -0.000000
vn 0.000000 -1.000000 -0.000000
vn 0.000000 -1.000000 -0.000000
vn 0.000000 -1.000000 -0.000000
vn 0.000000 -1.000000 -0.000000
vn 1.000000 0.000000 0.000000
vn 1.000000 0.000000 0.000000
vn 1.000000 0.000000 0.000000
vn 1.000000 0.000000 0.000000
f 3/1/1 4/2/2 6/3/3 5/4/4
f 5/4/5 6/3/6 8/5/7 7/6/8
f 7/7/9 8/8/10 2/9/11 1/10/12
f 2/9/13 8/8/14 6/3/15 4/2/16
f 7/7/17 1/10/18 3/11/19 5/4/20
f 1/10/21 2/9/22 10/12/23 9/13/24
f 2/9/25 4/2/26 11/14/27 10/12/28
f 4/2/29 3/1/30 12/15/31 11/14/32
f 3/11/33 1/10/34 9/13/35 12/16/36
f 9/13/37 10/12/38 14/17/39 13/18/40
f 10/12/41 11/14/42 15/19/43 14/17/44
f 11/14/45 12/15/46 16/20/47 15/19/48
f 12/16/49 9/13/50 13/18/51 16/21/52
f 19/22/53 20/23/54 22/24/55 21/25/56
f 21/25/57 22/24/58 24/26/59 23/27/60
f 23/28/61 24/29/62 18/30/63 17/31/64
f 18/30/65 24/29/66 22/24/67 20/23/68
f 23/28/69 17/31/70 19/32/71 21/25/72
f 17/31/73 18/30/74 26/33/75 25/34/76
f 18/30/77 20/23/78 27/35/79 26/33/80
f 20/23/81 19/22/82 28/36/83 27/35/84
f 19/32/85 17/31/86 25/34/87 28/37/88
f 25/34/89 26/33/90 30/38/91 29/39/92
f 26/33/93 27/35/94 31/40/95 30/38/96
f 27/35/97 28/36/98 32/41/99 31/40/100
f 28/37/101 25/34/102 29/39/103 32/42/104
f 35/43/105 36/44/106 38/45/107 37/46/108
f 37/46/109 38/45/110 40/47/111 39/48/112
f 39/49/113 40/50/114 34/51/115 33/52/116
f 34/51/117 40/50/118 38/45/119 36/44/120
f 39/49/121 33/52/122 35/53/123 37/46/124
f 33/52/125 34/51/126 42/54/127 41/55/128
f 34/51/129 36/44/130 43/56/131 42/54/132
f 36/44/133 35/43/134 44/57/135 43/56/136
f 35/53/137 33/52/138 41/55/139 44/58/140
f 41/55/141 42/54/142 46/59/143 45/60/144
f 42/54/145 43/56/146 47/61/147 46/59/148
f 43/56/149 44/57/150 48/62/151 47/61/152
f 44/58/153 41/55/154 45/60/155 48/63/156
f 51/64/157 52/65/158 54/66/159 53/67/160
f 53/67/161 54/66/162 56/68/163 55/69/164
f 55/70/165 56/71/166 50/72/167 49/73/168
f 50/72/169 56/71/170 54/66/171 52/65/172
f 55/70/173 49/73/174 51/74/175 53/67/176
f 49/73/177 50/72/178 58/75/179 57/76/180
f 50/72/181 52/65/182 59/77/183 58/75/184
f 52/65/185 51/64/186 60/78/187 59/77/188
f 51/74/189 49/73/190 57/76/191 60/79/192
f 57/76/193 58/75/194 62/80/195 61/81/196
f 58/75/197 59/77/198 63/82/199 62/80/200
f 59/77/201 60/78/202 64/83/203 63/82/204
f 60/79/205 57/76/206 61/81/207 64/84/208
