# This file uses meters as units for non-parametric coordinates.

v -1.946335 0.064148 -0.562018
v 1.946335 0.064148 -0.562018
v -1.946335 18.508465 -6.016997
v 1.946335 18.508465 -6.016997
v -1.946335 3.722085 -14.843056
v 1.946335 3.722085 -14.843056
v -1.946335 0.064148 -14.843054
v 1.946335 0.064148 -14.843054
vt 0.659308 0.687460
vt 0.648918 0.684590
vt 0.690317 0.729842
vt 0.686796 0.717507
vt 0.712061 0.729842
vt 0.701234 0.717507
vt 0.711895 0.652647
vt 0.701123 0.666251
vn 0.000000 0.512540 -0.858663
vn 0.000000 0.512540 -0.858663
vn 0.000000 0.512540 -0.858663
vn 0.000000 0.512540 -0.858663
vn 0.000000 -0.000001 -1.000000
vn 0.000000 -0.000001 -1.000000
vn 0.000000 -0.000001 -1.000000
vn 0.000000 -0.000001 -1.000000
vn 0.000000 -1.000000 0.000000
vn 0.000000 -1.000000 0.000000
vn 0.000000 -1.000000 0.000000
vn 0.000000 -1.000000 0.000000
vn 1.000000 0.000000 0.000000
vn 1.000000 0.000000 0.000000
vn 1.000000 0.000000 0.000000
vn 1.000000 0.000000 0.000000
vn -1.000000 -0.000000 0.000000
vn -1.000000 -0.000000 0.000000
vn -1.000000 -0.000000 0.000000
vn -1.000000 -0.000000 0.000000
f 3/1/1 4/2/2 6/3/3 5/4/4
f 5/4/5 6/3/6 8/5/7 7/6/8
f 7/6/9 8/5/10 2/7/11 1/8/12
f 2/7/13 8/5/14 6/3/15 4/2/16
f 7/6/17 1/8/18 3/1/19 5/4/20
