# This file uses meters as units for non-parametric coordinates.

v -1.946335 0.064148 -0.562018
v 1.946335 0.064148 -0.562018
v -1.946335 18.508465 -6.016997
v 1.946335 18.508465 -6.016997
v -1.946335 3.722085 -14.843056
v 1.946335 3.722085 -14.843056
v -1.946335 0.064148 -14.843054
v 1.946335 0.064148 -14.843054
vt 0.534308 0.094270
vt 0.523918 0.092938
vt 0.565317 0.113926
vt 0.561796 0.108205
vt 0.587061 0.113926
vt 0.576234 0.108205
vt 0.586895 0.078123
vt 0.576123 0.084433
vn 0.000000 0.512540 -0.858663
vn 0.000000 0.512540 -0.858663
vn 0.000000 0.512540 -0.858663
vn 0.000000 0.512540 -0.858663
vn 0.000000 -0.000001 -1.000000
vn 0.000000 -0.000001 -1.000000
vn 0.000000 -0.000001 -1.000000
vn 0.000000 -0.000001 -1.000000
vn 0.000000 -1.000000 0.000000
vn 0.000000 -1.000000 0.000000
vn 0.000000 -1.000000 0.000000
vn 0.000000 -1.000000 0.000000
vn 1.000000 0.000000 0.000000
vn 1.000000 0.000000 0.000000
vn 1.000000 0.000000 0.000000
vn 1.000000 0.000000 0.000000
vn -1.000000 -0.000000 0.000000
vn -1.000000 -0.000000 0.000000
vn -1.000000 -0.000000 0.000000
vn -1.000000 -0.000000 0.000000
f 3/1/1 4/2/2 6/3/3 5/4/4
f 5/4/5 6/3/6 8/5/7 7/6/8
f 7/6/9 8/5/10 2/7/11 1/8/12
f 2/7/13 8/5/14 6/3/15 4/2/16
f 7/6/17 1/8/18 3/1/19 5/4/20
