# This file uses centimeters as units for non-parametric coordinates.

v -4.409721 18.284798 0.345127
v 4.409721 18.284798 0.345127
v -4.409721 20.863884 -0.157093
v 4.409721 20.863884 -0.157093
v -5.437881 0.000000 -13.622190
v 5.437881 0.000000 -13.622190
v -5.437881 0.000000 -7.815092
v 5.437881 0.000000 -7.815092
vt 0.857657 0.767827
vt 0.857657 0.855182
vt 0.770302 0.855182
vt 0.770302 0.767827
vt 0.857657 0.855182
vt 0.857657 0.767827
vt 0.770302 0.855182
vt 0.770302 0.767827
vt 0.857657 0.767827
vt 0.857657 0.855182
vt 0.770302 0.855182
vt 0.857657 0.855182
vn 0.000000 0.547048 -0.837101
vn 0.000000 0.547048 -0.837101
vn 0.000000 0.547048 -0.837101
vn 0.000000 0.547048 -0.837101
vn 0.000000 -1.000000 0.000000
vn 0.000000 -1.000000 0.000000
vn 0.000000 -1.000000 0.000000
vn 0.000000 -1.000000 0.000000
vn 0.000000 -0.407541 0.913187
vn 0.000000 -0.407541 0.913187
vn 0.000000 -0.407541 0.913187
vn 0.000000 -0.407541 0.913187
vn 0.998936 0.042525 0.017863
vn 0.998936 0.042525 0.017863
vn 0.998936 0.042525 0.017863
vn 0.998936 0.042525 0.017863
vn -0.998936 0.042525 0.017863
vn -0.998936 0.042525 0.017863
vn -0.998936 0.042525 0.017863
vn -0.998936 0.042525 0.017863
f 3/1/1 4/2/2 6/3/3 5/4/4
f 5/4/5 6/3/6 8/5/7 7/6/8
f 7/7/9 8/8/10 2/9/11 1/10/12
f 2/9/13 8/8/14 6/3/15 4/2/16
f 7/11/17 1/12/18 3/1/19 5/4/20
