# This file uses meters as units for non-parametric coordinates.

v 13.129303 -132.438593 -7.580200
v 7.580200 -132.438593 -13.129303
v 0.000000 -132.438593 -15.160400
v -7.580200 -132.438593 -13.129303
v -13.129303 -132.438593 -7.580200
v -15.160400 -132.438593 0.000000
v -13.129303 -132.438593 7.580200
v -7.580200 -132.438593 13.129303
v 0.000000 -132.438593 15.160400
v 7.580200 -132.438593 13.129303
v 13.129303 -132.438593 7.580200
v 15.160400 -132.438593 0.000000
v 8.641792 -81.246462 -4.989342
v 4.989342 -81.246462 -8.641792
v 0.000000 -81.246462 -9.978683
v -4.989342 -81.246462 -8.641792
v -8.641792 -81.246462 -4.989342
v -9.978683 -81.246462 0.000000
v -8.641792 -81.246462 4.989342
v -4.989342 -81.246462 8.641792
v 0.000000 -81.246462 9.978683
v 4.989342 -81.246462 8.641792
v 8.641792 -81.246462 4.989342
v 9.978683 -81.246462 0.000000
v 11.621193 -132.614863 -6.709495
v 6.709495 -132.614863 -11.621193
v 4.118637 -81.422732 -7.133682
v 7.133689 -81.422732 -4.118637
v 0.000000 -132.614863 -13.418990
v 0.000000 -81.422732 -8.237274
v -6.709495 -132.614863 -11.621193
v -4.118637 -81.422732 -7.133682
v -11.621193 -132.614863 -6.709495
v -7.133682 -81.422732 -4.118637
v -13.418990 -132.614863 -0.000000
v -8.237274 -81.422732 -0.000000
v -11.621193 -132.614863 6.709495
v -7.133689 -81.422732 4.118637
v -6.709495 -132.614863 11.621193
v -4.118637 -81.422732 7.133682
v 0.000000 -132.614863 13.418990
v 0.000000 -81.422732 8.237274
v 6.709495 -132.614863 11.621193
v 4.118637 -81.422732 7.133682
v 11.621193 -132.614863 6.709495
v 7.133682 -81.422732 4.118637
v 13.418990 -132.614863 0.000000
v 8.237274 -81.422732 0.000000
v 0.000000 -106.842528 12.569542
v -6.284771 -106.842528 10.885548
v -10.885548 -106.842528 6.284771
v -12.569542 -106.842528 0.000000
v -10.885548 -106.842528 -6.284771
v -6.284771 -106.842528 -10.885548
v 0.000000 -106.842528 -12.569542
v 6.284771 -106.842528 -10.885548
v 10.885548 -106.842528 -6.284771
v 12.569542 -106.842528 0.000000
v 10.885548 -106.842528 6.284771
v 6.284771 -106.842528 10.885548
v -5.414066 -107.018795 -9.377438
v -9.377438 -107.018795 -5.414066
v -10.828133 -107.018795 -0.000000
v -9.377441 -107.018795 5.414066
v -5.414066 -107.018795 9.377438
v 0.000000 -107.018795 10.828133
v 5.414066 -107.018795 9.377438
v 9.377438 -107.018795 5.414066
v 10.828133 -107.018795 0.000000
v 9.377441 -107.018795 -5.414066
v 5.414066 -107.018795 -9.377438
v 0.000000 -107.018795 -10.828133
vt 0.485608 0.319310
vt 0.485608 0.327509
vt 0.485608 0.335708
vt 0.485608 0.343906
vt 0.485608 0.352105
vt 0.485608 0.360304
vt 0.485608 0.368502
vt 0.485608 0.360249
vt 0.485608 0.351995
vt 0.485608 0.343742
vt 0.485608 0.335488
vt 0.485608 0.327235
vt 0.485608 0.318981
vt 0.485443 0.319310
vt 0.485443 0.327509
vt 0.485443 0.335708
vt 0.485443 0.343906
vt 0.485443 0.352105
vt 0.485443 0.360304
vt 0.485443 0.368502
vt 0.485443 0.360249
vt 0.485443 0.351995
vt 0.485443 0.343742
vt 0.485443 0.335488
vt 0.485443 0.327235
vt 0.485443 0.318981
vt 0.485608 0.319310
vt 0.485608 0.327509
vt 0.485443 0.327509
vt 0.485443 0.319310
vt 0.485608 0.335708
vt 0.485443 0.335708
vt 0.485608 0.343906
vt 0.485443 0.343906
vt 0.485608 0.352105
vt 0.485443 0.352105
vt 0.485608 0.360304
vt 0.485443 0.360304
vt 0.485608 0.368502
vt 0.485443 0.368502
vt 0.485608 0.360249
vt 0.485443 0.360249
vt 0.485608 0.351995
vt 0.485443 0.351995
vt 0.485608 0.343742
vt 0.485443 0.343742
vt 0.485608 0.335488
vt 0.485443 0.335488
vt 0.485608 0.327235
vt 0.485443 0.327235
vt 0.485608 0.318981
vt 0.485443 0.318981
vt 0.492865 0.319310
vt 0.492865 0.327509
vt 0.492684 0.327509
vt 0.492684 0.319310
vt 0.492865 0.335708
vt 0.492684 0.335708
vt 0.492865 0.343906
vt 0.492684 0.343906
vt 0.492865 0.352105
vt 0.492684 0.352105
vt 0.492865 0.360304
vt 0.492684 0.360304
vt 0.492865 0.368502
vt 0.492684 0.368502
vt 0.492865 0.360249
vt 0.492684 0.360249
vt 0.492865 0.351995
vt 0.492684 0.351995
vt 0.492865 0.343742
vt 0.492684 0.343742
vt 0.492865 0.335488
vt 0.492684 0.335488
vt 0.492865 0.327235
vt 0.492684 0.327235
vt 0.492865 0.318981
vt 0.492684 0.318981
vt 0.385350 0.351995
vt 0.385350 0.360249
vt 0.385350 0.368502
vt 0.385350 0.360304
vt 0.385350 0.352105
vt 0.385350 0.343906
vt 0.385350 0.335708
vt 0.385350 0.327509
vt 0.385350 0.318981
vt 0.385350 0.319310
vt 0.385350 0.327235
vt 0.385350 0.335488
vt 0.385350 0.343742
vt 0.385350 0.343906
vt 0.385350 0.352105
vt 0.385350 0.360304
vt 0.385350 0.368502
vt 0.385350 0.360249
vt 0.385350 0.351995
vt 0.385350 0.343742
vt 0.385350 0.335488
vt 0.385350 0.327235
vt 0.385350 0.319310
vt 0.385350 0.318981
vt 0.385350 0.327509
vt 0.385350 0.335708
vn -0.861623 -0.100706 0.497458
vn -0.861623 -0.100706 0.497458
vn -0.497458 -0.100706 0.861623
vn -0.497458 -0.100706 0.861623
vn -0.000000 -0.100706 0.994916
vn 0.000000 -0.100706 0.994916
vn 0.497458 -0.100707 0.861623
vn 0.497458 -0.100707 0.861623
vn 0.861623 -0.100707 0.497458
vn 0.861623 -0.100707 0.497458
vn 0.994916 -0.100706 0.000000
vn 0.994916 -0.100706 0.000000
vn 0.861623 -0.100706 -0.497458
vn 0.861623 -0.100706 -0.497458
vn 0.497458 -0.100706 -0.861623
vn 0.497458 -0.100706 -0.861623
vn 0.000000 -0.100706 -0.994916
vn 0.000000 -0.100706 -0.994916
vn -0.497458 -0.100707 -0.861623
vn -0.497458 -0.100707 -0.861623
vn -0.861623 -0.100707 -0.497458
vn -0.861623 -0.100707 -0.497458
vn -0.994916 -0.100706 -0.000000
vn -0.994916 -0.100706 -0.000000
vn 0.861623 0.100707 -0.497458
vn 0.497458 0.100707 -0.861623
vn 0.497458 0.100707 -0.861623
vn 0.861623 0.100707 -0.497458
vn 0.000000 0.100706 -0.994916
vn -0.000000 0.100706 -0.994916
vn -0.497458 0.100707 -0.861623
vn -0.497458 0.100707 -0.861623
vn -0.861623 0.100707 -0.497458
vn -0.861623 0.100707 -0.497458
vn -0.994916 0.100706 0.000000
vn -0.994916 0.100706 0.000000
vn -0.861623 0.100707 0.497458
vn -0.861623 0.100707 0.497458
vn -0.497458 0.100707 0.861623
vn -0.497458 0.100707 0.861623
vn 0.000000 0.100706 0.994916
vn 0.000000 0.100706 0.994916
vn 0.497458 0.100707 0.861623
vn 0.497458 0.100707 0.861623
vn 0.861623 0.100707 0.497458
vn 0.861623 0.100707 0.497458
vn 0.994916 0.100706 0.000000
vn 0.994916 0.100706 0.000000
vn 0.087215 -0.994916 -0.050354
vn 0.087215 -0.994916 -0.050354
vn 0.050354 -0.994916 -0.087216
vn 0.050354 -0.994916 -0.087216
vn -0.050354 0.994916 0.087215
vn -0.050354 0.994916 0.087215
vn -0.087215 0.994916 0.050354
vn -0.087215 0.994916 0.050354
vn 0.000000 -0.994916 -0.100708
vn 0.000000 -0.994916 -0.100708
vn -0.000000 0.994916 0.100708
vn -0.000000 0.994916 0.100708
vn -0.050354 -0.994916 -0.087216
vn -0.050354 -0.994916 -0.087216
vn 0.050354 0.994916 0.087215
vn 0.050354 0.994916 0.087215
vn -0.087215 -0.994916 -0.050354
vn -0.087215 -0.994916 -0.050354
vn 0.087215 0.994916 0.050354
vn 0.087215 0.994916 0.050354
vn -0.100708 -0.994916 -0.000000
vn -0.100708 -0.994916 0.000000
vn 0.100708 0.994916 0.000000
vn 0.100708 0.994916 0.000000
vn -0.087215 -0.994916 0.050354
vn -0.087215 -0.994916 0.050354
vn 0.087215 0.994916 -0.050354
vn 0.087215 0.994916 -0.050354
vn -0.050354 -0.994916 0.087216
vn -0.050354 -0.994916 0.087216
vn 0.050354 0.994916 -0.087215
vn 0.050354 0.994916 -0.087215
vn 0.000000 -0.994916 0.100708
vn 0.000000 -0.994916 0.100708
vn 0.000000 0.994916 -0.100708
vn 0.000000 0.994916 -0.100708
vn 0.050354 -0.994916 0.087216
vn 0.050354 -0.994916 0.087216
vn -0.050354 0.994916 -0.087215
vn -0.050354 0.994916 -0.087215
vn 0.087215 -0.994916 0.050354
vn 0.087215 -0.994916 0.050354
vn -0.087215 0.994916 -0.050354
vn -0.087215 0.994916 -0.050354
vn 0.100708 -0.994916 0.000000
vn 0.100708 -0.994916 -0.000000
vn -0.100708 0.994916 -0.000000
vn -0.100708 0.994916 -0.000000
vn 0.000000 0.100706 0.994916
vn -0.497458 0.100707 0.861623
vn -0.861623 0.100707 0.497458
vn -0.994916 0.100706 0.000000
vn -0.861623 0.100707 -0.497458
vn -0.497458 0.100707 -0.861623
vn -0.000000 0.100706 -0.994916
vn 0.497458 0.100707 -0.861623
vn 0.861623 0.100707 -0.497458
vn 0.994916 0.100706 0.000000
vn 0.861623 0.100707 0.497458
vn 0.497458 0.100707 0.861623
vn 0.497458 -0.100707 0.861623
vn 0.861623 -0.100707 0.497458
vn 0.994916 -0.100706 0.000001
vn 0.861623 -0.100706 -0.497458
vn 0.497458 -0.100706 -0.861623
vn 0.000000 -0.100707 -0.994916
vn -0.497458 -0.100707 -0.861623
vn -0.861623 -0.100707 -0.497458
vn -0.994916 -0.100706 -0.000001
vn -0.861623 -0.100706 0.497458
vn -0.497458 -0.100706 0.861623
vn 0.000000 -0.100707 0.994916
f 25/53/1 70/101/2 71/103/3 26/54/4
f 26/54/4 71/103/3 72/104/5 29/57/6
f 29/57/6 72/104/5 61/92/7 31/59/8
f 31/59/8 61/92/7 62/93/9 33/61/10
f 33/61/10 62/93/9 63/94/11 35/63/12
f 35/63/12 63/94/11 64/95/13 37/65/14
f 37/65/14 64/95/13 65/96/15 39/67/16
f 39/67/16 65/96/15 66/97/17 41/69/18
f 41/69/18 66/97/17 67/98/19 43/71/20
f 43/71/20 67/98/19 68/99/21 45/73/22
f 45/73/22 68/99/21 69/100/23 47/75/24
f 47/75/24 69/100/23 70/102/2 25/77/1
f 1/27/25 2/28/26 56/86/27 57/88/28
f 2/28/26 3/31/29 55/85/30 56/86/27
f 3/31/29 4/33/31 54/84/32 55/85/30
f 4/33/31 5/35/33 53/83/34 54/84/32
f 5/35/33 6/37/35 52/82/36 53/83/34
f 6/37/35 7/39/37 51/81/38 52/82/36
f 7/39/37 8/41/39 50/80/40 51/81/38
f 8/41/39 9/43/41 49/79/42 50/80/40
f 9/43/41 10/45/43 60/91/44 49/79/42
f 10/45/43 11/47/45 59/90/46 60/91/44
f 11/47/45 12/49/47 58/89/48 59/90/46
f 12/49/47 1/51/25 57/87/28 58/89/48
f 1/1/49 25/53/50 26/54/51 2/2/52
f 14/15/53 27/55/54 28/56/55 13/14/56
f 2/2/52 26/54/51 29/57/57 3/3/58
f 15/16/59 30/58/60 27/55/54 14/15/53
f 3/3/58 29/57/57 31/59/61 4/4/62
f 16/17/63 32/60/64 30/58/60 15/16/59
f 4/4/62 31/59/61 33/61/65 5/5/66
f 17/18/67 34/62/68 32/60/64 16/17/63
f 5/5/66 33/61/65 35/63/69 6/6/70
f 18/19/71 36/64/72 34/62/68 17/18/67
f 6/6/70 35/63/69 37/65/73 7/7/74
f 19/20/75 38/66/76 36/64/72 18/19/71
f 7/7/74 37/65/73 39/67/77 8/8/78
f 20/21/79 40/68/80 38/66/76 19/20/75
f 8/8/78 39/67/77 41/69/81 9/9/82
f 21/22/83 42/70/84 40/68/80 20/21/79
f 9/9/82 41/69/81 43/71/85 10/10/86
f 22/23/87 44/72/88 42/70/84 21/22/83
f 10/10/86 43/71/85 45/73/89 11/11/90
f 23/24/91 46/74/92 44/72/88 22/23/87
f 11/11/90 45/73/89 47/75/93 12/12/94
f 24/25/95 48/76/96 46/74/92 23/24/91
f 12/12/94 47/75/93 25/77/50 1/13/49
f 13/26/56 28/78/55 48/76/96 24/25/95
f 50/80/40 49/79/42 21/44/97 20/42/98
f 51/81/38 50/80/40 20/42/98 19/40/99
f 52/82/36 51/81/38 19/40/99 18/38/100
f 53/83/34 52/82/36 18/38/100 17/36/101
f 54/84/32 53/83/34 17/36/101 16/34/102
f 55/85/30 54/84/32 16/34/102 15/32/103
f 56/86/27 55/85/30 15/32/103 14/29/104
f 57/88/28 56/86/27 14/29/104 13/30/105
f 58/89/48 57/87/28 13/52/105 24/50/106
f 59/90/46 58/89/48 24/50/106 23/48/107
f 60/91/44 59/90/46 23/48/107 22/46/108
f 49/79/42 60/91/44 22/46/108 21/44/97
f 61/92/7 32/60/109 34/62/110 62/93/9
f 63/94/11 62/93/9 34/62/110 36/64/111
f 64/95/13 63/94/11 36/64/111 38/66/112
f 65/96/15 64/95/13 38/66/112 40/68/113
f 66/97/17 65/96/15 40/68/113 42/70/114
f 67/98/19 66/97/17 42/70/114 44/72/115
f 68/99/21 67/98/19 44/72/115 46/74/116
f 69/100/23 68/99/21 46/74/116 48/76/117
f 70/102/2 69/100/23 48/76/117 28/78/118
f 71/103/3 70/101/2 28/56/118 27/55/119
f 72/104/5 71/103/3 27/55/119 30/58/120
f 61/92/7 72/104/5 30/58/120 32/60/109
