# This file uses meters as units for non-parametric coordinates.

v 11.667399 -79.050555 -6.736176
v 6.736176 -79.050555 -11.667399
v 0.000000 -79.050555 -13.472352
v -6.736176 -79.050555 -11.667399
v -11.667399 -79.050555 -6.736176
v -13.472352 -79.050555 0.000000
v -11.667399 -79.050555 6.736176
v -6.736176 -79.050555 11.667399
v 0.000000 -79.050555 13.472352
v 6.736176 -79.050555 11.667399
v 11.667399 -79.050555 6.736176
v 13.472352 -79.050555 0.000000
v 22.539684 -75.611010 -13.013292
v 13.013292 -75.611010 -22.539684
v 0.000000 -75.611010 -26.026585
v -13.013292 -75.611010 -22.539684
v -22.539684 -75.611010 -13.013292
v -26.026585 -75.611010 0.000000
v -22.539684 -75.611010 13.013292
v -13.013292 -75.611010 22.539684
v 0.000000 -75.611010 26.026585
v 13.013292 -75.611010 22.539684
v 22.539684 -75.611010 13.013292
v 26.026585 -75.611010 0.000000
v 31.875931 -71.281191 -18.403576
v 18.403576 -71.281191 -31.875931
v 0.000000 -71.281191 -36.807152
v -18.403576 -71.281191 -31.875931
v -31.875931 -71.281191 -18.403576
v -36.807152 -71.281191 0.000000
v -31.875931 -71.281191 18.403576
v -18.403576 -71.281191 31.875931
v 0.000000 -71.281191 36.807152
v 18.403576 -71.281191 31.875931
v 31.875931 -71.281191 18.403576
v 36.807152 -71.281191 0.000000
v 0.000000 -80.223712 0.000000
v 0.000000 -72.171565 31.471886
v -15.735943 -72.171565 27.255455
v -27.255455 -72.171565 15.735943
v -31.471886 -72.171565 0.000000
v -27.255455 -72.171565 -15.735943
v -15.735943 -72.171565 -27.255455
v 0.000000 -72.171565 -31.471886
v 15.735943 -72.171565 -27.255455
v 27.255455 -72.171565 -15.735943
v 31.471886 -72.171565 0.000000
v 27.255455 -72.171565 15.735943
v 15.735943 -72.171565 27.255455
v 11.430478 -78.073321 -6.599390
v 6.599390 -78.073321 -11.430478
v 12.719824 -74.734294 -22.031380
v 22.031380 -74.734294 -12.719824
v -0.000000 -78.073321 -13.198779
v -0.000000 -74.734294 -25.439646
v -6.599390 -78.073321 -11.430478
v -12.719824 -74.734294 -22.031380
v -11.430478 -78.073321 -6.599390
v -22.031380 -74.734294 -12.719824
v -13.198779 -78.073321 -0.000000
v -25.439646 -74.734294 0.000000
v -11.430478 -78.073321 6.599390
v -22.031380 -74.734294 12.719824
v -6.599390 -78.073321 11.430478
v -12.719824 -74.734294 22.031380
v 0.000000 -78.073321 13.198779
v 0.000000 -74.734294 25.439646
v 6.599390 -78.073321 11.430478
v 12.719824 -74.734294 22.031380
v 11.430478 -78.073321 6.599390
v 22.031380 -74.734294 12.719824
v 13.198779 -78.073321 0.000000
v 25.439646 -74.734294 -0.000000
v 15.506947 -71.243266 -26.858824
v 26.858824 -71.243266 -15.506947
v -0.000000 -71.243266 -31.013893
v -15.506947 -71.243266 -26.858824
v -26.858824 -71.243266 -15.506947
v -31.013893 -71.243266 0.000000
v -26.858824 -71.243266 15.506947
v -15.506947 -71.243266 26.858824
v 0.000000 -71.243266 31.013893
v 15.506947 -71.243266 26.858824
v 26.858824 -71.243266 15.506947
v 31.013893 -71.243266 -0.000000
v 0.000000 -79.220362 0.000000
v -0.000000 -70.298831 36.569931
v -18.284966 -70.298831 31.670492
v -31.670492 -70.298831 18.284966
v -36.569931 -70.298831 -0.000000
v -31.670492 -70.298831 -18.284966
v -18.284966 -70.298831 -31.670492
v 0.000000 -70.298831 -36.569931
v 18.284966 -70.298831 -31.670492
v 31.670492 -70.298831 -18.284966
v 36.569931 -70.298831 0.000000
v 31.670492 -70.298831 18.284966
v 18.284966 -70.298831 31.670492
vt 0.379592 0.305616
vt 0.379592 0.301598
vt 0.379592 0.297580
vt 0.379592 0.293562
vt 0.379592 0.289545
vt 0.379592 0.285527
vt 0.379592 0.281509
vt 0.379592 0.277491
vt 0.379592 0.273474
vt 0.379592 0.269456
vt 0.379592 0.265438
vt 0.379592 0.261420
vt 0.379592 0.257402
vt 0.433499 0.305616
vt 0.433499 0.301598
vt 0.433499 0.297580
vt 0.433499 0.293562
vt 0.433499 0.289545
vt 0.433499 0.285527
vt 0.433499 0.281509
vt 0.433499 0.277491
vt 0.433499 0.273474
vt 0.433499 0.269456
vt 0.433499 0.265438
vt 0.433499 0.261420
vt 0.433499 0.257402
vt 0.492897 0.305616
vt 0.492897 0.301598
vt 0.492897 0.297580
vt 0.492897 0.293562
vt 0.492897 0.289545
vt 0.492897 0.285527
vt 0.492897 0.281509
vt 0.492897 0.277491
vt 0.492897 0.273474
vt 0.492897 0.269456
vt 0.492897 0.265438
vt 0.492897 0.261420
vt 0.492897 0.257402
vt 0.387941 0.303607
vt 0.387941 0.299589
vt 0.387941 0.295571
vt 0.387941 0.291554
vt 0.387941 0.287536
vt 0.387941 0.283518
vt 0.387941 0.279500
vt 0.387941 0.275482
vt 0.387941 0.271465
vt 0.387941 0.267447
vt 0.387941 0.263429
vt 0.387941 0.259411
vt 0.463399 0.273473
vt 0.463399 0.277491
vt 0.463399 0.281509
vt 0.463399 0.285527
vt 0.463399 0.289545
vt 0.463399 0.293562
vt 0.463399 0.297580
vt 0.463399 0.301598
vt 0.463399 0.257402
vt 0.463399 0.305616
vt 0.463399 0.261420
vt 0.463399 0.265438
vt 0.463399 0.269456
vt 0.379592 0.305616
vt 0.379592 0.301598
vt 0.433499 0.301598
vt 0.433499 0.305616
vt 0.379592 0.297580
vt 0.433499 0.297580
vt 0.379592 0.293562
vt 0.433499 0.293562
vt 0.379592 0.289545
vt 0.433499 0.289545
vt 0.379592 0.285527
vt 0.433499 0.285527
vt 0.379592 0.281509
vt 0.433499 0.281509
vt 0.379592 0.277491
vt 0.433499 0.277491
vt 0.379592 0.273474
vt 0.433499 0.273474
vt 0.379592 0.269456
vt 0.433499 0.269456
vt 0.379592 0.265438
vt 0.433499 0.265438
vt 0.379592 0.261420
vt 0.433499 0.261420
vt 0.379592 0.257402
vt 0.433499 0.257402
vt 0.463399 0.301598
vt 0.463399 0.305616
vt 0.463399 0.297580
vt 0.463399 0.293562
vt 0.463399 0.289545
vt 0.463399 0.285527
vt 0.463399 0.281509
vt 0.463399 0.277491
vt 0.463399 0.273473
vt 0.463399 0.269456
vt 0.463399 0.265438
vt 0.463399 0.261420
vt 0.463399 0.257402
vt 0.387941 0.303607
vt 0.387941 0.299589
vt 0.387941 0.295571
vt 0.387941 0.291554
vt 0.387941 0.287536
vt 0.387941 0.283518
vt 0.387941 0.279500
vt 0.387941 0.275482
vt 0.387941 0.271465
vt 0.387941 0.267447
vt 0.387941 0.263429
vt 0.387941 0.259411
vt 0.492897 0.273474
vt 0.492897 0.277491
vt 0.492897 0.281509
vt 0.492897 0.285527
vt 0.492897 0.289545
vt 0.492897 0.293562
vt 0.492897 0.297580
vt 0.492897 0.301598
vt 0.492897 0.305616
vt 0.492897 0.257402
vt 0.492897 0.261420
vt 0.492897 0.265438
vt 0.492897 0.269456
vt 0.496147 0.273474
vt 0.496147 0.277491
vt 0.496147 0.281509
vt 0.496147 0.285527
vt 0.496147 0.289545
vt 0.496147 0.293562
vt 0.496147 0.297580
vt 0.496147 0.301598
vt 0.496147 0.305616
vt 0.496147 0.257402
vt 0.496147 0.261420
vt 0.496147 0.265438
vt 0.496147 0.269456
vn -0.197223 0.973723 0.113867
vn -0.349210 0.915097 0.201617
vn -0.201617 0.915097 0.349210
vn -0.113867 0.973723 0.197223
vn 0.000000 0.915097 0.403233
vn 0.000000 0.973723 0.227734
vn 0.201617 0.915097 0.349210
vn 0.113867 0.973723 0.197223
vn 0.349210 0.915097 0.201617
vn 0.197223 0.973723 0.113867
vn 0.403233 0.915097 -0.000000
vn 0.227734 0.973723 -0.000000
vn 0.349210 0.915097 -0.201617
vn 0.197223 0.973723 -0.113867
vn 0.201617 0.915097 -0.349210
vn 0.113867 0.973723 -0.197223
vn 0.000000 0.915097 -0.403233
vn 0.000000 0.973723 -0.227734
vn -0.201617 0.915097 -0.349210
vn -0.113867 0.973723 -0.197223
vn -0.349210 0.915097 -0.201617
vn -0.197223 0.973723 -0.113867
vn -0.403233 0.915097 0.000000
vn -0.227734 0.973723 0.000000
vn -0.281966 0.945512 0.162793
vn -0.162793 0.945512 0.281966
vn 0.000000 0.945512 0.325586
vn 0.162793 0.945512 0.281966
vn 0.281966 0.945512 0.162793
vn 0.325586 0.945512 -0.000000
vn 0.281966 0.945512 -0.162793
vn 0.162793 0.945512 -0.281966
vn 0.000000 0.945512 -0.325586
vn -0.162793 0.945512 -0.281966
vn -0.281966 0.945512 -0.162793
vn -0.325586 0.945512 0.000000
vn 0.000000 1.000000 0.000000
vn 0.083790 0.985859 -0.145128
vn 0.000000 0.985859 -0.167580
vn 0.145128 0.985859 -0.083790
vn 0.167580 0.985859 0.000000
vn 0.145128 0.985859 0.083790
vn 0.083790 0.985859 0.145128
vn 0.000000 0.985859 0.167580
vn -0.083790 0.985859 0.145128
vn -0.145128 0.985859 0.083790
vn -0.167580 0.985859 -0.000000
vn -0.145128 0.985859 -0.083790
vn -0.083790 0.985859 -0.145128
vn 0.198163 -0.973469 -0.114409
vn 0.114409 -0.973469 -0.198163
vn 0.201033 -0.915611 -0.348199
vn 0.348199 -0.915611 -0.201033
vn 0.000000 -0.973469 -0.228819
vn 0.000000 -0.915611 -0.402066
vn -0.114409 -0.973469 -0.198163
vn -0.201033 -0.915611 -0.348199
vn -0.198163 -0.973469 -0.114409
vn -0.348199 -0.915611 -0.201033
vn -0.228819 -0.973469 -0.000000
vn -0.402066 -0.915611 -0.000000
vn -0.198163 -0.973469 0.114409
vn -0.348199 -0.915611 0.201033
vn -0.114409 -0.973469 0.198163
vn -0.201033 -0.915611 0.348199
vn 0.000000 -0.973469 0.228819
vn 0.000000 -0.915611 0.402066
vn 0.114409 -0.973469 0.198163
vn 0.201033 -0.915611 0.348199
vn 0.198163 -0.973469 0.114409
vn 0.348199 -0.915611 0.201033
vn 0.228819 -0.973469 0.000000
vn 0.402066 -0.915611 0.000000
vn 0.164037 -0.944652 -0.284121
vn 0.284121 -0.944652 -0.164037
vn 0.000000 -0.944652 -0.328074
vn -0.164037 -0.944652 -0.284121
vn -0.284121 -0.944652 -0.164037
vn -0.328074 -0.944652 -0.000000
vn -0.284121 -0.944652 0.164037
vn -0.164037 -0.944652 0.284121
vn 0.000000 -0.944652 0.328074
vn 0.164037 -0.944652 0.284121
vn 0.284121 -0.944652 0.164037
vn 0.328074 -0.944652 0.000000
vn -0.000000 -1.000000 0.000000
vn 0.000000 -0.986359 0.164608
vn -0.082304 -0.986359 0.142555
vn -0.142555 -0.986359 0.082304
vn -0.164608 -0.986359 -0.000000
vn -0.142555 -0.986359 -0.082304
vn -0.082304 -0.986359 -0.142555
vn 0.000000 -0.986359 -0.164608
vn 0.082304 -0.986359 -0.142555
vn 0.142555 -0.986359 -0.082304
vn 0.164608 -0.986359 0.000000
vn 0.142555 -0.986359 0.082304
vn 0.082304 -0.986359 0.142555
vn 0.000000 0.234733 0.972060
vn 0.000000 0.234733 0.972060
vn -0.486030 0.234733 0.841829
vn -0.486030 0.234733 0.841829
vn -0.841829 0.234733 0.486030
vn -0.841829 0.234733 0.486030
vn -0.972060 0.234732 0.000000
vn -0.972060 0.234732 0.000000
vn -0.841829 0.234733 -0.486030
vn -0.841829 0.234733 -0.486030
vn -0.486030 0.234733 -0.841829
vn -0.486030 0.234733 -0.841829
vn 0.000000 0.234733 -0.972060
vn 0.000000 0.234733 -0.972060
vn 0.486030 0.234733 -0.841829
vn 0.486030 0.234733 -0.841829
vn 0.841829 0.234733 -0.486030
vn 0.841829 0.234733 -0.486030
vn 0.972060 0.234732 -0.000000
vn 0.972060 0.234732 -0.000000
vn 0.841829 0.234733 0.486030
vn 0.841829 0.234733 0.486030
vn 0.486030 0.234733 0.841829
vn 0.486030 0.234733 0.841829
f 50/1/1 53/14/2 52/15/3 51/2/4
f 51/2/4 52/15/3 55/16/5 54/3/6
f 54/3/6 55/16/5 57/17/7 56/4/8
f 56/4/8 57/17/7 59/18/9 58/5/10
f 58/5/10 59/18/9 61/19/11 60/6/12
f 60/6/12 61/19/11 63/20/13 62/7/14
f 62/7/14 63/20/13 65/21/15 64/8/16
f 64/8/16 65/21/15 67/22/17 66/9/18
f 66/9/18 67/22/17 69/23/19 68/10/20
f 68/10/20 69/23/19 71/24/21 70/11/22
f 70/11/22 71/24/21 73/25/23 72/12/24
f 72/12/24 73/25/23 53/26/2 50/13/1
f 53/14/2 75/61/25 74/59/26 52/15/3
f 52/15/3 74/59/26 76/58/27 55/16/5
f 55/16/5 76/58/27 77/57/28 57/17/7
f 57/17/7 77/57/28 78/56/29 59/18/9
f 59/18/9 78/56/29 79/55/30 61/19/11
f 61/19/11 79/55/30 80/54/31 63/20/13
f 63/20/13 80/54/31 81/53/32 65/21/15
f 65/21/15 81/53/32 82/52/33 67/22/17
f 67/22/17 82/52/33 83/64/34 69/23/19
f 69/23/19 83/64/34 84/63/35 71/24/21
f 71/24/21 84/63/35 85/62/36 73/25/23
f 73/25/23 85/62/36 75/60/25 53/26/2
f 51/2/4 86/40/37 50/1/1
f 54/3/6 86/41/37 51/2/4
f 56/4/8 86/42/37 54/3/6
f 58/5/10 86/43/37 56/4/8
f 60/6/12 86/44/37 58/5/10
f 62/7/14 86/45/37 60/6/12
f 64/8/16 86/46/37 62/7/14
f 66/9/18 86/47/37 64/8/16
f 68/10/20 86/48/37 66/9/18
f 70/11/22 86/49/37 68/10/20
f 72/12/24 86/50/37 70/11/22
f 50/13/1 86/51/37 72/12/24
f 81/53/32 88/130/38 87/129/39 82/52/33
f 80/54/31 89/131/40 88/130/38 81/53/32
f 79/55/30 90/132/41 89/131/40 80/54/31
f 78/56/29 91/133/42 90/132/41 79/55/30
f 77/57/28 92/134/43 91/133/42 78/56/29
f 76/58/27 93/135/44 92/134/43 77/57/28
f 74/59/26 94/136/45 93/135/44 76/58/27
f 75/61/25 95/137/46 94/136/45 74/59/26
f 85/62/36 96/139/47 95/138/46 75/60/25
f 84/63/35 97/140/48 96/139/47 85/62/36
f 83/64/34 98/141/49 97/140/48 84/63/35
f 82/52/33 87/129/39 98/141/49 83/64/34
f 1/65/50 2/66/51 14/67/52 13/68/53
f 2/66/51 3/69/54 15/70/55 14/67/52
f 3/69/54 4/71/56 16/72/57 15/70/55
f 4/71/56 5/73/58 17/74/59 16/72/57
f 5/73/58 6/75/60 18/76/61 17/74/59
f 6/75/60 7/77/62 19/78/63 18/76/61
f 7/77/62 8/79/64 20/80/65 19/78/63
f 8/79/64 9/81/66 21/82/67 20/80/65
f 9/81/66 10/83/68 22/84/69 21/82/67
f 10/83/68 11/85/70 23/86/71 22/84/69
f 11/85/70 12/87/72 24/88/73 23/86/71
f 12/87/72 1/89/50 13/90/53 24/88/73
f 13/68/53 14/67/52 45/91/74 46/92/75
f 14/67/52 15/70/55 44/93/76 45/91/74
f 15/70/55 16/72/57 43/94/77 44/93/76
f 16/72/57 17/74/59 42/95/78 43/94/77
f 17/74/59 18/76/61 41/96/79 42/95/78
f 18/76/61 19/78/63 40/97/80 41/96/79
f 19/78/63 20/80/65 39/98/81 40/97/80
f 20/80/65 21/82/67 38/99/82 39/98/81
f 21/82/67 22/84/69 49/100/83 38/99/82
f 22/84/69 23/86/71 48/101/84 49/100/83
f 23/86/71 24/88/73 47/102/85 48/101/84
f 24/88/73 13/90/53 46/103/75 47/102/85
f 2/66/51 1/65/50 37/104/86
f 3/69/54 2/66/51 37/105/86
f 4/71/56 3/69/54 37/106/86
f 5/73/58 4/71/56 37/107/86
f 6/75/60 5/73/58 37/108/86
f 7/77/62 6/75/60 37/109/86
f 8/79/64 7/77/62 37/110/86
f 9/81/66 8/79/64 37/111/86
f 10/83/68 9/81/66 37/112/86
f 11/85/70 10/83/68 37/113/86
f 12/87/72 11/85/70 37/114/86
f 1/89/50 12/87/72 37/115/86
f 39/98/81 38/99/82 33/116/87 32/117/88
f 40/97/80 39/98/81 32/117/88 31/118/89
f 41/96/79 40/97/80 31/118/89 30/119/90
f 42/95/78 41/96/79 30/119/90 29/120/91
f 43/94/77 42/95/78 29/120/91 28/121/92
f 44/93/76 43/94/77 28/121/92 27/122/93
f 45/91/74 44/93/76 27/122/93 26/123/94
f 46/92/75 45/91/74 26/123/94 25/124/95
f 47/102/85 46/103/75 25/125/95 36/126/96
f 48/101/84 47/102/85 36/126/96 35/127/97
f 49/100/83 48/101/84 35/127/97 34/128/98
f 38/99/82 49/100/83 34/128/98 33/116/87
f 33/35/99 87/129/100 88/130/101 32/34/102
f 32/34/102 88/130/101 89/131/103 31/33/104
f 31/33/104 89/131/103 90/132/105 30/32/106
f 30/32/106 90/132/105 91/133/107 29/31/108
f 29/31/108 91/133/107 92/134/109 28/30/110
f 28/30/110 92/134/109 93/135/111 27/29/112
f 27/29/112 93/135/111 94/136/113 26/28/114
f 26/28/114 94/136/113 95/137/115 25/27/116
f 25/39/116 95/138/115 96/139/117 36/38/118
f 36/38/118 96/139/117 97/140/119 35/37/120
f 35/37/120 97/140/119 98/141/121 34/36/122
f 34/36/122 98/141/121 87/129/100 33/35/99
