# This file uses meters as units for non-parametric coordinates.

v 13.656753 -142.187103 -7.884731
v 7.884731 -142.187103 -13.656753
v 0.000000 -142.187103 -15.769462
v -7.884731 -142.187103 -13.656753
v -13.656753 -142.187103 -7.884731
v -15.769462 -142.187103 0.000000
v -13.656753 -142.187103 7.884731
v -7.884731 -142.187103 13.656753
v 0.000000 -142.187103 15.769462
v 7.884731 -142.187103 13.656753
v 13.656753 -142.187103 7.884731
v 15.769462 -142.187103 0.000000
v 13.656753 -88.830825 -7.884731
v 7.884731 -88.830825 -13.656753
v 0.000000 -88.830825 -15.769462
v -7.884731 -88.830825 -13.656753
v -13.656753 -88.830825 -7.884731
v -15.769462 -88.830825 0.000000
v -13.656753 -88.830825 7.884731
v -7.884731 -88.830825 13.656753
v 0.000000 -88.830825 15.769462
v 7.884731 -88.830825 13.656753
v 13.656753 -88.830825 7.884731
v 15.769462 -88.830825 0.000000
v 11.785160 -142.187103 -6.804165
v 6.804165 -142.187103 -11.785160
v 6.804165 -88.830825 -11.785160
v 11.785160 -88.830825 -6.804165
v 0.000000 -142.187103 -13.608330
v 0.000000 -88.830825 -13.608330
v -6.804165 -142.187103 -11.785160
v -6.804165 -88.830825 -11.785160
v -11.785160 -142.187103 -6.804165
v -11.785160 -88.830825 -6.804165
v -13.608330 -142.187103 0.000000
v -13.608330 -88.830825 0.000000
v -11.785160 -142.187103 6.804165
v -11.785160 -88.830825 6.804165
v -6.804165 -142.187103 11.785160
v -6.804165 -88.830825 11.785160
v 0.000000 -142.187103 13.608330
v 0.000000 -88.830825 13.608330
v 6.804165 -142.187103 11.785160
v 6.804165 -88.830825 11.785160
v 11.785160 -142.187103 6.804165
v 11.785160 -88.830825 6.804165
v 13.608330 -142.187103 0.000000
v 13.608330 -88.830825 0.000000
v 7.884731 -115.508964 13.656753
v 0.000000 -115.508964 15.769462
v -7.884731 -115.508964 13.656753
v -13.656753 -115.508964 7.884731
v -15.769462 -115.508964 0.000000
v -13.656753 -115.508964 -7.884731
v -7.884731 -115.508964 -13.656753
v 0.000000 -115.508964 -15.769462
v 7.884731 -115.508964 -13.656753
v 13.656753 -115.508964 -7.884731
v 15.769462 -115.508964 0.000000
v 13.656753 -115.508964 7.884731
v -6.804165 -115.508964 -11.785160
v -11.785160 -115.508964 -6.804165
v -13.608330 -115.508964 0.000000
v -11.785160 -115.508964 6.804165
v -6.804165 -115.508964 11.785160
v 0.000000 -115.508964 13.608330
v 6.804165 -115.508964 11.785160
v 11.785160 -115.508964 6.804165
v 13.608330 -115.508964 0.000000
v 11.785160 -115.508964 -6.804165
v 6.804165 -115.508964 -11.785160
v 0.000000 -115.508964 -13.608330
vt 0.485615 0.306862
vt 0.485615 0.298419
vt 0.485615 0.289975
vt 0.485615 0.281531
vt 0.485615 0.273088
vt 0.485615 0.264644
vt 0.485615 0.256200
vt 0.485615 0.264776
vt 0.485615 0.273351
vt 0.485615 0.281927
vt 0.485615 0.290502
vt 0.485615 0.299078
vt 0.485615 0.307653
vt 0.486392 0.306862
vt 0.486392 0.298419
vt 0.486392 0.289975
vt 0.486392 0.281531
vt 0.486392 0.273088
vt 0.486392 0.264644
vt 0.486392 0.256200
vt 0.486392 0.264776
vt 0.486392 0.273351
vt 0.486392 0.281927
vt 0.486392 0.290502
vt 0.486392 0.299077
vt 0.486392 0.307653
vt 0.485615 0.306862
vt 0.485615 0.298419
vt 0.486392 0.298419
vt 0.486392 0.306862
vt 0.485615 0.289975
vt 0.486392 0.289975
vt 0.485615 0.281531
vt 0.486392 0.281531
vt 0.485615 0.273088
vt 0.486392 0.273088
vt 0.485615 0.264644
vt 0.486392 0.264644
vt 0.485615 0.256200
vt 0.486392 0.256200
vt 0.485615 0.264776
vt 0.486392 0.264776
vt 0.485615 0.273351
vt 0.486392 0.273351
vt 0.485615 0.281927
vt 0.486392 0.281927
vt 0.485615 0.290502
vt 0.486392 0.290502
vt 0.485615 0.299078
vt 0.486392 0.299077
vt 0.485615 0.307653
vt 0.486392 0.307653
vt 0.491763 0.306862
vt 0.491763 0.298419
vt 0.492610 0.298419
vt 0.492610 0.306862
vt 0.491763 0.289975
vt 0.492610 0.289975
vt 0.491763 0.281531
vt 0.492610 0.281531
vt 0.491763 0.273088
vt 0.492610 0.273088
vt 0.491763 0.264644
vt 0.492610 0.264644
vt 0.491763 0.256200
vt 0.492610 0.256200
vt 0.491763 0.264776
vt 0.492610 0.264776
vt 0.491763 0.273351
vt 0.492610 0.273351
vt 0.491763 0.281927
vt 0.492610 0.281927
vt 0.491763 0.290502
vt 0.492610 0.290502
vt 0.491763 0.299077
vt 0.492610 0.299077
vt 0.491763 0.307653
vt 0.492610 0.307653
vt 0.382621 0.281927
vt 0.382621 0.273351
vt 0.382621 0.264776
vt 0.382621 0.256200
vt 0.382621 0.264644
vt 0.382621 0.273088
vt 0.382621 0.281531
vt 0.382621 0.289975
vt 0.382621 0.298419
vt 0.382620 0.307653
vt 0.382620 0.306862
vt 0.382621 0.299078
vt 0.382621 0.290502
vt 0.382621 0.281531
vt 0.382621 0.273088
vt 0.382621 0.264644
vt 0.382621 0.256200
vt 0.382621 0.264776
vt 0.382621 0.273351
vt 0.382621 0.281927
vt 0.382621 0.290502
vt 0.382621 0.299078
vt 0.382620 0.306862
vt 0.382620 0.307653
vt 0.382621 0.298419
vt 0.382621 0.289975
vn -0.866025 0.000000 0.500000
vn -0.866025 0.000000 0.500000
vn -0.500000 0.000000 0.866025
vn -0.500000 0.000000 0.866025
vn 0.000000 0.000000 1.000000
vn 0.000000 0.000000 1.000000
vn 0.500000 0.000000 0.866025
vn 0.500000 0.000000 0.866025
vn 0.866025 0.000000 0.500000
vn 0.866025 0.000000 0.500000
vn 1.000000 0.000000 0.000000
vn 1.000000 0.000000 0.000000
vn 0.866025 0.000000 -0.500000
vn 0.866025 0.000000 -0.500000
vn 0.500000 0.000000 -0.866025
vn 0.500000 0.000000 -0.866025
vn 0.000000 0.000000 -1.000000
vn 0.000000 0.000000 -1.000000
vn -0.500000 0.000000 -0.866025
vn -0.500000 0.000000 -0.866025
vn -0.866025 0.000000 -0.500000
vn -0.866025 0.000000 -0.500000
vn -1.000000 0.000000 0.000000
vn -1.000000 0.000000 0.000000
vn 0.866025 0.000000 -0.500000
vn 0.500000 0.000000 -0.866025
vn 0.500000 0.000000 -0.866025
vn 0.866025 0.000000 -0.500000
vn 0.000000 0.000000 -1.000000
vn 0.000000 0.000000 -1.000000
vn -0.500000 0.000000 -0.866025
vn -0.500000 0.000000 -0.866025
vn -0.866025 0.000000 -0.500000
vn -0.866025 0.000000 -0.500000
vn -1.000000 0.000000 0.000000
vn -1.000000 0.000000 0.000000
vn -0.866025 0.000000 0.500000
vn -0.866025 0.000000 0.500000
vn -0.500000 0.000000 0.866025
vn -0.500000 0.000000 0.866025
vn 0.000000 0.000000 1.000000
vn 0.000000 0.000000 1.000000
vn 0.500000 0.000000 0.866025
vn 0.500000 0.000000 0.866025
vn 0.866025 0.000000 0.500000
vn 0.866025 0.000000 0.500000
vn 1.000000 0.000000 0.000000
vn 1.000000 0.000000 0.000000
vn 0.000000 -1.000000 0.000000
vn 0.000000 -1.000000 0.000000
vn 0.000000 -1.000000 0.000001
vn 0.000000 -1.000000 0.000001
vn 0.000000 1.000000 0.000000
vn 0.000000 1.000000 0.000000
vn 0.000000 1.000000 0.000000
vn 0.000000 1.000000 0.000000
vn 0.000000 -1.000000 0.000002
vn 0.000000 -1.000000 0.000002
vn 0.000000 1.000000 0.000000
vn 0.000000 1.000000 0.000000
vn 0.000000 -1.000000 0.000001
vn 0.000000 -1.000000 0.000001
vn 0.000000 1.000000 0.000000
vn 0.000000 1.000000 0.000000
vn 0.000000 -1.000000 0.000000
vn 0.000000 -1.000000 0.000000
vn 0.000000 1.000000 0.000000
vn 0.000000 1.000000 0.000000
vn 0.000000 -1.000000 -0.000000
vn 0.000000 -1.000000 -0.000000
vn 0.000000 1.000000 0.000000
vn 0.000000 1.000000 0.000000
vn 0.000000 -1.000000 -0.000000
vn 0.000000 -1.000000 -0.000000
vn 0.000000 1.000000 0.000000
vn 0.000000 1.000000 0.000000
vn 0.000000 -1.000000 -0.000001
vn 0.000000 -1.000000 -0.000001
vn 0.000000 1.000000 0.000000
vn 0.000000 1.000000 0.000000
vn 0.000000 -1.000000 -0.000002
vn 0.000000 -1.000000 -0.000002
vn 0.000000 1.000000 0.000000
vn 0.000000 1.000000 0.000000
vn 0.000000 -1.000000 -0.000001
vn 0.000000 -1.000000 -0.000001
vn 0.000000 1.000000 0.000000
vn 0.000000 1.000000 0.000000
vn 0.000000 -1.000000 0.000000
vn 0.000000 -1.000000 0.000000
vn 0.000000 1.000000 0.000000
vn 0.000000 1.000000 0.000000
vn 0.000000 -1.000000 0.000000
vn 0.000000 -1.000000 0.000000
vn 0.000000 1.000000 0.000000
vn 0.000000 1.000000 0.000000
vn 0.500000 0.000000 0.866025
vn 0.000000 0.000000 1.000000
vn -0.500000 0.000000 0.866025
vn -0.866025 0.000000 0.500000
vn -1.000000 0.000000 0.000000
vn -0.866025 0.000000 -0.500000
vn -0.500000 0.000000 -0.866025
vn 0.000000 0.000000 -1.000000
vn 0.500000 0.000000 -0.866025
vn 0.866025 0.000000 -0.500000
vn 1.000000 0.000000 0.000000
vn 0.866025 0.000000 0.500000
vn 0.500000 0.000000 0.866025
vn 0.866025 0.000000 0.500000
vn 1.000000 0.000000 0.000000
vn 0.866025 0.000000 -0.500000
vn 0.500000 0.000000 -0.866025
vn 0.000000 0.000000 -1.000000
vn -0.500000 0.000000 -0.866025
vn -0.866025 0.000000 -0.500000
vn -1.000000 0.000000 0.000000
vn -0.866025 0.000000 0.500000
vn -0.500000 0.000000 0.866025
vn 0.000000 0.000000 1.000000
f 25/53/1 70/101/2 71/103/3 26/54/4
f 26/54/4 71/103/3 72/104/5 29/57/6
f 29/57/6 72/104/5 61/92/7 31/59/8
f 31/59/8 61/92/7 62/93/9 33/61/10
f 33/61/10 62/93/9 63/94/11 35/63/12
f 35/63/12 63/94/11 64/95/13 37/65/14
f 37/65/14 64/95/13 65/96/15 39/67/16
f 39/67/16 65/96/15 66/97/17 41/69/18
f 41/69/18 66/97/17 67/98/19 43/71/20
f 43/71/20 67/98/19 68/99/21 45/73/22
f 45/73/22 68/99/21 69/100/23 47/75/24
f 47/75/24 69/100/23 70/102/2 25/77/1
f 1/27/25 2/28/26 57/87/27 58/89/28
f 2/28/26 3/31/29 56/86/30 57/87/27
f 3/31/29 4/33/31 55/85/32 56/86/30
f 4/33/31 5/35/33 54/84/34 55/85/32
f 5/35/33 6/37/35 53/83/36 54/84/34
f 6/37/35 7/39/37 52/82/38 53/83/36
f 7/39/37 8/41/39 51/81/40 52/82/38
f 8/41/39 9/43/41 50/80/42 51/81/40
f 9/43/41 10/45/43 49/79/44 50/80/42
f 10/45/43 11/47/45 60/91/46 49/79/44
f 11/47/45 12/49/47 59/90/48 60/91/46
f 12/49/47 1/51/25 58/88/28 59/90/48
f 1/1/49 25/53/50 26/54/51 2/2/52
f 14/15/53 27/55/54 28/56/55 13/14/56
f 2/2/52 26/54/51 29/57/57 3/3/58
f 15/16/59 30/58/60 27/55/54 14/15/53
f 3/3/58 29/57/57 31/59/61 4/4/62
f 16/17/63 32/60/64 30/58/60 15/16/59
f 4/4/62 31/59/61 33/61/65 5/5/66
f 17/18/67 34/62/68 32/60/64 16/17/63
f 5/5/66 33/61/65 35/63/69 6/6/70
f 18/19/71 36/64/72 34/62/68 17/18/67
f 6/6/70 35/63/69 37/65/73 7/7/74
f 19/20/75 38/66/76 36/64/72 18/19/71
f 7/7/74 37/65/73 39/67/77 8/8/78
f 20/21/79 40/68/80 38/66/76 19/20/75
f 8/8/78 39/67/77 41/69/81 9/9/82
f 21/22/83 42/70/84 40/68/80 20/21/79
f 9/9/82 41/69/81 43/71/85 10/10/86
f 22/23/87 44/72/88 42/70/84 21/22/83
f 10/10/86 43/71/85 45/73/89 11/11/90
f 23/24/91 46/74/92 44/72/88 22/23/87
f 11/11/90 45/73/89 47/75/93 12/12/94
f 24/25/95 48/76/96 46/74/92 23/24/91
f 12/12/94 47/75/93 25/77/50 1/13/49
f 13/26/56 28/78/55 48/76/96 24/25/95
f 50/80/42 49/79/44 22/46/97 21/44/98
f 51/81/40 50/80/42 21/44/98 20/42/99
f 52/82/38 51/81/40 20/42/99 19/40/100
f 53/83/36 52/82/38 19/40/100 18/38/101
f 54/84/34 53/83/36 18/38/101 17/36/102
f 55/85/32 54/84/34 17/36/102 16/34/103
f 56/86/30 55/85/32 16/34/103 15/32/104
f 57/87/27 56/86/30 15/32/104 14/29/105
f 58/89/28 57/87/27 14/29/105 13/30/106
f 59/90/48 58/88/28 13/52/106 24/50/107
f 60/91/46 59/90/48 24/50/107 23/48/108
f 49/79/44 60/91/46 23/48/108 22/46/97
f 61/92/7 32/60/109 34/62/110 62/93/9
f 63/94/11 62/93/9 34/62/110 36/64/111
f 64/95/13 63/94/11 36/64/111 38/66/112
f 65/96/15 64/95/13 38/66/112 40/68/113
f 66/97/17 65/96/15 40/68/113 42/70/114
f 67/98/19 66/97/17 42/70/114 44/72/115
f 68/99/21 67/98/19 44/72/115 46/74/116
f 69/100/23 68/99/21 46/74/116 48/76/117
f 70/102/2 69/100/23 48/76/117 28/78/118
f 71/103/3 70/101/2 28/56/118 27/55/119
f 72/104/5 71/103/3 27/55/119 30/58/120
f 61/92/7 72/104/5 30/58/120 32/60/109
