# This file uses meters as units for non-parametric coordinates.

v 12.844856 -134.470508 -7.415981
v 7.415981 -134.470508 -12.844856
v 0.000000 -134.470508 -14.831963
v -7.415981 -134.470508 -12.844856
v -12.844856 -134.470508 -7.415981
v -14.831963 -134.470508 0.000000
v -12.844856 -134.470508 7.415981
v -7.415981 -134.470508 12.844856
v 0.000000 -134.470508 14.831963
v 7.415981 -134.470508 12.844856
v 12.844856 -134.470508 7.415981
v 14.831963 -134.470508 0.000000
v 7.985420 -82.614291 -4.610386
v 4.610386 -82.614291 -7.985420
v 0.000000 -82.614291 -9.220772
v -4.610386 -82.614291 -7.985420
v -7.985420 -82.614291 -4.610386
v -9.220772 -82.614291 0.000000
v -7.985420 -82.614291 4.610386
v -4.610386 -82.614291 7.985420
v 0.000000 -82.614291 9.220772
v 4.610386 -82.614291 7.985420
v 7.985420 -82.614291 4.610386
v 9.220772 -82.614291 0.000000
v 0.000000 -94.710208 15.769463
v -7.884731 -94.710208 13.656754
v -13.656754 -94.710208 7.884731
v -15.769463 -94.710208 0.000000
v -13.656754 -94.710208 -7.884731
v -7.884731 -94.710208 -13.656754
v 0.000000 -94.710208 -15.769463
v 7.884731 -94.710208 -13.656754
v 13.656754 -94.710208 -7.884731
v 15.769463 -94.710208 0.000000
v 13.656754 -94.710208 7.884731
v 7.884731 -94.710208 13.656754
v 0.000000 -119.557601 18.696747
v -9.348373 -119.557601 16.191856
v -16.191856 -119.557601 9.348373
v -18.696747 -119.557601 0.000000
v -16.191856 -119.557601 -9.348373
v -9.348373 -119.557601 -16.191856
v 0.000000 -119.557601 -18.696747
v 9.348373 -119.557601 -16.191856
v 16.191856 -119.557601 -9.348373
v 18.696747 -119.557601 0.000000
v 16.191856 -119.557601 9.348373
v 9.348373 -119.557601 16.191856
v 0.000000 -106.238124 18.875557
v -9.437778 -106.238124 16.346710
v -16.346710 -106.238124 9.437778
v -18.875557 -106.238124 0.000000
v -16.346710 -106.238124 -9.437778
v -9.437778 -106.238124 -16.346710
v 0.000000 -106.238124 -18.875557
v 9.437778 -106.238124 -16.346710
v 16.346710 -106.238124 -9.437778
v 18.875557 -106.238124 0.000000
v 16.346710 -106.238124 9.437778
v 9.437778 -106.238124 16.346710
v 14.150879 -134.773547 -8.170013
v 8.170013 -134.773547 -14.150879
v 10.178337 -119.720592 -17.629395
v 17.629395 -119.720592 -10.178337
v -0.000000 -134.773547 -16.340027
v -0.000000 -119.720592 -20.356674
v -8.170013 -134.773547 -14.150887
v -10.178337 -119.720592 -17.629395
v -14.150879 -134.773547 -8.170013
v -17.629395 -119.720592 -10.178337
v -16.340027 -134.773547 0.000000
v -20.356674 -119.720592 0.000000
v -14.150879 -134.773547 8.170013
v -17.629395 -119.720592 10.178337
v -8.170013 -134.773547 14.150879
v -10.178337 -119.720592 17.629395
v 0.000000 -134.773547 16.340027
v 0.000000 -119.720592 20.356674
v 8.170013 -134.773547 14.150887
v 10.178337 -119.720592 17.629395
v 14.150879 -134.773547 8.170013
v 17.629395 -119.720592 10.178337
v 16.340027 -134.773547 -0.000000
v 20.356674 -119.720592 -0.000000
v 0.000000 -94.197139 17.274834
v -8.637417 -94.197139 14.960442
v 0.000000 -81.877292 10.582077
v -5.291039 -81.877276 9.164345
v -14.960442 -94.197139 8.637417
v -9.164345 -81.877276 5.291039
v -17.274834 -94.197139 -0.000000
v -10.582077 -81.877276 0.000000
v -14.960442 -94.197139 -8.637417
v -9.164345 -81.877276 -5.291039
v -8.637417 -94.197139 -14.960442
v -5.291039 -81.877276 -9.164345
v -0.000000 -94.197139 -17.274834
v 0.000000 -81.877292 -10.582077
v 8.637417 -94.197139 -14.960442
v 5.291039 -81.877276 -9.164345
v 14.960442 -94.197139 -8.637417
v 9.164345 -81.877276 -5.291039
v 17.274834 -94.197139 0.000000
v 10.582077 -81.877276 0.000000
v 14.960442 -94.197139 8.637417
v 9.164345 -81.877276 5.291039
v 8.637417 -94.197139 14.960442
v 5.291039 -81.877276 9.164345
v 0.000000 -106.091624 20.552261
v -10.276131 -106.091624 17.798782
v -17.798782 -106.091624 10.276131
v -20.552261 -106.091624 -0.000000
v -17.798782 -106.091624 -10.276131
v -10.276131 -106.091624 -17.798782
v -0.000000 -106.091624 -20.552261
v 10.276131 -106.091624 -17.798782
v 17.798782 -106.091624 -10.276131
v 20.552261 -106.091624 0.000000
v 17.798782 -106.091624 10.276131
v 10.276131 -106.091624 17.798782
vt 0.486085 0.259295
vt 0.486085 0.266652
vt 0.486084 0.274008
vt 0.486085 0.281365
vt 0.486085 0.288722
vt 0.486085 0.296079
vt 0.486084 0.303436
vt 0.486085 0.296128
vt 0.486084 0.288820
vt 0.486084 0.281512
vt 0.486085 0.274204
vt 0.486085 0.266896
vt 0.486084 0.259588
vt 0.485922 0.259295
vt 0.485922 0.266652
vt 0.485922 0.274008
vt 0.485922 0.281365
vt 0.485922 0.288722
vt 0.485922 0.296079
vt 0.485922 0.303436
vt 0.485922 0.296128
vt 0.485922 0.288820
vt 0.485922 0.281512
vt 0.485922 0.274204
vt 0.485922 0.266896
vt 0.485922 0.259588
vt 0.432843 0.288820
vt 0.432843 0.296128
vt 0.432843 0.303436
vt 0.432843 0.296079
vt 0.432843 0.288722
vt 0.432843 0.281365
vt 0.432843 0.274009
vt 0.432843 0.266652
vt 0.432843 0.259588
vt 0.432843 0.259295
vt 0.432843 0.266896
vt 0.432843 0.274204
vt 0.432843 0.281512
vt 0.439882 0.288820
vt 0.439882 0.296128
vt 0.439882 0.303436
vt 0.439882 0.296079
vt 0.439882 0.288722
vt 0.439882 0.281365
vt 0.439882 0.274009
vt 0.439882 0.266652
vt 0.439882 0.259588
vt 0.439882 0.259295
vt 0.439882 0.266896
vt 0.439882 0.274204
vt 0.439882 0.281512
vt 0.387112 0.288820
vt 0.387112 0.296128
vt 0.387112 0.303436
vt 0.387112 0.296079
vt 0.387112 0.288722
vt 0.387112 0.281365
vt 0.387112 0.274009
vt 0.387112 0.266652
vt 0.387112 0.259588
vt 0.387112 0.259295
vt 0.387112 0.266896
vt 0.387112 0.274204
vt 0.387112 0.281512
vt 0.486085 0.259295
vt 0.486085 0.266652
vt 0.439882 0.266652
vt 0.439882 0.259295
vt 0.486084 0.274008
vt 0.439882 0.274009
vt 0.486085 0.281365
vt 0.439882 0.281365
vt 0.486085 0.288722
vt 0.439882 0.288722
vt 0.486085 0.296079
vt 0.439882 0.296079
vt 0.486084 0.303436
vt 0.439882 0.303436
vt 0.486085 0.296128
vt 0.439882 0.296128
vt 0.486084 0.288820
vt 0.439882 0.288820
vt 0.486084 0.281512
vt 0.439882 0.281512
vt 0.486085 0.274204
vt 0.439882 0.274204
vt 0.486085 0.266896
vt 0.439882 0.266896
vt 0.486084 0.259588
vt 0.439882 0.259588
vt 0.432843 0.296128
vt 0.432843 0.288820
vt 0.485922 0.288820
vt 0.485922 0.296128
vt 0.432843 0.303436
vt 0.485922 0.303436
vt 0.432843 0.296079
vt 0.485922 0.296079
vt 0.432843 0.288722
vt 0.485922 0.288722
vt 0.432843 0.281365
vt 0.485922 0.281365
vt 0.432843 0.274009
vt 0.485922 0.274008
vt 0.432843 0.266652
vt 0.485922 0.266652
vt 0.432843 0.259295
vt 0.485922 0.259295
vt 0.432843 0.266896
vt 0.432843 0.259588
vt 0.485922 0.259588
vt 0.485922 0.266896
vt 0.432843 0.274204
vt 0.485922 0.274204
vt 0.432843 0.281512
vt 0.485922 0.281512
vt 0.387112 0.288820
vt 0.387112 0.296128
vt 0.387112 0.303436
vt 0.387112 0.296079
vt 0.387112 0.288722
vt 0.387112 0.281365
vt 0.387112 0.274009
vt 0.387112 0.266652
vt 0.387112 0.259295
vt 0.387112 0.259588
vt 0.387112 0.266896
vt 0.387112 0.274204
vt 0.387112 0.281512
vt 0.481018 0.259295
vt 0.481018 0.266652
vt 0.481018 0.274009
vt 0.481018 0.281365
vt 0.481018 0.288722
vt 0.481018 0.296079
vt 0.481018 0.303436
vt 0.481018 0.296128
vt 0.481018 0.288820
vt 0.481018 0.281512
vt 0.481018 0.274204
vt 0.481018 0.266896
vt 0.481018 0.259588
vt 0.480844 0.288820
vt 0.480844 0.296128
vt 0.480844 0.303436
vt 0.480844 0.296079
vt 0.480844 0.288722
vt 0.480844 0.281365
vt 0.480844 0.274009
vt 0.480844 0.266652
vt 0.480844 0.259295
vt 0.480844 0.259588
vt 0.480844 0.266896
vt 0.480844 0.274204
vt 0.480844 0.281512
vn 0.836749 -0.257814 -0.483097
vn 0.483097 -0.257814 -0.836749
vn 0.495365 -0.135845 -0.857997
vn 0.857997 -0.135845 -0.495365
vn 0.000000 -0.257814 -0.966195
vn 0.000000 -0.135845 -0.990730
vn -0.483097 -0.257814 -0.836749
vn -0.495365 -0.135845 -0.857997
vn -0.836749 -0.257814 -0.483097
vn -0.857997 -0.135845 -0.495365
vn -0.966195 -0.257814 -0.000000
vn -0.990730 -0.135845 -0.000000
vn -0.836749 -0.257814 0.483097
vn -0.857997 -0.135845 0.495365
vn -0.483097 -0.257814 0.836749
vn -0.495365 -0.135845 0.857997
vn -0.000000 -0.257814 0.966195
vn -0.000000 -0.135845 0.990730
vn 0.483097 -0.257814 0.836749
vn 0.495365 -0.135845 0.857997
vn 0.836749 -0.257814 0.483097
vn 0.857997 -0.135845 0.495365
vn 0.966195 -0.257814 0.000000
vn 0.990730 -0.135845 0.000000
vn -0.466887 0.357864 0.808672
vn 0.000000 0.357864 0.933774
vn 0.000000 0.477358 0.878709
vn -0.439354 0.477358 0.760984
vn -0.808672 0.357864 0.466887
vn -0.760984 0.477358 0.439355
vn -0.933774 0.357864 0.000000
vn -0.878709 0.477358 0.000000
vn -0.808672 0.357864 -0.466887
vn -0.760984 0.477358 -0.439355
vn -0.466887 0.357864 -0.808672
vn -0.439355 0.477358 -0.760984
vn 0.000000 0.357864 -0.933774
vn 0.000000 0.477358 -0.878709
vn 0.466887 0.357864 -0.808672
vn 0.439354 0.477358 -0.760984
vn 0.808672 0.357864 -0.466887
vn 0.760984 0.477358 -0.439355
vn 0.933774 0.357864 -0.000000
vn 0.878709 0.477358 -0.000000
vn 0.808672 0.357864 0.466887
vn 0.760984 0.477358 0.439355
vn 0.466887 0.357864 0.808672
vn 0.439355 0.477358 0.760984
vn 0.000000 0.111384 0.993778
vn -0.496889 0.111383 0.860637
vn -0.860637 0.111384 0.496889
vn -0.993778 0.111384 0.000000
vn -0.860637 0.111383 -0.496889
vn -0.496889 0.111383 -0.860637
vn 0.000000 0.111384 -0.993778
vn 0.496889 0.111383 -0.860637
vn 0.860637 0.111384 -0.496889
vn 0.993778 0.111384 -0.000000
vn 0.860637 0.111383 0.496889
vn 0.496889 0.111383 0.860637
vn -0.838331 0.250869 0.484011
vn -0.858409 0.132333 0.495603
vn -0.495603 0.132333 0.858409
vn -0.484011 0.250869 0.838331
vn -0.000000 0.132333 0.991205
vn 0.000000 0.250869 0.968021
vn 0.495603 0.132333 0.858409
vn 0.484011 0.250869 0.838331
vn 0.858409 0.132333 0.495603
vn 0.838331 0.250869 0.484011
vn 0.991205 0.132333 0.000000
vn 0.968021 0.250869 0.000000
vn 0.858409 0.132333 -0.495603
vn 0.838331 0.250869 -0.484011
vn 0.495603 0.132333 -0.858409
vn 0.484011 0.250869 -0.838331
vn 0.000000 0.132333 -0.991205
vn 0.000000 0.250869 -0.968021
vn -0.495603 0.132333 -0.858409
vn -0.484011 0.250869 -0.838331
vn -0.858409 0.132333 -0.495603
vn -0.838331 0.250869 -0.484011
vn -0.991205 0.132333 0.000000
vn -0.968021 0.250869 0.000000
vn 0.467637 -0.353924 -0.809971
vn 0.439696 -0.476100 -0.761575
vn 0.000000 -0.476100 -0.879391
vn 0.000000 -0.353924 -0.935274
vn 0.809971 -0.353924 -0.467637
vn 0.761575 -0.476100 -0.439696
vn 0.935274 -0.353924 0.000000
vn 0.879391 -0.476100 0.000000
vn 0.809971 -0.353924 0.467637
vn 0.761575 -0.476100 0.439696
vn 0.467637 -0.353924 0.809971
vn 0.439696 -0.476100 0.761575
vn 0.000000 -0.353924 0.935274
vn 0.000000 -0.476100 0.879391
vn -0.467637 -0.353924 0.809971
vn -0.439696 -0.476100 0.761575
vn -0.809971 -0.353924 0.467637
vn -0.761575 -0.476100 0.439696
vn -0.935274 -0.353924 -0.000000
vn -0.879391 -0.476100 -0.000000
vn -0.809971 -0.353924 -0.467637
vn -0.761575 -0.476100 -0.439696
vn -0.467637 -0.353924 -0.809971
vn -0.439696 -0.476100 -0.761575
vn 0.497044 -0.108579 -0.860905
vn 0.000000 -0.108579 -0.994088
vn 0.860905 -0.108579 -0.497044
vn 0.994088 -0.108579 0.000000
vn 0.860905 -0.108579 0.497044
vn 0.497044 -0.108579 0.860905
vn -0.000000 -0.108579 0.994088
vn -0.497044 -0.108579 0.860905
vn -0.860905 -0.108579 0.497044
vn -0.994088 -0.108579 0.000000
vn -0.860905 -0.108579 -0.497044
vn -0.497044 -0.108579 -0.860905
vn -0.170614 -0.980402 0.098505
vn -0.098504 -0.980402 0.170614
vn -0.098504 -0.980402 0.170614
vn -0.170614 -0.980402 0.098505
vn -0.000000 -0.980402 0.197007
vn -0.000000 -0.980402 0.197007
vn 0.098504 -0.980402 0.170614
vn 0.098504 -0.980402 0.170614
vn 0.170614 -0.980402 0.098505
vn 0.170614 -0.980402 0.098505
vn 0.197008 -0.980402 0.000000
vn 0.197008 -0.980402 -0.000000
vn 0.170614 -0.980402 -0.098505
vn 0.170614 -0.980402 -0.098505
vn 0.098504 -0.980402 -0.170614
vn 0.098504 -0.980402 -0.170614
vn 0.000000 -0.980402 -0.197007
vn 0.000000 -0.980402 -0.197007
vn -0.098504 -0.980402 -0.170614
vn -0.098504 -0.980402 -0.170614
vn -0.170614 -0.980402 -0.098505
vn -0.170614 -0.980402 -0.098505
vn -0.197008 -0.980402 -0.000000
vn -0.197008 -0.980402 0.000000
vn 0.000000 0.879391 -0.476100
vn 0.238052 0.879390 -0.412316
vn 0.238052 0.879390 -0.412316
vn 0.000000 0.879391 -0.476100
vn 0.412318 0.879389 -0.238052
vn 0.412318 0.879389 -0.238052
vn 0.476104 0.879389 -0.000000
vn 0.476104 0.879389 -0.000000
vn 0.412318 0.879389 0.238052
vn 0.412318 0.879389 0.238052
vn 0.238052 0.879390 0.412316
vn 0.238052 0.879390 0.412316
vn 0.000000 0.879391 0.476100
vn 0.000000 0.879391 0.476100
vn -0.238052 0.879390 0.412316
vn -0.238052 0.879390 0.412316
vn -0.412318 0.879389 0.238052
vn -0.412318 0.879389 0.238052
vn -0.476104 0.879389 0.000000
vn -0.476104 0.879389 0.000000
vn -0.412318 0.879389 -0.238052
vn -0.412318 0.879389 -0.238052
vn -0.238052 0.879390 -0.412316
vn -0.238052 0.879390 -0.412316
f 61/131/1 62/132/2 63/47/3 64/49/4
f 62/132/2 65/133/5 66/46/6 63/47/3
f 65/133/5 67/134/7 68/45/8 66/46/6
f 67/134/7 69/135/9 70/44/10 68/45/8
f 69/135/9 71/136/11 72/43/12 70/44/10
f 71/136/11 73/137/13 74/42/14 72/43/12
f 73/137/13 75/138/15 76/41/16 74/42/14
f 75/138/15 77/139/17 78/40/18 76/41/16
f 77/139/17 79/140/19 80/52/20 78/40/18
f 79/140/19 81/141/21 82/51/22 80/52/20
f 81/141/21 83/142/23 84/50/24 82/51/22
f 83/142/23 61/143/1 64/48/4 84/50/24
f 86/28/25 85/27/26 87/144/27 88/145/28
f 89/29/29 86/28/25 88/145/28 90/146/30
f 91/30/31 89/29/29 90/146/30 92/147/32
f 93/31/33 91/30/31 92/147/32 94/148/34
f 95/32/35 93/31/33 94/148/34 96/149/36
f 97/33/37 95/32/35 96/149/36 98/150/38
f 99/34/39 97/33/37 98/150/38 100/151/40
f 101/36/41 99/34/39 100/151/40 102/152/42
f 103/37/43 101/35/41 102/153/42 104/154/44
f 105/38/45 103/37/43 104/154/44 106/155/46
f 107/39/47 105/38/45 106/155/46 108/156/48
f 85/27/26 107/39/47 108/156/48 87/144/27
f 76/41/16 78/40/18 109/53/49 110/54/50
f 74/42/14 76/41/16 110/54/50 111/55/51
f 72/43/12 74/42/14 111/55/51 112/56/52
f 70/44/10 72/43/12 112/56/52 113/57/53
f 68/45/8 70/44/10 113/57/53 114/58/54
f 66/46/6 68/45/8 114/58/54 115/59/55
f 63/47/3 66/46/6 115/59/55 116/60/56
f 64/49/4 63/47/3 116/60/56 117/62/57
f 84/50/24 64/48/4 117/61/57 118/63/58
f 82/51/22 84/50/24 118/63/58 119/64/59
f 80/52/20 82/51/22 119/64/59 120/65/60
f 78/40/18 80/52/20 120/65/60 109/53/49
f 110/54/50 109/53/49 85/27/26 86/28/25
f 111/55/51 110/54/50 86/28/25 89/29/29
f 112/56/52 111/55/51 89/29/29 91/30/31
f 113/57/53 112/56/52 91/30/31 93/31/33
f 114/58/54 113/57/53 93/31/33 95/32/35
f 115/59/55 114/58/54 95/32/35 97/33/37
f 116/60/56 115/59/55 97/33/37 99/34/39
f 117/62/57 116/60/56 99/34/39 101/36/41
f 118/63/58 117/61/57 101/35/41 103/37/43
f 119/64/59 118/63/58 103/37/43 105/38/45
f 120/65/60 119/64/59 105/38/45 107/39/47
f 109/53/49 120/65/60 107/39/47 85/27/26
f 1/66/61 45/69/62 44/68/63 2/67/64
f 2/67/64 44/68/63 43/71/65 3/70/66
f 3/70/66 43/71/65 42/73/67 4/72/68
f 4/72/68 42/73/67 41/75/69 5/74/70
f 5/74/70 41/75/69 40/77/71 6/76/72
f 6/76/72 40/77/71 39/79/73 7/78/74
f 7/78/74 39/79/73 38/81/75 8/80/76
f 8/80/76 38/81/75 37/83/77 9/82/78
f 9/82/78 37/83/77 48/85/79 10/84/80
f 10/84/80 48/85/79 47/87/81 11/86/82
f 11/86/82 47/87/81 46/89/83 12/88/84
f 12/88/84 46/89/83 45/91/62 1/90/61
f 26/92/85 20/95/86 21/94/87 25/93/88
f 27/96/89 19/97/90 20/95/86 26/92/85
f 28/98/91 18/99/92 19/97/90 27/96/89
f 29/100/93 17/101/94 18/99/92 28/98/91
f 30/102/95 16/103/96 17/101/94 29/100/93
f 31/104/97 15/105/98 16/103/96 30/102/95
f 32/106/99 14/107/100 15/105/98 31/104/97
f 33/108/101 13/109/102 14/107/100 32/106/99
f 34/110/103 24/113/104 13/112/102 33/111/101
f 35/114/105 23/115/106 24/113/104 34/110/103
f 36/116/107 22/117/108 23/115/106 35/114/105
f 25/93/88 21/94/87 22/117/108 36/116/107
f 38/81/75 50/119/109 49/118/110 37/83/77
f 39/79/73 51/120/111 50/119/109 38/81/75
f 40/77/71 52/121/112 51/120/111 39/79/73
f 41/75/69 53/122/113 52/121/112 40/77/71
f 42/73/67 54/123/114 53/122/113 41/75/69
f 43/71/65 55/124/115 54/123/114 42/73/67
f 44/68/63 56/125/116 55/124/115 43/71/65
f 45/69/62 57/126/117 56/125/116 44/68/63
f 46/89/83 58/128/118 57/127/117 45/91/62
f 47/87/81 59/129/119 58/128/118 46/89/83
f 48/85/79 60/130/120 59/129/119 47/87/81
f 37/83/77 49/118/110 60/130/120 48/85/79
f 50/119/109 26/92/85 25/93/88 49/118/110
f 51/120/111 27/96/89 26/92/85 50/119/109
f 52/121/112 28/98/91 27/96/89 51/120/111
f 53/122/113 29/100/93 28/98/91 52/121/112
f 54/123/114 30/102/95 29/100/93 53/122/113
f 55/124/115 31/104/97 30/102/95 54/123/114
f 56/125/116 32/106/99 31/104/97 55/124/115
f 57/126/117 33/108/101 32/106/99 56/125/116
f 58/128/118 34/110/103 33/111/101 57/127/117
f 59/129/119 35/114/105 34/110/103 58/128/118
f 60/130/120 36/116/107 35/114/105 59/129/119
f 49/118/110 25/93/88 36/116/107 60/130/120
f 1/1/121 2/2/122 62/132/123 61/131/124
f 2/2/122 3/3/125 65/133/126 62/132/123
f 3/3/125 4/4/127 67/134/128 65/133/126
f 4/4/127 5/5/129 69/135/130 67/134/128
f 5/5/129 6/6/131 71/136/132 69/135/130
f 6/6/131 7/7/133 73/137/134 71/136/132
f 7/7/133 8/8/135 75/138/136 73/137/134
f 8/8/135 9/9/137 77/139/138 75/138/136
f 9/9/137 10/10/139 79/140/140 77/139/138
f 10/10/139 11/11/141 81/141/142 79/140/140
f 11/11/141 12/12/143 83/142/144 81/141/142
f 12/12/143 1/13/121 61/143/124 83/142/144
f 21/22/145 20/21/146 88/145/147 87/144/148
f 20/21/146 19/20/149 90/146/150 88/145/147
f 19/20/149 18/19/151 92/147/152 90/146/150
f 18/19/151 17/18/153 94/148/154 92/147/152
f 17/18/153 16/17/155 96/149/156 94/148/154
f 16/17/155 15/16/157 98/150/158 96/149/156
f 15/16/157 14/15/159 100/151/160 98/150/158
f 14/15/159 13/14/161 102/152/162 100/151/160
f 13/26/161 24/25/163 104/154/164 102/153/162
f 24/25/163 23/24/165 106/155/166 104/154/164
f 23/24/165 22/23/167 108/156/168 106/155/166
f 22/23/167 21/22/145 87/144/148 108/156/168
