# This file uses meters as units for non-parametric coordinates.

v 34.085392 58.360966 -10.273365
v -34.030212 58.360966 -10.273366
v -34.030212 274.937195 -10.273365
v 34.085392 274.937195 -10.273365
v 34.085392 274.937195 -5.589966
v -34.030212 274.937195 -5.589966
v -34.030212 58.360966 -5.589967
v 34.085392 58.360966 -5.589966
vt 0.525883 0.975286
vt 0.502732 0.975391
vt 0.502732 0.991578
vt 0.525883 0.991473
vt 0.525883 0.975286
vt 0.525883 0.991473
vt 0.502732 0.991578
vt 0.502732 0.975391
vt 0.525883 0.975286
vt 0.525883 0.991473
vt 0.502732 0.991578
vt 0.502732 0.975391
vn 0.000000 0.000000 -1.000000
vn 0.000000 0.000000 -1.000000
vn 0.000000 0.000000 -1.000000
vn 0.000000 0.000000 -1.000000
vn -0.000000 -0.000000 1.000000
vn -0.000000 -0.000000 1.000000
vn -0.000000 -0.000000 1.000000
vn -0.000000 -0.000000 1.000000
vn 1.000000 0.000000 0.000000
vn 1.000000 0.000000 0.000000
vn 1.000000 0.000000 0.000000
vn 1.000000 0.000000 0.000000
vn -1.000000 0.000000 0.000000
vn -1.000000 0.000000 0.000000
vn -1.000000 0.000000 0.000000
vn -1.000000 0.000000 0.000000
f 1/1/1 2/2/2 3/3/3 4/4/4
f 8/5/5 5/6/6 6/7/7 7/8/8
f 8/9/9 1/1/10 4/4/11 5/10/12
f 6/11/13 3/3/14 2/2/15 7/12/16
