# This file uses meters as units for non-parametric coordinates.

v -29.394691 68.317566 -3.217773
v 29.394691 68.317566 -3.217773
v -29.394691 269.011230 -3.217773
v 29.394691 269.011230 -3.217773
v -29.394691 269.011230 -12.645557
v 29.394691 269.011230 -12.645557
v -29.394691 68.317566 -12.645557
v 29.394691 68.317566 -12.645557
vt 0.503246 0.940271
vt 0.527277 0.940271
vt 0.503246 0.964301
vt 0.527277 0.964301
vt 0.503246 0.940271
vt 0.527277 0.940271
vt 0.503246 0.964301
vt 0.527277 0.964301
vn 0.000000 0.000000 1.000000
vn 0.000000 0.000000 1.000000
vn 0.000000 0.000000 1.000000
vn 0.000000 0.000000 1.000000
vn 0.000000 0.000000 -1.000000
vn 0.000000 0.000000 -1.000000
vn 0.000000 0.000000 -1.000000
vn 0.000000 0.000000 -1.000000
f 1/1/1 2/2/2 4/4/3 3/3/4
f 5/5/5 6/6/6 8/8/7 7/7/8
