# This file uses meters as units for non-parametric coordinates.

v 65.904900 290.139862 -5.589966
v 65.904900 285.344635 -5.589966
v -65.904900 290.139862 -5.589966
v -65.904900 285.344635 -5.589966
v -65.904900 285.344635 -10.273365
v -65.904900 290.139862 -10.273365
v 65.904900 285.344635 -10.273365
v 65.904900 290.139862 -10.273365
v 65.904900 242.182831 -5.589966
v 65.904900 237.387589 -5.589966
v -65.904900 242.182831 -5.589966
v -65.904900 237.387589 -5.589966
v -65.904900 237.387589 -10.273365
v -65.904900 242.182831 -10.273365
v 65.904900 237.387589 -10.273365
v 65.904900 242.182831 -10.273365
v 65.904900 194.225784 -5.589966
v 65.904900 189.430557 -5.589966
v -65.904900 194.225784 -5.589966
v -65.904900 189.430557 -5.589966
v -65.904900 189.430557 -10.273365
v -65.904900 194.225784 -10.273365
v 65.904900 189.430557 -10.273365
v 65.904900 194.225784 -10.273365
v 65.904900 146.268738 -5.589966
v 65.904900 141.473511 -5.589966
v -65.904900 146.268738 -5.589966
v -65.904900 141.473511 -5.589966
v -65.904900 141.473511 -10.273365
v -65.904900 146.268738 -10.273365
v 65.904900 141.473511 -10.273365
v 65.904900 146.268738 -10.273365
v 65.904900 98.311691 -5.589966
v 65.904900 93.516464 -5.589966
v -65.904900 98.311691 -5.589966
v -65.904900 93.516464 -5.589966
v -65.904900 93.516464 -10.273365
v -65.904900 98.311691 -10.273365
v 65.904900 93.516464 -10.273365
v 65.904900 98.311691 -10.273365
v 65.904900 50.354652 -5.589966
v 65.904900 45.559425 -5.589966
v -65.904900 45.559425 -5.589966
v -65.904900 50.354652 -5.589966
v -65.904900 45.559425 -10.273365
v -65.904900 50.354652 -10.273365
v 65.904900 45.559425 -10.273365
v 65.904900 50.354652 -10.273365
vt 0.557702 0.898053
vt 0.557702 0.897723
vt 0.557808 0.897752
vt 0.557808 0.898082
vt 0.534550 0.898158
vt 0.534550 0.897828
vt 0.534657 0.898187
vt 0.534657 0.897857
vt 0.557702 0.894750
vt 0.557702 0.894420
vt 0.557808 0.894448
vt 0.557808 0.894779
vt 0.534550 0.894855
vt 0.534550 0.894525
vt 0.534657 0.894884
vt 0.534657 0.894554
vt 0.557702 0.891446
vt 0.557702 0.891116
vt 0.557808 0.891145
vt 0.557808 0.891475
vt 0.534550 0.891551
vt 0.534550 0.891221
vt 0.534657 0.891580
vt 0.534657 0.891250
vt 0.557702 0.888143
vt 0.557702 0.887813
vt 0.557808 0.887841
vt 0.557808 0.888172
vt 0.534550 0.888248
vt 0.534550 0.887918
vt 0.534657 0.888277
vt 0.534657 0.887947
vt 0.557702 0.884839
vt 0.557702 0.884509
vt 0.557808 0.884538
vt 0.557808 0.884868
vt 0.534550 0.884945
vt 0.534550 0.884614
vt 0.534657 0.884973
vt 0.534657 0.884643
vt 0.557702 0.881536
vt 0.557702 0.881206
vt 0.557808 0.881235
vt 0.557808 0.881565
vt 0.534550 0.881641
vt 0.534550 0.881311
vt 0.534657 0.881670
vt 0.534657 0.881340
vn 1.000000 0.000000 0.000000
vn 1.000000 0.000000 0.000000
vn 1.000000 0.000000 0.000000
vn 1.000000 0.000000 0.000000
vn 0.000000 0.000000 1.000000
vn 0.000000 0.000000 1.000000
vn 0.000000 0.000000 1.000000
vn 0.000000 0.000000 1.000000
vn -1.000000 0.000000 0.000000
vn -1.000000 0.000000 0.000000
vn -1.000000 0.000000 0.000000
vn -1.000000 0.000000 0.000000
vn 0.000000 0.000000 -1.000000
vn 0.000000 0.000000 -1.000000
vn 0.000000 0.000000 -1.000000
vn 0.000000 0.000000 -1.000000
vn 1.000000 0.000000 0.000000
vn 1.000000 0.000000 0.000000
vn 1.000000 0.000000 0.000000
vn 1.000000 0.000000 0.000000
vn 0.000000 0.000000 1.000000
vn 0.000000 0.000000 1.000000
vn 0.000000 0.000000 1.000000
vn 0.000000 0.000000 1.000000
vn -1.000000 0.000000 0.000000
vn -1.000000 0.000000 0.000000
vn -1.000000 0.000000 0.000000
vn -1.000000 0.000000 0.000000
vn 0.000000 0.000000 -1.000000
vn 0.000000 0.000000 -1.000000
vn 0.000000 0.000000 -1.000000
vn 0.000000 0.000000 -1.000000
vn 1.000000 0.000000 0.000000
vn 1.000000 0.000000 0.000000
vn 1.000000 0.000000 0.000000
vn 1.000000 0.000000 0.000000
vn 0.000000 0.000000 1.000000
vn 0.000000 0.000000 1.000000
vn 0.000000 0.000000 1.000000
vn 0.000000 0.000000 1.000000
vn -1.000000 0.000000 0.000000
vn -1.000000 0.000000 0.000000
vn -1.000000 0.000000 0.000000
vn -1.000000 0.000000 0.000000
vn 0.000000 0.000000 -1.000000
vn 0.000000 0.000000 -1.000000
vn 0.000000 0.000000 -1.000000
vn 0.000000 0.000000 -1.000000
vn 1.000000 0.000000 0.000000
vn 1.000000 0.000000 0.000000
vn 1.000000 0.000000 0.000000
vn 1.000000 0.000000 0.000000
vn 0.000000 0.000000 1.000000
vn 0.000000 0.000000 1.000000
vn 0.000000 0.000000 1.000000
vn 0.000000 0.000000 1.000000
vn -1.000000 0.000000 0.000000
vn -1.000000 0.000000 0.000000
vn -1.000000 0.000000 0.000000
vn -1.000000 0.000000 0.000000
vn 0.000000 0.000000 -1.000000
vn 0.000000 0.000000 -1.000000
vn 0.000000 0.000000 -1.000000
vn 0.000000 0.000000 -1.000000
vn 1.000000 0.000000 0.000000
vn 1.000000 0.000000 0.000000
vn 1.000000 0.000000 0.000000
vn 1.000000 0.000000 0.000000
vn 0.000000 0.000000 1.000000
vn 0.000000 0.000000 1.000000
vn 0.000000 0.000000 1.000000
vn 0.000000 0.000000 1.000000
vn -1.000000 0.000000 0.000000
vn -1.000000 0.000000 0.000000
vn -1.000000 0.000000 0.000000
vn -1.000000 0.000000 0.000000
vn 0.000000 0.000000 -1.000000
vn 0.000000 0.000000 -1.000000
vn 0.000000 0.000000 -1.000000
vn 0.000000 0.000000 -1.000000
vn 1.000000 0.000000 0.000000
vn 1.000000 0.000000 0.000000
vn 1.000000 0.000000 0.000000
vn 1.000000 0.000000 0.000000
vn 0.000000 0.000000 1.000000
vn 0.000000 0.000000 1.000000
vn 0.000000 0.000000 1.000000
vn 0.000000 0.000000 1.000000
vn -1.000000 0.000000 0.000000
vn -1.000000 0.000000 0.000000
vn -1.000000 0.000000 0.000000
vn -1.000000 0.000000 0.000000
vn 0.000000 0.000000 -1.000000
vn 0.000000 0.000000 -1.000000
vn 0.000000 0.000000 -1.000000
vn 0.000000 0.000000 -1.000000
f 1/1/1 2/2/2 7/3/3 8/4/4
f 2/2/5 1/1/6 3/5/7 4/6/8
f 4/6/9 3/5/10 6/7/11 5/8/12
f 5/8/13 6/7/14 8/4/15 7/3/16
f 9/9/17 10/10/18 15/11/19 16/12/20
f 10/10/21 9/9/22 11/13/23 12/14/24
f 12/14/25 11/13/26 14/15/27 13/16/28
f 13/16/29 14/15/30 16/12/31 15/11/32
f 17/17/33 18/18/34 23/19/35 24/20/36
f 18/18/37 17/17/38 19/21/39 20/22/40
f 20/22/41 19/21/42 22/23/43 21/24/44
f 21/24/45 22/23/46 24/20/47 23/19/48
f 25/25/49 26/26/50 31/27/51 32/28/52
f 26/26/53 25/25/54 27/29/55 28/30/56
f 28/30/57 27/29/58 30/31/59 29/32/60
f 29/32/61 30/31/62 32/28/63 31/27/64
f 33/33/65 34/34/66 39/35/67 40/36/68
f 34/34/69 33/33/70 35/37/71 36/38/72
f 36/38/73 35/37/74 38/39/75 37/40/76
f 37/40/77 38/39/78 40/36/79 39/35/80
f 41/41/81 42/42/82 47/43/83 48/44/84
f 42/42/85 41/41/86 44/45/87 43/46/88
f 43/46/89 44/45/90 46/47/91 45/48/92
f 45/48/93 46/47/94 48/44/95 47/43/96
