# This file uses meters as units for non-parametric coordinates.

v -23.294411 41.232399 -5.156303
v 23.294411 41.232399 -5.156303
v -23.294411 300.155518 -5.156303
v 23.294411 300.155518 -5.156303
v -23.294411 300.155518 -10.367611
v 23.294411 300.155518 -10.367611
v -23.294411 41.232399 -10.367611
v 23.294411 41.232399 -10.367611
vt 0.569916 0.915430
vt 0.585084 0.915430
vt 0.569916 0.930598
vt 0.585084 0.930598
vt 0.569916 0.915430
vt 0.585084 0.915430
vt 0.569916 0.930598
vt 0.585084 0.930598
vn 0.000000 0.000000 1.000000
vn 0.000000 0.000000 1.000000
vn 0.000000 0.000000 1.000000
vn 0.000000 0.000000 1.000000
vn 0.000000 0.000000 -1.000000
vn 0.000000 0.000000 -1.000000
vn 0.000000 0.000000 -1.000000
vn 0.000000 0.000000 -1.000000
f 1/1/1 2/2/2 4/4/3 3/3/4
f 5/5/5 6/6/6 8/8/7 7/7/8
