# This file uses meters as units for non-parametric coordinates.

v -37.294411 35.232407 -5.156300
v 37.294411 35.232407 -5.156300
v -37.294411 300.155487 -5.156300
v 37.294411 300.155487 -5.156300
v -37.294411 300.155487 -10.367611
v 37.294411 300.155487 -10.367611
v -37.294411 35.232407 -10.367611
v 37.294411 35.232407 -10.367611
vt 0.569916 0.946680
vt 0.585084 0.946680
vt 0.569916 0.961848
vt 0.585084 0.961848
vt 0.569916 0.946680
vt 0.585084 0.946680
vt 0.569916 0.961848
vt 0.585084 0.961848
vn 0.000000 0.000000 1.000000
vn 0.000000 0.000000 1.000000
vn 0.000000 0.000000 1.000000
vn 0.000000 0.000000 1.000000
vn 0.000000 0.000000 -1.000000
vn 0.000000 0.000000 -1.000000
vn 0.000000 0.000000 -1.000000
vn 0.000000 0.000000 -1.000000
f 1/1/1 2/2/2 4/4/3 3/3/4
f 5/5/5 6/6/6 8/8/7 7/7/8
