# This file uses meters as units for non-parametric coordinates.

v -49.963089 25.232391 -5.626411
v 49.963089 25.232391 -5.626411
v -49.963089 313.155487 -5.626411
v 49.963089 313.155487 -5.626411
v -49.963089 313.155487 -9.897495
v 49.963089 313.155487 -9.897495
v -49.963089 25.232391 -9.897495
v 49.963089 25.232391 -9.897495
vt 0.538666 0.884180
vt 0.553834 0.884180
vt 0.538666 0.899348
vt 0.553834 0.899348
vt 0.538666 0.884180
vt 0.553834 0.884180
vt 0.538666 0.899348
vt 0.553834 0.899348
vn 0.000000 0.000000 1.000000
vn 0.000000 0.000000 1.000000
vn 0.000000 0.000000 1.000000
vn 0.000000 0.000000 1.000000
vn 0.000000 0.000000 -1.000000
vn 0.000000 0.000000 -1.000000
vn 0.000000 0.000000 -1.000000
vn 0.000000 0.000000 -1.000000
f 1/1/1 2/2/2 4/4/3 3/3/4
f 5/5/5 6/6/6 8/8/7 7/7/8
