# This file uses meters as units for non-parametric coordinates.

v -20.270435 170.926651 -4.589965
v 20.175890 170.926651 -4.589965
v -20.270435 117.068398 -4.589965
v 20.175890 117.068398 -4.589965
v 20.175890 217.531845 -4.589965
v 20.175890 178.569626 -4.589965
v -20.270439 217.531845 -4.589965
v -20.270439 178.569626 -4.589965
v -20.270435 64.826630 -4.589965
v 20.175890 64.826630 -4.589965
v -20.270435 10.968378 -4.589965
v 20.175890 10.968378 -4.589965
v 20.175890 111.431816 -4.589965
v 20.175890 72.469597 -4.589965
v -20.270439 111.431816 -4.589965
v -20.270439 72.469597 -4.589965
v -20.270435 277.026672 -4.589965
v 20.175890 277.026672 -4.589965
v -20.270435 223.168442 -4.589965
v 20.175890 223.168442 -4.589965
v 20.175890 323.631866 -4.589965
v 20.175890 284.669647 -4.589965
v -20.270439 323.631866 -4.589965
v -20.270439 284.669647 -4.589965
v -20.270435 170.926651 -11.273365
v 20.175890 170.926651 -11.273365
v -20.270435 117.068398 -11.273365
v 20.175890 117.068398 -11.273365
v 20.175890 217.531845 -11.273365
v 20.175890 178.569626 -11.273365
v -20.270439 217.531845 -11.273365
v -20.270439 178.569626 -11.273365
v -20.270435 64.826630 -11.273365
v 20.175890 64.826630 -11.273365
v -20.270435 10.968378 -11.273365
v 20.175890 10.968378 -11.273365
v 20.175890 111.431816 -11.273365
v 20.175890 72.469597 -11.273365
v -20.270439 111.431816 -11.273365
v -20.270439 72.469597 -11.273365
v -20.270435 277.026672 -11.273365
v 20.175890 277.026672 -11.273365
v -20.270435 223.168442 -11.273365
v 20.175890 223.168442 -11.273365
v 20.175890 323.631866 -11.273365
v 20.175890 284.669647 -11.273365
v -20.270439 323.631866 -11.273365
v -20.270439 284.669647 -11.273365
vt 0.534385 0.910047
vt 0.558104 0.910047
vt 0.558104 0.933767
vt 0.534385 0.933767
vt 0.534385 0.910047
vt 0.558104 0.910047
vt 0.558104 0.933767
vt 0.534385 0.933767
vt 0.534385 0.910047
vt 0.558104 0.910047
vt 0.558104 0.933767
vt 0.534385 0.933767
vt 0.534385 0.910047
vt 0.558104 0.910047
vt 0.558104 0.933767
vt 0.534385 0.933767
vt 0.534385 0.910047
vt 0.558104 0.910047
vt 0.558104 0.933767
vt 0.534385 0.933767
vt 0.534385 0.910047
vt 0.558104 0.910047
vt 0.558104 0.933767
vt 0.534385 0.933767
vt 0.534385 0.910047
vt 0.534385 0.933767
vt 0.558104 0.933767
vt 0.558104 0.910047
vt 0.534385 0.910047
vt 0.534385 0.933767
vt 0.558104 0.933767
vt 0.558104 0.910047
vt 0.534385 0.910047
vt 0.534385 0.933767
vt 0.558104 0.933767
vt 0.558104 0.910047
vt 0.534385 0.910047
vt 0.534385 0.933767
vt 0.558104 0.933767
vt 0.558104 0.910047
vt 0.534385 0.910047
vt 0.534385 0.933767
vt 0.558104 0.933767
vt 0.558104 0.910047
vt 0.534385 0.910047
vt 0.534385 0.933767
vt 0.558104 0.933767
vt 0.558104 0.910047
vn 0.000000 0.000000 1.000000
vn 0.000000 0.000000 1.000000
vn 0.000000 0.000000 1.000000
vn 0.000000 0.000000 1.000000
vn 0.000000 0.000000 1.000000
vn 0.000000 0.000000 1.000000
vn 0.000000 0.000000 1.000000
vn 0.000000 0.000000 1.000000
vn 0.000000 0.000000 1.000000
vn 0.000000 0.000000 1.000000
vn 0.000000 0.000000 1.000000
vn 0.000000 0.000000 1.000000
vn 0.000000 0.000000 1.000000
vn 0.000000 0.000000 1.000000
vn 0.000000 0.000000 1.000000
vn 0.000000 0.000000 1.000000
vn 0.000000 0.000000 1.000000
vn 0.000000 0.000000 1.000000
vn 0.000000 0.000000 1.000000
vn 0.000000 0.000000 1.000000
vn 0.000000 0.000000 1.000000
vn 0.000000 0.000000 1.000000
vn 0.000000 0.000000 1.000000
vn 0.000000 0.000000 1.000000
vn 0.000000 0.000000 -1.000000
vn 0.000000 0.000000 -1.000000
vn 0.000000 0.000000 -1.000000
vn 0.000000 0.000000 -1.000000
vn 0.000000 0.000000 -1.000000
vn 0.000000 0.000000 -1.000000
vn 0.000000 0.000000 -1.000000
vn 0.000000 0.000000 -1.000000
vn 0.000000 0.000000 -1.000000
vn 0.000000 0.000000 -1.000000
vn 0.000000 0.000000 -1.000000
vn 0.000000 0.000000 -1.000000
vn 0.000000 0.000000 -1.000000
vn 0.000000 0.000000 -1.000000
vn 0.000000 0.000000 -1.000000
vn 0.000000 0.000000 -1.000000
vn 0.000000 0.000000 -1.000000
vn 0.000000 0.000000 -1.000000
vn 0.000000 0.000000 -1.000000
vn 0.000000 0.000000 -1.000000
vn 0.000000 0.000000 -1.000000
vn 0.000000 0.000000 -1.000000
vn 0.000000 0.000000 -1.000000
vn 0.000000 0.000000 -1.000000
f 4/1/1 2/2/2 1/3/3 3/4/4
f 8/5/5 6/6/6 5/7/7 7/8/8
f 12/9/9 10/10/10 9/11/11 11/12/12
f 16/13/13 14/14/14 13/15/15 15/16/16
f 20/17/17 18/18/18 17/19/19 19/20/20
f 24/21/21 22/22/22 21/23/23 23/24/24
f 28/25/25 27/26/26 25/27/27 26/28/28
f 32/29/29 31/30/30 29/31/31 30/32/32
f 36/33/33 35/34/34 33/35/35 34/36/36
f 40/37/37 39/38/38 37/39/39 38/40/40
f 44/41/41 43/42/42 41/43/43 42/44/44
f 48/45/45 47/46/46 45/47/47 46/48/48
