# This file uses meters as units for non-parametric coordinates.

v -58.566902 5.368327 -5.589965
v 58.566902 5.368327 -5.589965
v -58.566902 332.179596 -5.589965
v 58.566902 332.179596 -5.589965
v -58.566902 332.179596 -10.273366
v 58.566902 332.179596 -10.273366
v -58.566902 5.368327 -10.273366
v 58.566902 5.368327 -10.273366
v 8.784157 332.179596 -5.589965
v -8.784157 332.179596 -10.273366
v -8.784157 5.368327 -5.589965
v -8.784157 5.368327 -10.273366
vt 0.515775 0.901019
vt 0.524124 0.901098
vt 0.524053 0.901164
vt 0.512758 0.901057
vt 0.504409 0.900977
vt 0.504480 0.900912
vt 0.504409 0.881514
vt 0.504480 0.881449
vt 0.524124 0.881635
vt 0.524053 0.881700
vt 0.512829 0.881528
vt 0.512758 0.881593
vn 0.000000 0.000000 1.000000
vn 0.000000 0.000000 1.000000
vn 0.000000 0.000000 1.000000
vn 0.000000 0.000000 1.000000
vn 0.000000 0.000000 1.000000
vn 0.000000 0.000000 1.000000
vn 0.000000 0.000000 -1.000000
vn 0.000000 0.000000 -1.000000
vn 0.000000 0.000000 -1.000000
vn 0.000000 0.000000 -1.000000
vn 0.000000 0.000000 -1.000000
vn 0.000000 0.000000 -1.000000
f 11/11/1 2/9/2 4/2/3 9/1/4 3/6/5 1/8/6
f 8/10/7 12/12/8 7/7/9 5/5/10 10/4/11 6/3/12
