# This file uses meters as units for non-parametric coordinates.

v -37.294411 35.232407 -5.156300
v 37.294411 35.232407 -5.156300
v -37.294411 300.155487 -5.156300
v 37.294411 300.155487 -5.156300
v -37.294411 300.155487 -10.367611
v 37.294411 300.155487 -10.367611
v -37.294411 35.232407 -10.367611
v 37.294411 35.232407 -10.367611
vt 0.538666 0.977930
vt 0.553834 0.977930
vt 0.538666 0.993098
vt 0.553834 0.993098
vt 0.538666 0.977930
vt 0.553834 0.977930
vt 0.538666 0.993098
vt 0.553834 0.993098
vn 0.000000 0.000000 1.000000
vn 0.000000 0.000000 1.000000
vn 0.000000 0.000000 1.000000
vn 0.000000 0.000000 1.000000
vn 0.000000 0.000000 -1.000000
vn 0.000000 0.000000 -1.000000
vn 0.000000 0.000000 -1.000000
vn 0.000000 0.000000 -1.000000
f 1/1/1 2/2/2 4/4/3 3/3/4
f 5/5/5 6/6/6 8/8/7 7/7/8
