# This file uses meters as units for non-parametric coordinates.

v -65.904900 335.699280 -5.589966
v 65.904900 335.699280 -5.589966
v -65.904900 335.699280 -10.273365
v 65.904900 335.699280 -10.273365
v -65.904900 290.139862 -5.589966
v 65.904900 290.139862 -5.589966
v -65.904900 290.139862 -10.273365
v 65.904900 290.139862 -10.273365
v -65.904900 -0.000000 -5.589966
v 65.904900 -0.000000 -5.589966
v -65.904900 -0.000000 -10.273365
v 65.904900 -0.000000 -10.273365
v -65.904900 45.559425 -5.589966
v -65.904900 45.559425 -10.273365
v 65.904900 45.559425 -5.589966
v 65.904900 45.559425 -10.273365
v -65.904900 242.182831 -5.589966
v 65.904900 242.182831 -5.589966
v 65.904900 285.344635 -5.589966
v -65.904900 285.344635 -5.589966
v -65.904900 242.182831 -10.273365
v -65.904900 285.344635 -10.273365
v 65.904900 242.182831 -10.273365
v 65.904900 285.344635 -10.273365
v -65.904900 194.225784 -5.589966
v 65.904900 194.225784 -5.589966
v 65.904900 237.387589 -5.589966
v -65.904900 237.387589 -5.589966
v -65.904900 194.225784 -10.273365
v -65.904900 237.387589 -10.273365
v 65.904900 194.225784 -10.273365
v 65.904900 237.387589 -10.273365
v -65.904900 146.268738 -5.589966
v 65.904900 146.268738 -5.589966
v 65.904900 189.430557 -5.589966
v -65.904900 189.430557 -5.589966
v -65.904900 146.268738 -10.273365
v -65.904900 189.430557 -10.273365
v 65.904900 146.268738 -10.273365
v 65.904900 189.430557 -10.273365
v -65.904900 98.311691 -5.589966
v 65.904900 98.311691 -5.589966
v 65.904900 141.473511 -5.589966
v -65.904900 141.473511 -5.589966
v -65.904900 98.311691 -10.273365
v -65.904900 141.473511 -10.273365
v 65.904900 98.311691 -10.273365
v 65.904900 141.473511 -10.273365
v -65.904900 50.354652 -5.589966
v 65.904900 50.354652 -5.589966
v 65.904900 93.516464 -5.589966
v -65.904900 93.516464 -5.589966
v -65.904900 50.354652 -10.273365
v -65.904900 93.516464 -10.273365
v 65.904900 50.354652 -10.273365
v 65.904900 93.516464 -10.273365
vt 0.565338 0.932576
vt 0.565232 0.932547
vt 0.588383 0.932442
vt 0.588490 0.932470
vt 0.565232 0.929408
vt 0.588383 0.929303
vt 0.565338 0.929437
vt 0.588490 0.929332
vt 0.565338 0.909451
vt 0.565232 0.909423
vt 0.565232 0.912561
vt 0.565338 0.912590
vt 0.588383 0.909317
vt 0.588383 0.912456
vt 0.588490 0.909346
vt 0.588490 0.912485
vt 0.565232 0.929078
vt 0.565232 0.926105
vt 0.588383 0.926000
vt 0.588383 0.928973
vt 0.565338 0.926134
vt 0.565338 0.929107
vt 0.588490 0.926029
vt 0.588490 0.929002
vt 0.565232 0.925775
vt 0.565232 0.922801
vt 0.588383 0.922696
vt 0.588383 0.925670
vt 0.565338 0.922830
vt 0.565338 0.925804
vt 0.588490 0.922725
vt 0.588490 0.925698
vt 0.565232 0.922471
vt 0.565232 0.919498
vt 0.588383 0.919393
vt 0.588383 0.922366
vt 0.565338 0.919527
vt 0.565338 0.922500
vt 0.588490 0.919422
vt 0.588490 0.922395
vt 0.565232 0.919168
vt 0.565232 0.916195
vt 0.588383 0.916089
vt 0.588383 0.919063
vt 0.565338 0.916223
vt 0.565338 0.919197
vt 0.588490 0.916118
vt 0.588490 0.919091
vt 0.565232 0.915864
vt 0.565232 0.912891
vt 0.588383 0.912786
vt 0.588383 0.915759
vt 0.565338 0.912920
vt 0.565338 0.915893
vt 0.588490 0.912815
vt 0.588490 0.915788
vn 0.000000 1.000000 0.000000
vn 0.000000 1.000000 0.000000
vn 0.000000 1.000000 0.000000
vn 0.000000 1.000000 0.000000
vn 0.000000 0.000000 1.000000
vn 0.000000 0.000000 1.000000
vn 0.000000 0.000000 1.000000
vn 0.000000 0.000000 1.000000
vn -1.000000 0.000000 0.000000
vn -1.000000 0.000000 0.000000
vn -1.000000 0.000000 0.000000
vn -1.000000 0.000000 0.000000
vn 0.000000 0.000000 -1.000000
vn 0.000000 0.000000 -1.000000
vn 0.000000 0.000000 -1.000000
vn 0.000000 0.000000 -1.000000
vn 1.000000 0.000000 0.000000
vn 1.000000 0.000000 0.000000
vn 1.000000 0.000000 0.000000
vn 1.000000 0.000000 0.000000
vn -1.000000 0.000000 0.000000
vn -1.000000 0.000000 0.000000
vn -1.000000 0.000000 0.000000
vn -1.000000 0.000000 0.000000
vn 0.000000 0.000000 1.000000
vn 0.000000 0.000000 1.000000
vn 0.000000 0.000000 1.000000
vn 0.000000 0.000000 1.000000
vn 1.000000 0.000000 0.000000
vn 1.000000 0.000000 0.000000
vn 1.000000 0.000000 0.000000
vn 1.000000 0.000000 0.000000
vn 0.000000 0.000000 -1.000000
vn 0.000000 0.000000 -1.000000
vn 0.000000 0.000000 -1.000000
vn 0.000000 0.000000 -1.000000
vn 0.000000 0.000000 1.000000
vn 0.000000 0.000000 1.000000
vn 0.000000 0.000000 1.000000
vn 0.000000 0.000000 1.000000
vn -1.000000 0.000000 0.000000
vn -1.000000 0.000000 0.000000
vn -1.000000 0.000000 0.000000
vn -1.000000 0.000000 0.000000
vn 0.000000 0.000000 -1.000000
vn 0.000000 0.000000 -1.000000
vn 0.000000 0.000000 -1.000000
vn 0.000000 0.000000 -1.000000
vn 1.000000 0.000000 0.000000
vn 1.000000 0.000000 0.000000
vn 1.000000 0.000000 0.000000
vn 1.000000 0.000000 0.000000
vn 0.000000 0.000000 1.000000
vn 0.000000 0.000000 1.000000
vn 0.000000 0.000000 1.000000
vn 0.000000 0.000000 1.000000
vn -1.000000 0.000000 0.000000
vn -1.000000 0.000000 0.000000
vn -1.000000 0.000000 0.000000
vn -1.000000 0.000000 0.000000
vn 0.000000 0.000000 -1.000000
vn 0.000000 0.000000 -1.000000
vn 0.000000 0.000000 -1.000000
vn 0.000000 0.000000 -1.000000
vn 1.000000 0.000000 0.000000
vn 1.000000 0.000000 0.000000
vn 1.000000 0.000000 0.000000
vn 1.000000 0.000000 0.000000
vn 0.000000 0.000000 1.000000
vn 0.000000 0.000000 1.000000
vn 0.000000 0.000000 1.000000
vn 0.000000 0.000000 1.000000
vn -1.000000 0.000000 0.000000
vn -1.000000 0.000000 0.000000
vn -1.000000 0.000000 0.000000
vn -1.000000 0.000000 0.000000
vn 0.000000 0.000000 -1.000000
vn 0.000000 0.000000 -1.000000
vn 0.000000 0.000000 -1.000000
vn 0.000000 0.000000 -1.000000
vn 1.000000 0.000000 0.000000
vn 1.000000 0.000000 0.000000
vn 1.000000 0.000000 0.000000
vn 1.000000 0.000000 0.000000
vn 0.000000 0.000000 1.000000
vn 0.000000 0.000000 1.000000
vn 0.000000 0.000000 1.000000
vn 0.000000 0.000000 1.000000
vn -1.000000 0.000000 0.000000
vn -1.000000 0.000000 0.000000
vn -1.000000 0.000000 0.000000
vn -1.000000 0.000000 0.000000
vn 0.000000 0.000000 -1.000000
vn 0.000000 0.000000 -1.000000
vn 0.000000 0.000000 -1.000000
vn 0.000000 0.000000 -1.000000
vn 1.000000 0.000000 0.000000
vn 1.000000 0.000000 0.000000
vn 1.000000 0.000000 0.000000
vn 1.000000 0.000000 0.000000
vn 0.000000 0.000000 1.000000
vn 0.000000 0.000000 1.000000
vn 0.000000 0.000000 1.000000
vn 0.000000 0.000000 1.000000
vn -1.000000 0.000000 0.000000
vn -1.000000 0.000000 0.000000
vn -1.000000 0.000000 0.000000
vn -1.000000 0.000000 0.000000
vn 0.000000 0.000000 -1.000000
vn 0.000000 0.000000 -1.000000
vn 0.000000 0.000000 -1.000000
vn 0.000000 0.000000 -1.000000
vn 1.000000 0.000000 0.000000
vn 1.000000 0.000000 0.000000
vn 1.000000 0.000000 0.000000
vn 1.000000 0.000000 0.000000
f 3/1/1 1/2/2 2/3/3 4/4/4
f 1/2/5 5/5/6 6/6/7 2/3/8
f 7/7/9 5/5/10 1/2/11 3/1/12
f 8/8/13 7/7/14 3/1/15 4/4/16
f 6/6/17 8/8/18 4/4/19 2/3/20
f 11/9/21 9/10/22 13/11/23 14/12/24
f 13/11/25 9/10/26 10/13/27 15/14/28
f 10/13/29 12/15/30 16/16/31 15/14/32
f 12/15/33 11/9/34 14/12/35 16/16/36
f 20/17/37 17/18/38 18/19/39 19/20/40
f 21/21/41 17/18/42 20/17/43 22/22/44
f 23/23/45 21/21/46 22/22/47 24/24/48
f 18/19/49 23/23/50 24/24/51 19/20/52
f 28/25/53 25/26/54 26/27/55 27/28/56
f 29/29/57 25/26/58 28/25/59 30/30/60
f 31/31/61 29/29/62 30/30/63 32/32/64
f 26/27/65 31/31/66 32/32/67 27/28/68
f 36/33/69 33/34/70 34/35/71 35/36/72
f 37/37/73 33/34/74 36/33/75 38/38/76
f 39/39/77 37/37/78 38/38/79 40/40/80
f 34/35/81 39/39/82 40/40/83 35/36/84
f 44/41/85 41/42/86 42/43/87 43/44/88
f 45/45/89 41/42/90 44/41/91 46/46/92
f 47/47/93 45/45/94 46/46/95 48/48/96
f 42/43/97 47/47/98 48/48/99 43/44/100
f 52/49/101 49/50/102 50/51/103 51/52/104
f 53/53/105 49/50/106 52/49/107 54/54/108
f 55/55/109 53/53/110 54/54/111 56/56/112
f 50/51/113 55/55/114 56/56/115 51/52/116
