# This file uses meters as units for non-parametric coordinates.

v 34.085388 58.360966 -5.589966
v -34.030212 58.360966 -5.589967
v -34.030212 -0.000000 -5.589966
v 34.085388 -0.000000 -5.589966
v 34.085388 58.360966 -10.273365
v -34.030212 58.360966 -10.273366
v -34.030212 -0.000000 -10.273365
v 34.085388 -0.000000 -10.273365
v 34.085388 274.937195 -5.589966
v -34.030212 274.937195 -5.589966
v -34.030212 326.699280 -5.589966
v 34.085388 326.699280 -5.589967
v 34.085388 274.937195 -10.273365
v -34.030212 274.937195 -10.273365
v -34.030212 326.699280 -10.273365
v 34.085388 326.699280 -10.273366
vt 0.588952 0.881536
vt 0.588383 0.878067
vt 0.565232 0.878173
vt 0.565800 0.881641
vt 0.588952 0.881536
vt 0.565800 0.881641
vt 0.565232 0.878173
vt 0.588383 0.878067
vt 0.588952 0.881536
vt 0.588383 0.878067
vt 0.565232 0.878173
vt 0.565800 0.881641
vt 0.565800 0.897828
vt 0.565232 0.901297
vt 0.588383 0.901192
vt 0.588952 0.897723
vt 0.565800 0.897828
vt 0.588952 0.897723
vt 0.588383 0.901192
vt 0.565232 0.901297
vt 0.565800 0.897828
vt 0.565232 0.901297
vt 0.588383 0.901192
vt 0.588952 0.897723
vn 0.000000 -0.000000 -1.000000
vn 0.000000 -0.000000 -1.000000
vn 0.000000 -0.000000 -1.000000
vn 0.000000 -0.000000 -1.000000
vn -0.000000 0.000000 1.000000
vn -0.000000 0.000000 1.000000
vn -0.000000 0.000000 1.000000
vn -0.000000 0.000000 1.000000
vn 1.000000 0.000000 0.000000
vn 1.000000 0.000000 0.000000
vn 1.000000 0.000000 0.000000
vn 1.000000 0.000000 0.000000
vn -1.000000 0.000000 0.000000
vn -1.000000 0.000000 0.000000
vn -1.000000 0.000000 0.000000
vn -1.000000 0.000000 0.000000
vn 0.000000 -1.000000 0.000000
vn 0.000000 -1.000000 0.000000
vn 0.000000 -1.000000 0.000000
vn 0.000000 -1.000000 0.000000
vn 0.000000 -0.000000 -1.000000
vn 0.000000 -0.000000 -1.000000
vn 0.000000 -0.000000 -1.000000
vn 0.000000 -0.000000 -1.000000
vn 0.000000 0.000000 1.000000
vn 0.000000 0.000000 1.000000
vn 0.000000 0.000000 1.000000
vn 0.000000 0.000000 1.000000
vn -1.000000 0.000000 0.000000
vn -1.000000 0.000000 0.000000
vn -1.000000 0.000000 0.000000
vn -1.000000 0.000000 0.000000
vn 1.000000 0.000000 0.000000
vn 1.000000 0.000000 0.000000
vn 1.000000 0.000000 0.000000
vn 1.000000 0.000000 0.000000
vn 0.000000 1.000000 0.000000
vn 0.000000 1.000000 0.000000
vn 0.000000 1.000000 0.000000
vn 0.000000 1.000000 0.000000
f 5/1/1 8/2/2 7/3/3 6/4/4
f 1/5/5 2/6/6 3/7/7 4/8/8
f 5/1/9 1/9/10 4/10/11 8/2/12
f 6/4/13 7/3/14 3/11/15 2/12/16
f 3/11/17 7/3/18 8/2/19 4/10/20
f 14/13/21 15/14/22 16/15/23 13/16/24
f 10/17/25 9/18/26 12/19/27 11/20/28
f 14/13/29 10/21/30 11/22/31 15/14/32
f 13/16/33 16/15/34 12/23/35 9/24/36
f 12/23/37 16/15/38 15/14/39 11/22/40
