# This file uses meters as units for non-parametric coordinates.

v -49.963089 25.232391 -5.626411
v 49.963089 25.232391 -5.626411
v -49.963089 313.155487 -5.626411
v 49.963089 313.155487 -5.626411
v -49.963089 313.155487 -9.897495
v 49.963089 313.155487 -9.897495
v -49.963089 25.232391 -9.897495
v 49.963089 25.232391 -9.897495
vt 0.507416 0.915430
vt 0.522584 0.915430
vt 0.507416 0.930598
vt 0.522584 0.930598
vt 0.507416 0.915430
vt 0.522584 0.915430
vt 0.507416 0.930598
vt 0.522584 0.930598
vn 0.000000 0.000000 1.000000
vn 0.000000 0.000000 1.000000
vn 0.000000 0.000000 1.000000
vn 0.000000 0.000000 1.000000
vn 0.000000 0.000000 -1.000000
vn 0.000000 0.000000 -1.000000
vn 0.000000 0.000000 -1.000000
vn 0.000000 0.000000 -1.000000
f 1/1/1 2/2/2 4/4/3 3/3/4
f 5/5/5 6/6/6 8/8/7 7/7/8
