# This file uses meters as units for non-parametric coordinates.

v 27.508743 242.913727 -10.546623
v -27.396729 242.913727 -10.546623
v -27.396729 246.795410 -10.546623
v 27.508743 246.795410 -10.546623
v 27.508743 165.272369 -10.546623
v -27.396729 165.272369 -10.546623
v -27.396729 169.154053 -10.546623
v 27.508743 169.154053 -10.546623
v 27.508743 87.631027 -10.546623
v -27.396729 87.631020 -10.546623
v -27.396729 91.512703 -10.546623
v 27.508743 91.512711 -10.546623
v -27.396729 87.631020 -5.316708
v 27.508743 87.631027 -5.316708
v 27.508743 91.512711 -5.316708
v -27.396729 91.512703 -5.316708
v -27.396729 165.272339 -5.316708
v 27.508743 165.272339 -5.316708
v 27.508743 169.154022 -5.316708
v -27.396729 169.154022 -5.316708
v -27.396729 242.913727 -5.316708
v 27.508743 242.913727 -5.316708
v 27.508743 246.795410 -5.316708
v -27.396729 246.795410 -5.316708
vt 0.555439 0.949497
vt 0.555439 0.949734
vt 0.536508 0.949734
vt 0.536508 0.949497
vt 0.555439 0.954230
vt 0.555439 0.954467
vt 0.536508 0.954467
vt 0.536508 0.954230
vt 0.555439 0.958963
vt 0.555439 0.959199
vt 0.536508 0.959199
vt 0.536508 0.958963
vt 0.536508 0.949595
vt 0.536508 0.949358
vt 0.555439 0.949358
vt 0.555439 0.949595
vt 0.536508 0.954328
vt 0.536508 0.954091
vt 0.555439 0.954091
vt 0.555439 0.954328
vt 0.536508 0.959060
vt 0.536508 0.958824
vt 0.555439 0.958824
vt 0.555439 0.959060
vn 0.000000 0.000000 -1.000000
vn 0.000000 0.000000 -1.000000
vn 0.000000 0.000000 -1.000000
vn 0.000000 0.000000 -1.000000
vn 0.000000 0.000000 -1.000000
vn 0.000000 0.000000 -1.000000
vn 0.000000 0.000000 -1.000000
vn 0.000000 0.000000 -1.000000
vn 0.000000 0.000000 -1.000000
vn 0.000000 0.000000 -1.000000
vn 0.000000 0.000000 -1.000000
vn 0.000000 0.000000 -1.000000
vn -0.000000 0.000000 1.000000
vn -0.000000 0.000000 1.000000
vn -0.000000 0.000000 1.000000
vn -0.000000 0.000000 1.000000
vn 0.000000 0.000000 1.000000
vn 0.000000 0.000000 1.000000
vn 0.000000 0.000000 1.000000
vn 0.000000 0.000000 1.000000
vn 0.000000 0.000000 1.000000
vn 0.000000 0.000000 1.000000
vn 0.000000 0.000000 1.000000
vn 0.000000 0.000000 1.000000
f 4/1/1 1/2/2 2/3/3 3/4/4
f 8/5/5 5/6/6 6/7/7 7/8/8
f 12/9/9 9/10/10 10/11/11 11/12/12
f 16/13/13 13/14/14 14/15/15 15/16/16
f 20/17/17 17/18/18 18/19/19 19/20/20
f 24/21/21 21/22/22 22/23/23 23/24/24
