# This file uses meters as units for non-parametric coordinates.

v -41.408352 71.858780 -3.397444
v 41.408352 71.858780 -3.397444
v -41.408352 146.868439 -3.397444
v 41.408352 146.868439 -3.397444
v -41.408352 146.868439 -12.047037
v 41.408352 146.868439 -12.047037
v -41.408352 71.858780 -12.047037
v 41.408352 71.858780 -12.047037
v -41.408352 188.830856 -3.397444
v 41.408352 188.830856 -3.397444
v -41.408352 263.840515 -3.397444
v 41.408352 263.840515 -3.397444
v -41.408352 263.840515 -12.047037
v 41.408352 263.840515 -12.047037
v -41.408352 188.830856 -12.047037
v 41.408352 188.830856 -12.047037
vt 0.567964 0.912718
vt 0.586952 0.912718
vt 0.567964 0.931706
vt 0.586952 0.931706
vt 0.567964 0.912719
vt 0.586952 0.912719
vt 0.567964 0.931706
vt 0.586952 0.931706
vt 0.567964 0.912718
vt 0.586952 0.912718
vt 0.586952 0.931706
vt 0.567964 0.931706
vt 0.567964 0.912718
vt 0.586952 0.912718
vt 0.586952 0.931706
vt 0.567964 0.931706
vn 0.000000 0.000000 1.000000
vn 0.000000 0.000000 1.000000
vn 0.000000 0.000000 1.000000
vn 0.000000 0.000000 1.000000
vn 0.000000 0.000000 -1.000000
vn 0.000000 0.000000 -1.000000
vn 0.000000 0.000000 -1.000000
vn 0.000000 0.000000 -1.000000
vn 0.000000 0.000000 1.000000
vn 0.000000 0.000000 1.000000
vn 0.000000 0.000000 1.000000
vn 0.000000 0.000000 1.000000
vn 0.000000 0.000000 -1.000000
vn 0.000000 0.000000 -1.000000
vn 0.000000 0.000000 -1.000000
vn 0.000000 0.000000 -1.000000
f 1/1/1 2/2/2 4/4/3 3/3/4
f 5/5/5 6/6/6 8/8/7 7/7/8
f 9/9/9 10/10/10 12/11/11 11/12/12
f 13/13/13 14/14/14 16/15/15 15/16/16
