# This file uses meters as units for non-parametric coordinates.

v -58.566902 5.368327 -5.589965
v 58.566902 5.368327 -5.589965
v -58.566902 332.179596 -5.589965
v 58.566902 332.179596 -5.589965
v -58.566902 332.179596 -10.273366
v 58.566902 332.179596 -10.273366
v -58.566902 5.368327 -10.273366
v 58.566902 5.368327 -10.273366
v 8.784157 332.179596 -5.589965
v -8.784157 332.179596 -10.273366
v -8.784157 5.368327 -5.589965
v -8.784157 5.368327 -10.273366
vt 0.578275 0.963519
vt 0.586624 0.963598
vt 0.586553 0.963664
vt 0.575258 0.963557
vt 0.566909 0.963477
vt 0.566980 0.963412
vt 0.566909 0.944014
vt 0.566980 0.943949
vt 0.586624 0.944135
vt 0.586553 0.944200
vt 0.575329 0.944028
vt 0.575258 0.944093
vn 0.000000 0.000000 1.000000
vn 0.000000 0.000000 1.000000
vn 0.000000 0.000000 1.000000
vn 0.000000 0.000000 1.000000
vn 0.000000 0.000000 1.000000
vn 0.000000 0.000000 1.000000
vn 0.000000 0.000000 -1.000000
vn 0.000000 0.000000 -1.000000
vn 0.000000 0.000000 -1.000000
vn 0.000000 0.000000 -1.000000
vn 0.000000 0.000000 -1.000000
vn 0.000000 0.000000 -1.000000
f 11/11/1 2/9/2 4/2/3 9/1/4 3/6/5 1/8/6
f 8/10/7 12/12/8 7/7/9 5/5/10 10/4/11 6/3/12
