# This file uses meters as units for non-parametric coordinates.

v -27.396736 13.660728 -5.316711
v 27.508741 13.660728 -5.316711
v -27.396736 322.038544 -5.316711
v 27.508741 322.038544 -5.316711
v -27.396736 322.038544 -10.546623
v 27.508741 322.038544 -10.546623
v -27.396736 13.660728 -10.546623
v 27.508741 13.660728 -10.546623
v -27.396736 242.913727 -5.316711
v -27.396736 246.795410 -5.316711
v 27.508741 246.795410 -5.316711
v 27.508741 242.913727 -5.316711
v -27.396736 165.272339 -5.316711
v -27.396736 169.154022 -5.316711
v 27.508741 169.154022 -5.316711
v 27.508741 165.272339 -5.316711
v -27.396736 87.631020 -5.316711
v -27.396736 91.512703 -5.316711
v 27.508741 91.512711 -5.316711
v 27.508741 87.631027 -5.316711
v 27.508741 87.631027 -10.546623
v 27.508741 91.512711 -10.546623
v -27.396736 91.512703 -10.546623
v -27.396736 87.631020 -10.546623
v 27.508741 165.272369 -10.546623
v 27.508741 169.154053 -10.546623
v -27.396736 169.154053 -10.546623
v -27.396736 165.272369 -10.546623
v 27.508741 242.913727 -10.546623
v 27.508741 246.795410 -10.546623
v -27.396736 246.795410 -10.546623
v -27.396736 242.913727 -10.546623
v -23.450247 252.438660 -3.863274
v 23.562231 252.438660 -3.863274
v 23.562231 316.395294 -3.863274
v -23.450247 316.395294 -3.863274
v -23.450247 316.395294 -12.000053
v 23.562231 316.395294 -12.000053
v 23.562231 252.438660 -12.000053
v -23.450247 252.438660 -12.000053
v -23.450247 174.686005 -3.863274
v 23.562231 174.686005 -3.863274
v 23.562231 237.381744 -3.863274
v -23.450247 237.381744 -3.863274
v -23.450247 97.044670 -3.863274
v 23.562231 97.044678 -3.863274
v 23.562231 159.740356 -3.863274
v -23.450247 159.740356 -3.863274
v -23.450247 19.208504 -3.863274
v 23.562231 19.208504 -3.863274
v 23.562231 82.083252 -3.863274
v -23.450247 82.083244 -3.863274
v -23.450247 82.083244 -12.000053
v 23.562231 82.083252 -12.000053
v 23.562231 19.208504 -12.000053
v -23.450247 19.208504 -12.000053
v -23.450247 159.740387 -12.000053
v 23.562231 159.740387 -12.000053
v 23.562231 97.044693 -12.000053
v -23.450247 97.044685 -12.000053
v -23.450247 237.381744 -12.000053
v 23.562231 237.381744 -12.000053
v 23.562231 174.686035 -12.000053
v -23.450247 174.686035 -12.000053
vt 0.555439 0.927810
vt 0.555439 0.932425
vt 0.536508 0.932425
vt 0.555439 0.923077
vt 0.536508 0.927574
vt 0.555439 0.918345
vt 0.536508 0.922841
vt 0.536508 0.913494
vt 0.555439 0.913494
vt 0.536508 0.918108
vt 0.555439 0.927949
vt 0.555439 0.932564
vt 0.536508 0.932564
vt 0.555439 0.923217
vt 0.536508 0.927713
vt 0.536508 0.913633
vt 0.555439 0.913633
vt 0.536508 0.918247
vt 0.555439 0.918484
vt 0.536508 0.922980
vt 0.536508 0.927810
vt 0.555439 0.927574
vt 0.536508 0.923077
vt 0.555439 0.922841
vt 0.536508 0.918345
vt 0.555439 0.918108
vt 0.555439 0.927713
vt 0.536508 0.927949
vt 0.555439 0.922980
vt 0.536508 0.923217
vt 0.555439 0.918247
vt 0.536508 0.918484
vt 0.536508 0.927810
vt 0.555439 0.927810
vt 0.555439 0.932425
vt 0.536508 0.932425
vt 0.536508 0.913633
vt 0.555439 0.913633
vt 0.555439 0.918247
vt 0.536508 0.918247
vt 0.536508 0.923077
vt 0.555439 0.923077
vt 0.555439 0.927574
vt 0.536508 0.927574
vt 0.536508 0.918345
vt 0.555439 0.918345
vt 0.555439 0.922841
vt 0.536508 0.922841
vt 0.536508 0.913494
vt 0.555439 0.913494
vt 0.555439 0.918108
vt 0.536508 0.918108
vt 0.536508 0.927949
vt 0.555439 0.927949
vt 0.555439 0.932564
vt 0.536508 0.932564
vt 0.536508 0.923217
vt 0.555439 0.923217
vt 0.555439 0.927713
vt 0.536508 0.927713
vt 0.536508 0.918484
vt 0.555439 0.918484
vt 0.555439 0.922980
vt 0.536508 0.922980
vn 0.000000 0.000000 1.000000
vn 0.000000 0.000000 1.000000
vn 0.000000 0.000000 1.000000
vn 0.000000 0.000000 1.000000
vn 0.000000 0.000000 -1.000000
vn 0.000000 0.000000 -1.000000
vn 0.000000 0.000000 -1.000000
vn 0.000000 0.000000 -1.000000
vn 0.000000 0.000000 1.000000
vn 0.000000 0.000000 1.000000
vn 0.000000 0.000000 1.000000
vn 0.000000 0.000000 1.000000
vn 0.000000 0.000000 1.000000
vn 0.000000 0.000000 1.000000
vn 0.000000 0.000000 1.000000
vn 0.000000 0.000000 1.000000
vn 0.000000 0.000000 1.000000
vn 0.000000 0.000000 1.000000
vn 0.000000 0.000000 1.000000
vn 0.000000 0.000000 1.000000
vn 0.000000 0.000000 -1.000000
vn 0.000000 0.000000 -1.000000
vn 0.000000 0.000000 -1.000000
vn 0.000000 0.000000 -1.000000
vn -0.000000 0.000000 -1.000000
vn -0.000000 0.000000 -1.000000
vn -0.000000 0.000000 -1.000000
vn -0.000000 0.000000 -1.000000
vn 0.000000 0.000000 -1.000000
vn 0.000000 0.000000 -1.000000
vn 0.000000 0.000000 -1.000000
vn 0.000000 0.000000 -1.000000
vn 0.000000 -0.249414 0.968397
vn 0.000000 -0.249414 0.968397
vn 0.000000 -0.249414 0.968397
vn 0.000000 -0.249414 0.968397
vn 0.345592 0.000000 0.938385
vn 0.345592 0.000000 0.938385
vn 0.345592 0.000000 0.938385
vn 0.345592 0.000000 0.938385
vn 0.000000 0.249413 0.968397
vn 0.000000 0.249413 0.968397
vn 0.000000 0.249413 0.968397
vn 0.000000 0.249413 0.968397
vn -0.345594 0.000000 0.938384
vn -0.345594 0.000000 0.938384
vn -0.345594 0.000000 0.938384
vn -0.345594 0.000000 0.938384
vn 0.000000 0.249413 -0.968397
vn 0.000000 0.249413 -0.968397
vn 0.000000 0.249413 -0.968397
vn 0.000000 0.249413 -0.968397
vn 0.345591 0.000000 -0.938385
vn 0.345591 0.000000 -0.938385
vn 0.345591 0.000000 -0.938385
vn 0.345591 0.000000 -0.938385
vn 0.000000 -0.249413 -0.968397
vn 0.000000 -0.249413 -0.968397
vn 0.000000 -0.249413 -0.968397
vn 0.000000 -0.249413 -0.968397
vn -0.345592 0.000000 -0.938385
vn -0.345592 0.000000 -0.938385
vn -0.345593 0.000000 -0.938385
vn -0.345593 0.000000 -0.938385
vn 0.000000 -0.254109 0.967176
vn 0.000000 -0.254109 0.967176
vn 0.000000 -0.254109 0.967175
vn 0.000000 -0.254109 0.967175
vn 0.345592 0.000000 0.938385
vn 0.345592 0.000000 0.938385
vn 0.345592 0.000000 0.938385
vn 0.345592 0.000000 0.938385
vn 0.000000 0.254109 0.967176
vn 0.000000 0.254109 0.967176
vn 0.000000 0.254109 0.967176
vn 0.000000 0.254109 0.967176
vn -0.345594 0.000000 0.938384
vn -0.345594 0.000000 0.938384
vn -0.345594 0.000000 0.938384
vn -0.345594 0.000000 0.938384
vn 0.000000 -0.254111 0.967175
vn 0.000000 -0.254111 0.967175
vn 0.000000 -0.254111 0.967175
vn 0.000000 -0.254111 0.967175
vn 0.345592 0.000000 0.938385
vn 0.345592 0.000000 0.938385
vn 0.345592 0.000000 0.938385
vn 0.345592 0.000000 0.938385
vn 0.000000 0.254109 0.967175
vn 0.000000 0.254109 0.967175
vn 0.000000 0.254109 0.967175
vn 0.000000 0.254109 0.967175
vn -0.345594 0.000000 0.938384
vn -0.345594 0.000000 0.938384
vn -0.345594 0.000000 0.938384
vn -0.345594 0.000000 0.938384
vn 0.000000 -0.253433 0.967353
vn 0.000000 -0.253433 0.967353
vn 0.000000 -0.253433 0.967353
vn 0.000000 -0.253433 0.967353
vn 0.345592 0.000000 0.938385
vn 0.345592 0.000000 0.938385
vn 0.345592 0.000000 0.938385
vn 0.345592 0.000000 0.938385
vn -0.000000 0.253433 0.967353
vn -0.000000 0.253433 0.967353
vn -0.000000 0.253433 0.967353
vn -0.000000 0.253433 0.967353
vn -0.345594 0.000000 0.938384
vn -0.345594 0.000000 0.938384
vn -0.345594 0.000000 0.938384
vn -0.345594 0.000000 0.938384
vn -0.000000 0.253431 -0.967353
vn -0.000000 0.253431 -0.967353
vn -0.000000 0.253431 -0.967353
vn -0.000000 0.253431 -0.967353
vn 0.345591 0.000000 -0.938385
vn 0.345591 0.000000 -0.938385
vn 0.345591 0.000000 -0.938385
vn 0.345591 0.000000 -0.938385
vn 0.000000 -0.253431 -0.967353
vn 0.000000 -0.253431 -0.967353
vn 0.000000 -0.253431 -0.967353
vn 0.000000 -0.253431 -0.967353
vn -0.345592 0.000000 -0.938385
vn -0.345592 0.000000 -0.938385
vn -0.345592 0.000000 -0.938385
vn -0.345592 0.000000 -0.938385
vn 0.000000 0.254108 -0.967176
vn 0.000000 0.254108 -0.967176
vn 0.000000 0.254108 -0.967176
vn 0.000000 0.254108 -0.967176
vn 0.345591 0.000000 -0.938385
vn 0.345591 0.000000 -0.938385
vn 0.345591 0.000000 -0.938385
vn 0.345591 0.000000 -0.938385
vn 0.000000 -0.254109 -0.967176
vn 0.000000 -0.254109 -0.967176
vn 0.000000 -0.254109 -0.967176
vn 0.000000 -0.254109 -0.967176
vn -0.345592 0.000000 -0.938385
vn -0.345592 0.000000 -0.938385
vn -0.345592 0.000000 -0.938385
vn -0.345592 0.000000 -0.938385
vn 0.000000 0.254108 -0.967176
vn 0.000000 0.254108 -0.967176
vn 0.000000 0.254108 -0.967176
vn 0.000000 0.254108 -0.967176
vn 0.345591 0.000000 -0.938385
vn 0.345591 0.000000 -0.938385
vn 0.345591 0.000000 -0.938385
vn 0.345591 0.000000 -0.938385
vn 0.000000 -0.254108 -0.967176
vn 0.000000 -0.254108 -0.967176
vn 0.000000 -0.254108 -0.967176
vn 0.000000 -0.254108 -0.967176
vn -0.345592 0.000000 -0.938385
vn -0.345592 0.000000 -0.938385
vn -0.345592 0.000000 -0.938385
vn -0.345592 0.000000 -0.938385
f 33/33/1 34/34/2 35/35/3 36/36/4
f 37/37/5 38/38/6 39/39/7 40/40/8
f 41/41/9 42/42/10 43/43/11 44/44/12
f 45/45/13 46/46/14 47/47/15 48/48/16
f 49/49/17 50/50/18 51/51/19 52/52/20
f 53/53/21 54/54/22 55/55/23 56/56/24
f 57/57/25 58/58/26 59/59/27 60/60/28
f 61/61/29 62/62/30 63/63/31 64/64/32
f 10/21/33 11/1/34 34/34/35 33/33/36
f 11/1/37 4/2/38 35/35/39 34/34/40
f 4/2/41 3/3/42 36/36/43 35/35/44
f 3/3/45 10/21/46 33/33/47 36/36/48
f 5/16/49 6/17/50 38/38/51 37/37/52
f 6/17/53 30/31/54 39/39/55 38/38/56
f 30/31/57 31/18/58 40/40/59 39/39/60
f 31/18/61 5/16/62 37/37/63 40/40/64
f 14/23/65 15/4/66 42/42/67 41/41/68
f 15/4/69 12/22/70 43/43/71 42/42/72
f 12/22/73 9/5/74 44/44/75 43/43/76
f 9/5/77 14/23/78 41/41/79 44/44/80
f 18/25/81 19/6/82 46/46/83 45/45/84
f 19/6/85 16/24/86 47/47/87 46/46/88
f 16/24/89 13/7/90 48/48/91 47/47/92
f 13/7/93 18/25/94 45/45/95 48/48/96
f 1/8/97 2/9/98 50/50/99 49/49/100
f 2/9/101 20/26/102 51/51/103 50/50/104
f 20/26/105 17/10/106 52/52/107 51/51/108
f 17/10/109 1/8/110 49/49/111 52/52/112
f 24/28/113 21/11/114 54/54/115 53/53/116
f 21/11/117 8/12/118 55/55/119 54/54/120
f 8/12/121 7/13/122 56/56/123 55/55/124
f 7/13/125 24/28/126 53/53/127 56/56/128
f 28/30/129 25/14/130 58/58/131 57/57/132
f 25/14/133 22/27/134 59/59/135 58/58/136
f 22/27/137 23/15/138 60/60/139 59/59/140
f 23/15/141 28/30/142 57/57/143 60/60/144
f 32/32/145 29/19/146 62/62/147 61/61/148
f 29/19/149 26/29/150 63/63/151 62/62/152
f 26/29/153 27/20/154 64/64/155 63/63/156
f 27/20/157 32/32/158 61/61/159 64/64/160
