# This file uses meters as units for non-parametric coordinates.

v -24.224716 9.410049 -5.156303
v 24.793962 9.410049 -5.156303
v -24.224716 325.264893 -5.156303
v 24.793962 325.264893 -5.156303
v -24.224716 325.264893 -10.367611
v 24.793962 325.264893 -10.367611
v -24.224716 9.410049 -10.367611
v 24.793962 9.410049 -10.367611
vt 0.569916 0.946680
vt 0.585084 0.946680
vt 0.569916 0.961848
vt 0.585084 0.961848
vt 0.569916 0.946680
vt 0.585084 0.946680
vt 0.569916 0.961848
vt 0.585084 0.961848
vn 0.000000 0.000000 1.000000
vn 0.000000 0.000000 1.000000
vn 0.000000 0.000000 1.000000
vn 0.000000 0.000000 1.000000
vn 0.000000 0.000000 -1.000000
vn 0.000000 0.000000 -1.000000
vn 0.000000 0.000000 -1.000000
vn 0.000000 0.000000 -1.000000
f 1/1/1 2/2/2 4/4/3 3/3/4
f 5/5/5 6/6/6 8/8/7 7/7/8
