# This file uses meters as units for non-parametric coordinates.

v -50.000000 48.338562 -7.135578
v 50.000000 48.338562 -7.135578
v -50.000000 303.323456 -7.135578
v 50.000000 303.323456 -7.135578
v -50.000000 303.323456 -8.509106
v 50.000000 303.323456 -8.509106
v -50.000000 48.338562 -8.509106
v 50.000000 48.338562 -8.509106
vt 0.535680 0.913343
vt 0.555430 0.913343
vt 0.535680 0.933093
vt 0.555430 0.933093
vt 0.535680 0.913343
vt 0.555430 0.913343
vt 0.535680 0.933093
vt 0.555430 0.933093
vn 0.000000 0.000000 1.000000
vn 0.000000 0.000000 1.000000
vn 0.000000 0.000000 1.000000
vn 0.000000 0.000000 1.000000
vn 0.000000 0.000000 -1.000000
vn 0.000000 0.000000 -1.000000
vn 0.000000 0.000000 -1.000000
vn 0.000000 0.000000 -1.000000
f 1/1/1 2/2/2 4/4/3 3/3/4
f 5/5/5 6/6/6 8/8/7 7/7/8
