# This file uses meters as units for non-parametric coordinates.

v 65.904900 290.139862 -5.589966
v 65.904900 285.344635 -5.589966
v -65.904900 290.139862 -5.589966
v -65.904900 285.344635 -5.589966
v -65.904900 285.344635 -10.273365
v -65.904900 290.139862 -10.273365
v 65.904900 285.344635 -10.273365
v 65.904900 290.139862 -10.273365
v 65.904900 242.182831 -5.589966
v 65.904900 237.387589 -5.589966
v -65.904900 242.182831 -5.589966
v -65.904900 237.387589 -5.589966
v -65.904900 237.387589 -10.273365
v -65.904900 242.182831 -10.273365
v 65.904900 237.387589 -10.273365
v 65.904900 242.182831 -10.273365
v 65.904900 194.225784 -5.589966
v 65.904900 189.430557 -5.589966
v -65.904900 194.225784 -5.589966
v -65.904900 189.430557 -5.589966
v -65.904900 189.430557 -10.273365
v -65.904900 194.225784 -10.273365
v 65.904900 189.430557 -10.273365
v 65.904900 194.225784 -10.273365
v 65.904900 146.268738 -5.589966
v 65.904900 141.473511 -5.589966
v -65.904900 146.268738 -5.589966
v -65.904900 141.473511 -5.589966
v -65.904900 141.473511 -10.273365
v -65.904900 146.268738 -10.273365
v 65.904900 141.473511 -10.273365
v 65.904900 146.268738 -10.273365
v 65.904900 98.311691 -5.589966
v 65.904900 93.516464 -5.589966
v -65.904900 98.311691 -5.589966
v -65.904900 93.516464 -5.589966
v -65.904900 93.516464 -10.273365
v -65.904900 98.311691 -10.273365
v 65.904900 93.516464 -10.273365
v 65.904900 98.311691 -10.273365
v 65.904900 50.354652 -5.589966
v 65.904900 45.559425 -5.589966
v -65.904900 45.559425 -5.589966
v -65.904900 50.354652 -5.589966
v -65.904900 45.559425 -10.273365
v -65.904900 50.354652 -10.273365
v 65.904900 45.559425 -10.273365
v 65.904900 50.354652 -10.273365
vt 0.588952 0.929303
vt 0.588952 0.928973
vt 0.589058 0.929002
vt 0.589058 0.929332
vt 0.565800 0.929408
vt 0.565800 0.929078
vt 0.565907 0.929437
vt 0.565907 0.929107
vt 0.588952 0.926000
vt 0.588952 0.925670
vt 0.589058 0.925698
vt 0.589058 0.926029
vt 0.565800 0.926105
vt 0.565800 0.925775
vt 0.565907 0.926134
vt 0.565907 0.925804
vt 0.588952 0.922696
vt 0.588952 0.922366
vt 0.589058 0.922395
vt 0.589058 0.922725
vt 0.565800 0.922801
vt 0.565800 0.922471
vt 0.565907 0.922830
vt 0.565907 0.922500
vt 0.588952 0.919393
vt 0.588952 0.919063
vt 0.589058 0.919091
vt 0.589058 0.919422
vt 0.565800 0.919498
vt 0.565800 0.919168
vt 0.565907 0.919527
vt 0.565907 0.919197
vt 0.588952 0.916089
vt 0.588952 0.915759
vt 0.589058 0.915788
vt 0.589058 0.916118
vt 0.565800 0.916195
vt 0.565800 0.915864
vt 0.565907 0.916223
vt 0.565907 0.915893
vt 0.588952 0.912786
vt 0.588952 0.912456
vt 0.589058 0.912485
vt 0.589058 0.912815
vt 0.565800 0.912891
vt 0.565800 0.912561
vt 0.565907 0.912920
vt 0.565907 0.912590
vn 1.000000 0.000000 0.000000
vn 1.000000 0.000000 0.000000
vn 1.000000 0.000000 0.000000
vn 1.000000 0.000000 0.000000
vn 0.000000 0.000000 1.000000
vn 0.000000 0.000000 1.000000
vn 0.000000 0.000000 1.000000
vn 0.000000 0.000000 1.000000
vn -1.000000 0.000000 0.000000
vn -1.000000 0.000000 0.000000
vn -1.000000 0.000000 0.000000
vn -1.000000 0.000000 0.000000
vn 0.000000 0.000000 -1.000000
vn 0.000000 0.000000 -1.000000
vn 0.000000 0.000000 -1.000000
vn 0.000000 0.000000 -1.000000
vn 1.000000 0.000000 0.000000
vn 1.000000 0.000000 0.000000
vn 1.000000 0.000000 0.000000
vn 1.000000 0.000000 0.000000
vn 0.000000 0.000000 1.000000
vn 0.000000 0.000000 1.000000
vn 0.000000 0.000000 1.000000
vn 0.000000 0.000000 1.000000
vn -1.000000 0.000000 0.000000
vn -1.000000 0.000000 0.000000
vn -1.000000 0.000000 0.000000
vn -1.000000 0.000000 0.000000
vn 0.000000 0.000000 -1.000000
vn 0.000000 0.000000 -1.000000
vn 0.000000 0.000000 -1.000000
vn 0.000000 0.000000 -1.000000
vn 1.000000 0.000000 0.000000
vn 1.000000 0.000000 0.000000
vn 1.000000 0.000000 0.000000
vn 1.000000 0.000000 0.000000
vn 0.000000 0.000000 1.000000
vn 0.000000 0.000000 1.000000
vn 0.000000 0.000000 1.000000
vn 0.000000 0.000000 1.000000
vn -1.000000 0.000000 0.000000
vn -1.000000 0.000000 0.000000
vn -1.000000 0.000000 0.000000
vn -1.000000 0.000000 0.000000
vn 0.000000 0.000000 -1.000000
vn 0.000000 0.000000 -1.000000
vn 0.000000 0.000000 -1.000000
vn 0.000000 0.000000 -1.000000
vn 1.000000 0.000000 0.000000
vn 1.000000 0.000000 0.000000
vn 1.000000 0.000000 0.000000
vn 1.000000 0.000000 0.000000
vn 0.000000 0.000000 1.000000
vn 0.000000 0.000000 1.000000
vn 0.000000 0.000000 1.000000
vn 0.000000 0.000000 1.000000
vn -1.000000 0.000000 0.000000
vn -1.000000 0.000000 0.000000
vn -1.000000 0.000000 0.000000
vn -1.000000 0.000000 0.000000
vn 0.000000 0.000000 -1.000000
vn 0.000000 0.000000 -1.000000
vn 0.000000 0.000000 -1.000000
vn 0.000000 0.000000 -1.000000
vn 1.000000 0.000000 0.000000
vn 1.000000 0.000000 0.000000
vn 1.000000 0.000000 0.000000
vn 1.000000 0.000000 0.000000
vn 0.000000 0.000000 1.000000
vn 0.000000 0.000000 1.000000
vn 0.000000 0.000000 1.000000
vn 0.000000 0.000000 1.000000
vn -1.000000 0.000000 0.000000
vn -1.000000 0.000000 0.000000
vn -1.000000 0.000000 0.000000
vn -1.000000 0.000000 0.000000
vn 0.000000 0.000000 -1.000000
vn 0.000000 0.000000 -1.000000
vn 0.000000 0.000000 -1.000000
vn 0.000000 0.000000 -1.000000
vn 1.000000 0.000000 0.000000
vn 1.000000 0.000000 0.000000
vn 1.000000 0.000000 0.000000
vn 1.000000 0.000000 0.000000
vn 0.000000 0.000000 1.000000
vn 0.000000 0.000000 1.000000
vn 0.000000 0.000000 1.000000
vn 0.000000 0.000000 1.000000
vn -1.000000 0.000000 0.000000
vn -1.000000 0.000000 0.000000
vn -1.000000 0.000000 0.000000
vn -1.000000 0.000000 0.000000
vn 0.000000 0.000000 -1.000000
vn 0.000000 0.000000 -1.000000
vn 0.000000 0.000000 -1.000000
vn 0.000000 0.000000 -1.000000
f 1/1/1 2/2/2 7/3/3 8/4/4
f 2/2/5 1/1/6 3/5/7 4/6/8
f 4/6/9 3/5/10 6/7/11 5/8/12
f 5/8/13 6/7/14 8/4/15 7/3/16
f 9/9/17 10/10/18 15/11/19 16/12/20
f 10/10/21 9/9/22 11/13/23 12/14/24
f 12/14/25 11/13/26 14/15/27 13/16/28
f 13/16/29 14/15/30 16/12/31 15/11/32
f 17/17/33 18/18/34 23/19/35 24/20/36
f 18/18/37 17/17/38 19/21/39 20/22/40
f 20/22/41 19/21/42 22/23/43 21/24/44
f 21/24/45 22/23/46 24/20/47 23/19/48
f 25/25/49 26/26/50 31/27/51 32/28/52
f 26/26/53 25/25/54 27/29/55 28/30/56
f 28/30/57 27/29/58 30/31/59 29/32/60
f 29/32/61 30/31/62 32/28/63 31/27/64
f 33/33/65 34/34/66 39/35/67 40/36/68
f 34/34/69 33/33/70 35/37/71 36/38/72
f 36/38/73 35/37/74 38/39/75 37/40/76
f 37/40/77 38/39/78 40/36/79 39/35/80
f 41/41/81 42/42/82 47/43/83 48/44/84
f 42/42/85 41/41/86 44/45/87 43/46/88
f 43/46/89 44/45/90 46/47/91 45/48/92
f 45/48/93 46/47/94 48/44/95 47/43/96
