# This file uses meters as units for non-parametric coordinates.

v -50.000000 24.820786 -7.135578
v 50.000000 24.820786 -7.135578
v -50.000000 314.216278 -7.135578
v 50.000000 314.216278 -7.135578
v -50.000000 314.216278 -8.509106
v 50.000000 314.216278 -8.509106
v -50.000000 24.820786 -8.509106
v 50.000000 24.820786 -8.509106
vt 0.566930 0.882093
vt 0.586680 0.882093
vt 0.566930 0.901843
vt 0.586680 0.901843
vt 0.566930 0.882093
vt 0.586680 0.882093
vt 0.566930 0.901843
vt 0.586680 0.901843
vn 0.000000 0.000000 1.000000
vn 0.000000 0.000000 1.000000
vn 0.000000 0.000000 1.000000
vn 0.000000 0.000000 1.000000
vn 0.000000 0.000000 -1.000000
vn 0.000000 0.000000 -1.000000
vn 0.000000 0.000000 -1.000000
vn 0.000000 0.000000 -1.000000
f 1/1/1 2/2/2 4/4/3 3/3/4
f 5/5/5 6/6/6 8/8/7 7/7/8
