# This file uses meters as units for non-parametric coordinates.

v -26.692215 5.368327 -5.589965
v 26.201416 5.368327 -5.589965
v -26.692215 332.179596 -5.589965
v 26.201416 332.179596 -5.589965
v -26.692215 332.179596 -10.273366
v 26.201416 332.179596 -10.273366
v -26.692215 5.368327 -10.273366
v 26.201416 5.368327 -10.273366
vt 0.555374 0.901098
vt 0.555303 0.901164
vt 0.535659 0.900977
vt 0.535730 0.900912
vt 0.535659 0.881514
vt 0.535730 0.881449
vt 0.555374 0.881635
vt 0.555303 0.881700
vn 0.000000 0.000000 1.000000
vn 0.000000 0.000000 1.000000
vn 0.000000 0.000000 1.000000
vn 0.000000 0.000000 1.000000
vn 0.000000 0.000000 -1.000000
vn 0.000000 0.000000 -1.000000
vn 0.000000 0.000000 -1.000000
vn 0.000000 0.000000 -1.000000
f 1/6/1 2/7/2 4/1/3 3/4/4
f 8/8/5 7/5/6 5/3/7 6/2/8
