# This file uses meters as units for non-parametric coordinates.

v 65.839180 58.360966 -10.273365
v -65.783997 58.360966 -10.273366
v -65.783997 274.937195 -10.273365
v 65.839180 274.937195 -10.273365
v 65.839180 274.937195 -5.589966
v -65.783997 274.937195 -5.589966
v -65.783997 58.360966 -5.589967
v 65.839180 58.360966 -5.589966
vt 0.588383 0.975286
vt 0.565232 0.975391
vt 0.565232 0.991578
vt 0.588383 0.991473
vt 0.588383 0.975286
vt 0.588383 0.991473
vt 0.565232 0.991578
vt 0.565232 0.975391
vt 0.588383 0.975286
vt 0.588383 0.991473
vt 0.565232 0.991578
vt 0.565232 0.975391
vn 0.000000 0.000000 -1.000000
vn 0.000000 0.000000 -1.000000
vn 0.000000 0.000000 -1.000000
vn 0.000000 0.000000 -1.000000
vn -0.000000 -0.000000 1.000000
vn -0.000000 -0.000000 1.000000
vn -0.000000 -0.000000 1.000000
vn -0.000000 -0.000000 1.000000
vn 1.000000 0.000000 0.000000
vn 1.000000 0.000000 0.000000
vn 1.000000 0.000000 0.000000
vn 1.000000 0.000000 0.000000
vn -1.000000 0.000000 0.000000
vn -1.000000 0.000000 0.000000
vn -1.000000 0.000000 0.000000
vn -1.000000 0.000000 0.000000
f 1/1/1 2/2/2 3/3/3 4/4/4
f 8/5/5 5/6/6 6/7/7 7/8/8
f 8/9/9 1/1/10 4/4/11 5/10/12
f 6/11/13 3/3/14 2/2/15 7/12/16
