# This file uses meters as units for non-parametric coordinates.

v 38.345467 171.185043 0.142314
v -38.345467 171.185043 0.142314
v 38.345467 5.171822 0.142314
v -38.345467 5.171822 0.142314
v 38.345467 5.171822 -0.142314
v -38.345467 5.171822 -0.142314
v 38.345467 171.185043 -0.142314
v -38.345467 171.185043 -0.142314
vt 0.537167 0.882162
vt 0.555206 0.882162
vt 0.537167 0.900201
vt 0.555206 0.900201
vt 0.537167 0.882162
vt 0.555206 0.882162
vt 0.537167 0.900200
vt 0.555206 0.900200
vn 0.000000 0.000000 1.000000
vn 0.000000 0.000000 1.000000
vn 0.000000 0.000000 1.000000
vn 0.000000 0.000000 1.000000
vn 0.000000 0.000000 -1.000000
vn 0.000000 0.000000 -1.000000
vn 0.000000 0.000000 -1.000000
vn 0.000000 0.000000 -1.000000
f 1/1/1 2/2/2 4/4/3 3/3/4
f 5/5/5 6/6/6 8/8/7 7/7/8
