# This file uses meters as units for non-parametric coordinates.

v 38.345467 171.185043 0.142314
v -38.345467 171.185043 0.142314
v 38.345467 5.171822 0.142314
v -38.345467 5.171822 0.142314
v 38.345467 5.171822 -0.142314
v -38.345467 5.171822 -0.142314
v 38.345467 171.185043 -0.142314
v -38.345467 171.185043 -0.142314
vt 0.537167 0.975912
vt 0.555206 0.975912
vt 0.537167 0.993951
vt 0.555206 0.993951
vt 0.537167 0.975912
vt 0.555206 0.975912
vt 0.537167 0.993950
vt 0.555206 0.993950
vn 0.000000 0.000000 1.000000
vn 0.000000 0.000000 1.000000
vn 0.000000 0.000000 1.000000
vn 0.000000 0.000000 1.000000
vn 0.000000 0.000000 -1.000000
vn 0.000000 0.000000 -1.000000
vn 0.000000 0.000000 -1.000000
vn 0.000000 0.000000 -1.000000
f 1/1/1 2/2/2 4/4/3 3/3/4
f 5/5/5 6/6/6 8/8/7 7/7/8
