# This file uses meters as units for non-parametric coordinates.

v 97.428925 165.568604 2.365074
v -97.477127 165.568604 2.365074
v 97.428925 54.759262 2.365074
v -97.477127 54.759262 2.365074
v 97.428925 54.759262 2.080446
v -97.477127 54.759262 2.080446
v 97.428925 165.568604 2.080446
v -97.477127 165.568604 2.080446
vt 0.505917 0.975912
vt 0.523956 0.975912
vt 0.505917 0.993951
vt 0.523956 0.993951
vt 0.505917 0.975912
vt 0.523956 0.975912
vt 0.505917 0.993950
vt 0.523956 0.993950
vn 0.000000 0.000000 1.000000
vn 0.000000 0.000000 1.000000
vn 0.000000 0.000000 1.000000
vn 0.000000 0.000000 1.000000
vn 0.000000 0.000000 -1.000000
vn 0.000000 0.000000 -1.000000
vn 0.000000 0.000000 -1.000000
vn 0.000000 0.000000 -1.000000
f 1/1/1 2/2/2 4/4/3 3/3/4
f 5/5/5 6/6/6 8/8/7 7/7/8
