# This file uses meters as units for non-parametric coordinates.

v 100.000015 170.790375 0.142314
v -100.000122 170.790375 0.142314
v 100.000015 4.777153 0.142314
v -100.000122 4.777153 0.142314
v 100.000015 4.777153 -0.142314
v -100.000122 4.777153 -0.142314
v 100.000015 170.790375 -0.142314
v -100.000122 170.790375 -0.142314
vt 0.537167 0.913412
vt 0.555206 0.913412
vt 0.537167 0.931451
vt 0.555206 0.931451
vt 0.537167 0.913412
vt 0.555206 0.913412
vt 0.537167 0.931450
vt 0.555206 0.931450
vn 0.000000 0.000000 1.000000
vn 0.000000 0.000000 1.000000
vn 0.000000 0.000000 1.000000
vn 0.000000 0.000000 1.000000
vn 0.000000 0.000000 -1.000000
vn 0.000000 0.000000 -1.000000
vn 0.000000 0.000000 -1.000000
vn 0.000000 0.000000 -1.000000
f 1/1/1 2/2/2 4/4/3 3/3/4
f 5/5/5 6/6/6 8/8/7 7/7/8
