# This file uses meters as units for non-parametric coordinates.

v 73.290298 47.988129 2.365074
v 2.150841 47.988129 2.365074
v 73.290298 9.646255 2.365074
v 2.150841 9.646255 2.365074
v 73.290298 9.646255 2.080446
v 2.150841 9.646255 2.080446
v 73.290298 47.988129 2.080446
v 2.150841 47.988129 2.080446
vt 0.537167 0.944662
vt 0.555206 0.944662
vt 0.537167 0.962701
vt 0.555206 0.962701
vt 0.537167 0.944662
vt 0.555206 0.944662
vt 0.537167 0.962700
vt 0.555206 0.962700
vn 0.000000 0.000000 1.000000
vn 0.000000 0.000000 1.000000
vn 0.000000 0.000000 1.000000
vn 0.000000 0.000000 1.000000
vn 0.000000 0.000000 -1.000000
vn 0.000000 0.000000 -1.000000
vn 0.000000 0.000000 -1.000000
vn 0.000000 0.000000 -1.000000
f 1/1/1 2/2/2 4/4/3 3/3/4
f 5/5/5 6/6/6 8/8/7 7/7/8
