# This file uses meters as units for non-parametric coordinates.

v 75.117996 15.475075 -0.508172
v 75.118004 160.148987 -0.508172
v 3.475418 15.475075 -0.508172
v 3.475418 160.148972 -0.508172
v 3.475418 15.475075 -0.792799
v 3.475418 160.148972 -0.792799
v 75.117996 15.475075 -0.792799
v 75.118004 160.148987 -0.792799
vt 0.537167 0.944662
vt 0.555206 0.944662
vt 0.537167 0.962701
vt 0.555206 0.962701
vt 0.537167 0.944662
vt 0.555206 0.944662
vt 0.537167 0.962700
vt 0.555206 0.962700
vn 0.000000 0.000000 1.000000
vn 0.000000 0.000000 1.000000
vn 0.000000 0.000000 1.000000
vn 0.000000 0.000000 1.000000
vn -0.000000 0.000000 -1.000000
vn -0.000000 0.000000 -1.000000
vn -0.000000 0.000000 -1.000000
vn -0.000000 0.000000 -1.000000
f 1/1/1 2/2/2 4/4/3 3/3/4
f 5/5/5 6/6/6 8/8/7 7/7/8
