# This file uses meters as units for non-parametric coordinates.

v -1.215397 47.988129 -1.648130
v -72.354851 47.988129 -1.648130
v -1.215397 9.646255 -1.648130
v -72.354851 9.646255 -1.648130
v -1.215397 9.646255 -1.932758
v -72.354851 9.646255 -1.932758
v -1.215397 47.988129 -1.932758
v -72.354851 47.988129 -1.932758
vt 0.537167 0.913412
vt 0.555206 0.913412
vt 0.537167 0.931451
vt 0.555206 0.931451
vt 0.537167 0.913412
vt 0.555206 0.913412
vt 0.537167 0.931450
vt 0.555206 0.931450
vn 0.000000 0.000000 1.000000
vn 0.000000 0.000000 1.000000
vn 0.000000 0.000000 1.000000
vn 0.000000 0.000000 1.000000
vn 0.000000 0.000000 -1.000000
vn 0.000000 0.000000 -1.000000
vn 0.000000 0.000000 -1.000000
vn 0.000000 0.000000 -1.000000
f 1/1/1 2/2/2 4/4/3 3/3/4
f 5/5/5 6/6/6 8/8/7 7/7/8
