# This file uses meters as units for non-parametric coordinates.

v -72.319046 89.418335 -1.834208
v 72.354851 89.418335 -1.834208
v -72.319046 165.166992 -1.834208
v 72.354851 165.166992 -1.834208
v -72.319046 165.166992 -2.118835
v 72.354851 165.166992 -2.118835
v -72.319046 89.418335 -2.118835
v 72.354851 89.418335 -2.118835
vt 0.537167 0.944662
vt 0.555206 0.944662
vt 0.537167 0.962701
vt 0.555206 0.962701
vt 0.537167 0.944662
vt 0.555206 0.944662
vt 0.537167 0.962700
vt 0.555206 0.962700
vn 0.000000 0.000000 1.000000
vn 0.000000 0.000000 1.000000
vn 0.000000 0.000000 1.000000
vn 0.000000 0.000000 1.000000
vn 0.000000 0.000000 -1.000000
vn 0.000000 0.000000 -1.000000
vn 0.000000 0.000000 -1.000000
vn 0.000000 0.000000 -1.000000
f 1/1/1 2/2/2 4/4/3 3/3/4
f 5/5/5 6/6/6 8/8/7 7/7/8
