# This file uses meters as units for non-parametric coordinates.

v -3.841419 -0.000000 13.417615
v 3.841419 -0.000000 13.417615
v -3.841419 2.655436 13.417615
v 3.841419 2.655436 13.417615
v -3.841419 2.655436 -16.476197
v 3.841419 2.655436 -16.476197
v -3.841419 -0.000000 -16.476197
v 3.841419 -0.000000 -16.476197
v 4.532249 1.327718 13.935319
v -4.532249 1.327718 13.935319
v -4.532249 1.327718 -16.993901
v 4.532249 1.327718 -16.993901
vt 0.354695 0.973448
vt 0.358440 0.973461
vt 0.358441 0.973272
vt 0.354696 0.973258
vt 0.354695 0.973571
vt 0.358440 0.973584
vt 0.358384 0.989573
vt 0.354639 0.989560
vt 0.354638 0.989750
vt 0.358383 0.989763
vt 0.358384 0.989450
vt 0.354639 0.989437
vn 0.000000 -0.363281 0.931680
vn 0.000000 -0.363281 0.931680
vn 0.000000 -0.000000 1.000000
vn 0.000000 -0.000000 1.000000
vn 0.000000 1.000000 0.000000
vn 0.000000 1.000000 0.000000
vn 0.000000 1.000000 0.000000
vn 0.000000 1.000000 0.000000
vn 0.000000 -0.000000 -1.000000
vn 0.000000 -0.000000 -1.000000
vn 0.000000 -0.363281 -0.931680
vn 0.000000 -0.363281 -0.931680
vn 0.000000 -1.000000 0.000000
vn 0.000000 -1.000000 0.000000
vn 0.000000 -1.000000 0.000000
vn 0.000000 -1.000000 0.000000
vn 0.887103 -0.461572 0.000000
vn 0.887103 -0.461572 0.000000
vn 1.000000 0.000000 0.000000
vn 1.000000 0.000000 0.000000
vn -0.887103 -0.461572 0.000000
vn -0.887103 -0.461572 0.000000
vn -1.000000 0.000000 0.000000
vn -1.000000 0.000000 0.000000
vn 0.000000 0.363281 0.931680
vn 0.000000 0.363281 0.931680
vn -0.887103 0.461572 0.000000
vn -0.887103 0.461572 0.000000
vn 0.000000 0.363281 -0.931680
vn 0.000000 0.363281 -0.931680
vn 0.887103 0.461572 0.000000
vn 0.887103 0.461572 0.000000
f 1/1/1 2/2/2 9/3/3 10/4/4
f 3/5/5 4/6/6 6/7/7 5/8/8
f 11/9/9 12/10/10 8/11/11 7/12/12
f 7/12/13 8/11/14 2/2/15 1/1/16
f 2/2/17 8/11/18 12/10/19 9/3/20
f 7/12/21 1/1/22 10/4/23 11/9/24
f 10/4/4 9/3/3 4/6/25 3/5/26
f 11/9/24 10/4/23 3/5/27 5/8/28
f 5/8/29 6/7/30 12/10/10 11/9/9
f 9/3/20 12/10/19 6/7/31 4/6/32
