# This file uses meters as units for non-parametric coordinates.

v -3.183872 2.677577 8.212552
v 3.183872 2.677577 8.212552
v 3.183872 2.677577 -15.544164
v -3.183872 2.677577 -15.544164
v -3.183872 2.677577 11.888157
v 3.183872 2.677577 11.888157
v 3.183872 2.677577 9.476739
v -3.183872 2.677577 9.476739
vt 0.159642 0.791936
vt 0.159642 0.801474
vt 0.126734 0.801474
vt 0.126734 0.791936
vt 0.000913 0.781950
vt 0.061690 0.781950
vt 0.061690 0.811327
vt 0.000913 0.811327
vn 0.000000 1.000000 0.000000
vn 0.000000 1.000000 0.000000
vn 0.000000 1.000000 0.000000
vn 0.000000 1.000000 0.000000
vn 0.000000 1.000000 0.000000
vn 0.000000 1.000000 0.000000
vn 0.000000 1.000000 0.000000
vn 0.000000 1.000000 0.000000
f 1/1/1 2/2/2 3/3/3 4/4/4
f 5/5/5 6/6/6 7/7/7 8/8/8
