# This file uses meters as units for non-parametric coordinates.

v -3.183872 2.677577 5.931167
v 3.183872 2.677577 5.931167
v 3.183872 2.677577 -9.978281
v -3.183872 2.677577 -9.978281
v -3.183872 2.677577 8.528160
v 3.183872 2.677577 8.528160
v 3.183872 2.677577 6.116743
v -3.183872 2.677577 6.116743
vt 0.150626 0.781132
vt 0.150626 0.790671
vt 0.126734 0.790671
vt 0.126734 0.781132
vt 0.000913 0.781950
vt 0.061690 0.781950
vt 0.061690 0.811327
vt 0.000913 0.811327
vn 0.000000 1.000000 0.000000
vn 0.000000 1.000000 0.000000
vn 0.000000 1.000000 0.000000
vn 0.000000 1.000000 0.000000
vn 0.000000 1.000000 0.000000
vn 0.000000 1.000000 0.000000
vn 0.000000 1.000000 0.000000
vn 0.000000 1.000000 0.000000
f 1/1/1 2/2/2 3/3/3 4/4/4
f 5/5/5 6/6/6 7/7/7 8/8/8
