# This file uses meters as units for non-parametric coordinates.

v -3.183872 2.677577 4.897473
v 3.183872 2.677577 4.897473
v 3.183872 2.677577 -9.493734
v -3.183872 2.677577 -9.493734
v -3.183872 2.677577 7.771426
v 3.183872 2.677577 7.771426
v 3.183872 2.677577 5.360009
v -3.183872 2.677577 5.360009
vt 0.160981 0.784802
vt 0.170520 0.784801
vt 0.170520 0.800427
vt 0.160981 0.800427
vt 0.000913 0.781950
vt 0.061690 0.781950
vt 0.061690 0.811327
vt 0.000913 0.811327
vn 0.000000 1.000000 0.000000
vn 0.000000 1.000000 0.000000
vn 0.000000 1.000000 0.000000
vn 0.000000 1.000000 0.000000
vn 0.000000 1.000000 0.000000
vn 0.000000 1.000000 0.000000
vn 0.000000 1.000000 0.000000
vn 0.000000 1.000000 0.000000
f 1/1/1 2/2/2 3/3/3 4/4/4
f 5/5/5 6/6/6 7/7/7 8/8/8
