# This file uses meters as units for non-parametric coordinates.

v -43.720860 300.000000 -3.015679
v -43.720860 335.699280 -3.015679
v 43.720860 335.699280 -3.015679
v 43.720860 300.000000 -3.015679
v -43.720860 300.000000 -12.847653
v -43.720860 335.699280 -12.847653
v 43.720860 335.699280 -12.847653
v 43.720860 300.000000 -12.847653
v -22.138353 278.333435 -4.412697
v -22.138353 72.350845 -4.412697
v -22.138353 72.350845 -11.450634
v -22.138353 278.333435 -11.450634
v 22.138353 278.333435 -11.450634
v 22.138353 72.350845 -11.450634
v 22.138353 72.350845 -4.412697
v 22.138353 278.333435 -4.412697
v -43.720860 50.684284 -3.015679
v -43.720860 0.000000 -3.015679
v 43.720860 0.000000 -3.015679
v 43.720860 50.684284 -3.015679
v -43.720860 0.000000 -12.847653
v -43.720860 50.684284 -12.847653
v 43.720860 50.684284 -12.847653
v 43.720860 0.000000 -12.847653
v -65.904900 0.000000 -2.878771
v 65.904900 0.000000 -2.878771
v -65.904900 335.699280 -2.878771
v 65.904900 335.699280 -2.878771
v -65.904900 152.798721 -2.878771
v 65.904900 152.798721 -2.878771
v -65.904900 251.774460 -2.878771
v 65.904900 251.774460 -2.878771
v -43.720860 0.000000 -1.858817
v -43.720860 152.798721 -1.858817
v -43.720860 251.774460 -1.858817
v -43.720860 335.699280 -1.858817
v 43.720860 335.699280 -1.858817
v 43.720860 251.774460 -1.858817
v 43.720860 152.798721 -1.858817
v 43.720860 0.000000 -1.858817
v -43.720860 50.684284 -1.858817
v -65.904900 50.684284 -2.878771
v 65.904900 50.684284 -2.878771
v 43.720860 50.684284 -1.858817
v -65.904900 251.774460 -12.984560
v -43.720860 251.774460 -14.004514
v -65.904900 335.699280 -12.984560
v -43.720860 335.699280 -14.004514
v 65.904900 251.774460 -12.984560
v 43.720860 251.774460 -14.004514
v 43.720860 335.699280 -14.004514
v 65.904900 335.699280 -12.984560
v -65.904900 0.000000 -12.984560
v -65.904900 50.684284 -12.984560
v -43.720860 -0.000000 -14.004514
v -43.720860 50.684284 -14.004514
v 43.720860 -0.000000 -14.004514
v 65.904900 0.000000 -12.984560
v 65.904900 50.684284 -12.984560
v 43.720860 50.684284 -14.004514
v -65.904900 152.798721 -12.984560
v -43.720860 152.798721 -14.004514
v 43.720860 152.798721 -14.004514
v 65.904900 152.798721 -12.984560
vt 0.761345 0.738343
vt 0.860157 0.738343
vt 0.860118 0.738343
vt 0.761306 0.738343
vt 0.754492 0.632675
vt 0.866932 0.632675
vt 0.860157 0.639492
vt 0.761345 0.639492
vt 0.761293 0.639539
vt 0.860143 0.639539
vt 0.860143 0.738351
vt 0.761293 0.738351
vt 0.754476 0.745138
vt 0.866961 0.745138
vt 0.866961 0.632697
vt 0.754476 0.632697
vt 0.761345 0.738343
vt 0.761345 0.639492
vt 0.860157 0.639492
vt 0.860157 0.738343
vt 0.866932 0.745160
vt 0.866932 0.632675
vt 0.754492 0.632675
vt 0.754492 0.745160
vt 0.759423 0.728228
vt 0.759423 0.696141
vt 0.855352 0.696081
vt 0.855352 0.728138
vt 0.855352 0.696081
vt 0.855352 0.728138
vt 0.759423 0.695909
vt 0.759423 0.727878
vt 0.855352 0.727789
vt 0.855352 0.695850
vt 0.855352 0.695850
vt 0.855352 0.727789
vt 0.860041 0.728498
vt 0.860041 0.728498
vt 0.789962 0.728474
vt 0.789962 0.728474
vt 0.860041 0.696321
vt 0.789962 0.696304
vt 0.860041 0.696088
vt 0.860041 0.728148
vt 0.789962 0.728124
vt 0.789962 0.696072
vt 0.860041 0.728148
vt 0.789962 0.728124
vt 0.759423 0.728228
vt 0.854884 0.728318
vt 0.854884 0.728318
vt 0.854884 0.696201
vt 0.854884 0.695969
vt 0.854884 0.727968
vt 0.854884 0.727968
vt 0.759423 0.727878
vt 0.789962 0.696304
vt 0.854884 0.696201
vt 0.759423 0.695909
vt 0.854884 0.695969
vt 0.860041 0.696321
vt 0.860041 0.696088
vt 0.789962 0.696072
vt 0.759423 0.696141
vn 0.000000 1.000000 0.000000
vn 0.000000 1.000000 0.000000
vn 0.000000 1.000000 0.000000
vn 0.000000 1.000000 0.000000
vn 0.000000 -1.000000 0.000000
vn 0.000000 -1.000000 0.000000
vn 0.000000 -1.000000 0.000000
vn 0.000000 -1.000000 0.000000
vn 0.000000 0.000000 1.000000
vn 0.000000 0.000000 1.000000
vn 0.000000 0.000000 1.000000
vn 0.000000 0.000000 1.000000
vn 0.000000 0.000000 -1.000000
vn 0.000000 0.000000 -1.000000
vn 0.000000 0.000000 -1.000000
vn 0.000000 0.000000 -1.000000
vn 0.000000 0.000000 1.000000
vn 0.000000 0.000000 1.000000
vn 0.000000 0.000000 1.000000
vn 0.000000 0.000000 1.000000
vn 0.000000 0.000000 -1.000000
vn 0.000000 0.000000 -1.000000
vn 0.000000 0.000000 -1.000000
vn 0.000000 0.000000 -1.000000
vn 0.000000 1.000000 0.000000
vn 0.000000 1.000000 0.000000
vn 0.000000 1.000000 0.000000
vn 0.000000 1.000000 0.000000
vn 0.000000 -1.000000 0.000000
vn 0.000000 -1.000000 0.000000
vn 0.000000 -1.000000 0.000000
vn 0.000000 -1.000000 0.000000
vn 0.000000 0.000000 1.000000
vn 0.000000 0.000000 1.000000
vn 0.000000 0.000000 1.000000
vn 0.000000 0.000000 1.000000
vn 0.000000 0.000000 -1.000000
vn 0.000000 0.000000 -1.000000
vn 0.000000 0.000000 -1.000000
vn 0.000000 0.000000 -1.000000
vn 0.000000 1.000000 0.000000
vn 0.000000 1.000000 0.000000
vn 0.000000 1.000000 0.000000
vn 0.000000 1.000000 0.000000
vn -0.045928 0.000000 0.998945
vn -0.045928 0.000000 0.998945
vn -0.045928 0.000000 0.998945
vn -0.045928 0.000000 0.998945
vn 0.000000 1.000000 0.000000
vn 0.000000 1.000000 0.000000
vn 0.000000 1.000000 0.000000
vn 0.000000 1.000000 0.000000
vn 0.045928 0.000000 0.998945
vn 0.045928 0.000000 0.998945
vn 0.045928 0.000000 0.998945
vn 0.045928 0.000000 0.998945
vn 0.000000 1.000000 0.000000
vn 0.000000 1.000000 0.000000
vn 0.000000 1.000000 0.000000
vn 0.000000 1.000000 0.000000
vn -1.000000 0.000000 0.000000
vn -1.000000 0.000000 0.000000
vn -1.000000 0.000000 0.000000
vn -1.000000 0.000000 0.000000
vn -0.045928 0.000000 0.998945
vn -0.045928 0.000000 0.998945
vn -0.045928 0.000000 0.998945
vn -0.045928 0.000000 0.998945
vn 0.045928 0.000000 0.998945
vn 0.045928 0.000000 0.998945
vn 0.045928 0.000000 0.998945
vn 0.045928 0.000000 0.998945
vn 1.000000 0.000000 0.000000
vn 1.000000 0.000000 0.000000
vn 1.000000 0.000000 0.000000
vn 1.000000 0.000000 0.000000
vn -1.000000 0.000000 0.000000
vn -1.000000 0.000000 0.000000
vn -1.000000 0.000000 0.000000
vn -1.000000 0.000000 0.000000
vn -0.045928 0.000000 0.998945
vn -0.045928 0.000000 0.998945
vn -0.045928 0.000000 0.998945
vn -0.045928 0.000000 0.998945
vn 0.045928 0.000000 0.998945
vn 0.045928 0.000000 0.998945
vn 0.045928 0.000000 0.998945
vn 0.045928 0.000000 0.998945
vn 1.000000 0.000000 0.000000
vn 1.000000 0.000000 0.000000
vn 1.000000 0.000000 0.000000
vn 1.000000 0.000000 0.000000
vn -1.000000 0.000000 0.000000
vn -1.000000 0.000000 0.000000
vn -1.000000 0.000000 0.000000
vn -1.000000 0.000000 0.000000
vn 1.000000 0.000000 0.000000
vn 1.000000 0.000000 0.000000
vn 1.000000 0.000000 0.000000
vn 1.000000 0.000000 0.000000
vn 1.000000 0.000000 0.000000
vn 1.000000 0.000000 0.000000
vn 1.000000 0.000000 0.000000
vn 1.000000 0.000000 0.000000
vn -1.000000 0.000000 0.000000
vn -1.000000 0.000000 0.000000
vn -1.000000 0.000000 0.000000
vn -1.000000 0.000000 0.000000
vn -1.000000 0.000000 0.000000
vn -1.000000 0.000000 0.000000
vn -1.000000 0.000000 0.000000
vn -1.000000 0.000000 0.000000
vn 1.000000 0.000000 0.000000
vn 1.000000 0.000000 0.000000
vn 1.000000 0.000000 0.000000
vn 1.000000 0.000000 0.000000
vn -1.000000 0.000000 0.000000
vn -1.000000 0.000000 0.000000
vn -1.000000 0.000000 0.000000
vn -1.000000 0.000000 0.000000
vn -0.045928 0.000000 0.998945
vn -0.045928 0.000000 0.998945
vn -0.045928 0.000000 0.998945
vn -0.045928 0.000000 0.998945
vn 0.045928 0.000000 0.998945
vn 0.045928 0.000000 0.998945
vn 0.045928 0.000000 0.998945
vn 0.045928 0.000000 0.998945
vn -0.045928 0.000000 -0.998945
vn -0.045928 0.000000 -0.998945
vn -0.045928 0.000000 -0.998945
vn -0.045928 0.000000 -0.998945
vn 0.045928 0.000000 -0.998945
vn 0.045928 0.000000 -0.998945
vn 0.045928 0.000000 -0.998945
vn 0.045928 0.000000 -0.998945
vn -0.045928 0.000000 -0.998945
vn -0.045928 0.000000 -0.998945
vn -0.045928 0.000000 -0.998945
vn -0.045928 0.000000 -0.998945
vn 0.045928 0.000000 -0.998945
vn 0.045928 0.000000 -0.998945
vn 0.045928 0.000000 -0.998945
vn 0.045928 0.000000 -0.998945
vn 0.045928 0.000000 -0.998945
vn 0.045928 0.000000 -0.998945
vn 0.045928 0.000000 -0.998945
vn 0.045928 0.000000 -0.998945
vn -0.045928 0.000000 -0.998945
vn -0.045928 0.000000 -0.998945
vn -0.045928 0.000000 -0.998945
vn -0.045928 0.000000 -0.998945
vn -0.045928 0.000000 -0.998945
vn -0.045928 0.000000 -0.998945
vn -0.045928 0.000000 -0.998945
vn -0.045928 0.000000 -0.998945
vn 0.045928 0.000000 -0.998945
vn 0.045928 0.000000 -0.998945
vn 0.045928 0.000000 -0.998945
vn 0.045928 0.000000 -0.998945
vn 1.000000 0.000000 0.000000
vn 1.000000 0.000000 0.000000
vn 1.000000 0.000000 0.000000
vn 1.000000 0.000000 0.000000
vn 1.000000 0.000000 0.000000
vn 1.000000 0.000000 0.000000
vn 1.000000 0.000000 0.000000
vn 1.000000 0.000000 0.000000
vn 1.000000 0.000000 0.000000
vn 1.000000 0.000000 0.000000
vn -1.000000 0.000000 0.000000
vn -1.000000 0.000000 0.000000
vn -1.000000 0.000000 0.000000
vn -1.000000 0.000000 0.000000
vn -1.000000 0.000000 0.000000
vn -1.000000 0.000000 0.000000
vn 1.000000 0.000000 0.000000
vn 1.000000 0.000000 0.000000
vn 1.000000 0.000000 0.000000
vn 1.000000 0.000000 0.000000
vn -1.000000 0.000000 0.000000
vn -1.000000 0.000000 0.000000
vn -1.000000 0.000000 0.000000
vn -1.000000 0.000000 0.000000
f 2/1/1 3/2/2 7/3/3 6/4/4
f 5/5/5 8/6/6 4/7/7 1/8/8
f 2/1/9 1/8/10 4/7/11 3/2/12
f 6/4/13 7/3/14 8/6/15 5/5/16
f 9/9/17 10/10/18 15/11/19 16/12/20
f 13/13/21 14/14/22 11/15/23 12/16/24
f 13/13/25 12/16/26 9/9/27 16/12/28
f 11/15/29 14/14/30 15/11/31 10/10/32
f 17/17/33 18/18/34 19/19/35 20/20/36
f 23/21/37 24/22/38 21/23/39 22/24/40
f 23/21/41 22/24/42 17/17/43 20/20/44
f 31/25/45 35/26/46 36/27/47 27/28/48
f 27/28/49 36/27/50 48/29/51 47/30/52
f 38/31/53 32/32/54 28/33/55 37/34/56
f 37/34/57 28/33/58 52/36/59 51/35/60
f 53/37/61 25/38/62 42/39/63 54/40/64
f 25/38/65 33/41/66 41/42/67 42/39/68
f 40/43/69 26/44/70 43/45/71 44/46/72
f 43/45/73 26/44/74 58/47/75 59/48/76
f 45/49/77 61/50/78 29/51/79 31/25/80
f 31/25/81 29/51/82 34/52/83 35/26/84
f 39/53/85 30/54/86 32/32/87 38/31/88
f 32/32/89 30/54/90 64/55/91 49/56/92
f 42/39/93 29/51/94 61/50/95 54/40/96
f 30/54/97 43/45/98 59/48/99 64/55/100
f 56/57/101 62/58/102 34/52/103 41/42/104
f 39/53/105 38/31/106 50/59/107 63/60/108
f 31/25/109 27/28/110 47/30/111 45/49/112
f 28/33/113 32/32/114 49/56/115 52/36/116
f 38/31/117 37/34/118 51/35/119 50/59/120
f 42/39/121 41/42/122 34/52/123 29/51/124
f 44/46/125 43/45/126 30/54/127 39/53/128
f 53/37/129 54/40/130 56/57/131 55/61/132
f 57/62/133 60/63/134 59/48/135 58/47/136
f 62/58/137 61/50/138 45/49/139 46/64/140
f 49/56/141 64/55/142 63/60/143 50/59/144
f 63/60/145 64/55/146 59/48/147 60/63/148
f 61/50/149 62/58/150 56/57/151 54/40/152
f 45/49/153 47/30/154 48/29/155 46/64/156
f 51/35/157 52/36/158 49/56/159 50/59/160
f 62/58/161 46/64/162 35/26/163 34/52/164
f 46/64/165 48/29/166 36/27/167 35/26/168
f 41/42/104 33/41/169 55/61/170 56/57/101
f 57/62/171 40/43/172 44/46/173 60/63/174
f 44/46/173 39/53/175 63/60/176 60/63/174
f 14/14/177 13/13/178 16/12/179 15/11/180
f 9/9/181 12/16/182 11/15/183 10/10/184
