# This file uses meters as units for non-parametric coordinates.

v -39.954094 167.849640 -14.004514
v -0.000000 283.452667 -14.004514
v -39.954094 283.452667 -14.004514
v 39.954094 167.849640 -14.004514
v 39.954094 283.452667 -14.004514
v -0.000000 51.563530 -14.004514
v 39.954094 51.563530 -14.004514
v -39.954094 51.563530 -14.004514
v -35.651421 167.849640 -17.966877
v -0.000000 167.849640 -17.966877
v -0.000000 277.188080 -17.966877
v -35.651421 277.188080 -17.966877
v 35.651421 167.849640 -17.966877
v 35.651421 277.188080 -17.966877
v 35.651421 57.828094 -17.966877
v -0.000000 57.828094 -17.966877
v -35.651421 57.828094 -17.966877
v -39.954094 167.849640 -1.858817
v 0.000000 283.452667 -1.858817
v -39.954094 283.452667 -1.858817
v 39.954094 167.849640 -1.858817
v 39.954094 283.452667 -1.858817
v 0.000000 51.563530 -1.858817
v 39.954094 51.563530 -1.858817
v -39.954094 51.563530 -1.858817
v -35.651421 167.849640 2.103546
v 0.000000 167.849640 2.103546
v 0.000000 277.188080 2.103546
v -35.651421 277.188080 2.103546
v 35.651421 167.849640 2.103546
v 35.651421 277.188080 2.103546
v 35.651421 57.828094 2.103546
v 0.000000 57.828094 2.103546
v -35.651421 57.828094 2.103546
v -27.194992 167.849640 -17.966877
v -27.194992 267.603729 -17.966877
v -8.456428 267.603729 -17.966877
v -8.456428 167.849640 -17.966877
v -27.194992 69.412415 -17.966877
v -8.456428 69.412415 -17.966877
v -27.194992 167.849640 2.103546
v -8.456427 167.849640 2.103546
v -8.456427 267.603729 2.103546
v -27.194992 267.603729 2.103546
v -8.456427 69.412415 2.103546
v -27.194992 69.412415 2.103546
v 8.456427 167.849640 -17.966877
v 8.456427 267.603729 -17.966877
v 27.194992 267.603729 -17.966877
v 27.194992 167.849640 -17.966877
v 8.456427 69.412415 -17.966877
v 27.194992 69.412415 -17.966877
v 8.456427 167.849640 2.103546
v 27.194992 167.849640 2.103546
v 27.194992 267.603729 2.103546
v 8.456427 267.603729 2.103546
v 27.194992 69.412415 2.103546
v 8.456427 69.412415 2.103546
v -65.904900 0.000000 -1.858817
v 65.904900 0.000000 -1.858817
v -65.904900 335.699280 -1.858817
v 65.904900 335.699280 -1.858817
v -65.904900 335.699280 -14.004515
v 65.904900 335.699280 -14.004515
v -65.904900 0.000000 -14.004515
v 65.904900 0.000000 -14.004515
v -65.904900 335.699280 -7.931665
v -65.904900 0.000000 -7.931665
v 65.904900 0.000000 -7.931665
v 65.904900 335.699280 -7.931665
v -65.904900 167.849640 -14.004515
v -65.904900 167.849640 -7.931665
v -65.904900 167.849640 -1.858817
v 65.904900 167.849640 -1.858817
v 65.904900 167.849640 -7.931665
v 65.904900 167.849640 -14.004515
v -65.904900 276.006714 -14.004515
v -65.904900 276.006714 -7.931665
v -65.904900 276.006714 -1.858817
v 65.904900 276.006714 -1.858817
v 65.904900 276.006714 -7.931665
v 65.904900 276.006714 -14.004515
v -65.904900 62.027390 -1.858817
v -65.904900 62.027390 -7.931665
v -65.904900 62.027390 -14.004515
v 65.904900 62.027390 -14.004515
v 65.904900 62.027390 -7.931665
v 65.904900 62.027390 -1.858817
v -33.523071 0.000000 -1.858817
v -33.523071 62.027390 -1.858817
v -33.523071 167.849640 -1.858817
v -33.523071 276.006714 -1.858817
v -33.523071 335.699280 -1.858817
v -33.523071 335.699280 -7.931665
v -33.523071 335.699280 -14.004515
v -33.523071 276.006714 -14.004515
v -33.523071 167.849640 -14.004515
v -33.523071 62.027390 -14.004515
v -33.523071 0.000000 -14.004515
v 33.523071 0.000000 -14.004515
v 33.523071 62.027390 -14.004515
v 33.523071 167.849640 -14.004515
v 33.523071 276.006714 -14.004515
v 33.523071 335.699280 -14.004515
v 33.523071 335.699280 -7.931665
v 33.523071 335.699280 -1.858817
v 33.523071 276.006714 -1.858817
v 33.523071 167.849640 -1.858817
v 33.523071 62.027390 -1.858817
v 33.523071 0.000000 -1.858817
vt 0.732756 0.851875
vt 0.732756 0.756461
vt 0.637295 0.756461
vt 0.637295 0.851785
vt 0.732756 0.851525
vt 0.637295 0.851435
vt 0.635068 0.756461
vt 0.635068 0.851615
vt 0.635068 0.851965
vt 0.646903 0.756461
vt 0.646903 0.834971
vt 0.732756 0.835062
vt 0.732756 0.835512
vt 0.646903 0.835423
vt 0.647078 0.756461
vt 0.647078 0.835602
vt 0.647078 0.835152
vt 0.732756 0.835062
vt 0.732756 0.756461
vt 0.646903 0.756461
vt 0.646903 0.834971
vt 0.732756 0.835512
vt 0.646903 0.835423
vt 0.647078 0.756461
vt 0.647078 0.835602
vt 0.647078 0.835152
vt 0.637295 0.756461
vt 0.637295 0.851785
vt 0.732756 0.851875
vt 0.732756 0.851525
vt 0.637295 0.851435
vt 0.635068 0.756461
vt 0.635068 0.851615
vt 0.635068 0.851965
vt 0.732756 0.817834
vt 0.646903 0.817784
vt 0.646903 0.773926
vt 0.732756 0.773926
vt 0.647078 0.817885
vt 0.647078 0.773927
vt 0.732756 0.773926
vt 0.646903 0.773926
vt 0.646903 0.817784
vt 0.732756 0.817834
vt 0.647078 0.817885
vt 0.647078 0.773927
vt 0.732756 0.773926
vt 0.646903 0.773926
vt 0.646903 0.818036
vt 0.732756 0.818086
vt 0.647078 0.773927
vt 0.647078 0.818137
vt 0.732756 0.818086
vt 0.646903 0.818036
vt 0.646903 0.773926
vt 0.732756 0.773926
vt 0.647078 0.773927
vt 0.647078 0.818137
vt 0.637295 0.851785
vt 0.637295 0.775131
vt 0.733224 0.775086
vt 0.733224 0.851695
vt 0.741806 0.776784
vt 0.741806 0.855033
vt 0.733902 0.857616
vt 0.733902 0.778097
vt 0.636381 0.778703
vt 0.636381 0.858807
vt 0.637295 0.774540
vt 0.637479 0.782618
vt 0.732993 0.782260
vt 0.733224 0.774450
vt 0.637479 0.859893
vt 0.732993 0.859534
vt 0.637621 0.868438
vt 0.732743 0.867982
vt 0.637621 0.791132
vt 0.732743 0.790678
vt 0.637295 0.855511
vt 0.733224 0.855465
vt 0.741806 0.857157
vt 0.741806 0.777776
vt 0.733902 0.858466
vt 0.733902 0.780349
vt 0.636381 0.859070
vt 0.636381 0.781536
vt 0.737839 0.869806
vt 0.737993 0.860970
vt 0.634955 0.860610
vt 0.635004 0.869350
vt 0.737913 0.852055
vt 0.635068 0.851965
vt 0.737913 0.775269
vt 0.635068 0.775223
vt 0.737913 0.855648
vt 0.737913 0.774809
vt 0.635068 0.774719
vt 0.635068 0.855602
vt 0.737993 0.783691
vt 0.634955 0.783333
vt 0.635004 0.792041
vt 0.737839 0.792495
vt 0.736056 0.860880
vt 0.636556 0.860277
vt 0.636556 0.783909
vt 0.736056 0.785095
vt 0.636556 0.861189
vt 0.636556 0.779915
vt 0.736055 0.780520
vt 0.736055 0.862380
vt 0.732950 0.868894
vt 0.732903 0.860252
vt 0.732756 0.851875
vt 0.732756 0.775177
vt 0.732756 0.855557
vt 0.732756 0.774629
vt 0.732903 0.782975
vt 0.732950 0.791586
vt 0.731572 0.859673
vt 0.731572 0.782722
vt 0.731572 0.779309
vt 0.731572 0.859998
vn 0.000000 0.534549 -0.845137
vn 0.000000 0.534549 -0.845137
vn 0.000000 0.534549 -0.845137
vn 0.000000 0.534549 -0.845137
vn -0.677418 0.000000 -0.735598
vn -0.677418 0.000000 -0.735598
vn -0.677418 0.000000 -0.735599
vn -0.677418 0.000000 -0.735599
vn 0.677418 0.000000 -0.735599
vn 0.677418 0.000000 -0.735599
vn 0.677418 0.000000 -0.735598
vn 0.677418 0.000000 -0.735598
vn 0.000000 0.534549 -0.845137
vn 0.000000 0.534549 -0.845137
vn 0.000000 0.534549 -0.845137
vn 0.000000 0.534549 -0.845137
vn 0.000000 -0.534552 -0.845136
vn 0.000000 -0.534552 -0.845136
vn 0.000000 -0.534552 -0.845136
vn 0.000000 -0.534552 -0.845136
vn 0.677418 0.000000 -0.735598
vn 0.677418 0.000000 -0.735598
vn 0.677418 0.000000 -0.735598
vn 0.677418 0.000000 -0.735598
vn 0.000000 -0.534552 -0.845136
vn 0.000000 -0.534552 -0.845136
vn 0.000000 -0.534552 -0.845136
vn 0.000000 -0.534552 -0.845136
vn -0.677418 0.000000 -0.735598
vn -0.677418 0.000000 -0.735598
vn -0.677418 0.000000 -0.735598
vn -0.677418 0.000000 -0.735598
vn 0.000000 0.534549 0.845137
vn 0.000000 0.534549 0.845137
vn 0.000000 0.534549 0.845137
vn 0.000000 0.534549 0.845137
vn -0.677418 0.000000 0.735598
vn -0.677418 0.000000 0.735598
vn -0.677418 0.000000 0.735598
vn -0.677418 0.000000 0.735598
vn 0.677418 0.000000 0.735598
vn 0.677418 0.000000 0.735598
vn 0.677418 0.000000 0.735598
vn 0.677418 0.000000 0.735598
vn 0.000000 0.534549 0.845137
vn 0.000000 0.534549 0.845137
vn 0.000000 0.534549 0.845137
vn 0.000000 0.534549 0.845137
vn 0.000000 -0.534552 0.845136
vn 0.000000 -0.534552 0.845136
vn 0.000000 -0.534552 0.845136
vn 0.000000 -0.534552 0.845136
vn 0.677418 0.000000 0.735598
vn 0.677418 0.000000 0.735598
vn 0.677418 0.000000 0.735598
vn 0.677418 0.000000 0.735598
vn 0.000000 -0.534552 0.845136
vn 0.000000 -0.534552 0.845136
vn 0.000000 -0.534552 0.845136
vn 0.000000 -0.534552 0.845136
vn -0.677418 0.000000 0.735598
vn -0.677418 0.000000 0.735598
vn -0.677418 0.000000 0.735598
vn -0.677418 0.000000 0.735598
vn 0.000000 0.000000 -1.000000
vn 0.000000 0.000000 -1.000000
vn 0.000000 0.000000 -1.000000
vn 0.000000 0.000000 -1.000000
vn 0.000000 0.000000 -1.000000
vn -0.000000 0.000000 -1.000000
vn 0.000000 0.000000 -1.000000
vn -0.000000 0.000000 -1.000000
vn -0.000000 0.000000 -1.000000
vn -0.000000 0.000000 -1.000000
vn -0.000000 0.000000 -1.000000
vn 0.000000 0.000000 -1.000000
vn -0.000000 0.000000 1.000000
vn -0.000000 0.000000 1.000000
vn 0.000000 0.000000 1.000000
vn -0.000000 0.000000 1.000000
vn -0.000000 0.000000 1.000000
vn -0.000000 0.000000 1.000000
vn -0.000000 0.000000 1.000000
vn -0.000000 0.000000 1.000000
vn 0.000000 0.000000 1.000000
vn -0.000000 0.000000 1.000000
vn -0.000000 0.000000 1.000000
vn 0.000000 0.000000 1.000000
vn 0.000000 0.000000 -1.000000
vn 0.000000 0.000000 -1.000000
vn -0.000000 0.000000 -1.000000
vn -0.000000 0.000000 -1.000000
vn -0.000000 0.000000 -1.000000
vn -0.000000 0.000000 -1.000000
vn -0.000000 0.000000 -1.000000
vn 0.000000 0.000000 -1.000000
vn 0.000000 0.000000 -1.000000
vn -0.000000 0.000000 1.000000
vn 0.000000 0.000000 1.000000
vn 0.000000 0.000000 1.000000
vn -0.000000 0.000000 1.000000
vn -0.000000 0.000000 1.000000
vn -0.000000 0.000000 1.000000
vn -0.000000 0.000000 1.000000
vn -0.000000 0.000000 1.000000
vn 0.000000 0.000000 1.000000
vn 0.000000 -1.000000 0.000000
vn 0.000000 -1.000000 0.000000
vn 0.000000 -1.000000 0.000000
vn 0.000000 -1.000000 0.000000
vn -1.000000 0.000000 0.000000
vn -1.000000 0.000000 0.000000
vn -1.000000 0.000000 0.000000
vn -1.000000 0.000000 0.000000
vn -1.000000 0.000000 0.000000
vn -1.000000 0.000000 0.000000
vn 0.000000 1.000000 -0.000000
vn 0.000000 1.000000 -0.000000
vn 0.000000 1.000000 -0.000000
vn 0.000000 1.000000 -0.000000
vn 1.000000 0.000000 0.000000
vn 1.000000 0.000000 0.000000
vn 1.000000 0.000000 0.000000
vn 1.000000 0.000000 0.000000
vn 1.000000 0.000000 0.000000
vn 1.000000 0.000000 0.000000
vn 0.000000 -1.000000 0.000000
vn 0.000000 -1.000000 0.000000
vn 0.000000 -1.000000 0.000000
vn 0.000000 -1.000000 0.000000
vn -1.000000 0.000000 0.000000
vn -1.000000 0.000000 0.000000
vn -1.000000 0.000000 0.000000
vn -1.000000 0.000000 0.000000
vn -1.000000 0.000000 0.000000
vn -1.000000 0.000000 0.000000
vn 0.000000 1.000000 0.000000
vn 0.000000 1.000000 0.000000
vn 0.000000 1.000000 0.000000
vn 0.000000 1.000000 0.000000
vn 1.000000 0.000000 0.000000
vn 1.000000 0.000000 0.000000
vn 1.000000 0.000000 0.000000
vn 1.000000 0.000000 0.000000
vn 1.000000 0.000000 0.000000
vn 1.000000 0.000000 0.000000
vn 0.000000 0.000000 1.000000
vn 0.000000 0.000000 1.000000
vn 0.000000 0.000000 1.000000
vn 0.000000 0.000000 1.000000
vn 0.000000 1.000000 0.000000
vn 0.000000 1.000000 0.000000
vn 0.000000 1.000000 0.000000
vn 0.000000 1.000000 0.000000
vn 0.000000 0.000000 -1.000000
vn 0.000000 0.000000 -1.000000
vn 0.000000 0.000000 -1.000000
vn 0.000000 0.000000 -1.000000
vn 1.000000 0.000000 0.000000
vn 1.000000 0.000000 0.000000
vn 1.000000 0.000000 0.000000
vn 1.000000 0.000000 0.000000
vn -1.000000 0.000000 0.000000
vn -1.000000 0.000000 0.000000
vn -1.000000 0.000000 0.000000
vn -1.000000 0.000000 0.000000
vn -1.000000 0.000000 0.000000
vn -1.000000 0.000000 0.000000
vn 1.000000 0.000000 0.000000
vn 1.000000 0.000000 0.000000
vn 0.000000 1.000000 0.000000
vn 0.000000 1.000000 0.000000
vn 0.000000 0.000000 1.000000
vn 0.000000 0.000000 1.000000
vn 0.000000 0.000000 1.000000
vn 0.000000 0.000000 1.000000
vn 0.000000 1.000000 0.000000
vn 0.000000 1.000000 0.000000
vn 0.000000 1.000000 0.000000
vn 0.000000 1.000000 0.000000
vn 0.000000 1.000000 0.000000
vn 0.000000 1.000000 0.000000
vn 0.000000 0.000000 -1.000000
vn 0.000000 0.000000 -1.000000
vn 0.000000 0.000000 -1.000000
vn 0.000000 0.000000 -1.000000
vn -1.000000 0.000000 0.000000
vn -1.000000 0.000000 0.000000
vn -1.000000 0.000000 0.000000
vn -1.000000 0.000000 0.000000
vn -1.000000 0.000000 0.000000
vn -1.000000 0.000000 0.000000
vn 0.000000 0.000000 1.000000
vn 0.000000 0.000000 1.000000
vn 0.000000 0.000000 1.000000
vn 0.000000 0.000000 1.000000
vn 0.000000 0.000000 1.000000
vn 0.000000 0.000000 1.000000
vn 0.000000 0.000000 1.000000
vn 0.000000 0.000000 1.000000
vn 1.000000 0.000000 0.000000
vn 1.000000 0.000000 0.000000
vn 1.000000 0.000000 0.000000
vn 1.000000 0.000000 0.000000
vn 1.000000 0.000000 0.000000
vn 1.000000 0.000000 0.000000
vn 0.000000 0.000000 -1.000000
vn 0.000000 0.000000 -1.000000
vn 0.000000 0.000000 -1.000000
vn 0.000000 0.000000 -1.000000
vn 0.000000 0.000000 -1.000000
vn 0.000000 0.000000 -1.000000
vn 0.000000 0.000000 -1.000000
vn 0.000000 0.000000 -1.000000
vn -1.000000 0.000000 0.000000
vn -1.000000 0.000000 0.000000
vn -1.000000 0.000000 0.000000
vn 0.000000 0.000000 1.000000
vn 0.000000 0.000000 1.000000
vn 0.000000 0.000000 1.000000
vn 0.000000 0.000000 1.000000
vn 1.000000 0.000000 0.000000
vn 1.000000 0.000000 0.000000
vn 1.000000 0.000000 0.000000
vn 0.000000 0.000000 -1.000000
vn 0.000000 0.000000 -1.000000
vn 0.000000 0.000000 -1.000000
vn 0.000000 0.000000 -1.000000
f 2/3/1 11/10/2 12/11/3 3/4/4
f 3/4/5 12/11/6 9/12/7 1/1/8
f 4/5/9 13/13/10 14/14/11 5/6/12
f 5/6/13 14/14/14 11/10/15 2/3/16
f 6/7/17 16/15/18 15/16/19 7/8/20
f 7/8/21 15/16/22 13/13/23 4/5/24
f 8/9/25 17/17/26 16/15/27 6/7/28
f 1/1/29 9/12/30 17/17/31 8/9/32
f 19/27/33 20/28/34 29/21/35 28/20/36
f 20/28/37 18/29/38 26/18/39 29/21/40
f 21/30/41 22/31/42 31/23/43 30/22/44
f 22/31/45 19/27/46 28/20/47 31/23/48
f 23/32/49 24/33/50 32/25/51 33/24/52
f 24/33/53 21/30/54 30/22/55 32/25/56
f 25/34/57 23/32/58 33/24/59 34/26/60
f 18/29/61 25/34/62 34/26/63 26/18/64
f 9/12/65 12/11/66 36/36/67 35/35/68
f 12/11/66 11/10/69 37/37/70 36/36/67
f 11/10/69 10/2/71 38/38/72 37/37/70
f 17/17/73 9/12/65 35/35/68 39/39/74
f 10/2/71 16/15/75 40/40/76 38/38/72
f 16/15/75 17/17/73 39/39/74 40/40/76
f 27/19/77 28/20/78 43/42/79 42/41/80
f 28/20/78 29/21/81 44/43/82 43/42/79
f 29/21/81 26/18/83 41/44/84 44/43/82
f 34/26/85 33/24/86 45/46/87 46/45/88
f 33/24/86 27/19/77 42/41/80 45/46/87
f 26/18/83 34/26/85 46/45/88 41/44/84
f 10/2/71 11/10/69 48/48/89 47/47/90
f 11/10/69 14/14/91 49/49/92 48/48/89
f 14/14/91 13/13/93 50/50/94 49/49/92
f 16/15/75 10/2/71 47/47/90 51/51/95
f 13/13/93 15/16/96 52/52/97 50/50/94
f 15/16/96 16/15/75 51/51/95 52/52/97
f 30/22/98 31/23/99 55/54/100 54/53/101
f 31/23/99 28/20/78 56/55/102 55/54/100
f 28/20/78 27/19/77 53/56/103 56/55/102
f 33/24/86 32/25/104 57/58/105 58/57/106
f 32/25/104 30/22/98 54/53/101 57/58/105
f 27/19/77 33/24/86 58/57/106 53/56/103
f 36/36/107 37/37/108 43/42/109 44/43/110
f 37/37/111 38/38/112 42/41/113 43/42/114
f 38/38/112 40/40/115 45/46/116 42/41/113
f 40/40/117 39/39/118 46/45/119 45/46/120
f 39/39/121 35/35/122 41/44/123 46/45/124
f 35/35/122 36/36/125 44/43/126 41/44/123
f 48/48/127 49/49/128 55/54/129 56/55/130
f 49/49/131 50/50/132 54/53/133 55/54/134
f 50/50/132 52/52/135 57/58/136 54/53/133
f 52/52/137 51/51/138 58/57/139 57/58/140
f 51/51/141 47/47/142 53/56/143 58/57/144
f 47/47/142 48/48/145 56/55/146 53/56/143
f 79/59/147 92/60/148 93/61/149 61/62/150
f 61/62/151 93/61/152 94/63/153 67/64/154
f 63/65/155 95/66/156 96/67/157 77/68/158
f 80/69/159 81/70/160 70/71/161 62/72/162
f 78/73/163 79/59/164 61/62/165 67/74/166
f 77/75/167 78/73/163 67/74/166 63/76/168
f 70/71/161 81/70/160 82/77/169 64/78/170
f 67/64/154 94/63/153 95/66/171 63/65/172
f 107/79/173 80/69/174 62/72/175 106/80/176
f 105/81/177 106/80/178 62/72/179 70/82/180
f 104/83/181 105/81/177 70/82/180 64/84/182
f 103/85/183 104/83/184 64/84/185 82/86/186
f 65/87/187 68/88/188 84/89/189 85/90/190
f 68/88/188 59/91/191 83/92/192 84/89/189
f 59/91/193 89/93/194 90/94/195 83/92/196
f 110/95/197 60/96/198 88/97/199 109/98/200
f 60/96/201 69/99/202 87/100/203 88/97/204
f 86/101/205 87/100/203 69/99/202 66/102/206
f 100/103/207 101/104/208 86/105/209 66/106/210
f 85/107/211 98/108/212 99/109/213 65/110/214
f 71/111/215 72/112/216 78/73/163 77/75/167
f 72/112/216 73/113/217 79/59/164 78/73/163
f 73/113/218 91/114/219 92/60/148 79/59/147
f 108/115/220 74/116/221 80/69/174 107/79/173
f 74/116/222 75/117/223 81/70/160 80/69/159
f 82/77/169 81/70/160 75/117/223 76/118/224
f 102/119/225 103/85/183 82/86/186 76/120/226
f 77/68/158 96/67/157 97/121/227 71/122/228
f 84/89/189 83/92/192 73/113/217 72/112/216
f 85/90/190 84/89/189 72/112/216 71/111/215
f 71/122/228 97/121/227 98/108/212 85/107/211
f 86/105/209 101/104/208 102/119/225 76/120/226
f 76/118/224 75/117/223 87/100/203 86/101/205
f 88/97/204 87/100/203 75/117/223 74/116/222
f 109/98/200 88/97/199 74/116/221 108/115/220
f 83/92/196 90/94/195 91/114/219 73/113/218
f 90/94/195 89/93/194 110/95/197 109/98/200
f 106/80/176 93/61/149 92/60/148 107/79/173
f 94/63/153 93/61/152 106/80/178 105/81/177
f 104/83/181 95/66/171 94/63/153 105/81/177
f 96/67/157 95/66/156 104/83/184 103/85/183
f 100/103/207 99/109/213 98/108/212 101/104/208
