# This file uses meters as units for non-parametric coordinates.

v -30.720860 311.301392 -3.015679
v -30.720860 26.461380 -3.015679
v 30.720860 26.461380 -3.015679
v 30.720860 311.301392 -3.015679
v 30.720860 311.301392 -11.806868
v 30.720860 26.461380 -11.806868
v -30.720860 26.461380 -11.806868
v -30.720860 311.301392 -11.806868
v -47.720860 311.301392 -3.015679
v -47.720860 335.699280 -3.015679
v 47.720860 335.699280 -3.015679
v 47.720860 311.301392 -3.015679
v -47.720860 311.301392 -12.847653
v -47.720860 335.699280 -12.847653
v 47.720860 335.699280 -12.847653
v 47.720860 311.301392 -12.847653
v -47.720860 26.461380 -3.015679
v -47.720860 0.000000 -3.015679
v 47.720860 0.000000 -3.015679
v 47.720860 26.461380 -3.015679
v -47.720860 0.000000 -12.847653
v -47.720860 26.461380 -12.847653
v 47.720860 26.461380 -12.847653
v 47.720860 0.000000 -12.847653
v -65.904900 0.000000 -1.858817
v 65.904900 0.000000 -3.015679
v -65.904900 335.699280 -1.858817
v 65.904900 335.699280 -3.015679
v -65.904900 152.798721 -1.858817
v 65.904900 152.798721 -3.015679
v -65.904900 251.774460 -1.858817
v 65.904900 251.774460 -3.015679
v -47.720860 0.000004 -1.858817
v -47.720860 152.798721 -1.858817
v -47.720860 251.774460 -1.858817
v -47.720860 335.699280 -1.858817
v 47.720860 335.699280 -1.858817
v 47.720860 251.774460 -1.858817
v 47.720860 152.798721 -1.858817
v 47.720860 0.000004 -1.858817
v -47.720860 50.684280 -1.858817
v -65.904900 50.684284 -1.858817
v 65.904900 50.684284 -3.015679
v 47.720860 50.684280 -1.858817
v -65.904900 251.774460 -14.004514
v -47.720860 251.774460 -14.004514
v -65.904900 335.699280 -14.004514
v -47.720860 335.699280 -14.004514
v 65.904900 251.774460 -14.004514
v 47.720860 251.774460 -14.004514
v 47.720860 335.699280 -14.004514
v 65.904900 335.699280 -14.004514
v -65.904900 0.000000 -14.004514
v -65.904900 50.684284 -14.004514
v -47.720860 0.000004 -14.004514
v -47.720860 50.684280 -14.004514
v 47.720860 0.000004 -14.004514
v 65.904900 0.000000 -14.004514
v 65.904900 50.684284 -14.004514
v 47.720860 50.684280 -14.004514
v -65.904900 152.798721 -14.004514
v -47.720860 152.798721 -14.004514
v 47.720860 152.798721 -14.004514
v 65.904900 152.798721 -14.004514
vt 0.511547 0.635932
vt 0.609877 0.635932
vt 0.609877 0.734743
vt 0.511547 0.734743
vt 0.504766 0.741519
vt 0.616658 0.741519
vt 0.616658 0.629078
vt 0.504766 0.629078
vt 0.511345 0.734463
vt 0.610157 0.734463
vt 0.610118 0.734463
vt 0.511306 0.734463
vt 0.504492 0.629352
vt 0.616932 0.629352
vt 0.610157 0.636134
vt 0.511345 0.636134
vt 0.511345 0.734463
vt 0.511345 0.636134
vt 0.610157 0.636134
vt 0.610157 0.734463
vt 0.616932 0.741244
vt 0.616932 0.629352
vt 0.504492 0.629352
vt 0.504492 0.741244
vt 0.509423 0.724402
vt 0.509423 0.692484
vt 0.605352 0.692425
vt 0.605352 0.724312
vt 0.605352 0.692425
vt 0.605352 0.724312
vt 0.509423 0.692253
vt 0.509423 0.724054
vt 0.605352 0.723965
vt 0.605352 0.692194
vt 0.605352 0.692194
vt 0.605352 0.723965
vt 0.610041 0.724671
vt 0.610041 0.724671
vt 0.539962 0.724646
vt 0.539962 0.724646
vt 0.610041 0.692663
vt 0.539962 0.692646
vt 0.610041 0.692432
vt 0.610041 0.724322
vt 0.539962 0.724298
vt 0.539962 0.692415
vt 0.610041 0.724322
vt 0.539962 0.724298
vt 0.509423 0.724402
vt 0.604884 0.724491
vt 0.604884 0.724491
vt 0.604884 0.692544
vt 0.604884 0.692313
vt 0.604884 0.724143
vt 0.604884 0.724143
vt 0.509423 0.724054
vt 0.539962 0.692646
vt 0.604884 0.692544
vt 0.509423 0.692253
vt 0.604884 0.692313
vt 0.610041 0.692663
vt 0.610041 0.692432
vt 0.539962 0.692415
vt 0.509423 0.692484
vn 0.000000 0.000000 1.000000
vn 0.000000 0.000000 1.000000
vn 0.000000 0.000000 1.000000
vn 0.000000 0.000000 1.000000
vn 0.000000 0.000000 -1.000000
vn 0.000000 0.000000 -1.000000
vn 0.000000 0.000000 -1.000000
vn 0.000000 0.000000 -1.000000
vn 0.000000 1.000000 0.000000
vn 0.000000 1.000000 0.000000
vn 0.000000 1.000000 0.000000
vn 0.000000 1.000000 0.000000
vn 0.000000 -1.000000 0.000000
vn 0.000000 -1.000000 0.000000
vn 0.000000 -1.000000 0.000000
vn 0.000000 -1.000000 0.000000
vn 0.000000 0.000000 1.000000
vn 0.000000 0.000000 1.000000
vn 0.000000 0.000000 1.000000
vn 0.000000 0.000000 1.000000
vn 0.000000 0.000000 -1.000000
vn 0.000000 0.000000 -1.000000
vn 0.000000 0.000000 -1.000000
vn 0.000000 0.000000 -1.000000
vn 0.000000 0.000000 1.000000
vn 0.000000 0.000000 1.000000
vn 0.000000 0.000000 1.000000
vn 0.000000 0.000000 1.000000
vn 0.000000 0.000000 -1.000000
vn 0.000000 0.000000 -1.000000
vn 0.000000 0.000000 -1.000000
vn 0.000000 0.000000 -1.000000
vn 0.000000 1.000000 0.000000
vn 0.000000 1.000000 0.000000
vn 0.000000 1.000000 0.000000
vn 0.000000 1.000000 0.000000
vn 0.000000 0.000000 1.000000
vn 0.000000 0.000000 1.000000
vn 0.000000 0.000000 1.000000
vn 0.000000 0.000000 1.000000
vn 0.000000 1.000000 0.000000
vn 0.000000 1.000000 0.000000
vn 0.000000 1.000000 0.000000
vn 0.000000 1.000000 0.000000
vn 0.063491 0.000000 0.997982
vn 0.063491 0.000000 0.997982
vn 0.063491 0.000000 0.997982
vn 0.063491 0.000000 0.997982
vn 0.000000 1.000000 0.000000
vn 0.000000 1.000000 0.000000
vn 0.000000 1.000000 0.000000
vn 0.000000 1.000000 0.000000
vn -1.000000 0.000000 0.000000
vn -1.000000 0.000000 0.000000
vn -1.000000 0.000000 0.000000
vn -1.000000 0.000000 0.000000
vn 0.000000 0.000000 1.000000
vn 0.000000 0.000000 1.000000
vn 0.000000 0.000000 1.000000
vn 0.000000 0.000000 1.000000
vn 0.063491 0.000000 0.997982
vn 0.063491 0.000000 0.997983
vn 0.063491 0.000000 0.997983
vn 0.063491 0.000000 0.997982
vn 1.000000 0.000000 0.000000
vn 1.000000 0.000000 0.000000
vn 1.000000 0.000000 0.000000
vn 1.000000 0.000000 0.000000
vn -1.000000 0.000000 0.000000
vn -1.000000 0.000000 0.000000
vn -1.000000 0.000000 0.000000
vn -1.000000 0.000000 0.000000
vn 0.000000 0.000000 1.000000
vn 0.000000 0.000000 1.000000
vn 0.000000 0.000000 1.000000
vn 0.000000 0.000000 1.000000
vn 0.063491 0.000000 0.997982
vn 0.063491 0.000000 0.997982
vn 0.063491 0.000000 0.997982
vn 0.063491 0.000000 0.997982
vn 1.000000 0.000000 0.000000
vn 1.000000 0.000000 0.000000
vn 1.000000 0.000000 0.000000
vn 1.000000 0.000000 0.000000
vn -1.000000 0.000000 0.000000
vn -1.000000 0.000000 0.000000
vn -1.000000 0.000000 0.000000
vn -1.000000 0.000000 0.000000
vn 1.000000 0.000000 0.000000
vn 1.000000 0.000000 0.000000
vn 1.000000 0.000000 0.000000
vn 1.000000 0.000000 0.000000
vn 1.000000 0.000000 0.000000
vn 1.000000 0.000000 0.000000
vn 1.000000 0.000000 0.000000
vn 1.000000 0.000000 0.000000
vn -1.000000 0.000000 0.000000
vn -1.000000 0.000000 0.000000
vn -1.000000 0.000000 0.000000
vn -1.000000 0.000000 0.000000
vn -1.000000 0.000000 0.000000
vn -1.000000 0.000000 0.000000
vn -1.000000 0.000000 0.000000
vn -1.000000 0.000000 0.000000
vn 1.000000 0.000000 0.000000
vn 1.000000 0.000000 0.000000
vn 1.000000 0.000000 0.000000
vn 1.000000 0.000000 0.000000
vn -1.000000 0.000000 0.000000
vn -1.000000 0.000000 0.000000
vn -1.000000 0.000000 0.000000
vn -1.000000 0.000000 0.000000
vn 0.000000 0.000000 1.000000
vn 0.000000 0.000000 1.000000
vn 0.000000 0.000000 1.000000
vn 0.000000 0.000000 1.000000
vn 0.063491 0.000000 0.997982
vn 0.063491 0.000000 0.997982
vn 0.063491 0.000000 0.997982
vn 0.063491 0.000000 0.997982
vn 0.000000 0.000000 -1.000000
vn 0.000000 0.000000 -1.000000
vn 0.000000 0.000000 -1.000000
vn 0.000000 0.000000 -1.000000
vn -0.000000 0.000000 -1.000000
vn -0.000000 0.000000 -1.000000
vn -0.000000 0.000000 -1.000000
vn -0.000000 0.000000 -1.000000
vn 0.000000 0.000000 -1.000000
vn 0.000000 0.000000 -1.000000
vn 0.000000 0.000000 -1.000000
vn 0.000000 0.000000 -1.000000
vn 0.000000 0.000000 -1.000000
vn 0.000000 0.000000 -1.000000
vn 0.000000 0.000000 -1.000000
vn 0.000000 0.000000 -1.000000
vn 0.000000 0.000000 -1.000000
vn 0.000000 0.000000 -1.000000
vn 0.000000 0.000000 -1.000000
vn 0.000000 0.000000 -1.000000
vn 0.000000 0.000000 -1.000000
vn 0.000000 0.000000 -1.000000
vn 0.000000 0.000000 -1.000000
vn 0.000000 0.000000 -1.000000
vn 0.000000 0.000000 -1.000000
vn 0.000000 0.000000 -1.000000
vn 0.000000 0.000000 -1.000000
vn 0.000000 0.000000 -1.000000
vn 0.000000 0.000000 -1.000000
vn 0.000000 0.000000 -1.000000
vn 0.000000 0.000000 -1.000000
vn 0.000000 0.000000 -1.000000
vn 1.000000 0.000000 0.000000
vn 1.000000 0.000000 0.000000
vn 1.000000 0.000000 0.000000
vn 1.000000 0.000000 0.000000
vn 1.000000 0.000000 0.000000
vn 1.000000 0.000000 0.000000
vn 1.000000 0.000000 0.000000
vn 1.000000 0.000000 0.000000
vn 1.000000 0.000000 0.000000
vn 1.000000 0.000000 0.000000
vn -1.000000 0.000000 0.000000
vn -1.000000 0.000000 0.000000
vn -1.000000 0.000000 0.000000
vn -1.000000 0.000000 0.000000
vn -1.000000 0.000000 0.000000
vn -1.000000 0.000000 0.000000
vn -1.000000 0.000000 0.000000
vn -1.000000 0.000000 0.000000
vn -1.000000 0.000000 0.000000
vn -1.000000 0.000000 0.000000
vn 1.000000 0.000000 0.000000
vn 1.000000 0.000000 0.000000
vn 1.000000 0.000000 0.000000
vn 1.000000 0.000000 0.000000
f 1/1/1 2/2/2 3/3/3 4/4/4
f 5/5/5 6/6/6 7/7/7 8/8/8
f 10/9/9 11/10/10 15/11/11 14/12/12
f 13/13/13 16/14/14 12/15/15 9/16/16
f 10/9/17 9/16/18 12/15/19 11/10/20
f 14/12/21 15/11/22 16/14/23 13/13/24
f 17/17/25 18/18/26 19/19/27 20/20/28
f 23/21/29 24/22/30 21/23/31 22/24/32
f 23/21/33 22/24/34 17/17/35 20/20/36
f 31/25/37 35/26/38 36/27/39 27/28/40
f 27/28/41 36/27/42 48/29/43 47/30/44
f 38/31/45 32/32/46 28/33/47 37/34/48
f 51/35/49 37/34/50 28/33/51 52/36/52
f 53/37/53 25/38/54 42/39/55 54/40/56
f 25/38/57 33/41/58 41/42/59 42/39/60
f 40/43/61 26/44/62 43/45/63 44/46/64
f 43/45/65 26/44/66 58/47/67 59/48/68
f 45/49/69 61/50/70 29/51/71 31/25/72
f 31/25/73 29/51/74 34/52/75 35/26/76
f 39/53/77 30/54/78 32/32/79 38/31/80
f 32/32/81 30/54/82 64/55/83 49/56/84
f 42/39/85 29/51/86 61/50/87 54/40/88
f 64/55/89 30/54/90 43/45/91 59/48/92
f 56/57/93 62/58/94 34/52/95 41/42/96
f 50/59/97 63/60/98 39/53/99 38/31/100
f 31/25/101 27/28/102 47/30/103 45/49/104
f 49/56/105 52/36/106 28/33/107 32/32/108
f 51/35/109 50/59/110 38/31/111 37/34/112
f 42/39/113 41/42/114 34/52/115 29/51/116
f 44/46/117 43/45/118 30/54/119 39/53/120
f 53/37/121 54/40/122 56/57/123 55/61/124
f 57/62/125 60/63/126 59/48/127 58/47/128
f 62/58/129 61/50/130 45/49/131 46/64/132
f 49/56/133 64/55/134 63/60/135 50/59/136
f 63/60/137 64/55/138 59/48/139 60/63/140
f 61/50/141 62/58/142 56/57/143 54/40/144
f 45/49/145 47/30/146 48/29/147 46/64/148
f 51/35/149 52/36/150 49/56/151 50/59/152
f 62/58/153 46/64/154 35/26/155 34/52/156
f 46/64/157 48/29/158 36/27/159 35/26/160
f 41/42/96 33/41/161 55/61/162 56/57/93
f 40/43/163 44/46/164 60/63/165 57/62/166
f 63/60/167 60/63/165 44/46/164 39/53/168
f 8/8/169 7/7/170 2/2/171 1/1/172
f 5/5/173 4/4/174 3/3/175 6/6/176
