# This file uses meters as units for non-parametric coordinates.

v -20.256027 178.813339 -15.558618
v -20.256027 313.929321 -15.558618
v -21.456238 315.279144 -15.558618
v -21.456238 177.463577 -15.558618
v 20.144005 178.813339 -15.558618
v 21.344200 177.463577 -15.558618
v 20.144005 313.929321 -15.558618
v 21.344200 315.279144 -15.558618
v -19.259125 179.862854 -13.908100
v -19.259125 312.879822 -13.908100
v -22.430977 316.309448 -13.908100
v -22.430977 176.433243 -13.908100
v 19.147102 179.862854 -13.908100
v 22.318947 176.433243 -13.908100
v 19.147102 312.879822 -13.908100
v 22.318947 316.309448 -13.908100
v -34.151108 0.000000 -1.858817
v -34.151108 335.699280 -1.858817
v -34.151108 335.699280 -7.931665
v -34.151108 0.000000 -7.931665
v 34.039085 0.000000 -1.858817
v 34.039085 335.699280 -1.858817
v 34.039085 335.699280 -7.931665
v -34.151108 167.849640 -7.931665
v -34.151108 167.849640 -1.858817
v 34.039085 167.849640 -1.858817
v -34.151108 251.774460 -7.931665
v -34.151108 251.774460 -1.858817
v 34.039085 251.774460 -1.858817
v -34.151108 83.924820 -1.858817
v -34.151108 83.924820 -7.931665
v 34.039085 83.924820 -1.858817
v -13.727875 34.000961 1.245582
v 13.615837 34.000961 1.245582
v -13.727875 138.816193 1.245582
v 13.615837 138.816193 1.245582
v -17.487831 142.576141 -1.955231
v 17.375801 142.576141 -1.955231
v -17.487831 30.241028 -1.955231
v 17.375801 30.241028 -1.955231
v -22.430977 147.973160 -1.955231
v 22.318939 147.973160 -1.955231
v -22.430977 24.844025 -1.955231
v 22.318939 24.844025 -1.955231
v -19.259125 144.543533 -1.955231
v -19.259125 28.273621 -1.955231
v 19.147095 28.273621 -1.955231
v 19.147095 144.543533 -1.955231
v -20.256027 145.593033 -0.304713
v -20.256027 27.224119 -0.304713
v -21.456238 146.942856 -0.304713
v -21.456238 25.874344 -0.304713
v 20.143997 27.224119 -0.304713
v 21.344193 25.874344 -0.304713
v 20.143997 145.593033 -0.304713
v 21.344193 146.942856 -0.304713
v 19.147102 179.862854 -1.858817
v 19.147102 251.774460 -1.858817
v 19.147102 312.879822 -1.858817
v -19.259125 179.862854 -1.858817
v -19.259125 251.774460 -1.858817
v -19.259125 312.879822 -1.858817
v -19.259125 251.774460 -7.931665
v 19.147102 251.774460 -7.931665
v -19.259125 179.862854 -7.931665
v 19.147102 179.862854 -7.931665
v -19.259125 312.879822 -7.931665
v 19.147102 312.879822 -7.931665
v -34.151108 0.000000 -14.004515
v -34.151108 335.699280 -14.004515
v 34.039085 0.000000 -14.004515
v 34.039085 335.699280 -14.004515
v -34.151108 167.849640 -14.004515
v 34.039085 167.849640 -14.004515
v -34.151108 251.774460 -14.004515
v 34.039085 251.774460 -14.004515
v -34.151108 83.924820 -14.004515
v 34.039085 83.924820 -14.004515
v -13.727875 34.000961 -17.108913
v 13.615837 34.000961 -17.108913
v -13.727875 138.816193 -17.108913
v 13.615837 138.816193 -17.108913
v -17.487831 142.576141 -13.908102
v 17.375801 142.576141 -13.908102
v -17.487831 30.241028 -13.908102
v 17.375801 30.241028 -13.908102
v -22.430962 147.973160 -13.908102
v 22.318939 147.973160 -13.908102
v -22.430962 24.844025 -13.908102
v 22.318939 24.844025 -13.908102
v -19.259125 144.543533 -13.908102
v -19.259125 28.273621 -13.908102
v 19.147095 28.273621 -13.908102
v 19.147095 144.543533 -13.908102
v -20.256027 145.593033 -15.558620
v -20.256027 27.224119 -15.558620
v -21.456238 146.942856 -15.558620
v -21.456238 25.874344 -15.558620
v 20.143997 27.224119 -15.558620
v 21.344193 25.874344 -15.558620
v 20.143997 145.593033 -15.558620
v 21.344193 146.942856 -15.558620
v 19.147095 179.862854 -14.004515
v 19.147095 251.774460 -14.004515
v 19.147095 312.879822 -14.004515
v -19.259109 179.862854 -14.004515
v -19.259109 251.774460 -14.004515
v -19.259109 312.879822 -14.004515
v -20.256027 178.813339 -0.304713
v -20.256027 313.929321 -0.304713
v -21.456238 315.279144 -0.304713
v -21.456238 177.463577 -0.304713
v 20.144005 178.813339 -0.304713
v 21.344200 177.463577 -0.304713
v 20.144005 313.929321 -0.304713
v 21.344200 315.279144 -0.304713
v -19.259125 179.862854 -1.955231
v -19.259125 312.879822 -1.955231
v -22.430977 316.309448 -1.955231
v -22.430977 176.433243 -1.955231
v 19.147102 179.862854 -1.955231
v 22.318947 176.433243 -1.955231
v 19.147102 312.879822 -1.955231
v 22.318947 316.309448 -1.955231
v 34.039085 0.000000 -7.931664
v 34.039085 83.924820 -7.931664
v 34.039085 167.849640 -7.931664
v 34.039085 251.774460 -7.931664
vt 0.862383 0.818263
vt 0.757628 0.818263
vt 0.757628 0.805014
vt 0.862383 0.805014
vt 0.862383 0.818279
vt 0.757628 0.817955
vt 0.757628 0.803860
vt 0.862383 0.804204
vt 0.862383 0.820008
vt 0.757628 0.820008
vt 0.757628 0.806760
vt 0.862383 0.806760
vt 0.862383 0.818747
vt 0.757628 0.818423
vt 0.757628 0.804327
vt 0.862383 0.804671
vt 0.862383 0.829585
vt 0.757628 0.829585
vt 0.757628 0.794573
vt 0.862383 0.794573
vt 0.862383 0.828422
vt 0.757628 0.828115
vt 0.757628 0.792299
vt 0.862383 0.792660
vt 0.862383 0.830695
vt 0.757628 0.830695
vt 0.757628 0.795682
vt 0.862383 0.795682
vt 0.862383 0.830491
vt 0.757628 0.830184
vt 0.757628 0.794368
vt 0.862383 0.794729
vt 0.858224 0.851695
vt 0.762295 0.851785
vt 0.770234 0.829567
vt 0.826303 0.829518
vt 0.866806 0.756461
vt 0.866806 0.855033
vt 0.858224 0.756461
vt 0.857993 0.859534
vt 0.762479 0.859893
vt 0.862993 0.860970
vt 0.862913 0.852055
vt 0.760068 0.851965
vt 0.759955 0.860610
vt 0.862913 0.756461
vt 0.760068 0.756461
vt 0.857903 0.860252
vt 0.857756 0.851875
vt 0.826030 0.778695
vt 0.857756 0.756461
vt 0.762295 0.756461
vt 0.770234 0.778683
vt 0.769847 0.769046
vt 0.853669 0.769111
vt 0.853669 0.853133
vt 0.769847 0.853069
vt 0.866367 0.864455
vt 0.757549 0.864371
vt 0.757549 0.756719
vt 0.866367 0.756802
vt 0.862383 0.818263
vt 0.757628 0.818263
vt 0.757628 0.805014
vt 0.862383 0.805014
vt 0.862383 0.818279
vt 0.757628 0.817955
vt 0.757628 0.803860
vt 0.862383 0.804204
vt 0.862383 0.820008
vt 0.757628 0.820008
vt 0.757628 0.806760
vt 0.862383 0.806760
vt 0.862383 0.818747
vt 0.757628 0.818423
vt 0.757628 0.804327
vt 0.862383 0.804671
vt 0.862383 0.829585
vt 0.757628 0.829585
vt 0.757628 0.794573
vt 0.862383 0.794573
vt 0.862383 0.828422
vt 0.757628 0.828115
vt 0.757628 0.792299
vt 0.862383 0.792660
vt 0.862383 0.830695
vt 0.757628 0.830695
vt 0.757628 0.795682
vt 0.862383 0.795682
vt 0.862383 0.830491
vt 0.757628 0.830184
vt 0.757628 0.794368
vt 0.862383 0.794729
vt 0.826303 0.778671
vt 0.826030 0.829615
vt 0.829633 0.829351
vt 0.766596 0.829304
vt 0.829633 0.778958
vt 0.766596 0.778946
vt 0.829942 0.829256
vt 0.829942 0.778934
vt 0.858224 0.851695
vt 0.826303 0.829518
vt 0.770234 0.829567
vt 0.762295 0.851785
vt 0.866806 0.756461
vt 0.858224 0.756461
vt 0.866806 0.855033
vt 0.857993 0.859534
vt 0.762479 0.859893
vt 0.862993 0.860970
vt 0.759955 0.860610
vt 0.760068 0.851965
vt 0.862913 0.852055
vt 0.760068 0.756461
vt 0.862913 0.756461
vt 0.857756 0.851875
vt 0.857903 0.860252
vt 0.826030 0.778695
vt 0.770234 0.778683
vt 0.762295 0.756461
vt 0.857756 0.756461
vt 0.769847 0.769046
vt 0.769847 0.853069
vt 0.853669 0.853133
vt 0.853669 0.769111
vt 0.757549 0.864371
vt 0.866367 0.864455
vt 0.757549 0.756719
vt 0.866367 0.756802
vt 0.862383 0.818263
vt 0.862383 0.805014
vt 0.757628 0.805014
vt 0.757628 0.818263
vt 0.862383 0.818279
vt 0.862383 0.804204
vt 0.757628 0.803860
vt 0.757628 0.817955
vt 0.862383 0.820008
vt 0.862383 0.806760
vt 0.757628 0.806760
vt 0.757628 0.820008
vt 0.862383 0.818747
vt 0.862383 0.804671
vt 0.757628 0.804327
vt 0.757628 0.818423
vt 0.862383 0.829585
vt 0.757628 0.829585
vt 0.757628 0.794573
vt 0.862383 0.794573
vt 0.862383 0.828422
vt 0.757628 0.828115
vt 0.757628 0.792299
vt 0.862383 0.792660
vt 0.862383 0.830695
vt 0.757628 0.830695
vt 0.757628 0.795682
vt 0.862383 0.795682
vt 0.862383 0.830491
vt 0.757628 0.830184
vt 0.757628 0.794368
vt 0.862383 0.794729
vt 0.826303 0.778671
vt 0.826030 0.829615
vt 0.766596 0.829304
vt 0.829633 0.829351
vt 0.829633 0.778958
vt 0.766596 0.778946
vt 0.829942 0.829256
vt 0.829942 0.778934
vt 0.862383 0.818263
vt 0.757628 0.818263
vt 0.757628 0.805014
vt 0.862383 0.805014
vt 0.862383 0.818279
vt 0.757628 0.817955
vt 0.757628 0.803860
vt 0.862383 0.804204
vt 0.862383 0.820008
vt 0.757628 0.820008
vt 0.757628 0.806760
vt 0.862383 0.806760
vt 0.862383 0.818747
vt 0.757628 0.818423
vt 0.757628 0.804327
vt 0.862383 0.804671
vt 0.862383 0.829585
vt 0.757628 0.829585
vt 0.757628 0.794573
vt 0.862383 0.794573
vt 0.862383 0.828422
vt 0.757628 0.828115
vt 0.757628 0.792299
vt 0.862383 0.792660
vt 0.862383 0.830695
vt 0.757628 0.830695
vt 0.757628 0.795682
vt 0.862383 0.795682
vt 0.862383 0.830491
vt 0.757628 0.830184
vt 0.757628 0.794368
vt 0.862383 0.794729
vt 0.862913 0.756461
vt 0.760068 0.756461
vt 0.857756 0.756461
vt 0.762295 0.756461
vt 0.858224 0.756461
vn 0.000000 0.000000 -1.000000
vn 0.000000 0.000000 -1.000000
vn 0.000000 0.000000 -1.000000
vn 0.000000 0.000000 -1.000000
vn 0.000000 0.000000 -1.000000
vn 0.000000 0.000000 -1.000000
vn 0.000000 0.000000 -1.000000
vn 0.000000 0.000000 -1.000000
vn 0.000000 0.000000 -1.000000
vn 0.000000 0.000000 -1.000000
vn 0.000000 0.000000 -1.000000
vn 0.000000 0.000000 -1.000000
vn 0.000000 0.000000 -1.000000
vn 0.000000 0.000000 -1.000000
vn 0.000000 0.000000 -1.000000
vn 0.000000 0.000000 -1.000000
vn 0.855981 0.000000 -0.517007
vn 0.855981 0.000000 -0.517007
vn 0.855981 0.000000 -0.517007
vn 0.855981 0.000000 -0.517007
vn -0.861056 0.000000 -0.508510
vn -0.861056 0.000000 -0.508510
vn -0.861056 0.000000 -0.508510
vn -0.861056 0.000000 -0.508510
vn 0.000000 0.843848 -0.536582
vn 0.000000 0.843848 -0.536582
vn 0.000000 0.843848 -0.536582
vn 0.000000 0.843848 -0.536582
vn 0.000000 -0.848282 -0.529545
vn 0.000000 -0.848282 -0.529545
vn 0.000000 -0.848282 -0.529545
vn 0.000000 -0.848282 -0.529545
vn -0.855981 0.000000 -0.517007
vn -0.855981 0.000000 -0.517007
vn -0.855981 0.000000 -0.517008
vn -0.855981 0.000000 -0.517007
vn 0.861054 0.000000 -0.508513
vn 0.861054 0.000000 -0.508513
vn 0.861054 0.000000 -0.508513
vn 0.861054 0.000000 -0.508513
vn 0.000000 -0.843848 -0.536582
vn 0.000000 -0.843848 -0.536582
vn 0.000000 -0.843848 -0.536582
vn 0.000000 -0.843848 -0.536582
vn 0.000000 0.848292 -0.529528
vn 0.000000 0.848292 -0.529528
vn 0.000000 0.848292 -0.529528
vn 0.000000 0.848292 -0.529528
vn -0.000000 0.000000 1.000000
vn -0.000000 0.000000 1.000000
vn -0.000000 0.000000 1.000000
vn -0.000000 0.000000 1.000000
vn 0.000000 1.000000 0.000000
vn 0.000000 1.000000 0.000000
vn 0.000000 1.000000 0.000000
vn 0.000000 1.000000 0.000000
vn -1.000000 0.000000 0.000000
vn -1.000000 0.000000 0.000000
vn -1.000000 0.000000 0.000000
vn -1.000000 0.000000 0.000000
vn -1.000000 0.000000 0.000000
vn -1.000000 0.000000 0.000000
vn -1.000000 0.000000 0.000000
vn -1.000000 0.000000 0.000000
vn 0.000000 0.000000 1.000000
vn 0.000000 0.000000 1.000000
vn 0.000000 0.000000 1.000000
vn 0.000000 0.000000 1.000000
vn -1.000000 0.000000 0.000000
vn -1.000000 0.000000 0.000000
vn 0.000000 -0.000000 1.000000
vn 0.000000 -0.000000 1.000000
vn 0.000000 0.000000 1.000000
vn 0.000000 0.000000 1.000000
vn -0.000000 -0.000000 1.000000
vn 0.000000 0.000000 1.000000
vn 0.000000 0.000000 1.000000
vn 0.000000 0.000000 1.000000
vn 0.000000 0.000000 1.000000
vn 0.000000 0.648220 0.761453
vn 0.000000 0.648220 0.761453
vn 0.000000 0.648220 0.761453
vn 0.000000 0.648220 0.761453
vn 0.000000 -0.648220 0.761453
vn 0.000000 -0.648220 0.761453
vn 0.000000 -0.648221 0.761453
vn 0.000000 -0.648221 0.761453
vn 0.648218 0.000000 0.761455
vn 0.648218 0.000000 0.761455
vn 0.648218 0.000000 0.761455
vn 0.648218 0.000000 0.761455
vn -0.648218 0.000000 0.761455
vn -0.648218 0.000000 0.761455
vn -0.648218 0.000000 0.761455
vn -0.648218 0.000000 0.761455
vn 0.000000 0.000000 1.000000
vn 0.000000 0.000000 1.000000
vn 0.000000 0.000000 1.000000
vn 0.000000 0.000000 1.000000
vn 0.000000 0.000000 1.000000
vn 0.000000 0.000000 1.000000
vn 0.000000 0.000000 1.000000
vn 0.000000 0.000000 1.000000
vn -0.000000 0.000000 1.000000
vn -0.000000 0.000000 1.000000
vn -0.000000 0.000000 1.000000
vn -0.000000 0.000000 1.000000
vn 0.000000 0.000000 1.000000
vn 0.000000 0.000000 1.000000
vn 0.000000 0.000000 1.000000
vn 0.000000 0.000000 1.000000
vn 0.855981 0.000000 0.517007
vn 0.855981 0.000000 0.517007
vn 0.855981 0.000000 0.517007
vn 0.855981 0.000000 0.517007
vn -0.861056 0.000000 0.508510
vn -0.861056 0.000000 0.508510
vn -0.861056 0.000000 0.508510
vn -0.861056 0.000000 0.508510
vn 0.000000 0.843853 0.536575
vn 0.000000 0.843853 0.536575
vn 0.000000 0.843853 0.536575
vn 0.000000 0.843853 0.536575
vn 0.000000 -0.848288 0.529535
vn 0.000000 -0.848288 0.529535
vn 0.000000 -0.848288 0.529535
vn 0.000000 -0.848288 0.529535
vn -0.855981 0.000000 0.517007
vn -0.855981 0.000000 0.517007
vn -0.855981 0.000000 0.517007
vn -0.855981 0.000000 0.517007
vn 0.861054 0.000000 0.508513
vn 0.861054 0.000000 0.508513
vn 0.861054 0.000000 0.508513
vn 0.861054 0.000000 0.508513
vn 0.000000 -0.843856 0.536570
vn 0.000000 -0.843856 0.536570
vn 0.000000 -0.843856 0.536570
vn 0.000000 -0.843856 0.536570
vn 0.000000 0.848289 0.529534
vn 0.000000 0.848289 0.529534
vn 0.000000 0.848289 0.529534
vn 0.000000 0.848289 0.529534
vn 0.000000 0.000000 1.000000
vn 0.000000 0.000000 1.000000
vn -0.000000 -0.000000 1.000000
vn 1.000000 0.000000 0.000000
vn 1.000000 0.000000 0.000000
vn 1.000000 0.000000 0.000000
vn 1.000000 0.000000 0.000000
vn 0.000000 1.000000 0.000000
vn 0.000000 1.000000 0.000000
vn 0.000000 1.000000 0.000000
vn 0.000000 1.000000 0.000000
vn -1.000000 0.000000 0.000000
vn -1.000000 0.000000 0.000000
vn -1.000000 0.000000 0.000000
vn -1.000000 0.000000 0.000000
vn 1.000000 0.000000 0.000000
vn 1.000000 0.000000 0.000000
vn 1.000000 0.000000 0.000000
vn 1.000000 0.000000 0.000000
vn -1.000000 0.000000 0.000000
vn -1.000000 0.000000 0.000000
vn -1.000000 0.000000 0.000000
vn -1.000000 0.000000 0.000000
vn 0.000000 -1.000000 0.000000
vn 0.000000 -1.000000 0.000000
vn 0.000000 -1.000000 0.000000
vn 0.000000 -1.000000 0.000000
vn 0.000000 0.000000 -1.000000
vn 0.000000 0.000000 -1.000000
vn 0.000000 0.000000 -1.000000
vn 0.000000 0.000000 -1.000000
vn 0.000000 1.000000 0.000000
vn 0.000000 1.000000 0.000000
vn 0.000000 1.000000 0.000000
vn 0.000000 1.000000 0.000000
vn -1.000000 0.000000 0.000000
vn -1.000000 0.000000 0.000000
vn -1.000000 0.000000 0.000000
vn -1.000000 0.000000 0.000000
vn -1.000000 0.000000 0.000000
vn -1.000000 0.000000 0.000000
vn -1.000000 0.000000 0.000000
vn -1.000000 0.000000 0.000000
vn 0.000000 0.000000 -1.000000
vn 0.000000 0.000000 -1.000000
vn 0.000000 0.000000 -1.000000
vn 0.000000 0.000000 -1.000000
vn -1.000000 0.000000 0.000000
vn -1.000000 0.000000 0.000000
vn -0.000000 0.000000 -1.000000
vn -0.000000 0.000000 -1.000000
vn -0.000000 0.000000 -1.000000
vn -0.000000 0.000000 -1.000000
vn 0.000000 0.000000 -1.000000
vn 0.000000 0.000000 -1.000000
vn 0.000000 0.000000 -1.000000
vn 0.000000 0.000000 -1.000000
vn 0.000000 0.000000 -1.000000
vn 0.000000 0.648218 -0.761455
vn 0.000000 0.648218 -0.761455
vn 0.000000 0.648218 -0.761455
vn 0.000000 0.648218 -0.761455
vn 0.000000 -0.648221 -0.761453
vn 0.000000 -0.648221 -0.761453
vn 0.000000 -0.648221 -0.761453
vn 0.000000 -0.648221 -0.761453
vn 0.648217 0.000000 -0.761455
vn 0.648218 0.000000 -0.761455
vn 0.648217 0.000000 -0.761455
vn 0.648217 0.000000 -0.761455
vn -0.648218 0.000000 -0.761455
vn -0.648218 0.000000 -0.761455
vn -0.648218 0.000000 -0.761455
vn -0.648218 0.000000 -0.761455
vn 0.000001 0.000000 -1.000000
vn 0.000001 0.000000 -1.000000
vn 0.000001 0.000000 -1.000000
vn 0.000001 0.000000 -1.000000
vn 0.000000 0.000000 -1.000000
vn 0.000000 0.000000 -1.000000
vn 0.000000 0.000000 -1.000000
vn 0.000000 0.000000 -1.000000
vn -0.000001 0.000000 -1.000000
vn -0.000001 0.000000 -1.000000
vn -0.000001 0.000000 -1.000000
vn -0.000001 0.000000 -1.000000
vn 0.000000 0.000000 -1.000000
vn 0.000000 0.000000 -1.000000
vn 0.000000 0.000000 -1.000000
vn 0.000000 0.000000 -1.000000
vn 0.855981 0.000000 -0.517007
vn 0.855981 0.000000 -0.517007
vn 0.855981 0.000000 -0.517007
vn 0.855981 0.000000 -0.517007
vn -0.861060 0.000000 -0.508504
vn -0.861060 0.000000 -0.508504
vn -0.861060 0.000000 -0.508504
vn -0.861060 0.000000 -0.508504
vn 0.000000 0.843853 -0.536575
vn 0.000000 0.843853 -0.536575
vn 0.000000 0.843853 -0.536575
vn 0.000000 0.843853 -0.536575
vn 0.000000 -0.848288 -0.529535
vn 0.000000 -0.848288 -0.529535
vn 0.000000 -0.848288 -0.529535
vn 0.000000 -0.848288 -0.529535
vn -0.855981 0.000000 -0.517007
vn -0.855981 0.000000 -0.517007
vn -0.855981 0.000000 -0.517007
vn -0.855981 0.000000 -0.517007
vn 0.861054 0.000000 -0.508513
vn 0.861054 0.000000 -0.508513
vn 0.861054 0.000000 -0.508513
vn 0.861054 0.000000 -0.508513
vn 0.000000 -0.843857 -0.536568
vn 0.000000 -0.843857 -0.536568
vn 0.000000 -0.843857 -0.536568
vn 0.000000 -0.843857 -0.536568
vn 0.000000 0.848292 -0.529528
vn 0.000000 0.848292 -0.529528
vn 0.000000 0.848292 -0.529528
vn 0.000000 0.848292 -0.529528
vn -0.000000 0.000000 -1.000000
vn -0.000000 0.000000 -1.000000
vn 0.000000 0.000000 -1.000000
vn 1.000000 0.000000 0.000003
vn 1.000000 0.000000 0.000003
vn 1.000000 0.000000 0.000003
vn 1.000000 0.000000 0.000003
vn 0.000000 1.000000 0.000002
vn 0.000000 1.000000 0.000002
vn 0.000000 1.000000 0.000002
vn 0.000000 1.000000 0.000002
vn -1.000000 0.000000 0.000001
vn -1.000000 0.000000 0.000001
vn -1.000000 0.000000 0.000001
vn -1.000000 0.000000 0.000001
vn 1.000000 0.000000 0.000003
vn 1.000000 0.000000 0.000003
vn 1.000000 0.000000 0.000003
vn 1.000000 0.000000 0.000003
vn -1.000000 0.000000 0.000001
vn -1.000000 0.000000 0.000001
vn -1.000000 0.000000 0.000001
vn -1.000000 0.000000 0.000001
vn 0.000000 -1.000000 0.000000
vn 0.000000 -1.000000 0.000000
vn 0.000000 -1.000000 0.000000
vn 0.000000 -1.000000 0.000000
vn 0.000000 0.000000 1.000000
vn 0.000000 0.000000 1.000000
vn 0.000000 0.000000 1.000000
vn 0.000000 0.000000 1.000000
vn 0.000000 0.000000 1.000000
vn 0.000000 0.000000 1.000000
vn 0.000000 0.000000 1.000000
vn 0.000000 0.000000 1.000000
vn -0.000000 0.000000 1.000000
vn -0.000000 0.000000 1.000000
vn -0.000000 0.000000 1.000000
vn -0.000000 0.000000 1.000000
vn 0.000000 0.000000 1.000000
vn 0.000000 0.000000 1.000000
vn 0.000000 0.000000 1.000000
vn 0.000000 0.000000 1.000000
vn 0.855981 0.000000 0.517007
vn 0.855981 0.000000 0.517007
vn 0.855981 0.000000 0.517007
vn 0.855981 0.000000 0.517007
vn -0.861056 0.000000 0.508510
vn -0.861056 0.000000 0.508510
vn -0.861056 0.000000 0.508510
vn -0.861056 0.000000 0.508510
vn 0.000000 0.843849 0.536581
vn 0.000000 0.843849 0.536581
vn 0.000000 0.843849 0.536581
vn 0.000000 0.843849 0.536581
vn 0.000000 -0.848282 0.529545
vn 0.000000 -0.848282 0.529545
vn 0.000000 -0.848282 0.529545
vn 0.000000 -0.848282 0.529545
vn -0.855981 0.000000 0.517007
vn -0.855981 0.000000 0.517007
vn -0.855981 0.000000 0.517007
vn -0.855981 0.000000 0.517007
vn 0.861054 0.000000 0.508513
vn 0.861054 0.000000 0.508513
vn 0.861054 0.000000 0.508513
vn 0.861054 0.000000 0.508513
vn 0.000000 -0.843849 0.536580
vn 0.000000 -0.843849 0.536580
vn 0.000000 -0.843849 0.536580
vn 0.000000 -0.843849 0.536580
vn 0.000000 0.848293 0.529527
vn 0.000000 0.848293 0.529527
vn 0.000000 0.848293 0.529527
vn 0.000000 0.848293 0.529527
vn 1.000000 0.000000 0.000000
vn 1.000000 0.000000 0.000000
vn 1.000000 0.000000 0.000000
vn 1.000000 0.000000 0.000000
vn 1.000000 0.000000 0.000000
vn 1.000000 0.000000 0.000000
vn 1.000000 0.000000 0.000000
vn 1.000000 0.000000 0.000000
vn 1.000000 0.000000 0.000000
vn 1.000000 0.000000 0.000000
vn 1.000000 0.000000 0.000000
vn 1.000000 0.000000 0.000000
vn 1.000000 0.000000 0.000000
vn 1.000000 0.000000 0.000000
vn 1.000000 0.000000 0.000000
f 1/1/1 4/4/2 3/3/3 2/2/4
f 5/5/5 6/8/6 4/7/7 1/6/8
f 7/9/9 8/12/10 6/11/11 5/10/12
f 2/13/13 3/16/14 8/15/15 7/14/16
f 9/17/17 1/1/18 2/2/19 10/18/20
f 11/19/21 3/3/22 4/4/23 12/20/24
f 13/21/25 5/5/26 1/6/27 9/22/28
f 12/23/29 4/7/30 6/8/31 14/24/32
f 15/25/33 7/9/34 5/10/35 13/26/36
f 14/27/37 6/11/38 8/12/39 16/28/40
f 10/29/41 2/13/42 7/14/43 15/30/44
f 16/31/45 8/15/46 3/16/47 11/32/48
f 18/33/49 28/34/50 61/35/51 62/36/52
f 23/37/53 19/38/54 18/33/55 22/39/56
f 19/40/57 27/41/58 28/34/59 18/33/60
f 20/42/61 17/43/62 30/44/63 31/45/64
f 30/44/65 17/43/66 21/46/67 32/47/68
f 27/41/58 24/48/69 25/49/70 28/34/59
f 57/50/71 26/51/72 29/52/73 58/53/74
f 31/45/64 30/44/63 25/49/70 24/48/69
f 25/49/75 30/44/65 32/47/68 26/51/72
f 33/54/76 34/55/77 36/56/78 35/57/79
f 35/57/80 36/56/81 38/58/82 37/59/83
f 39/60/84 40/61/85 34/55/86 33/54/87
f 34/55/88 40/61/89 38/58/90 36/56/91
f 39/60/92 33/54/93 35/57/94 37/59/95
f 50/62/96 49/63/97 51/64/98 52/65/99
f 53/66/100 50/67/101 52/68/102 54/69/103
f 55/70/104 53/71/105 54/72/106 56/73/107
f 49/74/108 55/75/109 56/76/110 51/77/111
f 46/78/112 45/79/113 49/63/114 50/62/115
f 41/80/116 43/81/117 52/65/118 51/64/119
f 47/82/120 46/83/121 50/67/122 53/66/123
f 43/84/124 44/85/125 54/69/126 52/68/127
f 48/86/128 47/87/129 53/71/130 55/70/131
f 44/88/132 42/89/133 56/73/134 54/72/135
f 45/90/136 48/91/137 55/75/138 49/74/139
f 42/92/140 41/93/141 51/77/142 56/76/143
f 59/94/144 58/53/74 29/52/73 22/39/145
f 28/34/50 25/49/75 60/95/146 61/35/51
f 60/95/146 25/49/75 26/51/72 57/50/71
f 18/33/49 62/36/52 59/94/144 22/39/145
f 61/35/147 60/95/148 65/96/149 63/97/150
f 60/95/151 57/50/152 66/98/153 65/96/154
f 57/50/155 58/53/156 64/99/157 66/98/158
f 62/36/159 61/35/160 63/97/161 67/100/162
f 58/53/163 59/94/164 68/101/165 64/99/166
f 59/94/167 62/36/168 67/100/169 68/101/170
f 70/102/171 108/103/172 107/104/173 75/105/174
f 23/106/175 72/107/176 70/102/177 19/108/178
f 19/109/179 70/102/180 75/105/181 27/110/182
f 20/111/183 31/112/184 77/113/185 69/114/186
f 77/113/187 78/115/188 71/116/189 69/114/190
f 27/110/182 75/105/181 73/117/191 24/118/192
f 103/119/193 104/120/194 76/121/195 74/122/196
f 31/112/184 24/118/192 73/117/191 77/113/185
f 73/117/197 74/122/196 78/115/188 77/113/187
f 79/123/198 81/124/199 82/125/200 80/126/201
f 81/124/202 83/127/203 84/128/204 82/125/205
f 85/129/206 79/123/207 80/126/208 86/130/209
f 80/126/210 82/125/211 84/128/212 86/130/213
f 85/129/214 83/127/215 81/124/216 79/123/217
f 96/131/218 98/132/219 97/133/220 95/134/221
f 99/135/222 100/136/223 98/137/224 96/138/225
f 101/139/226 102/140/227 100/141/228 99/142/229
f 95/143/230 97/144/231 102/145/232 101/146/233
f 92/147/234 96/131/235 95/134/236 91/148/237
f 87/149/238 97/133/239 98/132/240 89/150/241
f 93/151/242 99/135/243 96/138/244 92/152/245
f 89/153/246 98/137/247 100/136/248 90/154/249
f 94/155/250 101/139/251 99/142/252 93/156/253
f 90/157/254 100/141/255 102/140/256 88/158/257
f 91/159/258 95/143/259 101/146/260 94/160/261
f 88/161/262 102/145/263 97/144/264 87/162/265
f 105/163/266 72/107/267 76/121/195 104/120/194
f 75/105/174 107/104/173 106/164/268 73/117/197
f 106/164/268 103/119/193 74/122/196 73/117/197
f 70/102/171 72/107/267 105/163/266 108/103/172
f 107/104/269 63/165/270 65/166/271 106/164/272
f 106/164/273 65/166/274 66/167/275 103/119/276
f 103/119/277 66/167/278 64/168/279 104/120/280
f 108/103/281 67/169/282 63/165/283 107/104/284
f 104/120/285 64/168/286 68/170/287 105/163/288
f 105/163/289 68/170/290 67/169/291 108/103/292
f 109/171/293 110/172/294 111/173/295 112/174/296
f 113/175/297 109/176/298 112/177/299 114/178/300
f 115/179/301 113/180/302 114/181/303 116/182/304
f 110/183/305 115/184/306 116/185/307 111/186/308
f 117/187/309 118/188/310 110/172/311 109/171/312
f 119/189/313 120/190/314 112/174/315 111/173/316
f 121/191/317 117/192/318 109/176/319 113/175/320
f 120/193/321 122/194/322 114/178/323 112/177/324
f 123/195/325 121/196/326 113/180/327 115/179/328
f 122/197/329 124/198/330 116/182/331 114/181/332
f 118/199/333 123/200/334 115/184/335 110/183/336
f 124/201/337 119/202/338 111/186/339 116/185/340
f 23/207/341 22/39/342 29/52/343 128/206/344
f 29/52/343 26/51/345 127/205/346 128/206/344
f 26/51/345 32/47/347 126/204/348 127/205/346
f 32/47/347 21/46/349 125/203/350 126/204/348
f 78/115/351 126/204/348 125/203/350 71/116/352
f 74/122/353 127/205/346 126/204/348 78/115/351
f 76/121/354 128/206/344 127/205/346 74/122/353
f 72/107/355 23/207/341 128/206/344 76/121/354
