# This file uses meters as units for non-parametric coordinates.

v -34.151108 335.699280 -1.858817
v -34.151108 167.849640 -1.858817
v -34.151108 335.699280 -7.931666
v -34.151108 167.849640 -7.931666
v -34.151108 0.000000 -7.931666
v -34.151108 0.000000 -1.858817
v 34.151108 335.699280 -1.858817
v 34.151108 335.699280 -7.931666
v 34.151108 -0.000000 -1.858817
v 34.151108 0.000000 -7.931666
v 34.151108 167.849640 -7.931666
v 34.151108 167.849640 -1.858817
v 23.914520 167.849640 -1.858817
v 23.914520 323.569946 -1.858817
v -23.914536 323.569946 -1.858817
v -23.914536 167.849640 -1.858817
v -23.914536 12.129318 -1.858817
v 23.914520 12.129318 -1.858817
v -34.151108 335.699280 -14.004515
v -34.151108 167.849640 -14.004515
v -34.151108 0.000000 -14.004515
v 34.151108 335.699280 -14.004515
v 34.151108 -0.000000 -14.004515
v 34.151108 167.849640 -14.004515
v 23.914520 167.849640 -14.004515
v 23.914520 323.569946 -14.004515
v -23.914536 323.569946 -14.004515
v -23.914536 167.849640 -14.004515
v -23.914536 12.129318 -14.004515
v 23.914520 12.129318 -14.004515
vt 0.964241 0.684673
vt 0.885175 0.684673
vt 0.890465 0.662750
vt 0.885175 0.654594
vt 0.968241 0.654594
vt 0.960396 0.684673
vt 0.968446 0.683046
vt 0.967656 0.664145
vt 0.898623 0.655164
vt 0.973830 0.657495
vt 0.897835 0.655164
vt 0.975389 0.650678
vt 0.975389 0.655704
vt 0.970741 0.697809
vt 0.956401 0.702600
vt 0.958114 0.705913
vt 0.889823 0.705913
vt 0.906929 0.689166
vt 0.905423 0.694710
vt 0.970741 0.697809
vt 0.889823 0.705913
vt 0.919566 0.701496
vt 0.902792 0.694710
vt 0.890465 0.662750
vt 0.967656 0.664145
vt 0.896719 0.650576
vt 0.907521 0.681768
vt 0.885175 0.684673
vt 0.885175 0.654594
vt 0.890444 0.659617
vt 0.968241 0.654594
vt 0.957344 0.687334
vt 0.954793 0.705913
vt 0.898623 0.655164
vt 0.975389 0.650678
vt 0.975389 0.655704
vt 0.897835 0.655164
vt 0.899765 0.650576
vt 0.957344 0.687334
vt 0.905423 0.694710
vt 0.954793 0.705913
vt 0.906929 0.689166
vt 0.919566 0.701496
vt 0.958114 0.705913
vt 0.902792 0.694710
vt 0.956401 0.702600
vt 0.973830 0.657495
vt 0.960396 0.684673
vt 0.964241 0.684673
vt 0.968446 0.683046
vt 0.970147 0.654594
vt 0.970147 0.654594
vt 0.899765 0.650576
vt 0.890444 0.659617
vt 0.907521 0.681768
vt 0.896719 0.650576
vn 0.000000 1.000000 0.000000
vn 0.000000 1.000000 0.000000
vn 0.000000 1.000000 0.000000
vn 0.000000 1.000000 0.000000
vn -1.000000 0.000000 0.000000
vn -1.000000 0.000000 0.000000
vn -1.000000 0.000000 0.000000
vn -1.000000 0.000000 0.000000
vn -1.000000 0.000000 0.000000
vn -1.000000 0.000000 0.000000
vn 1.000000 0.000000 0.000000
vn 1.000000 0.000000 0.000000
vn 1.000000 0.000000 0.000000
vn 1.000000 0.000000 0.000000
vn 1.000000 -0.000000 0.000000
vn 1.000000 -0.000000 0.000000
vn 0.000000 0.000000 1.000000
vn 0.000000 0.000000 1.000000
vn 0.000000 0.000000 1.000000
vn 0.000000 0.000000 1.000000
vn 0.000000 0.000000 1.000000
vn 0.000000 0.000000 1.000000
vn 0.000000 0.000000 1.000000
vn 0.000000 0.000000 1.000000
vn -0.000000 0.000000 1.000000
vn -0.000000 0.000000 1.000000
vn -0.000000 0.000000 1.000000
vn -0.000000 0.000000 1.000000
vn -0.000000 0.000000 1.000000
vn -0.000000 0.000000 1.000000
vn -0.000000 0.000000 1.000000
vn -0.000000 0.000000 1.000000
vn 0.000000 0.000000 1.000000
vn 0.000000 0.000000 1.000000
vn 0.000000 0.000000 1.000000
vn 0.000000 0.000000 1.000000
vn -0.000000 -0.000000 1.000000
vn -0.000000 -0.000000 1.000000
vn -0.000000 -0.000000 1.000000
vn -0.000000 -0.000000 1.000000
vn 0.000000 1.000000 0.000000
vn 0.000000 1.000000 0.000000
vn 0.000000 1.000000 0.000000
vn 0.000000 1.000000 0.000000
vn -1.000000 0.000000 0.000000
vn -1.000000 0.000000 0.000000
vn -1.000000 0.000000 0.000000
vn -1.000000 0.000000 0.000000
vn -1.000000 0.000000 0.000000
vn -1.000000 0.000000 0.000000
vn 1.000000 0.000000 0.000000
vn 1.000000 0.000000 0.000000
vn 1.000000 0.000000 0.000000
vn 1.000000 0.000000 0.000000
vn 1.000000 0.000000 0.000000
vn 1.000000 0.000000 0.000000
vn 0.000000 0.000000 -1.000000
vn 0.000000 0.000000 -1.000000
vn 0.000000 0.000000 -1.000000
vn 0.000000 0.000000 -1.000000
vn 0.000000 0.000000 -1.000000
vn 0.000000 0.000000 -1.000000
vn 0.000000 0.000000 -1.000000
vn 0.000000 0.000000 -1.000000
vn 0.000000 0.000000 -1.000000
vn 0.000000 0.000000 -1.000000
vn 0.000000 0.000000 -1.000000
vn 0.000000 0.000000 -1.000000
vn 0.000000 0.000000 -1.000000
vn 0.000000 0.000000 -1.000000
vn 0.000000 0.000000 -1.000000
vn 0.000000 0.000000 -1.000000
vn 0.000000 0.000000 -1.000000
vn 0.000000 0.000000 -1.000000
vn 0.000000 0.000000 -1.000000
vn 0.000000 0.000000 -1.000000
vn 0.000000 0.000000 -1.000000
vn 0.000000 0.000000 -1.000000
vn 0.000000 0.000000 -1.000000
vn 0.000000 0.000000 -1.000000
vn 0.000000 -1.000000 0.000000
vn 0.000000 -1.000000 0.000000
vn 0.000000 -1.000000 0.000000
vn 0.000000 -1.000000 0.000000
vn 1.000000 0.000000 0.000000
vn 1.000000 0.000000 0.000000
vn 1.000000 0.000000 0.000000
vn 1.000000 0.000000 0.000000
vn 1.000000 0.000000 0.000000
vn 1.000000 0.000000 0.000000
vn 0.000000 1.000000 0.000000
vn 0.000000 1.000000 0.000000
vn 0.000000 1.000000 0.000000
vn 0.000000 1.000000 0.000000
vn -1.000000 0.000000 0.000000
vn -1.000000 0.000000 0.000000
vn -1.000000 0.000000 0.000000
vn -1.000000 0.000000 0.000000
vn -1.000000 0.000000 0.000000
vn -1.000000 0.000000 0.000000
f 3/3/1 1/55/2 7/7/3 8/8/4
f 2/2/5 1/1/6 3/51/7 4/4/8
f 4/4/8 5/5/9 6/6/10 2/2/5
f 7/56/11 12/13/12 11/12/13 8/9/14
f 12/13/12 9/53/15 10/11/16 11/12/13
f 12/13/17 7/56/18 14/45/19 13/14/20
f 7/7/21 1/55/22 15/43/23 14/15/24
f 1/1/25 2/2/26 16/17/27 15/16/28
f 2/2/29 6/6/30 17/41/31 16/17/32
f 6/54/33 9/10/34 18/39/35 17/18/36
f 9/53/37 12/13/38 13/14/39 18/19/40
f 3/24/41 8/25/42 22/50/43 19/27/44
f 20/28/45 4/29/46 3/52/47 19/49/48
f 4/29/46 20/28/45 21/48/49 5/31/50
f 22/26/51 8/34/52 11/35/53 24/36/54
f 24/36/54 11/35/53 10/37/55 23/38/56
f 24/36/57 25/20/58 26/23/59 22/26/60
f 22/50/61 26/46/62 27/22/63 19/27/64
f 19/49/65 27/44/66 28/21/67 20/28/68
f 20/28/69 28/21/70 29/33/71 21/48/72
f 21/30/73 29/42/74 30/32/75 23/47/76
f 23/38/77 30/40/78 25/20/79 24/36/80
f 14/15/81 15/43/82 27/22/83 26/46/84
f 15/16/85 16/17/86 28/21/87 27/44/88
f 16/17/86 17/41/89 29/33/90 28/21/87
f 17/18/91 18/39/92 30/32/93 29/42/94
f 18/19/95 13/14/96 25/20/97 30/40/98
f 13/14/96 14/45/99 26/23/100 25/20/97
