# This file uses meters as units for non-parametric coordinates.

v -18.224083 -0.000005 5.757105
v -23.309189 5.459346 5.757105
v -18.224083 175.588222 5.757105
v -23.309189 170.128871 5.757105
v -18.224083 175.588222 -5.757105
v -23.309189 170.128871 -5.757105
v -18.224083 -0.000005 -5.757105
v -23.309189 5.459346 -5.757105
v -100.000122 5.459346 5.757105
v -100.000122 5.459346 -5.757105
v -100.000122 -0.000005 -5.757105
v -100.000122 -0.000005 5.757105
v -100.000122 170.128871 5.757105
v -100.000122 175.588222 5.757105
v -100.000122 175.588222 -5.757105
v -100.000122 170.128871 -5.757105
vt 0.774869 0.814601
vt 0.772979 0.815540
vt 0.864135 0.822250
vt 0.767836 0.822250
vt 0.839967 0.798235
vt 0.841277 0.799094
vt 0.798857 0.789362
vt 0.801401 0.788723
vt 0.790555 0.799094
vt 0.829595 0.787389
vt 0.788486 0.799972
vt 0.830668 0.788723
vt 0.863123 0.820954
vt 0.855474 0.813921
vt 0.765330 0.822829
vt 0.856846 0.814601
vt 0.814662 0.798180
vt 0.814994 0.787357
vt 0.815080 0.820849
vt 0.814576 0.813831
vt 0.813791 0.800027
vt 0.813876 0.815629
vt 0.813373 0.822934
vt 0.813458 0.789394
vn 1.000000 0.000000 0.000000
vn 1.000000 0.000000 0.000000
vn 1.000000 0.000000 0.000000
vn 1.000000 0.000000 0.000000
vn 0.000000 0.000000 1.000000
vn 0.000000 0.000000 1.000000
vn 0.000000 0.000000 1.000000
vn 0.000000 0.000000 1.000000
vn 0.000000 0.000000 1.000000
vn 0.000000 0.000000 1.000000
vn 0.000000 0.000000 1.000000
vn 0.000000 0.000000 1.000000
vn 0.000000 0.000000 1.000000
vn 0.000000 0.000000 1.000000
vn 0.000000 0.000000 1.000000
vn 0.000000 0.000000 1.000000
vn 0.000000 0.000000 -1.000000
vn 0.000000 0.000000 -1.000000
vn 0.000000 0.000000 -1.000000
vn 0.000000 0.000000 -1.000000
vn 0.000000 0.000000 -1.000000
vn 0.000000 0.000000 -1.000000
vn 0.000000 0.000000 -1.000000
vn 0.000000 0.000000 -1.000000
vn 0.000000 0.000000 -1.000000
vn 0.000000 0.000000 -1.000000
vn 0.000000 0.000000 -1.000000
vn 0.000000 0.000000 -1.000000
vn 0.000000 -1.000000 0.000000
vn 0.000000 -1.000000 0.000000
vn 0.000000 -1.000000 0.000000
vn 0.000000 -1.000000 0.000000
vn 0.000000 -1.000000 0.000000
vn 0.000000 -1.000000 0.000000
vn 0.000000 -1.000000 0.000000
vn 0.000000 -1.000000 0.000000
vn 0.000000 1.000000 0.000000
vn 0.000000 1.000000 0.000000
vn 0.000000 1.000000 0.000000
vn 0.000000 1.000000 0.000000
vn 0.000000 1.000000 0.000000
vn 0.000000 1.000000 0.000000
vn 0.000000 1.000000 0.000000
vn 0.000000 1.000000 0.000000
vn -1.000000 0.000000 0.000000
vn -1.000000 0.000000 0.000000
vn -1.000000 0.000000 0.000000
vn -1.000000 0.000000 0.000000
f 1/1/1 7/4/2 5/3/3 3/16/4
f 1/14/5 2/5/6 9/17/7 12/20/8
f 14/22/9 13/21/10 4/11/11 3/2/12
f 3/16/13 4/6/14 2/9/15 1/1/16
f 5/15/17 6/7/18 16/24/19 15/23/20
f 11/19/21 10/18/22 8/10/23 7/13/24
f 7/4/25 8/8/26 6/12/27 5/3/28
f 12/20/29 11/19/30 7/13/31 1/14/32
f 16/24/33 6/7/34 4/11/35 13/21/36
f 14/22/37 3/2/38 5/15/39 15/23/40
f 10/18/41 9/17/42 2/5/43 8/10/44
f 8/8/45 2/9/46 4/6/47 6/12/48
