# This file uses meters as units for non-parametric coordinates.

v 2.384895 50.272263 0.000000
v -100.000114 50.272263 0.000000
v -95.230324 45.151474 0.000000
v -2.384895 45.151474 0.000000
v -100.000114 4.710876 0.000000
v -95.230324 9.831696 0.000000
v 2.384895 4.710876 0.000000
v -2.384895 9.831696 0.000000
v 2.384895 4.710876 -4.013205
v -100.000114 4.710876 -4.013205
v -95.230324 9.831696 -4.013205
v -2.384895 9.831696 -4.013205
v -100.000114 50.272263 -4.013205
v -95.230324 45.151474 -4.013205
v 2.384895 50.272263 -4.013205
v -2.384895 45.151474 -4.013205
vt 0.611913 0.780515
vt 0.611638 0.783483
vt 0.518349 0.782238
vt 0.612658 0.782238
vt 0.611381 0.786675
vt 0.527004 0.813997
vt 0.521481 0.814583
vt 0.610772 0.780234
vt 0.521737 0.811391
vt 0.528145 0.811359
vt 0.610026 0.778347
vt 0.599368 0.812110
vt 0.605514 0.815996
vt 0.611705 0.784528
vt 0.605905 0.814894
vt 0.602000 0.813083
vt 0.601254 0.811359
vt 0.521805 0.812436
vt 0.605838 0.813849
vt 0.528890 0.813083
vt 0.600113 0.813997
vt 0.521413 0.813538
vt 0.605581 0.817041
vt 0.526258 0.812110
vt 0.516005 0.781731
vt 0.515680 0.783878
vt 0.515718 0.778347
vt 0.516463 0.780234
vt 0.611314 0.785630
vt 0.515613 0.782833
vt 0.515937 0.780686
vt 0.517604 0.780515
vn 1.000000 0.000000 0.000000
vn 1.000000 0.000000 0.000000
vn 1.000000 0.000000 0.000000
vn 1.000000 0.000000 0.000000
vn 0.000000 0.000000 1.000000
vn 0.000000 0.000000 1.000000
vn 0.000000 0.000000 1.000000
vn 0.000000 0.000000 1.000000
vn 0.000000 0.000000 1.000000
vn 0.000000 0.000000 1.000000
vn 0.000000 0.000000 1.000000
vn 0.000000 0.000000 1.000000
vn 0.000000 0.000000 1.000000
vn 0.000000 0.000000 1.000000
vn 0.000000 0.000000 1.000000
vn 0.000000 0.000000 1.000000
vn 0.000000 0.000000 1.000000
vn 0.000000 0.000000 1.000000
vn 0.000000 0.000000 1.000000
vn 0.000000 0.000000 1.000000
vn 0.000000 0.000000 -1.000000
vn 0.000000 0.000000 -1.000000
vn 0.000000 0.000000 -1.000000
vn 0.000000 0.000000 -1.000000
vn 0.000000 0.000000 -1.000000
vn 0.000000 0.000000 -1.000000
vn 0.000000 0.000000 -1.000000
vn 0.000000 0.000000 -1.000000
vn 0.000000 0.000000 -1.000000
vn 0.000000 0.000000 -1.000000
vn 0.000000 0.000000 -1.000000
vn 0.000000 0.000000 -1.000000
vn -0.000000 0.000000 -1.000000
vn -0.000000 0.000000 -1.000000
vn -0.000000 0.000000 -1.000000
vn -0.000000 0.000000 -1.000000
vn 0.000000 1.000000 0.000000
vn 0.000000 1.000000 0.000000
vn 0.000000 1.000000 0.000000
vn 0.000000 1.000000 0.000000
vn 0.000000 1.000000 0.000000
vn 0.000000 1.000000 0.000000
vn 0.000000 1.000000 0.000000
vn 0.000000 1.000000 0.000000
vn 0.000000 -1.000000 0.000000
vn 0.000000 -1.000000 0.000000
vn 0.000000 -1.000000 0.000000
vn 0.000000 -1.000000 0.000000
vn -1.000000 0.000000 0.000000
vn -1.000000 0.000000 0.000000
vn -1.000000 0.000000 0.000000
vn -1.000000 0.000000 0.000000
vn 0.000000 -1.000000 0.000000
vn 0.000000 -1.000000 0.000000
vn 0.000000 -1.000000 0.000000
vn 0.000000 -1.000000 0.000000
vn -1.000000 0.000000 0.000000
vn -1.000000 0.000000 0.000000
vn -1.000000 0.000000 0.000000
vn -1.000000 0.000000 0.000000
vn 1.000000 0.000000 0.000000
vn 1.000000 0.000000 0.000000
vn 1.000000 0.000000 0.000000
vn 1.000000 0.000000 0.000000
f 1/1/1 7/32/2 9/3/3 15/4/4
f 1/26/5 2/5/6 3/23/7 4/7/8
f 2/28/9 5/8/10 6/21/11 3/6/12
f 5/31/13 7/2/14 8/19/15 6/9/16
f 7/32/17 1/1/18 4/17/19 8/10/20
f 9/29/21 10/30/22 11/22/23 12/13/24
f 10/11/25 13/27/26 14/24/27 11/12/28
f 13/14/29 15/25/30 16/18/31 14/15/32
f 15/4/33 9/3/34 12/20/35 16/16/36
f 2/5/37 1/26/38 15/25/39 13/14/40
f 11/22/41 6/9/42 8/19/43 12/13/44
f 5/31/45 10/30/46 9/29/47 7/2/48
f 2/28/49 13/27/50 10/11/51 5/8/52
f 14/15/53 16/18/54 4/7/55 3/23/56
f 16/16/57 12/20/58 8/10/59 4/17/60
f 14/24/61 3/6/62 6/21/63 11/12/64
