# This file uses meters as units for non-parametric coordinates.

v 100.000015 170.128876 4.013205
v -100.000114 170.128876 4.013205
v -95.230324 165.008087 4.013205
v 95.230225 165.008087 4.013205
v -100.000114 49.823883 4.013205
v -95.230324 54.944702 4.013205
v 100.000015 49.823883 4.013205
v 95.230225 54.944702 4.013205
v 100.000015 49.823883 0.000000
v -100.000114 49.823883 0.000000
v -95.230324 54.944702 0.000000
v 95.230225 54.944702 0.000000
v -100.000114 170.128876 0.000000
v -95.230324 165.008087 0.000000
v 100.000015 170.128876 0.000000
v 95.230225 165.008087 0.000000
vt 0.864109 0.785208
vt 0.863809 0.783801
vt 0.759329 0.787141
vt 0.864424 0.787141
vt 0.864186 0.791072
vt 0.764689 0.821157
vt 0.761465 0.819613
vt 0.865336 0.780249
vt 0.761087 0.812343
vt 0.763463 0.819795
vt 0.865021 0.777963
vt 0.860523 0.818871
vt 0.860324 0.820537
vt 0.864371 0.788646
vt 0.861070 0.822956
vt 0.859926 0.821728
vt 0.859611 0.819795
vt 0.761649 0.817187
vt 0.860508 0.818111
vt 0.763778 0.821728
vt 0.860837 0.821157
vt 0.760903 0.814769
vt 0.860886 0.825382
vt 0.764375 0.818871
vt 0.758348 0.782494
vt 0.758164 0.784920
vt 0.759926 0.777963
vt 0.760241 0.780249
vt 0.863625 0.786227
vt 0.757602 0.780076
vt 0.757787 0.777649
vt 0.759015 0.785208
vn 1.000000 0.000000 0.000000
vn 1.000000 0.000000 0.000000
vn 1.000000 0.000000 0.000000
vn 1.000000 0.000000 0.000000
vn 0.000000 0.000000 1.000000
vn 0.000000 0.000000 1.000000
vn 0.000000 0.000000 1.000000
vn 0.000000 0.000000 1.000000
vn -0.000000 0.000000 1.000000
vn -0.000000 0.000000 1.000000
vn -0.000000 0.000000 1.000000
vn -0.000000 0.000000 1.000000
vn 0.000000 0.000000 1.000000
vn 0.000000 0.000000 1.000000
vn 0.000000 0.000000 1.000000
vn 0.000000 0.000000 1.000000
vn 0.000000 0.000000 1.000000
vn 0.000000 0.000000 1.000000
vn 0.000000 0.000000 1.000000
vn 0.000000 0.000000 1.000000
vn 0.000000 0.000000 -1.000000
vn 0.000000 0.000000 -1.000000
vn 0.000000 0.000000 -1.000000
vn 0.000000 0.000000 -1.000000
vn 0.000000 0.000000 -1.000000
vn 0.000000 0.000000 -1.000000
vn 0.000000 0.000000 -1.000000
vn 0.000000 0.000000 -1.000000
vn 0.000000 0.000000 -1.000000
vn 0.000000 0.000000 -1.000000
vn 0.000000 0.000000 -1.000000
vn 0.000000 0.000000 -1.000000
vn 0.000000 0.000000 -1.000000
vn 0.000000 0.000000 -1.000000
vn 0.000000 0.000000 -1.000000
vn 0.000000 0.000000 -1.000000
vn 0.000000 1.000000 0.000000
vn 0.000000 1.000000 0.000000
vn 0.000000 1.000000 0.000000
vn 0.000000 1.000000 0.000000
vn 0.000000 1.000000 0.000000
vn 0.000000 1.000000 0.000000
vn 0.000000 1.000000 0.000000
vn 0.000000 1.000000 0.000000
vn 0.000000 -1.000000 0.000000
vn 0.000000 -1.000000 0.000000
vn 0.000000 -1.000000 0.000000
vn 0.000000 -1.000000 0.000000
vn -1.000000 0.000000 0.000000
vn -1.000000 0.000000 0.000000
vn -1.000000 0.000000 0.000000
vn -1.000000 0.000000 0.000000
vn 0.000000 -1.000000 0.000000
vn 0.000000 -1.000000 0.000000
vn 0.000000 -1.000000 0.000000
vn 0.000000 -1.000000 0.000000
vn -1.000000 0.000000 0.000000
vn -1.000000 0.000000 0.000000
vn -1.000000 0.000000 0.000000
vn -1.000000 0.000000 0.000000
vn 1.000000 0.000000 0.000000
vn 1.000000 0.000000 0.000000
vn 1.000000 0.000000 0.000000
vn 1.000000 0.000000 0.000000
f 1/1/1 7/32/2 9/3/3 15/4/4
f 1/26/5 2/5/6 3/23/7 4/7/8
f 2/28/9 5/8/10 6/21/11 3/6/12
f 5/31/13 7/2/14 8/19/15 6/9/16
f 7/32/17 1/1/18 4/17/19 8/10/20
f 9/29/21 10/30/22 11/22/23 12/13/24
f 10/11/25 13/27/26 14/24/27 11/12/28
f 13/14/29 15/25/30 16/18/31 14/15/32
f 15/4/33 9/3/34 12/20/35 16/16/36
f 2/5/37 1/26/38 15/25/39 13/14/40
f 11/22/41 6/9/42 8/19/43 12/13/44
f 5/31/45 10/30/46 9/29/47 7/2/48
f 2/28/49 13/27/50 10/11/51 5/8/52
f 14/15/53 16/18/54 4/7/55 3/23/56
f 16/16/57 12/20/58 8/10/59 4/17/60
f 14/24/61 3/6/62 6/21/63 11/12/64
