# This file uses meters as units for non-parametric coordinates.

v 100.000015 50.272263 4.013205
v -1.810860 50.272263 4.013205
v 2.958931 45.151474 4.013205
v 95.230225 45.151474 4.013205
v -1.810860 4.710876 4.013205
v 2.958931 9.831696 4.013205
v 100.000015 4.710876 4.013205
v 95.230225 9.831696 4.013205
v 100.000015 4.710876 0.000000
v -1.810860 4.710876 0.000000
v 2.958931 9.831696 0.000000
v 95.230225 9.831696 0.000000
v -1.810860 50.272263 0.000000
v 2.958931 45.151474 0.000000
v 100.000015 50.272263 0.000000
v 95.230225 45.151474 0.000000
vt 0.987171 0.780304
vt 0.986170 0.782884
vt 0.894777 0.782059
vt 0.987907 0.782060
vt 0.989482 0.785849
vt 0.903981 0.817187
vt 0.900705 0.813992
vt 0.986702 0.781125
vt 0.897393 0.811028
vt 0.904450 0.811718
vt 0.985966 0.779109
vt 0.975441 0.815172
vt 0.980123 0.815672
vt 0.989802 0.783683
vt 0.984074 0.814306
vt 0.977382 0.813474
vt 0.976646 0.811718
vt 0.901025 0.811827
vt 0.980443 0.813506
vt 0.905186 0.813474
vt 0.976177 0.817187
vt 0.897073 0.813193
vt 0.983754 0.816471
vt 0.903245 0.815172
vt 0.895297 0.780863
vt 0.894977 0.783028
vt 0.892836 0.779109
vt 0.893572 0.781125
vt 0.985850 0.785049
vt 0.891346 0.782229
vt 0.891666 0.780063
vt 0.894041 0.780304
vn 1.000000 0.000000 0.000000
vn 1.000000 0.000000 0.000000
vn 1.000000 0.000000 0.000000
vn 1.000000 0.000000 0.000000
vn 0.000000 0.000000 1.000000
vn 0.000000 0.000000 1.000000
vn 0.000000 0.000000 1.000000
vn 0.000000 0.000000 1.000000
vn 0.000000 0.000000 1.000000
vn 0.000000 0.000000 1.000000
vn 0.000000 0.000000 1.000000
vn 0.000000 0.000000 1.000000
vn 0.000000 0.000000 1.000000
vn 0.000000 0.000000 1.000000
vn 0.000000 0.000000 1.000000
vn 0.000000 0.000000 1.000000
vn -0.000000 0.000000 1.000000
vn -0.000000 0.000000 1.000000
vn -0.000000 0.000000 1.000000
vn -0.000000 0.000000 1.000000
vn 0.000000 0.000000 -1.000000
vn 0.000000 0.000000 -1.000000
vn 0.000000 0.000000 -1.000000
vn 0.000000 0.000000 -1.000000
vn 0.000000 0.000000 -1.000000
vn 0.000000 0.000000 -1.000000
vn 0.000000 0.000000 -1.000000
vn 0.000000 0.000000 -1.000000
vn 0.000000 0.000000 -1.000000
vn 0.000000 0.000000 -1.000000
vn 0.000000 0.000000 -1.000000
vn 0.000000 0.000000 -1.000000
vn 0.000000 0.000000 -1.000000
vn 0.000000 0.000000 -1.000000
vn 0.000000 0.000000 -1.000000
vn 0.000000 0.000000 -1.000000
vn 0.000000 1.000000 0.000000
vn 0.000000 1.000000 0.000000
vn 0.000000 1.000000 0.000000
vn 0.000000 1.000000 0.000000
vn 0.000000 1.000000 0.000000
vn 0.000000 1.000000 0.000000
vn 0.000000 1.000000 0.000000
vn 0.000000 1.000000 0.000000
vn 0.000000 -1.000000 0.000000
vn 0.000000 -1.000000 0.000000
vn 0.000000 -1.000000 0.000000
vn 0.000000 -1.000000 0.000000
vn -1.000000 0.000000 0.000000
vn -1.000000 0.000000 0.000000
vn -1.000000 0.000000 0.000000
vn -1.000000 0.000000 0.000000
vn 0.000000 -1.000000 0.000000
vn 0.000000 -1.000000 0.000000
vn 0.000000 -1.000000 0.000000
vn 0.000000 -1.000000 0.000000
vn -1.000000 0.000000 0.000000
vn -1.000000 0.000000 0.000000
vn -1.000000 0.000000 0.000000
vn -1.000000 0.000000 0.000000
vn 1.000000 0.000000 0.000000
vn 1.000000 0.000000 0.000000
vn 1.000000 0.000000 0.000000
vn 1.000000 0.000000 0.000000
f 1/1/1 7/32/2 9/3/3 15/4/4
f 1/26/5 2/5/6 3/23/7 4/7/8
f 2/28/9 5/8/10 6/21/11 3/6/12
f 5/31/13 7/2/14 8/19/15 6/9/16
f 7/32/17 1/1/18 4/17/19 8/10/20
f 9/29/21 10/30/22 11/22/23 12/13/24
f 10/11/25 13/27/26 14/24/27 11/12/28
f 13/14/29 15/25/30 16/18/31 14/15/32
f 15/4/33 9/3/34 12/20/35 16/16/36
f 2/5/37 1/26/38 15/25/39 13/14/40
f 11/22/41 6/9/42 8/19/43 12/13/44
f 5/31/45 10/30/46 9/29/47 7/2/48
f 2/28/49 13/27/50 10/11/51 5/8/52
f 14/15/53 16/18/54 4/7/55 3/23/56
f 16/16/57 12/20/58 8/10/59 4/17/60
f 14/24/61 3/6/62 6/21/63 11/12/64
