# This file uses meters as units for non-parametric coordinates.

v -5.448929 121.813019 0.441487
v -5.448929 131.360992 0.441487
v -71.708832 131.360992 0.441487
v -71.708832 121.813019 0.441487
v -71.708832 121.813019 -1.708852
v -71.708832 131.360992 -1.708852
v -5.448929 131.360992 -1.708852
v -5.448929 121.813019 -1.708852
v -5.448929 83.107712 0.441487
v -5.448929 92.655685 0.441487
v -71.708832 92.655685 0.441487
v -71.708832 83.107712 0.441487
v -71.708832 83.107712 -1.708852
v -71.708832 92.655685 -1.708852
v -5.448929 92.655685 -1.708852
v -5.448929 83.107712 -1.708852
v -2.519379 5.459351 2.340721
v 3.234131 5.459351 2.340721
v 3.234131 170.128876 2.340721
v -2.519379 170.128876 2.340721
v -4.535736 170.128876 0.190382
v 5.012238 170.128876 0.190382
v 5.012238 5.459351 0.190382
v -4.535736 5.459351 0.190382
v -41.288788 159.963470 -0.128486
v -34.965668 159.963470 -0.128486
v -41.288788 14.693665 -0.128486
v -34.965668 14.693665 -0.128486
v -41.288788 14.693665 -1.138881
v -34.965668 14.693665 -1.138881
v -41.288788 159.963470 -1.138881
v -34.965668 159.963470 -1.138881
v -0.000015 5.459366 0.979588
v -0.000015 170.128876 0.979588
v -6.254563 159.729279 0.979588
v -6.254563 15.858978 0.979588
v -76.690826 170.128876 0.979588
v -69.999908 159.729279 0.979588
v -76.690826 5.459366 0.979588
v -69.999908 15.858978 0.979588
v -76.690826 5.459366 -2.340721
v -76.690826 170.128876 -2.340721
v -69.999908 159.729279 -2.340721
v -69.999908 15.858978 -2.340721
v -0.000015 170.128876 -2.340721
v -6.254563 159.729279 -2.340721
v -0.000015 5.459366 -2.340721
v -6.254563 15.858978 -2.340721
v -5.448929 45.047852 0.441487
v -5.448929 54.595825 0.441487
v -71.708832 54.595825 0.441487
v -71.708832 45.047852 0.441487
v -71.708832 45.047852 -1.708852
v -71.708832 54.595825 -1.708852
v -5.448929 54.595825 -1.708852
v -5.448929 45.047852 -1.708852
vt 0.510151 0.736640
vt 0.510151 0.637862
vt 0.617688 0.637862
vt 0.617688 0.736640
vt 0.510151 0.736640
vt 0.510151 0.637862
vt 0.617688 0.637862
vt 0.617688 0.736640
vt 0.510151 0.736640
vt 0.617688 0.736640
vt 0.510151 0.637862
vt 0.617688 0.637862
vt 0.510151 0.736640
vt 0.510151 0.637862
vt 0.617688 0.637862
vt 0.617688 0.736640
vt 0.510151 0.736640
vt 0.510151 0.637862
vt 0.617688 0.637862
vt 0.617688 0.736640
vt 0.510151 0.736640
vt 0.617688 0.736640
vt 0.510151 0.637862
vt 0.617688 0.637862
vt 0.510151 0.736640
vt 0.510151 0.637862
vt 0.617688 0.637862
vt 0.617688 0.736640
vt 0.510151 0.736640
vt 0.510151 0.637862
vt 0.617688 0.637862
vt 0.617688 0.736640
vt 0.510151 0.736640
vt 0.617688 0.736640
vt 0.510151 0.637862
vt 0.617688 0.637862
vt 0.608718 0.719480
vt 0.608718 0.673384
vt 0.509940 0.673384
vt 0.509940 0.719480
vt 0.608718 0.719480
vt 0.608718 0.673384
vt 0.509940 0.673384
vt 0.509940 0.719480
vt 0.608718 0.673384
vt 0.608718 0.719480
vt 0.509940 0.719480
vt 0.509940 0.673384
vt 0.603363 0.686576
vt 0.527793 0.686148
vt 0.518286 0.643471
vt 0.612618 0.644005
vt 0.525624 0.692885
vt 0.604832 0.692885
vt 0.589107 0.731789
vt 0.536027 0.731789
vt 0.533597 0.666816
vt 0.592927 0.666972
vt 0.605334 0.702942
vt 0.520731 0.702719
vt 0.524497 0.682592
vt 0.603705 0.682592
vt 0.593274 0.733504
vt 0.540194 0.733504
vt 0.592281 0.732180
vt 0.539286 0.731880
vt 0.613441 0.640478
vt 0.514567 0.640478
vt 0.540101 0.733034
vt 0.593181 0.733034
vt 0.615696 0.725712
vt 0.592808 0.667184
vt 0.533478 0.667028
vt 0.510087 0.725434
vt 0.614787 0.660396
vt 0.515913 0.660395
vt 0.536119 0.732162
vt 0.589199 0.732162
vt 0.539180 0.732287
vt 0.592174 0.732586
vt 0.510151 0.736640
vt 0.510151 0.637862
vt 0.617688 0.637862
vt 0.617688 0.736640
vt 0.510151 0.736640
vt 0.510151 0.637862
vt 0.617688 0.637862
vt 0.617688 0.736640
vt 0.510151 0.736640
vt 0.617688 0.736640
vt 0.510151 0.637862
vt 0.617688 0.637862
vn 0.000000 0.000000 1.000000
vn 0.000000 0.000000 1.000000
vn 0.000000 0.000000 1.000000
vn 0.000000 0.000000 1.000000
vn 0.000000 0.000000 -1.000000
vn 0.000000 0.000000 -1.000000
vn 0.000000 0.000000 -1.000000
vn 0.000000 0.000000 -1.000000
vn 0.000000 1.000000 0.000000
vn 0.000000 1.000000 0.000000
vn 0.000000 1.000000 0.000000
vn 0.000000 1.000000 0.000000
vn 0.000000 -1.000000 0.000000
vn 0.000000 -1.000000 0.000000
vn 0.000000 -1.000000 0.000000
vn 0.000000 -1.000000 0.000000
vn 0.000000 0.000000 1.000000
vn 0.000000 0.000000 1.000000
vn 0.000000 0.000000 1.000000
vn 0.000000 0.000000 1.000000
vn 0.000000 0.000000 -1.000000
vn 0.000000 0.000000 -1.000000
vn 0.000000 0.000000 -1.000000
vn 0.000000 0.000000 -1.000000
vn 0.000000 1.000000 0.000000
vn 0.000000 1.000000 0.000000
vn 0.000000 1.000000 0.000000
vn 0.000000 1.000000 0.000000
vn 0.000000 -1.000000 0.000000
vn 0.000000 -1.000000 0.000000
vn 0.000000 -1.000000 0.000000
vn 0.000000 -1.000000 0.000000
vn 0.000000 0.000000 1.000000
vn 0.000000 0.000000 1.000000
vn 0.000000 0.000000 1.000000
vn 0.000000 0.000000 1.000000
vn 0.000000 0.000000 -1.000000
vn 0.000000 0.000000 -1.000000
vn 0.000000 0.000000 -1.000000
vn 0.000000 0.000000 -1.000000
vn 0.770656 0.000000 0.637252
vn 0.770656 0.000000 0.637252
vn 0.770656 0.000000 0.637252
vn 0.770656 0.000000 0.637252
vn -0.729467 0.000000 0.684016
vn -0.729467 0.000000 0.684016
vn -0.729467 0.000000 0.684016
vn -0.729467 0.000000 0.684016
vn 0.000000 1.000000 -0.000007
vn 0.000000 1.000000 -0.000007
vn 0.000000 1.000000 -0.000007
vn 0.000000 1.000000 -0.000007
vn 0.000000 -1.000000 -0.000000
vn 0.000000 -1.000000 -0.000000
vn 0.000000 -1.000000 -0.000000
vn 0.000000 -1.000000 -0.000000
vn 0.000000 0.000000 1.000000
vn 0.000000 0.000000 1.000000
vn 0.000000 0.000000 1.000000
vn 0.000000 0.000000 1.000000
vn 0.000000 0.000000 -1.000000
vn 0.000000 0.000000 -1.000000
vn 0.000000 0.000000 -1.000000
vn 0.000000 0.000000 -1.000000
vn 1.000000 0.000000 0.000000
vn 1.000000 0.000000 0.000000
vn 1.000000 0.000000 0.000000
vn 1.000000 0.000000 0.000000
vn -1.000000 0.000000 0.000000
vn -1.000000 0.000000 0.000000
vn -1.000000 0.000000 0.000000
vn -1.000000 0.000000 0.000000
vn 0.000000 -1.000000 0.000000
vn 0.000000 -1.000000 0.000000
vn 0.000000 -1.000000 0.000000
vn 0.000000 -1.000000 0.000000
vn 0.000000 0.000000 1.000000
vn 0.000000 0.000000 1.000000
vn 0.000000 0.000000 1.000000
vn 0.000000 0.000000 1.000000
vn 0.000000 0.000000 1.000000
vn 0.000000 0.000000 1.000000
vn 0.000000 0.000000 1.000000
vn 0.000000 0.000000 1.000000
vn -0.000000 0.000000 1.000000
vn -0.000000 0.000000 1.000000
vn -0.000000 0.000000 1.000000
vn -0.000000 0.000000 1.000000
vn 0.000000 0.000000 1.000000
vn 0.000000 0.000000 1.000000
vn 0.000000 0.000000 1.000000
vn 0.000000 0.000000 1.000000
vn -0.000000 0.000000 -1.000000
vn -0.000000 0.000000 -1.000000
vn -0.000000 0.000000 -1.000000
vn -0.000000 0.000000 -1.000000
vn 0.000000 0.000000 -1.000000
vn 0.000000 0.000000 -1.000000
vn 0.000000 0.000000 -1.000000
vn 0.000000 0.000000 -1.000000
vn -0.000000 0.000000 -1.000000
vn -0.000000 0.000000 -1.000000
vn -0.000000 0.000000 -1.000000
vn -0.000000 0.000000 -1.000000
vn 0.000000 0.000000 -1.000000
vn 0.000000 0.000000 -1.000000
vn 0.000000 0.000000 -1.000000
vn 0.000000 0.000000 -1.000000
vn 1.000000 0.000000 0.000000
vn 1.000000 0.000000 0.000000
vn 1.000000 0.000000 0.000000
vn 1.000000 0.000000 0.000000
vn 1.000000 0.000000 0.000000
vn 1.000000 0.000000 0.000000
vn 1.000000 0.000000 0.000000
vn 1.000000 0.000000 0.000000
vn -1.000000 0.000000 0.000000
vn -1.000000 0.000000 0.000000
vn -1.000000 0.000000 0.000000
vn -1.000000 0.000000 0.000000
vn 0.000000 1.000000 0.000000
vn 0.000000 1.000000 0.000000
vn 0.000000 1.000000 0.000000
vn 0.000000 1.000000 0.000000
vn -1.000000 0.000000 0.000000
vn -1.000000 0.000000 0.000000
vn -1.000000 0.000000 0.000000
vn -1.000000 0.000000 0.000000
vn 0.000000 1.000000 0.000000
vn 0.000000 1.000000 0.000000
vn 0.000000 1.000000 0.000000
vn 0.000000 1.000000 0.000000
vn 0.000000 -1.000000 0.000000
vn 0.000000 -1.000000 0.000000
vn 0.000000 -1.000000 0.000000
vn 0.000000 -1.000000 0.000000
vn 0.000000 0.000000 1.000000
vn 0.000000 0.000000 1.000000
vn 0.000000 0.000000 1.000000
vn 0.000000 0.000000 1.000000
vn 0.000000 0.000000 -1.000000
vn 0.000000 0.000000 -1.000000
vn 0.000000 0.000000 -1.000000
vn 0.000000 0.000000 -1.000000
vn 0.000000 1.000000 0.000000
vn 0.000000 1.000000 0.000000
vn 0.000000 1.000000 0.000000
vn 0.000000 1.000000 0.000000
vn 0.000000 -1.000000 0.000000
vn 0.000000 -1.000000 0.000000
vn 0.000000 -1.000000 0.000000
vn 0.000000 -1.000000 0.000000
f 1/1/1 2/2/2 3/3/3 4/4/4
f 5/5/5 6/6/6 7/7/7 8/8/8
f 2/2/9 7/9/10 6/10/11 3/3/12
f 8/11/13 1/1/14 4/4/15 5/12/16
f 9/13/17 10/14/18 11/15/19 12/16/20
f 13/17/21 14/18/22 15/19/23 16/20/24
f 10/14/25 15/21/26 14/22/27 11/15/28
f 16/23/29 9/13/30 12/16/31 13/24/32
f 17/25/33 18/26/34 19/27/35 20/28/36
f 21/29/37 22/30/38 23/31/39 24/32/40
f 18/26/41 23/33/42 22/34/43 19/27/44
f 24/35/45 17/25/46 20/28/47 21/36/48
f 19/27/49 22/30/50 21/36/51 20/28/52
f 18/26/53 17/25/54 24/32/55 23/33/56
f 25/37/57 27/38/58 28/39/59 26/40/60
f 29/41/61 31/42/62 32/43/63 30/44/64
f 26/40/65 28/39/66 30/45/67 32/46/68
f 31/47/69 29/48/70 27/38/71 25/37/72
f 33/49/73 39/50/74 41/51/75 47/52/76
f 33/53/77 34/54/78 35/55/79 36/56/80
f 38/57/81 35/58/82 34/59/83 37/60/84
f 37/61/85 39/62/86 40/63/87 38/64/88
f 39/50/89 33/49/90 36/65/91 40/66/92
f 41/67/93 42/68/94 43/69/95 44/70/96
f 45/71/97 46/72/98 43/73/99 42/74/100
f 45/75/101 47/76/102 48/77/103 46/78/104
f 47/52/105 41/51/106 44/79/107 48/80/108
f 34/54/109 33/53/110 47/76/111 45/75/112
f 43/69/113 38/64/114 40/63/115 44/70/116
f 37/61/117 42/68/118 41/67/119 39/62/120
f 34/59/121 45/71/122 42/74/123 37/60/124
f 46/78/125 48/77/126 36/56/127 35/55/128
f 48/80/129 44/79/130 40/66/131 36/65/132
f 46/72/133 35/58/134 38/57/135 43/73/136
f 49/81/137 50/82/138 51/83/139 52/84/140
f 53/85/141 54/86/142 55/87/143 56/88/144
f 50/82/145 55/89/146 54/90/147 51/83/148
f 56/91/149 49/81/150 52/84/151 53/92/152
