# This file uses meters as units for non-parametric coordinates.

v -2.519379 5.459351 2.340721
v 3.234131 5.459351 2.340721
v 3.234131 170.128876 2.340721
v -2.519379 170.128876 2.340721
v -4.535736 170.128876 0.979588
v 5.012238 170.128876 0.979588
v 5.012238 5.459351 0.979588
v -4.535736 5.459351 0.979588
v -5.448929 55.307785 0.441487
v -5.448929 64.855759 0.441487
v -71.708832 55.307785 0.441487
v -71.708832 64.855759 0.441487
v -71.708832 55.307785 -1.708852
v -71.708832 64.855759 -1.708852
v -5.448929 55.307785 -1.708852
v -5.448929 64.855759 -1.708852
v -5.448929 105.095764 0.441487
v -5.448929 114.643738 0.441487
v -71.708832 105.095764 0.441487
v -71.708832 114.643738 0.441487
v -71.708832 105.095764 -1.708852
v -71.708832 114.643738 -1.708852
v -5.448929 105.095764 -1.708852
v -5.448929 114.643738 -1.708852
v -41.288788 159.963470 -0.128486
v -34.965668 159.963470 -0.128486
v -41.288788 14.693665 -0.128486
v -34.965668 14.693665 -0.128486
v -41.288788 14.693665 -1.138881
v -34.965668 14.693665 -1.138881
v -41.288788 159.963470 -1.138881
v -34.965668 159.963470 -1.138881
v -0.000015 5.459366 0.979588
v -0.000015 170.128876 0.979588
v -6.254563 146.656036 0.979588
v -6.254563 15.858978 0.979588
v -76.690826 170.128876 0.979588
v -69.999908 146.656036 0.979588
v -76.690826 5.459366 0.979588
v -69.999908 15.858978 0.979588
v -76.690826 5.459366 -2.340721
v -76.690826 170.128876 -2.340721
v -69.999908 146.656036 -2.340721
v -69.999908 15.858978 -2.340721
v -0.000015 170.128876 -2.340721
v -6.254563 146.656036 -2.340721
v -0.000015 5.459366 -2.340721
v -6.254563 15.858978 -2.340721
v -54.926239 157.988617 0.979588
v -54.926239 157.988617 -2.340721
v -57.409023 170.128876 -2.340721
v -57.409023 170.128876 0.979588
v -38.127228 159.729279 0.979588
v -38.127228 159.729279 -2.340721
v -38.127228 170.128876 -2.340721
v -38.127228 170.128876 0.979588
v -21.328217 157.988617 0.979588
v -21.328217 157.988617 -2.340721
v -18.845490 170.128876 -2.340721
v -18.845490 170.128876 0.979588
vt 0.760151 0.736640
vt 0.760151 0.637862
vt 0.867688 0.637862
vt 0.867688 0.736640
vt 0.760151 0.736640
vt 0.760151 0.637862
vt 0.867688 0.637862
vt 0.867688 0.736640
vt 0.760151 0.736640
vt 0.867688 0.736640
vt 0.760151 0.637862
vt 0.867688 0.637862
vt 0.760151 0.736640
vt 0.760151 0.637862
vt 0.867688 0.637862
vt 0.867688 0.736640
vt 0.760151 0.736640
vt 0.760151 0.637862
vt 0.867688 0.637862
vt 0.867688 0.736640
vt 0.760151 0.736640
vt 0.867688 0.736640
vt 0.760151 0.637862
vt 0.867688 0.637862
vt 0.760151 0.736640
vt 0.760151 0.637862
vt 0.867688 0.637862
vt 0.867688 0.736640
vt 0.760151 0.736640
vt 0.760151 0.637862
vt 0.867688 0.637862
vt 0.867688 0.736640
vt 0.760151 0.736640
vt 0.867688 0.736640
vt 0.760151 0.637862
vt 0.867688 0.637862
vt 0.858718 0.719480
vt 0.858718 0.673384
vt 0.759940 0.673384
vt 0.759940 0.719480
vt 0.858718 0.719480
vt 0.858718 0.673384
vt 0.759940 0.673384
vt 0.759940 0.719480
vt 0.858718 0.673384
vt 0.858718 0.719480
vt 0.759940 0.719480
vt 0.759940 0.673384
vt 0.853363 0.686576
vt 0.777793 0.686148
vt 0.768286 0.643471
vt 0.862618 0.644005
vt 0.775624 0.692885
vt 0.854832 0.692885
vt 0.839107 0.731789
vt 0.786027 0.731789
vt 0.855334 0.702942
vt 0.834544 0.702888
vt 0.828897 0.677455
vt 0.842927 0.666972
vt 0.774497 0.682592
vt 0.853705 0.682592
vt 0.843274 0.733504
vt 0.790194 0.733504
vt 0.842281 0.732180
vt 0.789286 0.731880
vt 0.863441 0.640478
vt 0.764567 0.640478
vt 0.790101 0.733034
vt 0.843181 0.733034
vt 0.839745 0.725644
vt 0.865696 0.725712
vt 0.842808 0.667184
vt 0.828779 0.677667
vt 0.864787 0.660396
vt 0.765913 0.660395
vt 0.786119 0.732162
vt 0.839199 0.732162
vt 0.789180 0.732287
vt 0.842174 0.732586
vt 0.797508 0.677584
vt 0.797627 0.677372
vt 0.783597 0.666816
vt 0.783478 0.667028
vt 0.760087 0.725434
vt 0.786640 0.725504
vt 0.792002 0.702775
vt 0.770731 0.702719
vt 0.813143 0.679241
vt 0.813262 0.679029
vt 0.813192 0.725574
vt 0.813273 0.702831
vn 0.000000 0.000000 1.000000
vn 0.000000 0.000000 1.000000
vn 0.000000 0.000000 1.000000
vn 0.000000 0.000000 1.000000
vn 0.000000 0.000000 -1.000000
vn 0.000000 0.000000 -1.000000
vn 0.000000 0.000000 -1.000000
vn 0.000000 0.000000 -1.000000
vn 0.607846 0.000000 0.794055
vn 0.607846 0.000000 0.794055
vn 0.607846 0.000000 0.794055
vn 0.607846 0.000000 0.794055
vn -0.559499 0.000000 0.828831
vn -0.559499 0.000000 0.828831
vn -0.559499 0.000000 0.828831
vn -0.559499 0.000000 0.828831
vn 0.000000 1.000000 -0.000012
vn 0.000000 1.000000 -0.000012
vn 0.000000 1.000000 -0.000012
vn 0.000000 1.000000 -0.000012
vn 0.000000 -1.000000 -0.000000
vn 0.000000 -1.000000 -0.000000
vn 0.000000 -1.000000 -0.000000
vn 0.000000 -1.000000 -0.000000
vn 0.000000 0.000000 1.000000
vn 0.000000 0.000000 1.000000
vn 0.000000 0.000000 1.000000
vn 0.000000 0.000000 1.000000
vn 0.000000 0.000000 -1.000000
vn 0.000000 0.000000 -1.000000
vn 0.000000 0.000000 -1.000000
vn 0.000000 0.000000 -1.000000
vn 0.000000 1.000000 0.000000
vn 0.000000 1.000000 0.000000
vn 0.000000 1.000000 0.000000
vn 0.000000 1.000000 0.000000
vn 0.000000 -1.000000 0.000000
vn 0.000000 -1.000000 0.000000
vn 0.000000 -1.000000 0.000000
vn 0.000000 -1.000000 0.000000
vn 0.000000 0.000000 1.000000
vn 0.000000 0.000000 1.000000
vn 0.000000 0.000000 1.000000
vn 0.000000 0.000000 1.000000
vn 0.000000 0.000000 -1.000000
vn 0.000000 0.000000 -1.000000
vn 0.000000 0.000000 -1.000000
vn 0.000000 0.000000 -1.000000
vn 0.000000 1.000000 0.000000
vn 0.000000 1.000000 0.000000
vn 0.000000 1.000000 0.000000
vn 0.000000 1.000000 0.000000
vn 0.000000 -1.000000 0.000000
vn 0.000000 -1.000000 0.000000
vn 0.000000 -1.000000 0.000000
vn 0.000000 -1.000000 0.000000
vn 0.000000 0.000000 1.000000
vn 0.000000 0.000000 1.000000
vn 0.000000 0.000000 1.000000
vn 0.000000 0.000000 1.000000
vn 0.000000 0.000000 -1.000000
vn 0.000000 0.000000 -1.000000
vn 0.000000 0.000000 -1.000000
vn 0.000000 0.000000 -1.000000
vn 1.000000 0.000000 0.000000
vn 1.000000 0.000000 0.000000
vn 1.000000 0.000000 0.000000
vn 1.000000 0.000000 0.000000
vn -1.000000 0.000000 0.000000
vn -1.000000 0.000000 0.000000
vn -1.000000 0.000000 0.000000
vn -1.000000 0.000000 0.000000
vn 0.000000 -1.000000 0.000000
vn 0.000000 -1.000000 0.000000
vn 0.000000 -1.000000 0.000000
vn 0.000000 -1.000000 0.000000
vn -0.000000 0.000000 1.000000
vn -0.000000 0.000000 1.000000
vn -0.000000 0.000000 1.000000
vn -0.000000 0.000000 1.000000
vn 0.000000 0.000000 1.000000
vn -0.000000 0.000000 1.000000
vn -0.000000 0.000000 1.000000
vn 0.000000 0.000000 1.000000
vn -0.000000 0.000000 1.000000
vn -0.000000 0.000000 1.000000
vn -0.000000 0.000000 1.000000
vn -0.000000 0.000000 1.000000
vn 0.000000 0.000000 1.000000
vn 0.000000 0.000000 1.000000
vn 0.000000 0.000000 1.000000
vn 0.000000 0.000000 1.000000
vn 0.000000 0.000000 -1.000000
vn 0.000000 0.000000 -1.000000
vn 0.000000 0.000000 -1.000000
vn 0.000000 0.000000 -1.000000
vn 0.000000 0.000000 -1.000000
vn 0.000000 0.000000 -1.000000
vn 0.000000 0.000000 -1.000000
vn 0.000000 0.000000 -1.000000
vn -0.000000 0.000000 -1.000000
vn -0.000000 0.000000 -1.000000
vn -0.000000 0.000000 -1.000000
vn -0.000000 0.000000 -1.000000
vn 0.000000 0.000000 -1.000000
vn 0.000000 0.000000 -1.000000
vn 0.000000 0.000000 -1.000000
vn 0.000000 0.000000 -1.000000
vn 1.000000 0.000000 0.000000
vn 1.000000 0.000000 0.000000
vn 1.000000 0.000000 0.000000
vn 1.000000 0.000000 0.000000
vn 1.000000 0.000000 0.000000
vn 1.000000 0.000000 0.000000
vn 1.000000 0.000000 0.000000
vn 1.000000 0.000000 0.000000
vn -1.000000 0.000000 0.000000
vn -1.000000 0.000000 0.000000
vn -1.000000 0.000000 0.000000
vn -1.000000 0.000000 0.000000
vn 0.000000 1.000000 0.000000
vn 0.000000 1.000000 0.000000
vn 0.000000 1.000000 0.000000
vn 0.000000 1.000000 0.000000
vn -1.000000 0.000000 0.000000
vn -1.000000 0.000000 0.000000
vn -1.000000 0.000000 0.000000
vn -1.000000 0.000000 0.000000
vn 0.000000 1.000000 0.000000
vn 0.000000 1.000000 0.000000
vn 0.000000 1.000000 0.000000
vn 0.000000 1.000000 0.000000
vn -0.600927 -0.799304 0.000000
vn -0.600927 -0.799304 0.000000
vn -0.379489 -0.925196 0.000000
vn -0.379489 -0.925196 0.000000
vn 0.379489 -0.925197 0.000000
vn 0.379489 -0.925197 0.000000
vn 0.600927 -0.799304 0.000000
vn 0.600927 -0.799304 0.000000
vn 0.000000 0.000000 -1.000000
vn 0.000000 0.000000 -1.000000
vn 0.000000 0.000000 -1.000000
vn 0.000000 0.000000 -1.000000
vn 0.000000 1.000000 0.000000
vn 0.000000 1.000000 0.000000
vn 0.000000 1.000000 0.000000
vn 0.000000 1.000000 0.000000
vn 0.000000 0.000000 1.000000
vn 0.000000 0.000000 1.000000
vn 0.000000 0.000000 1.000000
vn 0.000000 0.000000 1.000000
vn -0.000000 -1.000000 0.000000
vn -0.000000 -1.000000 0.000000
vn 0.000000 0.000000 -1.000000
vn 0.000000 0.000000 -1.000000
vn 0.000000 1.000000 0.000000
vn 0.000000 1.000000 0.000000
vn 0.000000 0.000000 1.000000
vn 0.000000 0.000000 1.000000
f 1/1/1 2/2/2 3/3/3 4/4/4
f 5/5/5 6/6/6 7/7/7 8/8/8
f 2/2/9 7/9/10 6/10/11 3/3/12
f 8/11/13 1/1/14 4/4/15 5/12/16
f 3/3/17 6/6/18 5/12/19 4/4/20
f 2/2/21 1/1/22 8/8/23 7/9/24
f 9/13/25 10/14/26 12/15/27 11/16/28
f 13/17/29 14/18/30 16/19/31 15/20/32
f 10/14/33 16/21/34 14/22/35 12/15/36
f 15/23/37 9/13/38 11/16/39 13/24/40
f 17/25/41 18/26/42 20/27/43 19/28/44
f 21/29/45 22/30/46 24/31/47 23/32/48
f 18/26/49 24/33/50 22/34/51 20/27/52
f 23/35/53 17/25/54 19/28/55 21/36/56
f 25/37/57 27/38/58 28/39/59 26/40/60
f 29/41/61 31/42/62 32/43/63 30/44/64
f 26/40/65 28/39/66 30/45/67 32/46/68
f 31/47/69 29/48/70 27/38/71 25/37/72
f 33/49/73 39/50/74 41/51/75 47/52/76
f 33/53/77 34/54/78 35/55/79 36/56/80
f 34/57/81 60/58/82 57/59/83 35/60/84
f 37/61/85 39/62/86 40/63/87 38/64/88
f 39/50/89 33/49/90 36/65/91 40/66/92
f 41/67/93 42/68/94 43/69/95 44/70/96
f 59/71/97 45/72/98 46/73/99 58/74/100
f 45/75/101 47/76/102 48/77/103 46/78/104
f 47/52/105 41/51/106 44/79/107 48/80/108
f 34/54/109 33/53/110 47/76/111 45/75/112
f 43/69/113 38/64/114 40/63/115 44/70/116
f 37/61/117 42/68/118 41/67/119 39/62/120
f 34/57/121 45/72/122 59/71/123 60/58/124
f 46/78/125 48/77/126 36/56/127 35/55/128
f 48/80/129 44/79/130 40/66/131 36/65/132
f 46/73/133 35/60/134 57/59/135 58/74/136
f 50/81/137 49/82/138 38/83/139 43/84/140
f 42/85/141 51/86/142 50/81/143 43/84/144
f 52/87/145 51/86/146 42/85/147 37/88/148
f 49/82/149 52/87/150 37/88/151 38/83/152
f 54/89/153 53/90/154 49/82/138 50/81/137
f 51/86/142 55/91/155 54/89/156 50/81/143
f 56/92/157 55/91/158 51/86/146 52/87/145
f 53/90/159 56/92/160 52/87/150 49/82/149
f 58/74/136 57/59/135 53/90/154 54/89/153
f 55/91/155 59/71/97 58/74/100 54/89/156
f 60/58/124 59/71/123 55/91/158 56/92/157
f 57/59/83 60/58/82 56/92/160 53/90/159
