# This file uses meters as units for non-parametric coordinates.

v 76.690796 5.459366 0.979588
v 76.690796 170.128876 0.979588
v 70.436249 159.729279 0.979588
v 70.436249 15.858978 0.979588
v -0.000015 170.128876 0.979588
v 6.690903 159.729279 0.979588
v -0.000015 5.459366 0.979588
v 6.690903 15.858978 0.979588
v -0.000015 5.459366 -2.340721
v -0.000015 170.128876 -2.340721
v 6.690903 159.729279 -2.340721
v 6.690903 15.858978 -2.340721
v 76.690796 170.128876 -2.340721
v 70.436249 159.729279 -2.340721
v 76.690796 5.459366 -2.340721
v 70.436249 15.858978 -2.340721
vt 0.728363 0.686576
vt 0.652793 0.686148
vt 0.643286 0.643471
vt 0.737618 0.644005
vt 0.650624 0.692885
vt 0.729832 0.692885
vt 0.714107 0.731789
vt 0.661027 0.731789
vt 0.658597 0.666816
vt 0.717927 0.666972
vt 0.730334 0.702942
vt 0.645731 0.702719
vt 0.649497 0.682592
vt 0.728705 0.682592
vt 0.718274 0.733504
vt 0.665194 0.733504
vt 0.717281 0.732180
vt 0.664286 0.731880
vt 0.738441 0.640478
vt 0.639567 0.640478
vt 0.665101 0.733034
vt 0.718181 0.733034
vt 0.740696 0.725712
vt 0.717808 0.667184
vt 0.658478 0.667028
vt 0.635087 0.725434
vt 0.739787 0.660396
vt 0.640913 0.660395
vt 0.661119 0.732162
vt 0.714199 0.732162
vt 0.664180 0.732287
vt 0.717174 0.732586
vn 0.000000 -1.000000 0.000000
vn 0.000000 -1.000000 0.000000
vn 0.000000 -1.000000 0.000000
vn 0.000000 -1.000000 0.000000
vn 0.000000 0.000000 1.000000
vn 0.000000 0.000000 1.000000
vn 0.000000 0.000000 1.000000
vn 0.000000 0.000000 1.000000
vn 0.000000 0.000000 1.000000
vn 0.000000 0.000000 1.000000
vn 0.000000 0.000000 1.000000
vn 0.000000 0.000000 1.000000
vn -0.000000 0.000000 1.000000
vn -0.000000 0.000000 1.000000
vn -0.000000 0.000000 1.000000
vn -0.000000 0.000000 1.000000
vn 0.000000 0.000000 1.000000
vn 0.000000 0.000000 1.000000
vn 0.000000 0.000000 1.000000
vn 0.000000 0.000000 1.000000
vn -0.000000 0.000000 -1.000000
vn -0.000000 0.000000 -1.000000
vn -0.000000 0.000000 -1.000000
vn -0.000000 0.000000 -1.000000
vn 0.000000 0.000000 -1.000000
vn 0.000000 0.000000 -1.000000
vn 0.000000 0.000000 -1.000000
vn 0.000000 0.000000 -1.000000
vn -0.000000 0.000000 -1.000000
vn -0.000000 0.000000 -1.000000
vn -0.000000 0.000000 -1.000000
vn -0.000000 0.000000 -1.000000
vn 0.000000 0.000000 -1.000000
vn 0.000000 0.000000 -1.000000
vn 0.000000 0.000000 -1.000000
vn 0.000000 0.000000 -1.000000
vn 1.000000 0.000000 0.000000
vn 1.000000 0.000000 0.000000
vn 1.000000 0.000000 0.000000
vn 1.000000 0.000000 0.000000
vn 1.000000 0.000000 0.000000
vn 1.000000 0.000000 0.000000
vn 1.000000 0.000000 0.000000
vn 1.000000 0.000000 0.000000
vn -1.000000 0.000000 0.000000
vn -1.000000 0.000000 0.000000
vn -1.000000 0.000000 0.000000
vn -1.000000 0.000000 0.000000
vn 0.000000 1.000000 0.000000
vn 0.000000 1.000000 0.000000
vn 0.000000 1.000000 0.000000
vn 0.000000 1.000000 0.000000
vn -1.000000 0.000000 0.000000
vn -1.000000 0.000000 0.000000
vn -1.000000 0.000000 0.000000
vn -1.000000 0.000000 0.000000
vn 0.000000 1.000000 0.000000
vn 0.000000 1.000000 0.000000
vn 0.000000 1.000000 0.000000
vn 0.000000 1.000000 0.000000
vn 0.000000 -1.000000 0.000000
vn 0.000000 -1.000000 0.000000
vn 0.000000 -1.000000 0.000000
vn 0.000000 -1.000000 0.000000
f 1/1/1 7/2/2 9/3/3 15/4/4
f 1/5/5 2/6/6 3/7/7 4/8/8
f 6/9/9 3/10/10 2/11/11 5/12/12
f 5/13/13 7/14/14 8/15/15 6/16/16
f 7/2/17 1/1/18 4/17/19 8/18/20
f 9/19/21 10/20/22 11/21/23 12/22/24
f 13/23/25 14/24/26 11/25/27 10/26/28
f 13/27/29 15/28/30 16/29/31 14/30/32
f 15/4/33 9/3/34 12/31/35 16/32/36
f 2/6/37 1/5/38 15/28/39 13/27/40
f 11/21/41 6/16/42 8/15/43 12/22/44
f 5/13/45 10/20/46 9/19/47 7/14/48
f 2/11/49 13/23/50 10/26/51 5/12/52
f 14/30/53 16/29/54 4/8/55 3/7/56
f 16/32/57 12/31/58 8/18/59 4/17/60
f 14/24/61 3/10/62 6/9/63 11/25/64
