# This file uses meters as units for non-parametric coordinates.

v 71.241882 121.813019 0.441487
v 71.241882 131.360992 0.441487
v 4.981979 131.360992 0.441487
v 4.981979 121.813019 0.441487
v 4.981979 121.813019 -1.708852
v 4.981979 131.360992 -1.708852
v 71.241882 131.360992 -1.708852
v 71.241882 121.813019 -1.708852
v 71.241882 83.107712 0.441487
v 71.241882 92.655685 0.441487
v 4.981979 92.655685 0.441487
v 4.981979 83.107712 0.441487
v 4.981979 83.107712 -1.708852
v 4.981979 92.655685 -1.708852
v 71.241882 92.655685 -1.708852
v 71.241882 83.107712 -1.708852
v 35.402023 159.963470 -0.128486
v 41.725143 159.963470 -0.128486
v 35.402023 14.693665 -0.128486
v 41.725143 14.693665 -0.128486
v 35.402023 14.693665 -1.138881
v 41.725143 14.693665 -1.138881
v 35.402023 159.963470 -1.138881
v 41.725143 159.963470 -1.138881
v 76.690796 5.459366 0.979588
v 76.690796 170.128876 0.979588
v 70.436249 159.729279 0.979588
v 70.436249 15.858978 0.979588
v -0.000015 170.128876 0.979588
v 6.690903 159.729279 0.979588
v -0.000015 5.459366 0.979588
v 6.690903 15.858978 0.979588
v -0.000015 5.459366 -2.340721
v -0.000015 170.128876 -2.340721
v 6.690903 159.729279 -2.340721
v 6.690903 15.858978 -2.340721
v 76.690796 170.128876 -2.340721
v 70.436249 159.729279 -2.340721
v 76.690796 5.459366 -2.340721
v 70.436249 15.858978 -2.340721
v 71.241882 45.047852 0.441487
v 71.241882 54.595825 0.441487
v 4.981979 54.595825 0.441487
v 4.981979 45.047852 0.441487
v 4.981979 45.047852 -1.708852
v 4.981979 54.595825 -1.708852
v 71.241882 54.595825 -1.708852
v 71.241882 45.047852 -1.708852
vt 0.510151 0.736640
vt 0.510151 0.637862
vt 0.617688 0.637862
vt 0.617688 0.736640
vt 0.510151 0.736640
vt 0.510151 0.637862
vt 0.617688 0.637862
vt 0.617688 0.736640
vt 0.510151 0.736640
vt 0.617688 0.736640
vt 0.510151 0.637862
vt 0.617688 0.637862
vt 0.510151 0.736640
vt 0.510151 0.637862
vt 0.617688 0.637862
vt 0.617688 0.736640
vt 0.510151 0.736640
vt 0.510151 0.637862
vt 0.617688 0.637862
vt 0.617688 0.736640
vt 0.510151 0.736640
vt 0.617688 0.736640
vt 0.510151 0.637862
vt 0.617688 0.637862
vt 0.608718 0.719480
vt 0.608718 0.673384
vt 0.509940 0.673384
vt 0.509940 0.719480
vt 0.608718 0.719480
vt 0.608718 0.673384
vt 0.509940 0.673384
vt 0.509940 0.719480
vt 0.608718 0.673384
vt 0.608718 0.719480
vt 0.509940 0.719480
vt 0.509940 0.673384
vt 0.603363 0.686576
vt 0.527793 0.686148
vt 0.518286 0.643471
vt 0.612618 0.644005
vt 0.525624 0.692885
vt 0.604832 0.692885
vt 0.589107 0.731789
vt 0.536027 0.731789
vt 0.533597 0.666816
vt 0.592927 0.666972
vt 0.605334 0.702942
vt 0.520731 0.702719
vt 0.524497 0.682592
vt 0.603705 0.682592
vt 0.593274 0.733504
vt 0.540194 0.733504
vt 0.592281 0.732180
vt 0.539286 0.731880
vt 0.613441 0.640478
vt 0.514567 0.640478
vt 0.540101 0.733034
vt 0.593181 0.733034
vt 0.615696 0.725712
vt 0.592808 0.667184
vt 0.533478 0.667028
vt 0.510087 0.725434
vt 0.614787 0.660396
vt 0.515913 0.660395
vt 0.536119 0.732162
vt 0.589199 0.732162
vt 0.539180 0.732287
vt 0.592174 0.732586
vt 0.510151 0.736640
vt 0.510151 0.637862
vt 0.617688 0.637862
vt 0.617688 0.736640
vt 0.510151 0.736640
vt 0.510151 0.637862
vt 0.617688 0.637862
vt 0.617688 0.736640
vt 0.510151 0.736640
vt 0.617688 0.736640
vt 0.510151 0.637862
vt 0.617688 0.637862
vn 0.000000 0.000000 1.000000
vn 0.000000 0.000000 1.000000
vn 0.000000 0.000000 1.000000
vn 0.000000 0.000000 1.000000
vn 0.000000 0.000000 -1.000000
vn 0.000000 0.000000 -1.000000
vn 0.000000 0.000000 -1.000000
vn 0.000000 0.000000 -1.000000
vn 0.000000 1.000000 0.000000
vn 0.000000 1.000000 0.000000
vn 0.000000 1.000000 0.000000
vn 0.000000 1.000000 0.000000
vn 0.000000 -1.000000 0.000000
vn 0.000000 -1.000000 0.000000
vn 0.000000 -1.000000 0.000000
vn 0.000000 -1.000000 0.000000
vn 0.000000 0.000000 1.000000
vn 0.000000 0.000000 1.000000
vn 0.000000 0.000000 1.000000
vn 0.000000 0.000000 1.000000
vn 0.000000 0.000000 -1.000000
vn 0.000000 0.000000 -1.000000
vn 0.000000 0.000000 -1.000000
vn 0.000000 0.000000 -1.000000
vn 0.000000 1.000000 0.000000
vn 0.000000 1.000000 0.000000
vn 0.000000 1.000000 0.000000
vn 0.000000 1.000000 0.000000
vn 0.000000 -1.000000 0.000000
vn 0.000000 -1.000000 0.000000
vn 0.000000 -1.000000 0.000000
vn 0.000000 -1.000000 0.000000
vn 0.000000 0.000000 1.000000
vn 0.000000 0.000000 1.000000
vn 0.000000 0.000000 1.000000
vn 0.000000 0.000000 1.000000
vn 0.000000 0.000000 -1.000000
vn 0.000000 0.000000 -1.000000
vn 0.000000 0.000000 -1.000000
vn 0.000000 0.000000 -1.000000
vn 1.000000 0.000000 0.000000
vn 1.000000 0.000000 0.000000
vn 1.000000 0.000000 0.000000
vn 1.000000 0.000000 0.000000
vn -1.000000 0.000000 0.000000
vn -1.000000 0.000000 0.000000
vn -1.000000 0.000000 0.000000
vn -1.000000 0.000000 0.000000
vn 0.000000 -1.000000 0.000000
vn 0.000000 -1.000000 0.000000
vn 0.000000 -1.000000 0.000000
vn 0.000000 -1.000000 0.000000
vn 0.000000 0.000000 1.000000
vn 0.000000 0.000000 1.000000
vn 0.000000 0.000000 1.000000
vn 0.000000 0.000000 1.000000
vn 0.000000 0.000000 1.000000
vn 0.000000 0.000000 1.000000
vn 0.000000 0.000000 1.000000
vn 0.000000 0.000000 1.000000
vn -0.000000 0.000000 1.000000
vn -0.000000 0.000000 1.000000
vn -0.000000 0.000000 1.000000
vn -0.000000 0.000000 1.000000
vn 0.000000 0.000000 1.000000
vn 0.000000 0.000000 1.000000
vn 0.000000 0.000000 1.000000
vn 0.000000 0.000000 1.000000
vn -0.000000 0.000000 -1.000000
vn -0.000000 0.000000 -1.000000
vn -0.000000 0.000000 -1.000000
vn -0.000000 0.000000 -1.000000
vn 0.000000 0.000000 -1.000000
vn 0.000000 0.000000 -1.000000
vn 0.000000 0.000000 -1.000000
vn 0.000000 0.000000 -1.000000
vn -0.000000 0.000000 -1.000000
vn -0.000000 0.000000 -1.000000
vn -0.000000 0.000000 -1.000000
vn -0.000000 0.000000 -1.000000
vn 0.000000 0.000000 -1.000000
vn 0.000000 0.000000 -1.000000
vn 0.000000 0.000000 -1.000000
vn 0.000000 0.000000 -1.000000
vn 1.000000 0.000000 0.000000
vn 1.000000 0.000000 0.000000
vn 1.000000 0.000000 0.000000
vn 1.000000 0.000000 0.000000
vn 1.000000 0.000000 0.000000
vn 1.000000 0.000000 0.000000
vn 1.000000 0.000000 0.000000
vn 1.000000 0.000000 0.000000
vn -1.000000 0.000000 0.000000
vn -1.000000 0.000000 0.000000
vn -1.000000 0.000000 0.000000
vn -1.000000 0.000000 0.000000
vn 0.000000 1.000000 0.000000
vn 0.000000 1.000000 0.000000
vn 0.000000 1.000000 0.000000
vn 0.000000 1.000000 0.000000
vn -1.000000 0.000000 0.000000
vn -1.000000 0.000000 0.000000
vn -1.000000 0.000000 0.000000
vn -1.000000 0.000000 0.000000
vn 0.000000 1.000000 0.000000
vn 0.000000 1.000000 0.000000
vn 0.000000 1.000000 0.000000
vn 0.000000 1.000000 0.000000
vn 0.000000 -1.000000 0.000000
vn 0.000000 -1.000000 0.000000
vn 0.000000 -1.000000 0.000000
vn 0.000000 -1.000000 0.000000
vn 0.000000 0.000000 1.000000
vn 0.000000 0.000000 1.000000
vn 0.000000 0.000000 1.000000
vn 0.000000 0.000000 1.000000
vn 0.000000 0.000000 -1.000000
vn 0.000000 0.000000 -1.000000
vn 0.000000 0.000000 -1.000000
vn 0.000000 0.000000 -1.000000
vn 0.000000 1.000000 0.000000
vn 0.000000 1.000000 0.000000
vn 0.000000 1.000000 0.000000
vn 0.000000 1.000000 0.000000
vn 0.000000 -1.000000 0.000000
vn 0.000000 -1.000000 0.000000
vn 0.000000 -1.000000 0.000000
vn 0.000000 -1.000000 0.000000
f 1/1/1 2/2/2 3/3/3 4/4/4
f 5/5/5 6/6/6 7/7/7 8/8/8
f 2/2/9 7/9/10 6/10/11 3/3/12
f 8/11/13 1/1/14 4/4/15 5/12/16
f 9/13/17 10/14/18 11/15/19 12/16/20
f 13/17/21 14/18/22 15/19/23 16/20/24
f 10/14/25 15/21/26 14/22/27 11/15/28
f 16/23/29 9/13/30 12/16/31 13/24/32
f 17/25/33 19/26/34 20/27/35 18/28/36
f 21/29/37 23/30/38 24/31/39 22/32/40
f 18/28/41 20/27/42 22/33/43 24/34/44
f 23/35/45 21/36/46 19/26/47 17/25/48
f 25/37/49 31/38/50 33/39/51 39/40/52
f 25/41/53 26/42/54 27/43/55 28/44/56
f 30/45/57 27/46/58 26/47/59 29/48/60
f 29/49/61 31/50/62 32/51/63 30/52/64
f 31/38/65 25/37/66 28/53/67 32/54/68
f 33/55/69 34/56/70 35/57/71 36/58/72
f 37/59/73 38/60/74 35/61/75 34/62/76
f 37/63/77 39/64/78 40/65/79 38/66/80
f 39/40/81 33/39/82 36/67/83 40/68/84
f 26/42/85 25/41/86 39/64/87 37/63/88
f 35/57/89 30/52/90 32/51/91 36/58/92
f 29/49/93 34/56/94 33/55/95 31/50/96
f 26/47/97 37/59/98 34/62/99 29/48/100
f 38/66/101 40/65/102 28/44/103 27/43/104
f 40/68/105 36/67/106 32/54/107 28/53/108
f 38/60/109 27/46/110 30/45/111 35/61/112
f 41/69/113 42/70/114 43/71/115 44/72/116
f 45/73/117 46/74/118 47/75/119 48/76/120
f 42/70/121 47/77/122 46/78/123 43/71/124
f 48/79/125 41/69/126 44/72/127 45/80/128
