# This file uses meters as units for non-parametric coordinates.

v 71.241882 83.107697 0.441487
v 71.241882 92.655670 0.441487
v 4.981979 92.655670 0.441487
v 4.981979 83.107697 0.441487
v 4.981979 83.107697 -1.708852
v 4.981979 92.655670 -1.708852
v 71.241882 92.655670 -1.708852
v 71.241882 83.107697 -1.708852
v 76.690796 5.459351 0.979588
v 76.690796 170.128860 0.979588
v 70.436249 159.729263 0.979588
v 70.436249 15.858963 0.979588
v -0.000015 170.128860 0.979588
v 6.690903 159.729263 0.979588
v -0.000015 5.459351 0.979588
v 6.690903 15.858963 0.979588
v -0.000015 5.459351 -2.340721
v -0.000015 170.128860 -2.340721
v 6.690903 159.729263 -2.340721
v 6.690903 15.858963 -2.340721
v 76.690796 170.128860 -2.340721
v 70.436249 159.729263 -2.340721
v 76.690796 5.459351 -2.340721
v 70.436249 15.858963 -2.340721
vt 0.635151 0.861640
vt 0.635151 0.762862
vt 0.742688 0.762862
vt 0.742688 0.861640
vt 0.635151 0.861640
vt 0.635151 0.762862
vt 0.742688 0.762862
vt 0.742688 0.861640
vt 0.635151 0.861640
vt 0.742688 0.861640
vt 0.635151 0.762862
vt 0.742688 0.762862
vt 0.728363 0.811576
vt 0.652793 0.811148
vt 0.643286 0.768471
vt 0.737618 0.769005
vt 0.650624 0.817885
vt 0.729832 0.817885
vt 0.714107 0.856789
vt 0.661027 0.856789
vt 0.658597 0.791816
vt 0.717927 0.791972
vt 0.730334 0.827942
vt 0.645731 0.827719
vt 0.649497 0.807592
vt 0.728705 0.807592
vt 0.718274 0.858504
vt 0.665194 0.858504
vt 0.717281 0.857180
vt 0.664286 0.856880
vt 0.738441 0.765478
vt 0.639567 0.765478
vt 0.665101 0.858034
vt 0.718181 0.858034
vt 0.740696 0.850712
vt 0.717808 0.792184
vt 0.658478 0.792028
vt 0.635087 0.850434
vt 0.739787 0.785396
vt 0.640913 0.785395
vt 0.661119 0.857162
vt 0.714199 0.857162
vt 0.664180 0.857287
vt 0.717174 0.857586
vn 0.000000 0.000000 1.000000
vn 0.000000 0.000000 1.000000
vn 0.000000 0.000000 1.000000
vn 0.000000 0.000000 1.000000
vn 0.000000 0.000000 -1.000000
vn 0.000000 0.000000 -1.000000
vn 0.000000 0.000000 -1.000000
vn 0.000000 0.000000 -1.000000
vn 0.000000 1.000000 0.000000
vn 0.000000 1.000000 0.000000
vn 0.000000 1.000000 0.000000
vn 0.000000 1.000000 0.000000
vn 0.000000 -1.000000 0.000000
vn 0.000000 -1.000000 0.000000
vn 0.000000 -1.000000 0.000000
vn 0.000000 -1.000000 0.000000
vn 0.000000 -1.000000 0.000000
vn 0.000000 -1.000000 0.000000
vn 0.000000 -1.000000 0.000000
vn 0.000000 -1.000000 0.000000
vn 0.000000 0.000000 1.000000
vn 0.000000 0.000000 1.000000
vn 0.000000 0.000000 1.000000
vn 0.000000 0.000000 1.000000
vn 0.000000 0.000000 1.000000
vn 0.000000 0.000000 1.000000
vn 0.000000 0.000000 1.000000
vn 0.000000 0.000000 1.000000
vn -0.000000 0.000000 1.000000
vn -0.000000 0.000000 1.000000
vn -0.000000 0.000000 1.000000
vn -0.000000 0.000000 1.000000
vn 0.000000 0.000000 1.000000
vn 0.000000 0.000000 1.000000
vn 0.000000 0.000000 1.000000
vn 0.000000 0.000000 1.000000
vn -0.000000 0.000000 -1.000000
vn -0.000000 0.000000 -1.000000
vn -0.000000 0.000000 -1.000000
vn -0.000000 0.000000 -1.000000
vn 0.000000 0.000000 -1.000000
vn 0.000000 0.000000 -1.000000
vn 0.000000 0.000000 -1.000000
vn 0.000000 0.000000 -1.000000
vn -0.000000 0.000000 -1.000000
vn -0.000000 0.000000 -1.000000
vn -0.000000 0.000000 -1.000000
vn -0.000000 0.000000 -1.000000
vn 0.000000 0.000000 -1.000000
vn 0.000000 0.000000 -1.000000
vn 0.000000 0.000000 -1.000000
vn 0.000000 0.000000 -1.000000
vn 1.000000 0.000000 0.000000
vn 1.000000 0.000000 0.000000
vn 1.000000 0.000000 0.000000
vn 1.000000 0.000000 0.000000
vn 1.000000 0.000000 0.000000
vn 1.000000 0.000000 0.000000
vn 1.000000 0.000000 0.000000
vn 1.000000 0.000000 0.000000
vn -1.000000 0.000000 0.000000
vn -1.000000 0.000000 0.000000
vn -1.000000 0.000000 0.000000
vn -1.000000 0.000000 0.000000
vn 0.000000 1.000000 0.000000
vn 0.000000 1.000000 0.000000
vn 0.000000 1.000000 0.000000
vn 0.000000 1.000000 0.000000
vn -1.000000 0.000000 0.000000
vn -1.000000 0.000000 0.000000
vn -1.000000 0.000000 0.000000
vn -1.000000 0.000000 0.000000
vn 0.000000 1.000000 0.000000
vn 0.000000 1.000000 0.000000
vn 0.000000 1.000000 0.000000
vn 0.000000 1.000000 0.000000
vn 0.000000 -1.000000 0.000000
vn 0.000000 -1.000000 0.000000
vn 0.000000 -1.000000 0.000000
vn 0.000000 -1.000000 0.000000
f 1/1/1 2/2/2 3/3/3 4/4/4
f 5/5/5 6/6/6 7/7/7 8/8/8
f 2/2/9 7/9/10 6/10/11 3/3/12
f 8/11/13 1/1/14 4/4/15 5/12/16
f 9/13/17 15/14/18 17/15/19 23/16/20
f 9/17/21 10/18/22 11/19/23 12/20/24
f 14/21/25 11/22/26 10/23/27 13/24/28
f 13/25/29 15/26/30 16/27/31 14/28/32
f 15/14/33 9/13/34 12/29/35 16/30/36
f 17/31/37 18/32/38 19/33/39 20/34/40
f 21/35/41 22/36/42 19/37/43 18/38/44
f 21/39/45 23/40/46 24/41/47 22/42/48
f 23/16/49 17/15/50 20/43/51 24/44/52
f 10/18/53 9/17/54 23/40/55 21/39/56
f 19/33/57 14/28/58 16/27/59 20/34/60
f 13/25/61 18/32/62 17/31/63 15/26/64
f 10/23/65 21/35/66 18/38/67 13/24/68
f 22/42/69 24/41/70 12/20/71 11/19/72
f 24/44/73 20/43/74 16/30/75 12/29/76
f 22/36/77 11/22/78 14/21/79 19/37/80
