# This file uses meters as units for non-parametric coordinates.

v -58.165264 7.957840 2.809067
v -56.014927 7.957840 2.809067
v -58.165264 85.647949 2.809067
v -56.014927 85.647949 2.809067
v -58.165264 85.647949 0.658728
v -56.014927 85.647949 0.658728
v -58.165264 7.957840 0.658728
v -56.014927 7.957840 0.658728
v 72.169327 24.967178 2.239094
v 72.169327 22.816833 2.239094
v -73.100464 24.967178 2.239094
v -73.100464 22.816833 2.239094
v -73.100464 24.967178 1.228699
v -73.100464 22.816833 1.228699
v 72.169327 24.967178 1.228699
v 72.169327 22.816833 1.228699
v -1.075169 7.957840 2.809067
v 1.075169 7.957840 2.809067
v -1.075169 85.647949 2.809067
v 1.075169 85.647949 2.809067
v -1.075169 85.647949 0.658728
v 1.075169 85.647949 0.658728
v -1.075169 7.957840 0.658728
v 1.075169 7.957840 0.658728
v 58.165268 7.957840 2.809065
v 56.014927 7.957840 2.809065
v 58.165268 85.647949 2.809065
v 56.014927 85.647949 2.809065
v 58.165268 85.647949 0.658728
v 56.014927 85.647949 0.658728
v 58.165268 7.957840 0.658728
v 56.014927 7.957840 0.658728
v -76.704948 5.428986 3.666757
v 76.704948 5.428986 3.666757
v 71.935158 10.549789 3.666757
v -71.935158 10.549789 3.666757
v 76.704948 90.051468 3.666757
v 71.935158 84.930649 3.666757
v -76.704948 90.051468 3.666757
v -71.935158 84.930649 3.666757
v -76.704948 90.051468 -0.346448
v 76.704948 90.051468 -0.346448
v 71.935158 84.930649 -0.346448
v -71.935158 84.930649 -0.346448
v 76.704948 5.428986 -0.346448
v 71.935158 10.549789 -0.346448
v -76.704948 5.428986 -0.346448
v -71.935158 10.549789 -0.346448
vt 0.608718 0.865851
vt 0.509940 0.865851
vt 0.608718 0.759036
vt 0.509940 0.759036
vt 0.608718 0.865851
vt 0.509940 0.865851
vt 0.608718 0.759036
vt 0.509940 0.759036
vt 0.608718 0.865851
vt 0.608718 0.759036
vt 0.509940 0.865851
vt 0.509940 0.759036
vt 0.608718 0.865851
vt 0.608718 0.759036
vt 0.509940 0.759036
vt 0.509940 0.865851
vt 0.608718 0.865851
vt 0.608718 0.759036
vt 0.509940 0.759036
vt 0.509940 0.865851
vt 0.608718 0.759036
vt 0.608718 0.865851
vt 0.509940 0.865851
vt 0.509940 0.759036
vt 0.608718 0.865851
vt 0.509940 0.865851
vt 0.509940 0.759036
vt 0.608718 0.759036
vt 0.608718 0.865851
vt 0.509940 0.865851
vt 0.509940 0.759036
vt 0.608718 0.759036
vt 0.608718 0.865851
vt 0.608718 0.759036
vt 0.509940 0.865851
vt 0.509940 0.759036
vt 0.608718 0.865851
vt 0.608718 0.759036
vt 0.509940 0.759036
vt 0.509940 0.865851
vt 0.608718 0.865851
vt 0.608718 0.759036
vt 0.509940 0.759036
vt 0.509940 0.865851
vt 0.608718 0.759036
vt 0.608718 0.865851
vt 0.509940 0.865851
vt 0.509940 0.759036
vt 0.612872 0.790587
vt 0.612178 0.790974
vt 0.514334 0.790794
vt 0.612655 0.790794
vt 0.612129 0.793793
vt 0.518670 0.838825
vt 0.515981 0.840130
vt 0.612226 0.791402
vt 0.516030 0.837310
vt 0.519316 0.838009
vt 0.612444 0.791195
vt 0.607684 0.838618
vt 0.609701 0.834448
vt 0.612151 0.795875
vt 0.609695 0.841429
vt 0.607895 0.838216
vt 0.608113 0.838010
vt 0.516002 0.842211
vt 0.609723 0.836529
vt 0.519099 0.838216
vt 0.607467 0.838824
vt 0.516008 0.835229
vt 0.609674 0.839348
vt 0.518888 0.838617
vt 0.513547 0.796708
vt 0.513525 0.794627
vt 0.514123 0.791195
vt 0.513905 0.791402
vt 0.612157 0.788893
vt 0.513553 0.789726
vt 0.513574 0.791808
vt 0.514551 0.790587
vn 0.000000 0.000000 1.000000
vn 0.000000 0.000000 1.000000
vn 0.000000 0.000000 1.000000
vn 0.000000 0.000000 1.000000
vn 0.000000 0.000000 -1.000000
vn 0.000000 0.000000 -1.000000
vn 0.000000 0.000000 -1.000000
vn 0.000000 0.000000 -1.000000
vn 1.000000 0.000000 0.000000
vn 1.000000 0.000000 0.000000
vn 1.000000 0.000000 0.000000
vn 1.000000 0.000000 0.000000
vn -1.000000 0.000000 0.000000
vn -1.000000 0.000000 0.000000
vn -1.000000 0.000000 0.000000
vn -1.000000 0.000000 0.000000
vn 0.000000 0.000000 1.000000
vn 0.000000 0.000000 1.000000
vn 0.000000 0.000000 1.000000
vn 0.000000 0.000000 1.000000
vn 0.000000 0.000000 -1.000000
vn 0.000000 0.000000 -1.000000
vn 0.000000 0.000000 -1.000000
vn 0.000000 0.000000 -1.000000
vn 0.000000 -1.000000 0.000000
vn 0.000000 -1.000000 0.000000
vn 0.000000 -1.000000 0.000000
vn 0.000000 -1.000000 0.000000
vn 0.000000 1.000000 0.000000
vn 0.000000 1.000000 0.000000
vn 0.000000 1.000000 0.000000
vn 0.000000 1.000000 0.000000
vn 0.000000 0.000000 1.000000
vn 0.000000 0.000000 1.000000
vn 0.000000 0.000000 1.000000
vn 0.000000 0.000000 1.000000
vn 0.000000 0.000000 -1.000000
vn 0.000000 0.000000 -1.000000
vn 0.000000 0.000000 -1.000000
vn 0.000000 0.000000 -1.000000
vn 1.000000 0.000000 0.000000
vn 1.000000 0.000000 0.000000
vn 1.000000 0.000000 0.000000
vn 1.000000 0.000000 0.000000
vn -1.000000 0.000000 0.000000
vn -1.000000 0.000000 0.000000
vn -1.000000 0.000000 0.000000
vn -1.000000 0.000000 0.000000
vn 0.000000 0.000000 1.000000
vn 0.000000 0.000000 1.000000
vn 0.000000 0.000000 1.000000
vn 0.000000 0.000000 1.000000
vn 0.000000 0.000000 -1.000000
vn 0.000000 0.000000 -1.000000
vn 0.000000 0.000000 -1.000000
vn 0.000000 0.000000 -1.000000
vn -1.000000 0.000000 0.000000
vn -1.000000 0.000000 0.000000
vn -1.000000 0.000000 0.000000
vn -1.000000 0.000000 0.000000
vn 1.000000 0.000000 0.000000
vn 1.000000 0.000000 0.000000
vn 1.000000 0.000000 0.000000
vn 1.000000 0.000000 0.000000
vn -1.000000 0.000000 0.000000
vn -1.000000 0.000000 0.000000
vn -1.000000 0.000000 0.000000
vn -1.000000 0.000000 0.000000
vn 0.000000 0.000000 1.000000
vn 0.000000 0.000000 1.000000
vn 0.000000 0.000000 1.000000
vn 0.000000 0.000000 1.000000
vn 0.000000 0.000000 1.000000
vn 0.000000 0.000000 1.000000
vn 0.000000 0.000000 1.000000
vn 0.000000 0.000000 1.000000
vn 0.000000 0.000000 1.000000
vn 0.000000 0.000000 1.000000
vn 0.000000 0.000000 1.000000
vn 0.000000 0.000000 1.000000
vn -0.000000 0.000000 1.000000
vn -0.000000 0.000000 1.000000
vn -0.000000 0.000000 1.000000
vn -0.000000 0.000000 1.000000
vn 0.000000 0.000000 -1.000000
vn 0.000000 0.000000 -1.000000
vn 0.000000 0.000000 -1.000000
vn 0.000000 0.000000 -1.000000
vn -0.000000 0.000000 -1.000000
vn -0.000000 0.000000 -1.000000
vn -0.000000 0.000000 -1.000000
vn -0.000000 0.000000 -1.000000
vn 0.000000 0.000000 -1.000000
vn 0.000000 0.000000 -1.000000
vn 0.000000 0.000000 -1.000000
vn 0.000000 0.000000 -1.000000
vn -0.000000 0.000000 -1.000000
vn -0.000000 0.000000 -1.000000
vn -0.000000 0.000000 -1.000000
vn -0.000000 0.000000 -1.000000
vn 0.000000 -1.000000 0.000000
vn 0.000000 -1.000000 0.000000
vn 0.000000 -1.000000 0.000000
vn 0.000000 -1.000000 0.000000
vn 0.000000 -1.000000 0.000000
vn 0.000000 -1.000000 0.000000
vn 0.000000 -1.000000 0.000000
vn 0.000000 -1.000000 0.000000
vn 0.000000 1.000000 0.000000
vn 0.000000 1.000000 0.000000
vn 0.000000 1.000000 0.000000
vn 0.000000 1.000000 0.000000
vn 1.000000 0.000000 0.000000
vn 1.000000 0.000000 0.000000
vn 1.000000 0.000000 0.000000
vn 1.000000 0.000000 0.000000
vn 0.000000 1.000000 0.000000
vn 0.000000 1.000000 0.000000
vn 0.000000 1.000000 0.000000
vn 0.000000 1.000000 0.000000
vn 1.000000 0.000000 0.000000
vn 1.000000 0.000000 0.000000
vn 1.000000 0.000000 0.000000
vn 1.000000 0.000000 0.000000
vn -1.000000 0.000000 0.000000
vn -1.000000 0.000000 0.000000
vn -1.000000 0.000000 0.000000
vn -1.000000 0.000000 0.000000
f 1/1/1 2/2/2 4/4/3 3/3/4
f 5/5/5 6/6/6 8/8/7 7/7/8
f 2/2/9 8/9/10 6/10/11 4/4/12
f 7/11/13 1/1/14 3/3/15 5/12/16
f 9/13/17 11/14/18 12/15/19 10/16/20
f 13/17/21 15/18/22 16/19/23 14/20/24
f 10/16/25 12/15/26 14/21/27 16/22/28
f 15/23/29 13/24/30 11/14/31 9/13/32
f 17/25/33 18/26/34 20/27/35 19/28/36
f 21/29/37 22/30/38 24/31/39 23/32/40
f 18/26/41 24/33/42 22/34/43 20/27/44
f 23/35/45 17/25/46 19/28/47 21/36/48
f 25/37/49 27/38/50 28/39/51 26/40/52
f 29/41/53 31/42/54 32/43/55 30/44/56
f 26/40/57 28/39/58 30/45/59 32/46/60
f 31/47/61 29/48/62 27/38/63 25/37/64
f 33/49/65 39/80/66 41/51/67 47/52/68
f 33/74/69 34/53/70 35/71/71 36/55/72
f 34/76/73 37/56/74 38/69/75 35/54/76
f 37/79/77 39/50/78 40/67/79 38/57/80
f 39/80/81 33/49/82 36/65/83 40/58/84
f 41/77/85 42/78/86 43/70/87 44/61/88
f 42/59/89 45/75/90 46/72/91 43/60/92
f 45/62/93 47/73/94 48/66/95 46/63/96
f 47/52/97 41/51/98 44/68/99 48/64/100
f 34/53/101 33/74/102 47/73/103 45/62/104
f 43/70/105 38/57/106 40/67/107 44/61/108
f 37/79/109 42/78/110 41/77/111 39/50/112
f 34/76/113 45/75/114 42/59/115 37/56/116
f 46/63/117 48/66/118 36/55/119 35/71/120
f 48/64/121 44/68/122 40/58/123 36/65/124
f 46/72/125 35/54/126 38/69/127 43/60/128
