# This file uses meters as units for non-parametric coordinates.

v -100.000127 -0.000010 5.757105
v -100.000114 5.459346 5.757105
v -100.000127 372.014328 5.757105
v -100.000114 366.554947 5.757105
v -100.000127 372.014328 -5.757105
v -100.000114 366.554947 -5.757105
v -100.000127 -0.000010 -5.757105
v -100.000114 5.459346 -5.757105
v 100.000012 5.459346 5.757105
v 100.000012 5.459346 -5.757105
v 100.000012 -0.000010 -5.757105
v 100.000012 -0.000010 5.757105
v 100.000012 366.554947 5.757105
v 100.000012 372.014328 5.757105
v 100.000012 372.014328 -5.757105
v 100.000012 366.554947 -5.757105
vt 0.772979 0.705218
vt 0.839967 0.666139
vt 0.798857 0.646102
vt 0.829595 0.641646
vt 0.788486 0.670060
vt 0.863123 0.717443
vt 0.855474 0.701561
vt 0.765330 0.721679
vt 0.814662 0.666014
vt 0.814994 0.641574
vt 0.815080 0.717206
vt 0.814576 0.701359
vt 0.813791 0.670185
vt 0.813876 0.705420
vt 0.813373 0.721916
vt 0.813458 0.646174
vn 0.000000 0.000000 1.000000
vn 0.000000 0.000000 1.000000
vn 0.000000 0.000000 1.000000
vn 0.000000 0.000000 1.000000
vn 0.000000 0.000000 1.000000
vn 0.000000 0.000000 1.000000
vn 0.000000 0.000000 1.000000
vn 0.000000 0.000000 1.000000
vn 0.000000 0.000000 -1.000000
vn 0.000000 0.000000 -1.000000
vn 0.000000 0.000000 -1.000000
vn 0.000000 0.000000 -1.000000
vn 0.000000 0.000000 -1.000000
vn 0.000000 0.000000 -1.000000
vn 0.000000 0.000000 -1.000000
vn 0.000000 0.000000 -1.000000
vn 0.000000 -1.000000 0.000000
vn 0.000000 -1.000000 0.000000
vn 0.000000 -1.000000 0.000000
vn 0.000000 -1.000000 0.000000
vn 0.000000 -1.000000 0.000000
vn 0.000000 -1.000000 0.000000
vn 0.000000 -1.000000 0.000000
vn 0.000000 -1.000000 0.000000
vn 0.000000 1.000000 0.000000
vn 0.000000 1.000000 0.000000
vn 0.000000 1.000000 0.000000
vn 0.000000 1.000000 0.000000
vn 0.000000 1.000000 0.000000
vn 0.000000 1.000000 0.000000
vn 0.000000 1.000000 0.000000
vn 0.000000 1.000000 0.000000
f 1/7/1 12/12/2 9/9/3 2/2/4
f 14/14/5 3/1/6 4/5/7 13/13/8
f 5/8/9 15/15/10 16/16/11 6/3/12
f 11/11/13 7/6/14 8/4/15 10/10/16
f 12/12/17 1/7/18 7/6/19 11/11/20
f 16/16/21 13/13/22 4/5/23 6/3/24
f 14/14/25 15/15/26 5/8/27 3/1/28
f 10/10/29 8/4/30 2/2/31 9/9/32
