# This file uses meters as units for non-parametric coordinates.

v -2.542561 5.459336 5.757105
v 2.542561 5.459336 5.757105
v -2.542561 366.554947 5.757105
v 2.542561 366.554947 5.757105
v -2.542561 366.554947 -5.757105
v 2.542561 366.554947 -5.757105
v -2.542561 5.459336 -5.757105
v 2.542561 5.459336 -5.757105
vt 0.649869 0.041967
vt 0.739135 0.049616
vt 0.642836 0.049616
vt 0.716277 0.026461
vt 0.676401 0.016089
vt 0.665555 0.026461
vt 0.705668 0.016089
vt 0.731846 0.041967
vn -1.000000 0.000000 0.000000
vn -1.000000 0.000000 0.000000
vn -1.000000 0.000000 0.000000
vn -1.000000 0.000000 0.000000
vn 0.000000 0.000000 1.000000
vn 0.000000 0.000000 1.000000
vn 0.000000 0.000000 1.000000
vn 0.000000 0.000000 1.000000
vn 0.000000 0.000000 -1.000000
vn 0.000000 0.000000 -1.000000
vn 0.000000 0.000000 -1.000000
vn 0.000000 0.000000 -1.000000
vn 1.000000 0.000000 0.000000
vn 1.000000 0.000000 0.000000
vn 1.000000 0.000000 0.000000
vn 1.000000 0.000000 0.000000
f 1/1/1 3/8/2 5/2/3 7/3/4
f 3/8/5 1/1/6 2/6/7 4/4/8
f 7/3/9 5/2/10 6/7/11 8/5/12
f 8/5/13 6/7/14 4/4/15 2/6/16
