# This file uses meters as units for non-parametric coordinates.

v -2.542561 5.459336 5.757105
v 2.542561 5.459336 5.757105
v -2.542561 366.554947 5.757105
v 2.542561 366.554947 5.757105
v -2.542561 366.554947 -5.757105
v 2.542561 366.554947 -5.757105
v -2.542561 5.459336 -5.757105
v 2.542561 5.459336 -5.757105
vt 0.774869 0.828097
vt 0.864135 0.845371
vt 0.767836 0.845371
vt 0.841277 0.793079
vt 0.801401 0.769658
vt 0.790555 0.793079
vt 0.830668 0.769658
vt 0.856846 0.828097
vn -1.000000 0.000000 0.000000
vn -1.000000 0.000000 0.000000
vn -1.000000 0.000000 0.000000
vn -1.000000 0.000000 0.000000
vn 0.000000 0.000000 1.000000
vn 0.000000 0.000000 1.000000
vn 0.000000 0.000000 1.000000
vn 0.000000 0.000000 1.000000
vn 0.000000 0.000000 -1.000000
vn 0.000000 0.000000 -1.000000
vn 0.000000 0.000000 -1.000000
vn 0.000000 0.000000 -1.000000
vn 1.000000 0.000000 0.000000
vn 1.000000 0.000000 0.000000
vn 1.000000 0.000000 0.000000
vn 1.000000 0.000000 0.000000
f 1/1/1 3/8/2 5/2/3 7/3/4
f 3/8/5 1/1/6 2/6/7 4/4/8
f 7/3/9 5/2/10 6/7/11 8/5/12
f 8/5/13 6/7/14 4/4/15 2/6/16
