# This file uses meters as units for non-parametric coordinates.

v -18.224083 0.000000 5.757105
v -23.309189 5.459351 5.757105
v -18.224083 372.014343 5.757105
v -23.309189 366.554993 5.757105
v -18.224083 372.014343 -5.757105
v -23.309189 366.554993 -5.757105
v -18.224083 0.000000 -5.757105
v -23.309189 5.459351 -5.757105
v -100.000122 5.459351 5.757105
v -100.000122 5.459351 -5.757105
v -100.000122 0.000000 -5.757105
v -100.000122 0.000000 5.757105
v -100.000122 366.554993 5.757105
v -100.000122 372.014343 5.757105
v -100.000122 372.014343 -5.757105
v -100.000122 366.554993 -5.757105
vt 0.649869 0.166967
vt 0.647979 0.167906
vt 0.739135 0.174616
vt 0.642836 0.174616
vt 0.714967 0.150601
vt 0.716277 0.151461
vt 0.673857 0.141729
vt 0.676401 0.141089
vt 0.665555 0.151461
vt 0.704595 0.139756
vt 0.663486 0.152338
vt 0.705668 0.141089
vt 0.738123 0.173320
vt 0.730474 0.166287
vt 0.640330 0.175196
vt 0.731846 0.166967
vt 0.689662 0.150546
vt 0.689994 0.139724
vt 0.690080 0.173215
vt 0.689576 0.166198
vt 0.688791 0.152393
vt 0.688876 0.167996
vt 0.688373 0.175301
vt 0.688458 0.141761
vn 1.000000 0.000000 0.000000
vn 1.000000 0.000000 0.000000
vn 1.000000 0.000000 0.000000
vn 1.000000 0.000000 0.000000
vn 0.000000 0.000000 1.000000
vn 0.000000 0.000000 1.000000
vn 0.000000 0.000000 1.000000
vn 0.000000 0.000000 1.000000
vn 0.000000 0.000000 1.000000
vn 0.000000 0.000000 1.000000
vn 0.000000 0.000000 1.000000
vn 0.000000 0.000000 1.000000
vn 0.000000 0.000000 1.000000
vn 0.000000 0.000000 1.000000
vn 0.000000 0.000000 1.000000
vn 0.000000 0.000000 1.000000
vn 0.000000 0.000000 -1.000000
vn 0.000000 0.000000 -1.000000
vn 0.000000 0.000000 -1.000000
vn 0.000000 0.000000 -1.000000
vn 0.000000 0.000000 -1.000000
vn 0.000000 0.000000 -1.000000
vn 0.000000 0.000000 -1.000000
vn 0.000000 0.000000 -1.000000
vn 0.000000 0.000000 -1.000000
vn 0.000000 0.000000 -1.000000
vn 0.000000 0.000000 -1.000000
vn 0.000000 0.000000 -1.000000
vn 0.000000 -1.000000 0.000000
vn 0.000000 -1.000000 0.000000
vn 0.000000 -1.000000 0.000000
vn 0.000000 -1.000000 0.000000
vn 0.000000 -1.000000 0.000000
vn 0.000000 -1.000000 0.000000
vn 0.000000 -1.000000 0.000000
vn 0.000000 -1.000000 0.000000
vn 0.000000 1.000000 0.000000
vn 0.000000 1.000000 0.000000
vn 0.000000 1.000000 0.000000
vn 0.000000 1.000000 0.000000
vn 0.000000 1.000000 0.000000
vn 0.000000 1.000000 0.000000
vn 0.000000 1.000000 0.000000
vn 0.000000 1.000000 0.000000
vn -1.000000 0.000000 0.000000
vn -1.000000 0.000000 0.000000
vn -1.000000 0.000000 0.000000
vn -1.000000 0.000000 0.000000
f 1/1/1 7/4/2 5/3/3 3/16/4
f 1/14/5 2/5/6 9/17/7 12/20/8
f 14/22/9 13/21/10 4/11/11 3/2/12
f 3/16/13 4/6/14 2/9/15 1/1/16
f 5/15/17 6/7/18 16/24/19 15/23/20
f 11/19/21 10/18/22 8/10/23 7/13/24
f 7/4/25 8/8/26 6/12/27 5/3/28
f 12/20/29 11/19/30 7/13/31 1/14/32
f 16/24/33 6/7/34 4/11/35 13/21/36
f 14/22/37 3/2/38 5/15/39 15/23/40
f 10/18/41 9/17/42 2/5/43 8/10/44
f 8/8/45 2/9/46 4/6/47 6/12/48
