# This file uses meters as units for non-parametric coordinates.

v 18.224083 -0.000004 5.757105
v 23.309204 5.459352 5.757105
v 18.224083 372.014328 5.757105
v 23.309204 366.554972 5.757105
v 18.224083 372.014328 -5.757105
v 23.309204 366.554972 -5.757105
v 18.224083 -0.000004 -5.757105
v 23.309204 5.459352 -5.757105
v 100.000011 5.459352 5.757105
v 100.000011 5.459352 -5.757105
v 100.000011 -0.000004 -5.757105
v 100.000011 -0.000004 5.757105
v 100.000011 366.554972 5.757105
v 100.000011 372.014328 5.757105
v 100.000011 372.014328 -5.757105
v 100.000011 366.554972 -5.757105
vt 0.774869 0.828097
vt 0.772979 0.830218
vt 0.864135 0.845371
vt 0.767836 0.845371
vt 0.839967 0.791139
vt 0.841277 0.793079
vt 0.798857 0.771102
vt 0.801401 0.769658
vt 0.790555 0.793079
vt 0.829595 0.766646
vt 0.788486 0.795060
vt 0.830668 0.769658
vt 0.863123 0.842443
vt 0.855474 0.826561
vt 0.765330 0.846679
vt 0.856846 0.828097
vt 0.814662 0.791014
vt 0.814994 0.766574
vt 0.815080 0.842206
vt 0.814576 0.826359
vt 0.813791 0.795185
vt 0.813876 0.830420
vt 0.813373 0.846916
vt 0.813458 0.771174
vn -1.000000 0.000000 0.000000
vn -1.000000 0.000000 0.000000
vn -1.000000 0.000000 0.000000
vn -1.000000 0.000000 0.000000
vn 0.000000 0.000000 1.000000
vn 0.000000 0.000000 1.000000
vn 0.000000 0.000000 1.000000
vn 0.000000 0.000000 1.000000
vn 0.000000 0.000000 1.000000
vn 0.000000 0.000000 1.000000
vn 0.000000 0.000000 1.000000
vn 0.000000 0.000000 1.000000
vn -0.000000 0.000000 1.000000
vn -0.000000 0.000000 1.000000
vn -0.000000 0.000000 1.000000
vn -0.000000 0.000000 1.000000
vn 0.000000 0.000000 -1.000000
vn 0.000000 0.000000 -1.000000
vn 0.000000 0.000000 -1.000000
vn 0.000000 0.000000 -1.000000
vn 0.000000 0.000000 -1.000000
vn 0.000000 0.000000 -1.000000
vn 0.000000 0.000000 -1.000000
vn 0.000000 0.000000 -1.000000
vn 0.000000 0.000000 -1.000000
vn 0.000000 0.000000 -1.000000
vn 0.000000 0.000000 -1.000000
vn 0.000000 0.000000 -1.000000
vn 0.000000 -1.000000 0.000000
vn 0.000000 -1.000000 0.000000
vn 0.000000 -1.000000 0.000000
vn 0.000000 -1.000000 0.000000
vn 0.000000 -1.000000 0.000000
vn 0.000000 -1.000000 0.000000
vn 0.000000 -1.000000 0.000000
vn 0.000000 -1.000000 0.000000
vn 0.000000 1.000000 0.000000
vn 0.000000 1.000000 0.000000
vn 0.000000 1.000000 0.000000
vn 0.000000 1.000000 0.000000
vn 0.000000 1.000000 0.000000
vn 0.000000 1.000000 0.000000
vn 0.000000 1.000000 0.000000
vn 0.000000 1.000000 0.000000
vn 1.000000 0.000000 0.000000
vn 1.000000 0.000000 0.000000
vn 1.000000 0.000000 0.000000
vn 1.000000 0.000000 0.000000
f 1/1/1 3/16/2 5/3/3 7/4/4
f 1/14/5 12/20/6 9/17/7 2/5/8
f 14/22/9 3/2/10 4/11/11 13/21/12
f 3/16/13 1/1/14 2/9/15 4/6/16
f 5/15/17 15/23/18 16/24/19 6/7/20
f 11/19/21 7/13/22 8/10/23 10/18/24
f 7/4/25 5/3/26 6/12/27 8/8/28
f 12/20/29 1/14/30 7/13/31 11/19/32
f 16/24/33 13/21/34 4/11/35 6/7/36
f 14/22/37 15/23/38 5/15/39 3/2/40
f 10/18/41 8/10/42 2/5/43 9/17/44
f 8/8/45 6/12/46 4/6/47 2/9/48
