# This file uses meters as units for non-parametric coordinates.

v 18.224083 -0.000004 5.757105
v 23.309204 5.459352 5.757105
v 18.224083 372.014328 5.757105
v 23.309204 366.554972 5.757105
v 18.224083 372.014328 -5.757105
v 23.309204 366.554972 -5.757105
v 18.224083 -0.000004 -5.757105
v 23.309204 5.459352 -5.757105
v 100.000011 5.459352 5.757105
v 100.000011 5.459352 -5.757105
v 100.000011 -0.000004 -5.757105
v 100.000011 -0.000004 5.757105
v 100.000011 366.554972 5.757105
v 100.000011 372.014328 5.757105
v 100.000011 372.014328 -5.757105
v 100.000011 366.554972 -5.757105
vt 0.899869 0.703097
vt 0.897979 0.705218
vt 0.989135 0.720371
vt 0.892836 0.720371
vt 0.964967 0.666139
vt 0.966277 0.668079
vt 0.923857 0.646102
vt 0.926401 0.644658
vt 0.915555 0.668079
vt 0.954595 0.641646
vt 0.913486 0.670060
vt 0.955668 0.644658
vt 0.988123 0.717443
vt 0.980474 0.701561
vt 0.890330 0.721679
vt 0.981846 0.703097
vt 0.939662 0.666014
vt 0.939994 0.641574
vt 0.940080 0.717206
vt 0.939576 0.701359
vt 0.938791 0.670185
vt 0.938876 0.705420
vt 0.938373 0.721916
vt 0.938458 0.646174
vn -1.000000 0.000000 0.000000
vn -1.000000 0.000000 0.000000
vn -1.000000 0.000000 0.000000
vn -1.000000 0.000000 0.000000
vn 0.000000 0.000000 1.000000
vn 0.000000 0.000000 1.000000
vn 0.000000 0.000000 1.000000
vn 0.000000 0.000000 1.000000
vn 0.000000 0.000000 1.000000
vn 0.000000 0.000000 1.000000
vn 0.000000 0.000000 1.000000
vn 0.000000 0.000000 1.000000
vn -0.000000 0.000000 1.000000
vn -0.000000 0.000000 1.000000
vn -0.000000 0.000000 1.000000
vn -0.000000 0.000000 1.000000
vn 0.000000 0.000000 -1.000000
vn 0.000000 0.000000 -1.000000
vn 0.000000 0.000000 -1.000000
vn 0.000000 0.000000 -1.000000
vn 0.000000 0.000000 -1.000000
vn 0.000000 0.000000 -1.000000
vn 0.000000 0.000000 -1.000000
vn 0.000000 0.000000 -1.000000
vn 0.000000 0.000000 -1.000000
vn 0.000000 0.000000 -1.000000
vn 0.000000 0.000000 -1.000000
vn 0.000000 0.000000 -1.000000
vn 0.000000 -1.000000 0.000000
vn 0.000000 -1.000000 0.000000
vn 0.000000 -1.000000 0.000000
vn 0.000000 -1.000000 0.000000
vn 0.000000 -1.000000 0.000000
vn 0.000000 -1.000000 0.000000
vn 0.000000 -1.000000 0.000000
vn 0.000000 -1.000000 0.000000
vn 0.000000 1.000000 0.000000
vn 0.000000 1.000000 0.000000
vn 0.000000 1.000000 0.000000
vn 0.000000 1.000000 0.000000
vn 0.000000 1.000000 0.000000
vn 0.000000 1.000000 0.000000
vn 0.000000 1.000000 0.000000
vn 0.000000 1.000000 0.000000
vn 1.000000 0.000000 0.000000
vn 1.000000 0.000000 0.000000
vn 1.000000 0.000000 0.000000
vn 1.000000 0.000000 0.000000
f 1/1/1 3/16/2 5/3/3 7/4/4
f 1/14/5 12/20/6 9/17/7 2/5/8
f 14/22/9 3/2/10 4/11/11 13/21/12
f 3/16/13 1/1/14 2/9/15 4/6/16
f 5/15/17 15/23/18 16/24/19 6/7/20
f 11/19/21 7/13/22 8/10/23 10/18/24
f 7/4/25 5/3/26 6/12/27 8/8/28
f 12/20/29 1/14/30 7/13/31 11/19/32
f 16/24/33 13/21/34 4/11/35 6/7/36
f 14/22/37 15/23/38 5/15/39 3/2/40
f 10/18/41 8/10/42 2/5/43 9/17/44
f 8/8/45 6/12/46 4/6/47 2/9/48
