# This file uses meters as units for non-parametric coordinates.

v 79.012672 367.109131 0.142314
v -79.012672 367.109131 0.142311
v 79.012672 4.454781 0.142314
v -79.012672 4.454781 0.142311
v 79.012672 4.454781 -0.142314
v -79.012672 4.454781 -0.142311
v 79.012672 367.109131 -0.142314
v -79.012672 367.109131 -0.142311
vt 0.568417 0.975912
vt 0.586456 0.975912
vt 0.568417 0.993951
vt 0.586456 0.993951
vt 0.568417 0.975912
vt 0.586456 0.975912
vt 0.568417 0.993950
vt 0.586456 0.993950
vn -0.000000 0.000000 1.000000
vn -0.000000 0.000000 1.000000
vn -0.000000 0.000000 1.000000
vn -0.000000 0.000000 1.000000
vn -0.000000 0.000000 -1.000000
vn -0.000000 0.000000 -1.000000
vn -0.000000 0.000000 -1.000000
vn -0.000000 0.000000 -1.000000
f 1/1/1 2/2/2 4/4/3 3/3/4
f 5/5/5 6/6/6 8/8/7 7/7/8
