# This file uses meters as units for non-parametric coordinates.

v -100.000127 -0.000010 5.757105
v -100.000114 5.459346 5.757105
v -100.000127 372.014328 5.757105
v -100.000114 366.554947 5.757105
v -100.000127 372.014328 -5.757105
v -100.000114 366.554947 -5.757105
v -100.000127 -0.000010 -5.757105
v -100.000114 5.459346 -5.757105
v 100.000012 5.459346 5.757105
v 100.000012 5.459346 -5.757105
v 100.000012 -0.000010 -5.757105
v 100.000012 -0.000010 5.757105
v 100.000012 366.554947 5.757105
v 100.000012 372.014328 5.757105
v 100.000012 372.014328 -5.757105
v 100.000012 366.554947 -5.757105
vt 0.522979 0.105406
vt 0.589967 0.088101
vt 0.548857 0.079229
vt 0.579595 0.077256
vt 0.538486 0.089838
vt 0.613123 0.110820
vt 0.605474 0.103787
vt 0.515330 0.112696
vt 0.564662 0.088046
vt 0.564994 0.077224
vt 0.565080 0.110715
vt 0.564576 0.103698
vt 0.563791 0.089893
vt 0.563876 0.105496
vt 0.563373 0.112801
vt 0.563458 0.079261
vn 0.000000 0.000000 1.000000
vn 0.000000 0.000000 1.000000
vn 0.000000 0.000000 1.000000
vn 0.000000 0.000000 1.000000
vn 0.000000 0.000000 1.000000
vn 0.000000 0.000000 1.000000
vn 0.000000 0.000000 1.000000
vn 0.000000 0.000000 1.000000
vn 0.000000 0.000000 -1.000000
vn 0.000000 0.000000 -1.000000
vn 0.000000 0.000000 -1.000000
vn 0.000000 0.000000 -1.000000
vn 0.000000 0.000000 -1.000000
vn 0.000000 0.000000 -1.000000
vn 0.000000 0.000000 -1.000000
vn 0.000000 0.000000 -1.000000
vn 0.000000 -1.000000 0.000000
vn 0.000000 -1.000000 0.000000
vn 0.000000 -1.000000 0.000000
vn 0.000000 -1.000000 0.000000
vn 0.000000 -1.000000 0.000000
vn 0.000000 -1.000000 0.000000
vn 0.000000 -1.000000 0.000000
vn 0.000000 -1.000000 0.000000
vn 0.000000 1.000000 0.000000
vn 0.000000 1.000000 0.000000
vn 0.000000 1.000000 0.000000
vn 0.000000 1.000000 0.000000
vn 0.000000 1.000000 0.000000
vn 0.000000 1.000000 0.000000
vn 0.000000 1.000000 0.000000
vn 0.000000 1.000000 0.000000
f 1/7/1 12/12/2 9/9/3 2/2/4
f 14/14/5 3/1/6 4/5/7 13/13/8
f 5/8/9 15/15/10 16/16/11 6/3/12
f 11/11/13 7/6/14 8/4/15 10/10/16
f 12/12/17 1/7/18 7/6/19 11/11/20
f 16/16/21 13/13/22 4/5/23 6/3/24
f 14/14/25 15/15/26 5/8/27 3/1/28
f 10/10/29 8/4/30 2/2/31 9/9/32
