# This file uses meters as units for non-parametric coordinates.

v 3.794638 -79.386246 0.506007
v 4.806653 -79.386246 0.506007
v 3.794638 -5.888111 0.506007
v 4.806653 -5.888111 0.506007
v 3.794638 -5.888111 -0.506007
v 4.806653 -5.888111 -0.506007
v 3.794638 -79.386246 -0.506007
v 4.806653 -79.386246 -0.506007
v 4.018789 -8.805843 -4.018789
v 0.000000 -8.805843 -5.683426
v -4.018789 -8.805843 -4.018789
v -5.683426 -8.805843 0.000000
v -4.018789 -8.805843 4.018789
v 0.000000 -8.805843 5.683426
v 4.018790 -8.805843 4.018790
v 5.683427 -8.805843 0.000000
v 4.018789 3.588997 -4.018789
v 0.000000 3.588997 -5.683426
v -4.018789 3.588997 -4.018789
v -5.683426 3.588997 0.000000
v -4.018789 3.588997 4.018789
v 0.000000 3.588997 5.683426
v 4.018790 3.588997 4.018790
v 5.683427 3.588997 0.000000
v 0.000000 -8.805843 0.000000
v 0.000000 3.588997 0.000000
v 2.877170 -81.491241 1.423476
v 5.724122 -81.491241 1.423476
v 2.877170 -78.304733 1.423476
v 5.724122 -78.304733 1.423476
v 2.877170 -78.304733 -1.423476
v 5.724122 -78.304733 -1.423476
v 2.877170 -81.491241 -1.423476
v 5.724122 -81.491241 -1.423476
vt 0.598730 0.019755
vt 0.598730 0.027629
vt 0.519367 0.019755
vt 0.519367 0.027629
vt 0.519367 0.043378
vt 0.519367 0.035504
vt 0.598731 0.043378
vt 0.598730 0.035503
vt 0.589968 0.043378
vt 0.589967 0.035503
vt 0.569241 0.045190
vt 0.569241 0.016403
vt 0.598730 0.011880
vt 0.519367 0.011880
vt 0.590003 0.008809
vt 0.590003 0.013986
vt 0.527719 0.013986
vt 0.527719 0.008809
vt 0.590003 0.019164
vt 0.527719 0.019164
vt 0.590003 0.024341
vt 0.527719 0.024341
vt 0.590003 0.029518
vt 0.527719 0.029518
vt 0.590003 0.034696
vt 0.527719 0.034696
vt 0.590003 0.039873
vt 0.527719 0.039873
vt 0.590003 0.045050
vt 0.527719 0.045050
vt 0.590003 0.050227
vt 0.527719 0.050228
vt 0.555085 0.008569
vt 0.569256 0.014438
vt 0.555085 0.027808
vt 0.540914 0.014438
vt 0.535044 0.028610
vt 0.540914 0.042781
vt 0.555085 0.048651
vt 0.569256 0.042781
vt 0.575126 0.028610
vt 0.569256 0.042781
vt 0.555085 0.048650
vt 0.555085 0.027808
vt 0.540914 0.042781
vt 0.535044 0.028609
vt 0.540914 0.014438
vt 0.555085 0.008569
vt 0.569256 0.014438
vt 0.575126 0.028609
vt 0.540454 0.016403
vt 0.569241 0.016403
vt 0.569241 0.045190
vt 0.540454 0.045190
vt 0.569241 0.016403
vt 0.540454 0.016403
vt 0.569241 0.045190
vt 0.540454 0.045190
vt 0.569241 0.016403
vt 0.540454 0.016403
vt 0.540454 0.016403
vt 0.540454 0.045190
vn -0.707073 -0.009736 0.707073
vn 0.707073 -0.009736 0.707073
vn 0.707107 0.000000 0.707107
vn -0.707107 0.000000 0.707107
vn -0.707107 0.000000 -0.707107
vn 0.707107 0.000000 -0.707107
vn 0.707073 -0.009736 -0.707073
vn -0.707073 -0.009736 -0.707073
vn 0.696880 -0.169462 -0.696880
vn 0.000000 -0.169462 -0.985537
vn 0.000000 0.169462 -0.985537
vn 0.696880 0.169462 -0.696880
vn -0.696880 -0.169462 -0.696880
vn -0.696880 0.169462 -0.696880
vn -0.985537 -0.169462 0.000000
vn -0.985537 0.169462 0.000000
vn -0.696880 -0.169462 0.696880
vn -0.696880 0.169462 0.696880
vn -0.000000 -0.169462 0.985537
vn -0.000000 0.169462 0.985537
vn 0.696880 -0.169462 0.696880
vn 0.696880 0.169462 0.696880
vn 0.985537 -0.169462 -0.000000
vn 0.985537 0.169462 -0.000000
vn 0.000000 -1.000000 0.000000
vn 0.000000 1.000000 0.000000
vn -0.597803 -0.534101 0.597803
vn 0.597803 -0.534101 0.597803
vn 0.597803 0.534101 0.597803
vn -0.597803 0.534101 0.597803
vn 0.597803 0.534101 -0.597803
vn -0.597803 0.534101 -0.597803
vn 0.597803 -0.534101 -0.597803
vn -0.597803 -0.534101 -0.597803
f 1/1/1 2/2/2 4/4/3 3/3/4
f 5/5/5 6/6/6 8/8/7 7/7/8
f 7/7/8 8/8/7 2/10/2 1/9/1
f 2/2/2 8/8/7 6/6/6 4/4/3
f 7/13/8 1/1/1 3/3/4 5/14/5
f 9/15/9 10/16/10 18/17/11 17/18/12
f 10/16/10 11/19/13 19/20/14 18/17/11
f 11/19/13 12/21/15 20/22/16 19/20/14
f 12/21/15 13/23/17 21/24/18 20/22/16
f 13/23/17 14/25/19 22/26/20 21/24/18
f 22/26/20 14/25/19 15/27/21 23/28/22
f 15/27/21 16/29/23 24/30/24 23/28/22
f 16/29/23 9/31/9 17/32/12 24/30/24
f 10/33/10 9/34/9 25/35/25
f 11/36/13 10/33/10 25/35/25
f 12/37/15 11/36/13 25/35/25
f 13/38/17 12/37/15 25/35/25
f 14/39/19 13/38/17 25/35/25
f 15/40/21 14/39/19 25/35/25
f 16/41/23 15/40/21 25/35/25
f 9/34/9 16/41/23 25/35/25
f 17/42/12 18/43/11 26/44/26
f 18/43/11 19/45/14 26/44/26
f 19/45/14 20/46/16 26/44/26
f 20/46/16 21/47/18 26/44/26
f 21/47/18 22/48/20 26/44/26
f 22/48/20 23/49/22 26/44/26
f 23/49/22 24/50/24 26/44/26
f 24/50/24 17/42/12 26/44/26
f 27/51/27 28/52/28 30/53/29 29/54/30
f 29/54/30 30/53/29 32/55/31 31/56/32
f 31/56/32 32/55/31 34/57/33 33/58/34
f 33/58/34 34/57/33 28/59/28 27/60/27
f 28/52/28 34/61/33 32/62/31 30/53/29
f 33/12/34 27/51/27 29/54/30 31/11/32
