# This file uses meters as units for non-parametric coordinates.

v -4.215767 -14.785056 10.433220
v 4.215767 -14.785056 10.433220
v -4.215767 -7.841334 10.433220
v 4.215767 -7.841334 10.433220
v -4.215767 -7.841334 6.724243
v 4.215767 -7.841334 6.724243
v -4.215767 -14.785056 6.724243
v 4.215767 -14.785056 6.724243
v -0.768997 -8.957114 9.593838
v 0.768997 -8.957114 9.593838
v -0.768997 -2.482274 9.593838
v 0.768997 -2.482274 9.593838
v -0.768997 -2.482274 7.563629
v 0.768997 -2.482274 7.563629
v -0.768997 -8.957114 7.563629
v 0.768997 -8.957114 7.563629
vt 0.707679 0.152973
vt 0.707679 0.161992
vt 0.698660 0.152973
vt 0.698660 0.161992
vt 0.689642 0.152973
vt 0.689642 0.161992
vt 0.680624 0.152973
vt 0.680624 0.161992
vt 0.671605 0.152973
vt 0.671605 0.161992
vt 0.707679 0.171010
vt 0.698660 0.171010
vt 0.707679 0.143955
vt 0.698660 0.143955
vt 0.707679 0.152973
vt 0.707679 0.161992
vt 0.698660 0.161992
vt 0.698660 0.152973
vt 0.689642 0.152973
vt 0.689642 0.161992
vt 0.680624 0.161992
vt 0.680624 0.152973
vt 0.707679 0.171010
vt 0.698660 0.171010
vt 0.707679 0.143955
vt 0.698660 0.143955
vn 0.000000 0.000000 1.000000
vn 0.000000 0.000000 1.000000
vn 0.000000 0.000000 1.000000
vn 0.000000 0.000000 1.000000
vn 0.000000 1.000000 0.000000
vn 0.000000 1.000000 0.000000
vn 0.000000 1.000000 0.000000
vn 0.000000 1.000000 0.000000
vn 0.000000 0.000000 -1.000000
vn 0.000000 0.000000 -1.000000
vn 0.000000 0.000000 -1.000000
vn 0.000000 0.000000 -1.000000
vn 0.000000 -1.000000 0.000000
vn 0.000000 -1.000000 0.000000
vn 0.000000 -1.000000 0.000000
vn 0.000000 -1.000000 0.000000
vn 1.000000 0.000000 0.000000
vn 1.000000 0.000000 0.000000
vn 1.000000 0.000000 0.000000
vn 1.000000 0.000000 0.000000
vn -1.000000 0.000000 0.000000
vn -1.000000 0.000000 0.000000
vn -1.000000 0.000000 0.000000
vn -1.000000 0.000000 0.000000
vn 0.000000 0.000000 1.000000
vn 0.000000 0.000000 1.000000
vn 0.000000 0.000000 1.000000
vn 0.000000 0.000000 1.000000
vn 0.000000 0.000000 -1.000000
vn 0.000000 0.000000 -1.000000
vn 0.000000 0.000000 -1.000000
vn 0.000000 0.000000 -1.000000
vn 1.000000 0.000000 0.000000
vn 1.000000 0.000000 0.000000
vn 1.000000 0.000000 0.000000
vn 1.000000 0.000000 0.000000
vn -1.000000 0.000000 0.000000
vn -1.000000 0.000000 0.000000
vn -1.000000 0.000000 0.000000
vn -1.000000 0.000000 0.000000
f 1/1/1 2/2/2 4/4/3 3/3/4
f 3/3/5 4/4/6 6/6/7 5/5/8
f 5/5/9 6/6/10 8/8/11 7/7/12
f 7/7/13 8/8/14 2/10/15 1/9/16
f 2/2/17 8/11/18 6/12/19 4/4/20
f 7/13/21 1/1/22 3/3/23 5/14/24
f 9/15/25 10/16/26 12/17/27 11/18/28
f 13/19/29 14/20/30 16/21/31 15/22/32
f 10/16/33 16/23/34 14/24/35 12/17/36
f 15/25/37 9/15/38 11/18/39 13/26/40
