# This file uses centimeters as units for non-parametric coordinates.

v -9.172587 0.000000 9.172587
v 9.172587 0.000000 9.172587
v -9.172587 2.099957 9.172587
v 9.172587 2.099957 9.172587
v -9.172587 2.099957 -9.172587
v 9.172587 2.099957 -9.172587
v -9.172587 0.000000 -9.172587
v 9.172587 0.000000 -9.172587
v -6.483343 2.159497 6.483343
v 6.483343 2.159497 6.483343
v -4.444317 52.972355 4.444317
v 4.444317 52.972355 4.444317
v -4.444317 52.972355 -4.444317
v 4.444317 52.972355 -4.444317
v -6.483343 2.159497 -6.483343
v 6.483343 2.159497 -6.483343
v 4.552915 22.084213 4.552915
v -4.552915 22.084213 4.552915
v -4.552915 22.084213 -4.552915
v 4.552915 22.084213 -4.552915
v 6.934163 8.918696 6.934163
v -6.934163 8.918696 6.934163
v -6.934163 8.918696 -6.934163
v 6.934163 8.918696 -6.934163
v -5.710620 14.250550 5.710620
v -5.710620 14.250550 -5.710620
v 5.710620 14.250550 -5.710620
v 5.710620 14.250550 5.710620
v -5.684848 3.227297 5.684848
v -5.684848 3.227297 -5.684848
v 5.684848 3.227297 -5.684848
v 5.684848 3.227297 5.684848
v -6.523906 3.185216 6.523906
v -6.523906 3.185216 -6.523906
v 6.523906 3.185216 -6.523906
v 6.523906 3.185216 6.523906
v 4.566278 34.839287 4.566278
v -4.566278 34.839287 4.566278
v -4.566278 34.839287 -4.566278
v 4.566278 34.839287 -4.566278
v 5.292933 41.372692 5.292933
v -5.292933 41.372692 5.292933
v -5.292933 41.372692 -5.292933
v 5.292933 41.372692 -5.292933
v 6.832057 46.378235 6.832057
v -6.832057 46.378235 6.832057
v -6.832058 46.378235 -6.832058
v 6.832058 46.378235 -6.832058
v -1.561688 52.481579 1.561688
v 1.561688 52.481579 1.561688
v -1.561688 91.151672 1.561688
v 1.561688 91.151672 1.561688
v -1.561688 91.151672 -1.561688
v 1.561688 91.151672 -1.561688
v -1.561688 52.481579 -1.561688
v 1.561688 52.481579 -1.561688
v 3.655931 89.212860 -3.655931
v 0.000000 89.212860 -5.170306
v -3.655931 89.212860 -3.655931
v -5.170306 89.212860 0.000000
v -3.655931 89.212860 3.655931
v 0.000000 89.212860 5.170310
v 3.655931 89.212860 3.655931
v 5.170306 89.212860 0.000000
v 3.655931 91.421051 -3.655931
v 0.000000 91.421051 -5.170306
v -3.655931 91.421051 -3.655931
v -5.170306 91.421051 0.000000
v -3.655931 91.421051 3.655931
v 0.000000 91.421051 5.170310
v 3.655931 91.421051 3.655931
v 5.170306 91.421051 0.000000
v 0.000000 89.212860 0.000000
v 0.000000 91.421051 0.000000
v 1.561688 80.995529 1.561688
v -1.561688 80.995529 1.561688
v -1.561688 80.995529 -1.561688
v 1.561688 80.995529 -1.561688
vt 0.697632 0.174687
vt 0.658665 0.174687
vt 0.658665 0.135722
vt 0.697632 0.135722
vt 0.658665 0.174687
vt 0.697632 0.174687
vt 0.658665 0.135722
vt 0.697632 0.135722
vt 0.658665 0.174687
vt 0.697632 0.174687
vt 0.697632 0.174687
vt 0.697632 0.135722
vt 0.658665 0.174687
vt 0.658665 0.135722
vt 0.720217 0.177354
vt 0.720217 0.132740
vt 0.716888 0.132740
vt 0.716888 0.177354
vt 0.719403 0.177354
vt 0.719403 0.132740
vt 0.737886 0.132740
vt 0.737886 0.177354
vt 0.716889 0.132740
vt 0.716888 0.177354
vt 0.720217 0.177354
vt 0.720217 0.132740
vt 0.720217 0.132740
vt 0.716888 0.132740
vt 0.632491 0.177354
vt 0.632491 0.132740
vt 0.663667 0.132740
vt 0.663667 0.177354
vt 0.632491 0.132740
vt 0.663667 0.132740
vt 0.663667 0.132740
vt 0.663667 0.177354
vt 0.632491 0.177354
vt 0.632491 0.132740
vt 0.687888 0.177354
vt 0.687888 0.132740
vt 0.664193 0.132740
vt 0.664193 0.177354
vt 0.687888 0.132740
vt 0.664193 0.132740
vt 0.664193 0.132740
vt 0.664193 0.177354
vt 0.687888 0.177354
vt 0.687888 0.132740
vt 0.714067 0.132740
vt 0.714067 0.177354
vt 0.714067 0.177354
vt 0.714067 0.132740
vt 0.714067 0.132740
vt 0.683168 0.132740
vt 0.683168 0.177354
vt 0.683168 0.132740
vt 0.683168 0.132740
vt 0.683168 0.177354
vt 0.700304 0.132740
vt 0.700304 0.177354
vt 0.700305 0.132740
vt 0.700305 0.132740
vt 0.700305 0.177354
vt 0.719403 0.132740
vt 0.719403 0.132740
vt 0.719403 0.177354
vt 0.737488 0.178576
vt 0.737489 0.132989
vt 0.658877 0.132989
vt 0.658877 0.178576
vt 0.666344 0.132990
vt 0.666344 0.178576
vt 0.630877 0.178575
vt 0.630877 0.132989
vt 0.658877 0.132989
vt 0.658877 0.178576
vt 0.737489 0.178576
vt 0.737489 0.132989
vt 0.737489 0.178576
vt 0.658877 0.178576
vt 0.681401 0.174145
vt 0.681401 0.170015
vt 0.690649 0.170015
vt 0.690649 0.174145
vt 0.681401 0.165884
vt 0.690649 0.165884
vt 0.681401 0.161753
vt 0.690649 0.161753
vt 0.681401 0.157622
vt 0.690649 0.157623
vt 0.681401 0.153492
vt 0.690649 0.153492
vt 0.681401 0.149361
vt 0.690649 0.149361
vt 0.681401 0.145231
vt 0.690649 0.145231
vt 0.681401 0.141100
vt 0.690649 0.141100
vt 0.684291 0.170791
vt 0.671926 0.165669
vt 0.684291 0.154003
vt 0.696656 0.165669
vt 0.701778 0.153304
vt 0.696656 0.140939
vt 0.684291 0.135817
vt 0.671926 0.140939
vt 0.666804 0.153304
vt 0.670087 0.138876
vt 0.683425 0.133351
vt 0.683425 0.152968
vt 0.696763 0.138876
vt 0.702288 0.152214
vt 0.696763 0.165552
vt 0.683425 0.171077
vt 0.670087 0.165552
vt 0.664562 0.152214
vn 0.000000 0.000000 1.000000
vn 0.000000 0.000000 1.000000
vn 0.000000 0.000000 1.000000
vn 0.000000 0.000000 1.000000
vn 0.000000 1.000000 0.000000
vn 0.000000 1.000000 0.000000
vn 0.000000 1.000000 0.000000
vn 0.000000 1.000000 0.000000
vn 0.000000 0.000000 -1.000000
vn 0.000000 0.000000 -1.000000
vn 0.000000 0.000000 -1.000000
vn 0.000000 0.000000 -1.000000
vn 0.000000 -1.000000 0.000000
vn 0.000000 -1.000000 0.000000
vn 0.000000 -1.000000 0.000000
vn 0.000000 -1.000000 0.000000
vn 1.000000 0.000000 0.000000
vn 1.000000 0.000000 0.000000
vn 1.000000 0.000000 0.000000
vn 1.000000 0.000000 0.000000
vn -1.000000 0.000000 0.000000
vn -1.000000 0.000000 0.000000
vn -1.000000 0.000000 0.000000
vn -1.000000 0.000000 0.000000
vn 0.000000 -0.039515 0.999219
vn 0.000000 -0.039515 0.999219
vn 0.000000 0.328414 0.944534
vn 0.000000 0.328414 0.944534
vn 0.000000 1.000000 0.000000
vn 0.000000 1.000000 0.000000
vn 0.000000 1.000000 0.000000
vn 0.000000 1.000000 0.000000
vn 0.000000 0.328414 -0.944534
vn 0.000000 0.328414 -0.944534
vn 0.000000 -0.039515 -0.999219
vn 0.000000 -0.039515 -0.999219
vn 0.999219 -0.039515 0.000000
vn 0.999219 -0.039515 0.000000
vn 0.944534 0.328414 0.000000
vn 0.944534 0.328414 0.000000
vn -0.999219 -0.039515 0.000000
vn -0.999219 -0.039515 0.000000
vn -0.944534 0.328414 0.000000
vn -0.944534 0.328414 0.000000
vn 0.000000 0.062837 0.998024
vn 0.000000 0.062837 0.998024
vn 0.000000 -0.042023 0.999117
vn 0.000000 -0.042023 0.999117
vn -0.998024 0.062837 0.000000
vn -0.998024 0.062837 0.000000
vn -0.999117 -0.042023 0.000000
vn -0.999117 -0.042023 0.000000
vn 0.000000 -0.042023 -0.999117
vn 0.000000 -0.042023 -0.999117
vn 0.000000 0.062837 -0.998024
vn 0.000000 0.062837 -0.998024
vn 0.998024 0.062837 0.000000
vn 0.998024 0.062837 0.000000
vn 0.999117 -0.042023 0.000000
vn 0.999117 -0.042023 0.000000
vn 0.000000 0.223664 0.974666
vn 0.000000 0.223664 0.974666
vn 0.000000 0.186370 0.982480
vn 0.000000 0.186370 0.982480
vn -0.974666 0.223664 0.000000
vn -0.974666 0.223664 0.000000
vn -0.982480 0.186370 0.000000
vn -0.982480 0.186370 0.000000
vn 0.000000 0.186370 -0.982480
vn 0.000000 0.186370 -0.982480
vn 0.000000 0.223664 -0.974666
vn 0.000000 0.223664 -0.974666
vn 0.974666 0.223664 0.000000
vn 0.974666 0.223664 0.000000
vn 0.982480 0.186370 0.000000
vn 0.982480 0.186370 0.000000
vn -0.982480 0.186370 0.000000
vn -0.982480 0.186370 0.000000
vn -0.998024 0.062837 0.000000
vn -0.998024 0.062837 0.000000
vn 0.000000 0.062837 -0.998024
vn 0.000000 0.062837 -0.998024
vn 0.000000 0.186370 -0.982480
vn 0.000000 0.186370 -0.982480
vn 0.982480 0.186370 0.000000
vn 0.982480 0.186370 0.000000
vn 0.998024 0.062837 0.000000
vn 0.998024 0.062837 0.000000
vn 0.000000 0.186370 0.982480
vn 0.000000 0.186370 0.982480
vn 0.000000 0.062837 0.998024
vn 0.000000 0.062837 0.998024
vn -0.999530 -0.030664 0.000000
vn -0.999530 -0.030664 0.000000
vn -0.976745 -0.214405 0.000000
vn -0.976745 -0.214405 0.000000
vn 0.000000 -0.214405 -0.976745
vn 0.000000 -0.214405 -0.976745
vn 0.000000 -0.030664 -0.999530
vn 0.000000 -0.030664 -0.999530
vn 0.999530 -0.030664 0.000000
vn 0.999530 -0.030664 0.000000
vn 0.976745 -0.214405 0.000000
vn 0.976745 -0.214405 0.000000
vn 0.000000 -0.030664 0.999530
vn 0.000000 -0.030664 0.999530
vn 0.000000 -0.214405 0.976745
vn 0.000000 -0.214405 0.976745
vn -0.944534 0.328414 0.000000
vn -0.944534 0.328414 0.000000
vn -0.999530 -0.030664 0.000000
vn -0.999530 -0.030664 0.000000
vn 0.000000 -0.030664 -0.999530
vn 0.000000 -0.030664 -0.999530
vn 0.000000 0.328414 -0.944534
vn 0.000000 0.328414 -0.944534
vn 0.944534 0.328414 0.000000
vn 0.944534 0.328414 0.000000
vn 0.999530 -0.030664 0.000000
vn 0.999530 -0.030664 0.000000
vn 0.000000 0.328414 0.944534
vn 0.000000 0.328414 0.944534
vn 0.000000 -0.030664 0.999530
vn 0.000000 -0.030664 0.999530
vn 0.000000 -0.042023 0.999117
vn 0.000000 -0.042023 0.999117
vn 0.000000 -0.213163 0.977017
vn 0.000000 -0.213163 0.977017
vn -0.999117 -0.042023 0.000000
vn -0.999117 -0.042023 0.000000
vn -0.977017 -0.213163 0.000000
vn -0.977017 -0.213163 0.000000
vn 0.000000 -0.213163 -0.977017
vn 0.000000 -0.213163 -0.977017
vn 0.000000 -0.042023 -0.999117
vn 0.000000 -0.042023 -0.999117
vn 0.999117 -0.042023 0.000000
vn 0.999117 -0.042023 0.000000
vn 0.977017 -0.213163 0.000000
vn 0.977017 -0.213163 0.000000
vn 0.000000 -0.213163 0.977017
vn 0.000000 -0.213163 0.977017
vn 0.000000 -0.293904 0.955835
vn 0.000000 -0.293904 0.955835
vn -0.977017 -0.213163 0.000000
vn -0.977017 -0.213163 0.000000
vn -0.955835 -0.293904 0.000000
vn -0.955835 -0.293904 0.000000
vn 0.000000 -0.293904 -0.955835
vn 0.000000 -0.293904 -0.955835
vn 0.000000 -0.213163 -0.977017
vn 0.000000 -0.213163 -0.977017
vn 0.977017 -0.213163 0.000000
vn 0.977017 -0.213163 0.000000
vn 0.955835 -0.293904 0.000000
vn 0.955835 -0.293904 0.000000
vn 0.000000 0.340468 0.940256
vn 0.000000 0.340468 0.940256
vn 0.000000 0.340468 0.940256
vn 0.000000 0.340468 0.940256
vn -0.940256 0.340468 0.000000
vn -0.940256 0.340468 0.000000
vn -0.940256 0.340468 0.000000
vn -0.940256 0.340468 0.000000
vn 0.000000 0.340468 -0.940256
vn 0.000000 0.340468 -0.940256
vn 0.000000 0.340468 -0.940256
vn 0.000000 0.340468 -0.940256
vn 0.940256 0.340468 0.000000
vn 0.940256 0.340468 0.000000
vn 0.940256 0.340468 0.000000
vn 0.940256 0.340468 0.000000
vn 0.000000 0.000000 1.000000
vn 0.000000 0.000000 1.000000
vn 0.000000 0.000000 1.000000
vn 0.000000 0.000000 1.000000
vn 0.000000 1.000000 0.000000
vn 0.000000 1.000000 0.000000
vn 0.000000 1.000000 0.000000
vn 0.000000 1.000000 0.000000
vn 0.000000 0.000000 -1.000000
vn 0.000000 0.000000 -1.000000
vn 0.000000 0.000000 -1.000000
vn 0.000000 0.000000 -1.000000
vn 1.000000 0.000000 0.000000
vn 1.000000 0.000000 0.000000
vn 1.000000 0.000000 0.000000
vn 1.000000 0.000000 0.000000
vn -1.000000 0.000000 0.000000
vn -1.000000 0.000000 0.000000
vn -1.000000 0.000000 0.000000
vn -1.000000 0.000000 0.000000
vn 0.531353 -0.659795 -0.531352
vn 0.000000 -0.659792 -0.751449
vn 0.000000 0.659792 -0.751449
vn 0.531352 0.659794 -0.531353
vn 0.000000 -0.659792 -0.751449
vn -0.531353 -0.659795 -0.531353
vn -0.531352 0.659794 -0.531353
vn 0.000000 0.659792 -0.751449
vn -0.531353 -0.659795 -0.531353
vn -0.751449 -0.659792 -0.000001
vn -0.751449 0.659792 0.000000
vn -0.531352 0.659794 -0.531353
vn -0.751449 -0.659792 -0.000001
vn -0.531353 -0.659795 0.531351
vn -0.531352 0.659794 0.531353
vn -0.751449 0.659792 0.000000
vn -0.531353 -0.659795 0.531351
vn 0.000000 -0.659792 0.751449
vn 0.000000 0.659792 0.751449
vn -0.531352 0.659794 0.531353
vn 0.000000 -0.659792 0.751449
vn 0.531353 -0.659795 0.531352
vn 0.531352 0.659794 0.531353
vn 0.000000 0.659792 0.751449
vn 0.531353 -0.659795 0.531352
vn 0.751449 -0.659792 0.000001
vn 0.751449 0.659792 0.000000
vn 0.531352 0.659794 0.531353
vn 0.751449 -0.659792 0.000001
vn 0.531353 -0.659795 -0.531352
vn 0.531352 0.659794 -0.531353
vn 0.751449 0.659792 0.000000
vn 0.000000 -0.659792 -0.751449
vn 0.531353 -0.659795 -0.531352
vn 0.000000 -1.000000 0.000000
vn -0.531353 -0.659795 -0.531353
vn 0.000000 -0.659792 -0.751449
vn 0.000000 -1.000000 0.000000
vn -0.751449 -0.659792 -0.000001
vn -0.531353 -0.659795 -0.531353
vn 0.000000 -1.000000 0.000000
vn -0.531353 -0.659795 0.531351
vn -0.751449 -0.659792 -0.000001
vn 0.000000 -1.000000 0.000000
vn 0.000000 -0.659792 0.751449
vn -0.531353 -0.659795 0.531351
vn 0.000000 -1.000000 0.000000
vn 0.531353 -0.659795 0.531352
vn 0.000000 -0.659792 0.751449
vn 0.000000 -1.000000 0.000000
vn 0.751449 -0.659792 0.000001
vn 0.531353 -0.659795 0.531352
vn 0.000000 -1.000000 0.000000
vn 0.531353 -0.659795 -0.531352
vn 0.751449 -0.659792 0.000001
vn 0.000000 -1.000000 0.000000
vn 0.531352 0.659794 -0.531353
vn 0.000000 0.659792 -0.751449
vn 0.000000 1.000000 0.000000
vn 0.000000 0.659792 -0.751449
vn -0.531352 0.659794 -0.531353
vn 0.000000 1.000000 0.000000
vn -0.531352 0.659794 -0.531353
vn -0.751449 0.659792 0.000000
vn 0.000000 1.000000 0.000000
vn -0.751449 0.659792 0.000000
vn -0.531352 0.659794 0.531353
vn 0.000000 1.000000 0.000000
vn -0.531352 0.659794 0.531353
vn 0.000000 0.659792 0.751449
vn 0.000000 1.000000 0.000000
vn 0.000000 0.659792 0.751449
vn 0.531352 0.659794 0.531353
vn 0.000000 1.000000 0.000000
vn 0.531352 0.659794 0.531353
vn 0.751449 0.659792 0.000000
vn 0.000000 1.000000 0.000000
vn 0.751449 0.659792 0.000000
vn 0.531352 0.659794 -0.531353
vn 0.000000 1.000000 0.000000
vn 0.000000 1.000000 0.000000
vn 0.000000 1.000000 0.000000
vn 0.000000 1.000000 0.000000
vn 0.000000 1.000000 0.000000
f 1/1/1 2/2/2 4/3/3 3/4/4
f 3/4/5 4/3/6 6/5/7 5/6/8
f 5/6/9 6/5/10 8/7/11 7/8/12
f 7/8/13 8/7/14 2/9/15 1/10/16
f 2/2/17 8/11/18 6/12/19 4/3/20
f 7/13/21 1/1/22 3/4/23 5/14/24
f 9/15/25 10/16/26 36/17/27 33/18/28
f 11/19/29 12/20/30 14/21/31 13/22/32
f 34/23/33 35/24/34 16/25/35 15/26/36
f 10/16/37 16/25/38 35/24/39 36/17/40
f 15/27/41 9/15/42 33/18/43 34/28/44
f 18/29/45 17/30/46 37/31/47 38/32/48
f 19/33/49 18/29/50 38/32/51 39/34/52
f 39/35/53 40/36/54 20/37/55 19/38/56
f 17/30/57 20/37/58 40/36/59 37/31/60
f 22/39/61 21/40/62 28/41/63 25/42/64
f 23/43/65 22/39/66 25/42/67 26/44/68
f 26/45/69 27/46/70 24/47/71 23/48/72
f 21/40/73 24/47/74 27/46/75 28/41/76
f 26/44/77 25/42/78 18/29/79 19/33/80
f 19/38/81 20/37/82 27/46/83 26/45/84
f 28/41/85 27/46/86 20/37/87 17/30/88
f 25/42/89 28/41/90 17/30/91 18/29/92
f 30/49/93 29/50/94 22/39/95 23/43/96
f 23/48/97 24/47/98 31/51/99 30/52/100
f 32/53/101 31/51/102 24/47/103 21/40/104
f 29/50/105 32/53/106 21/40/107 22/39/108
f 34/28/109 33/18/110 29/50/111 30/49/112
f 30/52/113 31/51/114 35/24/115 34/23/116
f 36/17/117 35/24/118 31/51/119 32/53/120
f 33/18/121 36/17/122 32/53/123 29/50/124
f 38/32/125 37/31/126 41/54/127 42/55/128
f 39/34/129 38/32/130 42/55/131 43/56/132
f 43/57/133 44/58/134 40/36/135 39/35/136
f 37/31/137 40/36/138 44/58/139 41/54/140
f 42/55/141 41/54/142 45/59/143 46/60/144
f 43/56/145 42/55/146 46/60/147 47/61/148
f 47/62/149 48/63/150 44/58/151 43/57/152
f 41/54/153 44/58/154 48/63/155 45/59/156
f 46/60/157 45/59/158 12/20/159 11/19/160
f 47/61/161 46/60/162 11/19/163 13/64/164
f 13/65/165 14/66/166 48/63/167 47/62/168
f 45/59/169 48/63/170 14/66/171 12/20/172
f 49/67/173 50/68/174 75/69/175 76/70/176
f 51/71/177 52/72/178 54/73/179 53/74/180
f 77/75/181 78/76/182 56/77/183 55/78/184
f 50/68/185 56/77/186 78/76/187 75/69/188
f 55/78/189 49/79/190 76/80/191 77/75/192
f 57/81/193 58/82/194 66/83/195 65/84/196
f 58/82/197 59/85/198 67/86/199 66/83/200
f 59/85/201 60/87/202 68/88/203 67/86/204
f 60/87/205 61/89/206 69/90/207 68/88/208
f 61/89/209 62/91/210 70/92/211 69/90/212
f 62/91/213 63/93/214 71/94/215 70/92/216
f 63/93/217 64/95/218 72/96/219 71/94/220
f 64/95/221 57/97/222 65/98/223 72/96/224
f 58/99/225 57/100/226 73/101/227
f 59/102/228 58/99/229 73/101/230
f 60/103/231 59/102/232 73/101/233
f 61/104/234 60/103/235 73/101/236
f 62/105/237 61/104/238 73/101/239
f 63/106/240 62/105/241 73/101/242
f 64/107/243 63/106/244 73/101/245
f 57/100/246 64/107/247 73/101/248
f 65/108/249 66/109/250 74/110/251
f 66/109/252 67/111/253 74/110/254
f 67/111/255 68/112/256 74/110/257
f 68/112/258 69/113/259 74/110/260
f 69/113/261 70/114/262 74/110/263
f 70/114/264 71/115/265 74/110/266
f 71/115/267 72/116/268 74/110/269
f 72/116/270 65/108/271 74/110/272
f 78/76/273 77/75/274 76/70/275 75/69/276
