# This file uses centimeters as units for non-parametric coordinates.

v 11.011736 0.000000 -4.561203
v 8.428020 0.000000 -8.428010
v 4.561215 0.000000 -11.011730
v 0.000006 0.000000 -11.919014
v -4.561203 0.000000 -11.011734
v -8.428012 0.000000 -8.428019
v -11.011732 0.000000 -4.561214
v -11.919014 0.000000 -0.000004
v -11.011734 0.000000 4.561206
v -8.428019 0.000000 8.428013
v -4.561212 0.000000 11.011733
v -0.000002 0.000000 11.919014
v 4.561208 0.000000 11.011734
v 8.428015 0.000000 8.428017
v 11.011733 0.000000 4.561209
v 11.919014 0.000000 0.000000
v 11.011736 5.803944 -4.561203
v 8.428020 5.803944 -8.428010
v 4.561215 5.803944 -11.011730
v 0.000006 5.803944 -11.919014
v -4.561203 5.803944 -11.011734
v -8.428012 5.803944 -8.428019
v -11.011732 5.803944 -4.561214
v -11.919014 5.803944 -0.000004
v -11.011734 5.803944 4.561206
v -8.428019 5.803944 8.428013
v -4.561212 5.803944 11.011733
v -0.000002 5.803944 11.919014
v 4.561208 5.803944 11.011734
v 8.428015 5.803944 8.428017
v 11.011733 5.803944 4.561209
v 11.919014 5.803944 0.000000
v 0.000000 0.000000 0.000000
v 0.000000 5.803944 0.000000
v 1.554533 2.079880 -1.554533
v 0.000000 2.079880 -2.198442
v -1.554533 2.079880 -1.554533
v -2.198442 2.079880 0.000000
v -1.554533 2.079880 1.554533
v 0.000000 2.079880 2.198442
v 1.554533 2.079880 1.554533
v 2.198442 2.079880 0.000000
v 1.554533 56.103203 -1.554533
v 0.000000 56.103203 -2.198442
v -1.554533 56.103203 -1.554533
v -2.198442 56.103203 0.000000
v -1.554533 56.103203 1.554533
v 0.000000 56.103203 2.198442
v 1.554533 56.103203 1.554533
v 2.198442 56.103203 0.000000
v 0.000000 56.103203 0.000000
vt 0.614632 0.180633
vt 0.608053 0.180633
vt 0.608053 0.130089
vt 0.614632 0.130089
vt 0.601475 0.180633
vt 0.601475 0.130089
vt 0.594896 0.180633
vt 0.594896 0.130089
vt 0.588317 0.180633
vt 0.588317 0.130089
vt 0.581739 0.180633
vt 0.581739 0.130089
vt 0.575160 0.180633
vt 0.575161 0.130089
vt 0.568582 0.180633
vt 0.568582 0.130089
vt 0.562003 0.180633
vt 0.562003 0.130089
vt 0.555425 0.180633
vt 0.555425 0.130089
vt 0.548846 0.180633
vt 0.548846 0.130089
vt 0.542268 0.180633
vt 0.542268 0.130089
vt 0.535689 0.180633
vt 0.535689 0.130089
vt 0.529111 0.180633
vt 0.529111 0.130089
vt 0.522532 0.180633
vt 0.522532 0.130089
vt 0.515954 0.180633
vt 0.515954 0.130089
vt 0.509375 0.180633
vt 0.509375 0.130089
vt 0.578987 0.141575
vt 0.582635 0.147034
vt 0.567087 0.152801
vt 0.573527 0.137927
vt 0.567087 0.136646
vt 0.560648 0.137927
vt 0.555188 0.141574
vt 0.551540 0.147034
vt 0.550259 0.153474
vt 0.551540 0.159914
vt 0.555188 0.165373
vt 0.560648 0.169021
vt 0.567087 0.170302
vt 0.573527 0.169021
vt 0.578987 0.165373
vt 0.582635 0.159914
vt 0.583916 0.153474
vt 0.581878 0.161660
vt 0.577701 0.167913
vt 0.564072 0.153513
vt 0.571448 0.172091
vt 0.564072 0.173558
vt 0.556696 0.172091
vt 0.550444 0.167913
vt 0.546266 0.161660
vt 0.544798 0.154284
vt 0.546266 0.146908
vt 0.550444 0.140656
vt 0.556696 0.136478
vt 0.564072 0.135011
vt 0.571448 0.136478
vt 0.577701 0.140656
vt 0.581878 0.146908
vt 0.583346 0.154284
vt 0.607688 0.141054
vt 0.607688 0.146473
vt 0.512854 0.146473
vt 0.512854 0.141054
vt 0.607688 0.151891
vt 0.512854 0.151891
vt 0.607688 0.157310
vt 0.512854 0.157310
vt 0.607688 0.162728
vt 0.512854 0.162728
vt 0.607688 0.157322
vt 0.512854 0.157322
vt 0.607688 0.151915
vt 0.512854 0.151915
vt 0.607688 0.146509
vt 0.512854 0.146509
vt 0.607688 0.141102
vt 0.512854 0.141102
vt 0.577701 0.167913
vt 0.564072 0.173558
vt 0.564072 0.153513
vt 0.550444 0.167913
vt 0.544798 0.154284
vt 0.550444 0.140656
vt 0.564072 0.135011
vt 0.577701 0.140656
vt 0.583346 0.154284
vn 0.923880 0.000000 -0.382683
vn 0.707107 0.000000 -0.707106
vn 0.707107 0.000000 -0.707106
vn 0.923880 0.000000 -0.382683
vn 0.707107 0.000000 -0.707106
vn 0.382684 0.000000 -0.923879
vn 0.382684 0.000000 -0.923879
vn 0.707107 0.000000 -0.707106
vn 0.382684 0.000000 -0.923879
vn 0.000000 0.000000 -1.000000
vn 0.000000 0.000000 -1.000000
vn 0.382684 0.000000 -0.923879
vn 0.000000 0.000000 -1.000000
vn -0.382683 0.000000 -0.923880
vn -0.382683 0.000000 -0.923880
vn 0.000000 0.000000 -1.000000
vn -0.382683 0.000000 -0.923880
vn -0.707106 0.000000 -0.707107
vn -0.707106 0.000000 -0.707107
vn -0.382683 0.000000 -0.923880
vn -0.707106 0.000000 -0.707107
vn -0.923879 0.000000 -0.382684
vn -0.923879 0.000000 -0.382684
vn -0.707106 0.000000 -0.707107
vn -0.923879 0.000000 -0.382684
vn -1.000000 0.000000 -0.000000
vn -1.000000 0.000000 -0.000000
vn -0.923879 0.000000 -0.382684
vn -1.000000 0.000000 -0.000000
vn -0.923880 0.000000 0.382683
vn -0.923880 0.000000 0.382683
vn -1.000000 0.000000 -0.000000
vn -0.923880 0.000000 0.382683
vn -0.707107 0.000000 0.707107
vn -0.707107 0.000000 0.707107
vn -0.923880 0.000000 0.382683
vn -0.707107 0.000000 0.707107
vn -0.382684 0.000000 0.923879
vn -0.382684 0.000000 0.923879
vn -0.707107 0.000000 0.707107
vn -0.382684 0.000000 0.923879
vn 0.000000 0.000000 1.000000
vn 0.000000 0.000000 1.000000
vn -0.382684 0.000000 0.923879
vn 0.000000 0.000000 1.000000
vn 0.382683 0.000000 0.923880
vn 0.382683 0.000000 0.923880
vn 0.000000 0.000000 1.000000
vn 0.382683 0.000000 0.923880
vn 0.707107 0.000000 0.707107
vn 0.707107 0.000000 0.707107
vn 0.382683 0.000000 0.923880
vn 0.707107 0.000000 0.707107
vn 0.923880 0.000000 0.382683
vn 0.923880 0.000000 0.382683
vn 0.707107 0.000000 0.707107
vn 0.923880 0.000000 0.382683
vn 1.000000 0.000000 0.000000
vn 1.000000 0.000000 0.000000
vn 0.923880 0.000000 0.382683
vn 1.000000 0.000000 0.000000
vn 0.923880 0.000000 -0.382683
vn 0.923880 0.000000 -0.382683
vn 1.000000 0.000000 0.000000
vn 0.000000 -1.000000 0.000000
vn 0.000000 -1.000000 0.000000
vn 0.000000 -1.000000 0.000000
vn 0.000000 -1.000000 0.000000
vn 0.000000 -1.000000 0.000000
vn 0.000000 -1.000000 0.000000
vn 0.000000 -1.000000 0.000000
vn 0.000000 -1.000000 0.000000
vn 0.000000 -1.000000 0.000000
vn 0.000000 -1.000000 0.000000
vn 0.000000 -1.000000 0.000000
vn 0.000000 -1.000000 0.000000
vn 0.000000 -1.000000 0.000000
vn 0.000000 -1.000000 0.000000
vn 0.000000 -1.000000 0.000000
vn 0.000000 -1.000000 0.000000
vn 0.000000 -1.000000 0.000000
vn 0.000000 -1.000000 0.000000
vn 0.000000 -1.000000 0.000000
vn 0.000000 -1.000000 0.000000
vn 0.000000 -1.000000 0.000000
vn 0.000000 -1.000000 0.000000
vn 0.000000 -1.000000 0.000000
vn 0.000000 -1.000000 0.000000
vn 0.000000 -1.000000 0.000000
vn 0.000000 -1.000000 0.000000
vn 0.000000 -1.000000 0.000000
vn 0.000000 -1.000000 0.000000
vn 0.000000 -1.000000 0.000000
vn 0.000000 -1.000000 0.000000
vn 0.000000 -1.000000 0.000000
vn 0.000000 -1.000000 0.000000
vn 0.000000 -1.000000 0.000000
vn 0.000000 -1.000000 0.000000
vn 0.000000 -1.000000 0.000000
vn 0.000000 -1.000000 0.000000
vn 0.000000 -1.000000 0.000000
vn 0.000000 -1.000000 0.000000
vn 0.000000 -1.000000 0.000000
vn 0.000000 -1.000000 0.000000
vn 0.000000 -1.000000 0.000000
vn 0.000000 -1.000000 0.000000
vn 0.000000 -1.000000 0.000000
vn 0.000000 -1.000000 0.000000
vn 0.000000 -1.000000 0.000000
vn 0.000000 -1.000000 0.000000
vn 0.000000 -1.000000 0.000000
vn 0.000000 -1.000000 0.000000
vn 0.000000 1.000000 0.000000
vn 0.000000 1.000000 0.000000
vn 0.000000 1.000000 0.000000
vn 0.000000 1.000000 0.000000
vn 0.000000 1.000000 0.000000
vn 0.000000 1.000000 0.000000
vn 0.000000 1.000000 0.000000
vn 0.000000 1.000000 0.000000
vn 0.000000 1.000000 0.000000
vn 0.000000 1.000000 0.000000
vn 0.000000 1.000000 0.000000
vn 0.000000 1.000000 0.000000
vn 0.000000 1.000000 0.000000
vn 0.000000 1.000000 0.000000
vn 0.000000 1.000000 0.000000
vn 0.000000 1.000000 0.000000
vn 0.000000 1.000000 0.000000
vn 0.000000 1.000000 0.000000
vn 0.000000 1.000000 0.000000
vn 0.000000 1.000000 0.000000
vn 0.000000 1.000000 0.000000
vn 0.000000 1.000000 0.000000
vn 0.000000 1.000000 0.000000
vn 0.000000 1.000000 0.000000
vn 0.000000 1.000000 0.000000
vn 0.000000 1.000000 0.000000
vn 0.000000 1.000000 0.000000
vn 0.000000 1.000000 0.000000
vn 0.000000 1.000000 0.000000
vn 0.000000 1.000000 0.000000
vn 0.000000 1.000000 0.000000
vn 0.000000 1.000000 0.000000
vn 0.000000 1.000000 0.000000
vn 0.000000 1.000000 0.000000
vn 0.000000 1.000000 0.000000
vn 0.000000 1.000000 0.000000
vn 0.000000 1.000000 0.000000
vn 0.000000 1.000000 0.000000
vn 0.000000 1.000000 0.000000
vn 0.000000 1.000000 0.000000
vn 0.000000 1.000000 0.000000
vn 0.000000 1.000000 0.000000
vn 0.000000 1.000000 0.000000
vn 0.000000 1.000000 0.000000
vn 0.000000 1.000000 0.000000
vn 0.000000 1.000000 0.000000
vn 0.000000 1.000000 0.000000
vn 0.000000 1.000000 0.000000
vn 0.707107 0.000000 -0.707107
vn 0.000000 0.000000 -1.000000
vn 0.000000 0.000000 -1.000000
vn 0.707107 0.000000 -0.707107
vn 0.000000 0.000000 -1.000000
vn -0.707107 0.000000 -0.707107
vn -0.707107 0.000000 -0.707107
vn 0.000000 0.000000 -1.000000
vn -0.707107 0.000000 -0.707107
vn -1.000000 0.000000 0.000000
vn -1.000000 0.000000 0.000000
vn -0.707107 0.000000 -0.707107
vn -1.000000 0.000000 0.000000
vn -0.707107 0.000000 0.707107
vn -0.707107 0.000000 0.707107
vn -1.000000 0.000000 0.000000
vn -0.707107 0.000000 0.707107
vn 0.000000 0.000000 1.000000
vn 0.000000 0.000000 1.000000
vn -0.707107 0.000000 0.707107
vn 0.000000 0.000000 1.000000
vn 0.707107 0.000000 0.707107
vn 0.707107 0.000000 0.707107
vn 0.000000 0.000000 1.000000
vn 0.707107 0.000000 0.707107
vn 1.000000 0.000000 0.000000
vn 1.000000 0.000000 0.000000
vn 0.707107 0.000000 0.707107
vn 1.000000 0.000000 0.000000
vn 0.707107 0.000000 -0.707107
vn 0.707107 0.000000 -0.707107
vn 1.000000 0.000000 0.000000
vn 0.000000 1.000000 -0.000002
vn 0.000000 1.000000 0.000000
vn 0.000000 1.000000 -0.000001
vn 0.000000 1.000000 0.000000
vn 0.000000 1.000000 0.000000
vn 0.000000 1.000000 -0.000001
vn 0.000000 1.000000 0.000000
vn 0.000000 1.000000 0.000000
vn 0.000000 1.000000 -0.000001
vn 0.000000 1.000000 0.000000
vn 0.000000 1.000000 0.000000
vn 0.000000 1.000000 -0.000001
vn 0.000000 1.000000 0.000000
vn 0.000000 1.000000 0.000000
vn 0.000000 1.000000 -0.000001
vn 0.000000 1.000000 0.000000
vn 0.000000 1.000000 0.000000
vn 0.000000 1.000000 -0.000001
vn 0.000000 1.000000 0.000000
vn 0.000000 1.000000 -0.000002
vn 0.000000 1.000000 -0.000001
vn 0.000000 1.000000 -0.000002
vn 0.000000 1.000000 -0.000002
vn 0.000000 1.000000 -0.000001
f 1/1/1 2/2/2 18/3/3 17/4/4
f 2/2/5 3/5/6 19/6/7 18/3/8
f 3/5/9 4/7/10 20/8/11 19/6/12
f 4/7/13 5/9/14 21/10/15 20/8/16
f 5/9/17 6/11/18 22/12/19 21/10/20
f 6/11/21 7/13/22 23/14/23 22/12/24
f 7/13/25 8/15/26 24/16/27 23/14/28
f 8/15/29 9/17/30 25/18/31 24/16/32
f 9/17/33 10/19/34 26/20/35 25/18/36
f 10/19/37 11/21/38 27/22/39 26/20/40
f 11/21/41 12/23/42 28/24/43 27/22/44
f 12/23/45 13/25/46 29/26/47 28/24/48
f 13/25/49 14/27/50 30/28/51 29/26/52
f 14/27/53 15/29/54 31/30/55 30/28/56
f 15/29/57 16/31/58 32/32/59 31/30/60
f 16/31/61 1/33/62 17/34/63 32/32/64
f 2/35/65 1/36/66 33/37/67
f 3/38/68 2/35/69 33/37/70
f 4/39/71 3/38/72 33/37/73
f 5/40/74 4/39/75 33/37/76
f 6/41/77 5/40/78 33/37/79
f 7/42/80 6/41/81 33/37/82
f 8/43/83 7/42/84 33/37/85
f 9/44/86 8/43/87 33/37/88
f 10/45/89 9/44/90 33/37/91
f 11/46/92 10/45/93 33/37/94
f 12/47/95 11/46/96 33/37/97
f 13/48/98 12/47/99 33/37/100
f 14/49/101 13/48/102 33/37/103
f 15/50/104 14/49/105 33/37/106
f 16/51/107 15/50/108 33/37/109
f 1/36/110 16/51/111 33/37/112
f 17/52/113 18/53/114 34/54/115
f 18/53/116 19/55/117 34/54/118
f 19/55/119 20/56/120 34/54/121
f 20/56/122 21/57/123 34/54/124
f 21/57/125 22/58/126 34/54/127
f 22/58/128 23/59/129 34/54/130
f 23/59/131 24/60/132 34/54/133
f 24/60/134 25/61/135 34/54/136
f 25/61/137 26/62/138 34/54/139
f 26/62/140 27/63/141 34/54/142
f 27/63/143 28/64/144 34/54/145
f 28/64/146 29/65/147 34/54/148
f 29/65/149 30/66/150 34/54/151
f 30/66/152 31/67/153 34/54/154
f 31/67/155 32/68/156 34/54/157
f 32/68/158 17/52/159 34/54/160
f 35/69/161 36/70/162 44/71/163 43/72/164
f 36/70/165 37/73/166 45/74/167 44/71/168
f 37/73/169 38/75/170 46/76/171 45/74/172
f 38/75/173 39/77/174 47/78/175 46/76/176
f 39/77/177 40/79/178 48/80/179 47/78/180
f 40/79/181 41/81/182 49/82/183 48/80/184
f 41/81/185 42/83/186 50/84/187 49/82/188
f 42/83/189 35/85/190 43/86/191 50/84/192
f 43/87/193 44/88/194 51/89/195
f 44/88/196 45/90/197 51/89/198
f 45/90/199 46/91/200 51/89/201
f 46/91/202 47/92/203 51/89/204
f 47/92/205 48/93/206 51/89/207
f 48/93/208 49/94/209 51/89/210
f 49/94/211 50/95/212 51/89/213
f 50/95/214 43/87/215 51/89/216
