# This file uses centimeters as units for non-parametric coordinates.

v -18.562387 2.091072 11.585907
v 18.562387 2.091072 11.585907
v -18.562387 4.843269 11.585907
v 18.562387 4.843269 11.585907
v -18.562387 4.843269 -11.585907
v 18.562387 4.843269 -11.585907
v -18.562387 2.091072 -11.585907
v 18.562387 2.091072 -11.585907
v 9.937724 3.817440 1.839424
v 6.258875 3.817440 1.839424
v 9.937724 49.038925 1.839424
v 9.937724 49.038925 -1.839424
v 9.937724 3.817440 -1.839424
v 6.258875 3.817440 -1.839424
v 6.258875 45.319031 1.839424
v 6.258875 45.319031 -1.839424
v -9.937724 3.817440 1.839424
v -6.258876 3.817440 1.839424
v -9.937724 49.038925 1.839424
v -9.937724 49.038925 -1.839424
v -9.937724 3.817440 -1.839424
v -6.258876 3.817440 -1.839424
v -6.258876 45.319031 1.839424
v -6.258876 45.319031 -1.839424
v -1.959336 49.038925 1.839424
v 1.959336 49.038925 1.839424
v 1.959336 45.319031 1.839424
v -1.959336 45.319031 1.839424
v 1.959336 45.319031 -1.839424
v -1.959336 45.319031 -1.839424
v 1.959336 49.038925 -1.839424
v -1.959336 49.038925 -1.839424
v -1.959336 86.074539 1.839424
v -1.959336 86.074539 -1.839424
v 1.959336 86.074539 -1.839424
v 1.959336 86.074539 1.839424
v -2.610739 86.074539 2.490827
v -2.610739 86.074539 -2.490827
v -2.610739 91.473053 2.490827
v -2.610739 91.473053 -2.490827
v 2.610739 86.074539 -2.490827
v 2.610739 91.473053 -2.490827
v 2.610739 86.074539 2.490827
v 2.610739 91.473053 2.490827
v 15.626609 0.000000 8.379871
v 12.678760 0.000000 8.379871
v 15.626609 2.656096 8.379871
v 12.678760 2.656096 8.379871
v 15.626609 2.656096 5.432018
v 12.678760 2.656096 5.432018
v 15.626609 0.000000 5.432018
v 12.678760 0.000000 5.432018
v -15.626617 0.000000 8.379875
v -12.678754 0.000000 8.379875
v -15.626617 2.656096 8.379875
v -12.678754 2.656096 8.379875
v -15.626617 2.656096 5.432012
v -12.678754 2.656096 5.432012
v -15.626617 0.000000 5.432012
v -12.678754 0.000000 5.432012
v -15.626614 0.000000 -8.379875
v -12.678760 0.000000 -8.379875
v -15.626614 2.656096 -8.379875
v -12.678760 2.656096 -8.379875
v -15.626614 2.656096 -5.432014
v -12.678760 2.656096 -5.432014
v -15.626614 0.000000 -5.432014
v -12.678760 0.000000 -5.432014
v 15.626609 0.000000 -8.379875
v 12.678760 0.000000 -8.379875
v 15.626609 2.656096 -8.379875
v 12.678760 2.656096 -8.379875
v 15.626609 2.656096 -5.432018
v 12.678760 2.656096 -5.432018
v 15.626609 0.000000 -5.432018
v 12.678760 0.000000 -5.432018
v 9.937724 26.104660 1.839424
v 6.258875 26.091766 1.839424
v 6.258875 26.091766 -1.839424
v 9.937724 26.104660 -1.839424
v -9.937724 26.104660 1.839424
v -9.937724 26.104660 -1.839424
v -6.258876 26.091766 -1.839424
v -6.258876 26.091766 1.839424
v 1.959336 71.343750 1.839424
v -1.959336 71.343750 1.839424
v -1.959336 71.343750 -1.839424
v 1.959336 71.343750 -1.839424
vt 0.524704 0.132100
vt 0.603604 0.132100
vt 0.603604 0.137383
vt 0.524704 0.137383
vt 0.603605 0.181869
vt 0.524704 0.181869
vt 0.603604 0.176597
vt 0.524704 0.176597
vt 0.603604 0.132211
vt 0.524704 0.132211
vt 0.609453 0.137383
vt 0.609454 0.181869
vt 0.518855 0.181869
vt 0.518854 0.137383
vt 0.615737 0.169156
vt 0.507237 0.169272
vt 0.507253 0.164390
vt 0.615737 0.164492
vt 0.507235 0.143904
vt 0.615761 0.143904
vt 0.615761 0.148567
vt 0.507255 0.148567
vt 0.507263 0.160888
vt 0.615737 0.159828
vt 0.615737 0.173820
vt 0.507229 0.173180
vt 0.615737 0.143959
vt 0.616275 0.148591
vt 0.507258 0.148195
vt 0.507237 0.143843
vt 0.507235 0.169101
vt 0.507255 0.164437
vt 0.615761 0.164437
vt 0.615761 0.169101
vt 0.616775 0.153222
vt 0.507270 0.151518
vt 0.615737 0.139295
vt 0.507229 0.139935
vt 0.556610 0.179328
vt 0.541201 0.179330
vt 0.541199 0.164628
vt 0.556608 0.164627
vt 0.612978 0.159374
vt 0.612978 0.153742
vt 0.607857 0.153772
vt 0.607950 0.158738
vt 0.603687 0.153658
vt 0.603873 0.158622
vt 0.607645 0.154018
vt 0.607645 0.158986
vt 0.612057 0.158986
vt 0.612056 0.154018
vt 0.612057 0.143904
vt 0.607645 0.148567
vt 0.605873 0.161948
vt 0.607924 0.164288
vt 0.611494 0.169388
vt 0.613280 0.172541
vt 0.615516 0.162577
vt 0.611494 0.143728
vt 0.607388 0.147800
vt 0.605086 0.149814
vt 0.607646 0.164437
vt 0.612057 0.169101
vt 0.615516 0.150538
vt 0.613280 0.140574
vt 0.585858 0.159054
vt 0.585858 0.154061
vt 0.587359 0.163018
vt 0.585000 0.158986
vt 0.585000 0.154018
vt 0.587359 0.150097
vt 0.526498 0.148696
vt 0.541199 0.148697
vt 0.526498 0.164628
vt 0.571309 0.148697
vt 0.586718 0.148697
vt 0.586718 0.164628
vt 0.571309 0.164628
vt 0.556608 0.148696
vt 0.543120 0.135918
vt 0.543121 0.146775
vt 0.541198 0.133996
vt 0.554684 0.135917
vt 0.556607 0.133995
vt 0.554685 0.146774
vt 0.558225 0.155098
vt 0.558224 0.142566
vt 0.572135 0.142566
vt 0.572134 0.155100
vt 0.544315 0.142568
vt 0.544316 0.155101
vt 0.530406 0.155101
vt 0.530405 0.142569
vt 0.558220 0.169006
vt 0.572129 0.169011
vt 0.586044 0.142567
vt 0.586043 0.155100
vt 0.558225 0.155099
vt 0.544315 0.155099
vt 0.544315 0.142566
vt 0.558225 0.142566
vt 0.572135 0.142566
vt 0.586044 0.142567
vt 0.586044 0.155100
vt 0.572134 0.155099
vt 0.572134 0.169009
vt 0.558224 0.169009
vt 0.530406 0.155100
vt 0.530405 0.142567
vt 0.558225 0.155099
vt 0.558225 0.142566
vt 0.572134 0.142566
vt 0.572134 0.155099
vt 0.544316 0.142566
vt 0.544315 0.155099
vt 0.530405 0.155097
vt 0.530406 0.142565
vt 0.558225 0.169008
vt 0.544315 0.169008
vt 0.586044 0.142566
vt 0.586044 0.155099
vt 0.558226 0.155099
vt 0.544317 0.155099
vt 0.544316 0.142566
vt 0.558226 0.142566
vt 0.572134 0.142566
vt 0.586043 0.142562
vt 0.586047 0.155095
vt 0.572136 0.155099
vt 0.530407 0.169009
vt 0.530408 0.155101
vt 0.544317 0.169010
vt 0.530405 0.142569
vn 0.000000 0.000000 1.000000
vn 0.000000 0.000000 1.000000
vn 0.000000 0.000000 1.000000
vn 0.000000 0.000000 1.000000
vn 0.000000 1.000000 0.000000
vn 0.000000 1.000000 0.000000
vn 0.000000 1.000000 0.000000
vn 0.000000 1.000000 0.000000
vn 0.000000 0.000000 -1.000000
vn 0.000000 0.000000 -1.000000
vn 0.000000 0.000000 -1.000000
vn 0.000000 0.000000 -1.000000
vn 0.000000 -1.000000 0.000000
vn 0.000000 -1.000000 0.000000
vn 0.000000 -1.000000 0.000000
vn 0.000000 -1.000000 0.000000
vn 1.000000 0.000000 0.000000
vn 1.000000 0.000000 0.000000
vn 1.000000 0.000000 0.000000
vn 1.000000 0.000000 0.000000
vn -1.000000 0.000000 0.000000
vn -1.000000 0.000000 0.000000
vn -1.000000 0.000000 0.000000
vn -1.000000 0.000000 0.000000
vn 0.000000 0.000000 1.000000
vn 0.000000 0.000000 1.000000
vn 0.000000 0.000000 1.000000
vn 0.000000 0.000000 1.000000
vn 0.000000 0.000000 -1.000000
vn 0.000000 0.000000 -1.000000
vn 0.000000 0.000000 -1.000000
vn 0.000000 0.000000 -1.000000
vn -1.000000 0.000000 0.000000
vn -1.000000 0.000000 0.000000
vn -1.000000 0.000000 0.000000
vn -1.000000 0.000000 0.000000
vn 1.000000 0.000000 0.000000
vn 1.000000 0.000000 0.000000
vn 1.000000 0.000000 0.000000
vn 1.000000 0.000000 0.000000
vn 0.000000 0.000000 1.000000
vn 0.000000 0.000000 1.000000
vn 0.000000 0.000000 1.000000
vn 0.000000 0.000000 1.000000
vn -0.000000 0.000000 -1.000000
vn -0.000000 0.000000 -1.000000
vn 0.000000 0.000000 -1.000000
vn 0.000000 0.000000 -1.000000
vn 1.000000 0.000000 0.000000
vn 1.000000 0.000000 0.000000
vn 1.000000 0.000000 0.000000
vn 1.000000 0.000000 0.000000
vn -1.000000 0.000000 0.000000
vn -1.000000 0.000000 0.000000
vn -1.000000 0.000000 0.000000
vn -1.000000 0.000000 0.000000
vn 0.000000 1.000000 0.000000
vn 0.000000 1.000000 0.000000
vn 0.000000 1.000000 0.000000
vn 0.000000 1.000000 0.000000
vn 0.000000 0.000000 1.000000
vn 0.000000 0.000000 1.000000
vn 0.000000 0.000000 1.000000
vn 0.000000 0.000000 1.000000
vn 0.000000 -1.000000 0.000000
vn 0.000000 -1.000000 0.000000
vn 0.000000 -1.000000 0.000000
vn 0.000000 -1.000000 0.000000
vn 0.000000 0.000000 -1.000000
vn 0.000000 0.000000 -1.000000
vn 0.000000 0.000000 -1.000000
vn 0.000000 0.000000 -1.000000
vn 0.000000 0.000000 -1.000000
vn 0.000000 0.000000 -1.000000
vn 0.000000 0.000000 -1.000000
vn 0.000000 0.000000 -1.000000
vn 0.000000 -1.000000 0.000000
vn 0.000000 -1.000000 0.000000
vn 0.000000 -1.000000 0.000000
vn 0.000000 -1.000000 0.000000
vn 0.000000 0.000000 1.000000
vn 0.000000 0.000000 1.000000
vn 0.000000 0.000000 1.000000
vn 0.000000 0.000000 1.000000
vn 0.000000 1.000000 0.000000
vn 0.000000 1.000000 0.000000
vn 0.000000 1.000000 0.000000
vn 0.000000 1.000000 0.000000
vn 0.000000 0.000000 1.000000
vn 0.000000 0.000000 1.000000
vn 0.000000 0.000000 1.000000
vn 0.000000 0.000000 1.000000
vn 0.000000 -1.000000 0.000000
vn 0.000000 -1.000000 0.000000
vn 0.000000 -1.000000 0.000000
vn 0.000000 -1.000000 0.000000
vn 0.000000 0.000000 -1.000000
vn 0.000000 0.000000 -1.000000
vn -0.000000 0.000000 -1.000000
vn -0.000000 0.000000 -1.000000
vn 0.000000 1.000000 0.000000
vn 0.000000 1.000000 0.000000
vn 0.000000 1.000000 0.000000
vn 0.000000 1.000000 0.000000
vn 0.000000 0.000000 1.000000
vn 0.000000 0.000000 1.000000
vn 0.000000 0.000000 1.000000
vn 0.000000 0.000000 1.000000
vn 1.000000 0.000000 0.000000
vn 1.000000 0.000000 0.000000
vn 1.000000 0.000000 0.000000
vn 1.000000 0.000000 0.000000
vn 0.000000 0.000000 -1.000000
vn 0.000000 0.000000 -1.000000
vn 0.000000 0.000000 -1.000000
vn 0.000000 0.000000 -1.000000
vn -1.000000 0.000000 0.000000
vn -1.000000 0.000000 0.000000
vn -1.000000 0.000000 0.000000
vn -1.000000 0.000000 0.000000
vn -1.000000 0.000000 0.000000
vn -1.000000 0.000000 0.000000
vn -1.000000 0.000000 0.000000
vn -1.000000 0.000000 0.000000
vn 0.000000 0.000000 -1.000000
vn 0.000000 0.000000 -1.000000
vn 0.000000 0.000000 -1.000000
vn 0.000000 0.000000 -1.000000
vn 1.000000 0.000000 0.000000
vn 1.000000 0.000000 0.000000
vn 1.000000 0.000000 0.000000
vn 1.000000 0.000000 0.000000
vn 0.000000 0.000000 1.000000
vn 0.000000 0.000000 1.000000
vn 0.000000 0.000000 1.000000
vn 0.000000 0.000000 1.000000
vn 0.000000 -1.000000 -0.000001
vn 0.000000 -1.000000 0.000001
vn 0.000000 -1.000000 0.000001
vn 0.000000 -1.000000 -0.000001
vn 0.000000 -1.000000 -0.000001
vn 0.000000 -1.000000 -0.000001
vn 0.000000 -1.000000 -0.000001
vn 0.000000 -1.000000 -0.000001
vn 0.000000 -1.000000 0.000001
vn 0.000000 -1.000000 -0.000001
vn 0.000000 -1.000000 -0.000001
vn 0.000000 -1.000000 0.000001
vn 0.000000 -1.000000 0.000001
vn 0.000000 -1.000000 0.000001
vn 0.000000 -1.000000 0.000001
vn 0.000000 -1.000000 0.000001
vn 0.000000 0.000000 1.000000
vn 0.000000 0.000000 1.000000
vn 0.000000 0.000000 1.000000
vn 0.000000 0.000000 1.000000
vn 0.000000 0.000000 -1.000000
vn 0.000000 0.000000 -1.000000
vn 0.000000 0.000000 -1.000000
vn 0.000000 0.000000 -1.000000
vn 0.000000 -1.000000 0.000000
vn 0.000000 -1.000000 0.000000
vn 0.000000 -1.000000 0.000000
vn 0.000000 -1.000000 0.000000
vn -1.000000 0.000000 0.000000
vn -1.000000 0.000000 0.000000
vn -1.000000 0.000000 0.000000
vn -1.000000 0.000000 0.000000
vn 1.000000 0.000000 0.000000
vn 1.000000 0.000000 0.000000
vn 1.000000 0.000000 0.000000
vn 1.000000 0.000000 0.000000
vn 0.000000 0.000000 1.000000
vn 0.000000 0.000000 1.000000
vn 0.000000 0.000000 1.000000
vn 0.000000 0.000000 1.000000
vn 0.000000 0.000000 -1.000000
vn 0.000000 0.000000 -1.000000
vn 0.000000 0.000000 -1.000000
vn 0.000000 0.000000 -1.000000
vn 0.000000 -1.000000 0.000000
vn 0.000000 -1.000000 0.000000
vn 0.000000 -1.000000 0.000000
vn 0.000000 -1.000000 0.000000
vn 1.000000 0.000000 0.000000
vn 1.000000 0.000000 0.000000
vn 1.000000 0.000000 0.000000
vn 1.000000 0.000000 0.000000
vn -1.000000 0.000000 0.000000
vn -1.000000 0.000000 0.000000
vn -1.000000 0.000000 0.000000
vn -1.000000 0.000000 0.000000
vn 0.000000 0.000000 -1.000000
vn 0.000000 0.000000 -1.000000
vn 0.000000 0.000000 -1.000000
vn 0.000000 0.000000 -1.000000
vn 0.000000 0.000000 1.000000
vn 0.000000 0.000000 1.000000
vn 0.000000 0.000000 1.000000
vn 0.000000 0.000000 1.000000
vn 0.000000 -1.000000 0.000000
vn 0.000000 -1.000000 0.000000
vn 0.000000 -1.000000 0.000000
vn 0.000000 -1.000000 0.000000
vn 1.000000 0.000000 0.000000
vn 1.000000 0.000000 0.000000
vn 1.000000 0.000000 0.000000
vn 1.000000 0.000000 0.000000
vn -1.000000 0.000000 0.000000
vn -1.000000 0.000000 0.000000
vn -1.000000 0.000000 0.000000
vn -1.000000 0.000000 0.000000
vn 0.000000 0.000000 -1.000000
vn 0.000000 0.000000 -1.000000
vn 0.000000 0.000000 -1.000000
vn 0.000000 0.000000 -1.000000
vn 0.000000 0.000000 1.000000
vn 0.000000 0.000000 1.000000
vn 0.000000 0.000000 1.000000
vn 0.000000 0.000000 1.000000
vn 0.000000 -1.000000 0.000000
vn 0.000000 -1.000000 0.000000
vn 0.000000 -1.000000 0.000000
vn 0.000000 -1.000000 0.000000
vn -1.000000 0.000000 0.000000
vn -1.000000 0.000000 0.000000
vn -1.000000 0.000000 0.000000
vn -1.000000 0.000000 0.000000
vn 1.000000 0.000000 0.000000
vn 1.000000 0.000000 0.000000
vn 1.000000 0.000000 0.000000
vn 1.000000 0.000000 0.000000
vn 0.000000 0.000000 1.000000
vn 0.000000 0.000000 1.000000
vn 0.000000 0.000000 1.000000
vn 0.000000 0.000000 1.000000
vn -1.000000 0.000000 0.000000
vn -1.000000 0.000000 0.000000
vn -1.000000 0.000000 0.000000
vn -1.000000 0.000000 0.000000
vn 0.000000 0.000000 -1.000000
vn 0.000000 0.000000 -1.000000
vn 0.000000 0.000000 -1.000000
vn 0.000000 0.000000 -1.000000
vn 1.000000 0.000000 0.000000
vn 1.000000 0.000000 0.000000
vn 1.000000 0.000000 0.000000
vn 1.000000 0.000000 0.000000
vn -1.000000 0.000000 0.000000
vn -1.000000 0.000000 0.000000
vn -1.000000 0.000000 0.000000
vn -1.000000 0.000000 0.000000
vn -0.000000 0.000000 -1.000000
vn -0.000000 0.000000 -1.000000
vn -0.000000 0.000000 -1.000000
vn -0.000000 0.000000 -1.000000
vn 1.000000 0.000000 0.000000
vn 1.000000 0.000000 0.000000
vn 1.000000 0.000000 0.000000
vn 1.000000 0.000000 0.000000
vn 0.000000 0.000000 1.000000
vn 0.000000 0.000000 1.000000
vn 0.000000 0.000000 1.000000
vn 0.000000 0.000000 1.000000
vn 0.000000 1.000000 0.000000
vn 0.000000 1.000000 0.000000
vn 0.000000 1.000000 0.000000
vn 0.000000 1.000000 0.000000
vn 0.000000 -1.000000 0.000000
vn 0.000000 -1.000000 0.000000
vn 0.000000 -1.000000 0.000000
vn 0.000000 -1.000000 0.000000
f 1/1/1 2/2/2 4/3/3 3/4/4
f 3/4/5 4/3/6 6/5/7 5/6/8
f 5/6/9 6/5/10 8/7/11 7/8/12
f 7/8/13 8/7/14 2/9/15 1/10/16
f 2/11/17 8/12/18 6/5/19 4/3/20
f 7/13/21 1/14/22 3/4/23 5/6/24
f 9/15/25 77/16/26 78/17/27 10/18/28
f 80/19/29 13/20/30 14/21/31 79/22/32
f 10/18/33 78/17/34 79/23/35 14/24/36
f 13/25/37 80/26/38 77/16/39 9/15/40
f 17/27/41 18/28/42 84/29/43 81/30/44
f 82/31/45 83/32/46 22/33/47 21/34/48
f 18/28/49 22/35/50 83/36/51 84/29/52
f 21/37/53 17/27/54 81/30/55 82/38/56
f 42/39/57 40/40/58 39/41/59 44/42/60
f 26/43/61 25/44/62 28/45/63 27/46/64
f 27/46/65 28/45/66 30/47/67 29/48/68
f 29/49/69 30/50/70 32/51/71 31/52/72
f 12/53/73 16/54/74 29/49/75 31/52/76
f 16/55/77 15/56/78 27/46/79 29/48/80
f 15/56/81 11/57/82 26/43/83 27/46/84
f 11/57/85 12/58/86 31/59/87 26/43/88
f 28/45/89 25/44/90 19/60/91 23/61/92
f 30/47/93 28/45/94 23/61/95 24/62/96
f 32/51/97 30/50/98 24/63/99 20/64/100
f 25/44/101 32/65/102 20/66/103 19/60/104
f 25/44/105 26/43/106 85/67/107 86/68/108
f 26/43/109 31/59/110 88/69/111 85/67/112
f 31/52/113 32/51/114 87/70/115 88/71/116
f 32/65/117 25/44/118 86/68/119 87/72/120
f 38/73/121 37/74/122 39/41/123 40/75/124
f 41/76/125 38/77/126 40/78/127 42/79/128
f 43/80/129 41/76/130 42/79/131 44/42/132
f 37/74/133 43/80/134 44/42/135 39/41/136
f 34/81/137 33/82/138 37/74/139 38/83/140
f 35/84/141 34/81/142 38/83/143 41/85/144
f 36/86/145 35/84/146 41/85/147 43/80/148
f 33/82/149 36/86/150 43/80/151 37/74/152
f 45/87/153 47/88/154 48/89/155 46/90/156
f 49/91/157 51/92/158 52/93/159 50/94/160
f 51/95/161 45/87/162 46/90/163 52/96/164
f 46/90/165 48/89/166 50/97/167 52/98/168
f 51/92/169 49/91/170 47/88/171 45/87/172
f 53/99/173 54/100/174 56/101/175 55/102/176
f 57/103/177 58/104/178 60/105/179 59/106/180
f 59/106/181 60/107/182 54/108/183 53/99/184
f 54/100/185 60/109/186 58/110/187 56/101/188
f 59/106/189 53/99/190 55/102/191 57/103/192
f 61/111/193 63/112/194 64/113/195 62/114/196
f 65/115/197 67/116/198 68/117/199 66/118/200
f 67/116/201 61/111/202 62/119/203 68/120/204
f 62/114/205 64/113/206 66/121/207 68/122/208
f 67/116/209 65/115/210 63/112/211 61/111/212
f 69/123/213 70/124/214 72/125/215 71/126/216
f 73/127/217 74/128/218 76/129/219 75/130/220
f 75/131/221 76/132/222 70/124/223 69/133/224
f 70/124/225 76/132/226 74/134/227 72/125/228
f 75/130/229 69/123/230 71/126/231 73/127/232
f 77/16/233 11/57/234 15/56/235 78/17/236
f 79/23/237 78/17/238 15/56/239 16/55/240
f 12/53/241 80/19/242 79/22/243 16/54/244
f 77/16/245 80/26/246 12/58/247 11/57/248
f 82/38/249 81/30/250 19/60/251 20/66/252
f 20/64/253 24/63/254 83/32/255 82/31/256
f 84/29/257 83/36/258 24/62/259 23/61/260
f 81/30/261 84/29/262 23/61/263 19/60/264
f 86/68/265 85/67/266 88/71/267 87/72/268
f 34/81/269 35/84/270 36/86/271 33/82/272
