# This file uses centimeters as units for non-parametric coordinates.

v 13.823603 0.000000 -5.725918
v 10.580124 0.000000 -10.580113
v 5.725930 0.000000 -13.823594
v 0.000008 0.000000 -14.962570
v -5.725913 0.000000 -13.823606
v -10.580120 0.000000 -10.580128
v -13.823593 0.000000 -5.725934
v -14.962549 0.000000 -0.000010
v -13.823600 0.000000 5.725916
v -10.580124 0.000000 10.580118
v -5.725922 0.000000 13.823587
v -0.000002 0.000000 14.962542
v 5.725920 0.000000 13.823590
v 10.580124 0.000000 10.580118
v 13.823593 0.000000 5.725918
v 14.962549 0.000000 -0.000005
v 0.000000 0.000000 -0.000005
v 0.000000 5.683207 -0.000006
v 12.134253 4.262548 -5.026172
v 10.425181 5.683207 -4.318254
v 9.287151 4.262547 -9.287137
v 7.979082 5.683207 -7.979071
v 5.026184 4.262548 -12.134249
v 4.318259 5.683207 -10.425175
v 0.000006 4.262548 -13.134018
v 0.000006 5.683207 -11.284133
v -5.026168 4.262548 -12.134254
v -4.318248 5.683207 -10.425184
v -9.287149 4.262547 -9.287157
v -7.979079 5.683207 -7.979086
v -12.134244 4.262548 -5.026188
v -10.425171 5.683207 -4.318265
v -13.134011 4.262548 -0.000011
v -11.284119 5.683207 -0.000010
v -12.134249 4.262548 5.026170
v -10.425180 5.683207 4.318251
v -9.287151 4.262548 9.287143
v -7.979082 5.683207 7.979073
v -5.026175 4.262548 12.134243
v -4.318258 5.683207 10.425166
v -0.000001 4.262548 13.134001
v -0.000002 5.683207 11.284109
v 5.026172 4.262548 12.134243
v 4.318255 5.683207 10.425166
v 9.287151 4.262548 9.287144
v 7.979082 5.683207 7.979073
v 12.134244 4.262548 5.026172
v 10.425171 5.683207 4.318254
v 13.134011 4.262548 -0.000005
v 11.284119 5.683207 -0.000006
v 1.211366 2.201401 -1.211371
v 0.000000 2.201401 -1.713010
v -1.211366 2.201401 -1.211371
v -1.713005 2.201401 -0.000005
v -1.211366 2.201401 1.211362
v 0.000000 2.201401 1.713001
v 1.211366 2.201401 1.211362
v 1.713005 2.201401 -0.000005
v 6.912926 77.972252 -6.912926
v 0.000000 77.972252 -9.775637
v -6.912926 77.972252 -6.912926
v -9.775637 77.972252 0.000000
v -6.912926 77.972252 6.912926
v 0.000000 77.972252 9.775637
v 6.912926 77.972252 6.912926
v 9.775637 77.972252 0.000000
v 0.000000 77.972252 0.000000
v 0.000000 12.796425 2.566854
v -1.815173 12.796425 1.815173
v -2.566854 12.796425 0.000000
v -1.815173 12.796425 -1.815173
v 0.000000 12.796425 -2.566854
v 1.815173 12.796425 -1.815173
v 2.566854 12.796425 0.000000
v 1.815173 12.796425 1.815173
v 1.773343 72.997856 -1.773343
v 0.000000 72.997856 -2.507702
v 0.000000 133.319092 -2.566854
v 1.815173 133.319092 -1.815173
v -1.773343 72.997856 -1.773343
v -1.815173 133.319092 -1.815173
v -2.507702 72.997856 0.000000
v -2.566854 133.319092 0.000000
v -1.773343 72.997856 1.773343
v -1.815173 133.319092 1.815173
v 0.000000 72.997856 2.507702
v 0.000000 133.319092 2.566854
v 1.773343 72.997856 1.773343
v 1.815173 133.319092 1.815173
v 2.507702 72.997856 0.000000
v 2.566854 133.319092 0.000000
v 0.000000 126.261658 2.559933
v -1.810279 126.261658 1.810279
v -2.559933 126.261658 0.000000
v -1.810279 126.261658 -1.810279
v 0.000000 126.261658 -2.559933
v 1.810279 126.261658 -1.810279
v 2.559933 126.261658 0.000000
v 1.810279 126.261658 1.810279
v 0.000000 112.272438 2.546215
v -1.800578 112.272438 1.800578
v -2.546215 112.272438 0.000000
v -1.800578 112.272438 -1.800578
v 0.000000 112.272438 -2.546215
v 1.800578 112.272438 -1.800578
v 2.546215 112.272438 0.000000
v 1.800578 112.272438 1.800578
vt 0.696745 0.016856
vt 0.700845 0.022992
vt 0.683371 0.029473
vt 0.690609 0.012756
vt 0.683371 0.011316
vt 0.676133 0.012756
vt 0.669997 0.016856
vt 0.665897 0.022992
vt 0.664458 0.030230
vt 0.665897 0.037467
vt 0.669997 0.043603
vt 0.676133 0.047703
vt 0.683371 0.049143
vt 0.690609 0.047703
vt 0.696745 0.043603
vt 0.700845 0.037467
vt 0.702285 0.030230
vt 0.649963 0.036839
vt 0.650489 0.056349
vt 0.665741 0.056349
vt 0.665693 0.036839
vt 0.651225 0.056349
vt 0.650799 0.036839
vt 0.666424 0.036839
vt 0.666375 0.056349
vt 0.682049 0.036839
vt 0.682000 0.056349
vt 0.697674 0.036839
vt 0.697625 0.056349
vt 0.713299 0.036839
vt 0.713250 0.056349
vt 0.697570 0.036839
vt 0.697618 0.056349
vt 0.681840 0.036839
vt 0.681889 0.056349
vt 0.666110 0.036839
vt 0.666159 0.056349
vt 0.650381 0.036839
vt 0.650430 0.056349
vt 0.666216 0.036839
vt 0.666166 0.056349
vt 0.682051 0.036839
vt 0.682001 0.056349
vt 0.697885 0.036839
vt 0.697836 0.056349
vt 0.712881 0.036839
vt 0.712930 0.056349
vt 0.697151 0.036839
vt 0.697200 0.056349
vt 0.681422 0.036839
vt 0.681471 0.056349
vt 0.650799 0.009369
vt 0.666424 0.009369
vt 0.682049 0.009369
vt 0.697674 0.009369
vt 0.713299 0.009369
vt 0.697570 0.009369
vt 0.681840 0.009369
vt 0.666110 0.009369
vt 0.650381 0.009369
vt 0.666216 0.009369
vt 0.682051 0.009369
vt 0.697885 0.009369
vt 0.712881 0.009369
vt 0.697151 0.009369
vt 0.681422 0.009369
vt 0.665693 0.009369
vt 0.649963 0.009369
vt 0.700713 0.037608
vt 0.696618 0.043738
vt 0.683258 0.029622
vt 0.690488 0.047834
vt 0.683258 0.049272
vt 0.676027 0.047834
vt 0.669898 0.043738
vt 0.665802 0.037608
vt 0.664364 0.030378
vt 0.665802 0.023148
vt 0.669898 0.017018
vt 0.676027 0.012922
vt 0.683258 0.011484
vt 0.690488 0.012922
vt 0.696618 0.017018
vt 0.700713 0.023148
vt 0.702151 0.030378
vt 0.739952 0.011136
vt 0.739952 0.020646
vt 0.739059 0.020646
vt 0.739059 0.011136
vt 0.739952 0.030157
vt 0.739059 0.030157
vt 0.739952 0.039668
vt 0.739059 0.039668
vt 0.739952 0.049179
vt 0.739059 0.049179
vt 0.739952 0.039689
vt 0.739059 0.039689
vt 0.739952 0.030200
vt 0.739059 0.030200
vt 0.739952 0.020710
vt 0.739059 0.020710
vt 0.739952 0.011220
vt 0.739059 0.011220
vt 0.696537 0.042867
vt 0.681633 0.049041
vt 0.681633 0.027120
vt 0.666729 0.042867
vt 0.660556 0.027963
vt 0.666729 0.013060
vt 0.681633 0.006886
vt 0.696537 0.013060
vt 0.702710 0.027963
vt 0.630200 0.039689
vt 0.630200 0.049179
vt 0.630200 0.039668
vt 0.630200 0.030157
vt 0.630200 0.020646
vt 0.630200 0.011136
vt 0.630200 0.011220
vt 0.630200 0.020710
vt 0.630200 0.030200
vt 0.739952 0.011136
vt 0.739952 0.020646
vt 0.739370 0.020646
vt 0.739370 0.011136
vt 0.739952 0.030157
vt 0.739370 0.030157
vt 0.739952 0.039668
vt 0.739370 0.039668
vt 0.739952 0.049179
vt 0.739370 0.049179
vt 0.739952 0.039689
vt 0.739370 0.039689
vt 0.739952 0.030200
vt 0.739370 0.030200
vt 0.739952 0.020710
vt 0.739370 0.020710
vt 0.739952 0.011220
vt 0.739370 0.011220
vt 0.739059 0.020646
vt 0.739059 0.030157
vt 0.739059 0.011136
vt 0.739059 0.039668
vt 0.739059 0.020710
vt 0.739059 0.049179
vt 0.739059 0.039689
vt 0.739059 0.030200
vt 0.739163 0.049179
vt 0.739163 0.039689
vt 0.739163 0.039668
vt 0.739163 0.030157
vt 0.739163 0.020646
vt 0.739163 0.011136
vt 0.739163 0.020710
vt 0.739163 0.011220
vt 0.739059 0.011220
vt 0.739163 0.030200
vn 0.000000 -1.000000 0.000000
vn 0.000000 -1.000000 0.000000
vn 0.000000 -1.000000 0.000000
vn 0.000000 -1.000000 0.000000
vn 0.000000 -1.000000 0.000000
vn 0.000000 -1.000000 0.000000
vn 0.000000 -1.000000 0.000000
vn 0.000000 -1.000000 0.000000
vn 0.000000 -1.000000 0.000000
vn 0.000000 -1.000000 0.000000
vn 0.000000 -1.000000 0.000000
vn 0.000000 -1.000000 0.000000
vn 0.000000 -1.000000 0.000000
vn 0.000000 -1.000000 0.000000
vn 0.000000 -1.000000 0.000000
vn 0.000000 -1.000000 0.000000
vn 0.000000 -1.000000 0.000000
vn 0.000000 -1.000000 0.000000
vn 0.000000 -1.000000 0.000000
vn 0.000000 -1.000000 0.000000
vn 0.000000 -1.000000 0.000000
vn 0.000000 -1.000000 0.000000
vn 0.000000 -1.000000 0.000000
vn 0.000000 -1.000000 0.000000
vn 0.000000 -1.000000 0.000000
vn 0.000000 -1.000000 0.000000
vn 0.000000 -1.000000 0.000000
vn 0.000000 -1.000000 0.000000
vn 0.000000 -1.000000 0.000000
vn 0.000000 -1.000000 0.000000
vn 0.000000 -1.000000 0.000000
vn 0.000000 -1.000000 0.000000
vn 0.000000 -1.000000 0.000000
vn 0.000000 -1.000000 0.000000
vn 0.000000 -1.000000 0.000000
vn 0.000000 -1.000000 0.000000
vn 0.000000 -1.000000 0.000000
vn 0.000000 -1.000000 0.000000
vn 0.000000 -1.000000 0.000000
vn 0.000000 -1.000000 0.000000
vn 0.000000 -1.000000 0.000000
vn 0.000000 -1.000000 0.000000
vn 0.000000 -1.000000 0.000000
vn 0.000000 -1.000000 0.000000
vn 0.000000 -1.000000 0.000000
vn 0.000000 -1.000000 0.000000
vn 0.000000 -1.000000 0.000000
vn 0.000000 -1.000000 0.000000
vn 0.562719 0.793107 -0.233086
vn 0.562719 0.793107 -0.233086
vn 0.609082 0.793107 0.000001
vn 0.609082 0.793107 0.000001
vn 0.562719 0.793107 -0.233086
vn 0.562719 0.793107 -0.233086
vn 0.430687 0.793107 -0.430686
vn 0.430687 0.793106 -0.430687
vn 0.430687 0.793106 -0.430687
vn 0.430687 0.793107 -0.430686
vn 0.233087 0.793107 -0.562718
vn 0.233087 0.793107 -0.562718
vn 0.233087 0.793107 -0.562718
vn 0.233087 0.793107 -0.562718
vn 0.000000 0.793107 -0.609083
vn 0.000000 0.793107 -0.609083
vn 0.000000 0.793107 -0.609083
vn 0.000000 0.793107 -0.609083
vn -0.233086 0.793107 -0.562719
vn -0.233086 0.793107 -0.562719
vn -0.233086 0.793107 -0.562719
vn -0.233086 0.793107 -0.562719
vn -0.430686 0.793107 -0.430687
vn -0.430686 0.793107 -0.430687
vn -0.430686 0.793107 -0.430687
vn -0.430686 0.793107 -0.430687
vn -0.562718 0.793107 -0.233086
vn -0.562718 0.793107 -0.233086
vn -0.562718 0.793107 -0.233086
vn -0.562718 0.793107 -0.233086
vn -0.609082 0.793107 -0.000000
vn -0.609082 0.793107 -0.000001
vn -0.609082 0.793107 -0.000001
vn -0.609082 0.793107 -0.000000
vn -0.562719 0.793107 0.233085
vn -0.562719 0.793107 0.233085
vn -0.562719 0.793107 0.233085
vn -0.562719 0.793107 0.233085
vn -0.430686 0.793107 0.430687
vn -0.430686 0.793107 0.430687
vn -0.430686 0.793107 0.430687
vn -0.430686 0.793107 0.430687
vn -0.233085 0.793108 0.562718
vn -0.233085 0.793108 0.562718
vn -0.233085 0.793108 0.562718
vn -0.233085 0.793108 0.562718
vn 0.000000 0.793107 0.609082
vn 0.000000 0.793108 0.609082
vn 0.000000 0.793108 0.609082
vn 0.000000 0.793107 0.609082
vn 0.233085 0.793107 0.562718
vn 0.233085 0.793107 0.562718
vn 0.233085 0.793107 0.562718
vn 0.233085 0.793107 0.562718
vn 0.430686 0.793107 0.430686
vn 0.430686 0.793107 0.430686
vn 0.430686 0.793107 0.430686
vn 0.430686 0.793107 0.430686
vn 0.562719 0.793107 0.233085
vn 0.562719 0.793107 0.233085
vn 0.562719 0.793107 0.233085
vn 0.562719 0.793107 0.233085
vn 0.609082 0.793107 0.000001
vn 0.609082 0.793107 0.000001
vn 0.849054 0.394235 -0.351690
vn 0.649838 0.394235 -0.649838
vn 0.649838 0.394235 -0.649838
vn 0.849054 0.394235 -0.351690
vn 0.649838 0.394235 -0.649838
vn 0.351691 0.394235 -0.849054
vn 0.351692 0.394235 -0.849053
vn 0.649838 0.394235 -0.649838
vn 0.351691 0.394235 -0.849054
vn 0.000001 0.394236 -0.919009
vn 0.000001 0.394236 -0.919009
vn 0.351692 0.394235 -0.849053
vn 0.000001 0.394236 -0.919009
vn -0.351690 0.394235 -0.849054
vn -0.351690 0.394235 -0.849054
vn 0.000001 0.394236 -0.919009
vn -0.351690 0.394235 -0.849054
vn -0.649838 0.394234 -0.649839
vn -0.649838 0.394234 -0.649839
vn -0.351690 0.394235 -0.849054
vn -0.649838 0.394234 -0.649839
vn -0.849054 0.394235 -0.351690
vn -0.849054 0.394235 -0.351690
vn -0.649838 0.394234 -0.649839
vn -0.849054 0.394235 -0.351690
vn -0.919010 0.394235 -0.000000
vn -0.919010 0.394235 -0.000001
vn -0.849054 0.394235 -0.351690
vn -0.919010 0.394235 -0.000000
vn -0.849055 0.394235 0.351689
vn -0.849054 0.394235 0.351689
vn -0.919010 0.394235 -0.000001
vn -0.849055 0.394235 0.351689
vn -0.649838 0.394235 0.649838
vn -0.649838 0.394235 0.649838
vn -0.849054 0.394235 0.351689
vn -0.649838 0.394235 0.649838
vn -0.351689 0.394235 0.849055
vn -0.351689 0.394234 0.849055
vn -0.649838 0.394235 0.649838
vn -0.351689 0.394235 0.849055
vn 0.000000 0.394235 0.919010
vn 0.000000 0.394234 0.919010
vn -0.351689 0.394234 0.849055
vn 0.000000 0.394235 0.919010
vn 0.351689 0.394235 0.849055
vn 0.351689 0.394235 0.849055
vn 0.000000 0.394234 0.919010
vn 0.351689 0.394235 0.849055
vn 0.649838 0.394235 0.649838
vn 0.649838 0.394235 0.649838
vn 0.351689 0.394235 0.849055
vn 0.649838 0.394235 0.649838
vn 0.849055 0.394235 0.351689
vn 0.849054 0.394235 0.351690
vn 0.649838 0.394235 0.649838
vn 0.849055 0.394235 0.351689
vn 0.919010 0.394234 0.000001
vn 0.919010 0.394235 0.000001
vn 0.849054 0.394235 0.351690
vn 0.919010 0.394234 0.000001
vn 0.849054 0.394235 -0.351690
vn 0.849054 0.394235 -0.351690
vn 0.919010 0.394235 0.000001
vn 0.000000 1.000000 0.000000
vn 0.000000 1.000000 0.000000
vn 0.000000 1.000000 0.000000
vn 0.000000 1.000000 0.000000
vn 0.000000 1.000000 0.000000
vn 0.000000 1.000000 0.000000
vn 0.000000 1.000000 0.000000
vn 0.000000 1.000000 0.000000
vn 0.000000 1.000000 0.000000
vn 0.000000 1.000000 0.000000
vn 0.000000 1.000000 0.000000
vn 0.000000 1.000000 0.000000
vn 0.000000 1.000000 0.000000
vn 0.000000 1.000000 0.000000
vn 0.000000 1.000000 0.000000
vn 0.000000 1.000000 0.000000
vn 0.000000 1.000000 0.000000
vn 0.000000 1.000000 0.000000
vn 0.000000 1.000000 0.000000
vn 0.000000 1.000000 0.000000
vn 0.000000 1.000000 0.000000
vn 0.000000 1.000000 0.000000
vn 0.000000 1.000000 0.000000
vn 0.000000 1.000000 0.000000
vn 0.000000 1.000000 0.000000
vn 0.000000 1.000000 0.000000
vn 0.000000 1.000000 0.000000
vn 0.000000 1.000000 0.000000
vn 0.000000 1.000000 0.000000
vn 0.000000 1.000000 0.000000
vn 0.000000 1.000000 0.000000
vn 0.000000 1.000000 0.000000
vn 0.000000 1.000000 0.000000
vn 0.000000 1.000000 0.000000
vn 0.000000 1.000000 0.000000
vn 0.000000 1.000000 0.000000
vn 0.000000 1.000000 0.000000
vn 0.000000 1.000000 0.000000
vn 0.000000 1.000000 0.000000
vn 0.000000 1.000000 0.000000
vn 0.000000 1.000000 0.000000
vn 0.000000 1.000000 0.000000
vn 0.000000 1.000000 0.000000
vn 0.000000 1.000000 0.000000
vn 0.000000 1.000000 0.000000
vn 0.000000 1.000000 0.000000
vn 0.000000 1.000000 0.000000
vn 0.000000 1.000000 0.000000
vn 0.381545 -0.074252 -0.921363
vn 0.381545 -0.074252 -0.921363
vn 0.000000 -0.108429 -0.994104
vn 0.702937 -0.108437 -0.702937
vn -0.381545 -0.074252 -0.921363
vn -0.381545 -0.074252 -0.921363
vn -0.702937 -0.108437 -0.702937
vn 0.000000 -0.108429 -0.994104
vn -0.921363 -0.074252 -0.381545
vn -0.921363 -0.074252 -0.381545
vn -0.994104 -0.108429 0.000000
vn -0.702937 -0.108437 -0.702937
vn -0.921363 -0.074252 0.381545
vn -0.921363 -0.074252 0.381545
vn -0.702937 -0.108437 0.702937
vn -0.994104 -0.108429 0.000000
vn -0.381545 -0.074253 0.921363
vn -0.381545 -0.074253 0.921363
vn 0.000000 -0.108429 0.994104
vn -0.702937 -0.108437 0.702937
vn 0.381545 -0.074253 0.921363
vn 0.381545 -0.074253 0.921363
vn 0.702937 -0.108437 0.702937
vn 0.000000 -0.108429 0.994104
vn 0.921363 -0.074252 0.381545
vn 0.921363 -0.074252 0.381545
vn 0.994104 -0.108429 0.000000
vn 0.702937 -0.108437 0.702937
vn 0.921363 -0.074252 -0.381545
vn 0.921363 -0.074252 -0.381545
vn 0.702937 -0.108437 -0.702937
vn 0.994104 -0.108429 0.000000
vn 0.000000 1.000000 0.000000
vn 0.000000 1.000000 0.000000
vn 0.000000 1.000000 0.000000
vn 0.000000 1.000000 0.000000
vn 0.000000 1.000000 0.000000
vn 0.000000 1.000000 0.000000
vn 0.000000 1.000000 0.000000
vn 0.000000 1.000000 0.000000
vn 0.000000 1.000000 0.000000
vn 0.000000 1.000000 0.000000
vn 0.000000 1.000000 0.000000
vn 0.000000 1.000000 0.000000
vn 0.000000 1.000000 0.000000
vn 0.000000 1.000000 0.000000
vn 0.000000 1.000000 0.000000
vn 0.000000 1.000000 0.000000
vn 0.000000 1.000000 0.000000
vn 0.000000 1.000000 0.000000
vn 0.000000 1.000000 0.000000
vn 0.000000 1.000000 0.000000
vn 0.000000 1.000000 0.000000
vn 0.000000 1.000000 0.000000
vn 0.000000 1.000000 0.000000
vn 0.000000 1.000000 0.000000
vn -0.702937 -0.108437 0.702937
vn 0.000000 -0.108429 0.994104
vn 0.000000 -0.109935 0.993939
vn -0.702820 -0.109943 0.702820
vn -0.994104 -0.108429 0.000000
vn -0.702937 -0.108437 0.702937
vn -0.702820 -0.109943 0.702820
vn -0.993939 -0.109935 0.000000
vn -0.702937 -0.108437 -0.702937
vn -0.994104 -0.108429 0.000000
vn -0.993939 -0.109935 0.000000
vn -0.702820 -0.109943 -0.702820
vn 0.000000 -0.108429 -0.994104
vn -0.702937 -0.108437 -0.702937
vn -0.702820 -0.109943 -0.702820
vn 0.000000 -0.109935 -0.993939
vn 0.702937 -0.108437 -0.702937
vn 0.000000 -0.108429 -0.994104
vn 0.000000 -0.109935 -0.993939
vn 0.702820 -0.109943 -0.702820
vn 0.994104 -0.108429 0.000000
vn 0.702937 -0.108437 -0.702937
vn 0.702820 -0.109943 -0.702820
vn 0.993939 -0.109935 0.000000
vn 0.702937 -0.108437 0.702937
vn 0.994104 -0.108429 0.000000
vn 0.993939 -0.109935 0.000000
vn 0.702820 -0.109943 0.702820
vn 0.000000 -0.108429 0.994104
vn 0.702937 -0.108437 0.702937
vn 0.702820 -0.109943 0.702820
vn 0.000000 -0.109935 0.993939
vn 0.707107 -0.000981 -0.707106
vn 0.000000 -0.000981 -1.000000
vn 0.000000 -0.000981 -1.000000
vn 0.707107 -0.000981 -0.707106
vn 0.000000 -0.000981 -1.000000
vn -0.707107 -0.000981 -0.707106
vn -0.707107 -0.000981 -0.707106
vn 0.000000 -0.000981 -1.000000
vn -0.707107 -0.000981 -0.707106
vn -1.000000 -0.000981 0.000000
vn -1.000000 -0.000981 0.000000
vn -0.707107 -0.000981 -0.707106
vn -1.000000 -0.000981 0.000000
vn -0.707107 -0.000981 0.707106
vn -0.707107 -0.000981 0.707106
vn -1.000000 -0.000981 0.000000
vn -0.707107 -0.000981 0.707106
vn 0.000000 -0.000981 1.000000
vn 0.000000 -0.000981 1.000000
vn -0.707107 -0.000981 0.707106
vn 0.000000 -0.000981 1.000000
vn 0.707107 -0.000981 0.707106
vn 0.707107 -0.000981 0.707106
vn 0.000000 -0.000981 1.000000
vn 0.707107 -0.000981 0.707106
vn 1.000000 -0.000981 0.000000
vn 1.000000 -0.000981 0.000000
vn 0.707107 -0.000981 0.707106
vn 1.000000 -0.000981 0.000000
vn 0.707107 -0.000981 -0.707106
vn 0.707107 -0.000981 -0.707106
vn 1.000000 -0.000981 0.000000
vn 0.000000 1.000000 0.000000
vn 0.000000 1.000000 0.000000
vn 0.000000 1.000000 0.000003
vn 0.000000 1.000000 0.000000
vn 0.000000 1.000000 0.000001
vn 0.000000 1.000000 0.000003
vn 0.000000 1.000000 0.000003
vn 0.000000 1.000000 0.000001
vn 0.000000 1.000000 0.000001
vn 0.000000 1.000000 0.000001
vn 0.000000 1.000000 0.000000
vn 0.000000 1.000000 0.000001
vn 0.000000 1.000000 0.000000
vn 0.000000 1.000000 -0.000002
vn 0.000000 1.000000 0.000001
vn 0.000000 1.000000 -0.000002
vn 0.000000 1.000000 -0.000022
vn 0.000000 1.000000 0.000001
vn -0.707107 -0.000981 0.707106
vn 0.000000 -0.000981 1.000000
vn 0.000000 -0.000981 1.000000
vn -0.707106 -0.000981 0.707106
vn -1.000000 -0.000981 0.000000
vn -0.707107 -0.000981 0.707106
vn -0.707106 -0.000981 0.707106
vn -1.000000 -0.000981 0.000000
vn -0.707106 -0.000981 -0.707107
vn -1.000000 -0.000981 0.000000
vn -1.000000 -0.000981 0.000000
vn -0.707106 -0.000981 -0.707107
vn 0.000000 -0.000981 -1.000000
vn -0.707106 -0.000981 -0.707107
vn -0.707106 -0.000981 -0.707107
vn 0.000000 -0.000981 -1.000000
vn 0.707107 -0.000981 -0.707106
vn 0.000000 -0.000981 -1.000000
vn 0.000000 -0.000981 -1.000000
vn 0.707106 -0.000981 -0.707106
vn 1.000000 -0.000981 0.000000
vn 0.707107 -0.000981 -0.707106
vn 0.707106 -0.000981 -0.707106
vn 1.000000 -0.000981 0.000000
vn 0.707106 -0.000981 0.707107
vn 1.000000 -0.000981 0.000000
vn 1.000000 -0.000981 0.000000
vn 0.707106 -0.000981 0.707107
vn 0.000000 -0.000981 1.000000
vn 0.707106 -0.000981 0.707107
vn 0.707106 -0.000981 0.707107
vn 0.000000 -0.000981 1.000000
vn 0.000000 -1.000000 0.000002
vn 0.000000 -1.000000 0.000002
vn 0.000000 -1.000000 0.000002
vn 0.000000 -1.000000 0.000002
vn 0.000000 -1.000000 0.000002
vn 0.000000 -1.000000 0.000002
vn 0.000000 -1.000000 0.000002
vn 0.000000 -1.000000 0.000002
vn 0.000000 1.000000 0.000000
vn 0.000000 1.000000 0.000000
vn 0.000000 1.000000 0.000000
vn 0.000000 1.000000 0.000000
vn 0.000000 1.000000 0.000000
vn 0.000000 1.000000 0.000000
vn 0.000000 1.000000 0.000000
vn 0.000000 1.000000 0.000000
f 2/1/1 1/2/2 17/3/3
f 3/4/4 2/1/5 17/3/6
f 4/5/7 3/4/8 17/3/9
f 5/6/10 4/5/11 17/3/12
f 6/7/13 5/6/14 17/3/15
f 7/8/16 6/7/17 17/3/18
f 8/9/19 7/8/20 17/3/21
f 9/10/22 8/9/23 17/3/24
f 10/11/25 9/10/26 17/3/27
f 11/12/28 10/11/29 17/3/30
f 12/13/31 11/12/32 17/3/33
f 13/14/34 12/13/35 17/3/36
f 14/15/37 13/14/38 17/3/39
f 15/16/40 14/15/41 17/3/42
f 16/17/43 15/16/44 17/3/45
f 1/2/46 16/17/47 17/3/48
f 19/18/49 20/19/50 50/20/51 49/21/52
f 20/22/53 19/23/54 21/24/55 22/25/56
f 22/25/57 21/24/58 23/26/59 24/27/60
f 24/27/61 23/26/62 25/28/63 26/29/64
f 26/29/65 25/28/66 27/30/67 28/31/68
f 28/31/69 27/30/70 29/32/71 30/33/72
f 30/33/73 29/32/74 31/34/75 32/35/76
f 32/35/77 31/34/78 33/36/79 34/37/80
f 34/37/81 33/36/82 35/38/83 36/39/84
f 36/39/85 35/38/86 37/40/87 38/41/88
f 38/41/89 37/40/90 39/42/91 40/43/92
f 40/43/93 39/42/94 41/44/95 42/45/96
f 42/45/97 41/44/98 43/46/99 44/47/100
f 44/47/101 43/46/102 45/48/103 46/49/104
f 46/49/105 45/48/106 47/50/107 48/51/108
f 48/51/109 47/50/110 49/21/111 50/20/112
f 1/52/113 2/53/114 21/24/115 19/23/116
f 2/53/117 3/54/118 23/26/119 21/24/120
f 3/54/121 4/55/122 25/28/123 23/26/124
f 4/55/125 5/56/126 27/30/127 25/28/128
f 5/56/129 6/57/130 29/32/131 27/30/132
f 6/57/133 7/58/134 31/34/135 29/32/136
f 7/58/137 8/59/138 33/36/139 31/34/140
f 8/59/141 9/60/142 35/38/143 33/36/144
f 9/60/145 10/61/146 37/40/147 35/38/148
f 10/61/149 11/62/150 39/42/151 37/40/152
f 11/62/153 12/63/154 41/44/155 39/42/156
f 12/63/157 13/64/158 43/46/159 41/44/160
f 13/64/161 14/65/162 45/48/163 43/46/164
f 14/65/165 15/66/166 47/50/167 45/48/168
f 15/66/169 16/67/170 49/21/171 47/50/172
f 16/67/173 1/68/174 19/18/175 49/21/176
f 20/69/177 22/70/178 18/71/179
f 22/70/180 24/72/181 18/71/182
f 24/72/183 26/73/184 18/71/185
f 26/73/186 28/74/187 18/71/188
f 28/74/189 30/75/190 18/71/191
f 30/75/192 32/76/193 18/71/194
f 32/76/195 34/77/196 18/71/197
f 34/77/198 36/78/199 18/71/200
f 36/78/201 38/79/202 18/71/203
f 38/79/204 40/80/205 18/71/206
f 40/80/207 42/81/208 18/71/209
f 42/81/210 44/82/211 18/71/212
f 44/82/213 46/83/214 18/71/215
f 46/83/216 48/84/217 18/71/218
f 48/84/219 50/85/220 18/71/221
f 50/85/222 20/69/223 18/71/224
f 51/86/225 52/87/226 72/88/227 73/89/228
f 52/87/229 53/90/230 71/91/231 72/88/232
f 53/90/233 54/92/234 70/93/235 71/91/236
f 54/92/237 55/94/238 69/95/239 70/93/240
f 55/94/241 56/96/242 68/97/243 69/95/244
f 56/96/245 57/98/246 75/99/247 68/97/248
f 57/98/249 58/100/250 74/101/251 75/99/252
f 58/100/253 51/102/254 73/103/255 74/101/256
f 59/104/257 60/105/258 67/106/259
f 60/105/260 61/107/261 67/106/262
f 61/107/263 62/108/264 67/106/265
f 62/108/266 63/109/267 67/106/268
f 63/109/269 64/110/270 67/106/271
f 64/110/272 65/111/273 67/106/274
f 65/111/275 66/112/276 67/106/277
f 66/112/278 59/104/279 67/106/280
f 69/95/281 68/97/282 64/113/283 63/114/284
f 70/93/285 69/95/286 63/114/287 62/115/288
f 71/91/289 70/93/290 62/115/291 61/116/292
f 72/88/293 71/91/294 61/116/295 60/117/296
f 73/89/297 72/88/298 60/117/299 59/118/300
f 74/101/301 73/103/302 59/119/303 66/120/304
f 75/99/305 74/101/306 66/120/307 65/121/308
f 68/97/309 75/99/310 65/121/311 64/113/312
f 76/122/313 77/123/314 104/124/315 105/125/316
f 77/123/317 80/126/318 103/127/319 104/124/320
f 80/126/321 82/128/322 102/129/323 103/127/324
f 82/128/325 84/130/326 101/131/327 102/129/328
f 84/130/329 86/132/330 100/133/331 101/131/332
f 86/132/333 88/134/334 107/135/335 100/133/336
f 88/134/337 90/136/338 106/137/339 107/135/340
f 90/136/341 76/138/342 105/139/343 106/137/344
f 78/140/345 81/141/346 79/142/347
f 81/141/348 83/143/349 79/142/350
f 79/142/351 83/143/352 91/144/353
f 83/143/354 85/145/355 91/144/356
f 85/145/357 87/146/358 91/144/359
f 87/146/360 89/147/361 91/144/362
f 93/148/363 92/149/364 87/146/365 85/145/366
f 94/150/367 93/148/368 85/145/369 83/143/370
f 95/151/371 94/150/372 83/143/373 81/141/374
f 96/152/375 95/151/376 81/141/377 78/140/378
f 97/153/379 96/152/380 78/140/381 79/142/382
f 98/154/383 97/155/384 79/156/385 91/144/386
f 99/157/387 98/154/388 91/144/389 89/147/390
f 92/149/391 99/157/392 89/147/393 87/146/394
f 93/148/395 94/150/396 95/151/397 96/152/398 97/155/399 98/154/400 99/157/401 92/149/402
f 101/131/403 100/133/404 107/135/405 106/137/406 105/125/407 104/124/408 103/127/409 102/129/410
