# This file uses meters as units for non-parametric coordinates.

v -158.681305 101.950310 89.750717
v 158.681305 101.950310 89.750717
v -155.920273 104.928764 87.898712
v 155.920273 104.928764 87.898712
v -155.920273 104.928764 3.257912
v 155.920273 104.928764 3.257912
v -158.681305 101.950310 0.925568
v 158.681305 101.950310 0.925568
v 96.670151 104.928764 87.898712
v 94.869827 101.950310 89.750717
v 94.869827 101.950310 0.925568
v 96.670151 104.928764 3.257912
v -96.670151 104.928764 3.257912
v -94.869827 101.950310 0.925568
v -94.869827 101.950310 89.750717
v -96.670151 104.928764 87.898712
v -158.681305 101.950310 98.920975
v -94.869827 101.950310 98.920975
v -96.670151 104.928764 96.588638
v -155.920273 104.928764 96.588638
v 96.670151 104.928764 96.588638
v 94.869827 101.950310 98.920975
v 158.681305 101.950310 98.920975
v 155.920273 104.928764 96.588638
v 0.000000 104.928764 87.898712
v 0.000000 104.928764 3.257912
v 0.000000 101.950310 0.925568
v 0.000000 101.950310 89.750717
vt 0.661314 0.616609
vt 0.731024 0.616425
vt 0.732903 0.613710
vt 0.660771 0.613881
vt 0.660777 0.603860
vt 0.732938 0.603689
vt 0.733243 0.516388
vt 0.660833 0.516559
vt 0.731380 0.514214
vt 0.661380 0.514398
vt 0.731061 0.605900
vt 0.661320 0.606084
vt 0.660585 0.605150
vt 0.660527 0.513464
vt 0.660001 0.515641
vt 0.660057 0.602942
vt 0.730990 0.515812
vt 0.731290 0.603112
vt 0.729096 0.513648
vt 0.729410 0.605334
vt 0.731324 0.613134
vt 0.729446 0.615859
vt 0.660592 0.615675
vt 0.660063 0.612963
vt 0.630242 0.603401
vt 0.630547 0.516100
vt 0.630579 0.513931
vt 0.630259 0.605617
vn 0.000000 0.616534 0.787328
vn 0.000000 0.616534 0.787328
vn 0.000000 0.616534 0.787328
vn 0.000000 0.616534 0.787329
vn 0.000000 1.000000 0.000000
vn 0.000000 1.000000 0.000000
vn 0.000000 1.000000 0.000000
vn 0.000000 1.000000 0.000000
vn 0.000000 0.616535 -0.787328
vn 0.000000 0.616534 -0.787328
vn 0.000000 0.616534 -0.787328
vn 0.000000 0.616535 -0.787328
vn 0.000000 -1.000000 0.000000
vn 0.000000 -1.000000 0.000000
vn 0.000000 -1.000000 0.000000
vn 0.000000 -1.000000 0.000000
vn 0.733368 0.679832 0.000000
vn 0.733368 0.679832 0.000000
vn 0.733368 0.679832 0.000000
vn 0.733368 0.679832 0.000000
vn -0.733368 0.679832 0.000000
vn -0.733368 0.679832 0.000000
vn -0.733368 0.679832 0.000000
vn -0.733368 0.679832 0.000000
vn 0.000000 1.000000 0.000000
vn 0.000000 1.000000 0.000000
vn 0.000000 1.000000 0.000000
vn 0.000000 1.000000 0.000000
vn 0.000000 0.616534 -0.787328
vn 0.000000 0.616534 -0.787328
vn 0.000000 0.616535 -0.787328
vn 0.000000 0.616535 -0.787328
vn 0.000000 -1.000000 0.000000
vn 0.000000 -1.000000 0.000000
vn 0.000000 -1.000000 0.000000
vn 0.000000 -1.000000 0.000000
vn 0.000000 0.616533 0.787329
vn 0.000000 0.616533 0.787329
vn 0.000000 0.616533 0.787329
vn 0.000000 0.616533 0.787329
vn 0.000000 0.616534 -0.787328
vn 0.000000 0.616534 -0.787328
vn 0.000000 -1.000000 0.000000
vn 0.000000 -1.000000 0.000000
vn 0.000000 0.528043 0.849218
vn 0.000000 0.528043 0.849218
vn 0.000000 0.528043 0.849218
vn 0.000000 0.528043 0.849218
vn 0.000000 1.000000 0.000000
vn 0.000000 1.000000 0.000000
vn 0.000000 -1.000000 0.000000
vn 0.000000 -1.000000 0.000000
vn 0.000000 -1.000000 0.000000
vn 0.000000 -1.000000 0.000000
vn 0.855810 0.517291 0.000000
vn 0.855810 0.517290 0.000000
vn 0.855810 0.517291 0.000000
vn 0.855810 0.517291 0.000000
vn 0.000000 1.000000 0.000000
vn 0.000000 1.000000 0.000000
vn 0.000000 1.000000 0.000000
vn 0.000000 1.000000 0.000000
vn -0.733369 0.679831 0.000000
vn -0.733369 0.679831 0.000000
vn -0.733369 0.679831 0.000000
vn -0.733369 0.679831 0.000000
vn -0.855810 0.517290 0.000000
vn -0.855810 0.517291 0.000000
vn -0.855810 0.517291 0.000000
vn -0.855810 0.517291 0.000000
vn 0.000000 -1.000000 0.000000
vn 0.000000 -1.000000 0.000000
vn 0.000000 -1.000000 0.000000
vn 0.000000 -1.000000 0.000000
vn 0.733368 0.679832 0.000000
vn 0.733368 0.679832 0.000000
vn 0.733368 0.679832 0.000000
vn 0.733368 0.679832 0.000000
vn 0.000000 1.000000 0.000000
vn 0.000000 1.000000 0.000000
vn 0.000000 1.000000 0.000000
vn 0.000000 1.000000 0.000000
vn 0.000000 0.528043 0.849218
vn 0.000000 0.528043 0.849218
f 17/1/1 18/2/2 19/3/3 20/4/4
f 3/5/5 16/6/6 13/7/7 5/8/8
f 5/8/9 13/7/10 14/9/11 7/10/12
f 7/10/13 14/9/14 15/11/15 1/12/16
f 2/13/17 8/14/18 6/15/19 4/16/20
f 7/10/21 1/12/22 3/5/23 5/8/24
f 12/17/25 9/18/26 4/16/27 6/15/28
f 11/19/29 12/17/30 6/15/31 8/14/32
f 10/20/33 11/19/34 8/14/35 2/13/36
f 21/21/37 22/22/38 23/23/39 24/24/40
f 27/27/41 14/9/11 13/7/10 26/26/42
f 28/28/43 15/11/15 14/9/14 27/27/44
f 28/28/45 25/25/46 16/6/47 15/11/48
f 26/26/49 13/7/7 16/6/6 25/25/50
f 1/12/51 15/11/52 18/2/53 17/1/54
f 15/11/55 16/6/56 19/3/57 18/2/58
f 16/6/59 3/5/60 20/4/61 19/3/62
f 3/5/63 1/12/64 17/1/65 20/4/66
f 9/18/67 10/20/68 22/22/69 21/21/70
f 10/20/71 2/13/72 23/23/73 22/22/74
f 2/13/75 4/16/76 24/24/77 23/23/78
f 4/16/79 9/18/80 21/21/81 24/24/82
f 12/17/25 26/26/49 25/25/50 9/18/26
f 11/19/29 27/27/41 26/26/42 12/17/30
f 10/20/33 28/28/43 27/27/44 11/19/34
f 9/18/83 25/25/46 28/28/45 10/20/84
