# This file uses meters as units for non-parametric coordinates.

v -22.848185 -1.584458 98.066158
v -19.355221 -1.584458 98.066158
v -22.848185 1.584458 98.066158
v -19.355221 1.584458 98.066158
v -22.848185 1.584458 88.979351
v -19.355221 1.584458 88.979351
v -22.848185 -1.584458 88.979351
v -19.355221 -1.584458 88.979351
v -24.822670 -4.162365 97.873836
v 24.822670 -4.162365 97.873836
v -24.822670 4.162365 97.873836
v 24.822670 4.162365 97.873836
v -24.822670 4.162365 94.384716
v 24.822670 4.162365 94.384716
v -24.822670 -4.162365 94.384716
v 24.822670 -4.162365 94.384716
v 12.411335 5.981382 101.923259
v 12.411335 5.981382 98.434124
v 12.411335 -5.981382 98.434124
v 12.411335 -5.981382 101.923259
v -0.000002 6.809326 102.984935
v -0.000002 6.809326 99.495815
v -0.000002 -6.809326 99.495815
v -0.000002 -6.809326 102.984935
v -12.411336 5.981382 101.923259
v -12.411336 5.981382 98.434124
v -12.411336 -5.981382 98.434124
v -12.411336 -5.981382 101.923259
v 22.848185 1.584458 98.066158
v 19.355221 1.584458 98.066158
v 19.355221 1.584458 88.979351
v 22.848185 1.584458 88.979351
v 22.848185 -1.584458 88.979351
v 19.355221 -1.584458 88.979351
v 19.355221 -1.584458 98.066158
v 22.848185 -1.584458 98.066158
vt 0.639719 0.173229
vt 0.639719 0.144630
vt 0.731927 0.144630
vt 0.731927 0.173229
vt 0.731927 0.144630
vt 0.731927 0.173229
vt 0.639719 0.173229
vt 0.639719 0.144630
vt 0.730852 0.173229
vt 0.638900 0.144630
vt 0.731363 0.173229
vt 0.731926 0.144630
vt 0.639718 0.144630
vt 0.731108 0.144630
vt 0.644619 0.169821
vt 0.732041 0.169821
vt 0.732041 0.140544
vt 0.644619 0.140446
vt 0.732041 0.132944
vt 0.644619 0.132324
vt 0.732041 0.169734
vt 0.644619 0.169734
vt 0.732041 0.179349
vt 0.644619 0.179349
vt 0.644619 0.169821
vt 0.732041 0.169821
vt 0.732041 0.139563
vt 0.644619 0.140468
vt 0.732041 0.169821
vt 0.732041 0.139565
vt 0.732041 0.140547
vt 0.644619 0.132318
vt 0.732041 0.132943
vt 0.732041 0.169734
vt 0.644619 0.169734
vt 0.732041 0.179349
vt 0.644619 0.179349
vt 0.732041 0.169821
vt 0.644619 0.140511
vt 0.644619 0.133165
vt 0.644619 0.169734
vt 0.644619 0.179349
vt 0.644619 0.169821
vt 0.639412 0.144630
vt 0.731620 0.144630
vt 0.639156 0.173229
vt 0.638644 0.173229
vt 0.638388 0.144630
vt 0.730596 0.144630
vn 0.000000 1.000000 0.000000
vn 0.000000 1.000000 0.000000
vn 0.000000 1.000000 0.000000
vn 0.000000 1.000000 0.000000
vn 0.000000 -1.000000 0.000000
vn 0.000000 -1.000000 0.000000
vn 0.000000 -1.000000 0.000000
vn 0.000000 -1.000000 0.000000
vn 1.000000 0.000000 0.000000
vn 1.000000 0.000000 0.000000
vn 1.000000 0.000000 0.000000
vn 1.000000 0.000000 0.000000
vn -1.000000 0.000000 0.000000
vn -1.000000 0.000000 0.000000
vn -1.000000 0.000000 0.000000
vn -1.000000 0.000000 0.000000
vn -0.310177 0.000000 0.950679
vn -0.181105 0.000000 0.983464
vn -0.181105 0.000000 0.983464
vn -0.310177 0.000000 0.950679
vn -0.145012 0.989430 0.000000
vn -0.100677 0.994919 0.000000
vn -0.110661 0.993858 0.000000
vn -0.145012 0.989430 0.000000
vn 0.310174 0.000000 -0.950680
vn 0.181105 0.000000 -0.983464
vn 0.181105 0.000000 -0.983464
vn 0.310174 0.000000 -0.950680
vn -0.145012 -0.989430 0.000000
vn -0.110661 -0.993858 0.000000
vn -0.100677 -0.994919 0.000000
vn -0.145012 -0.989430 0.000000
vn 1.000000 0.000000 0.000000
vn 1.000000 0.000000 0.000000
vn 1.000000 0.000000 0.000000
vn 1.000000 0.000000 0.000000
vn -1.000000 0.000000 0.000000
vn -1.000000 0.000000 0.000000
vn -1.000000 0.000000 0.000000
vn -1.000000 0.000000 0.000000
vn 0.100677 0.994919 0.000000
vn 0.145012 0.989430 0.000000
vn 0.145012 0.989430 0.000000
vn 0.110661 0.993858 0.000000
vn -0.181105 0.000000 -0.983464
vn -0.181105 0.000000 -0.983464
vn -0.310175 0.000000 -0.950680
vn -0.310175 0.000000 -0.950680
vn 0.100677 -0.994919 0.000000
vn 0.110661 -0.993858 0.000000
vn 0.145012 -0.989430 0.000000
vn 0.145012 -0.989430 0.000000
vn 0.181104 0.000000 0.983464
vn 0.181104 0.000000 0.983464
vn 0.310177 0.000000 0.950679
vn 0.310177 0.000000 0.950679
vn -0.000000 1.000000 0.000000
vn 0.000000 1.000000 0.000000
vn 0.000000 0.000000 -1.000000
vn 0.000000 0.000000 -1.000000
vn -0.000000 -1.000000 0.000000
vn 0.000000 -1.000000 0.000000
vn -0.000000 0.000000 1.000000
vn -0.000000 0.000000 1.000000
vn 0.000000 1.000000 0.000000
vn 0.000000 1.000000 0.000000
vn 0.000000 1.000000 0.000000
vn 0.000000 1.000000 0.000000
vn 0.000000 -1.000000 0.000000
vn 0.000000 -1.000000 0.000000
vn 0.000000 -1.000000 0.000000
vn 0.000000 -1.000000 0.000000
vn -1.000000 0.000000 0.000000
vn -1.000000 0.000000 0.000000
vn -1.000000 0.000000 0.000000
vn -1.000000 0.000000 0.000000
vn 1.000000 0.000000 0.000000
vn 1.000000 0.000000 0.000000
vn 1.000000 0.000000 0.000000
vn 1.000000 0.000000 0.000000
f 3/1/1 4/2/2 6/3/3 5/4/4
f 7/5/5 8/6/6 2/7/7 1/8/8
f 2/7/9 8/6/10 6/3/11 4/2/12
f 7/12/13 1/13/14 3/1/15 5/4/16
f 9/15/17 28/16/18 25/17/19 11/18/20
f 11/18/21 25/17/22 26/19/23 13/20/24
f 13/20/25 26/19/26 27/21/27 15/22/28
f 15/22/29 27/21/30 28/23/31 9/24/32
f 10/25/33 16/26/34 14/27/35 12/28/36
f 15/29/37 9/15/38 11/18/39 13/30/40
f 17/31/41 12/28/42 14/32/43 18/33/44
f 19/34/45 18/33/46 14/32/47 16/35/48
f 20/36/49 19/34/50 16/35/51 10/37/52
f 17/31/53 20/38/54 10/25/55 12/28/56
f 21/39/57 17/31/41 18/33/44 22/40/58
f 23/41/59 22/40/60 18/33/46 19/34/45
f 24/42/61 23/41/62 19/34/50 20/36/49
f 21/39/63 24/43/64 20/38/54 17/31/53
f 25/17/22 21/39/57 22/40/58 26/19/23
f 27/21/27 26/19/26 22/40/60 23/41/59
f 28/23/31 27/21/30 23/41/62 24/42/61
f 25/17/19 28/16/18 24/43/64 21/39/63
f 29/14/65 32/10/66 31/46/67 30/11/68
f 33/47/69 36/9/70 35/49/71 34/48/72
f 35/45/73 30/11/74 31/46/75 34/44/76
f 33/47/77 32/10/78 29/14/79 36/9/80
