# This file uses meters as units for non-parametric coordinates.

v 177.327194 294.907318 75.487343
v 177.327194 288.548920 75.487343
v 267.628143 288.548920 75.487343
v 267.628143 294.907318 75.487343
v 177.327194 288.548920 0.000000
v 267.628143 288.548920 0.000000
v 267.628143 294.907318 0.000000
v 177.327194 294.907318 0.000000
v 177.327194 374.499115 75.487343
v 177.327194 368.140747 75.487343
v 267.628143 368.140747 75.487343
v 267.628143 374.499115 75.487343
v 177.327194 368.140747 0.000000
v 267.628143 368.140747 0.000000
v 267.628143 374.499115 0.000000
v 177.327194 374.499115 0.000000
v 177.327194 219.447800 75.487343
v 177.327194 213.089417 75.487343
v 267.628143 213.089417 75.487343
v 267.628143 219.447800 75.487343
v 177.327194 213.089417 0.000000
v 267.628143 213.089417 0.000000
v 267.628143 219.447800 0.000000
v 177.327194 219.447800 0.000000
v 177.327194 142.359100 75.487343
v 177.327194 136.000702 75.487343
v 267.628143 136.000702 75.487343
v 267.628143 142.359100 75.487343
v 177.327194 136.000702 0.000000
v 267.628143 136.000702 0.000000
v 267.628143 142.359100 0.000000
v 177.327194 142.359100 0.000000
v 177.327194 66.170807 75.487343
v 177.327194 59.812408 75.487343
v 267.628143 59.812408 75.487343
v 267.628143 66.170807 75.487343
v 177.327194 59.812408 0.000000
v 267.628143 59.812408 0.000000
v 267.628143 66.170807 0.000000
v 177.327194 66.170807 0.000000
v 177.327194 60.467373 68.338516
v 267.628143 60.467373 68.338516
v 267.628143 60.467373 74.696915
v 177.327194 60.467373 74.696915
v 177.327194 0.000000 74.696915
v 267.628143 0.000000 74.696915
v 177.327194 0.000000 68.338516
v 267.628143 0.000000 68.338516
v 267.628143 0.000000 77.051010
v 267.628143 376.767212 77.051010
v 273.986511 0.000000 77.051010
v 273.986511 376.767212 77.051010
v 273.986511 0.000000 0.000000
v 273.986511 376.767212 0.000000
v 267.628143 0.000000 0.000000
v 267.628143 376.767212 0.000000
v 273.986511 188.383606 77.051010
v 273.986511 188.383606 0.000000
v 267.628143 188.383606 0.000000
v 267.628143 188.383606 77.051010
v 170.968811 0.000000 77.051010
v 170.968811 376.767212 77.051010
v 177.327194 0.000000 77.051010
v 177.327194 376.767212 77.051010
v 177.327194 0.000000 0.000000
v 177.327194 376.767212 0.000000
v 170.968811 0.000000 0.000000
v 170.968811 376.767212 0.000000
v 177.327194 188.383606 77.051010
v 177.327194 188.383606 0.000000
v 170.968811 188.383606 0.000000
v 170.968811 188.383606 77.051010
v 177.327194 0.000000 0.000000
v 177.327194 376.767212 0.000000
v 177.327194 0.000000 6.358380
v 177.327194 376.767212 6.358380
v 267.628143 0.000000 6.358380
v 267.628143 376.767212 6.358380
v 267.628143 0.000000 0.000000
v 267.628143 376.767212 0.000000
v 177.327194 188.383606 6.358380
v 267.628143 188.383606 6.358380
v 267.628143 188.383606 0.000000
v 177.327194 188.383606 0.000000
vt 0.890618 0.637854
vt 0.890618 0.734353
vt 0.890618 0.637059
vt 0.890618 0.734360
vt 0.890618 0.638412
vt 0.890618 0.734484
vt 0.890618 0.734349
vt 0.986753 0.734351
vt 0.986753 0.637059
vt 0.986753 0.734360
vt 0.986753 0.638412
vt 0.890618 0.637854
vt 0.890618 0.734484
vt 0.890618 0.734349
vt 0.890618 0.734353
vt 0.986753 0.734351
vt 0.890618 0.637059
vt 0.986753 0.637059
vt 0.986753 0.638412
vt 0.986753 0.734360
vt 0.890618 0.734360
vt 0.890618 0.638412
vt 0.890618 0.637854
vt 0.890618 0.734484
vt 0.890618 0.734349
vt 0.890618 0.734353
vt 0.986753 0.734351
vt 0.890618 0.637059
vt 0.986753 0.637059
vt 0.986753 0.638412
vt 0.986753 0.734360
vt 0.890618 0.734360
vt 0.890618 0.638412
vt 0.890618 0.637854
vt 0.890618 0.734484
vt 0.890618 0.734349
vt 0.890618 0.734353
vt 0.986753 0.734351
vt 0.890618 0.637059
vt 0.986753 0.637059
vt 0.986753 0.638412
vt 0.986753 0.734360
vt 0.890618 0.734360
vt 0.890618 0.638412
vt 0.890618 0.637854
vt 0.890618 0.734484
vt 0.890618 0.734349
vt 0.890618 0.734353
vt 0.986753 0.734351
vt 0.890618 0.637059
vt 0.986753 0.637059
vt 0.986753 0.638412
vt 0.986753 0.734360
vt 0.890618 0.734360
vt 0.890618 0.638412
vt 0.986753 0.734351
vt 0.890618 0.734353
vt 0.890618 0.637059
vt 0.986753 0.637059
vt 0.986753 0.638412
vt 0.986753 0.734360
vt 0.890618 0.734360
vt 0.890618 0.638412
vt 0.890618 0.637857
vt 0.986753 0.637855
vt 0.986753 0.734351
vt 0.890618 0.734349
vt 0.986753 0.637059
vt 0.890618 0.637059
vt 0.986753 0.734360
vt 0.890618 0.734360
vt 0.986753 0.638412
vt 0.890618 0.638413
vt 0.890618 0.637854
vt 0.890618 0.734484
vt 0.890618 0.734349
vt 0.890618 0.734353
vt 0.890618 0.734482
vt 0.890618 0.734353
vt 0.890618 0.637059
vt 0.890618 0.734360
vt 0.890618 0.638412
vt 0.890618 0.637857
vt 0.986753 0.637855
vt 0.986753 0.734351
vt 0.890618 0.734349
vt 0.986753 0.637059
vt 0.890618 0.637059
vt 0.986753 0.734360
vt 0.890618 0.734360
vt 0.986753 0.638412
vt 0.890618 0.638413
vt 0.890618 0.637854
vt 0.890618 0.734484
vt 0.890618 0.734349
vt 0.890618 0.734353
vt 0.890618 0.734482
vt 0.890618 0.734353
vt 0.890618 0.637059
vt 0.890618 0.734360
vt 0.890618 0.638412
vt 0.890618 0.734349
vt 0.986753 0.734351
vt 0.986753 0.637059
vt 0.890618 0.637059
vt 0.890618 0.734360
vt 0.986753 0.734360
vt 0.986753 0.638412
vt 0.890618 0.638413
vt 0.890618 0.637854
vt 0.890618 0.734484
vt 0.890618 0.734349
vt 0.890618 0.734353
vt 0.890618 0.734482
vt 0.890618 0.637857
vt 0.890618 0.734353
vt 0.890618 0.637059
vt 0.890618 0.734360
vt 0.890618 0.638412
vn 0.000000 0.000000 1.000000
vn 0.000000 0.000000 1.000000
vn 0.000000 0.000000 1.000000
vn 0.000000 0.000000 1.000000
vn 0.000000 -1.000000 0.000000
vn 0.000000 -1.000000 0.000000
vn 0.000000 -1.000000 0.000000
vn 0.000000 -1.000000 0.000000
vn 0.000000 1.000000 0.000000
vn 0.000000 1.000000 0.000000
vn 0.000000 1.000000 0.000000
vn 0.000000 1.000000 0.000000
vn 0.000000 0.000000 1.000000
vn 0.000000 0.000000 1.000000
vn 0.000000 0.000000 1.000000
vn 0.000000 0.000000 1.000000
vn 0.000000 -1.000000 0.000000
vn 0.000000 -1.000000 0.000000
vn 0.000000 -1.000000 0.000000
vn 0.000000 -1.000000 0.000000
vn 0.000000 1.000000 0.000000
vn 0.000000 1.000000 0.000000
vn 0.000000 1.000000 0.000000
vn 0.000000 1.000000 0.000000
vn 0.000000 0.000000 1.000000
vn 0.000000 0.000000 1.000000
vn 0.000000 0.000000 1.000000
vn 0.000000 0.000000 1.000000
vn 0.000000 -1.000000 0.000000
vn 0.000000 -1.000000 0.000000
vn 0.000000 -1.000000 0.000000
vn 0.000000 -1.000000 0.000000
vn 0.000000 1.000000 0.000000
vn 0.000000 1.000000 0.000000
vn 0.000000 1.000000 0.000000
vn 0.000000 1.000000 0.000000
vn 0.000000 0.000000 1.000000
vn 0.000000 0.000000 1.000000
vn 0.000000 0.000000 1.000000
vn 0.000000 0.000000 1.000000
vn 0.000000 -1.000000 0.000000
vn 0.000000 -1.000000 0.000000
vn 0.000000 -1.000000 0.000000
vn 0.000000 -1.000000 0.000000
vn 0.000000 1.000000 0.000000
vn 0.000000 1.000000 0.000000
vn 0.000000 1.000000 0.000000
vn 0.000000 1.000000 0.000000
vn 0.000000 0.000000 1.000000
vn 0.000000 0.000000 1.000000
vn 0.000000 0.000000 1.000000
vn 0.000000 0.000000 1.000000
vn 0.000000 -1.000000 0.000000
vn 0.000000 -1.000000 0.000000
vn 0.000000 -1.000000 0.000000
vn 0.000000 -1.000000 0.000000
vn 0.000000 1.000000 0.000000
vn 0.000000 1.000000 0.000000
vn 0.000000 1.000000 0.000000
vn 0.000000 1.000000 0.000000
vn 0.000000 0.000000 1.000000
vn 0.000000 0.000000 1.000000
vn 0.000000 0.000000 1.000000
vn 0.000000 0.000000 1.000000
vn 0.000000 0.000000 -1.000000
vn 0.000000 0.000000 -1.000000
vn 0.000000 0.000000 -1.000000
vn 0.000000 0.000000 -1.000000
vn 0.000000 0.000000 1.000000
vn 0.000000 0.000000 1.000000
vn 0.000000 0.000000 1.000000
vn 0.000000 0.000000 1.000000
vn 1.000000 0.000000 0.000000
vn 1.000000 0.000000 0.000000
vn 1.000000 0.000000 0.000000
vn 1.000000 0.000000 0.000000
vn 0.000000 0.000000 -1.000000
vn 0.000000 0.000000 -1.000000
vn 0.000000 0.000000 -1.000000
vn 0.000000 0.000000 -1.000000
vn -1.000000 0.000000 0.000000
vn -1.000000 0.000000 0.000000
vn -1.000000 0.000000 0.000000
vn -1.000000 0.000000 0.000000
vn 0.000000 1.000000 0.000000
vn 0.000000 1.000000 0.000000
vn 0.000000 1.000000 0.000000
vn 0.000000 1.000000 0.000000
vn 0.000000 -1.000000 0.000000
vn 0.000000 -1.000000 0.000000
vn 0.000000 -1.000000 0.000000
vn 0.000000 -1.000000 0.000000
vn 1.000000 0.000000 0.000000
vn 1.000000 0.000000 0.000000
vn 0.000000 0.000000 -1.000000
vn 0.000000 0.000000 -1.000000
vn -1.000000 0.000000 0.000000
vn -1.000000 0.000000 0.000000
vn 0.000000 0.000000 1.000000
vn 0.000000 0.000000 1.000000
vn 0.000000 0.000000 1.000000
vn 0.000000 0.000000 1.000000
vn 0.000000 0.000000 1.000000
vn 0.000000 0.000000 1.000000
vn 1.000000 0.000000 0.000000
vn 1.000000 0.000000 0.000000
vn 1.000000 0.000000 0.000000
vn 1.000000 0.000000 0.000000
vn 0.000000 0.000000 -1.000000
vn 0.000000 0.000000 -1.000000
vn 0.000000 0.000000 -1.000000
vn 0.000000 0.000000 -1.000000
vn -1.000000 0.000000 0.000000
vn -1.000000 0.000000 0.000000
vn -1.000000 0.000000 0.000000
vn -1.000000 0.000000 0.000000
vn 0.000000 1.000000 0.000000
vn 0.000000 1.000000 0.000000
vn 0.000000 1.000000 0.000000
vn 0.000000 1.000000 0.000000
vn 0.000000 -1.000000 0.000000
vn 0.000000 -1.000000 0.000000
vn 0.000000 -1.000000 0.000000
vn 0.000000 -1.000000 0.000000
vn 1.000000 0.000000 0.000000
vn 1.000000 0.000000 0.000000
vn 0.000000 0.000000 -1.000000
vn 0.000000 0.000000 -1.000000
vn -1.000000 0.000000 0.000000
vn -1.000000 0.000000 0.000000
vn 0.000000 0.000000 1.000000
vn 0.000000 0.000000 1.000000
vn 0.000000 0.000000 1.000000
vn 0.000000 0.000000 1.000000
vn 0.000000 0.000000 1.000000
vn 0.000000 0.000000 1.000000
vn 0.000000 0.000000 -1.000000
vn 0.000000 0.000000 -1.000000
vn 0.000000 0.000000 -1.000000
vn 0.000000 0.000000 -1.000000
vn 0.000000 1.000000 0.000000
vn 0.000000 1.000000 0.000000
vn 0.000000 1.000000 0.000000
vn 0.000000 1.000000 0.000000
vn 0.000000 -1.000000 0.000000
vn 0.000000 -1.000000 0.000000
vn 0.000000 -1.000000 0.000000
vn 0.000000 -1.000000 0.000000
vn 0.000000 0.000000 1.000000
vn 0.000000 0.000000 1.000000
vn 0.000000 0.000000 -1.000000
vn 0.000000 0.000000 -1.000000
vn 0.000000 -1.000000 -0.000000
vn 0.000000 -1.000000 -0.000000
vn 0.000000 -1.000000 -0.000000
vn 0.000000 -1.000000 -0.000000
f 1/1/1 2/2/2 3/7/3 4/6/4
f 5/8/5 6/9/6 3/3/7 2/2/8
f 8/11/9 1/5/10 4/4/11 7/10/12
f 9/12/13 10/15/14 11/14/15 12/13/16
f 13/16/17 14/18/18 11/17/19 10/15/20
f 16/19/21 9/22/22 12/21/23 15/20/24
f 17/23/25 18/26/26 19/25/27 20/24/28
f 21/27/29 22/29/30 19/28/31 18/26/32
f 24/30/33 17/33/34 20/32/35 23/31/36
f 25/34/37 26/37/38 27/36/39 28/35/40
f 29/38/41 30/40/42 27/39/43 26/37/44
f 32/41/45 25/44/46 28/43/47 31/42/48
f 33/45/49 34/48/50 35/47/51 36/46/52
f 37/49/53 38/51/54 35/50/55 34/48/56
f 40/52/57 33/55/58 36/54/59 39/53/60
f 45/56/61 46/59/62 43/58/63 44/57/64
f 47/60/65 41/63/66 42/62/67 48/61/68
f 49/64/69 51/67/70 57/66/71 60/65/72
f 51/67/73 53/69/74 58/68/75 57/66/76
f 53/69/77 55/71/78 59/70/79 58/68/80
f 55/71/81 49/73/82 60/72/83 59/70/84
f 50/74/85 52/77/86 54/76/87 56/75/88
f 55/78/89 53/79/90 51/67/91 49/64/92
f 57/66/76 58/68/75 54/80/93 52/77/94
f 59/70/79 56/81/95 54/80/96 58/68/80
f 60/72/83 50/82/97 56/81/98 59/70/84
f 57/66/71 52/77/99 50/74/100 60/65/72
f 61/83/101 63/86/102 69/85/103 72/84/104
f 63/86/105 65/88/106 70/87/107 69/85/108
f 65/88/109 67/90/110 71/89/111 70/87/112
f 67/90/113 61/92/114 72/91/115 71/89/116
f 62/93/117 64/96/118 66/95/119 68/94/120
f 67/97/121 65/98/122 63/86/123 61/83/124
f 69/85/108 70/87/107 66/99/125 64/96/126
f 71/89/111 68/100/127 66/99/128 70/87/112
f 72/91/115 62/101/129 68/100/130 71/89/116
f 69/85/103 64/96/131 62/93/132 72/84/104
f 75/102/133 77/105/134 82/104/135 81/103/136
f 79/106/137 73/109/138 84/108/139 83/107/140
f 74/110/141 76/113/142 78/112/143 80/111/144
f 79/114/145 77/116/146 75/102/147 73/115/148
f 81/103/136 82/104/135 78/117/149 76/113/150
f 84/108/139 74/119/151 80/118/152 83/107/140
f 45/56/153 47/60/154 48/61/155 46/59/156
