# This file uses meters as units for non-parametric coordinates.

v 200.490112 0.000000 84.206108
v 187.752304 0.000000 84.206108
v 203.066452 12.888474 86.782440
v 185.175964 12.888474 86.782440
v 203.066452 12.888474 68.891953
v 185.175964 12.888474 68.891953
v 200.490112 0.000000 71.468285
v 187.752304 0.000000 71.468285
v 200.490112 0.000000 8.299427
v 187.752304 0.000000 8.299427
v 203.066452 12.888474 10.875766
v 185.175964 12.888474 10.875766
v 203.066452 12.888474 -7.014729
v 185.175964 12.888474 -7.014729
v 200.490112 0.000000 -4.438391
v 187.752304 0.000000 -4.438391
v -200.490112 0.000000 8.299427
v -187.752289 0.000000 8.299427
v -203.066452 12.888474 10.875766
v -185.175949 12.888474 10.875766
v -203.066452 12.888474 -7.014729
v -185.175949 12.888474 -7.014729
v -200.490112 0.000000 -4.438391
v -187.752289 0.000000 -4.438391
v -200.490112 0.000000 84.206108
v -187.752289 0.000000 84.206108
v -203.066452 12.888474 86.782440
v -185.175949 12.888474 86.782440
v -203.066452 12.888474 68.891953
v -185.175949 12.888474 68.891953
v -200.490112 0.000000 71.468285
v -187.752289 0.000000 71.468285
vt 0.651016 0.072897
vt 0.717605 0.072897
vt 0.651016 0.113107
vt 0.717605 0.113107
vt 0.717605 0.113107
vt 0.651016 0.113107
vt 0.717605 0.072897
vt 0.651016 0.072897
vt 0.717605 0.113107
vt 0.651016 0.113107
vt 0.717604 0.113107
vt 0.717604 0.072897
vt 0.651016 0.072897
vt 0.651016 0.113107
vt 0.717605 0.113107
vt 0.717605 0.072897
vt 0.717605 0.113107
vt 0.717605 0.072897
vt 0.651016 0.072897
vt 0.651016 0.113107
vt 0.717605 0.113107
vt 0.651016 0.113107
vt 0.717604 0.072897
vt 0.717604 0.113107
vt 0.651016 0.072897
vt 0.717605 0.072897
vt 0.717605 0.113107
vt 0.651016 0.113107
vt 0.717605 0.113107
vt 0.651016 0.113107
vt 0.651016 0.072897
vt 0.717605 0.072897
vt 0.651016 0.113107
vt 0.717605 0.113107
vt 0.717604 0.072897
vt 0.717604 0.113107
vt 0.651016 0.072897
vt 0.717605 0.072897
vt 0.717605 0.113107
vt 0.651016 0.113107
vt 0.717605 0.113107
vt 0.651016 0.113107
vt 0.651016 0.072897
vt 0.717605 0.072897
vt 0.651016 0.113107
vt 0.717605 0.113107
vt 0.717604 0.072897
vt 0.717604 0.113107
vn 0.000000 -0.196017 0.980601
vn 0.000000 -0.196017 0.980601
vn 0.000000 -0.196017 0.980601
vn 0.000000 -0.196017 0.980601
vn 0.000000 -0.196017 -0.980601
vn 0.000000 -0.196017 -0.980601
vn 0.000000 -0.196017 -0.980601
vn 0.000000 -0.196017 -0.980601
vn 0.000000 -1.000000 0.000000
vn 0.000000 -1.000000 0.000000
vn 0.000000 -1.000000 0.000000
vn 0.000000 -1.000000 0.000000
vn -0.980601 -0.196016 0.000000
vn -0.980601 -0.196016 0.000000
vn -0.980601 -0.196016 0.000000
vn -0.980601 -0.196016 0.000000
vn 0.980601 -0.196016 0.000000
vn 0.980601 -0.196016 0.000000
vn 0.980601 -0.196016 0.000000
vn 0.980601 -0.196016 0.000000
vn 0.000000 -0.196017 0.980601
vn 0.000000 -0.196017 0.980601
vn 0.000000 -0.196017 0.980601
vn 0.000000 -0.196017 0.980601
vn 0.000000 -0.196017 -0.980601
vn 0.000000 -0.196017 -0.980601
vn 0.000000 -0.196017 -0.980601
vn 0.000000 -0.196017 -0.980601
vn 0.000000 -1.000000 0.000000
vn 0.000000 -1.000000 0.000000
vn 0.000000 -1.000000 0.000000
vn 0.000000 -1.000000 0.000000
vn -0.980600 -0.196018 0.000000
vn -0.980600 -0.196018 0.000000
vn -0.980600 -0.196018 0.000000
vn -0.980600 -0.196018 0.000000
vn 0.980600 -0.196019 0.000000
vn 0.980600 -0.196019 0.000000
vn 0.980600 -0.196019 0.000000
vn 0.980600 -0.196019 0.000000
vn 0.000000 -0.196017 0.980601
vn 0.000000 -0.196017 0.980601
vn 0.000000 -0.196017 0.980601
vn 0.000000 -0.196017 0.980601
vn 0.000000 -0.196017 -0.980601
vn 0.000000 -0.196017 -0.980601
vn 0.000000 -0.196017 -0.980601
vn 0.000000 -0.196017 -0.980601
vn 0.000000 -1.000000 0.000000
vn 0.000000 -1.000000 0.000000
vn 0.000000 -1.000000 0.000000
vn 0.000000 -1.000000 0.000000
vn 0.980601 -0.196017 0.000000
vn 0.980601 -0.196017 0.000000
vn 0.980601 -0.196017 0.000000
vn 0.980601 -0.196017 0.000000
vn -0.980601 -0.196017 0.000000
vn -0.980601 -0.196017 0.000000
vn -0.980601 -0.196017 0.000000
vn -0.980601 -0.196017 0.000000
vn 0.000000 -0.196017 0.980601
vn 0.000000 -0.196017 0.980601
vn 0.000000 -0.196017 0.980601
vn 0.000000 -0.196017 0.980601
vn 0.000000 -0.196017 -0.980601
vn 0.000000 -0.196017 -0.980601
vn 0.000000 -0.196017 -0.980601
vn 0.000000 -0.196017 -0.980601
vn 0.000000 -1.000000 0.000000
vn 0.000000 -1.000000 0.000000
vn 0.000000 -1.000000 0.000000
vn 0.000000 -1.000000 0.000000
vn 0.980601 -0.196017 0.000000
vn 0.980601 -0.196017 0.000000
vn 0.980601 -0.196017 0.000000
vn 0.980601 -0.196017 0.000000
vn -0.980601 -0.196016 0.000000
vn -0.980601 -0.196016 0.000000
vn -0.980601 -0.196016 0.000000
vn -0.980601 -0.196016 0.000000
f 1/1/1 3/3/2 4/4/3 2/2/4
f 5/5/5 7/7/6 8/8/7 6/6/8
f 7/7/9 1/9/10 2/10/11 8/8/12
f 2/2/13 4/4/14 6/6/15 8/8/16
f 7/12/17 5/11/18 3/3/19 1/1/20
f 9/13/21 11/14/22 12/15/23 10/16/24
f 13/17/25 15/18/26 16/19/27 14/20/28
f 15/18/29 9/21/30 10/22/31 16/19/32
f 10/16/33 12/15/34 14/20/35 16/19/36
f 15/23/37 13/24/38 11/14/39 9/13/40
f 17/25/41 18/26/42 20/27/43 19/28/44
f 21/29/45 22/30/46 24/31/47 23/32/48
f 23/32/49 24/31/50 18/33/51 17/34/52
f 18/26/53 24/31/54 22/30/55 20/27/56
f 23/35/57 17/25/58 19/28/59 21/36/60
f 25/37/61 26/38/62 28/39/63 27/40/64
f 29/41/65 30/42/66 32/43/67 31/44/68
f 31/44/69 32/43/70 26/45/71 25/46/72
f 26/38/73 32/43/74 30/42/75 28/39/76
f 31/47/77 25/37/78 27/40/79 29/48/80
