# This file uses meters as units for non-parametric coordinates.

v -278.038818 102.186218 69.879128
v -278.038818 102.186218 75.841141
v -278.038818 332.186981 69.879128
v -278.038818 332.186981 75.841141
v -214.701874 332.186981 75.841141
v -214.701874 332.186981 69.879128
v -214.701874 102.186218 69.879128
v -214.701874 102.186218 75.841141
vt 0.508528 0.881876
vt 0.521534 0.881876
vt 0.521534 0.900549
vt 0.508528 0.900549
vt 0.508528 0.900549
vt 0.508528 0.900549
vt 0.508528 0.881876
vt 0.508528 0.881876
vt 0.521534 0.900549
vt 0.521534 0.881876
vn 0.000000 0.000000 -1.000000
vn 0.000000 0.000000 -1.000000
vn 0.000000 0.000000 -1.000000
vn 0.000000 0.000000 -1.000000
vn -1.000000 0.000000 0.000000
vn -1.000000 0.000000 0.000000
vn -1.000000 0.000000 0.000000
vn -1.000000 0.000000 0.000000
vn 0.000000 0.000000 1.000000
vn 0.000000 0.000000 1.000000
vn 0.000000 0.000000 1.000000
vn 0.000000 0.000000 1.000000
f 3/1/1 6/2/2 7/3/3 1/4/4
f 1/5/5 2/6/6 4/7/7 3/8/8
f 8/9/9 5/10/10 4/7/11 2/6/12
