# This file uses meters as units for non-parametric coordinates.

v -200.000000 12.888471 90.605529
v 200.000000 12.888471 90.605529
v -200.000000 79.002790 90.605529
v 200.000000 79.002790 90.605529
v -200.000000 79.002790 -9.394471
v 200.000000 79.002790 -9.394471
v -200.000000 12.888471 -9.394471
v 200.000000 12.888471 -9.394471
v -200.000000 32.914533 90.605529
v -200.000000 32.914533 -9.394471
v 200.000000 32.914533 -9.394471
v 200.000000 32.914533 90.605529
v -200.000000 72.826894 90.605529
v -200.000000 72.826894 -9.394471
v 200.000000 72.826894 -9.394471
v 200.000000 72.826894 90.605529
v -66.666656 72.826894 90.605529
v -66.666656 32.914533 90.605529
v -66.666656 12.888471 90.605529
v -66.666656 12.888471 -9.394471
v -66.666656 32.914533 -9.394471
v -66.666656 72.826894 -9.394471
v -66.666656 79.002790 -9.394471
v -66.666656 79.002790 90.605529
v 66.666672 72.826894 90.605529
v 66.666672 32.914533 90.605529
v 66.666672 12.888471 90.605529
v 66.666672 12.888471 -9.394471
v 66.666672 32.914533 -9.394471
v 66.666672 72.826894 -9.394471
v 66.666672 79.002790 -9.394471
v 66.666672 79.002790 90.605529
v 207.195923 12.888471 -9.394471
v 207.195923 12.888471 90.605529
v 207.195923 32.914533 -9.394471
v 207.195923 32.914533 90.605529
v 207.195923 72.826894 -9.394471
v 207.195923 72.826894 90.605529
v 207.195923 79.002790 -9.394471
v 207.195923 79.002790 90.605529
v -207.195923 12.888471 -9.394471
v -207.195923 12.888471 90.605529
v -207.195923 32.914533 90.605529
v -207.195923 32.914533 -9.394471
v -207.195923 72.826894 90.605529
v -207.195923 72.826894 -9.394471
v -207.195923 79.002790 90.605529
v -207.195923 79.002790 -9.394471
v 200.000000 72.826894 -2.771455
v 66.666672 72.826894 -2.771455
v 66.666672 32.914533 -2.771455
v 200.000000 32.914533 -2.771455
v -66.666656 72.826894 -2.771455
v -200.000000 72.826894 -2.771455
v -200.000000 32.914533 -2.771455
v -66.666656 32.914533 -2.771455
vt 0.765618 0.811408
vt 0.765618 0.859483
vt 0.864627 0.859482
vt 0.864627 0.811408
vt 0.765618 0.860687
vt 0.765618 0.763332
vt 0.864627 0.763333
vt 0.864627 0.860687
vt 0.864627 0.763354
vt 0.765618 0.763354
vt 0.765618 0.812021
vt 0.864627 0.812020
vt 0.765618 0.861012
vt 0.864627 0.861011
vt 0.864627 0.859482
vt 0.765618 0.859484
vt 0.765618 0.811407
vt 0.864627 0.811408
vt 0.864627 0.859482
vt 0.765618 0.859484
vt 0.765618 0.811407
vt 0.864627 0.811408
vt 0.864627 0.771224
vt 0.765618 0.771223
vt 0.765618 0.811408
vt 0.864627 0.811408
vt 0.765618 0.771221
vt 0.864627 0.771224
vt 0.765618 0.852699
vt 0.864627 0.852699
vt 0.765618 0.771221
vt 0.864627 0.771224
vt 0.765618 0.771223
vt 0.864627 0.771224
vt 0.765618 0.763330
vt 0.864627 0.763333
vt 0.765618 0.763330
vt 0.864627 0.763333
vt 0.864627 0.771222
vt 0.765618 0.771221
vt 0.765618 0.811407
vt 0.864627 0.811407
vt 0.765618 0.811407
vt 0.765618 0.859484
vt 0.864627 0.859484
vt 0.864627 0.811407
vt 0.765618 0.861012
vt 0.765618 0.763354
vt 0.864627 0.763354
vt 0.864627 0.861012
vt 0.864627 0.812021
vt 0.765618 0.812021
vt 0.864627 0.852700
vt 0.765618 0.852700
vt 0.765618 0.860688
vt 0.864627 0.860687
vt 0.765618 0.763330
vt 0.864627 0.763331
vt 0.864627 0.771222
vt 0.765618 0.771221
vt 0.765618 0.859484
vt 0.765618 0.811407
vt 0.864627 0.859482
vt 0.864627 0.811408
vt 0.864627 0.771224
vt 0.765618 0.771221
vt 0.864627 0.763333
vt 0.765618 0.763330
vn 0.000000 0.000000 1.000000
vn 0.000000 0.000000 1.000000
vn 0.000000 0.000000 1.000000
vn 0.000000 0.000000 1.000000
vn 0.000000 1.000000 0.000000
vn 0.000000 1.000000 0.000000
vn 0.000000 1.000000 0.000000
vn 0.000000 1.000000 0.000000
vn 0.000000 0.000000 -1.000000
vn 0.000000 0.000000 -1.000000
vn 0.000000 0.000000 -1.000000
vn 0.000000 0.000000 -1.000000
vn 0.000000 -1.000000 0.000000
vn 0.000000 -1.000000 0.000000
vn 0.000000 -1.000000 0.000000
vn 0.000000 -1.000000 0.000000
vn 1.000000 0.000000 0.000000
vn 1.000000 0.000000 0.000000
vn 1.000000 0.000000 0.000000
vn 1.000000 0.000000 0.000000
vn -1.000000 0.000000 0.000000
vn -1.000000 0.000000 0.000000
vn -1.000000 0.000000 0.000000
vn -1.000000 0.000000 0.000000
vn 0.000000 0.000000 1.000000
vn 0.000000 0.000000 1.000000
vn 0.000000 0.000000 1.000000
vn 0.000000 0.000000 1.000000
vn -1.000000 0.000000 0.000000
vn -1.000000 0.000000 0.000000
vn 0.000000 0.000000 -1.000000
vn 0.000000 0.000000 -1.000000
vn 1.000000 0.000000 0.000000
vn 1.000000 0.000000 0.000000
vn 0.000000 0.000000 1.000000
vn 0.000000 0.000000 1.000000
vn 0.000000 0.000000 1.000000
vn 0.000000 0.000000 1.000000
vn -1.000000 0.000000 0.000000
vn -1.000000 0.000000 0.000000
vn 0.000000 0.000000 -1.000000
vn 0.000000 0.000000 -1.000000
vn 1.000000 0.000000 0.000000
vn 1.000000 0.000000 0.000000
vn 0.000000 0.000000 1.000000
vn 0.000000 0.000000 1.000000
vn 0.000000 0.000000 1.000000
vn 0.000000 0.000000 1.000000
vn 0.000000 0.000000 1.000000
vn 0.000000 0.000000 1.000000
vn 0.000000 0.000000 1.000000
vn 0.000000 0.000000 1.000000
vn 0.000000 -1.000000 0.000000
vn 0.000000 -1.000000 0.000000
vn 0.000000 -1.000000 0.000000
vn 0.000000 -1.000000 0.000000
vn 0.000000 0.000000 -1.000000
vn 0.000000 0.000000 -1.000000
vn 0.000000 0.000000 -1.000000
vn 0.000000 0.000000 -1.000000
vn 0.000000 0.000000 -1.000000
vn 0.000000 0.000000 -1.000000
vn 0.000000 0.000000 -1.000000
vn 0.000000 0.000000 -1.000000
vn 0.000000 1.000000 0.000000
vn 0.000000 1.000000 0.000000
vn 0.000000 1.000000 0.000000
vn 0.000000 1.000000 0.000000
vn 0.000000 0.000000 1.000000
vn 0.000000 0.000000 1.000000
vn 0.000000 0.000000 1.000000
vn 0.000000 0.000000 1.000000
vn 0.000000 -1.000000 0.000000
vn 0.000000 -1.000000 0.000000
vn 0.000000 0.000000 -1.000000
vn 0.000000 0.000000 -1.000000
vn 0.000000 0.000000 1.000000
vn 0.000000 0.000000 1.000000
vn 0.000000 0.000000 -1.000000
vn 0.000000 0.000000 1.000000
vn 0.000000 0.000000 -1.000000
vn 0.000000 1.000000 0.000000
vn 0.000000 1.000000 0.000000
vn 0.000000 0.000000 1.000000
vn 0.000000 -1.000000 0.000000
vn 0.000000 -1.000000 0.000000
vn 0.000000 0.000000 1.000000
vn 0.000000 0.000000 1.000000
vn 0.000000 0.000000 -1.000000
vn 0.000000 0.000000 -1.000000
vn 0.000000 0.000000 1.000000
vn 0.000000 0.000000 -1.000000
vn 0.000000 0.000000 1.000000
vn 0.000000 1.000000 0.000000
vn 0.000000 1.000000 0.000000
vn 0.000000 0.000000 -1.000000
vn 0.000000 -1.000000 0.000000
vn 0.000000 -1.000000 0.000000
vn 0.000000 -1.000000 0.000000
vn 0.000000 -1.000000 0.000000
vn 0.000000 1.000000 0.000000
vn 0.000000 1.000000 0.000000
vn 0.000000 1.000000 0.000000
vn 0.000000 1.000000 0.000000
vn -1.000000 0.000000 0.000000
vn -1.000000 0.000000 0.000000
vn -1.000000 0.000000 0.000000
vn -1.000000 0.000000 0.000000
vn 0.000000 -1.000000 0.000000
vn 0.000000 -1.000000 0.000000
vn 0.000000 -1.000000 0.000000
vn 0.000000 -1.000000 0.000000
vn 1.000000 0.000000 0.000000
vn 1.000000 0.000000 0.000000
vn 1.000000 0.000000 0.000000
vn 1.000000 0.000000 0.000000
vn 0.000000 1.000000 0.000000
vn 0.000000 1.000000 0.000000
vn 0.000000 1.000000 0.000000
vn 0.000000 1.000000 0.000000
vn 0.000000 -1.000000 0.000000
vn 0.000000 -1.000000 0.000000
vn 0.000000 -1.000000 0.000000
vn 0.000000 -1.000000 0.000000
vn 0.000000 1.000000 0.000000
vn 0.000000 1.000000 0.000000
vn 0.000000 1.000000 0.000000
vn 0.000000 1.000000 0.000000
f 26/1/1 27/2/2 2/3/3 12/4/4
f 31/5/5 32/6/6 4/7/7 6/8/8
f 8/9/9 28/10/10 29/11/11 11/12/12
f 27/13/13 28/10/14 8/9/15 2/14/16
f 34/15/17 33/16/18 35/17/19 36/18/20
f 41/19/21 42/20/22 43/21/23 44/22/24
f 49/23/25 50/24/26 51/25/27 52/26/28
f 44/22/24 43/21/23 45/27/29 46/28/30
f 11/12/12 29/11/11 30/29/31 15/30/32
f 36/18/20 35/17/19 37/31/33 38/32/34
f 4/7/35 32/6/36 25/33/37 16/34/38
f 46/28/30 45/27/29 47/35/39 48/36/40
f 30/29/31 31/5/41 6/8/42 15/30/32
f 38/32/34 37/31/33 39/37/43 40/38/44
f 53/39/45 54/40/46 55/41/47 56/42/48
f 9/43/49 1/44/50 19/45/51 18/46/52
f 1/47/53 7/48/54 20/49/55 19/50/56
f 21/51/57 20/49/58 7/48/59 10/52/60
f 22/53/61 21/51/57 10/52/60 14/54/62
f 14/54/62 5/55/63 23/56/64 22/53/61
f 5/55/65 3/57/66 24/58/67 23/56/68
f 17/59/69 24/58/70 3/57/71 13/60/72
f 50/24/26 53/39/45 56/42/48 51/25/27
f 18/46/52 19/45/51 27/2/2 26/1/1
f 19/50/56 20/49/55 28/10/14 27/13/13
f 29/11/11 28/10/10 20/49/58 21/51/57
f 30/29/31 29/11/11 21/51/57 22/53/61
f 22/53/61 23/56/64 31/5/41 30/29/31
f 23/56/68 24/58/67 32/6/6 31/5/5
f 25/33/37 32/6/36 24/58/70 17/59/69
f 2/3/16 8/61/15 33/16/73 34/15/74
f 8/61/9 11/62/12 35/17/75 33/16/76
f 12/4/4 2/3/3 34/15/77 36/18/78
f 11/63/12 15/44/32 37/20/79 35/19/75
f 16/44/38 12/43/4 36/21/78 38/20/80
f 15/64/32 6/63/42 39/19/81 37/22/79
f 6/43/8 4/60/7 40/27/82 39/21/83
f 4/65/35 16/64/38 38/22/80 40/28/84
f 7/62/54 1/66/53 42/31/85 41/17/86
f 1/34/50 9/4/49 43/18/87 42/32/88
f 10/60/60 7/57/59 41/35/89 44/27/90
f 9/57/49 13/67/72 45/36/91 43/35/87
f 14/67/62 10/65/60 44/28/90 46/36/92
f 13/66/72 3/68/71 47/37/93 45/31/91
f 3/68/66 5/7/65 48/38/94 47/37/95
f 5/7/63 14/34/62 46/32/92 48/38/96
f 16/34/97 25/33/98 50/24/99 49/23/100
f 26/1/101 12/4/102 52/26/103 51/25/104
f 12/4/105 16/34/106 49/23/107 52/26/108
f 17/59/109 13/60/110 54/40/111 53/39/112
f 13/60/113 9/43/114 55/41/115 54/40/116
f 9/43/117 18/46/118 56/42/119 55/41/120
f 25/33/121 17/59/122 53/39/123 50/24/124
f 18/46/125 26/1/126 51/25/127 56/42/128
