# This file uses meters as units for non-parametric coordinates.

v 0.000000 -32.121098 -1.843033
v 0.000000 32.121098 -1.843033
v 73.546509 -32.121098 -1.843033
v 73.546509 32.121098 -1.843033
v 0.000000 -32.121098 1.843033
v 73.546509 -32.121098 1.843033
v 73.546509 32.121098 1.843033
v 0.000000 32.121098 1.843033
vt 0.512217 0.638159
vt 0.590399 0.638159
vt 0.512215 0.737169
vt 0.590399 0.737168
vt 0.512217 0.638159
vt 0.512215 0.737169
vt 0.590399 0.737168
vt 0.590399 0.638159
vt 0.512217 0.638159
vt 0.512215 0.737169
vt 0.590399 0.737168
vt 0.590399 0.638159
vn 0.000000 0.000000 1.000000
vn 0.000000 0.000000 1.000000
vn 0.000000 0.000000 1.000000
vn 0.000000 0.000000 1.000000
vn 0.000000 0.000000 -1.000000
vn 0.000000 0.000000 -1.000000
vn 0.000000 0.000000 -1.000000
vn 0.000000 0.000000 -1.000000
vn 0.000000 -1.000000 0.000000
vn 0.000000 -1.000000 0.000000
vn 0.000000 -1.000000 0.000000
vn 0.000000 -1.000000 0.000000
vn 1.000000 0.000000 0.000000
vn 1.000000 0.000000 0.000000
vn 1.000000 0.000000 0.000000
vn 1.000000 0.000000 0.000000
vn 0.000000 1.000000 0.000000
vn 0.000000 1.000000 0.000000
vn 0.000000 1.000000 0.000000
vn 0.000000 1.000000 0.000000
vn -1.000000 0.000000 0.000000
vn -1.000000 0.000000 0.000000
vn -1.000000 0.000000 0.000000
vn -1.000000 0.000000 0.000000
f 5/9/1 6/10/2 7/11/3 8/12/4
f 1/5/5 2/8/6 4/7/7 3/6/8
f 1/1/9 3/3/10 6/10/11 5/9/12
f 3/3/13 4/4/14 7/11/15 6/10/16
f 4/4/17 2/2/18 8/12/19 7/11/20
f 2/2/21 1/1/22 5/9/23 8/12/24
