# This file uses meters as units for non-parametric coordinates.

v -121.284813 9.690858 105.760590
v 121.284813 9.690858 105.760590
v -121.284813 46.161591 105.760590
v 121.284813 46.161591 105.760590
v -121.284813 46.161591 7.426140
v 121.284813 46.161591 7.426140
v -121.284813 9.690858 7.426140
v 121.284813 9.690858 7.426140
v -117.034302 13.941368 105.475861
v 117.034302 13.941368 105.475861
v 117.603767 46.161591 106.045311
v -117.603767 46.161591 106.045311
v -117.603767 46.161591 11.107189
v 117.603767 46.161591 11.107189
v 117.034302 13.941368 11.676649
v -117.034302 13.941368 11.676649
v -125.223259 9.690857 111.296066
v 125.223251 9.690857 111.296066
v -125.223259 51.417503 111.296066
v 125.223251 51.417503 111.296066
v -125.223259 51.417503 105.760590
v 125.223251 51.417503 105.760590
v -125.223259 9.690857 105.760590
v 125.223251 9.690857 105.760590
vt 0.270859 0.976922
vt 0.261622 0.976441
vt 0.274248 0.976817
vt 0.258909 0.976177
vt 0.278118 0.989107
vt 0.261509 0.989382
vt 0.271055 0.988287
vt 0.261746 0.985903
vt 0.274106 0.988244
vt 0.259420 0.986346
vt 0.261753 0.988997
vt 0.259156 0.986796
vt 0.277863 0.988731
vt 0.274456 0.988675
vt 0.277974 0.976767
vt 0.256564 0.975967
vt 0.273908 0.976787
vt 0.259190 0.976174
vt 0.261544 0.992877
vt 0.278140 0.992600
vt 0.256268 0.987292
vt 0.277714 0.988520
vt 0.277816 0.976531
vt 0.277819 0.985640
vt 0.442895 0.980727
vt 0.459633 0.980748
vt 0.459633 0.990555
vt 0.442895 0.990534
vt 0.458539 0.988771
vt 0.443961 0.988757
vt 0.458539 0.982549
vt 0.443961 0.982535
vn 0.000000 0.017671 0.999844
vn 0.000000 0.017671 0.999844
vn 0.000000 0.017671 0.999844
vn 0.000000 0.017671 0.999844
vn 0.000000 1.000000 0.000000
vn 0.000000 1.000000 0.000000
vn 0.000000 1.000000 0.000000
vn 0.000000 1.000000 0.000000
vn -0.999844 0.017672 0.000000
vn -0.999844 0.017672 0.000000
vn -0.999844 0.017672 0.000000
vn -0.999844 0.017672 0.000000
vn 0.999844 0.017672 0.000000
vn 0.999844 0.017672 0.000000
vn 0.999844 0.017672 0.000000
vn 0.999844 0.017672 0.000000
vn 0.000000 0.000000 -1.000000
vn 0.000000 0.000000 -1.000000
vn 0.000000 0.000000 -1.000000
vn 0.000000 0.000000 -1.000000
vn 0.000000 -1.000000 0.000000
vn 0.000000 -1.000000 0.000000
vn 0.000000 -1.000000 0.000000
vn 0.000000 -1.000000 0.000000
vn 1.000000 0.000000 0.000000
vn 1.000000 0.000000 0.000000
vn 1.000000 0.000000 0.000000
vn 1.000000 0.000000 0.000000
vn -1.000000 0.000000 0.000000
vn -1.000000 0.000000 0.000000
vn -1.000000 0.000000 0.000000
vn -1.000000 0.000000 0.000000
vn 0.000000 1.000000 0.000000
vn 0.000000 1.000000 0.000000
vn 0.000000 1.000000 0.000000
vn 0.000000 1.000000 0.000000
vn 0.000000 1.000000 0.000000
vn 0.000000 1.000000 0.000000
vn 0.000000 1.000000 0.000000
vn 0.000000 1.000000 0.000000
vn 0.000000 0.000000 1.000000
vn 0.000000 0.000000 1.000000
vn 0.000000 0.000000 1.000000
vn 0.000000 0.000000 1.000000
vn 0.000000 1.000000 0.000000
vn 0.000000 1.000000 0.000000
vn 0.000000 1.000000 0.000000
vn 0.000000 1.000000 0.000000
vn 0.000000 0.000000 -1.000000
vn 0.000000 0.000000 -1.000000
vn 0.000000 0.000000 -1.000000
vn 0.000000 0.000000 -1.000000
vn 0.000000 -1.000000 0.000000
vn 0.000000 -1.000000 0.000000
vn 0.000000 -1.000000 0.000000
vn 0.000000 -1.000000 0.000000
vn 1.000000 0.000000 0.000000
vn 1.000000 0.000000 0.000000
vn 1.000000 0.000000 0.000000
vn 1.000000 0.000000 0.000000
vn -1.000000 0.000000 0.000000
vn -1.000000 0.000000 0.000000
vn -1.000000 0.000000 0.000000
vn -1.000000 0.000000 0.000000
f 13/13/1 16/24/2 15/8/3 14/11/4
f 16/24/5 9/23/6 10/2/7 15/8/8
f 10/2/9 11/18/10 14/10/11 15/8/12
f 16/7/13 13/9/14 12/17/15 9/1/16
f 5/5/17 6/6/18 8/19/19 7/20/20
f 7/22/21 8/21/22 2/16/23 1/15/24
f 2/16/25 8/21/26 6/12/27 4/4/28
f 7/22/29 1/15/30 3/3/31 5/14/32
f 5/5/33 13/13/34 14/11/35 6/6/36
f 6/12/36 14/10/35 11/18/37 4/4/38
f 3/3/39 12/17/40 13/9/34 5/14/33
f 17/25/41 18/26/42 20/27/43 19/28/44
f 19/28/45 20/27/46 22/29/47 21/30/48
f 21/30/49 22/29/50 24/31/51 23/32/52
f 23/32/53 24/31/54 18/26/55 17/25/56
f 18/26/57 24/31/58 22/29/59 20/27/60
f 23/32/61 17/25/62 19/28/63 21/30/64
