# This file uses meters as units for non-parametric coordinates.

v 256.179028 76.205391 79.679749
v 367.481381 76.205391 79.679749
v 256.179028 83.886566 79.679749
v 367.481381 83.886566 79.679749
v 256.179028 83.886566 7.681171
v 367.481381 83.886566 7.681171
v 256.179028 76.205391 7.681171
v 367.481381 76.205391 7.681171
v 256.179028 153.205383 79.679749
v 367.481381 153.205383 79.679749
v 256.179028 160.886566 79.679749
v 367.481381 160.886566 79.679749
v 256.179028 160.886566 7.681171
v 367.481381 160.886566 7.681171
v 256.179028 153.205383 7.681171
v 367.481381 153.205383 7.681171
v 256.179028 230.205383 79.679749
v 367.481381 230.205383 79.679749
v 256.179028 237.886566 79.679749
v 367.481381 237.886566 79.679749
v 256.179028 237.886566 7.681171
v 367.481381 237.886566 7.681171
v 256.179028 230.205383 7.681171
v 367.481381 230.205383 7.681171
v 256.179028 307.205414 79.679749
v 367.481381 307.205414 79.679749
v 256.179028 314.886597 79.679749
v 367.481381 314.886597 79.679749
v 256.179028 314.886597 7.681171
v 367.481381 314.886597 7.681171
v 256.179028 307.205414 7.681171
v 367.481381 307.205414 7.681171
v 373.816952 0.000000 79.679749
v 249.843457 0.000000 79.679749
v 249.843457 0.000000 0.000000
v 373.816952 0.000000 0.000000
v 249.843457 388.210663 79.679749
v 249.843457 388.210663 0.000000
v 373.816952 388.210663 0.000000
v 373.816952 388.210663 79.679749
v 249.843457 183.280014 79.679749
v 249.843457 183.280014 0.000000
v 373.816952 183.280014 0.000000
v 373.816952 183.280014 79.679749
v 367.481381 6.453873 79.679749
v 367.481381 183.280014 79.679749
v 256.179028 183.280014 79.679749
v 256.179028 6.453873 79.679749
v 367.481381 381.756775 79.679749
v 256.179028 381.756775 79.679749
v 367.481381 6.453873 6.688568
v 367.481381 183.280014 6.688568
v 256.179028 183.280014 6.688568
v 256.179028 6.453873 6.688568
v 367.481381 381.756775 6.688568
v 256.179028 381.756775 6.688568
vt 0.765618 0.734484
vt 0.863398 0.734482
vt 0.765618 0.715242
vt 0.863398 0.715245
vt 0.765618 0.637059
vt 0.863398 0.637059
vt 0.765618 0.651926
vt 0.863398 0.651926
vt 0.765618 0.714295
vt 0.863398 0.714295
vt 0.765618 0.734484
vt 0.863398 0.734482
vt 0.863398 0.715245
vt 0.765618 0.715242
vt 0.863398 0.637059
vt 0.765618 0.637059
vt 0.765618 0.651926
vt 0.863398 0.651926
vt 0.863398 0.714295
vt 0.765618 0.714295
vt 0.765618 0.734484
vt 0.863398 0.734482
vt 0.863398 0.715245
vt 0.765618 0.715242
vt 0.863398 0.637059
vt 0.765618 0.637059
vt 0.765618 0.651926
vt 0.863398 0.651926
vt 0.863398 0.714295
vt 0.765618 0.714295
vt 0.765618 0.734484
vt 0.863398 0.734482
vt 0.863398 0.715245
vt 0.765618 0.715242
vt 0.863398 0.637059
vt 0.765618 0.637059
vt 0.765618 0.651926
vt 0.863398 0.651926
vt 0.863398 0.714295
vt 0.765618 0.714295
vt 0.765618 0.734484
vt 0.798211 0.734484
vt 0.798211 0.639713
vt 0.765618 0.639712
vt 0.765618 0.639712
vt 0.798211 0.639713
vt 0.798211 0.735720
vt 0.765618 0.735720
vt 0.798211 0.639181
vt 0.765618 0.639181
vt 0.798211 0.735649
vt 0.765618 0.735650
vt 0.863398 0.734482
vt 0.765618 0.734484
vt 0.863398 0.639716
vt 0.830805 0.639714
vt 0.830805 0.735720
vt 0.830805 0.639181
vt 0.830805 0.735649
vt 0.830805 0.734483
vt 0.830805 0.639714
vt 0.863501 0.639551
vt 0.863501 0.736578
vt 0.766474 0.736578
vt 0.766474 0.639551
vt 0.798211 0.734484
vt 0.798211 0.734484
vt 0.765618 0.734484
vt 0.765618 0.639712
vt 0.798211 0.639713
vt 0.830805 0.734483
vt 0.830805 0.734483
vt 0.830805 0.639714
vt 0.853823 0.651450
vt 0.777446 0.651450
vt 0.777446 0.727826
vt 0.853823 0.727826
vt 0.853823 0.651450
vt 0.777446 0.651450
vt 0.777446 0.727826
vt 0.853823 0.727826
vt 0.853823 0.651450
vt 0.853823 0.727826
vt 0.777446 0.651450
vt 0.777446 0.727826
vn 0.000000 0.000000 1.000000
vn 0.000000 0.000000 1.000000
vn 0.000000 0.000000 1.000000
vn 0.000000 0.000000 1.000000
vn 0.000000 1.000000 0.000000
vn 0.000000 1.000000 0.000000
vn 0.000000 1.000000 0.000000
vn 0.000000 1.000000 0.000000
vn 0.000000 -1.000000 0.000000
vn 0.000000 -1.000000 0.000000
vn 0.000000 -1.000000 0.000000
vn 0.000000 -1.000000 0.000000
vn 0.000000 0.000000 1.000000
vn 0.000000 0.000000 1.000000
vn 0.000000 0.000000 1.000000
vn 0.000000 0.000000 1.000000
vn 0.000000 1.000000 0.000000
vn 0.000000 1.000000 0.000000
vn 0.000000 1.000000 0.000000
vn 0.000000 1.000000 0.000000
vn 0.000000 -1.000000 0.000000
vn 0.000000 -1.000000 0.000000
vn 0.000000 -1.000000 0.000000
vn 0.000000 -1.000000 0.000000
vn 0.000000 0.000000 1.000000
vn 0.000000 0.000000 1.000000
vn 0.000000 0.000000 1.000000
vn 0.000000 0.000000 1.000000
vn 0.000000 1.000000 0.000000
vn 0.000000 1.000000 0.000000
vn 0.000000 1.000000 0.000000
vn 0.000000 1.000000 0.000000
vn 0.000000 -1.000000 0.000000
vn 0.000000 -1.000000 0.000000
vn 0.000000 -1.000000 0.000000
vn 0.000000 -1.000000 0.000000
vn 0.000000 0.000000 1.000000
vn 0.000000 0.000000 1.000000
vn 0.000000 0.000000 1.000000
vn 0.000000 0.000000 1.000000
vn 0.000000 1.000000 0.000000
vn 0.000000 1.000000 0.000000
vn 0.000000 1.000000 0.000000
vn 0.000000 1.000000 0.000000
vn 0.000000 -1.000000 0.000000
vn 0.000000 -1.000000 0.000000
vn 0.000000 -1.000000 0.000000
vn 0.000000 -1.000000 0.000000
vn 0.000000 0.000000 1.000000
vn 0.000000 0.000000 1.000000
vn 0.000000 0.000000 1.000000
vn 0.000000 0.000000 1.000000
vn -1.000000 0.000000 0.000000
vn -1.000000 0.000000 0.000000
vn -1.000000 0.000000 0.000000
vn -1.000000 0.000000 0.000000
vn 0.000000 0.000000 -1.000000
vn 0.000000 0.000000 -1.000000
vn 0.000000 0.000000 -1.000000
vn 0.000000 0.000000 -1.000000
vn 1.000000 0.000000 0.000000
vn 1.000000 0.000000 0.000000
vn 1.000000 0.000000 0.000000
vn 1.000000 0.000000 0.000000
vn 0.000000 -1.000000 0.000000
vn 0.000000 -1.000000 0.000000
vn 0.000000 -1.000000 0.000000
vn 0.000000 -1.000000 0.000000
vn -1.000000 0.000000 0.000000
vn -1.000000 0.000000 0.000000
vn 0.000000 0.000000 -1.000000
vn 0.000000 0.000000 -1.000000
vn 1.000000 0.000000 0.000000
vn 1.000000 0.000000 0.000000
vn 0.000000 0.000000 1.000000
vn 0.000000 0.000000 1.000000
vn 0.000000 1.000000 0.000000
vn 0.000000 1.000000 0.000000
vn 0.000000 1.000000 0.000000
vn 0.000000 1.000000 0.000000
vn 0.000001 0.000000 1.000000
vn 0.000001 0.000000 1.000000
vn 0.000001 0.000000 1.000000
vn 0.000001 0.000000 1.000000
vn -0.000001 0.000000 1.000000
vn -0.000001 0.000000 1.000000
vn -0.000001 0.000000 1.000000
vn -0.000001 0.000000 1.000000
vn 0.000000 0.000000 1.000000
vn 0.000000 0.000000 1.000000
vn 0.000000 0.000000 1.000000
vn 0.000000 0.000000 1.000000
vn 0.000000 0.000000 1.000000
vn 0.000000 0.000000 1.000000
vn 0.000000 0.000000 1.000000
vn 0.000000 0.000000 1.000000
vn 0.000000 0.000000 1.000000
vn 0.000000 0.000000 1.000000
vn 0.000000 0.000000 1.000000
vn 0.000000 0.000000 1.000000
vn 0.000000 0.000000 1.000000
vn 0.000000 0.000000 1.000000
vn 0.000000 0.000000 1.000000
vn 0.000000 0.000000 1.000000
vn -1.000000 0.000000 0.000000
vn -1.000000 0.000000 0.000000
vn -1.000000 0.000000 0.000000
vn -1.000000 0.000000 0.000000
vn 1.000000 0.000000 0.000000
vn 1.000000 0.000000 0.000000
vn 1.000000 0.000000 0.000000
vn 1.000000 0.000000 0.000000
vn 0.000000 1.000000 0.000000
vn 0.000000 1.000000 0.000000
vn 0.000000 1.000000 0.000000
vn 0.000000 1.000000 0.000000
vn -1.000000 0.000000 0.000000
vn -1.000000 0.000000 0.000000
vn -1.000000 0.000000 0.000000
vn -1.000000 0.000000 0.000000
vn 0.000000 -1.000000 0.000000
vn 0.000000 -1.000000 0.000000
vn 0.000000 -1.000000 0.000000
vn 0.000000 -1.000000 0.000000
vn 1.000000 0.000000 0.000000
vn 1.000000 0.000000 0.000000
vn 1.000000 0.000000 0.000000
vn 1.000000 0.000000 0.000000
f 1/1/1 2/2/2 4/4/3 3/3/4
f 3/3/5 4/4/6 6/6/7 5/5/8
f 7/7/9 8/8/10 2/10/11 1/9/12
f 9/11/13 10/12/14 12/13/15 11/14/16
f 11/14/17 12/13/18 14/15/19 13/16/20
f 15/17/21 16/18/22 10/19/23 9/20/24
f 17/21/25 18/22/26 20/23/27 19/24/28
f 19/24/29 20/23/30 22/25/31 21/26/32
f 23/27/33 24/28/34 18/29/35 17/30/36
f 25/31/37 26/32/38 28/33/39 27/34/40
f 27/34/41 28/33/42 30/35/43 29/36/44
f 31/37/45 32/38/46 26/39/47 25/40/48
f 51/41/49 52/42/50 53/43/51 54/44/52
f 34/45/53 41/46/54 42/47/55 35/48/56
f 35/48/57 42/47/58 43/49/59 36/50/60
f 36/50/61 43/49/62 44/51/63 33/52/64
f 36/53/65 33/54/66 34/45/67 35/55/68
f 41/46/54 37/56/69 38/57/70 42/47/55
f 43/49/59 42/47/58 38/57/71 39/58/72
f 44/51/63 43/49/62 39/58/73 40/59/74
f 53/43/51 52/42/50 55/60/75 56/61/76
f 39/62/77 38/63/78 37/64/79 40/65/80
f 33/54/81 44/66/82 46/67/83 45/68/84
f 41/46/85 34/45/86 48/69/87 47/70/88
f 34/45/89 33/54/90 45/68/91 48/69/92
f 44/66/93 40/71/94 49/72/95 46/67/96
f 40/71/97 37/56/98 50/73/99 49/72/100
f 37/56/101 41/46/102 47/70/103 50/73/104
f 45/74/105 46/75/106 52/76/107 51/77/108
f 47/78/109 48/79/110 54/80/111 53/81/112
f 48/79/113 45/74/114 51/77/115 54/80/116
f 46/75/117 49/82/118 55/83/119 52/76/120
f 49/82/121 50/84/122 56/85/123 55/83/124
f 50/84/125 47/78/126 53/81/127 56/85/128
