# This file uses meters as units for non-parametric coordinates.

v 62.214012 0.000000 76.826233
v 62.214012 0.000000 80.108841
v -62.214005 0.000000 76.826233
v -62.214005 0.000000 80.108841
v 62.214012 37.985458 80.108841
v -62.214005 37.985458 80.108841
v -62.214005 37.985458 76.826233
v 62.214012 37.985458 76.826233
v -60.277496 0.000000 76.826233
v 60.277500 0.000000 76.826233
v -60.277496 31.372704 76.826233
v 60.277500 31.372704 76.826233
v -60.277496 31.372704 0.000000
v 60.277500 31.372704 0.000000
v -60.277496 0.000000 0.000000
v 60.277500 0.000000 0.000000
v -56.638611 31.372704 76.826233
v 56.638618 31.372704 76.826233
v 56.638618 31.372704 3.999290
v -56.638611 31.372704 3.999290
v -56.638611 4.731865 76.826233
v 56.638618 4.731865 76.826233
v 56.638618 4.731865 3.999290
v -56.638611 4.731865 3.999290
vt 0.507257 0.733265
vt 0.516043 0.733265
vt 0.507257 0.638977
vt 0.516043 0.638977
vt 0.613513 0.733265
vt 0.613541 0.638977
vt 0.613605 0.638977
vt 0.613577 0.733265
vt 0.519953 0.630918
vt 0.519206 0.742475
vt 0.603105 0.739928
vt 0.603307 0.630918
vt 0.527102 0.630918
vt 0.527418 0.739368
vt 0.607816 0.739883
vt 0.608239 0.630918
vt 0.518328 0.740881
vt 0.517754 0.630918
vt 0.607613 0.709619
vt 0.518584 0.709487
vt 0.517571 0.661928
vt 0.608406 0.661903
vt 0.603516 0.706302
vt 0.518654 0.706165
vt 0.520971 0.737189
vt 0.520812 0.630918
vt 0.530864 0.630918
vt 0.531022 0.737450
vt 0.517543 0.665268
vt 0.604311 0.665236
vt 0.517402 0.690701
vt 0.604464 0.690654
vn 0.000000 0.000000 -1.000000
vn 0.000000 0.000000 -1.000000
vn 0.000000 0.000000 -1.000000
vn 0.000000 0.000000 -1.000000
vn 0.000000 0.000000 1.000000
vn 0.000000 0.000000 1.000000
vn 0.000000 0.000000 1.000000
vn 0.000000 0.000000 1.000000
vn 1.000000 0.000000 0.000000
vn 1.000000 0.000000 0.000000
vn 1.000000 0.000000 0.000000
vn 1.000000 0.000000 0.000000
vn 0.000000 -1.000000 0.000000
vn 0.000000 -1.000000 0.000000
vn 0.000000 -1.000000 0.000000
vn 0.000000 -1.000000 0.000000
vn -1.000000 0.000000 0.000000
vn -1.000000 0.000000 0.000000
vn -1.000000 0.000000 0.000000
vn -1.000000 0.000000 0.000000
vn 0.000000 1.000000 0.000000
vn 0.000000 1.000000 0.000000
vn 0.000000 1.000000 0.000000
vn 0.000000 1.000000 0.000000
vn 0.000000 1.000000 0.000000
vn 0.000000 1.000000 0.000000
vn 0.000000 1.000000 0.000000
vn 0.000000 1.000000 0.000000
vn 0.000000 0.000000 -1.000000
vn 0.000000 0.000000 -1.000000
vn 0.000000 0.000000 -1.000000
vn 0.000000 0.000000 -1.000000
vn 0.000000 -1.000000 0.000000
vn 0.000000 -1.000000 0.000000
vn 0.000000 -1.000000 0.000000
vn 0.000000 -1.000000 0.000000
vn 1.000000 0.000000 0.000000
vn 1.000000 0.000000 0.000000
vn 1.000000 0.000000 0.000000
vn 1.000000 0.000000 0.000000
vn -1.000000 0.000000 0.000000
vn -1.000000 0.000000 0.000000
vn -1.000000 0.000000 0.000000
vn -1.000000 0.000000 0.000000
vn 0.000000 1.000000 0.000000
vn 0.000000 1.000000 0.000000
vn 0.000000 1.000000 0.000000
vn 0.000000 1.000000 0.000000
vn 0.000000 1.000000 -0.000000
vn 0.000000 1.000000 -0.000000
vn 0.000000 1.000000 -0.000000
vn 0.000000 1.000000 -0.000000
vn 0.000000 1.000000 0.000000
vn 0.000000 1.000000 0.000000
vn 0.000000 1.000000 0.000000
vn 0.000000 1.000000 0.000000
vn -1.000000 0.000000 0.000000
vn -1.000000 0.000000 0.000000
vn -1.000000 0.000000 0.000000
vn -1.000000 0.000000 0.000000
vn 0.000000 0.000000 1.000000
vn 0.000000 0.000000 1.000000
vn 0.000000 0.000000 1.000000
vn 0.000000 0.000000 1.000000
vn 1.000000 0.000000 0.000000
vn 1.000000 0.000000 0.000000
vn 1.000000 0.000000 0.000000
vn 1.000000 0.000000 0.000000
f 3/3/1 7/7/2 8/8/3 1/1/4
f 6/6/5 4/4/6 2/2/7 5/5/8
f 5/5/9 2/2/10 1/1/11 8/8/12
f 2/2/13 4/4/14 3/3/15 1/1/16
f 4/4/17 6/6/18 7/7/19 3/3/20
f 6/6/21 5/5/22 8/8/23 7/7/24
f 21/9/25 22/10/26 23/11/27 24/12/28
f 13/13/29 14/14/30 16/15/31 15/16/32
f 15/16/33 16/15/34 10/17/35 9/18/36
f 10/17/37 16/15/38 14/19/39 12/20/40
f 15/16/41 9/18/42 11/21/43 13/22/44
f 12/20/45 14/19/46 19/23/47 18/24/48
f 14/25/49 13/26/50 20/27/51 19/28/52
f 13/22/53 11/21/54 17/29/55 20/30/56
f 18/24/57 19/23/58 23/11/59 22/10/60
f 19/28/61 20/27/62 24/12/63 23/11/64
f 20/30/65 17/29/66 21/31/67 24/32/68
