# This file uses meters as units for non-parametric coordinates.

v -341.714481 102.186218 75.841141
v -341.714481 102.186218 69.879128
v -341.714481 332.186981 75.841141
v -341.714481 332.186981 69.879128
v -278.377506 332.186981 69.879128
v -278.377506 332.186981 75.841141
v -278.377506 102.186218 75.841141
v -278.377506 102.186218 69.879128
vt 0.508528 0.913127
vt 0.521534 0.913127
vt 0.521534 0.931799
vt 0.508528 0.931799
vt 0.508528 0.931799
vt 0.508528 0.931799
vt 0.508528 0.913127
vt 0.508528 0.913127
vt 0.521534 0.931799
vt 0.521534 0.913127
vn 0.000000 0.000000 1.000000
vn 0.000000 0.000000 1.000000
vn 0.000000 0.000000 1.000000
vn 0.000000 0.000000 1.000000
vn -1.000000 0.000000 0.000000
vn -1.000000 0.000000 0.000000
vn -1.000000 0.000000 0.000000
vn -1.000000 0.000000 0.000000
vn 0.000000 0.000000 -1.000000
vn 0.000000 0.000000 -1.000000
vn 0.000000 0.000000 -1.000000
vn 0.000000 0.000000 -1.000000
f 3/1/1 1/4/2 7/3/3 6/2/4
f 1/5/5 3/8/6 4/7/7 2/6/8
f 8/9/9 2/6/10 4/7/11 5/10/12
