# This file uses meters as units for non-parametric coordinates.

v 66.666672 19.565441 0.000004
v -66.666656 19.565441 0.000004
v -66.666656 -19.565426 0.000000
v 66.666672 -19.565426 0.000000
v 66.666672 19.565441 90.843143
v -66.666656 19.565441 90.843143
v -66.666656 -19.565426 90.843143
v 66.666672 -19.565426 90.843143
v 61.559509 19.565441 5.882095
v -61.559494 19.565441 5.882095
v -61.559494 19.565441 84.961063
v 61.559509 19.565441 84.961063
v 61.559509 -16.259888 5.882092
v -61.559494 -16.259888 5.882092
v -61.559494 -16.259888 84.961063
v 61.559509 -16.259888 84.961063
vt 0.765618 0.646223
vt 0.864627 0.646222
vt 0.864627 0.686407
vt 0.765618 0.686408
vt 0.765618 0.646223
vt 0.864627 0.646222
vt 0.864627 0.686407
vt 0.765618 0.686408
vt 0.765618 0.646223
vt 0.864627 0.646222
vt 0.864627 0.686407
vt 0.765618 0.686408
vt 0.850791 0.694624
vt 0.770952 0.699883
vt 0.768372 0.660643
vt 0.848212 0.655384
vt 0.826005 0.718262
vt 0.800402 0.717213
vt 0.800964 0.713043
vt 0.824680 0.714010
vt 0.793194 0.637369
vt 0.794486 0.641291
vt 0.818796 0.638420
vt 0.818203 0.642256
vn 0.000000 0.000000 1.000000
vn 0.000000 0.000000 1.000000
vn 0.000000 0.000000 1.000000
vn 0.000000 0.000000 1.000000
vn 0.000000 0.000000 -1.000000
vn 0.000000 0.000000 -1.000000
vn 0.000000 0.000000 -1.000000
vn 0.000000 0.000000 -1.000000
vn 0.000000 1.000000 0.000000
vn 0.000000 1.000000 0.000000
vn 0.000000 1.000000 0.000000
vn 0.000000 1.000000 0.000000
vn -1.000000 -0.000000 0.000000
vn -1.000000 -0.000000 0.000000
vn -1.000000 -0.000000 0.000000
vn -1.000000 -0.000000 0.000000
vn 0.000000 -1.000000 0.000000
vn 0.000000 -1.000000 0.000000
vn 0.000000 -1.000000 0.000000
vn 0.000000 -1.000000 0.000000
vn 1.000000 -0.000000 0.000000
vn 1.000000 -0.000000 0.000000
vn 1.000000 -0.000000 0.000000
vn 1.000000 -0.000000 0.000000
vn 0.000000 1.000000 -0.000000
vn 0.000000 1.000000 -0.000000
vn 0.000000 1.000000 -0.000000
vn 0.000000 1.000000 -0.000000
vn 0.000000 1.000000 0.000000
vn 0.000000 1.000000 0.000000
vn 0.000000 1.000000 0.000000
vn 0.000000 1.000000 0.000000
vn 0.000000 -0.000000 1.000000
vn 0.000000 -0.000000 1.000000
vn 0.000000 -0.000000 1.000000
vn 0.000000 -0.000000 1.000000
vn 1.000000 -0.000000 0.000000
vn 1.000000 -0.000000 0.000000
vn 1.000000 -0.000000 0.000000
vn 1.000000 -0.000000 0.000000
vn 0.000000 0.000000 -1.000000
vn 0.000000 0.000000 -1.000000
vn 0.000000 0.000000 -1.000000
vn 0.000000 0.000000 -1.000000
vn -1.000000 -0.000000 0.000000
vn -1.000000 -0.000000 0.000000
vn -1.000000 -0.000000 0.000000
vn -1.000000 -0.000000 0.000000
f 5/9/1 6/10/2 7/11/3 8/12/4
f 1/5/5 4/8/6 3/7/7 2/6/8
f 13/13/9 14/14/10 15/15/11 16/16/12
f 2/2/13 3/3/14 7/11/15 6/10/16
f 3/3/17 4/4/18 8/12/19 7/11/20
f 4/4/21 1/1/22 5/9/23 8/12/24
f 1/17/25 2/18/26 10/19/27 9/20/28
f 2/18/26 6/21/29 11/22/30 10/19/27
f 6/21/29 5/23/31 12/24/32 11/22/30
f 5/23/31 1/17/25 9/20/28 12/24/32
f 9/20/33 10/19/34 14/14/35 13/13/36
f 10/19/37 11/22/38 15/15/39 14/14/40
f 11/22/41 12/24/42 16/16/43 15/15/44
f 12/24/45 9/20/46 13/13/47 16/16/48
