# This file uses meters as units for non-parametric coordinates.

v -159.499420 0.000000 100.000000
v -93.959999 0.000000 100.000000
v -93.959999 0.000000 0.000000
v -159.499420 0.000000 0.000000
v -93.959999 101.950317 100.000000
v -93.959999 101.950317 0.000000
v -159.499390 101.950333 0.000000
v -159.499390 101.950333 100.000000
v -153.163849 6.453873 100.000000
v -153.163818 95.496460 100.000000
v -100.295570 95.496422 100.000000
v -100.295570 6.453873 100.000000
v -153.163849 6.453873 18.853615
v -153.163818 95.496460 18.853615
v -100.295570 95.496422 18.853615
v -100.295570 6.453873 18.853615
v -93.959976 47.587639 90.605530
v 93.959976 47.587639 90.605530
v -93.959976 55.764778 90.605530
v 93.959976 55.764778 90.605530
v -93.959976 55.764778 7.497917
v 93.959976 55.764778 7.497917
v -93.959976 47.587639 7.497917
v 93.959976 47.587639 7.497917
v -93.959976 93.773178 90.605530
v 93.959976 93.773178 90.605530
v -93.959976 101.950317 90.605530
v 93.959976 101.950317 90.605530
v -93.959976 101.950317 0.000000
v 93.959976 101.950317 0.000000
v -93.959976 93.773178 7.497917
v 93.959976 93.773178 7.497917
v -93.959976 0.000000 90.605530
v 93.959976 0.000000 90.605530
v -93.959976 8.177139 90.605530
v 93.959976 8.177139 90.605530
v -93.959976 8.177139 7.497917
v 93.959976 8.177139 7.497917
v -93.959976 0.000000 0.000000
v 93.959976 0.000000 0.000000
v 4.697529 101.950317 90.605530
v -4.697529 101.950317 90.605530
v -4.697529 101.950317 0.000000
v 4.697529 101.950317 0.000000
v -4.697529 93.773178 7.497917
v 4.697529 93.773178 7.497917
v -4.697529 93.773178 90.605530
v 4.697529 93.773178 90.605530
v 4.697529 55.764778 90.605530
v -4.697529 55.764778 90.605530
v -4.697529 55.764778 7.497917
v 4.697529 55.764778 7.497917
v -4.697529 47.587639 7.497917
v 4.697529 47.587639 7.497917
v -4.697529 47.587639 90.605530
v 4.697529 47.587639 90.605530
v 4.697529 8.177139 90.605530
v -4.697529 8.177139 90.605530
v -4.697529 8.177139 7.497917
v 4.697529 8.177139 7.497917
v -4.697529 0.000000 0.000000
v 4.697529 0.000000 0.000000
v -4.697529 0.000000 90.605530
v 4.697529 0.000000 90.605530
v 159.499390 0.000000 100.000000
v 93.959991 0.000000 100.000000
v 93.959991 0.000000 0.000000
v 159.499390 0.000000 0.000000
v 93.959991 101.950317 100.000000
v 93.959991 101.950317 0.000000
v 159.499390 101.950333 0.000000
v 159.499390 101.950333 100.000000
v 153.163834 6.453873 100.000000
v 153.163818 95.496460 100.000000
v 100.295563 95.496422 100.000000
v 100.295578 6.453873 100.000000
v 153.163834 6.453873 18.853615
v 153.163818 95.496460 18.853615
v 100.295563 95.496422 18.853615
v 100.295578 6.453873 18.853615
vt 0.447669 0.774633
vt 0.447669 0.760310
vt 0.447669 0.774820
vt 0.447669 0.760229
vt 0.447669 0.774809
vt 0.462447 0.774633
vt 0.462447 0.760310
vt 0.457521 0.760310
vt 0.457521 0.774633
vt 0.452595 0.760310
vt 0.452595 0.774820
vt 0.452595 0.760229
vt 0.452595 0.774633
vt 0.452595 0.774809
vt 0.462463 0.760285
vt 0.462463 0.774949
vt 0.447799 0.774949
vt 0.447799 0.760285
vt 0.447669 0.774633
vt 0.452595 0.774633
vt 0.452595 0.760310
vt 0.447669 0.760310
vt 0.457521 0.774633
vt 0.457521 0.760310
vt 0.447669 0.774633
vt 0.452595 0.774633
vt 0.452595 0.760310
vt 0.447669 0.760310
vt 0.461000 0.762084
vt 0.449457 0.762084
vt 0.449457 0.773627
vt 0.461000 0.773627
vt 0.461000 0.762084
vt 0.449457 0.762084
vt 0.449457 0.773627
vt 0.461000 0.773627
vt 0.461000 0.762084
vt 0.449457 0.773627
vt 0.449457 0.762084
vt 0.461000 0.773627
vt 0.452985 0.755890
vt 0.454214 0.755890
vt 0.454215 0.751052
vt 0.452985 0.751052
vt 0.452985 0.775551
vt 0.454214 0.775551
vt 0.452985 0.771812
vt 0.454215 0.771812
vt 0.452985 0.755890
vt 0.454214 0.755890
vt 0.454215 0.751052
vt 0.452985 0.751052
vt 0.454214 0.775551
vt 0.452985 0.775551
vt 0.452985 0.771812
vt 0.454215 0.771812
vt 0.453008 0.756166
vt 0.454192 0.756166
vt 0.454192 0.751508
vt 0.453008 0.751508
vt 0.454192 0.775095
vt 0.453008 0.775095
vt 0.453008 0.771496
vt 0.454192 0.771496
vt 0.453008 0.756396
vt 0.454192 0.756396
vt 0.465894 0.751052
vt 0.465894 0.755891
vt 0.465894 0.775551
vt 0.465894 0.771812
vt 0.454214 0.756129
vt 0.465894 0.756129
vt 0.465894 0.751052
vt 0.465894 0.755891
vt 0.465894 0.775551
vt 0.465894 0.771812
vt 0.454214 0.756129
vt 0.465894 0.756129
vt 0.465436 0.751508
vt 0.465436 0.756166
vt 0.465436 0.775095
vt 0.465436 0.771496
vt 0.465436 0.756396
vt 0.441306 0.755890
vt 0.441306 0.775551
vt 0.441306 0.771812
vt 0.452985 0.756129
vt 0.441306 0.756129
vt 0.441306 0.751053
vt 0.441306 0.755890
vt 0.441306 0.775551
vt 0.441306 0.771812
vt 0.452985 0.756129
vt 0.441306 0.756129
vt 0.441306 0.751053
vt 0.441763 0.756166
vt 0.441763 0.775095
vt 0.441763 0.771496
vt 0.441763 0.756396
vt 0.441763 0.751508
vt 0.447669 0.774633
vt 0.452595 0.774633
vt 0.452595 0.760310
vt 0.447669 0.760310
vt 0.447669 0.760310
vt 0.452595 0.760310
vt 0.452595 0.774820
vt 0.447669 0.774820
vt 0.452595 0.760229
vt 0.447669 0.760229
vt 0.452595 0.774809
vt 0.447669 0.774809
vt 0.462447 0.774633
vt 0.447669 0.774633
vt 0.462447 0.760310
vt 0.462463 0.760285
vt 0.462463 0.774949
vt 0.447799 0.774949
vt 0.447799 0.760285
vt 0.452595 0.774633
vt 0.452595 0.774633
vt 0.447669 0.774633
vt 0.447669 0.760310
vt 0.452595 0.760310
vt 0.457521 0.774633
vt 0.457521 0.760310
vt 0.457521 0.760310
vt 0.457521 0.774633
vt 0.461000 0.762084
vt 0.449457 0.762084
vt 0.449457 0.773627
vt 0.461000 0.773627
vt 0.461000 0.762084
vt 0.449457 0.762084
vt 0.449457 0.773627
vt 0.461000 0.773627
vt 0.461000 0.762084
vt 0.449457 0.762084
vt 0.449457 0.773627
vt 0.461000 0.773627
vt 0.448625 0.772709
vt 0.459976 0.772709
vt 0.459976 0.762140
vt 0.448625 0.762140
vt 0.448625 0.772709
vt 0.459976 0.772709
vt 0.459976 0.762140
vt 0.448625 0.762140
vt 0.448625 0.773099
vt 0.459976 0.773099
vt 0.459976 0.762140
vt 0.448625 0.762140
vt 0.448625 0.773099
vt 0.459976 0.773099
vt 0.459976 0.762140
vt 0.448625 0.762140
vn 0.000000 0.000000 1.000000
vn 0.000000 0.000000 1.000000
vn 0.000000 0.000000 1.000000
vn 0.000000 0.000000 1.000000
vn 1.000000 0.000000 0.000000
vn 1.000000 0.000000 0.000000
vn 1.000000 0.000000 0.000000
vn 1.000000 0.000000 0.000000
vn 0.000000 0.000000 -1.000000
vn 0.000000 0.000000 -1.000000
vn 0.000000 0.000000 -1.000000
vn 0.000000 0.000000 -1.000000
vn -1.000000 0.000000 0.000000
vn -1.000000 0.000000 0.000000
vn -1.000000 0.000000 0.000000
vn -1.000000 0.000000 0.000000
vn 0.000000 -1.000000 0.000000
vn 0.000000 -1.000000 0.000000
vn 0.000000 -1.000000 0.000000
vn 0.000000 -1.000000 0.000000
vn 0.000000 1.000000 0.000000
vn 0.000000 1.000000 0.000000
vn 0.000000 1.000000 0.000000
vn 0.000000 1.000000 0.000000
vn -0.000002 0.000000 1.000000
vn -0.000002 0.000000 1.000000
vn -0.000002 0.000000 1.000000
vn -0.000002 0.000000 1.000000
vn 0.000002 0.000000 1.000000
vn 0.000002 0.000000 1.000000
vn 0.000002 0.000000 1.000000
vn 0.000002 0.000000 1.000000
vn 0.000000 0.000000 1.000000
vn 0.000000 0.000000 1.000000
vn 0.000000 0.000000 1.000000
vn 0.000000 0.000000 1.000000
vn 0.000000 0.000000 1.000000
vn 0.000000 0.000000 1.000000
vn 0.000000 0.000000 1.000000
vn 0.000000 0.000000 1.000000
vn 1.000000 -0.000000 0.000000
vn 1.000000 -0.000000 0.000000
vn 1.000000 -0.000000 0.000000
vn 1.000000 -0.000000 0.000000
vn -1.000000 0.000000 0.000000
vn -1.000000 0.000000 0.000000
vn -1.000000 0.000000 0.000000
vn -1.000000 0.000000 0.000000
vn 0.000000 1.000000 0.000000
vn 0.000000 1.000000 0.000000
vn 0.000000 1.000000 0.000000
vn 0.000000 1.000000 0.000000
vn -0.000001 -1.000000 0.000000
vn -0.000001 -1.000000 0.000000
vn -0.000001 -1.000000 0.000000
vn -0.000001 -1.000000 0.000000
vn 0.000000 0.000000 1.000000
vn 0.000000 0.000000 1.000000
vn 0.000000 0.000000 1.000000
vn 0.000000 0.000000 1.000000
vn 0.000000 1.000000 0.000000
vn 0.000000 1.000000 0.000000
vn 0.000000 1.000000 0.000000
vn 0.000000 1.000000 0.000000
vn 0.000000 0.000000 1.000000
vn 0.000000 0.000000 1.000000
vn 0.000000 0.000000 1.000000
vn 0.000000 0.000000 1.000000
vn 0.000000 0.000000 1.000000
vn 0.000000 0.000000 1.000000
vn 0.000000 0.000000 1.000000
vn 0.000000 0.000000 1.000000
vn 0.000000 -1.000000 0.000000
vn 0.000000 -1.000000 0.000000
vn 0.000000 -1.000000 0.000000
vn 0.000000 -1.000000 0.000000
vn 0.000000 0.000000 1.000000
vn 0.000000 0.000000 1.000000
vn 0.000000 1.000000 0.000000
vn 0.000000 1.000000 0.000000
vn 0.000000 1.000000 0.000000
vn 0.000000 1.000000 0.000000
vn 0.000000 -1.000000 0.000000
vn 0.000000 -1.000000 0.000000
vn 0.000000 -1.000000 0.000000
vn 0.000000 -1.000000 0.000000
vn 0.000000 0.000000 1.000000
vn 0.000000 0.000000 1.000000
vn 0.000000 1.000000 0.000000
vn 0.000000 1.000000 0.000000
vn 0.000000 -1.000000 0.000000
vn 0.000000 -1.000000 0.000000
vn 0.000000 -1.000000 0.000000
vn 0.000000 -1.000000 0.000000
vn 0.000000 0.000000 1.000000
vn 0.000000 0.000000 1.000000
vn 0.000000 1.000000 0.000000
vn 0.000000 1.000000 0.000000
vn 0.000000 1.000000 0.000000
vn 0.000000 1.000000 0.000000
vn 0.000000 -1.000000 0.000000
vn 0.000000 -1.000000 0.000000
vn 0.000000 1.000000 0.000000
vn 0.000000 1.000000 0.000000
vn 0.000000 -1.000000 0.000000
vn 0.000000 -1.000000 0.000000
vn 0.000000 -1.000000 0.000000
vn 0.000000 -1.000000 0.000000
vn 0.000000 0.000000 1.000000
vn 0.000000 0.000000 1.000000
vn 0.000000 1.000000 0.000000
vn 0.000000 1.000000 0.000000
vn 0.000000 1.000000 0.000000
vn 0.000000 1.000000 0.000000
vn 0.000000 -1.000000 0.000000
vn 0.000000 -1.000000 0.000000
vn 0.000000 -1.000000 0.000000
vn 0.000000 -1.000000 0.000000
vn 0.000000 0.000000 1.000000
vn 0.000000 0.000000 1.000000
vn 0.000000 1.000000 0.000000
vn 0.000000 1.000000 0.000000
vn 0.000000 1.000000 0.000000
vn 0.000000 1.000000 0.000000
vn 0.000000 -1.000000 0.000000
vn 0.000000 -1.000000 0.000000
vn 0.000000 0.000000 1.000000
vn 0.000000 0.000000 1.000000
vn -1.000000 0.000000 0.000000
vn -1.000000 0.000000 0.000000
vn -1.000000 0.000000 0.000000
vn -1.000000 0.000000 0.000000
vn 1.000000 0.000000 0.000000
vn 1.000000 0.000000 0.000000
vn 1.000000 0.000000 0.000000
vn 1.000000 0.000000 0.000000
vn -1.000000 0.000000 0.000000
vn -1.000000 0.000000 0.000000
vn -1.000000 0.000000 0.000000
vn -1.000000 0.000000 0.000000
vn 1.000000 0.000000 0.000000
vn 1.000000 0.000000 0.000000
vn 1.000000 0.000000 0.000000
vn 1.000000 0.000000 0.000000
vn 0.000000 0.000000 1.000000
vn 0.000000 0.000000 1.000000
vn 0.000000 0.000000 1.000000
vn 0.000000 0.000000 1.000000
vn -1.000000 0.000000 0.000000
vn -1.000000 0.000000 0.000000
vn -1.000000 0.000000 0.000000
vn -1.000000 0.000000 0.000000
vn 0.000000 0.000000 -1.000000
vn 0.000000 0.000000 -1.000000
vn 0.000000 0.000000 -1.000000
vn 0.000000 0.000000 -1.000000
vn 1.000000 0.000000 0.000000
vn 1.000000 0.000000 0.000000
vn 1.000000 0.000000 0.000000
vn 1.000000 0.000000 0.000000
vn 0.000000 -1.000000 0.000000
vn 0.000000 -1.000000 0.000000
vn 0.000000 -1.000000 0.000000
vn 0.000000 -1.000000 0.000000
vn -0.000000 1.000000 0.000000
vn -0.000000 1.000000 0.000000
vn -0.000000 1.000000 0.000000
vn -0.000000 1.000000 0.000000
vn 0.000001 0.000000 1.000000
vn 0.000001 0.000000 1.000000
vn 0.000001 0.000000 1.000000
vn 0.000001 0.000000 1.000000
vn -0.000001 0.000000 1.000000
vn -0.000001 0.000000 1.000000
vn -0.000001 0.000000 1.000000
vn -0.000001 0.000000 1.000000
vn 0.000000 0.000000 1.000000
vn 0.000000 0.000000 1.000000
vn 0.000000 0.000000 1.000000
vn 0.000000 0.000000 1.000000
vn -0.000000 0.000000 1.000000
vn -0.000000 0.000000 1.000000
vn -0.000000 0.000000 1.000000
vn -0.000000 0.000000 1.000000
vn -1.000000 -0.000000 0.000000
vn -1.000000 -0.000000 0.000000
vn -1.000000 -0.000000 0.000000
vn -1.000000 -0.000000 0.000000
vn 1.000000 0.000000 0.000000
vn 1.000000 0.000000 0.000000
vn 1.000000 0.000000 0.000000
vn 1.000000 0.000000 0.000000
vn 0.000000 1.000000 0.000000
vn 0.000000 1.000000 0.000000
vn 0.000000 1.000000 0.000000
vn 0.000000 1.000000 0.000000
vn 0.000001 -1.000000 0.000000
vn 0.000001 -1.000000 0.000000
vn 0.000001 -1.000000 0.000000
vn 0.000001 -1.000000 0.000000
vn 0.000000 0.000000 1.000000
vn 0.000000 0.000000 1.000000
vn 0.000000 0.000000 1.000000
vn 0.000000 0.000000 1.000000
vn 0.000000 0.000000 1.000000
vn 0.000000 0.000000 1.000000
vn 0.000000 0.000000 1.000000
vn 0.000000 0.000000 1.000000
vn 0.000000 0.000000 1.000000
vn 0.000000 0.000000 1.000000
vn 0.000000 0.000000 1.000000
vn 0.000000 0.000000 1.000000
vn 0.000000 0.000000 1.000000
vn 0.000000 0.000000 1.000000
vn 0.000000 0.000000 1.000000
vn 0.000000 0.000000 1.000000
vn 0.000000 0.000000 -1.000000
vn 0.000000 0.000000 -1.000000
vn 0.000000 0.000000 -1.000000
vn 0.000000 0.000000 -1.000000
vn 0.000000 0.000000 -1.000000
vn 0.000000 0.000000 -1.000000
vn 0.000000 0.000000 -1.000000
vn 0.000000 0.000000 -1.000000
f 13/25/1 16/28/2 15/27/3 14/26/4
f 2/2/5 3/3/6 6/11/7 5/10/8
f 3/3/9 4/4/10 7/12/11 6/11/12
f 4/4/13 1/5/14 8/14/15 7/12/16
f 4/6/17 3/7/18 2/2/19 1/1/20
f 7/15/21 8/18/22 5/17/23 6/16/24
f 1/1/25 9/19/26 10/20/27 8/13/28
f 5/10/29 11/21/30 12/22/31 2/2/32
f 2/2/33 12/22/34 9/19/35 1/1/36
f 8/9/37 10/23/38 11/24/39 5/8/40
f 9/29/41 13/32/42 14/31/43 10/30/44
f 11/33/45 15/36/46 16/35/47 12/34/48
f 12/34/49 16/35/50 13/32/51 9/29/52
f 10/37/53 14/40/54 15/38/55 11/39/56
f 41/41/57 42/42/58 47/43/59 48/44/60
f 42/42/61 41/41/62 44/45/63 43/46/64
f 49/49/65 50/50/66 55/51/67 56/52/68
f 57/57/69 58/58/70 63/59/71 64/60/72
f 61/64/73 62/63/74 64/65/75 63/66/76
f 17/67/77 55/51/67 50/50/66 19/68/78
f 19/68/79 50/50/80 51/53/81 21/69/82
f 23/70/83 53/56/84 55/71/85 17/72/86
f 25/73/87 47/43/59 42/42/58 27/74/88
f 27/74/89 42/42/61 43/46/64 29/75/90
f 31/76/91 45/48/92 47/77/93 25/78/94
f 33/79/95 63/59/71 58/58/70 35/80/96
f 35/80/97 58/58/98 59/61/99 37/81/100
f 39/82/101 61/64/73 63/66/76 33/83/102
f 41/41/62 28/84/103 30/85/104 44/45/63
f 48/87/105 46/47/106 32/86/107 26/88/108
f 41/41/57 48/44/60 26/89/109 28/84/110
f 49/49/111 20/90/112 22/91/113 52/54/114
f 56/93/115 54/55/116 24/92/117 18/94/118
f 49/49/65 56/52/68 18/95/119 20/90/120
f 57/57/121 36/96/122 38/97/123 60/62/124
f 64/65/75 62/63/74 40/98/125 34/99/126
f 57/57/69 64/60/72 34/100/127 36/96/128
f 48/44/60 47/43/59 50/50/66 49/49/65
f 47/77/129 45/48/130 51/53/131 50/50/132
f 46/47/133 48/87/134 49/49/135 52/54/136
f 56/52/68 55/51/67 58/58/70 57/57/69
f 55/71/137 53/56/138 59/61/139 58/58/140
f 54/55/141 56/93/142 57/57/143 60/62/144
f 77/101/145 78/102/146 79/103/147 80/104/148
f 66/105/149 69/106/150 70/107/151 67/108/152
f 67/108/153 70/107/154 71/109/155 68/110/156
f 68/110/157 71/109/158 72/111/159 65/112/160
f 68/113/161 65/114/162 66/105/163 67/115/164
f 71/116/165 70/117/166 69/118/167 72/119/168
f 65/114/169 72/120/170 74/121/171 73/122/172
f 69/106/173 66/105/174 76/123/175 75/124/176
f 66/105/177 65/114/178 73/122/179 76/123/180
f 72/125/181 69/126/182 75/127/183 74/128/184
f 73/129/185 74/130/186 78/131/187 77/132/188
f 75/133/189 76/134/190 80/135/191 79/136/192
f 76/134/193 73/129/194 77/132/195 80/135/196
f 74/137/197 75/138/198 79/139/199 78/140/200
f 32/141/201 46/142/202 52/143/203 22/144/204
f 45/145/205 31/146/206 21/147/207 51/148/208
f 24/149/209 54/150/210 60/151/211 38/152/212
f 53/153/213 23/154/214 37/155/215 59/156/216
f 29/75/217 43/46/218 61/64/219 39/82/220
f 43/46/218 44/45/221 62/63/222 61/64/219
f 44/45/221 30/85/223 40/98/224 62/63/222
