# This file uses meters as units for non-parametric coordinates.

v -209.905396 0.000000 100.000000
v -319.855774 0.000000 100.000000
v -319.855774 0.000000 0.000000
v -209.905396 0.000000 0.000000
v -319.855774 392.163605 100.000000
v -319.855774 392.163605 0.000000
v -209.905396 392.163605 0.000000
v -209.905396 392.163605 100.000000
v -319.855774 196.081802 100.000000
v -319.855774 196.081802 0.000000
v -209.905396 196.081802 0.000000
v -209.905396 196.081802 100.000000
v -216.240967 6.453873 100.000000
v -216.240967 196.081802 100.000000
v -313.520203 196.081802 100.000000
v -313.520203 6.453873 100.000000
v -216.240967 385.709717 100.000000
v -313.520203 385.709717 100.000000
v -313.520203 6.453873 96.201233
v -313.520203 196.081802 96.201233
v -313.520203 385.709717 96.201233
v -216.240967 385.709717 96.201233
v -216.240967 196.081802 96.201233
v -216.240967 6.453873 96.201233
v -218.370010 8.582916 8.501225
v -218.848511 196.081802 8.979717
v -310.912659 196.081802 8.979717
v -311.391174 8.582916 8.501225
v -218.370010 383.580658 8.501225
v -311.391174 383.580658 8.501225
v -311.676392 8.297684 96.201233
v -309.832581 196.081802 96.201233
v -311.676392 383.865906 96.201233
v -218.084778 383.865906 96.201233
v -219.928589 196.081802 96.201233
v -218.084778 8.297684 96.201233
v -309.832581 114.835167 96.201225
v -218.370026 114.835167 96.201225
v -309.832581 119.649895 96.201225
v -218.370026 119.649895 96.201225
v -309.832581 119.649895 6.372162
v -218.370026 119.649895 6.372162
v -309.832581 114.835167 6.372162
v -218.370026 114.835167 6.372162
v -309.832581 210.517883 96.201225
v -218.370026 210.517883 96.201225
v -309.832581 215.332611 96.201225
v -218.370026 215.332611 96.201225
v -309.832581 215.332611 6.372162
v -218.370026 215.332611 6.372162
v -309.832581 210.517883 6.372162
v -218.370026 210.517883 6.372162
v -309.832581 298.092712 96.201225
v -218.370026 298.092712 96.201225
v -309.832581 302.907410 96.201225
v -218.370026 302.907410 96.201225
v -309.832581 302.907410 6.372162
v -218.370026 302.907410 6.372162
v -309.832581 298.092712 6.372162
v -218.370026 298.092712 6.372162
vt 0.765618 0.859484
vt 0.765618 0.764712
vt 0.765618 0.860720
vt 0.765618 0.764181
vt 0.765618 0.860650
vt 0.863398 0.859482
vt 0.863398 0.764716
vt 0.830805 0.764714
vt 0.830805 0.860720
vt 0.830805 0.764181
vt 0.830805 0.859483
vt 0.830805 0.860649
vt 0.798211 0.764713
vt 0.798211 0.860720
vt 0.798211 0.764181
vt 0.798211 0.859484
vt 0.798211 0.860649
vt 0.863501 0.764551
vt 0.863501 0.861578
vt 0.766474 0.861578
vt 0.766474 0.764551
vt 0.765618 0.859484
vt 0.798211 0.859484
vt 0.798211 0.764713
vt 0.765618 0.764712
vt 0.830805 0.859483
vt 0.830805 0.764714
vt 0.765618 0.859484
vt 0.798211 0.859484
vt 0.798211 0.764713
vt 0.765618 0.764712
vt 0.830805 0.859483
vt 0.830805 0.764714
vt 0.853823 0.776450
vt 0.777446 0.776450
vt 0.777446 0.852826
vt 0.853823 0.852826
vt 0.853823 0.776450
vt 0.777446 0.776450
vt 0.777446 0.852826
vt 0.853823 0.852826
vt 0.853823 0.776450
vt 0.777446 0.852826
vt 0.777446 0.776450
vt 0.853823 0.852826
vt 0.777446 0.779549
vt 0.853823 0.779549
vt 0.777446 0.779549
vt 0.853823 0.779549
vt 0.777446 0.779549
vt 0.853823 0.779549
vt 0.853823 0.779549
vt 0.777446 0.779549
vt 0.777446 0.779549
vt 0.853823 0.779549
vt 0.777446 0.779549
vt 0.853823 0.779549
vt 0.765795 0.761881
vt 0.765797 0.859662
vt 0.785034 0.859662
vt 0.785037 0.761881
vt 0.863220 0.859662
vt 0.863220 0.761881
vt 0.848353 0.761881
vt 0.848353 0.859662
vt 0.785984 0.859662
vt 0.785984 0.761881
vt 0.765795 0.761881
vt 0.765797 0.859662
vt 0.785034 0.859662
vt 0.785037 0.761881
vt 0.863220 0.859662
vt 0.863220 0.761881
vt 0.848353 0.761881
vt 0.848353 0.859662
vt 0.785984 0.859662
vt 0.785984 0.761881
vt 0.765795 0.761881
vt 0.765797 0.859662
vt 0.785034 0.859662
vt 0.785037 0.761881
vt 0.863220 0.859662
vt 0.863220 0.761881
vt 0.848353 0.761881
vt 0.848353 0.859662
vt 0.785984 0.859662
vt 0.785984 0.761881
vn 0.000000 -0.002552 0.999997
vn 0.000000 0.000000 1.000000
vn 0.000000 0.000000 1.000000
vn 0.000000 -0.002552 0.999997
vn -1.000000 0.000000 0.000000
vn -1.000000 0.000000 0.000000
vn -1.000000 0.000000 0.000000
vn -1.000000 0.000000 0.000000
vn 0.000000 0.000000 -1.000000
vn 0.000000 0.000000 -1.000000
vn 0.000000 0.000000 -1.000000
vn 0.000000 0.000000 -1.000000
vn 1.000000 0.000000 0.000000
vn 1.000000 0.000000 0.000000
vn 1.000000 0.000000 0.000000
vn 1.000000 0.000000 0.000000
vn 0.000000 -1.000000 0.000000
vn 0.000000 -1.000000 0.000000
vn 0.000000 -1.000000 0.000000
vn 0.000000 -1.000000 0.000000
vn -1.000000 0.000000 0.000000
vn -1.000000 0.000000 0.000000
vn 0.000000 0.000000 -1.000000
vn 0.000000 0.000000 -1.000000
vn 1.000000 0.000000 0.000000
vn 1.000000 0.000000 0.000000
vn 0.000000 0.002552 0.999997
vn 0.000000 0.002552 0.999997
vn 0.000000 1.000000 0.000000
vn 0.000000 1.000000 0.000000
vn 0.000000 1.000000 0.000000
vn 0.000000 1.000000 0.000000
vn 0.000000 0.000000 1.000000
vn 0.000000 0.000000 1.000000
vn 0.000000 0.000000 1.000000
vn 0.000000 0.000000 1.000000
vn 0.000000 0.000000 1.000000
vn 0.000000 0.000000 1.000000
vn 0.000000 0.000000 1.000000
vn 0.000000 0.000000 1.000000
vn 0.000000 0.000000 1.000000
vn 0.000000 0.000000 1.000000
vn 0.000000 0.000000 1.000000
vn 0.000000 0.000000 1.000000
vn 0.000000 0.000000 1.000000
vn 0.000000 0.000000 1.000000
vn 0.000000 0.000000 1.000000
vn 0.000000 0.000000 1.000000
vn 0.000000 0.000000 1.000000
vn 0.000000 0.000000 1.000000
vn 0.000000 0.000000 1.000000
vn 0.000000 0.000000 1.000000
vn -0.000000 0.000000 1.000000
vn -0.000000 0.000000 1.000000
vn -0.000000 0.000000 1.000000
vn -0.000000 0.000000 1.000000
vn -1.000000 0.000000 0.000000
vn -1.000000 0.000000 0.000000
vn -1.000000 0.000000 0.000000
vn -1.000000 0.000000 0.000000
vn 1.000000 0.000000 0.000000
vn 1.000000 0.000000 0.000000
vn 1.000000 0.000000 0.000000
vn 1.000000 0.000000 0.000000
vn 0.000000 1.000000 0.000000
vn 0.000000 1.000000 0.000000
vn 0.000000 1.000000 0.000000
vn 0.000000 1.000000 0.000000
vn -1.000000 0.000000 0.000000
vn -1.000000 0.000000 0.000000
vn -1.000000 0.000000 0.000000
vn -1.000000 0.000000 0.000000
vn 0.000000 -1.000000 0.000000
vn 0.000000 -1.000000 0.000000
vn 0.000000 -1.000000 0.000000
vn 0.000000 -1.000000 0.000000
vn 1.000000 0.000000 0.000000
vn 1.000000 0.000000 0.000000
vn 1.000000 0.000000 0.000000
vn 1.000000 0.000000 0.000000
vn 0.999971 -0.006182 -0.004554
vn 0.999971 -0.006182 -0.004554
vn 0.999971 -0.006182 -0.004554
vn 0.999971 -0.006182 -0.004554
vn 0.999971 0.006182 -0.004554
vn 0.999971 0.006182 -0.004554
vn 0.999971 0.006182 -0.004554
vn 0.999971 0.006182 -0.004554
vn 0.000000 -0.999995 0.003252
vn 0.000000 -0.999995 0.003252
vn 0.000000 -0.999995 0.003252
vn 0.000000 -0.999995 0.003252
vn -0.999971 0.006182 -0.004554
vn -0.999971 0.006182 -0.004554
vn -0.999971 0.006182 -0.004554
vn -0.999971 0.006182 -0.004554
vn -0.999971 -0.006182 -0.004554
vn -0.999971 -0.006182 -0.004554
vn -0.999971 -0.006182 -0.004554
vn -0.999971 -0.006182 -0.004554
vn 0.000000 0.999995 0.003252
vn 0.000000 0.999995 0.003252
vn 0.000000 0.999995 0.003252
vn 0.000000 0.999995 0.003252
vn 0.000000 0.000000 1.000000
vn 0.000000 0.000000 1.000000
vn 0.000000 0.000000 1.000000
vn 0.000000 0.000000 1.000000
vn 0.000000 0.000000 1.000000
vn 0.000000 0.000000 1.000000
vn 0.000000 0.000000 1.000000
vn 0.000000 0.000000 1.000000
vn -0.000000 0.000000 1.000000
vn -0.000000 0.000000 1.000000
vn -0.000000 0.000000 1.000000
vn -0.000000 0.000000 1.000000
vn 0.000000 0.000000 1.000000
vn 0.000000 0.000000 1.000000
vn 0.000000 0.000000 1.000000
vn 0.000000 0.000000 1.000000
vn 0.000000 1.000000 0.000000
vn 0.000000 1.000000 0.000000
vn 0.000000 1.000000 0.000000
vn 0.000000 1.000000 0.000000
vn 0.000000 -1.000000 0.000000
vn 0.000000 -1.000000 0.000000
vn 0.000000 -1.000000 0.000000
vn 0.000000 -1.000000 0.000000
vn 0.000000 0.000000 1.000000
vn 0.000000 0.000000 1.000000
vn 0.000000 0.000000 1.000000
vn 0.000000 0.000000 1.000000
vn 0.000000 1.000000 0.000000
vn 0.000000 1.000000 0.000000
vn 0.000000 1.000000 0.000000
vn 0.000000 1.000000 0.000000
vn 0.000000 -1.000000 0.000000
vn 0.000000 -1.000000 0.000000
vn 0.000000 -1.000000 0.000000
vn 0.000000 -1.000000 0.000000
vn 0.000000 0.000000 1.000000
vn 0.000000 0.000000 1.000000
vn 0.000000 0.000000 1.000000
vn 0.000000 0.000000 1.000000
vn 0.000000 1.000000 0.000000
vn 0.000000 1.000000 0.000000
vn 0.000000 1.000000 0.000000
vn 0.000000 1.000000 0.000000
vn 0.000000 -1.000000 0.000000
vn 0.000000 -1.000000 0.000000
vn 0.000000 -1.000000 0.000000
vn 0.000000 -1.000000 0.000000
f 25/28/1 26/29/2 27/30/3 28/31/4
f 2/2/5 9/13/6 10/14/7 3/3/8
f 3/3/9 10/14/10 11/15/11 4/4/12
f 4/4/13 11/15/14 12/17/15 1/5/16
f 4/6/17 1/1/18 2/2/19 3/7/20
f 9/13/6 5/8/21 6/9/22 10/14/7
f 11/15/11 10/14/10 6/9/23 7/10/24
f 12/17/15 11/15/14 7/10/25 8/12/26
f 27/30/3 26/29/2 29/32/27 30/33/28
f 7/18/29 6/19/30 5/20/31 8/21/32
f 1/1/33 12/16/34 14/23/35 13/22/36
f 9/13/37 2/2/38 16/25/39 15/24/40
f 2/2/41 1/1/42 13/22/43 16/25/44
f 12/16/45 8/11/46 17/26/47 14/23/48
f 8/11/49 5/8/50 18/27/51 17/26/52
f 5/8/53 9/13/54 15/24/55 18/27/56
f 13/34/57 14/35/58 23/50/59 24/51/60
f 15/38/61 16/39/62 19/46/63 20/47/64
f 16/39/65 13/34/66 24/51/67 19/46/68
f 14/35/69 17/42/70 22/49/71 23/50/72
f 17/42/73 18/44/74 21/48/75 22/49/76
f 18/44/77 15/38/78 20/47/79 21/48/80
f 32/52/81 31/53/82 28/40/83 27/41/84
f 33/54/85 32/52/86 27/41/87 30/43/88
f 34/55/89 33/54/90 30/43/91 29/45/92
f 35/56/93 34/55/94 29/45/95 26/36/96
f 36/57/97 35/56/98 26/36/99 25/37/100
f 31/53/101 36/57/102 25/37/103 28/40/104
f 20/47/105 19/46/106 31/53/107 32/52/108
f 21/48/109 20/47/105 32/52/108 33/54/110
f 22/49/111 21/48/109 33/54/110 34/55/112
f 23/50/113 22/49/111 34/55/112 35/56/114
f 24/51/115 23/50/113 35/56/114 36/57/116
f 19/46/106 24/51/115 36/57/116 31/53/107
f 37/58/117 38/59/118 40/60/119 39/61/120
f 39/61/121 40/60/122 42/62/123 41/63/124
f 43/64/125 44/65/126 38/66/127 37/67/128
f 45/68/129 46/69/130 48/70/131 47/71/132
f 47/71/133 48/70/134 50/72/135 49/73/136
f 51/74/137 52/75/138 46/76/139 45/77/140
f 53/78/141 54/79/142 56/80/143 55/81/144
f 55/81/145 56/80/146 58/82/147 57/83/148
f 59/84/149 60/85/150 54/86/151 53/87/152
