# This file uses meters as units for non-parametric coordinates.

v 57.700836 28.817312 116.006561
v 57.700836 28.817312 111.296066
v 57.700836 32.896599 116.006561
v 57.700836 32.896599 111.296066
v 61.102119 32.896599 116.006561
v 61.102119 32.896599 111.296066
v 61.102119 28.817312 116.006561
v 61.102119 28.817312 111.296066
v -57.700836 28.817314 116.006569
v -57.700836 28.817314 111.296066
v -57.700836 32.896595 116.006569
v -57.700836 32.896595 111.296066
v -61.102119 32.896595 116.006569
v -61.102119 32.896595 111.296066
v -61.102119 28.817314 116.006569
v -61.102119 28.817314 111.296066
v -77.807556 28.081049 119.407867
v 77.807556 28.081049 119.407867
v -77.807556 33.632858 119.407867
v 77.807556 33.632858 119.407867
v -77.807556 33.632858 116.006592
v 77.807556 33.632858 116.006592
v -77.807556 28.081049 116.006592
v 77.807556 28.081049 116.006592
vt 0.665935 0.197004
vt 0.712143 0.197004
vt 0.665935 0.243621
vt 0.712143 0.243621
vt 0.665935 0.197004
vt 0.712143 0.197004
vt 0.665935 0.243621
vt 0.712143 0.243621
vt 0.665935 0.197004
vt 0.712143 0.197004
vt 0.665935 0.197004
vt 0.712143 0.197004
vt 0.712143 0.243621
vt 0.665935 0.243621
vt 0.712143 0.197004
vt 0.665935 0.197004
vt 0.712143 0.243621
vt 0.665935 0.243621
vt 0.712143 0.197004
vt 0.665935 0.197004
vt 0.636632 0.197004
vt 0.741446 0.197004
vt 0.741446 0.243621
vt 0.636632 0.243621
vt 0.741446 0.197004
vt 0.636632 0.197004
vt 0.741446 0.243621
vt 0.636632 0.243621
vt 0.741446 0.197004
vt 0.636632 0.197004
vt 0.727246 0.197004
vt 0.727246 0.243621
vt 0.651382 0.197004
vt 0.651382 0.243621
vn -1.000000 0.000000 0.000000
vn -1.000000 0.000000 0.000000
vn -1.000000 0.000000 0.000000
vn -1.000000 0.000000 0.000000
vn 0.000000 1.000000 0.000000
vn 0.000000 1.000000 0.000000
vn 0.000000 1.000000 0.000000
vn 0.000000 1.000000 0.000000
vn 1.000000 0.000000 0.000000
vn 1.000000 0.000000 0.000000
vn 1.000000 0.000000 0.000000
vn 1.000000 0.000000 0.000000
vn 0.000000 -1.000000 0.000000
vn 0.000000 -1.000000 0.000000
vn 0.000000 -1.000000 0.000000
vn 0.000000 -1.000000 0.000000
vn 1.000000 0.000000 0.000000
vn 1.000000 0.000000 0.000000
vn 1.000000 0.000000 0.000000
vn 1.000000 0.000000 0.000000
vn 0.000000 1.000000 0.000000
vn 0.000000 1.000000 0.000000
vn 0.000000 1.000000 0.000000
vn 0.000000 1.000000 0.000000
vn -1.000000 0.000000 0.000000
vn -1.000000 0.000000 0.000000
vn -1.000000 0.000000 0.000000
vn -1.000000 0.000000 0.000000
vn 0.000000 -1.000000 0.000000
vn 0.000000 -1.000000 0.000000
vn 0.000000 -1.000000 0.000000
vn 0.000000 -1.000000 0.000000
vn 0.000000 0.000000 1.000000
vn 0.000000 0.000000 1.000000
vn 0.000000 0.000000 1.000000
vn 0.000000 0.000000 1.000000
vn 0.000000 1.000000 0.000000
vn 0.000000 1.000000 0.000000
vn 0.000000 1.000000 0.000000
vn 0.000000 1.000000 0.000000
vn 0.000000 0.000000 -1.000000
vn 0.000000 0.000000 -1.000000
vn 0.000000 0.000000 -1.000000
vn 0.000000 0.000000 -1.000000
vn 0.000000 -1.000000 0.000000
vn 0.000000 -1.000000 0.000000
vn 0.000000 -1.000000 0.000000
vn 0.000000 -1.000000 0.000000
vn 1.000000 0.000000 0.000000
vn 1.000000 0.000000 0.000000
vn 1.000000 0.000000 0.000000
vn 1.000000 0.000000 0.000000
vn -1.000000 0.000000 0.000000
vn -1.000000 0.000000 0.000000
vn -1.000000 0.000000 0.000000
vn -1.000000 0.000000 0.000000
f 1/1/1 3/3/2 4/4/3 2/2/4
f 3/3/5 5/5/6 6/6/7 4/4/8
f 5/5/9 7/7/10 8/8/11 6/6/12
f 7/7/13 1/9/14 2/10/15 8/8/16
f 9/11/17 10/12/18 12/13/19 11/14/20
f 11/14/21 12/13/22 14/15/23 13/16/24
f 13/16/25 14/15/26 16/17/27 15/18/28
f 15/18/29 16/17/30 10/19/31 9/20/32
f 17/21/33 18/22/34 20/23/35 19/24/36
f 19/24/37 20/23/38 22/25/39 21/26/40
f 21/26/41 22/25/42 24/27/43 23/28/44
f 23/28/45 24/27/46 18/29/47 17/30/48
f 18/22/49 24/31/50 22/32/51 20/23/52
f 23/33/53 17/21/54 19/24/55 21/34/56
