# This file uses meters as units for non-parametric coordinates.

v -197.947662 71.018555 120.765160
v 197.947662 71.018555 120.765160
v -197.947662 79.064445 120.765160
v 197.947662 79.064445 120.765160
v -197.947662 79.064445 0.000000
v 197.947662 79.064445 0.000000
v -197.947662 71.018555 0.000000
v 197.947662 71.018555 0.000000
v 0.000000 79.064445 120.765160
v 0.000000 79.064445 0.000000
v 0.000000 71.018555 0.000000
v 0.000000 71.018555 120.765160
v 76.414169 54.652802 116.333580
v 76.414169 54.652802 7.681290
v 72.382187 54.652779 116.333511
v 72.382187 54.652779 7.681203
v 72.382187 71.018562 116.333504
v 72.382187 71.018562 7.681217
v 76.414169 71.018585 116.333572
v 76.414169 71.018585 7.681290
v -76.414169 54.652802 116.333588
v -76.414169 54.652802 7.681290
v -72.382179 54.652779 116.333504
v -72.382179 54.652779 7.681198
v -72.382179 71.018562 116.333504
v -72.382179 71.018562 7.681198
v -76.414169 71.018585 116.333588
v -76.414169 71.018585 7.681290
v -197.947662 19.695574 120.765160
v 197.947662 19.695574 120.765160
v -197.947662 54.652782 120.765160
v 197.947662 54.652782 120.765160
v -197.947662 54.652782 0.000000
v 197.947662 54.652782 0.000000
v -197.947662 19.695574 0.000000
v 197.947662 19.695574 0.000000
v 0.000000 54.652782 120.765160
v 0.000000 54.652782 0.000000
v 0.000000 19.695574 0.000000
v 0.000000 19.695574 120.765160
v -180.125198 0.000000 75.604797
v 180.125198 0.000000 75.604797
v -180.125198 19.695574 75.604797
v 180.125198 19.695574 75.604797
v -180.125198 19.695574 0.000000
v 180.125198 19.695574 0.000000
v -180.125198 0.000000 0.000000
v 180.125198 0.000000 0.000000
v 0.000000 19.695574 75.604797
v 0.000000 19.695574 0.000000
v 0.000000 0.000000 0.000000
v 0.000000 0.000000 75.604797
v -197.947662 71.018555 7.681173
v 197.947662 71.018555 7.681173
v -197.947662 71.018555 0.000000
v 197.947662 71.018555 0.000000
v -197.947662 54.652779 0.000000
v 197.947662 54.652779 0.000000
v -197.947662 54.652779 7.681173
v 197.947662 54.652779 7.681173
v 0.000000 71.018555 0.000000
v 0.000000 54.652779 0.000000
v 0.000000 54.652779 7.681173
v 0.000000 71.018555 7.681173
vt 0.640618 0.762857
vt 0.640618 0.762854
vt 0.640618 0.859349
vt 0.640618 0.859353
vt 0.640618 0.762059
vt 0.640618 0.762059
vt 0.640618 0.859360
vt 0.640618 0.859360
vt 0.640618 0.763413
vt 0.640618 0.763412
vt 0.727017 0.772224
vt 0.727017 0.853032
vt 0.646209 0.772224
vt 0.646209 0.853032
vt 0.736753 0.859351
vt 0.736753 0.762059
vt 0.736753 0.859360
vt 0.736753 0.762855
vt 0.736753 0.763412
vt 0.646209 0.772224
vt 0.646209 0.853032
vt 0.727017 0.772224
vt 0.727017 0.853032
vt 0.640618 0.840242
vt 0.640618 0.762059
vt 0.738398 0.762059
vt 0.738398 0.840245
vt 0.640618 0.776926
vt 0.640618 0.839295
vt 0.738398 0.839295
vt 0.738398 0.776926
vt 0.738398 0.859482
vt 0.738398 0.840245
vt 0.640618 0.859484
vt 0.640618 0.840242
vt 0.738398 0.840245
vt 0.738398 0.762059
vt 0.640618 0.762059
vt 0.640618 0.776926
vt 0.738398 0.776926
vt 0.738398 0.839295
vt 0.640618 0.839295
vt 0.738398 0.859482
vt 0.640618 0.859484
vt 0.738398 0.840245
vt 0.640618 0.762857
vt 0.736753 0.762855
vt 0.736753 0.859351
vt 0.640618 0.859349
vt 0.736753 0.762059
vt 0.640618 0.762059
vt 0.736753 0.859360
vt 0.640618 0.859360
vt 0.736753 0.763412
vt 0.640618 0.763413
vt 0.646209 0.772224
vt 0.727017 0.772224
vt 0.727017 0.853032
vt 0.646209 0.853032
vt 0.646209 0.772224
vt 0.727017 0.772224
vt 0.727017 0.853032
vt 0.646209 0.853032
vt 0.640618 0.859353
vt 0.640618 0.762059
vt 0.640618 0.859360
vt 0.640618 0.763412
vt 0.640618 0.762854
vt 0.640618 0.762857
vt 0.736753 0.762855
vt 0.736753 0.859351
vt 0.640618 0.859349
vt 0.640618 0.762059
vt 0.736753 0.762059
vt 0.736753 0.859360
vt 0.640618 0.859360
vt 0.736753 0.763412
vt 0.640618 0.763413
vt 0.646209 0.772224
vt 0.727017 0.772224
vt 0.727017 0.853032
vt 0.646209 0.853032
vt 0.646209 0.772224
vt 0.727017 0.772224
vt 0.727017 0.853032
vt 0.646209 0.853032
vt 0.640618 0.762059
vt 0.640618 0.859360
vt 0.640618 0.763412
vt 0.640618 0.762854
vt 0.640618 0.859353
vt 0.640618 0.859349
vt 0.736753 0.859351
vt 0.736753 0.762059
vt 0.640618 0.762059
vt 0.640618 0.859360
vt 0.736753 0.859360
vt 0.736753 0.763412
vt 0.640618 0.763413
vt 0.640618 0.762854
vt 0.640618 0.859484
vt 0.640618 0.859349
vt 0.640618 0.859353
vt 0.640618 0.859482
vt 0.640618 0.762857
vt 0.640618 0.859353
vt 0.640618 0.762059
vt 0.640618 0.859360
vt 0.640618 0.763412
vn 0.000000 0.000000 1.000000
vn 0.000000 0.000000 1.000000
vn 0.000000 0.000000 1.000000
vn 0.000000 0.000000 1.000000
vn 0.000000 1.000000 0.000000
vn 0.000000 1.000000 0.000000
vn 0.000000 1.000000 0.000000
vn 0.000000 1.000000 0.000000
vn 0.000000 0.000000 -1.000000
vn 0.000000 0.000000 -1.000000
vn 0.000000 0.000000 -1.000000
vn 0.000000 0.000000 -1.000000
vn 0.000000 -1.000000 0.000000
vn 0.000000 -1.000000 0.000000
vn 0.000000 -1.000000 0.000000
vn 0.000000 -1.000000 0.000000
vn 1.000000 0.000000 0.000000
vn 1.000000 0.000000 0.000000
vn 1.000000 0.000000 0.000000
vn 1.000000 0.000000 0.000000
vn -1.000000 0.000000 0.000000
vn -1.000000 0.000000 0.000000
vn -1.000000 0.000000 0.000000
vn -1.000000 0.000000 0.000000
vn 0.000000 1.000000 0.000000
vn 0.000000 1.000000 0.000000
vn 0.000000 0.000000 -1.000000
vn 0.000000 0.000000 -1.000000
vn 0.000000 -1.000000 0.000000
vn 0.000000 -1.000000 0.000000
vn 0.000000 0.000000 1.000000
vn 0.000000 0.000000 1.000000
vn -1.000000 -0.000000 0.000000
vn -1.000000 -0.000000 0.000000
vn -1.000000 -0.000000 0.000000
vn -1.000000 -0.000000 0.000000
vn 1.000000 -0.000001 0.000000
vn 1.000000 -0.000001 0.000000
vn 1.000000 -0.000001 0.000000
vn 1.000000 -0.000001 0.000000
vn -0.000017 0.000000 1.000000
vn -0.000017 0.000000 1.000000
vn -0.000017 0.000000 1.000000
vn -0.000017 0.000000 1.000000
vn 1.000000 0.000000 0.000000
vn 1.000000 0.000000 0.000000
vn 1.000000 0.000000 0.000000
vn 1.000000 0.000000 0.000000
vn -1.000000 0.000000 0.000000
vn -1.000000 0.000000 0.000000
vn -1.000000 0.000000 0.000000
vn -1.000000 0.000000 0.000000
vn 0.000023 0.000000 1.000000
vn 0.000023 0.000000 1.000000
vn 0.000023 0.000000 1.000000
vn 0.000023 0.000000 1.000000
vn 0.000000 0.000000 1.000000
vn 0.000000 0.000000 1.000000
vn 0.000000 0.000000 1.000000
vn 0.000000 0.000000 1.000000
vn 0.000000 1.000000 0.000000
vn 0.000000 1.000000 0.000000
vn 0.000000 1.000000 0.000000
vn 0.000000 1.000000 0.000000
vn 0.000000 0.000000 -1.000000
vn 0.000000 0.000000 -1.000000
vn 0.000000 0.000000 -1.000000
vn 0.000000 0.000000 -1.000000
vn 0.000000 -1.000000 0.000000
vn 0.000000 -1.000000 0.000000
vn 0.000000 -1.000000 0.000000
vn 0.000000 -1.000000 0.000000
vn 1.000000 0.000000 0.000000
vn 1.000000 0.000000 0.000000
vn 1.000000 0.000000 0.000000
vn 1.000000 0.000000 0.000000
vn -1.000000 0.000000 0.000000
vn -1.000000 0.000000 0.000000
vn -1.000000 0.000000 0.000000
vn -1.000000 0.000000 0.000000
vn 0.000000 1.000000 0.000000
vn 0.000000 1.000000 0.000000
vn 0.000000 0.000000 -1.000000
vn 0.000000 0.000000 -1.000000
vn 0.000000 -1.000000 0.000000
vn 0.000000 -1.000000 0.000000
vn 0.000000 0.000000 1.000000
vn 0.000000 0.000000 1.000000
vn 0.000000 0.000000 1.000000
vn 0.000000 0.000000 1.000000
vn 0.000000 0.000000 1.000000
vn 0.000000 0.000000 1.000000
vn 0.000000 0.000000 -1.000000
vn 0.000000 0.000000 -1.000000
vn 0.000000 0.000000 -1.000000
vn 0.000000 0.000000 -1.000000
vn 0.000000 -1.000000 0.000000
vn 0.000000 -1.000000 0.000000
vn 0.000000 -1.000000 0.000000
vn 0.000000 -1.000000 0.000000
vn 1.000000 0.000000 0.000000
vn 1.000000 0.000000 0.000000
vn 1.000000 0.000000 0.000000
vn 1.000000 0.000000 0.000000
vn -1.000000 0.000000 0.000000
vn -1.000000 0.000000 0.000000
vn -1.000000 0.000000 0.000000
vn -1.000000 0.000000 0.000000
vn 0.000000 0.000000 -1.000000
vn 0.000000 0.000000 -1.000000
vn 0.000000 -1.000000 0.000000
vn 0.000000 -1.000000 0.000000
vn 0.000000 0.000000 1.000000
vn 0.000000 0.000000 1.000000
vn 0.000000 0.000000 -1.000000
vn 0.000000 0.000000 -1.000000
vn 0.000000 0.000000 -1.000000
vn 0.000000 0.000000 -1.000000
vn 0.000000 0.000000 1.000000
vn 0.000000 0.000000 1.000000
vn 0.000000 0.000000 1.000000
vn 0.000000 0.000000 1.000000
vn 1.000000 0.000000 0.000000
vn 1.000000 0.000000 0.000000
vn 1.000000 0.000000 0.000000
vn 1.000000 0.000000 0.000000
vn -1.000000 0.000000 0.000000
vn -1.000000 0.000000 0.000000
vn -1.000000 0.000000 0.000000
vn -1.000000 0.000000 0.000000
vn 0.000000 0.000000 -1.000000
vn 0.000000 0.000000 -1.000000
vn 0.000000 0.000000 1.000000
vn 0.000000 0.000000 1.000000
f 1/1/1 12/18/2 9/15/3 3/3/4
f 3/3/5 9/15/6 10/16/7 5/5/8
f 5/5/9 10/16/10 11/17/11 7/7/12
f 7/7/13 11/17/14 12/19/15 1/9/16
f 2/20/17 8/11/18 6/12/19 4/21/20
f 7/13/21 1/22/22 3/23/23 5/14/24
f 9/15/6 4/4/25 6/6/26 10/16/7
f 11/17/11 10/16/10 6/6/27 8/8/28
f 12/19/15 11/17/14 8/8/29 2/10/30
f 9/15/3 12/18/2 2/2/31 4/4/32
f 15/24/33 17/25/34 18/26/35 16/27/36
f 19/28/37 13/29/38 14/30/39 20/31/40
f 19/32/41 17/33/42 15/24/43 13/34/44
f 23/35/45 24/36/46 26/37/47 25/38/48
f 27/39/49 28/40/50 22/41/51 21/42/52
f 27/43/53 21/44/54 23/35/55 25/45/56
f 29/46/57 40/47/58 37/48/59 31/49/60
f 31/49/61 37/48/62 38/50/63 33/51/64
f 33/51/65 38/50/66 39/52/67 35/53/68
f 35/53/69 39/52/70 40/54/71 29/55/72
f 30/56/73 36/57/74 34/58/75 32/59/76
f 35/60/77 29/61/78 31/62/79 33/63/80
f 37/48/62 32/64/81 34/65/82 38/50/63
f 39/52/67 38/50/66 34/65/83 36/66/84
f 40/54/71 39/52/70 36/66/85 30/67/86
f 37/48/59 40/47/58 30/68/87 32/64/88
f 41/69/89 52/70/90 49/71/91 43/72/92
f 45/73/93 50/74/94 51/75/95 47/76/96
f 47/76/97 51/75/98 52/77/99 41/78/100
f 42/79/101 48/80/102 46/81/103 44/82/104
f 47/83/105 41/84/106 43/85/107 45/86/108
f 51/75/95 50/74/94 46/87/109 48/88/110
f 52/77/99 51/75/98 48/88/111 42/89/112
f 49/71/91 52/70/90 42/90/113 44/91/114
f 55/92/115 61/93/116 62/94/117 57/95/118
f 59/96/119 63/97/120 64/98/121 53/99/122
f 54/100/123 60/101/124 58/102/125 56/103/126
f 59/104/127 53/105/128 55/92/129 57/106/130
f 61/93/116 56/103/131 58/107/132 62/94/117
f 64/98/121 63/97/120 60/108/133 54/109/134
