# This file uses meters as units for non-parametric coordinates.

v -121.284813 9.690858 105.760590
v 121.284813 9.690858 105.760590
v -121.284813 46.161591 105.760590
v 121.284813 46.161591 105.760590
v -121.284813 46.161591 7.426140
v 121.284813 46.161591 7.426140
v -121.284813 9.690858 7.426140
v 121.284813 9.690858 7.426140
v -117.034302 13.941368 105.475861
v 117.034302 13.941368 105.475861
v 117.603767 46.161591 106.045311
v -117.603767 46.161591 106.045311
v -117.603767 46.161591 11.107189
v 117.603767 46.161591 11.107189
v 117.034302 13.941368 11.676649
v -117.034302 13.941368 11.676649
v -125.223259 9.690857 111.296066
v 125.223251 9.690857 111.296066
v -125.223259 51.417503 111.296066
v 125.223251 51.417503 111.296066
v -125.223259 51.417503 105.760590
v 125.223251 51.417503 105.760590
v -125.223259 9.690857 105.760590
v 125.223251 9.690857 105.760590
vt 0.302109 0.883172
vt 0.292872 0.882691
vt 0.305498 0.883067
vt 0.290159 0.882427
vt 0.309368 0.895357
vt 0.292759 0.895632
vt 0.302305 0.894537
vt 0.292996 0.892153
vt 0.305356 0.894494
vt 0.290670 0.892596
vt 0.293003 0.895247
vt 0.290406 0.893046
vt 0.309113 0.894981
vt 0.305706 0.894925
vt 0.309224 0.883017
vt 0.287814 0.882217
vt 0.305158 0.883037
vt 0.290440 0.882424
vt 0.292794 0.899127
vt 0.309390 0.898850
vt 0.287518 0.893542
vt 0.308964 0.894770
vt 0.309066 0.882781
vt 0.309069 0.891890
vt 0.474145 0.886977
vt 0.490883 0.886998
vt 0.490883 0.896805
vt 0.474145 0.896784
vt 0.489789 0.895021
vt 0.475211 0.895007
vt 0.489789 0.888799
vt 0.475211 0.888785
vn 0.000000 0.017671 0.999844
vn 0.000000 0.017671 0.999844
vn 0.000000 0.017671 0.999844
vn 0.000000 0.017671 0.999844
vn 0.000000 1.000000 0.000000
vn 0.000000 1.000000 0.000000
vn 0.000000 1.000000 0.000000
vn 0.000000 1.000000 0.000000
vn -0.999844 0.017672 0.000000
vn -0.999844 0.017672 0.000000
vn -0.999844 0.017672 0.000000
vn -0.999844 0.017672 0.000000
vn 0.999844 0.017672 0.000000
vn 0.999844 0.017672 0.000000
vn 0.999844 0.017672 0.000000
vn 0.999844 0.017672 0.000000
vn 0.000000 0.000000 -1.000000
vn 0.000000 0.000000 -1.000000
vn 0.000000 0.000000 -1.000000
vn 0.000000 0.000000 -1.000000
vn 0.000000 -1.000000 0.000000
vn 0.000000 -1.000000 0.000000
vn 0.000000 -1.000000 0.000000
vn 0.000000 -1.000000 0.000000
vn 1.000000 0.000000 0.000000
vn 1.000000 0.000000 0.000000
vn 1.000000 0.000000 0.000000
vn 1.000000 0.000000 0.000000
vn -1.000000 0.000000 0.000000
vn -1.000000 0.000000 0.000000
vn -1.000000 0.000000 0.000000
vn -1.000000 0.000000 0.000000
vn 0.000000 1.000000 0.000000
vn 0.000000 1.000000 0.000000
vn 0.000000 1.000000 0.000000
vn 0.000000 1.000000 0.000000
vn 0.000000 1.000000 0.000000
vn 0.000000 1.000000 0.000000
vn 0.000000 1.000000 0.000000
vn 0.000000 1.000000 0.000000
vn 0.000000 0.000000 1.000000
vn 0.000000 0.000000 1.000000
vn 0.000000 0.000000 1.000000
vn 0.000000 0.000000 1.000000
vn 0.000000 1.000000 0.000000
vn 0.000000 1.000000 0.000000
vn 0.000000 1.000000 0.000000
vn 0.000000 1.000000 0.000000
vn 0.000000 0.000000 -1.000000
vn 0.000000 0.000000 -1.000000
vn 0.000000 0.000000 -1.000000
vn 0.000000 0.000000 -1.000000
vn 0.000000 -1.000000 0.000000
vn 0.000000 -1.000000 0.000000
vn 0.000000 -1.000000 0.000000
vn 0.000000 -1.000000 0.000000
vn 1.000000 0.000000 0.000000
vn 1.000000 0.000000 0.000000
vn 1.000000 0.000000 0.000000
vn 1.000000 0.000000 0.000000
vn -1.000000 0.000000 0.000000
vn -1.000000 0.000000 0.000000
vn -1.000000 0.000000 0.000000
vn -1.000000 0.000000 0.000000
f 13/13/1 16/24/2 15/8/3 14/11/4
f 16/24/5 9/23/6 10/2/7 15/8/8
f 10/2/9 11/18/10 14/10/11 15/8/12
f 16/7/13 13/9/14 12/17/15 9/1/16
f 5/5/17 6/6/18 8/19/19 7/20/20
f 7/22/21 8/21/22 2/16/23 1/15/24
f 2/16/25 8/21/26 6/12/27 4/4/28
f 7/22/29 1/15/30 3/3/31 5/14/32
f 5/5/33 13/13/34 14/11/35 6/6/36
f 6/12/36 14/10/35 11/18/37 4/4/38
f 3/3/39 12/17/40 13/9/34 5/14/33
f 17/25/41 18/26/42 20/27/43 19/28/44
f 19/28/45 20/27/46 22/29/47 21/30/48
f 21/30/49 22/29/50 24/31/51 23/32/52
f 23/32/53 24/31/54 18/26/55 17/25/56
f 18/26/57 24/31/58 22/29/59 20/27/60
f 23/32/61 17/25/62 19/28/63 21/30/64
