# This file uses meters as units for non-parametric coordinates.

v -278.377506 364.873718 69.879128
v -370.606907 364.873718 69.879128
v -370.606907 102.186218 69.879128
v -278.377506 364.873718 75.841141
v -370.606907 364.873718 75.841141
v -370.606907 102.186218 75.841141
v -370.606907 332.186981 75.841141
v -370.606907 332.186981 69.879128
v -341.714481 364.873718 75.841141
v -341.714481 364.873718 69.879128
v -278.377506 332.186981 75.841141
v -341.714481 332.186981 75.841141
v -341.714481 332.186981 69.879128
v -278.377506 332.186981 69.879128
v -341.714481 102.186218 69.879128
v -341.714481 102.186218 75.841141
v -278.377506 69.499481 75.841141
v -278.377506 102.186218 75.841141
v -341.714481 69.499481 75.841141
v -278.377506 69.499481 69.879128
v -341.714481 69.499481 69.879128
v -278.377506 102.186218 69.879128
v -370.606907 69.499481 69.879128
v -370.606907 69.499481 75.841141
v -370.606907 102.186218 75.841141
v -370.606907 102.186218 69.879128
vt 0.458635 0.832456
vt 0.458635 0.839301
vt 0.447688 0.839301
vt 0.447688 0.832456
vt 0.458635 0.832456
vt 0.447688 0.832456
vt 0.447688 0.839301
vt 0.458635 0.839301
vt 0.458635 0.832456
vt 0.447688 0.832456
vt 0.458511 0.832456
vt 0.458511 0.832456
vt 0.458511 0.839301
vt 0.458511 0.839301
vt 0.458635 0.839301
vt 0.458511 0.823584
vt 0.458511 0.823584
vt 0.458511 0.832456
vt 0.458511 0.839301
vt 0.447688 0.823584
vt 0.458511 0.823584
vt 0.447688 0.823584
vt 0.458635 0.832456
vt 0.447688 0.832456
vt 0.447688 0.839301
vt 0.458635 0.839301
vt 0.458635 0.832456
vt 0.458635 0.839301
vt 0.447688 0.839301
vt 0.447688 0.832456
vt 0.458635 0.832456
vt 0.447688 0.832456
vt 0.458511 0.832456
vt 0.458511 0.839301
vt 0.458511 0.839301
vt 0.458511 0.832456
vt 0.458635 0.839301
vt 0.458511 0.839301
vt 0.458511 0.832456
vn 0.000000 0.000000 1.000000
vn 0.000000 0.000000 1.000000
vn 0.000000 0.000000 1.000000
vn 0.000000 0.000000 1.000000
vn 0.000000 0.000000 -1.000000
vn 0.000000 0.000000 -1.000000
vn 0.000000 0.000000 -1.000000
vn 0.000000 0.000000 -1.000000
vn 0.000000 1.000000 0.000000
vn 0.000000 1.000000 0.000000
vn 0.000000 1.000000 0.000000
vn 0.000000 1.000000 0.000000
vn -1.000000 0.000000 0.000000
vn -1.000000 0.000000 0.000000
vn -1.000000 0.000000 0.000000
vn -1.000000 0.000000 0.000000
vn 1.000000 0.000000 0.000000
vn 1.000000 0.000000 0.000000
vn 1.000000 0.000000 0.000000
vn 1.000000 0.000000 0.000000
vn -1.000000 0.000000 0.000000
vn -1.000000 0.000000 0.000000
vn 0.000000 0.000000 1.000000
vn 0.000000 0.000000 1.000000
vn 0.000000 1.000000 0.000000
vn 0.000000 1.000000 0.000000
vn 0.000000 0.000000 -1.000000
vn 0.000000 0.000000 -1.000000
vn 0.000000 0.000000 -1.000000
vn 0.000000 0.000000 -1.000000
vn 0.000000 0.000000 1.000000
vn 0.000000 0.000000 1.000000
vn 0.000000 0.000000 1.000000
vn 0.000000 0.000000 1.000000
vn 0.000000 0.000000 1.000000
vn 0.000000 0.000000 1.000000
vn 0.000000 0.000000 -1.000000
vn 0.000000 0.000000 -1.000000
vn 0.000000 0.000000 -1.000000
vn 0.000000 0.000000 -1.000000
vn 0.000000 -1.000000 0.000000
vn 0.000000 -1.000000 0.000000
vn 0.000000 -1.000000 0.000000
vn 0.000000 -1.000000 0.000000
vn -1.000000 0.000000 0.000000
vn -1.000000 0.000000 0.000000
vn -1.000000 0.000000 0.000000
vn -1.000000 0.000000 0.000000
vn 1.000000 0.000000 0.000000
vn 1.000000 0.000000 0.000000
vn 1.000000 0.000000 0.000000
vn 1.000000 0.000000 0.000000
vn 0.000000 0.000000 1.000000
vn 0.000000 0.000000 1.000000
vn 0.000000 -1.000000 0.000000
vn 0.000000 -1.000000 0.000000
vn 0.000000 0.000000 -1.000000
vn 0.000000 0.000000 -1.000000
f 4/1/1 9/4/2 12/3/3 11/2/4
f 1/5/5 14/8/6 13/7/7 10/6/8
f 1/9/9 10/10/10 9/4/11 4/1/12
f 2/11/13 8/14/14 7/13/15 5/12/16
f 14/15/17 1/9/18 4/1/19 11/2/20
f 8/14/14 3/17/21 6/16/22 7/13/15
f 9/4/2 5/12/23 7/13/24 12/3/3
f 10/10/10 2/11/25 5/12/26 9/4/11
f 13/7/7 8/19/27 2/18/28 10/6/8
f 15/20/29 3/21/30 8/19/27 13/7/7
f 7/13/24 6/16/31 16/22/32 12/3/3
f 17/23/33 18/26/34 16/25/35 19/24/36
f 20/27/37 21/30/38 15/29/39 22/28/40
f 20/31/41 17/23/42 19/24/43 21/32/44
f 23/33/45 24/36/46 25/35/47 26/34/48
f 22/37/49 18/26/50 17/23/51 20/31/52
f 19/24/36 16/25/35 25/35/53 24/36/54
f 21/32/44 19/24/43 24/36/55 23/33/56
f 15/29/39 21/30/38 23/39/57 26/38/58
