# This file uses meters as units for non-parametric coordinates.

v -169.674103 77.352577 99.506607
v -170.639633 78.318108 100.472137
v 0.000000 77.352577 99.506607
v 0.000000 78.318108 100.472137
v -170.639633 95.699516 100.472137
v -169.674103 96.665047 99.506607
v 0.000000 96.665047 99.506607
v 0.000000 95.699516 100.472137
v -169.674103 96.665047 1.437668
v -170.639633 95.699516 0.472141
v 0.000000 96.665047 1.437668
v 0.000000 95.699516 0.472141
v -170.639633 78.318108 0.472141
v -169.674103 77.352577 1.437668
v 0.000000 78.318108 0.472141
v 0.000000 77.352577 1.437668
v 170.639633 95.699516 100.472137
v 169.674103 96.665047 99.506607
v 169.674103 96.665047 1.437668
v 170.639633 95.699516 0.472141
v 169.674103 77.352577 99.506607
v 170.639633 78.318108 100.472137
v 170.639633 78.318108 0.472141
v 169.674103 77.352577 1.437668
v -64.671570 19.905312 98.049660
v -64.671570 19.905312 3.953323
v -60.018539 19.905310 98.049660
v -60.018539 19.905310 3.953323
v -60.018539 77.352577 98.049660
v -60.018539 77.352577 3.953331
v -64.671570 77.352577 98.049660
v -64.671570 77.352577 3.953331
v -170.639633 14.475739 100.472137
v 170.639633 14.475739 100.472137
v -170.639633 19.905312 100.472137
v 170.639633 19.905312 100.472137
v -170.639633 19.905312 0.472141
v 170.639633 19.905312 0.472141
v -170.639633 14.475739 0.472141
v 170.639633 14.475739 0.472141
v 0.000000 19.905312 100.472137
v 0.000000 19.905312 0.472141
v 0.000000 14.475739 0.472141
v 0.000000 14.475739 100.472137
v 64.671570 19.905312 98.049660
v 64.671570 19.905312 3.953323
v 60.018539 19.905310 98.049660
v 60.018539 19.905310 3.953323
v 60.018539 77.352577 98.049660
v 60.018539 77.352577 3.953331
v 64.671570 77.352577 98.049660
v 64.671570 77.352577 3.953331
v 60.018536 51.242157 94.383591
v 60.018536 51.242157 2.942145
v 60.018536 46.589127 94.383591
v 60.018536 46.589127 2.942145
v -165.302399 46.589127 94.383591
v -165.302399 46.589127 2.942153
v -165.302399 51.242157 94.383591
v -165.302399 51.242157 2.942153
v -169.955429 19.905312 98.049660
v -169.955429 19.905312 3.953323
v -165.302399 19.905310 98.049660
v -165.302399 19.905310 3.953323
v -165.302399 77.352577 98.049660
v -165.302399 77.352577 3.953331
v -169.955429 77.352577 98.049660
v -169.955429 77.352577 3.953331
v -170.639633 77.352585 5.429572
v 170.639633 77.352585 5.429572
v -170.639633 77.352585 0.000000
v 170.639633 77.352585 0.000000
v -170.639633 20.377457 0.000000
v 170.639633 20.377457 0.000000
v -170.639633 20.377457 5.429572
v 170.639633 20.377457 5.429572
v 0.000000 77.352585 0.000000
v 0.000000 20.377457 0.000000
v 0.000000 20.377457 5.429572
v 0.000000 77.352585 5.429572
v 169.955444 19.905312 98.049660
v 169.955444 19.905312 3.953323
v 165.302399 19.905310 98.049660
v 165.302399 19.905310 3.953323
v 165.302399 77.352577 98.049660
v 165.302399 77.352577 3.953331
v 169.955444 77.352577 98.049660
v 169.955444 77.352577 3.953331
vt 0.891162 0.764339
vt 0.890618 0.763413
vt 0.891162 0.762857
vt 0.986753 0.762855
vt 0.986753 0.763412
vt 0.891162 0.764339
vt 0.890618 0.763412
vt 0.890618 0.766924
vt 0.891162 0.762999
vt 0.891162 0.762998
vt 0.890618 0.854496
vt 0.890618 0.859352
vt 0.890618 0.859356
vt 0.890618 0.859349
vt 0.890618 0.763787
vt 0.890618 0.858551
vt 0.986753 0.767680
vt 0.890618 0.854525
vt 0.891162 0.858410
vt 0.986753 0.858411
vt 0.986753 0.766924
vt 0.890618 0.854496
vt 0.891162 0.858434
vt 0.986752 0.858434
vt 0.890618 0.859478
vt 0.890618 0.854528
vt 0.890618 0.859475
vt 0.890618 0.767681
vt 0.890618 0.859359
vt 0.891162 0.858413
vt 0.986753 0.762999
vt 0.986753 0.854496
vt 0.890618 0.766924
vt 0.986753 0.764339
vt 0.891162 0.858434
vt 0.986753 0.854527
vt 0.890618 0.767678
vt 0.890618 0.840242
vt 0.988398 0.840245
vt 0.988398 0.762059
vt 0.890618 0.762059
vt 0.890618 0.776926
vt 0.988398 0.776926
vt 0.988398 0.839295
vt 0.890618 0.839295
vt 0.988398 0.859482
vt 0.890618 0.859484
vt 0.988398 0.840245
vt 0.890618 0.762857
vt 0.986753 0.762855
vt 0.986753 0.859351
vt 0.890618 0.859349
vt 0.986753 0.762059
vt 0.890618 0.762059
vt 0.986753 0.859360
vt 0.890618 0.859360
vt 0.986753 0.763412
vt 0.890618 0.763413
vt 0.890618 0.762854
vt 0.890618 0.859484
vt 0.890618 0.859349
vt 0.890618 0.859353
vt 0.890618 0.859482
vt 0.890618 0.859353
vt 0.890618 0.762059
vt 0.890618 0.859360
vt 0.890618 0.763412
vt 0.890618 0.840242
vt 0.890618 0.762059
vt 0.988398 0.762059
vt 0.988398 0.840245
vt 0.890618 0.776926
vt 0.890618 0.839295
vt 0.988398 0.839295
vt 0.988398 0.776926
vt 0.988398 0.859482
vt 0.988398 0.840245
vt 0.890618 0.859484
vt 0.910037 0.761881
vt 0.988220 0.761881
vt 0.988220 0.859662
vt 0.910034 0.859662
vt 0.973353 0.761881
vt 0.910984 0.761881
vt 0.910984 0.859662
vt 0.973353 0.859662
vt 0.890797 0.859661
vt 0.910034 0.859661
vt 0.890795 0.761881
vt 0.890618 0.840242
vt 0.988398 0.840245
vt 0.988398 0.762059
vt 0.890618 0.762059
vt 0.890618 0.776926
vt 0.988398 0.776926
vt 0.988398 0.839295
vt 0.890618 0.839295
vt 0.988398 0.859482
vt 0.890618 0.859484
vt 0.988398 0.840245
vt 0.890618 0.859349
vt 0.986753 0.859351
vt 0.986753 0.762059
vt 0.890618 0.762059
vt 0.890618 0.859360
vt 0.986753 0.859360
vt 0.986753 0.763412
vt 0.890618 0.763413
vt 0.890618 0.762854
vt 0.890618 0.859484
vt 0.890618 0.859349
vt 0.890618 0.859353
vt 0.890618 0.859482
vt 0.890618 0.762857
vt 0.890618 0.859353
vt 0.890618 0.762059
vt 0.890618 0.859360
vt 0.890618 0.763412
vt 0.890618 0.840242
vt 0.890618 0.762059
vt 0.988398 0.762059
vt 0.988398 0.840245
vt 0.890618 0.776926
vt 0.890618 0.839295
vt 0.988398 0.839295
vt 0.988398 0.776926
vt 0.988398 0.859482
vt 0.988398 0.840245
vt 0.890618 0.859484
vn -0.707106 -0.707108 0.000000
vn -0.707106 -0.707108 0.000000
vn -0.707106 -0.707108 0.000000
vn -0.707106 -0.707108 0.000000
vn 0.000000 -0.707108 0.707105
vn 0.000000 -0.707108 0.707105
vn 0.000000 -0.707108 0.707105
vn 0.000000 -0.707108 0.707105
vn 0.000000 -0.707108 0.707106
vn 0.000000 -0.707108 0.707106
vn -0.707106 0.707108 0.000000
vn -0.707106 0.707108 0.000000
vn -0.707106 0.707108 0.000000
vn -0.707106 0.707108 0.000000
vn 0.000000 0.707106 0.707108
vn 0.000000 0.707106 0.707108
vn 0.000000 0.707106 0.707108
vn 0.000000 0.707106 0.707108
vn 0.000000 0.707106 0.707108
vn 0.000000 0.707106 0.707108
vn 0.000000 0.707105 -0.707109
vn 0.000000 0.707105 -0.707109
vn 0.000000 0.707105 -0.707109
vn 0.000000 0.707105 -0.707109
vn 0.000000 0.707105 -0.707109
vn 0.000000 0.707105 -0.707109
vn 0.000000 -0.707107 -0.707107
vn 0.000000 -0.707107 -0.707107
vn 0.000000 -0.707107 -0.707107
vn 0.000000 -0.707107 -0.707107
vn 0.000000 -0.707107 -0.707107
vn 0.000000 -0.707107 -0.707107
vn 0.707106 0.707108 0.000000
vn 0.707106 0.707108 0.000000
vn 0.707106 0.707108 0.000000
vn 0.707106 0.707108 0.000000
vn 0.707106 -0.707108 0.000000
vn 0.707106 -0.707108 0.000000
vn 0.707106 -0.707108 0.000000
vn 0.707106 -0.707108 0.000000
vn 0.000000 0.000000 1.000000
vn 0.000000 0.000000 1.000000
vn 0.000000 0.000000 1.000000
vn 0.000000 0.000000 1.000000
vn 0.000000 1.000000 0.000000
vn 0.000000 1.000000 0.000000
vn 0.000000 1.000000 0.000000
vn 0.000000 1.000000 0.000000
vn 0.000000 0.000000 -1.000000
vn 0.000000 0.000000 -1.000000
vn 0.000000 0.000000 -1.000000
vn 0.000000 0.000000 -1.000000
vn 0.000000 -1.000000 0.000000
vn 0.000000 -1.000000 0.000000
vn 0.000000 -1.000000 0.000000
vn 0.000000 -1.000000 0.000000
vn 1.000000 0.000000 0.000000
vn 1.000000 0.000000 0.000000
vn 1.000000 0.000000 0.000000
vn 1.000000 0.000000 0.000000
vn -1.000000 0.000000 0.000000
vn -1.000000 0.000000 0.000000
vn -1.000000 0.000000 0.000000
vn -1.000000 0.000000 0.000000
vn 0.000000 1.000000 0.000000
vn 0.000000 1.000000 0.000000
vn 0.000000 0.000000 -1.000000
vn 0.000000 0.000000 -1.000000
vn 0.000000 -1.000000 0.000000
vn 0.000000 -1.000000 0.000000
vn 0.000000 0.000000 1.000000
vn 0.000000 0.000000 1.000000
vn 1.000000 0.000000 0.000000
vn 1.000000 0.000000 0.000000
vn 1.000000 0.000000 0.000000
vn 1.000000 0.000000 0.000000
vn -1.000000 0.000000 0.000000
vn -1.000000 0.000000 0.000000
vn -1.000000 0.000000 0.000000
vn -1.000000 0.000000 0.000000
vn 0.000000 0.000000 1.000000
vn 0.000000 0.000000 1.000000
vn 0.000000 0.000000 1.000000
vn 0.000000 0.000000 1.000000
vn 0.000000 0.000000 1.000000
vn 0.000000 0.000000 1.000000
vn 0.000000 0.000000 1.000000
vn 0.000000 0.000000 1.000000
vn 0.000000 1.000000 0.000000
vn 0.000000 1.000000 0.000000
vn 0.000000 1.000000 0.000000
vn 0.000000 1.000000 0.000000
vn 0.000000 0.000000 -1.000000
vn 0.000000 0.000000 -1.000000
vn 0.000000 0.000000 -1.000000
vn 0.000000 0.000000 -1.000000
vn 0.000000 -1.000000 0.000000
vn 0.000000 -1.000000 0.000000
vn 0.000000 -1.000000 0.000000
vn 0.000000 -1.000000 0.000000
vn 1.000000 0.000000 0.000000
vn 1.000000 0.000000 0.000000
vn 1.000000 0.000000 0.000000
vn 1.000000 0.000000 0.000000
vn -1.000000 0.000000 0.000000
vn -1.000000 0.000000 0.000000
vn -1.000000 0.000000 0.000000
vn -1.000000 0.000000 0.000000
vn 0.000000 1.000000 0.000000
vn 0.000000 1.000000 0.000000
vn 0.000000 0.000000 -1.000000
vn 0.000000 0.000000 -1.000000
vn 0.000000 -1.000000 0.000000
vn 0.000000 -1.000000 0.000000
vn 0.000000 0.000000 1.000000
vn 0.000000 0.000000 1.000000
vn -1.000000 0.000000 0.000000
vn -1.000000 0.000000 0.000000
vn -1.000000 0.000000 0.000000
vn -1.000000 0.000000 0.000000
vn 1.000000 0.000000 0.000000
vn 1.000000 0.000000 0.000000
vn 1.000000 0.000000 0.000000
vn 1.000000 0.000000 0.000000
vn 0.000000 0.000000 1.000000
vn 0.000000 0.000000 1.000000
vn 0.000000 0.000000 1.000000
vn 0.000000 0.000000 1.000000
vn 0.000000 -1.000000 0.000000
vn 0.000000 -1.000000 0.000000
vn 0.000000 -1.000000 0.000000
vn 0.000000 -1.000000 0.000000
vn 0.000000 1.000000 0.000000
vn 0.000000 1.000000 0.000000
vn 0.000000 1.000000 0.000000
vn 0.000000 1.000000 0.000000
vn 0.000000 0.000000 1.000000
vn 0.000000 0.000000 1.000000
vn 0.000000 0.000000 1.000000
vn 0.000000 0.000000 1.000000
vn 1.000000 -0.000000 0.000000
vn 1.000000 -0.000000 0.000000
vn 1.000000 -0.000000 0.000000
vn 1.000000 -0.000000 0.000000
vn -1.000000 0.000000 0.000000
vn -1.000000 0.000000 0.000000
vn -1.000000 0.000000 0.000000
vn -1.000000 0.000000 0.000000
vn 0.000000 0.000000 1.000000
vn 0.000000 0.000000 1.000000
vn 0.000000 0.000000 1.000000
vn 0.000000 0.000000 1.000000
vn 0.000000 0.000000 -1.000000
vn 0.000000 0.000000 -1.000000
vn 0.000000 0.000000 -1.000000
vn 0.000000 0.000000 -1.000000
vn 0.000000 0.000000 1.000000
vn 0.000000 0.000000 1.000000
vn 0.000000 0.000000 1.000000
vn 0.000000 0.000000 1.000000
vn 1.000000 0.000000 0.000000
vn 1.000000 0.000000 0.000000
vn 1.000000 0.000000 0.000000
vn 1.000000 0.000000 0.000000
vn -1.000000 0.000000 0.000000
vn -1.000000 0.000000 0.000000
vn -1.000000 0.000000 0.000000
vn -1.000000 0.000000 0.000000
vn 0.000000 0.000000 -1.000000
vn 0.000000 0.000000 -1.000000
vn 0.000000 0.000000 1.000000
vn 0.000000 0.000000 1.000000
vn -1.000000 -0.000000 0.000000
vn -1.000000 -0.000000 0.000000
vn -1.000000 -0.000000 0.000000
vn -1.000000 -0.000000 0.000000
vn 1.000000 0.000000 0.000000
vn 1.000000 0.000000 0.000000
vn 1.000000 0.000000 0.000000
vn 1.000000 0.000000 0.000000
vn 0.000000 0.000000 1.000000
vn 0.000000 0.000000 1.000000
vn 0.000000 0.000000 1.000000
vn 0.000000 0.000000 1.000000
f 1/1/1 2/2/2 13/22/3 14/23/4
f 2/28/5 1/3/6 3/4/7 4/17/8
f 4/5/8 3/34/7 21/6/9 22/7/10
f 5/18/11 6/19/12 9/9/13 10/8/14
f 6/19/15 5/18/16 8/36/17 7/20/18
f 7/20/18 8/36/17 17/26/19 18/30/20
f 10/8/21 9/9/22 11/31/23 12/21/24
f 12/21/24 11/31/23 19/10/25 20/33/26
f 14/23/27 13/22/28 15/32/29 16/24/30
f 16/24/30 15/32/29 23/11/31 24/35/32
f 18/12/33 17/26/34 20/13/35 19/14/36
f 22/37/37 21/15/38 24/16/39 23/25/40
f 2/28/41 4/17/42 8/36/43 5/18/44
f 6/19/45 7/20/46 11/31/47 9/9/48
f 10/8/49 12/21/50 15/32/51 13/22/52
f 14/23/53 16/24/54 3/34/55 1/1/56
f 22/37/57 23/25/58 20/13/59 17/26/60
f 13/27/61 2/28/62 5/18/63 10/29/64
f 7/20/46 18/30/65 19/10/66 11/31/47
f 15/32/51 12/21/50 20/33/67 23/11/68
f 3/34/55 16/24/54 24/35/69 21/6/70
f 8/36/43 4/17/42 22/37/71 17/26/72
f 27/38/73 28/39/74 30/40/75 29/41/76
f 31/42/77 32/43/78 26/44/79 25/45/80
f 31/46/81 25/47/82 27/38/83 29/48/84
f 33/49/85 44/50/86 41/51/87 35/52/88
f 35/52/89 41/51/90 42/53/91 37/54/92
f 37/54/93 42/53/94 43/55/95 39/56/96
f 39/56/97 43/55/98 44/57/99 33/58/100
f 34/59/101 40/60/102 38/61/103 36/62/104
f 39/63/105 33/49/106 35/52/107 37/64/108
f 41/51/90 36/62/109 38/65/110 42/53/91
f 43/55/95 42/53/94 38/65/111 40/66/112
f 44/57/99 43/55/98 40/66/113 34/67/114
f 41/51/87 44/50/86 34/59/115 36/62/116
f 47/68/117 49/69/118 50/70/119 48/71/120
f 51/72/121 45/73/122 46/74/123 52/75/124
f 51/76/125 49/77/126 47/68/127 45/78/128
f 55/79/129 57/80/130 58/81/131 56/82/132
f 59/83/133 53/84/134 54/85/135 60/86/136
f 59/87/137 57/88/138 55/79/139 53/89/140
f 63/90/141 64/91/142 66/92/143 65/93/144
f 67/94/145 68/95/146 62/96/147 61/97/148
f 67/98/149 61/99/150 63/90/151 65/100/152
f 71/101/153 77/102/154 78/103/155 73/104/156
f 75/105/157 79/106/158 80/107/159 69/108/160
f 70/109/161 76/110/162 74/111/163 72/112/164
f 75/113/165 69/114/166 71/101/167 73/115/168
f 77/102/154 72/112/169 74/116/170 78/103/155
f 80/107/159 79/106/158 76/117/171 70/118/172
f 83/119/173 85/120/174 86/121/175 84/122/176
f 87/123/177 81/124/178 82/125/179 88/126/180
f 87/127/181 85/128/182 83/119/183 81/129/184
