# This file uses meters as units for non-parametric coordinates.

v 54.037041 0.000000 76.826241
v 54.037041 0.000000 80.108841
v -54.037041 0.000000 76.826241
v -54.037041 0.000000 80.108841
v 54.037041 37.985458 80.108841
v -54.037041 37.985458 80.108841
v -54.037041 37.985458 76.826241
v 54.037041 37.985458 76.826241
v -52.100529 0.000000 76.826241
v 52.100533 0.000000 76.826241
v -52.100529 31.372704 76.826241
v 52.100533 31.372704 76.826241
v -52.100529 31.372704 0.000000
v 52.100533 31.372704 0.000000
v -52.100529 0.000000 0.000000
v 52.100533 0.000000 0.000000
v -48.461647 31.372704 76.826241
v 48.461647 31.372704 76.826241
v 48.461647 31.372704 3.999290
v -48.461647 31.372704 3.999290
v -48.461647 4.731865 76.826241
v 48.461647 4.731865 76.826241
v 48.461647 4.731865 3.999290
v -48.461647 4.731865 3.999290
vt 0.882257 0.858265
vt 0.891043 0.858265
vt 0.882257 0.763977
vt 0.891043 0.763977
vt 0.988513 0.858265
vt 0.988541 0.763977
vt 0.988605 0.763977
vt 0.988577 0.858265
vt 0.894953 0.755918
vt 0.894206 0.867475
vt 0.978105 0.864928
vt 0.978307 0.755918
vt 0.902102 0.755918
vt 0.902418 0.864368
vt 0.982816 0.864883
vt 0.983239 0.755918
vt 0.893328 0.865881
vt 0.892754 0.755918
vt 0.982613 0.834619
vt 0.893584 0.834487
vt 0.892571 0.786928
vt 0.983406 0.786903
vt 0.978516 0.831302
vt 0.893654 0.831165
vt 0.895971 0.862189
vt 0.895812 0.755918
vt 0.905864 0.755918
vt 0.906022 0.862450
vt 0.892543 0.790268
vt 0.979311 0.790236
vt 0.892402 0.815701
vt 0.979464 0.815654
vn 0.000000 0.000000 -1.000000
vn 0.000000 0.000000 -1.000000
vn 0.000000 0.000000 -1.000000
vn 0.000000 0.000000 -1.000000
vn 0.000000 0.000000 1.000000
vn 0.000000 0.000000 1.000000
vn 0.000000 0.000000 1.000000
vn 0.000000 0.000000 1.000000
vn 1.000000 0.000000 0.000000
vn 1.000000 0.000000 0.000000
vn 1.000000 0.000000 0.000000
vn 1.000000 0.000000 0.000000
vn 0.000000 -1.000000 0.000000
vn 0.000000 -1.000000 0.000000
vn 0.000000 -1.000000 0.000000
vn 0.000000 -1.000000 0.000000
vn -1.000000 0.000000 0.000000
vn -1.000000 0.000000 0.000000
vn -1.000000 0.000000 0.000000
vn -1.000000 0.000000 0.000000
vn 0.000000 1.000000 0.000000
vn 0.000000 1.000000 0.000000
vn 0.000000 1.000000 0.000000
vn 0.000000 1.000000 0.000000
vn 0.000000 1.000000 0.000000
vn 0.000000 1.000000 0.000000
vn 0.000000 1.000000 0.000000
vn 0.000000 1.000000 0.000000
vn 0.000000 0.000000 -1.000000
vn 0.000000 0.000000 -1.000000
vn 0.000000 0.000000 -1.000000
vn 0.000000 0.000000 -1.000000
vn 0.000000 -1.000000 0.000000
vn 0.000000 -1.000000 0.000000
vn 0.000000 -1.000000 0.000000
vn 0.000000 -1.000000 0.000000
vn 1.000000 0.000000 0.000000
vn 1.000000 0.000000 0.000000
vn 1.000000 0.000000 0.000000
vn 1.000000 0.000000 0.000000
vn -1.000000 0.000000 0.000000
vn -1.000000 0.000000 0.000000
vn -1.000000 0.000000 0.000000
vn -1.000000 0.000000 0.000000
vn 0.000000 1.000000 0.000000
vn 0.000000 1.000000 0.000000
vn 0.000000 1.000000 0.000000
vn 0.000000 1.000000 0.000000
vn 0.000000 1.000000 -0.000000
vn 0.000000 1.000000 -0.000000
vn 0.000000 1.000000 -0.000000
vn 0.000000 1.000000 -0.000000
vn 0.000000 1.000000 0.000000
vn 0.000000 1.000000 0.000000
vn 0.000000 1.000000 0.000000
vn 0.000000 1.000000 0.000000
vn -1.000000 0.000000 0.000000
vn -1.000000 0.000000 0.000000
vn -1.000000 0.000000 0.000000
vn -1.000000 0.000000 0.000000
vn 0.000000 0.000000 1.000000
vn 0.000000 0.000000 1.000000
vn 0.000000 0.000000 1.000000
vn 0.000000 0.000000 1.000000
vn 1.000000 0.000000 0.000000
vn 1.000000 0.000000 0.000000
vn 1.000000 0.000000 0.000000
vn 1.000000 0.000000 0.000000
f 3/3/1 7/7/2 8/8/3 1/1/4
f 6/6/5 4/4/6 2/2/7 5/5/8
f 5/5/9 2/2/10 1/1/11 8/8/12
f 2/2/13 4/4/14 3/3/15 1/1/16
f 4/4/17 6/6/18 7/7/19 3/3/20
f 6/6/21 5/5/22 8/8/23 7/7/24
f 21/9/25 22/10/26 23/11/27 24/12/28
f 13/13/29 14/14/30 16/15/31 15/16/32
f 15/16/33 16/15/34 10/17/35 9/18/36
f 10/17/37 16/15/38 14/19/39 12/20/40
f 15/16/41 9/18/42 11/21/43 13/22/44
f 12/20/45 14/19/46 19/23/47 18/24/48
f 14/25/49 13/26/50 20/27/51 19/28/52
f 13/22/53 11/21/54 17/29/55 20/30/56
f 18/24/57 19/23/58 23/11/59 22/10/60
f 19/28/61 20/27/62 24/12/63 23/11/64
f 20/30/65 17/29/66 21/31/67 24/32/68
