# This file uses meters as units for non-parametric coordinates.

v -348.358403 20.531733 112.846672
v -30.354496 20.531733 112.846672
v -346.039479 22.623896 109.804138
v -32.673405 22.623896 109.804138
v -346.039479 22.623896 -5.386406
v -32.673405 22.623896 -5.386406
v -348.358403 20.531733 -8.428940
v -30.354496 20.531733 -8.428940
v -348.358403 19.312469 112.846672
v -30.354496 19.312469 112.846672
v -348.358403 19.312469 -8.428940
v -30.354496 19.312469 -8.428940
vt 0.538980 0.979691
vt 0.553696 0.980683
vt 0.553549 0.981067
vt 0.539116 0.980095
vt 0.553345 0.990361
vt 0.538912 0.989388
vt 0.553481 0.990526
vt 0.538764 0.989535
vt 0.538980 0.979534
vt 0.553696 0.980526
vt 0.553481 0.990370
vt 0.538764 0.989378
vn 0.000000 0.823989 0.566606
vn 0.000000 0.823989 0.566606
vn 0.000000 0.823989 0.566606
vn 0.000000 0.823989 0.566606
vn 0.000000 1.000000 0.000000
vn 0.000000 1.000000 0.000000
vn 0.000000 1.000000 0.000000
vn 0.000000 1.000000 0.000000
vn 0.000000 0.823989 -0.566606
vn 0.000000 0.823989 -0.566606
vn 0.000000 0.823989 -0.566606
vn 0.000000 0.823989 -0.566606
vn 0.669874 0.742475 0.000000
vn 0.669874 0.742475 0.000000
vn 0.669874 0.742475 0.000000
vn 0.669874 0.742475 0.000000
vn -0.669872 0.742477 0.000000
vn -0.669872 0.742477 0.000000
vn -0.669872 0.742477 0.000000
vn -0.669872 0.742477 0.000000
vn 0.000000 0.000000 1.000000
vn 0.000000 0.000000 1.000000
vn 0.000000 0.000000 1.000000
vn 0.000000 0.000000 1.000000
vn 0.000000 0.000000 -1.000000
vn 0.000000 0.000000 -1.000000
vn 0.000000 0.000000 -1.000000
vn 0.000000 0.000000 -1.000000
vn -1.000000 0.000000 0.000000
vn -1.000000 0.000000 0.000000
vn -1.000000 0.000000 0.000000
vn -1.000000 0.000000 0.000000
vn 1.000000 0.000000 0.000000
vn 1.000000 0.000000 0.000000
vn 1.000000 0.000000 0.000000
vn 1.000000 0.000000 0.000000
f 1/1/1 2/2/2 4/3/3 3/4/4
f 3/4/5 4/3/6 6/5/7 5/6/8
f 5/6/9 6/5/10 8/7/11 7/8/12
f 2/2/13 8/7/14 6/5/15 4/3/16
f 7/8/17 1/1/18 3/4/19 5/6/20
f 2/2/21 1/1/22 9/9/23 10/10/24
f 7/8/25 8/7/26 12/11/27 11/12/28
f 1/1/29 7/8/30 11/12/31 9/9/32
f 8/7/33 2/2/34 10/10/35 12/11/36
