# This file uses meters as units for non-parametric coordinates.

v -25.968361 -14.718033 29.016296
v 25.968376 -14.718033 29.016296
v -25.968361 -14.718033 32.908737
v 25.968376 -14.718033 32.908737
v -25.968361 14.718025 32.908737
v 25.968376 14.718025 32.908737
v -25.968361 14.718025 29.016296
v 25.968376 14.718025 29.016296
v 25.968376 9.873383 -32.908722
v 25.968376 -14.718025 -32.908722
v -25.968376 -14.718025 -32.908722
v -25.968376 9.873383 -32.908722
v 25.968376 9.873383 29.016296
v 25.968376 -14.718025 29.016296
v -25.968346 -14.718025 29.016296
v -25.968346 9.873383 29.016296
v -22.105080 9.873383 29.016296
v 22.105080 9.873383 29.016296
v -22.105080 9.873383 -28.902702
v 22.105103 9.873383 -28.902702
v -22.105080 -9.492271 29.016296
v 22.105080 -9.492271 29.016296
v -22.105080 -9.492271 -28.902702
v 22.105103 -9.492271 -28.902702
vt 0.640618 0.607273
vt 0.738398 0.607270
vt 0.640618 0.588031
vt 0.738398 0.588034
vt 0.640618 0.509848
vt 0.738398 0.509848
vt 0.640618 0.524715
vt 0.738398 0.524715
vt 0.640618 0.587084
vt 0.738398 0.587084
vt 0.640618 0.607273
vt 0.640618 0.588031
vt 0.738398 0.607270
vt 0.738398 0.588034
vt 0.673211 0.512502
vt 0.673211 0.608509
vt 0.705805 0.608509
vt 0.705805 0.512503
vt 0.673211 0.511969
vt 0.705805 0.511969
vt 0.673211 0.608438
vt 0.705805 0.608438
vt 0.673211 0.512502
vt 0.705805 0.512503
vt 0.705805 0.607271
vt 0.673211 0.607272
vt 0.738501 0.512340
vt 0.641474 0.512340
vt 0.641474 0.609366
vt 0.738501 0.609366
vt 0.673211 0.607272
vt 0.673211 0.607272
vt 0.705805 0.607271
vt 0.705805 0.607271
vt 0.705805 0.512503
vt 0.673211 0.512502
vt 0.652446 0.524239
vt 0.652446 0.600615
vt 0.728823 0.600615
vt 0.728823 0.524239
vt 0.652446 0.600615
vt 0.652446 0.524239
vt 0.728823 0.600615
vt 0.728823 0.524239
vn 0.000000 -1.000000 0.000000
vn 0.000000 -1.000000 0.000000
vn 0.000000 -1.000000 0.000000
vn 0.000000 -1.000000 0.000000
vn 0.000000 0.000000 1.000000
vn 0.000000 0.000000 1.000000
vn 0.000000 0.000000 1.000000
vn 0.000000 0.000000 1.000000
vn 0.000000 1.000000 0.000000
vn 0.000000 1.000000 0.000000
vn 0.000000 1.000000 0.000000
vn 0.000000 1.000000 0.000000
vn 0.000000 0.000000 -1.000000
vn 0.000000 0.000000 -1.000000
vn 0.000000 0.000000 -1.000000
vn 0.000000 0.000000 -1.000000
vn 1.000000 0.000000 0.000000
vn 1.000000 0.000000 0.000000
vn 1.000000 0.000000 0.000000
vn 1.000000 0.000000 0.000000
vn -1.000000 0.000000 0.000000
vn -1.000000 0.000000 0.000000
vn -1.000000 0.000000 0.000000
vn -1.000000 0.000000 0.000000
vn 1.000000 0.000000 0.000000
vn 1.000000 0.000000 0.000000
vn 1.000000 0.000000 0.000000
vn 1.000000 0.000000 0.000000
vn 0.000000 -1.000000 0.000000
vn 0.000000 -1.000000 0.000000
vn 0.000000 -1.000000 0.000000
vn 0.000000 -1.000000 0.000000
vn -1.000000 0.000000 0.000000
vn -1.000000 0.000000 0.000000
vn -1.000000 0.000000 0.000000
vn -1.000000 0.000000 0.000000
vn 0.000000 1.000000 0.000000
vn 0.000000 1.000000 0.000000
vn 0.000000 1.000000 0.000000
vn 0.000000 1.000000 0.000000
vn 0.000000 0.000000 -1.000000
vn 0.000000 0.000000 -1.000000
vn 0.000000 0.000000 -1.000000
vn 0.000000 0.000000 -1.000000
vn 0.000000 1.000000 0.000000
vn 0.000000 1.000000 0.000000
vn 0.000000 1.000000 0.000000
vn 0.000000 1.000000 0.000000
vn 0.000000 1.000000 0.000000
vn 0.000000 1.000000 0.000000
vn 0.000000 1.000000 0.000000
vn 0.000000 1.000000 0.000000
vn 0.000000 1.000000 0.000000
vn 0.000000 1.000000 0.000000
vn 0.000000 1.000000 0.000000
vn 0.000000 1.000000 0.000000
vn 1.000000 0.000000 0.000000
vn 1.000000 0.000000 0.000000
vn 1.000000 0.000000 0.000000
vn 1.000000 0.000000 0.000000
vn 0.000000 0.000000 1.000000
vn 0.000000 0.000000 1.000000
vn 0.000000 0.000000 1.000000
vn 0.000000 0.000000 1.000000
vn -1.000000 0.000000 -0.000000
vn -1.000000 0.000000 -0.000000
vn -1.000000 0.000000 -0.000000
vn -1.000000 0.000000 -0.000000
f 1/1/1 2/2/2 4/4/3 3/3/4
f 3/3/5 4/4/6 6/6/7 5/5/8
f 5/5/9 6/6/10 8/8/11 7/7/12
f 7/7/13 8/8/14 2/10/15 1/9/16
f 2/2/17 8/11/18 6/12/19 4/4/20
f 7/13/21 1/1/22 3/3/23 5/14/24
f 13/15/25 14/16/26 10/17/27 9/18/28
f 15/19/29 11/20/30 10/17/31 14/16/32
f 16/21/33 12/22/34 11/20/35 15/19/36
f 22/23/37 24/24/38 23/25/39 21/26/40
f 11/27/41 12/28/42 9/29/43 10/30/44
f 16/31/45 17/32/46 19/33/47 12/34/48
f 12/34/49 19/33/50 20/35/51 9/18/52
f 9/18/53 20/35/54 18/36/55 13/15/56
f 17/37/57 21/38/58 23/39/59 19/40/60
f 19/40/61 23/39/62 24/41/63 20/42/64
f 20/42/65 24/41/66 22/43/67 18/44/68
