# This file uses meters as units for non-parametric coordinates.

v -6.073013 0.000000 94.074554
v 6.073013 0.000000 94.074554
v -7.287048 14.475739 95.288582
v 7.287048 14.475739 95.288582
v -7.287048 14.475739 80.714485
v 7.287048 14.475739 80.714485
v -6.073013 0.000000 81.928513
v 6.073013 0.000000 81.928513
v -6.073013 0.000000 17.544670
v 6.073013 0.000000 17.544670
v -7.287048 14.475739 18.758701
v 7.287048 14.475739 18.758701
v -7.287048 14.475739 4.184604
v 7.287048 14.475739 4.184604
v -6.073013 0.000000 5.398635
v 6.073013 0.000000 5.398635
v 163.784775 0.000000 94.074554
v 151.638733 0.000000 94.074554
v 164.998795 14.475739 95.288582
v 150.424698 14.475739 95.288582
v 164.998795 14.475739 80.714485
v 150.424698 14.475739 80.714485
v 163.784775 0.000000 81.928513
v 151.638733 0.000000 81.928513
v 163.784775 0.000000 17.544670
v 151.638733 0.000000 17.544670
v 164.998795 14.475739 18.758701
v 150.424698 14.475739 18.758701
v 164.998795 14.475739 4.184604
v 150.424698 14.475739 4.184604
v 163.784775 0.000000 5.398635
v 151.638733 0.000000 5.398635
v -163.784760 0.000000 94.074554
v -151.638733 0.000000 94.074554
v -164.998795 14.475739 95.288582
v -150.424698 14.475739 95.288582
v -164.998795 14.475739 80.714485
v -150.424698 14.475739 80.714485
v -163.784760 0.000000 81.928513
v -151.638733 0.000000 81.928513
v -163.784760 0.000000 17.544670
v -151.638733 0.000000 17.544670
v -164.998795 14.475739 18.758701
v -150.424698 14.475739 18.758701
v -164.998795 14.475739 4.184604
v -150.424698 14.475739 4.184604
v -163.784760 0.000000 5.398635
v -151.638733 0.000000 5.398635
vt 0.595017 0.198354
vt 0.595017 0.239364
vt 0.508344 0.239364
vt 0.508344 0.198354
vt 0.508344 0.239364
vt 0.508344 0.198354
vt 0.595017 0.198354
vt 0.595017 0.239364
vt 0.508344 0.198354
vt 0.508344 0.239364
vt 0.595017 0.239364
vt 0.508344 0.239364
vt 0.595017 0.198354
vt 0.595017 0.239364
vt 0.508344 0.239364
vt 0.508344 0.198354
vt 0.508344 0.239364
vt 0.508344 0.198354
vt 0.595017 0.198354
vt 0.595017 0.239364
vt 0.508344 0.198354
vt 0.508344 0.239364
vt 0.595017 0.239364
vt 0.508344 0.239364
vt 0.595017 0.198354
vt 0.508344 0.198354
vt 0.508344 0.239364
vt 0.595017 0.239364
vt 0.508344 0.239364
vt 0.595017 0.239364
vt 0.595017 0.198354
vt 0.508344 0.198354
vt 0.508344 0.239364
vt 0.508344 0.198354
vt 0.595017 0.239364
vt 0.508344 0.239364
vt 0.595017 0.198354
vt 0.508344 0.198354
vt 0.508344 0.239364
vt 0.595017 0.239364
vt 0.508344 0.239364
vt 0.595017 0.239364
vt 0.595017 0.198354
vt 0.508344 0.198354
vt 0.508344 0.239364
vt 0.508344 0.198354
vt 0.595017 0.239364
vt 0.508344 0.239364
vt 0.595017 0.198354
vt 0.595017 0.239364
vt 0.508344 0.239364
vt 0.508344 0.198354
vt 0.508344 0.239364
vt 0.508344 0.198354
vt 0.595017 0.198354
vt 0.595017 0.239364
vt 0.508344 0.198354
vt 0.508344 0.239364
vt 0.595017 0.239364
vt 0.508344 0.239364
vt 0.595017 0.198354
vt 0.595017 0.239364
vt 0.508344 0.239364
vt 0.508344 0.198354
vt 0.508344 0.239364
vt 0.508344 0.198354
vt 0.595017 0.198354
vt 0.595017 0.239364
vt 0.508344 0.198354
vt 0.508344 0.239364
vt 0.595017 0.239364
vt 0.508344 0.239364
vn 0.000000 -0.083573 0.996502
vn 0.000000 -0.083573 0.996502
vn 0.000000 -0.083573 0.996502
vn 0.000000 -0.083573 0.996502
vn 0.000000 -0.083573 -0.996502
vn 0.000000 -0.083573 -0.996502
vn 0.000000 -0.083573 -0.996502
vn 0.000000 -0.083573 -0.996502
vn 0.000000 -1.000000 0.000000
vn 0.000000 -1.000000 0.000000
vn 0.000000 -1.000000 0.000000
vn 0.000000 -1.000000 0.000000
vn 0.996502 -0.083574 0.000000
vn 0.996502 -0.083574 0.000000
vn 0.996502 -0.083574 0.000000
vn 0.996502 -0.083574 0.000000
vn -0.996502 -0.083574 0.000000
vn -0.996502 -0.083574 0.000000
vn -0.996502 -0.083574 0.000000
vn -0.996502 -0.083574 0.000000
vn 0.000000 -0.083573 0.996502
vn 0.000000 -0.083573 0.996502
vn 0.000000 -0.083573 0.996502
vn 0.000000 -0.083573 0.996502
vn 0.000000 -0.083573 -0.996502
vn 0.000000 -0.083573 -0.996502
vn 0.000000 -0.083573 -0.996502
vn 0.000000 -0.083573 -0.996502
vn 0.000000 -1.000000 0.000000
vn 0.000000 -1.000000 0.000000
vn 0.000000 -1.000000 0.000000
vn 0.000000 -1.000000 0.000000
vn 0.996502 -0.083574 0.000000
vn 0.996502 -0.083574 0.000000
vn 0.996502 -0.083574 0.000000
vn 0.996502 -0.083574 0.000000
vn -0.996502 -0.083574 0.000000
vn -0.996502 -0.083574 0.000000
vn -0.996502 -0.083574 0.000000
vn -0.996502 -0.083574 0.000000
vn 0.000000 -0.083573 0.996502
vn 0.000000 -0.083573 0.996502
vn 0.000000 -0.083573 0.996502
vn 0.000000 -0.083573 0.996502
vn 0.000000 -0.083573 -0.996502
vn 0.000000 -0.083573 -0.996502
vn 0.000000 -0.083573 -0.996502
vn 0.000000 -0.083573 -0.996502
vn 0.000000 -1.000000 0.000000
vn 0.000000 -1.000000 0.000000
vn 0.000000 -1.000000 0.000000
vn 0.000000 -1.000000 0.000000
vn -0.996502 -0.083574 0.000000
vn -0.996502 -0.083574 0.000000
vn -0.996502 -0.083574 0.000000
vn -0.996502 -0.083574 0.000000
vn 0.996502 -0.083572 0.000000
vn 0.996502 -0.083572 0.000000
vn 0.996502 -0.083572 0.000000
vn 0.996502 -0.083572 0.000000
vn 0.000000 -0.083573 0.996502
vn 0.000000 -0.083573 0.996502
vn 0.000000 -0.083573 0.996502
vn 0.000000 -0.083573 0.996502
vn 0.000000 -0.083573 -0.996502
vn 0.000000 -0.083573 -0.996502
vn 0.000000 -0.083573 -0.996502
vn 0.000000 -0.083573 -0.996502
vn 0.000000 -1.000000 0.000000
vn 0.000000 -1.000000 0.000000
vn 0.000000 -1.000000 0.000000
vn 0.000000 -1.000000 0.000000
vn -0.996502 -0.083573 0.000000
vn -0.996502 -0.083573 0.000000
vn -0.996502 -0.083573 0.000000
vn -0.996502 -0.083573 0.000000
vn 0.996502 -0.083572 0.000000
vn 0.996502 -0.083572 0.000000
vn 0.996502 -0.083572 0.000000
vn 0.996502 -0.083572 0.000000
vn 0.000000 -0.083573 0.996502
vn 0.000000 -0.083573 0.996502
vn 0.000000 -0.083573 0.996502
vn 0.000000 -0.083573 0.996502
vn 0.000000 -0.083573 -0.996502
vn 0.000000 -0.083573 -0.996502
vn 0.000000 -0.083573 -0.996502
vn 0.000000 -0.083573 -0.996502
vn 0.000000 -1.000000 0.000000
vn 0.000000 -1.000000 0.000000
vn 0.000000 -1.000000 0.000000
vn 0.000000 -1.000000 0.000000
vn 0.996502 -0.083573 0.000000
vn 0.996502 -0.083573 0.000000
vn 0.996502 -0.083573 0.000000
vn 0.996502 -0.083573 0.000000
vn -0.996502 -0.083574 0.000000
vn -0.996502 -0.083574 0.000000
vn -0.996502 -0.083574 0.000000
vn -0.996502 -0.083574 0.000000
vn 0.000000 -0.083573 0.996502
vn 0.000000 -0.083573 0.996502
vn 0.000000 -0.083573 0.996502
vn 0.000000 -0.083573 0.996502
vn 0.000000 -0.083573 -0.996502
vn 0.000000 -0.083573 -0.996502
vn 0.000000 -0.083573 -0.996502
vn 0.000000 -0.083573 -0.996502
vn 0.000000 -1.000000 0.000000
vn 0.000000 -1.000000 0.000000
vn 0.000000 -1.000000 0.000000
vn 0.000000 -1.000000 0.000000
vn 0.996502 -0.083573 0.000000
vn 0.996502 -0.083573 0.000000
vn 0.996502 -0.083573 0.000000
vn 0.996502 -0.083573 0.000000
vn -0.996502 -0.083574 0.000000
vn -0.996502 -0.083574 0.000000
vn -0.996502 -0.083574 0.000000
vn -0.996502 -0.083574 0.000000
f 1/1/1 2/2/2 4/3/3 3/4/4
f 5/5/5 6/6/6 8/7/7 7/8/8
f 7/8/9 8/7/10 2/9/11 1/10/12
f 2/2/13 8/7/14 6/6/15 4/3/16
f 7/11/17 1/1/18 3/4/19 5/12/20
f 9/13/21 10/14/22 12/15/23 11/16/24
f 13/17/25 14/18/26 16/19/27 15/20/28
f 15/20/29 16/19/30 10/21/31 9/22/32
f 10/14/33 16/19/34 14/18/35 12/15/36
f 15/23/37 9/13/38 11/16/39 13/24/40
f 17/25/41 19/26/42 20/27/43 18/28/44
f 21/29/45 23/30/46 24/31/47 22/32/48
f 23/30/49 17/33/50 18/34/51 24/31/52
f 18/28/53 20/27/54 22/32/55 24/31/56
f 23/35/57 21/36/58 19/26/59 17/25/60
f 25/37/61 27/38/62 28/39/63 26/40/64
f 29/41/65 31/42/66 32/43/67 30/44/68
f 31/42/69 25/45/70 26/46/71 32/43/72
f 26/40/73 28/39/74 30/44/75 32/43/76
f 31/47/77 29/48/78 27/38/79 25/37/80
f 33/49/81 34/50/82 36/51/83 35/52/84
f 37/53/85 38/54/86 40/55/87 39/56/88
f 39/56/89 40/55/90 34/57/91 33/58/92
f 34/50/93 40/55/94 38/54/95 36/51/96
f 39/59/97 33/49/98 35/52/99 37/60/100
f 41/61/101 42/62/102 44/63/103 43/64/104
f 45/65/105 46/66/106 48/67/107 47/68/108
f 47/68/109 48/67/110 42/69/111 41/70/112
f 42/62/113 48/67/114 46/66/115 44/63/116
f 47/71/117 41/61/118 43/64/119 45/72/120
