# This file uses meters as units for non-parametric coordinates.

v -177.327200 294.907318 75.487343
v -177.327200 288.548920 75.487343
v -267.628149 288.548920 75.487343
v -267.628149 294.907318 75.487343
v -177.327200 288.548920 0.000000
v -267.628149 288.548920 0.000000
v -267.628149 294.907318 0.000000
v -177.327200 294.907318 0.000000
v -177.327200 374.499115 75.487343
v -177.327200 368.140747 75.487343
v -267.628149 368.140747 75.487343
v -267.628149 374.499115 75.487343
v -177.327200 368.140747 0.000000
v -267.628149 368.140747 0.000000
v -267.628149 374.499115 0.000000
v -177.327200 374.499115 0.000000
v -177.327200 219.447800 75.487343
v -177.327200 213.089417 75.487343
v -267.628149 213.089417 75.487343
v -267.628149 219.447800 75.487343
v -177.327200 213.089417 0.000000
v -267.628149 213.089417 0.000000
v -267.628149 219.447800 0.000000
v -177.327200 219.447800 0.000000
v -177.327200 142.359100 75.487343
v -177.327200 136.000702 75.487343
v -267.628149 136.000702 75.487343
v -267.628149 142.359100 75.487343
v -177.327200 136.000702 0.000000
v -267.628149 136.000702 0.000000
v -267.628149 142.359100 0.000000
v -177.327200 142.359100 0.000000
v -177.327200 66.170807 75.487343
v -177.327200 59.812408 75.487343
v -267.628149 59.812408 75.487343
v -267.628149 66.170807 75.487343
v -177.327200 59.812408 0.000000
v -267.628149 59.812408 0.000000
v -267.628149 66.170807 0.000000
v -177.327200 66.170807 0.000000
v -177.327200 60.467373 68.338516
v -267.628149 60.467373 68.338516
v -267.628149 60.467373 74.696915
v -177.327200 60.467373 74.696915
v -177.327200 0.000000 74.696915
v -267.628149 0.000000 74.696915
v -177.327200 0.000000 68.338516
v -267.628149 0.000000 68.338516
v -267.628149 0.000000 77.051010
v -267.628149 376.767212 77.051010
v -273.986517 0.000000 77.051010
v -273.986517 376.767212 77.051010
v -273.986517 0.000000 0.000000
v -273.986517 376.767212 0.000000
v -267.628149 0.000000 0.000000
v -267.628149 376.767212 0.000000
v -273.986517 188.383606 77.051010
v -273.986517 188.383606 0.000000
v -267.628149 188.383606 0.000000
v -267.628149 188.383606 77.051010
v -170.968817 0.000000 77.051010
v -170.968817 376.767212 77.051010
v -177.327200 0.000000 77.051010
v -177.327200 376.767212 77.051010
v -177.327200 0.000000 0.000000
v -177.327200 376.767212 0.000000
v -170.968817 0.000000 0.000000
v -170.968817 376.767212 0.000000
v -177.327200 188.383606 77.051010
v -177.327200 188.383606 0.000000
v -170.968817 188.383606 0.000000
v -170.968817 188.383606 77.051010
v -177.327200 0.000000 0.000000
v -177.327200 376.767212 0.000000
v -177.327200 0.000000 6.358380
v -177.327200 376.767212 6.358380
v -267.628149 0.000000 6.358380
v -267.628149 376.767212 6.358380
v -267.628149 0.000000 0.000000
v -267.628149 376.767212 0.000000
v -177.327200 188.383606 6.358380
v -267.628149 188.383606 6.358380
v -267.628149 188.383606 0.000000
v -177.327200 188.383606 0.000000
vt 0.640618 0.762854
vt 0.640618 0.859353
vt 0.640618 0.762059
vt 0.640618 0.859360
vt 0.640618 0.763412
vt 0.640618 0.859484
vt 0.640618 0.859349
vt 0.736753 0.859351
vt 0.736753 0.762059
vt 0.736753 0.859360
vt 0.736753 0.763412
vt 0.640618 0.762854
vt 0.640618 0.859484
vt 0.640618 0.859349
vt 0.640618 0.859353
vt 0.736753 0.859351
vt 0.640618 0.762059
vt 0.736753 0.762059
vt 0.736753 0.763412
vt 0.736753 0.859360
vt 0.640618 0.859360
vt 0.640618 0.763412
vt 0.640618 0.762854
vt 0.640618 0.859484
vt 0.640618 0.859349
vt 0.640618 0.859353
vt 0.736753 0.859351
vt 0.640618 0.762059
vt 0.736753 0.762059
vt 0.736753 0.763412
vt 0.736753 0.859360
vt 0.640618 0.859360
vt 0.640618 0.763412
vt 0.640618 0.762854
vt 0.640618 0.859484
vt 0.640618 0.859349
vt 0.640618 0.859353
vt 0.736753 0.859351
vt 0.640618 0.762059
vt 0.736753 0.762059
vt 0.736753 0.763412
vt 0.736753 0.859360
vt 0.640618 0.859360
vt 0.640618 0.763412
vt 0.640618 0.762854
vt 0.640618 0.859484
vt 0.640618 0.859349
vt 0.640618 0.859353
vt 0.736753 0.859351
vt 0.640618 0.762059
vt 0.736753 0.762059
vt 0.736753 0.763412
vt 0.736753 0.859360
vt 0.640618 0.859360
vt 0.640618 0.763412
vt 0.736753 0.859351
vt 0.640618 0.859353
vt 0.640618 0.762059
vt 0.736753 0.762059
vt 0.736753 0.763412
vt 0.736753 0.859360
vt 0.640618 0.859360
vt 0.640618 0.763412
vt 0.640618 0.762857
vt 0.736753 0.762855
vt 0.736753 0.859351
vt 0.640618 0.859349
vt 0.736753 0.762059
vt 0.640618 0.762059
vt 0.736753 0.859360
vt 0.640618 0.859360
vt 0.736753 0.763412
vt 0.640618 0.763413
vt 0.640618 0.762854
vt 0.640618 0.859484
vt 0.640618 0.859349
vt 0.640618 0.859353
vt 0.640618 0.859482
vt 0.640618 0.859353
vt 0.640618 0.762059
vt 0.640618 0.859360
vt 0.640618 0.763412
vt 0.640618 0.762857
vt 0.736753 0.762855
vt 0.736753 0.859351
vt 0.640618 0.859349
vt 0.736753 0.762059
vt 0.640618 0.762059
vt 0.736753 0.859360
vt 0.640618 0.859360
vt 0.736753 0.763412
vt 0.640618 0.763413
vt 0.640618 0.762854
vt 0.640618 0.859484
vt 0.640618 0.859349
vt 0.640618 0.859353
vt 0.640618 0.859482
vt 0.640618 0.859353
vt 0.640618 0.762059
vt 0.640618 0.859360
vt 0.640618 0.763412
vt 0.640618 0.859349
vt 0.736753 0.859351
vt 0.736753 0.762059
vt 0.640618 0.762059
vt 0.640618 0.859360
vt 0.736753 0.859360
vt 0.736753 0.763412
vt 0.640618 0.763413
vt 0.640618 0.762854
vt 0.640618 0.859484
vt 0.640618 0.859349
vt 0.640618 0.859353
vt 0.640618 0.859482
vt 0.640618 0.762857
vt 0.640618 0.859353
vt 0.640618 0.762059
vt 0.640618 0.859360
vt 0.640618 0.763412
vn 0.000000 0.000000 1.000000
vn 0.000000 0.000000 1.000000
vn 0.000000 0.000000 1.000000
vn 0.000000 0.000000 1.000000
vn 0.000000 -1.000000 0.000000
vn 0.000000 -1.000000 0.000000
vn 0.000000 -1.000000 0.000000
vn 0.000000 -1.000000 0.000000
vn 0.000000 1.000000 0.000000
vn 0.000000 1.000000 0.000000
vn 0.000000 1.000000 0.000000
vn 0.000000 1.000000 0.000000
vn 0.000000 0.000000 1.000000
vn 0.000000 0.000000 1.000000
vn 0.000000 0.000000 1.000000
vn 0.000000 0.000000 1.000000
vn 0.000000 -1.000000 0.000000
vn 0.000000 -1.000000 0.000000
vn 0.000000 -1.000000 0.000000
vn 0.000000 -1.000000 0.000000
vn 0.000000 1.000000 0.000000
vn 0.000000 1.000000 0.000000
vn 0.000000 1.000000 0.000000
vn 0.000000 1.000000 0.000000
vn 0.000000 0.000000 1.000000
vn 0.000000 0.000000 1.000000
vn 0.000000 0.000000 1.000000
vn 0.000000 0.000000 1.000000
vn 0.000000 -1.000000 0.000000
vn 0.000000 -1.000000 0.000000
vn 0.000000 -1.000000 0.000000
vn 0.000000 -1.000000 0.000000
vn 0.000000 1.000000 0.000000
vn 0.000000 1.000000 0.000000
vn 0.000000 1.000000 0.000000
vn 0.000000 1.000000 0.000000
vn 0.000000 0.000000 1.000000
vn 0.000000 0.000000 1.000000
vn 0.000000 0.000000 1.000000
vn 0.000000 0.000000 1.000000
vn 0.000000 -1.000000 0.000000
vn 0.000000 -1.000000 0.000000
vn 0.000000 -1.000000 0.000000
vn 0.000000 -1.000000 0.000000
vn 0.000000 1.000000 0.000000
vn 0.000000 1.000000 0.000000
vn 0.000000 1.000000 0.000000
vn 0.000000 1.000000 0.000000
vn 0.000000 0.000000 1.000000
vn 0.000000 0.000000 1.000000
vn 0.000000 0.000000 1.000000
vn 0.000000 0.000000 1.000000
vn 0.000000 -1.000000 0.000000
vn 0.000000 -1.000000 0.000000
vn 0.000000 -1.000000 0.000000
vn 0.000000 -1.000000 0.000000
vn 0.000000 1.000000 0.000000
vn 0.000000 1.000000 0.000000
vn 0.000000 1.000000 0.000000
vn 0.000000 1.000000 0.000000
vn 0.000000 0.000000 1.000000
vn 0.000000 0.000000 1.000000
vn 0.000000 0.000000 1.000000
vn 0.000000 0.000000 1.000000
vn 0.000000 0.000000 -1.000000
vn 0.000000 0.000000 -1.000000
vn 0.000000 0.000000 -1.000000
vn 0.000000 0.000000 -1.000000
vn 0.000000 0.000000 1.000000
vn 0.000000 0.000000 1.000000
vn 0.000000 0.000000 1.000000
vn 0.000000 0.000000 1.000000
vn -1.000000 0.000000 0.000000
vn -1.000000 0.000000 0.000000
vn -1.000000 0.000000 0.000000
vn -1.000000 0.000000 0.000000
vn 0.000000 0.000000 -1.000000
vn 0.000000 0.000000 -1.000000
vn 0.000000 0.000000 -1.000000
vn 0.000000 0.000000 -1.000000
vn 1.000000 0.000000 0.000000
vn 1.000000 0.000000 0.000000
vn 1.000000 0.000000 0.000000
vn 1.000000 0.000000 0.000000
vn 0.000000 1.000000 0.000000
vn 0.000000 1.000000 0.000000
vn 0.000000 1.000000 0.000000
vn 0.000000 1.000000 0.000000
vn 0.000000 -1.000000 0.000000
vn 0.000000 -1.000000 0.000000
vn 0.000000 -1.000000 0.000000
vn 0.000000 -1.000000 0.000000
vn -1.000000 0.000000 0.000000
vn -1.000000 0.000000 0.000000
vn 0.000000 0.000000 -1.000000
vn 0.000000 0.000000 -1.000000
vn 1.000000 0.000000 0.000000
vn 1.000000 0.000000 0.000000
vn 0.000000 0.000000 1.000000
vn 0.000000 0.000000 1.000000
vn 0.000000 0.000000 1.000000
vn 0.000000 0.000000 1.000000
vn 0.000000 0.000000 1.000000
vn 0.000000 0.000000 1.000000
vn -1.000000 0.000000 0.000000
vn -1.000000 0.000000 0.000000
vn -1.000000 0.000000 0.000000
vn -1.000000 0.000000 0.000000
vn 0.000000 0.000000 -1.000000
vn 0.000000 0.000000 -1.000000
vn 0.000000 0.000000 -1.000000
vn 0.000000 0.000000 -1.000000
vn 1.000000 0.000000 0.000000
vn 1.000000 0.000000 0.000000
vn 1.000000 0.000000 0.000000
vn 1.000000 0.000000 0.000000
vn 0.000000 1.000000 0.000000
vn 0.000000 1.000000 0.000000
vn 0.000000 1.000000 0.000000
vn 0.000000 1.000000 0.000000
vn 0.000000 -1.000000 0.000000
vn 0.000000 -1.000000 0.000000
vn 0.000000 -1.000000 0.000000
vn 0.000000 -1.000000 0.000000
vn -1.000000 0.000000 0.000000
vn -1.000000 0.000000 0.000000
vn 0.000000 0.000000 -1.000000
vn 0.000000 0.000000 -1.000000
vn 1.000000 0.000000 0.000000
vn 1.000000 0.000000 0.000000
vn 0.000000 0.000000 1.000000
vn 0.000000 0.000000 1.000000
vn 0.000000 0.000000 1.000000
vn 0.000000 0.000000 1.000000
vn 0.000000 0.000000 1.000000
vn 0.000000 0.000000 1.000000
vn 0.000000 0.000000 -1.000000
vn 0.000000 0.000000 -1.000000
vn 0.000000 0.000000 -1.000000
vn 0.000000 0.000000 -1.000000
vn 0.000000 1.000000 0.000000
vn 0.000000 1.000000 0.000000
vn 0.000000 1.000000 0.000000
vn 0.000000 1.000000 0.000000
vn 0.000000 -1.000000 0.000000
vn 0.000000 -1.000000 0.000000
vn 0.000000 -1.000000 0.000000
vn 0.000000 -1.000000 0.000000
vn 0.000000 0.000000 1.000000
vn 0.000000 0.000000 1.000000
vn 0.000000 0.000000 -1.000000
vn 0.000000 0.000000 -1.000000
vn 0.000000 -1.000000 -0.000000
vn 0.000000 -1.000000 -0.000000
vn 0.000000 -1.000000 -0.000000
vn 0.000000 -1.000000 -0.000000
f 1/1/1 4/6/2 3/7/3 2/2/4
f 5/8/5 2/2/6 3/3/7 6/9/8
f 8/11/9 7/10/10 4/4/11 1/5/12
f 9/12/13 12/13/14 11/14/15 10/15/16
f 13/16/17 10/15/18 11/17/19 14/18/20
f 16/19/21 15/20/22 12/21/23 9/22/24
f 17/23/25 20/24/26 19/25/27 18/26/28
f 21/27/29 18/26/30 19/28/31 22/29/32
f 24/30/33 23/31/34 20/32/35 17/33/36
f 25/34/37 28/35/38 27/36/39 26/37/40
f 29/38/41 26/37/42 27/39/43 30/40/44
f 32/41/45 31/42/46 28/43/47 25/44/48
f 33/45/49 36/46/50 35/47/51 34/48/52
f 37/49/53 34/48/54 35/50/55 38/51/56
f 40/52/57 39/53/58 36/54/59 33/55/60
f 45/56/61 44/57/62 43/58/63 46/59/64
f 47/60/65 48/61/66 42/62/67 41/63/68
f 49/64/69 60/65/70 57/66/71 51/67/72
f 51/67/73 57/66/74 58/68/75 53/69/76
f 53/69/77 58/68/78 59/70/79 55/71/80
f 55/71/81 59/70/82 60/72/83 49/73/84
f 50/74/85 56/75/86 54/76/87 52/77/88
f 55/78/89 49/64/90 51/67/91 53/79/92
f 57/66/74 52/77/93 54/80/94 58/68/75
f 59/70/79 58/68/78 54/80/95 56/81/96
f 60/72/83 59/70/82 56/81/97 50/82/98
f 57/66/71 60/65/70 50/74/99 52/77/100
f 61/83/101 72/84/102 69/85/103 63/86/104
f 63/86/105 69/85/106 70/87/107 65/88/108
f 65/88/109 70/87/110 71/89/111 67/90/112
f 67/90/113 71/89/114 72/91/115 61/92/116
f 62/93/117 68/94/118 66/95/119 64/96/120
f 67/97/121 61/83/122 63/86/123 65/98/124
f 69/85/106 64/96/125 66/99/126 70/87/107
f 71/89/111 70/87/110 66/99/127 68/100/128
f 72/91/115 71/89/114 68/100/129 62/101/130
f 69/85/103 72/84/102 62/93/131 64/96/132
f 75/102/133 81/103/134 82/104/135 77/105/136
f 79/106/137 83/107/138 84/108/139 73/109/140
f 74/110/141 80/111/142 78/112/143 76/113/144
f 79/114/145 73/115/146 75/102/147 77/116/148
f 81/103/134 76/113/149 78/117/150 82/104/135
f 84/108/139 83/107/138 80/118/151 74/119/152
f 45/56/153 46/59/154 48/61/155 47/60/156
