# This file uses meters as units for non-parametric coordinates.

v -48.473427 -28.277735 36.541016
v 48.473427 -28.277742 36.541016
v -48.473427 28.277733 36.541077
v 48.473427 28.277725 36.541077
v -46.056206 24.228378 -39.500122
v 46.056175 24.228409 -39.500122
v 46.056175 -28.277733 -39.500122
v -46.056145 -28.277737 -39.500122
v 46.056175 24.228409 36.541077
v 46.056175 -28.277733 36.541077
v -46.056145 -28.277737 36.541077
v -46.056206 24.228378 36.541077
v -39.720604 24.228378 -33.046204
v -39.720604 24.228378 36.541077
v 39.720604 24.228409 36.541077
v 39.720604 24.228409 -33.046204
v -39.720604 -23.164423 -33.046204
v -39.720604 -23.164423 36.541077
v 39.720604 -23.164427 36.541077
v 39.720604 -23.164427 -33.046204
v -48.473427 -28.277735 38.760376
v -47.733753 -27.538065 39.500061
v 47.733757 -27.538069 39.500061
v 48.473427 -28.277742 38.760376
v -47.733753 27.538063 39.500061
v -48.473427 28.277733 38.760376
v 47.733757 27.538055 39.500061
v 48.473427 28.277725 38.760376
vt 0.988398 0.776926
vt 0.890618 0.839295
vt 0.988398 0.839295
vt 0.890618 0.859484
vt 0.923211 0.859484
vt 0.923211 0.764713
vt 0.890618 0.764712
vt 0.890618 0.764712
vt 0.923211 0.764713
vt 0.923211 0.860720
vt 0.890618 0.860720
vt 0.923211 0.764181
vt 0.890618 0.764181
vt 0.923211 0.860649
vt 0.890618 0.860650
vt 0.988398 0.859482
vt 0.890618 0.859484
vt 0.988398 0.764716
vt 0.923211 0.859484
vt 0.923211 0.859484
vt 0.890618 0.859484
vt 0.890618 0.764712
vt 0.923211 0.764713
vt 0.978823 0.776450
vt 0.902446 0.776450
vt 0.902446 0.852826
vt 0.978823 0.852826
vt 0.978823 0.776450
vt 0.902446 0.776450
vt 0.902446 0.852826
vt 0.978823 0.852826
vt 0.890618 0.765776
vt 0.891364 0.763082
vt 0.988398 0.859482
vt 0.890618 0.845052
vt 0.891364 0.839220
vt 0.987652 0.839223
vt 0.987652 0.763082
vt 0.988398 0.765776
vt 0.890618 0.776926
vt 0.890618 0.859484
vt 0.890618 0.845052
vt 0.988398 0.845054
vt 0.988398 0.859482
vt 0.890618 0.859484
vt 0.988398 0.845054
vn 0.000000 0.000001 -1.000000
vn 0.000000 0.000001 -1.000000
vn 0.000000 0.000001 -1.000000
vn 0.000000 0.000001 -1.000000
vn 0.000000 1.000000 0.000000
vn 0.000000 1.000000 0.000000
vn 0.000000 1.000000 0.000000
vn 0.000000 1.000000 0.000000
vn 1.000000 0.000000 0.000000
vn 1.000000 0.000000 0.000000
vn 1.000000 0.000000 0.000000
vn 1.000000 0.000000 0.000000
vn 0.000000 -1.000000 0.000000
vn 0.000000 -1.000000 0.000000
vn 0.000000 -1.000000 0.000000
vn 0.000000 -1.000000 0.000000
vn -1.000000 -0.000001 0.000000
vn -1.000000 -0.000001 0.000000
vn -1.000000 -0.000001 0.000000
vn -1.000000 -0.000001 0.000000
vn 0.000000 0.000000 -1.000000
vn 0.000000 0.000000 -1.000000
vn 0.000000 0.000000 -1.000000
vn 0.000000 0.000000 -1.000000
vn 0.000000 1.000000 0.000000
vn 0.000000 1.000000 0.000000
vn 0.000000 1.000000 0.000000
vn 0.000000 1.000000 0.000000
vn 0.000000 1.000000 0.000000
vn 0.000000 1.000000 0.000000
vn 0.000000 1.000000 0.000000
vn 0.000000 1.000000 0.000000
vn -0.000000 1.000000 0.000000
vn -0.000000 1.000000 0.000000
vn -0.000000 1.000000 0.000000
vn -0.000000 1.000000 0.000000
vn 1.000000 0.000000 0.000000
vn 1.000000 0.000000 0.000000
vn 1.000000 0.000000 0.000000
vn 1.000000 0.000000 0.000000
vn -1.000000 0.000000 0.000000
vn -1.000000 0.000000 0.000000
vn -1.000000 0.000000 0.000000
vn -1.000000 0.000000 0.000000
vn 0.000000 0.000000 1.000000
vn 0.000000 0.000000 1.000000
vn 0.000000 0.000000 1.000000
vn 0.000000 0.000000 1.000000
vn -0.707110 0.000000 0.707103
vn -0.707110 0.000000 0.707103
vn -0.707110 0.000000 0.707103
vn -0.707110 0.000000 0.707103
vn -0.000000 -0.707114 0.707100
vn -0.000000 -0.707114 0.707100
vn -0.000000 -0.707114 0.707100
vn -0.000000 -0.707114 0.707100
vn 0.707114 0.000000 0.707099
vn 0.707114 0.000000 0.707099
vn 0.707114 0.000000 0.707099
vn 0.707114 0.000000 0.707099
vn 0.000000 0.707115 0.707099
vn 0.000000 0.707115 0.707099
vn 0.000000 0.707115 0.707099
vn 0.000000 0.707115 0.707099
vn -0.000000 -1.000000 0.000000
vn -0.000000 -1.000000 0.000000
vn -0.000000 -1.000000 0.000000
vn -0.000000 -1.000000 0.000000
vn 0.000000 0.000000 1.000000
vn 0.000000 0.000000 1.000000
vn 0.000000 0.000000 1.000000
vn 0.000000 0.000000 1.000000
vn 0.000000 1.000000 0.000000
vn 0.000000 1.000000 0.000000
vn 0.000000 1.000000 0.000000
vn 0.000000 1.000000 0.000000
vn 1.000000 0.000000 0.000000
vn 1.000000 0.000000 0.000000
vn 1.000000 0.000000 0.000000
vn 1.000000 0.000000 0.000000
vn -1.000000 0.000000 0.000000
vn -1.000000 0.000000 0.000000
vn -1.000000 0.000000 0.000000
vn -1.000000 0.000000 0.000000
f 3/40/1 4/1/2 2/3/3 1/2/4
f 17/4/5 18/5/6 19/6/7 20/7/8
f 6/8/9 9/9/10 10/10/11 7/11/12
f 7/11/13 10/10/14 11/12/15 8/13/16
f 8/13/17 11/12/18 12/14/19 5/15/20
f 8/16/21 5/17/22 6/8/23 7/18/24
f 5/17/25 12/19/26 14/20/27 13/21/28
f 9/9/29 6/8/30 16/22/31 15/23/32
f 6/8/33 5/17/34 13/21/35 16/22/36
f 13/24/37 14/25/38 18/26/39 17/27/40
f 15/28/41 16/29/42 20/30/43 19/31/44
f 16/29/45 13/24/46 17/27/47 20/30/48
f 21/35/49 22/36/50 25/33/51 26/32/52
f 22/36/53 21/35/54 24/43/55 23/37/56
f 23/37/57 24/43/58 28/39/59 27/38/60
f 26/32/61 25/33/62 27/38/63 28/39/64
f 1/45/65 2/34/66 24/43/67 21/35/68
f 22/36/69 23/37/70 27/38/71 25/33/72
f 26/32/73 28/39/74 4/1/75 3/40/76
f 2/34/77 4/41/78 28/42/79 24/43/80
f 3/44/81 1/45/82 21/35/83 26/46/84
