# This file uses meters as units for non-parametric coordinates.

v 265.078949 184.267944 72.868286
v 265.078949 184.267944 8.724373
v 265.078949 180.440613 8.724373
v 265.078949 180.440613 72.868286
v 129.493805 184.267944 72.868286
v 129.493805 184.267944 8.724373
v 129.493805 180.440613 8.724373
v 129.493805 180.440613 72.868286
v 265.078949 247.205383 72.868286
v 265.078949 247.205383 8.724373
v 265.078949 243.378052 8.724373
v 265.078949 243.378052 72.868286
v 129.493805 247.205383 72.868286
v 129.493805 247.205383 8.724373
v 129.493805 243.378052 8.724373
v 129.493805 243.378052 72.868286
v -195.748611 242.729538 77.549484
v -195.748611 247.205399 77.549484
v -195.748611 247.205399 9.325676
v -195.748611 242.729538 9.325676
v -136.406708 247.205399 77.549484
v -136.406708 247.205399 9.325676
v -136.406708 242.729538 9.325676
v -136.406708 242.729538 77.549484
v -195.748611 179.792084 77.549484
v -195.748611 184.267944 77.549484
v -195.748611 184.267944 9.325676
v -195.748611 179.792084 9.325676
v -136.406708 184.267944 77.549484
v -136.406708 184.267944 9.325676
v -136.406708 179.792084 9.325676
v -136.406708 179.792084 77.549484
vt 0.445600 0.833745
vt 0.445600 0.823141
vt 0.445600 0.825157
vt 0.445600 0.836354
vt 0.445600 0.833616
vt 0.459028 0.833744
vt 0.459028 0.823141
vt 0.459028 0.825157
vt 0.459028 0.836354
vt 0.459028 0.833616
vt 0.459028 0.833744
vt 0.445600 0.833745
vt 0.445600 0.823141
vt 0.459028 0.823141
vt 0.459028 0.833616
vt 0.459028 0.825157
vt 0.445600 0.825157
vt 0.445600 0.833616
vt 0.459028 0.836354
vt 0.445600 0.836354
vt 0.445600 0.836354
vt 0.459028 0.836354
vt 0.459028 0.833744
vt 0.445600 0.833744
vt 0.459028 0.823141
vt 0.445600 0.823141
vt 0.445600 0.825157
vt 0.459028 0.825157
vt 0.459028 0.833616
vt 0.445600 0.833616
vt 0.459028 0.836354
vt 0.459028 0.833745
vt 0.445600 0.836354
vt 0.459028 0.836354
vt 0.459028 0.833744
vt 0.445600 0.833744
vt 0.459028 0.823141
vt 0.445600 0.823141
vt 0.445600 0.825157
vt 0.459028 0.825157
vt 0.459028 0.833616
vt 0.445600 0.833616
vt 0.459028 0.836354
vt 0.459028 0.833745
vn 0.000000 1.000000 0.000000
vn 0.000000 1.000000 0.000000
vn 0.000000 1.000000 0.000000
vn 0.000000 1.000000 0.000000
vn 0.000000 -1.000000 0.000000
vn 0.000000 -1.000000 0.000000
vn 0.000000 -1.000000 0.000000
vn 0.000000 -1.000000 0.000000
vn 0.000000 0.000000 1.000000
vn 0.000000 0.000000 1.000000
vn 0.000000 0.000000 1.000000
vn 0.000000 0.000000 1.000000
vn 0.000000 1.000000 0.000000
vn 0.000000 1.000000 0.000000
vn 0.000000 1.000000 0.000000
vn 0.000000 1.000000 0.000000
vn 0.000000 -1.000000 0.000000
vn 0.000000 -1.000000 0.000000
vn 0.000000 -1.000000 0.000000
vn 0.000000 -1.000000 0.000000
vn 0.000000 0.000000 1.000000
vn 0.000000 0.000000 1.000000
vn 0.000000 0.000000 1.000000
vn 0.000000 0.000000 1.000000
vn 0.000000 0.000000 1.000000
vn 0.000000 0.000000 1.000000
vn 0.000000 0.000000 1.000000
vn 0.000000 0.000000 1.000000
vn 0.000000 1.000000 0.000000
vn 0.000000 1.000000 0.000000
vn 0.000000 1.000000 0.000000
vn 0.000000 1.000000 0.000000
vn 0.000000 -1.000000 0.000000
vn 0.000000 -1.000000 0.000000
vn 0.000000 -1.000000 0.000000
vn 0.000000 -1.000000 0.000000
vn -1.000000 0.000000 0.000000
vn -1.000000 0.000000 0.000000
vn -1.000000 0.000000 0.000000
vn -1.000000 0.000000 0.000000
vn 0.000000 0.000000 1.000000
vn 0.000000 0.000000 1.000000
vn 0.000000 0.000000 1.000000
vn 0.000000 0.000000 1.000000
vn 0.000000 1.000000 0.000000
vn 0.000000 1.000000 0.000000
vn 0.000000 1.000000 0.000000
vn 0.000000 1.000000 0.000000
vn 0.000000 -1.000000 0.000000
vn 0.000000 -1.000000 0.000000
vn 0.000000 -1.000000 0.000000
vn 0.000000 -1.000000 0.000000
vn -1.000000 0.000000 0.000000
vn -1.000000 0.000000 0.000000
vn -1.000000 0.000000 0.000000
vn -1.000000 0.000000 0.000000
f 5/6/1 1/1/2 2/2/3 6/7/4
f 8/10/5 7/8/6 3/3/7 4/5/8
f 5/6/9 8/9/10 4/4/11 1/1/12
f 13/11/13 9/12/14 10/13/15 14/14/16
f 16/15/17 15/16/18 11/17/19 12/18/20
f 13/11/21 16/19/22 12/20/23 9/12/24
f 17/21/25 24/22/26 21/23/27 18/24/28
f 18/24/29 21/23/30 22/25/31 19/26/32
f 20/27/33 23/28/34 24/29/35 17/30/36
f 20/31/37 17/21/38 18/24/39 19/32/40
f 25/33/41 32/34/42 29/35/43 26/36/44
f 26/36/45 29/35/46 30/37/47 27/38/48
f 28/39/49 31/40/50 32/41/51 25/42/52
f 28/43/53 25/33/54 26/36/55 27/44/56
