# This file uses meters as units for non-parametric coordinates.

v 15.156250 18.961287 82.585432
v 15.156250 18.961287 79.002668
v 15.156250 20.702456 82.585432
v 15.156250 20.702456 79.002668
v 16.508545 20.702456 82.585432
v 16.508545 20.702456 79.002668
v 16.508545 18.961287 82.585432
v 16.508545 18.961287 79.002668
v -15.156250 18.961287 82.585432
v -15.156249 18.961287 79.002668
v -15.156250 20.702456 82.585432
v -15.156249 20.702456 79.002668
v -16.508545 20.702456 82.585432
v -16.508545 20.702456 79.002668
v -16.508545 18.961287 82.585432
v -16.508545 18.961287 79.002668
v -19.486017 17.262917 83.937727
v 19.486017 17.262917 83.937727
v -19.486017 22.400826 83.937727
v 19.486017 22.400826 83.937727
v -19.486017 22.400826 82.585432
v 19.486017 22.400826 82.585432
v -19.486017 17.262917 82.585432
v 19.486017 17.262917 82.585432
vt 0.529749 0.050900
vt 0.576904 0.050900
vt 0.528768 0.020222
vt 0.577886 0.020229
vt 0.528786 0.012742
vt 0.577868 0.012735
vt 0.528863 0.042991
vt 0.577793 0.042991
vt 0.528863 0.050900
vt 0.577793 0.050900
vt 0.529749 0.050900
vt 0.576904 0.050900
vt 0.577886 0.020229
vt 0.528768 0.020222
vt 0.577868 0.012735
vt 0.528786 0.012742
vt 0.577793 0.042991
vt 0.528863 0.042991
vt 0.577793 0.050900
vt 0.528863 0.050900
vt 0.529749 0.050900
vt 0.576904 0.050900
vt 0.577886 0.020229
vt 0.528768 0.020222
vt 0.577868 0.012735
vt 0.528786 0.012742
vt 0.577793 0.042991
vt 0.528863 0.042991
vt 0.577793 0.050900
vt 0.528863 0.050900
vt 0.578403 0.050900
vt 0.582504 0.018623
vt 0.528251 0.050900
vt 0.524143 0.018614
vn -1.000000 0.000000 0.000000
vn -1.000000 0.000000 0.000000
vn -1.000000 0.000000 0.000000
vn -1.000000 0.000000 0.000000
vn 0.000000 1.000000 0.000000
vn 0.000000 1.000000 0.000000
vn 0.000000 1.000000 0.000000
vn 0.000000 1.000000 0.000000
vn 1.000000 0.000000 0.000000
vn 1.000000 0.000000 0.000000
vn 1.000000 0.000000 0.000000
vn 1.000000 0.000000 0.000000
vn 0.000000 -1.000000 0.000000
vn 0.000000 -1.000000 0.000000
vn 0.000000 -1.000000 0.000000
vn 0.000000 -1.000000 0.000000
vn 1.000000 0.000000 0.000000
vn 1.000000 0.000000 0.000000
vn 1.000000 0.000000 0.000000
vn 1.000000 0.000000 0.000000
vn 0.000000 1.000000 0.000000
vn 0.000000 1.000000 0.000000
vn 0.000000 1.000000 0.000000
vn 0.000000 1.000000 0.000000
vn -1.000000 0.000000 0.000000
vn -1.000000 0.000000 0.000000
vn -1.000000 0.000000 0.000000
vn -1.000000 0.000000 0.000000
vn 0.000000 -1.000000 -0.000000
vn 0.000000 -1.000000 -0.000000
vn 0.000000 -1.000000 -0.000000
vn 0.000000 -1.000000 -0.000000
vn 0.000000 0.000000 1.000000
vn 0.000000 0.000000 1.000000
vn 0.000000 0.000000 1.000000
vn 0.000000 0.000000 1.000000
vn 0.000000 1.000000 0.000000
vn 0.000000 1.000000 0.000000
vn 0.000000 1.000000 0.000000
vn 0.000000 1.000000 0.000000
vn 0.000000 0.000000 -1.000000
vn 0.000000 0.000000 -1.000000
vn 0.000000 0.000000 -1.000000
vn 0.000000 0.000000 -1.000000
vn 0.000000 -1.000000 0.000000
vn 0.000000 -1.000000 0.000000
vn 0.000000 -1.000000 0.000000
vn 0.000000 -1.000000 0.000000
vn 1.000000 0.000000 0.000000
vn 1.000000 0.000000 0.000000
vn 1.000000 0.000000 0.000000
vn 1.000000 0.000000 0.000000
vn -1.000000 0.000000 0.000000
vn -1.000000 0.000000 0.000000
vn -1.000000 0.000000 0.000000
vn -1.000000 0.000000 0.000000
f 1/1/1 3/3/2 4/4/3 2/2/4
f 3/3/5 5/5/6 6/6/7 4/4/8
f 5/5/9 7/7/10 8/8/11 6/6/12
f 7/7/13 1/9/14 2/10/15 8/8/16
f 9/11/17 10/12/18 12/13/19 11/14/20
f 11/14/21 12/13/22 14/15/23 13/16/24
f 13/16/25 14/15/26 16/17/27 15/18/28
f 15/18/29 16/17/30 10/19/31 9/20/32
f 17/21/33 18/22/34 20/23/35 19/24/36
f 19/24/37 20/23/38 22/25/39 21/26/40
f 21/26/41 22/25/42 24/27/43 23/28/44
f 23/28/45 24/27/46 18/29/47 17/30/48
f 18/22/49 24/31/50 22/32/51 20/23/52
f 23/33/53 17/21/54 19/24/55 21/34/56
