# This file uses meters as units for non-parametric coordinates.

v 209.905396 0.000000 100.000000
v 369.803284 0.000000 100.000000
v 369.803284 0.000000 0.000000
v 209.905396 0.000000 0.000000
v 369.803284 364.651031 100.000000
v 369.803284 364.651031 0.000000
v 209.905396 364.651031 0.000000
v 209.905396 364.651031 100.000000
v 369.803284 196.081802 100.000000
v 369.803284 196.081802 0.000000
v 209.905396 196.081802 0.000000
v 209.905396 196.081802 100.000000
v 216.240967 6.453873 100.000000
v 216.240967 196.081802 100.000000
v 363.467712 196.081802 100.000000
v 363.467712 6.453873 100.000000
v 216.240967 358.197144 100.000000
v 363.467712 358.197144 100.000000
v 363.467712 6.453873 96.201233
v 363.467712 196.081802 96.201233
v 363.467712 358.197144 96.201233
v 216.240967 358.197144 96.201233
v 216.240967 196.081802 96.201233
v 216.240967 6.453873 96.201233
v 218.370010 8.582916 8.501225
v 218.848511 196.081802 8.979717
v 360.860168 196.081802 8.979717
v 361.338684 8.582916 8.501225
v 218.370010 356.068085 8.501225
v 361.338684 356.068085 8.501225
v 361.623901 8.297684 96.201233
v 359.780090 196.081802 96.201233
v 361.623901 356.353333 96.201233
v 218.084778 356.353333 96.201233
v 219.928589 196.081802 96.201233
v 218.084778 8.297684 96.201233
v 359.780090 176.450226 96.201225
v 218.370026 176.450226 96.201225
v 359.780090 181.264954 96.201225
v 218.370026 181.264954 96.201225
v 359.780090 181.264954 6.372162
v 218.370026 181.264954 6.372162
v 359.780090 176.450226 6.372162
v 218.370026 176.450226 6.372162
v 359.780090 267.603790 96.201225
v 218.370026 267.603790 96.201225
v 359.780090 272.418518 96.201225
v 218.370026 272.418518 96.201225
v 359.780090 272.418518 6.372162
v 218.370026 272.418518 6.372162
v 359.780090 267.603790 6.372162
v 218.370026 267.603790 6.372162
v 359.780090 85.349167 96.201225
v 359.780090 90.163895 96.201225
v 218.370026 90.163895 96.201225
v 218.370026 85.349167 96.201225
v 359.780090 90.163895 6.372162
v 218.370026 90.163895 6.372162
v 359.780090 85.349167 6.372162
v 218.370026 85.349167 6.372162
vt 0.765618 0.734484
vt 0.765618 0.639712
vt 0.765618 0.735720
vt 0.765618 0.639181
vt 0.765618 0.735650
vt 0.863398 0.734482
vt 0.863398 0.639716
vt 0.830805 0.639714
vt 0.830805 0.735720
vt 0.830805 0.639181
vt 0.830805 0.734483
vt 0.830805 0.735649
vt 0.798211 0.639713
vt 0.798211 0.735720
vt 0.798211 0.639181
vt 0.798211 0.734484
vt 0.798211 0.735649
vt 0.863501 0.639551
vt 0.863501 0.736578
vt 0.766474 0.736578
vt 0.766474 0.639551
vt 0.765618 0.734484
vt 0.798211 0.734484
vt 0.798211 0.639713
vt 0.765618 0.639712
vt 0.830805 0.734483
vt 0.830805 0.639714
vt 0.765618 0.734484
vt 0.798211 0.734484
vt 0.798211 0.639713
vt 0.765618 0.639712
vt 0.830805 0.734483
vt 0.830805 0.639714
vt 0.853823 0.651450
vt 0.777446 0.651450
vt 0.777446 0.727826
vt 0.853823 0.727826
vt 0.853823 0.651450
vt 0.777446 0.651450
vt 0.777446 0.727826
vt 0.853823 0.727826
vt 0.853823 0.651450
vt 0.777446 0.727826
vt 0.777446 0.651450
vt 0.853823 0.727826
vt 0.777446 0.654549
vt 0.853823 0.654549
vt 0.777446 0.654549
vt 0.853823 0.654549
vt 0.777446 0.654549
vt 0.853823 0.654549
vt 0.853823 0.654549
vt 0.777446 0.654549
vt 0.777446 0.654549
vt 0.853823 0.654549
vt 0.777446 0.654549
vt 0.853823 0.654549
vt 0.765795 0.636881
vt 0.765797 0.734662
vt 0.785034 0.734662
vt 0.785037 0.636881
vt 0.863220 0.734662
vt 0.863220 0.636881
vt 0.848353 0.636881
vt 0.848353 0.734662
vt 0.785984 0.734662
vt 0.785984 0.636881
vt 0.765795 0.636881
vt 0.765797 0.734662
vt 0.785034 0.734662
vt 0.785037 0.636881
vt 0.863220 0.734662
vt 0.863220 0.636881
vt 0.848353 0.636881
vt 0.848353 0.734662
vt 0.785984 0.734662
vt 0.785984 0.636881
vt 0.765795 0.636881
vt 0.785037 0.636881
vt 0.785034 0.734662
vt 0.765797 0.734662
vt 0.863220 0.636881
vt 0.863220 0.734662
vt 0.848353 0.636881
vt 0.785984 0.636881
vt 0.785984 0.734662
vt 0.848353 0.734662
vn 0.000000 -0.002552 0.999997
vn 0.000000 -0.002552 0.999997
vn 0.000000 0.000000 1.000000
vn 0.000000 0.000000 1.000000
vn 1.000000 0.000000 0.000000
vn 1.000000 0.000000 0.000000
vn 1.000000 0.000000 0.000000
vn 1.000000 0.000000 0.000000
vn 0.000000 0.000000 -1.000000
vn 0.000000 0.000000 -1.000000
vn 0.000000 0.000000 -1.000000
vn 0.000000 0.000000 -1.000000
vn -1.000000 0.000000 0.000000
vn -1.000000 0.000000 0.000000
vn -1.000000 0.000000 0.000000
vn -1.000000 0.000000 0.000000
vn 0.000000 -1.000000 0.000000
vn 0.000000 -1.000000 0.000000
vn 0.000000 -1.000000 0.000000
vn 0.000000 -1.000000 0.000000
vn 1.000000 0.000000 0.000000
vn 1.000000 0.000000 0.000000
vn 0.000000 0.000000 -1.000000
vn 0.000000 0.000000 -1.000000
vn -1.000000 0.000000 0.000000
vn -1.000000 0.000000 0.000000
vn 0.000000 0.002991 0.999996
vn 0.000000 0.002991 0.999996
vn 0.000000 1.000000 0.000000
vn 0.000000 1.000000 0.000000
vn 0.000000 1.000000 0.000000
vn 0.000000 1.000000 0.000000
vn 0.000000 0.000000 1.000000
vn 0.000000 0.000000 1.000000
vn 0.000000 0.000000 1.000000
vn 0.000000 0.000000 1.000000
vn 0.000000 0.000000 1.000000
vn 0.000000 0.000000 1.000000
vn 0.000000 0.000000 1.000000
vn 0.000000 0.000000 1.000000
vn 0.000000 0.000000 1.000000
vn 0.000000 0.000000 1.000000
vn 0.000000 0.000000 1.000000
vn 0.000000 0.000000 1.000000
vn 0.000000 0.000000 1.000000
vn 0.000000 0.000000 1.000000
vn 0.000000 0.000000 1.000000
vn 0.000000 0.000000 1.000000
vn 0.000000 0.000000 1.000000
vn 0.000000 0.000000 1.000000
vn 0.000000 0.000000 1.000000
vn 0.000000 0.000000 1.000000
vn 0.000000 0.000000 1.000000
vn 0.000000 0.000000 1.000000
vn 0.000000 0.000000 1.000000
vn 0.000000 0.000000 1.000000
vn 1.000000 0.000000 0.000000
vn 1.000000 0.000000 0.000000
vn 1.000000 0.000000 0.000000
vn 1.000000 0.000000 0.000000
vn -1.000000 0.000000 0.000000
vn -1.000000 0.000000 0.000000
vn -1.000000 0.000000 0.000000
vn -1.000000 0.000000 0.000000
vn 0.000000 1.000000 0.000000
vn 0.000000 1.000000 0.000000
vn 0.000000 1.000000 0.000000
vn 0.000000 1.000000 0.000000
vn 1.000000 0.000000 0.000000
vn 1.000000 0.000000 0.000000
vn 1.000000 0.000000 0.000000
vn 1.000000 0.000000 0.000000
vn 0.000000 -1.000000 0.000000
vn 0.000000 -1.000000 0.000000
vn 0.000000 -1.000000 0.000000
vn 0.000000 -1.000000 0.000000
vn -1.000000 0.000000 0.000000
vn -1.000000 0.000000 0.000000
vn -1.000000 0.000000 0.000000
vn -1.000000 0.000000 0.000000
vn -0.999971 -0.006182 -0.004554
vn -0.999971 -0.006182 -0.004554
vn -0.999971 -0.006182 -0.004554
vn -0.999971 -0.006182 -0.004554
vn -0.999963 0.007245 -0.004556
vn -0.999963 0.007245 -0.004556
vn -0.999963 0.007245 -0.004556
vn -0.999963 0.007245 -0.004556
vn 0.000000 -0.999995 0.003253
vn 0.000000 -0.999995 0.003253
vn 0.000000 -0.999995 0.003253
vn 0.000000 -0.999995 0.003253
vn 0.999963 0.007244 -0.004556
vn 0.999963 0.007244 -0.004556
vn 0.999963 0.007244 -0.004556
vn 0.999963 0.007244 -0.004556
vn 0.999971 -0.006182 -0.004554
vn 0.999971 -0.006182 -0.004554
vn 0.999971 -0.006182 -0.004554
vn 0.999971 -0.006182 -0.004554
vn 0.000000 0.999995 0.003252
vn 0.000000 0.999995 0.003252
vn 0.000000 0.999995 0.003252
vn 0.000000 0.999995 0.003252
vn 0.000000 0.000000 1.000000
vn 0.000000 0.000000 1.000000
vn 0.000000 0.000000 1.000000
vn 0.000000 0.000000 1.000000
vn 0.000000 0.000000 1.000000
vn 0.000000 0.000000 1.000000
vn 0.000000 0.000000 1.000000
vn 0.000000 0.000000 1.000000
vn 0.000000 0.000000 1.000000
vn 0.000000 0.000000 1.000000
vn 0.000000 0.000000 1.000000
vn 0.000000 0.000000 1.000000
vn 0.000000 0.000000 1.000000
vn 0.000000 0.000000 1.000000
vn 0.000000 0.000000 1.000000
vn 0.000000 0.000000 1.000000
vn 0.000000 1.000000 0.000000
vn 0.000000 1.000000 0.000000
vn 0.000000 1.000000 0.000000
vn 0.000000 1.000000 0.000000
vn 0.000000 -1.000000 0.000000
vn 0.000000 -1.000000 0.000000
vn 0.000000 -1.000000 0.000000
vn 0.000000 -1.000000 0.000000
vn 0.000000 0.000000 1.000000
vn 0.000000 0.000000 1.000000
vn 0.000000 0.000000 1.000000
vn 0.000000 0.000000 1.000000
vn 0.000000 1.000000 0.000000
vn 0.000000 1.000000 0.000000
vn 0.000000 1.000000 0.000000
vn 0.000000 1.000000 0.000000
vn 0.000000 -1.000000 0.000000
vn 0.000000 -1.000000 0.000000
vn 0.000000 -1.000000 0.000000
vn 0.000000 -1.000000 0.000000
vn 0.000000 0.000000 1.000000
vn 0.000000 0.000000 1.000000
vn 0.000000 0.000000 1.000000
vn 0.000000 0.000000 1.000000
vn 0.000000 1.000000 0.000000
vn 0.000000 1.000000 0.000000
vn 0.000000 1.000000 0.000000
vn 0.000000 1.000000 0.000000
vn 0.000000 -1.000000 0.000000
vn 0.000000 -1.000000 0.000000
vn 0.000000 -1.000000 0.000000
vn 0.000000 -1.000000 0.000000
f 25/28/1 28/31/2 27/30/3 26/29/4
f 2/2/5 3/3/6 10/14/7 9/13/8
f 3/3/9 4/4/10 11/15/11 10/14/12
f 4/4/13 1/5/14 12/17/15 11/15/16
f 4/6/17 3/7/18 2/2/19 1/1/20
f 9/13/8 10/14/7 6/9/21 5/8/22
f 11/15/11 7/10/23 6/9/24 10/14/12
f 12/17/15 8/12/25 7/10/26 11/15/16
f 27/30/3 30/33/27 29/32/28 26/29/4
f 7/18/29 8/21/30 5/20/31 6/19/32
f 1/1/33 13/22/34 14/23/35 12/16/36
f 9/13/37 15/24/38 16/25/39 2/2/40
f 2/2/41 16/25/42 13/22/43 1/1/44
f 12/16/45 14/23/46 17/26/47 8/11/48
f 8/11/49 17/26/50 18/27/51 5/8/52
f 5/8/53 18/27/54 15/24/55 9/13/56
f 13/34/57 24/51/58 23/50/59 14/35/60
f 15/38/61 20/47/62 19/46/63 16/39/64
f 16/39/65 19/46/66 24/51/67 13/34/68
f 14/35/69 23/50/70 22/49/71 17/42/72
f 17/42/73 22/49/74 21/48/75 18/44/76
f 18/44/77 21/48/78 20/47/79 15/38/80
f 32/52/81 27/41/82 28/40/83 31/53/84
f 33/54/85 30/43/86 27/41/87 32/52/88
f 34/55/89 29/45/90 30/43/91 33/54/92
f 35/56/93 26/36/94 29/45/95 34/55/96
f 36/57/97 25/37/98 26/36/99 35/56/100
f 31/53/101 28/40/102 25/37/103 36/57/104
f 20/47/105 32/52/106 31/53/107 19/46/108
f 21/48/109 33/54/110 32/52/106 20/47/105
f 22/49/111 34/55/112 33/54/110 21/48/109
f 23/50/113 35/56/114 34/55/112 22/49/111
f 24/51/115 36/57/116 35/56/114 23/50/113
f 19/46/108 31/53/107 36/57/116 24/51/115
f 37/58/117 39/61/118 40/60/119 38/59/120
f 39/61/121 41/63/122 42/62/123 40/60/124
f 43/64/125 37/67/126 38/66/127 44/65/128
f 45/68/129 47/71/130 48/70/131 46/69/132
f 47/71/133 49/73/134 50/72/135 48/70/136
f 51/74/137 45/77/138 46/76/139 52/75/140
f 53/78/141 54/79/142 55/80/143 56/81/144
f 54/79/145 57/82/146 58/83/147 55/80/148
f 59/84/149 53/85/150 56/86/151 60/87/152
