# This file uses meters as units for non-parametric coordinates.

v 6.944956 -78.837576 -2.876688
v 5.315441 -78.837576 -5.315433
v 2.876698 -78.837576 -6.944950
v 0.000004 -78.837576 -7.517162
v -2.876691 -78.837576 -6.944954
v -5.315436 -78.837576 -5.315438
v -6.944954 -78.837576 -2.876695
v -7.517165 -78.837576 -0.000000
v -6.944955 -78.837576 2.876695
v -5.315440 -78.837576 5.315439
v -2.876696 -78.837576 6.944956
v -0.000001 -78.837576 7.517167
v 2.876693 -78.837576 6.944957
v 5.315438 -78.837576 5.315441
v 6.944955 -78.837576 2.876697
v 7.517165 -78.837576 0.000002
v 13.623023 -76.760464 -5.642829
v 10.426613 -76.760464 -10.426598
v 5.642846 -76.760464 -13.623013
v 0.000007 -76.760464 -14.745445
v -5.642832 -76.760464 -13.623019
v -10.426602 -76.760464 -10.426609
v -13.623017 -76.760464 -5.642842
v -14.745449 -76.760464 -0.000003
v -13.623020 -76.760464 5.642837
v -10.426610 -76.760464 10.426607
v -5.642842 -76.760464 13.623020
v -0.000002 -76.760464 14.745452
v 5.642837 -76.760464 13.623022
v 10.426606 -76.760464 10.426610
v 13.623018 -76.760464 5.642842
v 14.745449 -76.760464 0.000002
v 19.777562 -73.387418 -8.192119
v 15.137094 -73.387418 -15.137076
v 8.192143 -73.387418 -19.777550
v 0.000011 -73.387418 -21.407071
v -8.192123 -73.387418 -19.777558
v -15.137081 -73.387418 -15.137092
v -19.777555 -73.387418 -8.192138
v -21.407074 -73.387418 -0.000005
v -19.777559 -73.387418 8.192129
v -15.137091 -73.387418 15.137086
v -8.192136 -73.387418 19.777559
v -0.000003 -73.387418 21.407077
v 8.192130 -73.387418 19.777560
v 15.137085 -73.387418 15.137091
v 19.777558 -73.387418 8.192136
v 21.407074 -73.387418 0.000002
v 24.244376 -68.848062 -10.042330
v 18.555846 -68.848062 -18.555823
v 10.042359 -68.848062 -24.244362
v 0.000013 -68.848062 -26.241911
v -10.042335 -68.848062 -24.244370
v -18.555828 -68.848062 -18.555842
v -24.244367 -68.848062 -10.042354
v -26.241916 -68.848062 -0.000007
v -24.244373 -68.848062 10.042341
v -18.555842 -68.848062 18.555834
v -10.042351 -68.848062 24.244369
v -0.000004 -68.848062 26.241919
v 10.042343 -68.848062 24.244372
v 18.555836 -68.848062 18.555841
v 24.244370 -68.848062 10.042350
v 26.241916 -68.848062 0.000002
v 0.000000 -79.538934 0.000002
vt 0.463158 0.233574
vt 0.463158 0.225625
vt 0.463158 0.217676
vt 0.463158 0.209728
vt 0.463158 0.201779
vt 0.463158 0.209728
vt 0.463158 0.217676
vt 0.463158 0.225625
vt 0.463158 0.233574
vt 0.463158 0.225625
vt 0.463158 0.217676
vt 0.463158 0.209728
vt 0.463158 0.201779
vt 0.463158 0.209728
vt 0.463158 0.217676
vt 0.463158 0.225625
vt 0.463158 0.233574
vt 0.471107 0.233574
vt 0.471107 0.225625
vt 0.471107 0.217676
vt 0.471107 0.209728
vt 0.471107 0.201779
vt 0.471107 0.209728
vt 0.471107 0.217676
vt 0.471107 0.225625
vt 0.471107 0.233574
vt 0.471107 0.225625
vt 0.471107 0.217676
vt 0.471107 0.209728
vt 0.471107 0.201779
vt 0.471107 0.209728
vt 0.471107 0.217676
vt 0.471107 0.225625
vt 0.471107 0.233574
vt 0.479056 0.233574
vt 0.479056 0.225625
vt 0.479056 0.217676
vt 0.479056 0.209728
vt 0.479056 0.201779
vt 0.479056 0.209728
vt 0.479056 0.217676
vt 0.479056 0.225625
vt 0.479056 0.233574
vt 0.479056 0.225625
vt 0.479056 0.217676
vt 0.479056 0.209728
vt 0.479056 0.201779
vt 0.479056 0.209728
vt 0.479056 0.217676
vt 0.479056 0.225625
vt 0.479056 0.233574
vt 0.487005 0.233574
vt 0.487005 0.225625
vt 0.487005 0.217676
vt 0.487005 0.209728
vt 0.487005 0.201779
vt 0.487005 0.209728
vt 0.487005 0.217676
vt 0.487005 0.225625
vt 0.487005 0.233574
vt 0.487005 0.225625
vt 0.487005 0.217676
vt 0.487005 0.209728
vt 0.487005 0.201779
vt 0.487005 0.209728
vt 0.487005 0.217676
vt 0.487005 0.225625
vt 0.487005 0.233574
vt 0.455209 0.229600
vt 0.455209 0.221651
vt 0.455209 0.213702
vt 0.455209 0.205753
vt 0.455209 0.205753
vt 0.455209 0.213702
vt 0.455209 0.221651
vt 0.455209 0.229600
vt 0.455209 0.229600
vt 0.455209 0.221651
vt 0.455209 0.213702
vt 0.455209 0.205753
vt 0.455209 0.205753
vt 0.455209 0.213702
vt 0.455209 0.221651
vt 0.455209 0.229600
vn 0.220311 -0.971152 -0.091256
vn 0.168619 -0.971152 -0.168619
vn 0.279594 -0.918507 -0.279594
vn 0.365307 -0.918507 -0.151315
vn 0.091256 -0.971152 -0.220311
vn 0.151315 -0.918507 -0.365307
vn 0.000000 -0.971152 -0.238463
vn 0.000000 -0.918507 -0.395406
vn -0.091256 -0.971152 -0.220311
vn -0.151315 -0.918507 -0.365307
vn -0.168619 -0.971152 -0.168619
vn -0.279594 -0.918507 -0.279594
vn -0.220311 -0.971152 -0.091256
vn -0.365307 -0.918507 -0.151315
vn -0.238463 -0.971152 0.000000
vn -0.395406 -0.918507 0.000000
vn -0.220311 -0.971152 0.091256
vn -0.365307 -0.918507 0.151315
vn -0.168619 -0.971152 0.168619
vn -0.279594 -0.918507 0.279594
vn -0.091256 -0.971152 0.220311
vn -0.151315 -0.918507 0.365307
vn -0.000000 -0.971152 0.238463
vn -0.000000 -0.918507 0.395406
vn 0.091256 -0.971152 0.220311
vn 0.151315 -0.918507 0.365307
vn 0.168619 -0.971152 0.168619
vn 0.279594 -0.918507 0.279594
vn 0.220311 -0.971152 0.091256
vn 0.365307 -0.918507 0.151315
vn 0.238463 -0.971152 0.000000
vn 0.395406 -0.918507 0.000000
vn 0.420455 -0.804012 -0.420455
vn 0.549351 -0.804012 -0.227548
vn 0.227549 -0.804012 -0.549351
vn 0.000000 -0.804012 -0.594613
vn -0.227548 -0.804012 -0.549351
vn -0.420454 -0.804012 -0.420455
vn -0.549351 -0.804012 -0.227549
vn -0.594613 -0.804012 0.000000
vn -0.549351 -0.804012 0.227548
vn -0.420455 -0.804012 0.420455
vn -0.227549 -0.804012 0.549351
vn -0.000000 -0.804012 0.594613
vn 0.227548 -0.804012 0.549351
vn 0.420455 -0.804012 0.420455
vn 0.549350 -0.804012 0.227548
vn 0.594613 -0.804012 0.000000
vn 0.483999 -0.729034 -0.483999
vn 0.632375 -0.729034 -0.261938
vn 0.261939 -0.729034 -0.632375
vn 0.000000 -0.729033 -0.684478
vn -0.261938 -0.729033 -0.632376
vn -0.483999 -0.729033 -0.483999
vn -0.632375 -0.729033 -0.261939
vn -0.684478 -0.729034 0.000000
vn -0.632375 -0.729034 0.261938
vn -0.483999 -0.729033 0.483999
vn -0.261939 -0.729033 0.632375
vn -0.000000 -0.729034 0.684478
vn 0.261938 -0.729034 0.632375
vn 0.483999 -0.729034 0.483999
vn 0.632375 -0.729034 0.261938
vn 0.684478 -0.729034 0.000000
vn -0.000000 -1.000000 -0.000000
f 1/1/1 2/2/2 18/19/3 17/18/4
f 2/2/2 3/3/5 19/20/6 18/19/3
f 3/3/5 4/4/7 20/21/8 19/20/6
f 4/4/7 5/5/9 21/22/10 20/21/8
f 5/5/9 6/6/11 22/23/12 21/22/10
f 6/6/11 7/7/13 23/24/14 22/23/12
f 7/7/13 8/8/15 24/25/16 23/24/14
f 8/8/15 9/9/17 25/26/18 24/25/16
f 9/9/17 10/10/19 26/27/20 25/26/18
f 10/10/19 11/11/21 27/28/22 26/27/20
f 11/11/21 12/12/23 28/29/24 27/28/22
f 12/12/23 13/13/25 29/30/26 28/29/24
f 13/13/25 14/14/27 30/31/28 29/30/26
f 14/14/27 15/15/29 31/32/30 30/31/28
f 15/15/29 16/16/31 32/33/32 31/32/30
f 16/16/31 1/17/1 17/34/4 32/33/32
f 17/18/4 18/19/3 34/36/33 33/35/34
f 18/19/3 19/20/6 35/37/35 34/36/33
f 19/20/6 20/21/8 36/38/36 35/37/35
f 20/21/8 21/22/10 37/39/37 36/38/36
f 21/22/10 22/23/12 38/40/38 37/39/37
f 22/23/12 23/24/14 39/41/39 38/40/38
f 23/24/14 24/25/16 40/42/40 39/41/39
f 24/25/16 25/26/18 41/43/41 40/42/40
f 25/26/18 26/27/20 42/44/42 41/43/41
f 26/27/20 27/28/22 43/45/43 42/44/42
f 27/28/22 28/29/24 44/46/44 43/45/43
f 28/29/24 29/30/26 45/47/45 44/46/44
f 29/30/26 30/31/28 46/48/46 45/47/45
f 30/31/28 31/32/30 47/49/47 46/48/46
f 31/32/30 32/33/32 48/50/48 47/49/47
f 32/33/32 17/34/4 33/51/34 48/50/48
f 33/35/34 34/36/33 50/53/49 49/52/50
f 34/36/33 35/37/35 51/54/51 50/53/49
f 35/37/35 36/38/36 52/55/52 51/54/51
f 36/38/36 37/39/37 53/56/53 52/55/52
f 37/39/37 38/40/38 54/57/54 53/56/53
f 38/40/38 39/41/39 55/58/55 54/57/54
f 39/41/39 40/42/40 56/59/56 55/58/55
f 40/42/40 41/43/41 57/60/57 56/59/56
f 41/43/41 42/44/42 58/61/58 57/60/57
f 42/44/42 43/45/43 59/62/59 58/61/58
f 43/45/43 44/46/44 60/63/60 59/62/59
f 44/46/44 45/47/45 61/64/61 60/63/60
f 45/47/45 46/48/46 62/65/62 61/64/61
f 46/48/46 47/49/47 63/66/63 62/65/62
f 47/49/47 48/50/48 64/67/64 63/66/63
f 48/50/48 33/51/34 49/68/50 64/67/64
f 2/2/2 1/1/1 65/69/65
f 3/3/5 2/2/2 65/70/65
f 4/4/7 3/3/5 65/71/65
f 5/5/9 4/4/7 65/72/65
f 6/6/11 5/5/9 65/73/65
f 7/7/13 6/6/11 65/74/65
f 8/8/15 7/7/13 65/75/65
f 9/9/17 8/8/15 65/76/65
f 10/10/19 9/9/17 65/77/65
f 11/11/21 10/10/19 65/78/65
f 12/12/23 11/11/21 65/79/65
f 13/13/25 12/12/23 65/80/65
f 14/14/27 13/13/25 65/81/65
f 15/15/29 14/14/27 65/82/65
f 16/16/31 15/15/29 65/83/65
f 1/17/1 16/16/31 65/84/65
