# This file uses meters as units for non-parametric coordinates.

v 3.593372 -68.464760 -2.074634
v 2.074634 -68.464760 -3.593372
v 0.000000 -68.464760 -4.149268
v -2.074634 -68.464760 -3.593372
v -3.593372 -68.464760 -2.074634
v -4.149268 -68.464760 0.000000
v -3.593372 -68.464760 2.074634
v -2.074634 -68.464760 3.593372
v 0.000000 -68.464760 4.149268
v 2.074634 -68.464760 3.593372
v 3.593372 -68.464760 2.074634
v 4.149268 -68.464760 0.000000
v 8.341119 -67.109075 -4.815747
v 4.815747 -67.109075 -8.341119
v 0.000000 -67.109075 -9.631495
v -4.815747 -67.109075 -8.341119
v -8.341119 -67.109075 -4.815747
v -9.631495 -67.109075 0.000000
v -8.341119 -67.109075 4.815747
v -4.815747 -67.109075 8.341119
v 0.000000 -67.109075 9.631495
v 4.815747 -67.109075 8.341119
v 8.341119 -67.109075 4.815747
v 9.631495 -67.109075 0.000000
v 13.552609 -62.013734 -7.824602
v 7.824602 -62.013734 -13.552609
v 0.000000 -62.013734 -15.649204
v -7.824602 -62.013734 -13.552609
v -13.552609 -62.013734 -7.824602
v -15.649204 -62.013734 0.000000
v -13.552609 -62.013734 7.824602
v -7.824602 -62.013734 13.552609
v 0.000000 -62.013734 15.649204
v 7.824602 -62.013734 13.552609
v 13.552609 -62.013734 7.824602
v 15.649204 -62.013734 0.000000
v 14.453646 -56.801076 -8.344817
v 8.344817 -56.801076 -14.453646
v 0.000000 -56.801076 -16.689633
v -8.344817 -56.801076 -14.453646
v -14.453646 -56.801076 -8.344817
v -16.689633 -56.801076 0.000000
v -14.453646 -56.801076 8.344817
v -8.344817 -56.801076 14.453646
v 0.000000 -56.801076 16.689633
v 8.344817 -56.801076 14.453646
v 14.453646 -56.801076 8.344817
v 16.689633 -56.801076 0.000000
v 13.289888 -51.588418 -7.672920
v 7.672920 -51.588418 -13.289888
v 0.000000 -51.588418 -15.345841
v -7.672920 -51.588418 -13.289888
v -13.289888 -51.588418 -7.672920
v -15.345841 -51.588418 0.000000
v -13.289888 -51.588418 7.672920
v -7.672920 -51.588418 13.289888
v 0.000000 -51.588418 15.345841
v 7.672920 -51.588418 13.289888
v 13.289888 -51.588418 7.672920
v 15.345841 -51.588418 0.000000
v 6.941861 -47.772487 -4.007885
v 4.007885 -47.772487 -6.941861
v 0.000000 -47.772487 -8.015771
v -4.007885 -47.772487 -6.941861
v -6.941861 -47.772487 -4.007885
v -8.015771 -47.772487 0.000000
v -6.941861 -47.772487 4.007885
v -4.007885 -47.772487 6.941861
v 0.000000 -47.772487 8.015771
v 4.007885 -47.772487 6.941861
v 6.941861 -47.772487 4.007885
v 8.015771 -47.772487 0.000000
v 3.593372 -46.730994 -2.074634
v 2.074634 -46.730994 -3.593372
v 0.000000 -46.730994 -4.149268
v -2.074634 -46.730994 -3.593372
v -3.593372 -46.730994 -2.074634
v -4.149268 -46.730994 0.000000
v -3.593372 -46.730994 2.074634
v -2.074634 -46.730994 3.593372
v 0.000000 -46.730994 4.149268
v 2.074634 -46.730994 3.593372
v 3.593372 -46.730994 2.074634
v 4.149268 -46.730994 0.000000
v 0.000000 -68.819994 0.000000
v 0.000000 -46.375760 0.000000
v 7.110212 -62.271146 12.315251
v 0.000000 -62.271146 14.220425
v -7.110212 -62.271146 12.315251
v -12.315251 -62.271146 7.110212
v -14.220425 -62.271146 0.000000
v -12.315251 -62.271146 -7.110212
v -7.110212 -62.271146 -12.315251
v 0.000000 -62.271146 -14.220425
v 7.110212 -62.271146 -12.315251
v 12.315251 -62.271146 -7.110212
v 14.220425 -62.271146 0.000000
v 12.315251 -62.271146 7.110212
vt 0.483572 0.201977
vt 0.483572 0.214328
vt 0.483572 0.226679
vt 0.483572 0.239030
vt 0.483572 0.226546
vt 0.483572 0.214062
vt 0.483572 0.201578
vt 0.483572 0.214062
vt 0.483572 0.226546
vt 0.483572 0.239030
vt 0.483572 0.226679
vt 0.483572 0.214328
vt 0.483572 0.201977
vt 0.476392 0.201977
vt 0.476392 0.214328
vt 0.476392 0.226679
vt 0.476392 0.239030
vt 0.476392 0.226546
vt 0.476392 0.214062
vt 0.476392 0.201578
vt 0.476392 0.214062
vt 0.476392 0.226546
vt 0.476392 0.239030
vt 0.476392 0.226679
vt 0.476392 0.214328
vt 0.476392 0.201977
vt 0.462034 0.201977
vt 0.462034 0.214328
vt 0.462034 0.226679
vt 0.462034 0.239030
vt 0.462034 0.226546
vt 0.462034 0.214062
vt 0.462034 0.201578
vt 0.462034 0.214062
vt 0.462034 0.226546
vt 0.462034 0.239030
vt 0.462034 0.226679
vt 0.462034 0.214328
vt 0.462034 0.201977
vt 0.447676 0.201977
vt 0.447676 0.214328
vt 0.447676 0.226679
vt 0.447676 0.239030
vt 0.447676 0.226546
vt 0.447676 0.214062
vt 0.447676 0.201578
vt 0.447676 0.214062
vt 0.447676 0.226546
vt 0.447676 0.239030
vt 0.447676 0.226679
vt 0.447676 0.214328
vt 0.447676 0.201977
vt 0.462189 0.201977
vt 0.462189 0.214328
vt 0.462189 0.226679
vt 0.462189 0.239030
vt 0.462189 0.226546
vt 0.462189 0.214062
vt 0.462189 0.201578
vt 0.462189 0.214062
vt 0.462189 0.226546
vt 0.462189 0.239030
vt 0.462189 0.226679
vt 0.462189 0.214328
vt 0.462189 0.201977
vt 0.476701 0.201977
vt 0.476701 0.214328
vt 0.476701 0.226679
vt 0.476701 0.239030
vt 0.476701 0.226546
vt 0.476701 0.214062
vt 0.476701 0.201578
vt 0.476701 0.214062
vt 0.476701 0.226546
vt 0.476701 0.239030
vt 0.476701 0.226679
vt 0.476701 0.214328
vt 0.476701 0.201977
vt 0.483958 0.201977
vt 0.483958 0.214328
vt 0.483958 0.226679
vt 0.483958 0.239030
vt 0.483958 0.226546
vt 0.483958 0.214062
vt 0.483958 0.201578
vt 0.483958 0.214062
vt 0.483958 0.226546
vt 0.483958 0.239030
vt 0.483958 0.226679
vt 0.483958 0.214328
vt 0.483958 0.201977
vt 0.490751 0.208152
vt 0.490751 0.220503
vt 0.490751 0.232855
vt 0.490751 0.232788
vt 0.490751 0.220304
vt 0.490751 0.207820
vt 0.490751 0.207820
vt 0.490751 0.220304
vt 0.490751 0.232788
vt 0.490751 0.232855
vt 0.490751 0.220503
vt 0.490751 0.208152
vt 0.491214 0.208152
vt 0.491214 0.220503
vt 0.491214 0.232855
vt 0.491214 0.232788
vt 0.491214 0.220304
vt 0.491214 0.207820
vt 0.491214 0.207820
vt 0.491214 0.220304
vt 0.491214 0.232788
vt 0.491214 0.232855
vt 0.491214 0.220503
vt 0.491214 0.208152
vt 0.464730 0.239030
vt 0.464730 0.226546
vt 0.464730 0.214062
vt 0.464730 0.201578
vt 0.464730 0.214062
vt 0.464730 0.226546
vt 0.464730 0.239030
vt 0.464730 0.226679
vt 0.464730 0.214328
vt 0.464730 0.201977
vt 0.464730 0.201977
vt 0.464730 0.214328
vt 0.464730 0.226679
vn 0.189648 -0.975728 -0.109493
vn 0.109493 -0.975728 -0.189648
vn 0.305680 -0.791353 -0.529452
vn 0.529452 -0.791353 -0.305679
vn -0.000000 -0.975728 -0.218986
vn 0.000000 -0.791353 -0.611359
vn -0.109493 -0.975728 -0.189647
vn -0.305680 -0.791353 -0.529452
vn -0.189648 -0.975728 -0.109493
vn -0.529452 -0.791353 -0.305680
vn -0.218986 -0.975728 0.000000
vn -0.611359 -0.791353 -0.000000
vn -0.189648 -0.975728 0.109493
vn -0.529453 -0.791353 0.305679
vn -0.109493 -0.975728 0.189648
vn -0.305680 -0.791353 0.529452
vn 0.000000 -0.975728 0.218986
vn 0.000000 -0.791353 0.611359
vn 0.109493 -0.975728 0.189647
vn 0.305680 -0.791353 0.529452
vn 0.189648 -0.975728 0.109493
vn 0.529452 -0.791353 0.305680
vn 0.218986 -0.975728 0.000000
vn 0.611359 -0.791353 0.000000
vn 0.362765 -0.688189 -0.628328
vn 0.628328 -0.688189 -0.362765
vn 0.000000 -0.688189 -0.725531
vn -0.362765 -0.688190 -0.628328
vn -0.628328 -0.688189 -0.362765
vn -0.725531 -0.688189 -0.000000
vn -0.628328 -0.688189 0.362765
vn -0.362765 -0.688189 0.628328
vn 0.000000 -0.688189 0.725531
vn 0.362765 -0.688190 0.628328
vn 0.628328 -0.688189 0.362765
vn 0.725531 -0.688189 0.000000
vn 0.465355 -0.365757 -0.806019
vn 0.499814 0.027303 -0.865703
vn 0.865703 0.027303 -0.499814
vn 0.806019 -0.365757 -0.465355
vn 0.000000 -0.365756 -0.930711
vn 0.000000 0.027303 -0.999627
vn -0.465355 -0.365757 -0.806019
vn -0.499814 0.027303 -0.865703
vn -0.806019 -0.365757 -0.465355
vn -0.865703 0.027303 -0.499814
vn -0.930711 -0.365756 0.000000
vn -0.999627 0.027303 0.000000
vn -0.806019 -0.365757 0.465355
vn -0.865703 0.027303 0.499814
vn -0.465355 -0.365757 0.806019
vn -0.499814 0.027303 0.865703
vn 0.000000 -0.365756 0.930711
vn 0.000000 0.027303 0.999627
vn 0.465355 -0.365757 0.806019
vn 0.499814 0.027303 0.865703
vn 0.806019 -0.365757 0.465355
vn 0.865703 0.027303 0.499814
vn 0.930711 -0.365756 -0.000000
vn 0.999627 0.027303 0.000000
vn 0.395053 0.612970 -0.684252
vn 0.684252 0.612970 -0.395053
vn 0.000000 0.612970 -0.790106
vn -0.395053 0.612970 -0.684252
vn -0.684252 0.612970 -0.395053
vn -0.790106 0.612970 0.000000
vn -0.684252 0.612970 0.395053
vn -0.395053 0.612970 0.684252
vn 0.000000 0.612970 0.790106
vn 0.395053 0.612970 0.684252
vn 0.684252 0.612970 0.395053
vn 0.790106 0.612970 0.000000
vn 0.215525 0.902328 -0.373300
vn 0.373300 0.902328 -0.215525
vn 0.000000 0.902328 -0.431050
vn -0.215525 0.902328 -0.373300
vn -0.373300 0.902328 -0.215525
vn -0.431050 0.902328 0.000000
vn -0.373300 0.902328 0.215525
vn -0.215525 0.902328 0.373300
vn 0.000000 0.902328 0.431050
vn 0.215525 0.902328 0.373300
vn 0.373300 0.902328 0.215525
vn 0.431050 0.902328 0.000000
vn 0.112485 0.974366 -0.194829
vn 0.194829 0.974366 -0.112485
vn 0.000000 0.974366 -0.224969
vn -0.112485 0.974366 -0.194829
vn -0.194829 0.974366 -0.112485
vn -0.224969 0.974366 0.000000
vn -0.194829 0.974366 0.112485
vn -0.112485 0.974366 0.194829
vn 0.000000 0.974366 0.224969
vn 0.112485 0.974366 0.194829
vn 0.194829 0.974366 0.112485
vn 0.224969 0.974366 0.000000
vn 0.000000 -1.000000 -0.000000
vn 0.000000 1.000000 -0.000000
vn 0.088654 -0.984155 0.153553
vn 0.000000 -0.984155 0.177308
vn -0.088654 -0.984155 0.153553
vn -0.153553 -0.984155 0.088654
vn -0.177308 -0.984155 0.000000
vn -0.153553 -0.984155 -0.088654
vn -0.088654 -0.984155 -0.153553
vn 0.000000 -0.984155 -0.177308
vn 0.088654 -0.984155 -0.153553
vn 0.153553 -0.984155 -0.088654
vn 0.177308 -0.984155 -0.000000
vn 0.153553 -0.984155 0.088654
f 1/1/1 2/2/2 14/15/3 13/14/4
f 2/2/2 3/3/5 15/16/6 14/15/3
f 3/3/5 4/4/7 16/17/8 15/16/6
f 4/4/7 5/5/9 17/18/10 16/17/8
f 5/5/9 6/6/11 18/19/12 17/18/10
f 6/6/11 7/7/13 19/20/14 18/19/12
f 7/7/13 8/8/15 20/21/16 19/20/14
f 8/8/15 9/9/17 21/22/18 20/21/16
f 9/9/17 10/10/19 22/23/20 21/22/18
f 10/10/19 11/11/21 23/24/22 22/23/20
f 11/11/21 12/12/23 24/25/24 23/24/22
f 12/12/23 1/13/1 13/26/4 24/25/24
f 14/15/3 95/124/25 96/126/26 13/14/4
f 15/16/6 94/123/27 95/124/25 14/15/3
f 16/17/8 93/122/28 94/123/27 15/16/6
f 17/18/10 92/121/29 93/122/28 16/17/8
f 18/19/12 91/120/30 92/121/29 17/18/10
f 19/20/14 90/119/31 91/120/30 18/19/12
f 20/21/16 89/118/32 90/119/31 19/20/14
f 21/22/18 88/117/33 89/118/32 20/21/16
f 22/23/20 87/116/34 88/117/33 21/22/18
f 23/24/22 98/128/35 87/116/34 22/23/20
f 24/25/24 97/127/36 98/128/35 23/24/22
f 13/26/4 96/125/26 97/127/36 24/25/24
f 26/28/37 38/41/38 37/40/39 25/27/40
f 27/29/41 39/42/42 38/41/38 26/28/37
f 28/30/43 40/43/44 39/42/42 27/29/41
f 29/31/45 41/44/46 40/43/44 28/30/43
f 30/32/47 42/45/48 41/44/46 29/31/45
f 31/33/49 43/46/50 42/45/48 30/32/47
f 32/34/51 44/47/52 43/46/50 31/33/49
f 33/35/53 45/48/54 44/47/52 32/34/51
f 34/36/55 46/49/56 45/48/54 33/35/53
f 35/37/57 47/50/58 46/49/56 34/36/55
f 36/38/59 48/51/60 47/50/58 35/37/57
f 25/39/40 37/52/39 48/51/60 36/38/59
f 38/41/38 50/54/61 49/53/62 37/40/39
f 39/42/42 51/55/63 50/54/61 38/41/38
f 40/43/44 52/56/64 51/55/63 39/42/42
f 41/44/46 53/57/65 52/56/64 40/43/44
f 42/45/48 54/58/66 53/57/65 41/44/46
f 43/46/50 55/59/67 54/58/66 42/45/48
f 44/47/52 56/60/68 55/59/67 43/46/50
f 45/48/54 57/61/69 56/60/68 44/47/52
f 46/49/56 58/62/70 57/61/69 45/48/54
f 47/50/58 59/63/71 58/62/70 46/49/56
f 48/51/60 60/64/72 59/63/71 47/50/58
f 37/52/39 49/65/62 60/64/72 48/51/60
f 50/54/61 62/67/73 61/66/74 49/53/62
f 51/55/63 63/68/75 62/67/73 50/54/61
f 52/56/64 64/69/76 63/68/75 51/55/63
f 53/57/65 65/70/77 64/69/76 52/56/64
f 54/58/66 66/71/78 65/70/77 53/57/65
f 55/59/67 67/72/79 66/71/78 54/58/66
f 56/60/68 68/73/80 67/72/79 55/59/67
f 57/61/69 69/74/81 68/73/80 56/60/68
f 58/62/70 70/75/82 69/74/81 57/61/69
f 59/63/71 71/76/83 70/75/82 58/62/70
f 60/64/72 72/77/84 71/76/83 59/63/71
f 49/65/62 61/78/74 72/77/84 60/64/72
f 61/66/74 62/67/73 74/80/85 73/79/86
f 62/67/73 63/68/75 75/81/87 74/80/85
f 63/68/75 64/69/76 76/82/88 75/81/87
f 64/69/76 65/70/77 77/83/89 76/82/88
f 65/70/77 66/71/78 78/84/90 77/83/89
f 66/71/78 67/72/79 79/85/91 78/84/90
f 67/72/79 68/73/80 80/86/92 79/85/91
f 68/73/80 69/74/81 81/87/93 80/86/92
f 69/74/81 70/75/82 82/88/94 81/87/93
f 70/75/82 71/76/83 83/89/95 82/88/94
f 71/76/83 72/77/84 84/90/96 83/89/95
f 72/77/84 61/78/74 73/91/86 84/90/96
f 2/2/2 1/1/1 85/92/97
f 3/3/5 2/2/2 85/93/97
f 4/4/7 3/3/5 85/94/97
f 5/5/9 4/4/7 85/95/97
f 6/6/11 5/5/9 85/96/97
f 7/7/13 6/6/11 85/97/97
f 8/8/15 7/7/13 85/98/97
f 9/9/17 8/8/15 85/99/97
f 10/10/19 9/9/17 85/100/97
f 11/11/21 10/10/19 85/101/97
f 12/12/23 11/11/21 85/102/97
f 1/13/1 12/12/23 85/103/97
f 73/79/86 74/80/85 86/104/98
f 74/80/85 75/81/87 86/105/98
f 75/81/87 76/82/88 86/106/98
f 76/82/88 77/83/89 86/107/98
f 77/83/89 78/84/90 86/108/98
f 78/84/90 79/85/91 86/109/98
f 79/85/91 80/86/92 86/110/98
f 80/86/92 81/87/93 86/111/98
f 81/87/93 82/88/94 86/112/98
f 82/88/94 83/89/95 86/113/98
f 83/89/95 84/90/96 86/114/98
f 84/90/96 73/91/86 86/115/98
f 87/116/99 34/36/55 33/35/53 88/117/100
f 89/118/101 88/117/100 33/35/53 32/34/51
f 90/119/102 89/118/101 32/34/51 31/33/49
f 91/120/103 90/119/102 31/33/49 30/32/47
f 92/121/104 91/120/103 30/32/47 29/31/45
f 93/122/105 92/121/104 29/31/45 28/30/43
f 94/123/106 93/122/105 28/30/43 27/29/41
f 95/124/107 94/123/106 27/29/41 26/28/37
f 96/126/108 95/124/107 26/28/37 25/27/40
f 97/127/109 96/125/108 25/39/40 36/38/59
f 98/128/110 97/127/109 36/38/59 35/37/57
f 87/116/99 98/128/110 35/37/57 34/36/55
