# This file uses meters as units for non-parametric coordinates.

v -142.236588 0.000000 63.711514
v -141.560729 0.675859 62.886800
v -141.560736 117.205363 39.538468
v -142.236597 117.338125 40.201160
v -146.066911 0.675859 62.886800
v -145.391053 0.000000 63.711514
v -146.066911 117.205363 39.538468
v -145.391053 117.338125 40.201160
v -146.066911 0.675859 53.132931
v -145.391053 0.000000 52.579066
v -146.066911 117.470909 29.731404
v -145.391053 117.338125 29.068712
v -141.560729 0.675859 53.132931
v -142.236588 0.000000 52.579066
v -142.236597 117.338125 29.068712
v -141.560736 117.470909 29.731404
v -146.066911 234.000386 16.136927
v -145.391053 234.676251 16.690806
v -145.391053 234.676251 5.558358
v -146.066911 234.000386 6.383071
v -142.236597 234.676236 16.690806
v -141.560736 234.000371 16.136927
v -141.560736 234.000371 6.383071
v -142.236597 234.676236 5.558358
v -141.560734 213.727972 19.775320
v -95.763346 213.727972 19.775320
v -141.560734 216.605307 19.775320
v -95.763346 216.605307 19.775320
v -141.560734 216.605307 9.983740
v -95.763346 216.605307 9.983740
v -141.560734 213.727972 9.983740
v -95.763346 213.727972 9.983740
v -141.560734 176.111420 27.200454
v -95.763346 176.111420 27.200454
v -141.560734 178.988741 27.200454
v -95.763346 178.988741 27.200454
v -141.560734 178.988741 17.408874
v -95.763346 178.988741 17.408874
v -141.560734 176.111420 17.408874
v -95.763346 176.111420 17.408874
v -141.560734 138.494839 34.365042
v -95.763346 138.494839 34.365042
v -141.560734 141.372160 34.365042
v -95.763346 141.372160 34.365042
v -141.560734 141.372160 24.573462
v -95.763346 141.372160 24.573462
v -141.560734 138.494839 24.573462
v -95.763346 138.494839 24.573462
v -141.560734 100.878273 42.368463
v -95.763346 100.878273 42.368463
v -141.560734 103.755587 42.368463
v -95.763346 103.755587 42.368463
v -141.560734 103.755587 32.576883
v -95.763346 103.755587 32.576883
v -141.560734 100.878273 32.576883
v -95.763346 100.878273 32.576883
v -141.560734 63.261707 49.730358
v -95.763346 63.261707 49.730358
v -141.560734 66.139028 49.730358
v -95.763346 66.139028 49.730358
v -141.560734 66.139028 39.938778
v -95.763346 66.139028 39.938778
v -141.560734 63.261707 39.938778
v -95.763346 63.261707 39.938778
v -141.560734 25.645146 57.589509
v -95.763346 25.645146 57.589509
v -141.560734 28.522465 57.589509
v -95.763346 28.522465 57.589509
v -141.560734 28.522465 47.797943
v -95.763346 28.522465 47.797943
v -141.560734 25.645146 47.797943
v -95.763346 25.645146 47.797943
v -95.087492 0.000000 63.711514
v -95.763351 0.675859 62.886800
v -95.763344 117.205363 39.538468
v -95.087483 117.338125 40.201160
v -91.257169 0.675859 62.886800
v -91.933027 0.000000 63.711514
v -91.257169 117.205363 39.538468
v -91.933027 117.338125 40.201160
v -91.257169 0.675859 53.132931
v -91.933027 0.000000 52.579066
v -91.257169 117.470909 29.731404
v -91.933027 117.338125 29.068712
v -95.763351 0.675859 53.132931
v -95.087492 0.000000 52.579066
v -95.087483 117.338125 29.068712
v -95.763344 117.470909 29.731404
v -91.257169 234.000386 16.136927
v -91.933027 234.676251 16.690806
v -91.933027 234.676251 5.558358
v -91.257169 234.000386 6.383071
v -95.087483 234.676236 16.690806
v -95.763344 234.000371 16.136927
v -95.763344 234.000371 6.383071
v -95.087483 234.676236 5.558358
vt 0.350159 0.759015
vt 0.350159 0.773219
vt 0.350281 0.759015
vt 0.367922 0.759015
vt 0.367922 0.759015
vt 0.350159 0.759015
vt 0.350261 0.774691
vt 0.350261 0.774691
vt 0.350159 0.761521
vt 0.350261 0.774691
vt 0.350261 0.774691
vt 0.350159 0.775726
vt 0.350159 0.775726
vt 0.350159 0.759015
vt 0.350159 0.761521
vt 0.350159 0.759015
vt 0.350159 0.761521
vt 0.367922 0.773219
vt 0.350261 0.760050
vt 0.367902 0.760050
vt 0.350159 0.761521
vt 0.367922 0.773219
vt 0.350261 0.760050
vt 0.367902 0.760050
vt 0.350159 0.761521
vt 0.350159 0.773219
vt 0.350159 0.761521
vt 0.350159 0.773219
vt 0.350159 0.773219
vt 0.367902 0.774691
vt 0.350261 0.760050
vt 0.350159 0.773219
vt 0.367922 0.761521
vt 0.350261 0.760050
vt 0.367902 0.774691
vt 0.350159 0.773219
vt 0.367922 0.761521
vt 0.350159 0.759015
vt 0.367922 0.759015
vt 0.367922 0.775726
vt 0.350159 0.775726
vt 0.367922 0.759015
vt 0.350159 0.759015
vt 0.367922 0.775726
vt 0.350159 0.775726
vt 0.367922 0.759015
vt 0.350159 0.759015
vt 0.350159 0.759015
vt 0.367922 0.759015
vt 0.367922 0.775726
vt 0.350159 0.775726
vt 0.367922 0.759015
vt 0.350159 0.759015
vt 0.367922 0.775726
vt 0.350159 0.775726
vt 0.367922 0.759015
vt 0.350159 0.759015
vt 0.350159 0.759015
vt 0.367922 0.759015
vt 0.367922 0.775726
vt 0.350159 0.775726
vt 0.367922 0.759015
vt 0.350159 0.759015
vt 0.367922 0.775726
vt 0.350159 0.775726
vt 0.367922 0.759015
vt 0.350159 0.759015
vt 0.350159 0.759015
vt 0.367922 0.759015
vt 0.367922 0.775726
vt 0.350159 0.775726
vt 0.367922 0.759015
vt 0.350159 0.759015
vt 0.367922 0.775726
vt 0.350159 0.775726
vt 0.367922 0.759015
vt 0.350159 0.759015
vt 0.350159 0.759015
vt 0.367922 0.759015
vt 0.367922 0.775726
vt 0.350159 0.775726
vt 0.367922 0.759015
vt 0.350159 0.759015
vt 0.367922 0.775726
vt 0.350159 0.775726
vt 0.367922 0.759015
vt 0.350159 0.759015
vt 0.350159 0.759015
vt 0.367922 0.759015
vt 0.367922 0.775726
vt 0.350159 0.775726
vt 0.367922 0.759015
vt 0.350159 0.759015
vt 0.367922 0.775726
vt 0.350159 0.775726
vt 0.367922 0.759015
vt 0.350159 0.759015
vt 0.350159 0.759015
vt 0.350261 0.760050
vt 0.350261 0.774691
vt 0.350159 0.773219
vt 0.350281 0.759015
vt 0.350159 0.761521
vt 0.367922 0.761521
vt 0.367922 0.759015
vt 0.367902 0.760050
vt 0.367922 0.759015
vt 0.350159 0.759015
vt 0.350261 0.760050
vt 0.350261 0.774691
vt 0.350159 0.773219
vt 0.350159 0.761521
vt 0.350261 0.760050
vt 0.367902 0.774691
vt 0.367922 0.773219
vt 0.350261 0.774691
vt 0.350159 0.773219
vt 0.367922 0.761521
vt 0.367902 0.760050
vt 0.350159 0.761521
vt 0.350261 0.760050
vt 0.367902 0.774691
vt 0.367922 0.773219
vt 0.350261 0.774691
vt 0.350159 0.773219
vt 0.350159 0.775726
vt 0.350159 0.775726
vt 0.350159 0.773219
vt 0.350159 0.759015
vt 0.350159 0.761521
vt 0.350159 0.761521
vt 0.350159 0.759015
vt 0.350159 0.761521
vt 0.350159 0.773219
vn 0.707106 -0.707108 0.000000
vn 0.707106 -0.707108 0.000000
vn 0.707106 -0.707108 0.000000
vn 0.707106 -0.707108 0.000000
vn 0.707107 0.138918 0.693327
vn 0.707107 0.138918 0.693327
vn 0.707107 0.138918 0.693327
vn 0.707107 0.138918 0.693327
vn 0.707107 0.138918 0.693327
vn 0.707107 0.138918 0.693327
vn -0.707106 -0.707108 0.000000
vn -0.707106 -0.707108 0.000000
vn -0.707106 -0.707108 0.000000
vn -0.707106 -0.707108 0.000000
vn -0.707108 0.138917 0.693325
vn -0.707112 0.138917 0.693321
vn -0.707112 0.138917 0.693321
vn -0.707108 0.138917 0.693325
vn -0.707116 0.138916 0.693317
vn -0.707116 0.138916 0.693317
vn -0.707101 -0.138919 -0.693332
vn -0.707106 -0.138918 -0.693327
vn -0.707106 -0.138918 -0.693327
vn -0.707101 -0.138919 -0.693332
vn -0.707111 -0.138917 -0.693323
vn -0.707111 -0.138917 -0.693323
vn 0.707100 -0.138919 -0.693334
vn 0.707108 -0.138917 -0.693325
vn 0.707108 -0.138917 -0.693325
vn 0.707100 -0.138919 -0.693334
vn 0.707117 -0.138916 -0.693317
vn 0.707117 -0.138916 -0.693317
vn -0.707111 0.707102 0.000000
vn -0.707111 0.707102 0.000000
vn -0.707112 0.707102 0.000000
vn -0.707112 0.707102 0.000000
vn 0.707110 0.707103 0.000000
vn 0.707110 0.707103 0.000000
vn 0.707110 0.707103 0.000000
vn 0.707110 0.707103 0.000000
vn 0.000000 0.196459 0.980512
vn 0.000002 0.196459 0.980512
vn 0.000002 0.196459 0.980512
vn 0.000000 0.196459 0.980512
vn -1.000000 0.000000 0.000000
vn -1.000000 0.000000 0.000000
vn -1.000000 0.000000 0.000000
vn -1.000000 0.000000 0.000000
vn 0.000000 -0.196459 -0.980512
vn -0.000002 -0.196459 -0.980512
vn -0.000002 -0.196459 -0.980512
vn 0.000000 -0.196459 -0.980512
vn 1.000000 0.000000 0.000000
vn 1.000000 0.000000 0.000000
vn 1.000000 0.000000 0.000000
vn 1.000000 0.000000 0.000000
vn 0.000005 1.000000 0.000000
vn 0.000005 1.000000 0.000000
vn 0.000005 1.000000 0.000000
vn 0.000005 1.000000 0.000000
vn 0.000000 -1.000000 0.000000
vn 0.000000 -1.000000 0.000000
vn 0.000000 -1.000000 0.000000
vn 0.000000 -1.000000 0.000000
vn -1.000000 0.000000 0.000000
vn -1.000000 0.000000 0.000000
vn -0.000005 -0.196459 -0.980512
vn -0.000005 -0.196459 -0.980512
vn 1.000000 0.000000 0.000000
vn 1.000000 0.000000 0.000000
vn 0.000005 0.196459 0.980512
vn 0.000005 0.196459 0.980512
vn 0.000000 0.000000 1.000000
vn 0.000000 0.000000 1.000000
vn 0.000000 0.000000 1.000000
vn 0.000000 0.000000 1.000000
vn 0.000000 1.000000 0.000000
vn 0.000000 1.000000 0.000000
vn 0.000000 1.000000 0.000000
vn 0.000000 1.000000 0.000000
vn 0.000000 0.000000 -1.000000
vn 0.000000 0.000000 -1.000000
vn 0.000000 0.000000 -1.000000
vn 0.000000 0.000000 -1.000000
vn 0.000000 -1.000000 0.000000
vn 0.000000 -1.000000 0.000000
vn 0.000000 -1.000000 0.000000
vn 0.000000 -1.000000 0.000000
vn 0.000000 0.000000 1.000000
vn 0.000000 0.000000 1.000000
vn 0.000000 0.000000 1.000000
vn 0.000000 0.000000 1.000000
vn 0.000000 1.000000 0.000000
vn 0.000000 1.000000 0.000000
vn 0.000000 1.000000 0.000000
vn 0.000000 1.000000 0.000000
vn 0.000000 0.000000 -1.000000
vn 0.000000 0.000000 -1.000000
vn 0.000000 0.000000 -1.000000
vn 0.000000 0.000000 -1.000000
vn 0.000000 -1.000000 0.000000
vn 0.000000 -1.000000 0.000000
vn 0.000000 -1.000000 0.000000
vn 0.000000 -1.000000 0.000000
vn 0.000000 0.000000 1.000000
vn 0.000000 0.000000 1.000000
vn 0.000000 0.000000 1.000000
vn 0.000000 0.000000 1.000000
vn 0.000000 1.000000 0.000000
vn 0.000000 1.000000 0.000000
vn 0.000000 1.000000 0.000000
vn 0.000000 1.000000 0.000000
vn 0.000000 0.000000 -1.000000
vn 0.000000 0.000000 -1.000000
vn 0.000000 0.000000 -1.000000
vn 0.000000 0.000000 -1.000000
vn 0.000000 -1.000000 0.000000
vn 0.000000 -1.000000 0.000000
vn 0.000000 -1.000000 0.000000
vn 0.000000 -1.000000 0.000000
vn 0.000000 0.000000 1.000000
vn 0.000000 0.000000 1.000000
vn 0.000000 0.000000 1.000000
vn 0.000000 0.000000 1.000000
vn 0.000000 1.000000 0.000000
vn 0.000000 1.000000 0.000000
vn 0.000000 1.000000 0.000000
vn 0.000000 1.000000 0.000000
vn 0.000000 0.000000 -1.000000
vn 0.000000 0.000000 -1.000000
vn 0.000000 0.000000 -1.000000
vn 0.000000 0.000000 -1.000000
vn 0.000000 -1.000000 0.000000
vn 0.000000 -1.000000 0.000000
vn 0.000000 -1.000000 0.000000
vn 0.000000 -1.000000 0.000000
vn 0.000000 0.000000 1.000000
vn 0.000000 0.000000 1.000000
vn 0.000000 0.000000 1.000000
vn 0.000000 0.000000 1.000000
vn 0.000000 1.000000 0.000000
vn 0.000000 1.000000 0.000000
vn 0.000000 1.000000 0.000000
vn 0.000000 1.000000 0.000000
vn 0.000000 0.000000 -1.000000
vn 0.000000 0.000000 -1.000000
vn 0.000000 0.000000 -1.000000
vn 0.000000 0.000000 -1.000000
vn 0.000000 -1.000000 0.000000
vn 0.000000 -1.000000 0.000000
vn 0.000000 -1.000000 0.000000
vn 0.000000 -1.000000 0.000000
vn 0.000000 0.000000 1.000000
vn 0.000000 0.000000 1.000000
vn 0.000000 0.000000 1.000000
vn 0.000000 0.000000 1.000000
vn 0.000000 1.000000 0.000000
vn 0.000000 1.000000 0.000000
vn 0.000000 1.000000 0.000000
vn 0.000000 1.000000 0.000000
vn 0.000000 0.000000 -1.000000
vn 0.000000 0.000000 -1.000000
vn 0.000000 0.000000 -1.000000
vn 0.000000 0.000000 -1.000000
vn 0.000000 -1.000000 0.000000
vn 0.000000 -1.000000 0.000000
vn 0.000000 -1.000000 0.000000
vn 0.000000 -1.000000 0.000000
vn -0.707106 -0.707107 0.000000
vn -0.707106 -0.707107 0.000000
vn -0.707106 -0.707108 0.000000
vn -0.707106 -0.707107 0.000000
vn -0.707104 0.138918 0.693329
vn -0.707104 0.138918 0.693329
vn -0.707104 0.138918 0.693329
vn -0.707104 0.138918 0.693330
vn -0.707104 0.138918 0.693330
vn -0.707104 0.138918 0.693330
vn 0.707106 -0.707107 0.000000
vn 0.707106 -0.707108 0.000000
vn 0.707106 -0.707107 0.000000
vn 0.707106 -0.707108 0.000000
vn 0.707105 0.138918 0.693328
vn 0.707105 0.138918 0.693328
vn 0.707109 0.138917 0.693324
vn 0.707109 0.138917 0.693324
vn 0.707113 0.138916 0.693321
vn 0.707113 0.138916 0.693321
vn 0.707098 -0.138920 -0.693335
vn 0.707098 -0.138920 -0.693335
vn 0.707105 -0.138918 -0.693328
vn 0.707105 -0.138918 -0.693328
vn 0.707113 -0.138916 -0.693321
vn 0.707113 -0.138916 -0.693321
vn -0.707096 -0.138920 -0.693337
vn -0.707097 -0.138920 -0.693337
vn -0.707108 -0.138918 -0.693326
vn -0.707108 -0.138918 -0.693326
vn -0.707119 -0.138915 -0.693315
vn -0.707119 -0.138915 -0.693315
vn 0.707111 0.707102 0.000000
vn 0.707112 0.707102 0.000000
vn 0.707112 0.707102 0.000000
vn 0.707112 0.707102 0.000000
vn -0.707110 0.707104 0.000000
vn -0.707110 0.707104 0.000000
vn -0.707110 0.707104 0.000000
vn -0.707109 0.707104 0.000000
vn 0.000000 0.196459 0.980512
vn 0.000000 0.196459 0.980512
vn -0.000002 0.196459 0.980512
vn -0.000002 0.196459 0.980512
vn 1.000000 -0.000000 0.000000
vn 1.000000 -0.000000 0.000000
vn 1.000000 -0.000000 0.000000
vn 1.000000 -0.000000 0.000000
vn 0.000000 -0.196459 -0.980512
vn 0.000000 -0.196459 -0.980512
vn 0.000002 -0.196459 -0.980512
vn 0.000002 -0.196459 -0.980512
vn -1.000000 0.000000 0.000000
vn -1.000000 0.000000 0.000000
vn -1.000000 0.000000 0.000000
vn -1.000000 0.000000 0.000000
vn -0.000005 1.000000 0.000000
vn -0.000005 1.000000 0.000000
vn -0.000005 1.000000 0.000000
vn -0.000005 1.000000 0.000000
vn 0.000000 -1.000000 0.000000
vn 0.000000 -1.000000 0.000000
vn 0.000000 -1.000000 0.000000
vn 0.000000 -1.000000 0.000000
vn 1.000000 -0.000000 0.000000
vn 1.000000 -0.000000 0.000000
vn 0.000005 -0.196459 -0.980512
vn 0.000005 -0.196459 -0.980512
vn -1.000000 -0.000000 0.000000
vn -1.000000 -0.000000 0.000000
vn -0.000005 0.196459 0.980512
vn -0.000005 0.196459 0.980512
f 1/1/1 14/2/2 13/10/3 2/23/4
f 2/3/5 3/4/6 4/37/7 1/17/8
f 3/24/6 22/34/9 21/6/10 4/5/7
f 5/7/11 9/19/12 10/21/13 6/29/14
f 6/29/15 8/18/16 7/30/17 5/7/18
f 8/18/16 18/36/19 17/8/20 7/30/17
f 9/19/21 11/20/22 12/33/23 10/21/24
f 11/20/22 20/31/25 19/9/26 12/33/23
f 14/2/27 15/22/28 16/35/29 13/10/30
f 15/22/28 24/32/31 23/11/32 16/35/29
f 18/36/33 19/26/34 20/13/35 17/12/36
f 22/14/37 23/16/38 24/15/39 21/25/40
f 1/17/41 4/37/42 8/18/43 6/29/44
f 5/7/45 7/30/46 11/20/47 9/19/48
f 10/21/49 12/33/50 15/22/51 14/2/52
f 13/10/53 16/35/54 3/24/55 2/23/56
f 21/25/57 24/15/58 19/26/59 18/36/60
f 14/27/61 1/17/62 6/29/63 10/28/64
f 7/30/46 17/8/65 20/31/66 11/20/47
f 15/22/51 12/33/50 19/9/67 24/32/68
f 3/24/55 16/35/54 23/11/69 22/34/70
f 8/18/43 4/37/42 21/25/71 18/36/72
f 25/38/73 26/39/74 28/40/75 27/41/76
f 27/41/77 28/40/78 30/42/79 29/43/80
f 29/43/81 30/42/82 32/44/83 31/45/84
f 31/45/85 32/44/86 26/46/87 25/47/88
f 33/48/89 34/49/90 36/50/91 35/51/92
f 35/51/93 36/50/94 38/52/95 37/53/96
f 37/53/97 38/52/98 40/54/99 39/55/100
f 39/55/101 40/54/102 34/56/103 33/57/104
f 41/58/105 42/59/106 44/60/107 43/61/108
f 43/61/109 44/60/110 46/62/111 45/63/112
f 45/63/113 46/62/114 48/64/115 47/65/116
f 47/65/117 48/64/118 42/66/119 41/67/120
f 49/68/121 50/69/122 52/70/123 51/71/124
f 51/71/125 52/70/126 54/72/127 53/73/128
f 53/73/129 54/72/130 56/74/131 55/75/132
f 55/75/133 56/74/134 50/76/135 49/77/136
f 57/78/137 58/79/138 60/80/139 59/81/140
f 59/81/141 60/80/142 62/82/143 61/83/144
f 61/83/145 62/82/146 64/84/147 63/85/148
f 63/85/149 64/84/150 58/86/151 57/87/152
f 65/88/153 66/89/154 68/90/155 67/91/156
f 67/91/157 68/90/158 70/92/159 69/93/160
f 69/93/161 70/92/162 72/94/163 71/95/164
f 71/95/165 72/94/166 66/96/167 65/97/168
f 73/98/169 74/99/170 85/100/171 86/101/172
f 74/102/173 73/103/174 76/104/175 75/105/176
f 75/106/176 76/107/175 93/108/177 94/109/178
f 77/110/179 78/111/180 82/112/181 81/113/182
f 78/111/183 77/110/184 79/114/185 80/115/186
f 80/115/186 79/114/185 89/116/187 90/117/188
f 81/113/189 82/112/190 84/118/191 83/119/192
f 83/119/192 84/118/191 91/120/193 92/121/194
f 86/101/195 85/100/196 88/122/197 87/123/198
f 87/123/198 88/122/197 95/124/199 96/125/200
f 90/117/201 89/126/202 92/127/203 91/128/204
f 94/129/205 93/130/206 96/131/207 95/132/208
f 73/103/209 78/111/210 80/115/211 76/104/212
f 77/110/213 81/113/214 83/119/215 79/114/216
f 82/112/217 86/101/218 87/123/219 84/118/220
f 85/100/221 74/99/222 75/106/223 88/122/224
f 93/130/225 90/117/226 91/128/227 96/131/228
f 86/133/229 82/134/230 78/111/231 73/103/232
f 79/114/216 83/119/215 92/121/233 89/116/234
f 87/123/219 96/125/235 91/120/236 84/118/220
f 75/106/223 94/109/237 95/124/238 88/122/224
f 80/115/211 90/117/239 93/130/240 76/104/212
