# This file uses meters as units for non-parametric coordinates.

v -154.738434 226.960327 102.801476
v -72.538757 1.156730 141.892151
v -73.641266 0.000000 143.082748
v -72.538757 226.561935 125.296349
v -73.641266 226.960327 126.372948
v -82.462402 0.000000 143.082748
v -83.564911 1.156730 141.892151
v -83.564911 226.561935 125.296349
v -82.462402 226.960327 126.372948
v -72.538757 236.386566 118.876915
v -73.641266 237.428467 119.533440
v -73.641266 241.269791 101.267525
v -72.538757 239.858368 102.370033
v -82.462402 237.428467 119.533440
v -83.564911 236.386566 118.876915
v -83.564911 239.858368 102.370033
v -82.462402 241.269791 101.267525
v -73.641266 226.960327 101.267525
v -72.538757 226.960327 102.370033
v -83.564911 226.960327 102.370033
v -82.462402 226.960327 101.267525
v -72.538757 1.156730 102.370033
v -73.641266 0.000000 101.267525
v -82.462402 0.000000 101.267525
v -83.564911 1.156730 102.370033
v -154.738434 1.156730 141.892151
v -155.840942 0.000000 143.082748
v -154.738434 226.561935 125.296349
v -155.840942 226.960327 126.372948
v -164.662079 0.000000 143.082748
v -165.764587 1.156730 141.892151
v -165.764587 226.561935 125.296349
v -164.662079 226.960327 126.372948
v -154.738434 236.396317 118.870537
v -155.840942 237.428467 119.533440
v -154.738434 240.113052 102.801476
v -155.840942 241.269791 102.801476
v -164.662079 237.428467 119.533440
v -165.764587 236.396317 118.870537
v -165.764587 239.832764 103.903984
v -164.662079 241.269791 102.801476
v -165.764587 226.960327 103.903984
v -164.662079 226.960327 102.801476
v -154.738434 1.156730 102.801476
v -155.840942 0.000000 102.801476
v -164.662079 0.000000 102.801476
v -165.764587 1.156730 103.903984
v -164.662079 113.762093 134.727844
v -165.764587 114.141266 133.594254
v -165.764587 114.340454 103.903984
v -164.662079 113.762093 102.801476
v -154.738434 114.340454 102.801476
v -154.738434 114.141266 133.594254
v -155.840942 113.762093 134.727844
v -159.700256 114.051270 102.801476
v -82.462402 113.762093 134.727844
v -83.564911 114.141266 133.594254
v -83.564911 114.340454 102.370033
v -82.462402 113.762093 101.267525
v -73.641266 113.762093 101.267525
v -72.538757 114.340454 102.370033
v -72.538757 114.141266 133.594254
v -73.641266 113.762093 134.727844
v -154.738434 120.354118 129.422302
v -154.738434 120.932037 129.973907
v -83.564911 120.354118 129.422302
v -83.564911 120.932037 129.973907
v -154.738434 126.152184 129.422302
v -154.738434 125.574257 129.973907
v -83.564911 126.152184 129.422302
v -83.564911 125.574257 129.973907
v -154.738434 125.574257 101.366356
v -154.738434 126.152184 101.917961
v -83.564911 125.574257 101.366356
v -83.564911 126.152184 101.917961
v -154.738434 120.354118 101.917961
v -154.738434 120.932037 101.366356
v -83.564911 120.354118 101.917961
v -83.564911 120.932037 101.366356
v -154.738434 68.102539 132.837906
v -154.738434 68.680458 133.389511
v -83.564911 68.102539 132.837906
v -83.564911 68.680458 133.389511
v -154.738434 73.900612 132.837906
v -154.738434 73.322701 133.389511
v -83.564911 73.900612 132.837906
v -83.564911 73.322701 133.389511
v -154.738434 73.322701 101.366356
v -154.738434 73.900612 101.917961
v -83.564911 73.322701 101.366356
v -83.564911 73.900612 101.917961
v -154.738434 68.102539 101.917961
v -154.738434 68.680458 101.366356
v -83.564911 68.102539 101.917961
v -83.564911 68.680458 101.366356
v -154.738434 13.411689 134.569855
v -154.738434 13.989606 135.121460
v -83.789948 13.411689 134.569855
v -83.789948 13.989606 135.121460
v -154.738434 19.191433 134.569855
v -154.738434 18.613516 135.121460
v -83.789948 19.191433 134.569855
v -83.789948 18.613516 135.121460
v -154.738434 18.613516 101.473083
v -154.738434 19.191433 102.024689
v -83.789948 18.613516 101.473083
v -83.789948 19.191433 102.024689
v -154.738434 13.411689 102.024689
v -154.738434 13.989606 101.473083
v -83.789948 13.411689 102.024689
v -83.789948 13.989606 101.473083
v -154.738434 173.946213 126.960548
v -154.738434 174.524124 127.512154
v -83.564911 173.946213 126.960548
v -83.564911 174.524124 127.512154
v -154.738434 179.744263 126.960548
v -154.738434 179.166351 127.512154
v -83.564911 179.744263 126.960548
v -83.564911 179.166351 127.512154
v -154.738434 179.166351 101.366356
v -154.738434 179.744263 101.917961
v -83.564911 179.166351 101.366356
v -83.564911 179.744263 101.917961
v -154.738434 173.946213 101.917961
v -154.738434 174.524124 101.366356
v -83.564911 173.946213 101.917961
v -83.564911 174.524124 101.366356
vt 0.350196 0.869751
vt 0.350016 0.867443
vt 0.350352 0.864406
vt 0.350279 0.866714
vt 0.350400 0.870090
vt 0.350066 0.867835
vt 0.352490 0.867337
vt 0.352543 0.864300
vt 0.350425 0.866326
vt 0.350406 0.864045
vt 0.352294 0.867741
vt 0.352311 0.863964
vt 0.353640 0.863441
vt 0.354014 0.858881
vt 0.355889 0.859092
vt 0.355514 0.863651
vt 0.353447 0.863257
vt 0.353757 0.859080
vt 0.355773 0.863549
vt 0.356070 0.859406
vt 0.351005 0.858577
vt 0.351222 0.855125
vt 0.351011 0.852846
vt 0.350795 0.856298
vt 0.351007 0.858854
vt 0.351410 0.855400
vt 0.350793 0.856022
vt 0.351197 0.852568
vt 0.354044 0.858794
vt 0.353834 0.856515
vt 0.354507 0.865957
vt 0.353550 0.856232
vt 0.351221 0.855126
vt 0.352030 0.865864
vt 0.354774 0.866075
vt 0.353965 0.855336
vt 0.352213 0.865564
vt 0.354314 0.865659
vt 0.354582 0.865777
vt 0.353779 0.855614
vt 0.350846 0.856022
vt 0.350486 0.863663
vt 0.353003 0.863135
vt 0.351582 0.864650
vt 0.352500 0.861953
vt 0.351897 0.865446
vt 0.352965 0.856231
vt 0.352112 0.861524
vt 0.351560 0.864768
vt 0.353185 0.856515
vt 0.350909 0.852568
vt 0.353396 0.858794
vt 0.349938 0.869559
vt 0.350101 0.867132
vt 0.350433 0.864032
vt 0.350021 0.866459
vt 0.350142 0.869905
vt 0.350149 0.867532
vt 0.352029 0.867021
vt 0.352119 0.863921
vt 0.350167 0.866063
vt 0.351123 0.855400
vt 0.351879 0.867433
vt 0.351943 0.863578
vt 0.353145 0.863318
vt 0.353371 0.859167
vt 0.354786 0.859416
vt 0.354560 0.863567
vt 0.353728 0.855612
vt 0.353212 0.859093
vt 0.354759 0.863470
vt 0.354919 0.859733
vt 0.351059 0.858854
vt 0.351714 0.865747
vt 0.350934 0.855125
vt 0.350723 0.852846
vt 0.350848 0.856298
vt 0.350935 0.855402
vt 0.353541 0.855890
vt 0.368154 0.865246
vt 0.368200 0.864863
vt 0.368848 0.854295
vt 0.368755 0.854572
vt 0.369061 0.857127
vt 0.368145 0.868719
vt 0.369643 0.865048
vt 0.368070 0.868346
vt 0.368908 0.855850
vt 0.368412 0.865560
vt 0.368458 0.865185
vt 0.369135 0.854295
vt 0.369043 0.854572
vt 0.369253 0.856851
vt 0.369349 0.857127
vt 0.368403 0.868963
vt 0.369959 0.865166
vt 0.368328 0.868597
vt 0.369638 0.854235
vt 0.369288 0.852428
vt 0.351864 0.870551
vt 0.369288 0.870551
vt 0.369638 0.868745
vt 0.369288 0.852428
vt 0.351864 0.852428
vt 0.351515 0.854235
vt 0.351515 0.868745
vt 0.351864 0.870551
vt 0.369288 0.870551
vt 0.369638 0.854235
vt 0.369325 0.852428
vt 0.351827 0.870551
vt 0.369325 0.870551
vt 0.369638 0.868745
vt 0.369325 0.852428
vt 0.351827 0.852428
vt 0.351515 0.854235
vt 0.351515 0.868745
vt 0.351827 0.870551
vt 0.369325 0.870551
vt 0.369638 0.854241
vt 0.369340 0.852428
vt 0.351812 0.870551
vt 0.369340 0.870551
vt 0.369638 0.868739
vt 0.369340 0.852428
vt 0.351812 0.852428
vt 0.351515 0.854241
vt 0.351515 0.868739
vt 0.351812 0.870551
vt 0.369340 0.870551
vt 0.369638 0.854235
vt 0.369255 0.852428
vt 0.351897 0.870551
vt 0.369255 0.870551
vt 0.369638 0.868745
vt 0.369255 0.852428
vt 0.351897 0.852428
vt 0.351515 0.854235
vt 0.351515 0.868745
vt 0.351897 0.870551
vt 0.369255 0.870551
vt 0.351515 0.854235
vt 0.369638 0.868745
vt 0.351515 0.870202
vt 0.369638 0.852778
vt 0.351515 0.870202
vt 0.369638 0.852778
vt 0.351515 0.852778
vt 0.351515 0.854235
vt 0.369638 0.868745
vt 0.351515 0.854235
vt 0.369638 0.868745
vt 0.351515 0.870239
vt 0.369638 0.852741
vt 0.351515 0.870239
vt 0.369638 0.852741
vt 0.351515 0.852741
vt 0.351515 0.854235
vt 0.369638 0.868745
vt 0.351515 0.854241
vt 0.369638 0.868739
vt 0.351515 0.870254
vt 0.369638 0.852726
vt 0.351515 0.870254
vt 0.369638 0.852726
vt 0.351515 0.852726
vt 0.351515 0.854241
vt 0.369638 0.868739
vt 0.351515 0.854235
vt 0.369638 0.868745
vt 0.351515 0.870169
vt 0.369638 0.852811
vt 0.351515 0.870169
vt 0.369638 0.852811
vt 0.351515 0.852811
vt 0.351515 0.854235
vt 0.369638 0.868745
vt 0.351864 0.852428
vt 0.369638 0.854235
vt 0.351515 0.868745
vt 0.369638 0.870202
vt 0.351515 0.852778
vt 0.369638 0.854235
vt 0.351515 0.868745
vt 0.369638 0.870202
vt 0.351827 0.852428
vt 0.369638 0.854235
vt 0.351515 0.868745
vt 0.369638 0.870239
vt 0.351515 0.852741
vt 0.369638 0.854235
vt 0.351515 0.868745
vt 0.369638 0.870239
vt 0.351812 0.852428
vt 0.369638 0.854241
vt 0.351515 0.868739
vt 0.369638 0.870254
vt 0.351515 0.852726
vt 0.369638 0.854241
vt 0.351515 0.868739
vt 0.369638 0.870254
vt 0.351897 0.852428
vt 0.369638 0.854235
vt 0.351515 0.868745
vt 0.369638 0.870169
vt 0.351515 0.852811
vt 0.369638 0.854235
vt 0.351515 0.868745
vt 0.369638 0.870169
vn 0.000000 0.000000 1.000000
vn 0.000000 0.000000 1.000000
vn 0.000000 0.000000 1.000000
vn 0.000000 0.000000 1.000000
vn 0.000000 1.000000 0.000000
vn 0.000000 1.000000 0.000000
vn 0.000000 1.000000 0.000000
vn 0.000000 1.000000 0.000000
vn 0.000000 0.000000 -1.000000
vn 0.000000 0.000000 -1.000000
vn 0.000000 0.000000 -1.000000
vn 0.000000 0.000000 -1.000000
vn 0.000000 -1.000000 0.000000
vn 0.000000 -1.000000 0.000000
vn 0.000000 -1.000000 0.000000
vn 0.000000 -1.000000 0.000000
vn 0.000000 0.000000 1.000000
vn 0.000000 0.000000 1.000000
vn 0.000000 0.000000 1.000000
vn 0.000000 0.000000 1.000000
vn 0.000000 1.000000 0.000000
vn 0.000000 1.000000 0.000000
vn 0.000000 1.000000 0.000000
vn 0.000000 1.000000 0.000000
vn 0.000000 0.000000 -1.000000
vn 0.000000 0.000000 -1.000000
vn 0.000000 0.000000 -1.000000
vn 0.000000 0.000000 -1.000000
vn 0.000000 -1.000000 0.000000
vn 0.000000 -1.000000 0.000000
vn 0.000000 -1.000000 0.000000
vn 0.000000 -1.000000 0.000000
vn 0.000000 0.000000 1.000000
vn 0.000000 0.000000 1.000000
vn 0.000000 0.000000 1.000000
vn 0.000000 0.000000 1.000000
vn 0.000000 1.000000 0.000000
vn 0.000000 1.000000 0.000000
vn 0.000000 1.000000 0.000000
vn 0.000000 1.000000 0.000000
vn 0.000000 0.000000 -1.000000
vn 0.000000 0.000000 -1.000000
vn 0.000000 0.000000 -1.000000
vn 0.000000 0.000000 -1.000000
vn 0.000000 -1.000000 0.000000
vn 0.000000 -1.000000 0.000000
vn 0.000000 -1.000000 0.000000
vn 0.000000 -1.000000 0.000000
vn 0.000000 0.000000 1.000000
vn 0.000000 0.000000 1.000000
vn 0.000000 0.000000 1.000000
vn 0.000000 0.000000 1.000000
vn 0.000000 1.000000 0.000000
vn 0.000000 1.000000 0.000000
vn 0.000000 1.000000 0.000000
vn 0.000000 1.000000 0.000000
vn 0.000000 0.000000 -1.000000
vn 0.000000 0.000000 -1.000000
vn 0.000000 0.000000 -1.000000
vn 0.000000 0.000000 -1.000000
vn 0.000000 -1.000000 0.000000
vn 0.000000 -1.000000 0.000000
vn 0.000000 -1.000000 0.000000
vn 0.000000 -1.000000 0.000000
vn 0.723868 -0.689938 0.000000
vn 0.723868 -0.689938 0.000000
vn 0.723868 -0.689938 0.000000
vn 0.723868 -0.689938 0.000000
vn 0.707182 0.051787 0.705132
vn 0.707182 0.051787 0.705132
vn 0.707195 0.051937 0.705108
vn 0.707191 0.051891 0.705116
vn 0.711709 0.085700 0.697227
vn 0.711522 0.084161 0.697606
vn 0.712444 0.383830 0.587451
vn 0.712444 0.383830 0.587451
vn -0.723868 -0.689938 0.000000
vn -0.723868 -0.689938 0.000000
vn -0.723868 -0.689938 0.000000
vn -0.723868 -0.689938 0.000000
vn -0.707182 0.051787 0.705132
vn -0.707182 0.051787 0.705132
vn -0.707191 0.051891 0.705116
vn -0.707195 0.051938 0.705108
vn -0.711522 0.084161 0.697606
vn -0.711709 0.085701 0.697227
vn -0.712443 0.383832 0.587450
vn -0.712443 0.383832 0.587450
vn 0.723205 0.675848 0.142139
vn 0.723205 0.675848 0.142139
vn 0.723205 0.675848 0.142139
vn 0.723205 0.675848 0.142139
vn 0.707104 0.000000 -0.707109
vn 0.707104 0.000000 -0.707109
vn 0.707107 0.000000 -0.707107
vn 0.707107 0.000000 -0.707107
vn -0.723204 0.675849 0.142139
vn -0.723204 0.675849 0.142139
vn -0.723204 0.675849 0.142139
vn -0.723204 0.675849 0.142139
vn -0.707104 0.000000 -0.707109
vn -0.707104 0.000000 -0.707109
vn -0.707107 0.000000 -0.707107
vn -0.707107 0.000000 -0.707107
vn 0.707106 0.000000 -0.707107
vn 0.707107 0.000000 -0.707107
vn 0.707106 0.000000 -0.707108
vn 0.707106 0.000000 -0.707108
vn -0.707107 0.000000 -0.707107
vn -0.707106 0.000000 -0.707107
vn -0.707106 0.000000 -0.707108
vn -0.707106 0.000000 -0.707108
vn 0.723871 -0.689936 0.000000
vn 0.723871 -0.689936 0.000000
vn 0.723871 -0.689936 0.000000
vn 0.723871 -0.689936 0.000000
vn 0.707182 0.051787 0.705132
vn 0.707182 0.051787 0.705132
vn 0.707195 0.051938 0.705108
vn 0.707191 0.051891 0.705116
vn 0.711711 0.085716 0.697224
vn 0.711523 0.084175 0.697603
vn 0.712442 0.383833 0.587451
vn 0.712442 0.383833 0.587451
vn -0.723872 -0.689935 0.000000
vn -0.723872 -0.689935 0.000000
vn -0.723872 -0.689935 0.000000
vn -0.723872 -0.689935 0.000000
vn -0.707182 0.051787 0.705132
vn -0.707182 0.051787 0.705132
vn -0.707191 0.051891 0.705116
vn -0.707195 0.051938 0.705108
vn -0.711523 0.084175 0.697603
vn -0.711711 0.085715 0.697224
vn -0.712444 0.383828 0.587452
vn -0.712444 0.383828 0.587452
vn 0.719108 0.677155 0.156030
vn 0.719108 0.677155 0.156030
vn 0.719108 0.677155 0.156030
vn 0.719108 0.677155 0.156030
vn -0.723080 0.673248 0.154572
vn -0.723080 0.673248 0.154572
vn -0.723080 0.673248 0.154572
vn -0.723080 0.673249 0.154572
vn -0.707106 0.000000 -0.707107
vn -0.707106 0.000000 -0.707107
vn -0.707107 0.000000 -0.707106
vn -0.707107 0.000000 -0.707106
vn -0.707107 0.000000 -0.707107
vn -0.707106 0.000000 -0.707107
vn -0.707106 0.000000 -0.707108
vn -0.707106 0.000000 -0.707108
vn 0.000000 0.073245 0.997314
vn 0.000000 0.073426 0.997301
vn 0.000000 0.073426 0.997301
vn 0.000000 0.073245 0.997314
vn 0.000000 0.868787 0.495187
vn 0.000000 0.978595 0.205798
vn 0.000000 0.978595 0.205798
vn 0.000000 0.868787 0.495187
vn 0.000000 0.000000 -1.000000
vn 0.000000 0.000000 -1.000000
vn 0.000000 0.000000 -1.000000
vn 0.000000 0.000000 -1.000000
vn 0.000000 -1.000000 0.000000
vn 0.000000 -1.000000 0.000000
vn 0.000000 -1.000000 0.000000
vn 0.000000 -1.000000 0.000000
vn -1.000000 0.000000 0.000000
vn -1.000000 0.000000 0.000000
vn -1.000000 0.000000 0.000000
vn -1.000000 0.000000 0.000000
vn 1.000000 0.000000 0.000000
vn 1.000000 0.000000 0.000000
vn 1.000000 0.000000 0.000000
vn 1.000000 0.000000 0.000000
vn -1.000000 0.000000 0.000000
vn -1.000000 0.000000 0.000000
vn -1.000000 0.000000 0.000000
vn -1.000000 0.000000 0.000000
vn 0.000000 0.000000 -1.000000
vn 0.000000 0.000000 -1.000000
vn 0.000000 0.000000 -1.000000
vn 0.000000 0.000000 -1.000000
vn 1.000000 0.000000 0.000000
vn 1.000000 0.000000 0.000000
vn 1.000000 0.000000 0.000000
vn 1.000000 0.000000 0.000000
vn 0.000000 0.121949 0.992536
vn 0.000000 0.121949 0.992536
vn 0.000000 0.073245 0.997314
vn 0.000000 0.073426 0.997301
vn 0.000000 0.073426 0.997301
vn 0.000000 0.073245 0.997314
vn 0.000000 0.854816 0.518931
vn 0.000000 0.974645 0.223759
vn 0.000000 0.974645 0.223759
vn 0.000000 0.854816 0.518931
vn -0.000000 0.000000 -1.000000
vn -0.000000 0.000000 -1.000000
vn -0.000000 0.000000 -1.000000
vn -0.000000 0.000000 -1.000000
vn 0.000000 -1.000000 0.000000
vn 0.000000 -1.000000 0.000000
vn 0.000000 -1.000000 0.000000
vn 0.000000 -1.000000 0.000000
vn -1.000000 0.000000 0.000000
vn -1.000000 0.000000 0.000000
vn -1.000000 0.000000 0.000000
vn -1.000000 0.000000 0.000000
vn 1.000000 -0.000000 0.000000
vn 1.000000 -0.000000 0.000000
vn 1.000000 -0.000000 0.000000
vn 1.000000 -0.000000 0.000000
vn -1.000000 -0.000000 0.000000
vn -1.000000 -0.000001 0.000000
vn -1.000000 -0.000001 0.000000
vn -1.000000 -0.000000 0.000000
vn 1.000000 0.000000 0.000000
vn 1.000000 0.000000 0.000000
vn 1.000000 0.000000 0.000000
vn 1.000000 0.000000 0.000000
vn 0.000000 0.121949 0.992536
vn 0.000000 0.121949 0.992536
vn 0.000000 0.000000 -1.000000
vn 0.000000 0.000000 -1.000000
vn 0.000000 0.000000 -1.000000
vn 0.000000 0.000000 -1.000000
vn 0.000000 0.000000 -1.000000
vn -0.000000 0.000000 -1.000000
vn -0.000000 0.000000 -1.000000
vn 1.000000 0.000001 0.000000
vn 1.000000 0.000001 0.000000
vn 1.000000 0.000001 0.000000
vn 1.000000 0.000001 0.000000
vn 1.000000 0.000001 0.000000
vn 1.000000 0.000001 0.000000
vn 1.000000 0.000001 0.000000
vn 1.000000 0.000001 0.000000
vn -1.000000 -0.000000 0.000000
vn -1.000000 -0.000000 0.000000
vn -1.000000 -0.000000 0.000000
vn -1.000000 -0.000000 0.000000
vn -1.000000 -0.000000 0.000000
vn -1.000000 -0.000000 0.000000
vn -1.000000 -0.000000 0.000000
vn -1.000000 -0.000000 0.000000
vn 1.000000 0.000001 0.000000
vn 1.000000 0.000001 0.000000
vn 1.000000 0.000001 0.000000
vn 1.000000 0.000001 0.000000
vn 1.000000 0.000001 0.000000
vn 1.000000 0.000001 0.000000
vn 1.000000 0.000001 0.000000
vn 1.000000 0.000001 0.000000
vn -1.000000 -0.000000 0.000000
vn -1.000000 -0.000000 0.000000
vn -1.000000 -0.000000 0.000000
vn -1.000000 -0.000000 0.000000
vn -1.000000 -0.000000 0.000000
vn -1.000000 -0.000000 0.000000
vn -1.000000 -0.000000 0.000000
vn -1.000000 -0.000000 0.000000
vn 1.000000 -0.000000 0.000000
vn 1.000000 -0.000000 0.000000
vn 1.000000 -0.000000 0.000000
vn 1.000000 -0.000000 0.000000
vn 1.000000 -0.000000 0.000000
vn 1.000000 -0.000000 0.000000
vn 1.000000 -0.000000 0.000000
vn 1.000000 -0.000000 0.000000
vn -1.000000 -0.000000 0.000000
vn -1.000000 -0.000000 0.000000
vn -1.000000 -0.000000 0.000000
vn -1.000000 -0.000000 0.000000
vn -1.000000 -0.000000 0.000000
vn -1.000000 -0.000000 0.000000
vn -1.000000 -0.000000 0.000000
vn -1.000000 -0.000000 0.000000
vn 1.000000 0.000001 0.000000
vn 1.000000 0.000001 0.000000
vn 1.000000 0.000001 0.000000
vn 1.000000 0.000001 0.000000
vn 1.000000 0.000001 0.000000
vn 1.000000 0.000001 0.000000
vn 1.000000 0.000001 0.000000
vn 1.000000 0.000001 0.000000
vn -1.000000 -0.000000 0.000000
vn -1.000000 -0.000000 0.000000
vn -1.000000 -0.000000 0.000000
vn -1.000000 -0.000000 0.000000
vn -1.000000 -0.000000 0.000000
vn -1.000000 -0.000000 0.000000
vn -1.000000 -0.000000 0.000000
vn -1.000000 -0.000000 0.000000
vn 0.000000 -0.690444 0.723386
vn 0.000000 -0.690444 0.723386
vn 0.000000 -0.690444 0.723386
vn 0.000000 -0.690444 0.723386
vn 0.000000 0.690444 0.723386
vn 0.000000 0.690444 0.723386
vn 0.000000 0.690444 0.723386
vn 0.000000 0.690444 0.723386
vn 0.000000 0.690444 -0.723386
vn 0.000000 0.690444 -0.723386
vn 0.000000 0.690444 -0.723386
vn 0.000000 0.690444 -0.723386
vn 0.000000 -0.690444 -0.723386
vn 0.000000 -0.690444 -0.723386
vn 0.000000 -0.690444 -0.723386
vn 0.000000 -0.690444 -0.723386
vn 0.000000 -0.690448 0.723382
vn 0.000000 -0.690448 0.723382
vn 0.000000 -0.690448 0.723382
vn 0.000000 -0.690448 0.723382
vn 0.000000 0.690448 0.723382
vn 0.000000 0.690448 0.723382
vn 0.000000 0.690448 0.723382
vn 0.000000 0.690448 0.723382
vn 0.000000 0.690448 -0.723382
vn 0.000000 0.690448 -0.723382
vn 0.000000 0.690448 -0.723382
vn 0.000000 0.690448 -0.723382
vn 0.000000 -0.690448 -0.723382
vn 0.000000 -0.690448 -0.723382
vn 0.000000 -0.690448 -0.723382
vn 0.000000 -0.690448 -0.723382
vn 0.000000 -0.690447 0.723383
vn 0.000000 -0.690447 0.723383
vn 0.000000 -0.690447 0.723383
vn 0.000000 -0.690447 0.723383
vn 0.000000 0.690448 0.723382
vn 0.000000 0.690448 0.723382
vn 0.000000 0.690448 0.723382
vn 0.000000 0.690448 0.723382
vn 0.000000 0.690448 -0.723382
vn 0.000000 0.690448 -0.723382
vn 0.000000 0.690448 -0.723382
vn 0.000000 0.690448 -0.723382
vn 0.000000 -0.690447 -0.723383
vn 0.000000 -0.690447 -0.723383
vn 0.000000 -0.690447 -0.723383
vn 0.000000 -0.690447 -0.723383
vn 0.000000 -0.690453 0.723378
vn 0.000000 -0.690453 0.723378
vn 0.000000 -0.690453 0.723378
vn 0.000000 -0.690453 0.723378
vn 0.000000 0.690453 0.723378
vn 0.000000 0.690453 0.723378
vn 0.000000 0.690453 0.723378
vn 0.000000 0.690453 0.723378
vn 0.000000 0.690453 -0.723378
vn 0.000000 0.690453 -0.723378
vn 0.000000 0.690453 -0.723378
vn 0.000000 0.690453 -0.723378
vn 0.000000 -0.690453 -0.723378
vn 0.000000 -0.690453 -0.723378
vn 0.000000 -0.690453 -0.723378
vn 0.000000 -0.690453 -0.723378
f 65/142/1 67/179/2 71/143/3 69/180/4
f 68/144/5 70/181/6 75/145/7 73/182/8
f 72/149/9 74/183/10 79/150/11 77/184/12
f 76/146/13 78/185/14 66/147/15 64/148/16
f 81/151/17 83/187/18 87/152/19 85/188/20
f 84/153/21 86/189/22 91/154/23 89/190/24
f 88/158/25 90/191/26 95/159/27 93/192/28
f 92/155/29 94/193/30 82/156/31 80/157/32
f 97/160/33 99/195/34 103/161/35 101/196/36
f 100/162/37 102/197/38 107/163/39 105/198/40
f 104/167/41 106/199/42 111/168/43 109/200/44
f 108/164/45 110/201/46 98/165/47 96/166/48
f 113/169/49 115/203/50 119/170/51 117/204/52
f 116/171/53 118/205/54 123/172/55 121/206/56
f 120/176/57 122/207/58 127/177/59 125/208/60
f 124/173/61 126/209/62 114/174/63 112/175/64
f 2/37/65 3/34/66 23/33/67 22/26/68
f 3/1/69 2/5/70 62/95/71 63/97/72
f 5/2/73 4/6/74 10/11/75 11/7/76
f 6/35/77 7/39/78 25/40/79 24/36/80
f 7/9/81 6/4/82 56/89/83 57/90/84
f 8/10/85 9/3/86 14/8/87 15/12/88
f 11/13/89 10/17/90 13/18/91 12/14/92
f 12/29/93 13/18/94 19/25/95 18/21/96
f 15/19/97 14/16/98 17/15/99 16/20/100
f 16/32/101 17/30/102 21/24/103 20/27/104
f 60/93/105 61/94/106 22/26/107 23/22/108
f 58/91/109 59/92/110 24/23/111 25/28/112
f 26/46/113 27/74/114 45/78/115 44/62/116
f 27/53/117 26/57/118 53/85/119 54/87/120
f 29/54/121 28/58/122 34/63/123 35/59/124
f 30/31/125 31/38/126 47/79/127 46/69/128
f 31/61/129 30/56/130 48/80/131 49/81/132
f 32/42/133 33/55/134 38/60/135 39/64/136
f 35/65/137 34/43/138 36/70/139 37/66/140
f 39/71/141 38/68/142 41/67/143 40/72/144
f 40/47/145 41/50/146 43/77/147 42/41/148
f 50/82/149 51/83/150 46/76/151 47/51/152
f 3/1/153 63/97/154 56/89/155 6/4/156
f 11/13/157 12/14/158 17/15/159 14/16/160
f 60/93/161 23/22/162 24/23/163 59/92/164
f 23/33/165 3/34/166 6/35/167 24/36/168
f 7/9/169 57/90/170 58/91/171 25/28/172
f 22/26/173 61/94/174 62/96/175 2/37/176
f 8/10/177 15/45/178 16/32/179 20/27/180
f 12/29/181 18/21/182 21/24/183 17/30/184
f 4/49/185 19/25/186 13/18/187 10/17/188
f 9/3/189 5/2/190 11/7/157 14/8/160
f 27/53/191 54/87/192 48/80/193 30/56/194
f 35/65/195 37/66/196 41/67/197 38/68/198
f 55/88/199 45/75/200 46/76/201 51/83/202
f 45/78/203 27/74/204 30/31/205 46/69/206
f 31/61/207 49/81/208 50/82/209 47/51/210
f 26/46/211 44/62/212 52/84/213 53/86/214
f 32/42/215 39/48/216 40/47/217 42/41/218
f 28/44/219 1/73/220 36/70/221 34/43/222
f 33/55/223 29/54/224 35/59/195 38/60/198
f 37/52/225 36/70/226 1/73/227 43/77/228 41/50/229
f 49/81/132 48/80/131 33/55/134 32/42/133
f 50/82/209 49/81/208 32/42/215 42/41/218
f 42/41/148 43/77/147 51/83/150 50/82/149
f 1/73/227 52/84/230 55/88/199 51/83/202 43/77/228
f 53/86/214 52/84/213 1/73/220 28/44/219
f 54/87/120 53/85/119 28/58/122 29/54/121
f 48/80/193 54/87/192 29/54/224 33/55/223
f 52/84/230 44/62/231 45/75/200 55/88/199
f 57/90/84 56/89/83 9/3/86 8/10/85
f 58/91/171 57/90/170 8/10/177 20/27/180
f 20/27/104 21/24/103 59/92/110 58/91/109
f 18/21/182 60/93/161 59/92/164 21/24/183
f 18/21/96 19/25/95 61/94/106 60/93/105
f 62/96/175 61/94/174 19/25/186 4/49/185
f 63/97/72 62/95/71 4/6/74 5/2/73
f 56/89/155 63/97/154 5/2/190 9/3/189
f 67/179/232 66/103/233 78/104/234 79/105/235 74/106/236 75/107/237 70/108/238 71/143/239
f 77/98/240 76/99/241 64/178/242 65/142/243 69/180/244 68/100/245 73/101/246 72/102/247
f 83/187/248 82/114/249 94/115/250 95/116/251 90/117/252 91/118/253 86/119/254 87/152/255
f 93/109/256 92/110/257 80/186/258 81/151/259 85/188/260 84/111/261 89/112/262 88/113/263
f 99/195/264 98/125/265 110/126/266 111/127/267 106/128/268 107/129/269 102/130/270 103/161/271
f 109/120/272 108/121/273 96/194/274 97/160/275 101/196/276 100/122/277 105/123/278 104/124/279
f 115/203/280 114/136/281 126/137/282 127/138/283 122/139/284 123/140/285 118/141/286 119/170/287
f 125/131/288 124/132/289 112/202/290 113/169/291 117/204/292 116/133/293 121/134/294 120/135/295
f 65/142/296 64/178/297 66/103/298 67/179/299
f 68/144/300 69/180/301 71/143/302 70/181/303
f 72/149/304 73/182/305 75/145/306 74/183/307
f 76/146/308 77/184/309 79/150/310 78/185/311
f 81/151/312 80/186/313 82/114/314 83/187/315
f 84/153/316 85/188/317 87/152/318 86/189/319
f 88/158/320 89/190/321 91/154/322 90/191/323
f 92/155/324 93/192/325 95/159/326 94/193/327
f 97/160/328 96/194/329 98/125/330 99/195/331
f 100/162/332 101/196/333 103/161/334 102/197/335
f 104/167/336 105/198/337 107/163/338 106/199/339
f 108/164/340 109/200/341 111/168/342 110/201/343
f 113/169/344 112/202/345 114/136/346 115/203/347
f 116/171/348 117/204/349 119/170/350 118/205/351
f 120/176/352 121/206/353 123/172/354 122/207/355
f 124/173/356 125/208/357 127/177/358 126/209/359
