# This file uses meters as units for non-parametric coordinates.

v 248.006230 36.511350 72.375743
v 248.006230 36.511350 -43.172440
v 248.006230 9.768907 72.375743
v 248.006230 9.768907 -43.172440
v 250.077300 10.286622 71.858042
v 249.559581 9.768907 72.375743
v 250.077300 10.286622 -42.654725
v 249.559581 9.768907 -43.172440
v 250.077300 35.993635 71.858042
v 249.559581 36.511350 72.375743
v 250.077300 35.993635 -42.654725
v 249.559581 36.511350 -43.172440
v 186.018628 11.246163 70.667396
v 186.018628 11.246163 -43.439422
v 245.095868 11.246163 -43.439422
v 245.095868 11.246163 70.667396
v 186.018628 7.350810 70.667396
v 186.018628 7.350810 -43.439422
v 245.095868 7.350810 -43.439422
v 245.095868 7.350810 70.667396
v 187.453238 6.639632 75.428644
v 187.453238 6.639632 -45.964110
v 187.453238 30.440816 -45.964110
v 187.453238 30.440816 75.428644
v 186.790102 31.103963 74.927453
v 186.790102 31.103963 -45.462919
v 183.694954 31.103963 -45.462919
v 183.694954 31.103963 74.927453
v 183.031807 30.440816 75.428644
v 183.031807 30.440816 -45.964110
v 183.031807 6.639632 -45.964110
v 183.031807 6.639632 75.428644
v 183.694954 5.976482 74.927453
v 183.694954 5.976482 -45.462919
v 186.790102 5.976482 -45.462919
v 186.790102 5.976482 74.927453
v 244.345618 7.522716 -41.203645
v 187.453238 7.522716 -41.203645
v 187.453238 29.201141 -41.203645
v 244.345618 29.201141 -41.203645
v 244.345618 29.864288 -41.866804
v 187.453238 29.864288 -41.866781
v 187.453232 29.864288 -44.961935
v 244.345618 29.864288 -44.961958
v 244.345618 29.201141 -45.625071
v 187.453232 29.201141 -45.625071
v 187.453232 7.522716 -45.625071
v 244.345618 7.522716 -45.625071
v 244.345618 6.859566 -44.961958
v 187.453232 6.859566 -44.961935
v 187.453238 6.859566 -41.866781
v 244.345618 6.859566 -41.866804
v 244.345618 7.522716 70.394557
v 187.453232 7.522716 70.394557
v 187.453232 29.201141 70.394557
v 244.345618 29.201141 70.394557
v 244.345618 29.864288 71.057692
v 187.453232 29.864288 71.057692
v 187.453232 29.864288 74.152847
v 244.345618 29.864288 74.152847
v 244.345618 29.201141 74.815982
v 187.453232 29.201141 74.815982
v 187.453232 7.522716 74.815982
v 244.345618 7.522716 74.815982
v 244.345618 6.859566 74.152847
v 187.453232 6.859566 74.152847
v 187.453232 6.859566 71.057692
v 244.345618 6.859566 71.057692
v 248.767055 6.639632 75.762365
v 248.767055 6.639632 -47.074636
v 248.767055 38.632758 -47.074636
v 248.767055 38.632758 75.762365
v 248.103920 39.295905 75.261151
v 248.103920 39.295905 -46.573445
v 245.008771 39.295905 -46.573445
v 245.008771 39.295905 75.261151
v 244.345624 38.632758 75.762365
v 244.345624 38.632758 -47.074636
v 244.345624 6.639632 -47.074636
v 244.345624 6.639632 75.762365
v 245.008771 5.976482 75.591095
v 245.008771 5.976482 -46.573445
v 248.103920 5.976482 -46.573445
v 248.103920 5.976482 75.591095
vt 0.416662 0.790174
vt 0.412140 0.790555
vt 0.412054 0.804840
vt 0.412140 0.809347
vt 0.425878 0.809728
vt 0.430400 0.790555
vt 0.430400 0.809347
vt 0.430485 0.804840
vt 0.430485 0.790174
vt 0.412054 0.790174
vt 0.412054 0.809728
vt 0.430485 0.809728
vt 0.430485 0.795062
vt 0.412054 0.795062
vt 0.425878 0.790174
vt 0.412054 0.790174
vt 0.412054 0.809728
vt 0.430485 0.790174
vt 0.416662 0.809728
vt 0.430485 0.809728
vt 0.413060 0.791739
vt 0.413060 0.808092
vt 0.429641 0.808092
vt 0.429641 0.791739
vt 0.413060 0.791739
vt 0.429641 0.791739
vt 0.429641 0.808092
vt 0.413060 0.808092
vt 0.413060 0.791739
vt 0.429641 0.791739
vt 0.429641 0.808091
vt 0.413060 0.808091
vt 0.413060 0.806073
vt 0.429641 0.806073
vt 0.429641 0.793758
vt 0.413060 0.793758
vt 0.413060 0.791739
vt 0.429641 0.791739
vt 0.429641 0.808092
vt 0.413060 0.808092
vt 0.413060 0.806073
vt 0.429641 0.806073
vt 0.429641 0.793758
vt 0.413060 0.793758
vt 0.413060 0.791119
vt 0.429641 0.791119
vt 0.413060 0.791739
vt 0.413060 0.808091
vt 0.429641 0.808091
vt 0.429641 0.791739
vt 0.413060 0.806073
vt 0.413060 0.793758
vt 0.429641 0.793758
vt 0.429641 0.806073
vt 0.413060 0.791739
vt 0.413060 0.808092
vt 0.429641 0.808092
vt 0.429641 0.791739
vt 0.413060 0.806073
vt 0.413060 0.793758
vt 0.429641 0.793758
vt 0.429641 0.806073
vt 0.429641 0.791119
vt 0.413060 0.791119
vt 0.413060 0.791739
vt 0.429641 0.791739
vt 0.429641 0.808091
vt 0.413060 0.808091
vt 0.413060 0.806073
vt 0.429641 0.806073
vt 0.429641 0.793758
vt 0.413060 0.793758
vt 0.413060 0.791739
vt 0.429641 0.791739
vt 0.429641 0.808092
vt 0.413060 0.808092
vt 0.413060 0.806073
vt 0.429641 0.806073
vt 0.429641 0.793758
vt 0.413060 0.793758
vt 0.413060 0.791119
vt 0.429641 0.791119
vt 0.413060 0.791739
vt 0.429641 0.791739
vt 0.429641 0.808091
vt 0.413060 0.808091
vt 0.413060 0.806073
vt 0.429641 0.806073
vt 0.429641 0.793758
vt 0.413060 0.793758
vt 0.413060 0.791739
vt 0.429641 0.791739
vt 0.429641 0.808092
vt 0.413060 0.808092
vt 0.413060 0.806073
vt 0.429641 0.806073
vt 0.429641 0.793758
vt 0.413060 0.793758
vt 0.413060 0.791119
vt 0.429641 0.791119
vn 0.707105 -0.707109 0.000000
vn 0.707105 -0.707109 0.000000
vn 0.707105 -0.707109 0.000000
vn 0.707105 -0.707109 0.000000
vn 0.707095 0.000000 0.707118
vn 0.707095 0.000000 0.707118
vn 0.707095 0.000000 0.707118
vn 0.707095 0.000000 0.707118
vn 0.707105 0.000000 -0.707108
vn 0.707105 0.000000 -0.707108
vn 0.707105 0.000000 -0.707108
vn 0.707105 0.000000 -0.707108
vn 0.707103 0.707110 0.000000
vn 0.707103 0.707111 0.000000
vn 0.707103 0.707110 0.000000
vn 0.707103 0.707110 0.000000
vn 1.000000 0.000000 0.000000
vn 1.000000 0.000000 0.000000
vn 1.000000 0.000000 0.000000
vn 1.000000 0.000000 0.000000
vn 0.000000 1.000000 0.000000
vn 0.000000 1.000000 0.000000
vn 0.000000 1.000000 0.000000
vn 0.000000 1.000000 0.000000
vn 0.000000 -1.000000 0.000000
vn 0.000000 -1.000000 0.000000
vn 0.000000 -1.000000 0.000000
vn 0.000000 -1.000000 0.000000
vn 0.000000 0.000000 -1.000000
vn 0.000000 0.000000 -1.000000
vn 0.000000 0.000000 -1.000000
vn 0.000000 0.000000 -1.000000
vn -0.000000 0.000000 1.000000
vn -0.000000 0.000000 1.000000
vn -0.000000 0.000000 1.000000
vn -0.000000 0.000000 1.000000
vn 0.000000 1.000000 0.000000
vn 0.000000 1.000000 0.000000
vn 0.000000 1.000000 0.000000
vn 0.000000 1.000000 0.000000
vn 0.000000 -1.000000 0.000000
vn 0.000000 -1.000000 0.000000
vn 0.000000 -1.000000 0.000000
vn 0.000000 -1.000000 0.000000
vn 1.000000 0.000000 0.000000
vn 1.000000 0.000000 0.000000
vn 1.000000 0.000000 0.000000
vn 1.000000 0.000000 0.000000
vn 0.000000 1.000000 0.000000
vn 0.000000 1.000000 0.000000
vn 0.000000 1.000000 0.000000
vn 0.000000 1.000000 0.000000
vn -1.000000 0.000000 -0.000000
vn -1.000000 0.000000 -0.000000
vn -1.000000 0.000000 -0.000000
vn -1.000000 0.000000 -0.000000
vn 0.000000 -1.000000 0.000000
vn 0.000000 -1.000000 0.000000
vn 0.000000 -1.000000 0.000000
vn 0.000000 -1.000000 0.000000
vn 0.707114 -0.707099 0.000000
vn 0.707114 -0.707099 0.000000
vn 0.707114 -0.707099 0.000000
vn 0.707114 -0.707099 0.000000
vn 0.707112 0.707102 0.000000
vn 0.707112 0.707102 0.000000
vn 0.707112 0.707102 0.000000
vn 0.707112 0.707102 0.000000
vn -0.707106 0.707108 -0.000000
vn -0.707106 0.707108 -0.000000
vn -0.707106 0.707108 -0.000000
vn -0.707106 0.707108 -0.000000
vn -0.707108 -0.707105 -0.000000
vn -0.707108 -0.707105 -0.000000
vn -0.707108 -0.707105 -0.000000
vn -0.707108 -0.707105 -0.000000
vn -0.000000 0.010089 0.999949
vn -0.000000 0.602952 0.797777
vn -0.000000 0.602952 0.797777
vn -0.000000 0.010089 0.999949
vn 0.000000 0.010089 -0.999949
vn 0.000000 0.010089 -0.999949
vn 0.000000 0.602946 -0.797782
vn 0.000000 0.602946 -0.797782
vn 0.000000 -0.010089 -0.999949
vn 0.000000 -0.010089 -0.999949
vn 0.000000 -0.602944 -0.797783
vn 0.000000 -0.602944 -0.797783
vn -0.000000 -0.010089 0.999949
vn -0.000000 -0.010089 0.999949
vn -0.000000 -0.602947 0.797781
vn -0.000000 -0.602947 0.797781
vn -0.000000 0.000000 1.000000
vn -0.000000 0.000000 1.000000
vn -0.000000 0.000000 1.000000
vn -0.000000 0.000000 1.000000
vn -0.000000 1.000000 -0.000000
vn -0.000000 1.000000 -0.000000
vn -0.000000 1.000000 -0.000000
vn -0.000000 1.000000 -0.000000
vn 0.000000 0.000000 -1.000000
vn 0.000000 0.000000 -1.000000
vn 0.000000 0.000000 -1.000000
vn 0.000000 0.000000 -1.000000
vn 0.000000 -1.000000 0.000000
vn 0.000000 -1.000000 0.000000
vn 0.000000 -1.000000 0.000000
vn 0.000000 -1.000000 0.000000
vn 0.000000 -0.707105 0.707108
vn 0.000000 -0.707105 0.707108
vn 0.000000 -0.707105 0.707108
vn 0.000000 -0.707105 0.707108
vn 0.000000 0.707107 0.707107
vn 0.000000 0.707107 0.707107
vn 0.000000 0.707107 0.707107
vn 0.000000 0.707107 0.707107
vn -0.000000 0.707094 -0.707119
vn -0.000000 0.707094 -0.707119
vn -0.000000 0.707094 -0.707119
vn -0.000000 0.707094 -0.707119
vn -0.000000 -0.707093 -0.707121
vn -0.000000 -0.707093 -0.707121
vn -0.000000 -0.707093 -0.707121
vn -0.000000 -0.707093 -0.707121
vn 0.000000 0.000000 -1.000000
vn 0.000000 0.000000 -1.000000
vn 0.000000 0.000000 -1.000000
vn 0.000000 0.000000 -1.000000
vn 0.000000 1.000000 0.000000
vn 0.000000 1.000000 0.000000
vn 0.000000 1.000000 0.000000
vn 0.000000 1.000000 0.000000
vn -0.000000 0.000000 1.000000
vn -0.000000 0.000000 1.000000
vn -0.000000 0.000000 1.000000
vn -0.000000 0.000000 1.000000
vn 0.000000 -1.000000 0.000000
vn 0.000000 -1.000000 0.000000
vn 0.000000 -1.000000 0.000000
vn 0.000000 -1.000000 0.000000
vn 0.000000 -0.707100 -0.707114
vn 0.000000 -0.707100 -0.707114
vn 0.000000 -0.707100 -0.707114
vn 0.000000 -0.707100 -0.707114
vn 0.000000 0.707101 -0.707112
vn 0.000000 0.707101 -0.707112
vn 0.000000 0.707101 -0.707112
vn 0.000000 0.707101 -0.707112
vn -0.000000 0.707101 0.707112
vn -0.000000 0.707101 0.707112
vn -0.000000 0.707101 0.707112
vn -0.000000 0.707101 0.707112
vn -0.000000 -0.707100 0.707114
vn -0.000000 -0.707100 0.707114
vn -0.000000 -0.707100 0.707114
vn -0.000000 -0.707100 0.707114
vn 1.000000 0.000000 0.000000
vn 1.000000 0.000000 0.000000
vn 1.000000 0.000000 0.000000
vn 1.000000 0.000000 0.000000
vn 0.000000 1.000000 0.000000
vn 0.000000 1.000000 0.000000
vn 0.000000 1.000000 0.000000
vn 0.000000 1.000000 0.000000
vn -1.000000 0.000000 -0.000000
vn -1.000000 0.000000 -0.000000
vn -1.000000 0.000000 -0.000000
vn -1.000000 0.000000 -0.000000
vn 0.000000 -1.000000 0.000000
vn 0.000000 -1.000000 0.000000
vn 0.000000 -1.000000 0.000000
vn 0.000000 -1.000000 0.000000
vn 0.707114 -0.707099 0.000000
vn 0.707114 -0.707099 0.000000
vn 0.707115 -0.707099 0.000000
vn 0.707114 -0.707099 0.000000
vn 0.707114 0.707100 0.000000
vn 0.707114 0.707100 0.000000
vn 0.707114 0.707100 0.000000
vn 0.707114 0.707100 0.000000
vn -0.707108 0.707106 -0.000000
vn -0.707108 0.707106 -0.000000
vn -0.707108 0.707106 -0.000000
vn -0.707108 0.707106 -0.000000
vn -0.707108 -0.707105 -0.000000
vn -0.707108 -0.707105 -0.000000
vn -0.707108 -0.707105 -0.000000
vn -0.707108 -0.707105 -0.000000
vn -0.000000 0.007532 0.999972
vn -0.000000 0.602959 0.797772
vn -0.000000 0.602959 0.797772
vn -0.000000 0.007532 0.999972
vn 0.000000 0.007532 -0.999972
vn 0.000000 0.007532 -0.999972
vn 0.000000 0.602945 -0.797783
vn 0.000000 0.602945 -0.797783
vn 0.000000 -0.007532 -0.999972
vn 0.000000 -0.007532 -0.999972
vn 0.000000 -0.602944 -0.797783
vn 0.000000 -0.602944 -0.797784
vn -0.000000 -0.002301 0.999997
vn -0.000000 -0.002301 0.999997
vn -0.000000 -0.250055 0.968232
vn -0.000000 -0.250055 0.968232
f 5/2/1 6/1/2 8/15/3 7/6/4
f 6/1/5 5/2/6 9/4/7 10/3/8
f 7/6/9 8/15/10 12/5/11 11/7/12
f 10/3/13 9/4/14 11/7/15 12/5/16
f 5/2/17 7/6/18 11/7/19 9/4/20
f 10/3/21 12/8/22 2/9/23 1/10/24
f 3/11/25 4/12/26 8/13/27 6/14/28
f 8/15/29 4/16/30 2/17/31 12/5/32
f 3/18/33 6/1/34 10/19/35 1/20/36
f 13/21/37 16/22/38 15/23/39 14/24/40
f 17/25/41 18/26/42 19/27/43 20/28/44
f 21/29/45 22/30/46 23/31/47 24/32/48
f 25/33/49 26/34/50 27/35/51 28/36/52
f 29/37/53 30/38/54 31/39/55 32/40/56
f 33/41/57 34/42/58 35/43/59 36/44/60
f 21/29/61 36/45/62 35/46/63 22/30/64
f 25/33/65 24/32/66 23/31/67 26/34/68
f 29/37/69 28/36/70 27/35/71 30/38/72
f 33/41/73 32/40/74 31/39/75 34/42/76
f 24/32/77 25/33/78 28/36/79 29/37/80
f 23/31/81 30/38/82 27/35/83 26/34/84
f 31/39/85 30/38/82 23/31/81 22/30/86
f 31/39/85 22/30/86 35/43/87 34/42/88
f 24/32/77 29/37/80 32/40/89 21/29/90
f 21/29/90 32/40/89 33/41/91 36/45/92
f 37/47/93 40/48/94 39/49/95 38/50/96
f 41/51/97 44/52/98 43/53/99 42/54/100
f 45/55/101 48/56/102 47/57/103 46/58/104
f 49/59/105 52/60/106 51/61/107 50/62/108
f 37/47/109 38/50/110 51/63/111 52/64/112
f 41/51/113 42/54/114 39/49/115 40/48/116
f 45/55/117 46/58/118 43/53/119 44/52/120
f 49/59/121 50/62/122 47/57/123 48/56/124
f 53/65/125 54/66/126 55/67/127 56/68/128
f 57/69/129 58/70/130 59/71/131 60/72/132
f 61/73/133 62/74/134 63/75/135 64/76/136
f 65/77/137 66/78/138 67/79/139 68/80/140
f 53/65/141 68/81/142 67/82/143 54/66/144
f 57/69/145 56/68/146 55/67/147 58/70/148
f 61/73/149 60/72/150 59/71/151 62/74/152
f 65/77/153 64/76/154 63/75/155 66/78/156
f 69/83/157 70/84/158 71/85/159 72/86/160
f 73/87/161 74/88/162 75/89/163 76/90/164
f 77/91/165 78/92/166 79/93/167 80/94/168
f 81/95/169 82/96/170 83/97/171 84/98/172
f 69/83/173 84/99/174 83/100/175 70/84/176
f 73/87/177 72/86/178 71/85/179 74/88/180
f 77/91/181 76/90/182 75/89/183 78/92/184
f 81/95/185 80/94/186 79/93/187 82/96/188
f 72/86/189 73/87/190 76/90/191 77/91/192
f 71/85/193 78/92/194 75/89/195 74/88/196
f 79/93/197 78/92/194 71/85/193 70/84/198
f 79/93/197 70/84/198 83/97/199 82/96/200
f 72/86/189 77/91/192 80/94/201 69/83/202
f 69/83/202 80/94/201 81/95/203 84/99/204
