# This file uses meters as units for non-parametric coordinates.

v 152.679138 30.596970 -10.334682
v 152.679138 194.833008 -10.334682
v 152.679138 194.833008 -81.282948
v 152.679138 30.596970 -81.282948
v 158.478226 31.699028 -11.250641
v 157.165726 30.596970 -10.334682
v 157.165726 194.833008 -10.334682
v 158.478226 193.730942 -11.250641
v 157.165726 194.833008 -81.282948
v 158.478226 193.730942 -80.366985
v 157.165726 30.596970 -81.282948
v 158.478226 31.699028 -80.366985
v 156.222610 39.008224 -17.533947
v 156.222610 186.421753 -17.533947
v 156.222610 39.008217 -74.083675
v 156.222610 186.421753 -74.083675
v 158.478226 186.985596 -74.647526
v 157.914383 186.421753 -74.083675
v 158.478226 186.985596 -16.970100
v 157.914383 186.421753 -17.533947
v 158.478226 38.444382 -16.970100
v 157.914383 39.008224 -17.533947
v 158.478226 38.444366 -74.647526
v 157.914383 39.008217 -74.083675
vt 0.743541 0.055506
vt 0.634311 0.055506
vt 0.740259 0.055506
vt 0.637593 0.055506
vt 0.637593 0.055506
vt 0.740259 0.055506
vt 0.742123 0.055506
vt 0.635729 0.055506
vt 0.743541 0.008315
vt 0.634311 0.043710
vt 0.634311 0.008315
vt 0.743541 0.043710
vt 0.743541 0.008315
vt 0.634311 0.043710
vt 0.634311 0.008315
vt 0.743541 0.043710
vt 0.742123 0.054089
vt 0.640158 0.050418
vt 0.737693 0.013404
vt 0.635729 0.009733
vt 0.635729 0.054089
vt 0.640158 0.013404
vt 0.737695 0.050418
vt 0.742123 0.009733
vt 0.737324 0.050056
vt 0.640529 0.050056
vt 0.737324 0.013766
vt 0.737324 0.050056
vt 0.640529 0.013766
vt 0.737324 0.013766
vt 0.640529 0.050056
vt 0.640529 0.013766
vn -1.000000 0.000000 0.000000
vn -1.000000 0.000000 0.000000
vn -1.000000 0.000000 0.000000
vn -1.000000 0.000000 0.000000
vn 0.643041 -0.765832 0.000000
vn 0.643041 -0.765832 0.000000
vn 0.643041 -0.765832 0.000000
vn 0.643041 -0.765832 0.000000
vn 0.572290 0.000000 0.820052
vn 0.572290 0.000000 0.820052
vn 0.572290 0.000000 0.820052
vn 0.572290 0.000000 0.820052
vn 0.643044 0.765830 0.000000
vn 0.643044 0.765830 0.000000
vn 0.643044 0.765830 0.000000
vn 0.643044 0.765830 0.000000
vn 0.572292 0.000000 -0.820050
vn 0.572292 0.000000 -0.820050
vn 0.572292 0.000000 -0.820050
vn 0.572292 0.000000 -0.820050
vn 0.000000 0.000000 1.000000
vn 0.000000 0.000000 1.000000
vn 0.000000 0.000000 1.000000
vn 0.000000 0.000000 1.000000
vn 0.000000 1.000000 0.000000
vn 0.000000 1.000000 0.000000
vn 0.000000 1.000000 0.000000
vn 0.000000 1.000000 0.000000
vn 0.000000 0.000000 -1.000000
vn 0.000000 0.000000 -1.000000
vn 0.000000 0.000000 -1.000000
vn 0.000000 0.000000 -1.000000
vn 0.000000 -1.000000 0.000000
vn 0.000000 -1.000000 0.000000
vn 0.000000 -1.000000 0.000000
vn 0.000000 -1.000000 0.000000
vn 1.000000 0.000000 0.000000
vn 1.000000 0.000000 0.000000
vn 1.000000 0.000000 0.000000
vn 1.000000 0.000000 0.000000
vn 0.707111 0.000000 0.707102
vn 0.707111 0.000000 0.707102
vn 0.707111 0.000000 0.707102
vn 0.707111 0.000000 0.707102
vn 0.707107 -0.707107 0.000000
vn 0.707107 -0.707107 0.000000
vn 0.707107 -0.707107 0.000000
vn 0.707107 -0.707107 0.000000
vn 0.707109 0.000000 -0.707105
vn 0.707109 0.000000 -0.707104
vn 0.707109 0.000000 -0.707104
vn 0.707109 0.000000 -0.707105
vn 0.707109 0.707104 -0.000000
vn 0.707109 0.707104 -0.000000
vn 0.707109 0.707104 -0.000000
vn 0.707109 0.707104 -0.000000
vn 1.000000 0.000000 0.000000
vn 1.000000 0.000000 0.000000
vn 1.000000 -0.000000 0.000000
vn 1.000000 -0.000000 0.000000
vn 1.000000 0.000000 0.000000
vn 1.000000 0.000000 0.000000
vn 1.000000 -0.000000 0.000000
vn 1.000000 -0.000000 0.000000
vn 0.000000 0.000000 -1.000000
vn 0.000000 0.000000 -1.000000
vn 0.000000 0.000000 -1.000000
vn 0.000000 0.000000 -1.000000
vn 0.000000 1.000000 -0.000000
vn 0.000000 1.000000 -0.000000
vn 0.000000 1.000000 -0.000000
vn 0.000000 1.000000 -0.000000
vn 0.000000 0.000000 1.000000
vn 0.000000 0.000000 1.000000
vn 0.000000 0.000000 1.000000
vn 0.000000 0.000000 1.000000
vn 0.000000 -1.000000 0.000000
vn 0.000000 -1.000000 0.000000
vn 0.000000 -1.000000 0.000000
vn 0.000000 -1.000000 0.000000
f 4/1/1 1/9/2 2/11/3 3/2/4
f 5/3/5 6/16/6 11/14/7 12/4/8
f 6/16/9 5/17/10 8/21/11 7/10/12
f 7/10/13 8/5/14 10/6/15 9/12/16
f 12/8/17 11/14/18 9/12/19 10/7/20
f 1/9/21 6/16/22 7/10/23 2/11/24
f 2/11/25 7/10/26 9/12/27 3/13/28
f 11/14/29 4/15/30 3/13/31 9/12/32
f 6/16/33 1/9/34 4/15/35 11/14/36
f 14/26/37 13/28/38 15/30/39 16/32/40
f 17/22/41 18/29/42 24/27/43 23/19/44
f 18/29/45 17/22/46 19/18/47 20/31/48
f 20/31/49 19/18/50 21/23/51 22/25/52
f 22/25/53 21/23/54 23/19/55 24/27/56
f 5/17/57 21/23/58 19/18/59 8/21/60
f 23/19/61 12/24/62 10/20/63 17/22/64
f 10/20/63 8/21/60 19/18/59 17/22/64
f 21/23/58 5/17/57 12/24/62 23/19/61
f 20/31/65 22/25/66 13/28/67 14/26/68
f 22/25/69 24/27/70 15/30/71 13/28/72
f 24/27/73 18/29/74 16/32/75 15/30/76
f 18/29/77 20/31/78 14/26/79 16/32/80
