# This file uses meters as units for non-parametric coordinates.

v 196.293620 82.576096 -116.538696
v 196.467341 82.398613 -116.582687
v 195.196284 82.576096 -119.229401
v 195.339824 82.398613 -119.347466
v 193.874873 82.398613 -120.310028
v 193.697383 82.576096 -120.214272
v 193.697383 82.576096 -105.511925
v 193.874873 82.398613 -105.416168
v 195.196284 82.576096 -106.496788
v 195.339824 82.398613 -106.378723
v 196.293620 82.576096 -109.187508
v 196.467341 82.398613 -109.143509
v 196.695231 82.576096 -112.863098
v 196.873759 82.398613 -112.863098
v 196.293620 86.220314 -116.538696
v 196.467341 86.397797 -116.582687
v 195.196284 86.220314 -119.229401
v 195.339824 86.397797 -119.347466
v 193.697383 86.220314 -120.214272
v 193.874873 86.397797 -120.310028
v 193.874873 86.397797 -105.416168
v 193.697383 86.220314 -105.511925
v 195.196284 86.220314 -106.496788
v 195.339824 86.397797 -106.378723
v 196.293620 86.220314 -109.187508
v 196.467341 86.397797 -109.143509
v 196.695231 86.220314 -112.863098
v 196.873759 86.397797 -112.863098
v 197.351710 82.398613 -116.804047
v 197.525096 82.576096 -116.850548
v 196.142405 82.576096 -120.007629
v 196.002665 82.398613 -119.884254
v 196.002665 86.397797 -119.884254
v 196.142405 86.220314 -120.007629
v 197.525096 86.220314 -116.850548
v 197.351710 86.397797 -116.804047
v 193.874873 82.398613 -121.151115
v 193.697383 82.576096 -121.463394
v 193.697383 86.220314 -121.463394
v 193.874873 86.397797 -121.151115
v 193.874873 82.398613 -104.575066
v 193.697383 82.576096 -104.262817
v 196.142405 82.576096 -105.718559
v 196.002665 82.398613 -105.841934
v 193.874873 86.397797 -104.575066
v 193.697383 86.220314 -104.262817
v 196.002665 86.397797 -105.841934
v 196.142405 86.220314 -105.718559
v 197.525096 82.576096 -108.875648
v 197.351710 82.398613 -108.922150
v 197.351710 86.397797 -108.922150
v 197.525096 86.220314 -108.875648
v 197.970393 82.576096 -112.863098
v 197.791819 82.398613 -112.863098
v 197.791819 86.397797 -112.863098
v 197.970393 86.220314 -112.863098
v 192.018687 83.584946 -116.013382
v 192.018687 83.828903 -115.769424
v 196.760875 83.828903 -115.769424
v 196.760875 83.584946 -116.013382
v 192.018687 84.967514 -115.769424
v 192.018687 85.211472 -116.013382
v 196.760875 85.211472 -116.013382
v 196.760875 84.967514 -115.769424
v 192.018687 85.211472 -117.151993
v 192.018687 84.967514 -117.395950
v 196.760875 84.967514 -117.395950
v 196.760875 85.211472 -117.151993
v 192.018687 83.828903 -117.395950
v 192.018687 83.584946 -117.151993
v 196.760875 83.584946 -117.151993
v 196.760875 83.828903 -117.395950
v 192.018687 83.584946 -108.306335
v 192.018687 83.828903 -108.062378
v 196.760875 83.828903 -108.062378
v 196.760875 83.584946 -108.306335
v 192.018687 84.967514 -108.062378
v 192.018687 85.211472 -108.306335
v 196.760875 85.211472 -108.306335
v 196.760875 84.967514 -108.062378
v 192.018687 85.211472 -109.444962
v 192.018687 84.967514 -109.688919
v 196.760875 84.967514 -109.688919
v 196.760875 85.211472 -109.444962
v 192.018687 83.828903 -109.688919
v 192.018687 83.584946 -109.444962
v 196.760875 83.584946 -109.444962
v 196.760875 83.828903 -109.688919
vt 0.579526 0.083529
vt 0.579526 0.082373
vt 0.566195 0.082373
vt 0.566195 0.083529
vt 0.592856 0.083529
vt 0.592856 0.082373
vt 0.606187 0.083529
vt 0.605475 0.082373
vt 0.605219 0.082373
vt 0.606187 0.083529
vt 0.605219 0.082373
vt 0.526203 0.083529
vt 0.527171 0.082373
vt 0.527171 0.082373
vt 0.526203 0.083529
vt 0.526915 0.082373
vt 0.539534 0.083529
vt 0.539534 0.082373
vt 0.552864 0.083529
vt 0.552864 0.082373
vt 0.579526 0.107258
vt 0.579526 0.108414
vt 0.592856 0.108414
vt 0.592856 0.107258
vt 0.566195 0.107258
vt 0.566195 0.108414
vt 0.605475 0.108414
vt 0.606187 0.107258
vt 0.605219 0.108414
vt 0.605219 0.108414
vt 0.606187 0.107258
vt 0.527171 0.108414
vt 0.526203 0.107258
vt 0.526203 0.107258
vt 0.527171 0.108414
vt 0.526915 0.108414
vt 0.539534 0.108414
vt 0.539534 0.107258
vt 0.552864 0.108414
vt 0.552864 0.107258
vt 0.579517 0.082373
vt 0.579526 0.083529
vt 0.566195 0.083529
vt 0.566195 0.082373
vt 0.592830 0.082373
vt 0.592856 0.083529
vt 0.592830 0.108414
vt 0.592856 0.107258
vt 0.579517 0.108414
vt 0.579526 0.107258
vt 0.566195 0.108414
vt 0.566195 0.107258
vt 0.539560 0.082373
vt 0.539534 0.083529
vt 0.552873 0.082373
vt 0.552864 0.083529
vt 0.539533 0.107258
vt 0.539560 0.108414
vt 0.552864 0.107258
vt 0.552873 0.108414
vt 0.567978 0.079394
vt 0.530197 0.105842
vt 0.567978 0.105842
vt 0.530197 0.079394
vt 0.567978 0.105842
vt 0.567978 0.079394
vt 0.530197 0.079394
vt 0.567978 0.079394
vt 0.530197 0.105842
vt 0.567978 0.079394
vt 0.530197 0.105842
vt 0.567978 0.105842
vt 0.530197 0.079394
vt 0.567978 0.105842
vt 0.567978 0.079394
vt 0.530197 0.079394
vt 0.567978 0.079394
vt 0.530197 0.105842
vt 0.530197 0.079394
vt 0.530197 0.073727
vt 0.567978 0.073727
vt 0.530197 0.105842
vt 0.567978 0.105842
vt 0.530197 0.079394
vt 0.567978 0.079394
vt 0.530197 0.105842
vt 0.567978 0.105842
vt 0.530197 0.079394
vt 0.530197 0.073727
vt 0.567978 0.073727
vt 0.530197 0.105842
vt 0.567978 0.105842
vt 0.530197 0.079394
vt 0.567978 0.079394
vt 0.530197 0.105842
vt 0.567978 0.105842
vn 0.000000 0.000000 1.000000
vn 0.000000 0.000000 1.000000
vn 0.000000 0.000000 1.000000
vn 0.000000 0.000000 1.000000
vn 0.000000 1.000000 0.000000
vn 0.000000 1.000000 0.000000
vn 0.000000 1.000000 0.000000
vn 0.000000 1.000000 0.000000
vn 0.000000 0.000000 -1.000000
vn 0.000000 0.000000 -1.000000
vn 0.000000 0.000000 -1.000000
vn 0.000000 0.000000 -1.000000
vn 0.000000 -1.000000 0.000000
vn 0.000000 -1.000000 0.000000
vn 0.000000 -1.000000 0.000000
vn 0.000000 -1.000000 0.000000
vn 0.000000 0.000000 1.000000
vn 0.000000 0.000000 1.000000
vn 0.000000 0.000000 1.000000
vn 0.000000 0.000000 1.000000
vn 0.000000 1.000000 0.000000
vn 0.000000 1.000000 0.000000
vn 0.000000 1.000000 0.000000
vn 0.000000 1.000000 0.000000
vn 0.000000 0.000000 -1.000000
vn 0.000000 0.000000 -1.000000
vn 0.000000 0.000000 -1.000000
vn 0.000000 0.000000 -1.000000
vn 0.000000 -1.000000 0.000000
vn 0.000000 -1.000000 0.000000
vn 0.000000 -1.000000 0.000000
vn 0.000000 -1.000000 0.000000
vn -0.684916 -0.710464 0.161651
vn -0.684917 -0.710464 0.161649
vn -0.705042 -0.709165 0.000000
vn -0.705042 -0.709165 0.000000
vn -0.566442 -0.722158 0.397030
vn -0.566444 -0.722157 0.397026
vn -0.388285 -0.707102 0.590966
vn -0.388285 -0.707102 0.590966
vn -0.707081 -0.707132 0.000000
vn -0.707081 -0.707132 0.000000
vn -0.707081 -0.707132 0.000000
vn -0.707081 -0.707132 0.000000
vn -0.707081 -0.707132 0.000000
vn -0.707081 -0.707132 0.000000
vn -0.707081 -0.707132 0.000000
vn -0.707081 -0.707132 0.000000
vn -0.388289 -0.707110 -0.590955
vn -0.388289 -0.707110 -0.590955
vn -0.566442 -0.722160 -0.397026
vn -0.566445 -0.722159 -0.397022
vn -0.684917 -0.710464 -0.161649
vn -0.684916 -0.710464 -0.161651
vn -0.684917 0.710464 0.161646
vn -0.684917 0.710464 0.161645
vn -0.566446 0.722161 0.397016
vn -0.566444 0.722161 0.397020
vn -0.705042 0.709165 0.000000
vn -0.705042 0.709165 0.000000
vn -0.388289 0.707110 0.590955
vn -0.388289 0.707110 0.590955
vn -0.707081 0.707132 0.000000
vn -0.707081 0.707132 0.000000
vn -0.707081 0.707132 0.000000
vn -0.707081 0.707132 0.000000
vn -0.707081 0.707132 0.000000
vn -0.707081 0.707132 0.000000
vn -0.707081 0.707132 0.000000
vn -0.707081 0.707132 0.000000
vn -0.388289 0.707110 -0.590955
vn -0.388289 0.707110 -0.590955
vn -0.566445 0.722159 -0.397022
vn -0.566442 0.722160 -0.397025
vn -0.684916 0.710464 -0.161651
vn -0.684917 0.710464 -0.161649
vn 0.681218 -0.711117 -0.173939
vn 0.681217 -0.711117 -0.173941
vn 0.704914 -0.709292 0.000000
vn 0.704914 -0.709292 0.000000
vn 0.534658 -0.723980 -0.435882
vn 0.534659 -0.723980 -0.435881
vn 0.361713 -0.707155 -0.607533
vn 0.361713 -0.707155 -0.607533
vn 0.534656 0.723979 -0.435888
vn 0.534657 0.723979 -0.435887
vn 0.361713 0.707155 -0.607533
vn 0.361713 0.707155 -0.607533
vn 0.681217 0.711117 -0.173943
vn 0.681217 0.711117 -0.173945
vn 0.704914 0.709292 0.000000
vn 0.704914 0.709292 0.000000
vn 0.361719 -0.707133 0.607554
vn 0.361719 -0.707133 0.607554
vn 0.534681 -0.723951 0.435903
vn 0.534682 -0.723951 0.435902
vn 0.681235 -0.711100 0.173943
vn 0.681234 -0.711100 0.173945
vn 0.361714 0.707145 0.607544
vn 0.361714 0.707145 0.607544
vn 0.534676 0.723953 0.435906
vn 0.534675 0.723953 0.435907
vn 0.681233 0.711099 0.173953
vn 0.681234 0.711099 0.173951
vn 0.968792 0.000000 -0.247874
vn 0.769559 0.000000 -0.638576
vn 0.769559 0.000000 -0.638576
vn 0.968792 0.000000 -0.247874
vn 0.511586 0.000000 -0.859232
vn 0.511586 0.000000 -0.859232
vn 0.511582 0.000000 0.859235
vn 0.769558 0.000000 0.638577
vn 0.769558 0.000000 0.638577
vn 0.511582 0.000000 0.859235
vn 0.968792 0.000000 0.247873
vn 0.968792 0.000000 0.247873
vn 1.000000 0.000000 -0.000000
vn 1.000000 0.000000 -0.000000
vn -0.973383 0.000000 0.229183
vn -0.973383 0.000000 0.229183
vn -0.816788 0.000000 0.576938
vn -0.816788 0.000000 0.576938
vn -0.830404 0.000000 0.557162
vn -0.830404 0.000000 0.557162
vn -0.830402 0.000000 -0.557165
vn -0.830402 0.000000 -0.557165
vn -0.816789 0.000000 -0.576937
vn -0.816789 0.000000 -0.576937
vn -0.973383 0.000000 -0.229183
vn -0.973383 0.000000 -0.229183
vn -1.000000 0.000000 0.000000
vn -1.000000 0.000000 0.000000
vn 0.000000 -1.000000 0.000000
vn 0.000000 -1.000000 0.000001
vn 0.000000 -1.000000 0.000001
vn 0.000000 -1.000000 0.000000
vn 0.000000 1.000000 -0.000001
vn 0.000000 1.000000 0.000001
vn 0.000000 1.000000 0.000001
vn 0.000000 1.000000 -0.000001
vn 0.000000 -1.000000 0.000002
vn 0.000000 -1.000000 0.000002
vn -1.000000 0.000000 0.000000
vn -1.000000 0.000000 0.000000
vn 0.000000 1.000000 0.000000
vn 0.000000 1.000000 0.000000
vn 0.000000 -1.000000 0.000000
vn 0.000000 -1.000000 -0.000001
vn 0.000000 -1.000000 -0.000001
vn 0.000000 -1.000000 0.000000
vn 0.000000 1.000000 0.000001
vn 0.000000 1.000000 -0.000002
vn 0.000000 1.000000 -0.000002
vn 0.000000 1.000000 0.000001
vn -1.000000 0.000000 0.000000
vn -1.000000 0.000000 0.000000
vn 0.000000 -1.000000 -0.000001
vn 0.000000 -1.000000 -0.000001
vn 0.000000 1.000000 0.000001
vn 0.000000 1.000000 0.000001
vn 0.000000 -1.000000 0.000000
vn 0.000000 -1.000000 0.000000
vn 0.000000 1.000000 0.000001
vn 0.000000 1.000000 0.000001
vn 0.000000 -0.707108 0.707106
vn 0.000000 -0.707108 0.707106
vn 0.000000 -0.707108 0.707106
vn 0.000000 -0.707108 0.707106
vn 0.000000 0.707108 0.707106
vn 0.000000 0.707108 0.707106
vn 0.000000 0.707108 0.707106
vn 0.000000 0.707108 0.707106
vn 0.000000 0.707108 -0.707106
vn 0.000000 0.707108 -0.707106
vn 0.000000 0.707108 -0.707106
vn 0.000000 0.707108 -0.707106
vn 0.000000 -0.707108 -0.707106
vn 0.000000 -0.707108 -0.707106
vn 0.000000 -0.707108 -0.707106
vn 0.000000 -0.707108 -0.707106
vn 0.000000 -0.707108 0.707106
vn 0.000000 -0.707108 0.707106
vn 0.000000 -0.707108 0.707106
vn 0.000000 -0.707108 0.707106
vn 0.000000 0.707108 0.707106
vn 0.000000 0.707108 0.707106
vn 0.000000 0.707108 0.707106
vn 0.000000 0.707108 0.707106
vn 0.000000 0.707108 -0.707106
vn 0.000000 0.707108 -0.707106
vn 0.000000 0.707108 -0.707106
vn 0.000000 0.707108 -0.707106
vn 0.000000 -0.707108 -0.707106
vn 0.000000 -0.707108 -0.707106
vn 0.000000 -0.707108 -0.707106
vn 0.000000 -0.707108 -0.707106
f 58/79/1 59/61/2 64/83/3 61/62/4
f 62/82/5 63/63/6 68/85/7 65/64/8
f 66/84/9 67/68/10 72/87/11 69/69/12
f 70/86/13 71/65/14 60/66/15 57/67/16
f 74/88/17 75/70/18 80/92/19 77/71/20
f 78/91/21 79/72/22 84/94/23 81/73/24
f 82/93/25 83/77/26 88/96/27 85/78/28
f 86/95/29 87/74/30 76/75/31 73/76/32
f 1/1/33 2/2/34 14/3/35 13/4/36
f 2/2/34 1/1/33 3/5/37 4/6/38
f 4/6/38 3/5/37 6/7/39 5/8/40
f 5/9/41 6/7/42 38/10/43 37/11/44
f 7/12/45 8/13/46 41/14/47 42/15/48
f 8/16/49 7/12/50 9/17/51 10/18/52
f 10/18/52 9/17/51 11/19/53 12/20/54
f 12/20/54 11/19/53 13/4/36 14/3/35
f 15/21/55 16/22/56 18/23/57 17/24/58
f 16/22/56 15/21/55 27/25/59 28/26/60
f 17/24/58 18/23/57 20/27/61 19/28/62
f 19/28/63 20/29/64 40/30/65 39/31/66
f 21/32/67 22/33/68 46/34/69 45/35/70
f 22/33/71 21/36/72 24/37/73 23/38/74
f 23/38/74 24/37/73 26/39/75 25/40/76
f 25/40/76 26/39/75 28/26/60 27/25/59
f 29/41/77 30/42/78 53/43/79 54/44/80
f 30/42/78 29/41/77 32/45/81 31/46/82
f 31/46/82 32/45/81 37/11/83 38/10/84
f 33/47/85 34/48/86 39/31/87 40/30/88
f 34/48/86 33/47/85 36/49/89 35/50/90
f 35/50/90 36/49/89 55/51/91 56/52/92
f 42/15/93 41/14/94 44/53/95 43/54/96
f 43/54/96 44/53/95 50/55/97 49/56/98
f 45/35/99 46/34/100 48/57/101 47/58/102
f 47/58/102 48/57/101 52/59/103 51/60/104
f 49/56/98 50/55/97 54/44/80 53/43/79
f 51/60/104 52/59/103 56/52/92 55/51/91
f 30/42/105 31/46/106 34/48/107 35/50/108
f 31/46/106 38/10/109 39/31/110 34/48/107
f 42/15/111 43/54/112 48/57/113 46/34/114
f 43/54/112 49/56/115 52/59/116 48/57/113
f 49/56/115 53/43/117 56/52/118 52/59/116
f 53/43/117 30/42/105 35/50/108 56/52/118
f 1/1/119 15/21/120 17/24/121 3/5/122
f 3/5/122 17/24/121 19/28/123 6/7/124
f 7/12/125 22/33/126 23/38/127 9/17/128
f 9/17/128 23/38/127 25/40/129 11/19/130
f 11/19/130 25/40/129 27/25/131 13/4/132
f 13/4/132 27/25/131 15/21/120 1/1/119
f 2/2/133 4/6/134 32/45/135 29/41/136
f 18/23/137 16/22/138 36/49/139 33/47/140
f 4/6/134 5/9/141 37/11/142 32/45/135
f 6/7/124 19/28/123 39/31/143 38/10/144
f 20/29/145 18/23/137 33/47/140 40/30/146
f 8/13/147 10/18/148 44/53/149 41/14/150
f 24/37/151 21/32/152 45/35/153 47/58/154
f 22/33/126 7/12/125 42/15/155 46/34/156
f 10/18/148 12/20/157 50/55/158 44/53/149
f 26/39/159 24/37/151 47/58/154 51/60/160
f 12/20/157 14/3/161 54/44/162 50/55/158
f 28/26/163 26/39/159 51/60/160 55/51/164
f 14/3/161 2/2/133 29/41/136 54/44/162
f 16/22/138 28/26/163 55/51/164 36/49/139
f 58/79/165 57/80/166 60/81/167 59/61/168
f 62/82/169 61/62/170 64/83/171 63/63/172
f 66/84/173 65/64/174 68/85/175 67/68/176
f 70/86/177 69/69/178 72/87/179 71/65/180
f 74/88/181 73/89/182 76/90/183 75/70/184
f 78/91/185 77/71/186 80/92/187 79/72/188
f 82/93/189 81/73/190 84/94/191 83/77/192
f 86/95/193 85/78/194 88/96/195 87/74/196
