# This file uses meters as units for non-parametric coordinates.

v -160.779800 2.877766 92.682953
v -156.389847 2.877766 92.682953
v -160.779800 25.970409 92.682953
v -156.389847 25.970409 92.682953
v -160.779800 25.970409 -66.291733
v -156.389847 25.970409 -66.291733
v -160.779800 2.877766 -66.291733
v -156.389847 2.877766 -66.291733
v 160.779800 2.877766 92.682953
v 156.389847 2.877766 92.682953
v 160.779800 25.970409 92.682953
v 156.389847 25.970409 92.682953
v 160.779800 25.970409 -66.291733
v 156.389847 25.970409 -66.291733
v 160.779800 2.877766 -66.291733
v 156.389847 2.877766 -66.291733
v 156.389832 2.877766 -66.291733
v 156.389832 2.877766 -62.411346
v 156.389832 25.970409 -66.291733
v 156.389832 25.970409 -62.411346
v -156.389862 25.970409 -66.291733
v -156.389862 25.970409 -62.411346
v -156.389862 2.877766 -66.291733
v -156.389862 2.877766 -62.411346
v -160.779800 -0.000001 92.657135
v -161.499176 0.719369 93.376495
v 0.000000 -0.000001 92.657135
v 0.000000 0.719369 93.376495
v -161.499176 2.158395 93.376495
v -160.779800 2.877765 92.657135
v 0.000000 2.877765 92.657135
v 0.000000 2.158395 93.376495
v -160.779800 2.877765 -67.071228
v -161.499176 2.158395 -67.790588
v 0.000000 2.877765 -67.071228
v 0.000000 2.158395 -67.790588
v -161.499176 0.719369 -67.790588
v -160.779800 -0.000001 -67.071228
v 0.000000 0.719369 -67.790588
v 0.000000 -0.000001 -67.071228
v 161.499176 2.158395 93.376495
v 160.779800 2.877765 92.657135
v 160.779800 2.877765 -67.071228
v 161.499176 2.158395 -67.790588
v 160.779800 -0.000001 92.657135
v 161.499176 0.719369 93.376495
v 161.499176 0.719369 -67.790588
v 160.779800 -0.000001 -67.071228
v -162.401962 32.122086 93.376465
v 0.000000 32.122093 93.376495
v -162.401962 -0.000004 93.376465
v 0.000000 0.000002 93.376495
v -77.483833 0.000000 93.376465
v -73.776077 32.122086 93.376465
v -81.191582 32.122086 93.376465
v -81.191582 28.712896 99.601440
v -81.191582 28.712896 93.376465
v -77.483833 28.712898 93.376465
v -73.776077 28.712898 93.376465
v -73.776077 28.712898 99.601440
v -79.898491 29.697531 93.376465
v -75.069168 29.697531 93.376465
v -161.715073 31.435202 99.601410
v -162.401962 32.122086 98.914520
v -81.191582 32.122086 98.914551
v -81.603714 31.435202 99.601440
v 0.000000 0.000002 98.914551
v -0.686886 0.686888 99.601440
v -77.483833 0.000000 98.914551
v -77.483833 0.686886 99.601440
v 0.000000 32.122093 98.914551
v -0.686886 31.435202 99.601440
v -73.363945 31.435202 99.601440
v -73.776077 32.122086 98.914551
v -162.401962 -0.000004 98.914520
v -161.715073 0.686882 99.601410
v -80.387741 29.155233 99.601440
v -79.898491 29.697531 98.914551
v -77.483833 27.971100 99.601440
v -77.483833 28.712898 98.914551
v -74.579918 29.155233 99.601440
v -75.069168 29.697531 98.914551
v 162.401962 32.122086 93.376465
v 0.000000 32.122093 93.376495
v 162.401962 -0.000004 93.376465
v 0.000000 0.000002 93.376495
v 77.483841 0.000000 93.376465
v 73.776077 32.122086 93.376465
v 81.191589 32.122086 93.376465
v 81.191589 28.712896 99.601440
v 81.191589 28.712896 93.376465
v 77.483841 28.712898 93.376465
v 73.776077 28.712898 93.376465
v 73.776077 28.712898 99.601440
v 79.898499 29.697531 93.376465
v 75.069168 29.697531 93.376465
v 161.715073 31.435202 99.601410
v 162.401962 32.122086 98.914520
v 81.191589 32.122086 98.914551
v 81.603714 31.435202 99.601440
v 0.000000 0.000002 98.914551
v 0.686886 0.686888 99.601440
v 77.483841 0.000000 98.914551
v 77.483841 0.686886 99.601440
v 0.000000 32.122093 98.914551
v 0.686886 31.435202 99.601440
v 73.363953 31.435202 99.601440
v 73.776077 32.122086 98.914551
v 162.401962 -0.000004 98.914520
v 161.715073 0.686882 99.601410
v 80.387741 29.155233 99.601440
v 79.898499 29.697531 98.914551
v 77.483841 27.971100 99.601440
v 77.483841 28.712898 98.914551
v 74.579926 29.155233 99.601440
v 75.069168 29.697531 98.914551
vt 0.884311 0.758153
vt 0.993541 0.758153
vt 0.884311 0.867382
vt 0.993541 0.867382
vt 0.884311 0.758153
vt 0.993541 0.758153
vt 0.884311 0.867382
vt 0.993541 0.867382
vt 0.884311 0.758153
vt 0.884311 0.867382
vt 0.993541 0.758153
vt 0.993541 0.867382
vt 0.884311 0.758153
vt 0.884311 0.867382
vt 0.993541 0.867382
vt 0.993541 0.758153
vt 0.884311 0.758153
vt 0.993541 0.758153
vt 0.884311 0.867382
vt 0.993541 0.867382
vt 0.884311 0.867382
vt 0.884311 0.758153
vt 0.993541 0.758153
vt 0.993541 0.867382
vt 0.884311 0.758153
vt 0.884311 0.867382
vt 0.993541 0.867382
vt 0.993541 0.758153
vt 0.884311 0.758153
vt 0.993541 0.758153
vt 0.884311 0.867382
vt 0.993541 0.867382
vt 0.884311 0.867382
vt 0.884311 0.758153
vt 0.993541 0.758153
vt 0.993541 0.867382
vt 0.884821 0.758643
vt 0.884311 0.758153
vt 0.884311 0.840078
vt 0.884821 0.866893
vt 0.884311 0.785458
vt 0.884821 0.758153
vt 0.993541 0.758153
vt 0.993541 0.785460
vt 0.993541 0.758153
vt 0.993541 0.758643
vt 0.884821 0.758643
vt 0.884311 0.758153
vt 0.884311 0.840078
vt 0.884821 0.866893
vt 0.884821 0.758643
vt 0.884311 0.785458
vt 0.993541 0.840078
vt 0.993541 0.866893
vt 0.884311 0.840078
vt 0.884821 0.866893
vt 0.993541 0.758643
vt 0.993541 0.785460
vt 0.884821 0.758643
vt 0.884311 0.785458
vt 0.993541 0.840078
vt 0.993541 0.866893
vt 0.884311 0.840078
vt 0.884821 0.866893
vt 0.884311 0.867382
vt 0.884311 0.840078
vt 0.884311 0.867382
vt 0.884311 0.785458
vt 0.884311 0.758153
vt 0.884311 0.758153
vt 0.884311 0.785458
vt 0.884311 0.785458
vt 0.884311 0.840078
vt 0.936313 0.768755
vt 0.938926 0.768755
vt 0.938926 0.867382
vt 0.884311 0.867382
vt 0.884311 0.758153
vt 0.936313 0.758153
vt 0.993541 0.867382
vt 0.941540 0.768755
vt 0.941540 0.758153
vt 0.993541 0.758153
vt 0.940233 0.763454
vt 0.937619 0.763454
vt 0.884795 0.865246
vt 0.896364 0.867382
vt 0.896364 0.758153
vt 0.884795 0.760289
vt 0.884311 0.855330
vt 0.936022 0.865246
vt 0.936313 0.855330
vt 0.937057 0.859162
vt 0.937619 0.851199
vt 0.993541 0.770206
vt 0.993057 0.758153
vt 0.938926 0.758153
vt 0.938926 0.770206
vt 0.993057 0.760289
vt 0.981488 0.758153
vt 0.981488 0.867382
vt 0.993057 0.865246
vt 0.938926 0.758153
vt 0.938926 0.760289
vt 0.941540 0.855329
vt 0.941831 0.865246
vt 0.940233 0.851199
vt 0.940795 0.859162
vt 0.938926 0.854474
vt 0.938926 0.847067
vt 0.936313 0.856781
vt 0.884311 0.770206
vt 0.884311 0.758153
vt 0.884311 0.867382
vt 0.993541 0.758153
vt 0.993541 0.867382
vt 0.941540 0.856781
vt 0.993541 0.855330
vt 0.936313 0.768755
vt 0.936313 0.758153
vt 0.884311 0.758153
vt 0.884311 0.867382
vt 0.938926 0.867382
vt 0.938926 0.768755
vt 0.993541 0.867382
vt 0.993541 0.758153
vt 0.941540 0.758153
vt 0.941540 0.768755
vt 0.940233 0.763454
vt 0.937619 0.763454
vt 0.884795 0.865246
vt 0.884795 0.760289
vt 0.896364 0.758153
vt 0.896364 0.867382
vt 0.884311 0.855330
vt 0.936313 0.855330
vt 0.936022 0.865246
vt 0.937619 0.851199
vt 0.937057 0.859162
vt 0.993541 0.770206
vt 0.938926 0.770206
vt 0.938926 0.758153
vt 0.993057 0.758153
vt 0.993057 0.760289
vt 0.993057 0.865246
vt 0.981488 0.867382
vt 0.981488 0.758153
vt 0.938926 0.758153
vt 0.938926 0.760289
vt 0.941831 0.865246
vt 0.941540 0.855329
vt 0.940795 0.859162
vt 0.940233 0.851199
vt 0.938926 0.847067
vt 0.938926 0.854474
vt 0.936313 0.856781
vt 0.884311 0.770206
vt 0.884311 0.867382
vt 0.884311 0.758153
vt 0.993541 0.758153
vt 0.993541 0.867382
vt 0.941540 0.856781
vt 0.993541 0.855330
vn 0.000000 1.000000 0.000000
vn 0.000000 1.000000 0.000000
vn 0.000000 1.000000 0.000000
vn 0.000000 1.000000 0.000000
vn 0.000000 0.000000 -1.000000
vn 0.000000 0.000000 -1.000000
vn 0.000000 0.000000 -1.000000
vn 0.000000 0.000000 -1.000000
vn 1.000000 0.000000 0.000000
vn 1.000000 0.000000 0.000000
vn 1.000000 0.000000 0.000000
vn 1.000000 0.000000 0.000000
vn -1.000000 0.000000 0.000000
vn -1.000000 0.000000 0.000000
vn -1.000000 0.000000 0.000000
vn -1.000000 0.000000 0.000000
vn 0.000000 1.000000 0.000000
vn 0.000000 1.000000 0.000000
vn 0.000000 1.000000 0.000000
vn 0.000000 1.000000 0.000000
vn 0.000000 0.000000 -1.000000
vn 0.000000 0.000000 -1.000000
vn 0.000000 0.000000 -1.000000
vn 0.000000 0.000000 -1.000000
vn -1.000000 0.000000 0.000000
vn -1.000000 0.000000 0.000000
vn -1.000000 0.000000 0.000000
vn -1.000000 0.000000 0.000000
vn 1.000000 0.000000 0.000000
vn 1.000000 0.000000 0.000000
vn 1.000000 0.000000 0.000000
vn 1.000000 0.000000 0.000000
vn 1.000000 0.000000 0.000000
vn 1.000000 0.000000 0.000000
vn 1.000000 0.000000 0.000000
vn 1.000000 0.000000 0.000000
vn 0.000000 1.000000 0.000000
vn 0.000000 1.000000 0.000000
vn 0.000000 1.000000 0.000000
vn 0.000000 1.000000 0.000000
vn -1.000000 0.000000 0.000000
vn -1.000000 0.000000 0.000000
vn -1.000000 0.000000 0.000000
vn -1.000000 0.000000 0.000000
vn 0.000000 0.000000 1.000000
vn 0.000000 0.000000 1.000000
vn 0.000000 0.000000 1.000000
vn 0.000000 0.000000 1.000000
vn 0.000000 0.000000 -1.000000
vn 0.000000 0.000000 -1.000000
vn 0.000000 0.000000 -1.000000
vn 0.000000 0.000000 -1.000000
vn -0.707105 -0.707109 0.000000
vn -0.707105 -0.707109 0.000000
vn -0.707105 -0.707109 0.000000
vn -0.707105 -0.707109 0.000000
vn 0.000000 -0.707102 0.707111
vn 0.000000 -0.707102 0.707111
vn 0.000000 -0.707102 0.707111
vn 0.000000 -0.707102 0.707111
vn 0.000000 -0.707102 0.707111
vn 0.000000 -0.707102 0.707111
vn -0.707105 0.707109 0.000000
vn -0.707105 0.707109 0.000000
vn -0.707105 0.707109 0.000000
vn -0.707105 0.707109 0.000000
vn 0.000000 0.707102 0.707111
vn 0.000000 0.707102 0.707111
vn 0.000000 0.707102 0.707111
vn 0.000000 0.707102 0.707111
vn 0.000000 0.707102 0.707111
vn 0.000000 0.707102 0.707111
vn 0.000000 0.707102 -0.707111
vn 0.000000 0.707102 -0.707111
vn 0.000000 0.707102 -0.707111
vn 0.000000 0.707102 -0.707111
vn 0.000000 0.707102 -0.707111
vn 0.000000 0.707102 -0.707111
vn 0.000000 -0.707102 -0.707111
vn 0.000000 -0.707102 -0.707111
vn 0.000000 -0.707102 -0.707111
vn 0.000000 -0.707102 -0.707111
vn 0.000000 -0.707102 -0.707111
vn 0.000000 -0.707102 -0.707111
vn 0.707105 0.707109 0.000000
vn 0.707105 0.707109 0.000000
vn 0.707105 0.707109 0.000000
vn 0.707105 0.707109 0.000000
vn 0.707105 -0.707109 0.000000
vn 0.707105 -0.707109 0.000000
vn 0.707105 -0.707109 0.000000
vn 0.707105 -0.707109 0.000000
vn 0.000000 0.000000 1.000000
vn 0.000000 0.000000 1.000000
vn 0.000000 0.000000 1.000000
vn 0.000000 0.000000 1.000000
vn 0.000000 1.000000 0.000000
vn 0.000000 1.000000 0.000000
vn 0.000000 1.000000 0.000000
vn 0.000000 1.000000 0.000000
vn 0.000000 0.000000 -1.000000
vn 0.000000 0.000000 -1.000000
vn 0.000000 0.000000 -1.000000
vn 0.000000 0.000000 -1.000000
vn 0.000000 -1.000000 0.000000
vn 0.000000 -1.000000 0.000000
vn 0.000000 -1.000000 0.000000
vn 0.000000 -1.000000 0.000000
vn 1.000000 0.000000 0.000000
vn 1.000000 0.000000 0.000000
vn 1.000000 0.000000 0.000000
vn 1.000000 0.000000 0.000000
vn -1.000000 0.000000 0.000000
vn -1.000000 0.000000 0.000000
vn -1.000000 0.000000 0.000000
vn -1.000000 0.000000 0.000000
vn 0.000000 1.000000 0.000000
vn 0.000000 1.000000 0.000000
vn 0.000000 0.000000 -1.000000
vn 0.000000 0.000000 -1.000000
vn 0.000000 -1.000000 0.000000
vn 0.000000 -1.000000 0.000000
vn 0.000000 0.000000 1.000000
vn 0.000000 0.000000 1.000000
vn -0.000000 0.000000 -1.000000
vn 0.000000 -0.000000 -1.000000
vn 0.000000 -0.000000 -1.000000
vn -0.000000 0.000000 -1.000000
vn -0.000000 0.000000 -1.000000
vn -0.000000 0.000000 -1.000000
vn 0.000000 -0.000000 -1.000000
vn 0.000000 -0.000000 -1.000000
vn 0.000000 -0.000000 -1.000000
vn 0.000000 -0.000000 -1.000000
vn 0.000000 0.000000 -1.000000
vn -0.000002 0.000000 -1.000000
vn -0.707107 0.000000 0.707107
vn -0.707107 0.000000 0.707107
vn -0.707107 0.000000 0.707107
vn -0.707107 0.000000 0.707107
vn -0.000000 0.707109 0.707105
vn -0.000000 0.707109 0.707105
vn -0.000000 0.707109 0.707105
vn -0.000000 0.707109 0.707105
vn 0.623922 0.332755 0.707104
vn 0.623922 0.332755 0.707104
vn 0.452054 0.514818 0.728429
vn 0.452054 0.514819 0.728429
vn 0.000000 -0.707109 0.707105
vn 0.000000 -0.707109 0.707105
vn -0.000000 -0.707109 0.707105
vn -0.000000 -0.707109 0.707105
vn 0.707105 0.000000 0.707109
vn 0.707105 0.000000 0.707109
vn 0.707105 0.000000 0.707109
vn 0.707105 0.000000 0.707109
vn -0.000000 -0.707109 0.707105
vn -0.000000 -0.707109 0.707105
vn -0.000000 0.707108 0.707105
vn -0.000000 0.707108 0.707105
vn -0.000000 0.707108 0.707105
vn -0.000000 0.707108 0.707105
vn -0.623922 0.332755 0.707104
vn -0.623922 0.332755 0.707104
vn -0.452053 0.514820 0.728429
vn -0.452053 0.514819 0.728429
vn 0.266995 0.654763 0.707107
vn 0.266995 0.654763 0.707107
vn -0.266993 0.654764 0.707106
vn -0.266993 0.654764 0.707106
vn -0.000000 -0.000000 1.000000
vn -0.000000 -0.000000 1.000000
vn -0.000000 -0.000000 1.000000
vn -0.000000 -0.000000 1.000000
vn 0.000000 1.000000 0.000000
vn 0.000000 1.000000 0.000000
vn 0.000000 1.000000 0.000000
vn 0.000000 1.000000 0.000000
vn 0.000000 -1.000000 0.000000
vn 0.000000 -1.000000 0.000000
vn 0.000000 -1.000000 0.000000
vn 0.000000 -1.000000 0.000000
vn 1.000000 0.000000 0.000000
vn 1.000000 0.000000 0.000000
vn 1.000000 0.000000 0.000000
vn 1.000000 0.000000 0.000000
vn -1.000000 0.000000 0.000000
vn -1.000000 0.000000 0.000000
vn -1.000000 0.000000 0.000000
vn -1.000000 0.000000 0.000000
vn 0.000000 0.000000 1.000000
vn -0.000000 0.000000 1.000000
vn -0.000000 0.000000 1.000000
vn -0.000000 0.000000 1.000000
vn -0.000000 1.000000 0.000000
vn -0.000000 1.000000 0.000000
vn -0.000000 1.000000 0.000000
vn -0.000000 1.000000 0.000000
vn 0.000000 -1.000000 0.000000
vn 0.000000 -1.000000 0.000000
vn -0.000000 -0.000000 1.000000
vn 0.000005 0.000000 1.000000
vn 0.000005 0.000000 1.000000
vn 0.882353 0.470587 0.000000
vn 0.882353 0.470587 0.000000
vn 0.882353 0.470587 0.000000
vn 0.882353 0.470587 0.000000
vn 0.377587 0.925974 0.000000
vn 0.377587 0.925974 0.000000
vn 0.377587 0.925974 0.000000
vn 0.377587 0.925974 0.000000
vn -0.377587 0.925974 0.000000
vn -0.377587 0.925974 0.000000
vn -0.377587 0.925974 0.000000
vn -0.377587 0.925974 0.000000
vn -0.882353 0.470587 0.000000
vn -0.882353 0.470587 0.000000
vn -0.882353 0.470587 0.000000
vn -0.882353 0.470587 0.000000
vn -0.000000 -0.000000 1.000000
vn 0.000000 0.000000 -1.000000
vn 0.000000 0.000000 -1.000000
vn 0.000000 0.000000 -1.000000
vn 0.000000 0.000000 -1.000000
vn -0.000000 -0.000000 -1.000000
vn -0.000000 -0.000000 -1.000000
vn -0.000000 -0.000000 -1.000000
vn -0.000000 -0.000000 -1.000000
vn -0.000000 -0.000000 -1.000000
vn -0.000000 -0.000000 -1.000000
vn 0.000000 0.000000 -1.000000
vn 0.000001 0.000000 -1.000000
vn 0.707107 0.000000 0.707107
vn 0.707107 0.000000 0.707107
vn 0.707107 0.000000 0.707107
vn 0.707107 0.000000 0.707107
vn 0.000000 0.707109 0.707104
vn 0.000000 0.707109 0.707104
vn 0.000000 0.707109 0.707104
vn 0.000000 0.707109 0.707104
vn -0.623923 0.332757 0.707102
vn -0.452057 0.514820 0.728426
vn -0.452056 0.514821 0.728426
vn -0.623923 0.332757 0.707102
vn 0.000000 -0.707109 0.707105
vn 0.000000 -0.707109 0.707105
vn 0.000000 -0.707109 0.707105
vn 0.000000 -0.707109 0.707105
vn -0.707104 0.000000 0.707109
vn -0.707104 0.000000 0.707109
vn -0.707104 0.000000 0.707109
vn -0.707104 0.000000 0.707109
vn 0.000000 -0.707109 0.707105
vn 0.000000 -0.707109 0.707105
vn 0.000000 0.707106 0.707107
vn 0.000000 0.707106 0.707107
vn 0.000000 0.707106 0.707107
vn 0.000000 0.707106 0.707107
vn 0.623923 0.332757 0.707102
vn 0.452054 0.514821 0.728427
vn 0.452055 0.514821 0.728427
vn 0.623923 0.332757 0.707102
vn -0.266999 0.654765 0.707103
vn -0.266999 0.654765 0.707103
vn 0.266996 0.654765 0.707104
vn 0.266996 0.654765 0.707104
vn 0.000000 -0.000000 1.000000
vn 0.000000 -0.000000 1.000000
vn 0.000000 -0.000000 1.000000
vn 0.000000 -0.000000 1.000000
vn 0.000000 1.000000 0.000000
vn 0.000000 1.000000 0.000000
vn 0.000000 1.000000 0.000000
vn 0.000000 1.000000 0.000000
vn -0.000000 -1.000000 0.000000
vn -0.000000 -1.000000 0.000000
vn -0.000000 -1.000000 0.000000
vn -0.000000 -1.000000 0.000000
vn -1.000000 0.000000 0.000000
vn -1.000000 0.000000 0.000000
vn -1.000000 0.000000 0.000000
vn -1.000000 0.000000 0.000000
vn 1.000000 0.000000 0.000000
vn 1.000000 0.000000 0.000000
vn 1.000000 0.000000 0.000000
vn 1.000000 0.000000 0.000000
vn -0.000000 0.000000 1.000000
vn 0.000000 0.000000 1.000000
vn 0.000000 0.000000 1.000000
vn 0.000000 0.000000 1.000000
vn 0.000000 1.000000 0.000000
vn 0.000000 1.000000 0.000000
vn 0.000000 1.000000 0.000000
vn 0.000000 1.000000 0.000000
vn -0.000000 -1.000000 0.000000
vn -0.000000 -1.000000 0.000000
vn 0.000000 -0.000000 1.000000
vn -0.000002 0.000000 1.000000
vn -0.000004 0.000000 1.000000
vn -0.882353 0.470587 0.000000
vn -0.882353 0.470587 0.000000
vn -0.882353 0.470587 0.000000
vn -0.882353 0.470587 0.000000
vn -0.377588 0.925974 0.000000
vn -0.377588 0.925974 0.000000
vn -0.377588 0.925974 0.000000
vn -0.377588 0.925974 0.000000
vn 0.377585 0.925975 0.000000
vn 0.377585 0.925975 0.000000
vn 0.377585 0.925975 0.000000
vn 0.377585 0.925975 0.000000
vn 0.882353 0.470587 0.000000
vn 0.882353 0.470587 0.000000
vn 0.882353 0.470587 0.000000
vn 0.882353 0.470587 0.000000
vn 0.000000 -0.000000 1.000000
f 3/3/1 4/4/2 6/6/3 5/5/4
f 5/5/5 6/6/6 8/8/7 7/7/8
f 2/2/9 8/9/10 6/10/11 4/4/12
f 7/11/13 1/1/14 3/3/15 5/12/16
f 11/14/17 13/17/18 14/18/19 12/15/20
f 13/17/21 15/19/22 16/20/23 14/18/24
f 10/16/25 12/15/26 14/21/27 16/22/28
f 15/23/29 13/24/30 11/14/31 9/13/32
f 17/25/33 19/26/34 20/27/35 18/28/36
f 19/26/37 21/29/38 22/30/39 20/27/40
f 21/29/41 23/31/42 24/32/43 22/30/44
f 18/28/45 20/27/46 22/33/47 24/34/48
f 23/35/49 21/36/50 19/26/51 17/25/52
f 25/37/53 26/38/54 37/39/55 38/40/56
f 26/41/57 25/42/58 27/43/59 28/44/60
f 28/45/60 27/46/59 45/47/61 46/48/62
f 29/49/63 30/50/64 33/51/65 34/52/66
f 30/50/67 29/49/68 32/53/69 31/54/70
f 31/54/70 32/53/69 41/55/71 42/56/72
f 34/52/73 33/51/74 35/57/75 36/58/76
f 36/58/76 35/57/75 43/59/77 44/60/78
f 38/40/79 37/39/80 39/61/81 40/62/82
f 40/62/82 39/61/81 47/63/83 48/64/84
f 42/65/85 41/55/86 44/66/87 43/67/88
f 46/68/89 45/69/90 48/70/91 47/71/92
f 26/41/93 28/44/94 32/53/95 29/49/96
f 30/50/97 31/54/98 35/57/99 33/51/100
f 34/52/101 36/58/102 39/61/103 37/39/104
f 38/40/105 40/62/106 27/46/107 25/37/108
f 46/68/109 47/71/110 44/66/111 41/55/112
f 37/72/113 26/41/114 29/49/115 34/73/116
f 31/54/98 42/56/117 43/59/118 35/57/99
f 39/61/103 36/58/102 44/60/119 47/63/120
f 27/46/107 40/62/106 48/64/121 45/47/122
f 32/53/95 28/44/94 46/68/123 41/55/124
f 57/74/125 58/75/126 53/76/127 51/77/128 49/78/129 55/79/130
f 52/80/131 53/76/127 58/75/126 59/81/132 54/82/133 50/83/134
f 59/81/132 62/84/135 54/82/133
f 58/75/126 57/74/125 61/85/136
f 61/85/136 57/74/125 55/79/130
f 59/81/132 58/75/126 62/84/135
f 63/86/137 64/87/138 75/88/139 76/89/140
f 64/90/141 63/86/142 66/91/143 65/92/144
f 65/92/145 66/91/146 77/93/147 78/94/148
f 67/95/149 68/96/150 70/97/151 69/98/152
f 68/99/153 67/100/154 71/101/155 72/102/156
f 69/103/152 70/104/151 76/89/157 75/88/158
f 72/102/159 71/101/160 74/105/161 73/106/162
f 73/106/163 74/105/164 82/107/165 81/108/166
f 78/94/148 77/93/147 79/109/167 80/110/168
f 80/110/169 79/109/170 81/108/166 82/107/165
f 56/111/171 76/89/172 70/104/173 79/109/174
f 64/90/175 65/92/176 55/79/177 49/78/178
f 75/112/179 51/77/180 53/76/181 69/98/182
f 67/100/183 52/113/184 50/114/185 71/101/186
f 51/115/187 75/88/188 64/87/189 49/116/190
f 60/117/191 68/99/192 72/102/193 73/106/194
f 54/82/195 74/105/196 71/118/197 50/83/198
f 52/80/199 67/95/200 69/98/182 53/76/181
f 66/91/201 56/111/171 77/93/202
f 81/108/203 60/117/191 73/106/194
f 77/93/202 56/111/171 79/109/174
f 79/109/174 60/117/191 81/108/203
f 65/92/204 78/94/205 61/85/206 55/79/207
f 78/94/208 80/110/209 58/75/210 61/85/211
f 80/110/212 82/107/213 62/84/214 58/75/215
f 82/107/216 74/105/217 54/82/218 62/84/219
f 76/89/172 56/111/171 66/91/201 63/86/220
f 70/104/173 68/99/192 60/117/191 79/109/174
f 91/119/221 89/120/222 83/121/223 85/122/224 87/123/225 92/124/226
f 86/125/227 84/126/228 88/127/229 93/128/230 92/124/226 87/123/225
f 93/128/230 88/127/229 96/129/231
f 92/124/226 95/130/232 91/119/221
f 95/130/232 89/120/222 91/119/221
f 93/128/230 96/129/231 92/124/226
f 97/131/233 110/132/234 109/133/235 98/134/236
f 98/135/237 99/136/238 100/137/239 97/131/240
f 99/136/241 112/138/242 111/139/243 100/137/244
f 101/140/245 103/141/246 104/142/247 102/143/248
f 102/144/249 106/145/250 105/146/251 101/147/252
f 103/148/246 109/133/253 110/132/254 104/149/247
f 106/145/255 107/150/256 108/151/257 105/146/258
f 107/150/259 115/152/260 116/153/261 108/151/262
f 112/138/242 114/154/263 113/155/264 111/139/243
f 114/154/265 116/153/261 115/152/260 113/155/266
f 90/156/267 113/155/268 104/149/269 110/132/270
f 98/135/271 83/121/272 89/120/273 99/136/274
f 109/157/275 103/141/276 87/123/277 85/122/278
f 101/147/279 105/146/280 84/158/281 86/159/282
f 85/160/283 83/161/284 98/134/285 109/133/286
f 94/162/287 107/150/288 106/145/289 102/144/290
f 88/127/291 84/126/292 105/163/293 108/151/294
f 86/125/295 87/123/277 103/141/276 101/140/296
f 100/137/297 111/139/298 90/156/267
f 115/152/299 107/150/288 94/162/287
f 111/139/298 113/155/268 90/156/267
f 113/155/268 115/152/299 94/162/287
f 99/136/300 89/120/301 95/130/302 112/138/303
f 112/138/304 95/130/305 92/124/306 114/154/307
f 114/154/308 92/124/309 96/129/310 116/153/311
f 116/153/312 96/129/313 88/127/314 108/151/315
f 110/132/270 97/131/316 100/137/297 90/156/267
f 104/149/269 113/155/268 94/162/287 102/144/290
