# This file uses meters as units for non-parametric coordinates.

v 252.580476 112.338249 -18.704137
v 252.580476 112.338249 -20.258472
v 252.580476 113.892585 -18.704137
v 252.580476 113.892585 -20.258472
v 249.966601 113.892585 -18.704137
v 249.966601 113.892585 -20.258472
v 249.966601 112.338249 -18.704137
v 249.966601 112.338249 -20.258472
v 252.580476 112.338249 -9.321732
v 252.580476 112.338249 -10.876068
v 252.580476 113.892585 -9.321732
v 252.580476 113.892585 -10.876068
v 249.966601 113.892585 -9.321732
v 249.966601 113.892585 -10.876068
v 249.966601 112.338249 -9.321732
v 249.966601 112.338249 -10.876068
v 255.072087 111.905570 -7.377918
v 255.072087 111.594156 -7.689338
v 255.383501 111.905570 -7.689338
v 255.072087 111.594156 -22.422372
v 255.072087 111.905570 -22.733786
v 255.383501 111.905570 -22.422372
v 255.072087 114.708601 -7.689338
v 255.072087 114.397186 -7.377918
v 255.383501 114.397186 -7.689338
v 255.072087 114.397186 -22.733786
v 255.072087 114.708601 -22.422372
v 255.383501 114.397186 -22.422372
v 252.269056 114.397186 -7.689338
v 252.580476 114.397186 -7.377918
v 252.580476 114.708601 -7.689338
v 252.580476 114.397186 -22.733786
v 252.269056 114.397186 -22.422372
v 252.580476 114.708601 -22.422372
v 252.580476 111.594156 -7.689338
v 252.580476 111.905570 -7.377918
v 252.269056 111.905570 -7.689338
v 252.580476 111.905570 -22.733786
v 252.580476 111.594156 -22.422372
v 252.269056 111.905570 -22.422372
vt 0.445641 0.991833
vt 0.463404 0.991833
vt 0.463404 0.984732
vt 0.445641 0.984732
vt 0.445641 0.991833
vt 0.463404 0.991833
vt 0.463404 0.984732
vt 0.445641 0.984732
vt 0.463404 0.984732
vt 0.445641 0.984732
vt 0.445641 0.991833
vt 0.463404 0.984732
vt 0.445641 0.984732
vt 0.463404 0.991833
vt 0.445641 0.991833
vt 0.463404 0.991833
vt 0.463404 0.984732
vt 0.445641 0.984732
vt 0.445641 0.991833
vt 0.463404 0.991833
vt 0.463404 0.984732
vt 0.445641 0.984732
vt 0.463404 0.984732
vt 0.445641 0.984732
vt 0.445641 0.991833
vt 0.463404 0.984732
vt 0.445641 0.984732
vt 0.463404 0.991833
vt 0.446001 0.990928
vt 0.463044 0.990928
vt 0.463044 0.985734
vt 0.446001 0.985734
vt 0.463044 0.985734
vt 0.463044 0.990928
vt 0.446001 0.990928
vt 0.446001 0.985734
vt 0.447417 0.990928
vt 0.461628 0.990928
vt 0.461628 0.985734
vt 0.447417 0.985734
vt 0.447417 0.985734
vt 0.447417 0.990928
vt 0.461628 0.990928
vt 0.461628 0.985734
vt 0.463044 0.990928
vt 0.463044 0.985734
vt 0.446001 0.985734
vt 0.446001 0.990928
vt 0.463044 0.985734
vt 0.463044 0.990928
vt 0.446001 0.990928
vt 0.446001 0.985734
vt 0.445641 0.985734
vt 0.445641 0.990928
vt 0.446001 0.985085
vt 0.463044 0.985085
vt 0.463404 0.985734
vt 0.463404 0.990928
vt 0.445641 0.990928
vt 0.445641 0.985734
vt 0.463404 0.990928
vt 0.463404 0.985734
vn 0.000000 1.000000 0.000000
vn 0.000000 1.000000 0.000000
vn 0.000000 1.000000 0.000000
vn 0.000000 1.000000 0.000000
vn 0.000000 -1.000000 0.000000
vn 0.000000 -1.000000 0.000000
vn 0.000000 -1.000000 0.000000
vn 0.000000 -1.000000 0.000000
vn 0.000000 0.000000 -1.000000
vn 0.000000 0.000000 -1.000000
vn 0.000000 0.000000 -1.000000
vn 0.000000 0.000000 -1.000000
vn -0.000000 0.000000 1.000000
vn -0.000000 0.000000 1.000000
vn -0.000000 0.000000 1.000000
vn -0.000000 0.000000 1.000000
vn 0.000000 1.000000 0.000000
vn 0.000000 1.000000 0.000000
vn 0.000000 1.000000 0.000000
vn 0.000000 1.000000 0.000000
vn 0.000000 -1.000000 0.000000
vn 0.000000 -1.000000 0.000000
vn 0.000000 -1.000000 0.000000
vn 0.000000 -1.000000 0.000000
vn 0.000000 0.000000 -1.000000
vn 0.000000 0.000000 -1.000000
vn 0.000000 0.000000 -1.000000
vn 0.000000 0.000000 -1.000000
vn -0.000000 0.000000 1.000000
vn -0.000000 0.000000 1.000000
vn -0.000000 0.000000 1.000000
vn -0.000000 0.000000 1.000000
vn 0.000000 -1.000000 0.000000
vn 0.000000 -1.000000 0.000000
vn 0.000000 -1.000000 0.000000
vn 0.000000 -1.000000 0.000000
vn 1.000000 0.000000 0.000000
vn 1.000000 0.000000 0.000000
vn 1.000000 0.000000 0.000000
vn 1.000000 0.000000 0.000000
vn -0.000000 0.000000 1.000000
vn -0.000000 0.000000 1.000000
vn -0.000000 0.000000 1.000000
vn -0.000000 0.000000 1.000000
vn 0.000000 0.000000 -1.000000
vn 0.000000 0.000000 -1.000000
vn 0.000000 0.000000 -1.000000
vn 0.000000 0.000000 -1.000000
vn 0.000000 1.000000 0.000000
vn 0.000000 1.000000 0.000000
vn 0.000000 1.000000 0.000000
vn 0.000000 1.000000 0.000000
vn -1.000000 0.000000 -0.000000
vn -1.000000 0.000000 -0.000000
vn -1.000000 0.000000 -0.000000
vn -1.000000 0.000000 -0.000000
vn -0.000000 -0.707111 0.707103
vn -0.000000 -0.707111 0.707103
vn -0.000000 -0.707111 0.707103
vn -0.000000 -0.707111 0.707103
vn 0.707107 -0.707107 0.000000
vn 0.707107 -0.707107 0.000000
vn 0.707107 -0.707107 0.000000
vn 0.707107 -0.707107 0.000000
vn 0.707106 0.000000 0.707108
vn 0.707106 0.000000 0.707108
vn 0.707106 0.000000 0.707108
vn 0.707106 0.000000 0.707108
vn 0.000000 -0.707107 -0.707107
vn 0.000000 -0.707107 -0.707107
vn 0.000000 -0.707107 -0.707107
vn 0.000000 -0.707107 -0.707107
vn 0.707099 0.000000 -0.707114
vn 0.707099 0.000000 -0.707114
vn 0.707099 0.000000 -0.707114
vn 0.707099 0.000000 -0.707114
vn -0.000000 0.707109 0.707105
vn -0.000000 0.707109 0.707105
vn -0.000000 0.707109 0.707105
vn -0.000000 0.707109 0.707105
vn 0.707108 0.707105 0.000000
vn 0.707108 0.707105 0.000000
vn 0.707108 0.707105 0.000000
vn 0.707108 0.707105 0.000000
vn 0.000000 0.707105 -0.707109
vn 0.000000 0.707105 -0.707109
vn 0.000000 0.707105 -0.707109
vn 0.000000 0.707105 -0.707109
vn -0.707106 0.000000 0.707108
vn -0.707106 0.000000 0.707108
vn -0.707106 0.000000 0.707108
vn -0.707106 0.000000 0.707108
vn -0.707102 0.707112 -0.000000
vn -0.707102 0.707112 -0.000000
vn -0.707102 0.707112 -0.000000
vn -0.707102 0.707112 -0.000000
vn -0.707099 0.000000 -0.707114
vn -0.707099 0.000000 -0.707114
vn -0.707099 0.000000 -0.707114
vn -0.707099 0.000000 -0.707114
vn -0.707100 -0.707113 -0.000000
vn -0.707100 -0.707113 -0.000000
vn -0.707100 -0.707113 -0.000000
vn -0.707100 -0.707113 -0.000000
vn 0.577355 -0.577361 0.577335
vn 0.577355 -0.577361 0.577335
vn 0.577355 -0.577361 0.577335
vn 0.577352 -0.577352 -0.577346
vn 0.577352 -0.577352 -0.577346
vn 0.577352 -0.577352 -0.577346
vn 0.577359 0.577359 0.577333
vn 0.577359 0.577359 0.577333
vn 0.577359 0.577359 0.577333
vn 0.577357 0.577350 -0.577344
vn 0.577357 0.577350 -0.577344
vn 0.577357 0.577350 -0.577344
vn -0.577346 0.577359 0.577346
vn -0.577346 0.577359 0.577346
vn -0.577346 0.577359 0.577346
vn -0.577344 0.577350 -0.577357
vn -0.577344 0.577350 -0.577357
vn -0.577344 0.577350 -0.577357
vn -0.577342 -0.577361 0.577348
vn -0.577342 -0.577361 0.577348
vn -0.577342 -0.577361 0.577348
vn -0.577339 -0.577352 -0.577359
vn -0.577339 -0.577352 -0.577359
vn -0.577339 -0.577352 -0.577359
f 3/1/1 4/2/2 6/3/3 5/4/4
f 7/5/5 8/6/6 2/7/7 1/8/8
f 2/9/9 8/10/10 6/11/11 4/2/12
f 7/12/13 1/13/14 3/1/15 5/14/16
f 11/15/17 12/16/18 14/17/19 13/18/20
f 15/19/21 16/20/22 10/21/23 9/22/24
f 10/23/25 16/24/26 14/25/27 12/16/28
f 15/26/29 9/27/30 11/15/31 13/28/32
f 35/29/33 39/30/34 20/31/35 18/32/36
f 22/33/37 28/34/38 25/35/39 19/36/40
f 24/37/41 30/38/42 36/39/43 17/40/44
f 38/41/45 32/42/46 26/43/47 21/44/48
f 27/45/49 34/46/50 31/47/51 23/48/52
f 33/49/53 40/50/54 37/51/55 29/52/56
f 18/32/57 17/53/58 36/54/59 35/29/60
f 19/36/61 18/55/62 20/56/63 22/33/64
f 17/40/65 19/36/66 25/35/67 24/37/68
f 21/57/69 20/31/70 39/30/71 38/58/72
f 22/33/73 21/44/74 26/43/75 28/34/76
f 24/59/77 23/48/78 31/47/79 30/60/80
f 23/48/81 25/35/82 28/34/83 27/45/84
f 27/45/85 26/61/86 32/62/87 34/46/88
f 30/60/89 29/52/90 37/51/91 36/54/92
f 29/52/93 31/47/94 34/46/95 33/49/96
f 33/49/97 32/62/98 38/58/99 40/50/100
f 35/29/101 37/51/102 40/50/103 39/30/104
f 17/40/105 18/55/106 19/36/107
f 20/56/108 21/44/109 22/33/110
f 23/48/111 24/37/112 25/35/113
f 26/43/114 27/45/115 28/34/116
f 29/52/117 30/60/118 31/47/119
f 32/62/120 33/49/121 34/46/122
f 35/29/123 36/54/124 37/51/125
f 38/58/126 39/30/127 40/50/128
