# This file uses meters as units for non-parametric coordinates.

v 152.679138 30.596970 -151.303619
v 152.679138 194.833008 -151.303619
v 152.679138 194.833008 -80.355370
v 152.679138 30.596970 -80.355370
v 158.478226 31.699028 -150.387665
v 157.165726 30.596970 -151.303619
v 157.165726 194.833008 -151.303619
v 158.478226 193.730942 -150.387665
v 157.165726 194.833008 -80.355370
v 158.478226 193.730942 -81.271332
v 157.165726 30.596970 -80.355370
v 158.478226 31.699028 -81.271332
v 156.222610 39.008224 -144.104355
v 156.222610 186.421753 -144.104355
v 156.222610 39.008217 -87.554649
v 156.222610 186.421753 -87.554649
v 158.478226 186.985596 -86.990791
v 157.914383 186.421753 -87.554649
v 158.478226 186.985596 -144.668213
v 157.914383 186.421753 -144.104355
v 158.478226 38.444382 -144.668213
v 157.914383 39.008224 -144.104355
v 158.478226 38.444366 -86.990791
v 157.914383 39.008217 -87.554649
vt 0.336672 0.963226
vt 0.318909 0.963226
vt 0.336139 0.963226
vt 0.319443 0.963226
vt 0.319443 0.963226
vt 0.336139 0.963226
vt 0.336442 0.963226
vt 0.319140 0.963226
vt 0.336672 0.946515
vt 0.318909 0.959048
vt 0.318909 0.946515
vt 0.336672 0.959049
vt 0.336672 0.946515
vt 0.318909 0.959048
vt 0.318909 0.946515
vt 0.336672 0.959048
vt 0.336442 0.962724
vt 0.319860 0.961424
vt 0.335721 0.948317
vt 0.319140 0.947017
vt 0.319140 0.962724
vt 0.319860 0.948317
vt 0.335722 0.961424
vt 0.336442 0.947017
vt 0.335661 0.961296
vt 0.319920 0.961296
vt 0.335661 0.948445
vt 0.335661 0.961296
vt 0.319920 0.948445
vt 0.335661 0.948445
vt 0.319920 0.961296
vt 0.319920 0.948445
vn -1.000000 0.000000 0.000000
vn -1.000000 0.000000 0.000000
vn -1.000000 0.000000 0.000000
vn -1.000000 0.000000 0.000000
vn 0.643042 -0.765831 0.000000
vn 0.643042 -0.765831 0.000000
vn 0.643042 -0.765831 0.000000
vn 0.643042 -0.765831 0.000000
vn 0.572290 0.000000 -0.820052
vn 0.572290 0.000000 -0.820052
vn 0.572290 0.000000 -0.820052
vn 0.572290 0.000000 -0.820052
vn 0.643045 0.765829 0.000000
vn 0.643045 0.765829 0.000000
vn 0.643045 0.765829 0.000000
vn 0.643045 0.765829 0.000000
vn 0.572295 0.000000 0.820048
vn 0.572295 0.000000 0.820048
vn 0.572295 0.000000 0.820048
vn 0.572295 0.000000 0.820048
vn 0.000000 0.000000 -1.000000
vn 0.000000 0.000000 -1.000000
vn 0.000000 0.000000 -1.000000
vn 0.000000 0.000000 -1.000000
vn 0.000000 1.000000 0.000000
vn 0.000000 1.000000 0.000000
vn 0.000000 1.000000 0.000000
vn 0.000000 1.000000 0.000000
vn 0.000000 0.000000 1.000000
vn 0.000000 0.000000 1.000000
vn 0.000000 0.000000 1.000000
vn 0.000000 0.000000 1.000000
vn 0.000000 -1.000000 0.000000
vn 0.000000 -1.000000 0.000000
vn 0.000000 -1.000000 0.000000
vn 0.000000 -1.000000 0.000000
vn 1.000000 0.000000 0.000000
vn 1.000000 0.000000 0.000000
vn 1.000000 0.000000 0.000000
vn 1.000000 0.000000 0.000000
vn 0.707122 0.000000 -0.707092
vn 0.707122 0.000000 -0.707092
vn 0.707122 0.000000 -0.707092
vn 0.707122 0.000000 -0.707092
vn 0.707107 -0.707107 0.000000
vn 0.707107 -0.707107 0.000000
vn 0.707107 -0.707107 0.000000
vn 0.707107 -0.707107 0.000000
vn 0.707109 0.000000 0.707105
vn 0.707109 0.000000 0.707105
vn 0.707109 0.000000 0.707105
vn 0.707109 0.000000 0.707105
vn 0.707109 0.707104 0.000000
vn 0.707109 0.707104 0.000000
vn 0.707109 0.707104 0.000000
vn 0.707109 0.707104 0.000000
vn 1.000000 -0.000000 0.000000
vn 1.000000 0.000000 0.000000
vn 1.000000 0.000000 0.000000
vn 1.000000 -0.000000 0.000000
vn 1.000000 -0.000000 0.000000
vn 1.000000 0.000000 0.000000
vn 1.000000 0.000000 0.000000
vn 1.000000 -0.000000 0.000000
vn 0.000000 0.000000 1.000000
vn 0.000000 0.000000 1.000000
vn 0.000000 0.000000 1.000000
vn 0.000000 0.000000 1.000000
vn 0.000000 1.000000 0.000000
vn 0.000000 1.000000 0.000000
vn 0.000000 1.000000 0.000000
vn 0.000000 1.000000 0.000000
vn 0.000000 0.000000 -1.000000
vn 0.000000 0.000000 -1.000000
vn 0.000000 0.000000 -1.000000
vn 0.000000 0.000000 -1.000000
vn 0.000000 -1.000000 0.000000
vn 0.000000 -1.000000 0.000000
vn 0.000000 -1.000000 0.000000
vn 0.000000 -1.000000 0.000000
f 4/1/1 3/2/2 2/11/3 1/9/4
f 5/3/5 12/4/6 11/14/7 6/16/8
f 6/16/9 7/10/10 8/21/11 5/17/12
f 7/10/13 9/12/14 10/6/15 8/5/16
f 12/8/17 10/7/18 9/12/19 11/14/20
f 1/9/21 2/11/22 7/10/23 6/16/24
f 2/11/25 3/13/26 9/12/27 7/10/28
f 11/14/29 9/12/30 3/13/31 4/15/32
f 6/16/33 11/14/34 4/15/35 1/9/36
f 14/26/37 16/32/38 15/30/39 13/28/40
f 17/22/41 23/19/42 24/27/43 18/29/44
f 18/29/45 20/31/46 19/18/47 17/22/48
f 20/31/49 22/25/50 21/23/51 19/18/52
f 22/25/53 24/27/54 23/19/55 21/23/56
f 5/17/57 8/21/58 19/18/59 21/23/60
f 23/19/61 17/22/62 10/20/63 12/24/64
f 10/20/63 17/22/62 19/18/59 8/21/58
f 21/23/60 23/19/61 12/24/64 5/17/57
f 20/31/65 14/26/66 13/28/67 22/25/68
f 22/25/69 13/28/70 15/30/71 24/27/72
f 24/27/73 15/30/74 16/32/75 18/29/76
f 18/29/77 16/32/78 14/26/79 20/31/80
