# This file uses meters as units for non-parametric coordinates.

v 158.247635 111.275803 -82.626648
v 158.247635 112.714981 -82.030502
v 158.247635 114.154175 -82.626648
v 158.247635 114.750320 -84.065819
v 158.247635 114.154175 -85.505020
v 158.247635 112.714981 -86.101151
v 158.247635 111.275803 -85.505020
v 158.247650 110.679657 -84.065819
v 161.122650 112.714989 -84.065819
v 160.835175 111.275795 -82.626648
v 161.122650 111.495811 -82.846649
v 160.835175 112.714989 -82.030502
v 161.122650 112.714989 -82.341690
v 160.835175 114.154182 -82.626648
v 161.122650 113.934166 -82.846649
v 160.835175 114.750313 -84.065819
v 161.122650 114.439156 -84.065819
v 160.835175 114.154182 -85.505020
v 161.122650 113.934166 -85.285011
v 160.835175 112.714989 -86.101151
v 161.122650 112.714989 -85.790009
v 160.835175 111.275795 -85.505020
v 161.122650 111.495811 -85.285011
v 160.835175 110.679665 -84.065819
v 161.122650 110.990822 -84.065819
vt 0.664552 0.235964
vt 0.659768 0.235660
vt 0.659768 0.232291
vt 0.659768 0.204450
vt 0.659768 0.207819
vt 0.659768 0.208427
vt 0.659768 0.211796
vt 0.659768 0.212404
vt 0.659768 0.215774
vt 0.659768 0.216382
vt 0.659768 0.219751
vt 0.659768 0.220359
vt 0.659768 0.223728
vt 0.659768 0.224336
vt 0.659768 0.227706
vt 0.659768 0.228314
vt 0.659768 0.231683
vt 0.707615 0.204146
vt 0.664552 0.204146
vt 0.707615 0.208123
vt 0.664552 0.208123
vt 0.707615 0.212100
vt 0.664552 0.212100
vt 0.707615 0.216078
vt 0.664552 0.216078
vt 0.707615 0.220055
vt 0.664552 0.220055
vt 0.707615 0.224032
vt 0.664552 0.224032
vt 0.707615 0.228010
vt 0.664552 0.228010
vt 0.707615 0.231987
vt 0.707615 0.235964
vt 0.664552 0.231987
vt 0.682635 0.232113
vt 0.674613 0.228790
vt 0.671290 0.220768
vt 0.674613 0.212745
vt 0.682635 0.209422
vt 0.690657 0.212745
vt 0.693981 0.220768
vt 0.690657 0.228790
vt 0.682635 0.220314
vn 0.734505 -0.479841 0.479849
vn 0.734498 -0.678611 -0.000003
vn 0.734498 -0.678611 -0.000002
vn 0.734505 -0.479834 0.479856
vn 0.734506 -0.000001 0.678602
vn 0.734506 -0.000001 0.678602
vn 0.734508 0.479833 0.479852
vn 0.734508 0.479841 0.479844
vn 0.734496 0.678613 0.000000
vn 0.734496 0.678613 -0.000001
vn 0.734491 0.479866 -0.479845
vn 0.734491 0.479869 -0.479843
vn 0.734494 0.000006 -0.678615
vn 0.734494 0.000006 -0.678615
vn 0.734495 -0.479856 -0.479849
vn 0.734495 -0.479859 -0.479846
vn -0.000001 -0.707104 0.707109
vn -0.000001 -0.707106 0.707108
vn -0.000001 0.000001 1.000000
vn -0.000001 -0.000001 1.000000
vn -0.000002 0.707103 0.707111
vn -0.000002 0.707102 0.707112
vn 0.000000 1.000000 0.000000
vn 0.000000 1.000000 0.000000
vn 0.000001 0.707104 -0.707110
vn 0.000001 0.707103 -0.707110
vn 0.000001 0.000001 -1.000000
vn 0.000001 -0.000001 -1.000000
vn 0.000002 -0.707108 -0.707105
vn 0.000002 -0.707107 -0.707107
vn 0.000000 -1.000000 0.000000
vn 0.000000 -1.000000 0.000000
vn 1.000000 -0.000007 0.000000
vn 1.000000 0.000000 0.000000
vn 1.000000 0.000000 0.000000
vn 1.000000 0.000007 0.000000
vn 1.000000 0.000000 0.000000
vn 1.000000 0.000004 0.000000
vn 1.000000 0.000000 0.000000
vn 1.000000 -0.000004 0.000000
vn 1.000000 0.000000 0.000000
f 10/1/1 24/34/2 25/3/3 11/2/4
f 11/4/4 13/5/5 12/21/6 10/19/1
f 13/6/5 15/7/7 14/23/8 12/21/6
f 15/8/7 17/9/9 16/25/10 14/23/8
f 17/10/9 19/11/11 18/27/12 16/25/10
f 19/12/11 21/13/13 20/29/14 18/27/12
f 21/14/13 23/15/15 22/31/16 20/29/14
f 23/16/15 25/17/3 24/34/2 22/31/16
f 1/18/17 10/19/18 12/21/19 2/20/20
f 2/20/20 12/21/19 14/23/21 3/22/22
f 3/22/22 14/23/21 16/25/23 4/24/24
f 4/24/24 16/25/23 18/27/25 5/26/26
f 5/26/26 18/27/25 20/29/27 6/28/28
f 6/28/28 20/29/27 22/31/29 7/30/30
f 7/30/30 22/31/29 24/34/31 8/32/32
f 8/32/32 24/34/31 10/1/18 1/33/17
f 11/42/33 9/43/34 13/35/35
f 13/35/35 9/43/34 15/36/36
f 15/36/36 9/43/34 17/37/37
f 17/37/37 9/43/34 19/38/38
f 19/38/38 9/43/34 21/39/39
f 21/39/39 9/43/34 23/40/40
f 23/40/40 9/43/34 25/41/41
f 25/41/41 9/43/34 11/42/33
