# This file uses centimeters as units for non-parametric coordinates.

v 80.681053 46.803940 125.249184
v 82.162605 20.534948 125.249184
v 82.162605 20.534948 52.577011
v 80.681053 46.803940 52.577011
v 77.835945 56.601700 125.249184
v 77.835945 56.601700 52.577011
v 74.008217 63.132648 125.249191
v 74.008217 63.132648 52.577011
v 67.283707 64.828964 125.249191
v 67.283707 64.828972 52.577011
v -67.283707 64.828964 125.249191
v -67.283707 64.828972 52.577011
v -74.008217 63.132648 125.249191
v -74.008217 63.132648 52.577011
v -77.835945 56.601700 125.249184
v -77.835945 56.601700 52.577011
v -80.681053 46.803940 125.249184
v -80.681053 46.803940 52.577011
v -82.162605 20.534948 52.577011
v -82.162605 20.534948 125.249184
v 83.502235 20.649374 125.249184
v 82.009819 46.967854 125.249184
v 83.502235 20.649374 52.577011
v 82.009819 46.967854 52.577011
v 79.116493 56.901882 125.249184
v 79.116493 56.901882 52.577011
v 75.014885 65.241585 125.249191
v 75.014885 65.241585 52.577011
v 67.377296 67.127068 125.249191
v 67.377296 67.127075 52.577011
v -67.377296 67.127068 125.249191
v -67.377296 67.127075 52.577011
v -75.014885 65.241585 125.249191
v -75.014885 65.241585 52.577011
v -79.116493 56.901882 125.249184
v -79.116493 56.901882 52.577011
v -82.009819 46.967854 125.249184
v -82.009819 46.967854 52.577011
v -83.502235 20.649374 125.249184
v -83.502235 20.649374 52.577011
vt 0.276471 0.849588
vt 0.276583 0.849588
vt 0.276583 0.860925
vt 0.276471 0.860925
vt 0.276255 0.849588
vt 0.276255 0.860925
vt 0.275965 0.849588
vt 0.275965 0.860925
vt 0.275456 0.849588
vt 0.275456 0.860925
vt 0.256423 0.849588
vt 0.256423 0.860925
vt 0.255913 0.849588
vt 0.255913 0.860925
vt 0.255624 0.849588
vt 0.255624 0.860925
vt 0.255408 0.849588
vt 0.255408 0.860925
vt 0.255296 0.860925
vt 0.255296 0.849588
vt 0.276471 0.849588
vt 0.276471 0.860925
vt 0.276583 0.860925
vt 0.276583 0.849588
vt 0.276255 0.849588
vt 0.276255 0.860925
vt 0.275965 0.849588
vt 0.275965 0.860925
vt 0.275456 0.849588
vt 0.275456 0.860925
vt 0.256423 0.849588
vt 0.256423 0.860925
vt 0.255913 0.849588
vt 0.255913 0.860925
vt 0.255624 0.849588
vt 0.255624 0.860925
vt 0.255408 0.849588
vt 0.255408 0.860925
vt 0.255296 0.860925
vt 0.255296 0.849588
vt 0.276471 0.849588
vt 0.276583 0.849588
vt 0.276583 0.860925
vt 0.276471 0.860925
vt 0.276255 0.849588
vt 0.276255 0.860925
vt 0.275965 0.849588
vt 0.275965 0.860925
vt 0.275456 0.849588
vt 0.275456 0.860925
vt 0.256423 0.849588
vt 0.256423 0.860925
vt 0.255913 0.849588
vt 0.255913 0.860925
vt 0.255624 0.849588
vt 0.255624 0.860925
vt 0.255408 0.849588
vt 0.255408 0.860925
vt 0.255296 0.849588
vt 0.255296 0.860925
vn 0.992613 0.120084 0.017315
vn 0.998221 0.056605 0.018752
vn 0.998221 0.056605 -0.018752
vn 0.992613 0.120084 -0.017315
vn 0.933768 0.357434 0.017830
vn 0.992613 0.120084 0.017315
vn 0.992613 0.120084 -0.017315
vn 0.933768 0.357434 -0.017830
vn 0.656680 0.753913 0.019673
vn 0.933768 0.357434 0.017830
vn 0.933768 0.357434 -0.017830
vn 0.656680 0.753913 -0.019673
vn 0.013234 0.999446 0.030530
vn 0.656680 0.753913 0.019673
vn 0.656680 0.753913 -0.019673
vn 0.013234 0.999446 -0.030530
vn -0.013234 0.999446 0.030530
vn 0.013234 0.999446 0.030530
vn 0.013234 0.999446 -0.030530
vn -0.013234 0.999446 -0.030530
vn -0.656680 0.753913 0.019673
vn -0.013234 0.999446 0.030530
vn -0.013234 0.999446 -0.030530
vn -0.656680 0.753913 -0.019673
vn -0.933768 0.357434 0.017830
vn -0.656680 0.753913 0.019673
vn -0.656680 0.753913 -0.019673
vn -0.933768 0.357434 -0.017830
vn -0.992613 0.120084 0.017315
vn -0.933768 0.357434 0.017830
vn -0.933768 0.357434 -0.017830
vn -0.992613 0.120084 -0.017315
vn -0.998221 0.056605 -0.018752
vn -0.998221 0.056605 0.018752
vn -0.992613 0.120084 0.017315
vn -0.992613 0.120084 -0.017315
vn -0.992881 -0.119109 0.000000
vn -0.992881 -0.119109 0.000000
vn -0.998413 -0.056310 0.000000
vn -0.998413 -0.056310 0.000000
vn -0.925688 -0.378289 0.000000
vn -0.925688 -0.378289 0.000000
vn -0.992881 -0.119109 0.000000
vn -0.992881 -0.119109 0.000000
vn -0.614870 -0.788628 0.000000
vn -0.614870 -0.788628 0.000000
vn -0.925688 -0.378289 0.000000
vn -0.925688 -0.378289 0.000000
vn -0.012005 -0.999928 0.000000
vn -0.012005 -0.999928 0.000000
vn -0.614870 -0.788628 0.000000
vn -0.614870 -0.788628 0.000000
vn 0.012005 -0.999928 0.000000
vn 0.012005 -0.999928 0.000000
vn -0.012005 -0.999928 0.000000
vn -0.012005 -0.999928 0.000000
vn 0.614870 -0.788628 0.000000
vn 0.614870 -0.788628 0.000000
vn 0.012005 -0.999928 0.000000
vn 0.012005 -0.999928 0.000000
vn 0.925688 -0.378289 0.000000
vn 0.925688 -0.378289 0.000000
vn 0.614870 -0.788628 0.000000
vn 0.614870 -0.788628 0.000000
vn 0.992881 -0.119109 0.000000
vn 0.992881 -0.119109 0.000000
vn 0.925688 -0.378289 0.000000
vn 0.925688 -0.378289 0.000000
vn 0.998413 -0.056310 0.000000
vn 0.992881 -0.119109 0.000000
vn 0.992881 -0.119109 0.000000
vn 0.998413 -0.056310 0.000000
vn -0.000003 0.000000 1.000000
vn -0.000006 0.000000 1.000000
vn 0.998221 0.056605 0.018752
vn 0.992613 0.120084 0.017315
vn 0.000001 0.000000 -1.000000
vn -0.000000 0.000000 -1.000000
vn 0.992613 0.120084 -0.017315
vn 0.998221 0.056605 -0.018752
vn 0.000002 -0.000000 1.000000
vn -0.000003 0.000000 1.000000
vn 0.992613 0.120084 0.017315
vn 0.933768 0.357434 0.017830
vn -0.000000 0.000000 -1.000000
vn -0.000002 0.000000 -1.000000
vn 0.933768 0.357434 -0.017830
vn 0.992613 0.120084 -0.017315
vn 0.000000 -0.000000 1.000000
vn 0.000002 -0.000000 1.000000
vn 0.933768 0.357434 0.017830
vn 0.656680 0.753913 0.019673
vn -0.000002 0.000000 -1.000000
vn -0.000000 0.000000 -1.000000
vn 0.656680 0.753913 -0.019673
vn 0.933768 0.357434 -0.017830
vn 0.000000 0.000000 1.000000
vn 0.000000 -0.000000 1.000000
vn 0.656680 0.753913 0.019673
vn 0.013234 0.999446 0.030530
vn -0.000000 0.000000 -1.000000
vn -0.000000 0.000000 -1.000000
vn 0.013234 0.999446 -0.030530
vn 0.656680 0.753913 -0.019673
vn 0.000000 0.000000 1.000000
vn 0.000000 0.000000 1.000000
vn 0.013234 0.999446 0.030530
vn -0.013234 0.999446 0.030530
vn -0.000000 0.000000 -1.000000
vn 0.000000 0.000000 -1.000000
vn -0.013234 0.999446 -0.030530
vn 0.013234 0.999446 -0.030530
vn -0.000003 0.000000 1.000000
vn 0.000000 0.000000 1.000000
vn -0.013234 0.999446 0.030530
vn -0.656680 0.753913 0.019673
vn 0.000000 0.000000 -1.000000
vn -0.000000 0.000000 -1.000000
vn -0.656680 0.753913 -0.019673
vn -0.013234 0.999446 -0.030530
vn -0.000002 0.000000 1.000000
vn -0.000003 0.000000 1.000000
vn -0.656680 0.753913 0.019673
vn -0.933768 0.357434 0.017830
vn -0.000000 0.000000 -1.000000
vn 0.000002 0.000000 -1.000000
vn -0.933768 0.357434 -0.017830
vn -0.656680 0.753913 -0.019673
vn 0.000004 0.000000 1.000000
vn -0.000002 0.000000 1.000000
vn -0.933768 0.357434 0.017830
vn -0.992613 0.120084 0.017315
vn 0.000002 0.000000 -1.000000
vn 0.000001 0.000000 -1.000000
vn -0.992613 0.120084 -0.017315
vn -0.933768 0.357434 -0.017830
vn 0.000005 0.000000 1.000000
vn 0.000004 0.000000 1.000000
vn -0.992613 0.120084 0.017315
vn -0.998221 0.056605 0.018752
vn 0.000001 0.000000 -1.000000
vn 0.000000 0.000000 -1.000000
vn -0.998221 0.056605 -0.018752
vn -0.992613 0.120084 -0.017315
f 22/1/1 21/2/2 23/3/3 24/4/4
f 25/5/5 22/1/6 24/4/7 26/6/8
f 27/7/9 25/5/10 26/6/11 28/8/12
f 29/9/13 27/7/14 28/8/15 30/10/16
f 31/11/17 29/9/18 30/10/19 32/12/20
f 33/13/21 31/11/22 32/12/23 34/14/24
f 35/15/25 33/13/26 34/14/27 36/16/28
f 37/17/29 35/15/30 36/16/31 38/18/32
f 40/19/33 39/20/34 37/17/35 38/18/36
f 1/21/37 4/22/38 3/23/39 2/24/40
f 5/25/41 6/26/42 4/22/43 1/21/44
f 7/27/45 8/28/46 6/26/47 5/25/48
f 9/29/49 10/30/50 8/28/51 7/27/52
f 11/31/53 12/32/54 10/30/55 9/29/56
f 13/33/57 14/34/58 12/32/59 11/31/60
f 15/35/61 16/36/62 14/34/63 13/33/64
f 17/37/65 18/38/66 16/36/67 15/35/68
f 19/39/69 18/38/70 17/37/71 20/40/72
f 1/41/73 2/42/74 21/2/75 22/1/76
f 3/43/77 4/44/78 24/4/79 23/3/80
f 5/45/81 1/41/82 22/1/83 25/5/84
f 4/44/85 6/46/86 26/6/87 24/4/88
f 7/47/89 5/45/90 25/5/91 27/7/92
f 6/46/93 8/48/94 28/8/95 26/6/96
f 9/49/97 7/47/98 27/7/99 29/9/100
f 8/48/101 10/50/102 30/10/103 28/8/104
f 11/51/105 9/49/106 29/9/107 31/11/108
f 10/50/109 12/52/110 32/12/111 30/10/112
f 13/53/113 11/51/114 31/11/115 33/13/116
f 12/52/117 14/54/118 34/14/119 32/12/120
f 15/55/121 13/53/122 33/13/123 35/15/124
f 14/54/125 16/56/126 36/16/127 34/14/128
f 17/57/129 15/55/130 35/15/131 37/17/132
f 16/56/133 18/58/134 38/18/135 36/16/136
f 20/59/137 17/57/138 37/17/139 39/20/140
f 18/58/141 19/60/142 40/19/143 38/18/144
