# This file uses meters as units for non-parametric coordinates.

v -150.606049 24.045475 -63.680437
v -150.606049 48.330108 -61.764101
v -143.466354 54.861068 -56.202715
v -144.971939 54.861068 -52.044275
v -151.502777 48.330108 -52.044275
v -153.452332 24.045475 -52.044275
v -138.752914 54.861068 -58.768786
v -138.752899 48.330108 -62.596514
v -138.752899 24.045475 -66.923174
v -138.752914 56.557380 -52.044275
v -150.606049 48.330108 91.726789
v -143.466354 54.861068 86.165403
v -138.752914 54.861068 88.731474
v -138.752899 48.330108 92.559202
v -138.752899 24.045475 96.885862
v -150.606049 24.045475 93.643125
v -151.502777 48.330108 82.006964
v -144.971939 54.861068 82.006964
v -153.452332 24.045475 82.006964
v -138.752914 56.557380 82.006964
v -147.483582 48.330093 -59.507082
v -149.433167 24.045475 -61.423418
v -147.483582 48.330093 89.469770
v -149.433167 24.045475 91.386106
v -138.752899 38.532356 95.404310
v -152.292587 38.532356 92.684965
v -150.144913 38.532348 90.427946
v -154.164093 38.532356 82.006964
v -154.164093 38.532356 -52.044275
v -150.144913 38.532348 -60.465258
v -152.292587 38.532356 -62.722277
v -138.752899 38.532356 -65.441622
v 154.559601 24.045475 -63.680437
v 154.559601 48.330108 -61.764101
v 147.419907 54.861068 -56.202715
v 148.925491 54.861068 -52.044275
v 155.456329 48.330108 -52.044275
v 157.405884 24.045475 -52.044275
v 142.706467 54.861068 -58.768786
v 142.706451 48.330108 -62.596514
v 142.706451 24.045475 -66.923174
v 142.706467 56.557380 -52.044275
v 154.559601 48.330108 91.726789
v 147.419907 54.861068 86.165403
v 142.706467 54.861068 88.731474
v 142.706451 48.330108 92.559202
v 142.706451 24.045475 96.885862
v 154.559601 24.045475 93.643125
v 155.456329 48.330108 82.006964
v 148.925491 54.861068 82.006964
v 157.405884 24.045475 82.006964
v 142.706467 56.557380 82.006964
v 151.437134 48.330093 -59.507082
v 153.386719 24.045475 -61.423418
v 151.437134 48.330093 89.469770
v 153.386719 24.045475 91.386106
v 142.706451 38.532356 95.404310
v 156.246140 38.532356 92.684965
v 154.098465 38.532348 90.427946
v 158.117645 38.532356 82.006964
v 158.117645 38.532356 -52.044275
v 154.098465 38.532348 -60.465258
v 156.246140 38.532356 -62.722277
v 142.706451 38.532356 -65.441622
v -125.249184 24.045475 96.885862
v -125.249184 38.532356 95.404310
v -125.249184 48.330116 92.559202
v -125.249191 54.861068 88.731474
v -125.249191 56.557380 82.006964
v -125.249191 56.557380 -52.044275
v -125.249191 54.861068 -58.768786
v -125.249184 48.330116 -62.596514
v -125.249184 38.532356 -65.441622
v -125.249184 24.045475 -66.923174
vt 0.289372 0.914503
vt 0.289698 0.914900
vt 0.289547 0.915161
vt 0.289323 0.915161
vt 0.289156 0.915161
vt 0.289316 0.914410
vt 0.289504 0.914677
vt 0.289941 0.914453
vt 0.289941 0.914816
vt 0.289448 0.914529
vt 0.289941 0.914306
vt 0.289941 0.915161
vt 0.305249 0.914503
vt 0.305298 0.915161
vt 0.305073 0.915161
vt 0.304923 0.914900
vt 0.305464 0.915161
vt 0.305305 0.914410
vt 0.305117 0.914677
vt 0.305173 0.914529
vt 0.304679 0.915161
vt 0.304679 0.914816
vt 0.304679 0.914453
vt 0.304679 0.914306
vt 0.305551 0.915161
vt 0.305361 0.914503
vt 0.305229 0.914568
vt 0.304679 0.914345
vt 0.289941 0.914345
vt 0.289392 0.914568
vt 0.289259 0.914503
vt 0.289069 0.915161
vt 0.305551 0.915911
vt 0.305464 0.915911
vt 0.305298 0.915911
vt 0.305073 0.915911
vt 0.304679 0.915911
vt 0.289941 0.915911
vt 0.289547 0.915911
vt 0.289323 0.915911
vt 0.289156 0.915911
vt 0.289069 0.915911
vt 0.289372 0.931450
vt 0.289323 0.930792
vt 0.289547 0.930792
vt 0.289698 0.931053
vt 0.289156 0.930792
vt 0.289316 0.931543
vt 0.289941 0.931137
vt 0.289941 0.931499
vt 0.289504 0.931276
vt 0.289941 0.931647
vt 0.289448 0.931424
vt 0.289941 0.930792
vt 0.305249 0.931450
vt 0.304923 0.931053
vt 0.305073 0.930792
vt 0.305298 0.930792
vt 0.305464 0.930792
vt 0.305305 0.931543
vt 0.305117 0.931276
vt 0.305173 0.931424
vt 0.304679 0.931137
vt 0.304679 0.930792
vt 0.304679 0.931499
vt 0.304679 0.931647
vt 0.305551 0.930792
vt 0.305361 0.931450
vt 0.305229 0.931385
vt 0.304679 0.931608
vt 0.289941 0.931608
vt 0.289392 0.931385
vt 0.289259 0.931450
vt 0.289069 0.930792
vn -0.341018 0.364175 -0.866651
vn -0.371177 0.772798 -0.514792
vn -0.060198 0.769274 -0.636077
vn -0.066021 0.371139 -0.926227
vn -0.093933 0.149463 -0.984295
vn -0.410198 0.126740 -0.903147
vn -0.818569 0.406016 -0.406320
vn -0.873076 0.487111 -0.021468
vn -0.544651 0.838580 -0.011821
vn -0.901606 0.079067 -0.425271
vn -0.996403 0.080291 -0.027106
vn -0.083999 0.996415 -0.010088
vn -0.341018 0.364175 0.866651
vn -0.066021 0.371139 0.926227
vn -0.060198 0.769273 0.636078
vn -0.371177 0.772798 0.514792
vn -0.093933 0.149463 0.984295
vn -0.410198 0.126740 0.903147
vn -0.625662 0.023436 -0.779743
vn -0.733462 -0.018920 -0.679467
vn -0.083999 0.996415 0.010088
vn -0.544651 0.838580 0.011821
vn -0.873076 0.487111 0.021468
vn -0.996403 0.080291 0.027106
vn -0.625662 0.023436 0.779742
vn -0.733463 -0.018920 0.679466
vn -0.818569 0.406016 0.406320
vn -0.901606 0.079067 0.425270
vn -0.111642 0.086158 0.990007
vn -0.412214 0.050694 0.909676
vn -0.801057 -0.105281 -0.589257
vn -0.910936 -0.031151 0.411370
vn -0.998438 -0.048116 0.028395
vn -0.998438 -0.048116 -0.028396
vn -0.910936 -0.031151 -0.411370
vn -0.412214 0.050694 -0.909676
vn -0.801057 -0.105281 0.589257
vn -0.111642 0.086158 -0.990007
vn 0.000000 0.101738 0.994811
vn 0.000000 0.175402 0.984497
vn 0.000000 0.378289 0.925688
vn -0.000000 0.788628 0.614870
vn 0.000000 0.999927 0.012049
vn -0.000000 0.999927 -0.012049
vn -0.000000 0.788628 -0.614870
vn 0.000000 0.378289 -0.925688
vn -0.000000 0.175402 -0.984497
vn -0.000000 0.101738 -0.994811
vn 0.341018 0.364176 -0.866650
vn 0.005787 0.377729 -0.925898
vn 0.004555 0.787287 -0.616571
vn 0.371177 0.772798 -0.514792
vn 0.008749 0.173057 -0.984873
vn 0.410199 0.126741 -0.903147
vn 0.544651 0.838580 -0.011821
vn 0.873076 0.487111 -0.021468
vn 0.818569 0.406016 -0.406320
vn 0.996403 0.080291 -0.027106
vn 0.901606 0.079067 -0.425270
vn 0.006035 0.999911 -0.011911
vn 0.341018 0.364175 0.866650
vn 0.371177 0.772798 0.514792
vn 0.004555 0.787287 0.616571
vn 0.005787 0.377729 0.925898
vn 0.008749 0.173057 0.984873
vn 0.410199 0.126740 0.903147
vn 0.625659 0.023436 -0.779745
vn 0.733460 -0.018920 -0.679470
vn 0.544651 0.838580 0.011821
vn 0.006035 0.999911 0.011911
vn 0.873076 0.487111 0.021468
vn 0.996403 0.080291 0.027106
vn 0.625659 0.023436 0.779744
vn 0.733460 -0.018920 0.679470
vn 0.818569 0.406016 0.406320
vn 0.901606 0.079067 0.425270
vn 0.010395 0.100342 0.994899
vn 0.412215 0.050694 0.909675
vn 0.801054 -0.105280 -0.589261
vn 0.910936 -0.031151 0.411370
vn 0.998438 -0.048116 0.028395
vn 0.998438 -0.048116 -0.028395
vn 0.910936 -0.031151 -0.411370
vn 0.412214 0.050694 -0.909675
vn 0.801054 -0.105280 0.589261
vn 0.010395 0.100342 -0.994899
f 2/1/1 3/2/2 7/3/3 8/4/4
f 32/5/5 31/6/6 2/1/1 8/4/4
f 3/2/2 21/7/7 5/8/8 4/9/9
f 21/7/7 30/10/10 29/11/11 5/8/8
f 3/2/2 4/9/9 10/12/12 7/3/3
f 11/13/13 14/14/14 13/15/15 12/16/16
f 25/17/17 14/14/14 11/13/13 26/18/18
f 12/16/16 23/19/19 11/13/13
f 26/18/18 11/13/13 23/19/19 27/20/20
f 12/16/16 13/15/15 20/21/21 18/22/22
f 4/9/9 5/8/8 17/23/23 18/22/22
f 5/8/8 29/11/11 28/24/24 17/23/23
f 10/12/12 4/9/9 18/22/22 20/21/21
f 3/2/2 2/1/1 21/7/25
f 31/6/6 30/10/26 21/7/25 2/1/1
f 12/16/16 18/22/22 17/23/23 23/19/27
f 27/20/28 23/19/27 17/23/23 28/24/24
f 15/25/29 25/17/17 26/18/18 16/26/30
f 16/26/30 26/18/18 27/20/20 24/27/31
f 24/27/32 27/20/28 28/24/24 19/28/33
f 29/11/11 6/29/34 19/28/33 28/24/24
f 30/10/10 22/30/35 6/29/34 29/11/11
f 1/31/36 22/30/37 30/10/26 31/6/6
f 9/32/38 1/31/36 31/6/6 32/5/5
f 25/17/17 15/25/29 65/33/39 66/34/40
f 14/14/14 25/17/17 66/34/40 67/35/41
f 13/15/15 14/14/14 67/35/41 68/36/42
f 20/21/21 13/15/15 68/36/42 69/37/43
f 10/12/12 20/21/21 69/37/43 70/38/44
f 7/3/3 10/12/12 70/38/44 71/39/45
f 8/4/4 7/3/3 71/39/45 72/40/46
f 32/5/5 8/4/4 72/40/46 73/41/47
f 74/42/48 9/32/38 32/5/5 73/41/47
f 34/43/49 40/44/50 39/45/51 35/46/52
f 64/47/53 40/44/50 34/43/49 63/48/54
f 35/46/52 36/49/55 37/50/56 53/51/57
f 53/51/57 37/50/56 61/52/58 62/53/59
f 35/46/52 39/45/51 42/54/60 36/49/55
f 43/55/61 44/56/62 45/57/63 46/58/64
f 57/59/65 58/60/66 43/55/61 46/58/64
f 44/56/62 43/55/61 55/61/67
f 58/60/66 59/62/68 55/61/67 43/55/61
f 44/56/62 50/63/69 52/64/70 45/57/63
f 37/50/56 36/49/55 50/63/69 49/65/71
f 61/52/58 37/50/56 49/65/71 60/66/72
f 36/49/55 42/54/60 52/64/70 50/63/69
f 35/46/52 53/51/73 34/43/49
f 63/48/54 34/43/49 53/51/73 62/53/74
f 44/56/62 55/61/75 49/65/71 50/63/69
f 59/62/76 60/66/72 49/65/71 55/61/75
f 47/67/77 48/68/78 58/60/66 57/59/65
f 48/68/78 56/69/79 59/62/68 58/60/66
f 56/69/80 51/70/81 60/66/72 59/62/76
f 51/70/81 38/71/82 61/52/58 60/66/72
f 62/53/59 61/52/58 38/71/82 54/72/83
f 33/73/84 63/48/54 62/53/74 54/72/85
f 41/74/86 64/47/53 63/48/54 33/73/84
f 66/34/40 65/33/39 47/67/77 57/59/65
f 67/35/41 66/34/40 57/59/65 46/58/64
f 68/36/42 67/35/41 46/58/64 45/57/63
f 69/37/43 68/36/42 45/57/63 52/64/70
f 70/38/44 69/37/43 52/64/70 42/54/60
f 71/39/45 70/38/44 42/54/60 39/45/51
f 72/40/46 71/39/45 39/45/51 40/44/50
f 73/41/47 72/40/46 40/44/50 64/47/53
f 41/74/86 74/42/48 73/41/47 64/47/53
