# This file uses meters as units for non-parametric coordinates.

v 152.111252 39.678929 -63.680435
v 154.957520 39.678929 -52.044273
v 140.258102 39.678929 -66.923172
v 140.258102 39.678929 96.885864
v 152.111252 39.678929 93.643127
v 154.957535 39.678929 82.006958
v 150.938370 39.678929 -61.423416
v 150.938370 39.678929 91.386108
v -88.897423 39.678925 -66.923172
v -88.897423 51.905091 -65.441620
v -88.897423 60.173874 -62.596512
v -88.897423 65.685662 -58.768784
v -88.897423 67.117264 -52.044281
v -88.897430 67.117264 82.006966
v -88.897423 65.685662 88.731476
v -88.897423 60.173874 92.559204
v -88.897423 51.905091 95.404312
v -88.897423 39.678925 96.885864
v 140.330215 60.510887 -63.479790
v 152.940689 60.552162 -62.000656
v 140.343063 66.344620 -59.341469
v 145.344925 66.368630 -56.590729
v 140.347275 52.038803 -66.396500
v 154.719528 51.998452 -63.010323
v 146.975510 66.380730 -52.179047
v 153.840714 60.564438 -52.237213
v 149.868423 60.389672 -59.182022
v 156.612457 51.996262 -52.253075
v 152.606186 51.953781 -60.299644
v 140.369186 67.927582 -52.147316
v 152.940689 60.552162 91.963348
v 145.344925 66.368630 86.553421
v 140.343063 66.344620 89.304153
v 140.330215 60.510887 93.442474
v 140.347275 52.038803 96.359192
v 154.719528 51.998452 92.973007
v 149.868423 60.389672 89.144714
v 152.606186 51.953781 90.262329
v 146.975510 66.380730 82.141739
v 140.369186 67.927582 82.110001
v 153.840714 60.564438 82.199905
v 156.612473 51.996262 82.215775
v 140.368912 39.748757 97.841400
v 152.611404 39.663845 93.828766
v 151.770432 39.622971 91.299652
v 155.885696 39.646023 82.206894
v 155.885696 39.646023 -52.244202
v 151.770416 39.622971 -61.336952
v 152.611389 39.663845 -63.866081
v 140.368912 39.748757 -67.878708
v -20.083572 39.678925 96.885864
v -18.492485 39.759796 99.175858
v -18.496590 52.056954 97.656693
v -18.499062 61.171990 94.225510
v -18.496620 67.447747 89.276199
v -18.491692 69.072373 82.122833
v -18.491692 69.072373 -52.160141
v -18.496628 67.447747 -59.313515
v -18.499069 61.171990 -64.262817
v -18.496582 52.056954 -67.694000
v -18.492485 39.759796 -69.213173
v -20.083572 39.678925 -66.923172
v -18.512070 39.678917 96.885864
v -18.490295 39.759705 97.850601
v -18.494553 52.056794 96.355438
v -18.497902 60.498650 93.444687
v -18.495369 66.301346 89.276443
v -18.490265 67.925621 82.122726
v -18.490265 67.925621 -52.160038
v -18.495377 66.301346 -59.313751
v -18.497902 60.498650 -63.482002
v -18.494537 52.056801 -66.392761
v -18.490295 39.759705 -67.887909
v -18.512070 39.678917 -66.923172
v -88.897423 51.982277 95.875626
v -88.411667 52.054451 96.369530
v -88.411659 39.762360 97.867126
v -88.897430 39.720654 97.369408
v -88.897423 60.328934 92.996613
v -88.411613 60.493576 93.458542
v -88.897423 65.937775 88.955246
v -88.411667 66.302567 89.272469
v -88.897423 67.515015 82.061142
v -88.411674 69.198548 82.126099
v -88.897423 67.515015 -52.098450
v -88.411674 69.198548 -52.163406
v -88.897423 65.937775 -58.992554
v -88.411659 66.302567 -59.309769
v -88.897423 60.328934 -63.033920
v -88.411606 60.493576 -63.495842
v -88.897423 51.982277 -65.912933
v -88.411659 52.054451 -66.406845
v -88.411659 39.762360 -67.904434
v -88.897423 39.720654 -67.406723
vt 0.018311 0.234336
vt 0.018048 0.230794
vt 0.019256 0.230794
vt 0.020065 0.232202
vt 0.017151 0.230794
vt 0.018009 0.234840
vt 0.021377 0.232652
vt 0.021377 0.234603
vt 0.019023 0.233403
vt 0.021377 0.235399
vt 0.018720 0.234198
vt 0.021377 0.230794
vt 0.103754 0.234336
vt 0.102000 0.232202
vt 0.102810 0.230794
vt 0.104017 0.230794
vt 0.104914 0.230794
vt 0.104057 0.234840
vt 0.103043 0.233403
vt 0.103345 0.234198
vt 0.100689 0.232652
vt 0.100689 0.230794
vt 0.100689 0.234603
vt 0.100689 0.235399
vt 0.105382 0.230794
vt 0.104359 0.234336
vt 0.103647 0.233985
vt 0.100689 0.235186
vt 0.021377 0.235186
vt 0.018418 0.233985
vt 0.017706 0.234336
vt 0.016683 0.230794
vt 0.105382 0.230794
vt 0.104359 0.234336
vt 0.103647 0.233985
vt 0.100689 0.235186
vt 0.021377 0.235186
vt 0.018418 0.233985
vt 0.017706 0.234336
vt 0.016683 0.230794
vt 0.105382 0.175293
vt 0.105382 0.175763
vt 0.105382 0.175763
vt 0.104914 0.175763
vt 0.104017 0.175763
vt 0.102810 0.175764
vt 0.100689 0.175763
vt 0.021377 0.175763
vt 0.019256 0.175764
vt 0.018048 0.175763
vt 0.017151 0.175764
vt 0.016683 0.175763
vt 0.016683 0.175763
vt 0.105382 0.162310
vt 0.105382 0.175293
vt 0.016683 0.175293
vt 0.105382 0.162450
vt 0.016683 0.162309
vt 0.104914 0.175293
vt 0.104914 0.162450
vt 0.104017 0.175293
vt 0.104018 0.162450
vt 0.102810 0.175294
vt 0.102810 0.162450
vt 0.100689 0.175293
vt 0.100689 0.162450
vt 0.021377 0.175293
vt 0.021377 0.162450
vt 0.019256 0.175294
vt 0.019255 0.162450
vt 0.018048 0.175293
vt 0.018047 0.162450
vt 0.017151 0.175294
vt 0.016683 0.175293
vt 0.016683 0.162450
vt 0.017151 0.162450
vt 0.104914 0.162310
vt 0.105382 0.162310
vt 0.104914 0.162310
vt 0.104017 0.162310
vt 0.104018 0.162310
vt 0.102810 0.162310
vt 0.102810 0.162309
vt 0.100689 0.162310
vt 0.100686 0.162310
vt 0.021377 0.162310
vt 0.021379 0.162309
vt 0.019256 0.162310
vt 0.019256 0.162310
vt 0.018048 0.162310
vt 0.018048 0.162309
vt 0.017151 0.162310
vt 0.017151 0.162310
vt 0.016683 0.162310
vn 0.382483 0.417523 -0.824246
vn 0.012015 0.442035 -0.896918
vn 0.007890 0.834523 -0.550917
vn 0.328652 0.815982 -0.475564
vn 0.018124 0.202320 -0.979152
vn 0.459749 0.140884 -0.876802
vn 0.482603 0.875768 -0.011189
vn 0.833113 0.552719 -0.020613
vn 0.884672 0.447778 -0.129812
vn 0.994880 0.097408 -0.026933
vn 0.980780 0.070868 -0.181791
vn 0.009116 0.999897 -0.011082
vn 0.382483 0.417523 0.824246
vn 0.328651 0.815983 0.475563
vn 0.007890 0.834523 0.550917
vn 0.012015 0.442034 0.896918
vn 0.018124 0.202320 0.979152
vn 0.459749 0.140884 0.876802
vn 0.884671 0.447779 0.129812
vn 0.980780 0.070870 0.181791
vn 0.482603 0.875768 0.011189
vn 0.009116 0.999897 0.011082
vn 0.833113 0.552719 0.020613
vn 0.994880 0.097408 0.026933
vn 0.021083 0.116481 0.992969
vn 0.451710 0.042038 0.891174
vn 0.975588 -0.071743 0.207559
vn 0.997915 -0.057798 0.028722
vn 0.997915 -0.057798 -0.028722
vn 0.975588 -0.071745 -0.207559
vn 0.451710 0.042037 -0.891174
vn 0.021083 0.116480 -0.992969
vn 0.000446 -0.997077 0.076408
vn -0.000746 -0.999151 0.041191
vn -0.003928 -0.999166 0.040656
vn 0.000410 -0.997066 0.076543
vn -0.050096 -0.998655 -0.013387
vn -0.049854 -0.998638 -0.015359
vn -0.036273 -0.999341 -0.001420
vn -0.036281 -0.999341 -0.001434
vn -0.036273 -0.999341 0.001420
vn -0.036281 -0.999341 0.001434
vn -0.050097 -0.998655 0.013387
vn -0.049855 -0.998638 0.015360
vn -0.000746 -0.999151 -0.041193
vn -0.003928 -0.999165 -0.040658
vn 0.000446 -0.997077 -0.076406
vn 0.000410 -0.997066 -0.076540
vn -0.000497 -0.998723 0.050514
vn -0.000285 -0.998729 0.050405
vn -0.000190 -0.998731 0.050355
vn -0.000497 -0.998723 0.050514
vn -0.000497 -0.998723 0.050514
vn -0.000285 -0.998729 -0.050406
vn -0.000497 -0.998723 -0.050515
vn -0.000497 -0.998723 -0.050515
vn -0.000497 -0.998723 -0.050515
vn -0.000190 -0.998731 -0.050356
vn 0.000324 -0.996979 0.077674
vn 0.000624 -0.997013 0.077235
vn 0.999999 0.000617 0.001506
vn 0.999999 0.000537 0.001609
vn 0.008867 0.120215 0.992708
vn 0.008110 0.207561 0.978188
vn 0.999999 0.000749 0.001365
vn 0.007362 0.443648 0.896171
vn 0.999999 0.001061 0.001080
vn 0.007951 0.836353 0.548133
vn 0.999999 0.001241 0.000042
vn 0.007250 0.999909 0.011342
vn 0.999999 0.001241 -0.000042
vn 0.007250 0.999909 -0.011342
vn 0.999999 0.001061 -0.001082
vn 0.007951 0.836353 -0.548133
vn 0.999999 0.000752 -0.001370
vn 0.007362 0.443649 -0.896171
vn 0.999999 0.000618 -0.001510
vn 0.008110 0.207561 -0.978189
vn 0.008867 0.120214 -0.992708
vn 0.999999 0.000537 -0.001612
vn 0.000324 -0.996979 -0.077671
vn 0.000624 -0.997013 -0.077232
vn -0.715852 0.147593 0.682475
vn -0.716026 0.142328 0.683410
vn -0.708281 0.308225 0.635087
vn -0.707524 0.319811 0.630183
vn -0.716591 0.084352 0.692374
vn -0.716591 0.084352 0.692374
vn -0.852333 0.423169 0.307338
vn -0.858515 0.422116 0.291153
vn -0.959714 0.280954 0.003627
vn -0.959343 0.282203 0.004842
vn -0.959714 0.280954 -0.003627
vn -0.959343 0.282203 -0.004842
vn -0.852330 0.423173 -0.307340
vn -0.858512 0.422120 -0.291158
vn -0.708275 0.308226 -0.635093
vn -0.707518 0.319812 -0.630190
vn -0.716022 0.142327 -0.683415
vn -0.715847 0.147592 -0.682480
vn -0.716588 0.084352 -0.692378
vn -0.716588 0.084352 -0.692378
vn -0.017257 0.217034 0.976011
vn -0.018423 0.121749 0.992390
vn -0.018423 0.121749 0.992390
vn -0.017265 0.216437 0.976144
vn -0.014193 0.462546 0.886482
vn -0.014187 0.463101 0.886192
vn -0.010112 0.814764 0.579704
vn -0.010080 0.816920 0.576663
vn 0.001345 0.999872 0.015973
vn 0.001345 0.999871 0.015975
vn 0.001345 0.999872 -0.015973
vn 0.001345 0.999872 -0.015975
vn -0.010112 0.814765 -0.579704
vn -0.010080 0.816920 -0.576662
vn -0.014193 0.462546 -0.886482
vn -0.014187 0.463101 -0.886192
vn -0.017257 0.217035 -0.976011
vn -0.017264 0.216437 -0.976144
vn -0.018423 0.121749 -0.992390
vn -0.018423 0.121749 -0.992390
vn -1.000000 0.000001 -0.000005
vn -1.000000 -0.000002 -0.000008
vn -1.000000 -0.000002 -0.000008
vn -1.000000 0.000000 -0.000005
vn -1.000000 0.000004 0.000000
vn -1.000000 0.000004 0.000000
vn -1.000000 0.000006 0.000001
vn -1.000000 0.000006 0.000001
vn -1.000000 0.000004 0.000000
vn -1.000000 0.000004 0.000000
vn -1.000000 0.000003 -0.000000
vn -1.000000 0.000003 -0.000000
vn -1.000000 0.000001 0.000000
vn -1.000000 0.000002 0.000000
vn -1.000000 0.000004 0.000000
vn -1.000000 0.000004 0.000000
vn -1.000000 0.000001 0.000000
vn -1.000000 0.000001 0.000000
vn -1.000000 0.000000 0.000000
vn -1.000000 0.000000 0.000000
f 20/1/1 19/2/2 21/3/3 22/4/4
f 23/5/5 19/2/2 20/1/1 24/6/6
f 22/4/4 25/7/7 26/8/8 27/9/9
f 27/9/9 26/8/8 28/10/10 29/11/11
f 22/4/4 21/3/3 30/12/12 25/7/7
f 31/13/13 32/14/14 33/15/15 34/16/16
f 35/17/17 36/18/18 31/13/13 34/16/16
f 32/14/14 31/13/13 37/19/19
f 36/18/18 38/20/20 37/19/19 31/13/13
f 32/14/14 39/21/21 40/22/22 33/15/15
f 26/8/8 25/7/7 39/21/21 41/23/23
f 28/10/10 26/8/8 41/23/23 42/24/24
f 25/7/7 30/12/12 40/22/22 39/21/21
f 22/4/4 27/9/9 20/1/1
f 24/6/6 20/1/1 27/9/9 29/11/11
f 32/14/14 37/19/19 41/23/23 39/21/21
f 38/20/20 42/24/24 41/23/23 37/19/19
f 43/33/25 44/34/26 36/18/18 35/17/17
f 44/34/26 45/35/27 38/20/20 36/18/18
f 45/35/27 46/36/28 42/24/24 38/20/20
f 46/36/28 47/37/29 28/10/10 42/24/24
f 29/11/11 28/10/10 47/37/29 48/38/30
f 49/39/31 24/6/6 29/11/11 48/38/30
f 50/40/32 23/5/5 24/6/6 49/39/31
f 4/25/33 5/26/34 44/34/35 43/33/36
f 5/26/34 8/27/37 45/35/38 44/34/35
f 8/27/37 6/28/39 46/36/40 45/35/38
f 6/28/39 2/29/41 47/37/42 46/36/40
f 2/29/41 7/30/43 48/38/44 47/37/42
f 7/30/43 1/31/45 49/39/46 48/38/44
f 1/31/45 3/32/47 50/40/48 49/39/46
f 18/54/49 51/41/50 52/55/51 77/57/52 78/78/53
f 62/56/54 9/94/55 94/58/56 93/75/57 61/74/58
f 51/41/50 63/42/59 64/43/60 52/55/51
f 53/59/61 52/55/62 64/43/63 65/44/64
f 54/61/65 53/59/61 65/44/64 66/45/66
f 55/63/67 54/61/65 66/45/66 67/46/68
f 56/65/69 55/63/67 67/46/68 68/47/70
f 57/67/71 56/65/69 68/47/70 69/48/72
f 58/69/73 57/67/71 69/48/72 70/49/74
f 59/71/75 58/69/73 70/49/74 71/50/76
f 60/73/77 59/71/75 71/50/76 72/51/78
f 73/52/79 61/74/80 60/73/77 72/51/78
f 74/53/81 62/56/54 61/74/58 73/52/82
f 63/42/59 4/25/33 43/33/36 64/43/60
f 65/44/64 64/43/63 43/33/25 35/17/17
f 66/45/66 65/44/64 35/17/17 34/16/16
f 67/46/68 66/45/66 34/16/16 33/15/15
f 68/47/70 67/46/68 33/15/15 40/22/22
f 69/48/72 68/47/70 40/22/22 30/12/12
f 70/49/74 69/48/72 30/12/12 21/3/3
f 71/50/76 70/49/74 21/3/3 19/2/2
f 72/51/78 71/50/76 19/2/2 23/5/5
f 50/40/32 73/52/79 72/51/78 23/5/5
f 3/32/47 74/53/81 73/52/82 50/40/48
f 75/79/83 76/60/84 80/62/85 79/81/86
f 76/60/84 75/79/83 78/78/87 77/57/88
f 79/81/86 80/62/85 82/64/89 81/83/90
f 81/83/90 82/64/89 84/66/91 83/85/92
f 83/85/92 84/66/91 86/68/93 85/87/94
f 85/87/94 86/68/93 88/70/95 87/89/96
f 87/89/96 88/70/95 90/72/97 89/91/98
f 89/91/98 90/72/97 92/76/99 91/93/100
f 91/93/100 92/76/99 93/75/101 94/58/102
f 76/60/103 77/57/104 52/55/105 53/59/106
f 80/62/107 76/60/103 53/59/106 54/61/108
f 82/64/109 80/62/107 54/61/108 55/63/110
f 84/66/111 82/64/109 55/63/110 56/65/112
f 86/68/113 84/66/111 56/65/112 57/67/114
f 88/70/115 86/68/113 57/67/114 58/69/116
f 90/72/117 88/70/115 58/69/116 59/71/118
f 92/76/119 90/72/117 59/71/118 60/73/120
f 61/74/121 93/75/122 92/76/119 60/73/120
f 17/77/123 18/54/124 78/78/125 75/79/126
f 16/80/127 17/77/123 75/79/126 79/81/128
f 15/82/129 16/80/127 79/81/128 81/83/130
f 14/84/131 15/82/129 81/83/130 83/85/132
f 13/86/133 14/84/131 83/85/132 85/87/134
f 12/88/135 13/86/133 85/87/134 87/89/136
f 11/90/137 12/88/135 87/89/136 89/91/138
f 10/92/139 11/90/137 89/91/138 91/93/140
f 9/94/141 10/92/139 91/93/140 94/58/142
