# This file uses meters as units for non-parametric coordinates.

v 154.559601 55.225782 -63.680437
v 157.405884 55.225782 -52.044275
v 142.706451 55.225782 -66.923174
v 142.706451 55.225782 96.885862
v 154.559601 55.225782 93.643125
v 157.405884 55.225782 82.006964
v 153.386719 55.225782 -61.423418
v 153.386719 55.225782 91.386106
v -86.449066 55.225778 -66.923174
v -86.449066 69.712663 -65.441622
v -86.449066 79.510415 -62.596514
v -86.449066 86.041375 -58.768786
v -86.449066 87.737687 -52.044275
v -86.449066 87.737687 82.006964
v -86.449066 86.041375 88.731474
v -86.449066 79.510415 92.559202
v -86.449066 69.712663 95.404310
v -86.449066 55.225778 96.885862
v 142.778580 79.909738 -63.479792
v 155.389038 79.958650 -62.000658
v 142.791428 86.822183 -59.341471
v 147.793274 86.850625 -56.590731
v 142.795639 69.871102 -66.396502
v 157.167892 69.823289 -63.010325
v 149.423859 86.864968 -52.179049
v 156.289078 79.973191 -52.237215
v 152.316788 79.766114 -59.182024
v 159.060822 69.820695 -52.253077
v 155.054550 69.770356 -60.299647
v 142.817551 88.697839 -52.147318
v 155.389038 79.958650 91.963346
v 147.793274 86.850625 86.553419
v 142.791428 86.822183 89.304159
v 142.778580 79.909738 93.442480
v 142.795639 69.871102 96.359190
v 157.167892 69.823289 92.973013
v 152.316788 79.766114 89.144712
v 155.054550 69.770356 90.262335
v 149.423859 86.864968 82.141737
v 142.817551 88.697839 82.110006
v 156.289078 79.973191 82.199911
v 159.060822 69.820695 82.215772
v 142.817276 55.308522 97.841398
v 155.059753 55.207910 93.828771
v 154.218781 55.159474 91.299650
v 158.334045 55.186792 82.206899
v 158.334045 55.186792 -52.244204
v 154.218781 55.159474 -61.336954
v 155.059753 55.207910 -63.866083
v 142.817276 55.308522 -67.878710
v -43.003014 55.225778 96.885862
v -41.411926 55.321607 99.175863
v -41.416031 69.892610 97.656690
v -41.418503 80.693086 94.225508
v -41.416061 88.129281 89.276205
v -41.411118 90.054315 82.122839
v -41.411118 90.054315 -52.160143
v -41.416061 88.129281 -59.313517
v -41.418503 80.693086 -64.262819
v -41.416023 69.892610 -67.694002
v -41.411926 55.321607 -69.213175
v -43.003014 55.225778 -66.923174
v -41.431511 55.225774 96.885862
v -41.409737 55.321496 97.850599
v -41.413990 69.892419 96.355444
v -41.417343 79.895242 93.444692
v -41.414810 86.770906 89.276441
v -41.409687 88.695520 82.122732
v -41.409687 88.695520 -52.160036
v -41.414810 86.770906 -59.313753
v -41.417343 79.895242 -63.482004
v -41.413979 69.892427 -66.392763
v -41.409737 55.321496 -67.887911
v -41.431511 55.225774 -66.923174
v -86.449066 69.804116 95.875623
v -85.963303 69.889642 96.369528
v -85.963303 55.324636 97.867124
v -86.449066 55.275228 97.369406
v -86.449066 79.694139 92.996610
v -85.963249 79.889230 93.458540
v -86.449066 86.340104 88.955244
v -85.963303 86.772348 89.272466
v -86.449066 88.208985 82.061140
v -85.963318 88.709619 82.126097
v -86.449066 88.208985 -52.098444
v -85.963318 88.709619 -52.163401
v -86.449066 86.340104 -58.992556
v -85.963303 86.772348 -59.309771
v -86.449066 79.694139 -63.033922
v -85.963249 79.889230 -63.495844
v -86.449066 69.804116 -65.912935
v -85.963303 69.889642 -66.406840
v -85.963303 55.324636 -67.904436
v -86.449066 55.275228 -67.406718
vt 0.143311 0.484336
vt 0.143048 0.480794
vt 0.144256 0.480794
vt 0.145065 0.482202
vt 0.142151 0.480794
vt 0.143009 0.484840
vt 0.146377 0.482652
vt 0.146377 0.484603
vt 0.144023 0.483403
vt 0.146377 0.485399
vt 0.143720 0.484198
vt 0.146377 0.480794
vt 0.228754 0.484336
vt 0.227000 0.482202
vt 0.227810 0.480794
vt 0.229017 0.480794
vt 0.229914 0.480794
vt 0.229057 0.484840
vt 0.228043 0.483403
vt 0.228345 0.484198
vt 0.225689 0.482652
vt 0.225689 0.480794
vt 0.225689 0.484603
vt 0.225689 0.485399
vt 0.230382 0.480794
vt 0.229359 0.484336
vt 0.228647 0.483985
vt 0.225689 0.485186
vt 0.146377 0.485186
vt 0.143418 0.483985
vt 0.142706 0.484336
vt 0.141683 0.480794
vt 0.230382 0.480794
vt 0.229359 0.484336
vt 0.228647 0.483985
vt 0.225689 0.485186
vt 0.146377 0.485186
vt 0.143418 0.483985
vt 0.142706 0.484336
vt 0.141683 0.480794
vt 0.230382 0.425293
vt 0.230382 0.425763
vt 0.230382 0.425763
vt 0.229914 0.425763
vt 0.229017 0.425763
vt 0.227810 0.425764
vt 0.225689 0.425763
vt 0.146377 0.425763
vt 0.144256 0.425764
vt 0.143048 0.425763
vt 0.142151 0.425764
vt 0.141683 0.425763
vt 0.141683 0.425763
vt 0.230382 0.412310
vt 0.230382 0.425293
vt 0.141683 0.425293
vt 0.230382 0.412450
vt 0.141683 0.412309
vt 0.229914 0.425293
vt 0.229914 0.412450
vt 0.229017 0.425293
vt 0.229018 0.412450
vt 0.227810 0.425294
vt 0.227810 0.412450
vt 0.225689 0.425293
vt 0.225689 0.412450
vt 0.146377 0.425293
vt 0.146377 0.412450
vt 0.144256 0.425294
vt 0.144255 0.412450
vt 0.143048 0.425293
vt 0.143047 0.412450
vt 0.142151 0.425294
vt 0.141683 0.425293
vt 0.141683 0.412450
vt 0.142151 0.412450
vt 0.229914 0.412310
vt 0.230382 0.412310
vt 0.229914 0.412310
vt 0.229017 0.412310
vt 0.229018 0.412310
vt 0.227810 0.412310
vt 0.227810 0.412309
vt 0.225689 0.412310
vt 0.225686 0.412310
vt 0.146377 0.412310
vt 0.146379 0.412309
vt 0.144256 0.412310
vt 0.144256 0.412310
vt 0.143048 0.412310
vt 0.143048 0.412309
vt 0.142151 0.412310
vt 0.142151 0.412310
vt 0.141683 0.412310
vn 0.391990 0.367181 -0.843517
vn 0.010765 0.384252 -0.923166
vn 0.007562 0.788056 -0.615557
vn 0.365863 0.766638 -0.527646
vn 0.015891 0.172361 -0.984906
vn 0.459663 0.119517 -0.880015
vn 0.546574 0.837317 -0.012569
vn 0.872213 0.488654 -0.021499
vn 0.912102 0.387859 -0.132800
vn 0.996231 0.082379 -0.027141
vn 0.981267 0.059797 -0.183139
vn 0.009362 0.999870 -0.013165
vn 0.391990 0.367182 0.843517
vn 0.365863 0.766638 0.527647
vn 0.007562 0.788056 0.615557
vn 0.010765 0.384251 0.923166
vn 0.015891 0.172361 0.984906
vn 0.459662 0.119517 0.880015
vn 0.912102 0.387859 0.132801
vn 0.981267 0.059797 0.183140
vn 0.546574 0.837317 0.012569
vn 0.009362 0.999870 0.013165
vn 0.872213 0.488654 0.021499
vn 0.996231 0.082379 0.027141
vn 0.018481 0.098895 0.994926
vn 0.455425 0.035010 0.889586
vn 0.975632 -0.060219 0.210990
vn 0.998397 -0.048804 0.028683
vn 0.998396 -0.048804 -0.028683
vn 0.975632 -0.060219 -0.210990
vn 0.455425 0.035011 -0.889585
vn 0.018481 0.098895 -0.994926
vn 0.000458 -0.995877 0.090709
vn -0.000884 -0.998809 0.048794
vn -0.004657 -0.998829 0.048161
vn 0.000421 -0.995865 0.090848
vn -0.059324 -0.998113 -0.015856
vn -0.059037 -0.998090 -0.018191
vn -0.042965 -0.999075 -0.001682
vn -0.042975 -0.999075 -0.001699
vn -0.042965 -0.999075 0.001682
vn -0.042975 -0.999075 0.001699
vn -0.059321 -0.998113 0.015856
vn -0.059035 -0.998090 0.018191
vn -0.000883 -0.998808 -0.048794
vn -0.004656 -0.998829 -0.048160
vn 0.000458 -0.995877 -0.090709
vn 0.000421 -0.995865 -0.090848
vn -0.000930 -0.998194 0.060064
vn -0.000532 -0.998207 0.059858
vn -0.000347 -0.998213 0.059762
vn -0.000930 -0.998194 0.060064
vn -0.000930 -0.998194 0.060064
vn -0.000532 -0.998207 -0.059858
vn -0.000930 -0.998194 -0.060064
vn -0.000930 -0.998194 -0.060064
vn -0.000930 -0.998194 -0.060064
vn -0.000346 -0.998213 -0.059762
vn 0.000331 -0.995758 0.092009
vn 0.000636 -0.995799 0.091565
vn 0.999999 0.000523 0.001502
vn 0.999999 0.000453 0.001606
vn 0.007578 0.101667 0.994790
vn 0.007005 0.176266 0.984318
vn 0.999999 0.000628 0.001376
vn 0.006604 0.385493 0.922687
vn 0.999999 0.000906 0.001070
vn 0.007723 0.789786 0.613333
vn 0.999999 0.001050 0.000041
vn 0.007417 0.999882 0.013439
vn 1.000000 0.001050 -0.000041
vn 0.007417 0.999882 -0.013439
vn 0.999999 0.000906 -0.001070
vn 0.007723 0.789787 -0.613333
vn 0.999999 0.000628 -0.001376
vn 0.006604 0.385494 -0.922687
vn 0.999999 0.000524 -0.001507
vn 0.007005 0.176266 -0.984318
vn 0.007578 0.101667 -0.994790
vn 0.999999 0.000453 -0.001614
vn 0.000331 -0.995758 -0.092010
vn 0.000636 -0.995799 -0.091565
vn -0.718106 0.123371 0.684911
vn -0.718111 0.122191 0.685118
vn -0.718170 0.268545 0.641963
vn -0.718170 0.269704 0.641477
vn -0.717320 0.071261 0.693090
vn -0.717320 0.071261 0.693090
vn -0.741032 0.530876 0.411147
vn -0.740993 0.529140 0.413450
vn -0.718265 0.695707 0.009345
vn -0.718268 0.695703 0.009399
vn -0.718265 0.695707 -0.009345
vn -0.718268 0.695703 -0.009399
vn -0.741027 0.530882 -0.411149
vn -0.740987 0.529145 -0.413453
vn -0.718165 0.268547 -0.641967
vn -0.718166 0.269705 -0.641480
vn -0.718109 0.122191 -0.685120
vn -0.718105 0.123371 -0.684913
vn -0.717320 0.071262 -0.693090
vn -0.717320 0.071262 -0.693090
vn -0.027261 0.184457 0.982462
vn -0.028968 0.102942 0.994265
vn -0.028968 0.102942 0.994265
vn -0.027276 0.183777 0.982589
vn -0.023000 0.402435 0.915160
vn -0.022975 0.403867 0.914529
vn -0.026202 0.787307 0.616005
vn -0.026311 0.792408 0.609424
vn -0.030173 0.999451 0.013711
vn -0.030173 0.999453 0.013574
vn -0.030173 0.999451 -0.013711
vn -0.030173 0.999453 -0.013574
vn -0.026202 0.787307 -0.616004
vn -0.026311 0.792408 -0.609424
vn -0.023000 0.402436 -0.915159
vn -0.022975 0.403868 -0.914529
vn -0.027261 0.184458 -0.982462
vn -0.027276 0.183777 -0.982589
vn -0.028968 0.102942 -0.994265
vn -0.028968 0.102942 -0.994265
vn -1.000000 0.000000 -0.000007
vn -1.000000 0.000000 -0.000008
vn -1.000000 0.000000 -0.000008
vn -1.000000 0.000000 -0.000007
vn -1.000000 0.000000 -0.000010
vn -1.000000 0.000000 -0.000010
vn -1.000000 0.000000 -0.000009
vn -1.000000 0.000000 -0.000009
vn -1.000000 0.000000 -0.000000
vn -1.000000 0.000000 -0.000000
vn -1.000000 0.000000 0.000000
vn -1.000000 0.000000 0.000000
vn -1.000000 0.000000 0.000007
vn -1.000000 0.000000 0.000007
vn -1.000000 0.000000 0.000005
vn -1.000000 0.000000 0.000005
vn -1.000000 0.000000 0.000000
vn -1.000000 0.000000 0.000000
vn -1.000000 0.000000 -0.000000
vn -1.000000 0.000000 -0.000000
f 20/1/1 19/2/2 21/3/3 22/4/4
f 23/5/5 19/2/2 20/1/1 24/6/6
f 22/4/4 25/7/7 26/8/8 27/9/9
f 27/9/9 26/8/8 28/10/10 29/11/11
f 22/4/4 21/3/3 30/12/12 25/7/7
f 31/13/13 32/14/14 33/15/15 34/16/16
f 35/17/17 36/18/18 31/13/13 34/16/16
f 32/14/14 31/13/13 37/19/19
f 36/18/18 38/20/20 37/19/19 31/13/13
f 32/14/14 39/21/21 40/22/22 33/15/15
f 26/8/8 25/7/7 39/21/21 41/23/23
f 28/10/10 26/8/8 41/23/23 42/24/24
f 25/7/7 30/12/12 40/22/22 39/21/21
f 22/4/4 27/9/9 20/1/1
f 24/6/6 20/1/1 27/9/9 29/11/11
f 32/14/14 37/19/19 41/23/23 39/21/21
f 38/20/20 42/24/24 41/23/23 37/19/19
f 43/33/25 44/34/26 36/18/18 35/17/17
f 44/34/26 45/35/27 38/20/20 36/18/18
f 45/35/27 46/36/28 42/24/24 38/20/20
f 46/36/28 47/37/29 28/10/10 42/24/24
f 29/11/11 28/10/10 47/37/29 48/38/30
f 49/39/31 24/6/6 29/11/11 48/38/30
f 50/40/32 23/5/5 24/6/6 49/39/31
f 4/25/33 5/26/34 44/34/35 43/33/36
f 5/26/34 8/27/37 45/35/38 44/34/35
f 8/27/37 6/28/39 46/36/40 45/35/38
f 6/28/39 2/29/41 47/37/42 46/36/40
f 2/29/41 7/30/43 48/38/44 47/37/42
f 7/30/43 1/31/45 49/39/46 48/38/44
f 1/31/45 3/32/47 50/40/48 49/39/46
f 18/54/49 51/41/50 52/55/51 77/57/52 78/78/53
f 62/56/54 9/94/55 94/58/56 93/75/57 61/74/58
f 51/41/50 63/42/59 64/43/60 52/55/51
f 53/59/61 52/55/62 64/43/63 65/44/64
f 54/61/65 53/59/61 65/44/64 66/45/66
f 55/63/67 54/61/65 66/45/66 67/46/68
f 56/65/69 55/63/67 67/46/68 68/47/70
f 57/67/71 56/65/69 68/47/70 69/48/72
f 58/69/73 57/67/71 69/48/72 70/49/74
f 59/71/75 58/69/73 70/49/74 71/50/76
f 60/73/77 59/71/75 71/50/76 72/51/78
f 73/52/79 61/74/80 60/73/77 72/51/78
f 74/53/81 62/56/54 61/74/58 73/52/82
f 63/42/59 4/25/33 43/33/36 64/43/60
f 65/44/64 64/43/63 43/33/25 35/17/17
f 66/45/66 65/44/64 35/17/17 34/16/16
f 67/46/68 66/45/66 34/16/16 33/15/15
f 68/47/70 67/46/68 33/15/15 40/22/22
f 69/48/72 68/47/70 40/22/22 30/12/12
f 70/49/74 69/48/72 30/12/12 21/3/3
f 71/50/76 70/49/74 21/3/3 19/2/2
f 72/51/78 71/50/76 19/2/2 23/5/5
f 50/40/32 73/52/79 72/51/78 23/5/5
f 3/32/47 74/53/81 73/52/82 50/40/48
f 75/79/83 76/60/84 80/62/85 79/81/86
f 76/60/84 75/79/83 78/78/87 77/57/88
f 79/81/86 80/62/85 82/64/89 81/83/90
f 81/83/90 82/64/89 84/66/91 83/85/92
f 83/85/92 84/66/91 86/68/93 85/87/94
f 85/87/94 86/68/93 88/70/95 87/89/96
f 87/89/96 88/70/95 90/72/97 89/91/98
f 89/91/98 90/72/97 92/76/99 91/93/100
f 91/93/100 92/76/99 93/75/101 94/58/102
f 76/60/103 77/57/104 52/55/105 53/59/106
f 80/62/107 76/60/103 53/59/106 54/61/108
f 82/64/109 80/62/107 54/61/108 55/63/110
f 84/66/111 82/64/109 55/63/110 56/65/112
f 86/68/113 84/66/111 56/65/112 57/67/114
f 88/70/115 86/68/113 57/67/114 58/69/116
f 90/72/117 88/70/115 58/69/116 59/71/118
f 92/76/119 90/72/117 59/71/118 60/73/120
f 61/74/121 93/75/122 92/76/119 60/73/120
f 17/77/123 18/54/124 78/78/125 75/79/126
f 16/80/127 17/77/123 75/79/126 79/81/128
f 15/82/129 16/80/127 79/81/128 81/83/130
f 14/84/131 15/82/129 81/83/130 83/85/132
f 13/86/133 14/84/131 83/85/132 85/87/134
f 12/88/135 13/86/133 85/87/134 87/89/136
f 11/90/137 12/88/135 87/89/136 89/91/138
f 10/92/139 11/90/137 89/91/138 91/93/140
f 9/94/141 10/92/139 91/93/140 94/58/142
