# This file uses centimeters as units for non-parametric coordinates.

v -153.054413 39.678928 -63.680435
v -153.054413 60.173874 -61.764099
v -145.914719 65.685661 -56.202713
v -147.420303 65.685661 -52.044281
v -153.951141 60.173874 -52.044281
v -155.900696 39.678928 -52.044281
v -141.201279 65.685661 -58.768784
v -141.201263 60.173874 -62.596512
v -141.201263 39.678928 -66.923172
v -141.201279 67.117264 -52.044281
v -153.054413 60.173874 91.726791
v -145.914719 65.685661 86.165405
v -141.201279 65.685661 88.731476
v -141.201248 60.173874 92.559204
v -141.201248 39.678928 96.885864
v -153.054398 39.678928 93.643127
v -153.951157 60.173874 82.006966
v -147.420303 65.685661 82.006958
v -155.900711 39.678928 82.006966
v -141.201263 67.117264 82.006958
v -149.931946 60.173866 -59.507080
v -151.881531 39.678928 -61.423416
v -149.931946 60.173866 89.469772
v -151.881516 39.678928 91.386108
v -141.201263 51.905090 95.404312
v -154.740952 51.905090 92.684967
v -152.593277 51.905083 90.427948
v -156.612473 51.905090 82.006966
v -156.612457 51.905090 -52.044281
v -152.593277 51.905083 -60.465256
v -154.740952 51.905090 -62.722275
v -141.201263 51.905090 -65.441620
v 152.111252 39.678928 -63.680435
v 152.111237 60.173874 -61.764099
v 144.971542 65.685661 -56.202713
v 146.477127 65.685661 -52.044273
v 153.007980 60.173874 -52.044273
v 154.957535 39.678928 -52.044273
v 140.258102 65.685661 -58.768784
v 140.258102 60.173874 -62.596512
v 140.258102 39.678928 -66.923172
v 140.258102 67.117264 -52.044273
v 152.111252 60.173874 91.726791
v 144.971542 65.685661 86.165405
v 140.258102 65.685661 88.731476
v 140.258102 60.173874 92.559204
v 140.258102 39.678928 96.885864
v 152.111252 39.678928 93.643127
v 153.007980 60.173874 82.006958
v 146.477127 65.685661 82.006958
v 154.957535 39.678928 82.006958
v 140.258102 67.117264 82.006958
v 148.988770 60.173866 -59.507080
v 150.938370 39.678928 -61.423416
v 148.988785 60.173866 89.469772
v 150.938370 39.678928 91.386108
v 140.258102 51.905090 95.404312
v 153.797775 51.905090 92.684967
v 151.650101 51.905083 90.427948
v 155.669296 51.905090 82.006958
v 155.669296 51.905090 -52.044273
v 151.650101 51.905083 -60.465256
v 153.797775 51.905090 -62.722275
v 140.258087 51.905090 -65.441620
v -127.697556 39.678928 96.885864
v -127.697540 51.905090 95.404312
v -127.697556 60.173882 92.559204
v -127.697556 65.685661 88.731476
v -127.697548 67.117264 82.006958
v -127.697556 67.117264 -52.044281
v -127.697548 65.685661 -58.768784
v -127.697540 60.173882 -62.596519
v -127.697540 51.905090 -65.441628
v -127.697540 39.678928 -66.923180
vt 0.290442 0.788794
vt 0.290764 0.789186
vt 0.290616 0.789444
vt 0.290394 0.789444
vt 0.290229 0.789444
vt 0.290387 0.788701
vt 0.290573 0.788965
vt 0.291005 0.788745
vt 0.291005 0.789103
vt 0.290517 0.788819
vt 0.291005 0.788599
vt 0.291005 0.789444
vt 0.306123 0.788794
vt 0.306171 0.789444
vt 0.305950 0.789444
vt 0.305801 0.789186
vt 0.306336 0.789444
vt 0.306178 0.788701
vt 0.305992 0.788965
vt 0.306048 0.788819
vt 0.305560 0.789444
vt 0.305560 0.789103
vt 0.305560 0.788745
vt 0.305560 0.788599
vt 0.306422 0.789444
vt 0.306234 0.788794
vt 0.306103 0.788858
vt 0.305560 0.788638
vt 0.291005 0.788638
vt 0.290462 0.788858
vt 0.290331 0.788794
vt 0.290143 0.789444
vt 0.306422 0.790185
vt 0.306336 0.790185
vt 0.306171 0.790185
vt 0.305950 0.790185
vt 0.305560 0.790185
vt 0.291005 0.790185
vt 0.290616 0.790185
vt 0.290394 0.790185
vt 0.290229 0.790185
vt 0.290143 0.790185
vt 0.290442 0.805531
vt 0.290394 0.804881
vt 0.290616 0.804881
vt 0.290764 0.805139
vt 0.290229 0.804881
vt 0.290387 0.805623
vt 0.291005 0.805222
vt 0.291005 0.805580
vt 0.290573 0.805360
vt 0.291005 0.805726
vt 0.290517 0.805506
vt 0.291005 0.804881
vt 0.306123 0.805531
vt 0.305801 0.805139
vt 0.305950 0.804881
vt 0.306171 0.804881
vt 0.306336 0.804881
vt 0.306178 0.805623
vt 0.305992 0.805360
vt 0.306048 0.805506
vt 0.305560 0.805222
vt 0.305560 0.804881
vt 0.305560 0.805580
vt 0.305560 0.805726
vt 0.306422 0.804881
vt 0.306234 0.805531
vt 0.306103 0.805467
vt 0.305560 0.805687
vt 0.291005 0.805687
vt 0.290462 0.805467
vt 0.290331 0.805531
vt 0.290143 0.804881
vn -0.332294 0.414749 -0.847091
vn -0.333592 0.821247 -0.462893
vn -0.054502 0.818249 -0.572274
vn -0.064259 0.427761 -0.901605
vn -0.093556 0.176174 -0.979903
vn -0.410062 0.149278 -0.899758
vn -0.332294 0.414749 -0.847091
vn -0.064259 0.427761 -0.901605
vn -0.333592 0.821247 -0.462893
vn -0.792786 0.465419 -0.393542
vn -0.834119 0.551201 -0.020579
vn -0.480709 0.876817 -0.010520
vn -0.792786 0.465419 -0.393542
vn -0.900538 0.093078 -0.424697
vn -0.995118 0.094958 -0.026901
vn -0.834119 0.551201 -0.020579
vn -0.333592 0.821247 -0.462893
vn -0.480709 0.876817 -0.010520
vn -0.070975 0.997442 -0.008539
vn -0.054502 0.818249 -0.572274
vn -0.332294 0.414749 0.847092
vn -0.064259 0.427761 0.901605
vn -0.054502 0.818250 0.572274
vn -0.333593 0.821246 0.462893
vn -0.093556 0.176173 0.979903
vn -0.064259 0.427761 0.901605
vn -0.332294 0.414749 0.847092
vn -0.410062 0.149277 0.899759
vn -0.333593 0.821246 0.462893
vn -0.624509 0.025285 -0.780609
vn -0.332294 0.414749 0.847092
vn -0.410062 0.149277 0.899759
vn -0.332294 0.414749 0.847092
vn -0.624509 0.025285 -0.780609
vn -0.732455 -0.021108 -0.680488
vn -0.333593 0.821246 0.462893
vn -0.054502 0.818250 0.572274
vn -0.070975 0.997442 0.008539
vn -0.480709 0.876817 0.010520
vn -0.480709 0.876817 -0.010520
vn -0.834119 0.551201 -0.020579
vn -0.834119 0.551201 0.020579
vn -0.480709 0.876817 0.010520
vn -0.834119 0.551201 -0.020579
vn -0.995118 0.094958 -0.026901
vn -0.995118 0.094958 0.026901
vn -0.834119 0.551201 0.020579
vn -0.070975 0.997442 -0.008539
vn -0.480709 0.876817 -0.010520
vn -0.480709 0.876817 0.010520
vn -0.070975 0.997442 0.008539
vn -0.333592 0.821247 -0.462893
vn -0.332294 0.414749 -0.847091
vn -0.624507 0.025285 0.780610
vn -0.410062 0.149278 -0.899758
vn -0.732454 -0.021107 0.680489
vn -0.624507 0.025285 0.780610
vn -0.332294 0.414749 -0.847091
vn -0.333593 0.821246 0.462893
vn -0.480709 0.876817 0.010520
vn -0.834119 0.551201 0.020579
vn -0.792785 0.465420 0.393543
vn -0.900538 0.093078 0.424698
vn -0.792785 0.465420 0.393543
vn -0.834119 0.551201 0.020579
vn -0.995118 0.094958 0.026901
vn -0.111293 0.101968 0.988543
vn -0.093556 0.176173 0.979903
vn -0.410062 0.149277 0.899759
vn -0.409336 0.060371 0.910384
vn -0.409336 0.060371 0.910384
vn -0.410062 0.149277 0.899759
vn -0.732455 -0.021108 -0.680488
vn -0.799266 -0.124470 -0.587947
vn -0.910757 -0.036905 0.411291
vn -0.900538 0.093078 0.424698
vn -0.995118 0.094958 0.026901
vn -0.997970 -0.056985 0.028442
vn -0.995118 0.094958 -0.026901
vn -0.997970 -0.056984 -0.028442
vn -0.997970 -0.056985 0.028442
vn -0.995118 0.094958 0.026901
vn -0.900538 0.093078 -0.424697
vn -0.910758 -0.036904 -0.411289
vn -0.997970 -0.056984 -0.028442
vn -0.995118 0.094958 -0.026901
vn -0.409335 0.060372 -0.910385
vn -0.799266 -0.124469 0.587946
vn -0.732454 -0.021107 0.680489
vn -0.410062 0.149278 -0.899758
vn -0.111293 0.101969 -0.988542
vn -0.409335 0.060372 -0.910385
vn -0.410062 0.149278 -0.899758
vn -0.093556 0.176174 -0.979903
vn -0.093556 0.176173 0.979903
vn -0.111293 0.101968 0.988543
vn 0.000000 0.120299 0.992738
vn 0.000000 0.206556 0.978435
vn -0.064259 0.427761 0.901605
vn -0.093556 0.176173 0.979903
vn 0.000000 0.206556 0.978435
vn 0.000000 0.435816 0.900036
vn -0.054502 0.818250 0.572274
vn -0.064259 0.427761 0.901605
vn 0.000000 0.435816 0.900036
vn 0.000000 0.835376 0.549678
vn -0.070975 0.997442 0.008539
vn -0.054502 0.818250 0.572274
vn 0.000000 0.835376 0.549678
vn 0.000000 0.999948 0.010169
vn -0.070975 0.997442 -0.008539
vn -0.070975 0.997442 0.008539
vn 0.000000 0.999948 0.010169
vn 0.000000 0.999948 -0.010169
vn -0.054502 0.818249 -0.572274
vn -0.070975 0.997442 -0.008539
vn 0.000000 0.999948 -0.010169
vn 0.000000 0.835376 -0.549679
vn -0.064259 0.427761 -0.901605
vn -0.054502 0.818249 -0.572274
vn 0.000000 0.835376 -0.549679
vn 0.000000 0.435816 -0.900036
vn -0.093556 0.176174 -0.979903
vn -0.064259 0.427761 -0.901605
vn 0.000000 0.435816 -0.900036
vn 0.000000 0.206556 -0.978435
vn 0.000000 0.120299 -0.992738
vn -0.111293 0.101969 -0.988542
vn -0.093556 0.176174 -0.979903
vn 0.000000 0.206556 -0.978435
vn 0.332294 0.414749 -0.847091
vn 0.005628 0.435184 -0.900324
vn 0.004123 0.834190 -0.551461
vn 0.333593 0.821247 -0.462893
vn 0.008697 0.203816 -0.978971
vn 0.005628 0.435184 -0.900324
vn 0.332294 0.414749 -0.847091
vn 0.410062 0.149278 -0.899758
vn 0.333593 0.821247 -0.462893
vn 0.480709 0.876817 -0.010520
vn 0.834119 0.551201 -0.020579
vn 0.792785 0.465420 -0.393543
vn 0.792785 0.465420 -0.393543
vn 0.834119 0.551201 -0.020579
vn 0.995118 0.094957 -0.026901
vn 0.900538 0.093079 -0.424698
vn 0.333593 0.821247 -0.462893
vn 0.004123 0.834190 -0.551461
vn 0.005095 0.999937 -0.010054
vn 0.480709 0.876817 -0.010520
vn 0.332294 0.414749 0.847092
vn 0.333593 0.821246 0.462893
vn 0.004123 0.834191 0.551460
vn 0.005628 0.435184 0.900324
vn 0.008697 0.203816 0.978971
vn 0.410063 0.149278 0.899758
vn 0.332294 0.414749 0.847092
vn 0.005628 0.435184 0.900324
vn 0.333593 0.821246 0.462893
vn 0.332294 0.414749 0.847092
vn 0.624507 0.025287 -0.780610
vn 0.410063 0.149278 0.899758
vn 0.732455 -0.021107 -0.680489
vn 0.624507 0.025287 -0.780610
vn 0.332294 0.414749 0.847092
vn 0.333593 0.821246 0.462893
vn 0.480709 0.876817 0.010520
vn 0.005095 0.999937 0.010054
vn 0.004123 0.834191 0.551460
vn 0.834119 0.551201 -0.020579
vn 0.480709 0.876817 -0.010520
vn 0.480709 0.876817 0.010520
vn 0.834119 0.551201 0.020579
vn 0.995118 0.094957 -0.026901
vn 0.834119 0.551201 -0.020579
vn 0.834119 0.551201 0.020579
vn 0.995118 0.094957 0.026901
vn 0.480709 0.876817 -0.010520
vn 0.005095 0.999937 -0.010054
vn 0.005095 0.999937 0.010054
vn 0.480709 0.876817 0.010520
vn 0.333593 0.821247 -0.462893
vn 0.624507 0.025283 0.780610
vn 0.332294 0.414749 -0.847091
vn 0.410062 0.149278 -0.899758
vn 0.332294 0.414749 -0.847091
vn 0.624507 0.025283 0.780610
vn 0.732454 -0.021107 0.680489
vn 0.333593 0.821246 0.462893
vn 0.792786 0.465420 0.393542
vn 0.834119 0.551201 0.020579
vn 0.480709 0.876817 0.010520
vn 0.900538 0.093079 0.424697
vn 0.995118 0.094957 0.026901
vn 0.834119 0.551201 0.020579
vn 0.792786 0.465420 0.393542
vn 0.010343 0.118660 0.992881
vn 0.409336 0.060372 0.910384
vn 0.410063 0.149278 0.899758
vn 0.008697 0.203816 0.978971
vn 0.409336 0.060372 0.910384
vn 0.799266 -0.124467 -0.587947
vn 0.732455 -0.021107 -0.680489
vn 0.410063 0.149278 0.899758
vn 0.910758 -0.036903 0.411289
vn 0.997970 -0.056984 0.028442
vn 0.995118 0.094957 0.026901
vn 0.900538 0.093079 0.424697
vn 0.997970 -0.056984 0.028442
vn 0.997970 -0.056984 -0.028442
vn 0.995118 0.094957 -0.026901
vn 0.995118 0.094957 0.026901
vn 0.900538 0.093079 -0.424698
vn 0.995118 0.094957 -0.026901
vn 0.997970 -0.056984 -0.028442
vn 0.910758 -0.036903 -0.411289
vn 0.409335 0.060372 -0.910385
vn 0.410062 0.149278 -0.899758
vn 0.732454 -0.021107 0.680489
vn 0.799267 -0.124468 0.587946
vn 0.010343 0.118660 -0.992881
vn 0.008697 0.203816 -0.978971
vn 0.410062 0.149278 -0.899758
vn 0.409335 0.060372 -0.910385
vn 0.000000 0.206556 0.978435
vn 0.000000 0.120299 0.992738
vn 0.010343 0.118660 0.992881
vn 0.008697 0.203816 0.978971
vn 0.000000 0.435816 0.900036
vn 0.000000 0.206556 0.978435
vn 0.008697 0.203816 0.978971
vn 0.005628 0.435184 0.900324
vn 0.000000 0.835376 0.549678
vn 0.000000 0.435816 0.900036
vn 0.005628 0.435184 0.900324
vn 0.004123 0.834191 0.551460
vn 0.000000 0.999948 0.010169
vn 0.000000 0.835376 0.549678
vn 0.004123 0.834191 0.551460
vn 0.005095 0.999937 0.010054
vn 0.000000 0.999948 -0.010169
vn 0.000000 0.999948 0.010169
vn 0.005095 0.999937 0.010054
vn 0.005095 0.999937 -0.010054
vn 0.000000 0.835376 -0.549679
vn 0.000000 0.999948 -0.010169
vn 0.005095 0.999937 -0.010054
vn 0.004123 0.834190 -0.551461
vn 0.000000 0.435816 -0.900036
vn 0.000000 0.835376 -0.549679
vn 0.004123 0.834190 -0.551461
vn 0.005628 0.435184 -0.900324
vn 0.000000 0.206556 -0.978435
vn 0.000000 0.435816 -0.900036
vn 0.005628 0.435184 -0.900324
vn 0.008697 0.203816 -0.978971
vn 0.010343 0.118660 -0.992881
vn 0.000000 0.120299 -0.992738
vn 0.000000 0.206556 -0.978435
vn 0.008697 0.203816 -0.978971
f 2/1/1 3/2/2 7/3/3 8/4/4
f 32/5/5 31/6/6 2/1/7 8/4/8
f 3/2/9 21/7/10 5/8/11 4/9/12
f 21/7/13 30/10/14 29/11/15 5/8/16
f 3/2/17 4/9/18 10/12/19 7/3/20
f 11/13/21 14/14/22 13/15/23 12/16/24
f 25/17/25 14/14/26 11/13/27 26/18/28
f 12/16/29 23/19/30 11/13/31
f 26/18/32 11/13/33 23/19/34 27/20/35
f 12/16/36 13/15/37 20/21/38 18/22/39
f 4/9/40 5/8/41 17/23/42 18/22/43
f 5/8/44 29/11/45 28/24/46 17/23/47
f 10/12/48 4/9/49 18/22/50 20/21/51
f 3/2/52 2/1/53 21/7/54
f 31/6/55 30/10/56 21/7/57 2/1/58
f 12/16/59 18/22/60 17/23/61 23/19/62
f 27/20/63 23/19/64 17/23/65 28/24/66
f 15/25/67 25/17/68 26/18/69 16/26/70
f 16/26/71 26/18/72 27/20/73 24/27/74
f 24/27/75 27/20/76 28/24/77 19/28/78
f 29/11/79 6/29/80 19/28/81 28/24/82
f 30/10/83 22/30/84 6/29/85 29/11/86
f 1/31/87 22/30/88 30/10/89 31/6/90
f 9/32/91 1/31/92 31/6/93 32/5/94
f 25/17/95 15/25/96 65/33/97 66/34/98
f 14/14/99 25/17/100 66/34/101 67/35/102
f 13/15/103 14/14/104 67/35/105 68/36/106
f 20/21/107 13/15/108 68/36/109 69/37/110
f 10/12/111 20/21/112 69/37/113 70/38/114
f 7/3/115 10/12/116 70/38/117 71/39/118
f 8/4/119 7/3/120 71/39/121 72/40/122
f 32/5/123 8/4/124 72/40/125 73/41/126
f 74/42/127 9/32/128 32/5/129 73/41/130
f 34/43/131 40/44/132 39/45/133 35/46/134
f 64/47/135 40/44/136 34/43/137 63/48/138
f 35/46/139 36/49/140 37/50/141 53/51/142
f 53/51/143 37/50/144 61/52/145 62/53/146
f 35/46/147 39/45/148 42/54/149 36/49/150
f 43/55/151 44/56/152 45/57/153 46/58/154
f 57/59/155 58/60/156 43/55/157 46/58/158
f 44/56/159 43/55/160 55/61/161
f 58/60/162 59/62/163 55/61/164 43/55/165
f 44/56/166 50/63/167 52/64/168 45/57/169
f 37/50/170 36/49/171 50/63/172 49/65/173
f 61/52/174 37/50/175 49/65/176 60/66/177
f 36/49/178 42/54/179 52/64/180 50/63/181
f 35/46/182 53/51/183 34/43/184
f 63/48/185 34/43/186 53/51/187 62/53/188
f 44/56/189 55/61/190 49/65/191 50/63/192
f 59/62/193 60/66/194 49/65/195 55/61/196
f 47/67/197 48/68/198 58/60/199 57/59/200
f 48/68/201 56/69/202 59/62/203 58/60/204
f 56/69/205 51/70/206 60/66/207 59/62/208
f 51/70/209 38/71/210 61/52/211 60/66/212
f 62/53/213 61/52/214 38/71/215 54/72/216
f 33/73/217 63/48/218 62/53/219 54/72/220
f 41/74/221 64/47/222 63/48/223 33/73/224
f 66/34/225 65/33/226 47/67/227 57/59/228
f 67/35/229 66/34/230 57/59/231 46/58/232
f 68/36/233 67/35/234 46/58/235 45/57/236
f 69/37/237 68/36/238 45/57/239 52/64/240
f 70/38/241 69/37/242 52/64/243 42/54/244
f 71/39/245 70/38/246 42/54/247 39/45/248
f 72/40/249 71/39/250 39/45/251 40/44/252
f 73/41/253 72/40/254 40/44/255 64/47/256
f 41/74/257 74/42/258 73/41/259 64/47/260
