# This file uses meters as units for non-parametric coordinates.

v -78.661781 37.006186 150.606049
v -76.745445 56.601690 150.606049
v -71.184059 63.132650 143.466354
v -67.025620 63.132650 144.971939
v -67.025620 56.601690 151.502777
v -67.025620 37.006186 153.452332
v -73.750130 63.132650 138.752914
v -77.577858 56.601690 138.752899
v -81.904518 37.006186 138.752899
v -67.025620 64.828962 138.752914
v 76.745445 56.601690 150.606049
v 71.184059 63.132650 143.466354
v 73.750130 63.132650 138.752914
v 77.577858 56.601690 138.752899
v 81.904518 37.006186 138.752899
v 78.661781 37.006186 150.606049
v 67.025620 56.601690 151.502777
v 67.025620 63.132650 144.971939
v 67.025620 37.006186 153.452332
v 67.025620 64.828962 138.752914
v -74.488426 56.601675 147.483582
v -76.404762 37.006186 149.433167
v 74.488426 56.601675 147.483582
v 76.404762 37.006186 149.433167
v 80.422966 46.803938 138.752899
v 77.703621 46.803938 152.292587
v 75.446602 46.803930 150.144913
v 67.025620 46.803938 154.164093
v -67.025620 46.803938 154.164093
v -75.446602 46.803930 150.144913
v -77.703621 46.803938 152.292587
v -80.422966 46.803938 138.752899
v -78.661781 37.006186 -154.559601
v -76.745445 56.601690 -154.559601
v -71.184059 63.132650 -147.419907
v -67.025620 63.132650 -148.925491
v -67.025620 56.601690 -155.456329
v -67.025620 37.006186 -157.405884
v -73.750130 63.132650 -142.706467
v -77.577858 56.601690 -142.706451
v -81.904518 37.006186 -142.706451
v -67.025620 64.828962 -142.706467
v 76.745445 56.601690 -154.559601
v 71.184059 63.132650 -147.419907
v 73.750130 63.132650 -142.706467
v 77.577858 56.601690 -142.706451
v 81.904518 37.006186 -142.706451
v 78.661781 37.006186 -154.559601
v 67.025620 56.601690 -155.456329
v 67.025620 63.132650 -148.925491
v 67.025620 37.006186 -157.405884
v 67.025620 64.828962 -142.706467
v -74.488426 56.601675 -151.437134
v -76.404762 37.006186 -153.386719
v 74.488426 56.601675 -151.437134
v 76.404762 37.006186 -153.386719
v 80.422966 46.803938 -142.706451
v 77.703621 46.803938 -156.246140
v 75.446602 46.803930 -154.098465
v 67.025620 46.803938 -158.117645
v -67.025620 46.803938 -158.117645
v -75.446602 46.803930 -154.098465
v -77.703621 46.803938 -156.246140
v -80.422966 46.803938 -142.706451
v 81.904518 37.006186 125.249184
v 80.422966 46.803938 125.249184
v 77.577858 56.601698 125.249184
v 73.750130 63.132650 125.249191
v 67.025620 64.828962 125.249191
v -67.025620 64.828962 125.249191
v -73.750130 63.132650 125.249191
v -77.577858 56.601698 125.249184
v -80.422966 46.803938 125.249184
v -81.904518 37.006186 125.249184
vt 0.291201 0.948997
vt 0.291435 0.949297
vt 0.291327 0.949495
vt 0.291166 0.949495
vt 0.291047 0.949495
vt 0.291161 0.948926
vt 0.291296 0.949129
vt 0.291610 0.948960
vt 0.291610 0.949234
vt 0.291256 0.949017
vt 0.291610 0.948848
vt 0.291610 0.949495
vt 0.302584 0.948997
vt 0.302619 0.949495
vt 0.302458 0.949495
vt 0.302350 0.949297
vt 0.302739 0.949495
vt 0.302624 0.948926
vt 0.302489 0.949129
vt 0.302529 0.949017
vt 0.302176 0.949495
vt 0.302176 0.949234
vt 0.302176 0.948960
vt 0.302176 0.948848
vt 0.302801 0.949495
vt 0.302665 0.948997
vt 0.302570 0.949047
vt 0.302176 0.948878
vt 0.291610 0.948878
vt 0.291216 0.949047
vt 0.291121 0.948997
vt 0.290985 0.949495
vt 0.302801 0.950063
vt 0.302739 0.950063
vt 0.302619 0.950063
vt 0.302458 0.950063
vt 0.302176 0.950063
vt 0.291610 0.950063
vt 0.291327 0.950063
vt 0.291166 0.950063
vt 0.291047 0.950063
vt 0.290985 0.950063
vt 0.291201 0.961820
vt 0.291166 0.961322
vt 0.291327 0.961322
vt 0.291435 0.961520
vt 0.291047 0.961322
vt 0.291161 0.961891
vt 0.291610 0.961583
vt 0.291610 0.961857
vt 0.291296 0.961689
vt 0.291610 0.961969
vt 0.291256 0.961800
vt 0.291610 0.961322
vt 0.302584 0.961820
vt 0.302350 0.961520
vt 0.302458 0.961322
vt 0.302619 0.961322
vt 0.302739 0.961322
vt 0.302624 0.961891
vt 0.302489 0.961689
vt 0.302529 0.961800
vt 0.302176 0.961583
vt 0.302176 0.961322
vt 0.302176 0.961857
vt 0.302176 0.961969
vt 0.302801 0.961322
vt 0.302665 0.961820
vt 0.302570 0.961771
vt 0.302176 0.961939
vt 0.291610 0.961939
vt 0.291216 0.961771
vt 0.291121 0.961820
vt 0.290985 0.961322
vn -0.866651 0.364175 0.341018
vn -0.514792 0.772798 0.371177
vn -0.636077 0.769274 0.060198
vn -0.926227 0.371139 0.066021
vn -0.978789 0.184486 0.089089
vn -0.900769 0.159711 0.403867
vn -0.406320 0.406016 0.818569
vn -0.021468 0.487111 0.873076
vn -0.011821 0.838580 0.544651
vn -0.428144 0.097250 0.898462
vn -0.026841 0.099458 0.994680
vn -0.010088 0.996415 0.083999
vn 0.866651 0.364175 0.341018
vn 0.926227 0.371139 0.066021
vn 0.636078 0.769273 0.060198
vn 0.514792 0.772798 0.371177
vn 0.978789 0.184486 0.089089
vn 0.900769 0.159711 0.403867
vn -0.779743 0.023436 0.625662
vn -0.695684 -0.022376 0.717999
vn 0.010088 0.996415 0.083999
vn 0.011821 0.838580 0.544651
vn 0.021468 0.487111 0.873076
vn 0.026841 0.099458 0.994680
vn 0.779742 0.023436 0.625662
vn 0.695684 -0.022376 0.718000
vn 0.406320 0.406016 0.818569
vn 0.428144 0.097250 0.898463
vn 0.985716 0.126936 0.110684
vn 0.911218 0.075889 0.404874
vn -0.585424 -0.154654 0.795840
vn 0.411132 -0.046034 0.910413
vn 0.028510 -0.071038 0.997066
vn -0.028510 -0.071038 0.997066
vn -0.411133 -0.046034 0.910412
vn -0.911218 0.075889 0.404874
vn 0.585424 -0.154654 0.795840
vn -0.985716 0.126936 0.110684
vn 0.988760 0.149514 0.000000
vn 0.976481 0.215606 -0.000000
vn 0.925688 0.378289 -0.000000
vn 0.614870 0.788628 0.000000
vn 0.012049 0.999927 0.000000
vn -0.012049 0.999927 0.000000
vn -0.614870 0.788628 0.000000
vn -0.925688 0.378289 -0.000000
vn -0.976481 0.215606 0.000000
vn -0.988760 0.149514 0.000000
vn -0.866650 0.364176 -0.341018
vn -0.925898 0.377729 -0.005787
vn -0.616571 0.787287 -0.004555
vn -0.514792 0.772798 -0.371177
vn -0.977061 0.212797 -0.008273
vn -0.900768 0.159711 -0.403867
vn -0.011821 0.838580 -0.544651
vn -0.021468 0.487111 -0.873076
vn -0.406320 0.406016 -0.818569
vn -0.026841 0.099458 -0.994680
vn -0.428145 0.097250 -0.898462
vn -0.011911 0.999911 -0.006035
vn 0.866650 0.364175 -0.341018
vn 0.514792 0.772798 -0.371177
vn 0.616571 0.787287 -0.004555
vn 0.925898 0.377729 -0.005787
vn 0.977061 0.212797 -0.008273
vn 0.900768 0.159711 -0.403867
vn -0.779745 0.023436 -0.625659
vn -0.695686 -0.022376 -0.717998
vn 0.011821 0.838580 -0.544651
vn 0.011911 0.999911 -0.006035
vn 0.021468 0.487111 -0.873076
vn 0.026841 0.099458 -0.994680
vn 0.779744 0.023436 -0.625659
vn 0.695686 -0.022376 -0.717998
vn 0.406320 0.406016 -0.818569
vn 0.428145 0.097250 -0.898462
vn 0.989009 0.147503 -0.010253
vn 0.911218 0.075889 -0.404874
vn -0.585424 -0.154654 -0.795840
vn 0.411133 -0.046033 -0.910412
vn 0.028510 -0.071038 -0.997066
vn -0.028510 -0.071038 -0.997066
vn -0.411133 -0.046034 -0.910412
vn -0.911218 0.075889 -0.404874
vn 0.585424 -0.154654 -0.795840
vn -0.989009 0.147503 -0.010253
f 2/1/1 3/2/2 7/3/3 8/4/4
f 32/5/5 31/6/6 2/1/1 8/4/4
f 3/2/2 21/7/7 5/8/8 4/9/9
f 21/7/7 30/10/10 29/11/11 5/8/8
f 3/2/2 4/9/9 10/12/12 7/3/3
f 11/13/13 14/14/14 13/15/15 12/16/16
f 25/17/17 14/14/14 11/13/13 26/18/18
f 12/16/16 23/19/19 11/13/13
f 26/18/18 11/13/13 23/19/19 27/20/20
f 12/16/16 13/15/15 20/21/21 18/22/22
f 4/9/9 5/8/8 17/23/23 18/22/22
f 5/8/8 29/11/11 28/24/24 17/23/23
f 10/12/12 4/9/9 18/22/22 20/21/21
f 3/2/2 2/1/1 21/7/25
f 31/6/6 30/10/26 21/7/25 2/1/1
f 12/16/16 18/22/22 17/23/23 23/19/27
f 27/20/28 23/19/27 17/23/23 28/24/24
f 15/25/29 25/17/17 26/18/18 16/26/30
f 16/26/30 26/18/18 27/20/20 24/27/31
f 24/27/32 27/20/28 28/24/24 19/28/33
f 29/11/11 6/29/34 19/28/33 28/24/24
f 30/10/10 22/30/35 6/29/34 29/11/11
f 1/31/36 22/30/37 30/10/26 31/6/6
f 9/32/38 1/31/36 31/6/6 32/5/5
f 25/17/17 15/25/29 65/33/39 66/34/40
f 14/14/14 25/17/17 66/34/40 67/35/41
f 13/15/15 14/14/14 67/35/41 68/36/42
f 20/21/21 13/15/15 68/36/42 69/37/43
f 10/12/12 20/21/21 69/37/43 70/38/44
f 7/3/3 10/12/12 70/38/44 71/39/45
f 8/4/4 7/3/3 71/39/45 72/40/46
f 32/5/5 8/4/4 72/40/46 73/41/47
f 74/42/48 9/32/38 32/5/5 73/41/47
f 34/43/49 40/44/50 39/45/51 35/46/52
f 64/47/53 40/44/50 34/43/49 63/48/54
f 35/46/52 36/49/55 37/50/56 53/51/57
f 53/51/57 37/50/56 61/52/58 62/53/59
f 35/46/52 39/45/51 42/54/60 36/49/55
f 43/55/61 44/56/62 45/57/63 46/58/64
f 57/59/65 58/60/66 43/55/61 46/58/64
f 44/56/62 43/55/61 55/61/67
f 58/60/66 59/62/68 55/61/67 43/55/61
f 44/56/62 50/63/69 52/64/70 45/57/63
f 37/50/56 36/49/55 50/63/69 49/65/71
f 61/52/58 37/50/56 49/65/71 60/66/72
f 36/49/55 42/54/60 52/64/70 50/63/69
f 35/46/52 53/51/73 34/43/49
f 63/48/54 34/43/49 53/51/73 62/53/74
f 44/56/62 55/61/75 49/65/71 50/63/69
f 59/62/76 60/66/72 49/65/71 55/61/75
f 47/67/77 48/68/78 58/60/66 57/59/65
f 48/68/78 56/69/79 59/62/68 58/60/66
f 56/69/80 51/70/81 60/66/72 59/62/76
f 51/70/81 38/71/82 61/52/58 60/66/72
f 62/53/59 61/52/58 38/71/82 54/72/83
f 33/73/84 63/48/54 62/53/74 54/72/85
f 41/74/86 64/47/53 63/48/54 33/73/84
f 66/34/40 65/33/39 47/67/77 57/59/65
f 67/35/41 66/34/40 57/59/65 46/58/64
f 68/36/42 67/35/41 46/58/64 45/57/63
f 69/37/43 68/36/42 45/57/63 52/64/70
f 70/38/44 69/37/43 52/64/70 42/54/60
f 71/39/45 70/38/44 42/54/60 39/45/51
f 72/40/46 71/39/45 39/45/51 40/44/50
f 73/41/47 72/40/46 40/44/50 64/47/53
f 41/74/86 74/42/48 73/41/47 64/47/53
