# This file uses meters as units for non-parametric coordinates.

v -19.254505 52.894733 3.507881
v -19.254505 53.595112 4.114033
v 26.276072 53.595112 4.114033
v 26.276072 52.894733 3.507881
v -19.254505 59.915730 4.114033
v -19.254505 60.616131 3.507881
v 26.276072 60.616131 3.507881
v 26.276072 59.915730 4.114033
v -19.254505 60.616131 2.295335
v -19.254505 59.915730 1.689183
v 26.276072 59.915730 1.689183
v 26.276072 60.616131 2.295335
v -19.254505 53.595112 1.689183
v -19.254505 52.894733 2.295335
v 26.276072 52.894733 2.295335
v 26.276072 53.595112 1.689183
v -30.758659 -42.270145 3.507881
v -31.459038 -42.270145 4.114033
v -31.459038 41.390579 4.114033
v -30.758659 41.390579 3.507881
v -37.779663 -42.270145 4.114033
v -38.480049 -42.270145 3.507881
v -38.480049 41.390579 3.507881
v -37.779663 41.390579 4.114033
v -38.480049 -42.270145 2.295335
v -37.779663 -42.270145 1.689183
v -37.779663 41.390579 1.689183
v -38.480049 41.390579 2.295335
v -31.459038 -42.270145 1.689183
v -30.758659 -42.270145 2.295335
v -30.758659 41.390579 2.295335
v -31.459038 41.390579 1.689183
v -19.254505 14.764595 3.507881
v -19.254505 15.464977 4.114033
v 26.276073 15.464977 4.114033
v 26.276073 14.764595 3.507881
v -19.254505 21.785603 4.114033
v -19.254505 22.485987 3.507881
v 26.276073 22.485987 3.507881
v 26.276073 21.785603 4.114033
v -19.254505 22.485987 2.295335
v -19.254505 21.785603 1.689183
v 26.276073 21.785603 1.689183
v 26.276073 22.485987 2.295335
v -19.254505 15.464977 1.689183
v -19.254505 14.764595 2.295335
v 26.276073 14.764595 2.295335
v 26.276073 15.464977 1.689183
v -19.254505 -23.365555 3.507881
v -19.254505 -22.665165 4.114033
v 26.276073 -22.665165 4.114033
v 26.276073 -23.365555 3.507881
v -19.254505 -16.344543 4.114033
v -19.254505 -15.644158 3.507881
v 26.276073 -15.644158 3.507881
v 26.276073 -16.344543 4.114033
v -19.254505 -15.644158 2.295335
v -19.254505 -16.344543 1.689183
v 26.276073 -16.344543 1.689183
v 26.276073 -15.644158 2.295335
v -19.254505 -22.665165 1.689183
v -19.254505 -23.365555 2.295335
v 26.276073 -23.365555 2.295335
v 26.276073 -22.665165 1.689183
v -19.254505 -61.495689 3.507881
v -19.254505 -60.795307 4.114033
v 26.276073 -60.795307 4.114033
v 26.276073 -61.495689 3.507881
v -19.254505 -54.474686 4.114033
v -19.254505 -53.774307 3.507881
v 26.276073 -53.774307 3.507881
v 26.276073 -54.474686 4.114033
v -19.254505 -53.774307 2.295335
v -19.254505 -54.474686 1.689183
v 26.276073 -54.474686 1.689183
v 26.276073 -53.774307 2.295335
v -19.254505 -60.795307 1.689183
v -19.254505 -61.495689 2.295335
v 26.276073 -61.495689 2.295335
v 26.276073 -60.795307 1.689183
v 7.371475 -42.270145 3.507881
v 6.671089 -42.270145 4.114033
v 6.671089 41.390579 4.114033
v 7.371475 41.390579 3.507881
v 0.350466 -42.270145 4.114033
v -0.349918 -42.270145 3.507881
v -0.349918 41.390579 3.507881
v 0.350466 41.390579 4.114033
v -0.349918 -42.270145 2.295335
v 0.350466 -42.270145 1.689183
v 0.350466 41.390579 1.689183
v -0.349918 41.390579 2.295335
v 6.671089 -42.270145 1.689183
v 7.371475 -42.270145 2.295335
v 7.371475 41.390579 2.295335
v 6.671089 41.390579 1.689183
v 45.501617 -42.270145 3.507881
v 44.801231 -42.270145 4.114033
v 44.801231 41.390579 4.114033
v 45.501617 41.390579 3.507881
v 38.480607 -42.270145 4.114033
v 37.780225 -42.270145 3.507881
v 37.780225 41.390579 3.507881
v 38.480607 41.390579 4.114033
v 37.780225 -42.270145 2.295335
v 38.480607 -42.270145 1.689183
v 38.480607 41.390579 1.689183
v 37.780225 41.390579 2.295335
v 44.801231 -42.270145 1.689183
v 45.501617 -42.270145 2.295335
v 45.501617 41.390579 2.295335
v 44.801231 41.390579 1.689183
vt 0.478830 0.762664
vt 0.494289 0.762664
vt 0.494289 0.774829
vt 0.478830 0.774829
vt 0.478830 0.772462
vt 0.494289 0.772462
vt 0.494289 0.765031
vt 0.478830 0.765031
vt 0.478830 0.762664
vt 0.494289 0.762664
vt 0.494289 0.774829
vt 0.478830 0.774829
vt 0.478830 0.772462
vt 0.494289 0.772462
vt 0.494289 0.765031
vt 0.478830 0.765031
vt 0.478830 0.761316
vt 0.494289 0.761316
vt 0.478830 0.762664
vt 0.494289 0.762664
vt 0.494289 0.774829
vt 0.478830 0.774829
vt 0.478830 0.772462
vt 0.494289 0.772462
vt 0.494289 0.765031
vt 0.478830 0.765031
vt 0.478830 0.762664
vt 0.494289 0.762664
vt 0.494289 0.774829
vt 0.478830 0.774829
vt 0.478830 0.772462
vt 0.494289 0.772462
vt 0.494289 0.765031
vt 0.478830 0.765031
vt 0.478830 0.761316
vt 0.494289 0.761316
vt 0.478830 0.762664
vt 0.494289 0.762664
vt 0.494289 0.774829
vt 0.478830 0.774829
vt 0.478830 0.772462
vt 0.494289 0.772462
vt 0.494289 0.765031
vt 0.478830 0.765031
vt 0.478830 0.762664
vt 0.494289 0.762664
vt 0.494289 0.774829
vt 0.478830 0.774829
vt 0.478830 0.772462
vt 0.494289 0.772462
vt 0.494289 0.765031
vt 0.478830 0.765031
vt 0.478830 0.761316
vt 0.494289 0.761316
vt 0.478830 0.762664
vt 0.494289 0.762664
vt 0.494289 0.774829
vt 0.478830 0.774829
vt 0.478830 0.772462
vt 0.494289 0.772462
vt 0.494289 0.765031
vt 0.478830 0.765031
vt 0.478830 0.762664
vt 0.494289 0.762664
vt 0.494289 0.774829
vt 0.478830 0.774829
vt 0.478830 0.772462
vt 0.494289 0.772462
vt 0.494289 0.765031
vt 0.478830 0.765031
vt 0.478830 0.761316
vt 0.494289 0.761316
vt 0.478830 0.762664
vt 0.494289 0.762664
vt 0.494289 0.774829
vt 0.478830 0.774829
vt 0.478830 0.772462
vt 0.494289 0.772462
vt 0.494289 0.765031
vt 0.478830 0.765031
vt 0.478830 0.762664
vt 0.494289 0.762664
vt 0.494289 0.774829
vt 0.478830 0.774829
vt 0.478830 0.772462
vt 0.494289 0.772462
vt 0.494289 0.765031
vt 0.478830 0.765031
vt 0.478830 0.761316
vt 0.494289 0.761316
vt 0.478830 0.762664
vt 0.494289 0.762664
vt 0.494289 0.774829
vt 0.478830 0.774829
vt 0.478830 0.772462
vt 0.494289 0.772462
vt 0.494289 0.765031
vt 0.478830 0.765031
vt 0.478830 0.762664
vt 0.494289 0.762664
vt 0.494289 0.774829
vt 0.478830 0.774829
vt 0.478830 0.772462
vt 0.494289 0.772462
vt 0.494289 0.765031
vt 0.478830 0.765031
vt 0.478830 0.761316
vt 0.494289 0.761316
vt 0.478830 0.762664
vt 0.494289 0.762664
vt 0.494289 0.774829
vt 0.478830 0.774829
vt 0.478830 0.772462
vt 0.494289 0.772462
vt 0.494289 0.765031
vt 0.478830 0.765031
vt 0.478830 0.762664
vt 0.494289 0.762664
vt 0.494289 0.774829
vt 0.478830 0.774829
vt 0.478830 0.772462
vt 0.494289 0.772462
vt 0.494289 0.765031
vt 0.478830 0.765031
vt 0.478830 0.761316
vt 0.494289 0.761316
vn 0.000000 0.000000 1.000000
vn 0.000000 0.000000 1.000000
vn 0.000000 0.000000 1.000000
vn 0.000000 0.000000 1.000000
vn 0.000000 1.000000 0.000000
vn 0.000000 1.000000 0.000000
vn 0.000000 1.000000 0.000000
vn 0.000000 1.000000 0.000000
vn 0.000000 0.000000 -1.000000
vn 0.000000 0.000000 -1.000000
vn 0.000000 0.000000 -1.000000
vn 0.000000 0.000000 -1.000000
vn 0.000000 -1.000000 0.000000
vn 0.000000 -1.000000 0.000000
vn 0.000000 -1.000000 0.000000
vn 0.000000 -1.000000 0.000000
vn 0.000000 -0.654411 0.756140
vn 0.000000 -0.654411 0.756140
vn 0.000000 -0.654411 0.756140
vn 0.000000 -0.654411 0.756140
vn 0.000000 0.654399 0.756150
vn 0.000000 0.654399 0.756150
vn 0.000000 0.654399 0.756150
vn 0.000000 0.654399 0.756150
vn 0.000000 0.654399 -0.756150
vn 0.000000 0.654399 -0.756150
vn 0.000000 0.654399 -0.756150
vn 0.000000 0.654399 -0.756150
vn 0.000000 -0.654411 -0.756140
vn 0.000000 -0.654411 -0.756140
vn 0.000000 -0.654411 -0.756140
vn 0.000000 -0.654411 -0.756140
vn 0.000000 0.000000 1.000000
vn 0.000000 0.000000 1.000000
vn 0.000000 0.000000 1.000000
vn 0.000000 0.000000 1.000000
vn -1.000000 0.000000 0.000000
vn -1.000000 0.000000 0.000000
vn -1.000000 0.000000 0.000000
vn -1.000000 0.000000 0.000000
vn 0.000000 0.000000 -1.000000
vn 0.000000 0.000000 -1.000000
vn 0.000000 0.000000 -1.000000
vn 0.000000 0.000000 -1.000000
vn 1.000000 0.000000 0.000000
vn 1.000000 0.000000 0.000000
vn 1.000000 0.000000 0.000000
vn 1.000000 0.000000 0.000000
vn 0.654411 0.000000 0.756139
vn 0.654411 0.000000 0.756139
vn 0.654411 0.000000 0.756139
vn 0.654411 0.000000 0.756139
vn -0.654407 0.000000 0.756143
vn -0.654407 0.000000 0.756143
vn -0.654407 0.000000 0.756143
vn -0.654407 0.000000 0.756143
vn -0.654407 0.000000 -0.756143
vn -0.654407 0.000000 -0.756143
vn -0.654407 0.000000 -0.756143
vn -0.654407 0.000000 -0.756143
vn 0.654411 0.000000 -0.756139
vn 0.654411 0.000000 -0.756139
vn 0.654411 0.000000 -0.756139
vn 0.654411 0.000000 -0.756139
vn 0.000000 0.000000 1.000000
vn 0.000000 0.000000 1.000000
vn 0.000000 0.000000 1.000000
vn 0.000000 0.000000 1.000000
vn 0.000000 1.000000 0.000000
vn 0.000000 1.000000 0.000000
vn 0.000000 1.000000 0.000000
vn 0.000000 1.000000 0.000000
vn 0.000000 0.000000 -1.000000
vn 0.000000 0.000000 -1.000000
vn 0.000000 0.000000 -1.000000
vn 0.000000 0.000000 -1.000000
vn 0.000000 -1.000000 0.000000
vn 0.000000 -1.000000 0.000000
vn 0.000000 -1.000000 0.000000
vn 0.000000 -1.000000 0.000000
vn 0.000000 -0.654409 0.756141
vn 0.000000 -0.654409 0.756141
vn 0.000000 -0.654409 0.756141
vn 0.000000 -0.654409 0.756141
vn 0.000000 0.654409 0.756141
vn 0.000000 0.654409 0.756141
vn 0.000000 0.654409 0.756141
vn 0.000000 0.654409 0.756141
vn 0.000000 0.654409 -0.756141
vn 0.000000 0.654409 -0.756141
vn 0.000000 0.654409 -0.756141
vn 0.000000 0.654409 -0.756141
vn 0.000000 -0.654409 -0.756141
vn 0.000000 -0.654409 -0.756141
vn 0.000000 -0.654409 -0.756141
vn 0.000000 -0.654409 -0.756141
vn 0.000000 0.000000 1.000000
vn 0.000000 0.000000 1.000000
vn 0.000000 0.000000 1.000000
vn 0.000000 0.000000 1.000000
vn 0.000000 1.000000 0.000000
vn 0.000000 1.000000 0.000000
vn 0.000000 1.000000 0.000000
vn 0.000000 1.000000 0.000000
vn 0.000000 0.000000 -1.000000
vn 0.000000 0.000000 -1.000000
vn 0.000000 0.000000 -1.000000
vn 0.000000 0.000000 -1.000000
vn 0.000000 -1.000000 0.000000
vn 0.000000 -1.000000 0.000000
vn 0.000000 -1.000000 0.000000
vn 0.000000 -1.000000 0.000000
vn 0.000000 -0.654405 0.756144
vn 0.000000 -0.654405 0.756144
vn 0.000000 -0.654405 0.756144
vn 0.000000 -0.654405 0.756144
vn 0.000000 0.654408 0.756142
vn 0.000000 0.654408 0.756142
vn 0.000000 0.654408 0.756142
vn 0.000000 0.654408 0.756142
vn 0.000000 0.654408 -0.756142
vn 0.000000 0.654408 -0.756142
vn 0.000000 0.654408 -0.756142
vn 0.000000 0.654408 -0.756142
vn 0.000000 -0.654405 -0.756144
vn 0.000000 -0.654405 -0.756144
vn 0.000000 -0.654405 -0.756144
vn 0.000000 -0.654405 -0.756144
vn 0.000000 0.000000 1.000000
vn 0.000000 0.000000 1.000000
vn 0.000000 0.000000 1.000000
vn 0.000000 0.000000 1.000000
vn 0.000000 1.000000 0.000000
vn 0.000000 1.000000 0.000000
vn 0.000000 1.000000 0.000000
vn 0.000000 1.000000 0.000000
vn 0.000000 0.000000 -1.000000
vn 0.000000 0.000000 -1.000000
vn 0.000000 0.000000 -1.000000
vn 0.000000 0.000000 -1.000000
vn 0.000000 -1.000000 0.000000
vn 0.000000 -1.000000 0.000000
vn 0.000000 -1.000000 0.000000
vn 0.000000 -1.000000 0.000000
vn 0.000000 -0.654408 0.756142
vn 0.000000 -0.654408 0.756142
vn 0.000000 -0.654408 0.756142
vn 0.000000 -0.654408 0.756142
vn 0.000000 0.654411 0.756140
vn 0.000000 0.654411 0.756140
vn 0.000000 0.654411 0.756140
vn 0.000000 0.654411 0.756140
vn 0.000000 0.654411 -0.756140
vn 0.000000 0.654411 -0.756140
vn 0.000000 0.654411 -0.756140
vn 0.000000 0.654411 -0.756140
vn 0.000000 -0.654408 -0.756142
vn 0.000000 -0.654408 -0.756142
vn 0.000000 -0.654408 -0.756142
vn 0.000000 -0.654408 -0.756142
vn 0.000000 0.000000 1.000000
vn 0.000000 0.000000 1.000000
vn 0.000000 0.000000 1.000000
vn 0.000000 0.000000 1.000000
vn -1.000000 0.000000 0.000000
vn -1.000000 0.000000 0.000000
vn -1.000000 0.000000 0.000000
vn -1.000000 0.000000 0.000000
vn 0.000000 0.000000 -1.000000
vn 0.000000 0.000000 -1.000000
vn 0.000000 0.000000 -1.000000
vn 0.000000 0.000000 -1.000000
vn 1.000000 0.000000 0.000000
vn 1.000000 0.000000 0.000000
vn 1.000000 0.000000 0.000000
vn 1.000000 0.000000 0.000000
vn 0.654407 0.000000 0.756143
vn 0.654407 0.000000 0.756143
vn 0.654407 0.000000 0.756143
vn 0.654407 0.000000 0.756143
vn -0.654408 0.000000 0.756142
vn -0.654408 0.000000 0.756142
vn -0.654408 0.000000 0.756142
vn -0.654408 0.000000 0.756142
vn -0.654408 0.000000 -0.756142
vn -0.654408 0.000000 -0.756142
vn -0.654408 0.000000 -0.756142
vn -0.654408 0.000000 -0.756142
vn 0.654407 0.000000 -0.756143
vn 0.654407 0.000000 -0.756143
vn 0.654407 0.000000 -0.756143
vn 0.654407 0.000000 -0.756143
vn 0.000000 0.000000 1.000000
vn 0.000000 0.000000 1.000000
vn 0.000000 0.000000 1.000000
vn 0.000000 0.000000 1.000000
vn -1.000000 0.000000 0.000000
vn -1.000000 0.000000 0.000000
vn -1.000000 0.000000 0.000000
vn -1.000000 0.000000 0.000000
vn 0.000000 0.000000 -1.000000
vn 0.000000 0.000000 -1.000000
vn 0.000000 0.000000 -1.000000
vn 0.000000 0.000000 -1.000000
vn 1.000000 0.000000 0.000000
vn 1.000000 0.000000 0.000000
vn 1.000000 0.000000 0.000000
vn 1.000000 0.000000 0.000000
vn 0.654407 0.000000 0.756143
vn 0.654407 0.000000 0.756143
vn 0.654407 0.000000 0.756143
vn 0.654407 0.000000 0.756143
vn -0.654409 0.000000 0.756141
vn -0.654409 0.000000 0.756141
vn -0.654409 0.000000 0.756141
vn -0.654409 0.000000 0.756141
vn -0.654409 0.000000 -0.756141
vn -0.654409 0.000000 -0.756141
vn -0.654409 0.000000 -0.756141
vn -0.654409 0.000000 -0.756141
vn 0.654407 0.000000 -0.756143
vn 0.654407 0.000000 -0.756143
vn 0.654407 0.000000 -0.756143
vn 0.654407 0.000000 -0.756143
f 2/1/1 3/2/2 8/3/3 5/4/4
f 6/5/5 7/6/6 12/7/7 9/8/8
f 10/9/9 11/10/10 16/11/11 13/12/12
f 14/13/13 15/14/14 4/15/15 1/16/16
f 2/1/17 1/17/18 4/18/19 3/2/20
f 6/5/21 5/4/22 8/3/23 7/6/24
f 10/9/25 9/8/26 12/7/27 11/10/28
f 14/13/29 13/12/30 16/11/31 15/14/32
f 18/19/33 19/20/34 24/21/35 21/22/36
f 22/23/37 23/24/38 28/25/39 25/26/40
f 26/27/41 27/28/42 32/29/43 29/30/44
f 30/31/45 31/32/46 20/33/47 17/34/48
f 18/19/49 17/35/50 20/36/51 19/20/52
f 22/23/53 21/22/54 24/21/55 23/24/56
f 26/27/57 25/26/58 28/25/59 27/28/60
f 30/31/61 29/30/62 32/29/63 31/32/64
f 34/37/65 35/38/66 40/39/67 37/40/68
f 38/41/69 39/42/70 44/43/71 41/44/72
f 42/45/73 43/46/74 48/47/75 45/48/76
f 46/49/77 47/50/78 36/51/79 33/52/80
f 34/37/81 33/53/82 36/54/83 35/38/84
f 38/41/85 37/40/86 40/39/87 39/42/88
f 42/45/89 41/44/90 44/43/91 43/46/92
f 46/49/93 45/48/94 48/47/95 47/50/96
f 50/55/97 51/56/98 56/57/99 53/58/100
f 54/59/101 55/60/102 60/61/103 57/62/104
f 58/63/105 59/64/106 64/65/107 61/66/108
f 62/67/109 63/68/110 52/69/111 49/70/112
f 50/55/113 49/71/114 52/72/115 51/56/116
f 54/59/117 53/58/118 56/57/119 55/60/120
f 58/63/121 57/62/122 60/61/123 59/64/124
f 62/67/125 61/66/126 64/65/127 63/68/128
f 66/73/129 67/74/130 72/75/131 69/76/132
f 70/77/133 71/78/134 76/79/135 73/80/136
f 74/81/137 75/82/138 80/83/139 77/84/140
f 78/85/141 79/86/142 68/87/143 65/88/144
f 66/73/145 65/89/146 68/90/147 67/74/148
f 70/77/149 69/76/150 72/75/151 71/78/152
f 74/81/153 73/80/154 76/79/155 75/82/156
f 78/85/157 77/84/158 80/83/159 79/86/160
f 82/91/161 83/92/162 88/93/163 85/94/164
f 86/95/165 87/96/166 92/97/167 89/98/168
f 90/99/169 91/100/170 96/101/171 93/102/172
f 94/103/173 95/104/174 84/105/175 81/106/176
f 82/91/177 81/107/178 84/108/179 83/92/180
f 86/95/181 85/94/182 88/93/183 87/96/184
f 90/99/185 89/98/186 92/97/187 91/100/188
f 94/103/189 93/102/190 96/101/191 95/104/192
f 98/109/193 99/110/194 104/111/195 101/112/196
f 102/113/197 103/114/198 108/115/199 105/116/200
f 106/117/201 107/118/202 112/119/203 109/120/204
f 110/121/205 111/122/206 100/123/207 97/124/208
f 98/109/209 97/125/210 100/126/211 99/110/212
f 102/113/213 101/112/214 104/111/215 103/114/216
f 106/117/217 105/116/218 108/115/219 107/118/220
f 110/121/221 109/120/222 112/119/223 111/122/224
