# This file uses centimeters as units for non-parametric coordinates.

v 33.228161 -117.253128 -19.184288
v 19.184288 -117.253128 -33.228161
v 0.000000 -117.253128 -38.368576
v -19.184288 -117.253128 -33.228161
v -33.228161 -117.253128 -19.184288
v -38.368576 -117.253128 0.000000
v -33.228161 -117.253128 19.184288
v -19.184288 -117.253128 33.228161
v 0.000000 -117.253128 38.368576
v 19.184288 -117.253128 33.228161
v 33.228161 -117.253128 19.184288
v 38.368576 -117.253128 0.000000
v 33.228161 -76.304947 -19.184288
v 19.184288 -76.304947 -33.228161
v 0.000000 -76.304947 -38.368576
v -19.184288 -76.304947 -33.228161
v -33.228161 -76.304947 -19.184288
v -38.368576 -76.304947 0.000000
v -33.228161 -76.304947 19.184288
v -19.184288 -76.304947 33.228161
v 0.000000 -76.304947 38.368576
v 19.184288 -76.304947 33.228161
v 33.228161 -76.304947 19.184288
v 38.368576 -76.304947 0.000000
v 31.707031 -117.253128 -18.306065
v 18.306065 -117.253128 -31.707031
v 18.306065 -76.304947 -31.707031
v 31.707031 -76.304947 -18.306065
v 0.000000 -117.253128 -36.612129
v 0.000000 -76.304947 -36.612129
v -18.306065 -117.253128 -31.707027
v -18.306065 -76.304947 -31.707027
v -31.707031 -117.253128 -18.306065
v -31.707031 -76.304947 -18.306065
v -36.612129 -117.253128 0.000000
v -36.612129 -76.304947 0.000000
v -31.707031 -117.253128 18.306065
v -31.707031 -76.304947 18.306065
v -18.306065 -117.253128 31.707031
v -18.306065 -76.304947 31.707031
v 0.000000 -117.253128 36.612129
v 0.000000 -76.304947 36.612129
v 18.306065 -117.253128 31.707027
v 18.306065 -76.304947 31.707027
v 31.707031 -117.253128 18.306065
v 31.707031 -76.304947 18.306065
v 36.612129 -117.253128 0.000000
v 36.612129 -76.304947 0.000000
v 19.184288 -96.779037 33.228161
v 0.000000 -96.779037 38.368576
v -19.184288 -96.779037 33.228161
v -33.228161 -96.779037 19.184288
v -38.368576 -96.779037 0.000000
v -33.228161 -96.779037 -19.184288
v -19.184288 -96.779037 -33.228161
v 0.000000 -96.779037 -38.368576
v 19.184288 -96.779037 -33.228161
v 33.228161 -96.779037 -19.184288
v 38.368576 -96.779037 0.000000
v 33.228161 -96.779037 19.184288
v 0.000000 -96.779037 -36.612129
v -18.306065 -96.779037 -31.707027
v -31.707031 -96.779037 -18.306065
v -36.612129 -96.779037 0.000000
v -31.707031 -96.779037 18.306065
v -18.306065 -96.779037 31.707031
v 0.000000 -96.779037 36.612129
v 18.306065 -96.779037 31.707027
v 31.707031 -96.779037 18.306065
v 36.612129 -96.779037 0.000000
v 31.707031 -96.779037 -18.306065
v 18.306065 -96.779037 -31.707031
vt 0.882735 0.118139
vt 0.986384 0.118139
vt 0.986384 0.109829
vt 0.882735 0.109829
vt 0.986384 0.101519
vt 0.882735 0.101519
vt 0.986385 0.093208
vt 0.882735 0.093208
vt 0.986384 0.084898
vt 0.882735 0.084898
vt 0.986384 0.076588
vt 0.882735 0.076588
vt 0.986385 0.068278
vt 0.882735 0.068277
vt 0.986384 0.076643
vt 0.882735 0.076643
vt 0.986384 0.085009
vt 0.882735 0.085009
vt 0.986384 0.093375
vt 0.882735 0.093375
vt 0.986384 0.101741
vt 0.882735 0.101741
vt 0.986384 0.110107
vt 0.882735 0.110107
vt 0.986384 0.118473
vt 0.882735 0.118473
vt 0.888000 0.118139
vt 0.888000 0.109829
vt 0.986384 0.109829
vt 0.986384 0.118139
vt 0.888000 0.101519
vt 0.986384 0.101519
vt 0.888000 0.093208
vt 0.986385 0.093208
vt 0.888000 0.084898
vt 0.986384 0.084898
vt 0.888000 0.076588
vt 0.986384 0.076588
vt 0.888000 0.068277
vt 0.986385 0.068278
vt 0.888000 0.076643
vt 0.986384 0.076643
vt 0.888000 0.085009
vt 0.986384 0.085009
vt 0.888000 0.093375
vt 0.986384 0.093375
vt 0.888000 0.101741
vt 0.986384 0.101741
vt 0.888000 0.110107
vt 0.986384 0.110107
vt 0.888000 0.118473
vt 0.986384 0.118473
vt 0.888000 0.118139
vt 0.888000 0.109829
vt 0.888219 0.109829
vt 0.882966 0.109829
vt 0.882966 0.118139
vt 0.888219 0.118139
vt 0.888000 0.101519
vt 0.888219 0.101519
vt 0.882966 0.101519
vt 0.888000 0.093208
vt 0.888219 0.093208
vt 0.882966 0.093208
vt 0.888000 0.084898
vt 0.888219 0.084898
vt 0.882966 0.084898
vt 0.888000 0.076588
vt 0.888219 0.076588
vt 0.882966 0.076588
vt 0.888000 0.068277
vt 0.888219 0.068278
vt 0.882966 0.068277
vt 0.888000 0.076643
vt 0.888219 0.076643
vt 0.882966 0.076643
vt 0.888000 0.085009
vt 0.888219 0.085009
vt 0.882966 0.085009
vt 0.888000 0.093375
vt 0.888219 0.093375
vt 0.882966 0.093375
vt 0.888000 0.101741
vt 0.888219 0.101741
vt 0.882966 0.101741
vt 0.888000 0.110107
vt 0.888219 0.110107
vt 0.882966 0.110107
vt 0.888000 0.118473
vt 0.888219 0.118473
vt 0.882966 0.118473
vt 0.888219 0.093375
vt 0.888219 0.085009
vt 0.888219 0.076643
vt 0.888219 0.068278
vt 0.888219 0.076588
vt 0.888219 0.084898
vt 0.888219 0.093208
vt 0.888219 0.101519
vt 0.888219 0.109829
vt 0.888219 0.118139
vt 0.888219 0.118473
vt 0.888219 0.110107
vt 0.888219 0.101741
vn -0.866025 0.000000 0.500000
vn -0.866025 0.000000 0.500000
vn -0.500000 0.000000 0.866025
vn -0.500000 0.000000 0.866025
vn -0.500000 0.000000 0.866025
vn -0.500000 0.000000 0.866025
vn 0.000000 0.000000 1.000000
vn 0.000000 0.000000 1.000000
vn 0.000000 0.000000 1.000000
vn 0.000000 0.000000 1.000000
vn 0.500000 0.000000 0.866025
vn 0.500000 0.000000 0.866025
vn 0.500000 0.000000 0.866025
vn 0.500000 0.000000 0.866025
vn 0.866025 0.000000 0.500000
vn 0.866025 0.000000 0.500000
vn 0.866025 0.000000 0.500000
vn 0.866025 0.000000 0.500000
vn 1.000000 0.000000 0.000000
vn 1.000000 0.000000 0.000000
vn 1.000000 0.000000 0.000000
vn 1.000000 0.000000 0.000000
vn 0.866025 0.000000 -0.500000
vn 0.866025 0.000000 -0.500000
vn 0.866025 0.000000 -0.500000
vn 0.866025 0.000000 -0.500000
vn 0.500000 0.000000 -0.866025
vn 0.500000 0.000000 -0.866025
vn 0.500000 0.000000 -0.866025
vn 0.500000 0.000000 -0.866025
vn -0.000000 0.000000 -1.000000
vn -0.000000 0.000000 -1.000000
vn -0.000000 0.000000 -1.000000
vn -0.000000 0.000000 -1.000000
vn -0.500000 0.000000 -0.866025
vn -0.500000 0.000000 -0.866025
vn -0.500000 0.000000 -0.866025
vn -0.500000 0.000000 -0.866025
vn -0.866025 0.000000 -0.500000
vn -0.866025 0.000000 -0.500000
vn -0.866025 0.000000 -0.500000
vn -0.866025 0.000000 -0.500000
vn -1.000000 0.000000 0.000000
vn -1.000000 0.000000 0.000000
vn -1.000000 0.000000 0.000000
vn -1.000000 0.000000 0.000000
vn -0.866025 0.000000 0.500000
vn -0.866025 0.000000 0.500000
vn 0.866025 0.000000 -0.500000
vn 0.500000 0.000000 -0.866025
vn 0.500000 0.000000 -0.866025
vn 0.866025 0.000000 -0.500000
vn 0.500000 0.000000 -0.866025
vn 0.000000 0.000000 -1.000000
vn 0.000000 0.000000 -1.000000
vn 0.500000 0.000000 -0.866025
vn 0.000000 0.000000 -1.000000
vn -0.500000 0.000000 -0.866025
vn -0.500000 0.000000 -0.866025
vn 0.000000 0.000000 -1.000000
vn -0.500000 0.000000 -0.866025
vn -0.866025 0.000000 -0.500000
vn -0.866025 0.000000 -0.500000
vn -0.500000 0.000000 -0.866025
vn -0.866025 0.000000 -0.500000
vn -1.000000 0.000000 0.000000
vn -1.000000 0.000000 0.000000
vn -0.866025 0.000000 -0.500000
vn -1.000000 0.000000 0.000000
vn -0.866025 0.000000 0.500000
vn -0.866025 0.000000 0.500000
vn -1.000000 0.000000 0.000000
vn -0.866025 0.000000 0.500000
vn -0.500000 0.000000 0.866025
vn -0.500000 0.000000 0.866025
vn -0.866025 0.000000 0.500000
vn -0.500000 0.000000 0.866025
vn 0.000000 0.000000 1.000000
vn 0.000000 0.000000 1.000000
vn -0.500000 0.000000 0.866025
vn 0.000000 0.000000 1.000000
vn 0.500000 0.000000 0.866025
vn 0.500000 0.000000 0.866025
vn 0.000000 0.000000 1.000000
vn 0.500000 0.000000 0.866025
vn 0.866025 0.000000 0.500000
vn 0.866025 0.000000 0.500000
vn 0.500000 0.000000 0.866025
vn 0.866025 0.000000 0.500000
vn 1.000000 0.000000 0.000000
vn 1.000000 0.000000 0.000000
vn 0.866025 0.000000 0.500000
vn 1.000000 0.000000 0.000000
vn 0.866025 0.000000 -0.500000
vn 0.866025 0.000000 -0.500000
vn 1.000000 0.000000 0.000000
vn 0.000000 -1.000000 0.000000
vn 0.000000 -1.000000 0.000000
vn 0.000000 -1.000000 0.000000
vn 0.000000 -1.000000 0.000000
vn 0.000000 1.000000 0.000000
vn 0.000000 1.000000 0.000000
vn 0.000000 1.000000 0.000000
vn 0.000000 1.000000 0.000000
vn 0.000000 -1.000000 0.000000
vn 0.000000 -1.000000 0.000000
vn 0.000000 -1.000000 -0.000001
vn 0.000000 -1.000000 -0.000001
vn 0.000000 1.000000 0.000000
vn 0.000000 1.000000 0.000000
vn 0.000000 1.000000 0.000000
vn 0.000000 1.000000 0.000000
vn 0.000000 -1.000000 -0.000001
vn 0.000000 -1.000000 -0.000001
vn 0.000000 -1.000000 0.000000
vn 0.000000 -1.000000 0.000000
vn 0.000000 1.000000 0.000000
vn 0.000000 1.000000 0.000000
vn 0.000000 1.000000 0.000000
vn 0.000000 1.000000 0.000000
vn 0.000000 -1.000000 0.000000
vn 0.000000 -1.000000 0.000000
vn 0.000000 -1.000000 0.000000
vn 0.000000 -1.000000 0.000000
vn 0.000000 1.000000 0.000000
vn 0.000000 1.000000 0.000000
vn 0.000000 1.000000 0.000000
vn 0.000000 1.000000 0.000000
vn 0.000000 -1.000000 0.000000
vn 0.000000 -1.000000 0.000000
vn 0.000000 -1.000000 0.000000
vn 0.000000 -1.000000 0.000000
vn 0.000000 1.000000 0.000000
vn 0.000000 1.000000 0.000000
vn 0.000000 1.000000 0.000000
vn 0.000000 1.000000 0.000000
vn 0.000000 -1.000000 0.000000
vn 0.000000 -1.000000 0.000000
vn 0.000000 -1.000000 0.000000
vn 0.000000 -1.000000 0.000000
vn 0.000000 1.000000 0.000000
vn 0.000000 1.000000 0.000000
vn 0.000000 1.000000 0.000000
vn 0.000000 1.000000 0.000000
vn 0.000000 -1.000000 0.000000
vn 0.000000 -1.000000 0.000000
vn 0.000000 -1.000000 0.000000
vn 0.000000 -1.000000 0.000000
vn 0.000000 1.000000 0.000000
vn 0.000000 1.000000 0.000000
vn 0.000000 1.000000 0.000000
vn 0.000000 1.000000 0.000000
vn 0.000000 -1.000000 0.000000
vn 0.000000 -1.000000 0.000000
vn 0.000000 -1.000000 0.000001
vn 0.000000 -1.000000 0.000001
vn 0.000000 1.000000 0.000000
vn 0.000000 1.000000 0.000000
vn 0.000000 1.000000 0.000000
vn 0.000000 1.000000 0.000000
vn 0.000000 -1.000000 0.000001
vn 0.000000 -1.000000 0.000001
vn 0.000000 -1.000000 0.000000
vn 0.000000 -1.000000 0.000000
vn 0.000000 1.000000 0.000000
vn 0.000000 1.000000 0.000000
vn 0.000000 1.000000 0.000000
vn 0.000000 1.000000 0.000000
vn 0.000000 -1.000000 0.000000
vn 0.000000 -1.000000 0.000000
vn 0.000000 -1.000000 0.000000
vn 0.000000 -1.000000 0.000000
vn 0.000000 1.000000 0.000000
vn 0.000000 1.000000 0.000000
vn 0.000000 1.000000 0.000000
vn 0.000000 1.000000 0.000000
vn 0.000000 -1.000000 0.000000
vn 0.000000 -1.000000 0.000000
vn 0.000000 -1.000000 0.000000
vn 0.000000 -1.000000 0.000000
vn 0.000000 1.000000 0.000000
vn 0.000000 1.000000 0.000000
vn 0.000000 1.000000 0.000000
vn 0.000000 1.000000 0.000000
vn 0.000000 -1.000000 0.000000
vn 0.000000 -1.000000 0.000000
vn 0.000000 -1.000000 0.000000
vn 0.000000 -1.000000 0.000000
vn 0.000000 1.000000 0.000000
vn 0.000000 1.000000 0.000000
vn 0.000000 1.000000 0.000000
vn 0.000000 1.000000 0.000000
vn 0.000000 0.000000 1.000000
vn 0.500000 0.000000 0.866025
vn 0.500000 0.000000 0.866025
vn 0.000000 0.000000 1.000000
vn -0.500000 0.000000 0.866025
vn 0.000000 0.000000 1.000000
vn 0.000000 0.000000 1.000000
vn -0.500000 0.000000 0.866025
vn -0.866025 0.000000 0.500000
vn -0.500000 0.000000 0.866025
vn -0.500000 0.000000 0.866025
vn -0.866025 0.000000 0.500000
vn -1.000000 0.000000 0.000000
vn -0.866025 0.000000 0.500000
vn -0.866025 0.000000 0.500000
vn -1.000000 0.000000 0.000000
vn -0.866025 0.000000 -0.500000
vn -1.000000 0.000000 0.000000
vn -1.000000 0.000000 0.000000
vn -0.866025 0.000000 -0.500000
vn -0.500000 0.000000 -0.866025
vn -0.866025 0.000000 -0.500000
vn -0.866025 0.000000 -0.500000
vn -0.500000 0.000000 -0.866025
vn 0.000000 0.000000 -1.000000
vn -0.500000 0.000000 -0.866025
vn -0.500000 0.000000 -0.866025
vn 0.000000 0.000000 -1.000000
vn 0.500000 0.000000 -0.866025
vn 0.000000 0.000000 -1.000000
vn 0.000000 0.000000 -1.000000
vn 0.500000 0.000000 -0.866025
vn 0.866025 0.000000 -0.500000
vn 0.500000 0.000000 -0.866025
vn 0.500000 0.000000 -0.866025
vn 0.866025 0.000000 -0.500000
vn 1.000000 0.000000 0.000000
vn 0.866025 0.000000 -0.500000
vn 0.866025 0.000000 -0.500000
vn 1.000000 0.000000 0.000000
vn 0.866025 0.000000 0.500000
vn 1.000000 0.000000 0.000000
vn 1.000000 0.000000 0.000000
vn 0.866025 0.000000 0.500000
vn 0.500000 0.000000 0.866025
vn 0.866025 0.000000 0.500000
vn 0.866025 0.000000 0.500000
vn 0.500000 0.000000 0.866025
vn 0.000000 0.000000 1.000000
vn 0.000000 0.000000 1.000000
vn 0.500000 0.000000 0.866025
vn 0.500000 0.000000 0.866025
vn 0.866025 0.000000 0.500000
vn 0.500000 0.000000 0.866025
vn 0.500000 0.000000 0.866025
vn 0.866025 0.000000 0.500000
vn 1.000000 0.000000 0.000000
vn 0.866025 0.000000 0.500000
vn 0.866025 0.000000 0.500000
vn 1.000000 0.000000 0.000000
vn 0.866025 0.000000 -0.500000
vn 1.000000 0.000000 0.000000
vn 1.000000 0.000000 0.000000
vn 0.866025 0.000000 -0.500000
vn 0.500000 0.000000 -0.866025
vn 0.866025 0.000000 -0.500000
vn 0.866025 0.000000 -0.500000
vn 0.500000 0.000000 -0.866025
vn -0.000000 0.000000 -1.000000
vn 0.500000 0.000000 -0.866025
vn 0.500000 0.000000 -0.866025
vn -0.000000 0.000000 -1.000000
vn -0.500000 0.000000 -0.866025
vn -0.000000 0.000000 -1.000000
vn -0.000000 0.000000 -1.000000
vn -0.500000 0.000000 -0.866025
vn -0.866025 0.000000 -0.500000
vn -0.500000 0.000000 -0.866025
vn -0.500000 0.000000 -0.866025
vn -0.866025 0.000000 -0.500000
vn -1.000000 0.000000 0.000000
vn -0.866025 0.000000 -0.500000
vn -0.866025 0.000000 -0.500000
vn -1.000000 0.000000 0.000000
vn -0.866025 0.000000 0.500000
vn -1.000000 0.000000 0.000000
vn -1.000000 0.000000 0.000000
vn -0.866025 0.000000 0.500000
vn -0.500000 0.000000 0.866025
vn -0.866025 0.000000 0.500000
vn -0.866025 0.000000 0.500000
vn -0.500000 0.000000 0.866025
vn 0.000000 0.000000 1.000000
vn -0.500000 0.000000 0.866025
vn -0.500000 0.000000 0.866025
vn 0.000000 0.000000 1.000000
f 25/1/1 71/2/2 72/3/3 26/4/4
f 26/4/5 72/3/6 61/5/7 29/6/8
f 29/6/9 61/5/10 62/7/11 31/8/12
f 31/8/13 62/7/14 63/9/15 33/10/16
f 33/10/17 63/9/18 64/11/19 35/12/20
f 35/12/21 64/11/22 65/13/23 37/14/24
f 37/14/25 65/13/26 66/15/27 39/16/28
f 39/16/29 66/15/30 67/17/31 41/18/32
f 41/18/33 67/17/34 68/19/35 43/20/36
f 43/20/37 68/19/38 69/21/39 45/22/40
f 45/22/41 69/21/42 70/23/43 47/24/44
f 47/24/45 70/23/46 71/25/47 25/26/48
f 1/27/49 2/28/50 57/29/51 58/30/52
f 2/28/53 3/31/54 56/32/55 57/29/56
f 3/31/57 4/33/58 55/34/59 56/32/60
f 4/33/61 5/35/62 54/36/63 55/34/64
f 5/35/65 6/37/66 53/38/67 54/36/68
f 6/37/69 7/39/70 52/40/71 53/38/72
f 7/39/73 8/41/74 51/42/75 52/40/76
f 8/41/77 9/43/78 50/44/79 51/42/80
f 9/43/81 10/45/82 49/46/83 50/44/84
f 10/45/85 11/47/86 60/48/87 49/46/88
f 11/47/89 12/49/90 59/50/91 60/48/92
f 12/49/93 1/51/94 58/52/95 59/50/96
f 1/53/97 25/1/98 26/4/99 2/54/100
f 14/55/101 27/56/102 28/57/103 13/58/104
f 2/54/105 26/4/106 29/6/107 3/59/108
f 15/60/109 30/61/110 27/56/111 14/55/112
f 3/59/113 29/6/114 31/8/115 4/62/116
f 16/63/117 32/64/118 30/61/119 15/60/120
f 4/62/121 31/8/122 33/10/123 5/65/124
f 17/66/125 34/67/126 32/64/127 16/63/128
f 5/65/129 33/10/130 35/12/131 6/68/132
f 18/69/133 36/70/134 34/67/135 17/66/136
f 6/68/137 35/12/138 37/14/139 7/71/140
f 19/72/141 38/73/142 36/70/143 18/69/144
f 7/71/145 37/14/146 39/16/147 8/74/148
f 20/75/149 40/76/150 38/73/151 19/72/152
f 8/74/153 39/16/154 41/18/155 9/77/156
f 21/78/157 42/79/158 40/76/159 20/75/160
f 9/77/161 41/18/162 43/20/163 10/80/164
f 22/81/165 44/82/166 42/79/167 21/78/168
f 10/80/169 43/20/170 45/22/171 11/83/172
f 23/84/173 46/85/174 44/82/175 22/81/176
f 11/83/177 45/22/178 47/24/179 12/86/180
f 24/87/181 48/88/182 46/85/183 23/84/184
f 12/86/185 47/24/186 25/26/187 1/89/188
f 13/90/189 28/91/190 48/88/191 24/87/192
f 50/44/193 49/46/194 22/92/195 21/93/196
f 51/42/197 50/44/198 21/93/199 20/94/200
f 52/40/201 51/42/202 20/94/203 19/95/204
f 53/38/205 52/40/206 19/95/207 18/96/208
f 54/36/209 53/38/210 18/96/211 17/97/212
f 55/34/213 54/36/214 17/97/215 16/98/216
f 56/32/217 55/34/218 16/98/219 15/99/220
f 57/29/221 56/32/222 15/99/223 14/100/224
f 58/30/225 57/29/226 14/100/227 13/101/228
f 59/50/229 58/52/230 13/102/231 24/103/232
f 60/48/233 59/50/234 24/103/235 23/104/236
f 49/46/237 60/48/238 23/104/239 22/92/240
f 61/5/241 30/61/242 32/64/243 62/7/244
f 63/9/245 62/7/246 32/64/247 34/67/248
f 64/11/249 63/9/250 34/67/251 36/70/252
f 65/13/253 64/11/254 36/70/255 38/73/256
f 66/15/257 65/13/258 38/73/259 40/76/260
f 67/17/261 66/15/262 40/76/263 42/79/264
f 68/19/265 67/17/266 42/79/267 44/82/268
f 69/21/269 68/19/270 44/82/271 46/85/272
f 70/23/273 69/21/274 46/85/275 48/88/276
f 71/25/277 70/23/278 48/88/279 28/91/280
f 72/3/281 71/2/282 28/57/283 27/56/284
f 61/5/285 72/3/286 27/56/287 30/61/288
