# This file uses meters as units for non-parametric coordinates.

v 3.924502 -13.662645 -2.265812
v 2.265812 -13.662645 -3.924502
v 0.000000 -13.662645 -4.531625
v -2.265812 -13.662645 -3.924502
v -3.924502 -13.662645 -2.265812
v -4.531625 -13.662645 0.000000
v -3.924502 -13.662645 2.265812
v -2.265812 -13.662645 3.924502
v 0.000000 -13.662645 4.531625
v 2.265812 -13.662645 3.924502
v 3.924502 -13.662645 2.265812
v 4.531625 -13.662645 0.000000
v 7.581556 -12.347550 -4.377213
v 4.377213 -12.347550 -7.581556
v 0.000000 -12.347550 -8.754427
v -4.377213 -12.347550 -7.581556
v -7.581556 -12.347550 -4.377213
v -8.754427 -12.347550 0.000000
v -7.581556 -12.347550 4.377213
v -4.377213 -12.347550 7.581556
v 0.000000 -12.347550 8.754427
v 4.377213 -12.347550 7.581556
v 7.581556 -12.347550 4.377213
v 8.754427 -12.347550 0.000000
v 10.721939 -10.255536 -6.190314
v 6.190314 -10.255536 -10.721939
v 0.000000 -10.255536 -12.380629
v -6.190314 -10.255536 -10.721939
v -10.721939 -10.255536 -6.190314
v -12.380629 -10.255536 0.000000
v -10.721939 -10.255536 6.190314
v -6.190314 -10.255536 10.721939
v 0.000000 -10.255536 12.380629
v 6.190314 -10.255536 10.721939
v 10.721939 -10.255536 6.190314
v 12.380629 -10.255536 0.000000
v 13.131641 -7.529171 -7.581556
v 7.581556 -7.529171 -13.131641
v 0.000000 -7.529171 -15.163113
v -7.581556 -7.529171 -13.131641
v -13.131641 -7.529171 -7.581556
v -15.163113 -7.529171 0.000000
v -13.131641 -7.529171 7.581556
v -7.581556 -7.529171 13.131641
v 0.000000 -7.529171 15.163113
v 7.581556 -7.529171 13.131641
v 13.131641 -7.529171 7.581556
v 15.163113 -7.529171 0.000000
v 14.646441 -4.354252 -8.456127
v 8.456127 -4.354252 -14.646441
v 0.000000 -4.354252 -16.912254
v -8.456127 -4.354252 -14.646441
v -14.646441 -4.354252 -8.456127
v -16.912254 -4.354252 0.000000
v -14.646441 -4.354252 8.456127
v -8.456127 -4.354252 14.646441
v 0.000000 -4.354252 16.912254
v 8.456127 -4.354252 14.646441
v 14.646441 -4.354252 8.456127
v 16.912254 -4.354252 0.000000
v 0.000000 -14.111199 0.000000
vt 0.394767 0.232564
vt 0.399579 0.232564
vt 0.404387 0.232564
vt 0.409197 0.232564
vt 0.414008 0.232564
vt 0.418820 0.232564
vt 0.423628 0.232564
vt 0.418827 0.232564
vt 0.414027 0.232564
vt 0.409233 0.232564
vt 0.404431 0.232564
vt 0.399631 0.232564
vt 0.394834 0.232564
vt 0.394767 0.232564
vt 0.399579 0.232564
vt 0.404387 0.232564
vt 0.409197 0.232564
vt 0.414008 0.232564
vt 0.418820 0.232564
vt 0.423628 0.232564
vt 0.418827 0.232564
vt 0.414027 0.232564
vt 0.409233 0.232564
vt 0.404431 0.232564
vt 0.399631 0.232564
vt 0.394834 0.232564
vt 0.394767 0.232564
vt 0.399579 0.232564
vt 0.404387 0.232564
vt 0.409197 0.232564
vt 0.414008 0.232564
vt 0.418820 0.232564
vt 0.423628 0.232564
vt 0.418827 0.232564
vt 0.414027 0.232564
vt 0.409233 0.232564
vt 0.404431 0.232564
vt 0.399631 0.232564
vt 0.394834 0.232564
vt 0.394767 0.232564
vt 0.399579 0.232564
vt 0.404387 0.232564
vt 0.409197 0.232564
vt 0.414008 0.232564
vt 0.418820 0.232564
vt 0.423628 0.232564
vt 0.418827 0.232564
vt 0.414027 0.232564
vt 0.409233 0.232564
vt 0.404431 0.232564
vt 0.399631 0.232564
vt 0.394834 0.232564
vt 0.394767 0.232564
vt 0.399579 0.232564
vt 0.404387 0.232564
vt 0.409197 0.232564
vt 0.414008 0.232564
vt 0.418820 0.232564
vt 0.423628 0.232564
vt 0.418827 0.232564
vt 0.414027 0.232564
vt 0.409233 0.232564
vt 0.404431 0.232564
vt 0.399631 0.232564
vt 0.394834 0.232564
vt 0.397173 0.204655
vt 0.401981 0.204655
vt 0.406794 0.204655
vt 0.411603 0.204655
vt 0.416411 0.204655
vt 0.421223 0.204655
vt 0.421223 0.204655
vt 0.416434 0.204655
vt 0.411624 0.204655
vt 0.406833 0.204655
vt 0.402031 0.204655
vt 0.397234 0.204655
vn 0.223359 -0.966168 -0.128956
vn 0.128956 -0.966168 -0.223359
vn 0.217460 -0.900469 -0.376652
vn 0.376652 -0.900469 -0.217460
vn 0.000000 -0.966168 -0.257912
vn 0.000000 -0.900469 -0.434920
vn -0.128956 -0.966168 -0.223359
vn -0.217460 -0.900469 -0.376652
vn -0.223359 -0.966168 -0.128956
vn -0.376652 -0.900469 -0.217460
vn -0.257913 -0.966168 0.000000
vn -0.434920 -0.900469 0.000000
vn -0.223359 -0.966168 0.128956
vn -0.376652 -0.900469 0.217460
vn -0.128956 -0.966168 0.223359
vn -0.217460 -0.900469 0.376652
vn 0.000000 -0.966168 0.257912
vn 0.000000 -0.900469 0.434920
vn 0.128956 -0.966168 0.223359
vn 0.217460 -0.900469 0.376652
vn 0.223359 -0.966168 0.128956
vn 0.376652 -0.900469 0.217460
vn 0.257913 -0.966168 0.000000
vn 0.434920 -0.900469 -0.000000
vn 0.312858 -0.780050 -0.541887
vn 0.541887 -0.780050 -0.312858
vn 0.000000 -0.780050 -0.625717
vn -0.312858 -0.780050 -0.541887
vn -0.541887 -0.780050 -0.312858
vn -0.625717 -0.780050 0.000000
vn -0.541887 -0.780050 0.312858
vn -0.312858 -0.780050 0.541887
vn 0.000000 -0.780050 0.625717
vn 0.312858 -0.780050 0.541887
vn 0.541887 -0.780050 0.312858
vn 0.625717 -0.780050 -0.000000
vn 0.403586 -0.590315 -0.699032
vn 0.699032 -0.590315 -0.403586
vn -0.000000 -0.590315 -0.807173
vn -0.403586 -0.590315 -0.699032
vn -0.699032 -0.590315 -0.403586
vn -0.807173 -0.590315 -0.000000
vn -0.699032 -0.590315 0.403586
vn -0.403586 -0.590315 0.699032
vn 0.000000 -0.590315 0.807173
vn 0.403586 -0.590315 0.699032
vn 0.699032 -0.590315 0.403586
vn 0.807173 -0.590315 0.000000
vn 0.437937 -0.482540 -0.758529
vn 0.758529 -0.482540 -0.437937
vn -0.000000 -0.482540 -0.875874
vn -0.437937 -0.482540 -0.758529
vn -0.758529 -0.482540 -0.437937
vn -0.875874 -0.482540 -0.000000
vn -0.758529 -0.482540 0.437937
vn -0.437937 -0.482540 0.758529
vn 0.000000 -0.482540 0.875874
vn 0.437937 -0.482540 0.758529
vn 0.758529 -0.482540 0.437937
vn 0.875874 -0.482540 0.000000
vn 0.000000 -1.000000 -0.000000
vn 0.000000 1.000000 0.000000
vn 0.000000 1.000000 0.000000
vn 0.000000 1.000000 0.000000
vn 0.000000 1.000000 0.000000
vn 0.000000 1.000000 0.000000
vn 0.000000 1.000000 0.000000
vn 0.000000 1.000000 0.000000
vn 0.000000 1.000000 0.000000
vn 0.000000 1.000000 0.000000
vn 0.000000 1.000000 0.000000
vn 0.000000 1.000000 0.000000
vn 0.000000 1.000000 0.000000
f 1/1/1 2/2/2 14/15/3 13/14/4
f 2/2/2 3/3/5 15/16/6 14/15/3
f 3/3/5 4/4/7 16/17/8 15/16/6
f 4/4/7 5/5/9 17/18/10 16/17/8
f 5/5/9 6/6/11 18/19/12 17/18/10
f 6/6/11 7/7/13 19/20/14 18/19/12
f 7/7/13 8/8/15 20/21/16 19/20/14
f 8/8/15 9/9/17 21/22/18 20/21/16
f 9/9/17 10/10/19 22/23/20 21/22/18
f 10/10/19 11/11/21 23/24/22 22/23/20
f 11/11/21 12/12/23 24/25/24 23/24/22
f 12/12/23 1/13/1 13/26/4 24/25/24
f 13/14/4 14/15/3 26/28/25 25/27/26
f 14/15/3 15/16/6 27/29/27 26/28/25
f 15/16/6 16/17/8 28/30/28 27/29/27
f 16/17/8 17/18/10 29/31/29 28/30/28
f 17/18/10 18/19/12 30/32/30 29/31/29
f 18/19/12 19/20/14 31/33/31 30/32/30
f 19/20/14 20/21/16 32/34/32 31/33/31
f 20/21/16 21/22/18 33/35/33 32/34/32
f 21/22/18 22/23/20 34/36/34 33/35/33
f 22/23/20 23/24/22 35/37/35 34/36/34
f 23/24/22 24/25/24 36/38/36 35/37/35
f 24/25/24 13/26/4 25/39/26 36/38/36
f 25/27/26 26/28/25 38/41/37 37/40/38
f 26/28/25 27/29/27 39/42/39 38/41/37
f 27/29/27 28/30/28 40/43/40 39/42/39
f 28/30/28 29/31/29 41/44/41 40/43/40
f 29/31/29 30/32/30 42/45/42 41/44/41
f 30/32/30 31/33/31 43/46/43 42/45/42
f 31/33/31 32/34/32 44/47/44 43/46/43
f 32/34/32 33/35/33 45/48/45 44/47/44
f 33/35/33 34/36/34 46/49/46 45/48/45
f 34/36/34 35/37/35 47/50/47 46/49/46
f 35/37/35 36/38/36 48/51/48 47/50/47
f 36/38/36 25/39/26 37/52/38 48/51/48
f 37/40/38 38/41/37 50/54/49 49/53/50
f 38/41/37 39/42/39 51/55/51 50/54/49
f 39/42/39 40/43/40 52/56/52 51/55/51
f 40/43/40 41/44/41 53/57/53 52/56/52
f 41/44/41 42/45/42 54/58/54 53/57/53
f 42/45/42 43/46/43 55/59/55 54/58/54
f 43/46/43 44/47/44 56/60/56 55/59/55
f 44/47/44 45/48/45 57/61/57 56/60/56
f 45/48/45 46/49/46 58/62/58 57/61/57
f 46/49/46 47/50/47 59/63/59 58/62/58
f 47/50/47 48/51/48 60/64/60 59/63/59
f 48/51/48 37/52/38 49/65/50 60/64/60
f 2/2/2 1/1/1 61/66/61
f 3/3/5 2/2/2 61/67/61
f 4/4/7 3/3/5 61/68/61
f 5/5/9 4/4/7 61/69/61
f 6/6/11 5/5/9 61/70/61
f 7/7/13 6/6/11 61/71/61
f 8/8/15 7/7/13 61/72/61
f 9/9/17 8/8/15 61/73/61
f 10/10/19 9/9/17 61/74/61
f 11/11/21 10/10/19 61/75/61
f 12/12/23 11/11/21 61/76/61
f 1/13/1 12/12/23 61/77/61
f 57/61/62 58/62/63 56/60/64
f 58/62/63 59/63/65 56/60/64
f 59/63/65 60/64/66 56/60/64
f 60/64/66 49/53/67 56/60/64
f 49/53/67 50/54/68 56/60/64
f 50/54/68 51/55/69 56/60/64
f 51/55/69 52/56/70 56/60/64
f 52/56/70 53/57/71 56/60/64
f 53/57/71 54/58/72 56/60/64
f 54/58/72 55/59/73 56/60/64
