# This file uses meters as units for non-parametric coordinates.

v 7.424575 -11.139619 -4.286580
v 4.286580 -11.139619 -7.424575
v 0.000000 -11.139619 -8.573160
v -4.286580 -11.139619 -7.424575
v -7.424575 -11.139619 -4.286580
v -8.573160 -11.139619 0.000000
v -7.424575 -11.139619 4.286580
v -4.286580 -11.139619 7.424575
v 0.000000 -11.139619 8.573160
v 4.286580 -11.139619 7.424575
v 7.424575 -11.139619 4.286580
v 8.573160 -11.139619 0.000000
v 10.455733 -9.016312 -6.036620
v 6.036620 -9.016312 -10.455733
v 0.000000 -9.016312 -12.073240
v -6.036620 -9.016312 -10.455733
v -10.455733 -9.016312 -6.036620
v -12.073240 -9.016312 0.000000
v -10.455733 -9.016312 6.036620
v -6.036620 -9.016312 10.455733
v 0.000000 -9.016312 12.073240
v 6.036620 -9.016312 10.455733
v 10.455733 -9.016312 6.036620
v 12.073240 -9.016312 0.000000
v 0.000000 -13.045457 0.000000
vt 0.449339 0.217037
vt 0.455275 0.217037
vt 0.461212 0.217037
vt 0.467148 0.217037
vt 0.473084 0.217037
vt 0.479020 0.217037
vt 0.484956 0.217037
vt 0.478927 0.217037
vt 0.472899 0.217037
vt 0.466870 0.217037
vt 0.460841 0.217037
vt 0.454812 0.217037
vt 0.448783 0.217037
vt 0.449339 0.228909
vt 0.455275 0.228909
vt 0.461212 0.228909
vt 0.467148 0.228909
vt 0.473084 0.228909
vt 0.479020 0.228909
vt 0.484956 0.228909
vt 0.478927 0.228909
vt 0.472899 0.228909
vt 0.466870 0.228909
vt 0.460841 0.228909
vt 0.454812 0.228909
vt 0.448783 0.228909
vt 0.452307 0.205164
vt 0.458243 0.205164
vt 0.464180 0.205164
vt 0.470116 0.205164
vt 0.476052 0.205164
vt 0.481988 0.205164
vt 0.481942 0.205164
vt 0.475913 0.205164
vt 0.469884 0.205164
vt 0.463855 0.205164
vt 0.457827 0.205164
vt 0.451798 0.205164
vn 0.201109 -0.915544 -0.348331
vn 0.348332 -0.915544 -0.201109
vn 0.000000 -1.000000 -0.000000
vn 0.000000 -0.915544 -0.402219
vn -0.201109 -0.915544 -0.348331
vn -0.348332 -0.915544 -0.201109
vn -0.402219 -0.915544 -0.000000
vn -0.348331 -0.915544 0.201109
vn -0.201109 -0.915544 0.348331
vn 0.000000 -0.915544 0.402219
vn 0.201109 -0.915544 0.348331
vn 0.348332 -0.915544 0.201109
vn 0.402219 -0.915544 0.000000
vn 0.259334 -0.854976 -0.449179
vn 0.449179 -0.854976 -0.259333
vn 0.000000 -0.854976 -0.518667
vn -0.259334 -0.854976 -0.449179
vn -0.449179 -0.854976 -0.259333
vn -0.518667 -0.854976 -0.000000
vn -0.449179 -0.854976 0.259333
vn -0.259334 -0.854976 0.449179
vn 0.000000 -0.854976 0.518667
vn 0.259334 -0.854976 0.449179
vn 0.449179 -0.854976 0.259333
vn 0.518667 -0.854976 0.000000
f 2/2/1 1/1/2 25/27/3
f 3/3/4 2/2/1 25/28/3
f 4/4/5 3/3/4 25/29/3
f 5/5/6 4/4/5 25/30/3
f 6/6/7 5/5/6 25/31/3
f 7/7/8 6/6/7 25/32/3
f 8/8/9 7/7/8 25/33/3
f 9/9/10 8/8/9 25/34/3
f 10/10/11 9/9/10 25/35/3
f 11/11/12 10/10/11 25/36/3
f 12/12/13 11/11/12 25/37/3
f 1/13/2 12/12/13 25/38/3
f 2/2/1 14/15/14 13/14/15 1/1/2
f 3/3/4 15/16/16 14/15/14 2/2/1
f 4/4/5 16/17/17 15/16/16 3/3/4
f 5/5/6 17/18/18 16/17/17 4/4/5
f 6/6/7 18/19/19 17/18/18 5/5/6
f 7/7/8 19/20/20 18/19/19 6/6/7
f 8/8/9 20/21/21 19/20/20 7/7/8
f 9/9/10 21/22/22 20/21/21 8/8/9
f 10/10/11 22/23/23 21/22/22 9/9/10
f 11/11/12 23/24/24 22/23/23 10/10/11
f 12/12/13 24/25/25 23/24/24 11/11/12
f 1/13/2 13/26/15 24/25/25 12/12/13
