# This file uses meters as units for non-parametric coordinates.

v 4.809746 -5.277823 -2.776908
v 2.776908 -5.277823 -4.809746
v 0.000000 -5.277823 -5.553816
v -2.776908 -5.277823 -4.809746
v -4.809746 -5.277823 -2.776908
v -5.553816 -5.277823 0.000000
v -4.809746 -5.277823 2.776908
v -2.776908 -5.277823 4.809746
v 0.000000 -5.277823 5.553816
v 2.776908 -5.277823 4.809746
v 4.809746 -5.277823 2.776908
v 5.553816 -5.277823 0.000000
v 9.291716 -2.872225 -5.364575
v 5.364575 -2.872225 -9.291716
v 0.000000 -2.872225 -10.729149
v -5.364575 -2.872225 -9.291716
v -9.291716 -2.872225 -5.364575
v -10.729149 -2.872225 0.000000
v -9.291716 -2.872225 5.364575
v -5.364575 -2.872225 9.291716
v 0.000000 -2.872225 10.729149
v 5.364575 -2.872225 9.291716
v 9.291716 -2.872225 5.364575
v 10.729149 -2.872225 0.000000
v 0.000000 -6.098328 0.000000
vt 0.448790 0.215734
vt 0.454602 0.215734
vt 0.460415 0.215734
vt 0.466227 0.215734
vt 0.472039 0.215734
vt 0.477852 0.215734
vt 0.483664 0.215734
vt 0.477864 0.215734
vt 0.472065 0.215734
vt 0.466266 0.215734
vt 0.460467 0.215734
vt 0.454667 0.215734
vt 0.448868 0.215734
vt 0.448790 0.227775
vt 0.454602 0.227775
vt 0.460415 0.227775
vt 0.466227 0.227775
vt 0.472039 0.227775
vt 0.477852 0.227775
vt 0.483664 0.227775
vt 0.477864 0.227775
vt 0.472065 0.227775
vt 0.466266 0.227775
vt 0.460467 0.227775
vt 0.454667 0.227775
vt 0.448868 0.227775
vt 0.451696 0.203694
vt 0.457509 0.203694
vt 0.463321 0.203694
vt 0.469133 0.203694
vt 0.474945 0.203694
vt 0.480758 0.203694
vt 0.480764 0.203694
vt 0.474965 0.203694
vt 0.469165 0.203694
vt 0.463366 0.203694
vt 0.457567 0.203694
vt 0.451768 0.203694
vn 0.320542 -0.928980 -0.185065
vn 0.185065 -0.928980 -0.320542
vn 0.210755 -0.906824 -0.365038
vn 0.365038 -0.906824 -0.210755
vn 0.000000 -0.928980 -0.370130
vn 0.000000 -0.906824 -0.421510
vn -0.185065 -0.928980 -0.320542
vn -0.210755 -0.906824 -0.365038
vn -0.320542 -0.928980 -0.185065
vn -0.365038 -0.906824 -0.210755
vn -0.370130 -0.928980 0.000000
vn -0.421510 -0.906824 0.000000
vn -0.320542 -0.928980 0.185065
vn -0.365038 -0.906824 0.210755
vn -0.185065 -0.928980 0.320542
vn -0.210755 -0.906824 0.365038
vn 0.000000 -0.928980 0.370130
vn 0.000000 -0.906824 0.421510
vn 0.185065 -0.928980 0.320542
vn 0.210755 -0.906824 0.365038
vn 0.320542 -0.928980 0.185065
vn 0.365038 -0.906824 0.210755
vn 0.370130 -0.928980 0.000000
vn 0.421510 -0.906824 0.000000
vn 0.000000 -1.000000 -0.000000
f 1/1/1 2/2/2 14/15/3 13/14/4
f 2/2/2 3/3/5 15/16/6 14/15/3
f 3/3/5 4/4/7 16/17/8 15/16/6
f 4/4/7 5/5/9 17/18/10 16/17/8
f 5/5/9 6/6/11 18/19/12 17/18/10
f 6/6/11 7/7/13 19/20/14 18/19/12
f 7/7/13 8/8/15 20/21/16 19/20/14
f 8/8/15 9/9/17 21/22/18 20/21/16
f 9/9/17 10/10/19 22/23/20 21/22/18
f 10/10/19 11/11/21 23/24/22 22/23/20
f 11/11/21 12/12/23 24/25/24 23/24/22
f 12/12/23 1/13/1 13/26/4 24/25/24
f 2/2/2 1/1/1 25/27/25
f 3/3/5 2/2/2 25/28/25
f 4/4/7 3/3/5 25/29/25
f 5/5/9 4/4/7 25/30/25
f 6/6/11 5/5/9 25/31/25
f 7/7/13 6/6/11 25/32/25
f 8/8/15 7/7/13 25/33/25
f 9/9/17 8/8/15 25/34/25
f 10/10/19 9/9/17 25/35/25
f 11/11/21 10/10/19 25/36/25
f 12/12/23 11/11/21 25/37/25
f 1/13/1 12/12/23 25/38/25
