# This file uses meters as units for non-parametric coordinates.

v 0.000000 -17.199650 -3.736261
v 2.641935 -17.199650 -2.641935
v -2.641935 -17.199650 -2.641935
v -3.736261 -17.199650 0.000000
v -2.641935 -17.199650 2.641935
v 0.000000 -17.199650 3.736262
v 2.641935 -17.199650 2.641935
v 3.736262 -17.199650 0.000000
v 1.756400 -17.869033 -1.756399
v 0.000000 -17.869033 -2.483924
v 0.000000 -18.648261 0.000000
v -1.756399 -17.869033 -1.756399
v -2.483924 -17.869033 0.000000
v -1.756399 -17.869033 1.756400
v 0.000000 -17.869033 2.483924
v 1.756400 -17.869033 1.756400
v 2.483924 -17.869033 0.000000
vt 0.466325 0.203841
vt 0.477482 0.208462
vt 0.466325 0.218988
vt 0.455169 0.208462
vt 0.450547 0.219619
vt 0.455169 0.230776
vt 0.466325 0.235397
vt 0.477482 0.230776
vt 0.482104 0.219619
vt 0.466325 0.203841
vt 0.477482 0.208462
vt 0.455169 0.208462
vt 0.450547 0.219619
vt 0.455169 0.230776
vt 0.466325 0.235397
vt 0.477482 0.230776
vt 0.482104 0.219619
vn 0.000000 -0.908106 -0.418739
vn 0.296093 -0.908106 -0.296093
vn -0.000000 -1.000000 0.000000
vn -0.296093 -0.908106 -0.296093
vn -0.418739 -0.908107 -0.000000
vn -0.296093 -0.908107 0.296093
vn -0.000000 -0.908107 0.418739
vn 0.296093 -0.908106 0.296093
vn 0.418739 -0.908107 0.000000
vn -0.000000 -0.881922 -0.471394
vn 0.333326 -0.881923 -0.333326
vn -0.333326 -0.881922 -0.333326
vn -0.471394 -0.881923 -0.000000
vn -0.333326 -0.881922 0.333326
vn -0.000000 -0.881922 0.471394
vn 0.333326 -0.881923 0.333326
vn 0.471394 -0.881923 0.000000
f 10/10/1 9/11/2 11/3/3
f 12/12/4 10/10/1 11/3/3
f 13/13/5 12/12/4 11/3/3
f 14/14/6 13/13/5 11/3/3
f 15/15/7 14/14/6 11/3/3
f 16/16/8 15/15/7 11/3/3
f 17/17/9 16/16/8 11/3/3
f 9/11/2 17/17/9 11/3/3
f 1/1/10 2/2/11 9/11/2 10/10/1
f 3/4/12 1/1/10 10/10/1 12/12/4
f 4/5/13 3/4/12 12/12/4 13/13/5
f 5/6/14 4/5/13 13/13/5 14/14/6
f 6/7/15 5/6/14 14/14/6 15/15/7
f 7/8/16 6/7/15 15/15/7 16/16/8
f 8/9/17 7/8/16 16/16/8 17/17/9
f 2/2/11 8/9/17 17/17/9 9/11/2
