# This file uses meters as units for non-parametric coordinates.

v 0.000000 0.000000 0.668023
v 23.046346 7.488212 0.668023
v 19.604394 14.243421 0.668023
v 14.243424 19.604394 0.668023
v 7.488210 23.046344 0.668023
v -0.000000 24.232358 0.668023
v -7.488211 23.046342 0.668023
v -14.243424 19.604389 0.668023
v -19.604387 14.243420 0.668023
v -23.046335 7.488209 0.668023
v -24.232354 0.000001 0.668023
v -23.046335 -7.488208 0.668023
v -19.604385 -14.243418 0.668023
v -14.243420 -19.604383 0.668023
v -7.488209 -23.046333 0.668023
v -0.000001 -24.232350 0.668023
v 7.488206 -23.046331 0.668023
v 14.243418 -19.604380 0.668023
v 19.604380 -14.243412 0.668023
v 23.046329 -7.488207 0.668023
v 24.232348 0.000001 0.668023
vt 0.527012 0.550698
vt 0.538878 0.571303
vt 0.606461 0.524899
vt 0.557359 0.587656
vt 0.580647 0.598156
vt 0.606461 0.601774
vt 0.580508 0.598156
vt 0.557094 0.587656
vt 0.538514 0.571303
vt 0.526584 0.550698
vt 0.522473 0.527856
vt 0.526584 0.546384
vt 0.538514 0.568647
vt 0.557094 0.586315
vt 0.580508 0.597659
vt 0.606461 0.601568
vt 0.580647 0.597659
vt 0.557359 0.586315
vt 0.538878 0.568647
vt 0.527012 0.546384
vt 0.522924 0.527856
vn 0.000000 0.000000 1.000000
vn 0.000000 0.000000 1.000000
vn 0.000000 -0.000000 1.000000
vn 0.000000 -0.000000 1.000000
vn 0.000000 -0.000000 1.000000
vn 0.000000 0.000000 1.000000
vn 0.000000 -0.000000 1.000000
vn 0.000000 0.000000 1.000000
vn 0.000000 0.000000 1.000000
vn 0.000000 0.000000 1.000000
vn 0.000000 0.000000 1.000000
vn 0.000000 -0.000000 1.000000
vn 0.000000 0.000000 1.000000
vn 0.000000 0.000000 1.000000
vn 0.000000 -0.000000 1.000000
vn 0.000000 -0.000000 1.000000
vn 0.000000 0.000000 1.000000
vn 0.000000 -0.000000 1.000000
vn 0.000000 -0.000000 1.000000
vn 0.000000 -0.000000 1.000000
vn 0.000000 -0.000000 1.000000
f 2/1/1 3/2/2 1/3/3
f 3/2/2 4/4/4 1/3/3
f 4/4/4 5/5/5 1/3/3
f 5/5/5 6/6/6 1/3/3
f 6/6/6 7/7/7 1/3/3
f 7/7/7 8/8/8 1/3/3
f 8/8/8 9/9/9 1/3/3
f 9/9/9 10/10/10 1/3/3
f 10/10/10 11/11/11 1/3/3
f 11/11/11 12/12/12 1/3/3
f 12/12/12 13/13/13 1/3/3
f 13/13/13 14/14/14 1/3/3
f 14/14/14 15/15/15 1/3/3
f 15/15/15 16/16/16 1/3/3
f 16/16/16 17/17/17 1/3/3
f 17/17/17 18/18/18 1/3/3
f 18/18/18 19/19/19 1/3/3
f 19/19/19 20/20/20 1/3/3
f 20/20/20 21/21/21 1/3/3
f 21/21/21 2/1/1 1/3/3
