# This file uses meters as units for non-parametric coordinates.

v 27.142253 8.819052 -0.000000
v 23.088581 16.774834 -0.000000
v 16.774834 23.088578 -0.000000
v 8.819051 27.142250 -0.000000
v 0.000000 28.539048 -0.000000
v -8.819051 27.142248 -0.000000
v -16.774830 23.088574 -0.000000
v -23.088572 16.774829 -0.000000
v -27.142242 8.819049 -0.000000
v -28.539042 -0.000000 0.000000
v -27.142242 -8.819049 0.000000
v -23.088570 -16.774829 0.000000
v -16.774829 -23.088567 0.000000
v -8.819049 -27.142240 0.000000
v -0.000001 -28.539039 0.000000
v 8.819046 -27.142237 0.000000
v 16.774824 -23.088565 0.000000
v 23.088565 -16.774826 0.000000
v 27.142235 -8.819047 0.000000
v 28.539035 -0.000000 0.000000
v 23.046346 7.488212 3.117745
v 19.604394 14.243421 3.117745
v 14.243424 19.604394 3.117745
v 7.488210 23.046344 3.117745
v -0.000000 24.232358 3.117745
v -7.488211 23.046342 3.117745
v -14.243424 19.604389 3.117745
v -19.604387 14.243420 3.117745
v -23.046335 7.488209 3.117745
v -24.232354 0.000001 3.117745
v -23.046335 -7.488208 3.117745
v -19.604385 -14.243418 3.117745
v -14.243420 -19.604383 3.117745
v -7.488209 -23.046333 3.117745
v -0.000001 -24.232350 3.117745
v 7.488206 -23.046331 3.117745
v 14.243418 -19.604380 3.117745
v 19.604380 -14.243412 3.117745
v 23.046329 -7.488207 3.117745
v 24.232348 0.000001 3.117745
v 0.000000 -0.000000 0.000000
v 8.819051 27.142250 1.640800
v 16.774834 23.088578 1.640800
v 23.088581 16.774834 1.640800
v 27.142253 8.819052 1.640800
v 28.539035 0.000000 1.640800
v 27.142235 -8.819047 1.640800
v 23.088565 -16.774826 1.640800
v 16.774824 -23.088565 1.640800
v 8.819046 -27.142237 1.640800
v -0.000001 -28.539039 1.640800
v -8.819049 -27.142240 1.640800
v -16.774829 -23.088567 1.640800
v -23.088570 -16.774829 1.640800
v -27.142242 -8.819049 1.640800
v -28.539042 0.000000 1.640800
v -27.142242 8.819049 1.640800
v -23.088572 16.774829 1.640800
v -16.774830 23.088574 1.640800
v -8.819051 27.142248 1.640800
v 0.000000 28.539048 1.640800
v 23.046346 7.488212 0.668023
v 19.604394 14.243421 0.668023
v 14.243424 19.604394 0.668023
v 7.488210 23.046344 0.668023
v -0.000000 24.232358 0.668023
v -7.488211 23.046342 0.668023
v -14.243424 19.604389 0.668023
v -19.604387 14.243420 0.668023
v -23.046335 7.488209 0.668023
v -24.232354 0.000001 0.668023
v -23.046335 -7.488208 0.668023
v -19.604385 -14.243418 0.668023
v -14.243420 -19.604383 0.668023
v -7.488209 -23.046333 0.668023
v -0.000001 -24.232350 0.668023
v 7.488206 -23.046331 0.668023
v 14.243418 -19.604380 0.668023
v 19.604380 -14.243412 0.668023
v 23.046329 -7.488207 0.668023
v 24.232348 0.000001 0.668023
vt 0.509575 0.009798
vt 0.609600 0.009798
vt 0.609600 0.055700
vt 0.509575 0.055700
vt 0.509575 0.009798
vt 0.509575 0.055700
vt 0.609600 0.009798
vt 0.609600 0.055700
vt 0.509575 0.009798
vt 0.509575 0.055700
vt 0.609600 0.009798
vt 0.609600 0.055700
vt 0.509575 0.009798
vt 0.509575 0.055700
vt 0.609600 0.009798
vt 0.609600 0.055700
vt 0.509575 0.009798
vt 0.509575 0.055700
vt 0.609600 0.009798
vt 0.609600 0.055700
vt 0.509575 0.009798
vt 0.509575 0.055700
vt 0.609600 0.009798
vt 0.609600 0.055700
vt 0.509575 0.009798
vt 0.509575 0.055700
vt 0.609600 0.009798
vt 0.609600 0.055700
vt 0.509575 0.009798
vt 0.509575 0.055700
vt 0.609600 0.009798
vt 0.609600 0.055700
vt 0.509575 0.009798
vt 0.509575 0.055700
vt 0.609600 0.009798
vt 0.609600 0.055700
vt 0.509575 0.009798
vt 0.509575 0.055700
vt 0.609600 0.009798
vt 0.609600 0.055700
vt 0.509575 0.009798
vt 0.509575 0.055700
vt 0.537258 0.036873
vt 0.530877 0.023164
vt 0.573599 0.009933
vt 0.547196 0.047753
vt 0.559718 0.054738
vt 0.573599 0.057145
vt 0.559439 0.054738
vt 0.546666 0.047753
vt 0.536529 0.036873
vt 0.530020 0.023164
vt 0.527778 0.011766
vt 0.530020 0.025926
vt 0.536529 0.038699
vt 0.546666 0.048836
vt 0.559439 0.055345
vt 0.573599 0.057587
vt 0.559718 0.055345
vt 0.547196 0.048836
vt 0.537258 0.038699
vt 0.530877 0.025926
vt 0.528679 0.011766
vt 0.609600 0.009798
vt 0.509575 0.009798
vt 0.609600 0.009798
vt 0.509575 0.009798
vt 0.509575 0.009798
vt 0.609600 0.009798
vt 0.509575 0.009798
vt 0.609600 0.009798
vt 0.509575 0.009798
vt 0.609600 0.009798
vt 0.509575 0.009798
vt 0.609600 0.009798
vt 0.509575 0.009798
vt 0.609600 0.009798
vt 0.509575 0.009798
vt 0.609600 0.009798
vt 0.509575 0.009798
vt 0.609600 0.009798
vt 0.509575 0.009798
vt 0.609600 0.009798
vt 0.509575 0.009798
vt 0.586240 0.021364
vt 0.537355 0.021086
vt 0.541736 0.049798
vt 0.581534 0.050024
vt 0.586240 0.021364
vt 0.581534 0.050024
vt 0.537355 0.021086
vt 0.541736 0.049798
vt 0.586240 0.021364
vt 0.581534 0.050024
vt 0.537355 0.021086
vt 0.541736 0.049798
vt 0.586240 0.021364
vt 0.581534 0.050024
vt 0.537355 0.021086
vt 0.541736 0.049798
vt 0.586240 0.021364
vt 0.581534 0.050024
vt 0.537355 0.021086
vt 0.541736 0.049798
vt 0.586240 0.021364
vt 0.581534 0.050024
vt 0.537355 0.021086
vt 0.541736 0.049798
vt 0.586240 0.021364
vt 0.581534 0.050024
vt 0.537355 0.021086
vt 0.541736 0.049798
vt 0.586240 0.021364
vt 0.581534 0.050024
vt 0.537355 0.021086
vt 0.541736 0.049798
vt 0.586240 0.021364
vt 0.581534 0.050024
vt 0.537355 0.021086
vt 0.541736 0.049798
vt 0.586240 0.021364
vt 0.581534 0.050024
vt 0.537355 0.021086
vt 0.541736 0.049798
vn 0.951057 0.309016 -0.000000
vn 0.809017 0.587785 -0.000000
vn 0.809017 0.587785 -0.000000
vn 0.951057 0.309016 -0.000000
vn 0.587785 0.809017 -0.000000
vn 0.587785 0.809017 -0.000000
vn 0.309017 0.951056 -0.000000
vn 0.309017 0.951056 -0.000000
vn -0.000000 1.000000 -0.000000
vn -0.000000 1.000000 -0.000000
vn -0.309017 0.951057 -0.000000
vn -0.309017 0.951057 -0.000000
vn -0.587785 0.809017 -0.000000
vn -0.587785 0.809017 -0.000000
vn -0.809017 0.587785 -0.000000
vn -0.809017 0.587785 -0.000000
vn -0.951056 0.309017 -0.000000
vn -0.951056 0.309017 -0.000000
vn -1.000000 0.000000 0.000000
vn -1.000000 0.000000 0.000000
vn -0.951057 -0.309017 0.000000
vn -0.951057 -0.309017 0.000000
vn -0.809017 -0.587785 0.000000
vn -0.809017 -0.587785 0.000000
vn -0.587785 -0.809017 0.000000
vn -0.587785 -0.809017 0.000000
vn -0.309017 -0.951057 0.000000
vn -0.309017 -0.951057 0.000000
vn 0.000000 -1.000000 0.000000
vn 0.000000 -1.000000 0.000000
vn 0.309017 -0.951056 0.000000
vn 0.309017 -0.951056 0.000000
vn 0.587785 -0.809017 0.000000
vn 0.587785 -0.809017 0.000000
vn 0.809017 -0.587785 0.000000
vn 0.809017 -0.587785 0.000000
vn 0.951057 -0.309017 0.000000
vn 0.951057 -0.309017 0.000000
vn 1.000000 -0.000001 -0.000000
vn 1.000000 -0.000001 -0.000000
vn 0.000000 -0.000000 -1.000000
vn 0.000000 -0.000000 -1.000000
vn 0.000000 -0.000000 -1.000000
vn 0.000000 -0.000000 -1.000000
vn 0.000000 -0.000000 -1.000000
vn 0.000000 -0.000000 -1.000000
vn 0.000000 -0.000000 -1.000000
vn 0.000000 -0.000000 -1.000000
vn 0.000000 -0.000000 -1.000000
vn 0.000000 -0.000000 -1.000000
vn 0.000000 -0.000000 -1.000000
vn 0.000000 -0.000000 -1.000000
vn 0.000000 -0.000000 -1.000000
vn 0.000000 -0.000000 -1.000000
vn 0.000000 -0.000000 -1.000000
vn 0.000000 -0.000000 -1.000000
vn 0.000000 -0.000000 -1.000000
vn 0.000000 -0.000000 -1.000000
vn 0.000000 -0.000000 -1.000000
vn 0.000000 -0.000000 -1.000000
vn 0.000000 -0.000000 -1.000000
vn 0.190675 0.262442 0.945921
vn 0.100244 0.308519 0.945921
vn 0.100244 0.308519 0.945921
vn 0.190675 0.262442 0.945921
vn 0.262442 0.190675 0.945921
vn 0.262442 0.190675 0.945921
vn 0.308519 0.100244 0.945921
vn 0.308519 0.100243 0.945921
vn 0.324396 -0.000000 0.945921
vn 0.324396 -0.000000 0.945921
vn 0.308519 -0.100244 0.945921
vn 0.308519 -0.100244 0.945921
vn 0.262442 -0.190675 0.945921
vn 0.262442 -0.190675 0.945921
vn 0.190675 -0.262442 0.945921
vn 0.190675 -0.262442 0.945921
vn 0.100244 -0.308519 0.945921
vn 0.100244 -0.308519 0.945921
vn 0.000000 -0.324396 0.945921
vn 0.000000 -0.324396 0.945921
vn -0.100244 -0.308519 0.945921
vn -0.100244 -0.308519 0.945921
vn -0.190675 -0.262442 0.945921
vn -0.190675 -0.262442 0.945921
vn -0.262442 -0.190675 0.945921
vn -0.262442 -0.190675 0.945921
vn -0.308519 -0.100244 0.945921
vn -0.308519 -0.100244 0.945921
vn -0.324396 0.000000 0.945921
vn -0.324396 0.000000 0.945921
vn -0.308519 0.100244 0.945921
vn -0.308519 0.100244 0.945921
vn -0.262442 0.190675 0.945921
vn -0.262442 0.190675 0.945921
vn -0.190675 0.262442 0.945921
vn -0.190675 0.262442 0.945921
vn -0.100244 0.308519 0.945921
vn -0.100244 0.308519 0.945921
vn -0.000000 0.324396 0.945921
vn -0.000000 0.324396 0.945921
vn -0.951057 -0.309016 0.000000
vn -0.809017 -0.587785 0.000000
vn -0.809017 -0.587785 0.000000
vn -0.951057 -0.309016 0.000000
vn -0.587785 -0.809017 0.000000
vn -0.587785 -0.809017 0.000000
vn -0.309017 -0.951057 0.000000
vn -0.309017 -0.951057 0.000000
vn 0.000000 -1.000000 0.000000
vn 0.000000 -1.000000 0.000000
vn 0.309017 -0.951057 0.000000
vn 0.309017 -0.951057 0.000000
vn 0.587785 -0.809017 0.000000
vn 0.587785 -0.809017 0.000000
vn 0.809017 -0.587785 0.000000
vn 0.809017 -0.587785 0.000000
vn 0.951057 -0.309017 0.000000
vn 0.951057 -0.309017 0.000000
vn 1.000000 0.000000 0.000000
vn 1.000000 0.000000 0.000000
vn 0.951056 0.309017 -0.000000
vn 0.951056 0.309017 -0.000000
vn 0.809017 0.587785 -0.000000
vn 0.809017 0.587785 -0.000000
vn 0.587785 0.809017 -0.000000
vn 0.587785 0.809017 -0.000000
vn 0.309017 0.951057 -0.000000
vn 0.309017 0.951057 -0.000000
vn -0.000000 1.000000 -0.000000
vn -0.000000 1.000000 -0.000000
vn -0.309017 0.951056 -0.000000
vn -0.309017 0.951056 -0.000000
vn -0.587785 0.809017 -0.000000
vn -0.587785 0.809017 -0.000000
vn -0.809017 0.587785 -0.000000
vn -0.809017 0.587785 -0.000000
vn -0.951057 0.309017 -0.000000
vn -0.951057 0.309017 -0.000000
vn -1.000000 0.000001 -0.000000
vn -1.000000 0.000001 -0.000000
f 1/1/1 2/2/2 44/3/3 45/4/4
f 2/2/2 3/5/5 43/6/6 44/3/3
f 3/5/5 4/7/7 42/8/8 43/6/6
f 4/7/7 5/9/9 61/10/10 42/8/8
f 5/9/9 6/11/11 60/12/12 61/10/10
f 6/11/11 7/13/13 59/14/14 60/12/12
f 7/13/13 8/15/15 58/16/16 59/14/14
f 8/15/15 9/17/17 57/18/18 58/16/16
f 9/17/17 10/19/19 56/20/20 57/18/18
f 10/19/19 11/21/21 55/22/22 56/20/20
f 11/21/21 12/23/23 54/24/24 55/22/22
f 12/23/23 13/25/25 53/26/26 54/24/24
f 13/25/25 14/27/27 52/28/28 53/26/26
f 14/27/27 15/29/29 51/30/30 52/28/28
f 15/29/29 16/31/31 50/32/32 51/30/30
f 16/31/31 17/33/33 49/34/34 50/32/32
f 17/33/33 18/35/35 48/36/36 49/34/34
f 18/35/35 19/37/37 47/38/38 48/36/36
f 19/37/37 20/39/39 46/40/40 47/38/38
f 20/39/39 1/41/1 45/42/4 46/40/40
f 2/43/41 1/44/42 41/45/43
f 3/46/44 2/43/41 41/45/43
f 4/47/45 3/46/44 41/45/43
f 5/48/46 4/47/45 41/45/43
f 6/49/47 5/48/46 41/45/43
f 7/50/48 6/49/47 41/45/43
f 8/51/49 7/50/48 41/45/43
f 9/52/50 8/51/49 41/45/43
f 10/53/51 9/52/50 41/45/43
f 11/54/52 10/53/51 41/45/43
f 12/55/53 11/54/52 41/45/43
f 13/56/54 12/55/53 41/45/43
f 14/57/55 13/56/54 41/45/43
f 15/58/56 14/57/55 41/45/43
f 16/59/57 15/58/56 41/45/43
f 17/60/58 16/59/57 41/45/43
f 18/61/59 17/60/58 41/45/43
f 19/62/60 18/61/59 41/45/43
f 20/63/61 19/62/60 41/45/43
f 1/44/42 20/63/61 41/45/43
f 43/6/62 42/8/63 24/64/64 23/65/65
f 44/3/66 43/6/62 23/65/65 22/66/67
f 45/4/68 44/3/66 22/66/67 21/67/69
f 46/40/70 45/42/68 21/68/69 40/69/71
f 47/38/72 46/40/70 40/69/71 39/70/73
f 48/36/74 47/38/72 39/70/73 38/71/75
f 49/34/76 48/36/74 38/71/75 37/72/77
f 50/32/78 49/34/76 37/72/77 36/73/79
f 51/30/80 50/32/78 36/73/79 35/74/81
f 52/28/82 51/30/80 35/74/81 34/75/83
f 53/26/84 52/28/82 34/75/83 33/76/85
f 54/24/86 53/26/84 33/76/85 32/77/87
f 55/22/88 54/24/86 32/77/87 31/78/89
f 56/20/90 55/22/88 31/78/89 30/79/91
f 57/18/92 56/20/90 30/79/91 29/80/93
f 58/16/94 57/18/92 29/80/93 28/81/95
f 59/14/96 58/16/94 28/81/95 27/82/97
f 60/12/98 59/14/96 27/82/97 26/83/99
f 61/10/100 60/12/98 26/83/99 25/84/101
f 42/8/63 61/10/100 25/84/101 24/64/64
f 21/85/102 22/86/103 63/87/104 62/88/105
f 22/86/103 23/89/106 64/90/107 63/87/104
f 23/89/106 24/91/108 65/92/109 64/90/107
f 24/91/108 25/93/110 66/94/111 65/92/109
f 25/93/110 26/95/112 67/96/113 66/94/111
f 26/95/112 27/97/114 68/98/115 67/96/113
f 27/97/114 28/99/116 69/100/117 68/98/115
f 28/99/116 29/101/118 70/102/119 69/100/117
f 29/101/118 30/103/120 71/104/121 70/102/119
f 30/103/120 31/105/122 72/106/123 71/104/121
f 31/105/122 32/107/124 73/108/125 72/106/123
f 32/107/124 33/109/126 74/110/127 73/108/125
f 33/109/126 34/111/128 75/112/129 74/110/127
f 34/111/128 35/113/130 76/114/131 75/112/129
f 35/113/130 36/115/132 77/116/133 76/114/131
f 36/115/132 37/117/134 78/118/135 77/116/133
f 37/117/134 38/119/136 79/120/137 78/118/135
f 38/119/136 39/121/138 80/122/139 79/120/137
f 39/121/138 40/123/140 81/124/141 80/122/139
f 40/123/140 21/85/102 62/88/105 81/124/141
