# This file uses meters as units for non-parametric coordinates.

v -25.637714 -7.064761 9.962277
v -24.255380 -7.064761 9.962277
v -25.637714 -1.111425 9.962277
v -24.255380 -1.111425 9.962277
v -24.946547 -8.176187 9.962277
v -24.946547 -0.000000 9.962277
v -25.637714 1.111425 9.962277
v -24.255380 1.111425 9.962277
v -25.637714 7.064761 9.962277
v -24.255380 7.064761 9.962277
v -24.946547 -0.000000 9.962277
v -24.946547 8.176187 9.962277
v -17.881785 -0.691167 9.962277
v -17.881785 0.691166 9.962277
v -23.835122 -0.691167 9.962277
v -23.835122 0.691166 9.962277
v -16.770360 -0.000000 9.962277
v -24.946547 -0.000000 9.962277
v -17.461527 -7.064761 9.962277
v -16.079194 -7.064761 9.962277
v -17.461527 -1.111425 9.962277
v -16.079194 -1.111425 9.962277
v -16.770360 -8.176187 9.962277
v -16.770360 -0.000000 9.962277
v -17.881785 -8.867354 9.962277
v -17.881785 -7.485021 9.962277
v -23.835122 -8.867354 9.962277
v -23.835122 -7.485021 9.962277
v -16.770360 -8.176187 9.962277
v -24.946547 -8.176187 9.962277
v -17.881785 7.485019 9.962277
v -17.881785 8.867353 9.962277
v -23.835122 7.485019 9.962277
v -23.835122 8.867353 9.962277
v -16.770360 8.176187 9.962277
v -24.946547 8.176187 9.962277
v -17.461527 1.111425 9.962277
v -16.079194 1.111425 9.962277
v -17.461527 7.064761 9.962277
v -16.079194 7.064761 9.962277
v -16.770360 -0.000000 9.962277
v -16.770360 8.176187 9.962277
v -12.742060 -7.064761 9.962277
v -11.359727 -7.064761 9.962277
v -12.742060 -1.111425 9.962277
v -11.359727 -1.111425 9.962277
v -12.050893 -8.176187 9.962277
v -12.050893 0.000000 9.962277
v -12.742060 1.111425 9.962277
v -11.359727 1.111425 9.962277
v -12.742060 7.064761 9.962277
v -11.359727 7.064761 9.962277
v -12.050893 0.000000 9.962277
v -12.050893 8.176187 9.962277
v -4.986132 -0.691167 9.962277
v -4.986132 0.691167 9.962277
v -10.939468 -0.691167 9.962277
v -10.939468 0.691167 9.962277
v -3.874709 0.000000 9.962277
v -12.050893 0.000000 9.962277
v -4.565873 -7.064761 9.962277
v -3.183540 -7.064761 9.962277
v -4.565873 -1.111425 9.962277
v -3.183540 -1.111425 9.962277
v -3.874709 -8.176187 9.962277
v -3.874709 0.000000 9.962277
v -4.986132 -8.867353 9.962277
v -4.986132 -7.485019 9.962277
v -10.939468 -8.867353 9.962277
v -10.939468 -7.485019 9.962277
v -3.874709 -8.176187 9.962277
v -12.050893 -8.176187 9.962277
v -4.986132 7.485021 9.962277
v -4.986132 8.867354 9.962277
v -10.939468 7.485021 9.962277
v -10.939468 8.867354 9.962277
v -3.874709 8.176187 9.962277
v -12.050893 8.176187 9.962277
v -4.565873 1.111425 9.962277
v -3.183540 1.111425 9.962277
v -4.565873 7.064761 9.962277
v -3.183540 7.064761 9.962277
v -3.874709 0.000000 9.962277
v -3.874709 8.176187 9.962277
v 3.183541 -7.064761 9.962277
v 4.565872 -7.064761 9.962277
v 3.183541 -1.111425 9.962277
v 4.565872 -1.111425 9.962277
v 3.874707 -8.176187 9.962277
v 3.874707 -0.000000 9.962277
v 3.183541 1.111425 9.962277
v 4.565872 1.111425 9.962277
v 3.183541 7.064761 9.962277
v 4.565872 7.064761 9.962277
v 3.874707 -0.000000 9.962277
v 3.874707 8.176187 9.962277
v 10.939470 -0.691167 9.962277
v 10.939470 0.691166 9.962277
v 4.986132 -0.691167 9.962277
v 4.986132 0.691166 9.962277
v 12.050890 -0.000000 9.962277
v 3.874707 -0.000000 9.962277
v 11.359727 -7.064761 9.962277
v 12.742061 -7.064761 9.962277
v 11.359727 -1.111425 9.962277
v 12.742061 -1.111425 9.962277
v 12.050890 -8.176187 9.962277
v 12.050890 -0.000000 9.962277
v 10.939470 -8.867354 9.962277
v 10.939470 -7.485021 9.962277
v 4.986132 -8.867354 9.962277
v 4.986132 -7.485021 9.962277
v 12.050890 -8.176187 9.962277
v 3.874707 -8.176187 9.962277
v 10.939470 7.485019 9.962277
v 10.939470 8.867353 9.962277
v 4.986132 7.485019 9.962277
v 4.986132 8.867353 9.962277
v 12.050890 8.176187 9.962277
v 3.874707 8.176187 9.962277
v 11.359727 1.111425 9.962277
v 12.742061 1.111425 9.962277
v 11.359727 7.064761 9.962277
v 12.742061 7.064761 9.962277
v 12.050890 -0.000000 9.962277
v 12.050890 8.176187 9.962277
v 16.079194 -7.064761 9.962277
v 17.461525 -7.064761 9.962277
v 16.079194 -1.111425 9.962277
v 17.461525 -1.111425 9.962277
v 16.770362 -8.176187 9.962277
v 16.770362 0.000000 9.962277
v 16.079194 1.111425 9.962277
v 17.461525 1.111425 9.962277
v 16.079194 7.064761 9.962277
v 17.461525 7.064761 9.962277
v 16.770362 0.000000 9.962277
v 16.770362 8.176187 9.962277
v 23.835120 -0.691167 9.962277
v 23.835120 0.691167 9.962277
v 17.881785 -0.691167 9.962277
v 17.881785 0.691167 9.962277
v 24.946548 0.000000 9.962277
v 16.770362 0.000000 9.962277
v 24.255378 -7.064761 9.962277
v 25.637714 -7.064761 9.962277
v 24.255378 -1.111425 9.962277
v 25.637714 -1.111425 9.962277
v 24.946548 -8.176187 9.962277
v 24.946548 0.000000 9.962277
v 23.835120 -8.867353 9.962277
v 23.835120 -7.485019 9.962277
v 17.881785 -8.867353 9.962277
v 17.881785 -7.485019 9.962277
v 24.946548 -8.176187 9.962277
v 16.770362 -8.176187 9.962277
v 23.835120 7.485021 9.962277
v 23.835120 8.867354 9.962277
v 17.881785 7.485021 9.962277
v 17.881785 8.867354 9.962277
v 24.946548 8.176187 9.962277
v 16.770362 8.176187 9.962277
v 24.255378 1.111425 9.962277
v 25.637714 1.111425 9.962277
v 24.255378 7.064761 9.962277
v 25.637714 7.064761 9.962277
v 24.946548 0.000000 9.962277
v 24.946548 8.176187 9.962277
v -1.073000 -1.850170 9.962277
v 0.882093 -1.850170 9.962277
v -0.095453 -2.947723 9.962277
v -0.095453 -0.752616 9.962277
v -1.073000 1.855112 9.962277
v 0.882093 1.855112 9.962277
v -0.095453 0.757559 9.962277
v -0.095453 2.952665 9.962277
vt 0.432022 0.698681
vt 0.427180 0.698681
vt 0.432022 0.693766
vt 0.427180 0.693766
vt 0.429601 0.697366
vt 0.429601 0.695080
vt 0.432022 0.698681
vt 0.427180 0.698681
vt 0.427180 0.693766
vt 0.432022 0.693766
vt 0.429601 0.695080
vt 0.429601 0.697366
vt 0.432022 0.698681
vt 0.427180 0.698681
vt 0.427180 0.693766
vt 0.432022 0.693766
vt 0.429601 0.695080
vt 0.429601 0.697366
vt 0.432022 0.698681
vt 0.427180 0.698681
vt 0.427180 0.693766
vt 0.432022 0.693766
vt 0.429601 0.695080
vt 0.429601 0.697366
vt 0.432022 0.698681
vt 0.427180 0.698681
vt 0.427180 0.693766
vt 0.432022 0.693766
vt 0.429601 0.695080
vt 0.429601 0.697366
vt 0.432022 0.698681
vt 0.427180 0.698681
vt 0.427180 0.693766
vt 0.432022 0.693766
vt 0.429601 0.695080
vt 0.429601 0.697366
vt 0.432022 0.698681
vt 0.427180 0.698681
vt 0.427180 0.693766
vt 0.432022 0.693766
vt 0.429601 0.695080
vt 0.429601 0.697366
vt 0.432022 0.698681
vt 0.427180 0.698681
vt 0.427180 0.693766
vt 0.432022 0.693766
vt 0.429601 0.695080
vt 0.429601 0.697366
vt 0.432022 0.698681
vt 0.427180 0.698681
vt 0.427180 0.693766
vt 0.432022 0.693766
vt 0.429601 0.695080
vt 0.429601 0.697366
vt 0.432022 0.698681
vt 0.427180 0.698681
vt 0.427180 0.693766
vt 0.432022 0.693766
vt 0.429601 0.695080
vt 0.429601 0.697366
vt 0.432022 0.698681
vt 0.427180 0.698681
vt 0.427180 0.693766
vt 0.432022 0.693766
vt 0.429601 0.695080
vt 0.429601 0.697366
vt 0.432022 0.698681
vt 0.427180 0.698681
vt 0.427180 0.693766
vt 0.432022 0.693766
vt 0.429601 0.695080
vt 0.429601 0.697366
vt 0.432022 0.698681
vt 0.427180 0.698681
vt 0.427180 0.693766
vt 0.432022 0.693766
vt 0.429601 0.695080
vt 0.429601 0.697366
vt 0.432022 0.698681
vt 0.427180 0.698681
vt 0.427180 0.693766
vt 0.432022 0.693766
vt 0.429601 0.695080
vt 0.429601 0.697366
vt 0.432022 0.698681
vt 0.427180 0.698681
vt 0.427180 0.693766
vt 0.432022 0.693766
vt 0.429601 0.695080
vt 0.429601 0.697366
vt 0.432022 0.698681
vt 0.427180 0.698681
vt 0.427180 0.693766
vt 0.432022 0.693766
vt 0.429601 0.695080
vt 0.429601 0.697366
vt 0.432022 0.698681
vt 0.427180 0.698681
vt 0.427180 0.693766
vt 0.432022 0.693766
vt 0.429601 0.695080
vt 0.429601 0.697366
vt 0.432022 0.698681
vt 0.427180 0.698681
vt 0.427180 0.693766
vt 0.432022 0.693766
vt 0.429601 0.695080
vt 0.429601 0.697366
vt 0.432022 0.698681
vt 0.427180 0.698681
vt 0.427180 0.693766
vt 0.432022 0.693766
vt 0.429601 0.695080
vt 0.429601 0.697366
vt 0.432022 0.698681
vt 0.427180 0.698681
vt 0.427180 0.693766
vt 0.432022 0.693766
vt 0.429601 0.695080
vt 0.429601 0.697366
vt 0.432022 0.698681
vt 0.427180 0.698681
vt 0.427180 0.693766
vt 0.432022 0.693766
vt 0.429601 0.695080
vt 0.429601 0.697366
vt 0.432022 0.698681
vt 0.427180 0.698681
vt 0.427180 0.693766
vt 0.432022 0.693766
vt 0.429601 0.695080
vt 0.429601 0.697366
vt 0.432022 0.698681
vt 0.427180 0.698681
vt 0.427180 0.693766
vt 0.432022 0.693766
vt 0.429601 0.695080
vt 0.429601 0.697366
vt 0.432022 0.698681
vt 0.427180 0.698681
vt 0.427180 0.693766
vt 0.432022 0.693766
vt 0.429601 0.695080
vt 0.429601 0.697366
vt 0.432022 0.698681
vt 0.427180 0.698681
vt 0.427180 0.693766
vt 0.432022 0.693766
vt 0.429601 0.695080
vt 0.429601 0.697366
vt 0.432022 0.698681
vt 0.427180 0.698681
vt 0.427180 0.693766
vt 0.432022 0.693766
vt 0.429601 0.695080
vt 0.429601 0.697366
vt 0.432022 0.698681
vt 0.427180 0.698681
vt 0.427180 0.693766
vt 0.432022 0.693766
vt 0.429601 0.695080
vt 0.429601 0.697366
vt 0.432022 0.698681
vt 0.427180 0.698681
vt 0.427180 0.693766
vt 0.432022 0.693766
vt 0.429601 0.695080
vt 0.429601 0.697366
vt 0.427180 0.696223
vt 0.432022 0.696223
vt 0.429601 0.695080
vt 0.429601 0.697366
vt 0.427180 0.696223
vt 0.432022 0.696223
vt 0.429601 0.695080
vt 0.429601 0.697366
vn 0.000000 0.000000 1.000000
vn 0.000000 0.000000 1.000000
vn 0.000000 0.000000 1.000000
vn 0.000000 0.000000 1.000000
vn 0.000000 0.000000 1.000000
vn 0.000000 0.000000 1.000000
vn 0.000000 0.000000 1.000000
vn 0.000000 0.000000 1.000000
vn 0.000000 0.000000 1.000000
vn 0.000000 0.000000 1.000000
vn 0.000000 0.000000 1.000000
vn 0.000000 0.000000 1.000000
vn 0.000000 0.000000 1.000000
vn 0.000000 0.000000 1.000000
vn 0.000000 0.000000 1.000000
vn 0.000000 0.000000 1.000000
vn 0.000000 0.000000 1.000000
vn 0.000000 0.000000 1.000000
vn 0.000000 0.000000 1.000000
vn 0.000000 0.000000 1.000000
vn 0.000000 0.000000 1.000000
vn 0.000000 0.000000 1.000000
vn 0.000000 0.000000 1.000000
vn 0.000000 0.000000 1.000000
vn 0.000000 0.000000 1.000000
vn 0.000000 0.000000 1.000000
vn 0.000000 0.000000 1.000000
vn 0.000000 0.000000 1.000000
vn 0.000000 0.000000 1.000000
vn 0.000000 0.000000 1.000000
vn 0.000000 0.000000 1.000000
vn 0.000000 0.000000 1.000000
vn 0.000000 0.000000 1.000000
vn 0.000000 0.000000 1.000000
vn 0.000000 0.000000 1.000000
vn 0.000000 0.000000 1.000000
vn 0.000000 0.000000 1.000000
vn 0.000000 0.000000 1.000000
vn 0.000000 0.000000 1.000000
vn 0.000000 0.000000 1.000000
vn 0.000000 0.000000 1.000000
vn 0.000000 0.000000 1.000000
vn 0.000000 0.000000 1.000000
vn 0.000000 0.000000 1.000000
vn 0.000000 0.000000 1.000000
vn 0.000000 0.000000 1.000000
vn 0.000000 0.000000 1.000000
vn 0.000000 0.000000 1.000000
vn 0.000000 0.000000 1.000000
vn 0.000000 0.000000 1.000000
vn 0.000000 0.000000 1.000000
vn 0.000000 0.000000 1.000000
vn 0.000000 0.000000 1.000000
vn 0.000000 0.000000 1.000000
vn 0.000000 0.000000 1.000000
vn 0.000000 0.000000 1.000000
vn 0.000000 0.000000 1.000000
vn 0.000000 0.000000 1.000000
vn 0.000000 0.000000 1.000000
vn 0.000000 0.000000 1.000000
vn 0.000000 0.000000 1.000000
vn 0.000000 0.000000 1.000000
vn 0.000000 0.000000 1.000000
vn 0.000000 0.000000 1.000000
vn 0.000000 0.000000 1.000000
vn 0.000000 0.000000 1.000000
vn 0.000000 0.000000 1.000000
vn 0.000000 0.000000 1.000000
vn 0.000000 0.000000 1.000000
vn 0.000000 0.000000 1.000000
vn 0.000000 0.000000 1.000000
vn 0.000000 0.000000 1.000000
vn 0.000000 0.000000 1.000000
vn 0.000000 0.000000 1.000000
vn 0.000000 0.000000 1.000000
vn 0.000000 0.000000 1.000000
vn 0.000000 0.000000 1.000000
vn 0.000000 0.000000 1.000000
vn 0.000000 0.000000 1.000000
vn 0.000000 0.000000 1.000000
vn 0.000000 0.000000 1.000000
vn 0.000000 0.000000 1.000000
vn 0.000000 0.000000 1.000000
vn 0.000000 0.000000 1.000000
vn 0.000000 0.000000 1.000000
vn 0.000000 0.000000 1.000000
vn 0.000000 0.000000 1.000000
vn 0.000000 0.000000 1.000000
vn 0.000000 0.000000 1.000000
vn 0.000000 0.000000 1.000000
vn 0.000000 0.000000 1.000000
vn 0.000000 0.000000 1.000000
vn 0.000000 0.000000 1.000000
vn 0.000000 0.000000 1.000000
vn 0.000000 0.000000 1.000000
vn 0.000000 0.000000 1.000000
vn 0.000000 0.000000 1.000000
vn 0.000000 0.000000 1.000000
vn 0.000000 0.000000 1.000000
vn 0.000000 0.000000 1.000000
vn 0.000000 0.000000 1.000000
vn 0.000000 0.000000 1.000000
vn 0.000000 0.000000 1.000000
vn 0.000000 0.000000 1.000000
vn 0.000000 0.000000 1.000000
vn 0.000000 0.000000 1.000000
vn 0.000000 0.000000 1.000000
vn 0.000000 0.000000 1.000000
vn 0.000000 0.000000 1.000000
vn 0.000000 0.000000 1.000000
vn 0.000000 0.000000 1.000000
vn 0.000000 0.000000 1.000000
vn 0.000000 0.000000 1.000000
vn 0.000000 0.000000 1.000000
vn 0.000000 0.000000 1.000000
vn 0.000000 0.000000 1.000000
vn 0.000000 0.000000 1.000000
vn 0.000000 0.000000 1.000000
vn 0.000000 0.000000 1.000000
vn 0.000000 0.000000 1.000000
vn 0.000000 0.000000 1.000000
vn 0.000000 0.000000 1.000000
vn 0.000000 0.000000 1.000000
vn 0.000000 0.000000 1.000000
vn 0.000000 0.000000 1.000000
vn 0.000000 0.000000 1.000000
vn 0.000000 0.000000 1.000000
vn 0.000000 0.000000 1.000000
vn 0.000000 0.000000 1.000000
vn 0.000000 0.000000 1.000000
vn 0.000000 0.000000 1.000000
vn 0.000000 0.000000 1.000000
vn 0.000000 0.000000 1.000000
vn 0.000000 0.000000 1.000000
vn 0.000000 0.000000 1.000000
vn 0.000000 0.000000 1.000000
vn 0.000000 0.000000 1.000000
vn 0.000000 0.000000 1.000000
vn 0.000000 0.000000 1.000000
vn 0.000000 0.000000 1.000000
vn 0.000000 0.000000 1.000000
vn 0.000000 0.000000 1.000000
vn 0.000000 0.000000 1.000000
vn 0.000000 0.000000 1.000000
vn 0.000000 0.000000 1.000000
vn 0.000000 0.000000 1.000000
vn 0.000000 0.000000 1.000000
vn 0.000000 0.000000 1.000000
vn 0.000000 0.000000 1.000000
vn 0.000000 0.000000 1.000000
vn 0.000000 0.000000 1.000000
vn 0.000000 0.000000 1.000000
vn 0.000000 0.000000 1.000000
vn 0.000000 0.000000 1.000000
vn 0.000000 0.000000 1.000000
vn 0.000000 0.000000 1.000000
vn 0.000000 0.000000 1.000000
vn 0.000000 0.000000 1.000000
vn 0.000000 0.000000 1.000000
vn 0.000000 0.000000 1.000000
vn 0.000000 0.000000 1.000000
vn 0.000000 0.000000 1.000000
vn 0.000000 0.000000 1.000000
vn 0.000000 0.000000 1.000000
vn 0.000000 0.000000 1.000000
vn 0.000000 0.000000 1.000000
vn 0.000000 0.000000 1.000000
vn 0.000000 0.000000 1.000000
vn 0.000000 0.000000 1.000000
vn 0.000000 0.000000 1.000000
vn 0.000000 0.000000 1.000000
vn 0.000000 0.000000 1.000000
vn 0.000000 0.000000 1.000000
vn 0.000000 0.000000 1.000000
vn 0.000000 0.000000 1.000000
vn 0.000000 0.000000 1.000000
vn 0.000000 0.000000 1.000000
vn 0.000000 0.000000 1.000000
vn 0.000000 0.000000 1.000000
vn 0.000000 0.000000 1.000000
vn 0.000000 0.000000 1.000000
vn 0.000000 0.000000 1.000000
vn 0.000000 0.000000 1.000000
vn 0.000000 0.000000 1.000000
vn 0.000000 0.000000 1.000000
vn 0.000000 0.000000 1.000000
vn 0.000000 0.000000 1.000000
vn 0.000000 0.000000 1.000000
vn 0.000000 0.000000 1.000000
vn 0.000000 0.000000 1.000000
vn 0.000000 0.000000 1.000000
vn 0.000000 0.000000 1.000000
vn 0.000000 0.000000 1.000000
vn 0.000000 0.000000 1.000000
vn 0.000000 0.000000 1.000000
vn 0.000000 0.000000 1.000000
vn 0.000000 0.000000 1.000000
vn 0.000000 0.000000 1.000000
vn 0.000000 0.000000 1.000000
vn 0.000000 0.000000 1.000000
vn 0.000000 0.000000 1.000000
vn 0.000000 0.000000 1.000000
vn 0.000000 0.000000 1.000000
vn 0.000000 0.000000 1.000000
vn 0.000000 0.000000 1.000000
vn 0.000000 0.000000 1.000000
vn 0.000000 0.000000 1.000000
vn 0.000000 0.000000 1.000000
vn 0.000000 0.000000 1.000000
vn 0.000000 0.000000 1.000000
vn 0.000000 0.000000 1.000000
vn 0.000000 0.000000 1.000000
vn 0.000000 0.000000 1.000000
vn 0.000000 0.000000 1.000000
vn 0.000000 0.000000 1.000000
vn 0.000000 0.000000 1.000000
vn 0.000000 0.000000 1.000000
vn 0.000000 0.000000 1.000000
vn 0.000000 0.000000 1.000000
vn 0.000000 0.000000 1.000000
vn 0.000000 0.000000 1.000000
vn 0.000000 0.000000 1.000000
vn 0.000000 0.000000 1.000000
vn 0.000000 0.000000 1.000000
vn 0.000000 0.000000 1.000000
vn 0.000000 0.000000 1.000000
vn 0.000000 0.000000 1.000000
vn 0.000000 0.000000 1.000000
vn 0.000000 0.000000 1.000000
vn 0.000000 0.000000 1.000000
vn 0.000000 0.000000 1.000000
vn 0.000000 0.000000 1.000000
vn 0.000000 0.000000 1.000000
vn 0.000000 0.000000 1.000000
vn 0.000000 0.000000 1.000000
vn 0.000000 0.000000 1.000000
vn 0.000000 0.000000 1.000000
vn 0.000000 0.000000 1.000000
vn 0.000000 0.000000 1.000000
vn 0.000000 0.000000 1.000000
vn 0.000000 0.000000 1.000000
vn 0.000000 0.000000 1.000000
vn 0.000000 0.000000 1.000000
vn 0.000000 0.000000 1.000000
vn 0.000000 0.000000 1.000000
vn 0.000000 0.000000 1.000000
vn 0.000000 0.000000 1.000000
vn 0.000000 0.000000 1.000000
vn 0.000000 0.000000 1.000000
vn 0.000000 0.000000 1.000000
vn 0.000000 0.000000 1.000000
vn 0.000000 0.000000 1.000000
vn 0.000000 0.000000 1.000000
vn 0.000000 0.000000 1.000000
vn 0.000000 0.000000 1.000000
vn 0.000000 0.000000 1.000000
vn 0.000000 0.000000 1.000000
vn 0.000000 0.000000 1.000000
vn 0.000000 0.000000 1.000000
vn 0.000000 0.000000 1.000000
vn 0.000000 0.000000 1.000000
vn 0.000000 0.000000 1.000000
vn 0.000000 0.000000 1.000000
vn 0.000000 0.000000 1.000000
vn 0.000000 0.000000 1.000000
vn 0.000000 0.000000 1.000000
vn 0.000000 0.000000 1.000000
vn 0.000000 0.000000 1.000000
vn 0.000000 0.000000 1.000000
vn 0.000000 0.000000 1.000000
vn 0.000000 0.000000 1.000000
vn 0.000000 0.000000 1.000000
vn 0.000000 0.000000 1.000000
vn 0.000000 0.000000 1.000000
vn 0.000000 0.000000 1.000000
vn 0.000000 0.000000 1.000000
vn 0.000000 0.000000 1.000000
vn 0.000000 0.000000 1.000000
vn 0.000000 0.000000 1.000000
vn 0.000000 0.000000 1.000000
vn 0.000000 0.000000 1.000000
vn 0.000000 0.000000 1.000000
vn 0.000000 0.000000 1.000000
vn 0.000000 0.000000 1.000000
vn 0.000000 0.000000 1.000000
vn 0.000000 0.000000 1.000000
vn 0.000000 0.000000 1.000000
vn 0.000000 0.000000 1.000000
vn 0.000000 0.000000 1.000000
vn 0.000000 0.000000 1.000000
vn 0.000000 0.000000 1.000000
vn 0.000000 0.000000 1.000000
f 1/1/1 2/2/2 4/4/3 3/3/4
f 2/2/5 1/1/6 5/6/7
f 3/3/8 4/4/9 6/5/10
f 7/7/11 8/8/12 10/9/13 9/10/14
f 8/8/15 7/7/16 11/11/17
f 9/10/18 10/9/19 12/12/20
f 13/13/21 14/14/22 16/15/23 15/16/24
f 14/14/25 13/13/26 17/17/27
f 15/16/28 16/15/29 18/18/30
f 19/19/31 20/20/32 22/21/33 21/22/34
f 20/20/35 19/19/36 23/23/37
f 21/22/38 22/21/39 24/24/40
f 25/25/41 26/26/42 28/27/43 27/28/44
f 26/26/45 25/25/46 29/29/47
f 27/28/48 28/27/49 30/30/50
f 31/31/51 32/32/52 34/33/53 33/34/54
f 32/32/55 31/31/56 35/35/57
f 33/34/58 34/33/59 36/36/60
f 37/37/61 38/38/62 40/39/63 39/40/64
f 38/38/65 37/37/66 41/41/67
f 39/40/68 40/39/69 42/42/70
f 43/43/71 44/44/72 46/45/73 45/46/74
f 44/44/75 43/43/76 47/47/77
f 45/46/78 46/45/79 48/48/80
f 49/49/81 50/50/82 52/51/83 51/52/84
f 50/50/85 49/49/86 53/53/87
f 51/52/88 52/51/89 54/54/90
f 55/55/91 56/56/92 58/57/93 57/58/94
f 56/56/95 55/55/96 59/59/97
f 57/58/98 58/57/99 60/60/100
f 61/61/101 62/62/102 64/63/103 63/64/104
f 62/62/105 61/61/106 65/65/107
f 63/64/108 64/63/109 66/66/110
f 67/67/111 68/68/112 70/69/113 69/70/114
f 68/68/115 67/67/116 71/71/117
f 69/70/118 70/69/119 72/72/120
f 73/73/121 74/74/122 76/75/123 75/76/124
f 74/74/125 73/73/126 77/77/127
f 75/76/128 76/75/129 78/78/130
f 79/79/131 80/80/132 82/81/133 81/82/134
f 80/80/135 79/79/136 83/83/137
f 81/82/138 82/81/139 84/84/140
f 85/85/141 86/86/142 88/87/143 87/88/144
f 86/86/145 85/85/146 89/89/147
f 87/88/148 88/87/149 90/90/150
f 91/91/151 92/92/152 94/93/153 93/94/154
f 92/92/155 91/91/156 95/95/157
f 93/94/158 94/93/159 96/96/160
f 97/97/161 98/98/162 100/99/163 99/100/164
f 98/98/165 97/97/166 101/101/167
f 99/100/168 100/99/169 102/102/170
f 103/103/171 104/104/172 106/105/173 105/106/174
f 104/104/175 103/103/176 107/107/177
f 105/106/178 106/105/179 108/108/180
f 109/109/181 110/110/182 112/111/183 111/112/184
f 110/110/185 109/109/186 113/113/187
f 111/112/188 112/111/189 114/114/190
f 115/115/191 116/116/192 118/117/193 117/118/194
f 116/116/195 115/115/196 119/119/197
f 117/118/198 118/117/199 120/120/200
f 121/121/201 122/122/202 124/123/203 123/124/204
f 122/122/205 121/121/206 125/125/207
f 123/124/208 124/123/209 126/126/210
f 127/127/211 128/128/212 130/129/213 129/130/214
f 128/128/215 127/127/216 131/131/217
f 129/130/218 130/129/219 132/132/220
f 133/133/221 134/134/222 136/135/223 135/136/224
f 134/134/225 133/133/226 137/137/227
f 135/136/228 136/135/229 138/138/230
f 139/139/231 140/140/232 142/141/233 141/142/234
f 140/140/235 139/139/236 143/143/237
f 141/142/238 142/141/239 144/144/240
f 145/145/241 146/146/242 148/147/243 147/148/244
f 146/146/245 145/145/246 149/149/247
f 147/148/248 148/147/249 150/150/250
f 151/151/251 152/152/252 154/153/253 153/154/254
f 152/152/255 151/151/256 155/155/257
f 153/154/258 154/153/259 156/156/260
f 157/157/261 158/158/262 160/159/263 159/160/264
f 158/158/265 157/157/266 161/161/267
f 159/160/268 160/159/269 162/162/270
f 163/163/271 164/164/272 166/165/273 165/166/274
f 164/164/275 163/163/276 167/167/277
f 165/166/278 166/165/279 168/168/280
f 170/169/281 169/170/282 171/171/283
f 169/170/284 170/169/285 172/172/286
f 174/173/287 173/174/288 175/175/289
f 173/174/290 174/173/291 176/176/292
