# This file uses meters as units for non-parametric coordinates.

v 6.157173 -1.726501 1.019363
v 4.573788 -4.469009 1.019363
v 42.862148 -22.918152 1.019363
v 41.278763 -25.660660 1.019363
v 42.862148 -22.918152 -1.019363
v 41.278763 -25.660660 -1.019363
v 6.157173 -1.726501 -1.019363
v 4.573788 -4.469009 -1.019363
v -5.631113 -5.079453 1.019363
v -7.214499 -2.336945 1.019363
v -41.278763 -25.660660 1.019363
v -42.862148 -22.918152 1.019363
v -41.278763 -25.660660 -1.019363
v -42.862148 -22.918152 -1.019363
v -5.631113 -5.079453 -1.019363
v -7.214499 -2.336945 -1.019363
v -1.583385 6.072769 1.019363
v 1.583385 6.072769 1.019363
v -1.583385 48.578781 1.019363
v 1.583385 48.578781 1.019363
v -1.583385 48.578781 -1.019363
v 1.583385 48.578781 -1.019363
v -1.583385 6.072769 -1.019363
v 1.583385 6.072769 -1.019363
vt 0.464805 0.900408
vt 0.464805 0.884153
vt 0.441769 0.884153
vt 0.441769 0.900408
vt 0.464805 0.900408
vt 0.441769 0.900408
vt 0.464805 0.884153
vt 0.441769 0.884153
vt 0.464805 0.900408
vt 0.464805 0.884153
vt 0.441769 0.884153
vt 0.441769 0.900408
vt 0.464805 0.900408
vt 0.441769 0.900408
vt 0.464805 0.884153
vt 0.441769 0.884153
vt 0.464805 0.900408
vt 0.464805 0.884153
vt 0.441769 0.884153
vt 0.441769 0.900408
vt 0.464805 0.900408
vt 0.441769 0.900408
vt 0.464805 0.884153
vt 0.441769 0.884153
vn 0.000000 0.000000 1.000000
vn 0.000000 0.000000 1.000000
vn 0.000000 0.000000 1.000000
vn 0.000000 0.000000 1.000000
vn -0.500000 -0.866025 0.000000
vn -0.500000 -0.866025 0.000000
vn -0.500000 -0.866025 0.000000
vn -0.500000 -0.866025 0.000000
vn 0.500000 0.866025 0.000000
vn 0.500000 0.866025 0.000000
vn 0.500000 0.866025 0.000000
vn 0.500000 0.866025 0.000000
vn 0.000000 0.000000 1.000000
vn 0.000000 0.000000 1.000000
vn 0.000000 0.000000 1.000000
vn 0.000000 0.000000 1.000000
vn -0.500001 0.866025 0.000000
vn -0.500001 0.866025 0.000000
vn -0.500001 0.866025 0.000000
vn -0.500001 0.866025 0.000000
vn 0.500001 -0.866025 0.000000
vn 0.500001 -0.866025 0.000000
vn 0.500001 -0.866025 0.000000
vn 0.500001 -0.866025 0.000000
vn 0.000000 0.000000 1.000000
vn 0.000000 0.000000 1.000000
vn 0.000000 0.000000 1.000000
vn 0.000000 0.000000 1.000000
vn 1.000000 0.000000 0.000000
vn 1.000000 0.000000 0.000000
vn 1.000000 0.000000 0.000000
vn 1.000000 0.000000 0.000000
vn -1.000000 0.000000 0.000000
vn -1.000000 0.000000 0.000000
vn -1.000000 0.000000 0.000000
vn -1.000000 0.000000 0.000000
f 1/1/1 2/2/2 4/3/3 3/4/4
f 2/2/5 8/5/6 6/6/7 4/3/8
f 7/7/9 1/1/10 3/4/11 5/8/12
f 9/9/13 10/10/14 12/11/15 11/12/16
f 10/10/17 16/13/18 14/14/19 12/11/20
f 15/15/21 9/9/22 11/12/23 13/16/24
f 17/17/25 18/18/26 20/19/27 19/20/28
f 18/18/29 24/21/30 22/22/31 20/19/32
f 23/23/33 17/17/34 19/20/35 21/24/36
