# This file uses meters as units for non-parametric coordinates.

v -0.783253 0.425507 2.980037
v 0.783253 0.425507 2.980037
v -0.783253 43.666626 2.980037
v 0.783253 43.666626 2.980037
v -0.783253 43.666626 2.357249
v 0.783253 43.666626 2.357249
v -0.783253 0.425507 2.357249
v 0.783253 0.425507 2.357249
v 0.000000 45.905304 2.980037
v 0.000000 45.905304 2.357249
v 1.690279 43.666626 2.980037
v 1.690279 43.666626 2.357249
v -1.690279 43.666626 2.980037
v -1.690279 43.666626 2.357249
vt 0.696708 0.014265
vt 0.695700 0.040452
vt 0.653542 0.040452
vt 0.654550 0.014265
vt 0.652324 0.012392
vt 0.651316 0.038579
vt 0.693474 0.038579
vt 0.694482 0.012392
vt 0.694133 0.027359
vt 0.652959 0.049771
vt 0.650733 0.048272
vt 0.691908 0.025485
vt 0.652907 0.003074
vt 0.655133 0.004572
vn 0.000000 0.000000 1.000000
vn 0.000000 0.000000 1.000000
vn 0.000000 0.000000 1.000000
vn 0.000000 0.000000 1.000000
vn 0.000000 0.000000 -1.000000
vn 0.000000 0.000000 -1.000000
vn 0.000000 0.000000 -1.000000
vn 0.000000 0.000000 -1.000000
vn 1.000000 0.000000 0.000000
vn 1.000000 0.000000 0.000000
vn 1.000000 0.000000 0.000000
vn 1.000000 0.000000 0.000000
vn -1.000000 0.000000 0.000000
vn -1.000000 0.000000 0.000000
vn -1.000000 0.000000 0.000000
vn -1.000000 0.000000 0.000000
vn 0.000000 0.000000 1.000000
vn 0.000000 0.000000 1.000000
vn 0.000000 0.000000 1.000000
vn 0.798067 0.602568 0.000000
vn 0.798067 0.602568 0.000000
vn 0.000000 1.000000 0.000000
vn 0.000000 1.000000 0.000000
vn 0.000000 0.000000 -1.000000
vn 0.000000 0.000000 -1.000000
vn 0.000000 0.000000 -1.000000
vn -0.798067 0.602568 0.000000
vn -0.798067 0.602568 0.000000
vn 0.000000 -1.000000 0.000000
vn 0.000000 -1.000000 0.000000
vn 0.000000 -1.000000 0.000000
vn 0.000000 -1.000000 0.000000
vn 0.000000 0.000000 -1.000000
vn 0.000000 0.000000 1.000000
vn 0.000000 -1.000000 0.000000
vn 0.000000 -1.000000 0.000000
vn 0.000000 -1.000000 0.000000
vn 0.000000 -1.000000 0.000000
vn 0.000000 0.000000 1.000000
vn 0.000000 0.000000 -1.000000
f 1/1/1 2/2/2 4/3/3 3/4/4
f 5/5/5 6/6/6 8/7/7 7/8/8
f 2/2/9 8/7/10 6/6/11 4/3/12
f 7/8/13 1/1/14 3/4/15 5/5/16
f 3/4/17 4/3/18 9/9/19
f 11/10/20 12/11/21 10/12/22 9/9/23
f 6/6/24 5/5/25 10/12/26
f 14/13/27 13/14/28 9/9/23 10/12/22
f 4/3/29 6/6/30 12/11/31 11/10/32
f 6/6/24 10/12/26 12/11/33
f 9/9/19 4/3/18 11/10/34
f 5/5/35 3/4/36 13/14/37 14/13/38
f 3/4/17 9/9/19 13/14/39
f 10/12/26 5/5/25 14/13/40
