# This file uses meters as units for non-parametric coordinates.

v -1.363955 -11.849308 3.899733
v 1.363955 -11.849308 3.899733
v -0.891254 51.648190 3.899733
v 0.891254 51.648190 3.899733
v -0.891254 51.648190 3.344669
v 0.891254 51.648190 3.344669
v -1.363955 -11.849308 3.344669
v 1.363955 -11.849308 3.344669
vt 0.662570 0.012839
vt 0.702341 0.012839
vt 0.662570 0.052611
vt 0.702341 0.052611
vt 0.662570 0.012839
vt 0.702341 0.012839
vt 0.662570 0.052611
vt 0.702341 0.052611
vt 0.662570 0.012839
vt 0.702341 0.012839
vt 0.662570 0.012839
vt 0.662570 0.052611
vt 0.702341 0.012839
vt 0.702341 0.052611
vn 0.000000 0.000000 1.000000
vn 0.000000 0.000000 1.000000
vn 0.000000 0.000000 1.000000
vn 0.000000 0.000000 1.000000
vn 0.000000 1.000000 0.000000
vn 0.000000 1.000000 0.000000
vn 0.000000 1.000000 0.000000
vn 0.000000 1.000000 0.000000
vn 0.000000 0.000000 -1.000000
vn 0.000000 0.000000 -1.000000
vn 0.000000 0.000000 -1.000000
vn 0.000000 0.000000 -1.000000
vn 0.000000 -1.000000 0.000000
vn 0.000000 -1.000000 0.000000
vn 0.000000 -1.000000 0.000000
vn 0.000000 -1.000000 0.000000
vn 0.999972 0.007444 0.000000
vn 0.999972 0.007444 0.000000
vn 0.999972 0.007444 0.000000
vn 0.999972 0.007444 0.000000
vn -0.999972 0.007444 0.000000
vn -0.999972 0.007444 0.000000
vn -0.999972 0.007444 0.000000
vn -0.999972 0.007444 0.000000
f 1/1/1 2/2/2 4/4/3 3/3/4
f 3/3/5 4/4/6 6/6/7 5/5/8
f 5/5/9 6/6/10 8/8/11 7/7/12
f 7/7/13 8/8/14 2/10/15 1/9/16
f 2/2/17 8/11/18 6/12/19 4/4/20
f 7/13/21 1/1/22 3/3/23 5/14/24
