# This file uses meters as units for non-parametric coordinates.

v -31.316078 -12.742274 9.607079
v 31.316078 -12.742274 9.607079
v -31.316078 12.742274 9.607079
v 31.316078 12.742274 9.607079
v 32.561466 -11.776027 9.607079
v 32.561466 11.776027 9.607079
v -32.561466 -11.776027 9.607079
v -32.561466 11.776027 9.607079
v -33.959820 -12.460976 8.208727
v -31.794928 -14.140625 8.208727
v 31.794928 -14.140625 8.208727
v 33.959820 -12.460976 8.208727
v -31.794928 14.140625 8.208727
v -33.959820 12.460976 8.208727
v 31.794928 14.140625 8.208727
v 33.959820 12.460976 8.208727
vt 0.446439 0.979237
vt 0.446774 0.980100
vt 0.445992 0.980707
vt 0.445081 0.980290
vt 0.458111 0.979262
vt 0.457844 0.980125
vt 0.459469 0.980317
vt 0.458625 0.980732
vt 0.446774 0.992121
vt 0.446439 0.993013
vt 0.445081 0.991958
vt 0.445992 0.991514
vt 0.457844 0.992146
vt 0.458111 0.993039
vt 0.458625 0.991540
vt 0.459469 0.991985
vn -0.005148 -0.706215 0.707978
vn -0.022285 -0.703105 0.710737
vn -0.702341 -0.018879 0.711590
vn -0.669289 -0.127858 0.731918
vn 0.005148 -0.706215 0.707978
vn 0.022285 -0.703105 0.710737
vn 0.669289 -0.127858 0.731918
vn 0.702341 -0.018879 0.711590
vn -0.022285 0.703105 0.710737
vn -0.005148 0.706215 0.707978
vn -0.669289 0.127858 0.731918
vn -0.702341 0.018879 0.711590
vn 0.022285 0.703105 0.710737
vn 0.005148 0.706215 0.707978
vn 0.702341 0.018879 0.711590
vn 0.669289 0.127858 0.731918
vn 0.000000 0.000000 1.000000
vn -0.000000 0.000000 1.000000
vn -0.000000 0.000000 1.000000
vn 0.000000 0.000000 1.000000
vn -0.000000 0.000000 1.000000
vn -0.000000 0.000000 1.000000
vn 0.000000 0.000000 1.000000
vn 0.000000 0.000000 1.000000
f 10/1/1 1/2/2 7/3/3 9/4/4
f 1/2/2 10/1/1 11/5/5 2/6/6
f 2/6/6 11/5/5 12/7/7 5/8/8
f 3/9/9 13/10/10 14/11/11 8/12/12
f 13/10/10 3/9/9 4/13/13 15/14/14
f 15/14/14 4/13/13 6/15/15 16/16/16
f 5/8/8 12/7/7 16/16/16 6/15/15
f 9/4/4 7/3/3 8/12/12 14/11/11
f 1/2/17 2/6/18 4/13/19 3/9/20
f 4/13/19 2/6/18 5/8/21 6/15/22
f 1/2/17 3/9/20 8/12/23 7/3/24
