# This file uses meters as units for non-parametric coordinates.

v -1.340588 -9.083251 1.581979
v 1.340588 -9.083251 1.581979
v 0.018887 42.251369 1.581979
v 1.340588 5.750644 1.581979
v -1.340588 5.750644 1.581979
v -0.572140 5.750644 1.581979
v -0.572140 -9.788252 1.581979
v 0.647686 5.750644 1.581979
v 0.647686 -9.788252 1.581979
v -1.340588 25.327900 1.581979
v 0.037773 27.966061 1.581979
v 1.340588 25.327900 1.581979
vt 0.675900 0.229423
vt 0.680905 0.241326
vt 0.734128 0.241326
vt 0.734114 0.229423
vt 0.634328 0.218946
vt 0.646204 0.241326
vt 0.692034 0.218622
vt 0.646147 0.195268
vt 0.680995 0.195268
vt 0.675941 0.208469
vt 0.734088 0.208469
vt 0.734072 0.195268
vn -0.000000 0.000000 1.000000
vn -0.000000 0.000000 1.000000
vn 0.000000 0.000000 1.000000
vn 0.000000 0.000000 1.000000
vn 0.000000 0.000000 1.000000
vn 0.000000 0.000000 1.000000
vn -0.000000 0.000000 1.000000
vn -0.000000 0.000000 1.000000
vn 0.000000 0.000000 1.000000
vn 0.000000 0.000000 1.000000
vn -0.000000 0.000000 1.000000
vn 0.000000 0.000000 1.000000
f 9/1/1 2/2/2 4/3/3 8/4/4
f 11/5/5 12/6/6 3/7/7
f 10/8/8 11/5/5 3/7/7
f 1/9/9 7/10/10 6/11/11 5/12/12
f 7/10/10 9/1/1 8/4/4 6/11/11
f 5/12/12 6/11/11 11/5/5 10/8/8
f 8/4/4 4/3/3 12/6/6 11/5/5
