# This file uses meters as units for non-parametric coordinates.

v -1.340588 -9.083251 1.071147
v 1.340588 -9.083251 1.071147
v 0.018887 28.311296 1.071147
v 1.340588 5.750644 1.071147
v -1.340588 5.750644 1.071147
v -0.572140 5.750644 1.071147
v -0.572140 -9.788252 1.071147
v 0.647686 5.750644 1.071147
v 0.647686 -9.788252 1.071147
v -1.340588 15.519509 1.071147
v 0.037773 18.157667 1.071147
v 1.340588 15.519509 1.071147
vt 0.450585 0.898128
vt 0.451709 0.902639
vt 0.463570 0.902639
vt 0.463567 0.898128
vt 0.451052 0.894157
vt 0.453719 0.902639
vt 0.440813 0.894034
vt 0.453706 0.885184
vt 0.451729 0.885184
vt 0.450594 0.890187
vt 0.463561 0.890187
vt 0.463558 0.885184
vn 0.000000 0.000000 1.000000
vn 0.000000 0.000000 1.000000
vn 0.000000 -0.000000 1.000000
vn 0.000000 -0.000000 1.000000
vn 0.000000 0.000000 1.000000
vn -0.000000 -0.000000 1.000000
vn 0.000000 0.000000 1.000000
vn 0.000000 -0.000000 1.000000
vn -0.000000 0.000000 1.000000
vn -0.000000 0.000000 1.000000
vn 0.000000 -0.000000 1.000000
vn 0.000000 -0.000000 1.000000
f 9/1/1 2/2/2 4/3/3 8/4/4
f 11/5/5 12/6/6 3/7/7
f 10/8/8 11/5/5 3/7/7
f 1/9/9 7/10/10 6/11/11 5/12/12
f 7/10/10 9/1/1 8/4/4 6/11/11
f 5/12/12 6/11/11 11/5/5 10/8/8
f 8/4/4 4/3/3 12/6/6 11/5/5
