# This file uses meters as units for non-parametric coordinates.

v -0.330574 -2.938813 1.204968
v 0.330574 -2.938813 1.204968
v -0.170807 20.475640 1.204968
v 0.170807 20.475640 1.204968
v 0.279731 18.001554 1.204968
v -0.279731 18.001554 1.204968
v -0.717837 18.044063 1.204968
v 0.717837 18.044063 1.204968
v 0.297334 19.147574 1.204968
v -0.297334 19.147574 1.204968
vt 0.649535 0.200743
vt 0.683270 0.200743
vt 0.649535 0.234479
vt 0.683270 0.234479
vt 0.683270 0.231590
vt 0.649535 0.231590
vt 0.649535 0.231653
vt 0.683270 0.231653
vt 0.683270 0.232935
vt 0.649535 0.232935
vn 0.000000 0.000000 1.000000
vn 0.000000 0.000000 1.000000
vn 0.000000 0.000000 1.000000
vn 0.000000 0.000000 1.000000
vn 0.000000 0.000000 1.000000
vn 0.000000 0.000000 1.000000
vn 0.000000 0.000000 1.000000
vn 0.000000 0.000000 1.000000
vn 0.000000 0.000000 1.000000
vn 0.000000 0.000000 1.000000
f 1/1/1 2/2/2 5/5/3 6/6/4
f 7/7/5 8/8/6 9/9/7 10/10/8
f 6/6/4 5/5/3 8/8/6 7/7/5
f 10/10/8 9/9/7 4/4/9 3/3/10
