# This file uses meters as units for non-parametric coordinates.

v -0.931814 -0.931814 0.002261
v 0.931814 -0.931814 0.002261
v -0.931814 0.931814 0.002261
v 0.931814 0.931814 0.002261
v -0.931814 0.931814 -1.038448
v 0.931814 0.931814 -1.038448
v -0.931814 -0.931814 -1.038448
v 0.931814 -0.931814 -1.038448
vt 0.459411 0.823701
vt 0.459411 0.839170
vt 0.445817 0.823701
vt 0.445817 0.839170
vt 0.459411 0.823701
vt 0.459411 0.839170
vt 0.445817 0.823701
vt 0.445817 0.839170
vt 0.445817 0.839170
vt 0.459411 0.839170
vt 0.459411 0.823701
vt 0.445817 0.823701
vn 0.000000 0.000000 1.000000
vn 0.000000 0.000000 1.000000
vn 0.000000 0.000000 1.000000
vn 0.000000 0.000000 1.000000
vn 0.000000 1.000000 0.000000
vn 0.000000 1.000000 0.000000
vn 0.000000 1.000000 0.000000
vn 0.000000 1.000000 0.000000
vn 0.000000 -1.000000 0.000000
vn 0.000000 -1.000000 0.000000
vn 0.000000 -1.000000 0.000000
vn 0.000000 -1.000000 0.000000
vn 1.000000 0.000000 0.000000
vn 1.000000 0.000000 0.000000
vn 1.000000 0.000000 0.000000
vn 1.000000 0.000000 0.000000
vn -1.000000 0.000000 0.000000
vn -1.000000 0.000000 0.000000
vn -1.000000 0.000000 0.000000
vn -1.000000 0.000000 0.000000
f 1/1/1 2/2/2 4/4/3 3/3/4
f 3/3/5 4/4/6 6/6/7 5/5/8
f 7/7/9 8/8/10 2/2/11 1/1/12
f 2/2/13 8/11/14 6/12/15 4/4/16
f 7/10/17 1/1/18 3/3/19 5/9/20
