# This file uses meters as units for non-parametric coordinates.

v -24.711285 -18.175241 -13.354439
v -16.474192 -18.175241 -13.354439
v 24.711285 -18.175241 -13.354439
v 16.474188 -18.175241 -13.354439
v 8.237094 -23.682396 -13.354439
v -0.000001 -24.711285 -13.354439
v -8.237097 -23.682396 -13.354439
v -16.474192 -18.175241 -0.447399
v -24.711285 -18.175241 -0.447399
v 24.711285 -18.175241 -0.447399
v 16.474188 -18.175241 -0.447399
v 8.237094 -23.682396 -0.447399
v -0.000001 -24.711285 -0.447399
v -8.237097 -23.682396 -0.447399
v -24.711285 24.711285 -0.447399
v 24.711285 24.711285 -0.447399
v 16.474188 24.711285 -0.447399
v 8.237094 24.711285 -0.447399
v -0.000001 24.711285 -0.447399
v -8.237097 24.711285 -0.447399
v -16.474192 24.711285 -0.447399
v -24.711285 -101.492729 -13.354439
v 24.711285 -101.492729 -13.354439
v -24.711285 -18.175240 -13.354439
v 24.711285 -18.175240 -13.354439
vt 0.601078 0.845217
vt 0.601168 0.785467
vt 0.579695 0.779334
vt 0.579605 0.845217
vt 0.600628 0.779334
vt 0.600718 0.845217
vt 0.579245 0.845217
vt 0.579155 0.779334
vt 0.612090 0.779334
vt 0.590616 0.779334
vt 0.614287 0.845217
vt 0.592814 0.845217
vt 0.612269 0.779334
vt 0.590796 0.779334
vt 0.515105 0.789164
vt 0.514794 0.854243
vt 0.513225 0.845217
vt 0.513315 0.779334
vt 0.612936 0.854243
vt 0.613246 0.789164
vt 0.512775 0.779334
vt 0.512865 0.845217
vt 0.513135 0.779334
vt 0.512955 0.779334
vt 0.513045 0.845217
vn 0.000000 -1.000000 0.000000
vn 0.000000 -1.000000 0.000000
vn 0.000000 -1.000000 0.000000
vn 0.000000 -1.000000 0.000000
vn 0.000000 -1.000000 0.000000
vn 0.000000 -1.000000 0.000000
vn 0.000000 -1.000000 0.000000
vn 0.000000 -1.000000 0.000000
vn 0.555801 -0.831316 0.000000
vn 0.368781 -0.929517 0.000000
vn 0.368781 -0.929517 0.000000
vn 0.555801 -0.831316 0.000000
vn 0.000000 -1.000000 0.000000
vn 0.000000 -1.000000 0.000000
vn -0.368781 -0.929517 0.000000
vn -0.368781 -0.929517 0.000000
vn -0.555801 -0.831316 0.000000
vn -0.555801 -0.831316 0.000000
vn 0.000000 0.000000 1.000000
vn -0.000000 0.000000 1.000000
vn -0.000000 0.000000 1.000000
vn 0.000000 0.000000 1.000000
vn 0.000000 0.000000 1.000000
vn 0.000000 0.000000 1.000000
vn 0.000000 0.000000 1.000000
vn 0.000000 0.000000 1.000000
vn 0.000000 0.000000 1.000000
vn 0.000000 0.000000 1.000000
vn 0.000000 0.000000 1.000000
vn 0.000000 0.000000 1.000000
vn -0.000000 0.000000 1.000000
vn -0.000000 0.000000 1.000000
vn 0.000000 0.000000 1.000000
vn 0.000000 0.000000 1.000000
vn 0.000000 0.000000 1.000000
vn 0.000000 0.000000 1.000000
f 8/1/1 9/2/2 1/3/3 2/4/4
f 10/5/5 11/6/6 4/7/7 3/8/8
f 11/6/9 12/9/10 5/10/11 4/7/12
f 12/9/10 13/11/13 6/12/14 5/10/11
f 13/11/13 14/13/15 7/14/16 6/12/14
f 14/13/15 8/1/17 2/4/18 7/14/16
f 9/2/19 8/1/20 21/17/21 15/18/22
f 11/6/23 10/5/24 16/21/25 17/22/26
f 12/9/27 11/6/23 17/22/26 18/24/28
f 13/11/29 12/9/27 18/24/28 19/25/30
f 14/13/31 13/11/29 19/25/30 20/23/32
f 8/1/20 14/13/31 20/23/32 21/17/21
f 22/20/33 23/19/34 25/16/35 24/15/36
