# This file uses meters as units for non-parametric coordinates.

v -4.493716 -9.044109 0.602559
v 4.493716 -9.044109 0.602559
v -4.493716 -7.346225 0.602559
v 4.493716 -7.346225 0.602559
v -4.103362 7.666030 0.602559
v 4.103362 7.666030 0.602559
v -4.103362 11.095112 0.602559
v 4.103362 11.095112 0.602559
vt 0.001530 0.640638
vt 0.061194 0.640638
vt 0.001530 0.652054
vt 0.061194 0.652054
vt 0.001530 0.657315
vt 0.061194 0.657315
vt 0.061194 0.686571
vt 0.001530 0.686571
vn 0.000000 0.000000 1.000000
vn 0.000000 0.000000 1.000000
vn 0.000000 0.000000 1.000000
vn 0.000000 0.000000 1.000000
vn 0.000000 0.000000 1.000000
vn 0.000000 0.000000 1.000000
vn 0.000000 0.000000 1.000000
vn 0.000000 0.000000 1.000000
f 1/1/1 2/2/2 4/4/3 3/3/4
f 5/5/5 6/6/6 8/7/7 7/8/8
