# This file uses meters as units for non-parametric coordinates.

v -1.340588 -9.083251 1.071147
v 1.340588 -9.083251 1.071147
v 0.018887 28.311296 1.071147
v 1.340588 5.750644 1.071147
v -1.340588 5.750644 1.071147
v -0.572140 5.750644 1.071147
v -0.572140 -9.788252 1.071147
v 0.647686 5.750644 1.071147
v 0.647686 -9.788252 1.071147
v -1.340588 15.519509 1.071147
v 0.037773 18.157667 1.071147
v 1.340588 15.519509 1.071147
vt 0.551144 0.042364
vt 0.556149 0.054267
vt 0.608975 0.054267
vt 0.608960 0.042364
vt 0.553226 0.031887
vt 0.565101 0.054267
vt 0.507624 0.031562
vt 0.565045 0.008209
vt 0.556239 0.008209
vt 0.551185 0.021409
vt 0.608935 0.021409
vt 0.608918 0.008209
vn 0.000000 0.000000 1.000000
vn 0.000000 0.000000 1.000000
vn 0.000000 -0.000000 1.000000
vn 0.000000 -0.000000 1.000000
vn 0.000000 0.000000 1.000000
vn -0.000000 -0.000000 1.000000
vn 0.000000 0.000000 1.000000
vn 0.000000 -0.000000 1.000000
vn -0.000000 0.000000 1.000000
vn -0.000000 0.000000 1.000000
vn 0.000000 -0.000000 1.000000
vn 0.000000 -0.000000 1.000000
f 9/1/1 2/2/2 4/3/3 8/4/4
f 11/5/5 12/6/6 3/7/7
f 10/8/8 11/5/5 3/7/7
f 1/9/9 7/10/10 6/11/11 5/12/12
f 7/10/10 9/1/1 8/4/4 6/11/11
f 5/12/12 6/11/11 11/5/5 10/8/8
f 8/4/4 4/3/3 12/6/6 11/5/5
