# This file uses meters as units for non-parametric coordinates.

v -11.961952 7.276859 0.602559
v -11.759604 7.832815 0.602559
v -18.588722 9.688812 0.602559
v -18.386379 10.244759 0.602559
v -12.663212 6.267715 0.508739
v -12.282921 6.720928 0.508739
v -18.065399 10.800692 0.508739
v -17.685123 11.253902 0.508739
v -6.720926 12.282917 0.602559
v -6.267712 12.663212 0.602559
v -11.253904 17.685127 0.602559
v -10.800692 18.065403 0.602559
v -7.832808 11.759604 0.508739
v -7.276861 11.961950 0.508739
v -10.244757 18.386379 0.508739
v -9.688808 18.588722 0.508739
v -6.080162 12.609348 0.602559
v -5.541944 12.854988 0.602559
v -9.008223 19.024799 0.602559
v -8.470001 19.270454 0.602559
v -0.499452 13.992542 0.602559
v 0.076169 14.129238 0.602559
v -2.128701 20.853821 0.602559
v -1.553080 20.990517 0.602559
v -1.727945 14.023380 0.508739
v -1.140289 13.954948 0.508739
v -0.912242 21.028111 0.508739
v -0.324587 20.959679 0.508739
v 0.140414 13.998005 0.602559
v 0.731753 13.979572 0.602559
v 0.360148 21.046646 0.602559
v 0.951488 21.028214 0.602559
v 0.972470 13.964886 0.602559
v 1.561666 13.911327 0.602559
v 1.610919 20.987991 0.602559
v 2.200116 20.934433 0.602559
v 6.741606 12.268435 0.602559
v 7.253969 11.972622 0.602559
v 10.267639 18.375702 0.602559
v 10.780003 18.079887 0.602559
v 11.712164 7.667393 0.602559
v 12.025679 7.165667 0.602559
v 17.692654 11.404419 0.602559
v 18.006168 10.902695 0.602559
v 12.218487 6.831722 0.602559
v 12.496239 6.309343 0.602559
v 18.445087 10.142458 0.602559
v 18.722839 9.620090 0.602559
v 13.940849 1.271380 0.602559
v 13.982121 0.681198 0.602559
v 20.975739 1.763307 0.602559
v 21.017006 1.173121 0.602559
v 13.995575 0.295818 0.602559
v 13.995575 -0.295810 0.602559
v 21.047642 0.295818 0.602559
v 21.047642 -0.295810 0.602559
v 13.982121 -0.681186 0.602559
v 13.940849 -1.271371 0.602559
v 21.017006 -1.173113 0.602559
v 20.975739 -1.763294 0.602559
v 0.652741 -16.764732 0.602559
v 0.258084 -14.162060 0.602559
v 0.452607 -20.862808 0.602559
v -0.138320 -20.834030 0.602559
v 0.919008 -14.084911 0.602559
v 1.748589 -20.694244 0.602559
v 1.161643 -20.768532 0.602559
v 1.240734 -16.681213 0.602559
v 8.393024 -14.529984 0.602559
v 6.830532 -12.411438 0.602559
v 10.126467 -18.248779 0.602559
v 9.590269 -18.498817 0.602559
v 7.379276 -12.035070 0.602559
v 11.194420 -17.495483 0.602559
v 10.709789 -17.834831 0.602559
v 8.874281 -14.181980 0.602559
v 12.496239 -6.309336 0.602559
v 12.218487 -6.831709 0.602559
v 18.722839 -9.620077 0.602559
v 18.445087 -10.142458 0.602559
v 12.025681 -7.165657 0.602559
v 11.712166 -7.667393 0.602559
v 18.006168 -10.902685 0.602559
v 17.692654 -11.404411 0.602559
v 11.496536 -7.987076 0.602559
v 11.148785 -8.465712 0.602559
v 17.201775 -12.132172 0.602559
v 16.854023 -12.610809 0.602559
v 12.905914 -5.422272 0.602559
v 12.665276 -5.962749 0.602559
v 19.348297 -8.290604 0.602559
v 19.107658 -8.831078 0.602559
v -0.326522 -13.994896 0.602559
v -0.917564 -13.968601 0.602559
v -0.639955 -21.039989 0.602559
v -1.230997 -21.013699 0.602559
v -7.349867 -15.080288 0.602559
v -6.467247 -12.600235 0.602559
v -9.463558 -18.596897 0.602559
v -9.970680 -18.292179 0.602559
v -5.848367 -12.844711 0.602559
v -8.241854 -19.061028 0.602559
v -8.794186 -18.849014 0.602559
v -6.792248 -15.284660 0.602559
v -6.798477 -12.237009 0.602559
v -7.309462 -11.938820 0.602559
v -10.352814 -18.327847 0.602559
v -10.863800 -18.029659 0.602559
v -7.491417 -11.825497 0.602559
v -7.984396 -11.498398 0.602559
v -11.390375 -17.701694 0.602559
v -11.883354 -17.374599 0.602559
v -13.674053 -9.718821 0.602559
v -11.711554 -7.964329 0.602559
v -17.213680 -11.793743 0.602559
v -17.512951 -11.283381 0.602559
v -11.285332 -8.475321 0.602559
v -16.363453 -12.786255 0.602559
v -16.746796 -12.335625 0.602559
v -13.282410 -10.165281 0.602559
v -11.828394 -7.486843 0.602559
v -12.134174 -6.980366 0.602559
v -17.865498 -11.131699 0.602559
v -18.171280 -10.625231 0.602559
v -12.239639 -6.793743 0.602559
v -12.515766 -6.270512 0.602559
v -18.476490 -10.085144 0.602559
v -18.752617 -9.561907 0.602559
v -12.624710 -6.048176 0.602559
v -12.868992 -5.509336 0.602559
v -19.047569 -8.959969 0.602559
v -19.291847 -8.421129 0.602559
v -13.971542 0.914962 0.602559
v -14.049446 1.501433 0.602559
v -20.962193 -0.013662 0.602559
v -21.040096 0.572814 0.602559
v -14.126167 -0.304153 0.508739
v -13.998791 0.273609 0.508739
v -21.012848 1.214175 0.508739
v -20.885471 1.791924 0.508739
v -13.959332 -1.049262 0.602559
v -13.991199 -0.458493 0.602559
v -21.001156 -1.429120 0.602559
v -21.033024 -0.838351 0.602559
vt 0.579750 0.171907
vt 0.579750 0.137124
vt 0.518753 0.137124
vt 0.518753 0.171907
vt 0.579750 0.171907
vt 0.579750 0.137124
vt 0.518753 0.137124
vt 0.518753 0.171907
vt 0.579750 0.171907
vt 0.579750 0.137124
vt 0.518753 0.137124
vt 0.518753 0.171907
vt 0.579750 0.171907
vt 0.579750 0.137124
vt 0.518753 0.137124
vt 0.518753 0.171907
vt 0.579750 0.171907
vt 0.579750 0.137124
vt 0.518753 0.137124
vt 0.518753 0.171907
vt 0.579750 0.171907
vt 0.579750 0.137124
vt 0.518753 0.137124
vt 0.518753 0.171907
vt 0.579750 0.171907
vt 0.579750 0.137124
vt 0.518753 0.137124
vt 0.518753 0.171907
vt 0.579750 0.171907
vt 0.579750 0.137124
vt 0.518753 0.137124
vt 0.518753 0.171907
vt 0.579750 0.171907
vt 0.579750 0.137124
vt 0.518753 0.137124
vt 0.518753 0.171907
vt 0.579750 0.171907
vt 0.579750 0.137124
vt 0.518753 0.137124
vt 0.518753 0.171907
vt 0.579750 0.171907
vt 0.579750 0.137124
vt 0.518753 0.137124
vt 0.518753 0.171907
vt 0.579750 0.171907
vt 0.579750 0.137124
vt 0.518753 0.137124
vt 0.518753 0.171907
vt 0.579750 0.171907
vt 0.579750 0.137124
vt 0.518753 0.137124
vt 0.518753 0.171907
vt 0.579750 0.171907
vt 0.579750 0.137124
vt 0.518753 0.137124
vt 0.518753 0.171907
vt 0.579750 0.171907
vt 0.579750 0.137124
vt 0.518753 0.137124
vt 0.518753 0.171907
vt 0.579750 0.171907
vt 0.579750 0.137124
vt 0.518753 0.137124
vt 0.518753 0.171907
vt 0.579750 0.171907
vt 0.579750 0.137124
vt 0.550351 0.137124
vt 0.550351 0.171907
vt 0.518753 0.137124
vt 0.518753 0.171907
vt 0.579750 0.171907
vt 0.579750 0.137124
vt 0.518753 0.137124
vt 0.518753 0.171907
vt 0.579750 0.171907
vt 0.579750 0.137124
vt 0.550351 0.137124
vt 0.550351 0.171907
vt 0.518753 0.137124
vt 0.518753 0.171907
vt 0.579750 0.171907
vt 0.579750 0.137124
vt 0.518753 0.137124
vt 0.518753 0.171907
vt 0.579750 0.171907
vt 0.579750 0.137124
vt 0.518753 0.137124
vt 0.518753 0.171907
vt 0.579750 0.171907
vt 0.579750 0.137124
vt 0.518753 0.137124
vt 0.518753 0.171907
vt 0.579750 0.171907
vt 0.579750 0.137124
vt 0.518753 0.137124
vt 0.518753 0.171907
vt 0.579750 0.171907
vt 0.579750 0.137124
vt 0.518753 0.137124
vt 0.518753 0.171907
vt 0.579750 0.171907
vt 0.579750 0.137124
vt 0.518753 0.137124
vt 0.518753 0.171907
vt 0.579750 0.171907
vt 0.579750 0.137124
vt 0.550351 0.137124
vt 0.550351 0.171907
vt 0.518753 0.137124
vt 0.518753 0.171907
vt 0.579750 0.171907
vt 0.579750 0.137124
vt 0.518753 0.137124
vt 0.518753 0.171907
vt 0.579750 0.171907
vt 0.579750 0.137124
vt 0.518753 0.137124
vt 0.518753 0.171907
vt 0.579750 0.171907
vt 0.579750 0.137124
vt 0.518753 0.137124
vt 0.518753 0.171907
vt 0.579750 0.171907
vt 0.579750 0.137124
vt 0.550351 0.137124
vt 0.550351 0.171907
vt 0.518753 0.137124
vt 0.518753 0.171907
vt 0.579750 0.171907
vt 0.579750 0.137124
vt 0.518753 0.137124
vt 0.518753 0.171907
vt 0.579750 0.171907
vt 0.579750 0.137124
vt 0.518753 0.137124
vt 0.518753 0.171907
vt 0.579750 0.171907
vt 0.579750 0.137124
vt 0.518753 0.137124
vt 0.518753 0.171907
vt 0.579750 0.171907
vt 0.579750 0.137124
vt 0.518753 0.137124
vt 0.518753 0.171907
vt 0.579750 0.171907
vt 0.579750 0.137124
vt 0.518753 0.137124
vt 0.518753 0.171907
vt 0.579750 0.171907
vt 0.579750 0.137124
vt 0.518753 0.137124
vt 0.518753 0.171907
vn 0.000000 0.000000 1.000000
vn 0.000000 0.000000 1.000000
vn 0.000000 0.000000 1.000000
vn 0.000000 0.000000 1.000000
vn 0.000000 0.000000 1.000000
vn 0.000000 0.000000 1.000000
vn 0.000000 0.000000 1.000000
vn 0.000000 0.000000 1.000000
vn 0.000000 0.000000 1.000000
vn 0.000000 0.000000 1.000000
vn 0.000000 0.000000 1.000000
vn 0.000000 0.000000 1.000000
vn 0.000000 0.000000 1.000000
vn 0.000000 0.000000 1.000000
vn 0.000000 0.000000 1.000000
vn 0.000000 0.000000 1.000000
vn -0.000000 0.000000 1.000000
vn -0.000000 0.000000 1.000000
vn -0.000000 0.000000 1.000000
vn -0.000000 0.000000 1.000000
vn 0.000000 0.000000 1.000000
vn 0.000000 0.000000 1.000000
vn 0.000000 0.000000 1.000000
vn 0.000000 0.000000 1.000000
vn 0.000000 0.000000 1.000000
vn 0.000000 0.000000 1.000000
vn 0.000000 0.000000 1.000000
vn 0.000000 0.000000 1.000000
vn 0.000000 0.000000 1.000000
vn 0.000000 0.000000 1.000000
vn 0.000000 0.000000 1.000000
vn 0.000000 0.000000 1.000000
vn 0.000000 0.000000 1.000000
vn 0.000000 0.000000 1.000000
vn 0.000000 0.000000 1.000000
vn 0.000000 0.000000 1.000000
vn 0.000000 0.000000 1.000000
vn 0.000000 0.000000 1.000000
vn 0.000000 0.000000 1.000000
vn 0.000000 0.000000 1.000000
vn 0.000000 0.000000 1.000000
vn 0.000000 0.000000 1.000000
vn 0.000000 0.000000 1.000000
vn 0.000000 0.000000 1.000000
vn 0.000000 0.000000 1.000000
vn 0.000000 0.000000 1.000000
vn 0.000000 0.000000 1.000000
vn 0.000000 0.000000 1.000000
vn 0.000000 0.000000 1.000000
vn 0.000000 0.000000 1.000000
vn 0.000000 0.000000 1.000000
vn 0.000000 0.000000 1.000000
vn 0.000000 0.000000 1.000000
vn 0.000000 0.000000 1.000000
vn 0.000000 0.000000 1.000000
vn 0.000000 0.000000 1.000000
vn 0.000000 0.000000 1.000000
vn 0.000000 0.000000 1.000000
vn 0.000000 0.000000 1.000000
vn 0.000000 0.000000 1.000000
vn -0.000000 0.000000 1.000000
vn -0.000000 0.000000 1.000000
vn -0.000000 0.000000 1.000000
vn -0.000000 0.000000 1.000000
vn 0.000000 0.000000 1.000000
vn 0.000000 0.000000 1.000000
vn 0.000000 0.000000 1.000000
vn 0.000000 0.000000 1.000000
vn 0.000000 0.000000 1.000000
vn 0.000000 0.000000 1.000000
vn 0.000000 0.000000 1.000000
vn 0.000000 0.000000 1.000000
vn 0.000000 0.000000 1.000000
vn 0.000000 0.000000 1.000000
vn 0.000000 0.000000 1.000000
vn 0.000000 0.000000 1.000000
vn 0.000000 0.000000 1.000000
vn 0.000000 0.000000 1.000000
vn 0.000000 0.000000 1.000000
vn 0.000000 0.000000 1.000000
vn -0.000000 0.000000 1.000000
vn -0.000000 0.000000 1.000000
vn -0.000000 0.000000 1.000000
vn -0.000000 0.000000 1.000000
vn 0.000000 0.000000 1.000000
vn 0.000000 0.000000 1.000000
vn 0.000000 0.000000 1.000000
vn 0.000000 0.000000 1.000000
vn 0.000000 0.000000 1.000000
vn 0.000000 0.000000 1.000000
vn 0.000000 0.000000 1.000000
vn 0.000000 0.000000 1.000000
vn -0.000000 0.000000 1.000000
vn -0.000000 0.000000 1.000000
vn -0.000000 0.000000 1.000000
vn -0.000000 0.000000 1.000000
vn -0.000000 0.000000 1.000000
vn -0.000000 0.000000 1.000000
vn -0.000000 0.000000 1.000000
vn -0.000000 0.000000 1.000000
vn 0.000000 0.000000 1.000000
vn 0.000000 0.000000 1.000000
vn 0.000000 0.000000 1.000000
vn 0.000000 0.000000 1.000000
vn -0.000000 0.000000 1.000000
vn -0.000000 0.000000 1.000000
vn -0.000000 0.000000 1.000000
vn -0.000000 0.000000 1.000000
vn 0.000000 0.000000 1.000000
vn 0.000000 0.000000 1.000000
vn 0.000000 0.000000 1.000000
vn 0.000000 0.000000 1.000000
vn 0.000000 0.000000 1.000000
vn 0.000000 0.000000 1.000000
vn 0.000000 0.000000 1.000000
vn 0.000000 0.000000 1.000000
vn 0.000000 0.000000 1.000000
vn 0.000000 0.000000 1.000000
vn 0.000000 0.000000 1.000000
vn 0.000000 0.000000 1.000000
vn 0.000000 0.000000 1.000000
vn 0.000000 0.000000 1.000000
vn 0.000000 0.000000 1.000000
vn 0.000000 0.000000 1.000000
vn -0.000000 0.000000 1.000000
vn -0.000000 0.000000 1.000000
vn -0.000000 0.000000 1.000000
vn -0.000000 0.000000 1.000000
vn 0.000000 0.000000 1.000000
vn 0.000000 0.000000 1.000000
vn 0.000000 0.000000 1.000000
vn 0.000000 0.000000 1.000000
vn 0.000000 0.000000 1.000000
vn 0.000000 0.000000 1.000000
vn 0.000000 0.000000 1.000000
vn 0.000000 0.000000 1.000000
vn 0.000000 0.000000 1.000000
vn 0.000000 0.000000 1.000000
vn 0.000000 0.000000 1.000000
vn 0.000000 0.000000 1.000000
vn 0.000000 0.000000 1.000000
vn 0.000000 0.000000 1.000000
vn 0.000000 0.000000 1.000000
vn 0.000000 0.000000 1.000000
vn 0.000000 0.000000 1.000000
vn 0.000000 0.000000 1.000000
vn 0.000000 0.000000 1.000000
vn 0.000000 0.000000 1.000000
vn -0.000000 0.000000 1.000000
vn -0.000000 0.000000 1.000000
vn -0.000000 0.000000 1.000000
vn -0.000000 0.000000 1.000000
f 1/1/1 2/2/2 4/3/3 3/4/4
f 5/5/5 6/6/6 8/7/7 7/8/8
f 9/9/9 10/10/10 12/11/11 11/12/12
f 13/13/13 14/14/14 16/15/15 15/16/16
f 17/17/17 18/18/18 20/19/19 19/20/20
f 21/21/21 22/22/22 24/23/23 23/24/24
f 25/25/25 26/26/26 28/27/27 27/28/28
f 29/29/29 30/30/30 32/31/31 31/32/32
f 33/33/33 34/34/34 36/35/35 35/36/36
f 37/37/37 38/38/38 40/39/39 39/40/40
f 41/41/41 42/42/42 44/43/43 43/44/44
f 45/45/45 46/46/46 48/47/47 47/48/48
f 49/49/49 50/50/50 52/51/51 51/52/52
f 53/53/53 54/54/54 56/55/55 55/56/56
f 57/57/57 58/58/58 60/59/59 59/60/60
f 61/61/61 62/62/62 64/63/63 63/64/64
f 65/65/65 62/66/66 61/67/67 68/68/68
f 68/68/68 61/67/67 67/69/69 66/70/70
f 69/71/71 70/72/72 72/73/73 71/74/74
f 73/75/75 70/76/76 69/77/77 76/78/78
f 76/78/78 69/77/77 75/79/79 74/80/80
f 77/81/81 78/82/82 80/83/83 79/84/84
f 81/85/85 82/86/86 84/87/87 83/88/88
f 85/89/89 86/90/90 88/91/91 87/92/92
f 89/93/93 90/94/94 92/95/95 91/96/96
f 93/97/97 94/98/98 96/99/99 95/100/100
f 97/101/101 98/102/102 100/103/103 99/104/104
f 101/105/105 98/106/106 97/107/107 104/108/108
f 104/108/108 97/107/107 103/109/109 102/110/110
f 105/111/111 106/112/112 108/113/113 107/114/114
f 109/115/115 110/116/116 112/117/117 111/118/118
f 113/119/119 114/120/120 116/121/121 115/122/122
f 117/123/123 114/124/124 113/125/125 120/126/126
f 120/126/126 113/125/125 119/127/127 118/128/128
f 121/129/129 122/130/130 124/131/131 123/132/132
f 125/133/133 126/134/134 128/135/135 127/136/136
f 129/137/137 130/138/138 132/139/139 131/140/140
f 133/141/141 134/142/142 136/143/143 135/144/144
f 137/145/145 138/146/146 140/147/147 139/148/148
f 141/149/149 142/150/150 144/151/151 143/152/152
