# This file uses meters as units for non-parametric coordinates.

v -0.468915 -5.285963 2.460654
v 0.468915 -5.285963 2.460654
v -0.172135 27.540181 2.316146
v 0.172135 27.540181 2.316146
v -0.172135 27.540181 2.148512
v 0.172135 27.540181 2.148512
v -0.468915 -5.285963 2.004004
v 0.468915 -5.285963 2.004004
vt 0.449574 0.918088
vt 0.455602 0.918088
vt 0.449574 0.931289
vt 0.455602 0.931289
vt 0.449574 0.918088
vt 0.455602 0.918088
vt 0.449574 0.931289
vt 0.455602 0.931289
vt 0.449574 0.918088
vt 0.455602 0.918088
vt 0.449574 0.918088
vt 0.449574 0.931289
vt 0.455602 0.918088
vt 0.455602 0.931289
vn 0.000000 0.004402 0.999990
vn 0.000000 0.004402 0.999990
vn 0.000000 0.004402 0.999990
vn 0.000000 0.004402 0.999990
vn 0.000000 1.000000 0.000000
vn 0.000000 1.000000 0.000000
vn 0.000000 1.000000 0.000000
vn 0.000000 1.000000 0.000000
vn 0.000000 0.004402 -0.999990
vn 0.000000 0.004402 -0.999990
vn 0.000000 0.004402 -0.999990
vn 0.000000 0.004402 -0.999990
vn 0.000000 -1.000000 0.000000
vn 0.000000 -1.000000 0.000000
vn 0.000000 -1.000000 0.000000
vn 0.000000 -1.000000 0.000000
vn 0.999959 0.009041 0.000000
vn 0.999959 0.009041 0.000000
vn 0.999959 0.009041 0.000000
vn 0.999959 0.009041 0.000000
vn -0.999959 0.009041 0.000000
vn -0.999959 0.009041 0.000000
vn -0.999959 0.009041 0.000000
vn -0.999959 0.009041 0.000000
f 1/1/1 2/2/2 4/4/3 3/3/4
f 3/3/5 4/4/6 6/6/7 5/5/8
f 5/5/9 6/6/10 8/8/11 7/7/12
f 7/7/13 8/8/14 2/10/15 1/9/16
f 2/2/17 8/11/18 6/12/19 4/4/20
f 7/13/21 1/1/22 3/3/23 5/14/24
