# This file uses meters as units for non-parametric coordinates.

v 0.000000 0.000000 0.668023
v 23.046346 7.488212 0.668023
v 19.604394 14.243421 0.668023
v 14.243424 19.604394 0.668023
v 7.488210 23.046344 0.668023
v -0.000000 24.232358 0.668023
v -7.488211 23.046342 0.668023
v -14.243424 19.604389 0.668023
v -19.604387 14.243420 0.668023
v -23.046335 7.488209 0.668023
v -24.232354 0.000001 0.668023
v -23.046335 -7.488208 0.668023
v -19.604385 -14.243418 0.668023
v -14.243420 -19.604383 0.668023
v -7.488209 -23.046333 0.668023
v -0.000001 -24.232350 0.668023
v 7.488206 -23.046331 0.668023
v 14.243418 -19.604380 0.668023
v 19.604380 -14.243412 0.668023
v 23.046329 -7.488207 0.668023
v 24.232348 0.000001 0.668023
vt 0.352284 0.890157
vt 0.354994 0.893988
vt 0.370434 0.885360
vt 0.359217 0.897028
vt 0.364537 0.898980
vt 0.370434 0.899653
vt 0.364505 0.898980
vt 0.359156 0.897028
vt 0.354911 0.893988
vt 0.352186 0.890157
vt 0.351247 0.885910
vt 0.352186 0.889355
vt 0.354911 0.893494
vt 0.359156 0.896779
vt 0.364505 0.898888
vt 0.370434 0.899615
vt 0.364537 0.898888
vt 0.359217 0.896779
vt 0.354994 0.893494
vt 0.352284 0.889355
vt 0.351349 0.885910
vn 0.000000 0.000000 1.000000
vn 0.000000 0.000000 1.000000
vn 0.000000 -0.000000 1.000000
vn 0.000000 -0.000000 1.000000
vn 0.000000 -0.000000 1.000000
vn 0.000000 0.000000 1.000000
vn 0.000000 -0.000000 1.000000
vn 0.000000 0.000000 1.000000
vn 0.000000 0.000000 1.000000
vn 0.000000 0.000000 1.000000
vn 0.000000 0.000000 1.000000
vn 0.000000 -0.000000 1.000000
vn 0.000000 0.000000 1.000000
vn 0.000000 0.000000 1.000000
vn 0.000000 -0.000000 1.000000
vn 0.000000 -0.000000 1.000000
vn 0.000000 0.000000 1.000000
vn 0.000000 -0.000000 1.000000
vn 0.000000 -0.000000 1.000000
vn 0.000000 -0.000000 1.000000
vn 0.000000 -0.000000 1.000000
f 2/1/1 3/2/2 1/3/3
f 3/2/2 4/4/4 1/3/3
f 4/4/4 5/5/5 1/3/3
f 5/5/5 6/6/6 1/3/3
f 6/6/6 7/7/7 1/3/3
f 7/7/7 8/8/8 1/3/3
f 8/8/8 9/9/9 1/3/3
f 9/9/9 10/10/10 1/3/3
f 10/10/10 11/11/11 1/3/3
f 11/11/11 12/12/12 1/3/3
f 12/12/12 13/13/13 1/3/3
f 13/13/13 14/14/14 1/3/3
f 14/14/14 15/15/15 1/3/3
f 15/15/15 16/16/16 1/3/3
f 16/16/16 17/17/17 1/3/3
f 17/17/17 18/18/18 1/3/3
f 18/18/18 19/19/19 1/3/3
f 19/19/19 20/20/20 1/3/3
f 20/20/20 21/21/21 1/3/3
f 21/21/21 2/1/1 1/3/3
