# This file uses meters as units for non-parametric coordinates.

v -1.340588 -9.083251 1.581979
v 1.340588 -9.083251 1.581979
v 0.018887 42.251369 1.581979
v 1.340588 5.750644 1.581979
v -1.340588 5.750644 1.581979
v -0.572140 5.750644 1.581979
v -0.572140 -9.788252 1.581979
v 0.647686 5.750644 1.581979
v 0.647686 -9.788252 1.581979
v -1.340588 25.327900 1.581979
v 0.037773 27.966061 1.581979
v 1.340588 25.327900 1.581979
vt 0.800900 0.569849
vt 0.805905 0.581752
vt 0.859128 0.581752
vt 0.859114 0.569849
vt 0.759328 0.559372
vt 0.771204 0.581752
vt 0.817034 0.559047
vt 0.771147 0.535694
vt 0.805995 0.535694
vt 0.800941 0.548895
vt 0.859088 0.548895
vt 0.859072 0.535694
vn -0.000000 0.000000 1.000000
vn -0.000000 0.000000 1.000000
vn 0.000000 0.000000 1.000000
vn 0.000000 0.000000 1.000000
vn 0.000000 0.000000 1.000000
vn 0.000000 0.000000 1.000000
vn -0.000000 0.000000 1.000000
vn -0.000000 0.000000 1.000000
vn 0.000000 0.000000 1.000000
vn 0.000000 0.000000 1.000000
vn -0.000000 0.000000 1.000000
vn 0.000000 0.000000 1.000000
f 9/1/1 2/2/2 4/3/3 8/4/4
f 11/5/5 12/6/6 3/7/7
f 10/8/8 11/5/5 3/7/7
f 1/9/9 7/10/10 6/11/11 5/12/12
f 7/10/10 9/1/1 8/4/4 6/11/11
f 5/12/12 6/11/11 11/5/5 10/8/8
f 8/4/4 4/3/3 12/6/6 11/5/5
