# This file uses meters as units for non-parametric coordinates.

v -1.340588 -9.083251 1.581979
v 1.340588 -9.083251 1.581979
v 0.018887 42.251369 1.581979
v 1.340588 5.750644 1.581979
v -1.340588 5.750644 1.581979
v -0.572140 5.750644 1.581979
v -0.572140 -9.788252 1.581979
v 0.647686 5.750644 1.581979
v 0.647686 -9.788252 1.581979
v -1.340588 25.327900 1.581979
v 0.037773 27.966061 1.581979
v 1.340588 25.327900 1.581979
vt 0.550900 0.166923
vt 0.555905 0.178826
vt 0.609128 0.178826
vt 0.609114 0.166923
vt 0.509328 0.156446
vt 0.521204 0.178826
vt 0.567034 0.156122
vt 0.521147 0.132768
vt 0.555995 0.132768
vt 0.550941 0.145969
vt 0.609088 0.145969
vt 0.609072 0.132768
vn -0.000000 0.000000 1.000000
vn -0.000000 0.000000 1.000000
vn 0.000000 0.000000 1.000000
vn 0.000000 0.000000 1.000000
vn 0.000000 0.000000 1.000000
vn 0.000000 0.000000 1.000000
vn -0.000000 0.000000 1.000000
vn -0.000000 0.000000 1.000000
vn 0.000000 0.000000 1.000000
vn 0.000000 0.000000 1.000000
vn -0.000000 0.000000 1.000000
vn 0.000000 0.000000 1.000000
f 9/1/1 2/2/2 4/3/3 8/4/4
f 11/5/5 12/6/6 3/7/7
f 10/8/8 11/5/5 3/7/7
f 1/9/9 7/10/10 6/11/11 5/12/12
f 7/10/10 9/1/1 8/4/4 6/11/11
f 5/12/12 6/11/11 11/5/5 10/8/8
f 8/4/4 4/3/3 12/6/6 11/5/5
