# This file uses meters as units for non-parametric coordinates.

v -3.084338 -8.851126 -0.394903
v 5.606750 -8.851126 -0.394903
v 5.606750 -7.510586 -0.394903
v -3.084338 -7.510586 -0.394903
v -3.039485 7.759569 -0.394903
v 5.561896 7.759569 -0.394903
v 5.561896 10.641662 -0.394903
v -3.039485 10.641662 -0.394903
v -2.488930 11.862778 -0.394903
v 5.011342 11.862778 -0.394903
v -2.488930 17.122437 -0.394903
v 5.011342 17.122437 -0.394903
v 8.537649 11.862778 -0.394903
v 13.782150 11.862778 -0.394903
v 8.537649 17.122437 -0.394903
v 13.782150 17.122437 -0.394903
v 7.811891 -16.450653 -0.394903
v 13.056392 -16.450653 -0.394903
v 7.811891 -11.190992 -0.394903
v 13.056392 -11.190992 -0.394903
v -2.086804 -16.450653 -0.394903
v 3.157698 -16.450653 -0.394903
v -2.086804 -11.190992 -0.394903
v 3.157698 -11.190992 -0.394903
v -11.182258 -16.450653 -0.394903
v -5.937757 -16.450653 -0.394903
v -11.182258 -11.190992 -0.394903
v -5.937757 -11.190992 -0.394903
v -12.223040 11.862776 -0.394903
v -5.256887 11.862776 -0.394903
v -12.223040 17.122437 -0.394903
v -5.256887 17.122437 -0.394903
v -21.163025 5.102595 -0.394903
v -14.196872 5.102595 -0.394903
v -21.163025 10.362255 -0.394903
v -14.196872 10.362255 -0.394903
v -20.179352 -2.717286 -0.394903
v -15.124319 -2.717286 -0.394903
v -20.179352 2.542375 -0.394903
v -15.124319 2.542375 -0.394903
v -20.179352 -10.322754 -0.394903
v -15.124319 -10.322754 -0.394903
v -20.179352 -5.063093 -0.394903
v -15.124319 -5.063093 -0.394903
v 15.981254 -10.322754 -0.394903
v 21.163025 -10.322754 -0.394903
v 15.981254 -5.063093 -0.394903
v 21.163025 -5.063093 -0.394903
v 15.981254 -2.717286 -0.394903
v 21.163025 -2.717286 -0.394903
v 15.981254 2.542375 -0.394903
v 21.163025 2.542375 -0.394903
v 15.981254 5.102595 -0.394903
v 21.163025 5.102595 -0.394903
v 15.981254 10.362255 -0.394903
v 21.163025 10.362255 -0.394903
vt 0.001394 0.628219
vt 0.061239 0.628219
vt 0.061239 0.639964
vt 0.001394 0.639964
vt 0.001394 0.657420
vt 0.061239 0.657420
vt 0.061239 0.686016
vt 0.001394 0.686016
vt 0.110862 0.663590
vt 0.123303 0.663590
vt 0.123303 0.671640
vt 0.110862 0.671640
vt 0.066405 0.674522
vt 0.074142 0.674522
vt 0.074142 0.682572
vt 0.066405 0.682572
vt 0.099108 0.674522
vt 0.106846 0.674522
vt 0.106846 0.682572
vt 0.099108 0.682572
vt 0.107342 0.674522
vt 0.115079 0.674522
vt 0.115079 0.682572
vt 0.107342 0.682572
vt 0.115576 0.674522
vt 0.123313 0.674522
vt 0.123313 0.682572
vt 0.115576 0.682572
vt 0.097141 0.663538
vt 0.109319 0.663538
vt 0.109319 0.671588
vt 0.097141 0.671588
vt 0.083594 0.663538
vt 0.095772 0.663538
vt 0.095772 0.671588
vt 0.083594 0.671588
vt 0.074750 0.663538
vt 0.082273 0.663538
vt 0.082273 0.671588
vt 0.074750 0.671588
vt 0.066557 0.663538
vt 0.074081 0.663538
vt 0.074081 0.671588
vt 0.066557 0.671588
vt 0.090693 0.674481
vt 0.098216 0.674481
vt 0.098216 0.682531
vt 0.090693 0.682531
vt 0.082599 0.674481
vt 0.090122 0.674481
vt 0.090122 0.682531
vt 0.082599 0.682531
vt 0.074574 0.674481
vt 0.082098 0.674481
vt 0.082098 0.682531
vt 0.074574 0.682531
vn 0.000000 0.000000 1.000000
vn 0.000000 0.000000 1.000000
vn 0.000000 0.000000 1.000000
vn 0.000000 0.000000 1.000000
vn 0.000000 0.000000 1.000000
vn 0.000000 0.000000 1.000000
vn 0.000000 0.000000 1.000000
vn 0.000000 0.000000 1.000000
vn 0.000000 0.000000 1.000000
vn 0.000000 0.000000 1.000000
vn 0.000000 0.000000 1.000000
vn 0.000000 0.000000 1.000000
vn 0.000000 0.000000 1.000000
vn 0.000000 0.000000 1.000000
vn 0.000000 0.000000 1.000000
vn 0.000000 0.000000 1.000000
vn 0.000000 0.000000 1.000000
vn 0.000000 0.000000 1.000000
vn 0.000000 0.000000 1.000000
vn 0.000000 0.000000 1.000000
vn 0.000000 0.000000 1.000000
vn 0.000000 0.000000 1.000000
vn 0.000000 0.000000 1.000000
vn 0.000000 0.000000 1.000000
vn 0.000000 0.000000 1.000000
vn 0.000000 0.000000 1.000000
vn 0.000000 0.000000 1.000000
vn 0.000000 0.000000 1.000000
vn 0.000000 0.000000 1.000000
vn 0.000000 0.000000 1.000000
vn 0.000000 0.000000 1.000000
vn 0.000000 0.000000 1.000000
vn 0.000000 0.000000 1.000000
vn 0.000000 0.000000 1.000000
vn 0.000000 0.000000 1.000000
vn 0.000000 0.000000 1.000000
vn 0.000000 0.000000 1.000000
vn 0.000000 0.000000 1.000000
vn 0.000000 0.000000 1.000000
vn 0.000000 0.000000 1.000000
vn 0.000000 0.000000 1.000000
vn 0.000000 0.000000 1.000000
vn 0.000000 0.000000 1.000000
vn 0.000000 0.000000 1.000000
vn 0.000000 0.000000 1.000000
vn 0.000000 0.000000 1.000000
vn 0.000000 0.000000 1.000000
vn 0.000000 0.000000 1.000000
vn 0.000000 0.000000 1.000000
vn 0.000000 0.000000 1.000000
vn 0.000000 0.000000 1.000000
vn 0.000000 0.000000 1.000000
vn 0.000000 0.000000 1.000000
vn 0.000000 0.000000 1.000000
vn 0.000000 0.000000 1.000000
vn 0.000000 0.000000 1.000000
f 1/1/1 2/2/2 3/3/3 4/4/4
f 5/5/5 6/6/6 7/7/7 8/8/8
f 9/9/9 10/10/10 12/11/11 11/12/12
f 13/13/13 14/14/14 16/15/15 15/16/16
f 17/17/17 18/18/18 20/19/19 19/20/20
f 21/21/21 22/22/22 24/23/23 23/24/24
f 25/25/25 26/26/26 28/27/27 27/28/28
f 29/29/29 30/30/30 32/31/31 31/32/32
f 33/33/33 34/34/34 36/35/35 35/36/36
f 37/37/37 38/38/38 40/39/39 39/40/40
f 41/41/41 42/42/42 44/43/43 43/44/44
f 45/45/45 46/46/46 48/47/47 47/48/48
f 49/49/49 50/50/50 52/51/51 51/52/52
f 53/53/53 54/54/54 56/55/55 55/56/56
