# This file uses meters as units for non-parametric coordinates.

v 12.498680 4.061067 0.285003
v 10.632011 7.724606 0.285003
v 7.724608 10.632009 0.285003
v 4.061066 12.498678 0.285003
v 0.000001 13.141882 0.285003
v -4.061066 12.498672 0.285003
v -7.724606 10.632006 0.285003
v -10.632005 7.724605 0.285003
v -12.498669 4.061064 0.285003
v -13.141882 -0.000001 0.285003
v -12.498669 -4.061065 0.285003
v -10.632005 -7.724606 0.285003
v -7.724602 -10.632005 0.285003
v -4.061064 -12.498672 0.285003
v -0.000000 -13.141882 0.285003
v 4.061064 -12.498669 0.285003
v 7.724602 -10.632004 0.285003
v 10.632004 -7.724605 0.285003
v 12.498669 -4.061064 0.285003
v 13.141882 0.000001 0.285003
v 13.460503 4.373583 0.285003
v 11.450191 8.319049 0.285003
v 8.319049 11.450187 0.285003
v 4.373583 13.460503 0.285003
v 0.000000 14.153206 0.285003
v -4.373582 13.460503 0.285003
v -8.319048 11.450182 0.285003
v -11.450182 8.319045 0.285003
v -13.460499 4.373581 0.285003
v -14.153206 -0.000001 0.285003
v -13.460499 -4.373581 0.285003
v -11.450182 -8.319048 0.285003
v -8.319045 -11.450182 0.285003
v -4.373581 -13.460499 0.285003
v -0.000000 -14.153206 0.285003
v 4.373581 -13.460499 0.285003
v 8.319045 -11.450182 0.285003
v 11.450182 -8.319045 0.285003
v 13.460497 -4.373581 0.285003
v 14.153206 -0.000001 0.285003
v 21.139011 6.868480 0.285003
v 17.981915 13.064621 0.285003
v 13.064621 17.981915 0.285003
v 6.868477 21.139011 0.285003
v -0.000000 22.226868 0.285003
v -6.868477 21.139008 0.285003
v -13.064621 17.981913 0.285003
v -17.981907 13.064617 0.285003
v -21.139000 6.868476 0.285003
v -22.226864 0.000000 0.285003
v -21.139000 -6.868476 0.285003
v -17.981907 -13.064617 0.285003
v -13.064617 -17.981905 0.285003
v -6.868477 -21.139000 0.285003
v -0.000000 -22.226862 0.285003
v 6.868476 -21.139000 0.285003
v 13.064617 -17.981907 0.285003
v 17.981907 -13.064617 0.285003
v 21.138998 -6.868476 0.285003
v 22.226860 -0.000001 0.285003
v 17.116562 12.435904 0.285003
v 20.121723 6.537945 0.285003
v 12.435904 17.116554 0.285003
v 6.537941 20.121723 0.285003
v -0.000000 21.157227 0.285003
v -6.537941 20.121721 0.285003
v -12.435904 17.116554 0.285003
v -17.116554 12.435900 0.285003
v -20.121717 6.537941 0.285003
v -21.157223 0.000000 0.285003
v -20.121717 -6.537941 0.285003
v -17.116554 -12.435900 0.285003
v -12.435900 -17.116545 0.285003
v -6.537941 -20.121716 0.285003
v -0.000001 -21.157223 0.285003
v 6.537939 -20.121712 0.285003
v 12.435900 -17.116545 0.285003
v 17.116545 -12.435900 0.285003
v 20.121712 -6.537939 0.285003
v 21.157219 0.000000 0.285003
vt 0.525055 0.084260
vt 0.593046 0.084260
vt 0.593046 0.108878
vt 0.525055 0.108878
vt 0.593046 0.108878
vt 0.525055 0.084260
vt 0.525055 0.108878
vt 0.525055 0.108878
vt 0.525055 0.084260
vt 0.593046 0.084260
vt 0.593046 0.108878
vt 0.593046 0.084260
vt 0.593046 0.084260
vt 0.525055 0.084260
vt 0.525055 0.108878
vt 0.593046 0.108878
vt 0.593046 0.084260
vt 0.593047 0.084260
vt 0.593047 0.108878
vt 0.525054 0.108878
vt 0.525054 0.084260
vt 0.525053 0.084260
vt 0.525053 0.108878
vt 0.525055 0.108878
vt 0.525055 0.084260
vt 0.593046 0.084260
vt 0.593046 0.108878
vt 0.593046 0.108878
vt 0.525054 0.108878
vt 0.525053 0.084260
vt 0.525053 0.108878
vt 0.593046 0.108878
vt 0.525054 0.084260
vt 0.593046 0.084260
vt 0.593046 0.108878
vt 0.525054 0.108878
vt 0.593046 0.084260
vt 0.525054 0.084260
vt 0.525054 0.108878
vt 0.525054 0.084260
vt 0.593046 0.084260
vt 0.593046 0.084260
vt 0.593046 0.108878
vt 0.525054 0.108878
vt 0.525054 0.084260
vt 0.525054 0.084260
vt 0.525054 0.108878
vt 0.525053 0.108878
vt 0.525053 0.084260
vt 0.593046 0.084260
vt 0.593046 0.108878
vt 0.593046 0.108878
vt 0.593046 0.084260
vt 0.525054 0.084260
vt 0.525054 0.108878
vt 0.593046 0.108878
vt 0.593046 0.084260
vt 0.593046 0.084260
vt 0.593046 0.108878
vt 0.525054 0.108878
vt 0.525054 0.084260
vt 0.525054 0.084260
vt 0.525054 0.108878
vt 0.525053 0.108878
vt 0.525053 0.084260
vt 0.593046 0.084260
vt 0.593046 0.108878
vt 0.593046 0.108878
vt 0.593046 0.084260
vt 0.525055 0.084260
vt 0.525055 0.108878
vt 0.593046 0.108878
vt 0.593046 0.084260
vt 0.593046 0.084260
vt 0.593046 0.108878
vt 0.525054 0.108878
vt 0.525054 0.084260
vt 0.525055 0.108878
vt 0.525055 0.084260
vt 0.593046 0.108878
vt 0.525055 0.084260
vt 0.593046 0.108878
vt 0.593046 0.084260
vt 0.525055 0.108878
vn 0.000000 0.000000 1.000000
vn 0.000000 0.000000 1.000000
vn 0.000000 0.000000 1.000000
vn 0.000000 0.000000 1.000000
vn -0.000000 0.000000 1.000000
vn -0.000000 0.000000 1.000000
vn 0.000000 0.000000 1.000000
vn 0.000000 0.000000 1.000000
vn 0.000000 0.000000 1.000000
vn 0.000000 0.000000 1.000000
vn 0.000000 0.000000 1.000000
vn 0.000000 0.000000 1.000000
vn 0.000000 0.000000 1.000000
vn 0.000000 0.000000 1.000000
vn 0.000000 0.000000 1.000000
vn 0.000000 0.000000 1.000000
vn 0.000000 0.000000 1.000000
vn 0.000000 0.000000 1.000000
vn 0.000000 0.000000 1.000000
vn 0.000000 0.000000 1.000000
vn 0.000000 0.000000 1.000000
vn 0.000000 0.000000 1.000000
vn 0.000000 0.000000 1.000000
vn 0.000000 0.000000 1.000000
vn 0.000000 0.000000 1.000000
vn 0.000000 0.000000 1.000000
vn 0.000000 0.000000 1.000000
vn 0.000000 0.000000 1.000000
vn 0.000000 0.000000 1.000000
vn 0.000000 0.000000 1.000000
vn -0.000000 0.000000 1.000000
vn -0.000000 0.000000 1.000000
vn -0.000000 0.000000 1.000000
vn -0.000000 0.000000 1.000000
vn -0.000000 0.000000 1.000000
vn -0.000000 0.000000 1.000000
vn -0.000000 0.000000 1.000000
vn -0.000000 0.000000 1.000000
vn 0.000000 0.000000 1.000000
vn 0.000000 0.000000 1.000000
vn -0.000000 0.000000 1.000000
vn 0.000000 0.000000 1.000000
vn 0.000000 0.000000 1.000000
vn 0.000000 0.000000 1.000000
vn 0.000000 0.000000 1.000000
vn 0.000000 0.000000 1.000000
vn 0.000000 0.000000 1.000000
vn 0.000000 0.000000 1.000000
vn 0.000000 0.000000 1.000000
vn 0.000000 0.000000 1.000000
vn -0.000000 0.000000 1.000000
vn 0.000000 0.000000 1.000000
vn -0.000000 0.000000 1.000000
vn -0.000000 0.000000 1.000000
vn -0.000000 0.000000 1.000000
vn -0.000000 0.000000 1.000000
vn 0.000000 0.000000 1.000000
vn 0.000000 0.000000 1.000000
vn -0.000000 0.000000 1.000000
vn -0.000000 0.000000 1.000000
vn 0.000000 0.000000 1.000000
vn 0.000000 0.000000 1.000000
vn 0.000000 0.000000 1.000000
vn 0.000000 0.000000 1.000000
vn 0.000000 0.000000 1.000000
vn 0.000000 0.000000 1.000000
vn 0.000000 0.000000 1.000000
vn 0.000000 0.000000 1.000000
vn 0.000000 0.000000 1.000000
vn 0.000000 0.000000 1.000000
vn -0.000000 0.000000 1.000000
vn -0.000000 0.000000 1.000000
vn 0.000000 0.000000 1.000000
vn -0.000000 0.000000 1.000000
vn 0.000000 0.000000 1.000000
vn 0.000000 0.000000 1.000000
vn 0.000000 0.000000 1.000000
vn 0.000000 0.000000 1.000000
vn 0.000000 0.000000 1.000000
vn 0.000000 0.000000 1.000000
f 21/1/1 22/2/2 2/3/3 1/4/4
f 22/2/2 23/6/5 3/7/6 2/3/3
f 23/6/5 24/10/7 4/11/8 3/7/6
f 24/10/7 25/14/9 5/15/10 4/11/8
f 25/14/9 26/18/11 6/19/12 5/15/10
f 26/18/11 27/22/13 7/23/14 6/19/12
f 27/22/13 28/26/15 8/27/16 7/23/14
f 28/26/15 29/30/17 9/31/18 8/27/16
f 29/33/17 30/34/19 10/35/20 9/36/18
f 30/34/19 31/38/21 11/39/22 10/35/20
f 31/38/21 32/42/23 12/43/24 11/39/22
f 32/42/23 33/46/25 13/47/26 12/43/24
f 33/46/25 34/50/27 14/51/28 13/47/26
f 34/50/27 35/54/29 15/55/30 14/51/28
f 35/54/29 36/58/31 16/59/32 15/55/30
f 36/58/31 37/62/33 17/63/34 16/59/32
f 37/62/33 38/66/35 18/67/36 17/63/34
f 38/66/35 39/70/37 19/71/38 18/67/36
f 39/70/37 40/74/39 20/75/40 19/71/38
f 40/74/39 21/1/1 1/4/4 20/75/40
f 61/81/41 62/12/42 41/5/43 42/84/44
f 63/83/45 61/81/41 42/84/44 43/82/46
f 64/79/47 63/83/45 43/82/46 44/78/48
f 65/73/49 64/79/47 44/78/48 45/72/50
f 66/65/51 65/73/49 45/72/50 46/64/52
f 67/57/53 66/65/51 46/64/52 47/56/54
f 68/49/55 67/57/53 47/56/54 48/48/56
f 69/41/57 68/40/55 48/29/56 49/28/58
f 70/21/59 69/41/57 49/28/58 50/20/60
f 71/13/61 70/21/59 50/20/60 51/80/62
f 72/77/63 71/13/61 51/80/62 52/76/64
f 73/69/65 72/77/63 52/76/64 53/68/66
f 74/61/67 73/69/65 53/68/66 54/60/68
f 75/53/69 74/61/67 54/60/68 55/52/70
f 76/45/71 75/53/69 55/52/70 56/44/72
f 77/37/73 76/45/71 56/44/72 57/32/74
f 78/25/75 77/37/73 57/32/74 58/24/76
f 79/17/77 78/25/75 58/24/76 59/16/78
f 80/9/79 79/17/77 59/16/78 60/8/80
f 62/12/42 80/9/79 60/8/80 41/5/43
