# This file uses meters as units for non-parametric coordinates.

v 0.261734 0.261730 -0.866219
v 0.000000 0.370148 -0.866219
v -0.261734 0.261730 -0.866219
v -0.370148 0.000000 -0.866217
v -0.261734 -0.261730 -0.866219
v 0.000000 -0.370148 -0.866219
v 0.261734 -0.261730 -0.866219
v 0.370148 0.000000 -0.866217
v 0.261734 0.261734 1.533707
v 0.000000 0.370148 1.533707
v -0.261734 0.261734 1.533707
v -0.370148 0.000000 1.533709
v -0.261734 -0.261734 1.533707
v 0.000000 -0.370148 1.533707
v 0.261734 -0.261734 1.533707
v 0.370148 0.000000 1.533709
v 0.000000 0.000000 1.533709
vt 0.523309 0.202676
vt 0.531548 0.202676
vt 0.539786 0.202676
vt 0.548024 0.202676
vt 0.556263 0.202676
vt 0.564501 0.202676
vt 0.572740 0.202676
vt 0.580978 0.202676
vt 0.589216 0.202676
vt 0.523309 0.241558
vt 0.531548 0.241558
vt 0.539786 0.241558
vt 0.548024 0.241558
vt 0.556263 0.241558
vt 0.564501 0.241558
vt 0.572740 0.241558
vt 0.580978 0.241558
vt 0.589216 0.241558
vt 0.559819 0.207977
vt 0.548860 0.203438
vt 0.537900 0.207977
vt 0.533360 0.218937
vt 0.537900 0.229897
vt 0.548860 0.234437
vt 0.559819 0.229897
vt 0.564359 0.218937
vt 0.548860 0.218317
vn 0.707107 0.707107 -0.000001
vn 0.000000 1.000000 -0.000001
vn 0.000000 1.000000 -0.000001
vn 0.707107 0.707106 -0.000001
vn -0.707107 0.707107 -0.000001
vn -0.707107 0.707106 -0.000001
vn -1.000000 0.000000 -0.000000
vn -1.000000 0.000000 -0.000000
vn -0.707107 -0.707107 -0.000001
vn -0.707107 -0.707106 -0.000001
vn 0.000000 -1.000000 -0.000001
vn 0.000000 -1.000000 -0.000001
vn 0.707107 -0.707107 -0.000001
vn 0.707107 -0.707106 -0.000001
vn 1.000000 0.000000 -0.000000
vn 1.000000 0.000000 -0.000000
vn 0.000001 0.000006 1.000000
vn -0.000000 0.000005 1.000000
vn 0.000000 0.000000 1.000000
vn -0.000001 0.000006 1.000000
vn 0.000000 0.000000 1.000000
vn -0.000001 -0.000006 1.000000
vn 0.000000 -0.000005 1.000000
vn 0.000001 -0.000006 1.000000
vn 0.000000 0.000000 1.000000
f 1/1/1 2/2/2 10/11/3 9/10/4
f 2/2/2 3/3/5 11/12/6 10/11/3
f 3/3/5 4/4/7 12/13/8 11/12/6
f 4/4/7 5/5/9 13/14/10 12/13/8
f 5/5/9 6/6/11 14/15/12 13/14/10
f 6/6/11 7/7/13 15/16/14 14/15/12
f 7/7/13 8/8/15 16/17/16 15/16/14
f 8/8/15 1/9/1 9/18/4 16/17/16
f 9/25/17 10/24/18 17/27/19
f 10/24/18 11/23/20 17/27/19
f 11/23/20 12/22/21 17/27/19
f 12/22/21 13/21/22 17/27/19
f 13/21/22 14/20/23 17/27/19
f 14/20/23 15/19/24 17/27/19
f 15/19/24 16/26/25 17/27/19
f 16/26/25 9/25/17 17/27/19
