# This file uses meters as units for non-parametric coordinates.

v -3.084338 -14.171340 1.227268
v 5.606750 -14.171340 1.227268
v 5.606750 -12.830800 1.227268
v -3.084338 -12.830800 1.227268
v -3.039485 10.567081 1.227268
v 5.561896 10.567081 1.227268
v 5.561896 13.449173 1.227268
v -3.039485 13.449173 1.227268
v -2.488930 17.546429 1.227268
v 5.011342 17.546429 1.227268
v -2.488930 22.806087 1.227268
v 5.011342 22.806087 1.227268
v 8.537649 13.595597 1.227268
v 13.782150 13.595597 1.227268
v 8.537649 18.855255 1.227268
v 13.782150 18.855255 1.227268
v 9.174973 -19.567842 1.227268
v 14.419474 -19.567842 1.227268
v 9.174973 -14.308182 1.227268
v 14.419474 -14.308182 1.227268
v -2.086804 -23.066551 1.227268
v 3.157698 -23.066551 1.227268
v -2.086804 -17.806890 1.227268
v 3.157698 -17.806890 1.227268
v -11.182258 -20.134592 1.227268
v -5.937757 -20.134592 1.227268
v -11.182258 -14.874930 1.227268
v -5.937757 -14.874930 1.227268
v -14.101293 14.085759 1.227268
v -7.135140 14.085759 1.227268
v -14.101293 19.345419 1.227268
v -7.135140 19.345419 1.227268
v -21.163025 6.585042 1.227268
v -14.196872 6.585042 1.227268
v -21.163025 11.844703 1.227268
v -14.196872 11.844703 1.227268
v -23.293331 -2.629830 1.227268
v -18.238298 -2.629830 1.227268
v -23.293331 2.629830 1.227268
v -18.238298 2.629830 1.227268
v -20.179352 -12.984786 1.227268
v -15.124319 -12.984786 1.227268
v -20.179352 -7.725125 1.227268
v -15.124319 -7.725125 1.227268
v 15.981254 -11.237379 1.227268
v 21.163025 -11.237379 1.227268
v 15.981254 -5.977719 1.227268
v 21.163025 -5.977719 1.227268
v 17.681572 -2.629830 1.227268
v 22.863342 -2.629830 1.227268
v 17.681572 2.629830 1.227268
v 22.863342 2.629830 1.227268
v 15.981254 6.900401 1.227268
v 21.163025 6.900401 1.227268
v 15.981254 12.160061 1.227268
v 21.163025 12.160061 1.227268
vt 0.001394 0.628219
vt 0.061239 0.628219
vt 0.061239 0.639964
vt 0.001394 0.639964
vt 0.001394 0.657420
vt 0.061239 0.657420
vt 0.061239 0.686016
vt 0.001394 0.686016
vt 0.110862 0.663590
vt 0.123303 0.663590
vt 0.123303 0.671640
vt 0.110862 0.671640
vt 0.066405 0.674522
vt 0.074142 0.674522
vt 0.074142 0.682572
vt 0.066405 0.682572
vt 0.099108 0.674522
vt 0.106846 0.674522
vt 0.106846 0.682572
vt 0.099108 0.682572
vt 0.107342 0.674522
vt 0.115079 0.674522
vt 0.115079 0.682572
vt 0.107342 0.682572
vt 0.115576 0.674522
vt 0.123313 0.674522
vt 0.123313 0.682572
vt 0.115576 0.682572
vt 0.097141 0.663538
vt 0.109319 0.663538
vt 0.109319 0.671588
vt 0.097141 0.671588
vt 0.083594 0.663538
vt 0.095772 0.663538
vt 0.095772 0.671588
vt 0.083594 0.671588
vt 0.074750 0.663538
vt 0.082273 0.663538
vt 0.082273 0.671588
vt 0.074750 0.671588
vt 0.066557 0.663538
vt 0.074081 0.663538
vt 0.074081 0.671588
vt 0.066557 0.671588
vt 0.090693 0.674481
vt 0.098216 0.674481
vt 0.098216 0.682531
vt 0.090693 0.682531
vt 0.082599 0.674481
vt 0.090122 0.674481
vt 0.090122 0.682531
vt 0.082599 0.682531
vt 0.074574 0.674481
vt 0.082098 0.674481
vt 0.082098 0.682531
vt 0.074574 0.682531
vn 0.000000 0.000000 1.000000
vn 0.000000 0.000000 1.000000
vn 0.000000 0.000000 1.000000
vn 0.000000 0.000000 1.000000
vn 0.000000 0.000000 1.000000
vn 0.000000 0.000000 1.000000
vn 0.000000 0.000000 1.000000
vn 0.000000 0.000000 1.000000
vn 0.000000 0.000000 1.000000
vn 0.000000 0.000000 1.000000
vn 0.000000 0.000000 1.000000
vn 0.000000 0.000000 1.000000
vn 0.000000 0.000000 1.000000
vn 0.000000 0.000000 1.000000
vn 0.000000 0.000000 1.000000
vn 0.000000 0.000000 1.000000
vn 0.000000 0.000000 1.000000
vn 0.000000 0.000000 1.000000
vn 0.000000 0.000000 1.000000
vn 0.000000 0.000000 1.000000
vn 0.000000 0.000000 1.000000
vn 0.000000 0.000000 1.000000
vn 0.000000 0.000000 1.000000
vn 0.000000 0.000000 1.000000
vn 0.000000 0.000000 1.000000
vn 0.000000 0.000000 1.000000
vn 0.000000 0.000000 1.000000
vn 0.000000 0.000000 1.000000
vn 0.000000 0.000000 1.000000
vn 0.000000 0.000000 1.000000
vn 0.000000 0.000000 1.000000
vn 0.000000 0.000000 1.000000
vn 0.000000 0.000000 1.000000
vn 0.000000 0.000000 1.000000
vn 0.000000 0.000000 1.000000
vn 0.000000 0.000000 1.000000
vn 0.000000 0.000000 1.000000
vn 0.000000 0.000000 1.000000
vn 0.000000 0.000000 1.000000
vn 0.000000 0.000000 1.000000
vn 0.000000 0.000000 1.000000
vn 0.000000 0.000000 1.000000
vn 0.000000 0.000000 1.000000
vn 0.000000 0.000000 1.000000
vn 0.000000 0.000000 1.000000
vn 0.000000 0.000000 1.000000
vn 0.000000 0.000000 1.000000
vn 0.000000 0.000000 1.000000
vn 0.000000 0.000000 1.000000
vn 0.000000 0.000000 1.000000
vn 0.000000 0.000000 1.000000
vn 0.000000 0.000000 1.000000
vn 0.000000 0.000000 1.000000
vn 0.000000 0.000000 1.000000
vn 0.000000 0.000000 1.000000
vn 0.000000 0.000000 1.000000
f 1/1/1 2/2/2 3/3/3 4/4/4
f 5/5/5 6/6/6 7/7/7 8/8/8
f 9/9/9 10/10/10 12/11/11 11/12/12
f 13/13/13 14/14/14 16/15/15 15/16/16
f 17/17/17 18/18/18 20/19/19 19/20/20
f 21/21/21 22/22/22 24/23/23 23/24/24
f 25/25/25 26/26/26 28/27/27 27/28/28
f 29/29/29 30/30/30 32/31/31 31/32/32
f 33/33/33 34/34/34 36/35/35 35/36/36
f 37/37/37 38/38/38 40/39/39 39/40/40
f 41/41/41 42/42/42 44/43/43 43/44/44
f 45/45/45 46/46/46 48/47/47 47/48/48
f 49/49/49 50/50/50 52/51/51 51/52/52
f 53/53/53 54/54/54 56/55/55 55/56/56
