# This file uses meters as units for non-parametric coordinates.

v -0.330574 -2.938813 0.882216
v 0.330574 -2.938813 0.882216
v -0.170807 14.111358 0.882216
v 0.170807 14.111358 0.882216
v 0.279731 11.637274 0.882216
v -0.279731 11.637274 0.882216
v -0.717837 11.679783 0.882216
v 0.717837 11.679783 0.882216
v 0.297334 12.783294 0.882216
v -0.297334 12.783294 0.882216
vt 0.524535 0.013243
vt 0.558270 0.013243
vt 0.524535 0.046979
vt 0.558270 0.046979
vt 0.558270 0.044090
vt 0.524535 0.044090
vt 0.524535 0.044153
vt 0.558270 0.044153
vt 0.558270 0.045435
vt 0.524535 0.045435
vn 0.000000 0.000000 1.000000
vn 0.000000 0.000000 1.000000
vn 0.000000 0.000000 1.000000
vn 0.000000 0.000000 1.000000
vn 0.000000 0.000000 1.000000
vn 0.000000 0.000000 1.000000
vn 0.000000 0.000000 1.000000
vn 0.000000 0.000000 1.000000
vn 0.000000 0.000000 1.000000
vn 0.000000 0.000000 1.000000
f 1/1/1 2/2/2 5/5/3 6/6/4
f 7/7/5 8/8/6 9/9/7 10/10/8
f 6/6/4 5/5/3 8/8/6 7/7/5
f 10/10/8 9/9/7 4/4/9 3/3/10
