# This file uses meters as units for non-parametric coordinates.

v 20.121723 6.537946 0.285003
v 17.116562 12.435903 0.285003
v 12.435903 17.116554 0.285003
v 6.537941 20.121723 0.285003
v 0.000000 21.157227 0.285003
v -6.537941 20.121721 0.285003
v -12.435903 17.116554 0.285003
v -17.116554 12.435900 0.285003
v -20.121717 6.537941 0.285003
v -21.157223 0.000000 0.285003
v -20.121717 -6.537941 0.285003
v -17.116554 -12.435900 0.285003
v -12.435900 -17.116545 0.285003
v -6.537941 -20.121716 0.285003
v -0.000001 -21.157223 0.285003
v 6.537939 -20.121712 0.285003
v 12.435900 -17.116545 0.285003
v 17.116545 -12.435900 0.285003
v 20.121712 -6.537939 0.285003
v 21.157219 0.000000 0.285003
v 0.000001 -0.744905 0.285003
v 0.000000 14.153206 0.285003
vt 0.479769 0.930089
vt 0.488403 0.931457
vt 0.486244 0.917145
vt 0.479769 0.930089
vt 0.488403 0.931457
vt 0.479769 0.930089
vt 0.484086 0.916803
vt 0.488403 0.931457
vt 0.486388 0.917168
vt 0.479769 0.930089
vt 0.488403 0.931457
vt 0.479769 0.930089
vt 0.488403 0.931457
vt 0.479769 0.930089
vt 0.488403 0.931457
vt 0.479769 0.930089
vt 0.488403 0.931457
vt 0.479769 0.930089
vt 0.488403 0.931457
vt 0.479769 0.930089
vt 0.488403 0.931457
vt 0.479769 0.930089
vt 0.488403 0.931457
vn 0.000000 0.000000 1.000000
vn 0.000000 0.000000 1.000000
vn -0.000000 -0.000000 1.000000
vn 0.000000 0.000000 1.000000
vn -0.000000 0.000000 1.000000
vn 0.000000 0.000000 1.000000
vn 0.000000 0.000000 1.000000
vn 0.000000 0.000000 1.000000
vn -0.000000 0.000000 1.000000
vn -0.000000 0.000000 1.000000
vn -0.000000 0.000000 1.000000
vn -0.000000 0.000000 1.000000
vn -0.000000 -0.000000 1.000000
vn -0.000000 -0.000000 1.000000
vn 0.000000 -0.000000 1.000000
vn 0.000000 -0.000000 1.000000
vn -0.000000 -0.000000 1.000000
vn -0.000000 -0.000000 1.000000
vn 0.000000 -0.000000 1.000000
vn 0.000000 -0.000000 1.000000
vn 0.000000 -0.000000 1.000000
vn 0.000000 0.000000 1.000000
f 1/1/1 2/2/2 21/3/3
f 2/2/2 3/4/4 21/3/3
f 3/4/4 4/5/5 21/3/3
f 4/5/5 5/6/6 22/7/7 21/3/3
f 5/6/6 6/8/8 21/9/3 22/7/7
f 6/8/8 7/10/9 21/9/3
f 7/10/9 8/11/10 21/9/3
f 8/11/10 9/12/11 21/9/3
f 9/12/11 10/13/12 21/9/3
f 10/13/12 11/14/13 21/9/3
f 11/14/13 12/15/14 21/9/3
f 12/15/14 13/16/15 21/9/3
f 13/16/15 14/17/16 21/9/3
f 14/17/16 15/18/17 21/9/3
f 15/18/17 16/19/18 21/9/3
f 16/19/18 17/20/19 21/9/3
f 17/20/19 18/21/20 21/9/3
f 18/21/20 19/22/21 21/9/3
f 19/22/21 20/23/22 21/9/3
f 20/23/22 1/1/1 21/3/3
