# This file uses meters as units for non-parametric coordinates.

v -2.161087 104.750160 34.991882
v -1.830878 104.419952 34.991882
v -1.830878 104.750160 35.322090
v 1.830878 104.419952 34.991882
v 2.161087 104.750160 34.991882
v 1.830878 104.750160 35.322090
v -1.830878 108.742126 34.991882
v -2.161087 108.411919 34.991882
v -1.830878 108.411919 35.322090
v 2.161087 108.411919 34.991882
v 1.830878 108.742126 34.991882
v 1.830878 108.411919 35.322090
v -1.830878 108.411919 34.001122
v -2.161087 108.411919 34.331329
v -1.830878 108.742126 34.331329
v 2.161087 108.411919 34.331329
v 1.830878 108.411919 34.001122
v 1.830878 108.742126 34.331329
v -1.830878 104.419952 34.331329
v -2.161087 104.750160 34.331329
v -1.830878 104.750160 34.001122
v 2.161087 104.750160 34.331329
v 1.830878 104.419952 34.331329
v 1.830878 104.750160 34.001122
v -0.669113 107.417412 34.282749
v -0.836371 107.250153 34.282749
v -0.836371 107.250153 32.235348
v -0.669113 107.417412 32.235348
v 0.836371 107.250153 34.282749
v 0.669113 107.417412 34.282749
v 0.669113 107.417412 32.235348
v 0.836371 107.250153 32.235348
v -0.836371 105.911919 34.282749
v -0.669113 105.744659 34.282749
v -0.669113 105.744659 32.235348
v -0.836371 105.911919 32.235348
v 0.669113 105.744659 34.282749
v 0.836371 105.911919 34.282749
v 0.836371 105.911919 32.235348
v 0.669113 105.744659 32.235348
vt 0.397054 0.793326
vt 0.386845 0.804876
vt 0.394424 0.804876
vt 0.394424 0.790350
vt 0.386845 0.790350
vt 0.386845 0.804876
vt 0.384215 0.793326
vt 0.383057 0.793326
vt 0.383057 0.801900
vt 0.386845 0.790350
vt 0.398212 0.793326
vt 0.398212 0.801900
vt 0.397054 0.790350
vt 0.383057 0.801900
vt 0.383057 0.793326
vt 0.384215 0.801900
vt 0.397054 0.804876
vt 0.397054 0.801900
vt 0.398212 0.801900
vt 0.383057 0.790350
vt 0.384215 0.790350
vt 0.397054 0.793326
vt 0.397054 0.790350
vt 0.398212 0.790350
vt 0.398212 0.804876
vt 0.384215 0.801900
vt 0.397054 0.804876
vt 0.384215 0.789040
vt 0.384215 0.790350
vt 0.397054 0.789040
vt 0.394424 0.790350
vt 0.384215 0.804876
vt 0.394424 0.804876
vt 0.384215 0.793326
vt 0.398212 0.793326
vt 0.383057 0.804876
vt 0.384215 0.804876
vt 0.397054 0.801900
vt 0.384572 0.789040
vt 0.384572 0.806186
vt 0.396697 0.806186
vt 0.396697 0.789040
vt 0.384572 0.789040
vt 0.384572 0.806186
vt 0.396697 0.806186
vt 0.396697 0.789040
vt 0.398212 0.790754
vt 0.383057 0.790754
vt 0.383057 0.804471
vt 0.398212 0.804471
vt 0.398212 0.790754
vt 0.383057 0.790754
vt 0.383057 0.804471
vt 0.398212 0.804471
vt 0.383057 0.806186
vt 0.383057 0.789040
vt 0.398212 0.806186
vt 0.398212 0.789040
vt 0.383057 0.789040
vt 0.383057 0.806186
vt 0.398212 0.789040
vt 0.398212 0.806186
vn 0.000000 -1.000000 0.000000
vn 0.000000 -1.000000 0.000000
vn 0.000000 -1.000000 0.000000
vn 0.000000 -1.000000 0.000000
vn 0.000000 0.000000 1.000000
vn 0.000000 0.000000 1.000000
vn 0.000000 0.000000 1.000000
vn 0.000000 0.000000 1.000000
vn -1.000000 0.000000 0.000000
vn -1.000000 0.000000 0.000000
vn -1.000000 0.000000 0.000000
vn -1.000000 0.000000 0.000000
vn 1.000000 0.000000 0.000000
vn 1.000000 0.000000 0.000000
vn 1.000000 0.000000 0.000000
vn 1.000000 0.000000 0.000000
vn 0.000000 1.000000 0.000000
vn 0.000000 1.000000 0.000000
vn 0.000000 1.000000 0.000000
vn 0.000000 1.000000 0.000000
vn 0.000000 0.000000 -1.000000
vn 0.000000 0.000000 -1.000000
vn 0.000000 0.000000 -1.000000
vn 0.000000 0.000000 -1.000000
vn -0.707105 -0.707108 0.000000
vn -0.707105 -0.707108 0.000000
vn -0.707105 -0.707108 0.000000
vn -0.707105 -0.707108 0.000000
vn 0.000000 -0.707108 0.707106
vn 0.000000 -0.707108 0.707106
vn 0.000000 -0.707108 0.707106
vn 0.000000 -0.707108 0.707106
vn -0.707103 0.000000 0.707110
vn -0.707103 0.000000 0.707110
vn -0.707103 0.000000 0.707110
vn -0.707103 0.000000 0.707110
vn 0.707105 -0.707108 0.000000
vn 0.707105 -0.707108 0.000000
vn 0.707105 -0.707108 0.000000
vn 0.707105 -0.707108 0.000000
vn 0.707103 0.000000 0.707110
vn 0.707103 0.000000 0.707110
vn 0.707103 0.000000 0.707110
vn 0.707103 0.000000 0.707110
vn -0.707105 0.707108 0.000000
vn -0.707105 0.707108 0.000000
vn -0.707105 0.707108 0.000000
vn -0.707105 0.707108 0.000000
vn 0.000000 0.707099 0.707115
vn 0.000000 0.707099 0.707115
vn 0.000000 0.707099 0.707115
vn 0.000000 0.707099 0.707115
vn 0.707105 0.707108 0.000000
vn 0.707105 0.707108 0.000000
vn 0.707105 0.707108 0.000000
vn 0.707105 0.707108 0.000000
vn -0.707106 0.000000 -0.707108
vn -0.707106 0.000000 -0.707108
vn -0.707106 0.000000 -0.707108
vn -0.707106 0.000000 -0.707108
vn 0.000000 0.707099 -0.707115
vn 0.000000 0.707099 -0.707115
vn 0.000000 0.707099 -0.707115
vn 0.000000 0.707099 -0.707115
vn 0.707106 0.000000 -0.707108
vn 0.707106 0.000000 -0.707108
vn 0.707106 0.000000 -0.707108
vn 0.707106 0.000000 -0.707108
vn 0.000000 -0.707108 -0.707106
vn 0.000000 -0.707108 -0.707106
vn 0.000000 -0.707108 -0.707106
vn 0.000000 -0.707108 -0.707106
vn -0.577347 -0.577347 0.577357
vn -0.577347 -0.577347 0.577357
vn -0.577347 -0.577347 0.577357
vn 0.577347 -0.577347 0.577357
vn 0.577347 -0.577347 0.577357
vn 0.577347 -0.577347 0.577357
vn -0.577347 0.577347 0.577357
vn -0.577347 0.577347 0.577357
vn -0.577347 0.577347 0.577357
vn 0.577347 0.577347 0.577357
vn 0.577347 0.577347 0.577357
vn 0.577347 0.577347 0.577357
vn -0.577347 0.577347 -0.577357
vn -0.577347 0.577347 -0.577357
vn -0.577347 0.577347 -0.577357
vn 0.577347 0.577347 -0.577357
vn 0.577347 0.577347 -0.577357
vn 0.577347 0.577347 -0.577357
vn -0.577347 -0.577347 -0.577357
vn -0.577347 -0.577347 -0.577357
vn -0.577347 -0.577347 -0.577357
vn 0.577347 -0.577347 -0.577357
vn 0.577347 -0.577347 -0.577357
vn 0.577347 -0.577347 -0.577357
vn 0.000000 1.000000 0.000000
vn 0.000000 1.000000 0.000000
vn 0.000000 1.000000 0.000000
vn 0.000000 1.000000 0.000000
vn 0.000000 -1.000000 0.000000
vn 0.000000 -1.000000 0.000000
vn 0.000000 -1.000000 0.000000
vn 0.000000 -1.000000 0.000000
vn 1.000000 0.000000 0.000000
vn 1.000000 0.000000 0.000000
vn 1.000000 0.000000 0.000000
vn 1.000000 0.000000 0.000000
vn -1.000000 0.000000 0.000000
vn -1.000000 0.000000 0.000000
vn -1.000000 0.000000 0.000000
vn -1.000000 0.000000 0.000000
vn -0.707111 0.707103 0.000000
vn -0.707111 0.707103 0.000000
vn -0.707111 0.707103 0.000000
vn -0.707111 0.707103 0.000000
vn 0.707111 0.707103 0.000000
vn 0.707111 0.707103 0.000000
vn 0.707111 0.707103 0.000000
vn 0.707111 0.707103 0.000000
vn -0.707111 -0.707103 0.000000
vn -0.707111 -0.707103 0.000000
vn -0.707111 -0.707103 0.000000
vn -0.707111 -0.707103 0.000000
vn 0.707111 -0.707103 0.000000
vn 0.707111 -0.707103 0.000000
vn 0.707111 -0.707103 0.000000
vn 0.707111 -0.707103 0.000000
f 19/26/1 23/38/2 4/1/3 2/7/4
f 6/13/5 12/17/6 9/32/7 3/29/8
f 8/2/9 14/3/10 20/4/11 1/10/12
f 22/5/13 16/6/14 10/33/15 5/31/16
f 11/18/17 18/22/18 15/34/19 7/16/20
f 17/23/21 24/27/22 21/37/23 13/21/24
f 2/7/25 1/8/26 20/9/27 19/26/28
f 3/29/29 2/28/30 4/30/31 6/13/32
f 1/10/33 3/29/34 9/32/35 8/2/36
f 5/11/37 4/1/38 23/38/39 22/12/40
f 6/13/41 5/31/42 10/33/43 12/17/44
f 8/14/45 7/16/46 15/34/47 14/15/48
f 7/16/49 9/32/50 12/17/51 11/18/52
f 11/18/53 10/19/54 16/35/55 18/22/56
f 14/20/57 13/21/58 21/37/59 20/36/60
f 13/21/61 15/34/62 18/22/63 17/23/64
f 17/23/65 16/24/66 22/25/67 24/27/68
f 19/26/69 21/37/70 24/27/71 23/38/72
f 1/10/73 2/28/74 3/29/75
f 4/30/76 5/31/77 6/13/78
f 7/16/79 8/2/80 9/32/81
f 10/33/82 11/18/83 12/17/84
f 13/21/85 14/15/86 15/34/87
f 16/35/88 17/23/89 18/22/90
f 19/26/91 20/36/92 21/37/93
f 22/25/94 23/38/95 24/27/96
f 28/39/97 25/40/98 30/41/99 31/42/100
f 34/43/101 35/44/102 40/45/103 37/46/104
f 38/47/105 39/48/106 32/49/107 29/50/108
f 36/51/109 33/52/110 26/53/111 27/54/112
f 26/55/113 25/40/114 28/39/115 27/56/116
f 30/41/117 29/57/118 32/58/119 31/42/120
f 34/43/121 33/59/122 36/60/123 35/44/124
f 38/61/125 37/46/126 40/45/127 39/62/128
