# This file uses meters as units for non-parametric coordinates.

v -90.536377 134.344376 -26.860907
v -89.878166 133.686172 -26.860907
v -89.878166 134.344376 -26.202700
v -73.754494 133.686172 -26.860907
v -73.096283 134.344376 -26.860907
v -73.754494 134.344376 -26.202700
v -89.878166 282.949615 -26.860907
v -90.536377 282.291412 -26.860907
v -89.878166 282.291412 -26.202700
v -73.096283 282.291412 -26.860907
v -73.754494 282.949615 -26.860907
v -73.754494 282.291412 -26.202700
v -89.878166 282.291412 -28.835794
v -90.536377 282.291412 -28.177588
v -89.878166 282.949615 -28.177588
v -73.096283 282.291412 -28.177588
v -73.754494 282.291412 -28.835794
v -73.754494 282.949615 -28.177588
v -89.878166 133.686172 -28.177588
v -90.536377 134.344376 -28.177588
v -89.878166 134.344376 -28.835794
v -73.096283 134.344376 -28.177588
v -73.754494 133.686172 -28.177588
v -73.754494 134.344376 -28.835794
v 89.878166 133.686172 -26.860907
v 90.536377 134.344376 -26.860907
v 89.878166 134.344376 -26.202698
v 73.096283 134.344376 -26.860907
v 73.754494 133.686172 -26.860907
v 73.754494 134.344376 -26.202698
v 90.536377 282.291412 -26.860907
v 89.878166 282.949615 -26.860907
v 89.878166 282.291412 -26.202698
v 73.754494 282.949615 -26.860907
v 73.096283 282.291412 -26.860907
v 73.754494 282.291412 -26.202698
v 90.536377 282.291412 -28.177586
v 89.878166 282.291412 -28.835794
v 89.878166 282.949615 -28.177586
v 73.754494 282.291412 -28.835794
v 73.096283 282.291412 -28.177586
v 73.754494 282.949615 -28.177586
v 90.536377 134.344376 -28.177586
v 89.878166 133.686172 -28.177586
v 89.878166 134.344376 -28.835794
v 73.754494 133.686172 -28.177586
v 73.096283 134.344376 -28.177586
v 73.754494 134.344376 -28.835794
vt 0.331920 0.806139
vt 0.320272 0.794679
vt 0.320272 0.802725
vt 0.335757 0.802727
vt 0.335757 0.794680
vt 0.320272 0.794679
vt 0.331920 0.791264
vt 0.331920 0.790656
vt 0.324108 0.790656
vt 0.335757 0.794680
vt 0.331920 0.806747
vt 0.324108 0.806747
vt 0.335756 0.806139
vt 0.324108 0.790656
vt 0.331920 0.790656
vt 0.324108 0.791264
vt 0.320272 0.806139
vt 0.324108 0.806139
vt 0.324108 0.806747
vt 0.335756 0.790656
vt 0.335756 0.791264
vt 0.331920 0.806139
vt 0.335756 0.806139
vt 0.335756 0.806747
vt 0.320272 0.806747
vt 0.324108 0.791264
vt 0.320272 0.806139
vt 0.335824 0.791264
vt 0.335756 0.791264
vt 0.335824 0.806139
vt 0.335757 0.802727
vt 0.320272 0.791264
vt 0.320272 0.802725
vt 0.331920 0.791264
vt 0.331920 0.806747
vt 0.320272 0.790656
vt 0.320272 0.791264
vt 0.324108 0.806139
vt 0.335756 0.802725
vt 0.320272 0.802725
vt 0.320272 0.794679
vt 0.335756 0.794679
vt 0.320272 0.791264
vt 0.320272 0.806139
vt 0.335756 0.806139
vt 0.335756 0.791264
vt 0.331920 0.806139
vt 0.324108 0.806139
vt 0.324108 0.791264
vt 0.331920 0.791264
vt 0.320272 0.802725
vt 0.320272 0.794679
vt 0.335756 0.794679
vt 0.335756 0.802725
vt 0.331920 0.791264
vt 0.331920 0.806139
vt 0.324108 0.806139
vt 0.324108 0.791264
vt 0.320272 0.791264
vt 0.320272 0.806139
vt 0.335756 0.806139
vt 0.335756 0.791264
vt 0.331920 0.790656
vt 0.324108 0.790656
vt 0.335824 0.791264
vt 0.335824 0.806139
vt 0.331920 0.806747
vt 0.324108 0.806747
vt 0.324108 0.790656
vt 0.331920 0.790656
vt 0.324108 0.806747
vt 0.331920 0.806747
vt 0.335756 0.790656
vt 0.320272 0.790656
vt 0.335756 0.806747
vt 0.320272 0.806747
vn 0.000000 -1.000000 0.000000
vn 0.000000 -1.000000 0.000000
vn 0.000000 -1.000000 0.000000
vn 0.000000 -1.000000 0.000000
vn 0.000000 0.000000 1.000000
vn 0.000000 0.000000 1.000000
vn 0.000000 0.000000 1.000000
vn 0.000000 0.000000 1.000000
vn -1.000000 0.000000 0.000000
vn -1.000000 0.000000 0.000000
vn -1.000000 0.000000 0.000000
vn -1.000000 0.000000 0.000000
vn 1.000000 0.000000 0.000000
vn 1.000000 0.000000 0.000000
vn 1.000000 0.000000 0.000000
vn 1.000000 0.000000 0.000000
vn 0.000000 1.000000 0.000000
vn 0.000000 1.000000 0.000000
vn 0.000000 1.000000 0.000000
vn 0.000000 1.000000 0.000000
vn 0.000000 0.000000 -1.000000
vn 0.000000 0.000000 -1.000000
vn 0.000000 0.000000 -1.000000
vn 0.000000 0.000000 -1.000000
vn -0.707102 -0.707111 0.000000
vn -0.707102 -0.707111 0.000000
vn -0.707102 -0.707111 0.000000
vn -0.707102 -0.707111 0.000000
vn 0.000000 -0.707104 0.707109
vn 0.000000 -0.707104 0.707109
vn 0.000000 -0.707104 0.707109
vn 0.000000 -0.707104 0.707109
vn -0.707104 0.000000 0.707109
vn -0.707104 0.000000 0.707109
vn -0.707104 0.000000 0.707109
vn -0.707104 0.000000 0.707109
vn 0.707102 -0.707111 0.000000
vn 0.707102 -0.707111 0.000000
vn 0.707102 -0.707111 0.000000
vn 0.707102 -0.707111 0.000000
vn 0.707104 0.000000 0.707109
vn 0.707104 0.000000 0.707109
vn 0.707104 0.000000 0.707109
vn 0.707104 0.000000 0.707109
vn -0.707102 0.707111 0.000000
vn -0.707102 0.707111 0.000000
vn -0.707102 0.707111 0.000000
vn -0.707102 0.707111 0.000000
vn 0.000000 0.707104 0.707109
vn 0.000000 0.707104 0.707109
vn 0.000000 0.707104 0.707109
vn 0.000000 0.707104 0.707109
vn 0.707102 0.707111 0.000000
vn 0.707102 0.707111 0.000000
vn 0.707102 0.707111 0.000000
vn 0.707102 0.707111 0.000000
vn -0.707105 0.000000 -0.707108
vn -0.707105 0.000000 -0.707108
vn -0.707105 0.000000 -0.707108
vn -0.707105 0.000000 -0.707108
vn 0.000000 0.707104 -0.707109
vn 0.000000 0.707104 -0.707109
vn 0.000000 0.707104 -0.707109
vn 0.000000 0.707104 -0.707109
vn 0.707105 0.000000 -0.707108
vn 0.707105 0.000000 -0.707108
vn 0.707105 0.000000 -0.707108
vn 0.707105 0.000000 -0.707108
vn 0.000000 -0.707104 -0.707109
vn 0.000000 -0.707104 -0.707109
vn 0.000000 -0.707104 -0.707109
vn 0.000000 -0.707104 -0.707109
vn -0.577350 -0.577360 0.577340
vn -0.577350 -0.577360 0.577340
vn -0.577350 -0.577360 0.577340
vn 0.577350 -0.577360 0.577340
vn 0.577350 -0.577360 0.577340
vn 0.577350 -0.577360 0.577340
vn -0.577350 0.577360 0.577340
vn -0.577350 0.577360 0.577340
vn -0.577350 0.577360 0.577340
vn 0.577350 0.577360 0.577340
vn 0.577350 0.577360 0.577340
vn 0.577350 0.577360 0.577340
vn -0.577350 0.577360 -0.577340
vn -0.577350 0.577360 -0.577340
vn -0.577350 0.577360 -0.577340
vn 0.577350 0.577360 -0.577340
vn 0.577350 0.577360 -0.577340
vn 0.577350 0.577360 -0.577340
vn -0.577350 -0.577360 -0.577340
vn -0.577350 -0.577360 -0.577340
vn -0.577350 -0.577360 -0.577340
vn 0.577350 -0.577360 -0.577340
vn 0.577350 -0.577360 -0.577340
vn 0.577350 -0.577360 -0.577340
vn 1.000000 0.000000 0.000000
vn 1.000000 0.000000 0.000000
vn 1.000000 0.000000 0.000000
vn 1.000000 0.000000 0.000000
vn 0.000000 0.000000 1.000000
vn 0.000000 0.000000 1.000000
vn 0.000000 0.000000 1.000000
vn 0.000000 0.000000 1.000000
vn 0.000000 -1.000000 0.000000
vn 0.000000 -1.000000 0.000000
vn 0.000000 -1.000000 0.000000
vn 0.000000 -1.000000 0.000000
vn -1.000000 0.000000 0.000000
vn -1.000000 0.000000 0.000000
vn -1.000000 0.000000 0.000000
vn -1.000000 0.000000 0.000000
vn 0.000000 1.000000 0.000000
vn 0.000000 1.000000 0.000000
vn 0.000000 1.000000 0.000000
vn 0.000000 1.000000 0.000000
vn 0.000000 0.000000 -1.000000
vn 0.000000 0.000000 -1.000000
vn 0.000000 0.000000 -1.000000
vn 0.000000 0.000000 -1.000000
vn 0.707102 -0.707111 0.000000
vn 0.707102 -0.707111 0.000000
vn 0.707102 -0.707111 0.000000
vn 0.707102 -0.707111 0.000000
vn 0.707105 0.000000 0.707108
vn 0.707105 0.000000 0.707108
vn 0.707105 0.000000 0.707108
vn 0.707105 0.000000 0.707108
vn 0.000000 -0.707105 0.707108
vn 0.000000 -0.707105 0.707108
vn 0.000000 -0.707105 0.707108
vn 0.000000 -0.707105 0.707108
vn -0.707102 -0.707111 0.000000
vn -0.707102 -0.707111 0.000000
vn -0.707102 -0.707111 0.000000
vn -0.707102 -0.707111 0.000000
vn -0.707105 0.000000 0.707108
vn -0.707105 0.000000 0.707108
vn -0.707105 0.000000 0.707108
vn -0.707105 0.000000 0.707108
vn 0.707102 0.707111 0.000000
vn 0.707102 0.707111 0.000000
vn 0.707102 0.707111 0.000000
vn 0.707102 0.707111 0.000000
vn 0.000000 0.707105 0.707108
vn 0.000000 0.707105 0.707108
vn 0.000000 0.707105 0.707108
vn 0.000000 0.707105 0.707108
vn -0.707102 0.707111 0.000000
vn -0.707102 0.707111 0.000000
vn -0.707102 0.707111 0.000000
vn -0.707102 0.707111 0.000000
vn 0.707105 0.000000 -0.707108
vn 0.707105 0.000000 -0.707108
vn 0.707105 0.000000 -0.707108
vn 0.707105 0.000000 -0.707108
vn 0.000000 0.707105 -0.707108
vn 0.000000 0.707105 -0.707108
vn 0.000000 0.707105 -0.707108
vn 0.000000 0.707105 -0.707108
vn -0.707105 0.000000 -0.707108
vn -0.707105 0.000000 -0.707108
vn -0.707105 0.000000 -0.707108
vn -0.707105 0.000000 -0.707108
vn 0.000000 -0.707105 -0.707108
vn 0.000000 -0.707105 -0.707108
vn 0.000000 -0.707105 -0.707108
vn 0.000000 -0.707105 -0.707108
vn 0.577350 -0.577360 0.577340
vn 0.577350 -0.577360 0.577340
vn 0.577350 -0.577360 0.577340
vn -0.577350 -0.577360 0.577340
vn -0.577350 -0.577360 0.577340
vn -0.577350 -0.577360 0.577340
vn 0.577350 0.577360 0.577340
vn 0.577350 0.577360 0.577340
vn 0.577350 0.577360 0.577340
vn -0.577350 0.577360 0.577340
vn -0.577350 0.577360 0.577340
vn -0.577350 0.577360 0.577340
vn 0.577350 0.577360 -0.577340
vn 0.577350 0.577360 -0.577340
vn 0.577350 0.577360 -0.577340
vn -0.577350 0.577360 -0.577340
vn -0.577350 0.577360 -0.577340
vn -0.577350 0.577360 -0.577340
vn 0.577350 -0.577360 -0.577340
vn 0.577350 -0.577360 -0.577340
vn 0.577350 -0.577360 -0.577340
vn -0.577350 -0.577360 -0.577340
vn -0.577350 -0.577360 -0.577340
vn -0.577350 -0.577360 -0.577340
f 19/26/1 23/38/2 4/1/3 2/7/4
f 6/13/5 12/17/6 9/32/7 3/29/8
f 8/2/9 14/3/10 20/4/11 1/10/12
f 22/5/13 16/6/14 10/33/15 5/31/16
f 11/18/17 18/22/18 15/34/19 7/16/20
f 17/23/21 24/27/22 21/37/23 13/21/24
f 2/7/25 1/8/26 20/9/27 19/26/28
f 3/29/29 2/28/30 4/30/31 6/13/32
f 1/10/33 3/29/34 9/32/35 8/2/36
f 5/11/37 4/1/38 23/38/39 22/12/40
f 6/13/41 5/31/42 10/33/43 12/17/44
f 8/14/45 7/16/46 15/34/47 14/15/48
f 7/16/49 9/32/50 12/17/51 11/18/52
f 11/18/53 10/19/54 16/35/55 18/22/56
f 14/20/57 13/21/58 21/37/59 20/36/60
f 13/21/61 15/34/62 18/22/63 17/23/64
f 17/23/65 16/24/66 22/25/67 24/27/68
f 19/26/69 21/37/70 24/27/71 23/38/72
f 1/10/73 2/28/74 3/29/75
f 4/30/76 5/31/77 6/13/78
f 7/16/79 8/2/80 9/32/81
f 10/33/82 11/18/83 12/17/84
f 13/21/85 14/15/86 15/34/87
f 16/35/88 17/23/89 18/22/90
f 19/26/91 20/36/92 21/37/93
f 22/25/94 23/38/95 24/27/96
f 43/39/97 37/40/98 31/41/99 26/42/100
f 33/43/101 36/44/102 30/45/103 27/46/104
f 29/47/105 46/48/106 44/49/107 25/50/108
f 35/51/109 41/52/110 47/53/111 28/54/112
f 39/55/113 42/56/114 34/57/115 32/58/116
f 45/59/117 48/60/118 40/61/119 38/62/120
f 26/63/121 25/50/122 44/49/123 43/64/124
f 27/46/125 26/42/126 31/41/127 33/43/128
f 25/65/129 27/46/130 30/45/131 29/66/132
f 29/47/133 28/67/134 47/68/135 46/48/136
f 28/54/137 30/45/138 36/44/139 35/51/140
f 32/58/141 31/69/142 37/70/143 39/55/144
f 33/43/145 32/58/146 34/57/147 36/44/148
f 35/71/149 34/57/150 42/56/151 41/72/152
f 38/62/153 37/73/154 43/74/155 45/59/156
f 39/55/157 38/62/158 40/61/159 42/56/160
f 41/75/161 40/61/162 48/60/163 47/76/164
f 45/59/165 44/49/166 46/48/167 48/60/168
f 25/65/169 26/42/170 27/46/171
f 28/54/172 29/66/173 30/45/174
f 31/41/175 32/58/176 33/43/177
f 34/57/178 35/51/179 36/44/180
f 37/70/181 38/62/182 39/55/183
f 40/61/184 41/72/185 42/56/186
f 43/74/187 44/49/188 45/59/189
f 46/48/190 47/76/191 48/60/192
