# This file uses meters as units for non-parametric coordinates.

v -76.234407 91.840387 40.822361
v -76.234407 91.840387 -27.128374
v 76.234396 91.840387 40.822361
v 76.234396 91.840387 -27.128374
v -78.286837 120.225603 -29.370823
v -78.081621 120.430818 -29.165600
v 78.286833 120.225603 -29.370823
v 78.081610 120.430818 -29.165600
v -76.234407 120.225603 40.822361
v -76.439631 120.430818 40.822361
v -76.234407 120.225603 -27.128378
v -76.439631 120.430818 -27.333601
v -78.081621 120.430818 40.822361
v -78.286837 120.225603 40.822361
v 78.286833 120.225603 40.822361
v 78.081610 120.430818 40.822361
v 76.439627 120.430818 40.822361
v 76.234396 120.225603 40.822361
v 76.234396 120.225603 -27.128378
v 76.439627 120.430818 -27.333601
v -78.286837 90.048540 40.822361
v -77.843660 89.605371 40.822361
v -77.843660 89.605371 -28.927643
v -78.286837 90.048540 -29.370819
v 77.843649 89.605371 40.822361
v 78.286825 90.048540 40.822361
v 77.843649 89.605371 -28.927643
v 78.286825 90.048540 -29.370819
v -78.771296 121.952333 40.822357
v 78.771292 121.952333 40.822357
v -78.771296 88.564111 40.822357
v 78.771292 88.564111 40.822357
v -78.303133 89.032274 42.695198
v -78.771296 88.564111 42.227036
v 78.303137 89.032274 42.695198
v 78.771292 88.564111 42.227036
v -78.303133 121.484163 42.695198
v -78.771296 121.952333 42.227036
v 78.303137 121.484163 42.695198
v 78.771292 121.952333 42.227036
vt 0.383969 0.868052
vt 0.383969 0.855820
vt 0.396501 0.868052
vt 0.396501 0.855820
vt 0.383616 0.855279
vt 0.383616 0.868052
vt 0.383616 0.867934
vt 0.383678 0.868052
vt 0.396853 0.868052
vt 0.383933 0.868052
vt 0.383969 0.868052
vt 0.383969 0.855820
vt 0.396453 0.855624
vt 0.396453 0.855624
vt 0.396501 0.868052
vt 0.396501 0.855820
vt 0.383652 0.868052
vt 0.383933 0.855759
vt 0.396536 0.868052
vt 0.396818 0.868052
vt 0.396818 0.855221
vt 0.396453 0.855747
vt 0.384123 0.855747
vt 0.384123 0.867633
vt 0.396453 0.867633
vt 0.384123 0.855747
vt 0.396453 0.855747
vt 0.384123 0.867633
vt 0.396453 0.867633
vt 0.383652 0.855221
vt 0.396536 0.855759
vt 0.383692 0.855161
vt 0.383616 0.855161
vt 0.396853 0.855161
vt 0.396853 0.867797
vt 0.396777 0.867922
vt 0.383692 0.867922
vt 0.396777 0.855161
vt 0.383616 0.867797
vt 0.396853 0.867934
vt 0.396853 0.855416
vt 0.383616 0.855416
vt 0.396853 0.855416
vt 0.383616 0.855416
vt 0.383616 0.867934
vt 0.396853 0.867934
vt 0.396853 0.855279
vt 0.383616 0.855161
vt 0.396853 0.855161
vt 0.396853 0.868052
vt 0.383616 0.868052
vt 0.383696 0.855461
vt 0.386925 0.855161
vt 0.393544 0.855161
vt 0.396774 0.855461
vt 0.383696 0.867751
vt 0.383616 0.864830
vt 0.393544 0.868052
vt 0.396774 0.867751
vt 0.396853 0.864830
vt 0.396853 0.858383
vt 0.383616 0.858383
vt 0.383616 0.855161
vt 0.383616 0.868052
vt 0.396853 0.855161
vt 0.386925 0.868052
vt 0.396853 0.868052
vn 0.000000 1.000000 0.000000
vn 0.000000 1.000000 0.000000
vn 0.000000 1.000000 0.000000
vn 0.000000 1.000000 0.000000
vn 0.000000 0.707113 -0.707101
vn 0.000000 0.707113 -0.707100
vn 0.000000 0.707113 -0.707100
vn 0.000000 0.707113 -0.707101
vn -0.707104 0.707110 0.000000
vn -0.707104 0.707110 0.000000
vn -0.707104 0.707110 0.000000
vn -0.707104 0.707110 0.000000
vn 0.707092 0.707122 0.000000
vn 0.707092 0.707122 0.000000
vn 0.707092 0.707122 0.000000
vn 0.707092 0.707122 0.000000
vn 0.707089 0.707125 0.000000
vn 0.707089 0.707125 0.000000
vn 0.707089 0.707125 0.000000
vn 0.707089 0.707125 0.000000
vn 0.000000 0.707109 0.707105
vn 0.000000 0.707109 0.707105
vn 0.000000 0.707109 0.707105
vn 0.000000 0.707109 0.707105
vn -0.707089 0.707125 0.000000
vn -0.707089 0.707125 0.000000
vn -0.707089 0.707125 0.000000
vn -0.707089 0.707125 0.000000
vn 0.000000 1.000000 0.000001
vn 0.000000 1.000000 0.000000
vn 0.000000 1.000000 0.000000
vn 0.000000 1.000000 0.000001
vn 0.000000 1.000000 0.000001
vn 0.000000 1.000000 0.000000
vn 0.000000 1.000000 0.000000
vn 0.000000 1.000000 0.000001
vn 0.000000 0.000000 1.000000
vn 0.000000 0.000000 1.000000
vn 0.000000 0.000000 1.000000
vn 0.000000 0.000000 1.000000
vn 1.000000 -0.000000 0.000000
vn 1.000000 -0.000000 0.000000
vn 1.000000 -0.000000 0.000000
vn 1.000000 -0.000000 0.000000
vn -1.000000 -0.000000 0.000000
vn -1.000000 -0.000000 0.000000
vn -1.000000 -0.000000 0.000000
vn -1.000000 -0.000000 0.000000
vn -0.707101 -0.707113 0.000000
vn -0.707101 -0.707113 0.000000
vn -0.707101 -0.707113 0.000000
vn -0.707101 -0.707113 0.000000
vn 0.000000 -0.707112 -0.707102
vn 0.000000 -0.707112 -0.707102
vn 0.000000 -0.707112 -0.707102
vn 0.000000 -0.707112 -0.707102
vn 0.707106 -0.707107 0.000000
vn 0.707106 -0.707107 0.000000
vn 0.707106 -0.707107 0.000000
vn 0.707106 -0.707107 0.000000
vn 0.000000 -1.000000 0.000000
vn 0.000000 -1.000000 0.000000
vn 0.000000 -1.000000 0.000000
vn 0.000000 -1.000000 0.000000
vn 0.000000 -0.000000 -1.000000
vn 0.000000 -0.000000 -1.000000
vn 0.000000 -0.000000 -1.000000
vn 0.000000 -0.000000 -1.000000
vn 1.000000 -0.000001 0.000000
vn 1.000000 -0.000001 0.000000
vn 1.000000 -0.000001 0.000000
vn 1.000000 -0.000001 0.000000
vn -1.000000 -0.000000 0.000000
vn -1.000000 -0.000000 0.000000
vn -1.000000 -0.000000 0.000000
vn -1.000000 -0.000000 0.000000
vn 0.000000 0.000000 -1.000000
vn 0.000000 0.000000 -1.000000
vn 0.000000 0.000000 -1.000000
vn 0.000000 0.000000 -1.000000
vn 0.000000 -0.707108 0.707106
vn 0.000000 -0.707108 0.707106
vn 0.000000 -0.707108 0.707106
vn 0.000000 -0.707108 0.707106
vn -0.707108 0.000000 0.707106
vn -0.707108 0.000000 0.707106
vn -0.707108 0.000000 0.707106
vn -0.707108 0.000000 0.707106
vn 0.707114 0.000000 0.707100
vn 0.707114 0.000000 0.707100
vn 0.707114 0.000000 0.707100
vn 0.707114 0.000000 0.707100
vn 0.000000 0.707103 0.707110
vn 0.000000 0.707103 0.707110
vn 0.000000 0.707103 0.707110
vn 0.000000 0.707103 0.707110
vn 0.000000 0.000000 1.000000
vn 0.000000 0.000000 1.000000
vn 0.000000 0.000000 1.000000
vn 0.000000 0.000000 1.000000
vn 0.000000 1.000000 0.000000
vn 0.000000 1.000000 0.000000
vn 0.000000 1.000000 0.000000
vn 0.000000 1.000000 0.000000
vn 0.000000 -1.000000 0.000000
vn 0.000000 -1.000000 0.000000
vn 0.000000 -1.000000 0.000000
vn 0.000000 -1.000000 0.000000
vn 1.000000 0.000000 0.000000
vn 1.000000 0.000000 0.000000
vn 1.000000 0.000000 0.000000
vn 1.000000 0.000000 0.000000
vn -1.000000 0.000000 0.000000
vn -1.000000 0.000000 0.000000
vn -1.000000 0.000000 0.000000
vn -1.000000 0.000000 0.000000
f 2/2/1 1/1/2 3/3/3 4/4/4
f 5/5/5 6/30/6 8/21/7 7/47/8
f 6/30/9 5/5/10 14/6/11 13/17/12
f 7/7/13 8/8/14 16/9/15 15/40/16
f 10/10/17 9/11/18 11/12/19 12/18/20
f 12/13/21 11/22/22 19/27/23 20/14/24
f 18/15/25 17/19/26 20/31/27 19/16/28
f 6/30/29 13/17/30 10/10/31 12/18/32
f 20/31/33 17/19/34 16/20/35 8/21/36
f 19/27/37 11/22/38 2/25/39 4/29/40
f 11/22/41 9/23/42 1/24/43 2/25/44
f 18/26/45 19/27/46 4/29/47 3/28/48
f 8/21/36 6/30/29 12/18/32 20/31/33
f 22/32/49 21/33/50 24/39/51 23/37/52
f 23/37/53 24/39/54 28/35/55 27/36/56
f 26/34/57 25/38/58 27/36/59 28/35/60
f 25/38/61 22/32/62 23/37/63 27/36/64
f 28/35/65 24/39/66 5/5/67 7/47/68
f 7/7/69 15/40/70 26/41/71 28/42/72
f 24/43/73 21/44/74 14/45/75 5/46/76
f 29/48/77 30/49/78 32/50/79 31/51/80
f 33/52/81 34/53/82 36/54/83 35/55/84
f 34/53/85 33/52/86 37/56/87 38/57/88
f 35/55/89 36/54/90 40/58/91 39/59/92
f 38/57/93 37/56/94 39/59/95 40/58/96
f 33/52/97 35/55/98 39/59/99 37/56/100
f 38/57/101 40/60/102 30/49/103 29/48/104
f 31/51/105 32/50/106 36/61/107 34/62/108
f 36/54/109 32/63/110 30/64/111 40/58/112
f 31/65/113 34/53/114 38/66/115 29/67/116
