# This file uses meters as units for non-parametric coordinates.

v -58.797081 93.909016 39.183441
v -112.361313 95.790096 39.183441
v -58.797081 95.790096 39.183441
v -58.797081 95.790096 -33.082836
v -112.361313 95.790096 -33.082836
v -5.232857 95.790096 39.183441
v -5.232857 95.790096 -33.082836
v -114.413742 120.885281 -35.325283
v -114.208527 121.057999 -35.120060
v -58.797081 120.885281 -35.325283
v -58.797081 121.057999 -35.120060
v -3.180424 120.885281 -35.325283
v -3.385643 121.057999 -35.120060
v -112.361313 120.885281 39.183441
v -112.566528 121.057999 39.183441
v -112.361313 120.885281 -33.082836
v -112.566528 121.057999 -33.288059
v -58.797081 121.057999 -33.288059
v -58.797081 120.885281 -33.082836
v -114.208527 121.057999 39.183441
v -114.413742 120.885281 39.183441
v -3.180424 120.885281 39.183441
v -3.385643 121.057999 39.183441
v -5.027634 121.057999 39.183441
v -5.232857 120.885281 39.183441
v -5.232857 120.885281 -33.082836
v -5.027634 121.057999 -33.288059
v -114.413742 94.282005 39.183441
v -113.970566 93.909016 39.183441
v -113.970566 93.909016 -34.882103
v -114.413742 94.282005 -35.325283
v -3.623600 93.909016 39.183441
v -3.180424 94.282005 39.183441
v -3.623600 93.909016 -34.882103
v -3.180424 94.282005 -35.325283
v -58.797081 93.909016 -34.882103
v -58.797081 94.282005 -35.325283
v -116.811874 125.112812 43.259636
v -0.782288 125.112812 43.259636
v -0.782288 92.127715 43.259636
v -116.811867 92.127715 43.259636
v -117.594162 125.112812 42.477348
v -117.594154 92.127715 42.477348
v 0.000000 125.771217 42.477348
v -116.811874 125.771217 42.477348
v -116.811867 91.469304 42.477348
v 0.000000 91.469304 42.477348
v 0.000000 125.112812 42.477333
v 0.000000 92.127715 42.477333
v -117.116661 92.127715 39.183434
v -117.116669 125.112812 39.183434
v -116.811874 125.411757 39.183434
v 0.000000 125.411757 39.183434
v 0.000000 91.795810 39.183434
v -116.811867 91.795810 39.183441
v -0.393417 125.112812 39.183418
v -0.393417 92.127715 39.183418
v -116.811874 125.771217 39.644707
v -117.594162 125.112812 39.644707
v -117.594154 92.127715 39.644707
v -116.811867 91.469304 39.644714
v 0.000000 91.469304 39.644707
v 0.000000 92.127715 39.644691
v 0.000000 125.112812 39.644691
v 0.000000 125.771217 39.644707
vt 0.511077 0.620760
vt 0.562370 0.620760
vt 0.562370 0.517702
vt 0.511077 0.517702
vt 0.613663 0.620760
vt 0.613663 0.517702
vt 0.508196 0.513145
vt 0.508196 0.620760
vt 0.508196 0.619763
vt 0.508702 0.620760
vt 0.616545 0.620760
vt 0.510789 0.620760
vt 0.511077 0.620760
vt 0.511077 0.517702
vt 0.613267 0.516055
vt 0.512340 0.516055
vt 0.613267 0.516055
vt 0.613663 0.620760
vt 0.613663 0.517702
vt 0.508484 0.620760
vt 0.510789 0.517194
vt 0.613951 0.620760
vt 0.616257 0.620760
vt 0.616257 0.512657
vt 0.613267 0.517086
vt 0.512340 0.617225
vt 0.512340 0.517086
vt 0.512340 0.617225
vt 0.613267 0.617225
vt 0.512340 0.517086
vt 0.613267 0.517086
vt 0.512340 0.617225
vt 0.512340 0.517086
vt 0.613267 0.617225
vt 0.508483 0.512657
vt 0.562370 0.517194
vt 0.613951 0.517194
vt 0.562370 0.512657
vt 0.508818 0.512149
vt 0.508196 0.512149
vt 0.616545 0.512149
vt 0.616545 0.618608
vt 0.615923 0.619663
vt 0.562370 0.512149
vt 0.508818 0.619663
vt 0.562370 0.619663
vt 0.615923 0.512149
vt 0.508196 0.618608
vt 0.562370 0.513145
vt 0.616545 0.619763
vt 0.616545 0.514301
vt 0.508196 0.514301
vt 0.616545 0.514301
vt 0.508196 0.514301
vt 0.508196 0.619763
vt 0.616545 0.619763
vt 0.616545 0.513145
vt 0.562370 0.618608
vt 0.510038 0.588223
vt 0.617814 0.588223
vt 0.617814 0.619734
vt 0.510038 0.619734
vt 0.509311 0.619734
vt 0.509311 0.588223
vt 0.510038 0.619294
vt 0.618541 0.619294
vt 0.618541 0.587594
vt 0.509311 0.587594
vt 0.509311 0.619294
vt 0.617814 0.619734
vt 0.617814 0.588223
vt 0.604627 0.538494
vt 0.533420 0.538494
vt 0.533420 0.599729
vt 0.604627 0.599729
vt 0.604627 0.538494
vt 0.533420 0.538494
vt 0.533420 0.599729
vt 0.604627 0.599729
vt 0.604627 0.538494
vt 0.533420 0.538494
vt 0.533420 0.599729
vt 0.604627 0.599729
vt 0.533420 0.538494
vt 0.533420 0.599729
vt 0.604627 0.538494
vt 0.533420 0.538494
vt 0.533420 0.599729
vt 0.604627 0.599729
vt 0.522101 0.519252
vt 0.568673 0.519252
vt 0.522101 0.565824
vt 0.615245 0.565824
vt 0.615245 0.612396
vt 0.615245 0.519252
vt 0.568673 0.612396
vt 0.522101 0.612396
vt 0.604627 0.609701
vt 0.533420 0.609701
vt 0.533420 0.609701
vt 0.604627 0.609701
vt 0.533420 0.609701
vt 0.604627 0.609701
vt 0.533420 0.609701
vt 0.604627 0.609701
vt 0.533420 0.609701
vn 0.000000 1.000000 0.000000
vn 0.000000 1.000000 0.000000
vn 0.000000 1.000000 0.000000
vn 0.000000 1.000000 0.000000
vn 0.000000 1.000000 0.000000
vn 0.000000 1.000000 0.000000
vn 0.000000 0.765105 -0.643905
vn 0.000000 0.765105 -0.643905
vn 0.000000 0.765105 -0.643905
vn 0.000000 0.765105 -0.643905
vn -0.643898 0.765112 0.000000
vn -0.643898 0.765112 0.000000
vn -0.643898 0.765112 0.000000
vn -0.643898 0.765112 0.000000
vn 0.000000 0.765105 -0.643905
vn 0.000000 0.765105 -0.643905
vn 0.643922 0.765091 0.000000
vn 0.643922 0.765091 0.000000
vn 0.643922 0.765091 0.000000
vn 0.643922 0.765091 0.000000
vn 0.643944 0.765073 0.000000
vn 0.643944 0.765073 0.000000
vn 0.643944 0.765073 0.000000
vn 0.643944 0.765073 0.000000
vn 0.000000 0.765100 0.643911
vn 0.000000 0.765100 0.643911
vn 0.000000 0.765100 0.643911
vn 0.000000 0.765100 0.643911
vn 0.000000 0.765100 0.643911
vn 0.000000 0.765100 0.643911
vn -0.643913 0.765099 0.000000
vn -0.643913 0.765099 0.000000
vn -0.643913 0.765099 0.000000
vn -0.643913 0.765099 0.000000
vn 0.000000 1.000000 0.000002
vn 0.000000 1.000000 0.000000
vn 0.000000 1.000000 0.000000
vn 0.000000 1.000000 0.000002
vn 0.000000 1.000000 0.000002
vn 0.000000 1.000000 0.000000
vn 0.000000 1.000000 0.000000
vn 0.000000 1.000000 0.000002
vn 0.000000 0.000000 1.000000
vn 0.000000 0.000000 1.000000
vn 0.000000 0.000000 1.000000
vn 0.000000 0.000000 1.000000
vn 1.000000 0.000000 0.000000
vn 1.000000 0.000000 0.000000
vn 1.000000 0.000000 0.000000
vn 1.000000 0.000000 0.000000
vn -1.000000 0.000000 0.000000
vn -1.000000 0.000000 0.000000
vn -1.000000 0.000000 0.000000
vn -1.000000 0.000000 0.000000
vn 0.000000 0.000000 1.000000
vn 0.000000 0.000000 1.000000
vn 0.000000 1.000000 0.000004
vn 0.000000 1.000000 0.000004
vn -0.643915 -0.765097 0.000000
vn -0.643915 -0.765097 0.000000
vn -0.643915 -0.765097 0.000000
vn -0.643915 -0.765097 0.000000
vn 0.000000 -0.765095 -0.643917
vn 0.000000 -0.765095 -0.643917
vn 0.000000 -0.765095 -0.643917
vn 0.000000 -0.765095 -0.643917
vn 0.643921 -0.765092 0.000000
vn 0.643921 -0.765092 0.000000
vn 0.643921 -0.765092 0.000000
vn 0.643921 -0.765092 0.000000
vn 0.000000 -0.765095 -0.643917
vn 0.000000 -0.765095 -0.643917
vn 0.000000 -1.000000 0.000000
vn 0.000000 -1.000000 0.000000
vn 0.000000 -1.000000 0.000000
vn 0.000000 -1.000000 0.000000
vn 0.000000 -1.000000 0.000000
vn 0.000000 -1.000000 0.000000
vn 0.000000 0.000000 -1.000000
vn 0.000000 0.000000 -1.000000
vn 0.000000 0.000000 -1.000000
vn 0.000000 0.000000 -1.000000
vn 1.000000 0.000000 0.000000
vn 1.000000 0.000000 0.000000
vn 1.000000 0.000000 0.000000
vn 1.000000 0.000000 0.000000
vn -1.000000 0.000000 0.000000
vn -1.000000 0.000000 0.000000
vn -1.000000 0.000000 0.000000
vn -1.000000 0.000000 0.000000
vn 0.000000 0.000000 -1.000000
vn 0.000000 0.000000 -1.000000
vn 0.000000 0.000000 1.000000
vn 0.006697 0.000000 0.999978
vn 0.006697 0.000000 0.999978
vn 0.000000 0.000000 1.000000
vn -0.707106 -0.000000 0.707107
vn -0.707106 -0.000000 0.707107
vn -0.707106 -0.000000 0.707107
vn -0.707106 -0.000000 0.707107
vn 0.000000 0.765087 0.643927
vn 0.000000 0.765087 0.643927
vn 0.000609 0.764787 0.644283
vn 0.002160 0.764020 0.645189
vn 0.002160 -0.764017 0.645193
vn 0.000609 -0.764784 0.644287
vn 0.000000 -0.765084 0.643931
vn 0.000000 -0.765084 0.643931
vn -0.541389 0.643270 0.541389
vn -0.541389 0.643270 0.541389
vn -0.541389 0.643270 0.541389
vn 0.707116 -0.000016 0.707098
vn -0.541395 -0.643254 0.541402
vn -0.541395 -0.643254 0.541402
vn -0.541395 -0.643254 0.541402
vn 0.707113 0.000000 0.707100
vn 0.707113 0.000000 0.707100
vn 0.707111 0.000016 0.707102
vn -1.000000 -0.000000 0.000000
vn -1.000000 -0.000000 0.000000
vn -0.989656 -0.000000 -0.143463
vn -0.989656 -0.000000 -0.143463
vn 0.000000 1.000000 0.000000
vn 0.000000 1.000000 0.000000
vn 0.000000 0.994098 -0.108484
vn 0.000000 0.994098 -0.108484
vn 0.000000 -1.000000 0.000000
vn 0.000000 -1.000000 0.000000
vn -0.000000 -0.995123 -0.098642
vn -0.000000 -0.995123 -0.098642
vn -0.643927 0.765087 0.000000
vn -0.643927 0.765087 0.000000
vn -0.644487 0.763220 -0.046160
vn -0.644490 0.763295 -0.044863
vn -0.643931 -0.765084 0.000000
vn -0.643931 -0.765084 0.000000
vn -0.645463 -0.762537 -0.043758
vn -0.645510 -0.762357 -0.046131
vn 1.000000 0.000000 0.000000
vn 1.000000 0.000000 0.000000
vn 0.992943 0.000000 -0.118595
vn 0.992943 0.000000 -0.118595
vn 1.000000 0.000000 0.000000
vn 1.000000 0.000000 0.000000
vn 0.998659 -0.043443 -0.028156
vn 0.999590 -0.024014 -0.015564
vn 1.000000 0.000000 0.000000
vn 1.000000 0.000000 0.000000
vn 0.999516 0.025262 -0.018178
vn 0.998577 0.043281 -0.031144
vn 0.000000 0.000051 -1.000000
vn -0.000000 0.000001 -1.000000
vn -0.000000 -0.000000 -1.000000
vn -0.000000 -0.000046 -1.000000
vn -0.000000 -0.000000 -1.000000
vn -0.000000 -0.000001 -1.000000
vn 0.000020 -0.000000 -1.000000
vn 0.000000 0.000000 -1.000000
vn -0.558059 0.633681 -0.535742
vn -0.558059 0.633681 -0.535742
vn -0.694784 -0.000000 -0.719218
vn -0.694784 -0.000000 -0.719218
vn -0.574867 -0.631041 -0.520879
vn -0.574867 -0.631041 -0.520879
vn -0.000000 -0.816213 -0.577751
vn -0.000000 -0.816213 -0.577751
vn 0.898197 0.356814 -0.256759
vn 0.898197 0.356814 -0.256759
vn 0.760850 0.000000 -0.648928
vn 0.760850 0.000000 -0.648928
vn 0.898097 -0.369064 -0.239195
vn 0.898097 -0.369064 -0.239195
vn 0.000000 0.788779 -0.614677
vn 0.000000 0.788779 -0.614677
f 2/1/1 3/2/2 4/3/3 5/4/4
f 3/2/2 6/5/5 7/6/6 4/3/3
f 8/7/7 9/35/8 11/38/9 10/49/10
f 9/35/11 8/7/12 21/8/13 20/20/14
f 10/49/10 11/38/9 13/24/15 12/57/16
f 12/9/17 13/10/18 23/11/19 22/50/20
f 15/12/21 14/13/22 16/14/23 17/21/24
f 17/15/25 16/25/26 19/33/27 18/16/28
f 18/16/28 19/33/27 26/31/29 27/17/30
f 25/18/31 24/22/32 27/37/33 26/19/34
f 9/35/35 20/20/36 15/12/37 17/21/38
f 27/37/39 24/22/40 23/23/41 13/24/42
f 19/33/43 16/25/44 5/29/45 4/26/46
f 16/25/47 14/27/48 2/28/49 5/29/50
f 25/30/51 26/31/52 7/34/53 6/32/54
f 26/31/55 19/33/43 4/26/46 7/34/56
f 11/38/57 9/35/35 17/21/38 18/36/58
f 27/37/39 13/24/42 11/38/57 18/36/58
f 29/39/59 28/40/60 31/48/61 30/45/62
f 30/45/63 31/48/64 37/58/65 36/46/66
f 33/41/67 32/47/68 34/43/69 35/42/70
f 35/42/71 34/43/72 36/46/66 37/58/65
f 1/44/73 29/39/74 30/45/75 36/46/76
f 34/43/77 32/47/78 1/44/73 36/46/76
f 31/48/79 8/7/80 10/49/81 37/58/82
f 12/9/83 22/50/84 33/51/85 35/52/86
f 31/53/87 28/54/88 21/55/89 8/56/90
f 12/57/91 35/42/92 37/58/82 10/49/81
f 41/59/93 40/60/94 39/61/95 38/62/96
f 38/62/97 42/63/98 43/64/99 41/59/100
f 45/65/101 38/62/102 39/61/103 44/66/104
f 47/67/105 40/60/106 41/59/107 46/68/108
f 42/69/109 38/62/110 45/65/111
f 39/61/103 48/70/112 44/66/104
f 46/68/113 41/59/114 43/64/115
f 48/70/116 39/61/95 40/60/94 49/71/117
f 47/67/105 49/71/118 40/60/106
f 43/72/119 42/73/120 59/74/121 60/75/122
f 45/76/123 44/77/124 65/78/125 58/79/126
f 47/80/127 46/81/128 61/82/129 62/83/130
f 42/84/131 45/76/132 58/79/133 59/85/134
f 46/81/135 43/72/136 60/75/137 61/82/138
f 48/86/139 49/87/140 63/88/141 64/89/142
f 44/77/143 48/86/144 64/89/145 65/78/146
f 49/87/147 47/80/148 62/83/149 63/88/150
f 53/90/151 56/91/152 52/92/153
f 54/93/154 55/94/155 57/95/156
f 56/91/152 57/95/156 52/92/153
f 57/95/156 55/94/155 52/92/153
f 55/94/155 50/96/157 52/92/153
f 50/96/157 51/97/158 52/92/153
f 59/85/134 58/79/133 52/98/159 51/99/160
f 60/75/122 59/74/121 51/100/161 50/101/162
f 61/82/138 60/75/137 50/101/163 55/102/164
f 62/83/130 61/82/129 55/102/165 54/103/166
f 63/88/150 62/83/149 54/103/167 57/104/168
f 64/89/142 63/88/141 57/104/169 56/105/170
f 65/78/146 64/89/145 56/105/171 53/106/172
f 58/79/126 65/78/125 53/106/173 52/98/174
