# This file uses meters as units for non-parametric coordinates.

v -76.107257 140.962687 -32.244346
v -75.763459 141.306483 -31.900546
v 75.763459 141.306483 -31.900546
v 76.107257 140.962687 -32.244346
v -75.763459 271.748179 -31.900546
v -76.107257 272.091975 -32.244346
v 76.107257 272.091975 -32.244346
v 75.763459 271.748179 -31.900546
v -76.107257 272.091975 -37.427140
v -75.763459 271.748179 -37.770940
v 75.763459 271.748179 -37.770940
v 76.107257 272.091975 -37.427140
v -75.763459 141.306483 -37.770940
v -76.107257 140.962687 -37.427140
v 76.107257 140.962687 -37.427140
v 75.763459 141.306483 -37.770940
v -75.366275 265.439784 -32.244346
v -76.107257 265.439784 -32.272522
v -75.763459 265.095988 -31.900546
v 75.277255 265.439784 -32.244346
v 75.763459 265.095988 -31.900546
v 76.107257 265.439784 -32.268080
v -75.366275 269.682276 -32.244346
v -75.763459 270.026072 -31.900546
v -76.107257 269.682276 -32.272522
v 75.277255 269.682276 -32.244346
v 76.107257 269.682276 -32.268080
v 75.763459 270.026072 -31.900546
v -75.366275 269.682276 -37.427140
v -76.107257 269.682276 -37.398963
v -75.763459 270.026072 -37.770940
v 75.277255 269.682276 -37.427140
v 75.763459 270.026072 -37.770940
v 76.107257 269.682276 -37.403402
v -75.366275 265.439784 -37.427140
v -75.763459 265.095988 -37.770940
v -76.107257 265.439784 -37.398963
v 75.277255 265.439784 -37.427140
v 76.107257 265.439784 -37.403402
v 75.763459 265.095988 -37.770940
v -74.770729 269.682276 -33.074467
v -75.114528 269.682276 -33.418267
v -74.770729 265.439784 -33.074467
v -75.114528 265.439784 -33.418267
v 74.589548 265.439784 -33.074467
v 74.933335 265.439784 -33.418267
v 74.589548 269.682276 -33.074467
v 74.933335 269.682276 -33.418267
v -75.114528 269.682276 -36.253218
v -74.770729 269.682276 -36.597018
v -75.114528 265.439784 -36.253218
v -74.770729 265.439784 -36.597018
v 74.589548 269.682276 -36.597018
v 74.933335 269.682276 -36.253218
v 74.589548 265.439784 -36.597018
v 74.933335 265.439784 -36.253218
v 69.282724 147.869578 -34.440863
v -69.282724 147.869578 -34.440863
v 69.282724 259.353159 -34.440863
v -69.282724 259.353159 -34.440863
v -69.917743 147.234568 -31.900546
v -69.282724 147.869578 -32.535565
v -69.917743 259.988169 -31.900546
v -69.282724 259.353159 -32.535565
v 69.917743 259.988169 -31.900546
v 69.282724 259.353159 -32.535565
v 69.917743 147.234568 -31.900546
v 69.282724 147.869578 -32.535565
vt 0.475115 0.848809
vt 0.475208 0.867910
vt 0.493587 0.850013
vt 0.473966 0.850013
vt 0.492358 0.867910
vt 0.474010 0.869247
vt 0.475115 0.869372
vt 0.475209 0.868495
vt 0.474010 0.868620
vt 0.493542 0.869247
vt 0.493587 0.868168
vt 0.473966 0.868168
vt 0.492437 0.869372
vt 0.493542 0.868620
vt 0.492359 0.868495
vt 0.492438 0.869372
vt 0.493587 0.869247
vt 0.493587 0.868620
vt 0.492345 0.868495
vt 0.493587 0.850013
vt 0.493542 0.848934
vt 0.474010 0.848934
vt 0.473966 0.850013
vt 0.493587 0.849687
vt 0.493542 0.849561
vt 0.474010 0.869311
vt 0.473966 0.868168
vt 0.473966 0.850272
vt 0.474010 0.850333
vt 0.493542 0.869311
vt 0.493587 0.868168
vt 0.493542 0.850333
vt 0.493587 0.850272
vt 0.474025 0.867910
vt 0.474011 0.867910
vt 0.475881 0.867910
vt 0.493524 0.867910
vt 0.491672 0.867910
vt 0.493542 0.867910
vt 0.474025 0.868495
vt 0.475881 0.868495
vt 0.474011 0.868495
vt 0.493524 0.868495
vt 0.493542 0.868495
vt 0.491672 0.868495
vt 0.493587 0.868495
vt 0.493587 0.868495
vt 0.491672 0.868495
vt 0.493524 0.849687
vt 0.474025 0.849687
vt 0.474010 0.849561
vt 0.493587 0.849687
vt 0.493542 0.849687
vt 0.493587 0.867910
vt 0.492343 0.867910
vt 0.491671 0.867910
vt 0.493587 0.867910
vt 0.493524 0.850272
vt 0.474025 0.850272
vt 0.493542 0.850272
vt 0.493587 0.850272
vt 0.474011 0.850272
vt 0.474011 0.849687
vt 0.475881 0.867910
vt 0.475881 0.868495
vt 0.492437 0.848809
vt 0.475115 0.848809
vt 0.475195 0.867910
vt 0.492437 0.848809
vt 0.475194 0.868495
vt 0.475115 0.869372
vt 0.492437 0.868495
vt 0.492789 0.849934
vt 0.493542 0.867848
vt 0.492788 0.866932
vt 0.474010 0.867848
vt 0.493542 0.848871
vt 0.474764 0.849934
vt 0.474010 0.848871
vt 0.474764 0.866932
vt 0.492707 0.850048
vt 0.474846 0.850048
vt 0.492707 0.866818
vt 0.492707 0.850048
vt 0.474846 0.866818
vt 0.492707 0.866818
vt 0.474846 0.850048
vt 0.474846 0.866818
vn -0.721160 0.000079 0.692768
vn -0.721160 0.000079 0.692768
vn -0.721160 0.000079 0.692768
vn -0.721160 0.000079 0.692768
vn 0.000000 -0.707118 0.707096
vn 0.000000 -0.707118 0.707096
vn 0.000000 -0.707118 0.707096
vn 0.000000 -0.707118 0.707096
vn 0.719002 0.000066 0.695008
vn 0.719002 0.000066 0.695008
vn 0.719002 0.000066 0.695008
vn 0.719002 0.000066 0.695008
vn -0.721152 -0.004724 0.692760
vn -0.721152 -0.004724 0.692761
vn -0.721152 -0.004724 0.692761
vn -0.721152 -0.004724 0.692761
vn 0.000000 0.707113 0.707101
vn 0.000000 0.707113 0.707101
vn 0.000000 0.707113 0.707101
vn 0.000000 0.707113 0.707101
vn 0.718996 -0.003992 0.695003
vn 0.718996 -0.003992 0.695003
vn 0.718996 -0.003992 0.695003
vn 0.718996 -0.003992 0.695003
vn -0.721152 -0.004724 -0.692760
vn -0.721152 -0.004724 -0.692760
vn -0.721152 -0.004724 -0.692760
vn -0.721152 -0.004724 -0.692760
vn 0.000000 0.707113 -0.707101
vn 0.000000 0.707113 -0.707101
vn 0.000000 0.707113 -0.707101
vn 0.000000 0.707113 -0.707101
vn 0.718998 -0.003992 -0.695001
vn 0.718998 -0.003992 -0.695001
vn 0.718998 -0.003992 -0.695001
vn 0.718998 -0.003992 -0.695001
vn -0.721160 0.000079 -0.692768
vn -0.721160 0.000079 -0.692768
vn -0.721160 0.000079 -0.692768
vn -0.721160 0.000079 -0.692768
vn 0.000000 -0.707118 -0.707096
vn 0.000000 -0.707118 -0.707096
vn 0.000000 -0.707118 -0.707096
vn 0.000000 -0.707118 -0.707096
vn 0.719003 0.000066 -0.695007
vn 0.719003 0.000066 -0.695007
vn 0.719003 0.000066 -0.695007
vn 0.719003 0.000066 -0.695007
vn 0.000000 1.000000 0.000000
vn 0.000000 1.000000 0.000012
vn 0.000000 1.000000 0.000012
vn 0.000000 1.000000 0.000000
vn 0.000003 0.707114 0.707100
vn 0.000073 0.707163 0.707051
vn -0.000094 0.707165 0.707048
vn -0.000003 0.707113 0.707100
vn 0.000000 1.000000 0.000012
vn 0.000000 1.000000 -0.000007
vn 0.000000 1.000000 -0.000000
vn 0.000000 1.000000 0.000012
vn 0.000000 -1.000000 -0.000012
vn 0.000000 -1.000000 0.000004
vn 0.000000 -1.000000 0.000000
vn 0.000000 -1.000000 -0.000012
vn 0.000073 -0.707158 0.707056
vn 0.000003 -0.707108 0.707105
vn -0.000003 -0.707108 0.707105
vn -0.000094 -0.707160 0.707053
vn 0.000000 -1.000000 0.000000
vn 0.000000 -1.000000 -0.000012
vn 0.000000 -1.000000 -0.000012
vn 0.000000 -1.000000 0.000000
vn 0.000000 -1.000000 0.000000
vn 0.000000 -1.000000 0.000012
vn 0.000000 -1.000000 0.000012
vn 0.000000 -1.000000 0.000000
vn 0.000003 -0.707108 -0.707105
vn 0.000073 -0.707158 -0.707056
vn -0.000094 -0.707160 -0.707053
vn -0.000003 -0.707108 -0.707105
vn 0.000000 -1.000000 0.000012
vn 0.000000 -1.000000 0.000003
vn 0.000000 -1.000000 0.000000
vn 0.000000 -1.000000 0.000012
vn 0.000000 1.000000 -0.000012
vn 0.000000 1.000000 0.000004
vn 0.000000 1.000000 0.000000
vn 0.000000 1.000000 -0.000012
vn 0.000073 0.707163 -0.707051
vn 0.000003 0.707114 -0.707100
vn -0.000003 0.707113 -0.707100
vn -0.000094 0.707165 -0.707048
vn 0.000000 1.000000 0.000007
vn 0.000000 1.000000 -0.000012
vn 0.000000 1.000000 -0.000012
vn 0.000000 1.000000 0.000000
vn -0.707108 0.000000 0.707105
vn -0.707108 0.000000 0.707105
vn -0.707108 0.000000 0.707105
vn -0.707108 0.000000 0.707105
vn 0.707120 0.000000 0.707093
vn 0.707120 0.000000 0.707093
vn 0.707120 0.000000 0.707093
vn 0.707120 0.000000 0.707093
vn -0.707109 0.000000 -0.707105
vn -0.707109 0.000000 -0.707105
vn -0.707109 0.000000 -0.707105
vn -0.707109 0.000000 -0.707105
vn 0.707121 0.000000 -0.707093
vn 0.707121 0.000000 -0.707093
vn 0.707121 0.000000 -0.707093
vn 0.707121 0.000000 -0.707093
vn 0.000000 1.000000 0.000000
vn 0.000000 1.000000 0.000000
vn 0.000000 1.000000 0.000000
vn 0.000000 1.000000 0.000000
vn 0.000000 -1.000000 0.000000
vn 0.000000 -1.000000 0.000000
vn 0.000000 -1.000000 0.000000
vn 0.000000 -1.000000 0.000000
vn 0.000000 0.000000 1.000000
vn 0.000000 0.000000 1.000000
vn 0.000000 0.000000 1.000000
vn 0.000000 0.000000 1.000000
vn -1.000000 0.000000 0.000000
vn -1.000000 0.000000 0.000000
vn -1.000000 0.000000 0.000000
vn -1.000000 0.000000 0.000000
vn 0.000000 0.000000 -1.000000
vn 0.000000 0.000000 -1.000000
vn 0.000000 0.000000 -1.000000
vn 0.000000 0.000000 -1.000000
vn 1.000000 0.000000 0.000000
vn 1.000000 0.000000 0.000000
vn 1.000000 0.000000 0.000000
vn 1.000000 0.000000 0.000000
vn 1.000000 -0.000000 0.000000
vn 1.000000 -0.000000 0.000000
vn 1.000000 -0.000000 0.000000
vn 1.000000 -0.000000 0.000000
vn -1.000000 -0.000000 0.000000
vn -1.000000 -0.000000 0.000000
vn -1.000000 -0.000000 0.000000
vn -1.000000 -0.000000 0.000000
vn -1.000000 0.000000 0.000000
vn -1.000000 0.000000 0.000000
vn -1.000000 0.000000 0.000000
vn -1.000000 0.000000 0.000000
vn 1.000000 0.000000 0.000000
vn 1.000000 0.000000 0.000000
vn 1.000000 0.000000 0.000000
vn 1.000000 0.000000 0.000000
vn 0.000000 0.000000 1.000000
vn 0.000000 0.000000 1.000000
vn 0.000000 0.000000 1.000000
vn 0.000000 0.000000 1.000000
vn 0.000000 0.000000 -1.000000
vn 0.000000 0.000000 -1.000000
vn 0.000000 0.000000 -1.000000
vn 0.000000 0.000000 -1.000000
vn 0.000000 0.000000 -1.000000
vn 0.000000 0.000000 -1.000000
vn 0.000000 0.000000 -1.000000
vn 0.000000 0.000000 -1.000000
vn -0.026296 0.721896 0.691502
vn 0.019811 0.720839 0.692820
vn -0.026296 -0.721896 0.691501
vn 0.019811 -0.720839 0.692819
vn -0.026296 -0.721896 -0.691502
vn 0.019813 -0.720842 -0.692816
vn -0.026296 0.721896 -0.691501
vn 0.019814 0.720839 -0.692819
vn 0.000000 0.000000 1.000000
vn 0.000000 0.000000 1.000000
vn 0.000000 0.000000 1.000000
vn 0.000000 0.000000 1.000000
vn 0.707107 0.000000 0.707106
vn 0.707107 0.000000 0.707106
vn 0.707107 0.000000 0.707106
vn 0.707107 0.000000 0.707106
vn 0.000000 0.707112 0.707101
vn 0.000000 0.707112 0.707101
vn 0.000000 0.707112 0.707101
vn 0.000000 0.707112 0.707101
vn 0.000000 -0.707112 0.707101
vn 0.000000 -0.707112 0.707101
vn 0.000000 -0.707112 0.707101
vn 0.000000 -0.707112 0.707101
vn -0.707107 0.000000 0.707106
vn -0.707107 0.000000 0.707106
vn -0.707107 0.000000 0.707106
vn -0.707107 0.000000 0.707106
vn 0.000000 0.000000 1.000000
vn 0.000000 0.000000 1.000000
vn 0.000000 0.000000 1.000000
vn 0.000000 0.000000 1.000000
vn 0.000000 0.000000 1.000000
vn 0.000000 0.000000 1.000000
vn 0.000000 0.000000 1.000000
vn 0.000000 0.000000 1.000000
vn 0.000000 1.000000 0.000000
vn 0.000000 1.000000 0.000000
vn 0.000000 1.000000 0.000000
vn 0.000000 1.000000 0.000000
vn -1.000000 0.000000 0.000000
vn -1.000000 0.000000 0.000000
vn -1.000000 0.000000 0.000000
vn -1.000000 0.000000 0.000000
vn 0.000000 -1.000000 0.000000
vn 0.000000 -1.000000 0.000000
vn 0.000000 -1.000000 0.000000
vn 0.000000 -1.000000 0.000000
vn 1.000000 0.000000 0.000000
vn 1.000000 0.000000 0.000000
vn 1.000000 0.000000 0.000000
vn 1.000000 0.000000 0.000000
f 1/1/1 2/79/2 19/76/3 18/2/4
f 4/3/5 3/77/6 2/79/7 1/4/8
f 3/77/9 4/3/10 22/5/11 21/74/12
f 5/6/13 6/7/14 25/8/15 24/9/16
f 8/10/17 7/11/18 6/12/19 5/6/20
f 7/13/21 8/10/22 28/14/23 27/15/24
f 9/16/25 10/17/26 31/18/27 30/19/28
f 12/20/29 11/21/30 10/22/31 9/23/32
f 11/21/33 12/20/34 34/24/35 33/25/36
f 13/26/37 14/27/38 37/28/39 36/29/40
f 16/30/41 15/31/42 14/27/43 13/26/44
f 15/31/45 16/30/46 40/32/47 39/33/48
f 18/2/49 17/34/50 43/35/51 44/36/52
f 21/74/53 20/37/54 17/34/55 19/76/56
f 20/37/57 22/5/58 46/38/59 45/39/60
f 23/40/61 25/8/62 42/41/63 41/42/64
f 26/43/65 28/14/66 24/9/67 23/40/68
f 27/15/69 26/43/70 47/44/71 48/45/72
f 30/19/73 29/46/74 50/47/75 49/48/76
f 33/25/77 32/49/78 29/50/79 31/51/80
f 32/49/81 34/24/82 54/52/83 53/53/84
f 35/54/85 37/55/86 51/56/87 52/57/88
f 38/58/89 40/32/90 36/29/91 35/59/92
f 39/33/93 38/58/94 55/60/95 56/61/96
f 41/42/97 42/41/98 44/36/99 43/35/100
f 45/39/101 46/38/102 48/45/103 47/44/104
f 49/48/105 50/47/106 52/57/107 51/56/108
f 53/53/109 54/52/110 56/61/111 55/60/112
f 7/11/113 12/20/114 9/23/115 6/12/116
f 15/31/117 4/3/118 1/4/119 14/27/120
f 45/39/121 47/44/122 41/42/123 43/35/124
f 44/36/125 42/41/126 49/48/127 51/56/128
f 53/53/129 55/60/130 52/62/131 50/63/132
f 56/64/133 54/65/134 48/45/135 46/38/136
f 4/66/137 15/67/138 39/68/139 22/5/140
f 14/69/141 1/1/142 18/2/143 37/55/144
f 9/16/145 30/19/146 25/8/147 6/7/148
f 7/13/149 27/15/150 34/70/151 12/71/152
f 42/41/63 25/8/62 30/19/73 49/48/76
f 51/56/87 37/55/86 18/2/49 44/36/52
f 54/65/83 34/70/82 27/15/69 48/45/72
f 46/38/59 22/5/58 39/68/93 56/64/96
f 28/14/153 8/10/154 5/6/155 24/9/156
f 11/21/157 33/25/158 31/51/159 10/22/160
f 40/32/161 16/30/162 13/26/163 36/29/164
f 20/37/57 45/39/60 43/35/51 17/34/50
f 47/44/71 26/43/70 23/40/61 41/42/64
f 32/49/81 53/53/84 50/63/75 29/50/74
f 55/60/95 38/58/94 35/59/85 52/62/88
f 17/34/55 18/2/165 19/76/56
f 20/37/54 21/74/53 22/5/166
f 23/40/68 24/9/67 25/8/167
f 26/43/65 27/15/168 28/14/66
f 29/72/79 30/19/169 31/18/80
f 32/49/78 33/25/77 34/24/170
f 35/59/92 36/29/91 37/28/171
f 38/58/89 39/33/172 40/32/90
f 58/82/173 57/84/174 59/86/175 60/88/176
f 61/78/177 62/87/178 64/85/179 63/80/180
f 62/87/181 61/78/182 67/73/183 68/81/184
f 63/80/185 64/85/186 66/83/187 65/75/188
f 65/75/189 66/83/190 68/81/191 67/73/192
f 67/73/193 3/77/194 21/74/195 65/75/196
f 65/75/196 21/74/195 19/76/197 63/80/198
f 2/79/199 3/77/194 67/73/193 61/78/200
f 19/76/197 2/79/199 61/78/200 63/80/198
f 62/87/201 68/81/202 57/84/203 58/82/204
f 68/81/205 66/83/206 59/86/207 57/84/208
f 66/83/209 64/85/210 60/88/211 59/86/212
f 64/85/213 62/87/214 58/82/215 60/88/216
