# This file uses meters as units for non-parametric coordinates.

v 58.797081 93.909016 39.183441
v 112.361313 95.790096 39.183441
v 58.797081 95.790096 39.183441
v 58.797081 95.790096 -33.082836
v 112.361313 95.790096 -33.082836
v 5.232857 95.790096 39.183441
v 5.232857 95.790096 -33.082836
v 114.413742 120.885281 -35.325283
v 114.208527 121.057999 -35.120060
v 58.797081 120.885281 -35.325283
v 58.797081 121.057999 -35.120060
v 3.180424 120.885281 -35.325283
v 3.385643 121.057999 -35.120060
v 112.361313 120.885281 39.183441
v 112.566528 121.057999 39.183441
v 112.361313 120.885281 -33.082836
v 112.566528 121.057999 -33.288059
v 58.797081 121.057999 -33.288059
v 58.797081 120.885281 -33.082836
v 114.208527 121.057999 39.183441
v 114.413742 120.885281 39.183441
v 3.180424 120.885281 39.183441
v 3.385643 121.057999 39.183441
v 5.027634 121.057999 39.183441
v 5.232857 120.885281 39.183441
v 5.232857 120.885281 -33.082836
v 5.027634 121.057999 -33.288059
v 114.413742 94.282005 39.183441
v 113.970566 93.909016 39.183441
v 113.970566 93.909016 -34.882103
v 114.413742 94.282005 -35.325283
v 3.623600 93.909016 39.183441
v 3.180424 94.282005 39.183441
v 3.623600 93.909016 -34.882103
v 3.180424 94.282005 -35.325283
v 58.797081 93.909016 -34.882103
v 58.797081 94.282005 -35.325283
v 116.811867 125.112812 43.259636
v 0.782288 125.112812 43.259636
v 0.782288 92.127715 43.259636
v 116.811874 92.127715 43.259636
v 117.594154 125.112812 42.477348
v 117.594162 92.127715 42.477348
v 0.000000 125.771217 42.477348
v 116.811867 125.771217 42.477348
v 116.811874 91.469304 42.477348
v 0.000000 91.469304 42.477348
v 0.000000 125.112812 42.477333
v 0.000000 92.127715 42.477333
v 117.116669 92.127715 39.183434
v 117.116661 125.112812 39.183434
v 116.811867 125.411757 39.183434
v 0.000000 125.411757 39.183434
v 0.000000 91.795810 39.183434
v 116.811874 91.795810 39.183441
v 0.393417 125.112812 39.183418
v 0.393417 92.127715 39.183418
v 116.811867 125.771217 39.644707
v 117.594154 125.112812 39.644707
v 117.594162 92.127715 39.644707
v 116.811874 91.469304 39.644714
v 0.000000 91.469304 39.644707
v 0.000000 92.127715 39.644691
v 0.000000 125.112812 39.644691
v 0.000000 125.771217 39.644707
vt 0.474283 0.775697
vt 0.483497 0.775697
vt 0.483497 0.756295
vt 0.474283 0.756295
vt 0.492710 0.775697
vt 0.492710 0.756295
vt 0.473766 0.755438
vt 0.473766 0.775697
vt 0.473766 0.775510
vt 0.473857 0.775697
vt 0.493228 0.775697
vt 0.474231 0.775697
vt 0.474283 0.775697
vt 0.474283 0.756295
vt 0.492639 0.755985
vt 0.474510 0.755985
vt 0.492639 0.755985
vt 0.492710 0.775697
vt 0.492710 0.756295
vt 0.473817 0.775697
vt 0.474231 0.756200
vt 0.492762 0.775697
vt 0.493176 0.775697
vt 0.493176 0.755346
vt 0.492639 0.756179
vt 0.474510 0.775032
vt 0.474510 0.756179
vt 0.474510 0.775032
vt 0.492639 0.775032
vt 0.474510 0.756179
vt 0.492639 0.756179
vt 0.474510 0.775032
vt 0.474510 0.756179
vt 0.492639 0.775032
vt 0.473817 0.755346
vt 0.483497 0.756200
vt 0.492762 0.756200
vt 0.483497 0.755346
vt 0.473877 0.755250
vt 0.473766 0.755250
vt 0.493228 0.755250
vt 0.493228 0.775292
vt 0.493116 0.775491
vt 0.483497 0.755250
vt 0.473877 0.775491
vt 0.483497 0.775491
vt 0.493116 0.755250
vt 0.473766 0.775292
vt 0.483497 0.755438
vt 0.493228 0.775510
vt 0.493228 0.755655
vt 0.473766 0.755655
vt 0.493228 0.755655
vt 0.473766 0.755655
vt 0.473766 0.775510
vt 0.493228 0.775510
vt 0.493228 0.755438
vt 0.483497 0.775292
vt 0.474096 0.769572
vt 0.493456 0.769572
vt 0.493456 0.775504
vt 0.474096 0.775504
vt 0.473966 0.775504
vt 0.473966 0.769572
vt 0.474096 0.775421
vt 0.493587 0.775421
vt 0.493587 0.769453
vt 0.473966 0.769453
vt 0.473966 0.775421
vt 0.493456 0.775504
vt 0.493456 0.769572
vt 0.491087 0.760210
vt 0.478296 0.760210
vt 0.478296 0.771738
vt 0.491087 0.771738
vt 0.491087 0.760210
vt 0.478296 0.760210
vt 0.478296 0.771738
vt 0.491087 0.771738
vt 0.491087 0.760210
vt 0.478296 0.760210
vt 0.478296 0.771738
vt 0.491087 0.771738
vt 0.478296 0.760210
vt 0.478296 0.771738
vt 0.491087 0.760210
vt 0.478296 0.760210
vt 0.478296 0.771738
vt 0.491087 0.771738
vt 0.476263 0.756587
vt 0.484629 0.756587
vt 0.476263 0.765355
vt 0.492995 0.765355
vt 0.492995 0.774123
vt 0.492995 0.756587
vt 0.484629 0.774123
vt 0.476263 0.774123
vt 0.491087 0.773615
vt 0.478296 0.773615
vt 0.478296 0.773615
vt 0.491087 0.773615
vt 0.478296 0.773615
vt 0.491087 0.773615
vt 0.478296 0.773615
vt 0.491087 0.773615
vt 0.478296 0.773615
vn 0.000000 1.000000 0.000000
vn 0.000000 1.000000 0.000000
vn 0.000000 1.000000 0.000000
vn 0.000000 1.000000 0.000000
vn 0.000000 1.000000 0.000000
vn 0.000000 1.000000 0.000000
vn 0.000000 0.765101 -0.643910
vn 0.000000 0.765103 -0.643908
vn 0.000000 0.765103 -0.643908
vn 0.000000 0.765101 -0.643910
vn 0.643905 0.765105 0.000000
vn 0.643905 0.765106 0.000000
vn 0.643905 0.765106 0.000000
vn 0.643905 0.765105 0.000000
vn 0.000000 0.765105 -0.643905
vn 0.000000 0.765105 -0.643905
vn -0.643922 0.765091 0.000000
vn -0.643922 0.765091 0.000000
vn -0.643922 0.765091 0.000000
vn -0.643922 0.765091 0.000000
vn -0.643944 0.765073 0.000000
vn -0.643944 0.765073 0.000000
vn -0.643944 0.765073 0.000000
vn -0.643944 0.765073 0.000000
vn 0.000000 0.765105 0.643906
vn 0.000000 0.765103 0.643908
vn 0.000000 0.765103 0.643908
vn 0.000000 0.765105 0.643906
vn 0.000000 0.765100 0.643911
vn 0.000000 0.765100 0.643911
vn 0.643913 0.765099 0.000000
vn 0.643913 0.765099 0.000000
vn 0.643913 0.765099 0.000000
vn 0.643913 0.765099 0.000000
vn 0.000000 1.000000 0.000002
vn 0.000000 1.000000 0.000002
vn 0.000000 1.000000 0.000000
vn 0.000000 1.000000 0.000000
vn 0.000000 1.000000 0.000001
vn 0.000000 1.000000 0.000002
vn 0.000000 1.000000 0.000000
vn 0.000000 1.000000 0.000000
vn 0.000000 0.000000 1.000000
vn 0.000000 0.000000 1.000000
vn 0.000000 0.000000 1.000000
vn 0.000000 0.000000 1.000000
vn -1.000000 0.000000 0.000000
vn -1.000000 0.000000 0.000000
vn -1.000000 0.000000 0.000000
vn -1.000000 0.000000 0.000000
vn 1.000000 0.000000 0.000000
vn 1.000000 0.000000 0.000000
vn 1.000000 0.000000 0.000000
vn 1.000000 0.000000 0.000000
vn 0.000000 0.000000 1.000000
vn 0.000000 0.000000 1.000000
vn 0.000000 1.000000 0.000004
vn 0.000000 1.000000 0.000004
vn 0.643915 -0.765097 0.000000
vn 0.643915 -0.765097 0.000000
vn 0.643915 -0.765097 0.000000
vn 0.643915 -0.765097 0.000000
vn 0.000000 -0.765096 -0.643916
vn 0.000000 -0.765096 -0.643916
vn 0.000000 -0.765096 -0.643916
vn 0.000000 -0.765096 -0.643916
vn -0.643921 -0.765092 0.000000
vn -0.643921 -0.765092 0.000000
vn -0.643921 -0.765092 0.000000
vn -0.643921 -0.765092 0.000000
vn 0.000000 -0.765096 -0.643916
vn 0.000000 -0.765096 -0.643916
vn 0.000000 -1.000000 0.000000
vn 0.000000 -1.000000 0.000000
vn 0.000000 -1.000000 0.000000
vn 0.000000 -1.000000 0.000000
vn 0.000000 -1.000000 0.000000
vn 0.000000 -1.000000 0.000000
vn 0.000000 0.000000 -1.000000
vn 0.000000 0.000000 -1.000000
vn 0.000000 0.000000 -1.000000
vn 0.000000 0.000000 -1.000000
vn -1.000000 0.000000 0.000000
vn -1.000000 0.000000 0.000000
vn -1.000000 0.000000 0.000000
vn -1.000000 0.000000 0.000000
vn 1.000000 0.000000 0.000000
vn 1.000000 0.000000 0.000000
vn 1.000000 0.000000 0.000000
vn 1.000000 0.000000 0.000000
vn 0.000000 0.000000 -1.000000
vn 0.000000 0.000000 -1.000000
vn 0.000000 0.000000 1.000000
vn 0.000000 0.000000 1.000000
vn -0.006697 0.000000 0.999978
vn -0.006697 0.000000 0.999978
vn 0.707106 0.000000 0.707107
vn 0.707106 0.000000 0.707107
vn 0.707106 0.000000 0.707107
vn 0.707106 0.000000 0.707107
vn 0.000000 0.765084 0.643931
vn -0.002160 0.764017 0.645193
vn -0.000609 0.764784 0.644287
vn 0.000000 0.765084 0.643931
vn -0.002160 -0.764016 0.645194
vn 0.000000 -0.765083 0.643932
vn 0.000000 -0.765083 0.643932
vn -0.000609 -0.764783 0.644288
vn 0.541394 0.643261 0.541394
vn 0.541394 0.643261 0.541394
vn 0.541394 0.643261 0.541394
vn -0.707116 -0.000016 0.707098
vn 0.541390 -0.643263 0.541396
vn 0.541390 -0.643263 0.541396
vn 0.541390 -0.643263 0.541396
vn -0.707113 0.000000 0.707100
vn -0.707113 0.000000 0.707100
vn -0.707111 0.000016 0.707102
vn 1.000000 0.000000 0.000000
vn 0.989656 0.000000 -0.143463
vn 0.989656 0.000000 -0.143463
vn 1.000000 0.000000 0.000000
vn 0.000000 1.000000 0.000000
vn 0.000000 0.994098 -0.108486
vn 0.000000 0.994098 -0.108486
vn 0.000000 1.000000 0.000000
vn 0.000000 -1.000000 0.000000
vn 0.000000 -0.995123 -0.098642
vn 0.000000 -0.995123 -0.098642
vn 0.000000 -1.000000 0.000000
vn 0.643927 0.765087 0.000000
vn 0.644490 0.763295 -0.044863
vn 0.644487 0.763220 -0.046160
vn 0.643927 0.765087 0.000000
vn 0.643931 -0.765084 0.000000
vn 0.645510 -0.762357 -0.046131
vn 0.645463 -0.762537 -0.043759
vn 0.643931 -0.765084 0.000000
vn -1.000000 0.000000 0.000000
vn -0.992943 0.000000 -0.118595
vn -0.992943 0.000000 -0.118595
vn -1.000000 0.000000 0.000000
vn -1.000000 0.000000 0.000000
vn -0.999590 -0.024014 -0.015564
vn -0.998659 -0.043443 -0.028156
vn -1.000000 0.000000 0.000000
vn -1.000000 0.000000 0.000000
vn -0.998577 0.043281 -0.031144
vn -0.999516 0.025262 -0.018178
vn -1.000000 0.000000 0.000000
vn 0.000000 0.000051 -1.000000
vn 0.000000 -0.000000 -1.000000
vn 0.000000 0.000001 -1.000000
vn 0.000000 -0.000046 -1.000000
vn 0.000000 -0.000001 -1.000000
vn 0.000000 -0.000000 -1.000000
vn -0.000029 -0.000000 -1.000000
vn 0.000000 0.000000 -1.000000
vn 0.558060 0.633680 -0.535741
vn 0.558060 0.633680 -0.535741
vn 0.694784 0.000000 -0.719218
vn 0.694784 0.000000 -0.719218
vn 0.574863 -0.631041 -0.520884
vn 0.574863 -0.631041 -0.520884
vn 0.000000 -0.816213 -0.577751
vn 0.000000 -0.816213 -0.577751
vn -0.898197 0.356814 -0.256759
vn -0.898197 0.356814 -0.256759
vn -0.760850 0.000000 -0.648928
vn -0.760850 0.000000 -0.648928
vn -0.898097 -0.369064 -0.239195
vn -0.898097 -0.369064 -0.239195
vn 0.000000 0.788773 -0.614685
vn 0.000000 0.788773 -0.614685
f 2/1/1 5/4/2 4/3/3 3/2/4
f 3/2/4 4/3/3 7/6/5 6/5/6
f 8/7/7 10/49/8 11/38/9 9/35/10
f 9/35/11 20/20/12 21/8/13 8/7/14
f 10/49/8 12/57/15 13/24/16 11/38/9
f 12/9/17 22/50/18 23/11/19 13/10/20
f 15/12/21 17/21/22 16/14/23 14/13/24
f 17/15/25 18/16/26 19/33/27 16/25/28
f 18/16/26 27/17/29 26/31/30 19/33/27
f 25/18/31 26/19/32 27/37/33 24/22/34
f 9/35/35 17/21/36 15/12/37 20/20/38
f 27/37/39 13/24/40 23/23/41 24/22/42
f 19/33/43 4/26/44 5/29/45 16/25/46
f 16/25/47 5/29/48 2/28/49 14/27/50
f 25/30/51 6/32/52 7/34/53 26/31/54
f 26/31/55 7/34/56 4/26/44 19/33/43
f 11/38/57 18/36/58 17/21/36 9/35/35
f 27/37/39 18/36/58 11/38/57 13/24/40
f 29/39/59 30/45/60 31/48/61 28/40/62
f 30/45/63 36/46/64 37/58/65 31/48/66
f 33/41/67 35/42/68 34/43/69 32/47/70
f 35/42/71 37/58/65 36/46/64 34/43/72
f 1/44/73 36/46/74 30/45/75 29/39/76
f 34/43/77 36/46/74 1/44/73 32/47/78
f 31/48/79 37/58/80 10/49/81 8/7/82
f 12/9/83 35/52/84 33/51/85 22/50/86
f 31/53/87 8/56/88 21/55/89 28/54/90
f 12/57/91 10/49/81 37/58/80 35/42/92
f 41/59/93 38/62/94 39/61/95 40/60/96
f 38/62/97 41/59/98 43/64/99 42/63/100
f 45/65/101 44/66/102 39/61/103 38/62/104
f 47/67/105 46/68/106 41/59/107 40/60/108
f 42/69/109 45/65/110 38/62/111
f 39/61/103 44/66/102 48/70/112
f 46/68/113 43/64/114 41/59/115
f 48/70/116 49/71/117 40/60/96 39/61/95
f 47/67/105 40/60/108 49/71/118
f 43/72/119 60/75/120 59/74/121 42/73/122
f 45/76/123 58/79/124 65/78/125 44/77/126
f 47/80/127 62/83/128 61/82/129 46/81/130
f 42/84/131 59/85/132 58/79/133 45/76/134
f 46/81/135 61/82/136 60/75/137 43/72/138
f 48/86/139 64/89/140 63/88/141 49/87/142
f 44/77/143 65/78/144 64/89/145 48/86/146
f 49/87/147 63/88/148 62/83/149 47/80/150
f 53/90/151 52/92/152 56/91/153
f 54/93/154 57/95/155 55/94/156
f 56/91/153 52/92/152 57/95/155
f 57/95/155 52/92/152 55/94/156
f 55/94/156 52/92/152 50/96/157
f 50/96/157 52/92/152 51/97/158
f 59/85/132 51/99/159 52/98/160 58/79/133
f 60/75/120 50/101/161 51/100/162 59/74/121
f 61/82/136 55/102/163 50/101/164 60/75/137
f 62/83/128 54/103/165 55/102/166 61/82/129
f 63/88/148 57/104/167 54/103/168 62/83/149
f 64/89/140 56/105/169 57/104/170 63/88/141
f 65/78/144 53/106/171 56/105/172 64/89/145
f 58/79/124 52/98/173 53/106/174 65/78/125
