# This file uses meters as units for non-parametric coordinates.

v 0.000000 95.157738 30.447906
v -36.532162 97.392754 30.447906
v 0.000000 97.392754 30.447906
v 0.000000 97.392754 -11.169598
v -36.532162 97.392754 -11.169598
v 36.532162 97.392754 30.447906
v 36.532162 97.392754 -11.169598
v -38.584595 117.318863 -13.412044
v -38.379375 117.524086 -13.206820
v 0.000000 117.318863 -13.412044
v 0.000000 117.524086 -13.206820
v 38.584595 117.318863 -13.412044
v 38.379375 117.524086 -13.206820
v -36.532162 117.318863 30.447906
v -36.737385 117.524086 30.447906
v -36.532162 117.318863 -11.169598
v -36.737385 117.524086 -11.374821
v 0.000000 117.524086 -11.374821
v 0.000000 117.318863 -11.169598
v -38.379375 117.524086 30.447906
v -38.584595 117.318863 30.447906
v 38.584595 117.318863 30.447906
v 38.379375 117.524086 30.447906
v 36.737385 117.524086 30.447906
v 36.532162 117.318863 30.447906
v 36.532162 117.318863 -11.169598
v 36.737385 117.524086 -11.374821
v -38.584595 95.600906 30.447906
v -38.141418 95.157738 30.447906
v -38.141418 95.157738 -12.968865
v -38.584595 95.600906 -13.412044
v 38.141418 95.157738 30.447906
v 38.584595 95.600906 30.447906
v 38.141418 95.157738 -12.968865
v 38.584595 95.600906 -13.412044
v 0.000000 95.157738 -12.968865
v 0.000000 95.600906 -13.412044
v -39.069050 119.045601 30.447905
v 39.069054 119.045601 30.447905
v -39.069050 94.116478 30.447905
v 39.069054 94.116478 30.447905
v -38.600887 94.584641 32.320744
v -39.069050 94.116478 31.852581
v 38.600899 94.584641 32.320744
v 39.069054 94.116478 31.852581
v -38.600887 118.577438 32.320744
v -39.069050 119.045601 31.852581
v 38.600899 118.577438 32.320744
v 39.069054 119.045601 31.852581
vt 0.320914 0.868686
vt 0.328088 0.868686
vt 0.328088 0.852417
vt 0.320914 0.852417
vt 0.335263 0.868686
vt 0.335263 0.852417
vt 0.320511 0.851697
vt 0.320511 0.868686
vt 0.320511 0.868528
vt 0.320582 0.868686
vt 0.335666 0.868686
vt 0.320873 0.868686
vt 0.320914 0.868686
vt 0.320914 0.852417
vt 0.335207 0.852157
vt 0.321090 0.852157
vt 0.335207 0.852157
vt 0.335263 0.868686
vt 0.335263 0.852417
vt 0.320551 0.868686
vt 0.320873 0.852337
vt 0.335303 0.868686
vt 0.335626 0.868686
vt 0.335626 0.851620
vt 0.335207 0.852320
vt 0.321090 0.868128
vt 0.321090 0.852320
vt 0.321090 0.868128
vt 0.335207 0.868128
vt 0.321090 0.852320
vt 0.335207 0.852320
vt 0.321090 0.868128
vt 0.321090 0.852320
vt 0.335207 0.868128
vt 0.320551 0.851620
vt 0.328088 0.852337
vt 0.335303 0.852337
vt 0.328088 0.851620
vt 0.320598 0.851540
vt 0.320511 0.851540
vt 0.335666 0.851540
vt 0.335666 0.868346
vt 0.335579 0.868513
vt 0.328088 0.851540
vt 0.320598 0.868513
vt 0.328088 0.868513
vt 0.335579 0.851540
vt 0.320511 0.868346
vt 0.328088 0.851697
vt 0.335666 0.868528
vt 0.335666 0.851880
vt 0.320511 0.851880
vt 0.335666 0.851880
vt 0.320511 0.851880
vt 0.320511 0.868528
vt 0.335666 0.868528
vt 0.335666 0.851697
vt 0.328088 0.868346
vt 0.320511 0.851540
vt 0.335666 0.851540
vt 0.335666 0.868686
vt 0.320511 0.868686
vt 0.320601 0.851940
vt 0.324299 0.851540
vt 0.331877 0.851540
vt 0.335575 0.851940
vt 0.320601 0.868286
vt 0.320511 0.864400
vt 0.331877 0.868686
vt 0.335575 0.868286
vt 0.335666 0.864400
vt 0.335666 0.855826
vt 0.320511 0.855826
vt 0.320511 0.851540
vt 0.320511 0.868686
vt 0.335666 0.851540
vt 0.324299 0.868686
vt 0.335666 0.868686
vn 0.000000 1.000000 0.000000
vn 0.000000 1.000000 0.000000
vn 0.000000 1.000000 0.000000
vn 0.000000 1.000000 0.000000
vn 0.000000 1.000000 0.000000
vn 0.000000 1.000000 0.000000
vn 0.000000 0.707104 -0.707110
vn 0.000000 0.707104 -0.707110
vn 0.000000 0.707104 -0.707110
vn 0.000000 0.707104 -0.707110
vn -0.707108 0.707105 0.000000
vn -0.707108 0.707105 0.000000
vn -0.707108 0.707105 0.000000
vn -0.707108 0.707105 0.000000
vn 0.000000 0.707104 -0.707110
vn 0.000000 0.707104 -0.707110
vn 0.707108 0.707105 0.000000
vn 0.707108 0.707105 0.000000
vn 0.707108 0.707105 0.000000
vn 0.707108 0.707105 0.000000
vn 0.707108 0.707105 0.000000
vn 0.707108 0.707105 0.000000
vn 0.707108 0.707105 0.000000
vn 0.707108 0.707105 0.000000
vn 0.000000 0.707118 0.707096
vn 0.000000 0.707118 0.707096
vn 0.000000 0.707118 0.707096
vn 0.000000 0.707118 0.707096
vn 0.000000 0.707118 0.707096
vn 0.000000 0.707118 0.707096
vn -0.707108 0.707105 0.000000
vn -0.707108 0.707105 0.000000
vn -0.707108 0.707105 0.000000
vn -0.707108 0.707105 0.000000
vn 0.000000 1.000000 0.000000
vn 0.000000 1.000000 0.000000
vn 0.000000 1.000000 0.000000
vn 0.000000 1.000000 0.000000
vn 0.000000 1.000000 0.000000
vn 0.000000 1.000000 0.000000
vn 0.000000 1.000000 0.000000
vn 0.000000 1.000000 0.000000
vn 0.000000 0.000000 1.000000
vn 0.000000 0.000000 1.000000
vn 0.000000 0.000000 1.000000
vn 0.000000 0.000000 1.000000
vn 1.000000 0.000000 0.000000
vn 1.000000 0.000000 0.000000
vn 1.000000 0.000000 0.000000
vn 1.000000 0.000000 0.000000
vn -1.000000 0.000000 0.000000
vn -1.000000 0.000000 0.000000
vn -1.000000 0.000000 0.000000
vn -1.000000 0.000000 0.000000
vn 0.000000 0.000000 1.000000
vn 0.000000 0.000000 1.000000
vn 0.000000 1.000000 0.000000
vn 0.000000 1.000000 0.000000
vn -0.707096 -0.707117 0.000000
vn -0.707096 -0.707117 0.000000
vn -0.707096 -0.707117 0.000000
vn -0.707096 -0.707117 0.000000
vn 0.000000 -0.707116 -0.707098
vn 0.000000 -0.707116 -0.707098
vn 0.000000 -0.707116 -0.707098
vn 0.000000 -0.707116 -0.707098
vn 0.707096 -0.707117 0.000000
vn 0.707096 -0.707117 0.000000
vn 0.707096 -0.707117 0.000000
vn 0.707096 -0.707117 0.000000
vn 0.000000 -0.707116 -0.707098
vn 0.000000 -0.707116 -0.707098
vn 0.000000 -1.000000 0.000000
vn 0.000000 -1.000000 0.000000
vn 0.000000 -1.000000 0.000000
vn 0.000000 -1.000000 0.000000
vn 0.000000 -1.000000 0.000000
vn 0.000000 -1.000000 0.000000
vn 0.000000 0.000000 -1.000000
vn 0.000000 0.000000 -1.000000
vn 0.000000 0.000000 -1.000000
vn 0.000000 0.000000 -1.000000
vn 1.000000 0.000000 0.000000
vn 1.000000 0.000000 0.000000
vn 1.000000 0.000000 0.000000
vn 1.000000 0.000000 0.000000
vn -1.000000 0.000000 0.000000
vn -1.000000 0.000000 0.000000
vn -1.000000 0.000000 0.000000
vn -1.000000 0.000000 0.000000
vn 0.000000 0.000000 -1.000000
vn 0.000000 0.000000 -1.000000
vn 0.000000 0.000000 -1.000000
vn 0.000000 0.000000 -1.000000
vn 0.000000 0.000000 -1.000000
vn 0.000000 0.000000 -1.000000
vn 0.000000 -0.707110 0.707103
vn 0.000000 -0.707110 0.707103
vn 0.000000 -0.707110 0.707103
vn 0.000000 -0.707110 0.707103
vn -0.707109 0.000000 0.707105
vn -0.707109 0.000000 0.707105
vn -0.707109 0.000000 0.707105
vn -0.707109 0.000000 0.707105
vn 0.707115 0.000000 0.707099
vn 0.707115 0.000000 0.707099
vn 0.707115 0.000000 0.707099
vn 0.707115 0.000000 0.707099
vn 0.000000 0.707096 0.707118
vn 0.000000 0.707096 0.707118
vn 0.000000 0.707096 0.707118
vn 0.000000 0.707096 0.707118
vn 0.000000 0.000000 1.000000
vn 0.000000 0.000000 1.000000
vn 0.000000 0.000000 1.000000
vn 0.000000 0.000000 1.000000
vn 0.000000 1.000000 0.000000
vn 0.000000 1.000000 0.000000
vn 0.000000 1.000000 0.000000
vn 0.000000 1.000000 0.000000
vn 0.000000 -1.000000 0.000000
vn 0.000000 -1.000000 0.000000
vn 0.000000 -1.000000 0.000000
vn 0.000000 -1.000000 0.000000
vn 1.000000 0.000000 0.000000
vn 1.000000 0.000000 0.000000
vn 1.000000 0.000000 0.000000
vn 1.000000 0.000000 0.000000
vn -1.000000 0.000000 0.000000
vn -1.000000 0.000000 0.000000
vn -1.000000 0.000000 0.000000
vn -1.000000 0.000000 0.000000
f 2/1/1 3/2/2 4/3/3 5/4/4
f 3/2/2 6/5/5 7/6/6 4/3/3
f 8/7/7 9/35/8 11/38/9 10/49/10
f 9/35/11 8/7/12 21/8/13 20/20/14
f 10/49/10 11/38/9 13/24/15 12/57/16
f 12/9/17 13/10/18 23/11/19 22/50/20
f 15/12/21 14/13/22 16/14/23 17/21/24
f 17/15/25 16/25/26 19/33/27 18/16/28
f 18/16/28 19/33/27 26/31/29 27/17/30
f 25/18/31 24/22/32 27/37/33 26/19/34
f 9/35/35 20/20/36 15/12/37 17/21/38
f 27/37/39 24/22/40 23/23/41 13/24/42
f 19/33/43 16/25/44 5/29/45 4/26/46
f 16/25/47 14/27/48 2/28/49 5/29/50
f 25/30/51 26/31/52 7/34/53 6/32/54
f 26/31/55 19/33/43 4/26/46 7/34/56
f 11/38/57 9/35/35 17/21/38 18/36/58
f 27/37/39 13/24/42 11/38/57 18/36/58
f 29/39/59 28/40/60 31/48/61 30/45/62
f 30/45/63 31/48/64 37/58/65 36/46/66
f 33/41/67 32/47/68 34/43/69 35/42/70
f 35/42/71 34/43/72 36/46/66 37/58/65
f 1/44/73 29/39/74 30/45/75 36/46/76
f 34/43/77 32/47/78 1/44/73 36/46/76
f 31/48/79 8/7/80 10/49/81 37/58/82
f 12/9/83 22/50/84 33/51/85 35/52/86
f 31/53/87 28/54/88 21/55/89 8/56/90
f 12/57/91 35/42/92 37/58/82 10/49/81
f 38/59/93 39/60/94 41/61/95 40/62/96
f 42/63/97 43/64/98 45/65/99 44/66/100
f 43/64/101 42/63/102 46/67/103 47/68/104
f 44/66/105 45/65/106 49/69/107 48/70/108
f 47/68/109 46/67/110 48/70/111 49/69/112
f 42/63/113 44/66/114 48/70/115 46/67/116
f 47/68/117 49/71/118 39/60/119 38/59/120
f 40/62/121 41/61/122 45/72/123 43/73/124
f 45/65/125 41/74/126 39/75/127 49/69/128
f 40/76/129 43/64/130 47/77/131 38/78/132
