# This file uses meters as units for non-parametric coordinates.

v -99.135513 89.888153 39.574987
v -99.135513 89.888153 -30.289099
v -2.536892 89.888153 39.574987
v -2.536892 89.888153 -30.289099
v -101.187946 122.171074 -32.531542
v -100.982727 122.376289 -32.326319
v -0.484459 122.171074 -32.531542
v -0.689678 122.376289 -32.326319
v -99.135513 122.171074 39.574987
v -99.340736 122.376289 39.574987
v -99.135513 122.171074 -30.289099
v -99.340736 122.376289 -30.494322
v -100.982727 122.376289 39.574987
v -101.187946 122.171074 39.574987
v -0.484459 122.171074 39.574987
v -0.689678 122.376289 39.574987
v -2.331669 122.376289 39.574987
v -2.536892 122.171074 39.574987
v -2.536892 122.171074 -30.289099
v -2.331669 122.376289 -30.494322
v -101.187946 88.096306 39.574987
v -100.744770 87.653137 39.574987
v -100.744770 87.653137 -32.088366
v -101.187946 88.096306 -32.531542
v -0.927635 87.653137 39.574987
v -0.484459 88.096306 39.574987
v -0.927635 87.653137 -32.088366
v -0.484459 88.096306 -32.531542
v -101.672401 123.897804 39.574984
v 0.000000 123.897804 39.574984
v -101.672401 86.611877 39.574984
v 0.000000 86.611877 39.574984
v -101.204239 87.080040 41.447824
v -101.672401 86.611877 40.979664
v -0.468155 87.080040 41.447824
v 0.000000 86.611877 40.979664
v -101.204239 123.429634 41.447824
v -101.672401 123.897804 40.979664
v -0.468155 123.429634 41.447824
v 0.000000 123.897804 40.979664
vt 0.516038 0.865441
vt 0.516038 0.766652
vt 0.613627 0.865441
vt 0.613627 0.766652
vt 0.513297 0.762284
vt 0.513297 0.865441
vt 0.513297 0.864486
vt 0.513779 0.865441
vt 0.616369 0.865441
vt 0.515764 0.865441
vt 0.516038 0.865441
vt 0.516038 0.766652
vt 0.613250 0.765073
vt 0.613250 0.765073
vt 0.613627 0.865441
vt 0.613627 0.766652
vt 0.513571 0.865441
vt 0.515764 0.766165
vt 0.613901 0.865441
vt 0.616095 0.865441
vt 0.616095 0.761816
vt 0.613250 0.766062
vt 0.517240 0.766062
vt 0.517240 0.862052
vt 0.613250 0.862052
vt 0.517240 0.766062
vt 0.613250 0.766062
vt 0.517240 0.862052
vt 0.613250 0.862052
vt 0.513570 0.761816
vt 0.613901 0.766165
vt 0.513889 0.761329
vt 0.513297 0.761329
vt 0.616369 0.761329
vt 0.616369 0.863378
vt 0.615777 0.864389
vt 0.513888 0.864389
vt 0.615777 0.761329
vt 0.513297 0.863378
vt 0.616369 0.864486
vt 0.616369 0.763392
vt 0.513297 0.763392
vt 0.616369 0.763392
vt 0.513297 0.763392
vt 0.513297 0.864486
vt 0.616369 0.864486
vt 0.616369 0.762284
vt 0.513297 0.761329
vt 0.616369 0.761329
vt 0.616369 0.865441
vt 0.513297 0.865441
vt 0.513914 0.763758
vt 0.539062 0.761329
vt 0.590603 0.761329
vt 0.615751 0.763758
vt 0.513914 0.863012
vt 0.513297 0.839416
vt 0.590603 0.865441
vt 0.615751 0.863012
vt 0.616369 0.839416
vt 0.616369 0.787354
vt 0.513297 0.787354
vt 0.513297 0.761329
vt 0.513297 0.865441
vt 0.616369 0.761329
vt 0.539062 0.865441
vt 0.616369 0.865441
vn 0.000000 1.000000 0.000000
vn 0.000000 1.000000 0.000000
vn 0.000000 1.000000 0.000000
vn 0.000000 1.000000 0.000000
vn 0.000000 0.707150 -0.707064
vn 0.000000 0.707150 -0.707064
vn 0.000000 0.707150 -0.707064
vn 0.000000 0.707150 -0.707064
vn -0.707106 0.707108 0.000000
vn -0.707106 0.707108 0.000000
vn -0.707106 0.707108 0.000000
vn -0.707106 0.707108 0.000000
vn 0.707094 0.707120 0.000000
vn 0.707094 0.707120 0.000000
vn 0.707094 0.707120 0.000000
vn 0.707094 0.707120 0.000000
vn 0.707097 0.707117 0.000000
vn 0.707097 0.707117 0.000000
vn 0.707097 0.707117 0.000000
vn 0.707097 0.707117 0.000000
vn 0.000000 0.707127 0.707086
vn 0.000000 0.707127 0.707086
vn 0.000000 0.707127 0.707086
vn 0.000000 0.707127 0.707086
vn -0.707115 0.707098 0.000000
vn -0.707115 0.707098 0.000000
vn -0.707115 0.707098 0.000000
vn -0.707115 0.707098 0.000000
vn 0.000000 1.000000 0.000001
vn 0.000000 1.000000 0.000000
vn 0.000000 1.000000 0.000000
vn 0.000000 1.000000 0.000001
vn 0.000000 1.000000 0.000001
vn 0.000000 1.000000 0.000000
vn 0.000000 1.000000 0.000000
vn 0.000000 1.000000 0.000001
vn 0.000000 0.000000 1.000000
vn 0.000000 0.000000 1.000000
vn 0.000000 0.000000 1.000000
vn 0.000000 0.000000 1.000000
vn 1.000000 0.000000 0.000000
vn 1.000000 0.000000 0.000000
vn 1.000000 0.000000 0.000000
vn 1.000000 0.000000 0.000000
vn -1.000000 0.000000 0.000000
vn -1.000000 0.000000 0.000000
vn -1.000000 0.000000 0.000000
vn -1.000000 0.000000 0.000000
vn -0.707101 -0.707112 0.000000
vn -0.707101 -0.707112 0.000000
vn -0.707101 -0.707113 0.000000
vn -0.707101 -0.707113 0.000000
vn 0.000000 -0.707118 -0.707096
vn 0.000000 -0.707118 -0.707096
vn 0.000000 -0.707118 -0.707096
vn 0.000000 -0.707118 -0.707096
vn 0.707104 -0.707110 0.000000
vn 0.707104 -0.707110 0.000000
vn 0.707104 -0.707110 0.000000
vn 0.707104 -0.707110 0.000000
vn 0.000000 -1.000000 0.000000
vn 0.000000 -1.000000 0.000000
vn 0.000000 -1.000000 0.000000
vn 0.000000 -1.000000 0.000000
vn 0.000000 0.000000 -1.000000
vn 0.000000 0.000000 -1.000000
vn 0.000000 0.000000 -1.000000
vn 0.000000 0.000000 -1.000000
vn 1.000000 0.000000 0.000000
vn 1.000000 0.000000 0.000000
vn 1.000000 0.000000 0.000000
vn 1.000000 0.000000 0.000000
vn -1.000000 0.000000 0.000000
vn -1.000000 0.000000 0.000000
vn -1.000000 0.000000 0.000000
vn -1.000000 0.000000 0.000000
vn 0.000000 0.000000 -1.000000
vn 0.000000 0.000000 -1.000000
vn 0.000000 0.000000 -1.000000
vn 0.000000 0.000000 -1.000000
vn 0.000000 -0.707099 0.707114
vn 0.000000 -0.707099 0.707114
vn 0.000000 -0.707099 0.707114
vn 0.000000 -0.707099 0.707114
vn -0.707104 0.000000 0.707109
vn -0.707104 0.000000 0.707109
vn -0.707104 0.000000 0.707109
vn -0.707104 0.000000 0.707109
vn 0.707110 0.000000 0.707103
vn 0.707110 0.000000 0.707104
vn 0.707110 0.000000 0.707104
vn 0.707110 0.000000 0.707104
vn 0.000000 0.707099 0.707114
vn 0.000000 0.707099 0.707114
vn 0.000000 0.707099 0.707114
vn 0.000000 0.707099 0.707114
vn 0.000000 0.000000 1.000000
vn 0.000000 0.000000 1.000000
vn 0.000000 0.000000 1.000000
vn 0.000000 0.000000 1.000000
vn 0.000000 1.000000 0.000000
vn 0.000000 1.000000 0.000000
vn 0.000000 1.000000 0.000000
vn 0.000000 1.000000 0.000000
vn 0.000000 -1.000000 0.000000
vn 0.000000 -1.000000 0.000000
vn 0.000000 -1.000000 0.000000
vn 0.000000 -1.000000 0.000000
vn 1.000000 0.000000 0.000000
vn 1.000000 0.000000 0.000000
vn 1.000000 0.000000 0.000000
vn 1.000000 0.000000 0.000000
vn -1.000000 0.000000 0.000000
vn -1.000000 0.000000 0.000000
vn -1.000000 0.000000 0.000000
vn -1.000000 0.000000 0.000000
f 2/2/1 1/1/2 3/3/3 4/4/4
f 5/5/5 6/30/6 8/21/7 7/47/8
f 6/30/9 5/5/10 14/6/11 13/17/12
f 7/7/13 8/8/14 16/9/15 15/40/16
f 10/10/17 9/11/18 11/12/19 12/18/20
f 12/13/21 11/22/22 19/27/23 20/14/24
f 18/15/25 17/19/26 20/31/27 19/16/28
f 6/30/29 13/17/30 10/10/31 12/18/32
f 20/31/33 17/19/34 16/20/35 8/21/36
f 19/27/37 11/22/38 2/25/39 4/29/40
f 11/22/41 9/23/42 1/24/43 2/25/44
f 18/26/45 19/27/46 4/29/47 3/28/48
f 8/21/36 6/30/29 12/18/32 20/31/33
f 22/32/49 21/33/50 24/39/51 23/37/52
f 23/37/53 24/39/54 28/35/55 27/36/56
f 26/34/57 25/38/58 27/36/59 28/35/60
f 25/38/61 22/32/62 23/37/63 27/36/64
f 28/35/65 24/39/66 5/5/67 7/47/68
f 7/7/69 15/40/70 26/41/71 28/42/72
f 24/43/73 21/44/74 14/45/75 5/46/76
f 29/48/77 30/49/78 32/50/79 31/51/80
f 33/52/81 34/53/82 36/54/83 35/55/84
f 34/53/85 33/52/86 37/56/87 38/57/88
f 35/55/89 36/54/90 40/58/91 39/59/92
f 38/57/93 37/56/94 39/59/95 40/58/96
f 33/52/97 35/55/98 39/59/99 37/56/100
f 38/57/101 40/60/102 30/49/103 29/48/104
f 31/51/105 32/50/106 36/61/107 34/62/108
f 36/54/109 32/63/110 30/64/111 40/58/112
f 31/65/113 34/53/114 38/66/115 29/67/116
