# This file uses meters as units for non-parametric coordinates.

v -33.076878 55.738839 30.931635
v -32.797917 56.017815 30.931635
v -33.076878 56.017815 31.076273
v -32.797917 72.087502 30.931635
v -33.076878 72.366464 30.931635
v -33.076878 72.087502 31.076273
v -35.587850 56.017815 30.931635
v -35.308888 55.738839 30.931635
v -35.308888 56.017815 31.076273
v -35.308888 72.366464 30.931635
v -35.587850 72.087502 30.931635
v -35.308888 72.087502 31.076273
v -35.308888 55.738839 29.629808
v -35.587850 56.017815 29.629808
v -35.587850 72.087502 29.629808
v -35.308888 72.366464 29.629808
v -32.797917 56.017815 29.629808
v -33.076878 55.738839 29.629808
v -33.076878 72.366464 29.629808
v -32.797917 72.087502 29.629808
vt 0.430564 0.759700
vt 0.412882 0.775475
vt 0.430871 0.759700
vt 0.414404 0.773723
vt 0.430871 0.773723
vt 0.412575 0.773723
vt 0.412575 0.759700
vt 0.430564 0.757947
vt 0.412882 0.759700
vt 0.412575 0.759700
vt 0.412575 0.775475
vt 0.414404 0.759700
vt 0.430871 0.759700
vt 0.430564 0.775475
vt 0.430871 0.775475
vt 0.430564 0.759700
vt 0.412575 0.773723
vt 0.412882 0.757947
vt 0.412575 0.757947
vt 0.412882 0.773723
vt 0.430564 0.773723
vt 0.430564 0.773723
vt 0.430871 0.773723
vt 0.430871 0.757947
vt 0.412882 0.757947
vt 0.412882 0.759700
vt 0.430564 0.757947
vt 0.429042 0.759700
vt 0.412882 0.773723
vt 0.429042 0.773723
vn 1.000000 -0.000000 0.000000
vn 1.000000 -0.000000 0.000000
vn 1.000000 -0.000000 0.000000
vn 1.000000 -0.000000 0.000000
vn 0.000000 0.000000 1.000000
vn 0.000000 0.000000 1.000000
vn 0.000000 0.000000 1.000000
vn 0.000000 0.000000 1.000000
vn -0.000000 -1.000000 0.000000
vn -0.000000 -1.000000 0.000000
vn -0.000000 -1.000000 0.000000
vn -0.000000 -1.000000 0.000000
vn 0.000000 1.000000 0.000000
vn 0.000000 1.000000 0.000000
vn 0.000000 1.000000 0.000000
vn 0.000000 1.000000 0.000000
vn -1.000000 0.000000 0.000000
vn -1.000000 0.000000 0.000000
vn -1.000000 0.000000 0.000000
vn -1.000000 0.000000 0.000000
vn 0.707125 -0.707088 0.000000
vn 0.707125 -0.707088 0.000000
vn 0.707125 -0.707088 0.000000
vn 0.707125 -0.707088 0.000000
vn 0.460298 -0.000000 0.887764
vn 0.460298 -0.000000 0.887764
vn 0.460298 -0.000000 0.887764
vn 0.460298 -0.000000 0.887764
vn -0.000000 -0.460281 0.887774
vn -0.000000 -0.460281 0.887774
vn -0.000000 -0.460281 0.887774
vn -0.000000 -0.460281 0.887774
vn 0.707107 0.707107 0.000000
vn 0.707107 0.707107 0.000000
vn 0.707107 0.707107 0.000000
vn 0.707107 0.707107 0.000000
vn 0.000000 0.460301 0.887763
vn 0.000000 0.460301 0.887763
vn 0.000000 0.460301 0.887763
vn 0.000000 0.460301 0.887763
vn -0.707125 -0.707088 0.000000
vn -0.707125 -0.707088 0.000000
vn -0.707125 -0.707088 0.000000
vn -0.707125 -0.707088 0.000000
vn -0.460298 0.000000 0.887764
vn -0.460298 0.000000 0.887764
vn -0.460298 0.000000 0.887764
vn -0.460298 0.000000 0.887764
vn -0.707107 0.707107 0.000000
vn -0.707107 0.707107 0.000000
vn -0.707107 0.707107 0.000000
vn -0.707107 0.707107 0.000000
vn 0.418126 -0.418107 0.806447
vn 0.418126 -0.418107 0.806447
vn 0.418126 -0.418107 0.806447
vn 0.418132 0.418122 0.806437
vn 0.418132 0.418122 0.806437
vn 0.418132 0.418122 0.806437
vn -0.418126 -0.418107 0.806447
vn -0.418126 -0.418107 0.806447
vn -0.418126 -0.418107 0.806447
vn -0.418145 0.418135 0.806423
vn -0.418145 0.418135 0.806423
vn -0.418145 0.418135 0.806423
vn -0.000000 -0.000000 -1.000000
vn -0.000000 -0.000000 -1.000000
vn -0.000000 -0.000007 -1.000000
vn -0.000000 -0.000007 -1.000000
vn 0.000000 0.000011 -1.000000
vn 0.000000 0.000000 -1.000000
vn 0.000000 0.000000 -1.000000
vn 0.000000 0.000011 -1.000000
f 20/14/1 4/1/2 2/9/3 17/2/4
f 6/16/5 12/21/6 9/29/7 3/26/8
f 18/3/9 1/12/10 8/4/11 13/5/12
f 16/6/13 10/30/14 5/28/15 19/7/16
f 14/18/17 7/20/18 11/22/19 15/8/20
f 2/9/21 1/10/22 18/11/23 17/2/24
f 3/26/25 2/25/26 4/27/27 6/16/28
f 1/12/29 3/26/30 9/29/31 8/4/32
f 5/13/33 4/1/34 20/14/35 19/15/36
f 6/16/37 5/28/38 10/30/39 12/21/40
f 8/17/41 7/20/42 14/18/43 13/19/44
f 7/20/45 9/29/46 12/21/47 11/22/48
f 11/22/49 10/23/50 16/24/51 15/8/52
f 1/12/53 2/25/54 3/26/55
f 4/27/56 5/28/57 6/16/58
f 7/20/59 8/4/60 9/29/61
f 10/30/62 11/22/63 12/21/64
f 14/18/65 17/2/66 18/3/67 13/19/68
f 19/15/69 20/14/70 15/8/71 16/6/72
f 15/8/71 20/14/70 17/2/66 14/18/65
