# This file uses meters as units for non-parametric coordinates.

v -54.186893 13.913670 29.148264
v -54.657497 13.443073 28.677666
v -29.815138 13.913670 29.148264
v -29.344547 13.443073 28.677666
v -54.186901 112.982300 29.148272
v -54.657497 113.452896 28.677671
v -29.815145 112.982300 29.148272
v -29.344547 113.452896 28.677671
vt 0.650694 0.196007
vt 0.634954 0.196225
vt 0.634311 0.235514
vt 0.634954 0.242266
vt 0.727158 0.242485
vt 0.742899 0.196225
vt 0.742899 0.242266
vt 0.727158 0.196007
vt 0.638624 0.196810
vt 0.739295 0.196810
vt 0.739295 0.239646
vt 0.638624 0.239646
vt 0.638624 0.196810
vt 0.739295 0.196810
vt 0.739295 0.239646
vt 0.638624 0.239646
vn -0.707106 -0.000000 0.707107
vn -0.707106 -0.000000 0.707107
vn -0.707106 -0.000000 0.707107
vn -0.707106 -0.000000 0.707107
vn 0.707110 -0.000000 0.707103
vn 0.707110 -0.000000 0.707103
vn 0.707110 -0.000000 0.707103
vn 0.707110 -0.000000 0.707103
vn 0.000000 -0.000000 1.000000
vn 0.000000 -0.000000 1.000000
vn 0.000000 -0.000000 1.000000
vn 0.000000 -0.000000 1.000000
vn 0.000000 -0.707108 0.707105
vn 0.000000 -0.707109 0.707105
vn 0.000000 -0.707108 0.707105
vn 0.000000 -0.707108 0.707105
vn 0.000000 0.707108 0.707106
vn 0.000000 0.707108 0.707106
vn 0.000000 0.707108 0.707106
vn 0.000000 0.707108 0.707106
f 2/1/1 1/2/2 5/4/3 6/3/4
f 3/6/5 4/8/6 8/5/7 7/7/8
f 1/2/9 3/6/10 7/7/11 5/4/12
f 3/9/13 1/10/14 2/11/15 4/12/16
f 5/13/17 7/14/18 8/15/19 6/16/20
