# This file uses meters as units for non-parametric coordinates.

v -26.807659 83.392570 27.272995
v -26.807659 83.392570 -24.000095
v 38.772018 83.392570 27.272995
v 38.772018 83.392570 -24.000095
v -28.860092 111.726173 -26.242542
v -28.654873 111.931389 -26.037319
v 40.824448 111.726173 -26.242542
v 40.619232 111.931389 -26.037319
v -26.807659 111.726173 27.272995
v -27.012882 111.931389 27.272995
v -26.807659 111.726173 -24.000099
v -27.012882 111.931389 -24.205322
v -28.654873 111.931389 27.272995
v -28.860092 111.726173 27.272995
v 40.824448 111.726173 27.272995
v 40.619232 111.931389 27.272995
v 38.977242 111.931389 27.272995
v 38.772018 111.726173 27.272995
v 38.772018 111.726173 -24.000099
v 38.977242 111.931389 -24.205322
v -28.860092 81.600723 27.272995
v -28.416916 81.157555 27.272995
v -28.416916 81.157555 -25.799362
v -28.860092 81.600723 -26.242538
v 40.381271 81.157555 27.272995
v 40.824448 81.600723 27.272995
v 40.381271 81.157555 -25.799362
v 40.824448 81.600723 -26.242538
v -29.344547 113.452904 27.272991
v 41.308914 113.452904 27.272991
v -29.344547 80.116295 27.272991
v 41.308907 80.116295 27.272991
v -28.876385 80.584457 29.145832
v -29.344547 80.116295 28.677670
v 40.840752 80.584457 29.145832
v 41.308907 80.116295 28.677670
v -28.876385 112.984734 29.145832
v -29.344547 113.452904 28.677670
v 40.840759 112.984734 29.145832
v 41.308914 113.452904 28.677670
vt 0.320057 0.963619
vt 0.320057 0.945940
vt 0.336592 0.963619
vt 0.336592 0.945940
vt 0.319592 0.945158
vt 0.319592 0.963619
vt 0.319592 0.963449
vt 0.319674 0.963619
vt 0.337056 0.963619
vt 0.320010 0.963619
vt 0.320057 0.963619
vt 0.320057 0.945940
vt 0.336528 0.945657
vt 0.336528 0.945657
vt 0.336592 0.963619
vt 0.336592 0.945940
vt 0.319639 0.963619
vt 0.320010 0.945852
vt 0.336638 0.963619
vt 0.337010 0.963619
vt 0.337010 0.945074
vt 0.336528 0.945834
vt 0.320260 0.945834
vt 0.320260 0.963013
vt 0.336528 0.963013
vt 0.320260 0.945834
vt 0.336528 0.945834
vt 0.320260 0.963013
vt 0.336528 0.963013
vt 0.319638 0.945074
vt 0.336638 0.945852
vt 0.319693 0.944987
vt 0.319592 0.944987
vt 0.337056 0.944987
vt 0.337056 0.963250
vt 0.336956 0.963431
vt 0.319692 0.963431
vt 0.336956 0.944987
vt 0.319592 0.963250
vt 0.337056 0.963449
vt 0.337056 0.945356
vt 0.319592 0.945356
vt 0.337056 0.945356
vt 0.319592 0.945356
vt 0.319592 0.963449
vt 0.337056 0.963449
vt 0.337056 0.945158
vt 0.319592 0.944987
vt 0.337056 0.944987
vt 0.337056 0.963619
vt 0.319592 0.963619
vt 0.319697 0.945422
vt 0.323958 0.944987
vt 0.332691 0.944987
vt 0.336952 0.945422
vt 0.319697 0.963185
vt 0.319592 0.958962
vt 0.332691 0.963619
vt 0.336952 0.963185
vt 0.337056 0.958962
vt 0.337056 0.949645
vt 0.319592 0.949645
vt 0.319592 0.944987
vt 0.319592 0.963619
vt 0.337056 0.944987
vt 0.323958 0.963619
vt 0.337056 0.963619
vn 0.000000 1.000000 0.000000
vn 0.000000 1.000000 0.000000
vn 0.000000 1.000000 0.000000
vn 0.000000 1.000000 0.000000
vn 0.000000 0.707130 -0.707083
vn 0.000000 0.707130 -0.707083
vn 0.000000 0.707130 -0.707083
vn 0.000000 0.707130 -0.707083
vn -0.707098 0.707115 0.000000
vn -0.707098 0.707115 0.000000
vn -0.707098 0.707115 0.000000
vn -0.707098 0.707115 0.000000
vn 0.707106 0.707108 0.000000
vn 0.707106 0.707108 0.000000
vn 0.707106 0.707108 0.000000
vn 0.707106 0.707108 0.000000
vn 0.707094 0.707119 0.000000
vn 0.707094 0.707119 0.000000
vn 0.707094 0.707119 0.000000
vn 0.707094 0.707119 0.000000
vn 0.000000 0.707122 0.707092
vn 0.000000 0.707122 0.707092
vn 0.000000 0.707122 0.707092
vn 0.000000 0.707122 0.707092
vn -0.707094 0.707119 0.000000
vn -0.707094 0.707119 0.000000
vn -0.707094 0.707119 0.000000
vn -0.707094 0.707119 0.000000
vn 0.000000 1.000000 -0.000003
vn 0.000000 1.000000 0.000000
vn 0.000000 1.000000 0.000000
vn 0.000000 1.000000 -0.000002
vn 0.000000 1.000000 -0.000002
vn 0.000000 1.000000 0.000000
vn 0.000000 1.000000 0.000000
vn 0.000000 1.000000 -0.000003
vn 0.000000 0.000000 1.000000
vn 0.000000 0.000000 1.000000
vn 0.000000 0.000000 1.000000
vn 0.000000 0.000000 1.000000
vn 1.000000 -0.000000 0.000000
vn 1.000000 -0.000000 0.000000
vn 1.000000 -0.000000 0.000000
vn 1.000000 -0.000000 0.000000
vn -1.000000 0.000000 0.000000
vn -1.000000 0.000000 0.000000
vn -1.000000 0.000000 0.000000
vn -1.000000 0.000000 0.000000
vn -0.707100 -0.707113 0.000000
vn -0.707100 -0.707113 0.000000
vn -0.707100 -0.707113 0.000000
vn -0.707100 -0.707114 0.000000
vn 0.000000 -0.707113 -0.707100
vn 0.000000 -0.707114 -0.707100
vn 0.000000 -0.707114 -0.707100
vn 0.000000 -0.707113 -0.707100
vn 0.707100 -0.707114 0.000000
vn 0.707100 -0.707114 0.000000
vn 0.707100 -0.707113 0.000000
vn 0.707100 -0.707114 0.000000
vn 0.000000 -1.000000 0.000000
vn 0.000000 -1.000000 0.000000
vn 0.000000 -1.000000 0.000000
vn 0.000000 -1.000000 0.000000
vn 0.000000 -0.000000 -1.000000
vn 0.000000 -0.000000 -1.000000
vn 0.000000 -0.000000 -1.000000
vn 0.000000 -0.000000 -1.000000
vn 1.000000 -0.000000 0.000000
vn 1.000000 -0.000000 0.000000
vn 1.000000 -0.000000 0.000000
vn 1.000000 -0.000000 0.000000
vn -1.000000 0.000000 0.000000
vn -1.000000 0.000000 0.000000
vn -1.000000 0.000000 0.000000
vn -1.000000 0.000000 0.000000
vn 0.000000 0.000000 -1.000000
vn 0.000000 0.000000 -1.000000
vn 0.000000 0.000000 -1.000000
vn 0.000000 0.000000 -1.000000
vn 0.000000 -0.707114 0.707099
vn 0.000000 -0.707114 0.707099
vn 0.000000 -0.707114 0.707099
vn 0.000000 -0.707114 0.707099
vn -0.707106 0.000000 0.707107
vn -0.707106 0.000000 0.707107
vn -0.707106 0.000000 0.707107
vn -0.707106 0.000000 0.707107
vn 0.707112 -0.000000 0.707101
vn 0.707112 -0.000000 0.707101
vn 0.707112 -0.000000 0.707101
vn 0.707112 -0.000000 0.707101
vn 0.000000 0.707093 0.707120
vn 0.000000 0.707093 0.707120
vn 0.000000 0.707093 0.707120
vn 0.000000 0.707093 0.707120
vn 0.000000 0.000000 1.000000
vn 0.000000 0.000000 1.000000
vn 0.000000 0.000000 1.000000
vn 0.000000 0.000000 1.000000
vn 0.000000 1.000000 0.000000
vn 0.000000 1.000000 0.000000
vn 0.000000 1.000000 0.000000
vn 0.000000 1.000000 0.000000
vn 0.000000 -1.000000 0.000000
vn 0.000000 -1.000000 0.000000
vn 0.000000 -1.000000 0.000000
vn 0.000000 -1.000000 0.000000
vn 1.000000 -0.000000 0.000000
vn 1.000000 -0.000000 0.000000
vn 1.000000 -0.000000 0.000000
vn 1.000000 -0.000000 0.000000
vn -1.000000 0.000000 0.000000
vn -1.000000 0.000000 0.000000
vn -1.000000 0.000000 0.000000
vn -1.000000 0.000000 0.000000
f 2/2/1 1/1/2 3/3/3 4/4/4
f 5/5/5 6/30/6 8/21/7 7/47/8
f 6/30/9 5/5/10 14/6/11 13/17/12
f 7/7/13 8/8/14 16/9/15 15/40/16
f 10/10/17 9/11/18 11/12/19 12/18/20
f 12/13/21 11/22/22 19/27/23 20/14/24
f 18/15/25 17/19/26 20/31/27 19/16/28
f 6/30/29 13/17/30 10/10/31 12/18/32
f 20/31/33 17/19/34 16/20/35 8/21/36
f 19/27/37 11/22/38 2/25/39 4/29/40
f 11/22/41 9/23/42 1/24/43 2/25/44
f 18/26/45 19/27/46 4/29/47 3/28/48
f 8/21/36 6/30/29 12/18/32 20/31/33
f 22/32/49 21/33/50 24/39/51 23/37/52
f 23/37/53 24/39/54 28/35/55 27/36/56
f 26/34/57 25/38/58 27/36/59 28/35/60
f 25/38/61 22/32/62 23/37/63 27/36/64
f 28/35/65 24/39/66 5/5/67 7/47/68
f 7/7/69 15/40/70 26/41/71 28/42/72
f 24/43/73 21/44/74 14/45/75 5/46/76
f 29/48/77 30/49/78 32/50/79 31/51/80
f 33/52/81 34/53/82 36/54/83 35/55/84
f 34/53/85 33/52/86 37/56/87 38/57/88
f 35/55/89 36/54/90 40/58/91 39/59/92
f 38/57/93 37/56/94 39/59/95 40/58/96
f 33/52/97 35/55/98 39/59/99 37/56/100
f 38/57/101 40/60/102 30/49/103 29/48/104
f 31/51/105 32/50/106 36/61/107 34/62/108
f 36/54/109 32/63/110 30/64/111 40/58/112
f 31/65/113 34/53/114 38/66/115 29/67/116
