# This file uses meters as units for non-parametric coordinates.

v -113.996086 12.040024 16.805984
v -116.985901 12.040024 12.331276
v -121.460594 12.040024 9.341471
v -126.738823 12.040024 8.291424
v -132.017059 12.040024 9.341458
v -136.491760 12.040024 12.331269
v -139.481567 12.040024 16.805964
v -140.531601 12.040024 22.084194
v -139.481567 12.040024 27.362436
v -136.491760 12.040024 31.837124
v -132.017059 12.040024 34.826927
v -126.738831 12.040024 35.876976
v -121.460594 12.040024 34.826927
v -116.985909 12.040024 31.837124
v -113.996101 12.040024 27.362436
v -112.946053 12.040024 22.084200
v -113.996086 123.746696 16.805984
v -116.985901 123.746696 12.331276
v -121.460594 123.746696 9.341471
v -126.738823 123.746696 8.291424
v -132.017059 123.746696 9.341458
v -136.491760 123.746696 12.331269
v -139.481567 123.746696 16.805964
v -140.531601 123.746696 22.084194
v -139.481567 123.746696 27.362436
v -136.491760 123.746696 31.837124
v -132.017059 123.746696 34.826927
v -126.738831 123.746696 35.876976
v -121.460594 123.746696 34.826927
v -116.985909 123.746696 31.837124
v -113.996101 123.746696 27.362436
v -112.946053 123.746696 22.084200
v -113.996086 12.040024 -17.787666
v -116.985901 12.040024 -22.262375
v -121.460594 12.040024 -25.252180
v -126.738823 12.040024 -26.302227
v -132.017059 12.040024 -25.252193
v -136.491760 12.040024 -22.262383
v -139.481567 12.040024 -17.787687
v -140.531601 12.040024 -12.509456
v -139.481567 12.040024 -7.231215
v -136.491760 12.040024 -2.756527
v -132.017059 12.040024 0.233278
v -126.738831 12.040024 1.283325
v -121.460594 12.040024 0.233278
v -116.985909 12.040024 -2.756527
v -113.996101 12.040024 -7.231215
v -112.946053 12.040024 -12.509451
v -113.996086 123.746696 -17.787666
v -116.985901 123.746696 -22.262375
v -121.460594 123.746696 -25.252180
v -126.738823 123.746696 -26.302227
v -132.017059 123.746696 -25.252193
v -136.491760 123.746696 -22.262383
v -139.481567 123.746696 -17.787687
v -140.531601 123.746696 -12.509456
v -139.481567 123.746696 -7.231215
v -136.491760 123.746696 -2.756527
v -132.017059 123.746696 0.233278
v -126.738831 123.746696 1.283325
v -121.460594 123.746696 0.233278
v -116.985909 123.746696 -2.756527
v -113.996101 123.746696 -7.231215
v -112.946053 123.746696 -12.509451
v 113.996170 12.040024 16.805998
v 116.985962 12.040024 12.331287
v 121.460510 12.040024 9.341484
v 126.738831 12.040024 8.291418
v 132.016922 12.040024 9.341476
v 136.491684 12.040024 12.331284
v 139.481476 12.040024 16.805983
v 140.531723 12.040024 22.084196
v 139.481491 12.040024 27.362417
v 136.491699 12.040024 31.837112
v 132.016937 12.040024 34.826916
v 126.738831 12.040024 35.876984
v 121.460510 12.040024 34.826916
v 116.985962 12.040024 31.837112
v 113.996178 12.040024 27.362417
v 112.946159 12.040024 22.084200
v 113.996170 123.746696 16.805998
v 116.985962 123.746696 12.331287
v 121.460510 123.746696 9.341484
v 126.738831 123.746696 8.291418
v 132.016922 123.746696 9.341476
v 136.491684 123.746696 12.331284
v 139.481476 123.746696 16.805983
v 140.531723 123.746696 22.084196
v 139.481491 123.746696 27.362417
v 136.491699 123.746696 31.837112
v 132.016937 123.746696 34.826916
v 126.738831 123.746696 35.876984
v 121.460510 123.746696 34.826916
v 116.985962 123.746696 31.837112
v 113.996178 123.746696 27.362417
v 112.946159 123.746696 22.084200
v 113.996170 12.040024 -17.787653
v 116.985962 12.040024 -22.262363
v 121.460510 12.040024 -25.252190
v 126.738831 12.040024 -26.302233
v 132.016922 12.040024 -25.252201
v 136.491684 12.040024 -22.262371
v 139.481476 12.040024 -17.787697
v 140.531723 12.040024 -12.509455
v 139.481491 12.040024 -7.231206
v 136.491699 12.040024 -2.756538
v 132.016937 12.040024 0.233289
v 126.738831 12.040024 1.283331
v 121.460510 12.040024 0.233289
v 116.985962 12.040024 -2.756538
v 113.996178 12.040024 -7.231206
v 112.946159 12.040024 -12.509451
v 113.996170 123.746696 -17.787653
v 116.985962 123.746696 -22.262363
v 121.460510 123.746696 -25.252190
v 126.738831 123.746696 -26.302233
v 132.016922 123.746696 -25.252201
v 136.491684 123.746696 -22.262371
v 139.481476 123.746696 -17.787697
v 140.531723 123.746696 -12.509455
v 139.481491 123.746696 -7.231206
v 136.491699 123.746696 -2.756538
v 132.016937 123.746696 0.233289
v 126.738831 123.746696 1.283331
v 121.460510 123.746696 0.233289
v 116.985962 123.746696 -2.756538
v 113.996178 123.746696 -7.231206
v 112.946159 123.746696 -12.509451
vt 0.381645 0.868909
vt 0.381645 0.867842
vt 0.381645 0.866775
vt 0.381645 0.865709
vt 0.381645 0.864642
vt 0.381645 0.863575
vt 0.381645 0.862509
vt 0.381645 0.861442
vt 0.381645 0.860375
vt 0.381645 0.859308
vt 0.381645 0.858242
vt 0.381645 0.857175
vt 0.381645 0.856108
vt 0.381645 0.855042
vt 0.381645 0.853975
vt 0.381645 0.852908
vt 0.381645 0.851841
vt 0.399229 0.868909
vt 0.399229 0.867842
vt 0.399229 0.866775
vt 0.399229 0.865709
vt 0.399229 0.864642
vt 0.399229 0.863575
vt 0.399229 0.862509
vt 0.399229 0.861442
vt 0.399229 0.860375
vt 0.399229 0.859308
vt 0.399229 0.858242
vt 0.399229 0.857175
vt 0.399229 0.856108
vt 0.399229 0.855042
vt 0.399229 0.853975
vt 0.399229 0.852908
vt 0.399229 0.851841
vt 0.381645 0.868909
vt 0.381645 0.867842
vt 0.399229 0.867842
vt 0.399229 0.868909
vt 0.381645 0.866775
vt 0.399229 0.866775
vt 0.381645 0.865709
vt 0.399229 0.865709
vt 0.381645 0.864642
vt 0.399229 0.864642
vt 0.381645 0.863575
vt 0.399229 0.863575
vt 0.381645 0.862509
vt 0.399229 0.862509
vt 0.381645 0.861442
vt 0.399229 0.861442
vt 0.381645 0.860375
vt 0.399229 0.860375
vt 0.381645 0.859308
vt 0.399229 0.859308
vt 0.381645 0.858242
vt 0.399229 0.858242
vt 0.381645 0.857175
vt 0.399229 0.857175
vt 0.381645 0.856108
vt 0.399229 0.856108
vt 0.381645 0.855042
vt 0.399229 0.855042
vt 0.381645 0.853975
vt 0.399229 0.853975
vt 0.381645 0.852908
vt 0.399229 0.852908
vt 0.381645 0.851841
vt 0.399229 0.851841
vt 0.381645 0.868909
vt 0.399229 0.868909
vt 0.399229 0.867842
vt 0.381645 0.867842
vt 0.399229 0.866775
vt 0.381645 0.866775
vt 0.399229 0.865709
vt 0.381645 0.865709
vt 0.399229 0.864642
vt 0.381645 0.864642
vt 0.399229 0.863575
vt 0.381645 0.863575
vt 0.399229 0.862509
vt 0.381645 0.862509
vt 0.399229 0.861442
vt 0.381645 0.861442
vt 0.399229 0.860375
vt 0.381645 0.860375
vt 0.399229 0.859308
vt 0.381645 0.859308
vt 0.399229 0.858242
vt 0.381645 0.858242
vt 0.399229 0.857175
vt 0.381645 0.857175
vt 0.399229 0.856108
vt 0.381645 0.856108
vt 0.399229 0.855042
vt 0.381645 0.855042
vt 0.399229 0.853975
vt 0.381645 0.853975
vt 0.399229 0.852908
vt 0.381645 0.852908
vt 0.399229 0.851841
vt 0.381645 0.851841
vt 0.381645 0.868909
vt 0.399229 0.868909
vt 0.399229 0.867842
vt 0.381645 0.867842
vt 0.399229 0.866775
vt 0.381645 0.866775
vt 0.399229 0.865709
vt 0.381645 0.865709
vt 0.399229 0.864642
vt 0.381645 0.864642
vt 0.399229 0.863575
vt 0.381645 0.863575
vt 0.399229 0.862509
vt 0.381645 0.862509
vt 0.399229 0.861442
vt 0.381645 0.861442
vt 0.399229 0.860375
vt 0.381645 0.860375
vt 0.399229 0.859308
vt 0.381645 0.859308
vt 0.399229 0.858242
vt 0.381645 0.858242
vt 0.399229 0.857175
vt 0.381645 0.857175
vt 0.399229 0.856108
vt 0.381645 0.856108
vt 0.399229 0.855042
vt 0.381645 0.855042
vt 0.399229 0.853975
vt 0.381645 0.853975
vt 0.399229 0.852908
vt 0.381645 0.852908
vt 0.399229 0.851841
vt 0.381645 0.851841
vn 0.923878 0.000000 -0.382688
vn 0.707107 0.000000 -0.707107
vn 0.707107 0.000000 -0.707107
vn 0.923878 0.000000 -0.382688
vn 0.382688 0.000000 -0.923878
vn 0.382688 0.000000 -0.923878
vn 0.000001 0.000000 -1.000000
vn 0.000001 0.000000 -1.000000
vn -0.382687 0.000000 -0.923878
vn -0.382687 0.000000 -0.923878
vn -0.707107 0.000000 -0.707107
vn -0.707107 0.000000 -0.707107
vn -0.923878 0.000000 -0.382687
vn -0.923878 0.000000 -0.382687
vn -1.000000 0.000000 0.000000
vn -1.000000 0.000000 0.000000
vn -0.923878 0.000000 0.382687
vn -0.923878 0.000000 0.382687
vn -0.707106 0.000000 0.707108
vn -0.707106 0.000000 0.707108
vn -0.382688 0.000000 0.923878
vn -0.382688 0.000000 0.923878
vn -0.000000 0.000000 1.000000
vn -0.000000 0.000000 1.000000
vn 0.382688 0.000000 0.923878
vn 0.382688 0.000000 0.923878
vn 0.707107 0.000000 0.707107
vn 0.707107 0.000000 0.707107
vn 0.923878 0.000000 0.382689
vn 0.923878 0.000000 0.382689
vn 1.000000 0.000000 0.000001
vn 1.000000 0.000000 0.000001
vn 0.923878 0.000000 -0.382688
vn 0.707107 0.000000 -0.707107
vn 0.707107 0.000000 -0.707107
vn 0.923878 0.000000 -0.382688
vn 0.382688 0.000000 -0.923878
vn 0.382688 0.000000 -0.923878
vn 0.000001 0.000000 -1.000000
vn 0.000001 0.000000 -1.000000
vn -0.382687 0.000000 -0.923878
vn -0.382687 0.000000 -0.923878
vn -0.707107 0.000000 -0.707107
vn -0.707107 0.000000 -0.707107
vn -0.923878 0.000000 -0.382687
vn -0.923878 0.000000 -0.382687
vn -1.000000 0.000000 0.000000
vn -1.000000 0.000000 0.000000
vn -0.923878 0.000000 0.382687
vn -0.923878 0.000000 0.382687
vn -0.707106 0.000000 0.707107
vn -0.707106 0.000000 0.707107
vn -0.382688 0.000000 0.923878
vn -0.382688 0.000000 0.923878
vn -0.000000 0.000000 1.000000
vn -0.000000 0.000000 1.000000
vn 0.382688 0.000000 0.923878
vn 0.382688 0.000000 0.923878
vn 0.707107 0.000000 0.707107
vn 0.707107 0.000000 0.707107
vn 0.923877 0.000000 0.382689
vn 0.923877 0.000000 0.382689
vn 1.000000 0.000000 0.000001
vn 1.000000 0.000000 0.000001
vn -0.923879 0.000000 -0.382685
vn -0.923879 0.000000 -0.382685
vn -0.707115 0.000000 -0.707099
vn -0.707115 0.000000 -0.707099
vn -0.382691 0.000000 -0.923876
vn -0.382691 0.000000 -0.923876
vn -0.000001 0.000000 -1.000000
vn -0.000001 0.000000 -1.000000
vn 0.382692 0.000000 -0.923876
vn 0.382692 0.000000 -0.923876
vn 0.707105 0.000000 -0.707109
vn 0.707105 0.000000 -0.707109
vn 0.923871 0.000000 -0.382704
vn 0.923871 0.000000 -0.382704
vn 1.000000 0.000000 -0.000001
vn 1.000000 0.000000 -0.000001
vn 0.923872 0.000000 0.382702
vn 0.923872 0.000000 0.382702
vn 0.707104 0.000000 0.707109
vn 0.707104 0.000000 0.707109
vn 0.382692 0.000000 0.923876
vn 0.382692 0.000000 0.923876
vn -0.000000 0.000000 1.000000
vn -0.000000 0.000000 1.000000
vn -0.382692 0.000000 0.923876
vn -0.382692 0.000000 0.923876
vn -0.707115 0.000000 0.707099
vn -0.707115 0.000000 0.707099
vn -0.923879 0.000000 0.382684
vn -0.923879 0.000000 0.382684
vn -1.000000 0.000000 0.000001
vn -1.000000 0.000000 0.000001
vn -0.923879 0.000000 -0.382685
vn -0.923879 0.000000 -0.382685
vn -0.707116 0.000000 -0.707097
vn -0.707116 0.000000 -0.707097
vn -0.382692 0.000000 -0.923876
vn -0.382692 0.000000 -0.923876
vn -0.000001 0.000000 -1.000000
vn -0.000001 0.000000 -1.000000
vn 0.382691 0.000000 -0.923876
vn 0.382691 0.000000 -0.923876
vn 0.707104 0.000000 -0.707109
vn 0.707104 0.000000 -0.707109
vn 0.923871 0.000000 -0.382704
vn 0.923871 0.000000 -0.382704
vn 1.000000 0.000000 -0.000001
vn 1.000000 0.000000 -0.000001
vn 0.923872 0.000000 0.382702
vn 0.923872 0.000000 0.382702
vn 0.707104 0.000000 0.707110
vn 0.707104 0.000000 0.707110
vn 0.382692 0.000000 0.923876
vn 0.382692 0.000000 0.923876
vn -0.000000 0.000000 1.000000
vn -0.000000 0.000000 1.000000
vn -0.382691 0.000000 0.923876
vn -0.382691 0.000000 0.923876
vn -0.707115 0.000000 0.707099
vn -0.707115 0.000000 0.707099
vn -0.923879 0.000000 0.382685
vn -0.923879 0.000000 0.382685
vn -1.000000 0.000000 0.000001
vn -1.000000 0.000000 0.000001
f 1/1/1 2/2/2 18/19/3 17/18/4
f 2/2/2 3/3/5 19/20/6 18/19/3
f 3/3/5 4/4/7 20/21/8 19/20/6
f 4/4/7 5/5/9 21/22/10 20/21/8
f 5/5/9 6/6/11 22/23/12 21/22/10
f 6/6/11 7/7/13 23/24/14 22/23/12
f 7/7/13 8/8/15 24/25/16 23/24/14
f 8/8/15 9/9/17 25/26/18 24/25/16
f 9/9/17 10/10/19 26/27/20 25/26/18
f 10/10/19 11/11/21 27/28/22 26/27/20
f 11/11/21 12/12/23 28/29/24 27/28/22
f 12/12/23 13/13/25 29/30/26 28/29/24
f 13/13/25 14/14/27 30/31/28 29/30/26
f 14/14/27 15/15/29 31/32/30 30/31/28
f 15/15/29 16/16/31 32/33/32 31/32/30
f 16/16/31 1/17/1 17/34/4 32/33/32
f 33/35/33 34/36/34 50/37/35 49/38/36
f 34/36/34 35/39/37 51/40/38 50/37/35
f 35/39/37 36/41/39 52/42/40 51/40/38
f 36/41/39 37/43/41 53/44/42 52/42/40
f 37/43/41 38/45/43 54/46/44 53/44/42
f 38/45/43 39/47/45 55/48/46 54/46/44
f 39/47/45 40/49/47 56/50/48 55/48/46
f 40/49/47 41/51/49 57/52/50 56/50/48
f 41/51/49 42/53/51 58/54/52 57/52/50
f 42/53/51 43/55/53 59/56/54 58/54/52
f 43/55/53 44/57/55 60/58/56 59/56/54
f 44/57/55 45/59/57 61/60/58 60/58/56
f 45/59/57 46/61/59 62/62/60 61/60/58
f 46/61/59 47/63/61 63/64/62 62/62/60
f 47/63/61 48/65/63 64/66/64 63/64/62
f 48/65/63 33/67/33 49/68/36 64/66/64
f 65/69/65 81/70/66 82/71/67 66/72/68
f 66/72/68 82/71/67 83/73/69 67/74/70
f 67/74/70 83/73/69 84/75/71 68/76/72
f 68/76/72 84/75/71 85/77/73 69/78/74
f 69/78/74 85/77/73 86/79/75 70/80/76
f 70/80/76 86/79/75 87/81/77 71/82/78
f 71/82/78 87/81/77 88/83/79 72/84/80
f 72/84/80 88/83/79 89/85/81 73/86/82
f 73/86/82 89/85/81 90/87/83 74/88/84
f 74/88/84 90/87/83 91/89/85 75/90/86
f 75/90/86 91/89/85 92/91/87 76/92/88
f 76/92/88 92/91/87 93/93/89 77/94/90
f 77/94/90 93/93/89 94/95/91 78/96/92
f 78/96/92 94/95/91 95/97/93 79/98/94
f 79/98/94 95/97/93 96/99/95 80/100/96
f 80/100/96 96/99/95 81/101/66 65/102/65
f 97/103/97 113/104/98 114/105/99 98/106/100
f 98/106/100 114/105/99 115/107/101 99/108/102
f 99/108/102 115/107/101 116/109/103 100/110/104
f 100/110/104 116/109/103 117/111/105 101/112/106
f 101/112/106 117/111/105 118/113/107 102/114/108
f 102/114/108 118/113/107 119/115/109 103/116/110
f 103/116/110 119/115/109 120/117/111 104/118/112
f 104/118/112 120/117/111 121/119/113 105/120/114
f 105/120/114 121/119/113 122/121/115 106/122/116
f 106/122/116 122/121/115 123/123/117 107/124/118
f 107/124/118 123/123/117 124/125/119 108/126/120
f 108/126/120 124/125/119 125/127/121 109/128/122
f 109/128/122 125/127/121 126/129/123 110/130/124
f 110/130/124 126/129/123 127/131/125 111/132/126
f 111/132/126 127/131/125 128/133/127 112/134/128
f 112/134/128 128/133/127 113/135/98 97/136/97
