# This file uses meters as units for non-parametric coordinates.

v -109.373306 113.452900 25.540033
v -29.344547 113.452900 25.540033
v -109.373299 13.443073 25.540030
v -29.344540 13.443073 25.540030
v -108.902702 13.913670 28.677668
v -109.373299 13.443073 28.207069
v -29.815138 13.913670 28.677668
v -29.344540 13.443073 28.207069
v -108.902710 112.982304 28.677671
v -109.373306 113.452900 28.207073
v -29.815145 112.982304 28.677671
v -29.344547 113.452900 28.207073
vt 0.368478 0.820399
vt 0.350555 0.838322
vt 0.353243 0.820399
vt 0.350660 0.820484
vt 0.350555 0.835634
vt 0.350660 0.838238
vt 0.365789 0.838322
vt 0.368372 0.820484
vt 0.368372 0.838238
vt 0.368478 0.835634
vt 0.350555 0.820399
vt 0.368478 0.838322
vt 0.368478 0.823088
vt 0.350555 0.823088
vt 0.365789 0.820399
vt 0.350555 0.820399
vt 0.350555 0.838322
vt 0.368478 0.820399
vt 0.353243 0.838322
vt 0.368478 0.838322
vn 0.000000 0.000000 -1.000000
vn 0.000000 0.000000 -1.000000
vn 0.000000 0.000000 -1.000000
vn 0.000000 0.000000 -1.000000
vn 0.000000 -0.707107 0.707107
vn 0.000000 -0.707107 0.707107
vn 0.000000 -0.707107 0.707107
vn 0.000000 -0.707107 0.707107
vn -0.707108 -0.000000 0.707105
vn -0.707108 -0.000000 0.707105
vn -0.707108 -0.000000 0.707105
vn -0.707108 -0.000000 0.707105
vn 0.707107 0.000000 0.707107
vn 0.707107 0.000000 0.707107
vn 0.707107 0.000000 0.707107
vn 0.707107 0.000000 0.707107
vn 0.000000 0.707107 0.707107
vn 0.000000 0.707107 0.707107
vn 0.000000 0.707107 0.707107
vn 0.000000 0.707107 0.707107
vn 0.000000 -0.000000 1.000000
vn 0.000000 -0.000000 1.000000
vn 0.000000 -0.000000 1.000000
vn 0.000000 -0.000000 1.000000
vn 0.000000 1.000000 0.000000
vn 0.000000 1.000000 0.000000
vn 0.000000 1.000000 0.000000
vn 0.000000 1.000000 0.000000
vn 0.000000 -1.000000 0.000000
vn 0.000000 -1.000000 0.000000
vn 0.000000 -1.000000 0.000000
vn 0.000000 -1.000000 0.000000
vn 1.000000 0.000000 0.000000
vn 1.000000 0.000000 0.000000
vn 1.000000 0.000000 0.000000
vn 1.000000 0.000000 0.000000
vn -1.000000 -0.000000 0.000000
vn -1.000000 -0.000000 0.000000
vn -1.000000 -0.000000 0.000000
vn -1.000000 -0.000000 0.000000
f 1/11/1 2/1/2 4/12/3 3/2/4
f 5/4/5 6/3/6 8/15/7 7/8/8
f 6/3/9 5/4/10 9/6/11 10/5/12
f 7/8/13 8/15/14 12/7/15 11/9/16
f 10/5/17 9/6/18 11/9/19 12/7/20
f 5/4/21 7/8/22 11/9/23 9/6/24
f 10/5/25 12/10/26 2/1/27 1/11/28
f 3/2/29 4/12/30 8/13/31 6/14/32
f 8/15/33 4/16/34 2/17/35 12/7/36
f 3/18/37 6/3/38 10/19/39 1/20/40
