# This file uses meters as units for non-parametric coordinates.

v -79.297028 284.060665 -43.173153
v 79.297028 284.060665 -43.173153
v -79.297028 136.618045 -43.173153
v 79.297028 136.618015 -43.173153
v 64.262329 150.694484 -42.346066
v -64.262329 150.694499 -42.346066
v 64.262329 268.752986 -42.346066
v -64.262329 268.752986 -42.346066
v -79.297028 136.618045 -39.692150
v -78.412506 137.502559 -38.807629
v -79.297028 284.060665 -39.692150
v -78.412506 283.176143 -38.807629
v 79.297028 136.618015 -39.692150
v 78.412506 137.502536 -38.807629
v 79.297028 284.060665 -39.692150
v 78.412506 283.176143 -38.807629
v -65.146828 149.809978 -38.807629
v -64.262329 150.694499 -39.692150
v -65.146828 269.637508 -38.807629
v -64.262329 268.752986 -39.692150
v 65.146835 269.637508 -38.807629
v 64.262329 268.752986 -39.692150
v 65.146835 149.809963 -38.807629
v 64.262329 150.694484 -39.692150
vt 0.740381 0.068491
vt 0.633560 0.118243
vt 0.655204 0.068491
vt 0.633560 0.068785
vt 0.634552 0.068491
vt 0.740381 0.078572
vt 0.739389 0.068491
vt 0.633560 0.108163
vt 0.718737 0.118243
vt 0.730084 0.072838
vt 0.739390 0.117950
vt 0.740381 0.108163
vt 0.633560 0.068491
vt 0.740381 0.118243
vt 0.633560 0.078572
vt 0.718737 0.068491
vt 0.633560 0.068491
vt 0.633560 0.118243
vt 0.740381 0.068491
vt 0.655204 0.118243
vt 0.740381 0.118243
vt 0.730084 0.114143
vt 0.634552 0.117950
vt 0.739389 0.068785
vt 0.643858 0.072838
vt 0.634552 0.068785
vt 0.643858 0.114143
vt 0.729092 0.073131
vt 0.644849 0.073131
vt 0.729092 0.113849
vt 0.729092 0.073131
vt 0.644849 0.113849
vt 0.729092 0.113849
vt 0.644849 0.073131
vt 0.644849 0.113849
vn 0.000000 0.000000 -1.000000
vn 0.000000 0.000000 -1.000000
vn 0.000000 0.000000 -1.000000
vn 0.000000 0.000000 -1.000000
vn 0.000000 0.000000 1.000000
vn 0.000000 0.000000 1.000000
vn 0.000000 0.000000 1.000000
vn 0.000000 0.000000 1.000000
vn -0.707108 0.000000 0.707105
vn -0.707108 0.000000 0.707105
vn -0.707108 0.000000 0.707105
vn -0.707108 0.000000 0.707105
vn -0.000000 -0.707110 0.707103
vn -0.000000 -0.707110 0.707103
vn -0.000000 -0.707110 0.707103
vn -0.000000 -0.707110 0.707103
vn 0.000000 0.707110 0.707103
vn 0.000000 0.707110 0.707103
vn 0.000000 0.707110 0.707103
vn 0.000000 0.707110 0.707103
vn 0.707107 0.000000 0.707107
vn 0.707107 0.000000 0.707107
vn 0.707107 0.000000 0.707107
vn 0.707107 0.000000 0.707107
vn 0.707116 0.000000 0.707098
vn 0.707116 0.000000 0.707098
vn 0.707116 0.000000 0.707098
vn 0.707116 0.000000 0.707098
vn 0.000000 0.707114 0.707100
vn 0.000000 0.707114 0.707100
vn 0.000000 0.707114 0.707100
vn 0.000000 0.707114 0.707100
vn 0.000000 -0.707096 0.707118
vn 0.000000 -0.707096 0.707118
vn 0.000000 -0.707096 0.707118
vn 0.000000 -0.707096 0.707118
vn -0.707112 0.000000 0.707101
vn -0.707112 0.000000 0.707101
vn -0.707112 0.000000 0.707101
vn -0.707112 0.000000 0.707101
vn 0.000000 0.000000 1.000000
vn 0.000000 0.000000 1.000000
vn 0.000000 0.000000 1.000000
vn 0.000000 0.000000 1.000000
vn 0.000000 1.000000 0.000000
vn 0.000000 1.000000 0.000000
vn 0.000000 1.000000 0.000000
vn 0.000000 1.000000 0.000000
vn -0.000000 -1.000000 0.000000
vn -0.000000 -1.000000 0.000000
vn -0.000000 -1.000000 0.000000
vn -0.000000 -1.000000 0.000000
vn 1.000000 0.000000 0.000000
vn 1.000000 0.000000 0.000000
vn 1.000000 0.000000 0.000000
vn 1.000000 0.000000 0.000000
vn -1.000000 0.000000 0.000000
vn -1.000000 0.000000 0.000000
vn -1.000000 0.000000 0.000000
vn -1.000000 0.000000 0.000000
vn -0.000000 0.000000 1.000000
vn -0.000000 0.000000 1.000000
vn -0.000000 0.000000 1.000000
vn -0.000000 0.000000 1.000000
vn 0.000000 1.000000 0.000000
vn 0.000000 1.000000 0.000000
vn 0.000000 1.000000 0.000000
vn 0.000000 1.000000 0.000000
vn -1.000000 0.000000 0.000000
vn -1.000000 0.000000 0.000000
vn -1.000000 0.000000 0.000000
vn -1.000000 0.000000 0.000000
vn 0.000000 -1.000000 0.000000
vn 0.000000 -1.000000 0.000000
vn 0.000000 -1.000000 0.000000
vn 0.000000 -1.000000 0.000000
vn 1.000000 0.000000 0.000000
vn 1.000000 0.000000 0.000000
vn 1.000000 0.000000 0.000000
vn 1.000000 0.000000 0.000000
f 2/1/1 4/14/2 3/2/3 1/13/4
f 6/29/5 5/31/6 7/33/7 8/35/8
f 9/3/9 10/4/10 12/23/11 11/20/12
f 10/5/13 9/15/14 13/6/15 14/7/16
f 11/8/17 12/23/18 16/11/19 15/12/20
f 14/24/21 13/16/22 15/9/23 16/11/24
f 17/25/25 18/34/26 20/32/27 19/27/28
f 18/34/29 17/25/30 23/10/31 24/28/32
f 19/27/33 20/32/34 22/30/35 21/22/36
f 21/22/37 22/30/38 24/28/39 23/10/40
f 23/10/41 14/24/42 16/11/43 21/22/44
f 15/12/45 2/1/46 1/13/47 11/8/48
f 4/14/49 13/6/50 9/15/51 3/2/52
f 15/9/53 13/16/54 4/17/55 2/18/56
f 3/19/57 9/3/58 11/20/59 1/21/60
f 21/22/44 16/11/43 12/23/61 19/27/62
f 10/26/63 14/24/42 23/10/41 17/25/64
f 12/23/61 10/26/63 17/25/64 19/27/62
f 18/34/65 24/28/66 5/31/67 6/29/68
f 24/28/69 22/30/70 7/33/71 5/31/72
f 22/30/73 20/32/74 8/35/75 7/33/76
f 20/32/77 18/34/78 6/29/79 8/35/80
