# This file uses meters as units for non-parametric coordinates.

v -47.028515 104.864614 44.980576
v -46.241268 104.864614 44.980576
v -47.028515 105.651861 44.980576
v -46.241268 105.651861 44.980576
v -47.028515 105.651861 42.158623
v -46.241268 105.651861 42.158623
v -47.028515 104.864614 42.158623
v -46.241268 104.864614 42.158623
v -36.917591 104.864614 44.980576
v -36.130348 104.864614 44.980576
v -36.917591 105.651861 44.980576
v -36.130348 105.651861 44.980576
v -36.917591 105.651861 42.158623
v -36.130348 105.651861 42.158623
v -36.917591 104.864614 42.158623
v -36.130348 104.864614 42.158623
v -51.528713 104.821768 45.061596
v -51.690357 104.743383 44.875614
v -46.634892 104.308065 46.020912
v -46.634892 104.399405 46.170654
v -51.528713 105.694708 45.061596
v -51.690357 105.773092 44.875614
v -46.634892 106.208410 46.020912
v -46.634892 106.117079 46.170654
v -51.690357 105.773092 43.676785
v -51.528713 105.694708 43.564064
v -46.634892 106.208410 44.822857
v -46.634892 106.117079 44.673119
v -51.528713 104.821768 43.564064
v -51.690357 104.743383 43.676785
v -46.634892 104.399405 44.673119
v -46.634892 104.308065 44.822857
v -31.468506 104.743383 44.875614
v -31.630146 104.821768 45.061596
v -31.630146 105.694708 45.061596
v -31.468506 105.773092 44.875614
v -31.468506 105.773092 43.676785
v -31.630146 105.694708 43.564064
v -31.630146 104.821768 43.564064
v -31.468506 104.743383 43.676785
v -36.523968 106.117079 46.170654
v -36.523968 106.208410 46.020912
v -36.523968 106.208410 44.822857
v -36.523968 106.117079 44.673119
v -36.523968 104.399405 44.673119
v -36.523968 104.308065 44.822857
v -36.523968 104.308065 46.020912
v -36.523968 104.399405 46.170654
v -41.579430 106.240545 46.498920
v -41.579430 106.331884 46.349182
v -41.579430 106.331884 45.151119
v -41.579430 106.240545 45.001381
v -41.579430 104.275923 45.001381
v -41.579430 104.184584 45.151119
v -41.579430 104.184584 46.349182
v -41.579430 104.275923 46.498920
v 47.028511 104.864614 44.980576
v 46.241264 104.864614 44.980576
v 47.028511 105.651861 44.980576
v 46.241264 105.651861 44.980576
v 47.028511 105.651861 42.158623
v 46.241264 105.651861 42.158623
v 47.028511 104.864614 42.158623
v 46.241264 104.864614 42.158623
v 36.917587 104.864614 44.980576
v 36.130344 104.864614 44.980576
v 36.917587 105.651861 44.980576
v 36.130344 105.651861 44.980576
v 36.917587 105.651861 42.158623
v 36.130344 105.651861 42.158623
v 36.917587 104.864614 42.158623
v 36.130344 104.864614 42.158623
v 51.528709 104.821768 45.061596
v 51.690353 104.743383 44.875614
v 46.634888 104.308065 46.020912
v 46.634888 104.399405 46.170654
v 51.528709 105.694708 45.061596
v 51.690353 105.773092 44.875614
v 46.634888 106.208410 46.020912
v 46.634888 106.117079 46.170654
v 51.690353 105.773092 43.676785
v 51.528709 105.694708 43.564064
v 46.634888 106.208410 44.822857
v 46.634888 106.117079 44.673119
v 51.528709 104.821768 43.564064
v 51.690353 104.743383 43.676785
v 46.634888 104.399405 44.673119
v 46.634888 104.308065 44.822857
v 31.468502 104.743383 44.875614
v 31.630142 104.821768 45.061596
v 31.630142 105.694708 45.061596
v 31.468502 105.773092 44.875614
v 31.468502 105.773092 43.676785
v 31.630142 105.694708 43.564064
v 31.630142 104.821768 43.564064
v 31.468502 104.743383 43.676785
v 36.523964 106.117079 46.170654
v 36.523964 106.208410 46.020912
v 36.523964 106.208410 44.822857
v 36.523964 106.117079 44.673119
v 36.523964 104.399405 44.673119
v 36.523964 104.308065 44.822857
v 36.523964 104.308065 46.020912
v 36.523964 104.399405 46.170654
v 41.579426 106.240545 46.498920
v 41.579426 106.331884 46.349182
v 41.579426 106.331884 45.151119
v 41.579426 106.240545 45.001381
v 41.579426 104.275923 45.001381
v 41.579426 104.184584 45.151119
v 41.579426 104.184584 46.349182
v 41.579426 104.275923 46.498920
vt 0.515529 0.644046
vt 0.605132 0.644046
vt 0.515529 0.739645
vt 0.605132 0.739645
vt 0.515529 0.644046
vt 0.605132 0.644046
vt 0.515529 0.739645
vt 0.605132 0.739645
vt 0.515529 0.644046
vt 0.605132 0.644046
vt 0.515529 0.644046
vt 0.515529 0.739645
vt 0.605132 0.644046
vt 0.605132 0.739645
vt 0.515529 0.739645
vt 0.605132 0.739645
vt 0.605132 0.644046
vt 0.515529 0.644046
vt 0.515529 0.739645
vt 0.605132 0.739645
vt 0.605132 0.644046
vt 0.515529 0.644046
vt 0.605132 0.644046
vt 0.515529 0.644046
vt 0.515529 0.739645
vt 0.605132 0.644046
vt 0.515529 0.644046
vt 0.605132 0.739645
vt 0.516245 0.652615
vt 0.515529 0.644046
vt 0.537680 0.644046
vt 0.537930 0.648642
vt 0.516245 0.733660
vt 0.515529 0.730111
vt 0.537930 0.644046
vt 0.537930 0.653605
vt 0.560331 0.653605
vt 0.560297 0.644046
vt 0.537930 0.735049
vt 0.537930 0.730086
vt 0.560331 0.735578
vt 0.560331 0.730086
vt 0.515704 0.644363
vt 0.516245 0.652615
vt 0.516245 0.733660
vt 0.515704 0.739473
vt 0.515529 0.653580
vt 0.537930 0.653605
vt 0.537930 0.648642
vt 0.560331 0.653605
vt 0.560331 0.648113
vt 0.537930 0.735049
vt 0.537930 0.730086
vt 0.560331 0.735578
vt 0.560331 0.730086
vt 0.605132 0.653580
vt 0.604446 0.644046
vt 0.582845 0.644046
vt 0.582731 0.653605
vt 0.604416 0.652615
vt 0.596196 0.644046
vt 0.596196 0.739645
vt 0.604416 0.733660
vt 0.605132 0.730111
vt 0.582731 0.730086
vt 0.582731 0.735049
vt 0.605132 0.653580
vt 0.604416 0.652615
vt 0.582731 0.648642
vt 0.582731 0.653605
vt 0.517720 0.732368
vt 0.524465 0.739645
vt 0.524465 0.644046
vt 0.517720 0.651323
vt 0.604416 0.733660
vt 0.604956 0.739473
vt 0.582731 0.730086
vt 0.582731 0.735049
vt 0.582731 0.644046
vt 0.560363 0.644046
vt 0.515529 0.730111
vt 0.515529 0.653580
vt 0.596196 0.644046
vt 0.524465 0.644046
vt 0.524465 0.739645
vt 0.596196 0.739645
vt 0.605132 0.730111
vt 0.582731 0.648642
vt 0.560331 0.648113
vt 0.515529 0.739645
vt 0.515529 0.644046
vt 0.605132 0.644046
vt 0.605132 0.739645
vt 0.515529 0.739645
vt 0.515529 0.644046
vt 0.605132 0.644046
vt 0.605132 0.739645
vt 0.605132 0.644046
vt 0.515529 0.739645
vt 0.515529 0.644046
vt 0.605132 0.644046
vt 0.605132 0.739645
vt 0.515529 0.644046
vt 0.515529 0.739645
vt 0.515529 0.644046
vt 0.605132 0.644046
vt 0.605132 0.739645
vt 0.515529 0.739645
vt 0.515529 0.644046
vt 0.605132 0.644046
vt 0.605132 0.739645
vt 0.605132 0.644046
vt 0.515529 0.739645
vt 0.515529 0.644046
vt 0.605132 0.644046
vt 0.605132 0.739645
vt 0.515529 0.644046
vt 0.516245 0.652615
vt 0.537930 0.648642
vt 0.537680 0.644046
vt 0.515529 0.644046
vt 0.515529 0.730111
vt 0.516245 0.733660
vt 0.537930 0.644046
vt 0.560297 0.644046
vt 0.560331 0.653605
vt 0.537930 0.653605
vt 0.537930 0.730086
vt 0.537930 0.735049
vt 0.560331 0.730086
vt 0.560331 0.735578
vt 0.515704 0.644363
vt 0.515704 0.739473
vt 0.516245 0.733660
vt 0.516245 0.652615
vt 0.537930 0.648642
vt 0.537930 0.653605
vt 0.515529 0.653580
vt 0.560331 0.648113
vt 0.560331 0.653605
vt 0.537930 0.730086
vt 0.537930 0.735049
vt 0.560331 0.730086
vt 0.560331 0.735578
vt 0.605132 0.653580
vt 0.582731 0.653605
vt 0.582845 0.644046
vt 0.604446 0.644046
vt 0.604416 0.652615
vt 0.604416 0.733660
vt 0.596196 0.739645
vt 0.596196 0.644046
vt 0.582731 0.735049
vt 0.582731 0.730086
vt 0.605132 0.730111
vt 0.605132 0.653580
vt 0.582731 0.653605
vt 0.582731 0.648642
vt 0.604416 0.652615
vt 0.517720 0.732368
vt 0.517720 0.651323
vt 0.524465 0.644046
vt 0.524465 0.739645
vt 0.604416 0.733660
vt 0.582731 0.735049
vt 0.582731 0.730086
vt 0.604956 0.739473
vt 0.560363 0.644046
vt 0.582731 0.644046
vt 0.515529 0.730111
vt 0.515529 0.653580
vt 0.596196 0.644046
vt 0.596196 0.739645
vt 0.524465 0.739645
vt 0.524465 0.644046
vt 0.605132 0.730111
vt 0.582731 0.648642
vt 0.560331 0.648113
vn 0.000000 1.000000 0.000000
vn 0.000000 1.000000 0.000000
vn 0.000000 1.000000 0.000000
vn 0.000000 1.000000 0.000000
vn 0.000000 -1.000000 0.000000
vn 0.000000 -1.000000 0.000000
vn 0.000000 -1.000000 0.000000
vn 0.000000 -1.000000 0.000000
vn 1.000000 0.000000 0.000000
vn 1.000000 0.000000 0.000000
vn 1.000000 0.000000 0.000000
vn 1.000000 0.000000 0.000000
vn -1.000000 0.000000 0.000000
vn -1.000000 0.000000 0.000000
vn -1.000000 0.000000 0.000000
vn -1.000000 0.000000 0.000000
vn 0.000000 1.000000 0.000000
vn 0.000000 1.000000 0.000000
vn 0.000000 1.000000 0.000000
vn 0.000000 1.000000 0.000000
vn 0.000000 -1.000000 0.000000
vn 0.000000 -1.000000 0.000000
vn 0.000000 -1.000000 0.000000
vn 0.000000 -1.000000 0.000000
vn 1.000000 0.000000 0.000000
vn 1.000000 0.000000 0.000000
vn 1.000000 0.000000 0.000000
vn 1.000000 0.000000 0.000000
vn -1.000000 0.000000 0.000000
vn -1.000000 0.000000 0.000000
vn -1.000000 0.000000 0.000000
vn -1.000000 0.000000 0.000000
vn -0.188577 -0.836865 0.513903
vn -0.188577 -0.836865 0.513903
vn -0.125775 -0.846128 0.517927
vn -0.117752 -0.847061 0.518288
vn -0.754765 0.000000 0.655995
vn -0.754765 0.000000 0.655995
vn -0.754765 0.000000 0.655995
vn -0.754765 0.000000 0.655995
vn 0.000000 -0.853725 0.520724
vn 0.000000 -0.853725 0.520724
vn -0.188579 0.836896 0.513851
vn -0.188579 0.836896 0.513851
vn -0.117749 0.847076 0.518264
vn -0.125774 0.846145 0.517899
vn -0.000000 0.853725 0.520724
vn -0.000000 0.853725 0.520724
vn -0.572013 0.000000 -0.820244
vn -0.572013 0.000000 -0.820244
vn -0.572013 0.000000 -0.820244
vn -0.572013 0.000000 -0.820244
vn 0.045091 0.851317 -0.522711
vn 0.045091 0.851317 -0.522711
vn 0.027284 0.852720 -0.521655
vn 0.030379 0.852496 -0.521851
vn 0.000000 0.853722 -0.520729
vn 0.000000 0.853722 -0.520729
vn 0.045098 -0.851285 -0.522761
vn 0.045098 -0.851285 -0.522761
vn 0.030383 -0.852479 -0.521878
vn 0.027287 -0.852706 -0.521678
vn 0.000000 -0.853722 -0.520729
vn 0.000000 -0.853722 -0.520729
vn 0.188576 -0.836866 0.513901
vn 0.188576 -0.836866 0.513901
vn 0.117752 -0.847061 0.518287
vn 0.125775 -0.846129 0.517926
vn 0.754773 0.000000 0.655986
vn 0.754773 0.000000 0.655986
vn 0.754773 0.000000 0.655986
vn 0.754773 0.000000 0.655986
vn 0.188579 0.836896 0.513851
vn 0.188579 0.836896 0.513851
vn 0.125774 0.846145 0.517900
vn 0.117749 0.847076 0.518264
vn -0.045091 0.851316 -0.522713
vn -0.045091 0.851316 -0.522713
vn -0.030379 0.852495 -0.521852
vn -0.027283 0.852720 -0.521656
vn 0.572023 0.000000 -0.820238
vn 0.572023 0.000000 -0.820238
vn 0.572023 0.000000 -0.820238
vn 0.572023 0.000000 -0.820238
vn -0.045098 -0.851284 -0.522763
vn -0.045098 -0.851284 -0.522763
vn -0.027287 -0.852706 -0.521679
vn -0.030383 -0.852478 -0.521879
vn -0.221020 0.000000 0.975269
vn -0.126688 0.000000 0.991943
vn -0.126688 0.000000 0.991943
vn -0.221020 0.000000 0.975269
vn -0.085791 0.996313 0.000000
vn -0.052236 0.998635 0.000000
vn -0.057857 0.998325 0.000000
vn -0.085791 0.996313 0.000000
vn 0.221020 0.000000 -0.975269
vn 0.126688 0.000000 -0.991943
vn 0.126688 0.000000 -0.991943
vn 0.221020 0.000000 -0.975269
vn -0.085791 -0.996313 0.000000
vn -0.057858 -0.998325 0.000000
vn -0.052236 -0.998635 0.000000
vn -0.085791 -0.996313 0.000000
vn 1.000000 0.000000 0.000000
vn 1.000000 0.000000 0.000000
vn 1.000000 0.000000 0.000000
vn 1.000000 0.000000 0.000000
vn -1.000000 0.000000 0.000000
vn -1.000000 0.000000 0.000000
vn -1.000000 0.000000 0.000000
vn -1.000000 0.000000 0.000000
vn 0.052236 0.998635 0.000000
vn 0.085791 0.996313 0.000000
vn 0.085791 0.996313 0.000000
vn 0.057857 0.998325 0.000000
vn -0.126688 0.000000 -0.991943
vn -0.126688 0.000000 -0.991943
vn -0.221019 0.000000 -0.975269
vn -0.221019 0.000000 -0.975269
vn 0.052236 -0.998635 0.000000
vn 0.057858 -0.998325 0.000000
vn 0.085791 -0.996313 0.000000
vn 0.085791 -0.996313 0.000000
vn 0.126688 0.000000 0.991943
vn 0.126688 0.000000 0.991943
vn 0.221020 0.000000 0.975269
vn 0.221020 0.000000 0.975269
vn 0.000000 1.000000 0.000000
vn 0.000000 1.000000 0.000000
vn 0.000000 0.000000 -1.000000
vn 0.000000 0.000000 -1.000000
vn 0.000000 -1.000000 0.000000
vn 0.000000 -1.000000 0.000000
vn 0.000000 0.000000 1.000000
vn 0.000000 0.000000 1.000000
vn 0.000000 1.000000 0.000000
vn 0.000000 1.000000 0.000000
vn 0.000000 1.000000 0.000000
vn 0.000000 1.000000 0.000000
vn 0.000000 -1.000000 0.000000
vn 0.000000 -1.000000 0.000000
vn 0.000000 -1.000000 0.000000
vn 0.000000 -1.000000 0.000000
vn -1.000000 0.000000 0.000000
vn -1.000000 0.000000 0.000000
vn -1.000000 0.000000 0.000000
vn -1.000000 0.000000 0.000000
vn 1.000000 0.000000 0.000000
vn 1.000000 0.000000 0.000000
vn 1.000000 0.000000 0.000000
vn 1.000000 0.000000 0.000000
vn 0.000000 1.000000 0.000000
vn 0.000000 1.000000 0.000000
vn 0.000000 1.000000 0.000000
vn 0.000000 1.000000 0.000000
vn 0.000000 -1.000000 0.000000
vn 0.000000 -1.000000 0.000000
vn 0.000000 -1.000000 0.000000
vn 0.000000 -1.000000 0.000000
vn -1.000000 0.000000 0.000000
vn -1.000000 0.000000 0.000000
vn -1.000000 0.000000 0.000000
vn -1.000000 0.000000 0.000000
vn 1.000000 0.000000 0.000000
vn 1.000000 0.000000 0.000000
vn 1.000000 0.000000 0.000000
vn 1.000000 0.000000 0.000000
vn 0.188575 -0.836853 0.513924
vn 0.117751 -0.847055 0.518298
vn 0.125774 -0.846121 0.517938
vn 0.188575 -0.836853 0.513924
vn 0.754764 0.000000 0.655996
vn 0.754764 0.000000 0.655996
vn 0.754764 0.000000 0.655996
vn 0.754764 0.000000 0.655996
vn 0.000000 -0.853725 0.520724
vn 0.000000 -0.853725 0.520724
vn 0.188580 0.836891 0.513859
vn 0.125775 0.846142 0.517904
vn 0.117750 0.847074 0.518268
vn 0.188580 0.836891 0.513859
vn 0.000000 0.853725 0.520724
vn 0.000000 0.853725 0.520724
vn 0.572007 0.000000 -0.820249
vn 0.572007 0.000000 -0.820249
vn 0.572007 0.000000 -0.820249
vn 0.572007 0.000000 -0.820249
vn -0.045093 0.851314 -0.522715
vn -0.030380 0.852494 -0.521853
vn -0.027284 0.852719 -0.521657
vn -0.045093 0.851314 -0.522715
vn 0.000000 0.853722 -0.520729
vn 0.000000 0.853722 -0.520729
vn -0.045096 -0.851274 -0.522780
vn -0.027286 -0.852701 -0.521686
vn -0.030382 -0.852473 -0.521888
vn -0.045096 -0.851274 -0.522780
vn 0.000000 -0.853722 -0.520729
vn 0.000000 -0.853722 -0.520729
vn -0.188576 -0.836856 0.513917
vn -0.125775 -0.846124 0.517934
vn -0.117751 -0.847057 0.518295
vn -0.188576 -0.836856 0.513917
vn -0.754772 0.000000 0.655987
vn -0.754772 0.000000 0.655987
vn -0.754772 0.000000 0.655987
vn -0.754772 0.000000 0.655987
vn -0.188578 0.836884 0.513871
vn -0.117749 0.847070 0.518274
vn -0.125773 0.846138 0.517910
vn -0.188578 0.836884 0.513871
vn 0.045091 0.851306 -0.522728
vn 0.027284 0.852715 -0.521663
vn 0.030380 0.852490 -0.521860
vn 0.045091 0.851306 -0.522728
vn -0.572017 0.000000 -0.820242
vn -0.572017 0.000000 -0.820242
vn -0.572017 0.000000 -0.820242
vn -0.572017 0.000000 -0.820242
vn 0.045095 -0.851278 -0.522774
vn 0.030382 -0.852475 -0.521885
vn 0.027286 -0.852703 -0.521683
vn 0.045095 -0.851278 -0.522774
vn 0.221020 0.000000 0.975269
vn 0.221020 0.000000 0.975269
vn 0.126688 0.000000 0.991943
vn 0.126688 0.000000 0.991943
vn 0.085791 0.996313 0.000000
vn 0.085791 0.996313 0.000000
vn 0.057857 0.998325 0.000000
vn 0.052236 0.998635 0.000000
vn -0.221019 0.000000 -0.975269
vn -0.221019 0.000000 -0.975269
vn -0.126687 0.000000 -0.991943
vn -0.126687 0.000000 -0.991943
vn 0.085791 -0.996313 0.000000
vn 0.085791 -0.996313 0.000000
vn 0.052236 -0.998635 0.000000
vn 0.057858 -0.998325 0.000000
vn -1.000000 0.000000 0.000000
vn -1.000000 0.000000 0.000000
vn -1.000000 0.000000 0.000000
vn -1.000000 0.000000 0.000000
vn 1.000000 0.000000 0.000000
vn 1.000000 0.000000 0.000000
vn 1.000000 0.000000 0.000000
vn 1.000000 0.000000 0.000000
vn -0.052236 0.998635 0.000000
vn -0.057857 0.998325 0.000000
vn -0.085791 0.996313 0.000000
vn -0.085791 0.996313 0.000000
vn 0.126688 0.000000 -0.991943
vn 0.221020 0.000000 -0.975269
vn 0.221020 0.000000 -0.975269
vn 0.126688 0.000000 -0.991943
vn -0.052236 -0.998635 0.000000
vn -0.085791 -0.996313 0.000000
vn -0.085791 -0.996313 0.000000
vn -0.057858 -0.998325 0.000000
vn -0.126688 0.000000 0.991943
vn -0.221020 0.000000 0.975269
vn -0.221020 0.000000 0.975269
vn -0.126688 0.000000 0.991943
vn -0.000000 1.000000 0.000000
vn -0.000000 1.000000 0.000000
vn 0.000000 0.000000 -1.000000
vn 0.000000 0.000000 -1.000000
vn 0.000000 -1.000000 0.000000
vn 0.000000 -1.000000 0.000000
vn 0.000000 0.000000 1.000000
vn 0.000000 0.000000 1.000000
f 3/3/1 4/4/2 6/6/3 5/5/4
f 7/7/5 8/8/6 2/10/7 1/9/8
f 2/2/9 8/11/10 6/12/11 4/4/12
f 7/13/13 1/1/14 3/3/15 5/14/16
f 11/15/17 12/16/18 14/17/19 13/18/20
f 15/19/21 16/20/22 10/21/23 9/22/24
f 10/23/25 16/24/26 14/25/27 12/16/28
f 15/26/29 9/27/30 11/15/31 13/28/32
f 17/29/33 18/30/34 19/31/35 20/32/36
f 18/30/37 17/29/38 21/33/39 22/34/40
f 20/35/36 19/36/35 55/37/41 56/38/42
f 22/34/43 21/33/44 24/39/45 23/40/46
f 23/40/46 24/39/45 49/41/47 50/42/48
f 25/43/49 26/44/50 29/45/51 30/46/52
f 26/44/53 25/47/54 27/48/55 28/49/56
f 28/49/56 27/48/55 51/50/57 52/51/58
f 30/46/59 29/45/60 31/52/61 32/53/62
f 32/53/62 31/52/61 53/54/63 54/55/64
f 33/56/65 34/57/66 48/58/67 47/59/68
f 34/60/69 33/61/70 36/62/71 35/63/72
f 35/63/73 36/64/74 42/65/75 41/66/76
f 37/67/77 38/68/78 44/69/79 43/70/80
f 38/71/81 37/72/82 40/73/83 39/74/84
f 39/75/85 40/76/86 46/77/87 45/78/88
f 41/66/76 42/65/75 50/42/48 49/41/47
f 43/70/80 44/69/79 52/51/58 51/50/57
f 45/78/88 46/77/87 54/55/64 53/54/63
f 47/59/68 48/79/67 56/80/42 55/37/41
f 17/29/89 20/32/90 24/39/91 21/33/92
f 22/34/93 23/40/94 27/48/95 25/47/96
f 26/44/97 28/49/98 31/52/99 29/45/100
f 30/81/101 32/53/102 19/36/103 18/82/104
f 33/61/105 40/73/106 37/72/107 36/62/108
f 30/83/109 18/84/110 22/85/111 25/86/112
f 42/65/113 36/64/114 37/67/115 43/70/116
f 45/78/117 44/69/118 38/68/119 39/75/120
f 47/59/121 46/77/122 40/87/123 33/56/124
f 41/66/125 48/88/126 34/60/127 35/63/128
f 50/42/129 42/65/113 43/70/116 51/50/130
f 53/54/131 52/51/132 44/69/118 45/78/117
f 55/37/133 54/55/134 46/77/122 47/59/121
f 49/41/135 56/89/136 48/88/126 41/66/125
f 23/40/94 50/42/129 51/50/130 27/48/95
f 31/52/99 28/49/98 52/51/132 53/54/131
f 19/36/103 32/53/102 54/55/134 55/37/133
f 24/39/91 20/32/90 56/89/136 49/41/135
f 59/90/137 61/91/138 62/92/139 60/93/140
f 63/94/141 57/95/142 58/96/143 64/97/144
f 58/98/145 60/93/146 62/99/147 64/100/148
f 63/101/149 61/102/150 59/90/151 57/103/152
f 67/104/153 69/105/154 70/106/155 68/107/156
f 71/108/157 65/109/158 66/110/159 72/111/160
f 66/112/161 68/107/162 70/113/163 72/114/164
f 71/115/165 69/116/166 67/104/167 65/117/168
f 73/118/169 76/119/170 75/120/171 74/121/172
f 74/121/173 78/122/174 77/123/175 73/118/176
f 76/124/170 112/125/177 111/126/178 75/127/171
f 78/122/179 79/128/180 80/129/181 77/123/182
f 79/128/180 106/130/183 105/131/184 80/129/181
f 81/132/185 86/133/186 85/134/187 82/135/188
f 82/135/189 84/136/190 83/137/191 81/138/192
f 84/136/190 108/139/193 107/140/194 83/137/191
f 86/133/195 88/141/196 87/142/197 85/134/198
f 88/141/196 110/143/199 109/144/200 87/142/197
f 89/145/201 103/146/202 104/147/203 90/148/204
f 90/149/205 91/150/206 92/151/207 89/152/208
f 91/150/209 97/153/210 98/154/211 92/155/212
f 93/156/213 99/157/214 100/158/215 94/159/216
f 94/160/217 95/161/218 96/162/219 93/163/220
f 95/164/221 101/165/222 102/166/223 96/167/224
f 97/153/210 105/131/184 106/130/183 98/154/211
f 99/157/214 107/140/194 108/139/193 100/158/215
f 101/165/222 109/144/200 110/143/199 102/166/223
f 103/146/202 111/126/178 112/168/177 104/169/203
f 73/118/225 77/123/226 80/129/227 76/119/228
f 78/122/229 81/138/230 83/137/231 79/128/232
f 82/135/233 85/134/234 87/142/235 84/136/236
f 86/170/237 74/171/238 75/127/239 88/141/240
f 89/152/241 92/151/242 93/163/243 96/162/244
f 86/172/245 81/173/246 78/174/247 74/175/248
f 98/154/249 99/157/250 93/156/251 92/155/252
f 101/165/253 95/164/254 94/159/255 100/158/256
f 103/146/257 89/145/258 96/176/259 102/166/260
f 97/153/261 91/150/262 90/149/263 104/177/264
f 106/130/265 107/140/266 99/157/250 98/154/249
f 109/144/267 101/165/253 100/158/256 108/139/268
f 111/126/269 103/146/257 102/166/260 110/143/270
f 105/131/271 97/153/261 104/177/264 112/178/272
f 79/128/232 83/137/231 107/140/266 106/130/265
f 87/142/235 109/144/267 108/139/268 84/136/236
f 75/127/239 111/126/269 110/143/270 88/141/240
f 80/129/227 105/131/271 112/178/272 76/119/228
