# This file uses meters as units for non-parametric coordinates.

v -55.462832 134.992537 -25.566651
v 55.462832 134.992537 -25.566651
v -55.462832 246.652764 -25.566651
v 55.462832 246.652764 -25.566651
v 34.940449 259.052739 -25.566651
v 34.940449 134.992537 -25.566651
v -0.000003 266.596221 -25.566651
v -0.000003 134.992537 -25.566651
v -34.940457 259.052739 -25.566651
v -34.940457 134.992537 -25.566651
vt 0.670306 0.077159
vt 0.670306 0.118954
vt 0.712101 0.077159
vt 0.712101 0.118954
vt 0.698169 0.118954
vt 0.698169 0.077159
vt 0.691203 0.118954
vt 0.691203 0.077159
vt 0.684238 0.118954
vt 0.684238 0.077159
vn -0.000000 0.000000 1.000000
vn 0.000000 0.000000 1.000000
vn 0.000000 0.000000 1.000000
vn -0.000000 0.000000 1.000000
vn 0.000000 0.000000 1.000000
vn 0.000000 0.000000 1.000000
vn 0.000000 0.000000 1.000000
vn 0.000000 0.000000 1.000000
vn 0.000000 0.000000 1.000000
vn 0.000000 0.000000 1.000000
f 9/9/1 3/2/2 1/1/3 10/10/4
f 4/4/5 5/5/6 6/6/7 2/3/8
f 7/7/9 8/8/10 6/6/7 5/5/6
f 9/9/1 10/10/4 8/8/10 7/7/9
