# This file uses meters as units for non-parametric coordinates.

v -63.720982 297.797058 -40.123871
v 63.720982 297.797058 -40.123871
v -63.720982 297.797058 -36.287151
v 63.720982 297.797058 -36.287151
v -63.720982 142.777222 -40.123867
v 63.720982 142.777222 -40.123867
v -63.720982 142.777222 -36.287148
v 63.720982 142.777222 -36.287148
v -75.548965 127.832489 -30.664362
v -74.661957 126.945480 -30.664362
v -74.661957 127.832489 -29.777351
v -64.607994 126.945480 -30.664362
v -63.720982 127.832489 -30.664362
v -64.607994 127.832489 -29.777351
v -74.661957 314.737122 -30.664362
v -75.548965 313.850098 -30.664362
v -74.661957 313.850098 -29.777351
v -63.720982 313.850098 -30.664362
v -64.607994 314.737122 -30.664362
v -64.607994 313.850098 -29.777351
v -74.661957 313.850098 -41.605331
v -75.548965 313.850098 -40.718323
v -74.661957 314.737122 -40.718323
v -63.720982 313.850098 -40.718323
v -64.607994 313.850098 -41.605331
v -64.607994 314.737122 -40.718323
v -74.661957 126.945480 -40.718323
v -75.548965 127.832489 -40.718323
v -74.661957 127.832489 -41.605331
v -63.720982 127.832489 -40.718323
v -64.607994 126.945480 -40.718323
v -64.607994 127.832489 -41.605331
v 74.661957 126.945480 -30.664362
v 75.548965 127.832489 -30.664362
v 74.661957 127.832489 -29.777351
v 63.720985 127.832489 -30.664362
v 64.607994 126.945480 -30.664362
v 64.607994 127.832489 -29.777351
v 75.548965 313.850098 -30.664362
v 74.661957 314.737122 -30.664362
v 74.661957 313.850098 -29.777351
v 64.607994 314.737122 -30.664362
v 63.720985 313.850098 -30.664362
v 64.607994 313.850098 -29.777351
v 75.548965 313.850098 -40.718323
v 74.661957 313.850098 -41.605331
v 74.661957 314.737122 -40.718323
v 64.607994 313.850098 -41.605331
v 63.720985 313.850098 -40.718323
v 64.607994 314.737122 -40.718323
v 75.548965 127.832489 -40.718323
v 74.661957 126.945480 -40.718323
v 74.661957 127.832489 -41.605331
v 64.607994 126.945480 -40.718323
v 63.720985 127.832489 -40.718323
v 64.607994 127.832489 -41.605331
v -63.720982 297.796814 -31.098339
v -63.720982 298.180450 -30.714706
v 63.720982 298.180450 -30.714706
v 63.720982 297.796814 -31.098339
v -63.720982 301.249908 -30.714706
v -63.720982 301.633545 -31.098339
v 63.720982 301.633545 -31.098339
v 63.720982 301.249908 -30.714706
v -63.720982 301.633545 -40.334690
v -63.720982 301.249908 -40.718323
v 63.720982 301.249908 -40.718323
v 63.720982 301.633545 -40.334690
v -63.720982 298.180450 -40.718323
v -63.720982 297.796814 -40.334690
v 63.720982 297.796814 -40.334690
v 63.720982 298.180450 -40.718323
v -63.720982 287.793274 -36.670780
v -63.720982 288.176910 -36.287148
v 63.720982 288.176910 -36.287148
v 63.720982 287.793274 -36.670780
v -63.720982 288.176910 -40.123863
v -63.720982 287.793274 -39.740231
v 63.720982 287.793274 -39.740231
v 63.720982 288.176910 -40.123863
v -63.720982 152.205383 -36.287148
v -63.720982 152.780838 -36.862598
v 63.720982 152.780838 -36.862598
v 63.720982 152.205383 -36.287148
v -63.720982 152.780838 -39.548416
v -63.720982 152.205383 -40.123867
v 63.720982 152.205383 -40.123867
v 63.720982 152.780838 -39.548416
v -63.720982 138.940506 -31.290155
v -63.720982 139.515961 -30.714706
v 63.720982 139.515961 -30.714706
v 63.720982 138.940506 -31.290155
v -63.720982 142.201767 -30.714706
v -63.720982 142.777222 -31.290155
v 63.720982 142.777222 -31.290155
v 63.720982 142.201767 -30.714706
v -63.720982 142.777222 -40.142872
v -63.720982 142.201767 -40.718323
v 63.720982 142.201767 -40.718323
v 63.720982 142.777222 -40.142872
v -63.720982 139.515961 -40.718323
v -63.720982 138.940506 -40.142872
v 63.720982 138.940506 -40.142872
v 63.720982 139.515961 -40.718323
vt 0.384373 0.824280
vt 0.384373 0.835939
vt 0.396268 0.835939
vt 0.396268 0.824280
vt 0.397252 0.835939
vt 0.383389 0.835939
vt 0.383389 0.824280
vt 0.397252 0.824280
vt 0.383389 0.824280
vt 0.383389 0.835939
vt 0.397252 0.835939
vt 0.397252 0.824280
vt 0.397252 0.824280
vt 0.383389 0.824280
vt 0.383389 0.835939
vt 0.397252 0.835939
vt 0.384373 0.835939
vt 0.396268 0.835939
vt 0.396268 0.824280
vt 0.384373 0.824280
vt 0.397252 0.835939
vt 0.383389 0.835939
vt 0.383389 0.824280
vt 0.397252 0.824280
vt 0.397252 0.835939
vt 0.383389 0.835939
vt 0.383389 0.824280
vt 0.397252 0.824280
vt 0.383389 0.824280
vt 0.383389 0.835939
vt 0.397252 0.835939
vt 0.397252 0.824280
vt 0.396268 0.835939
vt 0.384373 0.835939
vt 0.384373 0.824280
vt 0.396268 0.824280
vt 0.383389 0.835939
vt 0.383389 0.824280
vt 0.397252 0.824280
vt 0.397252 0.835939
vt 0.396268 0.824280
vt 0.396268 0.835939
vt 0.384373 0.835939
vt 0.384373 0.824280
vt 0.383389 0.824280
vt 0.383389 0.835939
vt 0.397252 0.835939
vt 0.397252 0.824280
vt 0.396268 0.823251
vt 0.384373 0.823251
vt 0.397318 0.824280
vt 0.397318 0.835939
vt 0.396268 0.836967
vt 0.384373 0.836967
vt 0.384373 0.823251
vt 0.396268 0.823251
vt 0.384373 0.836967
vt 0.396268 0.836967
vt 0.397252 0.823251
vt 0.383389 0.823251
vt 0.397252 0.836967
vt 0.383389 0.836967
vt 0.396268 0.823251
vt 0.384373 0.823251
vt 0.397318 0.824280
vt 0.397318 0.835939
vt 0.396268 0.836967
vt 0.384373 0.836967
vt 0.384373 0.823251
vt 0.396268 0.823251
vt 0.384373 0.836967
vt 0.396268 0.836967
vt 0.397252 0.823251
vt 0.383389 0.823251
vt 0.397252 0.836967
vt 0.383389 0.836967
vt 0.397318 0.824623
vt 0.383323 0.835596
vt 0.397318 0.836441
vt 0.383323 0.823777
vt 0.397318 0.836441
vt 0.397318 0.823777
vt 0.383323 0.823777
vt 0.397318 0.824623
vt 0.383323 0.835596
vt 0.383323 0.836967
vt 0.397318 0.823777
vt 0.397318 0.836967
vt 0.383323 0.824623
vt 0.397318 0.835596
vt 0.383323 0.836441
vt 0.383323 0.823251
vt 0.397318 0.823251
vt 0.383323 0.824623
vt 0.383323 0.823251
vt 0.397318 0.823251
vt 0.383323 0.836441
vt 0.397318 0.835596
vt 0.383323 0.824623
vt 0.397318 0.823777
vt 0.383323 0.836441
vt 0.397318 0.835596
vt 0.383323 0.823777
vt 0.397318 0.824623
vt 0.383323 0.835595
vt 0.397318 0.836441
vt 0.383323 0.836967
vt 0.397318 0.836967
vt 0.383323 0.824040
vt 0.397318 0.836178
vt 0.397318 0.823251
vt 0.383323 0.823251
vt 0.397318 0.825309
vt 0.383323 0.834910
vt 0.397318 0.825309
vt 0.383323 0.834910
vt 0.397318 0.836178
vt 0.383323 0.824040
vt 0.397318 0.836178
vt 0.397318 0.824040
vt 0.383323 0.824040
vt 0.397318 0.825309
vt 0.383323 0.834910
vt 0.383323 0.825309
vt 0.397318 0.824040
vt 0.383323 0.836178
vt 0.397318 0.834910
vt 0.383323 0.825309
vt 0.383323 0.823251
vt 0.397318 0.823251
vt 0.383323 0.836178
vt 0.397318 0.834910
vt 0.383323 0.825309
vt 0.397318 0.824040
vt 0.383323 0.836178
vt 0.397318 0.834910
vn 0.000000 0.000000 1.000000
vn 0.000000 0.000000 1.000000
vn 0.000000 0.000000 1.000000
vn 0.000000 0.000000 1.000000
vn 0.000000 1.000000 0.000000
vn 0.000000 1.000000 0.000000
vn 0.000000 1.000000 0.000000
vn 0.000000 1.000000 0.000000
vn 0.000000 0.000000 -1.000000
vn 0.000000 0.000000 -1.000000
vn 0.000000 0.000000 -1.000000
vn 0.000000 0.000000 -1.000000
vn 0.000000 -1.000000 0.000000
vn 0.000000 -1.000000 0.000000
vn 0.000000 -1.000000 0.000000
vn 0.000000 -1.000000 0.000000
vn 0.000000 0.000000 1.000000
vn 0.000000 0.000000 1.000000
vn 0.000000 0.000000 1.000000
vn 0.000000 0.000000 1.000000
vn 0.000000 -1.000000 0.000000
vn 0.000000 -1.000000 0.000000
vn 0.000000 -1.000000 0.000000
vn 0.000000 -1.000000 0.000000
vn 0.000000 -0.000001 -1.000000
vn 0.000000 -0.000001 -1.000000
vn 0.000000 -0.000001 -1.000000
vn 0.000000 -0.000001 -1.000000
vn 0.000000 0.000000 1.000000
vn 0.000000 0.000000 1.000000
vn 0.000000 0.000000 1.000000
vn 0.000000 0.000000 1.000000
vn 0.000000 1.000000 0.000000
vn 0.000000 1.000000 0.000000
vn 0.000000 1.000000 0.000000
vn 0.000000 1.000000 0.000000
vn 0.000000 0.000000 -1.000000
vn 0.000000 0.000000 -1.000000
vn 0.000000 0.000000 -1.000000
vn 0.000000 0.000000 -1.000000
vn 0.000000 0.000000 1.000000
vn 0.000000 0.000000 1.000000
vn 0.000000 0.000000 1.000000
vn 0.000000 0.000000 1.000000
vn 0.000000 1.000000 0.000000
vn 0.000000 1.000000 0.000000
vn 0.000000 1.000000 0.000000
vn 0.000000 1.000000 0.000000
vn 0.000000 0.000000 -1.000000
vn 0.000000 0.000000 -1.000000
vn 0.000000 0.000000 -1.000000
vn 0.000000 0.000000 -1.000000
vn 0.000000 -1.000000 0.000000
vn 0.000000 -1.000000 0.000000
vn 0.000000 -1.000000 0.000000
vn 0.000000 -1.000000 0.000000
vn 0.000000 -1.000000 0.000000
vn 0.000000 -1.000000 0.000000
vn 0.000000 -1.000000 0.000000
vn 0.000000 -1.000000 0.000000
vn 0.000000 0.000000 1.000000
vn 0.000000 0.000000 1.000000
vn 0.000000 0.000000 1.000000
vn 0.000000 0.000000 1.000000
vn -1.000000 0.000000 0.000000
vn -1.000000 0.000000 0.000000
vn -1.000000 0.000000 0.000000
vn -1.000000 0.000000 0.000000
vn 1.000000 0.000000 0.000000
vn 1.000000 0.000000 0.000000
vn 1.000000 0.000000 0.000000
vn 1.000000 0.000000 0.000000
vn 0.000000 1.000000 0.000000
vn 0.000000 1.000000 0.000000
vn 0.000000 1.000000 0.000000
vn 0.000000 1.000000 0.000000
vn 0.000000 0.000000 -1.000000
vn 0.000000 0.000000 -1.000000
vn 0.000000 0.000000 -1.000000
vn 0.000000 0.000000 -1.000000
vn 1.000000 0.000000 0.000000
vn 1.000000 0.000000 0.000000
vn 1.000000 0.000000 0.000000
vn 1.000000 0.000000 0.000000
vn 0.000000 0.000000 1.000000
vn 0.000000 0.000000 1.000000
vn 0.000000 0.000000 1.000000
vn 0.000000 0.000000 1.000000
vn 0.000000 -1.000000 0.000000
vn 0.000000 -1.000000 0.000000
vn 0.000000 -1.000000 0.000000
vn 0.000000 -1.000000 0.000000
vn -1.000000 0.000000 0.000000
vn -1.000000 0.000000 0.000000
vn -1.000000 0.000000 0.000000
vn -1.000000 0.000000 0.000000
vn 0.000000 1.000000 0.000000
vn 0.000000 1.000000 0.000000
vn 0.000000 1.000000 0.000000
vn 0.000000 1.000000 0.000000
vn 0.000000 0.000000 -1.000000
vn 0.000000 0.000000 -1.000000
vn 0.000000 0.000000 -1.000000
vn 0.000000 0.000000 -1.000000
vn -0.707106 -0.707108 0.000000
vn -0.707106 -0.707108 0.000000
vn -0.707106 -0.707108 0.000000
vn -0.707106 -0.707108 0.000000
vn 0.000000 -0.707112 0.707102
vn 0.000000 -0.707112 0.707102
vn 0.000000 -0.707112 0.707102
vn 0.000000 -0.707112 0.707102
vn -0.707107 0.000000 0.707106
vn -0.707107 0.000000 0.707106
vn -0.707107 0.000000 0.707106
vn -0.707107 0.000000 0.707106
vn 0.707106 -0.707108 0.000000
vn 0.707106 -0.707108 0.000000
vn 0.707106 -0.707108 0.000000
vn 0.707106 -0.707108 0.000000
vn 0.707106 0.000000 0.707108
vn 0.707106 0.000000 0.707108
vn 0.707106 0.000000 0.707108
vn 0.707106 0.000000 0.707108
vn -0.707112 0.707102 0.000000
vn -0.707112 0.707102 0.000000
vn -0.707112 0.707102 0.000000
vn -0.707112 0.707102 0.000000
vn 0.000000 0.707107 0.707107
vn 0.000000 0.707107 0.707107
vn 0.000000 0.707107 0.707107
vn 0.000000 0.707107 0.707107
vn 0.707112 0.707102 0.000000
vn 0.707112 0.707102 0.000000
vn 0.707112 0.707102 0.000000
vn 0.707112 0.707102 0.000000
vn -0.707106 0.000000 -0.707107
vn -0.707106 0.000000 -0.707107
vn -0.707106 0.000000 -0.707107
vn -0.707106 0.000000 -0.707107
vn 0.000000 0.707106 -0.707108
vn 0.000000 0.707106 -0.707108
vn 0.000000 0.707106 -0.707108
vn 0.000000 0.707106 -0.707108
vn 0.707105 0.000000 -0.707109
vn 0.707105 0.000000 -0.707109
vn 0.707105 0.000000 -0.707109
vn 0.707105 0.000000 -0.707109
vn 0.000000 -0.707111 -0.707103
vn 0.000000 -0.707111 -0.707103
vn 0.000000 -0.707111 -0.707103
vn 0.000000 -0.707111 -0.707103
vn 0.707106 -0.707108 0.000000
vn 0.707106 -0.707108 0.000000
vn 0.707106 -0.707108 0.000000
vn 0.707106 -0.707108 0.000000
vn 0.707107 0.000000 0.707106
vn 0.707107 0.000000 0.707106
vn 0.707107 0.000000 0.707106
vn 0.707107 0.000000 0.707106
vn 0.000000 -0.707112 0.707102
vn 0.000000 -0.707112 0.707102
vn 0.000000 -0.707112 0.707102
vn 0.000000 -0.707112 0.707102
vn -0.707108 -0.707105 0.000000
vn -0.707108 -0.707105 0.000000
vn -0.707108 -0.707105 0.000000
vn -0.707108 -0.707105 0.000000
vn -0.707107 0.000000 0.707106
vn -0.707107 0.000000 0.707106
vn -0.707107 0.000000 0.707106
vn -0.707107 0.000000 0.707106
vn 0.707112 0.707102 0.000000
vn 0.707112 0.707102 0.000000
vn 0.707112 0.707102 0.000000
vn 0.707112 0.707102 0.000000
vn 0.000000 0.707107 0.707107
vn 0.000000 0.707107 0.707107
vn 0.000000 0.707107 0.707107
vn 0.000000 0.707107 0.707107
vn -0.707115 0.707099 0.000000
vn -0.707115 0.707099 0.000000
vn -0.707115 0.707099 0.000000
vn -0.707115 0.707099 0.000000
vn 0.707106 0.000000 -0.707107
vn 0.707106 0.000000 -0.707107
vn 0.707106 0.000000 -0.707107
vn 0.707106 0.000000 -0.707107
vn 0.000000 0.707106 -0.707108
vn 0.000000 0.707106 -0.707108
vn 0.000000 0.707106 -0.707108
vn 0.000000 0.707106 -0.707108
vn -0.707106 0.000000 -0.707107
vn -0.707106 0.000000 -0.707107
vn -0.707106 0.000000 -0.707107
vn -0.707106 0.000000 -0.707107
vn 0.000000 -0.707111 -0.707103
vn 0.000000 -0.707111 -0.707103
vn 0.000000 -0.707111 -0.707103
vn 0.000000 -0.707111 -0.707103
vn -0.577348 -0.577351 0.577351
vn -0.577348 -0.577351 0.577351
vn -0.577348 -0.577351 0.577351
vn 0.577348 -0.577351 0.577351
vn 0.577348 -0.577351 0.577351
vn 0.577348 -0.577351 0.577351
vn -0.577354 0.577343 0.577354
vn -0.577354 0.577343 0.577354
vn -0.577354 0.577343 0.577354
vn 0.577354 0.577343 0.577354
vn 0.577354 0.577343 0.577354
vn 0.577354 0.577343 0.577354
vn -0.577350 0.577345 -0.577356
vn -0.577350 0.577345 -0.577356
vn -0.577350 0.577345 -0.577356
vn 0.577352 0.577341 -0.577358
vn 0.577352 0.577341 -0.577358
vn 0.577352 0.577341 -0.577358
vn -0.577350 -0.577350 -0.577350
vn -0.577350 -0.577350 -0.577350
vn -0.577350 -0.577350 -0.577350
vn 0.577352 -0.577347 -0.577352
vn 0.577352 -0.577347 -0.577352
vn 0.577352 -0.577347 -0.577352
vn 0.577348 -0.577351 0.577351
vn 0.577348 -0.577351 0.577351
vn 0.577348 -0.577351 0.577351
vn -0.577348 -0.577351 0.577351
vn -0.577348 -0.577351 0.577351
vn -0.577348 -0.577351 0.577351
vn 0.577354 0.577343 0.577354
vn 0.577354 0.577343 0.577354
vn 0.577354 0.577343 0.577354
vn -0.577354 0.577343 0.577354
vn -0.577354 0.577343 0.577354
vn -0.577354 0.577343 0.577354
vn 0.577350 0.577345 -0.577356
vn 0.577350 0.577345 -0.577356
vn 0.577350 0.577345 -0.577356
vn -0.577352 0.577341 -0.577358
vn -0.577352 0.577341 -0.577358
vn -0.577352 0.577341 -0.577358
vn 0.577350 -0.577350 -0.577350
vn 0.577350 -0.577350 -0.577350
vn 0.577350 -0.577350 -0.577350
vn -0.577352 -0.577347 -0.577352
vn -0.577352 -0.577347 -0.577352
vn -0.577352 -0.577347 -0.577352
vn 0.000000 -0.707109 0.707105
vn 0.000000 -0.707109 0.707105
vn 0.000000 -0.707109 0.707105
vn 0.000000 -0.707109 0.707105
vn 0.000000 0.707109 0.707105
vn 0.000000 0.707109 0.707105
vn 0.000000 0.707109 0.707105
vn 0.000000 0.707109 0.707105
vn 0.000000 0.707109 -0.707105
vn 0.000000 0.707109 -0.707105
vn 0.000000 0.707109 -0.707105
vn 0.000000 0.707109 -0.707105
vn 0.000000 -0.707109 -0.707105
vn 0.000000 -0.707109 -0.707105
vn 0.000000 -0.707109 -0.707105
vn 0.000000 -0.707109 -0.707105
vn 0.000000 -0.707109 0.707105
vn 0.000000 -0.707109 0.707105
vn 0.000000 -0.707109 0.707105
vn 0.000000 -0.707109 0.707105
vn 0.000000 -0.707109 -0.707105
vn 0.000000 -0.707109 -0.707105
vn 0.000000 -0.707109 -0.707105
vn 0.000000 -0.707109 -0.707105
vn 0.000000 0.707110 0.707104
vn 0.000000 0.707110 0.707104
vn 0.000000 0.707110 0.707104
vn 0.000000 0.707110 0.707104
vn 0.000000 0.707110 -0.707104
vn 0.000000 0.707110 -0.707104
vn 0.000000 0.707110 -0.707104
vn 0.000000 0.707110 -0.707104
vn 0.000000 -0.707109 0.707105
vn 0.000000 -0.707109 0.707105
vn 0.000000 -0.707109 0.707105
vn 0.000000 -0.707109 0.707105
vn 0.000000 0.707109 0.707105
vn 0.000000 0.707109 0.707105
vn 0.000000 0.707109 0.707105
vn 0.000000 0.707109 0.707105
vn 0.000000 0.707110 -0.707104
vn 0.000000 0.707110 -0.707104
vn 0.000000 0.707110 -0.707104
vn 0.000000 0.707110 -0.707104
vn 0.000000 -0.707110 -0.707104
vn 0.000000 -0.707110 -0.707104
vn 0.000000 -0.707110 -0.707104
vn 0.000000 -0.707110 -0.707104
f 58/94/1 59/77/2 64/98/3 61/78/4
f 62/97/5 63/79/6 68/100/7 65/80/8
f 66/99/9 67/84/10 72/102/11 69/85/12
f 70/101/13 71/81/14 60/82/15 57/83/16
f 3/86/17 74/103/18 75/87/19 4/88/20
f 76/104/21 73/89/22 78/105/23 79/90/24
f 80/106/25 77/91/26 1/92/27 2/93/28
f 7/107/29 8/108/30 84/125/31 81/109/32
f 82/124/33 83/113/34 88/127/35 85/114/36
f 86/126/37 87/110/38 6/111/39 5/112/40
f 90/128/41 91/115/42 96/132/43 93/116/44
f 94/131/45 95/117/46 100/134/47 97/118/48
f 98/133/49 99/122/50 104/136/51 101/123/52
f 102/135/53 103/119/54 92/120/55 89/121/56
f 27/1/57 31/2/58 12/3/59 10/4/60
f 14/5/61 20/6/62 17/7/63 11/8/64
f 16/9/65 22/10/66 28/11/67 9/12/68
f 30/13/69 24/14/70 18/15/71 13/16/72
f 19/17/73 26/18/74 23/19/75 15/20/76
f 25/21/77 32/22/78 29/23/79 21/24/80
f 51/25/81 45/26/82 39/27/83 34/28/84
f 41/29/85 44/30/86 38/31/87 35/32/88
f 37/33/89 54/34/90 52/35/91 33/36/92
f 43/37/93 49/38/94 55/39/95 36/40/96
f 47/41/97 50/42/98 42/43/99 40/44/100
f 53/45/101 56/46/102 48/47/103 46/48/104
f 10/4/105 9/49/106 28/50/107 27/1/108
f 11/8/109 10/51/110 12/52/111 14/5/112
f 9/12/113 11/8/114 17/7/115 16/9/116
f 13/53/117 12/3/118 31/2/119 30/54/120
f 14/5/121 13/16/122 18/15/123 20/6/124
f 16/55/125 15/20/126 23/19/127 22/56/128
f 15/20/129 17/7/130 20/6/131 19/17/132
f 19/17/133 18/57/134 24/58/135 26/18/136
f 22/59/137 21/24/138 29/23/139 28/60/140
f 21/24/141 23/19/142 26/18/143 25/21/144
f 25/21/145 24/61/146 30/62/147 32/22/148
f 27/1/149 29/23/150 32/22/151 31/2/152
f 34/63/153 33/36/154 52/35/155 51/64/156
f 35/32/157 34/28/158 39/27/159 41/29/160
f 33/65/161 35/32/162 38/31/163 37/66/164
f 37/33/165 36/67/166 55/68/167 54/34/168
f 36/40/169 38/31/170 44/30/171 43/37/172
f 40/44/173 39/69/174 45/70/175 47/41/176
f 41/29/177 40/44/178 42/43/179 44/30/180
f 43/71/181 42/43/182 50/42/183 49/72/184
f 46/48/185 45/73/186 51/74/187 53/45/188
f 47/41/189 46/48/190 48/47/191 50/42/192
f 49/75/193 48/47/194 56/46/195 55/76/196
f 53/45/197 52/35/198 54/34/199 56/46/200
f 9/12/201 10/51/202 11/8/203
f 12/52/204 13/16/205 14/5/206
f 15/20/207 16/9/208 17/7/209
f 18/15/210 19/17/211 20/6/212
f 21/24/213 22/56/214 23/19/215
f 24/58/216 25/21/217 26/18/218
f 27/1/219 28/60/220 29/23/221
f 30/62/222 31/2/223 32/22/224
f 33/65/225 34/28/226 35/32/227
f 36/40/228 37/66/229 38/31/230
f 39/27/231 40/44/232 41/29/233
f 42/43/234 43/37/235 44/30/236
f 45/70/237 46/48/238 47/41/239
f 48/47/240 49/72/241 50/42/242
f 51/74/243 52/35/244 53/45/245
f 54/34/246 55/76/247 56/46/248
f 58/94/249 57/95/250 60/96/251 59/77/252
f 62/97/253 61/78/254 64/98/255 63/79/256
f 66/99/257 65/80/258 68/100/259 67/84/260
f 70/101/261 69/85/262 72/102/263 71/81/264
f 74/103/265 73/89/266 76/104/267 75/87/268
f 78/105/269 77/91/270 80/106/271 79/90/272
f 82/124/273 81/109/274 84/125/275 83/113/276
f 86/126/277 85/114/278 88/127/279 87/110/280
f 90/128/281 89/129/282 92/130/283 91/115/284
f 94/131/285 93/116/286 96/132/287 95/117/288
f 98/133/289 97/118/290 100/134/291 99/122/292
f 102/135/293 101/123/294 104/136/295 103/119/296
