# This file uses meters as units for non-parametric coordinates.

v -71.876189 52.207681 43.078205
v -5.637387 52.207681 43.078205
v -5.637387 52.207681 -31.867351
v -71.876189 52.207681 -31.867351
v -74.168230 76.437935 43.078205
v -74.422874 76.183294 43.078205
v -74.422874 76.183294 -34.907974
v -74.168230 76.437935 -34.653325
v -74.422874 50.790008 43.078205
v -74.168230 50.535359 43.078205
v -74.168230 50.535359 -34.653325
v -74.422874 50.790008 -34.907974
v -3.345347 50.535359 43.078205
v -3.090702 50.790008 43.078205
v -3.090702 50.790008 -34.907974
v -3.345347 50.535359 -34.653325
v -3.090702 76.183294 43.078205
v -3.345347 76.437935 43.078205
v -3.090702 76.183294 -34.907974
v -3.345347 76.437935 -34.653325
v -5.382745 76.437935 -32.121991
v -5.637387 76.183294 -31.867351
v -72.130832 76.437935 -32.121991
v -71.876189 76.183294 -31.867351
v -5.382745 76.437935 43.078205
v -5.637387 76.183294 43.078205
v -71.876189 76.183294 43.078205
v -72.130832 76.437935 43.078205
v -77.489923 85.491215 43.078205
v -0.023653 85.491215 43.078205
v -77.489923 49.959443 43.078205
v -0.023653 49.959443 43.078205
v -77.031905 50.417462 44.910451
v -77.489923 49.959443 44.452440
v -0.481672 50.417462 44.910451
v -0.023653 49.959443 44.452440
v -77.031905 85.033196 44.910451
v -77.489923 85.491215 44.452440
v -0.481672 85.033196 44.910451
v -0.023653 85.491215 44.452440
vt 0.640189 0.180340
vt 0.736937 0.180340
vt 0.736937 0.135492
vt 0.640189 0.135492
vt 0.637873 0.179815
vt 0.637873 0.180340
vt 0.738780 0.180340
vt 0.637873 0.133381
vt 0.637873 0.132857
vt 0.739252 0.133381
vt 0.738780 0.132857
vt 0.739252 0.179815
vt 0.739252 0.133381
vt 0.739252 0.132857
vt 0.638345 0.132857
vt 0.739020 0.180340
vt 0.739252 0.180340
vt 0.739252 0.132857
vt 0.736937 0.135492
vt 0.736937 0.180340
vt 0.640189 0.135492
vt 0.639957 0.180340
vt 0.640189 0.180340
vt 0.737168 0.180340
vt 0.739020 0.133077
vt 0.637873 0.179815
vt 0.739252 0.179815
vt 0.637873 0.133382
vt 0.637873 0.133382
vt 0.739252 0.179815
vt 0.739020 0.180120
vt 0.739020 0.132857
vt 0.638105 0.132857
vt 0.638105 0.180120
vt 0.637873 0.179815
vt 0.739252 0.133381
vt 0.638101 0.133078
vt 0.737168 0.135271
vt 0.638105 0.180340
vt 0.639957 0.135271
vt 0.737062 0.135112
vt 0.640034 0.135112
vt 0.737062 0.179959
vt 0.737062 0.135112
vt 0.640034 0.179959
vt 0.640034 0.135112
vt 0.640034 0.179959
vt 0.737062 0.179959
vt 0.638867 0.132172
vt 0.741503 0.132172
vt 0.741503 0.180245
vt 0.638867 0.180245
vt 0.639474 0.132792
vt 0.664524 0.132172
vt 0.715846 0.132172
vt 0.740897 0.132792
vt 0.639474 0.179626
vt 0.638867 0.168228
vt 0.715847 0.180245
vt 0.740897 0.179626
vt 0.741503 0.168228
vt 0.741503 0.144190
vt 0.638867 0.144190
vt 0.638867 0.132172
vt 0.638867 0.180245
vt 0.741503 0.132172
vt 0.664524 0.180245
vt 0.741504 0.180245
vn 0.000000 1.000000 0.000000
vn 0.000000 1.000000 0.000000
vn 0.000000 1.000000 0.000000
vn 0.000000 1.000000 0.000000
vn -0.707101 0.707113 0.000000
vn -0.707101 0.707113 0.000000
vn -0.707101 0.707113 0.000000
vn -0.707101 0.707113 0.000000
vn 0.000000 0.707127 -0.707086
vn 0.000000 0.707127 -0.707086
vn 0.000000 0.707127 -0.707086
vn 0.000000 0.707127 -0.707086
vn -0.707112 -0.707101 0.000000
vn -0.707112 -0.707101 0.000000
vn -0.707112 -0.707101 0.000000
vn -0.707112 -0.707101 0.000000
vn 0.000000 -0.707110 -0.707104
vn 0.000000 -0.707110 -0.707104
vn 0.000000 -0.707110 -0.707104
vn 0.000000 -0.707110 -0.707104
vn 0.707112 -0.707101 0.000000
vn 0.707112 -0.707101 0.000000
vn 0.707112 -0.707101 0.000000
vn 0.707112 -0.707101 0.000000
vn 0.707101 0.707113 0.000000
vn 0.707101 0.707113 0.000000
vn 0.707101 0.707113 0.000000
vn 0.707101 0.707113 0.000000
vn -0.707103 0.707111 0.000000
vn -0.707103 0.707111 0.000000
vn -0.707103 0.707111 0.000000
vn -0.707103 0.707111 0.000000
vn 0.000000 0.707106 0.707107
vn 0.000000 0.707106 0.707107
vn 0.000000 0.707106 0.707107
vn 0.000000 0.707106 0.707107
vn 0.707103 0.707111 0.000000
vn 0.707103 0.707111 0.000000
vn 0.707103 0.707111 0.000000
vn 0.707103 0.707111 0.000000
vn 0.000000 1.000000 -0.000001
vn 0.000000 1.000000 0.000000
vn 0.000000 1.000000 0.000000
vn 0.000000 1.000000 -0.000001
vn 1.000000 0.000000 0.000000
vn 1.000000 0.000000 0.000000
vn 1.000000 0.000000 0.000000
vn 1.000000 0.000000 0.000000
vn -1.000000 0.000000 0.000000
vn -1.000000 0.000000 0.000000
vn -1.000000 0.000000 0.000000
vn -1.000000 0.000000 0.000000
vn 0.000000 -1.000000 0.000000
vn 0.000000 -1.000000 0.000000
vn 0.000000 -1.000000 0.000000
vn 0.000000 -1.000000 0.000000
vn 0.000000 0.000000 -1.000000
vn 0.000000 0.000000 -1.000000
vn 0.000000 0.000000 -1.000000
vn 0.000000 0.000000 -1.000000
vn 0.000000 1.000000 -0.000001
vn 0.000000 1.000000 -0.000001
vn 0.000000 1.000000 0.000000
vn 0.000000 1.000000 0.000000
vn -1.000000 0.000000 0.000000
vn -1.000000 0.000000 0.000000
vn -1.000000 0.000000 0.000000
vn -1.000000 0.000000 0.000000
vn 0.000000 0.000000 1.000000
vn 0.000000 0.000000 1.000000
vn 0.000000 0.000000 1.000000
vn 0.000000 0.000000 1.000000
vn 1.000000 0.000000 0.000000
vn 1.000000 0.000000 0.000000
vn 1.000000 0.000000 0.000000
vn 1.000000 0.000000 0.000000
vn 0.000000 0.000000 -1.000000
vn 0.000000 0.000000 -1.000000
vn 0.000000 0.000000 -1.000000
vn 0.000000 0.000000 -1.000000
vn 0.000000 -0.707101 0.707113
vn 0.000000 -0.707101 0.707113
vn 0.000000 -0.707101 0.707113
vn 0.000000 -0.707101 0.707113
vn -0.707095 0.000000 0.707119
vn -0.707095 0.000000 0.707119
vn -0.707095 0.000000 0.707119
vn -0.707095 0.000000 0.707119
vn 0.707095 0.000000 0.707119
vn 0.707095 0.000000 0.707119
vn 0.707095 0.000000 0.707119
vn 0.707095 0.000000 0.707119
vn 0.000000 0.707098 0.707116
vn 0.000000 0.707098 0.707116
vn 0.000000 0.707098 0.707116
vn 0.000000 0.707098 0.707116
vn 0.000000 0.000000 1.000000
vn 0.000000 0.000000 1.000000
vn 0.000000 0.000000 1.000000
vn 0.000000 0.000000 1.000000
vn 0.000000 1.000000 0.000000
vn 0.000000 1.000000 0.000000
vn 0.000000 1.000000 0.000000
vn 0.000000 1.000000 0.000000
vn 0.000000 -1.000000 0.000000
vn 0.000000 -1.000000 0.000000
vn 0.000000 -1.000000 0.000000
vn 0.000000 -1.000000 0.000000
vn 1.000000 0.000000 0.000000
vn 1.000000 0.000000 0.000000
vn 1.000000 0.000000 0.000000
vn 1.000000 0.000000 0.000000
vn -1.000000 0.000000 0.000000
vn -1.000000 0.000000 0.000000
vn -1.000000 0.000000 0.000000
vn -1.000000 0.000000 0.000000
f 1/1/1 2/2/2 3/3/3 4/4/4
f 6/5/5 5/6/6 8/7/7 7/30/8
f 7/8/9 8/37/10 20/25/11 19/36/12
f 10/9/13 9/29/14 12/10/15 11/11/16
f 11/34/17 12/35/18 15/12/19 16/31/20
f 14/13/21 13/14/22 16/15/23 15/28/24
f 18/16/25 17/17/26 19/18/27 20/25/28
f 21/38/29 22/19/30 26/20/31 25/24/32
f 22/19/33 21/38/34 23/40/35 24/21/36
f 24/21/37 23/40/38 28/22/39 27/23/40
f 21/38/41 25/24/42 18/16/43 20/25/44
f 19/26/45 17/27/46 14/13/47 15/28/48
f 12/10/49 9/29/50 6/5/51 7/30/52
f 16/31/53 13/32/54 10/33/55 11/34/56
f 12/35/57 7/8/58 19/36/59 15/12/60
f 8/37/61 23/40/62 21/38/41 20/25/44
f 8/37/61 5/39/63 28/22/64 23/40/62
f 26/41/65 22/42/66 3/45/67 2/43/68
f 22/42/69 24/44/70 4/48/71 3/45/72
f 24/44/73 27/46/74 1/47/75 4/48/76
f 29/49/77 30/50/78 32/51/79 31/52/80
f 33/53/81 34/54/82 36/55/83 35/56/84
f 34/54/85 33/53/86 37/57/87 38/58/88
f 35/56/89 36/55/90 40/59/91 39/60/92
f 38/58/93 37/57/94 39/60/95 40/59/96
f 33/53/97 35/56/98 39/60/99 37/57/100
f 38/58/101 40/61/102 30/50/103 29/49/104
f 31/52/105 32/51/106 36/62/107 34/63/108
f 36/55/109 32/64/110 30/65/111 40/59/112
f 31/66/113 34/54/114 38/67/115 29/68/116
