# This file uses meters as units for non-parametric coordinates.

v -64.983032 77.102844 34.666367
v -64.195786 77.102844 34.666367
v -64.983032 77.890091 34.666367
v -64.195786 77.890091 34.666367
v -64.983032 77.890091 31.844418
v -64.195786 77.890091 31.844418
v -64.983032 77.102844 31.844418
v -64.195786 77.102844 31.844418
v -54.872105 77.102844 34.666367
v -54.084866 77.102844 34.666367
v -54.872105 77.890091 34.666367
v -54.084866 77.890091 34.666367
v -54.872105 77.890091 31.844418
v -54.084866 77.890091 31.844418
v -54.872105 77.102844 31.844418
v -54.084866 77.102844 31.844418
v -69.483231 77.059998 34.747387
v -69.644875 76.981613 34.561405
v -64.589409 76.546295 35.706703
v -64.589409 76.637634 35.856445
v -69.483231 77.932938 34.747387
v -69.644875 78.011322 34.561405
v -64.589409 78.446640 35.706703
v -64.589409 78.355309 35.856445
v -69.644875 78.011322 33.362576
v -69.483231 77.932938 33.249855
v -64.589409 78.446640 34.508648
v -64.589409 78.355309 34.358910
v -69.483231 77.059998 33.249855
v -69.644875 76.981613 33.362576
v -64.589409 76.637634 34.358910
v -64.589409 76.546295 34.508648
v -49.423023 76.981613 34.561405
v -49.584663 77.059998 34.747387
v -49.584663 77.932938 34.747387
v -49.423023 78.011322 34.561405
v -49.423023 78.011322 33.362576
v -49.584663 77.932938 33.249855
v -49.584663 77.059998 33.249855
v -49.423023 76.981613 33.362576
v -54.478485 78.355309 35.856445
v -54.478485 78.446640 35.706703
v -54.478485 78.446640 34.508648
v -54.478485 78.355309 34.358910
v -54.478485 76.637634 34.358910
v -54.478485 76.546295 34.508648
v -54.478485 76.546295 35.706703
v -54.478485 76.637634 35.856445
v -59.533947 78.478775 36.184711
v -59.533947 78.570114 36.034973
v -59.533947 78.570114 34.836910
v -59.533947 78.478775 34.687172
v -59.533947 76.514153 34.687172
v -59.533947 76.422813 34.836910
v -59.533947 76.422813 36.034973
v -59.533947 76.514153 36.184711
vt 0.383057 0.789040
vt 0.398212 0.789040
vt 0.383057 0.806186
vt 0.398212 0.806186
vt 0.383057 0.789040
vt 0.398212 0.789040
vt 0.383057 0.806186
vt 0.398212 0.806186
vt 0.383057 0.789040
vt 0.398212 0.789040
vt 0.383057 0.789040
vt 0.383057 0.806186
vt 0.398212 0.789040
vt 0.398212 0.806186
vt 0.383057 0.806186
vt 0.398212 0.806186
vt 0.398212 0.789040
vt 0.383057 0.789040
vt 0.383057 0.806186
vt 0.398212 0.806186
vt 0.398212 0.789040
vt 0.383057 0.789040
vt 0.398212 0.789040
vt 0.383057 0.789040
vt 0.383057 0.806186
vt 0.398212 0.789040
vt 0.383057 0.789040
vt 0.398212 0.806186
vt 0.383178 0.790577
vt 0.383057 0.789040
vt 0.386803 0.789040
vt 0.386846 0.789864
vt 0.383178 0.805112
vt 0.383057 0.804476
vt 0.386846 0.789040
vt 0.386846 0.790755
vt 0.390634 0.790755
vt 0.390629 0.789040
vt 0.386846 0.805362
vt 0.386846 0.804471
vt 0.390634 0.805457
vt 0.390634 0.804471
vt 0.383087 0.789097
vt 0.383178 0.790577
vt 0.383178 0.805112
vt 0.383087 0.806155
vt 0.383057 0.790750
vt 0.386846 0.790755
vt 0.386846 0.789864
vt 0.390634 0.790755
vt 0.390634 0.789769
vt 0.386846 0.805362
vt 0.386846 0.804471
vt 0.390634 0.805456
vt 0.390634 0.804471
vt 0.398212 0.790750
vt 0.398096 0.789040
vt 0.394442 0.789040
vt 0.394423 0.790755
vt 0.398091 0.790577
vt 0.396701 0.789040
vt 0.396701 0.806186
vt 0.398091 0.805112
vt 0.398212 0.804476
vt 0.394423 0.804471
vt 0.394423 0.805362
vt 0.398212 0.790750
vt 0.398091 0.790577
vt 0.394423 0.789864
vt 0.394423 0.790755
vt 0.383428 0.804881
vt 0.384568 0.806186
vt 0.384568 0.789040
vt 0.383428 0.790345
vt 0.398091 0.805112
vt 0.398182 0.806155
vt 0.394423 0.804471
vt 0.394423 0.805362
vt 0.394423 0.789040
vt 0.390640 0.789040
vt 0.383057 0.804476
vt 0.383057 0.790750
vt 0.396701 0.789040
vt 0.384568 0.789040
vt 0.384568 0.806186
vt 0.396701 0.806186
vt 0.398212 0.804476
vt 0.394423 0.789864
vt 0.390634 0.789769
vn 0.000000 1.000000 0.000000
vn 0.000000 1.000000 0.000000
vn 0.000000 1.000000 0.000000
vn 0.000000 1.000000 0.000000
vn 0.000000 -1.000000 0.000000
vn 0.000000 -1.000000 0.000000
vn 0.000000 -1.000000 0.000000
vn 0.000000 -1.000000 0.000000
vn 1.000000 0.000000 0.000000
vn 1.000000 0.000000 0.000000
vn 1.000000 0.000000 0.000000
vn 1.000000 0.000000 0.000000
vn -1.000000 0.000000 0.000000
vn -1.000000 0.000000 0.000000
vn -1.000000 0.000000 0.000000
vn -1.000000 0.000000 0.000000
vn 0.000000 1.000000 0.000000
vn 0.000000 1.000000 0.000000
vn 0.000000 1.000000 0.000000
vn 0.000000 1.000000 0.000000
vn 0.000000 -1.000000 0.000000
vn 0.000000 -1.000000 0.000000
vn 0.000000 -1.000000 0.000000
vn 0.000000 -1.000000 0.000000
vn 1.000000 0.000000 0.000000
vn 1.000000 0.000000 0.000000
vn 1.000000 0.000000 0.000000
vn 1.000000 0.000000 0.000000
vn -1.000000 0.000000 0.000000
vn -1.000000 0.000000 0.000000
vn -1.000000 0.000000 0.000000
vn -1.000000 0.000000 0.000000
vn -0.188579 -0.836881 0.513876
vn -0.188579 -0.836881 0.513876
vn -0.125775 -0.846129 0.517925
vn -0.117751 -0.847060 0.518289
vn -0.754765 0.000000 0.655995
vn -0.754765 0.000000 0.655995
vn -0.754765 0.000000 0.655995
vn -0.754765 0.000000 0.655995
vn 0.000000 -0.853710 0.520749
vn 0.000000 -0.853710 0.520749
vn -0.188579 0.836896 0.513851
vn -0.188579 0.836896 0.513851
vn -0.117748 0.847068 0.518278
vn -0.125773 0.846138 0.517911
vn -0.000000 0.853710 0.520749
vn -0.000000 0.853710 0.520749
vn -0.571999 0.000000 -0.820254
vn -0.572000 0.000000 -0.820254
vn -0.572000 0.000000 -0.820254
vn -0.571999 0.000000 -0.820254
vn 0.045091 0.851319 -0.522707
vn 0.045091 0.851319 -0.522707
vn 0.027284 0.852713 -0.521667
vn 0.030380 0.852490 -0.521860
vn 0.000000 0.853707 -0.520754
vn 0.000000 0.853707 -0.520754
vn 0.045097 -0.851303 -0.522732
vn 0.045097 -0.851303 -0.522732
vn 0.030383 -0.852482 -0.521874
vn 0.027286 -0.852706 -0.521679
vn 0.000000 -0.853707 -0.520754
vn 0.000000 -0.853707 -0.520754
vn 0.188580 -0.836878 0.513880
vn 0.188580 -0.836878 0.513880
vn 0.117751 -0.847059 0.518291
vn 0.125775 -0.846128 0.517927
vn 0.754777 0.000000 0.655982
vn 0.754777 0.000000 0.655982
vn 0.754777 0.000000 0.655982
vn 0.754777 0.000000 0.655982
vn 0.188577 0.836879 0.513880
vn 0.188577 0.836879 0.513880
vn 0.125772 0.846128 0.517927
vn 0.117748 0.847059 0.518291
vn -0.045092 0.851302 -0.522734
vn -0.045092 0.851303 -0.522734
vn -0.030380 0.852481 -0.521875
vn -0.027284 0.852705 -0.521679
vn 0.572009 0.000000 -0.820247
vn 0.572009 0.000000 -0.820247
vn 0.572009 0.000000 -0.820247
vn 0.572009 0.000000 -0.820247
vn -0.045097 -0.851301 -0.522736
vn -0.045097 -0.851301 -0.522736
vn -0.027286 -0.852705 -0.521680
vn -0.030383 -0.852480 -0.521876
vn -0.221020 0.000000 0.975269
vn -0.126688 0.000000 0.991943
vn -0.126688 0.000000 0.991943
vn -0.221020 0.000000 0.975269
vn -0.085791 0.996313 0.000000
vn -0.052236 0.998635 0.000000
vn -0.057857 0.998325 0.000000
vn -0.085791 0.996313 0.000000
vn 0.221019 0.000000 -0.975270
vn 0.126688 0.000000 -0.991943
vn 0.126688 0.000000 -0.991943
vn 0.221019 0.000000 -0.975269
vn -0.085791 -0.996313 0.000000
vn -0.057858 -0.998325 0.000000
vn -0.052237 -0.998635 0.000000
vn -0.085791 -0.996313 0.000000
vn 1.000000 0.000000 0.000000
vn 1.000000 0.000000 0.000000
vn 1.000000 0.000000 0.000000
vn 1.000000 0.000000 0.000000
vn -1.000000 0.000000 0.000000
vn -1.000000 0.000000 0.000000
vn -1.000000 0.000000 0.000000
vn -1.000000 0.000000 0.000000
vn 0.052236 0.998635 0.000000
vn 0.085791 0.996313 0.000000
vn 0.085791 0.996313 0.000000
vn 0.057857 0.998325 0.000000
vn -0.126688 0.000000 -0.991943
vn -0.126688 0.000000 -0.991943
vn -0.221019 0.000000 -0.975269
vn -0.221019 0.000000 -0.975269
vn 0.052236 -0.998635 0.000000
vn 0.057858 -0.998325 0.000000
vn 0.085791 -0.996313 0.000000
vn 0.085791 -0.996313 0.000000
vn 0.126688 0.000000 0.991943
vn 0.126688 0.000000 0.991943
vn 0.221020 0.000000 0.975269
vn 0.221020 0.000000 0.975269
vn -0.000000 1.000000 0.000000
vn -0.000000 1.000000 0.000000
vn 0.000000 0.000000 -1.000000
vn 0.000000 0.000000 -1.000000
vn 0.000000 -1.000000 0.000000
vn 0.000000 -1.000000 0.000000
vn 0.000000 0.000000 1.000000
vn 0.000000 0.000000 1.000000
f 3/3/1 4/4/2 6/6/3 5/5/4
f 7/7/5 8/8/6 2/10/7 1/9/8
f 2/2/9 8/11/10 6/12/11 4/4/12
f 7/13/13 1/1/14 3/3/15 5/14/16
f 11/15/17 12/16/18 14/17/19 13/18/20
f 15/19/21 16/20/22 10/21/23 9/22/24
f 10/23/25 16/24/26 14/25/27 12/16/28
f 15/26/29 9/27/30 11/15/31 13/28/32
f 17/29/33 18/30/34 19/31/35 20/32/36
f 18/30/37 17/29/38 21/33/39 22/34/40
f 20/35/36 19/36/35 55/37/41 56/38/42
f 22/34/43 21/33/44 24/39/45 23/40/46
f 23/40/46 24/39/45 49/41/47 50/42/48
f 25/43/49 26/44/50 29/45/51 30/46/52
f 26/44/53 25/47/54 27/48/55 28/49/56
f 28/49/56 27/48/55 51/50/57 52/51/58
f 30/46/59 29/45/60 31/52/61 32/53/62
f 32/53/62 31/52/61 53/54/63 54/55/64
f 33/56/65 34/57/66 48/58/67 47/59/68
f 34/60/69 33/61/70 36/62/71 35/63/72
f 35/63/73 36/64/74 42/65/75 41/66/76
f 37/67/77 38/68/78 44/69/79 43/70/80
f 38/71/81 37/72/82 40/73/83 39/74/84
f 39/75/85 40/76/86 46/77/87 45/78/88
f 41/66/76 42/65/75 50/42/48 49/41/47
f 43/70/80 44/69/79 52/51/58 51/50/57
f 45/78/88 46/77/87 54/55/64 53/54/63
f 47/59/68 48/79/67 56/80/42 55/37/41
f 17/29/89 20/32/90 24/39/91 21/33/92
f 22/34/93 23/40/94 27/48/95 25/47/96
f 26/44/97 28/49/98 31/52/99 29/45/100
f 30/81/101 32/53/102 19/36/103 18/82/104
f 33/61/105 40/73/106 37/72/107 36/62/108
f 30/83/109 18/84/110 22/85/111 25/86/112
f 42/65/113 36/64/114 37/67/115 43/70/116
f 45/78/117 44/69/118 38/68/119 39/75/120
f 47/59/121 46/77/122 40/87/123 33/56/124
f 41/66/125 48/88/126 34/60/127 35/63/128
f 50/42/129 42/65/113 43/70/116 51/50/130
f 53/54/131 52/51/132 44/69/118 45/78/117
f 55/37/133 54/55/134 46/77/122 47/59/121
f 49/41/135 56/89/136 48/88/126 41/66/125
f 23/40/94 50/42/129 51/50/130 27/48/95
f 31/52/99 28/49/98 52/51/132 53/54/131
f 19/36/103 32/53/102 54/55/134 55/37/133
f 24/39/91 20/32/90 56/89/136 49/41/135
