# This file uses meters as units for non-parametric coordinates.

v 0.000000 12.040028 -38.709759
v 0.000000 0.000000 -38.709759
v 0.000000 0.000000 -31.940205
v 0.000000 12.040028 -31.940205
v 0.000000 129.245499 -38.709759
v 0.000000 123.897812 -38.709759
v 0.000000 123.897812 -31.940205
v 0.000000 129.245499 -31.940205
v -145.340897 0.000000 42.486404
v -145.875610 0.534715 43.021118
v 0.000000 0.534715 43.021118
v 0.000000 0.000000 42.486404
v -145.875610 11.505312 43.021118
v -145.340897 12.040028 42.486404
v 0.000000 12.040028 42.486404
v 0.000000 11.505312 43.021118
v -145.875610 11.505312 -32.474918
v -145.340897 12.040028 -31.940205
v 145.875610 11.505312 43.021118
v 145.340897 12.040028 42.486404
v 145.340897 12.040028 -31.940205
v 145.875610 11.505312 -32.474918
v -145.340897 12.040028 -38.709759
v -145.875610 12.040028 -38.175045
v -145.875610 0.534715 -38.175045
v -145.340897 0.000000 -38.709759
v 145.875610 12.040028 -38.175045
v 145.340897 12.040028 -38.709759
v 145.875610 0.534715 -38.175045
v 145.340897 0.000000 -38.709759
v -145.875610 0.534715 -31.940205
v -145.340897 0.000000 -31.940205
v 145.340897 0.000000 -31.940205
v 145.875610 0.534715 -31.940205
v 145.875610 0.534715 43.021118
v 145.340897 0.000000 42.486404
v -145.340897 123.897812 42.486404
v -145.875610 124.432526 43.021118
v 0.000000 124.432526 43.021118
v 0.000000 123.897812 42.486404
v -145.875610 128.710785 43.021118
v -145.340897 129.245499 42.486404
v 0.000000 129.245499 42.486404
v 0.000000 128.710785 43.021118
v -145.875610 128.710785 -31.940205
v -145.340897 129.245499 -31.940205
v 145.875610 128.710785 43.021118
v 145.340897 129.245499 42.486404
v 145.875610 128.710785 -31.940205
v 145.340897 129.245499 -31.940205
v -145.340897 129.245499 -38.709759
v -145.875610 128.710785 -38.175045
v -145.875610 123.897812 -38.175045
v -145.340897 123.897812 -38.709759
v 145.875610 128.710785 -38.175045
v 145.340897 129.245499 -38.709759
v 145.340897 123.897812 -38.709759
v 145.875610 123.897812 -38.175045
v 145.875610 124.432526 43.021118
v 145.340897 123.897812 42.486404
v -145.340897 123.897812 -31.940205
v -145.875610 124.432526 -32.474918
v 145.875610 124.432526 -32.474918
v 145.340897 123.897812 -31.940205
v -106.464149 123.897804 -31.940205
v -101.672401 123.897804 -31.940205
v -106.464149 12.040024 -31.940205
v -101.672401 12.040024 -31.940205
v -105.745461 12.040024 41.698353
v -106.464149 12.040024 40.979664
v -106.464149 123.897804 40.979664
v -105.745461 123.897804 41.698353
v -101.672401 12.040024 40.979664
v -102.391090 12.040024 41.698353
v -102.391090 123.897804 41.698353
v -101.672401 123.897804 40.979664
v 106.464149 123.897804 -31.940205
v 101.672401 123.897804 -31.940205
v 106.464149 12.040024 -31.940205
v 101.672401 12.040024 -31.940205
v 105.745461 12.040024 41.698353
v 106.464149 12.040024 40.979664
v 106.464149 123.897804 40.979664
v 105.745461 123.897804 41.698353
v 101.672401 12.040024 40.979664
v 102.391090 12.040024 41.698353
v 102.391090 123.897804 41.698353
v 101.672401 123.897804 40.979664
vt 0.884895 0.633737
vt 0.884311 0.633153
vt 0.884311 0.734988
vt 0.884311 0.640198
vt 0.884895 0.633153
vt 0.993541 0.633153
vt 0.993541 0.633153
vt 0.884895 0.633737
vt 0.884311 0.633153
vt 0.884895 0.640547
vt 0.884311 0.640547
vt 0.884311 0.742382
vt 0.884895 0.633153
vt 0.884311 0.633153
vt 0.884895 0.742382
vt 0.986731 0.735337
vt 0.986147 0.742382
vt 0.884311 0.742382
vt 0.993541 0.733317
vt 0.993541 0.742382
vt 0.884311 0.633153
vt 0.884311 0.735337
vt 0.884311 0.633153
vt 0.891706 0.633153
vt 0.884311 0.641780
vt 0.884311 0.633153
vt 0.993541 0.633153
vt 0.884311 0.633153
vt 0.884311 0.735337
vt 0.884311 0.741798
vt 0.884311 0.734988
vt 0.986147 0.633153
vt 0.884895 0.633153
vt 0.884895 0.633737
vt 0.884311 0.633153
vt 0.884311 0.734988
vt 0.884311 0.644075
vt 0.884895 0.633153
vt 0.993541 0.633153
vt 0.993541 0.633153
vt 0.884895 0.633737
vt 0.884311 0.633153
vt 0.884311 0.640547
vt 0.891706 0.742382
vt 0.884311 0.742382
vt 0.884895 0.742382
vt 0.986147 0.742382
vt 0.992957 0.731461
vt 0.993541 0.742382
vt 0.884311 0.644075
vt 0.884311 0.742382
vt 0.884311 0.644075
vt 0.884311 0.742382
vt 0.884895 0.633153
vt 0.986147 0.633153
vt 0.993541 0.640199
vt 0.884311 0.735337
vt 0.884895 0.741798
vt 0.993541 0.741798
vt 0.993541 0.640547
vt 0.884895 0.633153
vt 0.884895 0.734988
vt 0.986147 0.640198
vt 0.884311 0.735337
vt 0.993541 0.640198
vt 0.993541 0.735337
vt 0.884895 0.741798
vt 0.884895 0.640547
vt 0.993541 0.633153
vt 0.884895 0.742382
vt 0.993541 0.633737
vt 0.993541 0.734988
vt 0.993541 0.735337
vt 0.884311 0.640198
vt 0.884895 0.640198
vt 0.891706 0.640198
vt 0.891122 0.735337
vt 0.884895 0.742382
vt 0.884895 0.742382
vt 0.884895 0.734988
vt 0.993541 0.742382
vt 0.992957 0.640198
vt 0.992957 0.742382
vt 0.993541 0.644074
vt 0.884311 0.731461
vt 0.884895 0.741798
vt 0.993541 0.741798
vt 0.884895 0.633153
vt 0.884895 0.734988
vt 0.884311 0.731461
vt 0.891122 0.644075
vt 0.993541 0.644075
vt 0.993541 0.731461
vt 0.891706 0.731461
vt 0.884895 0.741798
vt 0.884895 0.640547
vt 0.993541 0.633153
vt 0.884895 0.742382
vt 0.993541 0.633737
vt 0.993541 0.734988
vt 0.884895 0.734988
vt 0.993541 0.731461
vt 0.884311 0.644075
vt 0.884895 0.633153
vt 0.884895 0.731461
vt 0.986147 0.731461
vt 0.986731 0.644075
vt 0.992957 0.633153
vt 0.993541 0.640547
vt 0.884895 0.633153
vt 0.884895 0.640547
vt 0.884895 0.742382
vt 0.993541 0.633153
vt 0.884895 0.742382
vt 0.884311 0.733793
vt 0.993541 0.641781
vt 0.993541 0.641783
vt 0.993541 0.733315
vt 0.884311 0.733792
vt 0.884311 0.641781
vt 0.993541 0.742382
vt 0.884895 0.742382
vt 0.884895 0.633153
vt 0.884895 0.633153
vt 0.993541 0.742382
vt 0.900694 0.742382
vt 0.900692 0.633153
vt 0.977161 0.633153
vt 0.977158 0.742382
vt 0.992475 0.742382
vt 0.992475 0.633153
vt 0.884311 0.633153
vt 0.884311 0.742382
vt 0.993541 0.633153
vt 0.885377 0.633153
vt 0.885377 0.742382
vt 0.993541 0.742382
vt 0.900694 0.742382
vt 0.977158 0.742382
vt 0.977161 0.633153
vt 0.900692 0.633153
vt 0.992475 0.742382
vt 0.884311 0.742382
vt 0.884311 0.633153
vt 0.992475 0.633153
vt 0.993541 0.633153
vt 0.993541 0.742382
vt 0.885377 0.742382
vt 0.885377 0.633153
vn -0.707103 -0.707111 0.000000
vn -0.707103 -0.707111 0.000000
vn -0.707103 -0.707111 0.000000
vn -0.707103 -0.707111 0.000000
vn 0.000000 -0.707106 0.707108
vn 0.000000 -0.707106 0.707108
vn 0.000000 -0.707106 0.707108
vn 0.000000 -0.707106 0.707108
vn 0.000000 -0.707106 0.707108
vn 0.000000 -0.707106 0.707108
vn -0.707098 0.707116 0.000000
vn -0.707098 0.707116 0.000000
vn -0.707098 0.707116 0.000000
vn -0.707098 0.707116 0.000000
vn 0.000000 0.707105 0.707109
vn 0.000000 0.707105 0.707109
vn 0.000000 0.707105 0.707109
vn 0.000000 0.707105 0.707109
vn 0.000000 0.707105 0.707109
vn 0.000000 0.707105 0.707109
vn -0.707104 0.000000 0.707109
vn -0.707104 0.000000 0.707109
vn -0.707104 0.000000 0.707109
vn -0.707104 0.000000 0.707109
vn 0.707098 0.707116 0.000000
vn 0.707098 0.707116 0.000000
vn 0.707098 0.707116 0.000000
vn 0.707098 0.707116 0.000000
vn 0.707104 0.000000 0.707109
vn 0.707104 0.000000 0.707109
vn 0.707104 0.000000 0.707109
vn 0.707104 0.000000 0.707109
vn -0.707105 0.000000 -0.707109
vn -0.707105 0.000000 -0.707109
vn -0.707105 0.000000 -0.707109
vn -0.707105 0.000000 -0.707109
vn -0.707109 0.000000 -0.707105
vn -0.707109 0.000000 -0.707105
vn -0.707102 -0.707111 0.000000
vn -0.707102 -0.707111 0.000000
vn 0.707105 0.000000 -0.707109
vn 0.707105 0.000000 -0.707109
vn 0.707105 0.000000 -0.707109
vn 0.707105 0.000000 -0.707109
vn 0.707109 0.000000 -0.707105
vn 0.707109 0.000000 -0.707105
vn 0.707109 -0.707105 0.000000
vn 0.707109 -0.707105 0.000000
vn 0.707103 -0.707110 0.000000
vn 0.707103 -0.707110 0.000000
vn 0.707103 -0.707111 0.000000
vn 0.707103 -0.707111 0.000000
vn -0.707097 -0.707117 0.000000
vn -0.707097 -0.707117 0.000000
vn -0.707097 -0.707117 0.000000
vn -0.707097 -0.707117 0.000000
vn 0.000000 -0.707113 0.707101
vn 0.000000 -0.707113 0.707101
vn 0.000000 -0.707113 0.707101
vn 0.000000 -0.707113 0.707101
vn 0.000000 -0.707113 0.707101
vn 0.000000 -0.707113 0.707101
vn -0.707102 0.707112 0.000000
vn -0.707102 0.707112 0.000000
vn -0.707102 0.707112 0.000000
vn -0.707102 0.707112 0.000000
vn 0.000000 0.707104 0.707110
vn 0.000000 0.707104 0.707110
vn 0.000000 0.707104 0.707110
vn 0.000000 0.707104 0.707110
vn 0.000000 0.707104 0.707110
vn 0.000000 0.707104 0.707110
vn -0.707101 0.707112 0.000000
vn -0.707101 0.707112 0.000000
vn 0.707102 0.707112 0.000000
vn 0.707102 0.707112 0.000000
vn 0.707102 0.707111 0.000000
vn 0.707102 0.707111 0.000000
vn 0.707108 0.707106 0.000000
vn 0.707108 0.707106 0.000000
vn -0.707106 0.000000 -0.707108
vn -0.707106 0.000000 -0.707108
vn 0.707106 0.000000 -0.707108
vn 0.707106 0.000000 -0.707108
vn 0.707097 -0.707117 0.000000
vn 0.707097 -0.707117 0.000000
vn 0.707097 -0.707117 0.000000
vn 0.707097 -0.707117 0.000000
vn 0.000000 0.000000 1.000000
vn 0.000000 0.000000 1.000000
vn 0.000000 0.000000 1.000000
vn 0.000000 0.000000 1.000000
vn 0.000000 1.000000 0.000000
vn 0.000000 1.000000 0.000000
vn 0.000000 1.000000 0.000000
vn 0.000000 1.000000 0.000000
vn 0.000000 0.000000 -1.000000
vn 0.000000 0.000000 -1.000000
vn 0.000000 0.000000 -1.000000
vn 0.000000 0.000000 -1.000000
vn 0.000000 -1.000000 0.000000
vn 0.000000 -1.000000 0.000000
vn 0.000000 -1.000000 0.000000
vn 0.000000 -1.000000 0.000000
vn 1.000000 0.000000 0.000000
vn 1.000000 0.000000 0.000000
vn 1.000000 0.000000 0.000000
vn 1.000000 0.000000 0.000000
vn -1.000000 -0.000000 0.000000
vn -1.000000 -0.000000 0.000000
vn -1.000000 -0.000000 0.000000
vn -1.000000 -0.000000 0.000000
vn 0.000000 1.000000 0.000000
vn 0.000000 1.000000 0.000000
vn 0.000000 0.000000 -1.000000
vn 0.000000 0.000000 -1.000000
vn 0.000000 -1.000000 0.000000
vn 0.000000 -1.000000 0.000000
vn 0.000000 0.000000 1.000000
vn 0.000000 0.000000 1.000000
vn -1.000000 0.000000 0.000000
vn -1.000000 0.000000 0.000000
vn 0.000000 -1.000000 0.000000
vn 0.000000 -1.000000 0.000000
vn 0.000000 -1.000000 0.000000
vn 1.000000 0.000000 0.000000
vn 1.000000 0.000000 0.000000
vn 0.000000 0.000000 1.000000
vn 0.000000 0.000000 1.000000
vn 0.000000 0.000000 1.000000
vn 0.000000 0.000000 1.000000
vn 0.000000 1.000000 0.000000
vn 0.000000 1.000000 0.000000
vn 0.000000 1.000000 0.000000
vn 0.000000 1.000000 0.000000
vn 0.000000 0.000000 -1.000000
vn 0.000000 0.000000 -1.000000
vn 0.000000 0.000000 -1.000000
vn 0.000000 0.000000 -1.000000
vn 0.000000 -1.000000 0.000000
vn 0.000000 -1.000000 0.000000
vn 0.000000 -1.000000 0.000000
vn 0.000000 -1.000000 0.000000
vn 1.000000 0.000000 0.000000
vn 1.000000 0.000000 0.000000
vn 1.000000 0.000000 0.000000
vn 1.000000 0.000000 0.000000
vn -1.000000 0.000000 0.000000
vn -1.000000 0.000001 0.000000
vn -1.000000 0.000001 0.000000
vn -1.000000 0.000001 0.000000
vn 0.000000 1.000000 0.000000
vn 0.000000 1.000000 0.000000
vn 0.000000 0.000000 -1.000000
vn 0.000000 0.000000 -1.000000
vn 0.000000 -1.000000 0.000000
vn 0.000000 -1.000000 0.000000
vn 0.000000 0.000000 1.000000
vn 0.000000 0.000000 1.000000
vn -1.000000 0.000000 0.000000
vn -1.000000 0.000000 0.000000
vn 1.000000 0.000000 0.000000
vn 1.000000 0.000000 0.000000
vn 0.000000 1.000000 0.000000
vn 0.000000 1.000000 0.000000
vn 0.000000 1.000000 0.000000
vn 0.000000 0.000000 1.000000
vn 0.000000 0.000000 1.000000
vn 0.000000 0.000000 1.000000
vn 0.000000 0.000000 1.000000
vn 0.000000 0.000000 1.000000
vn 0.000000 0.000000 1.000000
vn 0.000000 0.000000 1.000000
vn 0.000000 0.000000 1.000000
vn 0.000000 0.000000 1.000000
vn 0.000000 0.000000 1.000000
vn 1.000000 0.000000 0.000000
vn 1.000000 0.000000 0.000000
vn 1.000000 0.000000 0.000000
vn 1.000000 0.000000 0.000000
vn -1.000000 0.000000 0.000000
vn -1.000000 0.000000 0.000000
vn -1.000000 0.000000 0.000000
vn -1.000000 0.000000 0.000000
vn -0.707107 0.000000 0.707106
vn -0.707107 0.000000 0.707106
vn -0.707107 0.000000 0.707106
vn -0.707107 0.000000 0.707106
vn 0.707107 0.000000 0.707106
vn 0.707107 0.000000 0.707106
vn 0.707107 0.000000 0.707106
vn 0.707107 0.000000 0.707106
vn 0.000000 0.000000 1.000000
vn 0.000000 0.000000 1.000000
vn 0.000000 0.000000 1.000000
vn 0.000000 0.000000 1.000000
vn -1.000000 0.000000 0.000000
vn -1.000000 0.000000 0.000000
vn -1.000000 0.000000 0.000000
vn -1.000000 0.000000 0.000000
vn 1.000000 0.000000 0.000000
vn 1.000000 0.000000 0.000000
vn 1.000000 0.000000 0.000000
vn 1.000000 0.000000 0.000000
vn 0.707107 0.000000 0.707106
vn 0.707107 0.000000 0.707106
vn 0.707107 0.000000 0.707106
vn 0.707107 0.000000 0.707106
vn -0.707107 0.000000 0.707106
vn -0.707107 0.000000 0.707106
vn -0.707107 0.000000 0.707106
vn -0.707107 0.000000 0.707106
f 9/1/1 10/2/2 31/3/3 32/62/4
f 10/4/5 9/5/6 12/6/7 11/56/8
f 11/7/8 12/71/7 36/8/9 35/9/10
f 13/57/11 14/58/12 18/10/13 17/11/14
f 14/58/15 13/57/16 16/73/17 15/59/18
f 15/59/18 16/73/17 19/64/19 20/67/20
f 17/12/21 18/112/22 61/13/23 62/14/24
f 20/15/25 19/64/26 22/16/27 21/17/28
f 21/18/29 22/115/30 63/19/31 64/20/32
f 23/61/33 24/21/34 53/51/35 54/114/36
f 24/21/34 23/61/33 26/79/37 25/22/38
f 25/75/39 26/23/40 32/24/4 31/76/3
f 27/25/41 28/26/42 57/27/43 58/116/44
f 28/124/42 27/28/41 29/29/45 30/70/46
f 30/70/47 29/30/48 34/31/49 33/80/50
f 33/32/50 34/63/49 35/74/51 36/33/52
f 37/34/53 38/35/54 62/36/55 61/89/56
f 38/37/57 37/38/58 40/39/59 39/84/60
f 39/40/60 40/99/59 60/41/61 59/42/62
f 41/85/63 42/86/64 46/111/65 45/43/66
f 42/86/67 41/85/68 44/102/69 43/87/70
f 43/87/70 44/102/69 47/90/71 48/95/72
f 45/94/66 46/44/65 51/45/73 52/105/74
f 48/46/75 47/90/76 49/106/77 50/47/78
f 50/47/78 49/106/77 55/48/79 56/49/80
f 52/50/81 51/88/82 54/114/36 53/51/35
f 56/110/83 55/52/84 58/53/44 57/98/43
f 59/103/85 60/54/86 64/55/87 63/107/88
f 10/4/89 11/56/90 16/73/91 13/57/92
f 14/58/93 15/59/94 4/60/95 18/10/96
f 23/61/97 1/69/98 2/81/99 26/79/100
f 32/62/101 3/72/102 12/71/103 9/1/104
f 35/74/105 34/63/106 22/16/107 19/64/108
f 31/76/109 10/65/110 13/66/111 17/77/112
f 15/59/94 20/67/113 21/68/114 4/60/95
f 2/81/99 1/69/98 28/124/115 30/70/116
f 12/71/103 3/72/102 33/80/117 36/8/118
f 16/73/91 11/56/90 35/74/119 19/64/120
f 25/75/121 31/76/109 17/77/112 24/78/122
f 26/79/123 2/81/124 3/72/102 32/62/101
f 33/80/117 3/72/102 2/81/124 30/70/125
f 22/16/107 34/63/106 29/82/126 27/83/127
f 38/37/128 39/84/129 44/102/130 41/85/131
f 42/86/132 43/87/133 8/109/134 46/111/135
f 51/88/136 5/97/137 6/125/138 54/114/139
f 61/89/140 7/100/141 40/99/142 37/34/143
f 59/103/144 63/107/145 49/106/146 47/90/147
f 62/91/148 38/92/149 41/93/150 45/94/151
f 43/87/133 48/95/152 50/96/153 8/109/134
f 6/125/138 5/97/137 56/110/154 57/98/155
f 40/99/142 7/100/141 64/101/156 60/41/157
f 44/102/130 39/84/129 59/103/158 47/90/159
f 53/104/160 62/91/148 45/94/151 52/105/161
f 49/106/146 63/107/145 58/108/162 55/48/163
f 8/109/134 50/96/153 56/110/164 5/97/165
f 46/111/135 8/109/134 5/97/165 51/88/166
f 61/13/167 18/112/168 4/121/169 7/113/170
f 1/69/98 23/61/97 54/114/139 6/125/138
f 22/115/107 27/25/127 58/116/162 63/19/145
f 24/117/122 17/118/112 62/119/148 53/120/160
f 4/121/169 21/122/171 64/123/172 7/113/170
f 28/124/115 1/69/98 6/125/138 57/98/155
f 72/126/173 69/127/174 74/128/175 75/129/176
f 76/130/177 73/131/178 68/132/179 66/133/180
f 67/134/181 70/135/182 71/136/183 65/137/184
f 70/135/185 69/127/186 72/126/187 71/136/188
f 74/128/189 73/131/190 76/130/191 75/129/192
f 84/138/193 87/139/194 86/140/195 81/141/196
f 88/142/197 78/143/198 80/144/199 85/145/200
f 79/146/201 77/147/202 83/148/203 82/149/204
f 82/149/205 83/148/206 84/138/207 81/141/208
f 86/140/209 87/139/210 88/142/211 85/145/212
