# This file uses meters as units for non-parametric coordinates.

v -54.186893 13.913670 29.148264
v -54.657497 13.443073 28.677666
v -29.815138 13.913670 29.148264
v -29.344547 13.443073 28.677666
v -54.186901 112.982300 29.148272
v -54.657497 113.452896 28.677671
v -29.815145 112.982300 29.148272
v -29.344547 113.452896 28.677671
vt 0.447573 0.976649
vt 0.444991 0.976734
vt 0.444885 0.991884
vt 0.444991 0.994488
vt 0.460120 0.994572
vt 0.462703 0.976734
vt 0.462703 0.994488
vt 0.460120 0.976649
vt 0.445593 0.976959
vt 0.462111 0.976959
vt 0.462111 0.993477
vt 0.445593 0.993477
vt 0.445593 0.976959
vt 0.462111 0.976959
vt 0.462111 0.993477
vt 0.445593 0.993477
vn -0.707106 -0.000000 0.707107
vn -0.707106 -0.000000 0.707107
vn -0.707106 -0.000000 0.707107
vn -0.707106 -0.000000 0.707107
vn 0.707110 -0.000000 0.707103
vn 0.707110 -0.000000 0.707103
vn 0.707110 -0.000000 0.707103
vn 0.707110 -0.000000 0.707103
vn 0.000000 -0.000000 1.000000
vn 0.000000 -0.000000 1.000000
vn 0.000000 -0.000000 1.000000
vn 0.000000 -0.000000 1.000000
vn 0.000000 -0.707108 0.707105
vn 0.000000 -0.707109 0.707105
vn 0.000000 -0.707108 0.707105
vn 0.000000 -0.707108 0.707105
vn 0.000000 0.707108 0.707106
vn 0.000000 0.707108 0.707106
vn 0.000000 0.707108 0.707106
vn 0.000000 0.707108 0.707106
f 2/1/1 1/2/2 5/4/3 6/3/4
f 3/6/5 4/8/6 8/5/7 7/7/8
f 1/2/9 3/6/10 7/7/11 5/4/12
f 3/9/13 1/10/14 2/11/15 4/12/16
f 5/13/17 7/14/18 8/15/19 6/16/20
