# This file uses meters as units for non-parametric coordinates.

v 85.148239 252.643784 -23.977905
v 84.155670 252.162750 -23.341713
v 84.155670 127.020004 -23.341713
v 85.148232 126.538956 -23.977905
v 72.097321 256.862946 -23.341715
v 71.104790 257.984955 -23.977905
v 72.097321 127.020004 -23.341715
v 71.104790 126.538956 -23.977905
v 84.671066 252.283051 -30.843140
v 85.148239 252.643753 -30.365982
v 84.671066 126.899765 -30.843140
v 85.148232 126.538956 -30.365982
v 71.581947 256.983276 -30.843140
v 71.104790 257.984924 -30.365980
v 71.581947 126.899765 -30.843140
v 71.104790 126.538956 -30.365980
v -72.693016 246.652771 -29.696554
v 72.693016 246.652771 -29.696554
v -72.693016 134.992538 -29.696554
v 72.693016 134.992538 -29.696554
v 48.462002 256.952332 -29.696554
v 48.462002 134.992538 -29.696554
v 24.231001 263.312103 -29.696554
v 24.231001 134.992538 -29.696554
v -0.000003 266.596222 -29.696554
v -0.000003 134.992538 -29.696554
v -24.231009 263.312103 -29.696554
v -24.231009 134.992538 -29.696554
v -48.462013 256.952332 -29.696554
v -48.462013 134.992538 -29.696554
v -71.339622 126.328651 -24.038202
v -70.703423 126.964828 -23.402010
v 70.703423 126.964828 -23.402010
v 71.339622 126.328651 -24.038202
v -70.703423 138.918732 -23.402010
v -71.339622 139.554916 -24.038202
v 70.703423 138.918732 -23.402010
v 71.339622 139.554916 -24.038202
v -71.020744 126.647530 -30.416410
v -71.339622 126.328651 -30.097532
v 71.020744 126.647530 -30.416410
v 71.339622 126.328651 -30.097532
v -71.020744 139.236038 -30.416410
v -71.339622 139.554916 -30.097532
v 71.020744 139.236038 -30.416410
v 71.339622 139.554916 -30.097532
v -71.339622 244.971283 -24.038200
v -70.703423 245.607468 -23.402008
v 70.703423 245.607468 -23.402008
v 71.339622 244.971283 -24.038200
v -70.703423 257.561340 -23.402008
v -71.339622 258.197540 -24.038200
v 70.703423 257.561340 -23.402008
v 71.339622 258.197540 -24.038200
v -70.862480 245.448441 -30.843138
v -71.339622 244.971283 -30.365978
v 70.862480 245.448441 -30.843138
v 71.339622 244.971283 -30.365978
v -70.862480 257.720398 -30.843138
v -71.339622 258.197540 -30.365978
v 70.862480 257.720398 -30.843138
v 71.339622 258.197540 -30.365978
v 47.135612 267.216003 -23.402008
v 47.559746 267.852203 -24.038200
v 47.559746 267.852203 -30.365978
v 47.241650 267.375061 -30.843138
v 47.241650 255.103119 -30.843138
v 47.559746 254.625946 -30.365978
v 47.559746 254.625946 -24.038200
v 47.135612 255.262146 -23.402008
v 23.567804 272.905853 -23.402008
v 23.779875 273.542053 -24.038200
v 23.779875 273.542053 -30.365978
v 23.620825 273.064911 -30.843138
v 23.620825 260.792938 -30.843138
v 23.779875 260.315796 -30.365978
v 23.779875 260.315796 -24.038200
v 23.567804 260.951996 -23.402008
v -0.000003 274.094330 -23.402008
v 0.000000 274.730530 -24.038200
v 0.000000 274.730530 -30.365978
v 0.000000 274.253387 -30.843138
v 0.000000 261.981415 -30.843138
v 0.000000 261.504272 -30.365978
v 0.000000 261.504272 -24.038200
v -0.000003 262.140442 -23.402008
v -23.567814 272.905853 -23.402008
v -23.779877 273.542053 -24.038200
v -23.779877 273.542053 -30.365978
v -23.620829 273.064911 -30.843138
v -23.620829 260.792938 -30.843138
v -23.779877 260.315796 -30.365978
v -23.779877 260.315796 -24.038200
v -23.567814 260.951996 -23.402008
v -47.135620 267.216003 -23.402008
v -47.559750 267.852203 -24.038200
v -47.559750 267.852203 -30.365978
v -47.241650 267.375061 -30.843138
v -47.241650 255.103119 -30.843138
v -47.559750 254.625946 -30.365978
v -47.559750 254.625946 -24.038200
v -47.135620 255.262146 -23.402008
v -85.148239 252.643753 -23.977905
v -84.155678 252.162750 -23.341713
v -84.155678 127.020004 -23.341713
v -85.148239 126.538956 -23.977905
v -72.097321 256.862946 -23.341713
v -71.104797 257.984955 -23.977905
v -72.097321 127.020004 -23.341713
v -71.104797 126.538956 -23.977905
v -84.671066 252.283005 -30.843138
v -85.148239 252.643753 -30.365980
v -84.671066 126.899757 -30.843138
v -85.148239 126.538956 -30.365980
v -71.581955 256.983215 -30.843138
v -71.104797 257.984955 -30.365980
v -71.581955 126.899757 -30.843138
v -71.104797 126.538956 -30.365980
v -86.920807 123.811813 -19.016956
v 86.920807 123.811813 -19.016956
v -86.920807 123.811813 -31.517309
v 86.920807 123.811813 -31.517309
v -86.920807 125.720634 -19.016956
v -86.284607 126.356827 -19.653149
v 86.284607 126.356827 -19.653149
v 86.920807 125.720634 -19.016956
v -86.284607 126.356827 -30.881121
v -86.920807 125.720634 -31.517309
v 86.284607 126.356827 -30.881121
v 86.920807 125.720634 -31.517309
vt 0.634311 0.660458
vt 0.634711 0.640873
vt 0.634711 0.734662
vt 0.743141 0.734662
vt 0.743141 0.640873
vt 0.634611 0.636864
vt 0.743241 0.636864
vt 0.743541 0.721903
vt 0.743241 0.738671
vt 0.634611 0.738671
vt 0.743541 0.653632
vt 0.634311 0.715078
vt 0.743541 0.660458
vt 0.634311 0.721903
vt 0.634311 0.653632
vt 0.634311 0.715078
vt 0.743541 0.715078
vt 0.743541 0.653632
vt 0.634311 0.653632
vt 0.743541 0.715078
vt 0.634311 0.633153
vt 0.652516 0.633153
vt 0.652516 0.742382
vt 0.634311 0.742382
vt 0.725336 0.742382
vt 0.725336 0.633153
vt 0.743541 0.633153
vt 0.743541 0.742382
vt 0.707131 0.742382
vt 0.707131 0.633153
vt 0.688926 0.742382
vt 0.688926 0.633153
vt 0.670721 0.742382
vt 0.670721 0.633153
vt 0.634311 0.715078
vt 0.634711 0.734662
vt 0.634711 0.640873
vt 0.634311 0.660458
vt 0.743541 0.715078
vt 0.743141 0.734662
vt 0.743541 0.660458
vt 0.743141 0.640873
vt 0.634555 0.635786
vt 0.634311 0.637249
vt 0.634311 0.738287
vt 0.634555 0.739749
vt 0.743297 0.635786
vt 0.743541 0.637249
vt 0.743297 0.739749
vt 0.743541 0.738287
vt 0.634311 0.637249
vt 0.634311 0.715078
vt 0.743541 0.637249
vt 0.743541 0.715078
vt 0.634311 0.715078
vt 0.634711 0.734662
vt 0.634711 0.640873
vt 0.634311 0.660458
vt 0.652516 0.715078
vt 0.652783 0.734662
vt 0.743141 0.734662
vt 0.743541 0.715078
vt 0.743541 0.660458
vt 0.743141 0.640873
vt 0.652783 0.640873
vt 0.652516 0.660458
vt 0.634677 0.637094
vt 0.634311 0.653632
vt 0.634311 0.721903
vt 0.634677 0.738442
vt 0.652760 0.637094
vt 0.652516 0.653632
vt 0.743541 0.653632
vt 0.743176 0.637094
vt 0.743176 0.738442
vt 0.743541 0.721903
vt 0.652516 0.721903
vt 0.652760 0.738442
vt 0.634311 0.653632
vt 0.634311 0.715078
vt 0.743541 0.653632
vt 0.743541 0.715078
vt 0.725336 0.660458
vt 0.725070 0.640873
vt 0.725336 0.721903
vt 0.725092 0.738442
vt 0.725092 0.637094
vt 0.725336 0.653632
vt 0.725336 0.715078
vt 0.725069 0.734662
vt 0.707131 0.660458
vt 0.706998 0.640873
vt 0.707131 0.721903
vt 0.707009 0.738442
vt 0.707009 0.637094
vt 0.707131 0.653632
vt 0.707131 0.715078
vt 0.706998 0.734662
vt 0.688926 0.660458
vt 0.688926 0.640873
vt 0.688926 0.721903
vt 0.688926 0.738442
vt 0.688926 0.637094
vt 0.688926 0.653632
vt 0.688926 0.715078
vt 0.688926 0.734662
vt 0.670721 0.660458
vt 0.670854 0.640873
vt 0.670721 0.721903
vt 0.670843 0.738442
vt 0.670843 0.637094
vt 0.670721 0.653632
vt 0.670721 0.715078
vt 0.670854 0.734662
vt 0.634311 0.715078
vt 0.634711 0.734662
vt 0.634711 0.640873
vt 0.634311 0.660458
vt 0.743541 0.715078
vt 0.743141 0.734662
vt 0.743541 0.660458
vt 0.743141 0.640873
vt 0.634611 0.636864
vt 0.634311 0.653632
vt 0.634311 0.721903
vt 0.634611 0.738671
vt 0.743241 0.636864
vt 0.743541 0.653632
vt 0.743241 0.738671
vt 0.743541 0.721903
vt 0.634311 0.653632
vt 0.634311 0.715078
vt 0.743541 0.653632
vt 0.743541 0.715078
vt 0.634311 0.742382
vt 0.743541 0.742382
vt 0.743541 0.633153
vt 0.634311 0.633153
vt 0.634311 0.715078
vt 0.634711 0.734662
vt 0.634711 0.640873
vt 0.634311 0.660458
vt 0.743541 0.715078
vt 0.743141 0.734662
vt 0.743541 0.660458
vt 0.743141 0.640873
vt 0.634311 0.633153
vt 0.634311 0.715078
vt 0.743541 0.633153
vt 0.743541 0.715078
vn 0.232606 0.604641 0.761776
vn 0.232606 0.604641 0.761777
vn 0.232606 0.604641 0.761776
vn 0.232606 0.604641 0.761776
vn 0.539625 -0.000000 0.841905
vn 0.539625 -0.000000 0.841905
vn 0.539625 -0.000000 0.841905
vn 0.539625 -0.000000 0.841905
vn 0.000000 -0.797646 0.603126
vn 0.000000 -0.797646 0.603126
vn 0.000000 -0.797646 0.603126
vn 0.000000 -0.797646 0.603126
vn -0.539638 0.000000 0.841897
vn -0.539638 0.000000 0.841897
vn -0.539638 0.000000 0.841897
vn -0.539638 0.000000 0.841897
vn 0.000000 0.000000 1.000000
vn 0.000000 0.000000 1.000000
vn 0.000000 0.000000 1.000000
vn 0.000000 0.000000 1.000000
vn 0.207704 0.561230 -0.801174
vn 0.207704 0.561230 -0.801174
vn 0.207704 0.561230 -0.801174
vn 0.207704 0.561230 -0.801174
vn 0.707099 0.000000 -0.707115
vn 0.707099 0.000000 -0.707115
vn 0.707099 0.000000 -0.707115
vn 0.707099 0.000000 -0.707115
vn 0.000000 -0.797638 -0.603137
vn 0.000000 -0.797638 -0.603137
vn 0.000000 -0.797638 -0.603137
vn 0.000000 -0.797638 -0.603137
vn -0.707109 0.000000 -0.707105
vn -0.707109 0.000000 -0.707105
vn -0.707109 0.000000 -0.707105
vn -0.707109 0.000000 -0.707105
vn 0.000000 0.000000 -1.000000
vn 0.000000 0.000000 -1.000000
vn 0.000000 0.000000 -1.000000
vn 0.000000 0.000000 -1.000000
vn 1.000000 -0.000000 0.000000
vn 1.000000 -0.000000 0.000000
vn 1.000000 -0.000000 0.000000
vn 1.000000 -0.000000 0.000000
vn -1.000000 0.000000 0.000000
vn -1.000000 0.000000 0.000000
vn -1.000000 0.000000 0.000000
vn -1.000000 0.000000 0.000000
vn 0.000000 -1.000000 0.000000
vn 0.000000 -1.000000 0.000000
vn 0.000000 -1.000000 0.000000
vn 0.000000 -1.000000 0.000000
vn 0.355489 0.934681 -0.000005
vn 0.355489 0.934681 -0.000005
vn 0.355489 0.934681 -0.000005
vn 0.355489 0.934681 -0.000005
vn -0.000000 0.000000 -1.000000
vn -0.000000 0.000000 -1.000000
vn -0.000000 0.000000 -1.000000
vn -0.000000 0.000000 -1.000000
vn 0.000000 0.000000 -1.000000
vn 0.000000 0.000000 -1.000000
vn 0.000000 0.000000 -1.000000
vn 0.000000 0.000000 -1.000000
vn 0.000000 0.000000 -1.000000
vn 0.000000 0.000000 -1.000000
vn 0.000000 0.000000 -1.000000
vn 0.000000 0.000000 -1.000000
vn 0.000000 0.000000 -1.000000
vn 0.000000 0.000000 -1.000000
vn -0.707104 0.000000 0.707110
vn -0.707104 0.000000 0.707110
vn -0.707104 0.000000 0.707110
vn -0.707104 0.000000 0.707110
vn 0.000000 -0.707120 0.707093
vn 0.000000 -0.707120 0.707093
vn 0.000000 -0.707120 0.707093
vn 0.000000 -0.707120 0.707093
vn 0.707104 0.000000 0.707110
vn 0.707104 0.000000 0.707110
vn 0.707104 0.000000 0.707110
vn 0.707104 0.000000 0.707110
vn 0.000000 0.707112 0.707101
vn 0.000000 0.707112 0.707101
vn 0.000000 0.707112 0.707101
vn 0.000000 0.707112 0.707101
vn 0.000000 0.000000 1.000000
vn 0.000000 0.000000 1.000000
vn 0.000000 0.000000 1.000000
vn 0.000000 0.000000 1.000000
vn -0.707106 0.000000 -0.707108
vn -0.707106 0.000000 -0.707108
vn -0.707106 0.000000 -0.707108
vn -0.707106 0.000000 -0.707108
vn 0.000000 -0.707115 -0.707098
vn 0.000000 -0.707115 -0.707098
vn 0.000000 -0.707115 -0.707098
vn 0.000000 -0.707115 -0.707098
vn 0.707106 0.000000 -0.707108
vn 0.707106 0.000000 -0.707108
vn 0.707106 0.000000 -0.707108
vn 0.707106 0.000000 -0.707108
vn 0.000000 0.707100 -0.707114
vn 0.000000 0.707100 -0.707114
vn 0.000000 0.707100 -0.707114
vn 0.000000 0.707100 -0.707114
vn 0.000000 0.000000 -1.000000
vn 0.000000 0.000000 -1.000000
vn 0.000000 0.000000 -1.000000
vn 0.000000 0.000000 -1.000000
vn 0.000000 -1.000000 0.000000
vn 0.000000 -1.000000 0.000000
vn 0.000000 -1.000000 0.000000
vn 0.000000 -1.000000 0.000000
vn 0.000000 1.000000 0.000000
vn 0.000000 1.000000 0.000000
vn 0.000000 1.000000 0.000000
vn 0.000000 1.000000 0.000000
vn 1.000000 0.000000 0.000000
vn 1.000000 0.000000 0.000000
vn 1.000000 0.000000 0.000000
vn 1.000000 0.000000 0.000000
vn -1.000000 0.000000 0.000000
vn -1.000000 0.000000 0.000000
vn -1.000000 0.000000 0.000000
vn -1.000000 0.000000 0.000000
vn -0.707102 0.000000 0.707112
vn -0.707102 0.000000 0.707112
vn -0.707102 0.000000 0.707112
vn -0.707102 0.000000 0.707112
vn 0.322195 -0.790041 0.521560
vn 0.322195 -0.790041 0.521560
vn 0.277834 -0.777281 0.564484
vn 0.218213 -0.755956 0.617182
vn 0.707102 0.000000 0.707112
vn 0.707102 0.000000 0.707112
vn 0.707102 0.000000 0.707112
vn 0.707102 0.000000 0.707112
vn -0.236976 0.581080 0.778581
vn -0.236976 0.581080 0.778581
vn -0.195169 0.622998 0.757485
vn -0.205750 0.612693 0.763069
vn -0.000000 0.000000 1.000000
vn -0.000000 0.000000 1.000000
vn -0.000000 0.000000 1.000000
vn -0.000000 0.000000 1.000000
vn -0.707120 0.000000 -0.707093
vn -0.707120 0.000000 -0.707094
vn -0.707120 0.000000 -0.707093
vn -0.707120 0.000000 -0.707094
vn 0.321815 -0.789990 -0.521873
vn 0.321815 -0.789990 -0.521873
vn 0.217976 -0.755918 -0.617312
vn 0.277504 -0.777227 -0.564721
vn 0.707120 0.000000 -0.707094
vn 0.707120 0.000000 -0.707093
vn 0.707120 0.000000 -0.707094
vn 0.707120 0.000000 -0.707093
vn -0.236769 0.581224 -0.778537
vn -0.236769 0.581224 -0.778536
vn -0.205559 0.612807 -0.763029
vn -0.194971 0.623114 -0.757440
vn 0.000000 0.000000 -1.000000
vn 0.000000 0.000000 -1.000000
vn 0.000000 0.000000 -1.000000
vn 0.000000 0.000000 -1.000000
vn 0.376179 -0.926547 0.000000
vn 0.307051 -0.951693 0.000000
vn 0.307051 -0.951693 0.000000
vn 0.376179 -0.926547 0.000000
vn -0.376179 0.926547 0.000000
vn -0.307051 0.951693 0.000000
vn -0.307051 0.951693 0.000000
vn -0.376179 0.926547 0.000000
vn 1.000000 0.000000 0.000000
vn 1.000000 0.000000 0.000000
vn 1.000000 0.000000 0.000000
vn 1.000000 0.000000 0.000000
vn -1.000000 0.000000 0.000000
vn -1.000000 0.000000 0.000000
vn -1.000000 0.000000 0.000000
vn -1.000000 0.000000 0.000000
vn 0.205749 0.612688 0.763073
vn 0.195167 0.622992 0.757490
vn 0.236976 0.581080 0.778581
vn 0.236976 0.581080 0.778581
vn 0.307051 0.951693 0.000000
vn 0.307051 0.951693 0.000000
vn 0.376179 0.926547 0.000000
vn 0.376179 0.926547 0.000000
vn 0.194971 0.623114 -0.757440
vn 0.205559 0.612807 -0.763029
vn 0.236769 0.581224 -0.778536
vn 0.236769 0.581224 -0.778537
vn 0.000000 0.000000 -1.000000
vn 0.000000 0.000000 -1.000000
vn 0.000000 0.000000 -1.000000
vn 0.000000 0.000000 -1.000000
vn -0.277505 -0.777231 -0.564715
vn -0.217979 -0.755929 -0.617298
vn -0.321815 -0.789990 -0.521873
vn -0.321815 -0.789990 -0.521873
vn -0.307051 -0.951693 0.000000
vn -0.307051 -0.951693 0.000000
vn -0.376179 -0.926547 0.000000
vn -0.376179 -0.926547 0.000000
vn -0.218213 -0.755956 0.617182
vn -0.277834 -0.777281 0.564484
vn -0.322195 -0.790041 0.521560
vn -0.322195 -0.790041 0.521560
vn 0.000000 0.000000 1.000000
vn 0.000000 0.000000 1.000000
vn 0.000000 0.000000 1.000000
vn 0.000000 0.000000 1.000000
vn 0.104257 0.679383 0.726340
vn 0.094150 0.683204 0.724133
vn 0.143136 0.989703 0.000000
vn 0.143136 0.989703 0.000000
vn 0.094041 0.683244 -0.724109
vn 0.104147 0.679426 -0.726315
vn 0.000000 0.000000 -1.000000
vn 0.000000 0.000000 -1.000000
vn -0.119765 -0.729000 -0.673954
vn -0.089826 -0.722779 -0.685216
vn -0.143136 -0.989703 0.000000
vn -0.143136 -0.989703 0.000000
vn -0.089916 -0.722790 0.685193
vn -0.119902 -0.729017 0.673912
vn -0.000000 0.000000 1.000000
vn -0.000000 0.000000 1.000000
vn 0.000000 0.704152 0.710049
vn 0.000000 0.704152 0.710049
vn 0.000000 1.000000 0.000000
vn 0.000000 1.000000 0.000000
vn -0.000000 0.704159 -0.710042
vn -0.000000 0.704159 -0.710042
vn 0.000000 0.000000 -1.000000
vn 0.000000 0.000000 -1.000000
vn 0.000000 -0.710075 -0.704126
vn 0.000000 -0.710075 -0.704126
vn 0.000000 -1.000000 0.000000
vn 0.000000 -1.000000 0.000000
vn 0.000000 -0.710072 0.704129
vn -0.000000 -0.710072 0.704129
vn 0.000000 0.000000 1.000000
vn 0.000000 0.000000 1.000000
vn -0.104257 0.679384 0.726339
vn -0.094151 0.683203 0.724133
vn -0.143136 0.989703 0.000000
vn -0.143136 0.989703 0.000000
vn -0.094041 0.683244 -0.724109
vn -0.104147 0.679426 -0.726315
vn 0.000000 0.000000 -1.000000
vn 0.000000 0.000000 -1.000000
vn 0.119764 -0.728997 -0.673958
vn 0.089825 -0.722783 -0.685213
vn 0.143136 -0.989703 0.000000
vn 0.143136 -0.989703 0.000000
vn 0.089916 -0.722790 0.685193
vn 0.119902 -0.729017 0.673912
vn 0.000000 0.000000 1.000000
vn 0.000000 0.000000 1.000000
vn -0.232606 0.604640 0.761778
vn -0.232606 0.604640 0.761778
vn -0.232606 0.604640 0.761778
vn -0.232606 0.604640 0.761778
vn -0.539627 0.000000 0.841904
vn -0.539627 0.000000 0.841904
vn -0.539627 0.000000 0.841904
vn -0.539627 0.000000 0.841904
vn 0.000000 -0.797646 0.603126
vn 0.000000 -0.797646 0.603126
vn 0.000000 -0.797646 0.603126
vn 0.000000 -0.797646 0.603126
vn 0.539642 0.000000 0.841895
vn 0.539642 0.000000 0.841895
vn 0.539642 0.000000 0.841895
vn 0.539642 0.000000 0.841895
vn -0.000000 0.000000 1.000000
vn -0.000000 0.000000 1.000000
vn -0.000000 0.000000 1.000000
vn -0.000000 0.000000 1.000000
vn -0.207687 0.561185 -0.801210
vn -0.207687 0.561185 -0.801210
vn -0.207687 0.561185 -0.801210
vn -0.207687 0.561185 -0.801210
vn -0.707097 0.000000 -0.707116
vn -0.707097 0.000000 -0.707116
vn -0.707097 0.000000 -0.707116
vn -0.707097 0.000000 -0.707116
vn 0.000000 -0.797645 -0.603127
vn 0.000000 -0.797645 -0.603127
vn 0.000000 -0.797645 -0.603127
vn 0.000000 -0.797645 -0.603127
vn 0.707108 0.000000 -0.707106
vn 0.707108 0.000000 -0.707106
vn 0.707108 0.000000 -0.707106
vn 0.707108 0.000000 -0.707106
vn 0.000000 0.000000 -1.000000
vn 0.000000 0.000000 -1.000000
vn 0.000000 0.000000 -1.000000
vn 0.000000 0.000000 -1.000000
vn -1.000000 0.000000 0.000000
vn -1.000000 0.000000 0.000000
vn -1.000000 0.000000 0.000000
vn -1.000000 0.000000 0.000000
vn 1.000000 0.000000 0.000000
vn 1.000000 0.000000 0.000000
vn 1.000000 0.000000 0.000000
vn 1.000000 0.000000 0.000000
vn 0.000000 -1.000000 0.000000
vn 0.000000 -1.000000 0.000000
vn 0.000000 -1.000000 0.000000
vn 0.000000 -1.000000 0.000000
vn -0.355491 0.934680 0.000000
vn -0.355491 0.934680 0.000000
vn -0.355491 0.934680 0.000000
vn -0.355491 0.934680 0.000000
vn 0.000000 -1.000000 0.000000
vn 0.000000 -1.000000 0.000000
vn 0.000000 -1.000000 0.000000
vn 0.000000 -1.000000 0.000000
vn -0.707103 0.707111 0.000000
vn -0.707103 0.707111 0.000000
vn -0.707103 0.707111 0.000000
vn -0.707103 0.707111 0.000000
vn 0.000000 0.707109 0.707105
vn 0.000000 0.707109 0.707105
vn 0.000000 0.707109 0.707105
vn 0.000000 0.707109 0.707105
vn 0.707100 0.707114 0.000000
vn 0.707100 0.707114 0.000000
vn 0.707100 0.707114 0.000000
vn 0.707100 0.707114 0.000000
vn 0.000000 0.707106 -0.707107
vn 0.000000 0.707106 -0.707107
vn 0.000000 0.707106 -0.707107
vn 0.000000 0.707106 -0.707107
vn 0.000000 0.000000 1.000000
vn 0.000000 0.000000 1.000000
vn 0.000000 0.000000 1.000000
vn 0.000000 0.000000 1.000000
vn 0.000000 1.000000 0.000000
vn 0.000000 1.000000 0.000000
vn 0.000000 1.000000 0.000000
vn 0.000000 1.000000 0.000000
vn 0.000000 0.000000 -1.000000
vn 0.000000 0.000000 -1.000000
vn 0.000000 0.000000 -1.000000
vn 0.000000 0.000000 -1.000000
vn 1.000000 0.000000 0.000000
vn 1.000000 0.000000 0.000000
vn 1.000000 0.000000 0.000000
vn 1.000000 0.000000 0.000000
vn -1.000000 0.000000 0.000000
vn -1.000000 0.000000 0.000000
vn -1.000000 0.000000 0.000000
vn -1.000000 0.000000 0.000000
f 1/12/1 6/1/2 5/2/3 2/3/4
f 2/3/5 3/4/6 4/17/7 1/12/8
f 3/4/9 7/5/10 8/13/11 4/17/12
f 6/1/13 8/13/14 7/5/15 5/2/16
f 2/3/17 5/2/18 7/5/19 3/4/20
f 9/6/21 13/10/22 14/14/23 10/19/24
f 10/19/25 12/11/26 11/7/27 9/6/28
f 12/11/29 16/8/30 15/9/31 11/7/32
f 13/10/33 15/9/34 16/8/35 14/14/36
f 13/10/37 9/6/38 11/7/39 15/9/40
f 10/19/41 1/12/42 4/17/43 12/11/44
f 6/1/45 14/14/46 16/8/47 8/13/48
f 12/11/49 4/17/50 8/16/51 16/15/52
f 14/18/53 6/20/54 1/12/55 10/19/56
f 17/21/57 29/22/58 30/23/59 19/24/60
f 22/25/61 21/26/62 18/27/63 20/28/64
f 24/29/65 23/30/66 21/26/62 22/25/61
f 26/31/67 25/32/68 23/30/66 24/29/65
f 28/33/69 27/34/70 25/32/68 26/31/67
f 30/23/59 29/22/58 27/34/70 28/33/69
f 31/35/71 32/36/72 35/37/73 36/38/74
f 32/36/75 31/35/76 34/39/77 33/40/78
f 33/40/79 34/39/80 38/41/81 37/42/82
f 36/38/83 35/37/84 37/42/85 38/41/86
f 32/36/87 33/40/88 37/42/89 35/37/90
f 39/43/91 40/44/92 44/45/93 43/46/94
f 40/44/95 39/43/96 41/47/97 42/48/98
f 42/48/99 41/47/100 45/49/101 46/50/102
f 43/46/103 44/45/104 46/50/105 45/49/106
f 43/46/107 45/49/108 41/47/109 39/43/110
f 40/44/111 42/48/112 34/39/113 31/35/114
f 36/38/115 38/41/116 46/50/117 44/45/118
f 42/48/119 46/51/120 38/52/121 34/39/122
f 44/53/123 40/44/124 31/35/125 36/54/126
f 47/55/127 48/56/128 51/57/129 52/58/130
f 48/56/131 47/55/132 101/59/133 102/60/134
f 49/61/135 50/62/136 54/63/137 53/64/138
f 52/58/139 51/57/140 95/65/141 96/66/142
f 48/56/143 102/60/144 95/65/145 51/57/146
f 55/67/147 56/68/148 60/69/149 59/70/150
f 56/68/151 55/67/152 99/71/153 100/72/154
f 58/73/155 57/74/156 61/75/157 62/76/158
f 59/70/159 60/69/160 97/77/161 98/78/162
f 59/70/163 98/78/164 99/71/165 55/67/166
f 56/68/167 100/72/168 101/59/169 47/55/170
f 52/58/171 96/66/172 97/77/173 60/69/174
f 58/73/175 62/79/176 54/80/177 50/62/178
f 60/81/179 56/68/180 47/55/181 52/82/182
f 64/83/183 63/84/184 53/64/185 54/63/186
f 65/85/187 64/83/188 54/63/189 62/76/190
f 66/86/191 65/85/192 62/76/193 61/75/194
f 67/87/195 66/86/196 61/75/197 57/74/198
f 68/88/199 67/87/200 57/74/201 58/73/202
f 69/89/203 68/88/204 58/73/205 50/62/206
f 70/90/207 69/89/208 50/62/209 49/61/210
f 63/84/211 70/90/212 49/61/213 53/64/214
f 72/91/215 71/92/216 63/84/184 64/83/183
f 73/93/217 72/91/218 64/83/188 65/85/187
f 74/94/219 73/93/220 65/85/192 66/86/191
f 75/95/221 74/94/222 66/86/196 67/87/195
f 76/96/223 75/95/224 67/87/200 68/88/199
f 77/97/225 76/96/226 68/88/204 69/89/203
f 78/98/227 77/97/228 69/89/208 70/90/207
f 71/92/229 78/98/230 70/90/212 63/84/211
f 80/99/231 79/100/232 71/92/216 72/91/215
f 81/101/233 80/99/234 72/91/218 73/93/217
f 82/102/235 81/101/236 73/93/220 74/94/219
f 83/103/237 82/102/238 74/94/222 75/95/221
f 84/104/239 83/103/240 75/95/224 76/96/223
f 85/105/241 84/104/242 76/96/226 77/97/225
f 86/106/243 85/105/244 77/97/228 78/98/227
f 79/100/245 86/106/246 78/98/230 71/92/229
f 88/107/247 87/108/248 79/100/232 80/99/231
f 89/109/249 88/107/250 80/99/234 81/101/233
f 90/110/251 89/109/252 81/101/236 82/102/235
f 91/111/253 90/110/254 82/102/238 83/103/237
f 92/112/255 91/111/256 83/103/240 84/104/239
f 93/113/257 92/112/258 84/104/242 85/105/241
f 94/114/259 93/113/260 85/105/244 86/106/243
f 87/108/261 94/114/262 86/106/246 79/100/245
f 96/66/142 95/65/141 87/108/248 88/107/247
f 97/77/173 96/66/172 88/107/250 89/109/249
f 98/78/162 97/77/161 89/109/252 90/110/251
f 99/71/165 98/78/164 90/110/254 91/111/253
f 100/72/154 99/71/153 91/111/256 92/112/255
f 101/59/169 100/72/168 92/112/258 93/113/257
f 102/60/134 101/59/133 93/113/260 94/114/259
f 95/65/145 102/60/144 94/114/262 87/108/261
f 103/115/263 104/116/264 107/117/265 108/118/266
f 104/116/267 103/115/268 106/119/269 105/120/270
f 105/120/271 106/119/272 110/121/273 109/122/274
f 108/118/275 107/117/276 109/122/277 110/121/278
f 104/116/279 105/120/280 109/122/281 107/117/282
f 111/123/283 112/124/284 116/125/285 115/126/286
f 112/124/287 111/123/288 113/127/289 114/128/290
f 114/128/291 113/127/292 117/129/293 118/130/294
f 115/126/295 116/125/296 118/130/297 117/129/298
f 115/126/299 117/129/300 113/127/301 111/123/302
f 112/124/303 114/128/304 106/119/305 103/115/306
f 108/118/307 110/121/308 118/130/309 116/125/310
f 114/128/311 118/131/312 110/132/313 106/119/314
f 116/133/315 112/124/316 103/115/317 108/134/318
f 121/135/319 122/136/320 120/137/321 119/138/322
f 123/139/323 124/140/324 127/141/325 128/142/326
f 124/140/327 123/139/328 126/143/329 125/144/330
f 125/144/331 126/143/332 130/145/333 129/146/334
f 128/142/335 127/141/336 129/146/337 130/145/338
f 119/138/339 120/137/340 126/143/341 123/139/342
f 124/140/343 125/144/344 129/146/345 127/141/346
f 128/142/347 130/145/348 122/136/349 121/135/350
f 120/137/351 122/147/352 130/148/353 126/143/354
f 121/149/355 119/138/356 123/139/357 128/150/358
