# This file uses meters as units for non-parametric coordinates.

v 24.009851 107.344604 30.982069
v 24.830690 107.344604 30.982069
v 24.009851 108.165451 30.982069
v 24.830690 108.165451 30.982069
v 24.009851 108.165451 28.978437
v 24.830690 108.165451 28.978437
v 24.009851 107.344604 28.978437
v 24.830690 107.344604 28.978437
v -12.619785 107.344604 30.982069
v -11.798946 107.344604 30.982069
v -12.619785 108.165451 30.982069
v -11.798946 108.165451 30.982069
v -12.619785 108.165451 28.978437
v -11.798946 108.165451 28.978437
v -12.619785 107.344604 28.978437
v -11.798946 107.344604 28.978437
v 26.078217 107.616066 31.189255
v -14.113846 107.616066 31.189255
v 25.843019 108.416397 30.727179
v 26.078217 108.176346 30.865776
v 25.843019 108.078148 30.388926
v 26.078217 107.939545 30.628979
v 25.843019 107.616066 30.265100
v 26.078217 107.616066 30.542295
v 25.843019 107.153984 30.388926
v 26.078217 107.292587 30.628979
v 25.843019 106.815735 30.727179
v 26.078217 107.055786 30.865776
v 25.843019 106.691910 31.189255
v 26.078217 106.969109 31.189255
v 25.843019 106.815735 31.651331
v 26.078217 107.055786 31.512733
v 25.843019 107.153984 31.989584
v 26.078217 107.292587 31.749531
v 25.843019 107.616066 32.113407
v 26.078217 107.616066 31.836214
v 25.843019 108.078148 31.989584
v 26.078217 107.939545 31.749531
v 25.843019 108.416397 31.651331
v 26.078217 108.176346 31.512733
v 25.843019 108.540222 31.189255
v 26.078217 108.263023 31.189255
v -13.878647 108.416397 30.727179
v -14.113846 108.176346 30.865776
v -13.878647 108.078148 30.388926
v -14.113846 107.939545 30.628979
v -13.878647 107.616066 30.265100
v -14.113846 107.616066 30.542295
v -13.878647 107.153984 30.388926
v -14.113846 107.292587 30.628979
v -13.878647 106.815735 30.727179
v -14.113846 107.055786 30.865776
v -13.878647 106.691910 31.189255
v -14.113846 106.969109 31.189255
v -13.878647 106.815735 31.651331
v -14.113846 107.055786 31.512733
v -13.878647 107.153984 31.989584
v -14.113846 107.292587 31.749531
v -13.878647 107.616066 32.113407
v -14.113846 107.616066 31.836214
v -13.878647 108.078148 31.989584
v -14.113846 107.939545 31.749531
v -13.878647 108.416397 31.651331
v -14.113846 108.176346 31.512733
v -13.878647 108.540222 31.189255
v -14.113846 108.263023 31.189255
vt 0.644901 0.135993
vt 0.729842 0.135993
vt 0.644901 0.172136
vt 0.729842 0.172136
vt 0.644901 0.135993
vt 0.729842 0.135993
vt 0.644901 0.172136
vt 0.729842 0.172136
vt 0.729842 0.172136
vt 0.729842 0.135993
vt 0.644901 0.135993
vt 0.644901 0.172136
vt 0.644901 0.135993
vt 0.729842 0.135993
vt 0.729842 0.172136
vt 0.644901 0.172136
vt 0.729842 0.135993
vt 0.644901 0.135993
vt 0.644901 0.172136
vt 0.729842 0.172136
vt 0.644901 0.135993
vt 0.644901 0.172136
vt 0.729842 0.135993
vt 0.729842 0.172136
vt 0.736232 0.137172
vt 0.736751 0.137671
vt 0.736751 0.140019
vt 0.736232 0.140518
vt 0.736751 0.176818
vt 0.736174 0.177322
vt 0.736232 0.173976
vt 0.736751 0.174478
vt 0.736751 0.141020
vt 0.736751 0.143360
vt 0.736232 0.143864
vt 0.736751 0.144366
vt 0.736751 0.146705
vt 0.736232 0.147210
vt 0.736751 0.147709
vt 0.736751 0.150057
vt 0.736232 0.150556
vt 0.736751 0.151057
vt 0.736751 0.153397
vt 0.736232 0.153901
vt 0.736751 0.154403
vt 0.736751 0.156743
vt 0.736232 0.157247
vt 0.736751 0.157746
vt 0.736751 0.160094
vt 0.736232 0.160593
vt 0.736751 0.161095
vt 0.736751 0.163434
vt 0.736232 0.163939
vt 0.736751 0.164440
vt 0.736751 0.166780
vt 0.736232 0.167285
vt 0.736751 0.167784
vt 0.736751 0.170131
vt 0.736232 0.170630
vt 0.736751 0.171132
vt 0.736751 0.173472
vt 0.638610 0.177322
vt 0.638032 0.176820
vt 0.638032 0.174478
vt 0.638610 0.173976
vt 0.638032 0.137674
vt 0.638610 0.137172
vt 0.638610 0.140518
vt 0.638032 0.140016
vt 0.638032 0.141020
vt 0.638610 0.143864
vt 0.638032 0.143362
vt 0.638032 0.144366
vt 0.638610 0.147210
vt 0.638032 0.146708
vt 0.638032 0.147712
vt 0.638610 0.150556
vt 0.638032 0.150054
vt 0.638032 0.151057
vt 0.638610 0.153901
vt 0.638032 0.153400
vt 0.638032 0.154403
vt 0.638610 0.157247
vt 0.638032 0.156745
vt 0.638032 0.157749
vt 0.638610 0.160593
vt 0.638032 0.160091
vt 0.638032 0.161095
vt 0.638610 0.163939
vt 0.638032 0.163437
vt 0.638032 0.164441
vt 0.638610 0.167285
vt 0.638032 0.166783
vt 0.638032 0.167786
vt 0.638610 0.170630
vt 0.638032 0.170129
vt 0.638032 0.171132
vt 0.638032 0.173474
vt 0.715426 0.140132
vt 0.733017 0.147617
vt 0.691396 0.157023
vt 0.691396 0.137392
vt 0.667367 0.140132
vt 0.649776 0.147617
vt 0.643338 0.157841
vt 0.649776 0.168066
vt 0.667367 0.175551
vt 0.691396 0.178291
vt 0.715426 0.175551
vt 0.733017 0.168066
vt 0.739455 0.157841
vt 0.732399 0.168873
vt 0.714639 0.176431
vt 0.690377 0.157724
vt 0.690377 0.179197
vt 0.666116 0.176431
vt 0.648356 0.168873
vt 0.641855 0.158550
vt 0.648356 0.148227
vt 0.666116 0.140669
vt 0.690377 0.137903
vt 0.714639 0.140669
vt 0.732399 0.148227
vt 0.738899 0.158550
vn 0.000000 0.000000 1.000000
vn 0.000000 0.000000 1.000000
vn 0.000000 0.000000 1.000000
vn 0.000000 0.000000 1.000000
vn 0.000000 1.000000 0.000000
vn 0.000000 1.000000 0.000000
vn 0.000000 1.000000 0.000000
vn 0.000000 1.000000 0.000000
vn 0.000000 -1.000000 0.000000
vn 0.000000 -1.000000 0.000000
vn 0.000000 -1.000000 0.000000
vn 0.000000 -1.000000 0.000000
vn 1.000000 0.000000 0.000000
vn 1.000000 0.000000 0.000000
vn 1.000000 0.000000 0.000000
vn 1.000000 0.000000 0.000000
vn -1.000000 0.000000 0.000000
vn -1.000000 0.000000 0.000000
vn -1.000000 0.000000 0.000000
vn -1.000000 0.000000 0.000000
vn 0.000000 0.000000 1.000000
vn 0.000000 0.000000 1.000000
vn 0.000000 0.000000 1.000000
vn 0.000000 0.000000 1.000000
vn 0.000000 1.000000 0.000000
vn 0.000000 1.000000 0.000000
vn 0.000000 1.000000 0.000000
vn 0.000000 1.000000 0.000000
vn 0.000000 -1.000000 0.000000
vn 0.000000 -1.000000 0.000000
vn 0.000000 -1.000000 0.000000
vn 0.000000 -1.000000 0.000000
vn 1.000000 0.000000 0.000000
vn 1.000000 0.000000 0.000000
vn 1.000000 0.000000 0.000000
vn 1.000000 0.000000 0.000000
vn -1.000000 0.000000 0.000000
vn -1.000000 0.000000 0.000000
vn -1.000000 0.000000 0.000000
vn -1.000000 0.000000 0.000000
vn 0.762504 0.560302 -0.323495
vn 0.895888 0.384758 -0.222142
vn 0.895889 0.222141 -0.384754
vn 0.762505 0.323495 -0.560301
vn 0.762506 0.646981 0.000001
vn 0.895889 0.444279 0.000000
vn 0.895885 0.000001 -0.444286
vn 0.762503 0.000002 -0.646984
vn 0.895889 -0.222140 -0.384754
vn 0.762505 -0.323493 -0.560302
vn 0.895888 -0.384756 -0.222142
vn 0.762506 -0.560300 -0.323495
vn 0.895889 -0.444277 -0.000000
vn 0.762508 -0.646978 -0.000000
vn 0.895887 -0.384758 0.222143
vn 0.762506 -0.560300 0.323495
vn 0.895889 -0.222141 0.384755
vn 0.762506 -0.323494 0.560300
vn 0.895885 -0.000001 0.444286
vn 0.762504 -0.000002 0.646984
vn 0.895890 0.222139 0.384755
vn 0.762507 0.323492 0.560300
vn 0.895887 0.384758 0.222142
vn 0.762506 0.560300 0.323495
vn -0.762503 0.560305 -0.323494
vn -0.895887 0.384759 -0.222142
vn -0.895887 0.444282 0.000000
vn -0.762503 0.646984 0.000000
vn -0.762501 0.323497 -0.560305
vn -0.895888 0.222140 -0.384758
vn -0.762500 -0.000001 -0.646988
vn -0.895883 -0.000001 -0.444289
vn -0.762501 -0.323497 -0.560305
vn -0.895887 -0.222141 -0.384758
vn -0.762502 -0.560305 -0.323494
vn -0.895887 -0.384759 -0.222142
vn -0.762503 -0.646985 0.000000
vn -0.895887 -0.444283 0.000000
vn -0.762502 -0.560306 0.323495
vn -0.895886 -0.384761 0.222143
vn -0.762502 -0.323496 0.560304
vn -0.895887 -0.222141 0.384759
vn -0.762500 0.000000 0.646988
vn -0.895883 0.000001 0.444289
vn -0.762502 0.323496 0.560305
vn -0.895887 0.222141 0.384759
vn -0.762502 0.560306 0.323495
vn -0.895886 0.384761 0.222143
vn 0.000000 0.866022 -0.500006
vn 0.000000 0.500005 -0.866023
vn 0.000000 0.500005 -0.866023
vn 0.000000 0.866022 -0.500006
vn 0.000000 0.000000 -1.000000
vn 0.000000 0.000000 -1.000000
vn 0.000000 -0.500005 -0.866023
vn 0.000000 -0.500005 -0.866023
vn 0.000000 -0.866028 -0.499996
vn 0.000000 -0.866028 -0.499996
vn 0.000000 -1.000000 0.000000
vn 0.000000 -1.000000 0.000000
vn 0.000000 -0.866028 0.499996
vn 0.000000 -0.866028 0.499996
vn 0.000000 -0.500003 0.866023
vn 0.000000 -0.500003 0.866023
vn 0.000000 0.000000 1.000000
vn 0.000000 0.000000 1.000000
vn 0.000000 0.500003 0.866023
vn 0.000000 0.500003 0.866023
vn 0.000000 0.866022 0.500006
vn 0.000000 0.866022 0.500006
vn 0.000000 1.000000 0.000000
vn 0.000000 1.000000 0.000000
vn 1.000000 0.000000 0.000000
vn -1.000000 0.000000 0.000000
f 1/1/1 2/2/2 4/4/3 3/3/4
f 3/3/5 4/4/6 6/6/7 5/5/8
f 7/7/9 8/8/10 2/2/11 1/1/12
f 2/2/13 8/11/14 6/12/15 4/4/16
f 7/10/17 1/1/18 3/3/19 5/9/20
f 9/13/21 10/14/22 12/15/23 11/16/24
f 11/16/25 12/15/26 14/17/27 13/18/28
f 15/19/29 16/20/30 10/14/31 9/13/32
f 10/14/33 16/21/34 14/22/35 12/15/36
f 15/23/37 9/13/38 11/16/39 13/24/40
f 19/25/41 20/26/42 22/27/43 21/28/44
f 20/29/42 19/30/41 41/31/45 42/32/46
f 21/28/44 22/33/43 24/34/47 23/35/48
f 23/35/48 24/36/47 26/37/49 25/38/50
f 25/38/50 26/39/49 28/40/51 27/41/52
f 27/41/52 28/42/51 30/43/53 29/44/54
f 29/44/54 30/45/53 32/46/55 31/47/56
f 31/47/56 32/48/55 34/49/57 33/50/58
f 33/50/58 34/51/57 36/52/59 35/53/60
f 35/53/60 36/54/59 38/55/61 37/56/62
f 37/56/62 38/57/61 40/58/63 39/59/64
f 39/59/64 40/60/63 42/61/46 41/31/45
f 43/62/65 44/63/66 66/64/67 65/65/68
f 44/66/66 43/67/65 45/68/69 46/69/70
f 46/70/70 45/68/69 47/71/71 48/72/72
f 48/73/72 47/71/71 49/74/73 50/75/74
f 50/76/74 49/74/73 51/77/75 52/78/76
f 52/79/76 51/77/75 53/80/77 54/81/78
f 54/82/78 53/80/77 55/83/79 56/84/80
f 56/85/80 55/83/79 57/86/81 58/87/82
f 58/88/82 57/86/81 59/89/83 60/90/84
f 60/91/84 59/89/83 61/92/85 62/93/86
f 62/94/86 61/92/85 63/95/87 64/96/88
f 64/97/88 63/95/87 65/65/68 66/98/67
f 19/25/89 21/28/90 45/68/91 43/67/92
f 21/28/90 23/35/93 47/71/94 45/68/91
f 23/35/93 25/38/95 49/74/96 47/71/94
f 25/38/95 27/41/97 51/77/98 49/74/96
f 27/41/97 29/44/99 53/80/100 51/77/98
f 29/44/99 31/47/101 55/83/102 53/80/100
f 31/47/101 33/50/103 57/86/104 55/83/102
f 33/50/103 35/53/105 59/89/106 57/86/104
f 35/53/105 37/56/107 61/92/108 59/89/106
f 37/56/107 39/59/109 63/95/110 61/92/108
f 39/59/109 41/31/111 65/65/112 63/95/110
f 41/31/111 19/30/89 43/62/92 65/65/112
f 22/99/43 20/100/42 17/101/113
f 24/102/47 22/99/43 17/101/113
f 26/103/49 24/102/47 17/101/113
f 28/104/51 26/103/49 17/101/113
f 30/105/53 28/104/51 17/101/113
f 32/106/55 30/105/53 17/101/113
f 34/107/57 32/106/55 17/101/113
f 36/108/59 34/107/57 17/101/113
f 38/109/61 36/108/59 17/101/113
f 40/110/63 38/109/61 17/101/113
f 42/111/46 40/110/63 17/101/113
f 20/100/42 42/111/46 17/101/113
f 44/112/66 46/113/70 18/114/114
f 46/113/70 48/115/72 18/114/114
f 48/115/72 50/116/74 18/114/114
f 50/116/74 52/117/76 18/114/114
f 52/117/76 54/118/78 18/114/114
f 54/118/78 56/119/80 18/114/114
f 56/119/80 58/120/82 18/114/114
f 58/120/82 60/121/84 18/114/114
f 60/121/84 62/122/86 18/114/114
f 62/122/86 64/123/88 18/114/114
f 64/123/88 66/124/67 18/114/114
f 66/124/67 44/112/66 18/114/114
