# This file uses meters as units for non-parametric coordinates.

v -72.693016 134.992537 -25.566651
v 72.693016 134.992537 -25.566651
v -72.693016 246.652764 -25.566651
v 72.693016 246.652764 -25.566651
v 48.462003 256.952323 -25.566651
v 48.462003 134.992537 -25.566651
v 24.231002 263.312101 -25.566651
v 24.231002 134.992537 -25.566651
v -0.000003 266.596221 -25.566651
v -0.000003 134.992537 -25.566651
v -24.231010 263.312101 -25.566651
v -24.231010 134.992537 -25.566651
v -48.462014 256.952323 -25.566651
v -48.462014 134.992537 -25.566651
vt 0.670306 0.077159
vt 0.677272 0.077159
vt 0.677272 0.118954
vt 0.670306 0.118954
vt 0.705135 0.118954
vt 0.705135 0.077159
vt 0.712101 0.077159
vt 0.712101 0.118954
vt 0.698169 0.118954
vt 0.698169 0.077159
vt 0.691203 0.118954
vt 0.691203 0.077159
vt 0.684238 0.118954
vt 0.684238 0.077159
vn 0.000000 0.000000 1.000000
vn 0.000000 0.000000 1.000000
vn 0.000000 0.000000 1.000000
vn 0.000000 0.000000 1.000000
vn -0.000000 0.000000 1.000000
vn 0.000000 0.000000 1.000000
vn 0.000000 0.000000 1.000000
vn 0.000000 0.000000 1.000000
vn 0.000000 0.000000 1.000000
vn 0.000000 0.000000 1.000000
vn 0.000000 0.000000 1.000000
vn 0.000000 0.000000 1.000000
vn -0.000000 0.000000 1.000000
vn -0.000000 0.000000 1.000000
f 1/1/1 14/2/2 13/3/3 3/4/4
f 5/5/5 6/6/6 2/7/7 4/8/8
f 7/9/9 8/10/10 6/6/6 5/5/5
f 9/11/11 10/12/12 8/10/10 7/9/9
f 11/13/13 12/14/14 10/12/12 9/11/11
f 13/3/3 14/2/2 12/14/14 11/13/13
