# This file uses centimeters as units for non-parametric coordinates.

v -18.562389 2.091072 11.585907
v 18.562389 2.091072 11.585907
v -18.562389 4.843269 11.585907
v 18.562389 4.843269 11.585907
v -18.562389 4.843269 -11.585907
v 18.562389 4.843269 -11.585907
v -18.562389 2.091072 -11.585907
v 18.562389 2.091072 -11.585907
v 9.937723 3.817440 1.839424
v 6.258875 3.817440 1.839424
v 9.937723 177.818497 1.839424
v 9.937723 177.818497 -1.839424
v 9.937723 3.817440 -1.839424
v 6.258875 3.817440 -1.839424
v 6.258875 174.098602 1.839424
v 6.258875 174.098602 -1.839424
v -9.937724 3.817440 1.839424
v -6.258876 3.817440 1.839424
v -9.937724 177.818497 1.839424
v -9.937724 177.818497 -1.839424
v -9.937724 3.817440 -1.839424
v -6.258876 3.817440 -1.839424
v -6.258876 174.098602 1.839424
v -6.258876 174.098602 -1.839424
v -1.959336 177.818497 1.839424
v 1.959335 177.818497 1.839424
v 1.959336 174.098602 1.839424
v -1.959336 174.098602 1.839424
v 1.959336 174.098602 -1.839424
v -1.959336 174.098602 -1.839424
v 1.959335 177.818497 -1.839424
v -1.959336 177.818497 -1.839424
v -1.959336 219.927536 1.839424
v -1.959336 219.927536 -1.839424
v 1.959335 219.927536 -1.839424
v 1.959335 219.927536 1.839424
v -2.610739 219.927536 2.490827
v -2.610739 219.927536 -2.490827
v -2.610739 225.326050 2.490827
v -2.610739 225.326050 -2.490827
v 2.610738 219.927536 -2.490827
v 2.610738 225.326050 -2.490827
v 2.610738 219.927536 2.490827
v 2.610738 225.326050 2.490827
v 15.626609 0.000000 8.379871
v 12.678760 0.000000 8.379871
v 15.626609 2.656096 8.379871
v 12.678760 2.656096 8.379871
v 15.626609 2.656096 5.432014
v 12.678760 2.656096 5.432014
v 15.626609 0.000000 5.432014
v 12.678760 0.000000 5.432014
v -15.626617 0.000000 8.379875
v -12.678754 0.000000 8.379875
v -15.626617 2.656096 8.379875
v -12.678754 2.656096 8.379875
v -15.626617 2.656096 5.432012
v -12.678754 2.656096 5.432012
v -15.626617 0.000000 5.432012
v -12.678754 0.000000 5.432012
v -15.626614 0.000000 -8.379875
v -12.678760 0.000000 -8.379875
v -15.626614 2.656096 -8.379875
v -12.678760 2.656096 -8.379875
v -15.626614 2.656096 -5.432014
v -12.678760 2.656096 -5.432014
v -15.626614 0.000000 -5.432014
v -12.678760 0.000000 -5.432014
v 15.626609 0.000000 -8.379875
v 12.678760 0.000000 -8.379875
v 15.626609 2.656096 -8.379875
v 12.678760 2.656096 -8.379875
v 15.626609 2.656096 -5.432018
v 12.678760 2.656096 -5.432018
v 15.626609 0.000000 -5.432018
v 12.678760 0.000000 -5.432018
v 9.937723 89.894440 1.839424
v 6.258875 89.881554 1.839424
v 6.258875 89.881554 -1.839424
v 9.937723 89.894440 -1.839424
v -9.937724 89.894440 1.839424
v -9.937724 89.894440 -1.839424
v -6.258876 89.881554 -1.839424
v -6.258876 89.881554 1.839424
v 1.959335 205.254700 1.839424
v -1.959337 205.254700 1.839424
v -1.959337 205.254700 -1.839424
v 1.959335 205.254700 -1.839424
vt 0.523427 0.068983
vt 0.602327 0.068983
vt 0.602327 0.074266
vt 0.523427 0.074266
vt 0.602328 0.118752
vt 0.523427 0.118752
vt 0.602327 0.113480
vt 0.523427 0.113480
vt 0.602327 0.069094
vt 0.523427 0.069094
vt 0.608176 0.074266
vt 0.608177 0.118752
vt 0.517578 0.118752
vt 0.517577 0.074266
vt 0.614460 0.106039
vt 0.505960 0.106155
vt 0.505976 0.101273
vt 0.614460 0.101375
vt 0.505958 0.080787
vt 0.614484 0.080787
vt 0.614484 0.085450
vt 0.505978 0.085450
vt 0.505986 0.097771
vt 0.614460 0.096711
vt 0.614460 0.110703
vt 0.505952 0.110063
vt 0.614460 0.080842
vt 0.614998 0.085474
vt 0.505981 0.085078
vt 0.505960 0.080726
vt 0.505958 0.105984
vt 0.505978 0.101320
vt 0.614484 0.101320
vt 0.614484 0.105984
vt 0.615498 0.090105
vt 0.505993 0.088401
vt 0.614460 0.076178
vt 0.505952 0.076818
vt 0.555333 0.116211
vt 0.539924 0.116213
vt 0.539922 0.101511
vt 0.555331 0.101510
vt 0.611701 0.096257
vt 0.611701 0.090625
vt 0.606580 0.090655
vt 0.606673 0.095621
vt 0.602410 0.090541
vt 0.602596 0.095505
vt 0.606369 0.090901
vt 0.606368 0.095869
vt 0.610780 0.095869
vt 0.610780 0.090901
vt 0.610780 0.080787
vt 0.606368 0.085450
vt 0.604596 0.098831
vt 0.606647 0.101171
vt 0.610217 0.106271
vt 0.612003 0.109424
vt 0.614239 0.099460
vt 0.610217 0.080611
vt 0.606111 0.084683
vt 0.603809 0.086697
vt 0.606369 0.101320
vt 0.610780 0.105984
vt 0.614239 0.087421
vt 0.612003 0.077457
vt 0.582361 0.095911
vt 0.582362 0.090970
vt 0.583777 0.099937
vt 0.581508 0.095869
vt 0.581509 0.090901
vt 0.583777 0.086944
vt 0.525221 0.085579
vt 0.539922 0.085580
vt 0.525221 0.101511
vt 0.570032 0.085580
vt 0.585441 0.085580
vt 0.585441 0.101511
vt 0.570032 0.101511
vt 0.555331 0.085579
vt 0.541843 0.072801
vt 0.541844 0.083658
vt 0.539921 0.070879
vt 0.553407 0.072800
vt 0.555330 0.070878
vt 0.553408 0.083657
vt 0.556946 0.091981
vt 0.556947 0.079449
vt 0.570858 0.079449
vt 0.570859 0.091983
vt 0.543038 0.079451
vt 0.543039 0.091983
vt 0.529130 0.091984
vt 0.529129 0.079452
vt 0.556937 0.105900
vt 0.570858 0.105905
vt 0.584769 0.079449
vt 0.584768 0.091984
vt 0.556948 0.091982
vt 0.543038 0.091982
vt 0.543038 0.079449
vt 0.556948 0.079449
vt 0.570858 0.079449
vt 0.584767 0.079450
vt 0.584767 0.091983
vt 0.570857 0.091982
vt 0.570857 0.105892
vt 0.556947 0.105892
vt 0.529129 0.091983
vt 0.529128 0.079450
vt 0.556948 0.091982
vt 0.556948 0.079449
vt 0.570858 0.079449
vt 0.570858 0.091982
vt 0.543039 0.079449
vt 0.543038 0.091981
vt 0.529131 0.091979
vt 0.529132 0.079449
vt 0.556948 0.105891
vt 0.543038 0.105891
vt 0.584768 0.079449
vt 0.584768 0.091982
vt 0.556949 0.091982
vt 0.543040 0.091982
vt 0.543039 0.079449
vt 0.556949 0.079449
vt 0.570857 0.079449
vt 0.584766 0.079445
vt 0.584770 0.091978
vt 0.570859 0.091982
vt 0.529130 0.105892
vt 0.529131 0.091984
vt 0.543040 0.105893
vt 0.529128 0.079452
vn 0.000000 0.000000 1.000000
vn 0.000000 0.000000 1.000000
vn 0.000000 0.000000 1.000000
vn 0.000000 0.000000 1.000000
vn 0.000000 1.000000 0.000000
vn 0.000000 1.000000 0.000000
vn 0.000000 1.000000 0.000000
vn 0.000000 1.000000 0.000000
vn 0.000000 0.000000 -1.000000
vn 0.000000 0.000000 -1.000000
vn 0.000000 0.000000 -1.000000
vn 0.000000 0.000000 -1.000000
vn 0.000000 -1.000000 0.000000
vn 0.000000 -1.000000 0.000000
vn 0.000000 -1.000000 0.000000
vn 0.000000 -1.000000 0.000000
vn 1.000000 0.000000 0.000000
vn 1.000000 0.000000 0.000000
vn 1.000000 0.000000 0.000000
vn 1.000000 0.000000 0.000000
vn -1.000000 0.000000 0.000000
vn -1.000000 0.000000 0.000000
vn -1.000000 0.000000 0.000000
vn -1.000000 0.000000 0.000000
vn 0.000000 0.000000 1.000000
vn 0.000000 0.000000 1.000000
vn 0.000000 0.000000 1.000000
vn 0.000000 0.000000 1.000000
vn 0.000000 0.000000 -1.000000
vn -0.000000 0.000000 -1.000000
vn -0.000000 0.000000 -1.000000
vn 0.000000 0.000000 -1.000000
vn -1.000000 0.000000 0.000000
vn -1.000000 0.000000 0.000000
vn -1.000000 0.000000 0.000000
vn -1.000000 0.000000 0.000000
vn 1.000000 0.000000 0.000000
vn 1.000000 0.000000 0.000000
vn 1.000000 0.000000 0.000000
vn 1.000000 0.000000 0.000000
vn 0.000000 0.000000 1.000000
vn 0.000000 0.000000 1.000000
vn 0.000000 0.000000 1.000000
vn 0.000000 0.000000 1.000000
vn -0.000000 0.000000 -1.000000
vn 0.000000 0.000000 -1.000000
vn 0.000000 0.000000 -1.000000
vn 0.000000 0.000000 -1.000000
vn 1.000000 0.000000 0.000000
vn 1.000000 0.000000 0.000000
vn 1.000000 0.000000 0.000000
vn 1.000000 0.000000 0.000000
vn -1.000000 0.000000 0.000000
vn -1.000000 0.000000 0.000000
vn -1.000000 0.000000 0.000000
vn -1.000000 0.000000 0.000000
vn 0.000000 1.000000 0.000000
vn 0.000000 1.000000 0.000000
vn 0.000000 1.000000 0.000000
vn 0.000000 1.000000 0.000000
vn 0.000000 0.000000 1.000000
vn 0.000000 0.000000 1.000000
vn 0.000000 0.000000 1.000000
vn 0.000000 0.000000 1.000000
vn 0.000000 -1.000000 0.000000
vn 0.000000 -1.000000 0.000000
vn 0.000000 -1.000000 0.000000
vn 0.000000 -1.000000 0.000000
vn 0.000000 0.000000 -1.000000
vn 0.000000 0.000000 -1.000000
vn 0.000000 0.000000 -1.000000
vn 0.000000 0.000000 -1.000000
vn 0.000000 0.000000 -1.000000
vn 0.000000 0.000000 -1.000000
vn 0.000000 0.000000 -1.000000
vn 0.000000 0.000000 -1.000000
vn 0.000000 -1.000000 0.000000
vn 0.000000 -1.000000 0.000000
vn 0.000000 -1.000000 0.000000
vn 0.000000 -1.000000 0.000000
vn 0.000000 0.000000 1.000000
vn 0.000000 0.000000 1.000000
vn 0.000000 0.000000 1.000000
vn 0.000000 0.000000 1.000000
vn 0.000000 1.000000 0.000000
vn 0.000000 1.000000 0.000000
vn 0.000000 1.000000 0.000000
vn 0.000000 1.000000 0.000000
vn 0.000000 0.000000 1.000000
vn 0.000000 0.000000 1.000000
vn 0.000000 0.000000 1.000000
vn 0.000000 0.000000 1.000000
vn 0.000000 -1.000000 0.000000
vn 0.000000 -1.000000 0.000000
vn 0.000000 -1.000000 0.000000
vn 0.000000 -1.000000 0.000000
vn 0.000000 0.000000 -1.000000
vn 0.000000 0.000000 -1.000000
vn -0.000000 0.000000 -1.000000
vn -0.000000 0.000000 -1.000000
vn 0.000000 1.000000 0.000000
vn 0.000000 1.000000 0.000000
vn 0.000000 1.000000 0.000000
vn 0.000000 1.000000 0.000000
vn 0.000000 0.000000 1.000000
vn 0.000000 0.000000 1.000000
vn 0.000000 0.000000 1.000000
vn 0.000000 0.000000 1.000000
vn 1.000000 0.000000 0.000000
vn 1.000000 0.000000 0.000000
vn 1.000000 0.000000 0.000000
vn 1.000000 0.000000 0.000000
vn 0.000000 0.000000 -1.000000
vn 0.000000 0.000000 -1.000000
vn 0.000000 0.000000 -1.000000
vn 0.000000 0.000000 -1.000000
vn -1.000000 0.000000 0.000000
vn -1.000000 0.000000 0.000000
vn -1.000000 0.000000 0.000000
vn -1.000000 0.000000 0.000000
vn -1.000000 0.000000 0.000000
vn -1.000000 0.000000 0.000000
vn -1.000000 0.000000 0.000000
vn -1.000000 0.000000 0.000000
vn 0.000000 0.000000 -1.000000
vn 0.000000 0.000000 -1.000000
vn 0.000000 0.000000 -1.000000
vn 0.000000 0.000000 -1.000000
vn 1.000000 0.000000 0.000000
vn 1.000000 0.000000 0.000000
vn 1.000000 0.000000 0.000000
vn 1.000000 0.000000 0.000000
vn 0.000000 0.000000 1.000000
vn 0.000000 0.000000 1.000000
vn 0.000000 0.000000 1.000000
vn 0.000000 0.000000 1.000000
vn 0.000000 -1.000000 0.000000
vn 0.000000 -1.000000 0.000000
vn 0.000000 -1.000000 0.000000
vn 0.000000 -1.000000 0.000000
vn 0.000000 -1.000000 0.000000
vn 0.000000 -1.000000 0.000000
vn 0.000000 -1.000000 0.000000
vn 0.000000 -1.000000 0.000000
vn 0.000000 -1.000000 0.000000
vn 0.000000 -1.000000 0.000000
vn 0.000000 -1.000000 0.000000
vn 0.000000 -1.000000 0.000000
vn 0.000000 -1.000000 0.000000
vn 0.000000 -1.000000 0.000000
vn 0.000000 -1.000000 0.000000
vn 0.000000 -1.000000 0.000000
vn 0.000000 0.000000 1.000000
vn 0.000000 0.000000 1.000000
vn 0.000000 0.000000 1.000000
vn 0.000000 0.000000 1.000000
vn 0.000000 0.000000 -1.000000
vn 0.000000 0.000000 -1.000000
vn 0.000000 0.000000 -1.000000
vn 0.000000 0.000000 -1.000000
vn 0.000000 -1.000000 0.000000
vn 0.000000 -1.000000 0.000000
vn 0.000000 -1.000000 0.000000
vn 0.000000 -1.000000 0.000000
vn -1.000000 0.000000 0.000000
vn -1.000000 0.000000 0.000000
vn -1.000000 0.000000 0.000000
vn -1.000000 0.000000 0.000000
vn 1.000000 0.000000 0.000000
vn 1.000000 0.000000 0.000000
vn 1.000000 0.000000 0.000000
vn 1.000000 0.000000 0.000000
vn 0.000000 0.000000 1.000000
vn 0.000000 0.000000 1.000000
vn 0.000000 0.000000 1.000000
vn 0.000000 0.000000 1.000000
vn 0.000000 0.000000 -1.000000
vn 0.000000 0.000000 -1.000000
vn 0.000000 0.000000 -1.000000
vn 0.000000 0.000000 -1.000000
vn 0.000000 -1.000000 0.000000
vn 0.000000 -1.000000 0.000000
vn 0.000000 -1.000000 0.000000
vn 0.000000 -1.000000 0.000000
vn 1.000000 0.000000 0.000000
vn 1.000000 0.000000 0.000000
vn 1.000000 0.000000 0.000000
vn 1.000000 0.000000 0.000000
vn -1.000000 0.000000 0.000000
vn -1.000000 0.000000 0.000000
vn -1.000000 0.000000 0.000000
vn -1.000000 0.000000 0.000000
vn 0.000000 0.000000 -1.000000
vn 0.000000 0.000000 -1.000000
vn 0.000000 0.000000 -1.000000
vn 0.000000 0.000000 -1.000000
vn 0.000000 0.000000 1.000000
vn 0.000000 0.000000 1.000000
vn 0.000000 0.000000 1.000000
vn 0.000000 0.000000 1.000000
vn 0.000000 -1.000000 0.000000
vn 0.000000 -1.000000 0.000000
vn 0.000000 -1.000000 0.000000
vn 0.000000 -1.000000 0.000000
vn 1.000000 0.000000 0.000000
vn 1.000000 0.000000 0.000000
vn 1.000000 0.000000 0.000000
vn 1.000000 0.000000 0.000000
vn -1.000000 0.000000 0.000000
vn -1.000000 0.000000 0.000000
vn -1.000000 0.000000 0.000000
vn -1.000000 0.000000 0.000000
vn 0.000000 0.000000 -1.000000
vn 0.000000 0.000000 -1.000000
vn 0.000000 0.000000 -1.000000
vn 0.000000 0.000000 -1.000000
vn 0.000000 0.000000 1.000000
vn 0.000000 0.000000 1.000000
vn 0.000000 0.000000 1.000000
vn 0.000000 0.000000 1.000000
vn 0.000000 -1.000000 0.000000
vn 0.000000 -1.000000 0.000000
vn 0.000000 -1.000000 0.000000
vn 0.000000 -1.000000 0.000000
vn -1.000000 0.000000 0.000000
vn -1.000000 0.000000 0.000000
vn -1.000000 0.000000 0.000000
vn -1.000000 0.000000 0.000000
vn 1.000000 0.000000 0.000000
vn 1.000000 0.000000 0.000000
vn 1.000000 0.000000 0.000000
vn 1.000000 0.000000 0.000000
vn 0.000000 0.000000 1.000000
vn 0.000000 0.000000 1.000000
vn 0.000000 0.000000 1.000000
vn 0.000000 0.000000 1.000000
vn -1.000000 0.000000 0.000000
vn -1.000000 0.000000 0.000000
vn -1.000000 0.000000 0.000000
vn -1.000000 0.000000 0.000000
vn 0.000000 0.000000 -1.000000
vn 0.000000 0.000000 -1.000000
vn 0.000000 0.000000 -1.000000
vn 0.000000 0.000000 -1.000000
vn 1.000000 0.000000 0.000000
vn 1.000000 0.000000 0.000000
vn 1.000000 0.000000 0.000000
vn 1.000000 0.000000 0.000000
vn -1.000000 0.000000 0.000000
vn -1.000000 0.000000 0.000000
vn -1.000000 0.000000 0.000000
vn -1.000000 0.000000 0.000000
vn -0.000000 0.000000 -1.000000
vn -0.000000 0.000000 -1.000000
vn 0.000000 0.000000 -1.000000
vn -0.000000 0.000000 -1.000000
vn 1.000000 0.000000 0.000000
vn 1.000000 0.000000 0.000000
vn 1.000000 0.000000 0.000000
vn 1.000000 0.000000 0.000000
vn 0.000000 0.000000 1.000000
vn 0.000000 0.000000 1.000000
vn 0.000000 0.000000 1.000000
vn 0.000000 0.000000 1.000000
vn 0.000000 -1.000000 0.000000
vn 0.000000 -1.000000 0.000000
vn 0.000000 -1.000000 0.000000
vn 0.000000 -1.000000 0.000000
vn 0.000000 1.000000 0.000000
vn 0.000000 1.000000 0.000000
vn 0.000000 1.000000 0.000000
vn 0.000000 1.000000 0.000000
f 1/1/1 2/2/2 4/3/3 3/4/4
f 3/4/5 4/3/6 6/5/7 5/6/8
f 5/6/9 6/5/10 8/7/11 7/8/12
f 7/8/13 8/7/14 2/9/15 1/10/16
f 2/11/17 8/12/18 6/5/19 4/3/20
f 7/13/21 1/14/22 3/4/23 5/6/24
f 9/15/25 77/16/26 78/17/27 10/18/28
f 80/19/29 13/20/30 14/21/31 79/22/32
f 10/18/33 78/17/34 79/23/35 14/24/36
f 13/25/37 80/26/38 77/16/39 9/15/40
f 17/27/41 18/28/42 84/29/43 81/30/44
f 82/31/45 83/32/46 22/33/47 21/34/48
f 18/28/49 22/35/50 83/36/51 84/29/52
f 21/37/53 17/27/54 81/30/55 82/38/56
f 42/39/57 40/40/58 39/41/59 44/42/60
f 26/43/61 25/44/62 28/45/63 27/46/64
f 27/46/65 28/45/66 30/47/67 29/48/68
f 29/49/69 30/50/70 32/51/71 31/52/72
f 12/53/73 16/54/74 29/49/75 31/52/76
f 16/55/77 15/56/78 27/46/79 29/48/80
f 15/56/81 11/57/82 26/43/83 27/46/84
f 11/57/85 12/58/86 31/59/87 26/43/88
f 28/45/89 25/44/90 19/60/91 23/61/92
f 30/47/93 28/45/94 23/61/95 24/62/96
f 32/51/97 30/50/98 24/63/99 20/64/100
f 25/44/101 32/65/102 20/66/103 19/60/104
f 25/44/105 26/43/106 85/67/107 86/68/108
f 26/43/109 31/59/110 88/69/111 85/67/112
f 31/52/113 32/51/114 87/70/115 88/71/116
f 32/65/117 25/44/118 86/68/119 87/72/120
f 38/73/121 37/74/122 39/41/123 40/75/124
f 41/76/125 38/77/126 40/78/127 42/79/128
f 43/80/129 41/76/130 42/79/131 44/42/132
f 37/74/133 43/80/134 44/42/135 39/41/136
f 34/81/137 33/82/138 37/74/139 38/83/140
f 35/84/141 34/81/142 38/83/143 41/85/144
f 36/86/145 35/84/146 41/85/147 43/80/148
f 33/82/149 36/86/150 43/80/151 37/74/152
f 45/87/153 47/88/154 48/89/155 46/90/156
f 49/91/157 51/92/158 52/93/159 50/94/160
f 51/95/161 45/87/162 46/90/163 52/96/164
f 46/90/165 48/89/166 50/97/167 52/98/168
f 51/92/169 49/91/170 47/88/171 45/87/172
f 53/99/173 54/100/174 56/101/175 55/102/176
f 57/103/177 58/104/178 60/105/179 59/106/180
f 59/106/181 60/107/182 54/108/183 53/99/184
f 54/100/185 60/109/186 58/110/187 56/101/188
f 59/106/189 53/99/190 55/102/191 57/103/192
f 61/111/193 63/112/194 64/113/195 62/114/196
f 65/115/197 67/116/198 68/117/199 66/118/200
f 67/116/201 61/111/202 62/119/203 68/120/204
f 62/114/205 64/113/206 66/121/207 68/122/208
f 67/116/209 65/115/210 63/112/211 61/111/212
f 69/123/213 70/124/214 72/125/215 71/126/216
f 73/127/217 74/128/218 76/129/219 75/130/220
f 75/131/221 76/132/222 70/124/223 69/133/224
f 70/124/225 76/132/226 74/134/227 72/125/228
f 75/130/229 69/123/230 71/126/231 73/127/232
f 77/16/233 11/57/234 15/56/235 78/17/236
f 79/23/237 78/17/238 15/56/239 16/55/240
f 12/53/241 80/19/242 79/22/243 16/54/244
f 77/16/245 80/26/246 12/58/247 11/57/248
f 82/38/249 81/30/250 19/60/251 20/66/252
f 20/64/253 24/63/254 83/32/255 82/31/256
f 84/29/257 83/36/258 24/62/259 23/61/260
f 81/30/261 84/29/262 23/61/263 19/60/264
f 33/82/265 34/81/266 35/84/267 36/86/268
f 86/68/269 85/67/270 88/71/271 87/72/272
