# This file uses centimeters as units for non-parametric coordinates.

v 20.236643 0.000000 -8.382276
v 15.488449 0.000000 -15.488425
v 8.382300 0.000000 -20.236624
v 0.000011 0.000000 -21.903994
v -8.382276 0.000000 -20.236637
v -15.488444 0.000000 -15.488449
v -20.236626 0.000000 -8.382298
v -21.903965 0.000000 -0.000008
v -20.236637 0.000000 8.382286
v -15.488449 0.000000 15.488449
v -8.382289 0.000000 20.236626
v -0.000003 0.000000 21.903965
v 8.382286 0.000000 20.236631
v 15.488449 0.000000 15.488449
v 20.236626 0.000000 8.382289
v 21.903965 0.000000 0.000000
v 0.000000 0.000000 0.000000
v 0.000000 5.683207 -0.000002
v 17.763567 4.262548 -7.357905
v 15.261626 5.683207 -6.321568
v 13.595642 4.262547 -13.595614
v 11.680735 5.683207 -11.680711
v 7.357929 4.262548 -17.763554
v 6.321584 5.683207 -15.261610
v 0.000009 4.262548 -19.227137
v 0.000008 5.683207 -16.519056
v -7.357905 4.262548 -17.763565
v -6.321568 5.683207 -15.261623
v -13.595638 4.262547 -13.595642
v -11.680730 5.683207 -11.680733
v -17.763557 4.262548 -7.357928
v -15.261610 5.683207 -6.321584
v -19.227135 4.262548 -0.000009
v -16.519041 5.683207 -0.000007
v -17.763563 4.262548 7.357915
v -15.261623 5.683207 6.321578
v -13.595644 4.262548 13.595635
v -11.680735 5.683207 11.680726
v -7.357915 4.262548 17.763559
v -6.321582 5.683207 15.261608
v -0.000002 4.262548 19.227127
v -0.000003 5.683207 16.519035
v 7.357912 4.262548 17.763559
v 6.321579 5.683207 15.261608
v 13.595644 4.262548 13.595638
v 11.680735 5.683207 11.680726
v 17.763557 4.262548 7.357918
v 15.261610 5.683207 6.321582
v 19.227135 4.262548 -0.000001
v 16.519041 5.683207 -0.000003
v 1.773343 2.201401 -1.773343
v 0.000000 2.201401 -2.507702
v -1.773343 2.201401 -1.773343
v -2.507702 2.201401 0.000000
v -1.773343 2.201401 1.773343
v 0.000000 2.201401 2.507702
v 1.773343 2.201401 1.773343
v 2.507702 2.201401 0.000000
v 6.912926 210.252808 -6.912926
v 0.000000 210.252808 -9.775637
v -6.912926 210.252808 -6.912926
v -9.775637 210.252808 0.000000
v -6.912926 210.252808 6.912926
v 0.000000 210.252808 9.775637
v 6.912926 210.252808 6.912926
v 9.775637 210.252808 0.000000
v 0.000000 210.252808 0.000000
v 1.773343 197.643082 1.773343
v 0.000000 197.643082 2.507702
v -1.773343 197.643082 1.773343
v -2.507702 197.643082 0.000000
v -1.773343 197.643082 -1.773343
v 0.000000 197.643082 -2.507702
v 1.773343 197.643082 -1.773343
v 2.507702 197.643082 0.000000
v 0.000000 203.580902 6.966092
v -4.926133 203.580902 4.926133
v -6.966092 203.580902 0.000000
v -4.926133 203.580902 -4.926133
v 0.000000 203.580902 -6.966092
v 4.926133 203.580902 -4.926133
v 6.966092 203.580902 0.000000
v 4.926133 203.580902 4.926133
vt 0.695468 0.078739
vt 0.699568 0.084875
vt 0.682094 0.091356
vt 0.689332 0.074639
vt 0.682094 0.073199
vt 0.674856 0.074639
vt 0.668720 0.078739
vt 0.664620 0.084875
vt 0.663181 0.092113
vt 0.664620 0.099350
vt 0.668720 0.105486
vt 0.674856 0.109586
vt 0.682094 0.111026
vt 0.689332 0.109586
vt 0.695468 0.105486
vt 0.699568 0.099350
vt 0.701008 0.092113
vt 0.648686 0.098722
vt 0.649212 0.118232
vt 0.664464 0.118232
vt 0.664416 0.098722
vt 0.649948 0.118232
vt 0.649522 0.098722
vt 0.665147 0.098722
vt 0.665098 0.118232
vt 0.680772 0.098722
vt 0.680723 0.118232
vt 0.696397 0.098722
vt 0.696348 0.118232
vt 0.712022 0.098722
vt 0.711973 0.118232
vt 0.696293 0.098722
vt 0.696341 0.118232
vt 0.680563 0.098722
vt 0.680612 0.118232
vt 0.664833 0.098722
vt 0.664882 0.118232
vt 0.649104 0.098722
vt 0.649153 0.118232
vt 0.664939 0.098722
vt 0.664889 0.118232
vt 0.680774 0.098722
vt 0.680724 0.118232
vt 0.696608 0.098722
vt 0.696559 0.118232
vt 0.711604 0.098722
vt 0.711653 0.118232
vt 0.695874 0.098722
vt 0.695923 0.118232
vt 0.680145 0.098722
vt 0.680194 0.118232
vt 0.649522 0.071252
vt 0.665147 0.071252
vt 0.680772 0.071252
vt 0.696397 0.071252
vt 0.712022 0.071252
vt 0.696293 0.071252
vt 0.680563 0.071252
vt 0.664833 0.071252
vt 0.649104 0.071252
vt 0.664939 0.071252
vt 0.680774 0.071252
vt 0.696608 0.071252
vt 0.711604 0.071252
vt 0.695874 0.071252
vt 0.680145 0.071252
vt 0.664416 0.071252
vt 0.648686 0.071252
vt 0.699436 0.099491
vt 0.695341 0.105621
vt 0.681981 0.091505
vt 0.689211 0.109717
vt 0.681981 0.111155
vt 0.674750 0.109717
vt 0.668621 0.105621
vt 0.664525 0.099491
vt 0.663087 0.092261
vt 0.664525 0.085031
vt 0.668621 0.078901
vt 0.674750 0.074805
vt 0.681981 0.073367
vt 0.689211 0.074805
vt 0.695341 0.078901
vt 0.699436 0.085031
vt 0.700874 0.092261
vt 0.738675 0.073019
vt 0.738675 0.082529
vt 0.631290 0.082529
vt 0.631290 0.073019
vt 0.738675 0.092040
vt 0.631290 0.092040
vt 0.738675 0.101551
vt 0.631290 0.101551
vt 0.738675 0.111062
vt 0.631290 0.111062
vt 0.738675 0.101572
vt 0.631290 0.101572
vt 0.738675 0.092083
vt 0.631290 0.092083
vt 0.738675 0.082593
vt 0.631290 0.082593
vt 0.738675 0.073103
vt 0.631290 0.073103
vt 0.695260 0.104750
vt 0.680356 0.110924
vt 0.680356 0.089003
vt 0.665452 0.104750
vt 0.659279 0.089846
vt 0.665452 0.074943
vt 0.680356 0.068769
vt 0.695260 0.074943
vt 0.701433 0.089846
vt 0.642457 0.092083
vt 0.642457 0.101572
vt 0.642457 0.111062
vt 0.642457 0.101551
vt 0.642457 0.092040
vt 0.642457 0.082530
vt 0.642457 0.073019
vt 0.642457 0.073103
vt 0.642457 0.082593
vt 0.659063 0.101572
vt 0.659063 0.111062
vt 0.659063 0.101551
vt 0.659063 0.092040
vt 0.659063 0.082529
vt 0.659063 0.073019
vt 0.659063 0.073103
vt 0.659063 0.082593
vt 0.659063 0.092083
vn 0.000000 -1.000000 0.000000
vn 0.000000 -1.000000 0.000000
vn 0.000000 -1.000000 0.000000
vn 0.000000 -1.000000 0.000000
vn 0.000000 -1.000000 0.000000
vn 0.000000 -1.000000 0.000000
vn 0.000000 -1.000000 0.000000
vn 0.000000 -1.000000 0.000000
vn 0.000000 -1.000000 0.000000
vn 0.000000 -1.000000 0.000000
vn 0.000000 -1.000000 0.000000
vn 0.000000 -1.000000 0.000000
vn 0.000000 -1.000000 0.000000
vn 0.000000 -1.000000 0.000000
vn 0.000000 -1.000000 0.000000
vn 0.000000 -1.000000 0.000000
vn 0.000000 -1.000000 0.000000
vn 0.000000 -1.000000 0.000000
vn 0.000000 -1.000000 0.000000
vn 0.000000 -1.000000 0.000000
vn 0.000000 -1.000000 0.000000
vn 0.000000 -1.000000 0.000000
vn 0.000000 -1.000000 0.000000
vn 0.000000 -1.000000 0.000000
vn 0.000000 -1.000000 0.000000
vn 0.000000 -1.000000 0.000000
vn 0.000000 -1.000000 0.000000
vn 0.000000 -1.000000 0.000000
vn 0.000000 -1.000000 0.000000
vn 0.000000 -1.000000 0.000000
vn 0.000000 -1.000000 0.000000
vn 0.000000 -1.000000 0.000000
vn 0.000000 -1.000000 0.000000
vn 0.000000 -1.000000 0.000000
vn 0.000000 -1.000000 0.000000
vn 0.000000 -1.000000 0.000000
vn 0.000000 -1.000000 0.000000
vn 0.000000 -1.000000 0.000000
vn 0.000000 -1.000000 0.000000
vn 0.000000 -1.000000 0.000000
vn 0.000000 -1.000000 0.000000
vn 0.000000 -1.000000 0.000000
vn 0.000000 -1.000000 0.000000
vn 0.000000 -1.000000 0.000000
vn 0.000000 -1.000000 0.000000
vn 0.000000 -1.000000 0.000000
vn 0.000000 -1.000000 0.000000
vn 0.000000 -1.000000 0.000000
vn 0.429193 0.885544 -0.177778
vn 0.429193 0.885544 -0.177778
vn 0.464555 0.885544 0.000000
vn 0.464555 0.885544 0.000000
vn 0.429193 0.885544 -0.177778
vn 0.429193 0.885544 -0.177778
vn 0.328491 0.885544 -0.328490
vn 0.328491 0.885544 -0.328490
vn 0.328491 0.885544 -0.328490
vn 0.328491 0.885544 -0.328490
vn 0.177779 0.885544 -0.429193
vn 0.177778 0.885544 -0.429193
vn 0.177778 0.885544 -0.429193
vn 0.177779 0.885544 -0.429193
vn 0.000000 0.885544 -0.464556
vn 0.000000 0.885544 -0.464556
vn 0.000000 0.885544 -0.464556
vn 0.000000 0.885544 -0.464556
vn -0.177778 0.885544 -0.429193
vn -0.177778 0.885544 -0.429193
vn -0.177778 0.885544 -0.429193
vn -0.177778 0.885544 -0.429193
vn -0.328490 0.885544 -0.328490
vn -0.328490 0.885544 -0.328490
vn -0.328490 0.885544 -0.328490
vn -0.328490 0.885544 -0.328490
vn -0.429193 0.885544 -0.177777
vn -0.429193 0.885544 -0.177777
vn -0.429193 0.885544 -0.177777
vn -0.429193 0.885544 -0.177777
vn -0.464555 0.885544 -0.000000
vn -0.464555 0.885544 -0.000000
vn -0.464555 0.885544 -0.000000
vn -0.464555 0.885544 -0.000000
vn -0.429193 0.885544 0.177777
vn -0.429193 0.885544 0.177777
vn -0.429193 0.885544 0.177777
vn -0.429193 0.885544 0.177777
vn -0.328490 0.885544 0.328490
vn -0.328490 0.885544 0.328490
vn -0.328490 0.885544 0.328490
vn -0.328490 0.885544 0.328490
vn -0.177777 0.885544 0.429193
vn -0.177777 0.885545 0.429192
vn -0.177777 0.885545 0.429192
vn -0.177777 0.885544 0.429193
vn 0.000000 0.885544 0.464555
vn 0.000000 0.885544 0.464555
vn 0.000000 0.885544 0.464555
vn 0.000000 0.885544 0.464555
vn 0.177777 0.885544 0.429193
vn 0.177777 0.885544 0.429193
vn 0.177777 0.885544 0.429193
vn 0.177777 0.885544 0.429193
vn 0.328490 0.885544 0.328490
vn 0.328490 0.885544 0.328490
vn 0.328490 0.885544 0.328490
vn 0.328490 0.885544 0.328490
vn 0.429193 0.885544 0.177777
vn 0.429193 0.885544 0.177777
vn 0.429193 0.885544 0.177777
vn 0.429193 0.885544 0.177777
vn 0.464555 0.885544 0.000000
vn 0.464555 0.885544 0.000000
vn 0.782395 0.531818 -0.324079
vn 0.598820 0.531818 -0.598819
vn 0.598820 0.531818 -0.598819
vn 0.782395 0.531818 -0.324079
vn 0.598820 0.531818 -0.598819
vn 0.324080 0.531819 -0.782394
vn 0.324081 0.531819 -0.782394
vn 0.598820 0.531818 -0.598819
vn 0.324080 0.531819 -0.782394
vn 0.000001 0.531820 -0.846858
vn 0.000001 0.531820 -0.846858
vn 0.324081 0.531819 -0.782394
vn 0.000001 0.531820 -0.846858
vn -0.324079 0.531819 -0.782395
vn -0.324079 0.531819 -0.782395
vn 0.000001 0.531820 -0.846858
vn -0.324079 0.531819 -0.782395
vn -0.598819 0.531817 -0.598820
vn -0.598819 0.531817 -0.598820
vn -0.324079 0.531819 -0.782395
vn -0.598819 0.531817 -0.598820
vn -0.782396 0.531817 -0.324079
vn -0.782396 0.531818 -0.324079
vn -0.598819 0.531817 -0.598820
vn -0.782396 0.531817 -0.324079
vn -0.846859 0.531817 -0.000000
vn -0.846859 0.531817 -0.000001
vn -0.782396 0.531818 -0.324079
vn -0.846859 0.531817 -0.000000
vn -0.782396 0.531818 0.324078
vn -0.782396 0.531818 0.324078
vn -0.846859 0.531817 -0.000001
vn -0.782396 0.531818 0.324078
vn -0.598819 0.531818 0.598820
vn -0.598819 0.531818 0.598820
vn -0.782396 0.531818 0.324078
vn -0.598819 0.531818 0.598820
vn -0.324079 0.531818 0.782396
vn -0.324079 0.531818 0.782396
vn -0.598819 0.531818 0.598820
vn -0.324079 0.531818 0.782396
vn 0.000000 0.531818 0.846859
vn 0.000000 0.531818 0.846859
vn -0.324079 0.531818 0.782396
vn 0.000000 0.531818 0.846859
vn 0.324078 0.531818 0.782396
vn 0.324078 0.531818 0.782396
vn 0.000000 0.531818 0.846859
vn 0.324078 0.531818 0.782396
vn 0.598820 0.531818 0.598820
vn 0.598820 0.531818 0.598820
vn 0.324078 0.531818 0.782396
vn 0.598820 0.531818 0.598820
vn 0.782396 0.531817 0.324078
vn 0.782396 0.531817 0.324079
vn 0.598820 0.531818 0.598820
vn 0.782396 0.531817 0.324078
vn 0.846859 0.531818 0.000001
vn 0.846859 0.531818 0.000001
vn 0.782396 0.531817 0.324079
vn 0.846859 0.531818 0.000001
vn 0.782395 0.531818 -0.324079
vn 0.782395 0.531818 -0.324079
vn 0.846859 0.531818 0.000001
vn 0.000000 1.000000 0.000000
vn 0.000000 1.000000 0.000000
vn 0.000000 1.000000 0.000000
vn 0.000000 1.000000 0.000000
vn 0.000000 1.000000 0.000000
vn 0.000000 1.000000 0.000000
vn 0.000000 1.000000 0.000000
vn 0.000000 1.000000 0.000000
vn 0.000000 1.000000 0.000000
vn 0.000000 1.000000 0.000000
vn 0.000000 1.000000 0.000000
vn 0.000000 1.000000 0.000000
vn 0.000000 1.000000 0.000000
vn 0.000000 1.000000 0.000000
vn 0.000000 1.000000 0.000000
vn 0.000000 1.000000 0.000000
vn 0.000000 1.000000 0.000000
vn 0.000000 1.000000 0.000000
vn 0.000000 1.000000 0.000000
vn 0.000000 1.000000 0.000000
vn 0.000000 1.000000 0.000000
vn 0.000000 1.000000 0.000000
vn 0.000000 1.000000 0.000000
vn 0.000000 1.000000 0.000000
vn 0.000000 1.000000 0.000000
vn 0.000000 1.000000 0.000000
vn 0.000000 1.000000 0.000000
vn 0.000000 1.000000 0.000000
vn 0.000000 1.000000 0.000000
vn 0.000000 1.000000 0.000000
vn 0.000000 1.000000 0.000000
vn 0.000000 1.000000 0.000000
vn 0.000000 1.000000 0.000000
vn 0.000000 1.000000 0.000000
vn 0.000000 1.000000 0.000000
vn 0.000000 1.000000 0.000000
vn 0.000000 1.000000 0.000000
vn 0.000000 1.000000 0.000000
vn 0.000000 1.000000 0.000000
vn 0.000000 1.000000 0.000000
vn 0.000000 1.000000 0.000000
vn 0.000000 1.000000 0.000000
vn 0.000000 1.000000 0.000000
vn 0.000000 1.000000 0.000000
vn 0.000000 1.000000 0.000000
vn 0.000000 1.000000 0.000000
vn 0.000000 1.000000 0.000000
vn 0.000000 1.000000 0.000000
vn 0.707107 0.000000 -0.707107
vn 0.000000 0.000000 -1.000000
vn 0.000000 -0.046344 -0.998926
vn 0.706347 -0.046350 -0.706347
vn 0.000000 0.000000 -1.000000
vn -0.707107 0.000000 -0.707107
vn -0.706347 -0.046350 -0.706347
vn 0.000000 -0.046344 -0.998926
vn -0.707107 0.000000 -0.707107
vn -1.000000 0.000000 0.000000
vn -0.998926 -0.046344 0.000000
vn -0.706347 -0.046350 -0.706347
vn -1.000000 0.000000 0.000000
vn -0.707107 0.000000 0.707107
vn -0.706347 -0.046350 0.706347
vn -0.998926 -0.046344 0.000000
vn -0.707107 0.000000 0.707107
vn 0.000000 0.000000 1.000000
vn 0.000000 -0.046344 0.998926
vn -0.706347 -0.046350 0.706347
vn 0.000000 0.000000 1.000000
vn 0.707107 0.000000 0.707107
vn 0.706347 -0.046350 0.706347
vn 0.000000 -0.046344 0.998926
vn 0.707107 0.000000 0.707107
vn 1.000000 0.000000 0.000000
vn 0.998926 -0.046344 0.000000
vn 0.706347 -0.046350 0.706347
vn 1.000000 0.000000 0.000000
vn 0.707107 0.000000 -0.707107
vn 0.706347 -0.046350 -0.706347
vn 0.998926 -0.046344 0.000000
vn 0.000000 1.000000 0.000000
vn 0.000000 1.000000 0.000000
vn 0.000000 1.000000 0.000000
vn 0.000000 1.000000 0.000000
vn 0.000000 1.000000 0.000002
vn 0.000000 1.000000 0.000000
vn 0.000000 1.000000 0.000002
vn 0.000000 1.000000 0.000002
vn 0.000000 1.000000 0.000000
vn 0.000000 1.000000 0.000002
vn 0.000000 1.000000 0.000000
vn 0.000000 1.000000 0.000000
vn 0.000000 1.000000 0.000000
vn 0.000000 1.000000 0.000000
vn 0.000000 1.000000 0.000000
vn 0.000000 1.000000 0.000000
vn 0.000000 1.000000 -0.000002
vn 0.000000 1.000000 0.000000
vn 0.000000 1.000000 -0.000002
vn 0.000000 1.000000 -0.000002
vn 0.000000 1.000000 0.000000
vn 0.000000 1.000000 -0.000002
vn 0.000000 1.000000 0.000000
vn 0.000000 1.000000 0.000000
vn 0.000000 -0.046344 0.998926
vn 0.706347 -0.046350 0.706347
vn 0.628893 -0.457152 0.628892
vn 0.000000 -0.457131 0.889399
vn -0.706347 -0.046350 0.706347
vn 0.000000 -0.046344 0.998926
vn 0.000000 -0.457131 0.889399
vn -0.628893 -0.457151 0.628892
vn -0.998926 -0.046344 0.000000
vn -0.706347 -0.046350 0.706347
vn -0.628893 -0.457151 0.628892
vn -0.889400 -0.457131 0.000000
vn -0.706347 -0.046350 -0.706347
vn -0.998926 -0.046344 0.000000
vn -0.889400 -0.457131 0.000000
vn -0.628893 -0.457152 -0.628892
vn 0.000000 -0.046344 -0.998926
vn -0.706347 -0.046350 -0.706347
vn -0.628893 -0.457152 -0.628892
vn 0.000000 -0.457131 -0.889399
vn 0.706347 -0.046350 -0.706347
vn 0.000000 -0.046344 -0.998926
vn 0.000000 -0.457131 -0.889399
vn 0.628893 -0.457151 -0.628892
vn 0.998926 -0.046344 0.000000
vn 0.706347 -0.046350 -0.706347
vn 0.628893 -0.457151 -0.628892
vn 0.889400 -0.457131 0.000000
vn 0.706347 -0.046350 0.706347
vn 0.998926 -0.046344 0.000000
vn 0.889400 -0.457131 0.000000
vn 0.628893 -0.457152 0.628892
vn -0.628893 -0.457151 0.628892
vn 0.000000 -0.457131 0.889399
vn 0.000000 -0.388095 0.921619
vn -0.651676 -0.388119 0.651676
vn -0.889400 -0.457131 0.000000
vn -0.628893 -0.457151 0.628892
vn -0.651676 -0.388119 0.651676
vn -0.921619 -0.388095 0.000000
vn -0.628893 -0.457152 -0.628892
vn -0.889400 -0.457131 0.000000
vn -0.921619 -0.388095 0.000000
vn -0.651677 -0.388119 -0.651676
vn 0.000000 -0.457131 -0.889399
vn -0.628893 -0.457152 -0.628892
vn -0.651677 -0.388119 -0.651676
vn 0.000000 -0.388095 -0.921619
vn 0.628893 -0.457151 -0.628892
vn 0.000000 -0.457131 -0.889399
vn 0.000000 -0.388095 -0.921619
vn 0.651676 -0.388119 -0.651676
vn 0.889400 -0.457131 0.000000
vn 0.628893 -0.457151 -0.628892
vn 0.651676 -0.388119 -0.651676
vn 0.921619 -0.388095 0.000000
vn 0.628893 -0.457152 0.628892
vn 0.889400 -0.457131 0.000000
vn 0.921619 -0.388095 0.000000
vn 0.651677 -0.388119 0.651676
vn 0.000000 -0.457131 0.889399
vn 0.628893 -0.457152 0.628892
vn 0.651677 -0.388119 0.651676
vn 0.000000 -0.388095 0.921619
f 2/1/1 1/2/2 17/3/3
f 3/4/4 2/1/5 17/3/6
f 4/5/7 3/4/8 17/3/9
f 5/6/10 4/5/11 17/3/12
f 6/7/13 5/6/14 17/3/15
f 7/8/16 6/7/17 17/3/18
f 8/9/19 7/8/20 17/3/21
f 9/10/22 8/9/23 17/3/24
f 10/11/25 9/10/26 17/3/27
f 11/12/28 10/11/29 17/3/30
f 12/13/31 11/12/32 17/3/33
f 13/14/34 12/13/35 17/3/36
f 14/15/37 13/14/38 17/3/39
f 15/16/40 14/15/41 17/3/42
f 16/17/43 15/16/44 17/3/45
f 1/2/46 16/17/47 17/3/48
f 19/18/49 20/19/50 50/20/51 49/21/52
f 20/22/53 19/23/54 21/24/55 22/25/56
f 22/25/57 21/24/58 23/26/59 24/27/60
f 24/27/61 23/26/62 25/28/63 26/29/64
f 26/29/65 25/28/66 27/30/67 28/31/68
f 28/31/69 27/30/70 29/32/71 30/33/72
f 30/33/73 29/32/74 31/34/75 32/35/76
f 32/35/77 31/34/78 33/36/79 34/37/80
f 34/37/81 33/36/82 35/38/83 36/39/84
f 36/39/85 35/38/86 37/40/87 38/41/88
f 38/41/89 37/40/90 39/42/91 40/43/92
f 40/43/93 39/42/94 41/44/95 42/45/96
f 42/45/97 41/44/98 43/46/99 44/47/100
f 44/47/101 43/46/102 45/48/103 46/49/104
f 46/49/105 45/48/106 47/50/107 48/51/108
f 48/51/109 47/50/110 49/21/111 50/20/112
f 1/52/113 2/53/114 21/24/115 19/23/116
f 2/53/117 3/54/118 23/26/119 21/24/120
f 3/54/121 4/55/122 25/28/123 23/26/124
f 4/55/125 5/56/126 27/30/127 25/28/128
f 5/56/129 6/57/130 29/32/131 27/30/132
f 6/57/133 7/58/134 31/34/135 29/32/136
f 7/58/137 8/59/138 33/36/139 31/34/140
f 8/59/141 9/60/142 35/38/143 33/36/144
f 9/60/145 10/61/146 37/40/147 35/38/148
f 10/61/149 11/62/150 39/42/151 37/40/152
f 11/62/153 12/63/154 41/44/155 39/42/156
f 12/63/157 13/64/158 43/46/159 41/44/160
f 13/64/161 14/65/162 45/48/163 43/46/164
f 14/65/165 15/66/166 47/50/167 45/48/168
f 15/66/169 16/67/170 49/21/171 47/50/172
f 16/67/173 1/68/174 19/18/175 49/21/176
f 20/69/177 22/70/178 18/71/179
f 22/70/180 24/72/181 18/71/182
f 24/72/183 26/73/184 18/71/185
f 26/73/186 28/74/187 18/71/188
f 28/74/189 30/75/190 18/71/191
f 30/75/192 32/76/193 18/71/194
f 32/76/195 34/77/196 18/71/197
f 34/77/198 36/78/199 18/71/200
f 36/78/201 38/79/202 18/71/203
f 38/79/204 40/80/205 18/71/206
f 40/80/207 42/81/208 18/71/209
f 42/81/210 44/82/211 18/71/212
f 44/82/213 46/83/214 18/71/215
f 46/83/216 48/84/217 18/71/218
f 48/84/219 50/85/220 18/71/221
f 50/85/222 20/69/223 18/71/224
f 51/86/225 52/87/226 73/88/227 74/89/228
f 52/87/229 53/90/230 72/91/231 73/88/232
f 53/90/233 54/92/234 71/93/235 72/91/236
f 54/92/237 55/94/238 70/95/239 71/93/240
f 55/94/241 56/96/242 69/97/243 70/95/244
f 56/96/245 57/98/246 68/99/247 69/97/248
f 57/98/249 58/100/250 75/101/251 68/99/252
f 58/100/253 51/102/254 74/103/255 75/101/256
f 59/104/257 60/105/258 67/106/259
f 60/105/260 61/107/261 67/106/262
f 61/107/263 62/108/264 67/106/265
f 62/108/266 63/109/267 67/106/268
f 63/109/269 64/110/270 67/106/271
f 64/110/272 65/111/273 67/106/274
f 65/111/275 66/112/276 67/106/277
f 66/112/278 59/104/279 67/106/280
f 69/97/281 68/99/282 83/113/283 76/114/284
f 70/95/285 69/97/286 76/114/287 77/115/288
f 71/93/289 70/95/290 77/115/291 78/116/292
f 72/91/293 71/93/294 78/116/295 79/117/296
f 73/88/297 72/91/298 79/117/299 80/118/300
f 74/89/301 73/88/302 80/118/303 81/119/304
f 75/101/305 74/103/306 81/120/307 82/121/308
f 68/99/309 75/101/310 82/121/311 83/113/312
f 77/115/313 76/114/314 64/122/315 63/123/316
f 78/116/317 77/115/318 63/123/319 62/124/320
f 79/117/321 78/116/322 62/124/323 61/125/324
f 80/118/325 79/117/326 61/125/327 60/126/328
f 81/119/329 80/118/330 60/126/331 59/127/332
f 82/121/333 81/120/334 59/128/335 66/129/336
f 83/113/337 82/121/338 66/129/339 65/130/340
f 76/114/341 83/113/342 65/130/343 64/122/344
