# This file uses centimeters as units for non-parametric coordinates.

v -15.258965 0.000000 7.914052
v 15.258965 0.000000 7.914052
v -7.080866 170.324875 3.900679
v 7.080866 170.324875 3.900679
v -7.080866 170.324875 -3.900679
v 7.080866 170.324875 -3.900679
v -15.258965 0.000000 -7.914052
v 15.258965 0.000000 -7.914052
v -1.532303 164.273804 1.532303
v 1.532303 164.273804 1.532303
v -1.532303 211.343781 1.532303
v 1.532303 211.343781 1.532303
v -1.532303 211.343781 -1.532303
v 1.532303 211.343781 -1.532303
v -1.532303 164.273804 -1.532303
v 1.532303 164.273804 -1.532303
v 1.532303 206.612091 1.532303
v -1.532303 206.612091 1.532303
v -1.532303 206.612091 -1.532303
v 1.532303 206.612091 -1.532303
v 1.532303 192.247849 1.532303
v -1.532303 192.247849 1.532303
v -1.532303 192.247849 -1.532303
v 1.532303 192.247849 -1.532303
vt 0.587896 0.069867
vt 0.587896 0.114135
vt 0.523410 0.114135
vt 0.523410 0.069867
vt 0.534697 0.114135
vt 0.534772 0.069867
vt 0.597601 0.114135
vt 0.597616 0.069867
vt 0.585864 0.114135
vt 0.585863 0.069867
vt 0.587896 0.069867
vt 0.523410 0.069867
vt 0.587896 0.114135
vt 0.523410 0.114135
vt 0.594422 0.097373
vt 0.594422 0.087064
vt 0.552988 0.087064
vt 0.552988 0.097373
vt 0.524705 0.097373
vt 0.524705 0.087064
vt 0.535943 0.087064
vt 0.536055 0.097373
vt 0.552988 0.087063
vt 0.552988 0.097373
vt 0.594422 0.097373
vt 0.594422 0.087063
vt 0.594422 0.087063
vt 0.552988 0.087063
vt 0.531713 0.097373
vt 0.531713 0.087064
vt 0.531713 0.087063
vt 0.524705 0.087063
vt 0.524705 0.087063
vt 0.524705 0.097373
vt 0.531713 0.097373
vt 0.531713 0.087063
vn 0.000000 0.023557 0.999723
vn 0.000000 0.023557 0.999723
vn 0.000000 0.023557 0.999723
vn 0.000000 0.023557 0.999723
vn 0.000000 1.000000 0.000000
vn 0.000000 1.000000 0.000000
vn 0.000000 1.000000 0.000000
vn 0.000000 1.000000 0.000000
vn 0.000000 0.023557 -0.999723
vn 0.000000 0.023557 -0.999723
vn 0.000000 0.023557 -0.999723
vn 0.000000 0.023557 -0.999723
vn 0.000000 -1.000000 0.000000
vn 0.000000 -1.000000 0.000000
vn 0.000000 -1.000000 0.000000
vn 0.000000 -1.000000 0.000000
vn 0.998849 0.047959 0.000000
vn 0.998849 0.047959 0.000000
vn 0.998849 0.047959 0.000000
vn 0.998849 0.047959 0.000000
vn -0.998849 0.047959 0.000000
vn -0.998849 0.047959 0.000000
vn -0.998849 0.047959 0.000000
vn -0.998849 0.047959 0.000000
vn 0.000000 0.000000 1.000000
vn 0.000000 0.000000 1.000000
vn 0.000000 0.000000 1.000000
vn 0.000000 0.000000 1.000000
vn 0.000000 1.000000 0.000000
vn 0.000000 1.000000 0.000000
vn 0.000000 1.000000 0.000000
vn 0.000000 1.000000 0.000000
vn 0.000000 0.000000 -1.000000
vn 0.000000 0.000000 -1.000000
vn 0.000000 0.000000 -1.000000
vn 0.000000 0.000000 -1.000000
vn 1.000000 0.000000 0.000000
vn 1.000000 0.000000 0.000000
vn 1.000000 0.000000 0.000000
vn 1.000000 0.000000 0.000000
vn -1.000000 0.000000 0.000000
vn -1.000000 0.000000 0.000000
vn -1.000000 0.000000 0.000000
vn -1.000000 0.000000 0.000000
vn 0.000000 0.000000 1.000000
vn 0.000000 0.000000 1.000000
vn 0.000000 0.000000 1.000000
vn 0.000000 0.000000 1.000000
vn -1.000000 0.000000 0.000000
vn -1.000000 0.000000 0.000000
vn -1.000000 0.000000 0.000000
vn -1.000000 0.000000 0.000000
vn 0.000000 0.000000 -1.000000
vn 0.000000 0.000000 -1.000000
vn 0.000000 0.000000 -1.000000
vn 0.000000 0.000000 -1.000000
vn 1.000000 0.000000 0.000000
vn 1.000000 0.000000 0.000000
vn 1.000000 0.000000 0.000000
vn 1.000000 0.000000 0.000000
vn 0.000000 -1.000000 0.000000
vn 0.000000 -1.000000 0.000000
vn 0.000000 -1.000000 0.000000
vn 0.000000 -1.000000 0.000000
vn 0.000000 1.000000 0.000000
vn 0.000000 1.000000 0.000000
vn 0.000000 1.000000 0.000000
vn 0.000000 1.000000 0.000000
f 1/1/1 2/2/2 4/3/3 3/4/4
f 3/4/5 4/3/6 6/5/7 5/6/8
f 5/6/9 6/5/10 8/7/11 7/8/12
f 7/8/13 8/7/14 2/9/15 1/10/16
f 2/2/17 8/11/18 6/12/19 4/3/20
f 7/13/21 1/1/22 3/4/23 5/14/24
f 9/15/25 10/16/26 21/17/27 22/18/28
f 11/19/29 12/20/30 14/21/31 13/22/32
f 23/23/33 24/24/34 16/25/35 15/26/36
f 10/16/37 16/25/38 24/24/39 21/17/40
f 15/27/41 9/15/42 22/18/43 23/28/44
f 18/29/45 17/30/46 12/20/47 11/19/48
f 19/31/49 18/29/50 11/19/51 13/32/52
f 13/33/53 14/34/54 20/35/55 19/36/56
f 17/30/57 20/35/58 14/34/59 12/20/60
f 18/29/61 19/36/62 20/35/63 17/30/64
f 24/24/65 23/28/66 22/18/67 21/17/68
